<svg width="329" height="347" viewBox="0 0 329 347" fill="none" xmlns="http://www.w3.org/2000/svg">
<g clip-path="url(#clip0_2472_1518)">
<path fill-rule="evenodd" clip-rule="evenodd" d="M127.22 312.642C132.541 312.642 144.94 310.131 156.093 310.131C165.682 310.131 180.118 309.779 189.198 310.921C193.079 311.412 199.665 312.624 203.81 312.624C198.155 317.541 173.69 321.456 165.524 321.456C162.819 321.456 162 321.591 160.715 321.456C154.866 320.842 152.931 320.877 144.8 318.91C141.885 318.208 138.284 317.295 135.474 316.294C132.963 315.398 129.046 314.187 127.237 312.607L127.22 312.642ZM205.689 302.598C206.181 300.508 207.604 298.629 208.71 296.206C210.94 291.29 216.262 279.753 216.367 274.977C220.828 276.013 225.5 276.821 229.627 278.05C233.842 279.279 238.145 280.965 242.114 281.895C241.675 283.528 240.235 285.179 239.111 286.426C232.261 294.134 235.37 291.061 227.519 298.067C225.833 299.56 220.635 304.161 218.545 304.828C217.14 305.284 206.848 303.16 205.689 302.598ZM88.9336 281.895C92.8852 280.982 97.2055 279.297 101.403 278.05C105.548 276.838 110.202 276.031 114.663 274.977C114.75 278.822 121.547 295.574 123.707 299.191C124.708 300.859 124.814 300.42 125.323 302.598C124.41 303.037 114.856 305.109 113.398 305.109C109.991 305.109 93.1135 289.867 88.916 281.895H88.9336ZM124.708 273.098C132.155 273.098 146.995 270.587 162.38 270.587L206.321 273.098C204.337 281.632 198.611 294.415 194.396 300.719C184.983 300.719 174.112 299.472 161.748 299.472C152.527 299.472 145.432 300.719 136.633 300.719C132.734 294.889 129.696 287.549 127.027 280.824L124.708 273.098ZM248.384 273.098C242.395 271.711 229.346 265.811 218.879 264.933C218.879 264.933 223.5 234.447 218.246 221L241 199L265 238.947C262 247 255.5 261 248.384 273.098ZM65 238.947L89.9999 199L116 221C108 240.447 112.134 264.933 112.134 264.933C101.631 265.811 88.6877 271.676 82.6286 273.098C77.4828 263.353 65.0086 243.465 65 238.947ZM116 221L140.374 199H190.621H233H241L218.246 221C218.246 221 214.5 243.947 208.833 263.054L187.652 261C171.091 258.805 149.489 260.298 132.928 261.86C129.556 262.176 125.885 263.054 122.197 263.054C121.434 260.845 120.795 258.717 120.26 256.703C117.178 245.104 117 232.96 116 221ZM195.626 164.031C195.626 160.923 198.172 158.377 201.281 158.377H230.154C233.262 158.377 235.809 160.923 235.809 164.031L236.126 169.484C236.707 179.467 238.341 189.36 241 199H233H190.621C192.87 189.347 194.394 179.539 195.179 169.658L195.626 164.031ZM145.415 164.031C145.415 160.923 147.961 158.377 151.07 158.377H179.943C183.051 158.377 185.598 160.923 185.598 164.031L185.836 169.44C186.277 179.446 187.883 189.366 190.621 199H140.374C142.787 189.352 144.345 179.51 145.03 169.589L145.415 164.031ZM95.1858 164.031C95.1858 160.923 97.7324 158.377 100.841 158.377H129.714C132.822 158.377 135.369 160.923 135.369 164.031L135.672 169.514C136.222 179.478 137.798 189.359 140.374 199L116 221L89.9999 199C92.3298 189.348 93.9093 179.53 94.7244 169.634L95.1858 164.031ZM113.398 143.311C99.436 143.311 100.841 123.223 112.766 123.223C121.705 123.223 125.973 134.303 120.177 140.062C119.036 141.204 115.295 143.311 113.381 143.311H113.398ZM205.672 133.899C205.18 130.721 208.148 123.873 215.208 123.381C220.758 122.995 225.271 127.789 225.605 132.758C226.448 145.313 207.726 147.156 205.672 133.899ZM155.443 133.899C155.162 132.038 157.146 127.578 158.095 126.507C163.17 120.747 174.744 123.258 175.376 132.758C176.219 145.313 157.498 147.156 155.443 133.899ZM92.6744 133.267C92.6744 136.498 93.6403 139.501 94.7468 141.871C96.5381 145.717 97.6973 145.523 99.5765 148.333C92.0948 148.333 85.1401 154.918 85.1401 162.134L85.4221 169.469C85.806 179.456 87.3422 189.365 89.9999 199L65 238.947C65.0404 260.247 73.7628 281.236 87.9121 297.157C88.8644 298.229 89.8749 299.352 90.9533 300.543C93.0608 302.65 94.9927 304.88 97.3285 306.724C119.773 324.248 138.232 331.465 169.265 331.465C183.736 331.465 200.034 326.777 209.869 321.843C222.69 315.416 229.522 311.061 239.743 300.859C244.9 295.703 249.628 288.913 253.881 281.891C261.675 269.025 265 253.99 265 238.947L241 199C243.329 189.352 244.806 179.518 245.413 169.611L245.872 162.134C245.872 154.514 239.374 148.333 229.557 148.333C233.438 142.538 235.826 142.17 235.826 132.02C235.826 121.871 225.833 113.197 218.246 113.197C210.659 113.197 207.445 113.004 201.123 119.307C195.081 125.348 193.993 135.005 197.716 142.503C199.103 145.278 200.491 146.226 201.913 148.35C192.57 148.35 193.114 151.494 190.621 151.494C188.127 151.494 188.741 148.35 179.31 148.35C183.192 142.556 185.598 142.187 185.598 132.038C185.598 121.889 175.605 113.214 168.018 113.214C160.431 113.214 157.217 113.021 150.894 119.325C144.835 125.365 143.764 135.023 147.487 142.521C148.857 145.295 150.262 146.243 151.684 148.368C148.997 148.368 147.417 148.333 145.45 149.035C144.08 149.544 141.27 151.494 140.374 151.494C137.301 151.494 139.865 148.35 127.185 148.35C130.873 142.854 133.455 141.45 133.455 132.652C133.455 122.451 124.585 113.197 112.731 113.197C101.947 113.197 92.6393 122.503 92.6393 133.285L92.6744 133.267Z" fill="#109343"/>
<path d="M65 219L75.4918 213.108C90.9875 204.405 107.537 197.73 124.734 193.244C150.444 186.539 177.486 186.882 203.018 194.238L217.059 198.283C231.405 202.417 245.285 208.023 258.477 215.014L266 219L233 208.5L216.5 204.5L201 201.5L189.572 199.955C172.595 197.66 155.403 197.441 138.373 199.303L132 200L126.278 201.035C108.021 204.338 90.1149 209.349 72.7963 216.004L65 219Z" fill="#109343"/>
<path fill-rule="evenodd" clip-rule="evenodd" d="M138.995 72.6348C139.821 72.8982 139.627 72.8806 140.716 73.0562C146.442 73.9166 154.591 71.2827 158.612 67.8235C160.825 65.9096 160.983 65.6813 162.652 63.4688C164.338 61.2564 165.796 57.5689 166.674 54.8297C167.148 53.3723 168.166 49.6321 168.395 48.1747C168.957 44.856 169.8 41.0457 170.414 37.6216C170.52 37.007 170.643 36.4803 170.766 35.813C170.836 35.4267 170.994 34.4083 171.117 34.0571C171.117 34.0571 171.222 33.9868 171.24 34.4961C171.24 34.6892 171.24 34.9175 171.275 35.0755C171.345 35.8832 171.328 37.8323 171.363 38.763C171.433 40.396 171.398 42.029 171.468 43.662C171.538 45.2248 171.591 46.9631 171.609 48.5259C171.644 52.1958 172.417 58.3415 173.576 61.5373C174.015 62.7314 174.594 63.8903 175.314 64.7682C176.07 65.7164 176.895 66.5242 178.001 67.1212C182.989 69.8253 189.61 67.2441 194.071 65.5408C197.303 64.3117 201.816 61.9588 204.96 61.4671C206.646 61.2037 209.263 61.3091 211.282 61.2213C211.599 60.7823 211.985 59.8516 212.266 59.3073C213.074 57.7445 214.619 54.8121 215.199 53.4601C211.95 53.4249 209.754 53.2845 206.716 52.266C201.535 50.5101 196.442 44.0834 190.172 44.0834C187.081 44.0834 184.956 46.2959 183.586 48.8069C183.253 49.4214 182.901 50.0009 182.585 50.633L181.69 52.5645C181.11 53.7761 180.601 55.4443 180.302 56.849C180.811 56.6207 181.303 55.8306 181.795 55.3389C182.357 54.777 182.814 54.4083 183.428 53.9166C187.327 50.7559 192.315 52.7928 196.196 54.9175C197.373 55.5672 197.338 55.6199 198.304 56.3047C197.9 57.5338 194.475 59.2195 193.175 59.6936C190.12 60.7998 187.029 60.835 183.762 60.835C180.724 60.835 179.161 60.4838 177.703 58.7805C175.35 56.0237 174.77 49.4741 174.524 45.7867C174.313 42.6436 174.208 40.4311 174.155 37.2529C174.103 33.2494 173.962 27.7182 173.646 23.9956C173.558 22.8367 173.418 21.5724 173.102 20.6067C172.873 19.8516 172.171 18.3415 171.697 17.9904C171.117 18.3767 170.994 18.9386 170.836 19.799C170.397 22.187 169.94 24.3293 169.571 26.7875C168.939 31.072 167.06 40.7998 165.813 44.8209C164.127 50.2467 161.897 54.9175 158.226 59.1142C157.822 59.5707 157.401 60.1326 156.997 60.554C156.505 61.0808 156.136 61.4846 155.679 61.9763C153.431 64.2766 148.813 67.6831 146.371 69.0527C143.877 70.4399 142.016 71.0193 139.803 72.0904L138.978 72.6523L138.995 72.6348Z" fill="#109343"/>
<path fill-rule="evenodd" clip-rule="evenodd" d="M137.625 15.8832L138.468 21.2739C139.908 31.0193 143.052 53.144 140.751 60.2028C139.821 63.065 136.607 64.7331 133.779 65.4355C129.95 66.3837 126.684 66.3485 123.347 64.8385C117.885 62.3802 118.289 57.1475 119.641 51.8973C119.922 50.8086 120.835 47.6655 120.941 46.9631C120.765 47.086 120.941 46.9456 120.8 47.1036L119.202 49.7726C117.218 52.7401 116.181 57.1475 116.181 60.9403C116.181 65.5057 118.184 69.3863 120.818 71.4232C123.751 73.6883 128.405 74.777 132.655 73.1264C134.763 72.3011 137.889 69.9482 139.153 68.3152C139.627 67.7006 140.242 67.1036 140.857 66.2081C145.037 60.0799 144.703 58.482 144.615 51.6339C144.545 46.9631 144.158 43.6971 143.93 39.2897C143.667 34.0044 142.56 26.9807 143.79 21.8709L144.703 18.2713C144.879 17.6567 144.756 17.7445 144.422 17.2704C141.665 13.2493 142.49 13.741 141.138 9.9482C140.997 9.54434 140.839 9.19315 140.505 9C140.031 10.2994 139.68 11.1773 139.03 12.3714C138.609 13.1791 137.643 14.8472 137.643 15.8657L137.625 15.8832Z" fill="#109343"/>
<path fill-rule="evenodd" clip-rule="evenodd" d="M160.79 52.4943C160.843 48.4206 160.896 46.2257 160.053 42.187C159.438 39.1669 158.454 36.4978 157.172 34.022C156.136 32.0202 155.153 30.7735 153.765 29.1756C153.045 28.3503 151.728 27.2441 150.85 26.5242C150.305 26.0852 149.884 25.734 149.304 25.3126C148.338 24.6102 147.004 23.6445 145.528 23.4689C145.353 26.1028 145.23 31.7393 146.248 33.7235C148.865 38.7805 155.627 35.3916 159.315 48.4206C159.578 49.3688 160.176 52.0905 160.79 52.5119V52.4943Z" fill="#109343"/>
<path fill-rule="evenodd" clip-rule="evenodd" d="M129.388 83.3108C130.372 83.7322 130.512 83.7674 130.635 85.0316C130.741 86.1203 130.706 89.8253 130.583 90.914C130.425 92.3363 130.144 92.0027 129.248 92.5821C129.476 93.8815 130.829 94.3205 132.286 94.3732C133.779 94.4258 135.202 93.9342 135.851 93.0386C135.904 92.7928 134.763 91.6515 134.657 90.3872C134.429 87.8411 138.907 87.6831 138.24 90.6857C137.871 92.3363 137.221 92.0729 137.063 92.4768C136.958 92.7401 137.028 93.144 137.028 93.4425C137.169 94.0044 141.032 95.0404 143.035 93.6532C143.368 93.425 143.509 93.3547 143.368 92.8455C143.193 92.266 143.122 92.4241 142.771 92.1256C142.069 91.511 142.297 88.7366 142.367 87.5777C142.42 86.5593 142.279 84.6804 142.578 83.8903C142.771 83.3986 142.841 83.4513 143.386 83.3986C143.544 82.9421 143.561 82.6611 143.561 82.0817C143.157 81.5725 141.208 81.3442 140.4 81.3442C139.434 81.3442 137.783 81.4847 137.169 82.0114C137.081 83.2406 138.31 84.3117 138.398 85.453C138.521 87.0509 135.202 86.5593 135.026 86.3486C134.587 84.9263 134.517 84.54 135.447 83.6093C135.728 83.3284 136.08 82.907 135.957 82.2397C135.904 81.9588 135.764 81.871 135.535 81.748C134.429 81.1686 132.637 81.3091 131.478 81.5198C130.179 81.7656 129.406 81.7832 129.406 83.2933L129.388 83.3108Z" fill="#109343"/>
<path fill-rule="evenodd" clip-rule="evenodd" d="M176.737 89.0877C176.684 88.0342 177.158 86.8577 177.826 86.5241C178.546 86.8928 179.442 87.8586 179.248 89.1053H176.755L176.737 89.0877ZM171.345 93.2142C171.802 94.3731 173.839 94.5311 175.35 94.1799C176.105 94.0043 176.79 93.7936 176.614 92.8981C176.333 91.4934 175.543 93.3546 175.683 91.3002C177 91.2475 179.389 90.7559 180.249 91.669C180.144 92.9508 178.792 92.0026 179.424 93.4951C179.933 94.6716 184.517 94.2326 185.624 93.9868C187.485 93.5829 186.572 92.6698 185.676 91.9675C184.886 91.3529 184.675 90.51 184.148 89.3687C183.13 87.1211 181.11 81.7655 178.581 81.3617C176.175 80.9754 176.333 83.2581 176.105 84.2941C175.736 85.9973 173.716 90.9841 172.768 91.8445C172.206 92.3538 171.749 92.4064 171.363 93.179L171.345 93.2142Z" fill="#109343"/>
<path fill-rule="evenodd" clip-rule="evenodd" d="M150.341 86.5066C151.166 86.6997 152.044 87.9113 151.851 89.0702L149.375 89.1054C149.339 87.8235 149.761 87.086 150.341 86.489V86.5066ZM143.983 93.2845C145.142 94.8648 148.532 94.4609 149.111 93.6532C149.287 93.4074 149.287 93.0035 149.164 92.6699C148.988 92.1958 148.795 92.4241 148.391 92.3714L148.251 91.4056C148.848 91.1247 151.956 90.8788 152.922 91.7217C152.729 92.0904 152.834 92.266 152.308 92.4943C152.114 92.5821 152.027 92.5821 151.956 92.7226C151.886 92.9157 152.009 93.4601 152.097 93.6181C152.641 94.5136 156.435 94.2853 157.453 94.1449C158.525 94.0044 158.595 93.9868 159.297 93.4776C159.35 92.1782 158.296 92.7577 157.295 90.5452C156.786 89.439 156.277 88.2976 155.75 87.1212C154.942 85.2774 153.309 82.0114 151.552 81.4671C149.849 80.9403 149.076 81.8709 148.848 83.3108C148.707 84.1536 148.707 84.6102 148.479 85.3828C148.215 86.2959 146.635 89.6673 146.196 90.5803C145.177 92.7401 144.44 91.9675 143.948 93.2493L143.983 93.2845Z" fill="#109343"/>
<path fill-rule="evenodd" clip-rule="evenodd" d="M159.455 82.9947C160.948 84.1712 161.194 82.5382 161.194 87.8059C161.194 89.0526 161.458 91.23 160.843 92.1782C160.597 92.5645 160.334 92.5469 160.088 92.6347C159.772 92.7576 159.965 92.5996 159.807 92.8454C159.684 93.1264 159.754 93.46 159.894 93.6883C160.966 94.1448 166.744 94.2151 168.36 94.2151C169.501 94.2151 169.431 94.3907 169.993 93.6356C170.924 92.3538 172.153 89.6672 169.624 89.3687C169.273 90.5452 168.904 91.6163 167.587 91.9148C166.182 92.2133 165.251 91.4231 165.321 89.7901C165.409 87.964 165.356 86.05 165.427 84.1536C165.462 83.2405 166.217 83.5566 166.568 83.0474C166.744 82.8015 166.744 82.345 166.691 82.0289C165.69 81.4319 163.934 81.3266 162.564 81.3792C161.826 81.4144 161.194 81.5197 160.527 81.6953C159.719 81.906 159.508 82.0641 159.438 83.0298L159.455 82.9947Z" fill="#109343"/>
<path fill-rule="evenodd" clip-rule="evenodd" d="M186.853 83.0474C187.714 83.504 188.328 83.5215 188.486 84.6102C188.627 85.5935 188.644 89.878 188.557 90.914C188.311 93.7586 186.888 91.5637 187.222 93.6883C187.924 93.8288 188.346 93.9166 189.119 93.9868C190.172 94.0746 196.161 94.2853 196.758 94.2151C197.109 94.18 197.127 93.9868 197.355 93.6708C197.671 93.2318 197.952 92.7401 198.181 92.1958C198.76 90.7735 198.69 89.5443 197.022 89.3688C196.828 90.036 196.021 91.7744 195.055 91.9675C194.528 92.0729 193.456 91.9148 193.14 91.6339C192.455 91.0369 192.719 85.3477 192.824 84.1712C192.965 82.7138 194.229 83.9956 194.071 81.9939C193.07 81.3617 191.367 81.2739 189.962 81.3442C188.557 81.4144 186.835 81.4144 186.853 83.0299V83.0474Z" fill="#109343"/>
<path d="M241.447 40.3268C241.447 40.3268 366.599 34.236 269.267 208.564C396.552 20.1347 241.447 40.3268 241.447 40.3268Z" fill="#109343"/>
<path d="M78.5637 237.18C78.5637 237.18 -45.4634 219.362 83.242 66.7222C-77.5511 227.51 78.5637 237.18 78.5637 237.18Z" fill="#109343"/>
</g>
<defs>
<clipPath id="clip0_2472_1518">
<rect width="329" height="347" fill="white"/>
</clipPath>
</defs>
</svg>
