<svg width="393" height="652" viewBox="0 0 393 652" fill="none" xmlns="http://www.w3.org/2000/svg">
<g clip-path="url(#clip0_1268_3207)">
<rect width="393" height="652" fill=""/>
<path d="M46.2353 105.812C194.081 105.614 328.125 145.413 285.392 302.277C240.318 467.646 395.609 545.494 557.903 583.506L557.88 583.7C395.47 545.673 240.05 467.762 285.161 302.247C327.851 145.577 193.94 105.809 46.2118 106.005L46.2353 105.812Z" fill="url(#paint0_linear_1268_3207)"/>
<path d="M45.4923 111.934C187.811 103.035 315.193 137.042 278.134 301.077C237.707 479.984 395.033 552.821 557.78 584.521L557.757 584.715C394.894 552.999 237.435 480.133 277.903 301.048C314.917 137.223 187.67 103.23 45.4689 112.127L45.4923 111.934Z" fill="url(#paint1_linear_1268_3207)"/>
<path d="M44.8919 116.882C181.634 100.006 302.408 129.234 270.878 299.863C235.223 492.725 394.511 559.859 557.721 585.007L557.698 585.2C394.37 560.054 234.949 492.889 270.645 299.85C302.13 129.431 181.489 100.233 44.8665 117.091L44.8919 116.882Z" fill="url(#paint2_linear_1268_3207)"/>
<path d="M44.4382 120.619C175.5 96.6204 289.8 122.05 263.621 298.646C232.88 505.912 394.043 566.604 557.727 584.958L557.704 585.151C393.902 566.799 232.626 506.076 263.389 298.633C289.54 122.262 175.356 96.8473 44.4128 120.828L44.4382 120.619Z" fill="url(#paint3_linear_1268_3207)"/>
<path d="M44.1413 123.067C169.453 92.8477 277.387 115.522 256.365 297.43C230.696 519.563 393.596 573.028 557.802 584.345L557.778 584.538C393.475 573.223 230.442 519.727 256.131 297.433C277.125 115.75 169.305 93.1069 44.114 123.293L44.1413 123.067Z" fill="url(#paint4_linear_1268_3207)"/>
<path d="M43.9945 124.276C163.474 88.8342 265.155 109.75 249.107 296.231C228.669 533.697 393.197 579.05 557.948 583.138L557.925 583.331C393.076 579.245 228.414 533.861 248.872 296.234C264.913 109.978 163.326 89.0933 43.9671 124.502L43.9945 124.276Z" fill="url(#paint5_linear_1268_3207)"/>
<path d="M44.0141 124.115C157.591 84.5122 253.169 104.696 241.851 295.014C226.795 548.326 392.812 584.636 558.173 581.284L558.15 581.477C392.691 584.831 226.559 548.505 241.614 295.033C252.922 104.957 157.439 84.8036 43.9848 124.356L44.0141 124.115Z" fill="url(#paint6_linear_1268_3207)"/>
<path d="M44.1979 122.6C151.812 79.9805 241.393 100.478 234.595 293.798C225.608 549.579 375.647 586.355 532.799 580.141C541.358 579.797 549.911 579.34 558.478 578.771L558.455 578.964C549.888 579.534 541.335 579.99 532.795 580.334C375.524 586.565 225.371 549.758 234.376 293.833C241.145 100.755 151.657 80.288 44.1666 122.858L44.1979 122.6Z" fill="url(#paint7_linear_1268_3207)"/>
<path d="M44.5362 119.812C146.134 75.4151 229.878 97.1732 227.337 292.598C223.992 549.211 358.674 588.102 506.615 580.036C523.921 579.088 541.401 577.511 558.869 575.548L558.846 575.741C541.379 577.688 523.917 579.282 506.611 580.229C358.551 588.313 223.755 549.391 227.1 292.617C229.649 97.4494 145.999 75.7223 44.5029 120.086L44.5362 119.812Z" fill="url(#paint8_linear_1268_3207)"/>
<path d="M45.0327 115.721C140.576 70.8335 218.66 94.7992 220.078 291.399C221.973 548.947 343.724 590.245 482.812 580.757C507.967 579.039 533.673 575.674 559.346 571.618L559.323 571.811C533.65 575.868 507.963 579.233 482.808 580.95C343.603 590.439 221.736 549.127 219.842 291.418C218.409 95.0917 140.439 71.1569 44.9975 116.011L45.0327 115.721Z" fill="url(#paint9_linear_1268_3207)"/>
<path d="M45.6798 110.388C135.143 66.3459 207.714 93.402 212.822 290.183C219.555 548.911 330.474 592.704 461.253 582.142C493.351 579.553 526.667 573.683 559.917 566.913L559.892 567.123C526.642 573.892 493.367 579.745 461.269 582.335C330.35 592.915 219.318 549.091 212.605 290.201C207.481 93.7105 135.004 66.6854 45.6427 110.694L45.6798 110.388Z" fill="url(#paint10_linear_1268_3207)"/>
<path d="M46.4484 104.056C129.821 62.2265 197.104 93.0944 205.584 288.982C216.836 549.104 318.634 595.452 441.737 584.081C479.983 580.565 520.295 571.458 560.578 561.467L560.552 561.677C520.27 571.668 479.979 580.758 441.731 584.29C318.511 595.662 216.599 549.284 205.325 289.017C196.872 93.4028 129.698 62.598 46.4092 104.379L46.4484 104.056Z" fill="url(#paint11_linear_1268_3207)"/>
<path d="M47.3359 96.7421C124.668 58.4918 186.834 93.8612 198.325 287.782C213.835 549.526 307.956 598.443 424.001 586.481C467.68 581.984 514.477 568.858 561.336 555.217L561.311 555.426C514.453 569.051 467.676 582.177 423.997 586.674C307.835 598.638 213.598 549.706 198.071 287.785C186.62 94.1694 124.525 58.8635 47.2948 97.0805L47.3359 96.7421Z" fill="url(#paint12_linear_1268_3207)"/>
<path d="M48.2959 88.8326C119.644 55.4641 176.935 95.7503 191.069 286.567C210.609 550.193 298.251 601.633 407.82 589.266C454.365 584.01 504.887 567.236 555.835 550.329L562.207 548.209L562.181 548.418L555.911 550.505C504.963 567.412 454.442 584.186 407.838 589.443C298.15 601.828 210.372 550.373 190.835 286.57C176.719 96.0747 119.519 55.8517 48.2529 89.187L48.2959 88.8326Z" fill="url(#paint13_linear_1268_3207)"/>
<path d="M49.2971 80.5841C114.768 53.3027 167.404 98.7927 183.813 285.351C207.179 551.087 289.325 605.006 393.009 592.356C439.229 586.718 489.753 567.836 541.237 548.606C548.522 545.88 555.827 543.154 563.149 540.444L563.124 540.653C555.842 543.347 548.579 546.056 541.315 548.766C489.809 568.013 439.286 586.894 393.026 592.533C289.223 605.201 206.964 551.251 183.576 285.37C167.186 99.1331 114.641 53.7064 49.2521 80.9546L49.2971 80.5841Z" fill="url(#paint14_linear_1268_3207)"/>
<path d="M50.2923 72.3823C110.038 52.1998 158.279 102.987 176.555 284.15C203.588 552.19 281.061 608.547 379.336 595.72C425.069 589.75 475.317 568.796 527.086 547.213C539.37 542.095 551.735 536.944 564.162 531.936L564.134 532.162C551.769 537.152 539.424 542.288 527.182 547.389C475.391 568.989 425.124 589.942 379.352 595.913C280.916 608.774 203.349 552.386 176.297 284.185C158.082 103.327 109.909 52.6196 50.2434 72.7851L50.2923 72.3823Z" fill="url(#paint15_linear_1268_3207)"/>
<path d="M51.217 64.7621C105.431 52.4964 149.568 108.288 169.297 282.95C199.855 553.49 273.326 612.243 366.712 599.298C411.815 593.046 461.585 570.071 513.425 546.139C530.519 538.244 547.84 530.25 565.28 522.721L565.253 522.947C547.853 530.459 530.573 538.437 513.521 546.315C461.681 570.247 411.889 593.238 366.725 599.507C273.201 612.47 199.616 553.686 169.056 283.001C149.372 108.612 105.302 52.9162 51.1681 65.1649L51.217 64.7621Z" fill="url(#paint16_linear_1268_3207)"/>
<path d="M52.0325 58.0443C100.99 54.1588 141.281 114.597 162.041 281.734C195.987 554.936 266.027 616.047 354.945 603.059C399.353 596.574 448.466 571.613 500.139 545.35C521.854 534.311 544.005 523.057 566.479 512.846L566.451 513.071C544.038 523.266 521.928 534.503 500.255 545.525C448.54 571.805 399.408 596.767 354.958 603.268C265.9 616.29 195.766 555.148 161.8 281.785C141.084 114.937 100.859 54.5947 51.9816 58.4632L52.0325 58.0443Z" fill="url(#paint17_linear_1268_3207)"/>
<path d="M52.664 52.8406C96.6627 57.4603 133.39 121.834 154.784 280.518C192.02 556.561 259.124 619.975 343.938 606.988C387.571 600.303 435.9 573.42 487.268 544.844C513.392 530.31 540.291 515.348 567.75 502.374L567.722 502.599C540.305 515.557 513.449 530.486 487.388 544.988C435.996 573.596 387.645 600.495 343.974 607.181C259 620.185 191.803 556.74 154.544 280.57C133.193 122.175 96.5317 57.8962 52.6151 53.2433L52.664 52.8406Z" fill="url(#paint18_linear_1268_3207)"/>
<path d="M53.0649 49.5379C92.4433 62.4497 125.872 129.856 147.526 279.318C187.959 558.315 252.519 624.012 333.599 611.053C376.41 604.217 423.834 575.464 474.738 544.593C505.039 526.227 536.564 507.108 569.079 491.418L569.052 491.644C536.577 507.317 505.115 526.403 474.855 544.752C423.93 575.639 376.486 604.393 333.615 611.246C252.396 624.222 187.74 558.51 147.288 279.354C125.675 130.196 92.324 62.9499 53.0023 50.0534L53.0649 49.5379Z" fill="url(#paint19_linear_1268_3207)"/>
<path d="M53.1723 48.6525C88.3197 69.2242 118.713 138.468 140.27 278.103C183.821 560.215 246.197 628.142 323.832 615.241C365.779 608.271 412.211 577.711 462.528 544.595C496.773 522.064 532.803 498.338 570.458 480.061L570.428 480.303C532.834 498.562 496.849 522.24 462.665 544.754C412.327 577.887 365.873 608.463 323.865 615.45C246.091 628.368 183.602 560.41 140.047 278.17C118.535 138.808 88.1828 69.7085 53.1137 49.1358L53.1723 48.6525Z" fill="url(#paint20_linear_1268_3207)"/>
<path d="M53.0159 49.9406C84.2902 77.3155 111.888 147.542 133.01 276.919C179.592 562.228 240.099 632.349 314.557 619.551C355.636 612.494 401.011 580.177 450.62 544.85C488.554 517.835 528.966 489.068 571.869 468.429L571.84 468.67C528.997 489.293 488.647 518.027 450.778 544.993C401.127 580.353 355.751 612.67 314.592 619.743C239.995 632.559 179.394 562.407 132.793 276.937C111.712 147.866 84.1728 77.7996 52.9533 50.4562L53.0159 49.9406Z" fill="url(#paint21_linear_1268_3207)"/>
<path d="M52.5192 54.0333C80.3037 86.984 105.35 156.823 125.754 275.703C175.333 564.323 234.208 636.619 305.742 623.937C345.952 616.794 390.2 582.818 439.02 545.296C480.364 513.526 525.021 479.239 573.31 456.556L573.281 456.797C525.052 479.464 480.479 513.702 439.181 545.422C390.32 582.961 346.067 616.969 305.779 624.113C234.105 636.83 175.116 564.502 125.536 275.722C105.174 157.147 80.1883 87.4519 52.4605 54.5166L52.5192 54.0333Z" fill="url(#paint22_linear_1268_3207)"/>
<path d="M51.7253 60.5751C76.3741 97.7944 99.0355 166.198 118.497 274.488C170.999 566.547 228.482 640.984 297.306 628.414C336.642 621.234 379.722 585.615 427.687 545.963C472.18 509.169 520.9 468.929 574.759 444.619L574.729 444.86C520.951 469.154 472.295 509.344 427.848 546.09C379.861 585.758 336.759 621.393 297.343 628.591C228.379 641.194 170.782 566.727 118.278 274.523C98.8595 166.522 76.2548 98.2946 51.6588 61.1229L51.7253 60.5751Z" fill="url(#paint23_linear_1268_3207)"/>
<path d="M50.6129 69.7411C72.4605 109.761 92.9287 175.473 111.259 273.287C166.618 568.851 222.905 645.41 289.235 632.95C327.696 625.732 369.577 588.567 416.625 546.819C464 504.778 516.586 458.121 576.226 432.696L576.196 432.937C516.654 458.362 464.114 504.97 416.803 546.962C369.734 588.726 327.829 625.924 289.288 633.159C222.819 645.636 166.438 569.046 111.038 273.338C92.7546 175.78 72.3255 110.229 50.5465 70.2888L50.6129 69.7411Z" fill="url(#paint24_linear_1268_3207)"/>
<path d="M49.2521 80.9548C68.5662 122.373 86.9624 184.554 104.003 272.072C162.189 571.221 217.459 649.884 281.447 637.565C319.051 630.325 359.727 591.662 405.771 547.883C455.723 500.39 498.994 462.521 564.624 436.508L564.595 436.75C499.043 462.761 455.838 500.565 405.951 548.01C359.864 591.821 319.184 630.516 281.48 637.774C217.336 650.094 161.989 571.417 103.762 272.123C86.7863 184.878 68.4313 122.841 49.1856 81.5026L49.2521 80.9548Z" fill="url(#paint25_linear_1268_3207)"/>
<path d="M47.6899 93.7602C64.6805 135.334 81.1365 193.387 96.7392 270.867C157.727 573.68 212.105 654.394 273.925 642.227C310.69 634.98 350.133 594.882 395.149 549.103C447.385 495.981 495.859 457.966 567.739 431.956L567.712 432.182C495.93 458.19 447.522 496.141 395.331 549.213C350.272 595.025 310.806 635.155 273.96 642.42C212 654.62 157.508 573.876 96.4791 270.919C80.9429 193.695 64.5651 135.802 47.6234 94.3079L47.6899 93.7602Z" fill="url(#paint26_linear_1268_3207)"/>
<path d="M45.7668 108.264C60.6626 148.675 75.2522 201.781 89.3738 269.565C153.205 576.045 206.869 658.777 266.678 646.695C302.62 639.426 340.813 597.911 384.763 550.145C438.994 491.194 497.615 450.62 576.014 425.187L575.987 425.413C497.683 450.861 439.151 491.352 384.965 550.255C340.991 598.054 302.775 639.601 266.733 646.887C206.765 658.988 153.005 576.241 89.1332 269.617C75.0605 202.073 60.5258 149.159 45.6966 108.844L45.7668 108.264Z" fill="url(#paint27_linear_1268_3207)"/>
</g>
<defs>
<linearGradient id="paint0_linear_1268_3207" x1="-63.7447" y1="152.888" x2="702.003" y2="423.891" gradientUnits="userSpaceOnUse">
<stop offset="0.257515" stop-color="#D0E5AD" stop-opacity="0.44"/>
<stop offset="0.971129" stop-color="#10923E" stop-opacity="0.62"/>
</linearGradient>
<linearGradient id="paint1_linear_1268_3207" x1="-64.3341" y1="157.746" x2="700.407" y2="429.959" gradientUnits="userSpaceOnUse">
<stop offset="0.257515" stop-color="#D0E5AD" stop-opacity="0.44"/>
<stop offset="0.971129" stop-color="#10923E" stop-opacity="0.62"/>
</linearGradient>
<linearGradient id="paint2_linear_1268_3207" x1="-64.599" y1="159.929" x2="699.69" y2="432.682" gradientUnits="userSpaceOnUse">
<stop offset="0.257515" stop-color="#D0E5AD" stop-opacity="0.44"/>
<stop offset="0.971129" stop-color="#10923E" stop-opacity="0.62"/>
</linearGradient>
<linearGradient id="paint3_linear_1268_3207" x1="-64.6442" y1="160.3" x2="699.533" y2="433.186" gradientUnits="userSpaceOnUse">
<stop offset="0.257515" stop-color="#D0E5AD" stop-opacity="0.44"/>
<stop offset="0.971129" stop-color="#10923E" stop-opacity="0.62"/>
</linearGradient>
<linearGradient id="paint4_linear_1268_3207" x1="-64.5293" y1="159.355" x2="699.737" y2="432.136" gradientUnits="userSpaceOnUse">
<stop offset="0.257515" stop-color="#D0E5AD" stop-opacity="0.44"/>
<stop offset="0.971129" stop-color="#10923E" stop-opacity="0.62"/>
</linearGradient>
<linearGradient id="paint5_linear_1268_3207" x1="-64.306" y1="157.514" x2="700.129" y2="430.094" gradientUnits="userSpaceOnUse">
<stop offset="0.257515" stop-color="#D0E5AD" stop-opacity="0.44"/>
<stop offset="0.971129" stop-color="#10923E" stop-opacity="0.62"/>
</linearGradient>
<linearGradient id="paint6_linear_1268_3207" x1="-63.9892" y1="154.904" x2="700.656" y2="427.232" gradientUnits="userSpaceOnUse">
<stop offset="0.257515" stop-color="#D0E5AD" stop-opacity="0.44"/>
<stop offset="0.971129" stop-color="#10923E" stop-opacity="0.62"/>
</linearGradient>
<linearGradient id="paint7_linear_1268_3207" x1="-63.6161" y1="151.829" x2="701.531" y2="423.556" gradientUnits="userSpaceOnUse">
<stop offset="0.257515" stop-color="#D0E5AD" stop-opacity="0.44"/>
<stop offset="0.971129" stop-color="#10923E" stop-opacity="0.62"/>
</linearGradient>
<linearGradient id="paint8_linear_1268_3207" x1="-63.2123" y1="148.502" x2="702.766" y2="419.227" gradientUnits="userSpaceOnUse">
<stop offset="0.257515" stop-color="#D0E5AD" stop-opacity="0.44"/>
<stop offset="0.971129" stop-color="#10923E" stop-opacity="0.62"/>
</linearGradient>
<linearGradient id="paint9_linear_1268_3207" x1="-62.7769" y1="144.915" x2="704.291" y2="414.318" gradientUnits="userSpaceOnUse">
<stop offset="0.257515" stop-color="#D0E5AD" stop-opacity="0.44"/>
<stop offset="0.971129" stop-color="#10923E" stop-opacity="0.62"/>
</linearGradient>
<linearGradient id="paint10_linear_1268_3207" x1="-62.3138" y1="141.098" x2="706.036" y2="408.933" gradientUnits="userSpaceOnUse">
<stop offset="0.257515" stop-color="#D0E5AD" stop-opacity="0.44"/>
<stop offset="0.971129" stop-color="#10923E" stop-opacity="0.62"/>
</linearGradient>
<linearGradient id="paint11_linear_1268_3207" x1="-61.839" y1="137.186" x2="707.91" y2="403.293" gradientUnits="userSpaceOnUse">
<stop offset="0.257515" stop-color="#D0E5AD" stop-opacity="0.44"/>
<stop offset="0.971129" stop-color="#10923E" stop-opacity="0.62"/>
</linearGradient>
<linearGradient id="paint12_linear_1268_3207" x1="-61.3396" y1="133.07" x2="709.908" y2="397.303" gradientUnits="userSpaceOnUse">
<stop offset="0.257515" stop-color="#D0E5AD" stop-opacity="0.44"/>
<stop offset="0.971129" stop-color="#10923E" stop-opacity="0.62"/>
</linearGradient>
<linearGradient id="paint13_linear_1268_3207" x1="-60.8344" y1="128.879" x2="711.986" y2="391.167" gradientUnits="userSpaceOnUse">
<stop offset="0.257515" stop-color="#D0E5AD" stop-opacity="0.44"/>
<stop offset="0.971129" stop-color="#10923E" stop-opacity="0.62"/>
</linearGradient>
<linearGradient id="paint14_linear_1268_3207" x1="-60.3132" y1="124.585" x2="714.092" y2="384.845" gradientUnits="userSpaceOnUse">
<stop offset="0.257515" stop-color="#D0E5AD" stop-opacity="0.44"/>
<stop offset="0.971129" stop-color="#10923E" stop-opacity="0.62"/>
</linearGradient>
<linearGradient id="paint15_linear_1268_3207" x1="-59.7771" y1="120.196" x2="716.212" y2="378.361" gradientUnits="userSpaceOnUse">
<stop offset="0.257515" stop-color="#D0E5AD" stop-opacity="0.44"/>
<stop offset="0.971129" stop-color="#10923E" stop-opacity="0.62"/>
</linearGradient>
<linearGradient id="paint16_linear_1268_3207" x1="-59.2446" y1="115.808" x2="718.334" y2="371.887" gradientUnits="userSpaceOnUse">
<stop offset="0.257515" stop-color="#D0E5AD" stop-opacity="0.44"/>
<stop offset="0.971129" stop-color="#10923E" stop-opacity="0.62"/>
</linearGradient>
<linearGradient id="paint17_linear_1268_3207" x1="-58.6943" y1="111.275" x2="720.475" y2="365.241" gradientUnits="userSpaceOnUse">
<stop offset="0.257515" stop-color="#D0E5AD" stop-opacity="0.44"/>
<stop offset="0.971129" stop-color="#10923E" stop-opacity="0.62"/>
</linearGradient>
<linearGradient id="paint18_linear_1268_3207" x1="-58.1795" y1="107.032" x2="722.493" y2="358.976" gradientUnits="userSpaceOnUse">
<stop offset="0.257515" stop-color="#D0E5AD" stop-opacity="0.44"/>
<stop offset="0.971129" stop-color="#10923E" stop-opacity="0.62"/>
</linearGradient>
<linearGradient id="paint19_linear_1268_3207" x1="-57.8614" y1="104.412" x2="723.999" y2="354.74" gradientUnits="userSpaceOnUse">
<stop offset="0.257515" stop-color="#D0E5AD" stop-opacity="0.44"/>
<stop offset="0.971129" stop-color="#10923E" stop-opacity="0.62"/>
</linearGradient>
<linearGradient id="paint20_linear_1268_3207" x1="-57.8106" y1="103.994" x2="724.843" y2="353.235" gradientUnits="userSpaceOnUse">
<stop offset="0.257515" stop-color="#D0E5AD" stop-opacity="0.44"/>
<stop offset="0.971129" stop-color="#10923E" stop-opacity="0.62"/>
</linearGradient>
<linearGradient id="paint21_linear_1268_3207" x1="-57.9999" y1="105.552" x2="725.104" y2="354.172" gradientUnits="userSpaceOnUse">
<stop offset="0.257515" stop-color="#D0E5AD" stop-opacity="0.44"/>
<stop offset="0.971129" stop-color="#10923E" stop-opacity="0.62"/>
</linearGradient>
<linearGradient id="paint22_linear_1268_3207" x1="-58.4981" y1="109.658" x2="724.628" y2="358.248" gradientUnits="userSpaceOnUse">
<stop offset="0.257515" stop-color="#D0E5AD" stop-opacity="0.44"/>
<stop offset="0.971129" stop-color="#10923E" stop-opacity="0.62"/>
</linearGradient>
<linearGradient id="paint23_linear_1268_3207" x1="-59.2668" y1="115.991" x2="723.512" y2="365.06" gradientUnits="userSpaceOnUse">
<stop offset="0.257515" stop-color="#D0E5AD" stop-opacity="0.44"/>
<stop offset="0.971129" stop-color="#10923E" stop-opacity="0.62"/>
</linearGradient>
<linearGradient id="paint24_linear_1268_3207" x1="-60.3284" y1="124.71" x2="721.718" y2="374.829" gradientUnits="userSpaceOnUse">
<stop offset="0.257515" stop-color="#D0E5AD" stop-opacity="0.44"/>
<stop offset="0.971129" stop-color="#10923E" stop-opacity="0.62"/>
</linearGradient>
<linearGradient id="paint25_linear_1268_3207" x1="-59.5703" y1="135.263" x2="707.885" y2="379.531" gradientUnits="userSpaceOnUse">
<stop offset="0.257515" stop-color="#D0E5AD" stop-opacity="0.44"/>
<stop offset="0.971129" stop-color="#10923E" stop-opacity="0.62"/>
</linearGradient>
<linearGradient id="paint26_linear_1268_3207" x1="-61.5077" y1="147.297" x2="707.715" y2="395.078" gradientUnits="userSpaceOnUse">
<stop offset="0.257515" stop-color="#D0E5AD" stop-opacity="0.44"/>
<stop offset="0.971129" stop-color="#10923E" stop-opacity="0.62"/>
</linearGradient>
<linearGradient id="paint27_linear_1268_3207" x1="-64.6912" y1="160.973" x2="711.874" y2="415.815" gradientUnits="userSpaceOnUse">
<stop offset="0.257515" stop-color="#D0E5AD" stop-opacity="0.44"/>
<stop offset="0.971129" stop-color="#10923E" stop-opacity="0.62"/>
</linearGradient>
<clipPath id="clip0_1268_3207">
<rect width="393" height="652" fill="white"/>
</clipPath>
</defs>
</svg>
