<svg width="455" height="390" viewBox="0 0 455 390" fill="none" xmlns="http://www.w3.org/2000/svg">
<g clip-path="url(#clip0_1130_16065)">
<mask id="mask0_1130_16065" style="mask-type:luminance" maskUnits="userSpaceOnUse" x="0" y="-65" width="455" height="455">
<path d="M455 -65H0V390H455V-65Z" fill="white"/>
</mask>
<g mask="url(#mask0_1130_16065)">
<path d="M137.717 262.9L-7.04615 397.488L-28.785 417.663L35.3573 417.742L51.6773 397.552L160.214 262.9H137.717Z" fill="#95A196"/>
<path d="M176.976 262.9L95.5342 397.488L83.2903 417.663L147.464 417.742L154.273 397.552L199.473 262.9H176.976Z" fill="#85A088"/>
<path d="M216.236 262.9L198.099 397.488L195.35 417.663L259.571 417.742L256.885 397.552L238.733 262.9H216.236Z" fill="#5C9F63"/>
<path d="M255.495 262.9L300.679 397.488L307.425 417.663L371.694 417.742L359.497 397.552L277.992 262.9H255.495Z" fill="#439F4D"/>
<path d="M294.755 262.9L403.244 397.488L419.501 417.663L483.801 417.742L462.094 397.552L317.252 262.9H294.755Z" fill="#019D12"/>
<path d="M160.214 218.332H137.717V262.9H160.214V218.332Z" fill="#95A196"/>
<path d="M199.473 192.675H176.976V262.9H199.473V192.675Z" fill="#85A088"/>
<path d="M238.733 164.332H216.236V262.9H238.733V164.332Z" fill="#5C9F63"/>
<path d="M277.992 135.469H255.495V262.9H277.992V135.469Z" fill="#439F4D"/>
<path d="M317.252 106.067H294.755V262.9H317.252V106.067Z" fill="#019D12"/>
<g style="mix-blend-mode:overlay">
<path d="M137.717 262.9L-7.04615 397.488L-28.785 417.663L35.3573 417.742L51.6773 397.552L160.214 262.9H137.717Z" fill="#B3B3B3"/>
</g>
<g style="mix-blend-mode:overlay">
<path d="M176.976 262.9L95.5342 397.488L83.2903 417.663L147.464 417.742L154.273 397.552L199.473 262.9H176.976Z" fill="#B3B3B3"/>
</g>
<g style="mix-blend-mode:overlay">
<path d="M216.236 262.9L198.099 397.488L195.35 417.663L259.571 417.742L256.885 397.552L238.733 262.9H216.236Z" fill="#B3B3B3"/>
</g>
<g style="mix-blend-mode:overlay">
<path d="M255.495 262.9L300.679 397.488L307.425 417.663L371.694 417.742L359.497 397.552L277.992 262.9H255.495Z" fill="#B3B3B3"/>
</g>
<g style="mix-blend-mode:overlay">
<path d="M294.755 262.9L403.244 397.488L419.501 417.663L483.801 417.742L462.094 397.552L317.252 262.9H294.755Z" fill="#B3B3B3"/>
</g>
<path d="M147.512 194.271L121.112 231.129H173.927L147.512 194.271Z" fill="#95A196"/>
<path d="M188.414 163.005L161.999 199.864H214.814L188.414 163.005Z" fill="#85A088"/>
<path d="M226.9 132.53L200.5 169.388H253.315L226.9 132.53Z" fill="#5C9F63"/>
<path d="M266.728 103.666L240.328 140.524H293.143L266.728 103.666Z" fill="#439F4D"/>
<path d="M305.482 73.1904L279.083 110.049H331.897L305.482 73.1904Z" fill="#019D12"/>
</g>
<g filter="url(#filter0_f_1130_16065)">
<path d="M34.8847 288H275L240.115 311H0L34.8847 288Z" fill="black" fill-opacity="0.12"/>
</g>
<path d="M17.2 18H22V39H17.2V30.66H10.6V39H5.8V18H10.6V26.04H17.2V18ZM38.9547 39L37.9047 35.7H30.1047L29.0547 39H23.8047L30.9447 18H37.0647L44.2047 39H38.9547ZM31.5447 31.2H36.4647L34.0047 23.49L31.5447 31.2ZM50.7953 34.38H58.2953V39H45.9953V18H50.7953V34.38ZM74.3453 39L73.2953 35.7H65.4953L64.4453 39H59.1953L66.3353 18H72.4553L79.5953 39H74.3453ZM66.9353 31.2H71.8553L69.3953 23.49L66.9353 31.2ZM86.1859 34.38H93.6859V39H81.3859V18H86.1859V34.38ZM103.3 18H108.1V39H103.3V18ZM123.408 18H128.208V39H124.608L116.508 27.6V39H111.708V18H115.308L123.408 29.4V18ZM136.846 39L130.006 18H135.256L139.906 33.45L144.556 18H149.806L142.966 39H136.846ZM156.411 34.38H164.811V39H151.611V18H164.661V22.62H156.411V26.1H163.911V30.66H156.411V34.38ZM174.869 39.42C170.459 39.42 167.639 37.32 166.469 34.23L170.609 31.83C171.359 33.57 172.649 34.74 175.019 34.74C177.299 34.74 177.869 33.84 177.869 33.03C177.869 31.74 176.669 31.23 173.519 30.36C170.399 29.49 167.339 27.99 167.339 23.97C167.339 19.92 170.759 17.58 174.389 17.58C177.839 17.58 180.539 19.23 182.069 22.32L178.019 24.69C177.299 23.19 176.309 22.26 174.389 22.26C172.889 22.26 172.139 23.01 172.139 23.85C172.139 24.81 172.649 25.47 175.919 26.46C179.099 27.42 182.669 28.53 182.669 32.97C182.669 37.02 179.429 39.42 174.869 39.42ZM198.406 18V22.62H193.006V39H188.206V22.62H182.806V18H198.406ZM221.507 18V39H216.707V26.79L211.277 35.7H210.737L205.307 26.79V39H200.507V18H205.307L211.007 27.33L216.707 18H221.507ZM229.916 34.38H238.316V39H225.116V18H238.166V22.62H229.916V26.1H237.416V30.66H229.916V34.38ZM252.725 18H257.525V39H253.925L245.825 27.6V39H241.025V18H244.625L252.725 29.4V18ZM275.222 18V22.62H269.822V39H265.022V22.62H259.622V18H275.222ZM19.15 75L18.1 71.7H10.3L9.25 75H4L11.14 54H17.26L24.4 75H19.15ZM11.74 67.2H16.66L14.2 59.49L11.74 67.2ZM37.8906 54H42.6906V75H39.0906L30.9906 63.6V75H26.1906V54H29.7906L37.8906 65.4V54ZM54.6883 54C60.4783 54 64.8883 58.56 64.8883 64.5C64.8883 70.44 60.4783 75 54.6883 75H46.2883V54H54.6883ZM54.6883 70.38C57.9883 70.38 60.2683 68.1 60.2683 64.5C60.2683 60.9 57.9883 58.62 54.6883 58.62H51.0883V70.38H54.6883ZM89.1871 54V58.62H83.7871V75H78.9871V58.62H73.5871V54H89.1871ZM102.328 75L98.3683 68.1H96.0883V75H91.2883V54H99.6883C103.678 54 106.888 57.21 106.888 61.2C106.888 63.78 105.328 66.12 103.018 67.29L107.488 75H102.328ZM96.0883 58.5V63.9H99.6883C101.008 63.9 102.088 62.73 102.088 61.2C102.088 59.67 101.008 58.5 99.6883 58.5H96.0883ZM123.095 75L122.045 71.7H114.245L113.195 75H107.945L115.085 54H121.205L128.345 75H123.095ZM115.685 67.2H120.605L118.145 59.49L115.685 67.2ZM138.536 54C144.326 54 148.736 58.56 148.736 64.5C148.736 70.44 144.326 75 138.536 75H130.136V54H138.536ZM138.536 70.38C141.836 70.38 144.116 68.1 144.116 64.5C144.116 60.9 141.836 58.62 138.536 58.62H134.936V70.38H138.536ZM151.435 54H156.235V75H151.435V54ZM171.543 54H176.343V75H172.743L164.643 63.6V75H159.843V54H163.443L171.543 65.4V54ZM200.731 63.3V65.1C200.731 71.52 196.261 75.42 190.381 75.42C183.781 75.42 179.041 70.56 179.041 64.53C179.041 58.44 183.871 53.58 190.051 53.58C194.071 53.58 197.461 55.56 199.231 58.38L195.151 60.72C194.281 59.34 192.391 58.26 190.021 58.26C186.481 58.26 183.841 60.87 183.841 64.56C183.841 68.13 186.361 70.74 190.441 70.74C193.231 70.74 195.061 69.51 195.811 67.5H190.201V63.3H200.731ZM209.797 75V71.52L216.847 64.2C218.077 62.94 218.977 61.71 218.977 60.48C218.977 59.16 218.137 58.26 216.727 58.26C215.257 58.26 214.207 59.22 213.637 60.54L209.587 58.17C210.937 55.05 213.757 53.58 216.667 53.58C220.417 53.58 223.777 56.04 223.777 60.27C223.777 62.79 222.427 64.95 220.507 66.87L217.027 70.38H224.077V75H209.797ZM234.29 75.42C228.86 75.42 225.74 70.98 225.74 64.5C225.74 58.02 228.86 53.58 234.29 53.58C239.72 53.58 242.84 58.02 242.84 64.5C242.84 70.98 239.72 75.42 234.29 75.42ZM234.29 70.74C236.81 70.74 238.04 68.55 238.04 64.5C238.04 60.45 236.81 58.26 234.29 58.26C231.77 58.26 230.54 60.45 230.54 64.5C230.54 68.55 231.77 70.74 234.29 70.74ZM243.81 75V71.52L250.86 64.2C252.09 62.94 252.99 61.71 252.99 60.48C252.99 59.16 252.15 58.26 250.74 58.26C249.27 58.26 248.22 59.22 247.65 60.54L243.6 58.17C244.95 55.05 247.77 53.58 250.68 53.58C254.43 53.58 257.79 56.04 257.79 60.27C257.79 62.79 256.44 64.95 254.52 66.87L251.04 70.38H258.09V75H243.81ZM269.984 62.52C272.564 63.42 274.454 65.49 274.454 68.4C274.454 73.02 270.854 75.42 266.804 75.42C263.624 75.42 260.744 74.01 259.454 70.92L263.594 68.52C264.074 69.9 264.974 70.74 266.804 70.74C268.784 70.74 269.654 69.69 269.654 68.4C269.654 67.11 268.784 66.06 266.804 66.06H265.814L263.984 63.33L267.794 58.5H260.114V54H273.614V57.9L269.984 62.52Z" fill="url(#paint0_radial_1130_16065)"/>
</g>
<defs>
<filter id="filter0_f_1130_16065" x="-21" y="267" width="317" height="65" filterUnits="userSpaceOnUse" color-interpolation-filters="sRGB">
<feFlood flood-opacity="0" result="BackgroundImageFix"/>
<feBlend mode="normal" in="SourceGraphic" in2="BackgroundImageFix" result="shape"/>
<feGaussianBlur stdDeviation="10.5" result="effect1_foregroundBlur_1130_16065"/>
</filter>
<radialGradient id="paint0_radial_1130_16065" cx="0" cy="0" r="1" gradientUnits="userSpaceOnUse" gradientTransform="translate(176.5 -25) rotate(116.455) scale(233.446 904.603)">
<stop stop-color="#3760D0"/>
<stop offset="0.806444" stop-color="#10923E"/>
</radialGradient>
<clipPath id="clip0_1130_16065">
<rect width="455" height="390" fill="white"/>
</clipPath>
</defs>
</svg>
