<svg width="1440" height="943" viewBox="0 0 1440 943" fill="none" xmlns="http://www.w3.org/2000/svg">
<path d="M-77.6823 170.33C361.339 170.679 765.754 220.799 663.863 416.041C556.377 621.871 1029.95 719.476 1517.98 767.484L1517.94 767.724C1029.57 719.698 555.599 622.014 663.173 416.004C764.966 221.002 360.952 170.921 -77.7212 170.571L-77.6823 170.33Z" fill="url(#paint0_linear_540_1091)"/>
<path d="M-78.9124 177.954C342.307 167.441 726.015 210.319 642.118 414.517C550.591 637.23 1029.41 728.6 1517.77 768.748L1517.73 768.988C1029.03 728.822 549.807 637.414 641.427 414.48C725.224 210.542 341.92 167.683 -78.9512 178.194L-78.9124 177.954Z" fill="url(#paint1_linear_540_1091)"/>
<path d="M-79.9066 184.115C323.482 163.642 686.801 200.541 620.375 412.976C545.246 653.092 1028.98 737.366 1517.67 769.352L1517.64 769.592C1028.6 737.608 544.459 653.295 619.681 412.958C686.007 200.784 323.088 163.925 -79.9487 184.376L-79.9066 184.115Z" fill="url(#paint2_linear_540_1091)"/>
<path d="M-80.6579 188.769C304.727 159.4 648.216 191.539 598.632 411.431C540.392 669.51 1028.67 745.768 1517.68 769.291L1517.65 769.532C1028.28 746.01 539.663 669.713 597.939 411.414C647.477 191.803 304.334 159.682 -80.7 189.029L-80.6579 188.769Z" fill="url(#paint3_linear_540_1091)"/>
<path d="M-81.1492 191.818C286.168 154.676 610.311 183.357 576.89 409.886C536.083 686.508 1028.37 753.768 1517.81 768.528L1517.77 768.769C1028.04 754.01 535.354 686.711 576.194 409.889C609.569 183.641 285.768 154.998 -81.1945 192.098L-81.1492 191.818Z" fill="url(#paint4_linear_540_1091)"/>
<path d="M-81.3924 193.323C267.772 149.652 573.067 176.117 555.144 408.364C532.314 704.107 1028.14 761.269 1518.05 767.025L1518.01 767.265C1027.81 761.511 531.585 704.31 554.448 408.366C572.383 176.401 267.372 149.975 -81.4377 193.604L-81.3924 193.323Z" fill="url(#paint5_linear_540_1091)"/>
<path d="M-81.3597 193.122C249.613 144.244 536.664 169.774 533.402 406.818C529.085 722.323 1027.89 768.226 1518.42 764.716L1518.38 764.957C1027.56 768.468 528.41 722.546 532.702 406.841C535.974 170.097 249.206 144.607 -81.4083 193.423L-81.3597 193.122Z" fill="url(#paint6_linear_540_1091)"/>
<path d="M-81.0555 191.235C231.727 138.575 501.022 164.471 511.66 405.274C525.758 723.879 977.19 770.297 1442.89 763.19C1468.25 762.795 1493.58 762.261 1518.93 761.586L1518.89 761.827C1493.54 762.502 1468.21 763.036 1442.91 763.43C976.858 770.559 525.084 724.102 511.015 405.317C500.328 164.815 231.317 138.958 -81.1073 191.556L-81.0555 191.235Z" fill="url(#paint7_linear_540_1091)"/>
<path d="M-80.4957 187.764C214.138 132.865 466.298 160.308 489.914 403.75C520.901 723.415 927.064 772.406 1365.11 762.954C1416.36 761.843 1468.01 759.949 1519.58 757.573L1519.54 757.814C1467.98 760.169 1416.37 762.083 1365.13 763.194C926.731 772.668 520.226 723.638 489.214 403.772C465.662 160.651 213.786 133.247 -80.5507 188.105L-80.4957 187.764Z" fill="url(#paint8_linear_540_1091)"/>
<path d="M-79.6732 182.67C196.901 127.135 432.606 157.305 468.168 402.227C514.863 723.077 883.008 775.015 1294.54 763.756C1368.97 761.718 1444.77 757.629 1520.37 752.679L1520.33 752.92C1444.73 757.87 1368.99 761.958 1294.56 763.997C882.679 775.257 514.188 723.3 467.468 402.249C431.909 157.669 196.546 127.538 -79.7315 183.031L-79.6732 182.67Z" fill="url(#paint9_linear_540_1091)"/>
<path d="M-78.6022 176.029C180.05 121.523 399.877 155.521 446.425 400.682C507.676 723.023 844.051 778.026 1230.74 765.394C1325.65 762.298 1423.65 755.12 1521.31 746.821L1521.27 747.082C1423.61 755.381 1325.72 762.538 1230.82 765.634C843.719 778.287 507.001 723.246 445.783 400.705C399.235 155.904 179.692 121.945 -78.6637 176.41L-78.6022 176.029Z" fill="url(#paint10_linear_540_1091)"/>
<path d="M-77.3296 168.144C163.591 116.37 368.322 155.095 424.738 399.158C499.631 723.253 809.33 781.401 1173.09 767.731C1286.11 763.505 1404.37 752.323 1522.4 740.039L1522.36 740.3C1404.33 752.584 1286.13 763.746 1173.11 767.992C808.997 781.663 498.957 723.476 423.977 399.2C367.68 155.478 163.284 116.832 -77.3944 168.545L-77.3296 168.144Z" fill="url(#paint11_linear_540_1091)"/>
<path d="M-75.86 159.036C147.691 111.696 337.943 156.009 402.992 397.634C490.786 723.766 778.098 785.085 1120.8 770.65C1249.8 765.223 1386.68 749.06 1523.66 732.255L1523.62 732.516C1386.64 749.301 1249.82 765.464 1120.82 770.891C777.768 785.326 490.112 723.989 402.237 397.636C337.359 156.392 147.327 112.159 -75.928 159.457L-75.86 159.036Z" fill="url(#paint12_linear_540_1091)"/>
<path d="M-74.2704 149.186C132.288 107.904 308.847 158.322 381.25 396.091C481.313 724.584 749.785 789.02 1073.2 774.055C1210.58 767.694 1357.94 747.002 1506.54 726.144L1525.13 723.529L1525.09 723.79L1506.8 726.363C1358.2 747.221 1210.84 767.914 1073.28 774.275C749.514 789.261 480.639 724.807 380.553 396.093C308.26 158.725 131.979 108.387 -74.3416 149.627L-74.2704 149.186Z" fill="url(#paint13_linear_540_1091)"/>
<path d="M-72.6125 138.914C117.466 105.192 281.029 162.074 359.508 394.547C471.271 725.684 723.814 793.185 1029.7 777.844C1166.06 771.006 1313.09 747.688 1462.92 723.938C1484.12 720.572 1505.38 717.206 1526.69 713.859L1526.65 714.12C1505.45 717.446 1484.31 720.792 1463.17 724.138C1313.29 747.908 1166.26 771.226 1029.79 778.064C723.543 793.427 470.659 725.887 358.808 394.569C280.438 162.497 117.153 105.694 -72.687 139.376L-72.6125 138.914Z" fill="url(#paint14_linear_540_1091)"/>
<path d="M-70.9648 128.701C103.242 103.799 254.602 167.262 337.762 393.021C460.781 727.044 699.839 797.563 989.637 781.98C1124.5 774.726 1270.38 748.826 1420.67 722.147C1456.33 715.821 1492.23 709.453 1528.34 703.265L1528.29 703.546C1492.37 709.713 1456.53 716.061 1420.98 722.367C1270.63 749.066 1124.69 774.966 989.714 782.22C699.445 797.845 460.103 727.287 337.001 393.064C254.069 167.685 102.925 104.322 -71.0457 129.203L-70.9648 128.701Z" fill="url(#paint15_linear_540_1091)"/>
<path d="M-69.4339 119.212C89.607 104.15 229.577 173.83 316.016 391.497C449.903 728.648 677.457 802.137 952.718 786.386C1085.66 778.779 1229.8 750.359 1379.93 720.754C1429.44 710.988 1479.6 701.099 1530.19 691.79L1530.14 692.07C1479.67 701.359 1429.63 711.227 1380.24 720.973C1230.11 750.578 1085.91 779.019 952.792 786.647C677.122 802.418 449.226 728.891 315.309 391.56C229.048 174.233 89.2906 104.673 -69.5148 119.713L-69.4339 119.212Z" fill="url(#paint16_linear_540_1091)"/>
<path d="M-68.0836 110.846C76.6845 106.203 205.975 181.657 294.274 389.953C438.648 730.434 656.389 806.846 918.373 791.024C1049.22 783.124 1191.09 752.226 1340.35 719.717C1403.08 706.052 1467.06 692.122 1532.17 679.492L1532.13 679.773C1467.2 692.383 1403.33 706.292 1340.72 719.936C1191.34 752.466 1049.41 783.364 918.447 791.285C656.05 807.148 438.026 730.697 293.567 390.016C205.442 182.08 76.3649 106.746 -68.1678 111.368L-68.0836 110.846Z" fill="url(#paint17_linear_540_1091)"/>
<path d="M-67.0379 104.366C64.3606 110.299 183.694 190.641 272.531 388.41C427.126 732.442 636.513 811.711 886.315 795.874C1014.82 787.722 1154.06 754.428 1302.05 719.036C1377.31 701.034 1454.81 682.503 1534.28 666.452L1534.23 666.732C1454.88 682.764 1377.51 701.254 1302.43 719.215C1154.37 754.647 1015.07 787.962 886.45 796.114C636.181 811.973 426.51 732.665 271.825 388.472C183.161 191.064 64.041 110.841 -67.1188 104.868L-67.0379 104.366Z" fill="url(#paint18_linear_540_1091)"/>
<path d="M-66.3741 100.254C52.6259 116.497 162.648 200.604 250.786 386.886C415.345 734.611 617.544 816.713 856.26 800.897C982.303 792.554 1118.55 756.924 1264.8 718.672C1351.85 695.915 1442.42 672.223 1536.48 652.809L1536.44 653.09C1442.5 672.484 1352.11 696.135 1265.17 718.871C1118.86 757.144 982.557 792.773 856.337 801.138C617.212 816.975 414.725 734.853 250.083 386.928C162.115 201.027 52.3513 117.12 -66.4777 100.896L-66.3741 100.254Z" fill="url(#paint19_linear_540_1091)"/>
<path d="M-66.196 99.1509C41.4605 124.92 142.759 211.304 229.043 385.342C403.361 736.961 599.427 821.833 827.92 806.075C951.38 797.56 1084.39 759.677 1228.54 718.625C1326.64 690.695 1429.86 661.283 1538.76 638.666L1538.71 638.967C1429.98 661.563 1326.9 690.915 1228.97 718.824C1084.76 759.896 951.689 797.8 828.052 806.335C599.149 822.115 402.741 737.204 228.392 385.425C142.285 211.727 41.1312 125.523 -66.2931 99.7528L-66.196 99.1509Z" fill="url(#paint20_linear_540_1091)"/>
<path d="M-66.4553 100.755C30.7843 134.983 123.938 222.58 207.294 383.837C391.121 739.451 581.989 827.049 801.064 811.406C921.93 802.78 1051.53 762.704 1193.22 718.895C1301.56 685.393 1416.98 649.72 1541.1 624.18L1541.05 624.481C1417.11 650 1301.87 685.632 1193.71 719.073C1051.9 762.924 922.301 803 801.2 811.646C581.715 827.311 390.563 739.674 206.652 383.86C123.467 222.983 30.513 135.586 -66.5589 101.397L-66.4553 100.755Z" fill="url(#paint21_linear_540_1091)"/>
<path d="M-67.2779 105.852C20.4874 147.012 106.003 234.116 185.551 382.294C378.807 742.044 565.178 832.345 775.585 816.834C893.858 808.098 1019.84 765.95 1158.84 719.403C1276.55 679.992 1403.7 637.459 1543.49 609.396L1543.44 609.697C1403.83 637.739 1276.92 680.212 1159.34 719.562C1020.22 766.129 894.229 808.317 775.724 817.054C564.903 832.607 378.191 742.267 184.909 382.317C105.532 234.519 20.2193 147.595 -67.375 106.453L-67.2779 105.852Z" fill="url(#paint22_linear_540_1091)"/>
<path d="M-68.5921 113.998C10.5418 160.463 88.7464 245.77 163.809 380.751C366.294 744.798 548.87 837.76 751.249 822.378C866.919 813.592 989.173 769.392 1125.29 720.189C1251.55 674.532 1389.82 624.599 1545.88 594.531L1545.84 594.832C1390.01 624.879 1251.92 674.751 1125.79 720.348C989.609 769.571 867.293 813.791 751.387 822.598C548.595 838.022 365.678 745.021 163.164 380.794C88.2752 246.172 10.2672 161.086 -68.7021 114.68L-68.5921 113.998Z" fill="url(#paint23_linear_540_1091)"/>
<path d="M-70.434 125.412C0.827551 175.355 72.0896 257.298 142.122 379.226C353.649 747.65 533.013 843.251 728.003 827.997C841.07 819.159 959.516 773.029 1092.57 721.211C1226.56 669.028 1375.28 611.118 1548.34 579.684L1548.29 579.985C1375.53 611.417 1226.93 669.268 1093.13 721.389C960.006 773.228 841.495 819.398 728.193 828.256C532.794 843.532 353.145 747.893 141.473 379.288C71.6216 257.681 0.501436 175.938 -70.544 126.094L-70.434 125.412Z" fill="url(#paint24_linear_540_1091)"/>
<path d="M-72.687 139.376C-8.72594 191.05 55.8199 268.587 120.379 377.683C340.874 750.585 517.553 848.802 705.611 833.714C816.13 824.846 930.758 776.845 1060.51 722.493C1201.28 663.528 1323.74 616.527 1514.5 584.386L1514.45 584.687C1323.93 616.827 1201.65 663.748 1061.07 722.651C931.19 777.044 816.555 825.085 705.743 833.974C517.221 849.064 340.313 750.828 119.673 377.745C55.3487 268.99 -9.05207 191.633 -72.7971 140.058L-72.687 139.376Z" fill="url(#paint25_linear_540_1091)"/>
<path d="M-75.2842 155.322C-18.1984 207.181 39.9275 279.568 98.6174 376.153C328.018 753.631 502.373 854.399 684.018 839.492C792.043 830.611 902.781 780.818 1029.16 723.969C1175.82 658.003 1313.71 610.841 1523.02 578.728L1522.98 579.009C1313.95 611.12 1176.25 658.202 1029.72 724.108C903.216 780.997 792.414 830.83 684.153 839.732C502.096 854.681 327.398 753.873 97.8529 376.216C39.4015 279.951 -18.4665 207.764 -75.3943 156.004L-75.2842 155.322Z" fill="url(#paint26_linear_540_1091)"/>
<path d="M-78.7303 173.369C-28.0468 223.77 23.753 289.986 76.505 374.484C314.962 756.538 487.529 859.813 663.216 844.996C768.794 836.081 875.592 784.512 998.49 725.178C1150.13 651.951 1317.75 601.636 1546.51 570.259L1546.47 570.54C1317.99 601.935 1150.62 652.15 999.106 725.316C876.144 784.691 769.281 836.299 663.409 845.236C487.255 860.075 314.401 756.781 75.7986 374.547C23.2305 290.349 -28.3757 224.373 -78.8463 174.092L-78.7303 173.369Z" fill="url(#paint27_linear_540_1091)"/>
<defs>
<linearGradient id="paint0_linear_540_1091" x1="-396.78" y1="228.533" x2="1295.73" y2="1441.17" gradientUnits="userSpaceOnUse">
<stop offset="0.152638" stop-color="#0057BC" stop-opacity="0.15"/>
<stop offset="0.615464" stop-color="#0057BC"/>
</linearGradient>
<linearGradient id="paint1_linear_540_1091" x1="-397.756" y1="234.581" x2="1286.89" y2="1449.83" gradientUnits="userSpaceOnUse">
<stop offset="0.152638" stop-color="#0057BC" stop-opacity="0.15"/>
<stop offset="0.615464" stop-color="#0057BC"/>
</linearGradient>
<linearGradient id="paint2_linear_540_1091" x1="-398.195" y1="237.3" x2="1282.94" y2="1453.69" gradientUnits="userSpaceOnUse">
<stop offset="0.152638" stop-color="#0057BC" stop-opacity="0.15"/>
<stop offset="0.615464" stop-color="#0057BC"/>
</linearGradient>
<linearGradient id="paint3_linear_540_1091" x1="-398.269" y1="237.762" x2="1282" y2="1454.44" gradientUnits="userSpaceOnUse">
<stop offset="0.152638" stop-color="#0057BC" stop-opacity="0.15"/>
<stop offset="0.615464" stop-color="#0057BC"/>
</linearGradient>
<linearGradient id="paint4_linear_540_1091" x1="-398.079" y1="236.585" x2="1282.88" y2="1453.04" gradientUnits="userSpaceOnUse">
<stop offset="0.152638" stop-color="#0057BC" stop-opacity="0.15"/>
<stop offset="0.615464" stop-color="#0057BC"/>
</linearGradient>
<linearGradient id="paint5_linear_540_1091" x1="-397.709" y1="234.294" x2="1284.56" y2="1450.32" gradientUnits="userSpaceOnUse">
<stop offset="0.152638" stop-color="#0057BC" stop-opacity="0.15"/>
<stop offset="0.615464" stop-color="#0057BC"/>
</linearGradient>
<linearGradient id="paint6_linear_540_1091" x1="-397.185" y1="231.043" x2="1286.72" y2="1446.53" gradientUnits="userSpaceOnUse">
<stop offset="0.152638" stop-color="#0057BC" stop-opacity="0.15"/>
<stop offset="0.615464" stop-color="#0057BC"/>
</linearGradient>
<linearGradient id="paint7_linear_540_1091" x1="-396.567" y1="227.214" x2="1291.25" y2="1441.42" gradientUnits="userSpaceOnUse">
<stop offset="0.152638" stop-color="#0057BC" stop-opacity="0.15"/>
<stop offset="0.615464" stop-color="#0057BC"/>
</linearGradient>
<linearGradient id="paint8_linear_540_1091" x1="-395.899" y1="223.07" x2="1298.41" y2="1435.1" gradientUnits="userSpaceOnUse">
<stop offset="0.152638" stop-color="#0057BC" stop-opacity="0.15"/>
<stop offset="0.615464" stop-color="#0057BC"/>
</linearGradient>
<linearGradient id="paint9_linear_540_1091" x1="-395.177" y1="218.604" x2="1307.71" y2="1427.71" gradientUnits="userSpaceOnUse">
<stop offset="0.152638" stop-color="#0057BC" stop-opacity="0.15"/>
<stop offset="0.615464" stop-color="#0057BC"/>
</linearGradient>
<linearGradient id="paint10_linear_540_1091" x1="-394.411" y1="213.851" x2="1318.62" y2="1419.41" gradientUnits="userSpaceOnUse">
<stop offset="0.152638" stop-color="#0057BC" stop-opacity="0.15"/>
<stop offset="0.615464" stop-color="#0057BC"/>
</linearGradient>
<linearGradient id="paint11_linear_540_1091" x1="-393.625" y1="208.98" x2="1330.56" y2="1410.53" gradientUnits="userSpaceOnUse">
<stop offset="0.152638" stop-color="#0057BC" stop-opacity="0.15"/>
<stop offset="0.615464" stop-color="#0057BC"/>
</linearGradient>
<linearGradient id="paint12_linear_540_1091" x1="-392.798" y1="203.854" x2="1343.43" y2="1400.94" gradientUnits="userSpaceOnUse">
<stop offset="0.152638" stop-color="#0057BC" stop-opacity="0.15"/>
<stop offset="0.615464" stop-color="#0057BC"/>
</linearGradient>
<linearGradient id="paint13_linear_540_1091" x1="-391.966" y1="198.634" x2="1356.85" y2="1390.97" gradientUnits="userSpaceOnUse">
<stop offset="0.152638" stop-color="#0057BC" stop-opacity="0.15"/>
<stop offset="0.615464" stop-color="#0057BC"/>
</linearGradient>
<linearGradient id="paint14_linear_540_1091" x1="-391.103" y1="193.287" x2="1370.67" y2="1380.51" gradientUnits="userSpaceOnUse">
<stop offset="0.152638" stop-color="#0057BC" stop-opacity="0.15"/>
<stop offset="0.615464" stop-color="#0057BC"/>
</linearGradient>
<linearGradient id="paint15_linear_540_1091" x1="-390.211" y1="187.822" x2="1384.78" y2="1369.6" gradientUnits="userSpaceOnUse">
<stop offset="0.152638" stop-color="#0057BC" stop-opacity="0.15"/>
<stop offset="0.615464" stop-color="#0057BC"/>
</linearGradient>
<linearGradient id="paint16_linear_540_1091" x1="-389.329" y1="182.357" x2="1398.88" y2="1358.58" gradientUnits="userSpaceOnUse">
<stop offset="0.152638" stop-color="#0057BC" stop-opacity="0.15"/>
<stop offset="0.615464" stop-color="#0057BC"/>
</linearGradient>
<linearGradient id="paint17_linear_540_1091" x1="-388.418" y1="176.712" x2="1413.14" y2="1347.15" gradientUnits="userSpaceOnUse">
<stop offset="0.152638" stop-color="#0057BC" stop-opacity="0.15"/>
<stop offset="0.615464" stop-color="#0057BC"/>
</linearGradient>
<linearGradient id="paint18_linear_540_1091" x1="-387.565" y1="171.43" x2="1426.71" y2="1336.18" gradientUnits="userSpaceOnUse">
<stop offset="0.152638" stop-color="#0057BC" stop-opacity="0.15"/>
<stop offset="0.615464" stop-color="#0057BC"/>
</linearGradient>
<linearGradient id="paint19_linear_540_1091" x1="-387.039" y1="168.167" x2="1437.36" y2="1328.27" gradientUnits="userSpaceOnUse">
<stop offset="0.152638" stop-color="#0057BC" stop-opacity="0.15"/>
<stop offset="0.615464" stop-color="#0057BC"/>
</linearGradient>
<linearGradient id="paint20_linear_540_1091" x1="-386.955" y1="167.646" x2="1444.23" y2="1324.58" gradientUnits="userSpaceOnUse">
<stop offset="0.152638" stop-color="#0057BC" stop-opacity="0.15"/>
<stop offset="0.615464" stop-color="#0057BC"/>
</linearGradient>
<linearGradient id="paint21_linear_540_1091" x1="-387.268" y1="169.586" x2="1447.79" y2="1324.69" gradientUnits="userSpaceOnUse">
<stop offset="0.152638" stop-color="#0057BC" stop-opacity="0.15"/>
<stop offset="0.615464" stop-color="#0057BC"/>
</linearGradient>
<linearGradient id="paint22_linear_540_1091" x1="-388.093" y1="174.699" x2="1447.15" y2="1329.71" gradientUnits="userSpaceOnUse">
<stop offset="0.152638" stop-color="#0057BC" stop-opacity="0.15"/>
<stop offset="0.615464" stop-color="#0057BC"/>
</linearGradient>
<linearGradient id="paint23_linear_540_1091" x1="-389.366" y1="182.586" x2="1442.9" y2="1339.01" gradientUnits="userSpaceOnUse">
<stop offset="0.152638" stop-color="#0057BC" stop-opacity="0.15"/>
<stop offset="0.615464" stop-color="#0057BC"/>
</linearGradient>
<linearGradient id="paint24_linear_540_1091" x1="-391.128" y1="193.443" x2="1434.69" y2="1352.96" gradientUnits="userSpaceOnUse">
<stop offset="0.152638" stop-color="#0057BC" stop-opacity="0.15"/>
<stop offset="0.615464" stop-color="#0057BC"/>
</linearGradient>
<linearGradient id="paint25_linear_540_1091" x1="-387.194" y1="206.592" x2="1408.92" y2="1340.62" gradientUnits="userSpaceOnUse">
<stop offset="0.152638" stop-color="#0057BC" stop-opacity="0.15"/>
<stop offset="0.615464" stop-color="#0057BC"/>
</linearGradient>
<linearGradient id="paint26_linear_540_1091" x1="-391.029" y1="221.576" x2="1398.36" y2="1367.75" gradientUnits="userSpaceOnUse">
<stop offset="0.152638" stop-color="#0057BC" stop-opacity="0.15"/>
<stop offset="0.615464" stop-color="#0057BC"/>
</linearGradient>
<linearGradient id="paint27_linear_540_1091" x1="-398.348" y1="238.6" x2="1390.97" y2="1410.41" gradientUnits="userSpaceOnUse">
<stop offset="0.152638" stop-color="#0057BC" stop-opacity="0.15"/>
<stop offset="0.615464" stop-color="#0057BC"/>
</linearGradient>
</defs>
</svg>
