<svg width="495" height="388" viewBox="0 0 495 388" fill="none" xmlns="http://www.w3.org/2000/svg">
<path opacity="0.3" d="M151.077 387.979C234.375 387.979 301.902 380.934 301.902 372.242C301.902 363.551 234.375 356.506 151.077 356.506C67.7791 356.506 0.252686 363.551 0.252686 372.242C0.252686 380.934 67.7791 387.979 151.077 387.979Z" fill="url(#paint0_linear_540_827)"/>
<path d="M381.583 262.559C390.784 257.534 399.89 252.605 409.091 247.58C413.36 233.834 415.637 218.856 415.542 202.93C415.542 191.08 414.214 179.419 411.747 167.948C402.546 172.973 393.44 177.902 384.239 182.927C386.705 194.303 388.033 206.058 388.033 217.908C388.033 233.74 385.756 248.718 381.583 262.559Z" fill="white"/>
<path d="M384.239 182.927C393.44 177.902 402.546 172.973 411.747 167.948C397.234 100.072 342.122 43.1916 276.669 33.996L249.161 48.9744C314.613 58.0752 369.725 115.05 384.239 182.927Z" fill="white"/>
<path d="M381.582 262.559C376.176 280.002 367.638 295.549 356.635 308.442C365.836 303.418 374.942 298.488 384.144 293.464C395.147 280.571 403.779 265.024 409.091 247.58C400.744 252.131 392.301 256.681 383.954 261.232C383.574 261.421 383.195 261.611 382.816 261.895C382.721 261.99 382.626 261.99 382.531 262.085C382.531 262.085 382.436 262.18 382.341 262.18C382.246 262.274 382.152 262.274 382.057 262.369C381.962 262.369 381.867 262.464 381.772 262.559C381.677 262.464 381.582 262.464 381.582 262.559Z" fill="white"/>
<path d="M207.802 110.026C220.134 104.527 234.268 102.347 249.255 104.527L276.764 89.5488C261.777 87.4632 247.643 89.5488 235.311 95.0472C226.11 100.072 217.004 105.096 207.802 110.026Z" fill="white"/>
<path d="M175.266 61.6776C196.704 50.0172 222.031 45.0876 249.16 48.9744L276.669 33.996C249.445 30.204 224.118 35.1336 202.775 46.6992C194.522 51.1548 183.519 57.1272 175.266 61.6776Z" fill="white"/>
<path d="M214.253 67.9344L186.744 82.9128C204.862 73.0536 226.205 68.9772 249.255 72.2004L276.764 57.222C253.809 53.904 232.371 58.0752 214.253 67.9344Z" fill="#9E46C1"/>
<path d="M312.146 313.94L339.655 298.962C372.381 281.14 394.104 244.736 394.104 199.801C394.009 130.123 341.363 66.1333 276.764 57.0325L249.255 72.0109C313.854 81.1117 366.5 145.102 366.595 214.78C366.595 259.715 344.872 296.213 312.146 313.94Z" fill="#9E46C1"/>
<path d="M336.525 210.608C336.62 243.978 320.399 271.091 296.115 284.268L323.624 269.29C348.003 256.018 364.129 229 364.034 195.63C363.939 143.869 324.762 96.2796 276.764 89.454L249.255 104.432C297.254 111.258 336.43 158.848 336.525 210.608Z" fill="white"/>
<path d="M241.856 118.747L214.348 133.726C224.497 128.227 236.449 125.857 249.35 127.658L276.859 112.68C263.958 110.879 252.006 113.249 241.856 118.747Z" fill="#9E46C1"/>
<path d="M202.775 112.49C204.387 111.637 206.095 110.784 207.802 110.026C217.004 105.001 226.11 100.072 235.311 95.0472C233.604 95.8056 231.896 96.6588 230.284 97.512C222.031 102.062 211.028 108.035 202.775 112.49Z" fill="white"/>
<path d="M232.94 168.043C237.683 165.484 243.279 164.346 249.35 165.199L276.859 150.221C270.788 149.368 265.192 150.505 260.449 153.065C252.196 157.615 241.192 163.588 232.94 168.043Z" fill="white"/>
<path d="M280.179 202.74C280.179 214.495 274.488 224.07 265.95 228.715L293.459 213.737C302.091 209.092 307.688 199.517 307.688 187.762C307.688 169.465 293.839 152.686 276.859 150.316L249.35 165.294C266.33 167.664 280.179 184.444 280.179 202.74Z" fill="white"/>
<path d="M284.543 263.128L312.051 248.149C330.359 238.195 342.596 217.813 342.501 192.691C342.406 153.728 313 117.799 276.764 112.775L249.255 127.753C285.396 132.872 314.897 168.707 314.992 207.67C315.087 232.792 302.85 253.174 284.543 263.128Z" fill="#9E46C1"/>
<path d="M356.54 308.442C347.244 319.344 336.051 328.445 323.624 335.176L351.133 320.197C363.559 313.466 374.658 304.366 384.049 293.464C379.496 295.928 374.848 298.488 370.294 300.953C367.923 302.28 365.551 303.512 363.18 304.84C362.706 305.124 361.947 305.503 361.473 305.788C360.998 306.072 360.334 306.451 359.765 306.736C358.817 307.21 357.394 307.778 356.54 308.442Z" fill="white"/>
<path d="M265.95 228.715L293.459 213.737C288.716 216.296 283.12 217.434 277.049 216.581L249.54 231.559C255.516 232.412 261.207 231.37 265.95 228.715Z" fill="#9E46C1"/>
<path d="M260.449 153.16L232.94 168.138C224.308 172.783 218.616 182.358 218.711 194.113C218.711 212.41 232.56 229.189 249.54 231.559L277.049 216.581C260.069 214.211 246.315 197.431 246.22 179.135C246.22 167.38 251.911 157.805 260.449 153.16Z" fill="#9E46C1"/>
<path d="M249.54 269.1C262.346 270.901 274.393 268.626 284.448 263.128L311.957 248.149C301.807 253.648 289.855 255.923 277.049 254.122C268.796 258.672 257.793 264.644 249.54 269.1Z" fill="white"/>
<path d="M214.348 133.726C203.154 139.793 194.238 149.842 189.02 162.45C198.222 157.426 207.328 152.496 216.529 147.472C221.747 134.863 230.663 124.909 241.856 118.747C233.604 123.203 222.6 129.175 214.348 133.726Z" fill="white"/>
<path d="M296.02 284.363L323.529 269.384C310.059 276.684 294.123 279.812 277.049 277.348L249.54 292.326C266.709 294.696 282.645 291.662 296.02 284.363Z" fill="#9E46C1"/>
<path d="M249.635 324.748C272.59 327.971 294.028 323.8 312.051 314.035L339.56 299.057C321.537 308.821 300.099 312.992 277.144 309.769C268.986 314.225 257.982 320.292 249.635 324.748Z" fill="white"/>
<path d="M186.839 82.818C166.824 93.72 150.887 111.542 141.496 134.105C150.698 129.08 159.804 124.151 169.005 119.126C178.301 96.6588 194.238 78.7416 214.348 67.8396C206.095 72.39 195.091 78.3624 186.839 82.818Z" fill="white"/>
<path d="M183.898 189.184C183.993 228.146 213.399 264.076 249.635 269.1L277.144 254.122C241.003 249.002 211.502 213.168 211.407 174.205C211.407 164.441 213.209 155.435 216.529 147.377C207.328 152.401 198.222 157.331 189.02 162.355C185.7 170.413 183.898 179.419 183.898 189.184Z" fill="white"/>
<path d="M211.407 174.205C211.312 135.242 240.718 107.561 276.859 112.68C313 117.799 342.501 153.634 342.596 192.596C342.691 231.559 313.285 259.241 277.144 254.122C240.908 249.097 211.502 213.263 211.407 174.205ZM276.859 150.316C259.879 147.946 246.125 160.838 246.22 179.135C246.22 197.431 260.069 214.211 277.049 216.581C294.028 218.951 307.783 206.058 307.688 187.762C307.688 169.465 293.839 152.686 276.859 150.316Z" fill="white"/>
<path d="M230.379 97.512L202.87 112.49C178.491 125.762 162.365 152.78 162.46 186.15C162.555 237.911 201.731 285.5 249.73 292.326L277.239 277.348C229.24 270.617 190.064 223.027 189.969 171.172C189.874 137.897 206 110.784 230.379 97.512Z" fill="#9E46C1"/>
<path d="M189.874 171.266C189.779 119.506 228.766 82.8181 276.764 89.5489C324.762 96.2797 363.939 143.869 364.034 195.725C364.129 247.486 325.142 284.173 277.144 277.442C229.145 270.617 189.969 223.027 189.874 171.266ZM276.859 112.68C240.718 107.561 211.312 135.242 211.407 174.205C211.502 213.168 240.908 249.097 277.144 254.122C313.285 259.241 342.691 231.559 342.596 192.596C342.501 153.634 313 117.799 276.859 112.68Z" fill="url(#paint1_linear_540_827)"/>
<path d="M132.295 181.979C132.39 251.657 185.036 315.647 249.635 324.748L277.144 309.769C212.545 300.668 159.899 236.678 159.804 167C159.804 149.557 163.029 133.441 168.91 119.126C159.709 124.151 150.603 129.08 141.402 134.105C135.615 148.325 132.295 164.536 132.295 181.979Z" fill="white"/>
<path d="M323.624 335.176L351.133 320.197C329.79 331.858 304.368 336.787 277.238 332.9L249.73 347.879C276.859 351.766 302.281 346.836 323.624 335.176Z" fill="#9E46C1"/>
<path d="M202.775 46.6992L175.266 61.6776C136.469 82.7232 110.762 125.857 110.857 178.945C111.047 261.421 173.274 337.166 249.73 347.879L277.239 332.9C200.783 322.188 138.556 246.348 138.366 163.967C138.271 110.879 163.978 67.7448 202.775 46.6992Z" fill="#9E46C1"/>
<path d="M109.15 159.89C108.96 59.8764 183.993 -10.6548 276.669 2.42761C369.346 15.4152 444.663 106.992 444.853 207.006C445.043 307.02 370.01 377.551 277.333 364.469C184.562 351.481 109.34 259.904 109.15 159.89ZM276.669 33.996C200.214 23.2836 138.176 81.5856 138.366 164.062C138.556 246.538 200.783 322.283 277.238 332.995C353.694 343.708 415.731 285.406 415.542 202.93C415.447 120.454 353.125 44.7084 276.669 33.996Z" fill="white"/>
<path d="M159.899 167C159.804 97.3224 212.166 48.0264 276.764 57.1272C341.363 66.228 394.009 130.218 394.104 199.896C394.199 269.574 341.837 318.87 277.239 309.769C212.64 300.668 159.994 236.678 159.899 167ZM276.764 89.5488C228.766 82.818 189.779 119.411 189.874 171.266C189.969 223.027 229.145 270.617 277.144 277.442C325.142 284.173 364.129 247.58 364.034 195.725C363.939 143.869 324.762 96.2796 276.764 89.5488Z" fill="white"/>
<path d="M393.535 119.316C391.163 114.955 388.507 110.689 385.756 106.518C383.669 103.39 381.582 100.356 379.306 97.4172C376.27 93.4356 373.14 89.6436 369.915 85.9464C368.302 84.1452 366.595 82.344 364.887 80.5428C340.888 55.8 310.154 38.6412 276.669 33.996C271.926 33.3324 267.184 32.9532 262.535 32.7636C260.164 32.6688 257.887 32.6688 255.611 32.7636C254.473 32.7636 253.334 32.8584 252.196 32.8584C247.643 33.1428 243.184 33.6168 238.821 34.2804C236.639 34.6596 234.457 35.0388 232.276 35.5128C230.094 35.9868 228.007 36.5556 225.92 37.1244C223.833 37.6932 221.746 38.3568 219.754 39.1152C208.466 43.002 198.032 48.5952 188.641 55.7052C187.787 56.3688 186.934 57.0324 186.08 57.696C173.559 67.65 162.934 80.3532 154.966 95.142C154.397 96.09 153.923 97.1328 153.449 98.0808C149.844 105.096 146.903 112.585 144.532 120.454C144.152 121.591 143.868 122.729 143.583 123.866C142.919 126.142 142.35 128.417 141.876 130.787C139.599 141.31 138.366 152.401 138.366 163.967C138.366 170.413 138.746 176.765 139.504 183.116C140.074 188.141 140.927 193.165 141.971 198.19C142.255 199.422 142.54 200.654 142.824 201.887C144.817 210.514 147.473 218.951 150.793 227.104C152.69 231.749 154.682 236.394 156.958 240.85C158.097 243.125 159.235 245.305 160.468 247.486C167.108 259.525 175.076 270.806 184.088 280.855C208.751 308.442 241.477 327.781 277.333 332.806C294.882 335.27 311.767 334.038 327.229 329.772C327.798 329.582 328.462 329.393 329.031 329.298C330.454 328.919 331.877 328.445 333.3 327.971C333.869 327.781 334.533 327.592 335.102 327.307C336.62 326.738 338.043 326.264 339.465 325.601C340.224 325.316 340.888 325.032 341.552 324.748C347.623 322.093 353.504 318.965 359.006 315.362C362.801 312.898 366.405 310.243 369.82 307.304C370.105 307.115 370.294 306.83 370.579 306.641C372.002 305.408 373.425 304.176 374.848 302.849C374.942 302.754 375.037 302.659 375.132 302.564C376.65 301.142 378.168 299.626 379.59 298.109C383.29 294.222 386.8 290.051 390.025 285.595C393.914 280.286 397.329 274.598 400.364 268.531C403.4 262.559 406.056 256.207 408.238 249.571C408.996 247.391 409.66 245.116 410.23 242.84C410.514 241.703 410.799 240.565 411.083 239.428C411.558 237.342 412.032 235.256 412.506 233.171C412.791 231.749 413.075 230.327 413.265 228.905C413.834 225.302 414.309 221.7 414.688 217.908C415.162 212.978 415.352 207.859 415.352 202.74C415.352 188.615 413.455 174.584 410.04 161.123C409.755 159.89 409.376 158.658 409.091 157.426C408.427 154.961 407.668 152.591 406.91 150.221C406.53 148.988 406.151 147.851 405.676 146.618C404.823 144.248 403.969 141.878 403.02 139.508C401.123 134.863 399.131 130.218 396.855 125.762C395.906 123.772 394.768 121.496 393.535 119.316ZM276.764 57.1272C341.363 66.228 394.009 130.218 394.104 199.896C394.199 269.574 341.837 318.87 277.238 309.769C212.64 300.668 159.994 236.678 159.899 167C159.709 97.3224 212.166 48.0264 276.764 57.1272Z" fill="url(#paint2_linear_540_827)"/>
<path d="M272.211 150.031C273.729 150.031 275.341 150.126 276.859 150.316C293.839 152.686 307.593 169.465 307.688 187.762C307.688 200.939 300.668 211.272 290.329 215.159C289.475 215.538 288.527 215.822 287.578 216.012C285.681 216.486 283.689 216.77 281.697 216.77C280.179 216.77 278.567 216.676 277.049 216.486C274.393 216.107 271.832 215.348 269.365 214.4C268.417 214.021 267.373 213.547 266.52 213.073C266.045 212.789 265.571 212.599 265.097 212.315C262.82 210.988 260.638 209.281 258.646 207.385C258.267 207.006 257.887 206.627 257.508 206.248C256.749 205.489 255.99 204.636 255.326 203.783C254.283 202.55 253.334 201.128 252.386 199.801C250.868 197.431 249.635 194.966 248.686 192.312C248.307 191.269 247.927 190.226 247.643 189.089C247.358 188.046 247.074 186.908 246.884 185.771C246.504 183.59 246.22 181.315 246.22 179.04C246.22 177.902 246.315 176.765 246.41 175.627C246.504 174.49 246.694 173.447 246.884 172.404C246.979 171.835 247.074 171.361 247.263 170.887C248.022 167.854 249.161 165.01 250.773 162.45C251.247 161.597 251.817 160.838 252.386 160.08C257.034 154.013 264.053 150.221 272.211 150.031Z" fill="url(#paint3_linear_540_827)"/>
<path d="M339.465 364.09C313.569 378.215 282.835 384.092 249.824 379.447C157.053 366.46 81.7358 274.883 81.5461 174.869C81.4513 110.5 112.47 58.2648 159.425 32.7636L186.934 17.7852C140.074 43.2864 108.96 95.4264 109.055 159.89C109.245 259.904 184.562 351.481 277.239 364.564C310.249 369.209 340.983 363.236 366.879 349.206L339.465 364.09Z" fill="url(#paint4_linear_540_827)"/>
<path opacity="0.4" d="M344.967 225.871C344.967 222.932 330.833 220.468 313.379 220.468C295.926 220.468 281.792 222.838 281.792 225.871C281.792 228.81 295.926 231.275 313.379 231.275C330.738 231.275 344.967 228.905 344.967 225.871Z" fill="url(#paint5_linear_540_827)"/>
<path opacity="0.4" d="M230.379 162.734C247.824 162.734 261.966 160.315 261.966 157.331C261.966 154.347 247.824 151.927 230.379 151.927C212.933 151.927 198.791 154.347 198.791 157.331C198.791 160.315 212.933 162.734 230.379 162.734Z" fill="url(#paint6_linear_540_827)"/>
<path opacity="0.4" d="M298.866 90.876C298.866 87.9372 284.732 85.4724 267.278 85.4724C249.824 85.4724 235.691 87.8424 235.691 90.876C235.691 93.8148 249.824 96.2796 267.278 96.2796C284.732 96.2796 298.866 93.9096 298.866 90.876Z" fill="url(#paint7_linear_540_827)"/>
<path opacity="0.4" d="M305.696 319.723C305.696 316.784 291.562 314.32 274.108 314.32C256.654 314.32 242.52 316.69 242.52 319.723C242.52 322.662 256.654 325.127 274.108 325.127C291.562 325.127 305.696 322.662 305.696 319.723Z" fill="url(#paint8_linear_540_827)"/>
<path d="M389.645 34.8492L399.036 15.6048C399.7 14.1828 400.934 13.14 402.451 12.5712L428.158 4.03922C433.28 2.33282 437.739 7.83122 435.177 12.4764L424.933 30.8676L383.1 44.7084L389.645 34.8492Z" fill="url(#paint9_linear_540_827)"/>
<path d="M394.293 48.8796L413.36 58.7388C414.783 59.4972 416.395 59.5921 417.913 59.118L443.62 50.5861C448.742 48.8797 449.027 41.8644 444.189 39.684L425.028 31.0573L383.195 44.898L394.293 48.8796Z" fill="url(#paint10_linear_540_827)"/>
<path d="M234.363 91.824C245.366 92.8668 252.765 91.0656 252.765 91.0656L424.458 37.2192C425.692 36.84 425.881 33.9012 424.933 30.8676C423.889 27.7392 422.087 25.5588 420.759 26.0328L250.204 81.1116C237.398 86.4204 234.363 91.824 234.363 91.824Z" fill="url(#paint11_linear_540_827)"/>
<path d="M353.979 99.9768L363.37 80.7324C364.034 79.3104 365.267 78.2676 366.785 77.6988L392.491 69.1668C397.613 67.4604 402.072 72.9588 399.511 77.604L389.266 95.9952L347.434 109.836L353.979 99.9768Z" fill="url(#paint12_linear_540_827)"/>
<path d="M358.627 114.102L377.693 123.961C379.116 124.72 380.729 124.814 382.246 124.34L407.953 115.808C413.075 114.102 413.36 107.087 408.522 104.906L389.361 96.2795L347.528 110.12L358.627 114.102Z" fill="url(#paint13_linear_540_827)"/>
<path d="M198.791 156.952C209.794 157.994 217.193 156.193 217.193 156.193L388.887 102.347C390.12 101.968 390.309 99.0287 389.361 95.9951C388.317 92.8667 386.515 90.6863 385.187 91.1603L214.632 146.239C201.731 151.548 198.791 156.952 198.791 156.952Z" fill="url(#paint14_linear_540_827)"/>
<path d="M397.519 263.317L406.91 244.073C407.574 242.651 408.807 241.608 410.324 241.039L436.031 232.507C441.153 230.801 445.612 236.299 443.051 240.944L432.806 259.336L390.973 273.176L397.519 263.317Z" fill="url(#paint15_linear_540_827)"/>
<path d="M402.167 277.443L421.233 287.302C422.656 288.06 424.269 288.155 425.786 287.681L451.493 279.149C456.615 277.443 456.9 270.427 452.062 268.247L432.901 259.62L391.068 273.461L402.167 277.443Z" fill="url(#paint16_linear_540_827)"/>
<path d="M242.331 320.292C253.334 321.335 260.733 319.534 260.733 319.534L432.426 265.687C433.66 265.308 433.849 262.369 432.901 259.336C431.857 256.207 430.055 254.027 428.727 254.501L258.172 309.58C245.271 314.889 242.331 320.292 242.331 320.292Z" fill="url(#paint17_linear_540_827)"/>
<path d="M436.41 167.759L445.801 148.514C446.465 147.092 447.699 146.05 449.216 145.481L474.923 136.949C480.045 135.242 484.504 140.741 481.942 145.386L471.603 163.872L429.77 177.713L436.41 167.759Z" fill="url(#paint18_linear_540_827)"/>
<path d="M441.059 181.884L460.125 191.743C461.548 192.502 463.16 192.596 464.678 192.122L490.385 183.59C495.507 181.884 495.792 174.869 490.954 172.688L471.793 164.062L429.96 177.902L441.059 181.884Z" fill="url(#paint19_linear_540_827)"/>
<path d="M281.128 224.828C292.131 225.871 299.53 224.07 299.53 224.07L471.223 170.224C472.457 169.844 472.646 166.906 471.698 163.872C470.654 160.744 468.852 158.563 467.524 159.037L296.969 214.116C284.163 219.33 281.128 224.828 281.128 224.828Z" fill="url(#paint20_linear_540_827)"/>
<defs>
<linearGradient id="paint0_linear_540_827" x1="191.293" y1="439.61" x2="110.951" y2="304.863" gradientUnits="userSpaceOnUse">
<stop offset="0.4335" stop-color="#A0A7A9"/>
<stop offset="0.4838" stop-color="#B8BDBF"/>
<stop offset="0.5526" stop-color="#D2D5D6"/>
<stop offset="0.6289" stop-color="#E6E8E8"/>
<stop offset="0.7155" stop-color="#F4F5F5"/>
<stop offset="0.8211" stop-color="#FDFDFD"/>
<stop offset="1" stop-color="white"/>
</linearGradient>
<linearGradient id="paint1_linear_540_827" x1="421.07" y1="424.856" x2="168.445" y2="1.16271" gradientUnits="userSpaceOnUse">
<stop stop-color="#99BC39"/>
<stop offset="0.2028" stop-color="#91B93D"/>
<stop offset="0.5123" stop-color="#7CB146"/>
<stop offset="0.8881" stop-color="#5AA457"/>
<stop offset="1" stop-color="#4EA05C"/>
</linearGradient>
<linearGradient id="paint2_linear_540_827" x1="421.071" y1="424.855" x2="168.448" y2="1.16336" gradientUnits="userSpaceOnUse">
<stop stop-color="#99BC39"/>
<stop offset="0.2028" stop-color="#91B93D"/>
<stop offset="0.5123" stop-color="#7CB146"/>
<stop offset="0.8881" stop-color="#5AA457"/>
<stop offset="1" stop-color="#4EA05C"/>
</linearGradient>
<linearGradient id="paint3_linear_540_827" x1="421.071" y1="424.855" x2="168.447" y2="1.162" gradientUnits="userSpaceOnUse">
<stop stop-color="#99BC39"/>
<stop offset="0.2028" stop-color="#91B93D"/>
<stop offset="0.5123" stop-color="#7CB146"/>
<stop offset="0.8881" stop-color="#5AA457"/>
<stop offset="1" stop-color="#4EA05C"/>
</linearGradient>
<linearGradient id="paint4_linear_540_827" x1="345.077" y1="466.983" x2="73.0719" y2="26.0491" gradientUnits="userSpaceOnUse">
<stop stop-color="white"/>
<stop offset="0.0572118" stop-color="#F4F6F7"/>
<stop offset="0.1575" stop-color="#D7DEE2"/>
<stop offset="0.2804" stop-color="#ABB9C3"/>
<stop offset="0.6117" stop-color="#F0EEF0"/>
<stop offset="0.7295" stop-color="#ECEBEE"/>
<stop offset="0.8362" stop-color="#E1E3E7"/>
<stop offset="0.9384" stop-color="#CFD5DB"/>
<stop offset="1" stop-color="#C0C9D1"/>
</linearGradient>
<linearGradient id="paint5_linear_540_827" x1="297.534" y1="224.92" x2="344.682" y2="227.869" gradientUnits="userSpaceOnUse">
<stop offset="0.4279" stop-color="#6D7274"/>
<stop offset="0.4349" stop-color="#737779"/>
<stop offset="0.4875" stop-color="#989B9D"/>
<stop offset="0.5444" stop-color="#B8BABB"/>
<stop offset="0.6057" stop-color="#D2D3D4"/>
<stop offset="0.6729" stop-color="#E6E7E7"/>
<stop offset="0.7492" stop-color="#F4F5F5"/>
<stop offset="0.8423" stop-color="#FDFDFD"/>
<stop offset="1" stop-color="white"/>
</linearGradient>
<linearGradient id="paint6_linear_540_827" x1="214.595" y1="156.307" x2="261.744" y2="159.256" gradientUnits="userSpaceOnUse">
<stop offset="0.4279" stop-color="#6D7274"/>
<stop offset="0.4349" stop-color="#737779"/>
<stop offset="0.4875" stop-color="#989B9D"/>
<stop offset="0.5444" stop-color="#B8BABB"/>
<stop offset="0.6057" stop-color="#D2D3D4"/>
<stop offset="0.6729" stop-color="#E6E7E7"/>
<stop offset="0.7492" stop-color="#F4F5F5"/>
<stop offset="0.8423" stop-color="#FDFDFD"/>
<stop offset="1" stop-color="white"/>
</linearGradient>
<linearGradient id="paint7_linear_540_827" x1="251.459" y1="89.9079" x2="298.607" y2="92.8565" gradientUnits="userSpaceOnUse">
<stop offset="0.4279" stop-color="#6D7274"/>
<stop offset="0.4349" stop-color="#737779"/>
<stop offset="0.4875" stop-color="#989B9D"/>
<stop offset="0.5444" stop-color="#B8BABB"/>
<stop offset="0.6057" stop-color="#D2D3D4"/>
<stop offset="0.6729" stop-color="#E6E7E7"/>
<stop offset="0.7492" stop-color="#F4F5F5"/>
<stop offset="0.8423" stop-color="#FDFDFD"/>
<stop offset="1" stop-color="white"/>
</linearGradient>
<linearGradient id="paint8_linear_540_827" x1="258.31" y1="318.727" x2="305.458" y2="321.675" gradientUnits="userSpaceOnUse">
<stop offset="0.4279" stop-color="#6D7274"/>
<stop offset="0.4349" stop-color="#737779"/>
<stop offset="0.4875" stop-color="#989B9D"/>
<stop offset="0.5444" stop-color="#B8BABB"/>
<stop offset="0.6057" stop-color="#D2D3D4"/>
<stop offset="0.6729" stop-color="#E6E7E7"/>
<stop offset="0.7492" stop-color="#F4F5F5"/>
<stop offset="0.8423" stop-color="#FDFDFD"/>
<stop offset="1" stop-color="white"/>
</linearGradient>
<linearGradient id="paint9_linear_540_827" x1="404.541" y1="8.24914" x2="409.879" y2="28.5199" gradientUnits="userSpaceOnUse">
<stop offset="1.4e-07" stop-color="#0057BC"/>
<stop offset="0.2195" stop-color="#085CC0"/>
<stop offset="0.5544" stop-color="#1D6BCA"/>
<stop offset="0.9612" stop-color="#3F82DB"/>
<stop offset="1" stop-color="#4385DD"/>
</linearGradient>
<linearGradient id="paint10_linear_540_827" x1="422.145" y1="61.3327" x2="414.324" y2="41.8794" gradientUnits="userSpaceOnUse">
<stop offset="1.4e-07" stop-color="#0057BC"/>
<stop offset="0.2195" stop-color="#085CC0"/>
<stop offset="0.5544" stop-color="#1D6BCA"/>
<stop offset="0.9612" stop-color="#3F82DB"/>
<stop offset="1" stop-color="#4385DD"/>
</linearGradient>
<linearGradient id="paint11_linear_540_827" x1="331.803" y1="67.9193" x2="327.676" y2="55.4598" gradientUnits="userSpaceOnUse">
<stop stop-color="white"/>
<stop offset="0.0572118" stop-color="#F4F6F7"/>
<stop offset="0.1575" stop-color="#D7DEE2"/>
<stop offset="0.2804" stop-color="#ABB9C3"/>
<stop offset="0.6117" stop-color="#F0EEF0"/>
<stop offset="0.7295" stop-color="#ECEBEE"/>
<stop offset="0.8362" stop-color="#E1E3E7"/>
<stop offset="0.9384" stop-color="#CFD5DB"/>
<stop offset="1" stop-color="#C0C9D1"/>
</linearGradient>
<linearGradient id="paint12_linear_540_827" x1="368.928" y1="73.4098" x2="374.265" y2="93.6804" gradientUnits="userSpaceOnUse">
<stop offset="1.4e-07" stop-color="#0057BC"/>
<stop offset="0.2195" stop-color="#085CC0"/>
<stop offset="0.5544" stop-color="#1D6BCA"/>
<stop offset="0.9612" stop-color="#3F82DB"/>
<stop offset="1" stop-color="#4385DD"/>
</linearGradient>
<linearGradient id="paint13_linear_540_827" x1="386.532" y1="126.493" x2="378.711" y2="107.04" gradientUnits="userSpaceOnUse">
<stop offset="1.4e-07" stop-color="#0057BC"/>
<stop offset="0.2195" stop-color="#085CC0"/>
<stop offset="0.5544" stop-color="#1D6BCA"/>
<stop offset="0.9612" stop-color="#3F82DB"/>
<stop offset="1" stop-color="#4385DD"/>
</linearGradient>
<linearGradient id="paint14_linear_540_827" x1="296.189" y1="133.08" x2="292.062" y2="120.62" gradientUnits="userSpaceOnUse">
<stop stop-color="white"/>
<stop offset="0.0572118" stop-color="#F4F6F7"/>
<stop offset="0.1575" stop-color="#D7DEE2"/>
<stop offset="0.2804" stop-color="#ABB9C3"/>
<stop offset="0.6117" stop-color="#F0EEF0"/>
<stop offset="0.7295" stop-color="#ECEBEE"/>
<stop offset="0.8362" stop-color="#E1E3E7"/>
<stop offset="0.9384" stop-color="#CFD5DB"/>
<stop offset="1" stop-color="#C0C9D1"/>
</linearGradient>
<linearGradient id="paint15_linear_540_827" x1="412.47" y1="236.737" x2="417.807" y2="257.008" gradientUnits="userSpaceOnUse">
<stop offset="1.4e-07" stop-color="#0057BC"/>
<stop offset="0.2195" stop-color="#085CC0"/>
<stop offset="0.5544" stop-color="#1D6BCA"/>
<stop offset="0.9612" stop-color="#3F82DB"/>
<stop offset="1" stop-color="#4385DD"/>
</linearGradient>
<linearGradient id="paint16_linear_540_827" x1="430.074" y1="289.821" x2="422.253" y2="270.367" gradientUnits="userSpaceOnUse">
<stop offset="1.4e-07" stop-color="#0057BC"/>
<stop offset="0.2195" stop-color="#085CC0"/>
<stop offset="0.5544" stop-color="#1D6BCA"/>
<stop offset="0.9612" stop-color="#3F82DB"/>
<stop offset="1" stop-color="#4385DD"/>
</linearGradient>
<linearGradient id="paint17_linear_540_827" x1="339.732" y1="296.407" x2="335.604" y2="283.948" gradientUnits="userSpaceOnUse">
<stop stop-color="white"/>
<stop offset="0.0572118" stop-color="#F4F6F7"/>
<stop offset="0.1575" stop-color="#D7DEE2"/>
<stop offset="0.2804" stop-color="#ABB9C3"/>
<stop offset="0.6117" stop-color="#F0EEF0"/>
<stop offset="0.7295" stop-color="#ECEBEE"/>
<stop offset="0.8362" stop-color="#E1E3E7"/>
<stop offset="0.9384" stop-color="#CFD5DB"/>
<stop offset="1" stop-color="#C0C9D1"/>
</linearGradient>
<linearGradient id="paint18_linear_540_827" x1="451.32" y1="141.217" x2="456.657" y2="161.488" gradientUnits="userSpaceOnUse">
<stop offset="1.4e-07" stop-color="#0057BC"/>
<stop offset="0.2195" stop-color="#085CC0"/>
<stop offset="0.5544" stop-color="#1D6BCA"/>
<stop offset="0.9612" stop-color="#3F82DB"/>
<stop offset="1" stop-color="#4385DD"/>
</linearGradient>
<linearGradient id="paint19_linear_540_827" x1="468.924" y1="194.301" x2="461.103" y2="174.847" gradientUnits="userSpaceOnUse">
<stop offset="1.4e-07" stop-color="#0057BC"/>
<stop offset="0.2195" stop-color="#085CC0"/>
<stop offset="0.5544" stop-color="#1D6BCA"/>
<stop offset="0.9612" stop-color="#3F82DB"/>
<stop offset="1" stop-color="#4385DD"/>
</linearGradient>
<linearGradient id="paint20_linear_540_827" x1="378.581" y1="200.887" x2="374.454" y2="188.428" gradientUnits="userSpaceOnUse">
<stop stop-color="white"/>
<stop offset="0.0572118" stop-color="#F4F6F7"/>
<stop offset="0.1575" stop-color="#D7DEE2"/>
<stop offset="0.2804" stop-color="#ABB9C3"/>
<stop offset="0.6117" stop-color="#F0EEF0"/>
<stop offset="0.7295" stop-color="#ECEBEE"/>
<stop offset="0.8362" stop-color="#E1E3E7"/>
<stop offset="0.9384" stop-color="#CFD5DB"/>
<stop offset="1" stop-color="#C0C9D1"/>
</linearGradient>
</defs>
</svg>
