<svg width="78" height="118" viewBox="0 0 78 118" fill="none" xmlns="http://www.w3.org/2000/svg">
<path fill-rule="evenodd" clip-rule="evenodd" d="M60.6599 22.1885H17.4045C17.4045 22.1885 16.3679 28.3858 11.4666 31.8789C6.43009 35.4959 0.356995 36.6565 0.356995 36.6565C0.356995 36.6565 3.57944 63.6432 7.59062 75.2717C17.7876 104.456 38.9703 113.628 38.9703 113.628C38.9703 113.628 60.2768 104.456 70.4738 75.2717C74.4737 63.6432 77.7075 36.6565 77.7075 36.6565C77.7075 36.6565 71.6342 35.4959 66.5977 31.8789C61.6964 28.3858 60.6599 22.1885 60.6599 22.1885Z" fill="#010005"/>
<path fill-rule="evenodd" clip-rule="evenodd" d="M28.6381 103.678C31.7366 106.652 35.4774 108.838 38.9703 111.295C51.8827 103.024 60.1529 93.7282 66.4739 79.6545C71.8934 66.3584 72.547 51.8903 75.2512 38.1997C67.3753 35.6194 61.6966 32.6446 58.9812 24.25H19.0834C16.5032 32.0023 10.5652 36.2616 2.68933 38.1997C6.43009 62.223 8.62726 86.3702 28.6381 103.678Z" fill="white"/>
<path fill-rule="evenodd" clip-rule="evenodd" d="M51.8827 98.1227C65.5725 83.7898 68.7951 66.8766 71.3753 48.1492C71.8936 45.4337 72.2767 42.0759 72.9189 39.4955C65.167 37.2983 60.784 33.422 57.4263 26.3232H20.627C16.8863 33.5573 13.0103 37.1743 4.99921 39.7547C7.83858 59.3834 10.554 79.2714 23.5904 95.5423C28.1086 100.703 33.4042 104.974 39.083 108.838C43.4885 105.74 47.8828 101.999 51.8827 98.1227Z" fill="#010005"/>
<path fill-rule="evenodd" clip-rule="evenodd" d="M64.7951 64.4193C66.2148 57.1853 67.7697 49.185 68.5359 41.951C61.9558 38.9762 58.8459 35.7537 55.2404 29.9395H22.8242C18.8243 35.8777 16.2441 38.9764 9.26955 42.075H9.14563C11.7259 59.7657 15.0835 81.3326 28.1311 95.0231C31.2296 98.257 35.4888 101.739 38.9816 104.319C53.3025 93.8625 61.1783 81.3325 64.7951 64.4193Z" fill="white"/>
<path fill-rule="evenodd" clip-rule="evenodd" d="M13.7877 45.3107L13.9116 45.5699C17.134 66.3592 20.7509 85.4696 39.0942 99.0362C48.3898 91.1599 55.6234 81.4695 59.105 69.8522C61.5613 61.852 62.3387 53.1982 64.0063 45.0627C60.0064 43.0007 54.7108 38.7302 52.7728 34.9893H25.1452C22.1819 39.3725 18.4411 42.8543 13.7877 45.3107Z" fill="#010005"/>
<path fill-rule="evenodd" clip-rule="evenodd" d="M18.7001 60.4205C21.9225 73.8519 27.2182 87.9255 39.1053 96.3201C44.6601 90.5059 50.3388 84.8269 53.8204 77.3337C58.5978 67.6432 59.8935 56.6683 61.5724 46.0877C58.4738 44.5327 53.1782 40.1495 51.6346 37.0508H26.1929C23.7366 40.2847 20.255 44.4087 16.2551 46.3468C17.0212 50.9892 17.9226 55.7668 18.7001 60.4205Z" fill="white"/>
<path fill-rule="evenodd" clip-rule="evenodd" d="M32.514 88.0483C34.452 90.2456 36.6492 92.5668 38.9702 94.2457C45.3025 87.4061 50.7221 81.2087 54.3389 72.4197C56.9192 64.1603 58.5979 55.3713 59.8937 46.9767C57.1782 45.6809 52.1417 41.2976 50.8572 38.582H26.9705C24.1311 42.199 21.4156 44.6555 17.934 47.2359C20.6495 61.0504 22.7114 74.2226 31.1056 86.1103L32.514 88.0483Z" fill="#010005"/>
<path fill-rule="evenodd" clip-rule="evenodd" d="M42.1024 109.447C43.5221 102.472 43.3982 93.1764 43.3982 84.5227C43.3982 67.0911 43.6573 30.8085 43.6573 30.8085L52.5699 24.8702L53.2122 25.1294C54.1136 26.0308 55.9276 27.5857 56.3107 24.487C56.5699 24.1039 56.1754 23.4505 54.767 23.3265C53.2121 22.9434 51.2742 23.3265 50.1137 23.4505C47.5334 24.0927 41.0772 24.8702 41.0772 24.8702C41.0772 24.8702 42.2376 16.4756 42.2376 12.4755C42.2376 8.73453 41.5955 7.95703 39.9166 7.95703C37.9787 7.95703 37.3364 8.73453 37.3364 12.4755C37.3364 16.4756 38.2378 24.8702 38.2378 24.8702C38.2378 24.8702 32.0407 24.0927 29.4605 23.4505C28.3 23.3265 26.4859 22.9321 24.9423 23.3265C23.3874 23.4505 23.1395 24.1039 23.1395 24.487C23.7818 27.5857 25.7197 26.0421 26.4972 25.1294L27.0155 24.8702L36.1872 30.8085C36.1872 30.8085 36.0632 67.0911 36.0632 84.5227C36.0632 93.1764 36.4463 102.472 37.7421 109.447C38.3843 112.546 39.4209 115.521 39.9392 117.459C40.2998 115.521 41.5841 112.546 42.1024 109.447Z" fill="white"/>
<path fill-rule="evenodd" clip-rule="evenodd" d="M38.9702 113.323C38.9702 113.323 36.39 97.57 36.39 90.8431C36.39 84.3527 35.8716 30.0638 35.8716 30.0638H39.7476L39.2294 84.7922C39.2294 91.5191 38.9702 113.323 38.9702 113.323ZM39.3646 26.1989C37.4266 26.1989 35.8829 21.1621 35.8829 15.0887C35.8829 9.01527 37.4378 3.97852 39.3646 3.97852C41.3026 3.97852 42.8461 9.01527 42.8461 15.0887C42.8461 21.1621 41.2913 26.1989 39.3646 26.1989Z" fill="#010005"/>
<path fill-rule="evenodd" clip-rule="evenodd" d="M39.2294 10.8311C37.9336 10.8311 36.9083 11.0903 36.9083 11.4734C36.9083 11.8565 37.9449 12.1156 39.2294 12.1156C40.5251 12.1156 41.5504 11.8565 41.5504 11.4734C41.5504 11.0903 40.5251 10.8311 39.2294 10.8311ZM39.2294 13.2875C37.9336 13.2875 36.9083 13.5466 36.9083 13.9297C36.9083 14.3128 37.9449 14.5721 39.2294 14.5721C40.5251 14.5721 41.5504 14.3128 41.5504 13.9297C41.5504 13.5354 40.5251 13.2875 39.2294 13.2875ZM39.2294 18.0651C38.1928 18.0651 37.4266 18.3242 37.4266 18.5834C37.4266 18.8426 38.2041 19.1018 39.2294 19.1018C40.266 19.1018 41.0321 18.8426 41.0321 18.5834C41.0321 18.313 40.266 18.0651 39.2294 18.0651ZM39.2294 20.3864C38.1928 20.3864 37.4266 20.9046 37.4266 21.6821C37.4266 22.4596 38.2041 22.9779 39.2294 22.9779C40.266 22.9779 41.0321 22.4596 41.0321 21.6821C41.0321 20.9046 40.266 20.3864 39.2294 20.3864ZM39.2294 15.7327C37.6745 15.7327 36.5139 16.1158 36.5139 16.5101C36.5139 16.8933 37.6745 17.2877 39.2294 17.2877C40.7843 17.2877 41.9449 16.9045 41.9449 16.5101C41.9449 16.127 40.7843 15.7327 39.2294 15.7327Z" fill="white"/>
<path fill-rule="evenodd" clip-rule="evenodd" d="M39.3646 0.49707C37.6857 0.49707 36.2661 1.91683 36.2661 3.59575C36.2661 5.27468 37.6857 6.69444 39.3646 6.69444C41.0434 6.69444 42.4631 5.27468 42.4631 3.59575C42.4518 1.91683 41.0321 0.49707 39.3646 0.49707Z" fill="#010005"/>
<path fill-rule="evenodd" clip-rule="evenodd" d="M39.6125 1.53418C38.5759 1.53418 37.6746 2.43572 37.6746 3.47237C37.6746 4.37381 38.5759 5.27521 39.6125 5.27521C40.5139 5.27521 41.4153 4.37381 41.4153 3.47237C41.4265 2.43572 40.5252 1.53418 39.6125 1.53418Z" fill="white"/>
<path fill-rule="evenodd" clip-rule="evenodd" d="M44.9758 23.608C46.2715 25.1517 43.7139 29.5462 44.7505 31.1012C47.0716 29.4223 49.0095 27.8785 51.2067 27.101C52.1081 28.656 54.1812 29.6814 55.984 29.6814C58.8234 29.6814 61.1444 27.3601 61.1444 24.5206C61.9444 16.8584 50.801 17.3881 44.9419 23.5742L44.9758 23.608ZM33.6183 23.5854C32.3225 25.1404 34.4182 29.5462 33.3929 31.1012C31.0718 29.4223 29.1339 27.8785 26.9367 27.101C26.0353 28.656 23.9621 29.6814 22.1594 29.6814C19.32 29.6814 16.9989 27.3601 16.9989 24.5206C16.2102 17.0049 27.5226 17.1626 33.3929 23.36L33.6183 23.5854Z" fill="#010005"/>
<path fill-rule="evenodd" clip-rule="evenodd" d="M44.9757 23.607C46.1363 24.9028 44.5251 28.5085 45.4265 29.8043C47.4884 28.3846 50.2038 27.0888 52.1418 26.4465C52.9192 27.6071 54.2038 28.7676 55.8826 28.7676C58.3389 28.7676 59.7585 26.7056 59.7585 24.3731C60.0177 22.435 58.0797 20.2379 56.2769 20.1139C52.5249 19.0886 49.1109 19.6068 44.9757 23.607ZM34.3281 24.2605C33.1675 25.5563 35.2295 28.5198 34.3281 29.8156C32.2661 28.3959 29.5508 27.0999 27.6128 26.4577C26.8353 27.6183 25.5508 28.7789 23.872 28.7789C21.4157 28.7789 19.996 26.7169 19.996 24.3844C19.7369 22.4463 21.6748 20.249 23.4776 20.1251C27.2184 19.0884 30.193 20.2491 34.3281 24.2605Z" fill="white"/>
<path fill-rule="evenodd" clip-rule="evenodd" d="M55.7585 27.6192C55.7585 27.6192 58.9923 23.1008 53.3023 22.7177C49.0432 24.2727 45.5616 26.7178 45.5616 26.4586C45.5616 26.1994 45.4264 25.298 45.3025 24.6558C45.3025 24.6558 51.8939 21.422 54.9924 22.0755C58.0796 22.7065 60.5358 26.0643 55.7585 27.6192ZM23.9959 27.6192C23.9959 27.6192 20.7734 23.1008 26.4521 22.7177C30.7112 24.2727 34.2041 26.7178 34.2041 26.4586C34.2041 26.1994 34.328 25.298 34.4632 24.6558C34.4632 24.6558 27.8718 21.422 24.7733 22.0755C21.6635 22.7065 19.2185 26.0643 23.9959 27.6192Z" fill="#010005"/>
<path fill-rule="evenodd" clip-rule="evenodd" d="M45.8093 23.6074H33.156C32.773 23.6074 32.5138 23.8665 32.5138 24.2496V31.8668C32.5138 32.2499 32.773 32.5091 33.156 32.5091H45.8093C46.1924 32.5091 46.4516 32.2499 46.4516 31.8668V24.2496C46.4629 23.8665 46.2036 23.6074 45.8093 23.6074Z" fill="#010005"/>
<path d="M45.4264 24.6445H33.5505V31.4842H45.4264V24.6445Z" fill="white"/>
<path d="M43.8716 25.9404H35.0942V30.0758H43.8716V25.9404Z" fill="#010005"/>
<path fill-rule="evenodd" clip-rule="evenodd" d="M39.4997 24.9043C37.5617 24.9043 36.0181 26.3239 36.0181 27.8789C36.0181 29.4339 37.573 30.8537 39.4997 30.8537C41.4377 30.8537 42.9813 29.4339 42.9813 27.8789C42.9926 26.3239 41.4377 24.9043 39.4997 24.9043Z" fill="white"/>
<path fill-rule="evenodd" clip-rule="evenodd" d="M28.8973 29.2979C27.7367 29.2979 26.8354 30.1994 26.8354 31.36C26.8354 32.5206 27.7367 33.422 28.8973 33.422C30.0578 33.422 30.9592 32.5206 30.9592 31.36C30.9705 30.1994 30.0578 29.2979 28.8973 29.2979ZM29.7987 29.2979C29.81 29.2979 29.81 29.2979 29.7987 29.2979C30.4409 29.2979 30.9592 29.8162 30.9592 30.4585C30.9592 31.1008 30.4409 31.6191 29.7987 31.6191C29.1565 31.6191 28.6381 31.1008 28.6381 30.4585C28.6381 29.8162 29.1565 29.2979 29.7987 29.2979ZM49.8208 29.2979C48.6603 29.2979 47.7588 30.1994 47.7588 31.36C47.7588 32.5206 48.6603 33.422 49.8208 33.422C50.9814 33.422 51.8827 32.5206 51.8827 31.36C51.8827 30.1994 50.9814 29.2979 49.8208 29.2979ZM50.7221 29.2979C51.3644 29.2979 51.8827 29.8162 51.8827 30.4585C51.8827 31.1008 51.3644 31.6191 50.7221 31.6191C50.0799 31.6191 49.5616 31.1008 49.5616 30.4585C49.5616 29.8162 50.0799 29.2979 50.7221 29.2979ZM62.9923 38.7178C61.8318 38.7178 60.9304 39.6194 60.9304 40.78C60.9304 41.9406 61.8318 42.8419 62.9923 42.8419C64.1528 42.8419 65.0542 41.9406 65.0542 40.78C65.0542 39.6194 64.1528 38.7178 62.9923 38.7178ZM63.8938 38.7178C64.536 38.7178 65.0542 39.2362 65.0542 39.8785C65.0542 40.5207 64.536 41.0391 63.8938 41.0391C63.2515 41.0391 62.7332 40.5207 62.7332 39.8785C62.7332 39.2362 63.2515 38.7178 63.8938 38.7178ZM15.4666 38.7178C14.306 38.7178 13.4046 39.6194 13.4046 40.78C13.4046 41.9406 14.306 42.8419 15.4666 42.8419C16.6271 42.8419 17.5285 41.9406 17.5285 40.78C17.5398 39.6194 16.6271 38.7178 15.4666 38.7178ZM16.3792 38.7178C17.0215 38.7178 17.5398 39.2362 17.5398 39.8785C17.5398 40.5207 17.0215 41.0391 16.3792 41.0391C15.737 41.0391 15.2187 40.5207 15.2187 39.8785C15.2075 39.2362 15.7257 38.7178 16.3792 38.7178ZM14.8243 63.5186C13.6638 63.5186 12.7624 64.4201 12.7624 65.5807C12.7624 66.7413 13.6638 67.6427 14.8243 67.6427C15.9849 67.6427 16.8863 66.7413 16.8863 65.5807C16.8863 64.4201 15.9849 63.5186 14.8243 63.5186ZM15.7257 63.5186C16.368 63.5186 16.8863 64.0369 16.8863 64.6792C16.8863 65.3215 16.368 65.8398 15.7257 65.8398C15.0835 65.8398 14.5652 65.3215 14.5652 64.6792C14.5652 64.0257 15.0835 63.5186 15.7257 63.5186ZM63.3754 63.5186C62.2148 63.5186 61.3135 64.4201 61.3135 65.5807C61.3135 66.7413 62.2148 67.6427 63.3754 67.6427C64.5359 67.6427 65.4374 66.7413 65.4374 65.5807C65.4374 64.4201 64.5359 63.5186 63.3754 63.5186ZM64.2768 63.5186C64.919 63.5186 65.4374 64.0369 65.4374 64.6792C65.4374 65.3215 64.919 65.8398 64.2768 65.8398C63.6346 65.8398 63.1162 65.3215 63.1162 64.6792C63.1162 64.0257 63.6346 63.5186 64.2768 63.5186ZM50.2039 90.3702C49.0433 90.3702 48.142 91.2716 48.142 92.4322C48.142 93.5928 49.0433 94.4941 50.2039 94.4941C51.3644 94.4941 52.2658 93.5928 52.2658 92.4322C52.277 91.2716 51.3644 90.3702 50.2039 90.3702ZM51.1052 90.3702C51.1165 90.3702 51.1165 90.3702 51.1052 90.3702C51.7474 90.3702 52.2658 90.8884 52.2658 91.5307C52.2658 92.1729 51.7474 92.6913 51.1052 92.6913C50.4629 92.6913 49.9448 92.1729 49.9448 91.5307C49.9448 90.8884 50.4629 90.3702 51.1052 90.3702ZM27.2184 90.3702C26.0579 90.3702 25.1565 91.2716 25.1565 92.4322C25.1565 93.5928 26.0579 94.4941 27.2184 94.4941C28.379 94.4941 29.2804 93.5928 29.2804 92.4322C29.2916 91.2716 28.379 90.3702 27.2184 90.3702ZM28.1198 90.3702C28.1311 90.3702 28.1311 90.3702 28.1198 90.3702C28.762 90.3702 29.2804 90.8884 29.2804 91.5307C29.2804 91.5307 29.2804 91.5307 29.2804 91.542C29.2804 92.1842 28.762 92.7026 28.1198 92.7026C27.4776 92.7026 26.9593 92.1842 26.9593 91.542C26.9593 90.8884 27.4776 90.3702 28.1198 90.3702Z" fill="#010005"/>
<path d="M39.1391 74.821C49.0894 74.821 57.1558 66.7543 57.1558 56.8036C57.1558 46.8528 49.0894 38.7861 39.1391 38.7861C29.1889 38.7861 21.1227 46.8528 21.1227 56.8036C21.1227 66.7543 29.1889 74.821 39.1391 74.821Z" fill="#9C0E04" stroke="black" stroke-width="0.769298" stroke-miterlimit="22.9256"/>
<path fill-rule="evenodd" clip-rule="evenodd" d="M33.6746 52.3973H37.2689L38.1928 50.1324L43.7814 61.8849L47.7588 61.8962L38.2717 42.166L33.6746 52.3973Z" fill="white"/>
<path fill-rule="evenodd" clip-rule="evenodd" d="M27.8943 58.9218L41.5503 58.9669L40.4122 56.3301L29.1787 56.3414L27.8943 58.9218Z" fill="white"/>
<path fill-rule="evenodd" clip-rule="evenodd" d="M29.6857 55.3489L39.9278 55.394L39.0151 53.2192L30.7787 53.1855L29.6857 55.3489Z" fill="white"/>
<path fill-rule="evenodd" clip-rule="evenodd" d="M29.4943 61.8852L33.4829 61.8965L34.4068 59.5303L32.266 59.5528H31.7252H30.4632L29.4943 61.8852Z" fill="white"/>
<path fill-rule="evenodd" clip-rule="evenodd" d="M47.1505 58.9551L49.3137 58.9663L48.0744 56.3634L45.8096 56.3408C46.0913 57.1746 46.6209 58.3241 47.1505 58.9551Z" fill="white"/>
<path fill-rule="evenodd" clip-rule="evenodd" d="M45.28 55.3715L47.6912 55.394L46.6659 53.1968L44.2208 53.1855L45.28 55.3715Z" fill="white"/>
<path fill-rule="evenodd" clip-rule="evenodd" d="M37.8095 28.1818C37.7419 27.7199 37.9109 27.2353 38.2039 26.886C39.0489 25.8381 40.9418 26.1762 41.1785 27.7875C41.2573 28.3171 41.032 28.7904 40.7841 29.0721C40.187 29.7932 39.1166 29.872 38.3954 29.2748L38.1813 29.0721C37.9897 28.8129 37.8546 28.5199 37.8095 28.1818ZM42.4404 27.8439C42.339 27.8326 42.2827 27.8664 42.17 27.8439C41.8432 27.7875 41.9446 27.6748 41.415 27.6748C41.5164 27.4833 42.0234 27.6636 42.2488 27.5284C42.3502 27.472 42.3277 27.4607 42.384 27.3819C42.1474 27.4269 42.1813 27.472 41.8883 27.4044C41.5953 27.3368 41.6179 27.3593 41.3362 27.3706C41.3587 27.3255 41.3363 27.3593 41.3813 27.3142C41.5053 27.2015 41.7193 27.2353 41.877 27.2015C42.001 27.179 42.0347 27.1678 42.1249 27.1114C42.215 27.0438 42.2037 27.0213 42.2601 26.9311C42.1925 26.9424 42.1137 26.9988 42.0348 27.0101C41.9334 27.0326 41.8658 27.0213 41.7644 27.0101C41.4827 26.9763 41.4602 27.0325 41.2236 27.0776C41.37 26.7734 41.9897 26.9311 42.0573 26.5142C41.9897 26.5367 41.9333 26.5931 41.8432 26.6269C41.7418 26.6607 41.6742 26.6607 41.5615 26.672C41.2911 26.6832 41.2686 26.7396 41.0545 26.8297C41.1447 26.4804 41.8095 26.5931 41.7869 26.1311C41.5278 26.4016 41.3362 26.3113 41.0545 26.4578C40.9644 26.5029 40.9193 26.5594 40.8517 26.5932C40.9193 26.2326 41.539 26.255 41.4714 25.7818C41.4489 25.8043 41.37 25.9283 41.3024 25.9734C41.1672 26.0748 40.9532 26.1085 40.818 26.21C40.7504 26.255 40.6827 26.3565 40.6151 26.379C40.6827 25.9396 41.1784 26.0409 41.1108 25.5001C41.0544 25.5339 41.0319 25.703 40.7277 25.872C40.4348 26.0298 40.5024 26.086 40.356 26.2325C40.3334 26.1198 40.3784 26.041 40.4235 25.9621C40.5587 25.7705 40.8629 25.5452 40.6939 25.2748L40.6602 25.331C40.5926 25.5 40.525 25.579 40.3898 25.6917C40.2095 25.8494 40.1982 25.8945 40.0743 26.1086C40.0517 26.0748 40.0742 26.1536 40.0517 26.0747V25.9508C40.063 25.8945 40.0743 25.8719 40.0968 25.8156L40.2208 25.6016C40.3334 25.3988 40.3334 25.2973 40.232 25.1057C40.2095 25.2522 40.1869 25.3311 40.1192 25.4438C40.0404 25.579 39.9277 25.6578 39.8488 25.8043C39.8038 25.8832 39.8038 25.962 39.7588 26.0522C39.6573 25.8606 39.7925 25.6691 39.8488 25.5113C39.8939 25.3874 39.9503 25.1058 39.7813 25.0269C39.7813 25.2973 39.7475 25.3536 39.6235 25.5452C39.5221 25.7029 39.4996 25.8043 39.4545 26.0409C39.2404 25.6803 39.6911 25.3875 39.3306 25.0156C39.3193 25.2861 39.3757 25.2747 39.2631 25.5226C39.1616 25.7367 39.1615 25.793 39.1615 26.0409C39.0151 25.962 39.0715 25.6691 39.0827 25.4775C39.0827 25.286 39.0151 25.162 38.8686 25.0719C38.9362 25.2634 38.9362 25.3875 38.8799 25.5903C38.8123 25.8382 38.8461 25.8832 38.8686 26.1311C38.7221 26.0297 38.7222 25.8493 38.6997 25.6127C38.6772 25.4212 38.5983 25.2522 38.418 25.2184C38.5081 25.3874 38.5306 25.4663 38.5081 25.703C38.463 26.0861 38.5531 26.0072 38.5756 26.2438C38.2376 26.086 38.4743 25.5001 38.0123 25.41C38.0461 25.5114 38.1024 25.5226 38.125 25.6353C38.17 25.8043 38.1588 26.0297 38.2151 26.1987C38.2489 26.2776 38.294 26.3452 38.3165 26.4128C38.17 26.379 38.0799 26.165 38.0236 26.0072C37.956 25.8269 37.8658 25.7029 37.6518 25.6691C37.663 25.7367 37.6856 25.7367 37.7306 25.7818C37.8771 25.9395 37.8659 26.2213 37.956 26.4016C38.0011 26.4917 38.0687 26.548 38.0912 26.6043C37.7081 26.5367 37.7982 25.9621 37.2912 25.9734C37.325 26.041 37.4264 26.0861 37.4827 26.1537C37.6743 26.4241 37.5503 26.4804 37.8996 26.8297C37.5391 26.8523 37.4039 26.1649 37.0095 26.3452L37.1334 26.4241C37.2461 26.4917 37.3137 26.6157 37.3701 26.7284C37.5391 27.0213 37.5391 26.9199 37.7194 27.0889C37.3588 27.1565 37.1335 26.5254 36.7617 26.7508C36.8293 26.7959 36.9532 26.8298 37.0095 26.8749C37.0771 26.9312 37.1222 26.9875 37.1786 27.0663C37.3476 27.2692 37.3814 27.2466 37.5954 27.3819C37.3588 27.4269 37.2236 27.2917 37.0771 27.2128C36.8518 27.0889 36.7842 27.1114 36.5813 27.2015C37.0095 27.2691 36.987 27.4494 37.2686 27.5846L37.4715 27.6523C37.5391 27.6748 37.5053 27.6636 37.5166 27.6748C37.3137 27.7425 37.1672 27.6522 36.9982 27.5846C36.8743 27.5395 36.6039 27.472 36.525 27.641C36.9983 27.6635 36.9419 27.8777 37.5053 27.9678C37.2011 28.1819 36.8067 27.7312 36.48 28.103C36.7504 28.1143 36.7391 28.0579 36.9982 28.1818C37.2461 28.2945 37.2574 28.2496 37.5166 28.2834C37.3814 28.4186 37.1673 28.3734 36.9645 28.3622C36.7504 28.3622 36.649 28.4184 36.5363 28.5762C37.0208 28.4184 37.0208 28.6777 37.5954 28.5651C37.4039 28.8468 36.7504 28.5987 36.6715 29.0157C36.8631 28.9368 36.9081 28.8918 37.1673 28.9256C37.4828 28.9594 37.4489 28.9142 37.6968 28.8579C37.5503 29.1734 36.9532 28.9706 36.863 29.4213C36.9532 29.3875 36.9757 29.3312 37.0771 29.3086C37.2461 29.2523 37.4602 29.2862 37.6405 29.2185C37.7306 29.1847 37.7757 29.151 37.8546 29.1172C37.7419 29.4665 37.1222 29.3425 37.111 29.8158C37.28 29.6918 37.2799 29.6241 37.5729 29.5678C37.8771 29.5114 37.8433 29.4439 38.0574 29.3425C37.9672 29.7369 37.4264 29.6241 37.4264 30.1425C37.5391 30.0748 37.5053 29.9623 37.8546 29.8271C38.1362 29.7256 38.1025 29.6806 38.2828 29.5228C38.2715 29.7256 38.1362 29.827 37.9898 29.951C37.8658 30.0524 37.7081 30.2439 37.7982 30.4354C37.9222 30.2664 37.8884 30.1989 38.1701 30.0636C38.2377 30.0298 38.3278 29.9735 38.3842 29.9172C38.4405 29.8608 38.4969 29.7481 38.5532 29.7143C38.5532 30.1086 37.9898 30.2778 38.2151 30.6722C38.294 30.4355 38.3391 30.3792 38.5194 30.2327C38.8123 29.9961 38.7109 29.9961 38.8349 29.8158C38.8687 29.951 38.8461 29.9961 38.8011 30.1088C38.7673 30.1989 38.7109 30.2552 38.6771 30.3115C38.587 30.4805 38.5194 30.6721 38.6433 30.8074C38.6658 30.7736 38.6546 30.7848 38.6659 30.7397C38.6884 30.627 38.7335 30.5369 38.8011 30.4467C38.9025 30.3228 39.0264 30.2101 39.0715 30.0524C39.094 29.996 39.094 29.9622 39.1279 29.9284L39.1503 30.0072C39.1615 30.165 39.0714 30.3115 39.0263 30.4467C38.9813 30.5594 38.9588 30.8411 39.1053 30.9087C39.1278 30.5932 39.1278 30.6271 39.2631 30.3905C39.3983 30.1764 39.3756 30.1876 39.432 29.9059C39.5221 30.1087 39.477 30.2326 39.432 30.4467C39.3869 30.6833 39.4207 30.7961 39.5672 30.92C39.5784 30.6158 39.5222 30.672 39.6461 30.4016C39.7475 30.165 39.7137 30.1425 39.7475 29.8833C39.9954 30.2326 39.6235 30.5932 40.0404 30.8636C40.0292 30.8073 40.0179 30.8073 40.0066 30.751C39.9728 30.6158 39.9841 30.4918 40.0292 30.3566C40.0968 30.0975 40.0742 30.0524 40.0404 29.8045C40.2996 29.9735 40.0855 30.6833 40.4799 30.7171C40.3897 30.5256 40.356 30.4693 40.3898 30.2214C40.4349 29.9059 40.3785 29.9285 40.3221 29.6806C40.4911 29.7594 40.5249 29.9734 40.5587 30.1425C40.5925 30.3002 40.6939 30.5144 40.8855 30.5031C40.863 30.4468 40.8518 30.4579 40.818 30.4016C40.7391 30.2664 40.739 30.1425 40.7277 29.996C40.7165 29.7706 40.6376 29.7031 40.57 29.5228C40.9305 29.6129 40.8066 30.2889 41.2685 30.2664C41.1221 30.0974 41.0883 30.0975 41.032 29.8045C41.0094 29.7144 40.987 29.613 40.9419 29.5341C40.8968 29.4552 40.8405 29.3988 40.8067 29.3312C41.1785 29.4101 41.1334 30.0186 41.6179 29.951C41.5954 29.9285 41.5391 29.8946 41.5165 29.872C41.4827 29.8382 41.4601 29.8157 41.4263 29.7819C41.3587 29.7143 41.3362 29.6355 41.3024 29.5228C41.1672 29.196 41.1671 29.2862 40.9981 29.0946C41.3249 29.0833 41.3813 29.4326 41.6179 29.5565C41.6855 29.5903 41.832 29.6241 41.9109 29.5791C41.6855 29.4664 41.6403 29.4214 41.5277 29.2073C41.415 28.9932 41.3249 28.982 41.1672 28.8355C41.5503 28.7791 41.6967 29.3763 42.1361 29.1734C41.9108 29.0833 41.8432 29.0607 41.6967 28.8692C41.6516 28.8016 41.5841 28.734 41.5052 28.6777C41.4264 28.6214 41.3249 28.5988 41.2798 28.5538C41.4939 28.5087 41.6292 28.6214 41.7757 28.7003C41.9109 28.7904 42.1249 28.8805 42.2826 28.7452C42.2714 28.734 42.2939 28.7452 42.2375 28.7227C42.2263 28.7227 42.2151 28.7114 42.2038 28.7114L42.0009 28.6439C41.9446 28.6101 41.8657 28.5425 41.8206 28.4974C41.5727 28.272 41.5503 28.3622 41.37 28.2495C41.5503 28.1706 41.7306 28.2833 41.9109 28.3396C42.0235 28.3847 42.3277 28.4186 42.384 28.2721C42.1136 28.2608 42.0573 28.2383 41.8657 28.1143C41.6291 27.9678 41.6517 28.0129 41.3813 27.9453C41.832 27.7875 42.0798 28.2045 42.4404 27.8439Z" fill="#9C0E04"/>
<path fill-rule="evenodd" clip-rule="evenodd" d="M38.7673 29.2529C39.049 29.3543 39.1391 29.4331 39.511 29.4331C39.8715 29.4331 39.9617 29.3543 40.2208 29.2529C40.187 28.9599 39.725 28.1035 39.4884 27.957C39.4433 27.9908 39.4208 28.0246 39.3758 28.081C39.342 28.126 39.2969 28.1711 39.2631 28.2162C39.218 28.2725 39.1954 28.3063 39.1616 28.3627C39.0264 28.5655 38.7898 29.0275 38.7673 29.2529Z" fill="#9C0E04"/>
<path fill-rule="evenodd" clip-rule="evenodd" d="M38.0914 28.3851C38.1815 28.1935 38.2829 28.0245 38.3956 27.8555C38.5871 27.5851 38.6547 27.5625 38.7899 27.3935C38.7449 27.3259 38.328 27.1343 38.2717 27.123C38.159 27.2695 38.08 27.4949 38.0462 27.6977C38.0012 27.9005 37.99 28.2498 38.0914 28.3851Z" fill="#9C0E04"/>
<path fill-rule="evenodd" clip-rule="evenodd" d="M40.2096 27.4047C40.2772 27.5287 40.5025 27.63 40.8631 28.3174L40.9082 28.3738C41.0659 28.0921 40.9532 27.4498 40.7278 27.123C40.6377 27.1456 40.5476 27.2019 40.4687 27.2357C40.4124 27.2582 40.3899 27.2807 40.3335 27.3032C40.2772 27.3483 40.2434 27.3484 40.2096 27.4047Z" fill="#9C0E04"/>
<path fill-rule="evenodd" clip-rule="evenodd" d="M38.7673 26.6623C38.8461 26.7074 39.0378 26.7524 39.1279 26.775C39.6913 26.9778 39.3082 26.944 39.8265 26.775C39.9279 26.7412 40.1307 26.6961 40.2095 26.651C39.9729 26.5496 39.8039 26.4707 39.4884 26.4707C39.2293 26.482 38.9476 26.5496 38.7673 26.6623Z" fill="#9C0E04"/>
<path fill-rule="evenodd" clip-rule="evenodd" d="M38.4182 28.9597C38.452 29.016 38.5083 29.0724 38.5646 29.1062C38.6097 29.0386 38.6772 28.847 38.711 28.7455C38.7335 28.6779 38.7674 28.6328 38.8012 28.5765C38.8237 28.5427 38.8238 28.5315 38.8463 28.4977C38.8689 28.4639 38.8688 28.4414 38.8913 28.4076C38.9138 28.3738 38.9252 28.3624 38.9477 28.3286L39.2181 27.9681C39.2632 27.9118 39.3082 27.878 39.342 27.8216C39.3082 27.7766 39.2744 27.7428 39.2181 27.709C38.9589 27.9118 38.5196 28.5766 38.4182 28.9597Z" fill="#9C0E04"/>
<path fill-rule="evenodd" clip-rule="evenodd" d="M39.6351 27.8216C39.6577 27.8667 39.714 27.923 39.7478 27.9568L40.0746 28.4076L40.3337 28.9146C40.3562 28.9709 40.3787 29.0499 40.4125 29.1062C40.4801 29.0724 40.5252 29.016 40.559 28.9597C40.4689 28.6667 40.0407 27.8893 39.7591 27.709C39.7027 27.7428 39.6689 27.7766 39.6351 27.8216Z" fill="#9C0E04"/>
<path fill-rule="evenodd" clip-rule="evenodd" d="M39.9167 27.5867C39.928 27.6318 39.9955 27.6883 40.0181 27.7108C40.1307 27.8235 40.266 27.9925 40.3561 28.1277C40.4125 28.2178 40.4914 28.3304 40.5364 28.4318C40.5928 28.5332 40.6377 28.6798 40.6941 28.7699C40.7166 28.7586 40.7167 28.7813 40.7505 28.7024C40.8181 28.5784 40.7955 28.601 40.7166 28.4207C40.6152 28.1841 40.1983 27.5642 40.0181 27.4854C40.0068 27.5192 39.9505 27.5529 39.9167 27.5867Z" fill="#9C0E04"/>
<path fill-rule="evenodd" clip-rule="evenodd" d="M38.2829 28.7791C38.3393 28.5312 38.6547 28.0467 38.8237 27.8439C38.8688 27.7876 39.049 27.6186 39.0603 27.5735C38.9251 27.4383 38.8914 27.5171 38.8463 27.5622C38.5646 27.8665 38.6546 27.7425 38.4293 28.0805C38.3842 28.1481 38.1589 28.5312 38.1589 28.6101L38.2265 28.7453C38.2603 28.7791 38.2379 28.7566 38.2829 28.7791Z" fill="#9C0E04"/>
<path fill-rule="evenodd" clip-rule="evenodd" d="M39.6575 26.999C39.7815 27.1455 39.8716 27.0441 40.0293 26.9764C40.1082 26.9426 40.3786 26.8525 40.4236 26.8187C40.3448 26.706 40.2659 26.7511 40.0406 26.83C39.9617 26.8638 39.7139 26.9539 39.6575 26.999Z" fill="#9C0E04"/>
<path fill-rule="evenodd" clip-rule="evenodd" d="M38.5422 26.8192C38.5872 26.853 38.6548 26.8755 38.7449 26.898C38.9477 26.9656 38.9591 26.9882 39.1281 27.0558C39.1957 27.0783 39.1957 27.0896 39.252 27.0558L39.3308 26.9882C39.252 26.9206 38.7562 26.7402 38.621 26.7402L38.5422 26.8192Z" fill="#9C0E04"/>
<path fill-rule="evenodd" clip-rule="evenodd" d="M38.3619 27.0208L38.9252 27.2688C38.9252 27.2688 39.0041 27.2236 39.0379 27.1785C38.9703 27.1222 38.5309 26.9307 38.4183 26.9307C38.3619 26.9757 38.3731 26.9419 38.3619 27.0208Z" fill="#9C0E04"/>
<path fill-rule="evenodd" clip-rule="evenodd" d="M39.9506 27.1785C39.9732 27.2236 39.9505 27.1898 39.9956 27.2236C40.097 27.3025 40.1083 27.235 40.345 27.1335C40.4238 27.0997 40.559 27.0434 40.6379 27.0096C40.6154 26.9533 40.604 26.9532 40.5702 26.9307C40.435 26.9419 39.9957 27.1222 39.9506 27.1785Z" fill="#9C0E04"/>
<path fill-rule="evenodd" clip-rule="evenodd" d="M39.3647 27.5853C39.421 27.6304 39.4435 27.6643 39.4886 27.6868C39.5224 27.6756 39.5787 27.6191 39.6125 27.5853C39.59 27.5402 39.5449 27.4952 39.4886 27.4727C39.4323 27.4952 39.3872 27.529 39.3647 27.5853Z" fill="#9C0E04"/>
<path fill-rule="evenodd" clip-rule="evenodd" d="M39.0828 27.382C39.1278 27.4158 39.1616 27.427 39.2067 27.4721C39.263 27.4608 39.3194 27.4045 39.3419 27.3707C39.2518 27.2693 39.1391 27.2355 39.0828 27.382Z" fill="#9C0E04"/>
<path fill-rule="evenodd" clip-rule="evenodd" d="M39.6463 27.3593L39.7589 27.4606C39.8153 27.4381 39.8829 27.3931 39.9054 27.3593C39.8153 27.2579 39.7477 27.2579 39.6463 27.3593Z" fill="#9C0E04"/>
<path fill-rule="evenodd" clip-rule="evenodd" d="M39.3532 27.1677C39.3983 27.224 39.4321 27.2354 39.4997 27.2579C39.5673 27.2354 39.6011 27.2128 39.6462 27.1677L39.4997 27.0889L39.3532 27.1677Z" fill="#9C0E04"/>
</svg>
