<svg width="160" height="160" viewBox="0 0 160 160" fill="none" xmlns="http://www.w3.org/2000/svg">
<g clip-path="url(#clip0_3229_2060)">
<g filter="url(#filter0_d_3229_2060)">
<path d="M81.0962 15.7562C100.014 2.51003 126.177 14.71 128.189 37.7161L134.831 113.636C136.844 136.642 113.197 153.2 92.2671 143.44L23.1971 111.232C2.26686 101.472 -0.24911 72.7148 18.6684 59.4686L81.0962 15.7562Z" fill="white"/>
</g>
<path d="M58.6976 46.2635C56.5366 46.9807 55.0394 48.6675 54.6581 50.8324C54.3615 52.5458 55.0253 54.5248 56.2965 55.7334C57.5535 56.9155 58.8529 57.4202 60.6326 57.4335C63.754 57.4468 66.1975 55.5342 66.7201 52.6653C67.2144 49.8894 65.5195 47.1666 62.7088 46.2768C61.5789 45.9182 59.7427 45.9049 58.6976 46.2635Z" fill="white"/>
<path d="M58.6976 46.2635C56.5366 46.9807 55.0394 48.6675 54.6581 50.8324C54.3615 52.5458 55.0253 54.5248 56.2965 55.7334C57.5535 56.9155 58.8529 57.4202 60.6326 57.4335C63.754 57.4468 66.1975 55.5342 66.7201 52.6653C67.2144 49.8894 65.5195 47.1666 62.7088 46.2768C61.5789 45.9182 59.7427 45.9049 58.6976 46.2635Z" fill="url(#paint0_radial_3229_2060)"/>
<path d="M52.0027 59.0137C49.0367 59.3988 46.678 61.5638 46.226 64.3264C46.1554 64.8178 46.0706 69.6657 46.0424 75.5496L46 85.9094L46.3107 86.454C47.483 88.5259 50.548 88.4463 51.5931 86.3079C51.8333 85.8164 51.8615 85.2985 51.8756 79.2685C51.8898 75.6824 51.9462 71.0337 51.9886 68.9086C52.0734 65.3491 52.0875 65.0569 52.3276 65.0171C52.9914 64.8975 52.9914 64.8842 53.0056 71.4853C53.0056 74.8855 53.0621 77.5551 53.1185 77.409C53.175 77.2629 53.9519 74.4605 54.8417 71.1798L56.4377 65.203L55.901 62.2146C55.6044 60.5676 55.3219 59.1332 55.2937 59.0402C55.2089 58.8676 53.3445 58.841 52.0027 59.0137Z" fill="white"/>
<path d="M52.0027 59.0137C49.0367 59.3988 46.678 61.5638 46.226 64.3264C46.1554 64.8178 46.0706 69.6657 46.0424 75.5496L46 85.9094L46.3107 86.454C47.483 88.5259 50.548 88.4463 51.5931 86.3079C51.8333 85.8164 51.8615 85.2985 51.8756 79.2685C51.8898 75.6824 51.9462 71.0337 51.9886 68.9086C52.0734 65.3491 52.0875 65.0569 52.3276 65.0171C52.9914 64.8975 52.9914 64.8842 53.0056 71.4853C53.0056 74.8855 53.0621 77.5551 53.1185 77.409C53.175 77.2629 53.9519 74.4605 54.8417 71.1798L56.4377 65.203L55.901 62.2146C55.6044 60.5676 55.3219 59.1332 55.2937 59.0402C55.2089 58.8676 53.3445 58.841 52.0027 59.0137Z" fill="url(#paint1_radial_3229_2060)"/>
<path d="M57.5676 59.4365C57.6241 59.7552 57.8642 61.0701 58.1043 62.3585L58.5422 64.7227H60.7173C61.9037 64.7227 62.8783 64.6828 62.8783 64.643C62.8783 64.5898 63.1043 63.3679 63.3726 61.9202C63.641 60.4592 63.867 59.1841 63.867 59.0779C63.867 58.9052 63.4291 58.8786 60.6749 58.8786H57.4688L57.5676 59.4365Z" fill="white"/>
<path d="M57.5676 59.4365C57.6241 59.7552 57.8642 61.0701 58.1043 62.3585L58.5422 64.7227H60.7173C61.9037 64.7227 62.8783 64.6828 62.8783 64.643C62.8783 64.5898 63.1043 63.3679 63.3726 61.9202C63.641 60.4592 63.867 59.1841 63.867 59.0779C63.867 58.9052 63.4291 58.8786 60.6749 58.8786H57.4688L57.5676 59.4365Z" fill="url(#paint2_radial_3229_2060)"/>
<path d="M66.0704 59.1596C65.8444 60.0628 64.9969 64.9107 64.9969 65.2161C64.9969 65.4286 65.7314 68.271 66.6071 71.5649L68.2172 77.5417L68.2314 71.525C68.2455 67.6467 68.302 65.4154 68.3867 65.2427C68.5562 64.9638 69.0223 64.9107 69.1918 65.1497C69.2483 65.2427 69.333 69.9578 69.3754 75.6158L69.446 85.9093L69.7568 86.4538C70.7596 88.207 73.1748 88.486 74.559 86.9984C75.3782 86.1218 75.364 86.4538 75.2652 75.0181C75.1663 63.5958 75.1804 63.7286 74.3471 62.2808C73.8386 61.391 72.5251 60.169 71.6212 59.7307C70.4489 59.1729 69.7003 59.0135 67.8641 58.9205L66.141 58.8408L66.0704 59.1596Z" fill="white"/>
<path d="M66.0704 59.1596C65.8444 60.0628 64.9969 64.9107 64.9969 65.2161C64.9969 65.4286 65.7314 68.271 66.6071 71.5649L68.2172 77.5417L68.2314 71.525C68.2455 67.6467 68.302 65.4154 68.3867 65.2427C68.5562 64.9638 69.0223 64.9107 69.1918 65.1497C69.2483 65.2427 69.333 69.9578 69.3754 75.6158L69.446 85.9093L69.7568 86.4538C70.7596 88.207 73.1748 88.486 74.559 86.9984C75.3782 86.1218 75.364 86.4538 75.2652 75.0181C75.1663 63.5958 75.1804 63.7286 74.3471 62.2808C73.8386 61.391 72.5251 60.169 71.6212 59.7307C70.4489 59.1729 69.7003 59.0135 67.8641 58.9205L66.141 58.8408L66.0704 59.1596Z" fill="url(#paint3_radial_3229_2060)"/>
<path d="M91.8892 66.9802C91.1406 67.2592 90.731 68.4147 91.1265 69.1186C91.2678 69.3577 91.2254 69.371 90.0955 69.371C88.4288 69.371 86.8752 69.9023 85.7029 70.8586C85.3074 71.1773 85.1661 71.3765 85.2368 71.5359C85.3215 71.7484 86.0277 71.7617 94.3609 71.7617C99.3326 71.7617 103.485 71.7219 103.612 71.682C103.965 71.5492 103.881 71.3101 103.316 70.8718C101.917 69.8226 100.561 69.371 98.8524 69.371C97.8355 69.371 97.7507 69.3444 97.8355 69.1319C98.0614 68.6538 98.0614 68.0694 97.8496 67.6576C97.4541 66.9404 97.0586 66.8474 94.488 66.8607C93.2169 66.8607 92.0446 66.9138 91.8892 66.9802Z" fill="white"/>
<path d="M91.8892 66.9802C91.1406 67.2592 90.731 68.4147 91.1265 69.1186C91.2678 69.3577 91.2254 69.371 90.0955 69.371C88.4288 69.371 86.8752 69.9023 85.7029 70.8586C85.3074 71.1773 85.1661 71.3765 85.2368 71.5359C85.3215 71.7484 86.0277 71.7617 94.3609 71.7617C99.3326 71.7617 103.485 71.7219 103.612 71.682C103.965 71.5492 103.881 71.3101 103.316 70.8718C101.917 69.8226 100.561 69.371 98.8524 69.371C97.8355 69.371 97.7507 69.3444 97.8355 69.1319C98.0614 68.6538 98.0614 68.0694 97.8496 67.6576C97.4541 66.9404 97.0586 66.8474 94.488 66.8607C93.2169 66.8607 92.0446 66.9138 91.8892 66.9802Z" fill="url(#paint4_radial_3229_2060)"/>
<path d="M82.9769 73.982C82.5531 74.0617 82.087 74.6328 82.087 75.0977C82.087 75.2969 82.2424 75.6289 82.426 75.8414C82.7367 76.1735 82.8639 76.2133 83.8949 76.2532L85.0248 76.3063L85.3497 76.9837C86.0418 78.3517 87.4683 79.3479 89.135 79.6135C90.2649 79.7862 98.9371 79.7596 99.954 79.5869C100.42 79.5072 101.042 79.3213 101.352 79.1752C102.2 78.7635 103.188 77.8204 103.612 77.0102L103.994 76.2797H104.813C106.409 76.2797 107.143 75.7086 106.79 74.7258C106.493 73.8624 106.931 73.889 94.488 73.9023C88.3299 73.9156 83.1463 73.9554 82.9769 73.982Z" fill="white"/>
<path d="M82.9769 73.982C82.5531 74.0617 82.087 74.6328 82.087 75.0977C82.087 75.2969 82.2424 75.6289 82.426 75.8414C82.7367 76.1735 82.8639 76.2133 83.8949 76.2532L85.0248 76.3063L85.3497 76.9837C86.0418 78.3517 87.4683 79.3479 89.135 79.6135C90.2649 79.7862 98.9371 79.7596 99.954 79.5869C100.42 79.5072 101.042 79.3213 101.352 79.1752C102.2 78.7635 103.188 77.8204 103.612 77.0102L103.994 76.2797H104.813C106.409 76.2797 107.143 75.7086 106.79 74.7258C106.493 73.8624 106.931 73.889 94.488 73.9023C88.3299 73.9156 83.1463 73.9554 82.9769 73.982Z" fill="url(#paint5_radial_3229_2060)"/>
<path d="M77.3979 84.21C77.3555 86.4148 77.3555 86.4546 76.9035 87.2648L76.4657 88.1016H94.94C111.55 88.1016 113.443 88.075 113.64 87.8891C113.993 87.5703 114.036 87.2382 113.979 84.7545C113.951 83.0279 113.88 82.3771 113.739 82.2177C113.57 82.0052 112.101 81.9919 95.505 81.9919H77.4544L77.3979 84.21ZM88.7678 84.3428C89.1068 84.6483 89.0785 85.3655 88.6972 85.7108C88.1746 86.1624 87.426 86.0429 87.1011 85.4319C86.5644 84.4623 87.878 83.599 88.7678 84.3428ZM92.6519 84.1967C93.1463 84.5155 93.2875 84.9803 93.0333 85.4319C92.7084 86.0429 91.9598 86.1624 91.4372 85.7108C90.8723 85.2194 91.0841 84.3295 91.8327 84.0772C92.1858 83.9576 92.3271 83.9709 92.6519 84.1967Z" fill="white"/>
<path d="M77.3979 84.21C77.3555 86.4148 77.3555 86.4546 76.9035 87.2648L76.4657 88.1016H94.94C111.55 88.1016 113.443 88.075 113.64 87.8891C113.993 87.5703 114.036 87.2382 113.979 84.7545C113.951 83.0279 113.88 82.3771 113.739 82.2177C113.57 82.0052 112.101 81.9919 95.505 81.9919H77.4544L77.3979 84.21ZM88.7678 84.3428C89.1068 84.6483 89.0785 85.3655 88.6972 85.7108C88.1746 86.1624 87.426 86.0429 87.1011 85.4319C86.5644 84.4623 87.878 83.599 88.7678 84.3428ZM92.6519 84.1967C93.1463 84.5155 93.2875 84.9803 93.0333 85.4319C92.7084 86.0429 91.9598 86.1624 91.4372 85.7108C90.8723 85.2194 91.0841 84.3295 91.8327 84.0772C92.1858 83.9576 92.3271 83.9709 92.6519 84.1967Z" fill="url(#paint6_radial_3229_2060)"/>
<path d="M70.5054 100.054V110.016H90.9147H111.324V100.054V90.0928H90.9147H70.5054V100.054ZM107.27 93.1742C107.934 93.5063 107.92 93.4 107.934 100.068C107.934 106.27 107.934 106.403 107.638 106.748L107.355 107.094H96.0135H84.6718L84.4035 106.815C84.1493 106.549 84.1351 106.217 84.0928 100.28C84.0504 93.7188 84.0786 93.4399 84.6718 93.1742C85.1379 92.9617 106.861 92.9617 107.27 93.1742Z" fill="white"/>
<path d="M70.5054 100.054V110.016H90.9147H111.324V100.054V90.0928H90.9147H70.5054V100.054ZM107.27 93.1742C107.934 93.5063 107.92 93.4 107.934 100.068C107.934 106.27 107.934 106.403 107.638 106.748L107.355 107.094H96.0135H84.6718L84.4035 106.815C84.1493 106.549 84.1351 106.217 84.0928 100.28C84.0504 93.7188 84.0786 93.4399 84.6718 93.1742C85.1379 92.9617 106.861 92.9617 107.27 93.1742Z" fill="url(#paint7_radial_3229_2060)"/>
<path d="M86.1831 100.054V105.102H95.9994H105.816V100.054V95.0074H95.9994H86.1831V100.054Z" fill="white"/>
<path d="M86.1831 100.054V105.102H95.9994H105.816V100.054V95.0074H95.9994H86.1831V100.054Z" fill="url(#paint8_radial_3229_2060)"/>
<path d="M52.9915 101.08C53.0056 109.142 53.048 111.519 53.1892 111.891C53.4858 112.661 54.0931 113.312 54.9123 113.684C55.5762 113.99 55.8022 114.029 56.7202 113.976C57.6242 113.936 57.8643 113.87 58.3869 113.538C59.2061 112.993 59.7428 112.223 59.9123 111.346C59.997 110.882 60.0394 106.95 60.0253 100.721L59.9829 90.826L56.4942 90.7862L52.9915 90.7596V101.08Z" fill="white"/>
<path d="M52.9915 101.08C53.0056 109.142 53.048 111.519 53.1892 111.891C53.4858 112.661 54.0931 113.312 54.9123 113.684C55.5762 113.99 55.8022 114.029 56.7202 113.976C57.6242 113.936 57.8643 113.87 58.3869 113.538C59.2061 112.993 59.7428 112.223 59.9123 111.346C59.997 110.882 60.0394 106.95 60.0253 100.721L59.9829 90.826L56.4942 90.7862L52.9915 90.7596V101.08Z" fill="url(#paint9_radial_3229_2060)"/>
<path d="M61.353 101.21C61.3953 111.636 61.3953 111.676 61.6919 112.207C62.384 113.416 63.4009 113.987 64.8275 114C66.2681 114 67.3133 113.402 68.0054 112.207C68.3161 111.676 68.3161 111.649 68.3585 101.21L68.3868 90.7568H64.8557H61.3247L61.353 101.21Z" fill="white"/>
<path d="M61.353 101.21C61.3953 111.636 61.3953 111.676 61.6919 112.207C62.384 113.416 63.4009 113.987 64.8275 114C66.2681 114 67.3133 113.402 68.0054 112.207C68.3161 111.676 68.3161 111.649 68.3585 101.21L68.3868 90.7568H64.8557H61.3247L61.353 101.21Z" fill="url(#paint10_radial_3229_2060)"/>
</g>
<defs>
<filter id="filter0_d_3229_2060" x="-7.12671" y="7.29297" width="145.078" height="152.004" filterUnits="userSpaceOnUse" color-interpolation-filters="sRGB">
<feFlood flood-opacity="0" result="BackgroundImageFix"/>
<feColorMatrix in="SourceAlpha" type="matrix" values="0 0 0 0 0 0 0 0 0 0 0 0 0 0 0 0 0 0 127 0" result="hardAlpha"/>
<feOffset dx="-5" dy="5"/>
<feGaussianBlur stdDeviation="4"/>
<feComposite in2="hardAlpha" operator="out"/>
<feColorMatrix type="matrix" values="0 0 0 0 0 0 0 0 0 0 0 0 0 0 0 0 0 0 0.25 0"/>
<feBlend mode="normal" in2="BackgroundImageFix" result="effect1_dropShadow_3229_2060"/>
<feBlend mode="normal" in="SourceGraphic" in2="effect1_dropShadow_3229_2060" result="shape"/>
</filter>
<radialGradient id="paint0_radial_3229_2060" cx="0" cy="0" r="1" gradientUnits="userSpaceOnUse" gradientTransform="translate(56.9638 55.1472) rotate(-33.0125) scale(22.5037 21.9489)">
<stop stop-color="#00862D"/>
<stop offset="0.627261" stop-color="#0033CC"/>
</radialGradient>
<radialGradient id="paint1_radial_3229_2060" cx="0" cy="0" r="1" gradientUnits="userSpaceOnUse" gradientTransform="translate(48.0297 82.1484) rotate(-62.6505) scale(35.0916 30.5708)">
<stop stop-color="#00862D"/>
<stop offset="0.627261" stop-color="#0033CC"/>
</radialGradient>
<radialGradient id="paint2_radial_3229_2060" cx="0" cy="0" r="1" gradientUnits="userSpaceOnUse" gradientTransform="translate(58.7129 63.5539) rotate(-32.382) scale(11.7022 11.2993)">
<stop stop-color="#00862D"/>
<stop offset="0.627261" stop-color="#0033CC"/>
</radialGradient>
<radialGradient id="paint3_radial_3229_2060" cx="0" cy="0" r="1" gradientUnits="userSpaceOnUse" gradientTransform="translate(67.0028 82.1373) rotate(-62.9705) scale(35.0583 30.2984)">
<stop stop-color="#00862D"/>
<stop offset="0.627261" stop-color="#0033CC"/>
</radialGradient>
<radialGradient id="paint4_radial_3229_2060" cx="0" cy="0" r="1" gradientUnits="userSpaceOnUse" gradientTransform="translate(88.837 70.7813) rotate(-10.3679) scale(29.2117 11.0402)">
<stop stop-color="#00862D"/>
<stop offset="0.627261" stop-color="#0033CC"/>
</radialGradient>
<radialGradient id="paint5_radial_3229_2060" cx="0" cy="0" r="1" gradientUnits="userSpaceOnUse" gradientTransform="translate(86.9077 78.5641) rotate(-9.27703) scale(38.7972 13.1779)">
<stop stop-color="#00862D"/>
<stop offset="0.627261" stop-color="#0033CC"/>
</radialGradient>
<radialGradient id="paint6_radial_3229_2060" cx="0" cy="0" r="1" gradientUnits="userSpaceOnUse" gradientTransform="translate(83.7646 86.8797) rotate(-6.4481) scale(58.3432 13.8996)">
<stop stop-color="#00862D"/>
<stop offset="0.627261" stop-color="#0033CC"/>
</radialGradient>
<radialGradient id="paint7_radial_3229_2060" cx="0" cy="0" r="1" gradientUnits="userSpaceOnUse" gradientTransform="translate(78.4429 106.031) rotate(-18.7207) scale(66.5688 43.2001)">
<stop stop-color="#00862D"/>
<stop offset="0.627261" stop-color="#0033CC"/>
</radialGradient>
<radialGradient id="paint8_radial_3229_2060" cx="0" cy="0" r="1" gradientUnits="userSpaceOnUse" gradientTransform="translate(90.0008 103.083) rotate(-19.6461) scale(32.1979 21.7654)">
<stop stop-color="#00862D"/>
<stop offset="0.627261" stop-color="#0033CC"/>
</radialGradient>
<radialGradient id="paint9_radial_3229_2060" cx="0" cy="0" r="1" gradientUnits="userSpaceOnUse" gradientTransform="translate(54.3598 109.349) rotate(-66.4361) scale(27.1862 21.2678)">
<stop stop-color="#00862D"/>
<stop offset="0.627261" stop-color="#0033CC"/>
</radialGradient>
<radialGradient id="paint10_radial_3229_2060" cx="0" cy="0" r="1" gradientUnits="userSpaceOnUse" gradientTransform="translate(62.698 109.352) rotate(-66.366) scale(27.2087 21.3337)">
<stop stop-color="#00862D"/>
<stop offset="0.627261" stop-color="#0033CC"/>
</radialGradient>
<clipPath id="clip0_3229_2060">
<rect width="160" height="160" fill="white"/>
</clipPath>
</defs>
</svg>
