<svg width="160" height="160" viewBox="0 0 160 160" fill="none" xmlns="http://www.w3.org/2000/svg">
<g clip-path="url(#clip0_3229_2085)">
<g filter="url(#filter0_d_3229_2085)">
<path d="M81.0962 15.7562C100.014 2.51003 126.177 14.71 128.189 37.7161L134.831 113.636C136.844 136.642 113.197 153.2 92.2671 143.44L23.1971 111.232C2.26686 101.472 -0.24911 72.7148 18.6684 59.4686L81.0962 15.7562Z" fill="white"/>
</g>
<path d="M76.8415 39.2463C75.0208 39.6514 72.8284 40.721 71.4721 41.8392C70.7661 42.4064 70.0044 43.1195 69.7629 43.4274L69.3355 43.9784H67.5519C63.5946 43.9622 60.2689 45.4856 58.1323 48.2568C56.7946 50.007 56.3115 51.4331 56.3115 53.6534C56.3115 55.7277 56.5344 56.5542 57.5563 58.3045C58.7825 60.3788 61.2536 62.2749 63.576 62.9231L64.5793 63.1986V64.7868V66.375H80H95.4208V64.7868V63.1986L96.4241 62.9231C98.7465 62.2749 101.217 60.3788 102.444 58.3045C103.466 56.5542 103.689 55.7277 103.689 53.6534C103.689 51.4331 103.205 50.007 101.868 48.2568C99.7312 45.4856 96.4055 43.9784 92.4295 43.9784H90.6645L90.2186 43.4112C88.8437 41.661 85.6667 39.7973 83.0656 39.2301C81.6721 38.9222 78.2164 38.9222 76.8415 39.2463Z" fill="white"/>
<path d="M76.8415 39.2463C75.0208 39.6514 72.8284 40.721 71.4721 41.8392C70.7661 42.4064 70.0044 43.1195 69.7629 43.4274L69.3355 43.9784H67.5519C63.5946 43.9622 60.2689 45.4856 58.1323 48.2568C56.7946 50.007 56.3115 51.4331 56.3115 53.6534C56.3115 55.7277 56.5344 56.5542 57.5563 58.3045C58.7825 60.3788 61.2536 62.2749 63.576 62.9231L64.5793 63.1986V64.7868V66.375H80H95.4208V64.7868V63.1986L96.4241 62.9231C98.7465 62.2749 101.217 60.3788 102.444 58.3045C103.466 56.5542 103.689 55.7277 103.689 53.6534C103.689 51.4331 103.205 50.007 101.868 48.2568C99.7312 45.4856 96.4055 43.9784 92.4295 43.9784H90.6645L90.2186 43.4112C88.8437 41.661 85.6667 39.7973 83.0656 39.2301C81.6721 38.9222 78.2164 38.9222 76.8415 39.2463Z" fill="url(#paint0_radial_3229_2085)"/>
<path d="M64.6349 75.2412C64.7278 79.7302 64.8207 80.2164 66.0841 82.5662C68.648 87.347 73.8316 90.1992 79.9999 90.1992C86.0754 90.1992 91.1289 87.4766 93.7486 82.8255C95.1792 80.2812 95.2721 79.8436 95.365 75.2412L95.4579 71.2383H79.9999H64.542L64.6349 75.2412Z" fill="white"/>
<path d="M64.6349 75.2412C64.7278 79.7302 64.8207 80.2164 66.0841 82.5662C68.648 87.347 73.8316 90.1992 79.9999 90.1992C86.0754 90.1992 91.1289 87.4766 93.7486 82.8255C95.1792 80.2812 95.2721 79.8436 95.365 75.2412L95.4579 71.2383H79.9999H64.542L64.6349 75.2412Z" fill="url(#paint1_radial_3229_2085)"/>
<path d="M68.8896 94.1199L68.9453 96.0646L74.5191 98.8683L80.0929 101.672L80.6503 101.38C80.9661 101.234 83.4371 99.954 86.1869 98.5441L91.1475 95.9998V94.1037V92.1914L89.1595 93.0503C83.3257 95.5785 76.6186 95.5622 70.8404 93.0503L68.8339 92.1752L68.8896 94.1199Z" fill="white"/>
<path d="M68.8896 94.1199L68.9453 96.0646L74.5191 98.8683L80.0929 101.672L80.6503 101.38C80.9661 101.234 83.4371 99.954 86.1869 98.5441L91.1475 95.9998V94.1037V92.1914L89.1595 93.0503C83.3257 95.5785 76.6186 95.5622 70.8404 93.0503L68.8339 92.1752L68.8896 94.1199Z" fill="url(#paint2_radial_3229_2085)"/>
<path d="M58.9126 101.477C55.6426 102.4 52.5027 103.357 51.9454 103.6C51.3322 103.875 50.3104 104.572 49.4186 105.366C48.2109 106.403 47.7464 106.938 47.1519 108.04C46.7246 108.786 46.2973 109.725 46.2044 110.131C46.0929 110.536 46 112.967 46 115.641C46 120.924 46 120.956 47.2262 121.653C47.7464 121.945 48.2852 121.961 57.9464 121.961H68.1093V115.624C68.1093 108.899 68.1836 108.153 68.9639 107.521C69.224 107.311 70.5617 106.565 71.9552 105.836C73.3486 105.123 74.482 104.475 74.482 104.378C74.4634 104.151 65.6568 99.7588 65.2295 99.775C65.0251 99.7912 62.1825 100.553 58.9126 101.477Z" fill="white"/>
<path d="M58.9126 101.477C55.6426 102.4 52.5027 103.357 51.9454 103.6C51.3322 103.875 50.3104 104.572 49.4186 105.366C48.2109 106.403 47.7464 106.938 47.1519 108.04C46.7246 108.786 46.2973 109.725 46.2044 110.131C46.0929 110.536 46 112.967 46 115.641C46 120.924 46 120.956 47.2262 121.653C47.7464 121.945 48.2852 121.961 57.9464 121.961H68.1093V115.624C68.1093 108.899 68.1836 108.153 68.9639 107.521C69.224 107.311 70.5617 106.565 71.9552 105.836C73.3486 105.123 74.482 104.475 74.482 104.378C74.4634 104.151 65.6568 99.7588 65.2295 99.775C65.0251 99.7912 62.1825 100.553 58.9126 101.477Z" fill="url(#paint3_radial_3229_2085)"/>
<path d="M83.9017 105.091L73.5902 110.406L73.5344 116.175L73.4973 121.961H92.8568C111.529 121.961 112.254 121.945 112.774 121.653C114 120.956 114 120.924 114 115.641C114 112.967 113.907 110.536 113.796 110.131C113.703 109.725 113.275 108.786 112.848 108.04C111.882 106.257 109.708 104.313 107.869 103.551C106.513 102.984 95.1235 99.7426 94.5661 99.775C94.3803 99.775 89.5683 102.174 83.9017 105.091ZM85.7967 111.541C87.506 112.432 87.4689 114.652 85.7224 115.56C85.2579 115.803 84.7749 115.868 83.7159 115.868C82.6568 115.868 82.1738 115.803 81.7093 115.56C79.5913 114.458 80.0743 111.784 82.4896 111.249C83.3443 111.054 85.1465 111.216 85.7967 111.541Z" fill="white"/>
<path d="M83.9017 105.091L73.5902 110.406L73.5344 116.175L73.4973 121.961H92.8568C111.529 121.961 112.254 121.945 112.774 121.653C114 120.956 114 120.924 114 115.641C114 112.967 113.907 110.536 113.796 110.131C113.703 109.725 113.275 108.786 112.848 108.04C111.882 106.257 109.708 104.313 107.869 103.551C106.513 102.984 95.1235 99.7426 94.5661 99.775C94.3803 99.775 89.5683 102.174 83.9017 105.091ZM85.7967 111.541C87.506 112.432 87.4689 114.652 85.7224 115.56C85.2579 115.803 84.7749 115.868 83.7159 115.868C82.6568 115.868 82.1738 115.803 81.7093 115.56C79.5913 114.458 80.0743 111.784 82.4896 111.249C83.3443 111.054 85.1465 111.216 85.7967 111.541Z" fill="url(#paint4_radial_3229_2085)"/>
</g>
<defs>
<filter id="filter0_d_3229_2085" x="-7.12665" y="7.29297" width="145.078" height="152.004" filterUnits="userSpaceOnUse" color-interpolation-filters="sRGB">
<feFlood flood-opacity="0" result="BackgroundImageFix"/>
<feColorMatrix in="SourceAlpha" type="matrix" values="0 0 0 0 0 0 0 0 0 0 0 0 0 0 0 0 0 0 127 0" result="hardAlpha"/>
<feOffset dx="-5" dy="5"/>
<feGaussianBlur stdDeviation="4"/>
<feComposite in2="hardAlpha" operator="out"/>
<feColorMatrix type="matrix" values="0 0 0 0 0 0 0 0 0 0 0 0 0 0 0 0 0 0 0.25 0"/>
<feBlend mode="normal" in2="BackgroundImageFix" result="effect1_dropShadow_3229_2085"/>
<feBlend mode="normal" in="SourceGraphic" in2="effect1_dropShadow_3229_2085" result="shape"/>
</filter>
<radialGradient id="paint0_radial_3229_2085" cx="0" cy="0" r="1" gradientUnits="userSpaceOnUse" gradientTransform="translate(65.5244 60.9006) rotate(-21.8592) scale(78.8456 58.1665)">
<stop stop-color="#00862D"/>
<stop offset="0.627261" stop-color="#0033CC"/>
</radialGradient>
<radialGradient id="paint1_radial_3229_2085" cx="0" cy="0" r="1" gradientUnits="userSpaceOnUse" gradientTransform="translate(70.5539 86.4073) rotate(-23.0659) scale(51.9006 39.9406)">
<stop stop-color="#00862D"/>
<stop offset="0.627261" stop-color="#0033CC"/>
</radialGradient>
<radialGradient id="paint2_radial_3229_2085" cx="0" cy="0" r="1" gradientUnits="userSpaceOnUse" gradientTransform="translate(73.173 99.7727) rotate(-16.4625) scale(35.9381 20.8513)">
<stop stop-color="#00862D"/>
<stop offset="0.627261" stop-color="#0033CC"/>
</radialGradient>
<radialGradient id="paint3_radial_3229_2085" cx="0" cy="0" r="1" gradientUnits="userSpaceOnUse" gradientTransform="translate(51.5386 117.524) rotate(-28.4062) scale(50.014 44.6789)">
<stop stop-color="#00862D"/>
<stop offset="0.627261" stop-color="#0033CC"/>
</radialGradient>
<radialGradient id="paint4_radial_3229_2085" cx="0" cy="0" r="1" gradientUnits="userSpaceOnUse" gradientTransform="translate(81.3734 117.524) rotate(-20.8232) scale(66.9308 47.4774)">
<stop stop-color="#00862D"/>
<stop offset="0.627261" stop-color="#0033CC"/>
</radialGradient>
<clipPath id="clip0_3229_2085">
<rect width="160" height="160" fill="white"/>
</clipPath>
</defs>
</svg>
