<svg width="160" height="160" viewBox="0 0 160 160" fill="none" xmlns="http://www.w3.org/2000/svg">
<g clip-path="url(#clip0_3229_2071)">
<g filter="url(#filter0_d_3229_2071)">
<path d="M81.0962 15.7562C100.014 2.51003 126.177 14.71 128.189 37.7161L134.831 113.636C136.844 136.642 113.197 153.2 92.2671 143.44L23.1971 111.232C2.26686 101.472 -0.24911 72.7148 18.6684 59.4686L81.0962 15.7562Z" fill="white"/>
</g>
<path d="M84.6485 46.2824C83.3374 46.8896 82.5903 48.1041 82.5903 49.6373C82.5903 51.1554 83.3374 52.385 84.618 52.977L85.1974 53.2351L83.9319 53.3414C80.3339 53.645 76.5071 55.0112 73.214 57.182C71.1558 58.5483 68.3658 61.3263 66.9936 63.3757C64.8439 66.6243 63.4566 70.4043 63.1364 73.9565L63.0297 75.1406H86.2341H109.423V74.6245C109.423 73.6681 108.829 70.6624 108.356 69.2202C107.182 65.6376 105.398 62.7685 102.654 60.036C100.032 57.4249 97.6076 55.8765 94.1773 54.6013C92.4697 53.9638 90.3048 53.478 88.5667 53.3414L87.3013 53.2351L87.8807 52.977C88.5972 52.6431 89.3595 51.8537 89.6644 51.125C89.9999 50.3356 89.9694 48.8024 89.6187 48.0433C89.268 47.2995 88.4905 46.5405 87.7434 46.2369C86.9507 45.9029 85.4108 45.9333 84.6485 46.2824ZM89.451 56.2408C89.8474 56.6052 89.8474 57.4401 89.451 57.8348C89.1918 58.0929 88.9479 58.1384 87.7739 58.1384C85.6547 58.1384 84.9534 57.6982 85.2431 56.5293C85.3956 55.9221 85.9902 55.7702 87.6825 55.8765C88.7802 55.9524 89.2223 56.0435 89.451 56.2408ZM95.2597 57.9107C98.5681 59.5654 100.886 61.5237 103.066 64.4687C104.423 66.3207 106.222 70.3436 106.222 71.5125C106.222 72.4081 105.109 72.8939 104.423 72.2867C104.255 72.1501 103.935 71.4366 103.706 70.6927C102.867 68.0361 101.389 65.6224 99.2847 63.5123C97.6381 61.8728 96.3879 60.962 94.2992 59.9145C92.5002 59.0037 92.1648 58.609 92.5612 57.85C93.0033 57.0302 93.5369 57.0302 95.2597 57.9107Z" fill="white"/>
<path d="M84.6485 46.2824C83.3374 46.8896 82.5903 48.1041 82.5903 49.6373C82.5903 51.1554 83.3374 52.385 84.618 52.977L85.1974 53.2351L83.9319 53.3414C80.3339 53.645 76.5071 55.0112 73.214 57.182C71.1558 58.5483 68.3658 61.3263 66.9936 63.3757C64.8439 66.6243 63.4566 70.4043 63.1364 73.9565L63.0297 75.1406H86.2341H109.423V74.6245C109.423 73.6681 108.829 70.6624 108.356 69.2202C107.182 65.6376 105.398 62.7685 102.654 60.036C100.032 57.4249 97.6076 55.8765 94.1773 54.6013C92.4697 53.9638 90.3048 53.478 88.5667 53.3414L87.3013 53.2351L87.8807 52.977C88.5972 52.6431 89.3595 51.8537 89.6644 51.125C89.9999 50.3356 89.9694 48.8024 89.6187 48.0433C89.268 47.2995 88.4905 46.5405 87.7434 46.2369C86.9507 45.9029 85.4108 45.9333 84.6485 46.2824ZM89.451 56.2408C89.8474 56.6052 89.8474 57.4401 89.451 57.8348C89.1918 58.0929 88.9479 58.1384 87.7739 58.1384C85.6547 58.1384 84.9534 57.6982 85.2431 56.5293C85.3956 55.9221 85.9902 55.7702 87.6825 55.8765C88.7802 55.9524 89.2223 56.0435 89.451 56.2408ZM95.2597 57.9107C98.5681 59.5654 100.886 61.5237 103.066 64.4687C104.423 66.3207 106.222 70.3436 106.222 71.5125C106.222 72.4081 105.109 72.8939 104.423 72.2867C104.255 72.1501 103.935 71.4366 103.706 70.6927C102.867 68.0361 101.389 65.6224 99.2847 63.5123C97.6381 61.8728 96.3879 60.962 94.2992 59.9145C92.5002 59.0037 92.1648 58.609 92.5612 57.85C93.0033 57.0302 93.5369 57.0302 95.2597 57.9107Z" fill="url(#paint0_radial_3229_2071)"/>
<path d="M59.7214 77.8708C59.5232 78.0682 59.4165 78.3718 59.4165 78.7816C59.4165 79.1915 59.5232 79.4951 59.7214 79.6925C60.0263 79.9961 60.2245 79.9961 86.2495 79.9961C112.274 79.9961 112.473 79.9961 112.778 79.6925C112.976 79.4951 113.082 79.1915 113.082 78.7816C113.082 78.3718 112.976 78.0682 112.778 77.8708C112.473 77.5672 112.274 77.5672 86.2495 77.5672C60.2245 77.5672 60.0263 77.5672 59.7214 77.8708Z" fill="white"/>
<path d="M59.7214 77.8708C59.5232 78.0682 59.4165 78.3718 59.4165 78.7816C59.4165 79.1915 59.5232 79.4951 59.7214 79.6925C60.0263 79.9961 60.2245 79.9961 86.2495 79.9961C112.274 79.9961 112.473 79.9961 112.778 79.6925C112.976 79.4951 113.082 79.1915 113.082 78.7816C113.082 78.3718 112.976 78.0682 112.778 77.8708C112.473 77.5672 112.274 77.5672 86.2495 77.5672C60.2245 77.5672 60.0263 77.5672 59.7214 77.8708Z" fill="url(#paint1_radial_3229_2071)"/>
<path d="M63.533 82.5297C63.533 82.6056 63.8836 83.6986 64.3105 84.9586L65.0881 87.2812H86.2495H107.411L108.189 84.9586C108.615 83.6986 108.966 82.6056 108.966 82.5297C108.966 82.469 98.7512 82.4235 86.2495 82.4235C73.763 82.4235 63.533 82.469 63.533 82.5297Z" fill="white"/>
<path d="M63.533 82.5297C63.533 82.6056 63.8836 83.6986 64.3105 84.9586L65.0881 87.2812H86.2495H107.411L108.189 84.9586C108.615 83.6986 108.966 82.6056 108.966 82.5297C108.966 82.469 98.7512 82.4235 86.2495 82.4235C73.763 82.4235 63.533 82.469 63.533 82.5297Z" fill="url(#paint2_radial_3229_2071)"/>
<path d="M55.7574 104.284V114H59.4165H63.0755V104.284V94.5689H59.4165H55.7574V104.284ZM60.1635 109.582C60.5294 109.947 60.7124 110.782 60.5752 111.51C60.438 112.194 59.9958 112.634 59.4165 112.634C58.5627 112.634 58.0291 111.632 58.2578 110.417C58.395 109.734 58.8371 109.294 59.4165 109.294C59.6757 109.294 60.0111 109.431 60.1635 109.582Z" fill="white"/>
<path d="M55.7574 104.284V114H59.4165H63.0755V104.284V94.5689H59.4165H55.7574V104.284ZM60.1635 109.582C60.5294 109.947 60.7124 110.782 60.5752 111.51C60.438 112.194 59.9958 112.634 59.4165 112.634C58.5627 112.634 58.0291 111.632 58.2578 110.417C58.395 109.734 58.8371 109.294 59.4165 109.294C59.6757 109.294 60.0111 109.431 60.1635 109.582Z" fill="url(#paint3_radial_3229_2071)"/>
<path d="M104.316 99.2892L97.9128 102.963L97.8823 103.6C97.8213 105.103 97.181 106.287 95.8851 107.274C95.0465 107.912 93.7506 108.291 92.8206 108.185C92.4395 108.139 88.7652 107.198 84.6488 106.105C78.2149 104.405 77.1325 104.071 76.8428 103.737C76.6446 103.525 76.4921 103.221 76.4921 103.069C76.4921 102.629 77.1477 101.961 77.5746 101.976C77.7728 101.976 81.2946 102.872 85.3806 103.965C89.4817 105.058 93.0036 105.953 93.217 105.953C93.8878 105.953 94.8941 105.377 95.2752 104.769C95.9613 103.646 95.5954 101.991 94.5129 101.354C93.7201 100.883 75.5164 96.0709 74.2815 95.995C73.3515 95.9343 72.7264 96.0557 69.4027 96.8906L65.5912 97.847L65.5455 104.375L65.515 110.902L67.375 111.813L69.235 112.709L79.8005 112.754C89.6647 112.785 90.4117 112.769 91.1588 112.511C91.8754 112.269 110.689 101.566 112.717 100.261C114.897 98.8489 114.15 95.8432 111.604 95.661L110.719 95.6155L104.316 99.2892Z" fill="white"/>
<path d="M104.316 99.2892L97.9128 102.963L97.8823 103.6C97.8213 105.103 97.181 106.287 95.8851 107.274C95.0465 107.912 93.7506 108.291 92.8206 108.185C92.4395 108.139 88.7652 107.198 84.6488 106.105C78.2149 104.405 77.1325 104.071 76.8428 103.737C76.6446 103.525 76.4921 103.221 76.4921 103.069C76.4921 102.629 77.1477 101.961 77.5746 101.976C77.7728 101.976 81.2946 102.872 85.3806 103.965C89.4817 105.058 93.0036 105.953 93.217 105.953C93.8878 105.953 94.8941 105.377 95.2752 104.769C95.9613 103.646 95.5954 101.991 94.5129 101.354C93.7201 100.883 75.5164 96.0709 74.2815 95.995C73.3515 95.9343 72.7264 96.0557 69.4027 96.8906L65.5912 97.847L65.5455 104.375L65.515 110.902L67.375 111.813L69.235 112.709L79.8005 112.754C89.6647 112.785 90.4117 112.769 91.1588 112.511C91.8754 112.269 110.689 101.566 112.717 100.261C114.897 98.8489 114.15 95.8432 111.604 95.661L110.719 95.6155L104.316 99.2892Z" fill="url(#paint4_radial_3229_2071)"/>
<path d="M46 104.284V111.57H49.659H53.3181V104.284V96.997H49.659H46V104.284Z" fill="white"/>
<path d="M46 104.284V111.57H49.659H53.3181V104.284V96.997H49.659H46V104.284Z" fill="url(#paint5_radial_3229_2071)"/>
</g>
<defs>
<filter id="filter0_d_3229_2071" x="-7.12671" y="7.29297" width="145.078" height="152.004" filterUnits="userSpaceOnUse" color-interpolation-filters="sRGB">
<feFlood flood-opacity="0" result="BackgroundImageFix"/>
<feColorMatrix in="SourceAlpha" type="matrix" values="0 0 0 0 0 0 0 0 0 0 0 0 0 0 0 0 0 0 127 0" result="hardAlpha"/>
<feOffset dx="-5" dy="5"/>
<feGaussianBlur stdDeviation="4"/>
<feComposite in2="hardAlpha" operator="out"/>
<feColorMatrix type="matrix" values="0 0 0 0 0 0 0 0 0 0 0 0 0 0 0 0 0 0 0.25 0"/>
<feBlend mode="normal" in2="BackgroundImageFix" result="effect1_dropShadow_3229_2071"/>
<feBlend mode="normal" in="SourceGraphic" in2="effect1_dropShadow_3229_2071" result="shape"/>
</filter>
<radialGradient id="paint0_radial_3229_2071" cx="0" cy="0" r="1" gradientUnits="userSpaceOnUse" gradientTransform="translate(72.0513 69.3134) rotate(-23.5608) scale(78.1747 61.1501)">
<stop stop-color="#00862D"/>
<stop offset="0.627261" stop-color="#0033CC"/>
</radialGradient>
<radialGradient id="paint1_radial_3229_2071" cx="0" cy="0" r="1" gradientUnits="userSpaceOnUse" gradientTransform="translate(69.8523 79.5103) rotate(-1.7999) scale(82.9313 5.5582)">
<stop stop-color="#00862D"/>
<stop offset="0.627261" stop-color="#0033CC"/>
</radialGradient>
<radialGradient id="paint2_radial_3229_2071" cx="0" cy="0" r="1" gradientUnits="userSpaceOnUse" gradientTransform="translate(72.3678 86.3098) rotate(-4.24572) scale(70.3674 11.0914)">
<stop stop-color="#00862D"/>
<stop offset="0.627261" stop-color="#0033CC"/>
</radialGradient>
<radialGradient id="paint3_radial_3229_2071" cx="0" cy="0" r="1" gradientUnits="userSpaceOnUse" gradientTransform="translate(57.1805 110.114) rotate(-61.5235) scale(23.7065 21.2116)">
<stop stop-color="#00862D"/>
<stop offset="0.627261" stop-color="#0033CC"/>
</radialGradient>
<radialGradient id="paint4_radial_3229_2071" cx="0" cy="0" r="1" gradientUnits="userSpaceOnUse" gradientTransform="translate(74.9434 109.336) rotate(-13.7985) scale(77.1137 38.1322)">
<stop stop-color="#00862D"/>
<stop offset="0.627261" stop-color="#0033CC"/>
</radialGradient>
<radialGradient id="paint5_radial_3229_2071" cx="0" cy="0" r="1" gradientUnits="userSpaceOnUse" gradientTransform="translate(47.4231 108.656) rotate(-54.1243) scale(19.2878 19.5533)">
<stop stop-color="#00862D"/>
<stop offset="0.627261" stop-color="#0033CC"/>
</radialGradient>
<clipPath id="clip0_3229_2071">
<rect width="160" height="160" fill="white"/>
</clipPath>
</defs>
</svg>
