<svg width="160" height="160" viewBox="0 0 160 160" fill="none" xmlns="http://www.w3.org/2000/svg">
<g clip-path="url(#clip0_3229_2092)">
<g filter="url(#filter0_d_3229_2092)">
<path d="M81.0962 15.7562C100.014 2.51003 126.177 14.71 128.189 37.7161L134.831 113.636C136.844 136.642 113.197 153.2 92.2671 143.44L23.1971 111.232C2.26686 101.472 -0.24911 72.7148 18.6684 59.4686L81.0962 15.7562Z" fill="white"/>
</g>
<path d="M52.2756 46.2587C51.3443 46.7899 50.9145 47.4805 50.9145 48.4234C50.9145 49.6318 50.6709 49.4193 63.6663 59.6184L75.8449 69.1667L75.1715 69.6979C73.8964 70.6939 72.8361 71.6766 72.8361 71.8625C72.8361 72.0086 74.0826 72.0352 80 72.0352C85.9174 72.0352 87.1639 72.0086 87.1639 71.8625C87.1639 71.6766 86.1037 70.6939 84.8285 69.7112L84.1551 69.1667L96.3338 59.6184C106.034 52.0089 108.57 49.9506 108.799 49.5123C109.458 48.2773 108.942 46.8298 107.624 46.1923C107.051 45.9134 105.676 45.9533 105.145 46.2587C104.916 46.3915 99.185 50.8403 92.4366 56.1523C85.6882 61.451 80.086 65.7936 80 65.7936C79.9141 65.7936 74.3119 61.451 67.5634 56.1523C60.815 50.8403 55.0982 46.3915 54.8546 46.2587C54.2672 45.9134 52.8631 45.9134 52.2756 46.2587Z" fill="white"/>
<path d="M52.2756 46.2587C51.3443 46.7899 50.9145 47.4805 50.9145 48.4234C50.9145 49.6318 50.6709 49.4193 63.6663 59.6184L75.8449 69.1667L75.1715 69.6979C73.8964 70.6939 72.8361 71.6766 72.8361 71.8625C72.8361 72.0086 74.0826 72.0352 80 72.0352C85.9174 72.0352 87.1639 72.0086 87.1639 71.8625C87.1639 71.6766 86.1037 70.6939 84.8285 69.7112L84.1551 69.1667L96.3338 59.6184C106.034 52.0089 108.57 49.9506 108.799 49.5123C109.458 48.2773 108.942 46.8298 107.624 46.1923C107.051 45.9134 105.676 45.9533 105.145 46.2587C104.916 46.3915 99.185 50.8403 92.4366 56.1523C85.6882 61.451 80.086 65.7936 80 65.7936C79.9141 65.7936 74.3119 61.451 67.5634 56.1523C60.815 50.8403 55.0982 46.3915 54.8546 46.2587C54.2672 45.9134 52.8631 45.9134 52.2756 46.2587Z" fill="url(#paint0_radial_3229_2092)"/>
<path d="M46.1003 77.4423C46.2149 80.3108 46.3869 81.7185 46.8453 83.7238C49.7826 96.4725 61.3881 106.101 75.3291 107.349C77.3493 107.535 82.6507 107.535 84.6709 107.349C98.6119 106.101 110.217 96.4725 113.155 83.7238C113.613 81.7185 113.785 80.3108 113.9 77.4423L114 75.0918H80H46L46.1003 77.4423Z" fill="white"/>
<path d="M46.1003 77.4423C46.2149 80.3108 46.3869 81.7185 46.8453 83.7238C49.7826 96.4725 61.3881 106.101 75.3291 107.349C77.3493 107.535 82.6507 107.535 84.6709 107.349C98.6119 106.101 110.217 96.4725 113.155 83.7238C113.613 81.7185 113.785 80.3108 113.9 77.4423L114 75.0918H80H46L46.1003 77.4423Z" fill="url(#paint1_radial_3229_2092)"/>
<path d="M71.7901 110.693C70.2571 111.039 68.9819 112.327 68.9676 113.562V114H80H91.0325V113.562C91.0181 112.579 90.0725 111.397 88.8833 110.892C88.2529 110.627 88.0236 110.614 80.2866 110.587C75.9022 110.574 72.091 110.627 71.7901 110.693Z" fill="white"/>
<path d="M71.7901 110.693C70.2571 111.039 68.9819 112.327 68.9676 113.562V114H80H91.0325V113.562C91.0181 112.579 90.0725 111.397 88.8833 110.892C88.2529 110.627 88.0236 110.614 80.2866 110.587C75.9022 110.574 72.091 110.627 71.7901 110.693Z" fill="url(#paint2_radial_3229_2092)"/>
</g>
<defs>
<filter id="filter0_d_3229_2092" x="-7.12665" y="7.29297" width="145.078" height="152.004" filterUnits="userSpaceOnUse" color-interpolation-filters="sRGB">
<feFlood flood-opacity="0" result="BackgroundImageFix"/>
<feColorMatrix in="SourceAlpha" type="matrix" values="0 0 0 0 0 0 0 0 0 0 0 0 0 0 0 0 0 0 127 0" result="hardAlpha"/>
<feOffset dx="-5" dy="5"/>
<feGaussianBlur stdDeviation="4"/>
<feComposite in2="hardAlpha" operator="out"/>
<feColorMatrix type="matrix" values="0 0 0 0 0 0 0 0 0 0 0 0 0 0 0 0 0 0 0.25 0"/>
<feBlend mode="normal" in2="BackgroundImageFix" result="effect1_dropShadow_3229_2092"/>
<feBlend mode="normal" in="SourceGraphic" in2="effect1_dropShadow_3229_2092" result="shape"/>
</filter>
<radialGradient id="paint0_radial_3229_2092" cx="0" cy="0" r="1" gradientUnits="userSpaceOnUse" gradientTransform="translate(62.226 66.8284) rotate(-17.2629) scale(94.087 56.923)">
<stop stop-color="#00862D"/>
<stop offset="0.627261" stop-color="#0033CC"/>
</radialGradient>
<radialGradient id="paint1_radial_3229_2092" cx="0" cy="0" r="1" gradientUnits="userSpaceOnUse" gradientTransform="translate(59.2232 101.009) rotate(-18.3036) scale(110.627 70.4192)">
<stop stop-color="#00862D"/>
<stop offset="0.627261" stop-color="#0033CC"/>
</radialGradient>
<radialGradient id="paint2_radial_3229_2092" cx="0" cy="0" r="1" gradientUnits="userSpaceOnUse" gradientTransform="translate(73.2583 113.317) rotate(-6.1335) scale(34.2768 7.7739)">
<stop stop-color="#00862D"/>
<stop offset="0.627261" stop-color="#0033CC"/>
</radialGradient>
<clipPath id="clip0_3229_2092">
<rect width="160" height="160" fill="white"/>
</clipPath>
</defs>
</svg>
