<svg width="160" height="160" viewBox="0 0 160 160" fill="none" xmlns="http://www.w3.org/2000/svg">
<g clip-path="url(#clip0_3229_2106)">
<g filter="url(#filter0_d_3229_2106)">
<path d="M81.0962 15.7562C100.014 2.51003 126.177 14.71 128.189 37.7161L134.831 113.636C136.844 136.642 113.197 153.2 92.2671 143.44L23.1971 111.232C2.26686 101.472 -0.24911 72.7148 18.6684 59.4686L81.0962 15.7562Z" fill="white"/>
</g>
<path d="M101.668 50.8546C101.668 51.3256 101.708 51.7109 101.748 51.7109C102.013 51.7109 104.576 50.4977 104.483 50.4121C104.39 50.2979 102.544 49.9982 101.987 49.9982C101.681 49.9982 101.668 50.041 101.668 50.8546Z" fill="white"/>
<path d="M101.668 50.8546C101.668 51.3256 101.708 51.7109 101.748 51.7109C102.013 51.7109 104.576 50.4977 104.483 50.4121C104.39 50.2979 102.544 49.9982 101.987 49.9982C101.681 49.9982 101.668 50.041 101.668 50.8546Z" fill="url(#paint0_radial_3229_2106)"/>
<path d="M68.2035 50.9825C65.853 51.3536 63.622 52.6525 61.4442 54.9076C58.5758 57.8906 57.4337 61.3304 57.9915 65.3125C58.0711 65.8834 58.2172 66.6541 58.3235 67.0395C58.4297 67.4249 58.5094 67.7674 58.5094 67.7817C58.5094 67.796 58.3367 67.8531 58.111 67.9101C56.9025 68.1956 56.7697 70.0225 57.7391 73.2339C58.2571 74.9895 58.6554 75.8601 59.1733 76.2883C59.4788 76.5452 59.6381 76.8735 59.8373 77.6728C60.7403 81.1411 62.9846 84.1526 65.8795 85.7227C68.5886 87.1928 71.7624 86.9073 74.4714 84.9519C76.8219 83.2535 78.9865 79.8708 79.438 77.216C79.4911 76.8592 79.6372 76.588 79.8629 76.431C80.3941 76.0599 80.9253 75.018 81.4166 73.3766C81.9877 71.4641 82.1736 70.1795 82.0009 69.2232C81.8549 68.3811 81.6026 68.0386 81.0714 67.9101C80.7659 67.8388 80.6995 67.7531 80.7527 67.5676C81.2971 65.6978 81.5096 61.6729 81.1643 59.7033C80.9253 58.3331 80.3277 56.9486 79.7169 56.3063C79.2388 55.8353 78.3491 55.2787 78.0303 55.2787C77.9108 55.2787 77.7249 55.0931 77.5921 54.8648C77.4726 54.6507 76.9813 54.0655 76.5032 53.5945C75.5471 52.6239 73.741 51.582 72.3865 51.2109C71.4304 50.9397 69.226 50.8255 68.2035 50.9825Z" fill="white"/>
<path d="M68.2035 50.9825C65.853 51.3536 63.622 52.6525 61.4442 54.9076C58.5758 57.8906 57.4337 61.3304 57.9915 65.3125C58.0711 65.8834 58.2172 66.6541 58.3235 67.0395C58.4297 67.4249 58.5094 67.7674 58.5094 67.7817C58.5094 67.796 58.3367 67.8531 58.111 67.9101C56.9025 68.1956 56.7697 70.0225 57.7391 73.2339C58.2571 74.9895 58.6554 75.8601 59.1733 76.2883C59.4788 76.5452 59.6381 76.8735 59.8373 77.6728C60.7403 81.1411 62.9846 84.1526 65.8795 85.7227C68.5886 87.1928 71.7624 86.9073 74.4714 84.9519C76.8219 83.2535 78.9865 79.8708 79.438 77.216C79.4911 76.8592 79.6372 76.588 79.8629 76.431C80.3941 76.0599 80.9253 75.018 81.4166 73.3766C81.9877 71.4641 82.1736 70.1795 82.0009 69.2232C81.8549 68.3811 81.6026 68.0386 81.0714 67.9101C80.7659 67.8388 80.6995 67.7531 80.7527 67.5676C81.2971 65.6978 81.5096 61.6729 81.1643 59.7033C80.9253 58.3331 80.3277 56.9486 79.7169 56.3063C79.2388 55.8353 78.3491 55.2787 78.0303 55.2787C77.9108 55.2787 77.7249 55.0931 77.5921 54.8648C77.4726 54.6507 76.9813 54.0655 76.5032 53.5945C75.5471 52.6239 73.741 51.582 72.3865 51.2109C71.4304 50.9397 69.226 50.8255 68.2035 50.9825Z" fill="url(#paint1_radial_3229_2106)"/>
<path d="M97.299 51.2137C92.9698 52.227 89.5171 55.4813 88.1228 59.8773C87.5783 61.6043 87.4057 63.003 87.4987 64.9584C87.6182 67.6703 88.4415 70.1252 89.9155 72.2376L90.6061 73.2224L90.0483 74.1501C89.7031 74.7068 89.1719 75.3205 88.7071 75.7059C87.4721 76.7193 87.6182 77.2616 89.132 77.2616C90.3936 77.2616 91.2701 77.0333 92.4918 76.391L93.6073 75.8058L94.2181 76.1198C97.9231 78.0466 102.252 77.9753 105.758 75.8914C106.674 75.3491 107.936 74.3642 108.361 73.8504L108.626 73.5364L104.218 68.7978L99.8088 64.0592V57.5223V50.9996L98.9855 51.0139C98.5207 51.0139 97.7638 51.1138 97.299 51.2137Z" fill="white"/>
<path d="M97.299 51.2137C92.9698 52.227 89.5171 55.4813 88.1228 59.8773C87.5783 61.6043 87.4057 63.003 87.4987 64.9584C87.6182 67.6703 88.4415 70.1252 89.9155 72.2376L90.6061 73.2224L90.0483 74.1501C89.7031 74.7068 89.1719 75.3205 88.7071 75.7059C87.4721 76.7193 87.6182 77.2616 89.132 77.2616C90.3936 77.2616 91.2701 77.0333 92.4918 76.391L93.6073 75.8058L94.2181 76.1198C97.9231 78.0466 102.252 77.9753 105.758 75.8914C106.674 75.3491 107.936 74.3642 108.361 73.8504L108.626 73.5364L104.218 68.7978L99.8088 64.0592V57.5223V50.9996L98.9855 51.0139C98.5207 51.0139 97.7638 51.1138 97.299 51.2137Z" fill="url(#paint2_radial_3229_2106)"/>
<path d="M104.112 52.0702L101.735 53.1122L101.695 53.9971C101.668 54.6822 101.695 54.8677 101.827 54.8106C103.58 54.0827 108.002 52.0988 108.069 52.0131C108.122 51.9561 107.79 51.7134 107.339 51.4708L106.502 51.0283L104.112 52.0702Z" fill="white"/>
<path d="M104.112 52.0702L101.735 53.1122L101.695 53.9971C101.668 54.6822 101.695 54.8677 101.827 54.8106C103.58 54.0827 108.002 52.0988 108.069 52.0131C108.122 51.9561 107.79 51.7134 107.339 51.4708L106.502 51.0283L104.112 52.0702Z" fill="url(#paint3_radial_3229_2106)"/>
<path d="M105.519 54.5545L101.735 56.2245L101.695 57.038C101.668 57.6375 101.695 57.8516 101.827 57.8516C101.987 57.8516 110.433 54.1977 110.539 54.0693C110.592 54.0122 109.543 52.9417 109.384 52.8989C109.344 52.8846 107.604 53.6268 105.519 54.5545Z" fill="white"/>
<path d="M105.519 54.5545L101.735 56.2245L101.695 57.038C101.668 57.6375 101.695 57.8516 101.827 57.8516C101.987 57.8516 110.433 54.1977 110.539 54.0693C110.592 54.0122 109.543 52.9417 109.384 52.8989C109.344 52.8846 107.604 53.6268 105.519 54.5545Z" fill="url(#paint4_radial_3229_2106)"/>
<path d="M106.422 57.2528L101.668 59.3367V60.1788C101.668 60.921 101.694 61.0209 101.907 60.9495C102.305 60.8353 112.092 56.5392 112.199 56.4393C112.318 56.3108 111.521 55.1405 111.322 55.1547C111.229 55.1547 109.025 56.111 106.422 57.2528Z" fill="white"/>
<path d="M106.422 57.2528L101.668 59.3367V60.1788C101.668 60.921 101.694 61.0209 101.907 60.9495C102.305 60.8353 112.092 56.5392 112.199 56.4393C112.318 56.3108 111.521 55.1405 111.322 55.1547C111.229 55.1547 109.025 56.111 106.422 57.2528Z" fill="url(#paint5_radial_3229_2106)"/>
<path d="M107.245 59.9914L101.734 62.3892L101.695 62.8745C101.668 63.2171 101.734 63.4312 101.934 63.631C102.213 63.9022 102.266 63.8736 107.777 61.49C110.844 60.1627 113.354 59.0066 113.354 58.9352C113.354 58.6926 112.929 57.565 112.836 57.565C112.796 57.5793 110.273 58.664 107.245 59.9914Z" fill="white"/>
<path d="M107.245 59.9914L101.734 62.3892L101.695 62.8745C101.668 63.2171 101.734 63.4312 101.934 63.631C102.213 63.9022 102.266 63.8736 107.777 61.49C110.844 60.1627 113.354 59.0066 113.354 58.9352C113.354 58.6926 112.929 57.565 112.836 57.565C112.796 57.5793 110.273 58.664 107.245 59.9914Z" fill="url(#paint6_radial_3229_2106)"/>
<path d="M108.441 62.5607C105.639 63.8024 103.315 64.8729 103.301 64.9443C103.275 65.0156 103.487 65.3011 103.766 65.6008L104.271 66.1289L109.118 64.0165L113.952 61.8899L113.925 61.4046C113.872 60.7195 113.766 60.277 113.646 60.2913C113.593 60.3056 111.256 61.319 108.441 62.5607Z" fill="white"/>
<path d="M108.441 62.5607C105.639 63.8024 103.315 64.8729 103.301 64.9443C103.275 65.0156 103.487 65.3011 103.766 65.6008L104.271 66.1289L109.118 64.0165L113.952 61.8899L113.925 61.4046C113.872 60.7195 113.766 60.277 113.646 60.2913C113.593 60.3056 111.256 61.319 108.441 62.5607Z" fill="url(#paint7_radial_3229_2106)"/>
<path d="M109.569 65.158C107.232 66.1857 105.293 67.0563 105.267 67.0849C105.174 67.1562 106.223 68.2695 106.382 68.2695C106.449 68.2695 108.188 67.5273 110.233 66.6424L113.952 65.0153L113.992 64.1447C114.018 63.6594 113.978 63.274 113.925 63.2883C113.872 63.2883 111.907 64.1304 109.569 65.158Z" fill="white"/>
<path d="M109.569 65.158C107.232 66.1857 105.293 67.0563 105.267 67.0849C105.174 67.1562 106.223 68.2695 106.382 68.2695C106.449 68.2695 108.188 67.5273 110.233 66.6424L113.952 65.0153L113.992 64.1447C114.018 63.6594 113.978 63.274 113.925 63.2883C113.872 63.2883 111.907 64.1304 109.569 65.158Z" fill="url(#paint8_radial_3229_2106)"/>
<path d="M110.379 67.9142C108.72 68.6564 107.325 69.2701 107.312 69.2987C107.285 69.3272 107.498 69.6127 107.79 69.9552L108.321 70.5547L110.672 69.527C111.96 68.9704 113.049 68.4851 113.062 68.4709C113.088 68.4566 113.261 68.0141 113.434 67.5003C113.646 66.8437 113.699 66.5583 113.58 66.5583C113.5 66.5726 112.053 67.172 110.379 67.9142Z" fill="white"/>
<path d="M110.379 67.9142C108.72 68.6564 107.325 69.2701 107.312 69.2987C107.285 69.3272 107.498 69.6127 107.79 69.9552L108.321 70.5547L110.672 69.527C111.96 68.9704 113.049 68.4851 113.062 68.4709C113.088 68.4566 113.261 68.0141 113.434 67.5003C113.646 66.8437 113.699 66.5583 113.58 66.5583C113.5 66.5726 112.053 67.172 110.379 67.9142Z" fill="url(#paint9_radial_3229_2106)"/>
<path d="M111.097 70.6932C110.618 70.9073 109.994 71.1928 109.715 71.3212L109.184 71.5496L109.702 72.1205C109.994 72.4345 110.286 72.6914 110.353 72.6914C110.499 72.6914 110.778 72.3631 111.628 71.1785C112.411 70.108 112.385 70.0937 111.097 70.6932Z" fill="white"/>
<path d="M111.097 70.6932C110.618 70.9073 109.994 71.1928 109.715 71.3212L109.184 71.5496L109.702 72.1205C109.994 72.4345 110.286 72.6914 110.353 72.6914C110.499 72.6914 110.778 72.3631 111.628 71.1785C112.411 70.108 112.385 70.0937 111.097 70.6932Z" fill="url(#paint10_radial_3229_2106)"/>
<path d="M60.7005 86.424C59.4124 87.2518 55.0965 89.4783 53.1975 90.3062C50.5947 91.4337 49.6917 91.9904 48.7356 93.0466C47.3811 94.5024 46.6374 96.4863 46.2922 99.5407C46.1992 100.283 46.1062 102.852 46.0664 105.278L46 109.66H69.7173H93.4347V108.476C93.4214 105.707 93.1558 99.9403 92.9699 98.6986C92.5582 95.9439 91.7614 94.1456 90.3671 92.7611C89.4508 91.8476 88.7735 91.448 86.3301 90.3918C84.4975 89.5925 80.4605 87.523 78.867 86.5524L77.9108 85.9672L77.5788 87.0662C77.4062 87.68 76.2907 91.4908 75.1088 95.53C73.9137 99.5692 72.931 102.895 72.9177 102.923C72.9044 102.938 72.4662 101.667 71.9483 100.097L71.0054 97.2285L71.4702 96.4292C71.7358 96.001 72.1342 95.216 72.3732 94.6879C72.7318 93.8744 72.7849 93.5889 72.7849 92.5756C72.7849 91.4337 72.7716 91.3909 72.3334 90.9056C71.6827 90.1777 70.8328 89.9208 69.4119 89.9922C67.5528 90.0921 66.6232 90.82 66.5037 92.2758C66.4373 93.2606 66.8224 94.5167 67.6856 96.0724L68.3495 97.257L67.4465 100.026C66.9552 101.553 66.517 102.809 66.4771 102.809C66.424 102.809 65.3085 99.0697 63.9673 94.4881C62.626 89.9208 61.4973 86.1385 61.4442 86.0814C61.4043 86.0386 61.0723 86.1813 60.7005 86.424Z" fill="white"/>
<path d="M60.7005 86.424C59.4124 87.2518 55.0965 89.4783 53.1975 90.3062C50.5947 91.4337 49.6917 91.9904 48.7356 93.0466C47.3811 94.5024 46.6374 96.4863 46.2922 99.5407C46.1992 100.283 46.1062 102.852 46.0664 105.278L46 109.66H69.7173H93.4347V108.476C93.4214 105.707 93.1558 99.9403 92.9699 98.6986C92.5582 95.9439 91.7614 94.1456 90.3671 92.7611C89.4508 91.8476 88.7735 91.448 86.3301 90.3918C84.4975 89.5925 80.4605 87.523 78.867 86.5524L77.9108 85.9672L77.5788 87.0662C77.4062 87.68 76.2907 91.4908 75.1088 95.53C73.9137 99.5692 72.931 102.895 72.9177 102.923C72.9044 102.938 72.4662 101.667 71.9483 100.097L71.0054 97.2285L71.4702 96.4292C71.7358 96.001 72.1342 95.216 72.3732 94.6879C72.7318 93.8744 72.7849 93.5889 72.7849 92.5756C72.7849 91.4337 72.7716 91.3909 72.3334 90.9056C71.6827 90.1777 70.8328 89.9208 69.4119 89.9922C67.5528 90.0921 66.6232 90.82 66.5037 92.2758C66.4373 93.2606 66.8224 94.5167 67.6856 96.0724L68.3495 97.257L67.4465 100.026C66.9552 101.553 66.517 102.809 66.4771 102.809C66.424 102.809 65.3085 99.0697 63.9673 94.4881C62.626 89.9208 61.4973 86.1385 61.4442 86.0814C61.4043 86.0386 61.0723 86.1813 60.7005 86.424Z" fill="url(#paint11_radial_3229_2106)"/>
</g>
<defs>
<filter id="filter0_d_3229_2106" x="-7.12671" y="7.29297" width="145.078" height="152.004" filterUnits="userSpaceOnUse" color-interpolation-filters="sRGB">
<feFlood flood-opacity="0" result="BackgroundImageFix"/>
<feColorMatrix in="SourceAlpha" type="matrix" values="0 0 0 0 0 0 0 0 0 0 0 0 0 0 0 0 0 0 127 0" result="hardAlpha"/>
<feOffset dx="-5" dy="5"/>
<feGaussianBlur stdDeviation="4"/>
<feComposite in2="hardAlpha" operator="out"/>
<feColorMatrix type="matrix" values="0 0 0 0 0 0 0 0 0 0 0 0 0 0 0 0 0 0 0.25 0"/>
<feBlend mode="normal" in2="BackgroundImageFix" result="effect1_dropShadow_3229_2106"/>
<feBlend mode="normal" in="SourceGraphic" in2="effect1_dropShadow_3229_2106" result="shape"/>
</filter>
<radialGradient id="paint0_radial_3229_2106" cx="0" cy="0" r="1" gradientUnits="userSpaceOnUse" gradientTransform="translate(102.216 51.3684) rotate(-22.8816) scale(4.72389 3.61276)">
<stop stop-color="#00862D"/>
<stop offset="0.627261" stop-color="#0033CC"/>
</radialGradient>
<radialGradient id="paint1_radial_3229_2106" cx="0" cy="0" r="1" gradientUnits="userSpaceOnUse" gradientTransform="translate(61.9522 79.5046) rotate(-44.8276) scale(54.3698 58.0358)">
<stop stop-color="#00862D"/>
<stop offset="0.627261" stop-color="#0033CC"/>
</radialGradient>
<radialGradient id="paint2_radial_3229_2106" cx="0" cy="0" r="1" gradientUnits="userSpaceOnUse" gradientTransform="translate(91.5879 72.2096) rotate(-41.0325) scale(43.3096 45.788)">
<stop stop-color="#00862D"/>
<stop offset="0.627261" stop-color="#0033CC"/>
</radialGradient>
<radialGradient id="paint3_radial_3229_2106" cx="0" cy="0" r="1" gradientUnits="userSpaceOnUse" gradientTransform="translate(102.928 54.062) rotate(-22.3961) scale(10.6733 8.02694)">
<stop stop-color="#00862D"/>
<stop offset="0.627261" stop-color="#0033CC"/>
</radialGradient>
<radialGradient id="paint4_radial_3229_2106" cx="0" cy="0" r="1" gradientUnits="userSpaceOnUse" gradientTransform="translate(103.407 56.861) rotate(-21.2231) scale(14.6729 10.5706)">
<stop stop-color="#00862D"/>
<stop offset="0.627261" stop-color="#0033CC"/>
</radialGradient>
<radialGradient id="paint5_radial_3229_2106" cx="0" cy="0" r="1" gradientUnits="userSpaceOnUse" gradientTransform="translate(103.718 59.806) rotate(-20.9519) scale(17.437 12.4313)">
<stop stop-color="#00862D"/>
<stop offset="0.627261" stop-color="#0033CC"/>
</radialGradient>
<radialGradient id="paint6_radial_3229_2106" cx="0" cy="0" r="1" gradientUnits="userSpaceOnUse" gradientTransform="translate(103.957 62.5099) rotate(-20.1989) scale(19.1981 13.2813)">
<stop stop-color="#00862D"/>
<stop offset="0.627261" stop-color="#0033CC"/>
</radialGradient>
<radialGradient id="paint7_radial_3229_2106" cx="0" cy="0" r="1" gradientUnits="userSpaceOnUse" gradientTransform="translate(105.371 64.9614) rotate(-20.8324) scale(17.6043 12.4922)">
<stop stop-color="#00862D"/>
<stop offset="0.627261" stop-color="#0033CC"/>
</radialGradient>
<radialGradient id="paint8_radial_3229_2106" cx="0" cy="0" r="1" gradientUnits="userSpaceOnUse" gradientTransform="translate(106.96 67.2733) rotate(-21.5934) scale(14.5167 10.605)">
<stop stop-color="#00862D"/>
<stop offset="0.627261" stop-color="#0033CC"/>
</radialGradient>
<radialGradient id="paint9_radial_3229_2106" cx="0" cy="0" r="1" gradientUnits="userSpaceOnUse" gradientTransform="translate(108.541 69.7555) rotate(-23.661) scale(10.6792 8.3806)">
<stop stop-color="#00862D"/>
<stop offset="0.627261" stop-color="#0033CC"/>
</radialGradient>
<radialGradient id="paint10_radial_3229_2106" cx="0" cy="0" r="1" gradientUnits="userSpaceOnUse" gradientTransform="translate(109.762 72.2122) rotate(-29.2632) scale(5.25651 4.78555)">
<stop stop-color="#00862D"/>
<stop offset="0.627261" stop-color="#0033CC"/>
</radialGradient>
<radialGradient id="paint11_radial_3229_2106" cx="0" cy="0" r="1" gradientUnits="userSpaceOnUse" gradientTransform="translate(55.2241 104.922) rotate(-19.1267) scale(77.5466 51.2505)">
<stop stop-color="#00862D"/>
<stop offset="0.627261" stop-color="#0033CC"/>
</radialGradient>
<clipPath id="clip0_3229_2106">
<rect width="160" height="160" fill="white"/>
</clipPath>
</defs>
</svg>
