<svg width="160" height="160" viewBox="0 0 160 160" fill="none" xmlns="http://www.w3.org/2000/svg">
<g clip-path="url(#clip0_3229_2099)">
<g filter="url(#filter0_d_3229_2099)">
<path d="M81.0962 15.7562C100.014 2.51003 126.177 14.71 128.189 37.7161L134.831 113.636C136.844 136.642 113.197 153.2 92.2671 143.44L23.1971 111.232C2.26686 101.472 -0.24911 72.7148 18.6684 59.4686L81.0962 15.7562Z" fill="white"/>
</g>
<path d="M46 69.9735V93.9492L56.3859 93.9217L66.7719 93.8803L66.9313 92.902C67.5289 89.1816 69.5875 85.8471 72.5891 83.7389C73.6648 82.981 75.3781 82.1543 76.6398 81.796C77.5164 81.5342 78.0211 81.4929 80 81.4929C81.9789 81.4929 82.4836 81.5342 83.3602 81.796C88.4336 83.2566 92.2055 87.5695 93.0688 92.902L93.2281 93.8803L103.614 93.9217L114 93.9492V69.9735V45.9979H80H46V69.9735ZM54.5 49.7871V50.9583H52.6406H50.7812V52.8874V54.8165H49.6523H48.5234V52.0744V49.3324L48.9352 48.9741L49.3469 48.6159H51.9234H54.5V49.7871ZM111.065 48.9741L111.477 49.3324V52.0744V54.8165H110.348H109.219V52.8874V50.9583H107.359H105.5V49.7871V48.6159H108.077H110.653L111.065 48.9741ZM94.4766 58.6058V59.777H80H65.5234V58.6058V57.4345H80H94.4766V58.6058ZM101.781 66.1843V67.3555H80H58.2188V66.1843V65.0131H80H101.781V66.1843ZM50.7812 86.9908V88.8509H52.6406H54.5V90.1048V91.345L51.8305 91.3036L49.1609 91.2623L48.8422 90.8765C48.5234 90.4907 48.5234 90.4493 48.5234 87.8037V85.1306H49.6523H50.7812V86.9908ZM111.477 87.8037C111.477 90.4493 111.477 90.4907 111.158 90.8765L110.839 91.2623L108.17 91.3036L105.5 91.345V90.1048V88.8509H107.359H109.219V86.9908V85.1306H110.348H111.477V87.8037Z" fill="white"/>
<path d="M46 69.9735V93.9492L56.3859 93.9217L66.7719 93.8803L66.9313 92.902C67.5289 89.1816 69.5875 85.8471 72.5891 83.7389C73.6648 82.981 75.3781 82.1543 76.6398 81.796C77.5164 81.5342 78.0211 81.4929 80 81.4929C81.9789 81.4929 82.4836 81.5342 83.3602 81.796C88.4336 83.2566 92.2055 87.5695 93.0688 92.902L93.2281 93.8803L103.614 93.9217L114 93.9492V69.9735V45.9979H80H46V69.9735ZM54.5 49.7871V50.9583H52.6406H50.7812V52.8874V54.8165H49.6523H48.5234V52.0744V49.3324L48.9352 48.9741L49.3469 48.6159H51.9234H54.5V49.7871ZM111.065 48.9741L111.477 49.3324V52.0744V54.8165H110.348H109.219V52.8874V50.9583H107.359H105.5V49.7871V48.6159H108.077H110.653L111.065 48.9741ZM94.4766 58.6058V59.777H80H65.5234V58.6058V57.4345H80H94.4766V58.6058ZM101.781 66.1843V67.3555H80H58.2188V66.1843V65.0131H80H101.781V66.1843ZM50.7812 86.9908V88.8509H52.6406H54.5V90.1048V91.345L51.8305 91.3036L49.1609 91.2623L48.8422 90.8765C48.5234 90.4907 48.5234 90.4493 48.5234 87.8037V85.1306H49.6523H50.7812V86.9908ZM111.477 87.8037C111.477 90.4493 111.477 90.4907 111.158 90.8765L110.839 91.2623L108.17 91.3036L105.5 91.345V90.1048V88.8509H107.359H109.219V86.9908V85.1306H110.348H111.477V87.8037Z" fill="url(#paint0_radial_3229_2099)"/>
<path d="M78.2867 83.922C72.6156 84.7625 68.3656 90.5497 69.0961 96.4059C69.5609 100.03 71.1547 102.717 74.0367 104.687C75.9625 106.024 77.5562 106.478 80.1992 106.492C83.6922 106.492 86.8929 104.756 88.9648 101.738C90.532 99.4511 91.2492 96.5712 90.9039 93.8843C90.0804 87.3254 84.582 82.985 78.2867 83.922ZM82.2179 86.7329C85.0468 87.5597 87.4508 90.1226 88.1679 93.0575C88.407 94.0083 88.4336 95.9649 88.2211 97.0121C88.1414 97.4117 87.8093 98.3074 87.4906 99.0101C86.1758 101.849 83.5461 103.654 80.4515 103.833C76.9984 104.04 73.8242 102.055 72.3633 98.7483C71.8054 97.4806 71.6328 96.585 71.6328 95.0831C71.6328 92.6993 72.4031 90.8115 74.0898 89.0478C75.4843 87.601 76.9054 86.8431 78.9375 86.4573C79.5484 86.3471 81.4343 86.4987 82.2179 86.7329Z" fill="white"/>
<path d="M78.2867 83.922C72.6156 84.7625 68.3656 90.5497 69.0961 96.4059C69.5609 100.03 71.1547 102.717 74.0367 104.687C75.9625 106.024 77.5562 106.478 80.1992 106.492C83.6922 106.492 86.8929 104.756 88.9648 101.738C90.532 99.4511 91.2492 96.5712 90.9039 93.8843C90.0804 87.3254 84.582 82.985 78.2867 83.922ZM82.2179 86.7329C85.0468 87.5597 87.4508 90.1226 88.1679 93.0575C88.407 94.0083 88.4336 95.9649 88.2211 97.0121C88.1414 97.4117 87.8093 98.3074 87.4906 99.0101C86.1758 101.849 83.5461 103.654 80.4515 103.833C76.9984 104.04 73.8242 102.055 72.3633 98.7483C71.8054 97.4806 71.6328 96.585 71.6328 95.0831C71.6328 92.6993 72.4031 90.8115 74.0898 89.0478C75.4843 87.601 76.9054 86.8431 78.9375 86.4573C79.5484 86.3471 81.4343 86.4987 82.2179 86.7329Z" fill="url(#paint1_radial_3229_2099)"/>
<path d="M77.9282 89.1837C73.7313 90.7959 72.5227 96.3075 75.6438 99.6008C76.8258 100.841 78.2602 101.461 80 101.461C81.7399 101.461 83.1742 100.841 84.3563 99.6008C87.1055 96.6934 86.5211 91.8431 83.1742 89.7073C81.7399 88.7979 79.5086 88.5775 77.9282 89.1837Z" fill="white"/>
<path d="M77.9282 89.1837C73.7313 90.7959 72.5227 96.3075 75.6438 99.6008C76.8258 100.841 78.2602 101.461 80 101.461C81.7399 101.461 83.1742 100.841 84.3563 99.6008C87.1055 96.6934 86.5211 91.8431 83.1742 89.7073C81.7399 88.7979 79.5086 88.5775 77.9282 89.1837Z" fill="url(#paint2_radial_3229_2099)"/>
<path d="M65.4039 103.266C64.2219 104.74 63.2656 105.981 63.2789 105.994C63.3055 106.022 64.7266 106.394 66.4399 106.807C68.6578 107.358 69.6406 107.662 69.8266 107.855C69.9727 108.006 70.6367 109.453 71.3141 111.065C71.9914 112.677 72.6024 114 72.6688 114C72.775 114 77.0781 108.791 77.0781 108.654C77.0781 108.626 76.7195 108.488 76.268 108.364C72.9609 107.4 69.7469 104.603 68.1266 101.282C67.9406 100.896 67.7281 100.565 67.675 100.565C67.6219 100.565 66.5992 101.778 65.4039 103.266Z" fill="white"/>
<path d="M65.4039 103.266C64.2219 104.74 63.2656 105.981 63.2789 105.994C63.3055 106.022 64.7266 106.394 66.4399 106.807C68.6578 107.358 69.6406 107.662 69.8266 107.855C69.9727 108.006 70.6367 109.453 71.3141 111.065C71.9914 112.677 72.6024 114 72.6688 114C72.775 114 77.0781 108.791 77.0781 108.654C77.0781 108.626 76.7195 108.488 76.268 108.364C72.9609 107.4 69.7469 104.603 68.1266 101.282C67.9406 100.896 67.7281 100.565 67.675 100.565C67.6219 100.565 66.5992 101.778 65.4039 103.266Z" fill="url(#paint3_radial_3229_2099)"/>
<path d="M91.8734 101.282C90.8375 103.431 88.7391 105.76 86.7734 106.959C86.1758 107.331 85.0734 107.855 84.3297 108.116C83.5992 108.392 82.9617 108.626 82.9352 108.64C82.8555 108.709 87.2117 114 87.3313 114C87.4109 114 88.0219 112.663 88.6992 111.037C89.443 109.26 90.0539 107.979 90.2531 107.799C90.4656 107.606 91.5148 107.29 93.6133 106.78C95.3 106.366 96.6945 106.022 96.7211 105.994C96.7875 105.925 92.4445 100.565 92.325 100.565C92.2719 100.565 92.0594 100.896 91.8734 101.282Z" fill="white"/>
<path d="M91.8734 101.282C90.8375 103.431 88.7391 105.76 86.7734 106.959C86.1758 107.331 85.0734 107.855 84.3297 108.116C83.5992 108.392 82.9617 108.626 82.9352 108.64C82.8555 108.709 87.2117 114 87.3313 114C87.4109 114 88.0219 112.663 88.6992 111.037C89.443 109.26 90.0539 107.979 90.2531 107.799C90.4656 107.606 91.5148 107.29 93.6133 106.78C95.3 106.366 96.6945 106.022 96.7211 105.994C96.7875 105.925 92.4445 100.565 92.325 100.565C92.2719 100.565 92.0594 100.896 91.8734 101.282Z" fill="url(#paint4_radial_3229_2099)"/>
</g>
<defs>
<filter id="filter0_d_3229_2099" x="-7.12665" y="7.29297" width="145.078" height="152.004" filterUnits="userSpaceOnUse" color-interpolation-filters="sRGB">
<feFlood flood-opacity="0" result="BackgroundImageFix"/>
<feColorMatrix in="SourceAlpha" type="matrix" values="0 0 0 0 0 0 0 0 0 0 0 0 0 0 0 0 0 0 127 0" result="hardAlpha"/>
<feOffset dx="-5" dy="5"/>
<feGaussianBlur stdDeviation="4"/>
<feComposite in2="hardAlpha" operator="out"/>
<feColorMatrix type="matrix" values="0 0 0 0 0 0 0 0 0 0 0 0 0 0 0 0 0 0 0.25 0"/>
<feBlend mode="normal" in2="BackgroundImageFix" result="effect1_dropShadow_3229_2099"/>
<feBlend mode="normal" in="SourceGraphic" in2="effect1_dropShadow_3229_2099" result="shape"/>
</filter>
<radialGradient id="paint0_radial_3229_2099" cx="0" cy="0" r="1" gradientUnits="userSpaceOnUse" gradientTransform="translate(59.2232 84.3595) rotate(-26.0869) scale(116.944 98.6008)">
<stop stop-color="#00862D"/>
<stop offset="0.627261" stop-color="#0033CC"/>
</radialGradient>
<radialGradient id="paint1_radial_3229_2099" cx="0" cy="0" r="1" gradientUnits="userSpaceOnUse" gradientTransform="translate(73.2874 101.953) rotate(-35.6461) scale(41.7672 42.2287)">
<stop stop-color="#00862D"/>
<stop offset="0.627261" stop-color="#0033CC"/>
</radialGradient>
<radialGradient id="paint2_radial_3229_2099" cx="0" cy="0" r="1" gradientUnits="userSpaceOnUse" gradientTransform="translate(76.2623 98.9375) rotate(-35.6566) scale(23.2132 23.4726)">
<stop stop-color="#00862D"/>
<stop offset="0.627261" stop-color="#0033CC"/>
</radialGradient>
<radialGradient id="paint3_radial_3229_2099" cx="0" cy="0" r="1" gradientUnits="userSpaceOnUse" gradientTransform="translate(65.9622 111.313) rotate(-34.0575) scale(25.7267 25.4828)">
<stop stop-color="#00862D"/>
<stop offset="0.627261" stop-color="#0033CC"/>
</radialGradient>
<radialGradient id="paint4_radial_3229_2099" cx="0" cy="0" r="1" gradientUnits="userSpaceOnUse" gradientTransform="translate(85.6152 111.313) rotate(-34.0798) scale(25.7119 25.4761)">
<stop stop-color="#00862D"/>
<stop offset="0.627261" stop-color="#0033CC"/>
</radialGradient>
<clipPath id="clip0_3229_2099">
<rect width="160" height="160" fill="white"/>
</clipPath>
</defs>
</svg>
