<svg width="28" height="28" viewBox="0 0 28 28" fill="none" xmlns="http://www.w3.org/2000/svg">
<path d="M22.6496 10.3794V10.3796V22.4001C22.6496 23.209 22.3283 23.9847 21.7563 24.5567C21.1843 25.1287 20.4085 25.4501 19.5996 25.4501H8.39961C7.5907 25.4501 6.81492 25.1287 6.24293 24.5567C5.67095 23.9847 5.34961 23.209 5.34961 22.4001V5.60005C5.34961 4.79114 5.67095 4.01536 6.24293 3.44337C6.81492 2.87139 7.5907 2.55005 8.39961 2.55005H14.82H14.8201C15.4429 2.55018 16.0402 2.79755 16.4807 3.23782L16.4808 3.23789L21.9603 8.71876L22.6496 10.3794ZM22.6496 10.3794C22.6491 9.75644 22.4012 9.15917 21.9604 8.7189L22.6496 10.3794ZM7.24961 5.60005C7.24961 5.29505 7.37077 5.00254 7.58644 4.78688C7.8021 4.57121 8.09461 4.45005 8.39961 4.45005H13.7496V9.10005C13.7496 9.72331 13.9972 10.321 14.4379 10.7618C14.8786 11.2025 15.4764 11.45 16.0996 11.45H20.7496V22.4001C20.7496 22.7051 20.6285 22.9976 20.4128 23.2132C20.1971 23.4289 19.9046 23.5501 19.5996 23.5501H8.39961C8.09461 23.5501 7.8021 23.4289 7.58644 23.2132C7.37077 22.9976 7.24961 22.7051 7.24961 22.4001V5.60005ZM20.1063 9.55005H16.0996C15.9803 9.55005 15.8658 9.50264 15.7814 9.41825C15.697 9.33386 15.6496 9.2194 15.6496 9.10005V5.0934L20.1063 9.55005Z" fill="#2E2E2E" stroke="#2E2E2E" stroke-width="0.5"/>
</svg>
