<svg width="28" height="28" viewBox="0 0 28 28" fill="none" xmlns="http://www.w3.org/2000/svg">
<path d="M15.1786 18.5455V18.6754C15.1785 18.6784 15.1783 18.6847 15.1778 18.694C15.1768 18.7162 15.1744 18.7553 15.1689 18.8089C15.1579 18.9166 15.1349 19.0804 15.0871 19.2814C14.9911 19.6852 14.7987 20.2235 14.4159 20.7601C13.6872 21.7814 12.1207 23 8.58929 23C5.05791 23 3.4914 21.7814 2.76269 20.7601C2.37984 20.2235 2.18749 19.6852 2.09144 19.2814C2.04363 19.0804 2.02064 18.9166 2.00967 18.8089C2.0042 18.7553 2.00178 18.7162 2.00072 18.694C2.00028 18.6847 2.00008 18.6784 2 18.6754V18.5455C2 18.0816 2.18115 17.6403 2.49798 17.3177C2.81422 16.9957 3.23926 16.8182 3.67857 16.8182H13.5C13.9393 16.8182 14.3644 16.9957 14.6806 17.3177C14.9974 17.6403 15.1786 18.0816 15.1786 18.5455ZM18.5152 18.5457C18.5159 17.9523 18.4142 17.3681 18.2189 16.8182H23.8509H23.8513C23.9996 16.8181 24.1469 16.8478 24.2849 16.9059C24.423 16.9641 24.5497 17.0499 24.6572 17.1594L25.3705 16.4585L24.6572 17.1594C24.7647 17.2688 24.851 17.3998 24.9101 17.5451C24.9683 17.6879 24.9989 17.8414 25 17.997C24.9999 17.9984 24.9998 18.0003 24.9997 18.0025C24.9991 18.0155 24.9974 18.0415 24.9935 18.0786C24.9855 18.1532 24.9684 18.2705 24.9321 18.416C24.8592 18.7082 24.7124 19.1011 24.4181 19.4945C23.8641 20.2349 22.6301 21.1818 19.75 21.1818C19.0988 21.1818 18.5333 21.1332 18.0423 21.0505C18.157 20.7525 18.2432 20.4713 18.3076 20.2162C18.4139 19.8003 18.4812 19.3752 18.5087 18.9466L18.5091 18.9392L18.5095 18.9318C18.5096 18.9293 18.5098 18.9263 18.51 18.9228C18.5113 18.8974 18.5138 18.8485 18.5142 18.8002L18.5149 18.7706L18.5152 18.759V18.7473L18.5152 18.547L17.5152 18.5455H18.5152V18.5457ZM11.3482 11.8348C10.6134 12.583 9.6206 13 8.58929 13C7.55797 13 6.56518 12.583 5.83033 11.8348C5.09489 11.086 4.67857 10.0666 4.67857 9C4.67857 7.93338 5.09489 6.91399 5.83033 6.16517C6.56518 5.41697 7.55797 5 8.58929 5C9.6206 5 10.6134 5.41697 11.3482 6.16517C12.0837 6.91399 12.5 7.93338 12.5 9C12.5 10.0666 12.0837 11.086 11.3482 11.8348ZM21.5619 12.2342C21.0783 12.7267 20.4261 13 19.75 13C19.0739 13 18.4217 12.7267 17.9381 12.2342C17.4538 11.7411 17.1786 11.0686 17.1786 10.3636C17.1786 9.65867 17.4538 8.98613 17.9381 8.49305C18.4217 8.00057 19.0739 7.72727 19.75 7.72727C20.4261 7.72727 21.0783 8.00057 21.5619 8.49305C22.0462 8.98613 22.3214 9.65867 22.3214 10.3636C22.3214 11.0686 22.0462 11.7411 21.5619 12.2342Z" stroke="#2E2E2E" stroke-width="2"/>
</svg>