<svg width="26" height="26" viewBox="0 0 26 26" fill="none" xmlns="http://www.w3.org/2000/svg">
<path d="M9.35556 7.08444C9.35556 6.00118 9.78588 4.96229 10.5519 4.19631C11.3178 3.43032 12.3567 3 13.44 3C14.5233 3 15.5622 3.43032 16.3281 4.19631C17.0941 4.96229 17.5244 6.00118 17.5244 7.08444C17.5244 8.16771 17.0941 9.2066 16.3281 9.97258C15.5622 10.7386 14.5233 11.1689 13.44 11.1689C12.3567 11.1689 11.3178 10.7386 10.5519 9.97258C9.78588 9.2066 9.35556 8.16771 9.35556 7.08444ZM4.56861 17.2797C5.57297 16.2754 6.93517 15.7111 8.35556 15.7111H18.5244C19.9448 15.7111 21.307 16.2754 22.3114 17.2797C23.3158 18.2841 23.88 19.6463 23.88 21.0667C23.88 21.8128 23.5836 22.5284 23.056 23.056C22.5284 23.5836 21.8128 23.88 21.0667 23.88H5.81333C5.06719 23.88 4.35161 23.5836 3.82401 23.056C3.2964 22.5284 3 21.8128 3 21.0667C3 19.6463 3.56424 18.2841 4.56861 17.2797Z" fill="white"/>
<path d="M9.35556 7.08444C9.35556 6.00118 9.78588 4.96229 10.5519 4.19631C11.3178 3.43032 12.3567 3 13.44 3C14.5233 3 15.5622 3.43032 16.3281 4.19631C17.0941 4.96229 17.5244 6.00118 17.5244 7.08444C17.5244 8.16771 17.0941 9.2066 16.3281 9.97258C15.5622 10.7386 14.5233 11.1689 13.44 11.1689C12.3567 11.1689 11.3178 10.7386 10.5519 9.97258C9.78588 9.2066 9.35556 8.16771 9.35556 7.08444ZM4.56861 17.2797C5.57297 16.2754 6.93517 15.7111 8.35556 15.7111H18.5244C19.9448 15.7111 21.307 16.2754 22.3114 17.2797C23.3158 18.2841 23.88 19.6463 23.88 21.0667C23.88 21.8128 23.5836 22.5284 23.056 23.056C22.5284 23.5836 21.8128 23.88 21.0667 23.88H5.81333C5.06719 23.88 4.35161 23.5836 3.82401 23.056C3.2964 22.5284 3 21.8128 3 21.0667C3 19.6463 3.56424 18.2841 4.56861 17.2797Z" stroke="#2E2E2E" stroke-width="2"/>
<path d="M9.35556 7.08444C9.35556 6.00118 9.78588 4.96229 10.5519 4.19631C11.3178 3.43032 12.3567 3 13.44 3C14.5233 3 15.5622 3.43032 16.3281 4.19631C17.0941 4.96229 17.5244 6.00118 17.5244 7.08444C17.5244 8.16771 17.0941 9.2066 16.3281 9.97258C15.5622 10.7386 14.5233 11.1689 13.44 11.1689C12.3567 11.1689 11.3178 10.7386 10.5519 9.97258C9.78588 9.2066 9.35556 8.16771 9.35556 7.08444ZM4.56861 17.2797C5.57297 16.2754 6.93517 15.7111 8.35556 15.7111H18.5244C19.9448 15.7111 21.307 16.2754 22.3114 17.2797C23.3158 18.2841 23.88 19.6463 23.88 21.0667C23.88 21.8128 23.5836 22.5284 23.056 23.056C22.5284 23.5836 21.8128 23.88 21.0667 23.88H5.81333C5.06719 23.88 4.35161 23.5836 3.82401 23.056C3.2964 22.5284 3 21.8128 3 21.0667C3 19.6463 3.56424 18.2841 4.56861 17.2797Z" stroke="white" stroke-width="2"/>
</svg>
