<svg width="22" height="26" viewBox="0 0 22 26" fill="none" xmlns="http://www.w3.org/2000/svg">
<path d="M17.6667 7.5C17.6667 5.77609 16.9643 4.12279 15.714 2.90381C14.4638 1.68482 12.7681 1 11 1C9.23189 1 7.5362 1.68482 6.28595 2.90381C5.03571 4.12279 4.33333 5.77609 4.33333 7.5C4.33333 15.0833 1 18.5 1 18.5H21C21 18.5 17.6667 15.0833 17.6667 7.5Z" fill="white" stroke="#2E2E2E" stroke-width="2" stroke-linecap="round" stroke-linejoin="round"/>
<path d="M13.8115 23.1354C13.5575 23.5156 13.1928 23.8312 12.754 24.0505C12.3153 24.2699 11.8179 24.3854 11.3115 24.3854C10.8052 24.3854 10.3078 24.2699 9.869 24.0505C9.43025 23.8312 9.06558 23.5156 8.81152 23.1354" fill="white"/>
<path d="M13.8115 23.1354C13.5575 23.5156 13.1928 23.8312 12.754 24.0505C12.3153 24.2699 11.8179 24.3854 11.3115 24.3854C10.8052 24.3854 10.3078 24.2699 9.869 24.0505C9.43025 23.8312 9.06558 23.5156 8.81152 23.1354" stroke="#2E2E2E" stroke-width="2" stroke-linecap="round" stroke-linejoin="round"/>
</svg>
