<svg width="28" height="28" viewBox="0 0 28 28" fill="none" xmlns="http://www.w3.org/2000/svg">
<g clip-path="url(#clip0_5240_2927)">
<path d="M21.778 23.3334H4.66688V6.2223H14.9491L16.5047 4.66675H4.66688C4.25432 4.66675 3.85866 4.83064 3.56694 5.12236C3.27522 5.41408 3.11133 5.80974 3.11133 6.2223V23.3334C3.11133 23.746 3.27522 24.1416 3.56694 24.4334C3.85866 24.7251 4.25432 24.889 4.66688 24.889H21.778C22.1906 24.889 22.5862 24.7251 22.8779 24.4334C23.1697 24.1416 23.3336 23.746 23.3336 23.3334V11.6667L21.778 13.2223V23.3334Z" fill="black"/>
<path d="M26.0789 4.54231L23.4578 1.9212C23.3415 1.80456 23.2033 1.71202 23.0511 1.64887C22.899 1.58573 22.7359 1.55322 22.5711 1.55322C22.4064 1.55322 22.2433 1.58573 22.0911 1.64887C21.939 1.71202 21.8008 1.80456 21.6845 1.9212L11.0211 12.6468L10.1578 16.3879C10.121 16.5692 10.1249 16.7565 10.1691 16.9361C10.2134 17.1158 10.2969 17.2834 10.4136 17.427C10.5304 17.5705 10.6775 17.6864 10.8444 17.7663C11.0113 17.8462 11.1939 17.8881 11.3789 17.889C11.4745 17.8995 11.5711 17.8995 11.6667 17.889L15.4389 17.0568L26.0789 6.31565C26.1956 6.19932 26.2881 6.06113 26.3512 5.90898C26.4144 5.75683 26.4469 5.59371 26.4469 5.42898C26.4469 5.26425 26.4144 5.10113 26.3512 4.94898C26.2881 4.79683 26.1956 4.65864 26.0789 4.54231ZM14.63 15.6179L11.7834 16.2479L12.4445 13.4245L20.4711 5.34343L22.6645 7.53676L14.63 15.6179ZM23.5434 6.65787L21.35 4.46454L22.5556 3.23565L24.7645 5.44454L23.5434 6.65787Z" fill="black"/>
</g>
<defs>
<clipPath id="clip0_5240_2927">
<rect width="28" height="28" fill="white"/>
</clipPath>
</defs>
</svg>
