<svg width="18" height="22" viewBox="0 0 18 22" fill="none" xmlns="http://www.w3.org/2000/svg">
<path d="M15 11C15 11.5523 15.4477 12 16 12C16.5523 12 17 11.5523 17 11H15ZM15 6V11H17V6H15Z" fill="#2E2E2E"/>
<path d="M1 11C1 11.5523 1.44772 12 2 12C2.55228 12 3 11.5523 3 11H1ZM1 6V11H3V6H1Z" fill="#2E2E2E"/>
<path d="M16 14H1.5C1.22386 14 1 14.2239 1 14.5V20C1 20.5523 1.44772 21 2 21H16C16.5523 21 17 20.5523 17 20V15C17 14.4477 16.5523 14 16 14Z" stroke="#2E2E2E" stroke-width="2"/>
<mask id="path-4-inside-1_5016_689" fill="white">
<rect width="18" height="6" rx="1"/>
</mask>
<rect width="18" height="6" rx="1" stroke="#2E2E2E" stroke-width="4" mask="url(#path-4-inside-1_5016_689)"/>
</svg>
