<svg width="26" height="26" viewBox="0 0 26 26" fill="none" xmlns="http://www.w3.org/2000/svg">
<path d="M9.15799 2.84178C8.70299 3.29678 8.72749 4.03295 8.99699 4.61861C9.2785 5.2314 9.36561 5.9157 9.24662 6.57947C9.12763 7.24325 8.80824 7.85467 8.33139 8.33151C7.85455 8.80836 7.24313 9.12775 6.57935 9.24674C5.91558 9.36574 5.23128 9.27862 4.61849 8.99711C4.03282 8.72878 3.29666 8.70311 2.84166 9.15811L2.15799 9.84178C1.93927 10.0606 1.81641 10.3573 1.81641 10.6666C1.81641 10.976 1.93927 11.2727 2.15799 11.4914L14.5083 23.8418C14.7271 24.0605 15.0238 24.1834 15.3332 24.1834C15.6425 24.1834 15.9392 24.0605 16.158 23.8418L16.8417 23.1581C17.2967 22.7031 17.2722 21.9669 17.0027 21.3813C16.7211 20.7685 16.634 20.0842 16.753 19.4204C16.872 18.7566 17.1914 18.1452 17.6683 17.6684C18.1451 17.1915 18.7565 16.8721 19.4203 16.7531C20.0841 16.6342 20.7684 16.7213 21.3812 17.0028C21.9668 17.2711 22.703 17.2968 23.158 16.8418L23.8417 16.1581C24.0604 15.9393 24.1832 15.6426 24.1832 15.3333C24.1832 15.0239 24.0604 14.7272 23.8417 14.5084L11.4913 2.15811C11.2725 1.9394 10.9758 1.81653 10.6665 1.81653C10.3571 1.81653 10.0604 1.9394 9.84166 2.15811L9.15799 2.84178Z" stroke="#2E2E2E" stroke-width="2" stroke-linecap="round" stroke-linejoin="round"/>
</svg>
