<svg width="160" height="160" viewBox="0 0 160 160" fill="none" xmlns="http://www.w3.org/2000/svg">
<g clip-path="url(#clip0_3229_3013)">
<g filter="url(#filter0_d_3229_3013)">
<path d="M81.0962 15.7562C100.014 2.51003 126.177 14.71 128.189 37.7161L134.831 113.636C136.844 136.642 113.197 153.2 92.2671 143.44L23.1971 111.232C2.26686 101.472 -0.24911 72.7148 18.6684 59.4686L81.0962 15.7562Z" fill="white"/>
</g>
<path d="M69.145 46.9429C63.5034 49.1914 59.2723 55.7326 60.2373 60.7065C60.5342 62.0693 60.3857 63.0913 59.8661 63.3639C57.8619 64.5222 61.6476 74.0613 65.8046 78.2177C72.6338 85.1676 80.7992 82.7828 86.1439 72.3579C88.5193 67.7927 89.1873 65.408 88.445 63.909C88.1481 63.2276 87.8512 60.5703 87.8512 58.0492C87.7769 53.484 87.7769 53.4159 84.4366 50.6223C78.9435 46.0572 74.1927 44.967 69.145 46.9429Z" fill="white"/>
<path d="M69.145 46.9429C63.5034 49.1914 59.2723 55.7326 60.2373 60.7065C60.5342 62.0693 60.3857 63.0913 59.8661 63.3639C57.8619 64.5222 61.6476 74.0613 65.8046 78.2177C72.6338 85.1676 80.7992 82.7828 86.1439 72.3579C88.5193 67.7927 89.1873 65.408 88.445 63.909C88.1481 63.2276 87.8512 60.5703 87.8512 58.0492C87.7769 53.484 87.7769 53.4159 84.4366 50.6223C78.9435 46.0572 74.1927 44.967 69.145 46.9429Z" fill="url(#paint0_radial_3229_3013)"/>
<path d="M59.1981 83.191C56.5257 84.4175 53.8534 85.4395 53.2596 85.5077C52.6657 85.5077 51.1069 86.1209 49.7707 86.8704C46.7273 88.5738 45.4653 92.1851 46.2076 97.4316C46.7273 101.247 46.7273 101.315 50.1419 102.678C57.268 105.472 64.3942 106.766 73.3019 106.834C77.9785 106.903 82.7293 106.698 83.917 106.426C85.7727 105.949 85.9212 105.676 85.9212 102.406C85.9212 95.7963 90.2266 90.4817 97.2043 88.5738L100.396 87.6881L97.427 86.5297C95.7939 85.9165 92.0824 84.3494 89.1874 83.1229L83.917 80.8063L81.022 89.3915L78.2012 97.9767L76.865 95.1831C75.6031 92.5258 75.6031 92.2532 76.7908 89.9366C78.7208 86.189 76.6423 84.0768 72.1142 85.0989C70.0358 85.5758 69.8131 87.3474 71.4462 90.2091C72.4112 91.9807 72.3369 92.4576 71.2977 95.0468L70.0358 97.9767L66.9923 89.4596L64.0231 80.8744L59.1981 83.191Z" fill="white"/>
<path d="M59.1981 83.191C56.5257 84.4175 53.8534 85.4395 53.2596 85.5077C52.6657 85.5077 51.1069 86.1209 49.7707 86.8704C46.7273 88.5738 45.4653 92.1851 46.2076 97.4316C46.7273 101.247 46.7273 101.315 50.1419 102.678C57.268 105.472 64.3942 106.766 73.3019 106.834C77.9785 106.903 82.7293 106.698 83.917 106.426C85.7727 105.949 85.9212 105.676 85.9212 102.406C85.9212 95.7963 90.2266 90.4817 97.2043 88.5738L100.396 87.6881L97.427 86.5297C95.7939 85.9165 92.0824 84.3494 89.1874 83.1229L83.917 80.8063L81.022 89.3915L78.2012 97.9767L76.865 95.1831C75.6031 92.5258 75.6031 92.2532 76.7908 89.9366C78.7208 86.189 76.6423 84.0768 72.1142 85.0989C70.0358 85.5758 69.8131 87.3474 71.4462 90.2091C72.4112 91.9807 72.3369 92.4576 71.2977 95.0468L70.0358 97.9767L66.9923 89.4596L64.0231 80.8744L59.1981 83.191Z" fill="url(#paint1_radial_3229_3013)"/>
<path d="M95.9424 91.2306C87.1089 94.8419 85.4758 105.267 92.8247 111.195C102.104 118.69 117.024 109.968 113.461 99.1345C111.234 92.2527 102.772 88.437 95.9424 91.2306ZM100.025 95.387C100.025 97.2948 99.7282 97.7718 98.5405 97.7718C96.7589 97.7718 96.6847 96.886 98.2436 94.7056C99.8024 92.4571 100.025 92.5252 100.025 95.387ZM105.221 97.2267C105.221 97.5673 104.553 97.7718 103.737 97.7718C102.549 97.7718 102.252 97.2948 102.252 95.1826V92.6615L103.737 94.7056C104.553 95.7958 105.221 96.9541 105.221 97.2267ZM95.2001 95.7277C94.532 96.8178 93.567 97.7718 92.9732 97.7718C91.4143 97.7718 91.5628 97.0904 93.4928 95.2507C95.7197 93.0703 96.5362 93.2747 95.2001 95.7277ZM109.452 96.1365C110.195 97.908 108.859 98.1806 107.374 96.4772C106.632 95.5914 105.964 94.6375 105.964 94.2968C105.964 93.3429 108.933 94.9782 109.452 96.1365ZM93.7897 102.405C93.9382 105.062 93.7897 105.335 92.3793 105.131C91.1916 104.994 90.672 104.381 90.5235 103.018C90.1524 100.361 90.8947 98.9982 92.3793 99.2708C93.2701 99.407 93.6412 100.293 93.7897 102.405ZM100.025 102.201C100.025 104.994 99.8766 105.267 98.2436 105.267C97.0559 105.267 96.3136 104.79 96.0166 103.7C95.3486 101.11 96.3136 99.1345 98.2436 99.1345C99.8766 99.1345 100.025 99.407 100.025 102.201ZM105.964 102.201C105.964 104.994 105.815 105.267 104.108 105.267C102.4 105.267 102.252 104.994 102.252 102.201C102.252 99.407 102.4 99.1345 104.108 99.1345C105.815 99.1345 105.964 99.407 105.964 102.201ZM111.531 102.201C111.531 104.517 111.308 104.926 109.898 105.131C108.339 105.335 108.191 105.062 108.191 102.201C108.191 99.3389 108.339 99.0664 109.898 99.2708C111.308 99.4752 111.531 99.884 111.531 102.201ZM95.4228 109.014C95.8682 109.968 96.0166 110.718 95.7197 110.718C95.3486 110.718 94.3093 109.968 93.3443 109.014C91.7112 107.379 91.637 107.311 93.1216 107.311C93.9382 107.311 94.9774 107.992 95.4228 109.014ZM100.025 109.491V111.74L98.5405 110.036C96.6847 107.856 96.6847 107.311 98.5405 107.311C99.7282 107.311 100.025 107.788 100.025 109.491ZM104.553 108.469C102.549 111.672 102.252 111.808 102.252 109.491C102.252 107.72 102.549 107.311 103.737 107.311C104.999 107.311 105.147 107.515 104.553 108.469ZM109.527 108.129C109.378 108.537 108.413 109.355 107.448 109.968C106.483 110.581 105.815 110.718 106.038 110.377C106.261 109.968 106.706 109.151 106.929 108.469C107.448 107.175 109.972 106.834 109.527 108.129Z" fill="white"/>
<path d="M95.9424 91.2306C87.1089 94.8419 85.4758 105.267 92.8247 111.195C102.104 118.69 117.024 109.968 113.461 99.1345C111.234 92.2527 102.772 88.437 95.9424 91.2306ZM100.025 95.387C100.025 97.2948 99.7282 97.7718 98.5405 97.7718C96.7589 97.7718 96.6847 96.886 98.2436 94.7056C99.8024 92.4571 100.025 92.5252 100.025 95.387ZM105.221 97.2267C105.221 97.5673 104.553 97.7718 103.737 97.7718C102.549 97.7718 102.252 97.2948 102.252 95.1826V92.6615L103.737 94.7056C104.553 95.7958 105.221 96.9541 105.221 97.2267ZM95.2001 95.7277C94.532 96.8178 93.567 97.7718 92.9732 97.7718C91.4143 97.7718 91.5628 97.0904 93.4928 95.2507C95.7197 93.0703 96.5362 93.2747 95.2001 95.7277ZM109.452 96.1365C110.195 97.908 108.859 98.1806 107.374 96.4772C106.632 95.5914 105.964 94.6375 105.964 94.2968C105.964 93.3429 108.933 94.9782 109.452 96.1365ZM93.7897 102.405C93.9382 105.062 93.7897 105.335 92.3793 105.131C91.1916 104.994 90.672 104.381 90.5235 103.018C90.1524 100.361 90.8947 98.9982 92.3793 99.2708C93.2701 99.407 93.6412 100.293 93.7897 102.405ZM100.025 102.201C100.025 104.994 99.8766 105.267 98.2436 105.267C97.0559 105.267 96.3136 104.79 96.0166 103.7C95.3486 101.11 96.3136 99.1345 98.2436 99.1345C99.8766 99.1345 100.025 99.407 100.025 102.201ZM105.964 102.201C105.964 104.994 105.815 105.267 104.108 105.267C102.4 105.267 102.252 104.994 102.252 102.201C102.252 99.407 102.4 99.1345 104.108 99.1345C105.815 99.1345 105.964 99.407 105.964 102.201ZM111.531 102.201C111.531 104.517 111.308 104.926 109.898 105.131C108.339 105.335 108.191 105.062 108.191 102.201C108.191 99.3389 108.339 99.0664 109.898 99.2708C111.308 99.4752 111.531 99.884 111.531 102.201ZM95.4228 109.014C95.8682 109.968 96.0166 110.718 95.7197 110.718C95.3486 110.718 94.3093 109.968 93.3443 109.014C91.7112 107.379 91.637 107.311 93.1216 107.311C93.9382 107.311 94.9774 107.992 95.4228 109.014ZM100.025 109.491V111.74L98.5405 110.036C96.6847 107.856 96.6847 107.311 98.5405 107.311C99.7282 107.311 100.025 107.788 100.025 109.491ZM104.553 108.469C102.549 111.672 102.252 111.808 102.252 109.491C102.252 107.72 102.549 107.311 103.737 107.311C104.999 107.311 105.147 107.515 104.553 108.469ZM109.527 108.129C109.378 108.537 108.413 109.355 107.448 109.968C106.483 110.581 105.815 110.718 106.038 110.377C106.261 109.968 106.706 109.151 106.929 108.469C107.448 107.175 109.972 106.834 109.527 108.129Z" fill="url(#paint2_radial_3229_3013)"/>
</g>
<defs>
<filter id="filter0_d_3229_3013" x="-7.12666" y="7.29297" width="145.078" height="152.004" filterUnits="userSpaceOnUse" color-interpolation-filters="sRGB">
<feFlood flood-opacity="0" result="BackgroundImageFix"/>
<feColorMatrix in="SourceAlpha" type="matrix" values="0 0 0 0 0 0 0 0 0 0 0 0 0 0 0 0 0 0 127 0" result="hardAlpha"/>
<feOffset dx="-5" dy="5"/>
<feGaussianBlur stdDeviation="4"/>
<feComposite in2="hardAlpha" operator="out"/>
<feColorMatrix type="matrix" values="0 0 0 0 0 0 0 0 0 0 0 0 0 0 0 0 0 0 0.25 0"/>
<feBlend mode="normal" in2="BackgroundImageFix" result="effect1_dropShadow_3229_3013"/>
<feBlend mode="normal" in="SourceGraphic" in2="effect1_dropShadow_3229_3013" result="shape"/>
</filter>
<radialGradient id="paint0_radial_3229_3013" cx="0" cy="0" r="1" gradientUnits="userSpaceOnUse" gradientTransform="translate(65.0344 74.935) rotate(-40.483) scale(59.7423 62.9806)">
<stop stop-color="#00862D"/>
<stop offset="0.627261" stop-color="#0033CC"/>
</radialGradient>
<radialGradient id="paint1_radial_3229_3013" cx="0" cy="0" r="1" gradientUnits="userSpaceOnUse" gradientTransform="translate(56.5779 101.64) rotate(-18.3866) scale(88.5383 56.5782)">
<stop stop-color="#00862D"/>
<stop offset="0.627261" stop-color="#0033CC"/>
</radialGradient>
<radialGradient id="paint2_radial_3229_3013" cx="0" cy="0" r="1" gradientUnits="userSpaceOnUse" gradientTransform="translate(93.2051 109.262) rotate(-32.5058) scale(47.2797 45.7443)">
<stop stop-color="#00862D"/>
<stop offset="0.627261" stop-color="#0033CC"/>
</radialGradient>
<clipPath id="clip0_3229_3013">
<rect width="160" height="160" fill="white"/>
</clipPath>
</defs>
</svg>
