<svg width="160" height="160" viewBox="0 0 160 160" fill="none" xmlns="http://www.w3.org/2000/svg">
<g clip-path="url(#clip0_3229_3008)">
<g filter="url(#filter0_d_3229_3008)">
<path d="M81.0962 15.7562C100.014 2.51003 126.177 14.71 128.189 37.7161L134.831 113.636C136.844 136.642 113.197 153.2 92.2671 143.44L23.1971 111.232C2.26686 101.472 -0.24911 72.7148 18.6684 59.4686L81.0962 15.7562Z" fill="white"/>
</g>
<path d="M47.856 46.1418C47.2977 46.2835 46.7925 46.6805 46.4203 47.2759C45.6226 48.5094 45.9949 50.1681 47.2445 50.9195C47.7497 51.2314 47.9225 51.2455 50.6744 51.2455C52.2564 51.2455 53.5592 51.2881 53.5592 51.3448C53.5725 51.4157 54.636 63.3812 55.9389 77.9411L58.3052 104.438L58.6907 105.005C59.4086 106.097 59.7144 106.182 63.1709 106.224C65.9493 106.267 66.2019 106.295 66.1089 106.508C65.6967 107.543 65.6303 107.954 65.6834 109.088C65.7499 110.478 66.1089 111.385 66.9863 112.406C68.7145 114.405 71.7588 114.546 73.7264 112.703C75.335 111.186 75.787 108.748 74.883 106.423C74.8165 106.295 76.4384 106.253 82.7265 106.253C87.087 106.253 90.6498 106.295 90.6498 106.352C90.6365 106.423 90.5301 106.82 90.3839 107.245C89.5464 109.797 90.8891 112.732 93.3618 113.71C94.412 114.121 95.9541 114.079 96.9246 113.597C99.4239 112.363 100.541 109.4 99.5036 106.763L99.3042 106.253H101.95C104.888 106.253 105.752 106.125 106.363 105.572C106.869 105.119 107.267 104.225 107.267 103.559C107.267 102.836 106.842 101.957 106.257 101.489L105.765 101.078L84.3484 101.007L62.9316 100.936L62.6391 97.8174C62.4929 96.102 62.32 94.3298 62.2802 93.8903L62.2004 93.0681H84.9732H107.746L110.844 77.6434C112.545 69.1654 113.968 62.1194 113.994 61.9776C114.061 61.7508 113.662 61.7366 107.015 61.7366H99.9556V56.4911V51.2455H91.3809H82.8062L82.7797 48.6511L82.7398 46.0709L72.942 46.0284L63.131 46V53.8683V61.7366H61.2698C60.2462 61.7366 59.4086 61.7083 59.4086 61.6657C59.4086 60.6733 58.159 47.9848 58.026 47.6587C57.8 47.0916 57.4012 46.6522 56.8429 46.3261C56.4706 46.0992 55.9522 46.0709 52.3628 46.0425C50.1293 46.0284 48.1086 46.0709 47.856 46.1418Z" fill="white"/>
<path d="M47.856 46.1418C47.2977 46.2835 46.7925 46.6805 46.4203 47.2759C45.6226 48.5094 45.9949 50.1681 47.2445 50.9195C47.7497 51.2314 47.9225 51.2455 50.6744 51.2455C52.2564 51.2455 53.5592 51.2881 53.5592 51.3448C53.5725 51.4157 54.636 63.3812 55.9389 77.9411L58.3052 104.438L58.6907 105.005C59.4086 106.097 59.7144 106.182 63.1709 106.224C65.9493 106.267 66.2019 106.295 66.1089 106.508C65.6967 107.543 65.6303 107.954 65.6834 109.088C65.7499 110.478 66.1089 111.385 66.9863 112.406C68.7145 114.405 71.7588 114.546 73.7264 112.703C75.335 111.186 75.787 108.748 74.883 106.423C74.8165 106.295 76.4384 106.253 82.7265 106.253C87.087 106.253 90.6498 106.295 90.6498 106.352C90.6365 106.423 90.5301 106.82 90.3839 107.245C89.5464 109.797 90.8891 112.732 93.3618 113.71C94.412 114.121 95.9541 114.079 96.9246 113.597C99.4239 112.363 100.541 109.4 99.5036 106.763L99.3042 106.253H101.95C104.888 106.253 105.752 106.125 106.363 105.572C106.869 105.119 107.267 104.225 107.267 103.559C107.267 102.836 106.842 101.957 106.257 101.489L105.765 101.078L84.3484 101.007L62.9316 100.936L62.6391 97.8174C62.4929 96.102 62.32 94.3298 62.2802 93.8903L62.2004 93.0681H84.9732H107.746L110.844 77.6434C112.545 69.1654 113.968 62.1194 113.994 61.9776C114.061 61.7508 113.662 61.7366 107.015 61.7366H99.9556V56.4911V51.2455H91.3809H82.8062L82.7797 48.6511L82.7398 46.0709L72.942 46.0284L63.131 46V53.8683V61.7366H61.2698C60.2462 61.7366 59.4086 61.7083 59.4086 61.6657C59.4086 60.6733 58.159 47.9848 58.026 47.6587C57.8 47.0916 57.4012 46.6522 56.8429 46.3261C56.4706 46.0992 55.9522 46.0709 52.3628 46.0425C50.1293 46.0284 48.1086 46.0709 47.856 46.1418Z" fill="url(#paint0_radial_3229_3008)"/>
</g>
<defs>
<filter id="filter0_d_3229_3008" x="-7.12665" y="7.29297" width="145.078" height="152.004" filterUnits="userSpaceOnUse" color-interpolation-filters="sRGB">
<feFlood flood-opacity="0" result="BackgroundImageFix"/>
<feColorMatrix in="SourceAlpha" type="matrix" values="0 0 0 0 0 0 0 0 0 0 0 0 0 0 0 0 0 0 127 0" result="hardAlpha"/>
<feOffset dx="-5" dy="5"/>
<feGaussianBlur stdDeviation="4"/>
<feComposite in2="hardAlpha" operator="out"/>
<feColorMatrix type="matrix" values="0 0 0 0 0 0 0 0 0 0 0 0 0 0 0 0 0 0 0.25 0"/>
<feBlend mode="normal" in2="BackgroundImageFix" result="effect1_dropShadow_3229_3008"/>
<feBlend mode="normal" in="SourceGraphic" in2="effect1_dropShadow_3229_3008" result="shape"/>
</filter>
<radialGradient id="paint0_radial_3229_3008" cx="0" cy="0" r="1" gradientUnits="userSpaceOnUse" gradientTransform="translate(59.2232 100.401) rotate(-34.773) scale(127.865 127.883)">
<stop stop-color="#00862D"/>
<stop offset="0.627261" stop-color="#0033CC"/>
</radialGradient>
<clipPath id="clip0_3229_3008">
<rect width="160" height="160" fill="white"/>
</clipPath>
</defs>
</svg>
