<svg width="160" height="160" viewBox="0 0 160 160" fill="none" xmlns="http://www.w3.org/2000/svg">
<g clip-path="url(#clip0_3229_1827)">
<g filter="url(#filter0_d_3229_1827)">
<path d="M81.0962 15.7562C100.014 2.51003 126.177 14.71 128.189 37.7161L134.831 113.636C136.844 136.642 113.197 153.2 92.2671 143.44L23.1971 111.232C2.26686 101.472 -0.24911 72.7148 18.6684 59.4686L81.0962 15.7562Z" fill="white"/>
</g>
<path d="M55.4084 51.163C51.9014 51.7553 48.5538 54.3668 46.9863 57.759C46.7206 58.3109 46.4151 59.1185 46.2955 59.5628C45.9767 60.7473 45.897 63.3588 46.1494 64.678C46.9863 69.174 50.3472 72.7546 54.6512 73.7642C55.7671 74.02 56.2054 74.0604 57.8394 74.0065C59.5265 73.9527 59.8586 73.8988 61.0143 73.495C64.8666 72.1893 67.8157 68.9048 68.626 65.0145C68.9449 63.4934 68.8917 61.1377 68.5065 59.6031C67.0718 53.8687 61.3331 50.1669 55.4084 51.163ZM54.2925 57.3282C54.5715 57.5436 55.3818 58.2974 56.0726 59.0109C56.7634 59.7243 57.3744 60.3031 57.4409 60.3031C57.5073 60.3031 58.291 59.5762 59.1944 58.6878C60.0977 57.8128 60.9877 57.0455 61.1737 56.9917C62.1833 56.7359 63.3124 57.8532 63.06 58.8762C63.0202 59.0512 62.2231 59.9531 61.2932 60.8819L59.5929 62.578L61.2667 64.3011C62.4091 65.4856 62.9803 66.1587 63.0334 66.4414C63.2327 67.3164 62.5021 68.2452 61.6253 68.2452C61.3331 68.2452 60.9744 68.1779 60.815 68.0971C60.6556 68.0163 59.8187 67.2356 58.9552 66.3741L57.3877 64.8126L55.7272 66.5221C54.3988 67.8817 53.9604 68.2586 53.5885 68.3259C52.7782 68.474 51.8881 67.8548 51.8217 67.101C51.742 66.3741 51.8748 66.1722 53.4822 64.4895C54.3988 63.5338 55.1427 62.6992 55.1427 62.6454C55.1427 62.5915 54.3988 61.7838 53.5088 60.8416C52.5125 59.8185 51.835 58.9974 51.7951 58.7955C51.6889 58.2436 51.9811 57.584 52.4726 57.2474C53.0837 56.8302 53.6549 56.8571 54.2925 57.3282Z" fill="white"/>
<path d="M55.4084 51.163C51.9014 51.7553 48.5538 54.3668 46.9863 57.759C46.7206 58.3109 46.4151 59.1185 46.2955 59.5628C45.9767 60.7473 45.897 63.3588 46.1494 64.678C46.9863 69.174 50.3472 72.7546 54.6512 73.7642C55.7671 74.02 56.2054 74.0604 57.8394 74.0065C59.5265 73.9527 59.8586 73.8988 61.0143 73.495C64.8666 72.1893 67.8157 68.9048 68.626 65.0145C68.9449 63.4934 68.8917 61.1377 68.5065 59.6031C67.0718 53.8687 61.3331 50.1669 55.4084 51.163ZM54.2925 57.3282C54.5715 57.5436 55.3818 58.2974 56.0726 59.0109C56.7634 59.7243 57.3744 60.3031 57.4409 60.3031C57.5073 60.3031 58.291 59.5762 59.1944 58.6878C60.0977 57.8128 60.9877 57.0455 61.1737 56.9917C62.1833 56.7359 63.3124 57.8532 63.06 58.8762C63.0202 59.0512 62.2231 59.9531 61.2932 60.8819L59.5929 62.578L61.2667 64.3011C62.4091 65.4856 62.9803 66.1587 63.0334 66.4414C63.2327 67.3164 62.5021 68.2452 61.6253 68.2452C61.3331 68.2452 60.9744 68.1779 60.815 68.0971C60.6556 68.0163 59.8187 67.2356 58.9552 66.3741L57.3877 64.8126L55.7272 66.5221C54.3988 67.8817 53.9604 68.2586 53.5885 68.3259C52.7782 68.474 51.8881 67.8548 51.8217 67.101C51.742 66.3741 51.8748 66.1722 53.4822 64.4895C54.3988 63.5338 55.1427 62.6992 55.1427 62.6454C55.1427 62.5915 54.3988 61.7838 53.5088 60.8416C52.5125 59.8185 51.835 58.9974 51.7951 58.7955C51.6889 58.2436 51.9811 57.584 52.4726 57.2474C53.0837 56.8302 53.6549 56.8571 54.2925 57.3282Z" fill="url(#paint0_linear_3229_1827)"/>
<path d="M55.4084 51.163C51.9014 51.7553 48.5538 54.3668 46.9863 57.759C46.7206 58.3109 46.4151 59.1185 46.2955 59.5628C45.9767 60.7473 45.897 63.3588 46.1494 64.678C46.9863 69.174 50.3472 72.7546 54.6512 73.7642C55.7671 74.02 56.2054 74.0604 57.8394 74.0065C59.5265 73.9527 59.8586 73.8988 61.0143 73.495C64.8666 72.1893 67.8157 68.9048 68.626 65.0145C68.9449 63.4934 68.8917 61.1377 68.5065 59.6031C67.0718 53.8687 61.3331 50.1669 55.4084 51.163ZM54.2925 57.3282C54.5715 57.5436 55.3818 58.2974 56.0726 59.0109C56.7634 59.7243 57.3744 60.3031 57.4409 60.3031C57.5073 60.3031 58.291 59.5762 59.1944 58.6878C60.0977 57.8128 60.9877 57.0455 61.1737 56.9917C62.1833 56.7359 63.3124 57.8532 63.06 58.8762C63.0202 59.0512 62.2231 59.9531 61.2932 60.8819L59.5929 62.578L61.2667 64.3011C62.4091 65.4856 62.9803 66.1587 63.0334 66.4414C63.2327 67.3164 62.5021 68.2452 61.6253 68.2452C61.3331 68.2452 60.9744 68.1779 60.815 68.0971C60.6556 68.0163 59.8187 67.2356 58.9552 66.3741L57.3877 64.8126L55.7272 66.5221C54.3988 67.8817 53.9604 68.2586 53.5885 68.3259C52.7782 68.474 51.8881 67.8548 51.8217 67.101C51.742 66.3741 51.8748 66.1722 53.4822 64.4895C54.3988 63.5338 55.1427 62.6992 55.1427 62.6454C55.1427 62.5915 54.3988 61.7838 53.5088 60.8416C52.5125 59.8185 51.835 58.9974 51.7951 58.7955C51.6889 58.2436 51.9811 57.584 52.4726 57.2474C53.0837 56.8302 53.6549 56.8571 54.2925 57.3282Z" fill="url(#paint1_radial_3229_1827)"/>
<path d="M100.574 51.163C97.0672 51.7553 93.7196 54.3668 92.1521 57.759C91.8864 58.3109 91.5809 59.1185 91.4613 59.5628C91.1425 60.7473 91.0628 63.3588 91.3152 64.678C92.1521 69.174 95.5129 72.7546 99.817 73.7642C100.933 74.02 101.371 74.0604 103.005 74.0065C104.692 73.9527 105.024 73.8988 106.18 73.495C110.032 72.1893 112.981 68.9048 113.792 65.0145C114.111 63.4934 114.057 61.1377 113.672 59.6031C112.238 53.8687 106.499 50.1669 100.574 51.163ZM107.894 58.0551C108.372 58.3782 108.677 59.0512 108.571 59.5762C108.518 59.8993 101.77 66.8048 101.199 67.1279C100.8 67.3567 99.9764 67.3433 99.538 67.1144C98.9934 66.8318 96.7484 64.4222 96.6421 64.0184C96.3897 62.9819 97.4923 61.8511 98.5018 62.1069C98.6745 62.1473 99.1528 62.4838 99.5513 62.8607C99.9498 63.2242 100.348 63.5338 100.441 63.5338C100.521 63.5338 101.823 62.3357 103.337 60.8685C104.852 59.4012 106.233 58.0955 106.419 57.9743C106.871 57.6647 107.362 57.6917 107.894 58.0551Z" fill="white"/>
<path d="M100.574 51.163C97.0672 51.7553 93.7196 54.3668 92.1521 57.759C91.8864 58.3109 91.5809 59.1185 91.4613 59.5628C91.1425 60.7473 91.0628 63.3588 91.3152 64.678C92.1521 69.174 95.5129 72.7546 99.817 73.7642C100.933 74.02 101.371 74.0604 103.005 74.0065C104.692 73.9527 105.024 73.8988 106.18 73.495C110.032 72.1893 112.981 68.9048 113.792 65.0145C114.111 63.4934 114.057 61.1377 113.672 59.6031C112.238 53.8687 106.499 50.1669 100.574 51.163ZM107.894 58.0551C108.372 58.3782 108.677 59.0512 108.571 59.5762C108.518 59.8993 101.77 66.8048 101.199 67.1279C100.8 67.3567 99.9764 67.3433 99.538 67.1144C98.9934 66.8318 96.7484 64.4222 96.6421 64.0184C96.3897 62.9819 97.4923 61.8511 98.5018 62.1069C98.6745 62.1473 99.1528 62.4838 99.5513 62.8607C99.9498 63.2242 100.348 63.5338 100.441 63.5338C100.521 63.5338 101.823 62.3357 103.337 60.8685C104.852 59.4012 106.233 58.0955 106.419 57.9743C106.871 57.6647 107.362 57.6917 107.894 58.0551Z" fill="url(#paint2_linear_3229_1827)"/>
<path d="M100.574 51.163C97.0672 51.7553 93.7196 54.3668 92.1521 57.759C91.8864 58.3109 91.5809 59.1185 91.4613 59.5628C91.1425 60.7473 91.0628 63.3588 91.3152 64.678C92.1521 69.174 95.5129 72.7546 99.817 73.7642C100.933 74.02 101.371 74.0604 103.005 74.0065C104.692 73.9527 105.024 73.8988 106.18 73.495C110.032 72.1893 112.981 68.9048 113.792 65.0145C114.111 63.4934 114.057 61.1377 113.672 59.6031C112.238 53.8687 106.499 50.1669 100.574 51.163ZM107.894 58.0551C108.372 58.3782 108.677 59.0512 108.571 59.5762C108.518 59.8993 101.77 66.8048 101.199 67.1279C100.8 67.3567 99.9764 67.3433 99.538 67.1144C98.9934 66.8318 96.7484 64.4222 96.6421 64.0184C96.3897 62.9819 97.4923 61.8511 98.5018 62.1069C98.6745 62.1473 99.1528 62.4838 99.5513 62.8607C99.9498 63.2242 100.348 63.5338 100.441 63.5338C100.521 63.5338 101.823 62.3357 103.337 60.8685C104.852 59.4012 106.233 58.0955 106.419 57.9743C106.871 57.6647 107.362 57.6917 107.894 58.0551Z" fill="url(#paint3_radial_3229_1827)"/>
<path d="M74.936 61.5011C74.1788 61.7434 73.4747 62.2145 72.8504 62.9145C71.7079 64.1664 71.7478 63.8702 71.7478 72.418V79.9024L70.6319 78.8255C70.0209 78.2197 69.2105 77.5467 68.812 77.3313C68.1478 76.9544 68.0017 76.9275 66.6998 76.9275C65.5043 76.9275 65.212 76.9679 64.6807 77.2371C63.8438 77.6544 63.0069 78.5294 62.5951 79.4178C62.3028 80.0505 62.2497 80.3331 62.2497 81.437C62.2497 82.5138 62.3028 82.81 62.5685 83.3215C62.7678 83.7119 64.3087 85.3945 66.8991 88.0329C71.7611 92.9866 71.5618 92.65 71.8142 95.8807C72.0932 99.3537 72.6245 100.417 74.4179 101.104C75.0422 101.346 75.5869 101.359 84.6333 101.359C94.065 101.359 94.1978 101.359 94.955 101.077C96.0045 100.673 97.107 99.5556 97.5056 98.4922C97.7845 97.7249 97.7845 97.6037 97.7845 87.1579C97.7845 76.8736 97.7712 76.5775 97.5188 75.8641C96.7085 73.6968 94.065 72.4315 91.913 73.1988L91.1691 73.468L90.7307 72.9968C89.6945 71.9334 87.6886 71.4488 86.1743 71.9334L85.5101 72.1353L84.992 71.6507C84.0887 70.8296 83.4245 70.6008 81.9366 70.6008H80.6481V67.747C80.6481 65.149 80.6215 64.8125 80.3558 64.1125C79.9706 63.076 78.9743 62.0664 77.9514 61.6761C77.1677 61.3665 75.64 61.2857 74.936 61.5011Z" fill="white"/>
<path d="M74.936 61.5011C74.1788 61.7434 73.4747 62.2145 72.8504 62.9145C71.7079 64.1664 71.7478 63.8702 71.7478 72.418V79.9024L70.6319 78.8255C70.0209 78.2197 69.2105 77.5467 68.812 77.3313C68.1478 76.9544 68.0017 76.9275 66.6998 76.9275C65.5043 76.9275 65.212 76.9679 64.6807 77.2371C63.8438 77.6544 63.0069 78.5294 62.5951 79.4178C62.3028 80.0505 62.2497 80.3331 62.2497 81.437C62.2497 82.5138 62.3028 82.81 62.5685 83.3215C62.7678 83.7119 64.3087 85.3945 66.8991 88.0329C71.7611 92.9866 71.5618 92.65 71.8142 95.8807C72.0932 99.3537 72.6245 100.417 74.4179 101.104C75.0422 101.346 75.5869 101.359 84.6333 101.359C94.065 101.359 94.1978 101.359 94.955 101.077C96.0045 100.673 97.107 99.5556 97.5056 98.4922C97.7845 97.7249 97.7845 97.6037 97.7845 87.1579C97.7845 76.8736 97.7712 76.5775 97.5188 75.8641C96.7085 73.6968 94.065 72.4315 91.913 73.1988L91.1691 73.468L90.7307 72.9968C89.6945 71.9334 87.6886 71.4488 86.1743 71.9334L85.5101 72.1353L84.992 71.6507C84.0887 70.8296 83.4245 70.6008 81.9366 70.6008H80.6481V67.747C80.6481 65.149 80.6215 64.8125 80.3558 64.1125C79.9706 63.076 78.9743 62.0664 77.9514 61.6761C77.1677 61.3665 75.64 61.2857 74.936 61.5011Z" fill="url(#paint4_linear_3229_1827)"/>
<path d="M74.936 61.5011C74.1788 61.7434 73.4747 62.2145 72.8504 62.9145C71.7079 64.1664 71.7478 63.8702 71.7478 72.418V79.9024L70.6319 78.8255C70.0209 78.2197 69.2105 77.5467 68.812 77.3313C68.1478 76.9544 68.0017 76.9275 66.6998 76.9275C65.5043 76.9275 65.212 76.9679 64.6807 77.2371C63.8438 77.6544 63.0069 78.5294 62.5951 79.4178C62.3028 80.0505 62.2497 80.3331 62.2497 81.437C62.2497 82.5138 62.3028 82.81 62.5685 83.3215C62.7678 83.7119 64.3087 85.3945 66.8991 88.0329C71.7611 92.9866 71.5618 92.65 71.8142 95.8807C72.0932 99.3537 72.6245 100.417 74.4179 101.104C75.0422 101.346 75.5869 101.359 84.6333 101.359C94.065 101.359 94.1978 101.359 94.955 101.077C96.0045 100.673 97.107 99.5556 97.5056 98.4922C97.7845 97.7249 97.7845 97.6037 97.7845 87.1579C97.7845 76.8736 97.7712 76.5775 97.5188 75.8641C96.7085 73.6968 94.065 72.4315 91.913 73.1988L91.1691 73.468L90.7307 72.9968C89.6945 71.9334 87.6886 71.4488 86.1743 71.9334L85.5101 72.1353L84.992 71.6507C84.0887 70.8296 83.4245 70.6008 81.9366 70.6008H80.6481V67.747C80.6481 65.149 80.6215 64.8125 80.3558 64.1125C79.9706 63.076 78.9743 62.0664 77.9514 61.6761C77.1677 61.3665 75.64 61.2857 74.936 61.5011Z" fill="url(#paint5_radial_3229_1827)"/>
<path d="M84.2082 104.55L75.0688 104.591V106.152V107.714L75.5205 108.171L75.9721 108.629H84.899H93.8259L94.2775 108.171L94.7292 107.714V106.085V104.456L94.0384 104.483C93.6532 104.51 89.2296 104.537 84.2082 104.55Z" fill="white"/>
<path d="M84.2082 104.55L75.0688 104.591V106.152V107.714L75.5205 108.171L75.9721 108.629H84.899H93.8259L94.2775 108.171L94.7292 107.714V106.085V104.456L94.0384 104.483C93.6532 104.51 89.2296 104.537 84.2082 104.55Z" fill="url(#paint6_linear_3229_1827)"/>
<path d="M84.2082 104.55L75.0688 104.591V106.152V107.714L75.5205 108.171L75.9721 108.629H84.899H93.8259L94.2775 108.171L94.7292 107.714V106.085V104.456L94.0384 104.483C93.6532 104.51 89.2296 104.537 84.2082 104.55Z" fill="url(#paint7_radial_3229_1827)"/>
</g>
<defs>
<filter id="filter0_d_3229_1827" x="-7.12666" y="7.29297" width="145.078" height="152.004" filterUnits="userSpaceOnUse" color-interpolation-filters="sRGB">
<feFlood flood-opacity="0" result="BackgroundImageFix"/>
<feColorMatrix in="SourceAlpha" type="matrix" values="0 0 0 0 0 0 0 0 0 0 0 0 0 0 0 0 0 0 127 0" result="hardAlpha"/>
<feOffset dx="-5" dy="5"/>
<feGaussianBlur stdDeviation="4"/>
<feComposite in2="hardAlpha" operator="out"/>
<feColorMatrix type="matrix" values="0 0 0 0 0 0 0 0 0 0 0 0 0 0 0 0 0 0 0.25 0"/>
<feBlend mode="normal" in2="BackgroundImageFix" result="effect1_dropShadow_3229_1827"/>
<feBlend mode="normal" in="SourceGraphic" in2="effect1_dropShadow_3229_1827" result="shape"/>
</filter>
<linearGradient id="paint0_linear_3229_1827" x1="73.5153" y1="83.1226" x2="36.7759" y2="44.9761" gradientUnits="userSpaceOnUse">
<stop offset="0.291277" stop-color="#C8FC36"/>
<stop offset="0.867194" stop-color="#0E9C47"/>
</linearGradient>
<radialGradient id="paint1_radial_3229_1827" cx="0" cy="0" r="1" gradientUnits="userSpaceOnUse" gradientTransform="translate(50.4403 69.4224) rotate(-34.9979) scale(43.0543 43.1853)">
<stop stop-color="#00862D"/>
<stop offset="0.627261" stop-color="#0033CC"/>
</radialGradient>
<linearGradient id="paint2_linear_3229_1827" x1="118.681" y1="83.1226" x2="81.9416" y2="44.9761" gradientUnits="userSpaceOnUse">
<stop offset="0.291277" stop-color="#C8FC36"/>
<stop offset="0.867194" stop-color="#0E9C47"/>
</linearGradient>
<radialGradient id="paint3_radial_3229_1827" cx="0" cy="0" r="1" gradientUnits="userSpaceOnUse" gradientTransform="translate(95.6061 69.4224) rotate(-34.9979) scale(43.0543 43.1853)">
<stop stop-color="#00862D"/>
<stop offset="0.627261" stop-color="#0033CC"/>
</radialGradient>
<linearGradient id="paint4_linear_3229_1827" x1="105.069" y1="117.151" x2="41.3996" y2="57.8986" gradientUnits="userSpaceOnUse">
<stop offset="0.291277" stop-color="#C8FC36"/>
<stop offset="0.867194" stop-color="#0E9C47"/>
</linearGradient>
<radialGradient id="paint5_radial_3229_1827" cx="0" cy="0" r="1" gradientUnits="userSpaceOnUse" gradientTransform="translate(69.1598 93.364) rotate(-37.9955) scale(69.6468 72.133)">
<stop stop-color="#00862D"/>
<stop offset="0.627261" stop-color="#0033CC"/>
</radialGradient>
<linearGradient id="paint6_linear_3229_1827" x1="98.7596" y1="110.277" x2="96.1648" y2="97.4775" gradientUnits="userSpaceOnUse">
<stop offset="0.291277" stop-color="#C8FC36"/>
<stop offset="0.867194" stop-color="#0E9C47"/>
</linearGradient>
<radialGradient id="paint7_radial_3229_1827" cx="0" cy="0" r="1" gradientUnits="userSpaceOnUse" gradientTransform="translate(78.8919 107.794) rotate(-8.38335) scale(30.6947 9.45187)">
<stop stop-color="#00862D"/>
<stop offset="0.627261" stop-color="#0033CC"/>
</radialGradient>
<clipPath id="clip0_3229_1827">
<rect width="160" height="160" fill="white"/>
</clipPath>
</defs>
</svg>
