<svg width="160" height="160" viewBox="0 0 160 160" fill="none" xmlns="http://www.w3.org/2000/svg">
<g clip-path="url(#clip0_3227_1820)">
<g filter="url(#filter0_d_3227_1820)">
<path d="M81.0962 15.7562C100.014 2.51003 126.177 14.71 128.189 37.7161L134.831 113.636C136.844 136.642 113.197 153.2 92.2671 143.44L23.1971 111.232C2.26686 101.472 -0.24911 72.7148 18.6684 59.4686L81.0962 15.7562Z" fill="white"/>
</g>
<path d="M64.5254 56.2V66.3999H70.0389H75.5524L77.4638 69.1199C78.5665 70.6159 79.6692 71.8398 79.9632 71.8398C80.2573 71.8398 81.4335 70.6159 82.5362 69.1199L84.5946 66.3999H89.5935H94.6659V56.2V46.0001H79.5957H64.5254V56.2ZM82.5362 49.8761C85.4032 52.868 84.4476 54.976 81.4335 52.46C79.9632 51.236 77.6108 51.848 77.9049 53.344C78.0519 53.956 79.0811 54.636 80.2573 54.908C82.9773 55.588 85.1092 57.424 85.1092 59.056C85.1092 59.736 84.3005 61.0959 83.2713 62.0479C82.2421 62.9999 81.4335 64.0199 81.4335 64.3599C81.4335 64.7679 80.7719 65.0399 79.9632 65.0399C79.1546 65.0399 78.493 64.6999 78.493 64.2919C78.493 63.8839 77.6843 62.9319 76.6551 62.1839C75.6259 61.4359 74.8173 60.416 74.8173 59.94C74.8173 58.24 76.4346 58.036 77.7578 59.6C79.1546 61.2999 81.654 61.2319 82.0216 59.396C82.2421 58.58 81.36 57.9 79.0076 56.948C77.2432 56.2 75.5524 55.112 75.2584 54.5C74.7438 53.208 76.5816 50.0801 77.7578 50.0801C78.1989 50.0801 78.493 49.6041 78.493 49.0601C78.493 47.4281 80.6249 47.9041 82.5362 49.8761Z" fill="white"/>
<path d="M64.5254 56.2V66.3999H70.0389H75.5524L77.4638 69.1199C78.5665 70.6159 79.6692 71.8398 79.9632 71.8398C80.2573 71.8398 81.4335 70.6159 82.5362 69.1199L84.5946 66.3999H89.5935H94.6659V56.2V46.0001H79.5957H64.5254V56.2ZM82.5362 49.8761C85.4032 52.868 84.4476 54.976 81.4335 52.46C79.9632 51.236 77.6108 51.848 77.9049 53.344C78.0519 53.956 79.0811 54.636 80.2573 54.908C82.9773 55.588 85.1092 57.424 85.1092 59.056C85.1092 59.736 84.3005 61.0959 83.2713 62.0479C82.2421 62.9999 81.4335 64.0199 81.4335 64.3599C81.4335 64.7679 80.7719 65.0399 79.9632 65.0399C79.1546 65.0399 78.493 64.6999 78.493 64.2919C78.493 63.8839 77.6843 62.9319 76.6551 62.1839C75.6259 61.4359 74.8173 60.416 74.8173 59.94C74.8173 58.24 76.4346 58.036 77.7578 59.6C79.1546 61.2999 81.654 61.2319 82.0216 59.396C82.2421 58.58 81.36 57.9 79.0076 56.948C77.2432 56.2 75.5524 55.112 75.2584 54.5C74.7438 53.208 76.5816 50.0801 77.7578 50.0801C78.1989 50.0801 78.493 49.6041 78.493 49.0601C78.493 47.4281 80.6249 47.9041 82.5362 49.8761Z" fill="url(#paint0_linear_3227_1820)"/>
<path d="M64.5254 56.2V66.3999H70.0389H75.5524L77.4638 69.1199C78.5665 70.6159 79.6692 71.8398 79.9632 71.8398C80.2573 71.8398 81.4335 70.6159 82.5362 69.1199L84.5946 66.3999H89.5935H94.6659V56.2V46.0001H79.5957H64.5254V56.2ZM82.5362 49.8761C85.4032 52.868 84.4476 54.976 81.4335 52.46C79.9632 51.236 77.6108 51.848 77.9049 53.344C78.0519 53.956 79.0811 54.636 80.2573 54.908C82.9773 55.588 85.1092 57.424 85.1092 59.056C85.1092 59.736 84.3005 61.0959 83.2713 62.0479C82.2421 62.9999 81.4335 64.0199 81.4335 64.3599C81.4335 64.7679 80.7719 65.0399 79.9632 65.0399C79.1546 65.0399 78.493 64.6999 78.493 64.2919C78.493 63.8839 77.6843 62.9319 76.6551 62.1839C75.6259 61.4359 74.8173 60.416 74.8173 59.94C74.8173 58.24 76.4346 58.036 77.7578 59.6C79.1546 61.2999 81.654 61.2319 82.0216 59.396C82.2421 58.58 81.36 57.9 79.0076 56.948C77.2432 56.2 75.5524 55.112 75.2584 54.5C74.7438 53.208 76.5816 50.0801 77.7578 50.0801C78.1989 50.0801 78.493 49.6041 78.493 49.0601C78.493 47.4281 80.6249 47.9041 82.5362 49.8761Z" fill="url(#paint1_radial_3227_1820)"/>
<path d="M54.307 69.3244C50.8519 70.4804 48.72 73.2684 48.7935 76.6684C48.867 78.1644 49.3081 79.7963 49.7492 80.2043C50.9254 81.2923 50.7784 81.8363 49.1611 82.2443C47.7643 82.5843 47.8378 82.3803 46.4411 94.1442L46 97.6802H56.0714H66.1427L65.6281 105.84L65.1135 114H79.9632H94.813L94.3719 109.036C94.0778 106.384 93.7103 102.712 93.4897 100.876L93.0486 97.6802H103.488H114L113.559 94.4842C113.265 92.6482 112.897 89.2482 112.603 86.8683C112.236 83.4683 111.795 82.4483 110.765 82.2443C109.148 81.8363 109.001 81.2923 110.177 80.2043C111.648 78.8443 111.354 74.1524 109.663 72.0444C106.502 68.1004 99.3708 67.8285 96.1362 71.6364C94.3719 73.7444 94.1514 78.3684 95.7687 80.4763C96.7978 81.8363 96.7978 81.9723 95.2541 82.1763C93.7103 82.3803 93.4897 82.9243 92.8281 88.5002L92.093 94.6202L88.1232 94.8242L84.1535 95.0282L86.7265 92.7842C90.2551 89.7242 90.8432 86.3923 88.7849 82.3123C86.8735 78.7083 83.8595 77.0764 79.4487 77.1444C74.1557 77.2124 69.6714 81.2923 69.6714 86.1203C69.6714 88.6362 70.627 90.5402 73.2735 93.1242L75.1849 95.0282L71.5092 94.8242L67.8335 94.6202L67.0984 88.5002C66.4368 82.9243 66.2162 82.3803 64.6724 82.1763C63.1286 81.9723 63.1286 81.8363 64.1578 80.4763C66.0692 77.9604 65.5546 73.6764 63.1286 71.2284C61.9524 70.0724 60.4822 69.1204 59.8941 69.1204C59.2324 69.1204 58.3503 68.9844 57.7622 68.8484C57.2476 68.6444 55.7038 68.8484 54.307 69.3244Z" fill="white"/>
<path d="M54.307 69.3244C50.8519 70.4804 48.72 73.2684 48.7935 76.6684C48.867 78.1644 49.3081 79.7963 49.7492 80.2043C50.9254 81.2923 50.7784 81.8363 49.1611 82.2443C47.7643 82.5843 47.8378 82.3803 46.4411 94.1442L46 97.6802H56.0714H66.1427L65.6281 105.84L65.1135 114H79.9632H94.813L94.3719 109.036C94.0778 106.384 93.7103 102.712 93.4897 100.876L93.0486 97.6802H103.488H114L113.559 94.4842C113.265 92.6482 112.897 89.2482 112.603 86.8683C112.236 83.4683 111.795 82.4483 110.765 82.2443C109.148 81.8363 109.001 81.2923 110.177 80.2043C111.648 78.8443 111.354 74.1524 109.663 72.0444C106.502 68.1004 99.3708 67.8285 96.1362 71.6364C94.3719 73.7444 94.1514 78.3684 95.7687 80.4763C96.7978 81.8363 96.7978 81.9723 95.2541 82.1763C93.7103 82.3803 93.4897 82.9243 92.8281 88.5002L92.093 94.6202L88.1232 94.8242L84.1535 95.0282L86.7265 92.7842C90.2551 89.7242 90.8432 86.3923 88.7849 82.3123C86.8735 78.7083 83.8595 77.0764 79.4487 77.1444C74.1557 77.2124 69.6714 81.2923 69.6714 86.1203C69.6714 88.6362 70.627 90.5402 73.2735 93.1242L75.1849 95.0282L71.5092 94.8242L67.8335 94.6202L67.0984 88.5002C66.4368 82.9243 66.2162 82.3803 64.6724 82.1763C63.1286 81.9723 63.1286 81.8363 64.1578 80.4763C66.0692 77.9604 65.5546 73.6764 63.1286 71.2284C61.9524 70.0724 60.4822 69.1204 59.8941 69.1204C59.2324 69.1204 58.3503 68.9844 57.7622 68.8484C57.2476 68.6444 55.7038 68.8484 54.307 69.3244Z" fill="url(#paint2_linear_3227_1820)"/>
<path d="M54.307 69.3244C50.8519 70.4804 48.72 73.2684 48.7935 76.6684C48.867 78.1644 49.3081 79.7963 49.7492 80.2043C50.9254 81.2923 50.7784 81.8363 49.1611 82.2443C47.7643 82.5843 47.8378 82.3803 46.4411 94.1442L46 97.6802H56.0714H66.1427L65.6281 105.84L65.1135 114H79.9632H94.813L94.3719 109.036C94.0778 106.384 93.7103 102.712 93.4897 100.876L93.0486 97.6802H103.488H114L113.559 94.4842C113.265 92.6482 112.897 89.2482 112.603 86.8683C112.236 83.4683 111.795 82.4483 110.765 82.2443C109.148 81.8363 109.001 81.2923 110.177 80.2043C111.648 78.8443 111.354 74.1524 109.663 72.0444C106.502 68.1004 99.3708 67.8285 96.1362 71.6364C94.3719 73.7444 94.1514 78.3684 95.7687 80.4763C96.7978 81.8363 96.7978 81.9723 95.2541 82.1763C93.7103 82.3803 93.4897 82.9243 92.8281 88.5002L92.093 94.6202L88.1232 94.8242L84.1535 95.0282L86.7265 92.7842C90.2551 89.7242 90.8432 86.3923 88.7849 82.3123C86.8735 78.7083 83.8595 77.0764 79.4487 77.1444C74.1557 77.2124 69.6714 81.2923 69.6714 86.1203C69.6714 88.6362 70.627 90.5402 73.2735 93.1242L75.1849 95.0282L71.5092 94.8242L67.8335 94.6202L67.0984 88.5002C66.4368 82.9243 66.2162 82.3803 64.6724 82.1763C63.1286 81.9723 63.1286 81.8363 64.1578 80.4763C66.0692 77.9604 65.5546 73.6764 63.1286 71.2284C61.9524 70.0724 60.4822 69.1204 59.8941 69.1204C59.2324 69.1204 58.3503 68.9844 57.7622 68.8484C57.2476 68.6444 55.7038 68.8484 54.307 69.3244Z" fill="url(#paint3_radial_3227_1820)"/>
</g>
<defs>
<filter id="filter0_d_3227_1820" x="-7.12665" y="7.29297" width="145.078" height="152.004" filterUnits="userSpaceOnUse" color-interpolation-filters="sRGB">
<feFlood flood-opacity="0" result="BackgroundImageFix"/>
<feColorMatrix in="SourceAlpha" type="matrix" values="0 0 0 0 0 0 0 0 0 0 0 0 0 0 0 0 0 0 127 0" result="hardAlpha"/>
<feOffset dx="-5" dy="5"/>
<feGaussianBlur stdDeviation="4"/>
<feComposite in2="hardAlpha" operator="out"/>
<feColorMatrix type="matrix" values="0 0 0 0 0 0 0 0 0 0 0 0 0 0 0 0 0 0 0.25 0"/>
<feBlend mode="normal" in2="BackgroundImageFix" result="effect1_dropShadow_3227_1820"/>
<feBlend mode="normal" in="SourceGraphic" in2="effect1_dropShadow_3227_1820" result="shape"/>
</filter>
<linearGradient id="paint0_linear_3227_1820" x1="100.845" y1="82.0465" x2="60.3977" y2="32.649" gradientUnits="userSpaceOnUse">
<stop offset="0.291277" stop-color="#C8FC36"/>
<stop offset="0.867194" stop-color="#0E9C47"/>
</linearGradient>
<radialGradient id="paint1_radial_3227_1820" cx="0" cy="0" r="1" gradientUnits="userSpaceOnUse" gradientTransform="translate(70.3865 66.6722) rotate(-30.7631) scale(54.1772 50.8357)">
<stop stop-color="#00862D"/>
<stop offset="0.627261" stop-color="#0033CC"/>
</radialGradient>
<linearGradient id="paint2_linear_3227_1820" x1="127.94" y1="131.866" x2="62.5658" y2="28.9598" gradientUnits="userSpaceOnUse">
<stop offset="0.291277" stop-color="#C8FC36"/>
<stop offset="0.867194" stop-color="#0E9C47"/>
</linearGradient>
<radialGradient id="paint3_radial_3227_1820" cx="0" cy="0" r="1" gradientUnits="userSpaceOnUse" gradientTransform="translate(59.2232 104.954) rotate(-24.7888) scale(115.69 94.0133)">
<stop stop-color="#00862D"/>
<stop offset="0.627261" stop-color="#0033CC"/>
</radialGradient>
<clipPath id="clip0_3227_1820">
<rect width="160" height="160" fill="white"/>
</clipPath>
</defs>
</svg>
