<svg width="160" height="160" viewBox="0 0 160 160" fill="none" xmlns="http://www.w3.org/2000/svg">
<g clip-path="url(#clip0_3229_2979)">
<g filter="url(#filter0_d_3229_2979)">
<path d="M81.0962 15.7562C100.014 2.51003 126.177 14.71 128.189 37.7161L134.831 113.636C136.844 136.642 113.197 153.2 92.2671 143.44L23.1971 111.232C2.26686 101.472 -0.24911 72.7148 18.6684 59.4686L81.0962 15.7562Z" fill="white"/>
</g>
<path d="M74.6167 46.4779C68.95 48.183 62.8583 54.0486 61.2292 59.2321C60.875 60.4598 61.0875 60.8008 62.0792 60.8008C62.9292 60.7326 63.9917 59.5049 65.125 57.186C66.1875 55.0034 68.0292 52.8209 69.8708 51.4568C78.3 45.3866 90.3417 48.183 94.875 57.186C96.0083 59.5049 97.0708 60.7326 97.9208 60.8008C99.4792 60.8008 99.125 59.1639 96.575 54.867C94.8042 51.866 91.9708 49.5471 87.7917 47.5009C84.9583 46.0686 77.7333 45.523 74.6167 46.4779Z" fill="white"/>
<path d="M74.6167 46.4779C68.95 48.183 62.8583 54.0486 61.2292 59.2321C60.875 60.4598 61.0875 60.8008 62.0792 60.8008C62.9292 60.7326 63.9917 59.5049 65.125 57.186C66.1875 55.0034 68.0292 52.8209 69.8708 51.4568C78.3 45.3866 90.3417 48.183 94.875 57.186C96.0083 59.5049 97.0708 60.7326 97.9208 60.8008C99.4792 60.8008 99.125 59.1639 96.575 54.867C94.8042 51.866 91.9708 49.5471 87.7917 47.5009C84.9583 46.0686 77.7333 45.523 74.6167 46.4779Z" fill="url(#paint0_radial_3229_2979)"/>
<path d="M76.1041 58.0023C74.9708 58.2751 73.0583 59.0254 71.8541 59.6392C69.8 60.7305 70.0833 60.7305 80 60.7305H90.2708L87.7208 59.4346C84.7458 57.9341 79.15 57.252 76.1041 58.0023Z" fill="white"/>
<path d="M76.1041 58.0023C74.9708 58.2751 73.0583 59.0254 71.8541 59.6392C69.8 60.7305 70.0833 60.7305 80 60.7305H90.2708L87.7208 59.4346C84.7458 57.9341 79.15 57.252 76.1041 58.0023Z" fill="url(#paint1_radial_3229_2979)"/>
<path d="M52.9417 65.4404C54.2167 66.4634 55.2084 67.6911 55.2084 68.1003C55.2084 68.5778 53.8625 69.8054 52.2334 70.8285L49.1875 72.7382L54.075 72.9428C59.9542 73.2156 60.875 72.9428 60.875 70.8967C60.875 70.01 61.5125 68.0321 62.2917 66.3952L63.6375 63.5306H57.1209L50.6042 63.5988L52.9417 65.4404Z" fill="white"/>
<path d="M52.9417 65.4404C54.2167 66.4634 55.2084 67.6911 55.2084 68.1003C55.2084 68.5778 53.8625 69.8054 52.2334 70.8285L49.1875 72.7382L54.075 72.9428C59.9542 73.2156 60.875 72.9428 60.875 70.8967C60.875 70.01 61.5125 68.0321 62.2917 66.3952L63.6375 63.5306H57.1209L50.6042 63.5988L52.9417 65.4404Z" fill="url(#paint2_radial_3229_2979)"/>
<path d="M65.6917 65.03C64.4875 66.8033 63 70.7592 63 72.1233C63 72.8735 66.1875 73.0781 80.0709 73.0781H97.2125L96.7167 70.8956C96.4334 69.6679 95.6542 67.6218 94.9459 66.2577L93.6709 63.8705L80.2125 63.6659C66.8959 63.5295 66.6834 63.5295 65.6917 65.03Z" fill="white"/>
<path d="M65.6917 65.03C64.4875 66.8033 63 70.7592 63 72.1233C63 72.8735 66.1875 73.0781 80.0709 73.0781H97.2125L96.7167 70.8956C96.4334 69.6679 95.6542 67.6218 94.9459 66.2577L93.6709 63.8705L80.2125 63.6659C66.8959 63.5295 66.6834 63.5295 65.6917 65.03Z" fill="url(#paint3_radial_3229_2979)"/>
<path d="M97.7083 66.3952C98.4875 68.0321 99.125 70.01 99.125 70.8967C99.125 72.9428 100.046 73.2156 105.925 72.9428L110.812 72.7382L107.837 70.8285C106.137 69.8054 104.792 68.5778 104.792 68.1003C104.792 67.6911 105.783 66.4634 107.058 65.4404L109.396 63.5988L102.879 63.5306H96.3625L97.7083 66.3952Z" fill="white"/>
<path d="M97.7083 66.3952C98.4875 68.0321 99.125 70.01 99.125 70.8967C99.125 72.9428 100.046 73.2156 105.925 72.9428L110.812 72.7382L107.837 70.8285C106.137 69.8054 104.792 68.5778 104.792 68.1003C104.792 67.6911 105.783 66.4634 107.058 65.4404L109.396 63.5988L102.879 63.5306H96.3625L97.7083 66.3952Z" fill="url(#paint4_radial_3229_2979)"/>
<path d="M48.125 67.6225C48.125 70.0779 48.2667 70.3507 49.4 69.7368C52.375 68.0317 52.4459 67.8953 50.25 66.3948L48.125 64.8261V67.6225Z" fill="white"/>
<path d="M48.125 67.6225C48.125 70.0779 48.2667 70.3507 49.4 69.7368C52.375 68.0317 52.4459 67.8953 50.25 66.3948L48.125 64.8261V67.6225Z" fill="url(#paint5_radial_3229_2979)"/>
<path d="M109.608 66.4621L107.625 68.0308L109.75 69.1903L111.875 70.418V67.6898C111.875 66.1211 111.804 64.8934 111.733 64.8934C111.592 64.9616 110.671 65.6437 109.608 66.4621Z" fill="white"/>
<path d="M109.608 66.4621L107.625 68.0308L109.75 69.1903L111.875 70.418V67.6898C111.875 66.1211 111.804 64.8934 111.733 64.8934C111.592 64.9616 110.671 65.6437 109.608 66.4621Z" fill="url(#paint6_radial_3229_2979)"/>
<path d="M46 94.5618V114H80H114V94.5618V75.1235H80H46V94.5618ZM87.4375 79.1476C90.9792 80.6481 94.45 83.9219 96.5042 87.6731C98.6292 91.5608 98.6292 98.9268 96.5042 102.814C94.45 106.498 89.35 110.794 85.8083 111.817C79.3625 113.659 73.0583 112.431 68.2417 108.339C63.5667 104.383 62.0083 101.041 61.9375 95.2438C61.9375 91.2198 62.2917 89.9239 63.9917 86.8547C66.1167 83.1716 69.1625 80.5117 73.0583 78.8748C76.3875 77.5107 83.9667 77.6471 87.4375 79.1476Z" fill="white"/>
<path d="M46 94.5618V114H80H114V94.5618V75.1235H80H46V94.5618ZM87.4375 79.1476C90.9792 80.6481 94.45 83.9219 96.5042 87.6731C98.6292 91.5608 98.6292 98.9268 96.5042 102.814C94.45 106.498 89.35 110.794 85.8083 111.817C79.3625 113.659 73.0583 112.431 68.2417 108.339C63.5667 104.383 62.0083 101.041 61.9375 95.2438C61.9375 91.2198 62.2917 89.9239 63.9917 86.8547C66.1167 83.1716 69.1625 80.5117 73.0583 78.8748C76.3875 77.5107 83.9667 77.6471 87.4375 79.1476Z" fill="url(#paint7_radial_3229_2979)"/>
<path d="M76.7417 81.397C76.4583 81.8744 75.75 82.9657 75.2542 83.7159C74.3333 85.08 74.4042 85.2164 76.4583 85.4892C78.5125 85.7621 78.5833 85.6939 78.5833 83.1703C78.5833 80.5785 77.7333 79.7601 76.7417 81.397Z" fill="white"/>
<path d="M76.7417 81.397C76.4583 81.8744 75.75 82.9657 75.2542 83.7159C74.3333 85.08 74.4042 85.2164 76.4583 85.4892C78.5125 85.7621 78.5833 85.6939 78.5833 83.1703C78.5833 80.5785 77.7333 79.7601 76.7417 81.397Z" fill="url(#paint8_radial_3229_2979)"/>
<path d="M81.4167 83.1029C81.4167 85.6947 81.4875 85.7629 83.5417 85.4901L85.6667 85.2173L84.3208 83.1029C82.2667 80.0337 81.4167 80.0337 81.4167 83.1029Z" fill="white"/>
<path d="M81.4167 83.1029C81.4167 85.6947 81.4875 85.7629 83.5417 85.4901L85.6667 85.2173L84.3208 83.1029C82.2667 80.0337 81.4167 80.0337 81.4167 83.1029Z" fill="url(#paint9_radial_3229_2979)"/>
<path d="M71.2875 82.5569C69.5875 83.5799 69.4458 83.8527 70.5083 84.262C71.5708 84.6712 73.5542 83.1025 73.625 81.7384C73.625 81.0564 73.5542 81.1246 71.2875 82.5569Z" fill="white"/>
<path d="M71.2875 82.5569C69.5875 83.5799 69.4458 83.8527 70.5083 84.262C71.5708 84.6712 73.5542 83.1025 73.625 81.7384C73.625 81.0564 73.5542 81.1246 71.2875 82.5569Z" fill="url(#paint10_radial_3229_2979)"/>
<path d="M86.375 81.8076C86.375 82.0804 86.8 82.8989 87.2959 83.5809C88.0042 84.5358 88.5709 84.6722 89.4209 84.263C90.4834 83.7173 90.3417 83.4445 88.5 82.4214C87.2959 81.7394 86.375 81.4666 86.375 81.8076Z" fill="white"/>
<path d="M86.375 81.8076C86.375 82.0804 86.8 82.8989 87.2959 83.5809C88.0042 84.5358 88.5709 84.6722 89.4209 84.263C90.4834 83.7173 90.3417 83.4445 88.5 82.4214C87.2959 81.7394 86.375 81.4666 86.375 81.8076Z" fill="url(#paint11_radial_3229_2979)"/>
<path d="M66.1875 87.6711C65.55 88.5578 64.8417 90.3993 64.6292 91.7634L64.2042 94.2188H67.0375C69.6583 94.2188 69.9417 94.0823 70.3667 92.1044C71.075 88.626 70.8625 86.9209 69.6583 86.4435C67.8167 85.7614 67.3208 85.966 66.1875 87.6711Z" fill="white"/>
<path d="M66.1875 87.6711C65.55 88.5578 64.8417 90.3993 64.6292 91.7634L64.2042 94.2188H67.0375C69.6583 94.2188 69.9417 94.0823 70.3667 92.1044C71.075 88.626 70.8625 86.9209 69.6583 86.4435C67.8167 85.7614 67.3208 85.966 66.1875 87.6711Z" fill="url(#paint12_radial_3229_2979)"/>
<path d="M90.1292 86.5117C89.1375 86.8527 88.9958 88.8306 89.6333 92.1044C90.0583 94.0823 90.3417 94.2188 92.9625 94.2188H95.7958L95.3708 91.7634C94.5917 87.3983 92.6792 85.4886 90.1292 86.5117Z" fill="white"/>
<path d="M90.1292 86.5117C89.1375 86.8527 88.9958 88.8306 89.6333 92.1044C90.0583 94.0823 90.3417 94.2188 92.9625 94.2188H95.7958L95.3708 91.7634C94.5917 87.3983 92.6792 85.4886 90.1292 86.5117Z" fill="url(#paint13_radial_3229_2979)"/>
<path d="M73.3417 88.8988C73.1292 89.7855 72.9167 91.286 72.9167 92.309C72.9167 94.0823 73.1292 94.2188 75.75 94.2188H78.5833V91.1496C78.5833 88.5578 78.3708 88.0804 77.2375 88.0804C76.4583 88.0804 75.3958 87.8757 74.8292 87.6711C74.1917 87.4665 73.625 87.8757 73.3417 88.8988Z" fill="white"/>
<path d="M73.3417 88.8988C73.1292 89.7855 72.9167 91.286 72.9167 92.309C72.9167 94.0823 73.1292 94.2188 75.75 94.2188H78.5833V91.1496C78.5833 88.5578 78.3708 88.0804 77.2375 88.0804C76.4583 88.0804 75.3958 87.8757 74.8292 87.6711C74.1917 87.4665 73.625 87.8757 73.3417 88.8988Z" fill="url(#paint14_radial_3229_2979)"/>
<path d="M83.4 87.8757C81.5583 88.1486 81.4167 88.4214 81.4167 91.2178V94.2188H84.25C86.8708 94.2188 87.0833 94.0823 87.0833 92.309C87.0833 89.9901 86.375 87.3983 85.7375 87.4665C85.525 87.5347 84.4625 87.7393 83.4 87.8757Z" fill="white"/>
<path d="M83.4 87.8757C81.5583 88.1486 81.4167 88.4214 81.4167 91.2178V94.2188H84.25C86.8708 94.2188 87.0833 94.0823 87.0833 92.309C87.0833 89.9901 86.375 87.3983 85.7375 87.4665C85.525 87.5347 84.4625 87.7393 83.4 87.8757Z" fill="url(#paint15_radial_3229_2979)"/>
<path d="M64.4167 97.6288C64.4167 98.9929 66.9667 104.449 67.6042 104.449C67.7458 104.449 68.6667 104.176 69.5875 103.835C71.2167 103.222 71.2875 103.017 70.5792 99.7431C69.8708 96.2647 69.8708 96.2647 67.1792 96.2647C64.8417 96.2647 64.4167 96.4693 64.4167 97.6288Z" fill="white"/>
<path d="M64.4167 97.6288C64.4167 98.9929 66.9667 104.449 67.6042 104.449C67.7458 104.449 68.6667 104.176 69.5875 103.835C71.2167 103.222 71.2875 103.017 70.5792 99.7431C69.8708 96.2647 69.8708 96.2647 67.1792 96.2647C64.8417 96.2647 64.4167 96.4693 64.4167 97.6288Z" fill="url(#paint16_radial_3229_2979)"/>
<path d="M72.9167 98.1063C72.9167 102.062 73.4833 102.812 76.175 102.54C78.5125 102.267 78.5833 102.13 78.5833 99.2658V96.2648H75.75C73.1292 96.2648 72.9167 96.4012 72.9167 98.1063Z" fill="white"/>
<path d="M72.9167 98.1063C72.9167 102.062 73.4833 102.812 76.175 102.54C78.5125 102.267 78.5833 102.13 78.5833 99.2658V96.2648H75.75C73.1292 96.2648 72.9167 96.4012 72.9167 98.1063Z" fill="url(#paint17_radial_3229_2979)"/>
<path d="M81.4167 99.2658C81.4167 102.13 81.4875 102.267 83.825 102.54C86.5167 102.812 87.0833 102.062 87.0833 98.1063C87.0833 96.4012 86.8708 96.2648 84.25 96.2648H81.4167V99.2658Z" fill="white"/>
<path d="M81.4167 99.2658C81.4167 102.13 81.4875 102.267 83.825 102.54C86.5167 102.812 87.0833 102.062 87.0833 98.1063C87.0833 96.4012 86.8708 96.2648 84.25 96.2648H81.4167V99.2658Z" fill="url(#paint18_radial_3229_2979)"/>
<path d="M89.4208 99.7466C88.7125 103.02 88.7833 103.225 90.4125 103.839C92.75 104.657 92.5375 104.794 94.1666 101.724C96.4333 97.4958 96.15 96.2682 92.8208 96.2682C90.1291 96.2682 90.1291 96.2682 89.4208 99.7466Z" fill="white"/>
<path d="M89.4208 99.7466C88.7125 103.02 88.7833 103.225 90.4125 103.839C92.75 104.657 92.5375 104.794 94.1666 101.724C96.4333 97.4958 96.15 96.2682 92.8208 96.2682C90.1291 96.2682 90.1291 96.2682 89.4208 99.7466Z" fill="url(#paint19_radial_3229_2979)"/>
<path d="M75.4667 105.066C74.1917 105.544 74.2625 105.749 76.3167 107.931L78.5125 110.25L78.5833 107.317C78.5833 104.384 78.1583 104.043 75.4667 105.066Z" fill="white"/>
<path d="M75.4667 105.066C74.1917 105.544 74.2625 105.749 76.3167 107.931L78.5125 110.25L78.5833 107.317C78.5833 104.384 78.1583 104.043 75.4667 105.066Z" fill="url(#paint20_radial_3229_2979)"/>
<path d="M81.4167 107.317L81.4875 110.25L83.6833 107.931C85.7375 105.749 85.8083 105.544 84.5333 105.066C81.8417 104.043 81.4167 104.384 81.4167 107.317Z" fill="white"/>
<path d="M81.4167 107.317L81.4875 110.25L83.6833 107.931C85.7375 105.749 85.8083 105.544 84.5333 105.066C81.8417 104.043 81.4167 104.384 81.4167 107.317Z" fill="url(#paint21_radial_3229_2979)"/>
<path d="M70.0833 106.43C70.0833 107.18 73.0583 109.362 73.4833 108.953C73.625 108.749 73.4125 107.998 72.9167 107.248C72.1375 105.816 70.0833 105.27 70.0833 106.43Z" fill="white"/>
<path d="M70.0833 106.43C70.0833 107.18 73.0583 109.362 73.4833 108.953C73.625 108.749 73.4125 107.998 72.9167 107.248C72.1375 105.816 70.0833 105.27 70.0833 106.43Z" fill="url(#paint22_radial_3229_2979)"/>
<path d="M87.0833 107.248C86.5875 107.998 86.375 108.749 86.5167 108.953C86.9417 109.362 89.9167 107.18 89.9167 106.43C89.9167 105.27 87.8625 105.816 87.0833 107.248Z" fill="white"/>
<path d="M87.0833 107.248C86.5875 107.998 86.375 108.749 86.5167 108.953C86.9417 109.362 89.9167 107.18 89.9167 106.43C89.9167 105.27 87.8625 105.816 87.0833 107.248Z" fill="url(#paint23_radial_3229_2979)"/>
</g>
<defs>
<filter id="filter0_d_3229_2979" x="-7.12665" y="7.29297" width="145.078" height="152.004" filterUnits="userSpaceOnUse" color-interpolation-filters="sRGB">
<feFlood flood-opacity="0" result="BackgroundImageFix"/>
<feColorMatrix in="SourceAlpha" type="matrix" values="0 0 0 0 0 0 0 0 0 0 0 0 0 0 0 0 0 0 127 0" result="hardAlpha"/>
<feOffset dx="-5" dy="5"/>
<feGaussianBlur stdDeviation="4"/>
<feComposite in2="hardAlpha" operator="out"/>
<feColorMatrix type="matrix" values="0 0 0 0 0 0 0 0 0 0 0 0 0 0 0 0 0 0 0.25 0"/>
<feBlend mode="normal" in2="BackgroundImageFix" result="effect1_dropShadow_3229_2979"/>
<feBlend mode="normal" in="SourceGraphic" in2="effect1_dropShadow_3229_2979" result="shape"/>
</filter>
<radialGradient id="paint0_radial_3229_2979" cx="0" cy="0" r="1" gradientUnits="userSpaceOnUse" gradientTransform="translate(68.4169 57.8408) rotate(-15.2145) scale(60.4822 32.6984)">
<stop stop-color="#00862D"/>
<stop offset="0.627261" stop-color="#0033CC"/>
</radialGradient>
<radialGradient id="paint1_radial_3229_2979" cx="0" cy="0" r="1" gradientUnits="userSpaceOnUse" gradientTransform="translate(74.6133 60.1235) rotate(-6.18743) scale(30.1981 6.90814)">
<stop stop-color="#00862D"/>
<stop offset="0.627261" stop-color="#0033CC"/>
</radialGradient>
<radialGradient id="paint2_radial_3229_2979" cx="0" cy="0" r="1" gradientUnits="userSpaceOnUse" gradientTransform="translate(51.9975 71.1312) rotate(-24.5368) scale(24.5345 19.7874)">
<stop stop-color="#00862D"/>
<stop offset="0.627261" stop-color="#0033CC"/>
</radialGradient>
<radialGradient id="paint3_radial_3229_2979" cx="0" cy="0" r="1" gradientUnits="userSpaceOnUse" gradientTransform="translate(69.653 71.1846) rotate(-10.8767) scale(53.81 21.2878)">
<stop stop-color="#00862D"/>
<stop offset="0.627261" stop-color="#0033CC"/>
</radialGradient>
<radialGradient id="paint4_radial_3229_2979" cx="0" cy="0" r="1" gradientUnits="userSpaceOnUse" gradientTransform="translate(99.1724 71.1312) rotate(-24.5368) scale(24.5345 19.7874)">
<stop stop-color="#00862D"/>
<stop offset="0.627261" stop-color="#0033CC"/>
</radialGradient>
<radialGradient id="paint5_radial_3229_2979" cx="0" cy="0" r="1" gradientUnits="userSpaceOnUse" gradientTransform="translate(48.8357 68.9778) rotate(-44.5948) scale(7.9268 8.46059)">
<stop stop-color="#00862D"/>
<stop offset="0.627261" stop-color="#0033CC"/>
</radialGradient>
<radialGradient id="paint6_radial_3229_2979" cx="0" cy="0" r="1" gradientUnits="userSpaceOnUse" gradientTransform="translate(108.451 69.3131) rotate(-42.0676) scale(8.84266 9.38965)">
<stop stop-color="#00862D"/>
<stop offset="0.627261" stop-color="#0033CC"/>
</radialGradient>
<radialGradient id="paint7_radial_3229_2979" cx="0" cy="0" r="1" gradientUnits="userSpaceOnUse" gradientTransform="translate(59.2232 106.225) rotate(-21.6507) scale(113.003 82.7283)">
<stop stop-color="#00862D"/>
<stop offset="0.627261" stop-color="#0033CC"/>
</radialGradient>
<radialGradient id="paint8_radial_3229_2979" cx="0" cy="0" r="1" gradientUnits="userSpaceOnUse" gradientTransform="translate(75.4456 84.5885) rotate(-41.9714) scale(8.09226 8.58983)">
<stop stop-color="#00862D"/>
<stop offset="0.627261" stop-color="#0033CC"/>
</radialGradient>
<radialGradient id="paint9_radial_3229_2979" cx="0" cy="0" r="1" gradientUnits="userSpaceOnUse" gradientTransform="translate(82.2431 84.6384) rotate(-38.083) scale(8.33978 8.64403)">
<stop stop-color="#00862D"/>
<stop offset="0.627261" stop-color="#0033CC"/>
</radialGradient>
<radialGradient id="paint10_radial_3229_2979" cx="0" cy="0" r="1" gradientUnits="userSpaceOnUse" gradientTransform="translate(70.5704 83.7264) rotate(-28.8523) scale(6.68708 6.03386)">
<stop stop-color="#00862D"/>
<stop offset="0.627261" stop-color="#0033CC"/>
</radialGradient>
<radialGradient id="paint11_radial_3229_2979" cx="0" cy="0" r="1" gradientUnits="userSpaceOnUse" gradientTransform="translate(87.0967 83.9166) rotate(-27.8122) scale(6.48103 5.70992)">
<stop stop-color="#00862D"/>
<stop offset="0.627261" stop-color="#0033CC"/>
</radialGradient>
<radialGradient id="paint12_radial_3229_2979" cx="0" cy="0" r="1" gradientUnits="userSpaceOnUse" gradientTransform="translate(65.4812 92.591) rotate(-40.7133) scale(13.3822 14.1251)">
<stop stop-color="#00862D"/>
<stop offset="0.627261" stop-color="#0033CC"/>
</radialGradient>
<radialGradient id="paint13_radial_3229_2979" cx="0" cy="0" r="1" gradientUnits="userSpaceOnUse" gradientTransform="translate(90.5204 92.6234) rotate(-40.223) scale(13.248 13.9453)">
<stop stop-color="#00862D"/>
<stop offset="0.627261" stop-color="#0033CC"/>
</radialGradient>
<radialGradient id="paint14_radial_3229_2979" cx="0" cy="0" r="1" gradientUnits="userSpaceOnUse" gradientTransform="translate(74.0186 92.8991) rotate(-38.9565) scale(11.2555 11.7483)">
<stop stop-color="#00862D"/>
<stop offset="0.627261" stop-color="#0033CC"/>
</radialGradient>
<radialGradient id="paint15_radial_3229_2979" cx="0" cy="0" r="1" gradientUnits="userSpaceOnUse" gradientTransform="translate(82.5186 92.8681) rotate(-39.6075) scale(11.3606 11.9126)">
<stop stop-color="#00862D"/>
<stop offset="0.627261" stop-color="#0033CC"/>
</radialGradient>
<radialGradient id="paint16_radial_3229_2979" cx="0" cy="0" r="1" gradientUnits="userSpaceOnUse" gradientTransform="translate(65.6981 102.812) rotate(-40.773) scale(13.4401 14.1907)">
<stop stop-color="#00862D"/>
<stop offset="0.627261" stop-color="#0033CC"/>
</radialGradient>
<radialGradient id="paint17_radial_3229_2979" cx="0" cy="0" r="1" gradientUnits="userSpaceOnUse" gradientTransform="translate(74.0186 101.325) rotate(-37.7753) scale(11.0733 11.4462)">
<stop stop-color="#00862D"/>
<stop offset="0.627261" stop-color="#0033CC"/>
</radialGradient>
<radialGradient id="paint18_radial_3229_2979" cx="0" cy="0" r="1" gradientUnits="userSpaceOnUse" gradientTransform="translate(82.5186 101.325) rotate(-37.7753) scale(11.0733 11.4462)">
<stop stop-color="#00862D"/>
<stop offset="0.627261" stop-color="#0033CC"/>
</radialGradient>
<radialGradient id="paint19_radial_3229_2979" cx="0" cy="0" r="1" gradientUnits="userSpaceOnUse" gradientTransform="translate(90.2854 102.726) rotate(-40.1515) scale(13.4245 14.1252)">
<stop stop-color="#00862D"/>
<stop offset="0.627261" stop-color="#0033CC"/>
</radialGradient>
<radialGradient id="paint20_radial_3229_2979" cx="0" cy="0" r="1" gradientUnits="userSpaceOnUse" gradientTransform="translate(75.39 109.109) rotate(-44.9859) scale(8.65702 9.2409)">
<stop stop-color="#00862D"/>
<stop offset="0.627261" stop-color="#0033CC"/>
</radialGradient>
<radialGradient id="paint21_radial_3229_2979" cx="0" cy="0" r="1" gradientUnits="userSpaceOnUse" gradientTransform="translate(82.1875 109.109) rotate(-44.9859) scale(8.65702 9.2409)">
<stop stop-color="#00862D"/>
<stop offset="0.627261" stop-color="#0033CC"/>
</radialGradient>
<radialGradient id="paint22_radial_3229_2979" cx="0" cy="0" r="1" gradientUnits="userSpaceOnUse" gradientTransform="translate(70.7529 108.363) rotate(-32.8541) scale(6.33061 6.15928)">
<stop stop-color="#00862D"/>
<stop offset="0.627261" stop-color="#0033CC"/>
</radialGradient>
<radialGradient id="paint23_radial_3229_2979" cx="0" cy="0" r="1" gradientUnits="userSpaceOnUse" gradientTransform="translate(87.1431 108.363) rotate(-32.8541) scale(6.33061 6.15928)">
<stop stop-color="#00862D"/>
<stop offset="0.627261" stop-color="#0033CC"/>
</radialGradient>
<clipPath id="clip0_3229_2979">
<rect width="160" height="160" fill="white"/>
</clipPath>
</defs>
</svg>
