<svg width="160" height="160" viewBox="0 0 160 160" fill="none" xmlns="http://www.w3.org/2000/svg">
<g clip-path="url(#clip0_3229_1805)">
<g filter="url(#filter0_d_3229_1805)">
<path d="M81.0962 15.7562C100.014 2.51003 126.177 14.71 128.189 37.7161L134.831 113.636C136.844 136.642 113.197 153.2 92.2671 143.44L23.1971 111.232C2.26686 101.472 -0.24911 72.7148 18.6684 59.4686L81.0962 15.7562Z" fill="white"/>
</g>
<path d="M63.085 46.191C59.753 46.9083 56.812 49.1399 55.843 51.6636C55.656 52.1817 55.571 52.2481 54.772 52.4473C52.426 53.0318 50.097 54.6124 48.992 56.3791C48.04 57.88 47.87 58.7567 47.87 62.29V65.3849H51.44H55.01V77.8045V90.224H50.505H46V92.3493V94.4746H50.845H55.69V95.1254C55.69 96.8921 57.475 98.1938 59.923 98.1938C61.249 98.1938 62.201 97.875 63.068 97.1312C63.663 96.6131 64.19 95.5505 64.19 94.8465V94.4746H66.638H69.086L69.154 95.2583C69.307 96.9054 70.871 98.0743 73.03 98.1672C73.676 98.1938 74.475 98.154 74.815 98.061C76.243 97.6891 77.62 96.2146 77.62 95.0325V94.4746H80.085H82.55V95.0325C82.55 96.2146 83.927 97.6891 85.355 98.061C85.695 98.154 86.494 98.1938 87.14 98.1672C89.299 98.0743 90.863 96.9054 91.016 95.2583L91.084 94.4746H93.532H95.98V94.8465C95.98 96.0685 97.034 97.3968 98.428 97.9149C99.839 98.4595 102.117 98.1938 103.256 97.357C103.936 96.8655 104.48 95.8826 104.48 95.1387V94.4746H109.24H114V92.3493V90.224H109.665H105.33V77.8045V65.3849H108.645H111.96V62.29C111.96 58.7567 111.79 57.88 110.838 56.3791C109.733 54.6124 107.404 53.0318 105.058 52.4473C104.259 52.2481 104.174 52.1817 103.987 51.6636C103.256 49.7376 101.114 47.7451 98.87 46.8685C96.473 45.9519 97.425 45.9918 79.83 46.0051C66.995 46.0184 63.765 46.0449 63.085 46.191ZM82.55 52.9653V54.8914H80H77.45V52.9653V51.0393H80H82.55V52.9653ZM73.37 58.7434V60.603H70.905H68.44V58.7434V56.8838H70.905H73.37V58.7434ZM91.56 58.7434V60.603H89.095H86.63V58.7434V56.8838H89.095H91.56V58.7434ZM100.06 77.8045V90.224H80.17H60.28V77.8045V65.3849H80.17H100.06V77.8045Z" fill="white"/>
<path d="M63.085 46.191C59.753 46.9083 56.812 49.1399 55.843 51.6636C55.656 52.1817 55.571 52.2481 54.772 52.4473C52.426 53.0318 50.097 54.6124 48.992 56.3791C48.04 57.88 47.87 58.7567 47.87 62.29V65.3849H51.44H55.01V77.8045V90.224H50.505H46V92.3493V94.4746H50.845H55.69V95.1254C55.69 96.8921 57.475 98.1938 59.923 98.1938C61.249 98.1938 62.201 97.875 63.068 97.1312C63.663 96.6131 64.19 95.5505 64.19 94.8465V94.4746H66.638H69.086L69.154 95.2583C69.307 96.9054 70.871 98.0743 73.03 98.1672C73.676 98.1938 74.475 98.154 74.815 98.061C76.243 97.6891 77.62 96.2146 77.62 95.0325V94.4746H80.085H82.55V95.0325C82.55 96.2146 83.927 97.6891 85.355 98.061C85.695 98.154 86.494 98.1938 87.14 98.1672C89.299 98.0743 90.863 96.9054 91.016 95.2583L91.084 94.4746H93.532H95.98V94.8465C95.98 96.0685 97.034 97.3968 98.428 97.9149C99.839 98.4595 102.117 98.1938 103.256 97.357C103.936 96.8655 104.48 95.8826 104.48 95.1387V94.4746H109.24H114V92.3493V90.224H109.665H105.33V77.8045V65.3849H108.645H111.96V62.29C111.96 58.7567 111.79 57.88 110.838 56.3791C109.733 54.6124 107.404 53.0318 105.058 52.4473C104.259 52.2481 104.174 52.1817 103.987 51.6636C103.256 49.7376 101.114 47.7451 98.87 46.8685C96.473 45.9519 97.425 45.9918 79.83 46.0051C66.995 46.0184 63.765 46.0449 63.085 46.191ZM82.55 52.9653V54.8914H80H77.45V52.9653V51.0393H80H82.55V52.9653ZM73.37 58.7434V60.603H70.905H68.44V58.7434V56.8838H70.905H73.37V58.7434ZM91.56 58.7434V60.603H89.095H86.63V58.7434V56.8838H89.095H91.56V58.7434ZM100.06 77.8045V90.224H80.17H60.28V77.8045V65.3849H80.17H100.06V77.8045Z" fill="url(#paint0_linear_3229_1805)"/>
<path d="M63.085 46.191C59.753 46.9083 56.812 49.1399 55.843 51.6636C55.656 52.1817 55.571 52.2481 54.772 52.4473C52.426 53.0318 50.097 54.6124 48.992 56.3791C48.04 57.88 47.87 58.7567 47.87 62.29V65.3849H51.44H55.01V77.8045V90.224H50.505H46V92.3493V94.4746H50.845H55.69V95.1254C55.69 96.8921 57.475 98.1938 59.923 98.1938C61.249 98.1938 62.201 97.875 63.068 97.1312C63.663 96.6131 64.19 95.5505 64.19 94.8465V94.4746H66.638H69.086L69.154 95.2583C69.307 96.9054 70.871 98.0743 73.03 98.1672C73.676 98.1938 74.475 98.154 74.815 98.061C76.243 97.6891 77.62 96.2146 77.62 95.0325V94.4746H80.085H82.55V95.0325C82.55 96.2146 83.927 97.6891 85.355 98.061C85.695 98.154 86.494 98.1938 87.14 98.1672C89.299 98.0743 90.863 96.9054 91.016 95.2583L91.084 94.4746H93.532H95.98V94.8465C95.98 96.0685 97.034 97.3968 98.428 97.9149C99.839 98.4595 102.117 98.1938 103.256 97.357C103.936 96.8655 104.48 95.8826 104.48 95.1387V94.4746H109.24H114V92.3493V90.224H109.665H105.33V77.8045V65.3849H108.645H111.96V62.29C111.96 58.7567 111.79 57.88 110.838 56.3791C109.733 54.6124 107.404 53.0318 105.058 52.4473C104.259 52.2481 104.174 52.1817 103.987 51.6636C103.256 49.7376 101.114 47.7451 98.87 46.8685C96.473 45.9519 97.425 45.9918 79.83 46.0051C66.995 46.0184 63.765 46.0449 63.085 46.191ZM82.55 52.9653V54.8914H80H77.45V52.9653V51.0393H80H82.55V52.9653ZM73.37 58.7434V60.603H70.905H68.44V58.7434V56.8838H70.905H73.37V58.7434ZM91.56 58.7434V60.603H89.095H86.63V58.7434V56.8838H89.095H91.56V58.7434ZM100.06 77.8045V90.224H80.17H60.28V77.8045V65.3849H80.17H100.06V77.8045Z" fill="url(#paint1_radial_3229_1805)"/>
<path d="M78.385 69.5549C74.56 70.2987 72.367 73.3007 73.506 76.2229C73.914 77.259 74.815 78.2685 75.869 78.8662C76.26 79.0787 76.583 79.2913 76.583 79.3311C76.6 79.371 76.192 79.4772 75.682 79.5569C72.639 80.0617 69.222 81.8416 67.335 83.9004C66.672 84.631 65.55 86.2117 65.55 86.4242C65.55 86.4641 72.01 86.5039 79.915 86.5039C87.82 86.5039 94.28 86.4641 94.28 86.4242C94.28 86.3711 94.042 85.9726 93.753 85.521C91.849 82.5854 88.33 80.3539 84.454 79.6233C83.791 79.5038 83.23 79.371 83.247 79.3311C83.247 79.2913 83.57 79.0787 83.961 78.8662C87.242 76.9933 87.531 73.0084 84.522 70.8566C82.737 69.5814 80.578 69.1298 78.385 69.5549Z" fill="white"/>
<path d="M78.385 69.5549C74.56 70.2987 72.367 73.3007 73.506 76.2229C73.914 77.259 74.815 78.2685 75.869 78.8662C76.26 79.0787 76.583 79.2913 76.583 79.3311C76.6 79.371 76.192 79.4772 75.682 79.5569C72.639 80.0617 69.222 81.8416 67.335 83.9004C66.672 84.631 65.55 86.2117 65.55 86.4242C65.55 86.4641 72.01 86.5039 79.915 86.5039C87.82 86.5039 94.28 86.4641 94.28 86.4242C94.28 86.3711 94.042 85.9726 93.753 85.521C91.849 82.5854 88.33 80.3539 84.454 79.6233C83.791 79.5038 83.23 79.371 83.247 79.3311C83.247 79.2913 83.57 79.0787 83.961 78.8662C87.242 76.9933 87.531 73.0084 84.522 70.8566C82.737 69.5814 80.578 69.1298 78.385 69.5549Z" fill="url(#paint2_linear_3229_1805)"/>
<path d="M78.385 69.5549C74.56 70.2987 72.367 73.3007 73.506 76.2229C73.914 77.259 74.815 78.2685 75.869 78.8662C76.26 79.0787 76.583 79.2913 76.583 79.3311C76.6 79.371 76.192 79.4772 75.682 79.5569C72.639 80.0617 69.222 81.8416 67.335 83.9004C66.672 84.631 65.55 86.2117 65.55 86.4242C65.55 86.4641 72.01 86.5039 79.915 86.5039C87.82 86.5039 94.28 86.4641 94.28 86.4242C94.28 86.3711 94.042 85.9726 93.753 85.521C91.849 82.5854 88.33 80.3539 84.454 79.6233C83.791 79.5038 83.23 79.371 83.247 79.3311C83.247 79.2913 83.57 79.0787 83.961 78.8662C87.242 76.9933 87.531 73.0084 84.522 70.8566C82.737 69.5814 80.578 69.1298 78.385 69.5549Z" fill="url(#paint3_radial_3229_1805)"/>
<path d="M109.342 96.2274C109.291 96.3204 109.138 96.7454 108.968 97.1838C108.577 98.2199 107.659 99.2958 106.384 100.212C104.65 101.461 102.729 102.045 100.315 102.045C98.071 102.045 96.15 101.501 94.399 100.385L93.481 99.8005L92.988 100.186C91.526 101.315 89.095 102.045 86.817 102.045C84.539 102.045 82.533 101.474 80.85 100.332L80.102 99.8271L79.184 100.412C77.399 101.541 75.631 102.045 73.37 102.045C71.109 102.045 69.001 101.434 67.42 100.345L66.655 99.8271L65.771 100.398C64.02 101.501 62.099 102.045 59.855 102.045C57.373 102.045 55.282 101.394 53.412 100.053C52.324 99.2559 51.236 98.0605 50.913 97.29C50.811 97.0244 50.658 96.7454 50.573 96.679C50.488 96.5993 50.42 100.252 50.42 105.273V114H80H109.58V105.034C109.58 100.106 109.546 96.068 109.495 96.068C109.444 96.068 109.376 96.1477 109.342 96.2274Z" fill="white"/>
<path d="M109.342 96.2274C109.291 96.3204 109.138 96.7454 108.968 97.1838C108.577 98.2199 107.659 99.2958 106.384 100.212C104.65 101.461 102.729 102.045 100.315 102.045C98.071 102.045 96.15 101.501 94.399 100.385L93.481 99.8005L92.988 100.186C91.526 101.315 89.095 102.045 86.817 102.045C84.539 102.045 82.533 101.474 80.85 100.332L80.102 99.8271L79.184 100.412C77.399 101.541 75.631 102.045 73.37 102.045C71.109 102.045 69.001 101.434 67.42 100.345L66.655 99.8271L65.771 100.398C64.02 101.501 62.099 102.045 59.855 102.045C57.373 102.045 55.282 101.394 53.412 100.053C52.324 99.2559 51.236 98.0605 50.913 97.29C50.811 97.0244 50.658 96.7454 50.573 96.679C50.488 96.5993 50.42 100.252 50.42 105.273V114H80H109.58V105.034C109.58 100.106 109.546 96.068 109.495 96.068C109.444 96.068 109.376 96.1477 109.342 96.2274Z" fill="url(#paint4_linear_3229_1805)"/>
<path d="M109.342 96.2274C109.291 96.3204 109.138 96.7454 108.968 97.1838C108.577 98.2199 107.659 99.2958 106.384 100.212C104.65 101.461 102.729 102.045 100.315 102.045C98.071 102.045 96.15 101.501 94.399 100.385L93.481 99.8005L92.988 100.186C91.526 101.315 89.095 102.045 86.817 102.045C84.539 102.045 82.533 101.474 80.85 100.332L80.102 99.8271L79.184 100.412C77.399 101.541 75.631 102.045 73.37 102.045C71.109 102.045 69.001 101.434 67.42 100.345L66.655 99.8271L65.771 100.398C64.02 101.501 62.099 102.045 59.855 102.045C57.373 102.045 55.282 101.394 53.412 100.053C52.324 99.2559 51.236 98.0605 50.913 97.29C50.811 97.0244 50.658 96.7454 50.573 96.679C50.488 96.5993 50.42 100.252 50.42 105.273V114H80H109.58V105.034C109.58 100.106 109.546 96.068 109.495 96.068C109.444 96.068 109.376 96.1477 109.342 96.2274Z" fill="url(#paint5_radial_3229_1805)"/>
</g>
<defs>
<filter id="filter0_d_3229_1805" x="-7.12671" y="7.29297" width="145.078" height="152.004" filterUnits="userSpaceOnUse" color-interpolation-filters="sRGB">
<feFlood flood-opacity="0" result="BackgroundImageFix"/>
<feColorMatrix in="SourceAlpha" type="matrix" values="0 0 0 0 0 0 0 0 0 0 0 0 0 0 0 0 0 0 127 0" result="hardAlpha"/>
<feOffset dx="-5" dy="5"/>
<feGaussianBlur stdDeviation="4"/>
<feComposite in2="hardAlpha" operator="out"/>
<feColorMatrix type="matrix" values="0 0 0 0 0 0 0 0 0 0 0 0 0 0 0 0 0 0 0.25 0"/>
<feBlend mode="normal" in2="BackgroundImageFix" result="effect1_dropShadow_3229_1805"/>
<feBlend mode="normal" in="SourceGraphic" in2="effect1_dropShadow_3229_1805" result="shape"/>
</filter>
<linearGradient id="paint0_linear_3229_1805" x1="127.94" y1="118.818" x2="48.4553" y2="10.4027" gradientUnits="userSpaceOnUse">
<stop offset="0.291277" stop-color="#C8FC36"/>
<stop offset="0.867194" stop-color="#0E9C47"/>
</linearGradient>
<radialGradient id="paint1_radial_3229_1805" cx="0" cy="0" r="1" gradientUnits="userSpaceOnUse" gradientTransform="translate(59.2232 87.7601) rotate(-28.0567) scale(119.017 105.464)">
<stop stop-color="#00862D"/>
<stop offset="0.627261" stop-color="#0033CC"/>
</radialGradient>
<linearGradient id="paint2_linear_3229_1805" x1="100.17" y1="93.2601" x2="76.6999" y2="51.9847" gradientUnits="userSpaceOnUse">
<stop offset="0.291277" stop-color="#C8FC36"/>
<stop offset="0.867194" stop-color="#0E9C47"/>
</linearGradient>
<radialGradient id="paint3_radial_3229_1805" cx="0" cy="0" r="1" gradientUnits="userSpaceOnUse" gradientTransform="translate(71.1368 83.0832) rotate(-22.4584) scale(48.017 36.1905)">
<stop stop-color="#00862D"/>
<stop offset="0.627261" stop-color="#0033CC"/>
</radialGradient>
<linearGradient id="paint4_linear_3229_1805" x1="121.708" y1="121.083" x2="106.412" y2="68.2478" gradientUnits="userSpaceOnUse">
<stop offset="0.291277" stop-color="#C8FC36"/>
<stop offset="0.867194" stop-color="#0E9C47"/>
</linearGradient>
<radialGradient id="paint5_radial_3229_1805" cx="0" cy="0" r="1" gradientUnits="userSpaceOnUse" gradientTransform="translate(61.9243 110.414) rotate(-11.8848) scale(93.378 40.1753)">
<stop stop-color="#00862D"/>
<stop offset="0.627261" stop-color="#0033CC"/>
</radialGradient>
<clipPath id="clip0_3229_1805">
<rect width="160" height="160" fill="white"/>
</clipPath>
</defs>
</svg>
