<svg width="160" height="160" viewBox="0 0 160 160" fill="none" xmlns="http://www.w3.org/2000/svg">
<g clip-path="url(#clip0_3229_1921)">
<g filter="url(#filter0_d_3229_1921)">
<path d="M81.0962 15.7562C100.014 2.51003 126.177 14.71 128.189 37.7161L134.831 113.636C136.844 136.642 113.197 153.2 92.2671 143.44L23.1971 111.232C2.26686 101.472 -0.24911 72.7148 18.6684 59.4686L81.0962 15.7562Z" fill="white"/>
</g>
<path d="M76.8005 46.7385C71.5464 49.0576 70.4546 55.6055 74.4805 59.698C76.3229 61.4715 77.1417 61.8125 80.0077 61.8125C82.7371 61.8125 83.6924 61.4715 85.3983 59.8345C91.8808 53.6275 84.9207 43.1234 76.8005 46.7385Z" fill="white"/>
<path d="M76.8005 46.7385C71.5464 49.0576 70.4546 55.6055 74.4805 59.698C76.3229 61.4715 77.1417 61.8125 80.0077 61.8125C82.7371 61.8125 83.6924 61.4715 85.3983 59.8345C91.8808 53.6275 84.9207 43.1234 76.8005 46.7385Z" fill="url(#paint0_linear_3229_1921)"/>
<path d="M76.8005 46.7385C71.5464 49.0576 70.4546 55.6055 74.4805 59.698C76.3229 61.4715 77.1417 61.8125 80.0077 61.8125C82.7371 61.8125 83.6924 61.4715 85.3983 59.8345C91.8808 53.6275 84.9207 43.1234 76.8005 46.7385Z" fill="url(#paint1_radial_3229_1921)"/>
<path d="M50.8708 50.831C46.7766 52.6727 44.7295 58.2657 46.8448 62.0172C48.1413 64.4045 51.3484 66.2461 54.2143 66.2461C57.4897 66.2461 61.3791 63.0403 61.925 59.8345C63.1533 53.5594 56.6026 48.3073 50.8708 50.831Z" fill="white"/>
<path d="M50.8708 50.831C46.7766 52.6727 44.7295 58.2657 46.8448 62.0172C48.1413 64.4045 51.3484 66.2461 54.2143 66.2461C57.4897 66.2461 61.3791 63.0403 61.925 59.8345C63.1533 53.5594 56.6026 48.3073 50.8708 50.831Z" fill="url(#paint2_linear_3229_1921)"/>
<path d="M50.8708 50.831C46.7766 52.6727 44.7295 58.2657 46.8448 62.0172C48.1413 64.4045 51.3484 66.2461 54.2143 66.2461C57.4897 66.2461 61.3791 63.0403 61.925 59.8345C63.1533 53.5594 56.6026 48.3073 50.8708 50.831Z" fill="url(#paint3_radial_3229_1921)"/>
<path d="M102.526 51.1039C99.4549 52.6044 97.4078 56.4923 98.022 59.7663C98.6361 62.9721 102.526 66.2461 105.664 66.2461C110.782 66.2461 114.603 62.0854 113.921 57.2426C113.512 54.105 111.942 52.127 108.872 50.831C106.006 49.6033 105.391 49.6033 102.526 51.1039Z" fill="white"/>
<path d="M102.526 51.1039C99.4549 52.6044 97.4078 56.4923 98.022 59.7663C98.6361 62.9721 102.526 66.2461 105.664 66.2461C110.782 66.2461 114.603 62.0854 113.921 57.2426C113.512 54.105 111.942 52.127 108.872 50.831C106.006 49.6033 105.391 49.6033 102.526 51.1039Z" fill="url(#paint4_linear_3229_1921)"/>
<path d="M102.526 51.1039C99.4549 52.6044 97.4078 56.4923 98.022 59.7663C98.6361 62.9721 102.526 66.2461 105.664 66.2461C110.782 66.2461 114.603 62.0854 113.921 57.2426C113.512 54.105 111.942 52.127 108.872 50.831C106.006 49.6033 105.391 49.6033 102.526 51.1039Z" fill="url(#paint5_radial_3229_1921)"/>
<path d="M78.3018 64.8813C78.097 65.2224 78.097 65.9726 78.4382 66.3819C78.7112 66.8593 78.9841 68.701 78.9841 70.4744C78.9841 72.2478 79.2571 73.8848 79.53 74.1576C80.4171 75.1125 81.0312 73.6802 81.0312 70.4744C81.0312 68.701 81.3041 66.8593 81.5771 66.3819C82.3277 65.2906 81.5771 64.1992 80.0077 64.1992C79.3253 64.1992 78.5065 64.4721 78.3018 64.8813Z" fill="white"/>
<path d="M78.3018 64.8813C78.097 65.2224 78.097 65.9726 78.4382 66.3819C78.7112 66.8593 78.9841 68.701 78.9841 70.4744C78.9841 72.2478 79.2571 73.8848 79.53 74.1576C80.4171 75.1125 81.0312 73.6802 81.0312 70.4744C81.0312 68.701 81.3041 66.8593 81.5771 66.3819C82.3277 65.2906 81.5771 64.1992 80.0077 64.1992C79.3253 64.1992 78.5065 64.4721 78.3018 64.8813Z" fill="url(#paint6_linear_3229_1921)"/>
<path d="M78.3018 64.8813C78.097 65.2224 78.097 65.9726 78.4382 66.3819C78.7112 66.8593 78.9841 68.701 78.9841 70.4744C78.9841 72.2478 79.2571 73.8848 79.53 74.1576C80.4171 75.1125 81.0312 73.6802 81.0312 70.4744C81.0312 68.701 81.3041 66.8593 81.5771 66.3819C82.3277 65.2906 81.5771 64.1992 80.0077 64.1992C79.3253 64.1992 78.5065 64.4721 78.3018 64.8813Z" fill="url(#paint7_radial_3229_1921)"/>
<path d="M68.6804 67.2036L66.3604 69.5227V76.4117V83.3008H80.0077H93.6549V76.5482C93.6549 70.273 93.5184 69.5909 91.949 67.7493C89.9701 65.362 86.2854 64.2025 85.3983 65.6348C85.0571 66.1805 83.8289 69.4545 82.6006 72.8649C81.3724 76.3435 80.2124 79.2083 80.0077 79.2083C79.8029 79.2083 78.5065 76.0025 77.0053 72.0464C74.6852 65.5666 74.2758 64.8846 72.7064 64.8846C71.6828 64.8846 70.0452 65.8395 68.6804 67.2036Z" fill="white"/>
<path d="M68.6804 67.2036L66.3604 69.5227V76.4117V83.3008H80.0077H93.6549V76.5482C93.6549 70.273 93.5184 69.5909 91.949 67.7493C89.9701 65.362 86.2854 64.2025 85.3983 65.6348C85.0571 66.1805 83.8289 69.4545 82.6006 72.8649C81.3724 76.3435 80.2124 79.2083 80.0077 79.2083C79.8029 79.2083 78.5065 76.0025 77.0053 72.0464C74.6852 65.5666 74.2758 64.8846 72.7064 64.8846C71.6828 64.8846 70.0452 65.8395 68.6804 67.2036Z" fill="url(#paint8_linear_3229_1921)"/>
<path d="M68.6804 67.2036L66.3604 69.5227V76.4117V83.3008H80.0077H93.6549V76.5482C93.6549 70.273 93.5184 69.5909 91.949 67.7493C89.9701 65.362 86.2854 64.2025 85.3983 65.6348C85.0571 66.1805 83.8289 69.4545 82.6006 72.8649C81.3724 76.3435 80.2124 79.2083 80.0077 79.2083C79.8029 79.2083 78.5065 76.0025 77.0053 72.0464C74.6852 65.5666 74.2758 64.8846 72.7064 64.8846C71.6828 64.8846 70.0452 65.8395 68.6804 67.2036Z" fill="url(#paint9_radial_3229_1921)"/>
<path d="M50.8708 69.3165C46.9813 70.9535 46.4354 73.1362 46.7084 85.4137C46.9131 96.1906 46.9131 96.2588 48.8237 98.1004C50.5296 99.8056 51.2119 100.01 56.4661 100.283L62.2662 100.488V106.831C62.2662 111.947 62.4709 113.243 63.358 113.584C65.2686 114.334 72.2287 113.993 73.0475 113.174C73.5934 112.629 73.8664 109.287 73.8664 102.534V92.7119L71.8875 90.7339C70.1134 88.9605 69.431 88.7559 65.7463 88.7559H61.5839V81.8668C61.5839 73.8183 60.6285 71.0217 57.1485 69.3847C54.419 68.0888 53.6685 68.0888 50.8708 69.3165Z" fill="white"/>
<path d="M50.8708 69.3165C46.9813 70.9535 46.4354 73.1362 46.7084 85.4137C46.9131 96.1906 46.9131 96.2588 48.8237 98.1004C50.5296 99.8056 51.2119 100.01 56.4661 100.283L62.2662 100.488V106.831C62.2662 111.947 62.4709 113.243 63.358 113.584C65.2686 114.334 72.2287 113.993 73.0475 113.174C73.5934 112.629 73.8664 109.287 73.8664 102.534V92.7119L71.8875 90.7339C70.1134 88.9605 69.431 88.7559 65.7463 88.7559H61.5839V81.8668C61.5839 73.8183 60.6285 71.0217 57.1485 69.3847C54.419 68.0888 53.6685 68.0888 50.8708 69.3165Z" fill="url(#paint10_linear_3229_1921)"/>
<path d="M50.8708 69.3165C46.9813 70.9535 46.4354 73.1362 46.7084 85.4137C46.9131 96.1906 46.9131 96.2588 48.8237 98.1004C50.5296 99.8056 51.2119 100.01 56.4661 100.283L62.2662 100.488V106.831C62.2662 111.947 62.4709 113.243 63.358 113.584C65.2686 114.334 72.2287 113.993 73.0475 113.174C73.5934 112.629 73.8664 109.287 73.8664 102.534V92.7119L71.8875 90.7339C70.1134 88.9605 69.431 88.7559 65.7463 88.7559H61.5839V81.8668C61.5839 73.8183 60.6285 71.0217 57.1485 69.3847C54.419 68.0888 53.6685 68.0888 50.8708 69.3165Z" fill="url(#paint11_radial_3229_1921)"/>
<path d="M103.549 68.9755C102.799 69.2483 101.434 70.3396 100.478 71.3628C98.9091 73.068 98.7726 73.75 98.5679 80.9801L98.2949 88.7559H94.2008C90.5842 88.7559 89.9019 88.9605 88.1277 90.7339L86.1489 92.7119V102.534C86.1489 109.287 86.4218 112.629 86.9677 113.174C87.7866 113.993 94.7467 114.334 96.6573 113.584C97.5443 113.243 97.749 111.947 97.749 106.831V100.488L103.549 100.283C108.803 100.01 109.486 99.8056 111.192 98.1004C113.102 96.2588 113.102 96.1906 113.307 85.4137C113.58 72.9998 113.034 70.9535 109.008 69.2483C106.415 68.157 105.528 68.157 103.549 68.9755Z" fill="white"/>
<path d="M103.549 68.9755C102.799 69.2483 101.434 70.3396 100.478 71.3628C98.9091 73.068 98.7726 73.75 98.5679 80.9801L98.2949 88.7559H94.2008C90.5842 88.7559 89.9019 88.9605 88.1277 90.7339L86.1489 92.7119V102.534C86.1489 109.287 86.4218 112.629 86.9677 113.174C87.7866 113.993 94.7467 114.334 96.6573 113.584C97.5443 113.243 97.749 111.947 97.749 106.831V100.488L103.549 100.283C108.803 100.01 109.486 99.8056 111.192 98.1004C113.102 96.2588 113.102 96.1906 113.307 85.4137C113.58 72.9998 113.034 70.9535 109.008 69.2483C106.415 68.157 105.528 68.157 103.549 68.9755Z" fill="url(#paint12_linear_3229_1921)"/>
<path d="M103.549 68.9755C102.799 69.2483 101.434 70.3396 100.478 71.3628C98.9091 73.068 98.7726 73.75 98.5679 80.9801L98.2949 88.7559H94.2008C90.5842 88.7559 89.9019 88.9605 88.1277 90.7339L86.1489 92.7119V102.534C86.1489 109.287 86.4218 112.629 86.9677 113.174C87.7866 113.993 94.7467 114.334 96.6573 113.584C97.5443 113.243 97.749 111.947 97.749 106.831V100.488L103.549 100.283C108.803 100.01 109.486 99.8056 111.192 98.1004C113.102 96.2588 113.102 96.1906 113.307 85.4137C113.58 72.9998 113.034 70.9535 109.008 69.2483C106.415 68.157 105.528 68.157 103.549 68.9755Z" fill="url(#paint13_radial_3229_1921)"/>
</g>
<defs>
<filter id="filter0_d_3229_1921" x="-7.12666" y="7.29297" width="145.078" height="152.004" filterUnits="userSpaceOnUse" color-interpolation-filters="sRGB">
<feFlood flood-opacity="0" result="BackgroundImageFix"/>
<feColorMatrix in="SourceAlpha" type="matrix" values="0 0 0 0 0 0 0 0 0 0 0 0 0 0 0 0 0 0 127 0" result="hardAlpha"/>
<feOffset dx="-5" dy="5"/>
<feGaussianBlur stdDeviation="4"/>
<feComposite in2="hardAlpha" operator="out"/>
<feColorMatrix type="matrix" values="0 0 0 0 0 0 0 0 0 0 0 0 0 0 0 0 0 0 0.25 0"/>
<feBlend mode="normal" in2="BackgroundImageFix" result="effect1_dropShadow_3229_1921"/>
<feBlend mode="normal" in="SourceGraphic" in2="effect1_dropShadow_3229_1921" result="shape"/>
</filter>
<linearGradient id="paint0_linear_3229_1921" x1="91.2132" y1="68.0585" x2="65.9994" y2="41.4994" gradientUnits="userSpaceOnUse">
<stop offset="0.186252" stop-color="#B1D60C"/>
<stop offset="0.852156" stop-color="#0E9C47"/>
</linearGradient>
<radialGradient id="paint1_radial_3229_1921" cx="0" cy="0" r="1" gradientUnits="userSpaceOnUse" gradientTransform="translate(75.1372 58.6501) rotate(-34.6113) scale(29.8551 29.7961)">
<stop stop-color="#00862D"/>
<stop offset="0.627261" stop-color="#0033CC"/>
</radialGradient>
<linearGradient id="paint2_linear_3229_1921" x1="65.3704" y1="72.5905" x2="39.7528" y2="45.7463" gradientUnits="userSpaceOnUse">
<stop offset="0.186252" stop-color="#B1D60C"/>
<stop offset="0.852156" stop-color="#0E9C47"/>
</linearGradient>
<radialGradient id="paint3_radial_3229_1921" cx="0" cy="0" r="1" gradientUnits="userSpaceOnUse" gradientTransform="translate(49.1259 63.0339) rotate(-34.751) scale(30.2188 30.2145)">
<stop stop-color="#00862D"/>
<stop offset="0.627261" stop-color="#0033CC"/>
</radialGradient>
<linearGradient id="paint4_linear_3229_1921" x1="117.298" y1="72.6863" x2="91.2787" y2="45.8069" gradientUnits="userSpaceOnUse">
<stop offset="0.186252" stop-color="#B1D60C"/>
<stop offset="0.852156" stop-color="#0E9C47"/>
</linearGradient>
<radialGradient id="paint5_radial_3229_1921" cx="0" cy="0" r="1" gradientUnits="userSpaceOnUse" gradientTransform="translate(101.041 62.9854) rotate(-35.1341) scale(30.3829 30.5278)">
<stop stop-color="#00862D"/>
<stop offset="0.627261" stop-color="#0033CC"/>
</radialGradient>
<linearGradient id="paint6_linear_3229_1921" x1="82.6304" y1="78.498" x2="71.7877" y2="74.3909" gradientUnits="userSpaceOnUse">
<stop offset="0.186252" stop-color="#B1D60C"/>
<stop offset="0.852156" stop-color="#0E9C47"/>
</linearGradient>
<radialGradient id="paint7_radial_3229_1921" cx="0" cy="0" r="1" gradientUnits="userSpaceOnUse" gradientTransform="translate(78.8831 72.3993) rotate(-62.4782) scale(12.395 10.844)">
<stop stop-color="#00862D"/>
<stop offset="0.627261" stop-color="#0033CC"/>
</radialGradient>
<linearGradient id="paint8_linear_3229_1921" x1="99.2503" y1="90.5752" x2="72.4723" y2="49.0217" gradientUnits="userSpaceOnUse">
<stop offset="0.186252" stop-color="#B1D60C"/>
<stop offset="0.852156" stop-color="#0E9C47"/>
</linearGradient>
<radialGradient id="paint9_radial_3229_1921" cx="0" cy="0" r="1" gradientUnits="userSpaceOnUse" gradientTransform="translate(71.6681 79.6178) rotate(-25.1019) scale(46.5549 38.1818)">
<stop stop-color="#00862D"/>
<stop offset="0.627261" stop-color="#0033CC"/>
</radialGradient>
<linearGradient id="paint10_linear_3229_1921" x1="79.446" y1="132.01" x2="14.0057" y2="91.1103" gradientUnits="userSpaceOnUse">
<stop offset="0.186252" stop-color="#B1D60C"/>
<stop offset="0.852156" stop-color="#0E9C47"/>
</linearGradient>
<radialGradient id="paint11_radial_3229_1921" cx="0" cy="0" r="1" gradientUnits="userSpaceOnUse" gradientTransform="translate(51.9415 104.881) rotate(-49.3133) scale(64.485 68.0556)">
<stop stop-color="#00862D"/>
<stop offset="0.627261" stop-color="#0033CC"/>
</radialGradient>
<linearGradient id="paint12_linear_3229_1921" x1="118.946" y1="132.015" x2="53.4961" y2="91.1206" gradientUnits="userSpaceOnUse">
<stop offset="0.186252" stop-color="#B1D60C"/>
<stop offset="0.852156" stop-color="#0E9C47"/>
</linearGradient>
<radialGradient id="paint13_radial_3229_1921" cx="0" cy="0" r="1" gradientUnits="userSpaceOnUse" gradientTransform="translate(91.4415 104.879) rotate(-49.3211) scale(64.4945 68.0627)">
<stop stop-color="#00862D"/>
<stop offset="0.627261" stop-color="#0033CC"/>
</radialGradient>
<clipPath id="clip0_3229_1921">
<rect width="160" height="160" fill="white"/>
</clipPath>
</defs>
</svg>
