<svg width="160" height="160" viewBox="0 0 160 160" fill="none" xmlns="http://www.w3.org/2000/svg">
<g clip-path="url(#clip0_3229_2972)">
<g filter="url(#filter0_d_3229_2972)">
<path d="M81.0962 15.7562C100.014 2.51003 126.177 14.71 128.189 37.7161L134.831 113.636C136.844 136.642 113.197 153.2 92.2671 143.44L23.1971 111.232C2.26686 101.472 -0.24911 72.7148 18.6684 59.4686L81.0962 15.7562Z" fill="white"/>
</g>
<path d="M69.0891 52.4318C62.0014 56.0718 56.0042 59.6342 55.2546 60.641C54.2323 62.1124 54.0279 63.8162 54.0279 72.1803V82.0158H58.3213C63.5007 82.0932 67.1809 84.0293 70.5884 88.5211C74.2003 93.3227 75.2907 100.138 73.3825 105.791C73.1099 106.643 73.9277 107.418 76.1767 108.579C84.0139 112.529 83.0598 112.606 97.9847 105.482C109.229 100.06 111.683 98.5889 112.773 96.6528C113.864 94.6393 114 92.5483 114 79.0729C114 70.7088 113.727 62.8869 113.319 61.8027C112.841 60.2538 111.206 59.0147 106.981 56.7688L101.256 53.671L86.5355 61.5703L71.8151 69.4697L71.6106 74.2713L71.4062 79.0729L69.2254 78.0661C66.9764 76.9818 66.9764 76.9044 66.9764 71.8705V66.7591L74.1322 62.8869C78.0849 60.7959 84.5591 57.3109 88.6481 55.1424L95.9402 51.1927L90.8971 48.5596C88.1711 47.0882 84.8999 45.9265 83.7413 46.0039C82.5828 46.0039 75.9722 48.9468 69.0891 52.4318ZM107.935 73.1096C109.366 75.3555 109.366 75.6653 108.344 76.5172C107.458 77.2916 107.185 78.7631 107.185 83.2549C107.185 89.1407 106.572 90.8445 104.323 90.8445C103.232 90.8445 103.096 90.1475 103.096 85.4233C103.096 81.0864 102.892 80.0022 102.074 80.0022C100.711 80.0022 100.711 80.0022 102.892 74.9683C103.914 72.6449 105.14 70.7088 105.549 70.7088C106.026 70.7088 107.117 71.793 107.935 73.1096ZM95.1906 79.8473C96.8262 81.8609 96.8943 82.1706 95.9402 83.1C95.1906 83.797 94.918 85.5782 94.918 89.7602C94.918 94.5618 94.7135 95.5686 93.6231 96.2656C91.1697 97.7371 90.829 97.1949 90.829 91.6964C90.829 87.8241 90.5564 86.2752 89.943 86.0429C89.2615 85.888 89.3978 84.8812 90.6245 81.706C91.5786 79.5375 92.5327 77.6788 92.8053 77.6788C93.0779 77.6788 94.1683 78.6856 95.1906 79.8473ZM110.184 92.3934C109.161 93.4001 87.8985 103.236 87.4896 102.848C87.3533 102.616 87.4896 102.074 87.8985 101.609C89.1934 100.138 110.252 90.3024 110.524 90.9994C110.661 91.464 110.456 92.0061 110.184 92.3934Z" fill="white"/>
<path d="M69.0891 52.4318C62.0014 56.0718 56.0042 59.6342 55.2546 60.641C54.2323 62.1124 54.0279 63.8162 54.0279 72.1803V82.0158H58.3213C63.5007 82.0932 67.1809 84.0293 70.5884 88.5211C74.2003 93.3227 75.2907 100.138 73.3825 105.791C73.1099 106.643 73.9277 107.418 76.1767 108.579C84.0139 112.529 83.0598 112.606 97.9847 105.482C109.229 100.06 111.683 98.5889 112.773 96.6528C113.864 94.6393 114 92.5483 114 79.0729C114 70.7088 113.727 62.8869 113.319 61.8027C112.841 60.2538 111.206 59.0147 106.981 56.7688L101.256 53.671L86.5355 61.5703L71.8151 69.4697L71.6106 74.2713L71.4062 79.0729L69.2254 78.0661C66.9764 76.9818 66.9764 76.9044 66.9764 71.8705V66.7591L74.1322 62.8869C78.0849 60.7959 84.5591 57.3109 88.6481 55.1424L95.9402 51.1927L90.8971 48.5596C88.1711 47.0882 84.8999 45.9265 83.7413 46.0039C82.5828 46.0039 75.9722 48.9468 69.0891 52.4318ZM107.935 73.1096C109.366 75.3555 109.366 75.6653 108.344 76.5172C107.458 77.2916 107.185 78.7631 107.185 83.2549C107.185 89.1407 106.572 90.8445 104.323 90.8445C103.232 90.8445 103.096 90.1475 103.096 85.4233C103.096 81.0864 102.892 80.0022 102.074 80.0022C100.711 80.0022 100.711 80.0022 102.892 74.9683C103.914 72.6449 105.14 70.7088 105.549 70.7088C106.026 70.7088 107.117 71.793 107.935 73.1096ZM95.1906 79.8473C96.8262 81.8609 96.8943 82.1706 95.9402 83.1C95.1906 83.797 94.918 85.5782 94.918 89.7602C94.918 94.5618 94.7135 95.5686 93.6231 96.2656C91.1697 97.7371 90.829 97.1949 90.829 91.6964C90.829 87.8241 90.5564 86.2752 89.943 86.0429C89.2615 85.888 89.3978 84.8812 90.6245 81.706C91.5786 79.5375 92.5327 77.6788 92.8053 77.6788C93.0779 77.6788 94.1683 78.6856 95.1906 79.8473ZM110.184 92.3934C109.161 93.4001 87.8985 103.236 87.4896 102.848C87.3533 102.616 87.4896 102.074 87.8985 101.609C89.1934 100.138 110.252 90.3024 110.524 90.9994C110.661 91.464 110.456 92.0061 110.184 92.3934Z" fill="url(#paint0_radial_3229_2972)"/>
<path d="M52.4604 87.0491C46.7358 90.4567 44.3505 99.2079 47.2129 105.946C51.7789 116.633 65.3408 116.71 70.1795 106.023C71.5425 103.003 71.5425 96.4974 70.1795 93.5545C68.8165 90.5341 65.7497 87.2814 63.3644 86.2747C60.3658 84.9581 55.3227 85.3453 52.4604 87.0491ZM67.3853 94.3289C67.7942 95.4131 65.2045 99.3628 59.8888 105.791C58.1169 107.959 58.1169 107.959 56.0724 106.565C54.9138 105.791 53.1419 104.242 52.1878 103.08C50.6885 101.299 50.5522 100.757 51.3019 99.7501C52.4604 98.2012 53.5508 98.2786 55.0501 100.137C55.7316 100.989 56.6857 101.686 57.1628 101.686C57.6398 101.686 59.4799 99.7501 61.1836 97.4267C64.3867 93.1672 66.6356 92.083 67.3853 94.3289Z" fill="white"/>
<path d="M52.4604 87.0491C46.7358 90.4567 44.3505 99.2079 47.2129 105.946C51.7789 116.633 65.3408 116.71 70.1795 106.023C71.5425 103.003 71.5425 96.4974 70.1795 93.5545C68.8165 90.5341 65.7497 87.2814 63.3644 86.2747C60.3658 84.9581 55.3227 85.3453 52.4604 87.0491ZM67.3853 94.3289C67.7942 95.4131 65.2045 99.3628 59.8888 105.791C58.1169 107.959 58.1169 107.959 56.0724 106.565C54.9138 105.791 53.1419 104.242 52.1878 103.08C50.6885 101.299 50.5522 100.757 51.3019 99.7501C52.4604 98.2012 53.5508 98.2786 55.0501 100.137C55.7316 100.989 56.6857 101.686 57.1628 101.686C57.6398 101.686 59.4799 99.7501 61.1836 97.4267C64.3867 93.1672 66.6356 92.083 67.3853 94.3289Z" fill="url(#paint1_radial_3229_2972)"/>
</g>
<defs>
<filter id="filter0_d_3229_2972" x="-7.12666" y="7.29297" width="145.078" height="152.004" filterUnits="userSpaceOnUse" color-interpolation-filters="sRGB">
<feFlood flood-opacity="0" result="BackgroundImageFix"/>
<feColorMatrix in="SourceAlpha" type="matrix" values="0 0 0 0 0 0 0 0 0 0 0 0 0 0 0 0 0 0 127 0" result="hardAlpha"/>
<feOffset dx="-5" dy="5"/>
<feGaussianBlur stdDeviation="4"/>
<feComposite in2="hardAlpha" operator="out"/>
<feColorMatrix type="matrix" values="0 0 0 0 0 0 0 0 0 0 0 0 0 0 0 0 0 0 0.25 0"/>
<feBlend mode="normal" in2="BackgroundImageFix" result="effect1_dropShadow_3229_2972"/>
<feBlend mode="normal" in="SourceGraphic" in2="effect1_dropShadow_3229_2972" result="shape"/>
</filter>
<radialGradient id="paint0_radial_3229_2972" cx="0" cy="0" r="1" gradientUnits="userSpaceOnUse" gradientTransform="translate(65.69 98.2102) rotate(-37.0731) scale(116.098 119.214)">
<stop stop-color="#00862D"/>
<stop offset="0.627261" stop-color="#0033CC"/>
</radialGradient>
<radialGradient id="paint1_radial_3229_2972" cx="0" cy="0" r="1" gradientUnits="userSpaceOnUse" gradientTransform="translate(50.9007 108.298) rotate(-38.1507) scale(49.4992 51.3347)">
<stop stop-color="#00862D"/>
<stop offset="0.627261" stop-color="#0033CC"/>
</radialGradient>
<clipPath id="clip0_3229_2972">
<rect width="160" height="160" fill="white"/>
</clipPath>
</defs>
</svg>
