<svg width="160" height="160" viewBox="0 0 160 160" fill="none" xmlns="http://www.w3.org/2000/svg">
<g clip-path="url(#clip0_3229_2959)">
<g filter="url(#filter0_d_3229_2959)">
<path d="M81.0962 15.7562C100.014 2.51003 126.177 14.71 128.189 37.7161L134.831 113.636C136.844 136.642 113.197 153.2 92.2671 143.44L23.1971 111.232C2.26686 101.472 -0.24911 72.7148 18.6684 59.4686L81.0962 15.7562Z" fill="white"/>
</g>
<path d="M78.2952 47.6189C77.2042 48.6625 76.5905 50.1236 76.5905 51.4456C76.5905 53.9503 79.1817 57.0117 81.2956 57.0117C83.6823 57.0117 86.0008 55.481 86.8873 53.4633C89.0694 48.0363 82.3185 43.4443 78.2952 47.6189Z" fill="white"/>
<path d="M78.2952 47.6189C77.2042 48.6625 76.5905 50.1236 76.5905 51.4456C76.5905 53.9503 79.1817 57.0117 81.2956 57.0117C83.6823 57.0117 86.0008 55.481 86.8873 53.4633C89.0694 48.0363 82.3185 43.4443 78.2952 47.6189Z" fill="url(#paint0_radial_3229_2959)"/>
<path d="M73.4537 58.8919C72.6354 59.0311 71.2716 59.9356 70.3851 60.9096C68.8849 62.5795 68.7485 63.3448 68.5439 71.694L68.2712 80.6694H71.067H73.8628V72.5985C73.8628 67.4498 74.1356 64.7364 74.5447 65.0147C74.9539 65.293 75.2267 68.911 75.2267 73.5726C75.2267 85.5398 74.8175 84.844 82.4549 84.844C89.6831 84.844 90.6378 84.0091 86.4782 81.3652C83.9551 79.7649 82.7959 76.9818 83.8869 75.1729C84.2279 74.5467 85.5235 73.6422 86.6827 73.0856C88.7285 72.1115 88.8648 71.8332 88.8648 68.3543C88.8648 66.3366 89.2058 64.6668 89.5468 64.6668C89.9559 64.6668 90.2287 66.6149 90.2287 69.0501C90.2287 73.1551 90.365 73.503 92.2062 74.6162C93.2973 75.2424 94.3883 75.799 94.5929 75.799C94.7975 75.799 95.002 72.8768 95.002 69.3284C95.002 61.8837 94.2519 60.2139 90.365 59.1006C86.6145 58.057 86.3418 58.1961 85.4553 60.8401C85.0462 62.162 84.4324 63.2752 84.0915 63.2752C83.4096 63.2752 82.5913 60.9792 82.864 59.7268C83.0004 59.2398 82.5231 58.6832 81.8412 58.544C80.9547 58.3353 80.6137 58.6136 80.7501 59.5877C80.8183 60.2834 80.6819 61.7446 80.341 62.8578L79.7954 64.8755L78.7044 61.8141C77.5451 58.6832 76.6587 58.1961 73.4537 58.8919Z" fill="white"/>
<path d="M73.4537 58.8919C72.6354 59.0311 71.2716 59.9356 70.3851 60.9096C68.8849 62.5795 68.7485 63.3448 68.5439 71.694L68.2712 80.6694H71.067H73.8628V72.5985C73.8628 67.4498 74.1356 64.7364 74.5447 65.0147C74.9539 65.293 75.2267 68.911 75.2267 73.5726C75.2267 85.5398 74.8175 84.844 82.4549 84.844C89.6831 84.844 90.6378 84.0091 86.4782 81.3652C83.9551 79.7649 82.7959 76.9818 83.8869 75.1729C84.2279 74.5467 85.5235 73.6422 86.6827 73.0856C88.7285 72.1115 88.8648 71.8332 88.8648 68.3543C88.8648 66.3366 89.2058 64.6668 89.5468 64.6668C89.9559 64.6668 90.2287 66.6149 90.2287 69.0501C90.2287 73.1551 90.365 73.503 92.2062 74.6162C93.2973 75.2424 94.3883 75.799 94.5929 75.799C94.7975 75.799 95.002 72.8768 95.002 69.3284C95.002 61.8837 94.2519 60.2139 90.365 59.1006C86.6145 58.057 86.3418 58.1961 85.4553 60.8401C85.0462 62.162 84.4324 63.2752 84.0915 63.2752C83.4096 63.2752 82.5913 60.9792 82.864 59.7268C83.0004 59.2398 82.5231 58.6832 81.8412 58.544C80.9547 58.3353 80.6137 58.6136 80.7501 59.5877C80.8183 60.2834 80.6819 61.7446 80.341 62.8578L79.7954 64.8755L78.7044 61.8141C77.5451 58.6832 76.6587 58.1961 73.4537 58.8919Z" fill="url(#paint1_radial_3229_2959)"/>
<path d="M53.201 63.0666C52.6554 63.7624 51.9053 65.1539 51.7008 66.1976C51.2916 67.7283 51.6326 68.4936 53.2691 70.233C54.4284 71.3462 55.7922 72.3203 56.4059 72.3203C58.5198 72.3203 60.8383 70.6505 61.5202 68.7023C62.8159 65.0148 60.6338 61.8838 56.8151 61.8838C55.3149 61.8838 53.8829 62.3708 53.201 63.0666Z" fill="white"/>
<path d="M53.201 63.0666C52.6554 63.7624 51.9053 65.1539 51.7008 66.1976C51.2916 67.7283 51.6326 68.4936 53.2691 70.233C54.4284 71.3462 55.7922 72.3203 56.4059 72.3203C58.5198 72.3203 60.8383 70.6505 61.5202 68.7023C62.8159 65.0148 60.6338 61.8838 56.8151 61.8838C55.3149 61.8838 53.8829 62.3708 53.201 63.0666Z" fill="url(#paint2_radial_3229_2959)"/>
<path d="M101.821 62.3723C98.3434 63.6943 97.1841 68.2863 99.7754 70.9302C102.844 74.0612 107.958 71.6956 107.958 67.2427C107.958 63.9726 104.617 61.3287 101.821 62.3723Z" fill="white"/>
<path d="M101.821 62.3723C98.3434 63.6943 97.1841 68.2863 99.7754 70.9302C102.844 74.0612 107.958 71.6956 107.958 67.2427C107.958 63.9726 104.617 61.3287 101.821 62.3723Z" fill="url(#paint3_radial_3229_2959)"/>
<path d="M51.769 75.7301C50.6779 76.9129 50.6779 77.887 51.2916 85.8187C51.6326 90.6195 52.1781 94.9333 52.3827 95.2812C52.5872 95.6986 52.0417 95.9769 51.087 95.9769H49.3823L49.1777 87.0711C48.9731 78.7915 48.9049 78.2349 47.6093 78.2349C46.3137 78.2349 46.2455 78.7915 46.0409 94.8637C45.9045 106.622 46.1091 111.771 46.6546 112.397C47.9503 113.928 49.3141 112.188 49.3141 109.127V106.413H52.5872C54.9739 106.413 56.2696 106.066 57.0197 105.161C57.7016 104.465 58.1789 103.63 58.1789 103.422C58.1789 103.143 56.2014 102.935 53.7465 102.935C49.4505 102.935 49.3141 102.865 49.3141 101.195C49.3141 99.4558 49.3141 99.4558 55.6558 99.4558C59.0654 99.4558 62.3385 99.7341 62.7477 100.012C63.3614 100.43 62.4067 101.961 59.5427 105.231C57.2924 107.875 55.4513 110.379 55.4513 110.797C55.4513 112.049 56.8833 113.371 58.2471 113.371C59.8155 113.371 70.4533 101.334 70.4533 99.5253C70.4533 97.9251 68.8167 96.6727 64.1115 94.9333C62.3385 94.2375 60.9747 93.5417 61.1111 93.4026C61.2475 93.2634 63.4978 93.6809 66.0209 94.2375C68.5439 94.8637 70.7942 95.2116 70.9988 95.0029C71.2034 94.7941 70.9988 93.82 70.5897 92.846C69.9077 91.3849 69.294 91.1066 67.1119 91.1066C65.6117 91.1066 64.1797 90.7587 63.9751 90.4108C63.7706 89.9933 62.8159 89.715 61.8612 89.715C60.9747 89.715 60.2246 89.5759 60.2246 89.4367C60.2246 89.2976 59.4745 87.419 58.5199 85.2621C57.5652 83.1052 56.9515 81.3658 57.156 81.3658C57.2924 81.3658 58.3835 82.7574 59.6109 84.4968C61.5203 87.2103 62.134 87.6277 64.2479 87.6277C65.9527 87.6277 66.9755 88.0452 67.5893 89.0193C68.2712 90.2021 69.1576 90.4108 73.5219 90.4108H78.6362V100.152V109.892H76.6586C74.7493 109.892 74.6129 109.614 73.7946 106.066C73.3173 103.978 72.7718 102.239 72.499 102.239C72.2944 102.239 71.2034 103.143 70.1805 104.257C68.4075 106.135 68.4075 106.344 69.1576 109.405C69.5668 111.145 70.2487 112.675 70.726 112.814C71.1352 113.023 75.0903 112.954 79.5227 112.814C86.8191 112.536 87.501 112.397 87.501 111.214C87.501 110.101 86.9555 109.892 84.4324 109.892H81.3638V100.152V90.4108H86.3418C91.6607 90.4108 93.3654 89.7846 92.7517 88.0452C92.4108 87.0711 90.9106 86.932 82.864 86.932H73.4537L73.5219 84.9838C73.5219 83.1052 73.4537 83.1052 68.8167 83.0357C64.1115 82.9661 64.0433 82.8965 61.9976 80.2526C60.9065 78.7219 60.4292 77.9566 60.9065 78.374C62.3385 79.696 62.9523 79.4873 62.9523 77.6783C62.9523 75.1735 61.6566 74.4082 57.156 74.4082C53.8829 74.4082 52.6554 74.6865 51.769 75.7301Z" fill="white"/>
<path d="M51.769 75.7301C50.6779 76.9129 50.6779 77.887 51.2916 85.8187C51.6326 90.6195 52.1781 94.9333 52.3827 95.2812C52.5872 95.6986 52.0417 95.9769 51.087 95.9769H49.3823L49.1777 87.0711C48.9731 78.7915 48.9049 78.2349 47.6093 78.2349C46.3137 78.2349 46.2455 78.7915 46.0409 94.8637C45.9045 106.622 46.1091 111.771 46.6546 112.397C47.9503 113.928 49.3141 112.188 49.3141 109.127V106.413H52.5872C54.9739 106.413 56.2696 106.066 57.0197 105.161C57.7016 104.465 58.1789 103.63 58.1789 103.422C58.1789 103.143 56.2014 102.935 53.7465 102.935C49.4505 102.935 49.3141 102.865 49.3141 101.195C49.3141 99.4558 49.3141 99.4558 55.6558 99.4558C59.0654 99.4558 62.3385 99.7341 62.7477 100.012C63.3614 100.43 62.4067 101.961 59.5427 105.231C57.2924 107.875 55.4513 110.379 55.4513 110.797C55.4513 112.049 56.8833 113.371 58.2471 113.371C59.8155 113.371 70.4533 101.334 70.4533 99.5253C70.4533 97.9251 68.8167 96.6727 64.1115 94.9333C62.3385 94.2375 60.9747 93.5417 61.1111 93.4026C61.2475 93.2634 63.4978 93.6809 66.0209 94.2375C68.5439 94.8637 70.7942 95.2116 70.9988 95.0029C71.2034 94.7941 70.9988 93.82 70.5897 92.846C69.9077 91.3849 69.294 91.1066 67.1119 91.1066C65.6117 91.1066 64.1797 90.7587 63.9751 90.4108C63.7706 89.9933 62.8159 89.715 61.8612 89.715C60.9747 89.715 60.2246 89.5759 60.2246 89.4367C60.2246 89.2976 59.4745 87.419 58.5199 85.2621C57.5652 83.1052 56.9515 81.3658 57.156 81.3658C57.2924 81.3658 58.3835 82.7574 59.6109 84.4968C61.5203 87.2103 62.134 87.6277 64.2479 87.6277C65.9527 87.6277 66.9755 88.0452 67.5893 89.0193C68.2712 90.2021 69.1576 90.4108 73.5219 90.4108H78.6362V100.152V109.892H76.6586C74.7493 109.892 74.6129 109.614 73.7946 106.066C73.3173 103.978 72.7718 102.239 72.499 102.239C72.2944 102.239 71.2034 103.143 70.1805 104.257C68.4075 106.135 68.4075 106.344 69.1576 109.405C69.5668 111.145 70.2487 112.675 70.726 112.814C71.1352 113.023 75.0903 112.954 79.5227 112.814C86.8191 112.536 87.501 112.397 87.501 111.214C87.501 110.101 86.9555 109.892 84.4324 109.892H81.3638V100.152V90.4108H86.3418C91.6607 90.4108 93.3654 89.7846 92.7517 88.0452C92.4108 87.0711 90.9106 86.932 82.864 86.932H73.4537L73.5219 84.9838C73.5219 83.1052 73.4537 83.1052 68.8167 83.0357C64.1115 82.9661 64.0433 82.8965 61.9976 80.2526C60.9065 78.7219 60.4292 77.9566 60.9065 78.374C62.3385 79.696 62.9523 79.4873 62.9523 77.6783C62.9523 75.1735 61.6566 74.4082 57.156 74.4082C53.8829 74.4082 52.6554 74.6865 51.769 75.7301Z" fill="url(#paint4_radial_3229_2959)"/>
<path d="M98.6161 74.8256C97.3205 75.4518 97.5251 76.3563 99.0935 76.6346C100.116 76.7737 99.7754 77.1216 97.7978 77.9565C95.2066 79.0697 95.1384 79.0697 92.0016 77.1216C88.4557 74.8256 86.4781 74.5473 85.8644 76.2171C85.2507 77.8174 86.3417 78.9306 91.1151 81.6441L95.2066 84.0097L99.0253 82.3398L102.844 80.6004L99.639 83.5227C96.8432 85.8883 96.3658 86.7232 96.3658 88.8801C96.3658 90.6195 96.1612 91.1065 95.7521 90.4803C95.2748 89.715 95.0702 89.715 94.5929 90.6195C94.2519 91.2457 93.229 92.011 92.2744 92.4285C90.7742 93.0547 90.9105 93.1242 93.6382 93.1938C98.4797 93.2634 99.5708 94.5853 94.7974 94.5853C90.365 94.5853 88.1829 95.4203 88.1829 97.2293C88.1829 97.8554 89.6149 101.752 91.3197 105.857C94.5247 113.441 96.0249 115.11 98.0706 113.371C99.5708 112.119 99.3662 110.797 97.0477 105.787C94.661 100.708 94.7974 99.4557 97.5251 99.4557C99.0935 99.5253 99.2298 99.5949 98.2752 100.151C97.2523 100.778 97.2523 101.056 98.2752 103.63L99.4344 106.413H105.094H110.686V109.127C110.686 112.188 112.05 113.928 113.345 112.397C113.891 111.771 114.095 106.622 113.959 94.8636C113.755 78.7914 113.686 78.2348 112.391 78.2348C111.095 78.2348 111.027 78.7914 110.822 87.0711C110.686 95.4898 110.55 95.9769 109.254 95.9769C107.958 95.9769 107.89 95.629 108.231 92.2893C109.322 81.7137 109.39 77.5391 108.504 76.3563C107.617 75.1735 100.321 74.0602 98.6161 74.8256ZM110.686 101.195C110.686 102.935 110.618 102.935 105.231 102.935C100.389 102.935 99.7754 102.795 99.7754 101.682C99.7754 99.6644 100.321 99.4557 105.708 99.4557C110.55 99.4557 110.686 99.5253 110.686 101.195Z" fill="white"/>
<path d="M98.6161 74.8256C97.3205 75.4518 97.5251 76.3563 99.0935 76.6346C100.116 76.7737 99.7754 77.1216 97.7978 77.9565C95.2066 79.0697 95.1384 79.0697 92.0016 77.1216C88.4557 74.8256 86.4781 74.5473 85.8644 76.2171C85.2507 77.8174 86.3417 78.9306 91.1151 81.6441L95.2066 84.0097L99.0253 82.3398L102.844 80.6004L99.639 83.5227C96.8432 85.8883 96.3658 86.7232 96.3658 88.8801C96.3658 90.6195 96.1612 91.1065 95.7521 90.4803C95.2748 89.715 95.0702 89.715 94.5929 90.6195C94.2519 91.2457 93.229 92.011 92.2744 92.4285C90.7742 93.0547 90.9105 93.1242 93.6382 93.1938C98.4797 93.2634 99.5708 94.5853 94.7974 94.5853C90.365 94.5853 88.1829 95.4203 88.1829 97.2293C88.1829 97.8554 89.6149 101.752 91.3197 105.857C94.5247 113.441 96.0249 115.11 98.0706 113.371C99.5708 112.119 99.3662 110.797 97.0477 105.787C94.661 100.708 94.7974 99.4557 97.5251 99.4557C99.0935 99.5253 99.2298 99.5949 98.2752 100.151C97.2523 100.778 97.2523 101.056 98.2752 103.63L99.4344 106.413H105.094H110.686V109.127C110.686 112.188 112.05 113.928 113.345 112.397C113.891 111.771 114.095 106.622 113.959 94.8636C113.755 78.7914 113.686 78.2348 112.391 78.2348C111.095 78.2348 111.027 78.7914 110.822 87.0711C110.686 95.4898 110.55 95.9769 109.254 95.9769C107.958 95.9769 107.89 95.629 108.231 92.2893C109.322 81.7137 109.39 77.5391 108.504 76.3563C107.617 75.1735 100.321 74.0602 98.6161 74.8256ZM110.686 101.195C110.686 102.935 110.618 102.935 105.231 102.935C100.389 102.935 99.7754 102.795 99.7754 101.682C99.7754 99.6644 100.321 99.4557 105.708 99.4557C110.55 99.4557 110.686 99.5253 110.686 101.195Z" fill="url(#paint5_radial_3229_2959)"/>
<path d="M75.4994 100.15C75.4994 104.533 75.5676 106.342 75.704 104.116C75.8403 101.959 75.8403 98.3409 75.704 96.1145C75.5676 93.9576 75.4994 95.7666 75.4994 100.15Z" fill="white"/>
<path d="M75.4994 100.15C75.4994 104.533 75.5676 106.342 75.704 104.116C75.8403 101.959 75.8403 98.3409 75.704 96.1145C75.5676 93.9576 75.4994 95.7666 75.4994 100.15Z" fill="url(#paint6_radial_3229_2959)"/>
<path d="M84.0915 100.082V107.666L86.4781 107.944C88.5239 108.153 88.8648 108.013 88.8648 106.761C88.8648 105.996 88.4557 104.743 87.9783 103.978C86.1372 101.195 85.1143 96.6724 86.0008 95.2113C87.1601 93.3327 87.0237 92.4978 85.4553 92.4978C84.1597 92.4978 84.0915 92.9849 84.0915 100.082Z" fill="white"/>
<path d="M84.0915 100.082V107.666L86.4781 107.944C88.5239 108.153 88.8648 108.013 88.8648 106.761C88.8648 105.996 88.4557 104.743 87.9783 103.978C86.1372 101.195 85.1143 96.6724 86.0008 95.2113C87.1601 93.3327 87.0237 92.4978 85.4553 92.4978C84.1597 92.4978 84.0915 92.9849 84.0915 100.082Z" fill="url(#paint7_radial_3229_2959)"/>
</g>
<defs>
<filter id="filter0_d_3229_2959" x="-7.12665" y="7.29297" width="145.078" height="152.004" filterUnits="userSpaceOnUse" color-interpolation-filters="sRGB">
<feFlood flood-opacity="0" result="BackgroundImageFix"/>
<feColorMatrix in="SourceAlpha" type="matrix" values="0 0 0 0 0 0 0 0 0 0 0 0 0 0 0 0 0 0 127 0" result="hardAlpha"/>
<feOffset dx="-5" dy="5"/>
<feGaussianBlur stdDeviation="4"/>
<feComposite in2="hardAlpha" operator="out"/>
<feColorMatrix type="matrix" values="0 0 0 0 0 0 0 0 0 0 0 0 0 0 0 0 0 0 0.25 0"/>
<feBlend mode="normal" in2="BackgroundImageFix" result="effect1_dropShadow_3229_2959"/>
<feBlend mode="normal" in="SourceGraphic" in2="effect1_dropShadow_3229_2959" result="shape"/>
</filter>
<radialGradient id="paint0_radial_3229_2959" cx="0" cy="0" r="1" gradientUnits="userSpaceOnUse" gradientTransform="translate(78.6752 54.8092) rotate(-35.4983) scale(20.3396 20.5281)">
<stop stop-color="#00862D"/>
<stop offset="0.627261" stop-color="#0033CC"/>
</radialGradient>
<radialGradient id="paint1_radial_3229_2959" cx="0" cy="0" r="1" gradientUnits="userSpaceOnUse" gradientTransform="translate(73.4692 79.5773) rotate(-34.4118) scale(50.0456 49.8136)">
<stop stop-color="#00862D"/>
<stop offset="0.627261" stop-color="#0033CC"/>
</radialGradient>
<radialGradient id="paint2_radial_3229_2959" cx="0" cy="0" r="1" gradientUnits="userSpaceOnUse" gradientTransform="translate(53.5561 70.2331) rotate(-34.9913) scale(19.5174 19.5752)">
<stop stop-color="#00862D"/>
<stop offset="0.627261" stop-color="#0033CC"/>
</radialGradient>
<radialGradient id="paint3_radial_3229_2959" cx="0" cy="0" r="1" gradientUnits="userSpaceOnUse" gradientTransform="translate(100.232 70.3159) rotate(-36.4898) scale(18.427 18.8083)">
<stop stop-color="#00862D"/>
<stop offset="0.627261" stop-color="#0033CC"/>
</radialGradient>
<radialGradient id="paint4_radial_3229_2959" cx="0" cy="0" r="1" gradientUnits="userSpaceOnUse" gradientTransform="translate(55.1144 105.579) rotate(-29.9926) scale(83.588 77.2602)">
<stop stop-color="#00862D"/>
<stop offset="0.627261" stop-color="#0033CC"/>
</radialGradient>
<radialGradient id="paint5_radial_3229_2959" cx="0" cy="0" r="1" gradientUnits="userSpaceOnUse" gradientTransform="translate(91.2102 106.115) rotate(-44.0565) scale(60.8048 64.8706)">
<stop stop-color="#00862D"/>
<stop offset="0.627261" stop-color="#0033CC"/>
</radialGradient>
<radialGradient id="paint6_radial_3229_2959" cx="0" cy="0" r="1" gradientUnits="userSpaceOnUse" gradientTransform="translate(75.5591 103.097) rotate(-87.4351) scale(10.5909 1.01085)">
<stop stop-color="#00862D"/>
<stop offset="0.627261" stop-color="#0033CC"/>
</radialGradient>
<radialGradient id="paint7_radial_3229_2959" cx="0" cy="0" r="1" gradientUnits="userSpaceOnUse" gradientTransform="translate(85.0197 104.918) rotate(-66.1158) scale(18.2093 14.3922)">
<stop stop-color="#00862D"/>
<stop offset="0.627261" stop-color="#0033CC"/>
</radialGradient>
<clipPath id="clip0_3229_2959">
<rect width="160" height="160" fill="white"/>
</clipPath>
</defs>
</svg>
