<svg width="160" height="160" viewBox="0 0 160 160" fill="none" xmlns="http://www.w3.org/2000/svg">
<g clip-path="url(#clip0_3229_1813)">
<g filter="url(#filter0_d_3229_1813)">
<path d="M81.0962 15.7562C100.014 2.51003 126.177 14.71 128.189 37.7161L134.831 113.636C136.844 136.642 113.197 153.2 92.2671 143.44L23.1971 111.232C2.26686 101.472 -0.24911 72.7148 18.6684 59.4686L81.0962 15.7562Z" fill="white"/>
</g>
<path d="M53.0971 46.08C49.7691 46.7313 47.425 49.8548 48.0038 52.8721C48.9443 57.7901 55.3688 59.6111 59.1454 56.0356C60.9976 54.2677 61.4316 51.3967 60.1728 49.1371C59.5072 47.9541 57.8432 46.6648 56.4396 46.266C55.557 46.0135 53.9074 45.9205 53.0971 46.08Z" fill="white"/>
<path d="M53.0971 46.08C49.7691 46.7313 47.425 49.8548 48.0038 52.8721C48.9443 57.7901 55.3688 59.6111 59.1454 56.0356C60.9976 54.2677 61.4316 51.3967 60.1728 49.1371C59.5072 47.9541 57.8432 46.6648 56.4396 46.266C55.557 46.0135 53.9074 45.9205 53.0971 46.08Z" fill="url(#paint0_linear_3229_1813)"/>
<path d="M53.0971 46.08C49.7691 46.7313 47.425 49.8548 48.0038 52.8721C48.9443 57.7901 55.3688 59.6111 59.1454 56.0356C60.9976 54.2677 61.4316 51.3967 60.1728 49.1371C59.5072 47.9541 57.8432 46.6648 56.4396 46.266C55.557 46.0135 53.9074 45.9205 53.0971 46.08Z" fill="url(#paint1_radial_3229_1813)"/>
<path d="M70.808 57.4432L66.3224 57.6293L62.0249 58.8256L57.7274 60.0351H53.6759C49.9861 60.0351 49.552 60.0617 48.843 60.301C47.8735 60.6333 46.933 61.4573 46.441 62.4144L46.0648 63.1587L46.0214 87.1505C45.978 114.04 45.8912 111.74 47.0343 112.897C47.6854 113.521 48.843 114 49.7546 114C50.7096 114 51.8527 113.521 52.4894 112.857C53.5601 111.727 53.5167 112.312 53.5167 100.176C53.5167 94.2084 53.5601 88.3202 53.618 87.1106L53.7048 84.8909H54.4717H55.2531L55.282 98.2093C55.3254 110.916 55.3399 111.568 55.6003 112.006C56.2659 113.163 57.6984 114 59.0152 114C60.3319 114 61.7644 113.163 62.43 112.006C62.6905 111.568 62.705 110.863 62.7484 96.0427L62.7773 80.5311L59.7821 79.4412C58.1181 78.8298 56.4685 78.1918 56.1068 78.0323C55.3978 77.7133 54.7322 77.0886 54.5151 76.5436C54.327 76.105 52.0697 66.907 52.1276 66.8538C52.1565 66.8273 53.3431 68.6748 54.7611 70.9477C56.7868 74.1909 57.4669 75.1745 57.8865 75.4537C58.1759 75.653 60.8094 76.7031 63.7468 77.793C68.898 79.707 69.1006 79.7735 70.0121 79.7336C70.5331 79.7203 74.0203 79.6672 77.7534 79.6007C83.9031 79.521 84.5831 79.4811 84.9304 79.2684C85.625 78.8431 85.8275 77.9924 85.4079 77.3278C84.9304 76.5835 85.0028 76.5835 78.8821 76.517L73.21 76.4505L72.8048 75.7195C72.5443 75.2543 72.1971 74.8688 71.8643 74.6694C71.5604 74.4966 69.2163 73.5662 66.6552 72.6092L61.9815 70.868L60.057 67.8108C57.2065 63.265 57.3078 63.5043 58.7258 64.6873C59.3769 65.2322 60.549 66.2025 61.3159 66.8405L62.705 67.9969L62.7773 66.3222L62.8497 64.6607L65.1359 64.0227L67.4221 63.3714L73.673 63.1587C80.6618 62.9194 80.6474 62.9194 81.6168 61.9226C82.8757 60.6465 82.6153 58.7325 81.0381 57.709L80.4014 57.3103L77.8547 57.297C76.4512 57.2837 73.2823 57.3502 70.808 57.4432Z" fill="white"/>
<path d="M70.808 57.4432L66.3224 57.6293L62.0249 58.8256L57.7274 60.0351H53.6759C49.9861 60.0351 49.552 60.0617 48.843 60.301C47.8735 60.6333 46.933 61.4573 46.441 62.4144L46.0648 63.1587L46.0214 87.1505C45.978 114.04 45.8912 111.74 47.0343 112.897C47.6854 113.521 48.843 114 49.7546 114C50.7096 114 51.8527 113.521 52.4894 112.857C53.5601 111.727 53.5167 112.312 53.5167 100.176C53.5167 94.2084 53.5601 88.3202 53.618 87.1106L53.7048 84.8909H54.4717H55.2531L55.282 98.2093C55.3254 110.916 55.3399 111.568 55.6003 112.006C56.2659 113.163 57.6984 114 59.0152 114C60.3319 114 61.7644 113.163 62.43 112.006C62.6905 111.568 62.705 110.863 62.7484 96.0427L62.7773 80.5311L59.7821 79.4412C58.1181 78.8298 56.4685 78.1918 56.1068 78.0323C55.3978 77.7133 54.7322 77.0886 54.5151 76.5436C54.327 76.105 52.0697 66.907 52.1276 66.8538C52.1565 66.8273 53.3431 68.6748 54.7611 70.9477C56.7868 74.1909 57.4669 75.1745 57.8865 75.4537C58.1759 75.653 60.8094 76.7031 63.7468 77.793C68.898 79.707 69.1006 79.7735 70.0121 79.7336C70.5331 79.7203 74.0203 79.6672 77.7534 79.6007C83.9031 79.521 84.5831 79.4811 84.9304 79.2684C85.625 78.8431 85.8275 77.9924 85.4079 77.3278C84.9304 76.5835 85.0028 76.5835 78.8821 76.517L73.21 76.4505L72.8048 75.7195C72.5443 75.2543 72.1971 74.8688 71.8643 74.6694C71.5604 74.4966 69.2163 73.5662 66.6552 72.6092L61.9815 70.868L60.057 67.8108C57.2065 63.265 57.3078 63.5043 58.7258 64.6873C59.3769 65.2322 60.549 66.2025 61.3159 66.8405L62.705 67.9969L62.7773 66.3222L62.8497 64.6607L65.1359 64.0227L67.4221 63.3714L73.673 63.1587C80.6618 62.9194 80.6474 62.9194 81.6168 61.9226C82.8757 60.6465 82.6153 58.7325 81.0381 57.709L80.4014 57.3103L77.8547 57.297C76.4512 57.2837 73.2823 57.3502 70.808 57.4432Z" fill="url(#paint2_linear_3229_1813)"/>
<path d="M70.808 57.4432L66.3224 57.6293L62.0249 58.8256L57.7274 60.0351H53.6759C49.9861 60.0351 49.552 60.0617 48.843 60.301C47.8735 60.6333 46.933 61.4573 46.441 62.4144L46.0648 63.1587L46.0214 87.1505C45.978 114.04 45.8912 111.74 47.0343 112.897C47.6854 113.521 48.843 114 49.7546 114C50.7096 114 51.8527 113.521 52.4894 112.857C53.5601 111.727 53.5167 112.312 53.5167 100.176C53.5167 94.2084 53.5601 88.3202 53.618 87.1106L53.7048 84.8909H54.4717H55.2531L55.282 98.2093C55.3254 110.916 55.3399 111.568 55.6003 112.006C56.2659 113.163 57.6984 114 59.0152 114C60.3319 114 61.7644 113.163 62.43 112.006C62.6905 111.568 62.705 110.863 62.7484 96.0427L62.7773 80.5311L59.7821 79.4412C58.1181 78.8298 56.4685 78.1918 56.1068 78.0323C55.3978 77.7133 54.7322 77.0886 54.5151 76.5436C54.327 76.105 52.0697 66.907 52.1276 66.8538C52.1565 66.8273 53.3431 68.6748 54.7611 70.9477C56.7868 74.1909 57.4669 75.1745 57.8865 75.4537C58.1759 75.653 60.8094 76.7031 63.7468 77.793C68.898 79.707 69.1006 79.7735 70.0121 79.7336C70.5331 79.7203 74.0203 79.6672 77.7534 79.6007C83.9031 79.521 84.5831 79.4811 84.9304 79.2684C85.625 78.8431 85.8275 77.9924 85.4079 77.3278C84.9304 76.5835 85.0028 76.5835 78.8821 76.517L73.21 76.4505L72.8048 75.7195C72.5443 75.2543 72.1971 74.8688 71.8643 74.6694C71.5604 74.4966 69.2163 73.5662 66.6552 72.6092L61.9815 70.868L60.057 67.8108C57.2065 63.265 57.3078 63.5043 58.7258 64.6873C59.3769 65.2322 60.549 66.2025 61.3159 66.8405L62.705 67.9969L62.7773 66.3222L62.8497 64.6607L65.1359 64.0227L67.4221 63.3714L73.673 63.1587C80.6618 62.9194 80.6474 62.9194 81.6168 61.9226C82.8757 60.6465 82.6153 58.7325 81.0381 57.709L80.4014 57.3103L77.8547 57.297C76.4512 57.2837 73.2823 57.3502 70.808 57.4432Z" fill="url(#paint3_radial_3229_1813)"/>
<path d="M85.1764 60.5538C85.0461 62.6672 83.5558 64.4616 81.2985 65.2591C80.6184 65.4983 78.4914 65.6578 73.4559 65.8306L70.8803 65.9104V68.489C70.8803 70.8284 70.9092 71.0809 71.1408 71.1607C72.0524 71.4531 73.6296 72.2107 74.1505 72.5962C74.4977 72.862 74.9752 73.3671 75.2357 73.726L75.6987 74.3773L80.4882 74.4172C85.0751 74.457 85.3066 74.4703 85.8564 74.7495C86.5944 75.1083 87.26 75.7596 87.6796 76.5173C88.0848 77.235 88.1427 78.6971 87.7809 79.4548C87.4626 80.1194 86.5799 80.9966 85.8709 81.3422C85.2921 81.6213 85.0896 81.6346 79.4174 81.7011C73.7164 81.7675 73.5427 81.7808 73.0508 82.06C72.7758 82.2195 72.1681 82.4454 71.7196 82.5651L70.8803 82.7777V86.3399C70.8803 88.5331 70.9382 90.0617 71.0395 90.3142C71.1263 90.5402 71.3723 90.8326 71.5749 90.9655C71.9366 91.1915 72.472 91.2048 78.8821 91.2446L85.7986 91.2845L80.3724 101.187C75.3804 110.279 74.9318 111.143 74.9318 111.754C74.9318 112.565 75.2067 113.07 75.8724 113.535C76.7839 114.186 78.1007 114.107 78.911 113.362C79.1425 113.163 81.8917 108.258 85.2198 102.131L91.1379 91.2712H92.4402H93.7424L99.6605 102.144C105.984 113.748 105.984 113.748 107.127 113.947C107.966 114.08 108.646 113.894 109.239 113.349C109.833 112.804 110.166 111.967 110.006 111.382C109.948 111.182 107.503 106.597 104.58 101.214C101.643 95.817 99.2409 91.3776 99.2409 91.3377C99.2409 91.2978 102.236 91.2712 105.897 91.2712C113.219 91.2712 113.334 91.2579 113.768 90.487C113.971 90.1281 114 88.4533 114 75.2413V60.4076L113.508 59.9556L113.016 59.5037H99.1252H85.2487L85.1764 60.5538ZM84.5252 67.0934C84.6989 67.1864 85.8275 67.8111 87.0285 68.489C88.2439 69.1802 89.2858 69.7384 89.3726 69.7384C89.4449 69.7384 91.0077 69.3796 92.8164 68.9276C95.1894 68.3428 96.2891 68.1434 96.7087 68.1833C97.1428 68.2232 98.3004 68.8213 101.267 70.5226C103.452 71.7721 105.434 72.9816 105.68 73.1943C106.809 74.2311 105.535 76.0255 104.03 75.4938C103.799 75.4273 101.99 74.4172 99.9789 73.2741C97.982 72.131 96.2746 71.2005 96.2023 71.2005C96.1299 71.2005 94.5527 71.5594 92.7006 72.0113C90.3855 72.5696 89.1845 72.8088 88.8227 72.7557C88.4899 72.7158 87.5349 72.2506 86.305 71.5461C85.2053 70.9214 84.1924 70.3366 84.0477 70.2701C83.8162 70.1638 83.3242 70.3631 81.4142 71.3467C78.2888 72.9683 78.0717 73.0481 77.4206 72.9152C76.6682 72.769 76.2341 72.2639 76.2341 71.5328C76.2341 71.1208 76.3209 70.8549 76.5669 70.6157C77.0299 70.1239 83.3098 66.9471 83.8017 66.9471C84.0333 66.9471 84.3516 67.0136 84.5252 67.0934ZM100.109 82.8841C102.772 83.1632 105.13 83.4689 105.347 83.5354C106.563 83.9873 106.49 85.6886 105.246 86.1671C104.797 86.3266 104.247 86.3001 99.6461 85.8083L94.5383 85.2633L86.3339 86.3532C78.6939 87.3501 78.1007 87.4166 77.6232 87.2305C77.0878 87.0311 76.6682 86.4463 76.6682 85.9279C76.6682 85.5158 77.1746 84.7848 77.5798 84.612C78.0428 84.4259 93.2939 82.3923 94.3936 82.379C94.8711 82.379 97.4467 82.6049 100.109 82.8841Z" fill="white"/>
<path d="M85.1764 60.5538C85.0461 62.6672 83.5558 64.4616 81.2985 65.2591C80.6184 65.4983 78.4914 65.6578 73.4559 65.8306L70.8803 65.9104V68.489C70.8803 70.8284 70.9092 71.0809 71.1408 71.1607C72.0524 71.4531 73.6296 72.2107 74.1505 72.5962C74.4977 72.862 74.9752 73.3671 75.2357 73.726L75.6987 74.3773L80.4882 74.4172C85.0751 74.457 85.3066 74.4703 85.8564 74.7495C86.5944 75.1083 87.26 75.7596 87.6796 76.5173C88.0848 77.235 88.1427 78.6971 87.7809 79.4548C87.4626 80.1194 86.5799 80.9966 85.8709 81.3422C85.2921 81.6213 85.0896 81.6346 79.4174 81.7011C73.7164 81.7675 73.5427 81.7808 73.0508 82.06C72.7758 82.2195 72.1681 82.4454 71.7196 82.5651L70.8803 82.7777V86.3399C70.8803 88.5331 70.9382 90.0617 71.0395 90.3142C71.1263 90.5402 71.3723 90.8326 71.5749 90.9655C71.9366 91.1915 72.472 91.2048 78.8821 91.2446L85.7986 91.2845L80.3724 101.187C75.3804 110.279 74.9318 111.143 74.9318 111.754C74.9318 112.565 75.2067 113.07 75.8724 113.535C76.7839 114.186 78.1007 114.107 78.911 113.362C79.1425 113.163 81.8917 108.258 85.2198 102.131L91.1379 91.2712H92.4402H93.7424L99.6605 102.144C105.984 113.748 105.984 113.748 107.127 113.947C107.966 114.08 108.646 113.894 109.239 113.349C109.833 112.804 110.166 111.967 110.006 111.382C109.948 111.182 107.503 106.597 104.58 101.214C101.643 95.817 99.2409 91.3776 99.2409 91.3377C99.2409 91.2978 102.236 91.2712 105.897 91.2712C113.219 91.2712 113.334 91.2579 113.768 90.487C113.971 90.1281 114 88.4533 114 75.2413V60.4076L113.508 59.9556L113.016 59.5037H99.1252H85.2487L85.1764 60.5538ZM84.5252 67.0934C84.6989 67.1864 85.8275 67.8111 87.0285 68.489C88.2439 69.1802 89.2858 69.7384 89.3726 69.7384C89.4449 69.7384 91.0077 69.3796 92.8164 68.9276C95.1894 68.3428 96.2891 68.1434 96.7087 68.1833C97.1428 68.2232 98.3004 68.8213 101.267 70.5226C103.452 71.7721 105.434 72.9816 105.68 73.1943C106.809 74.2311 105.535 76.0255 104.03 75.4938C103.799 75.4273 101.99 74.4172 99.9789 73.2741C97.982 72.131 96.2746 71.2005 96.2023 71.2005C96.1299 71.2005 94.5527 71.5594 92.7006 72.0113C90.3855 72.5696 89.1845 72.8088 88.8227 72.7557C88.4899 72.7158 87.5349 72.2506 86.305 71.5461C85.2053 70.9214 84.1924 70.3366 84.0477 70.2701C83.8162 70.1638 83.3242 70.3631 81.4142 71.3467C78.2888 72.9683 78.0717 73.0481 77.4206 72.9152C76.6682 72.769 76.2341 72.2639 76.2341 71.5328C76.2341 71.1208 76.3209 70.8549 76.5669 70.6157C77.0299 70.1239 83.3098 66.9471 83.8017 66.9471C84.0333 66.9471 84.3516 67.0136 84.5252 67.0934ZM100.109 82.8841C102.772 83.1632 105.13 83.4689 105.347 83.5354C106.563 83.9873 106.49 85.6886 105.246 86.1671C104.797 86.3266 104.247 86.3001 99.6461 85.8083L94.5383 85.2633L86.3339 86.3532C78.6939 87.3501 78.1007 87.4166 77.6232 87.2305C77.0878 87.0311 76.6682 86.4463 76.6682 85.9279C76.6682 85.5158 77.1746 84.7848 77.5798 84.612C78.0428 84.4259 93.2939 82.3923 94.3936 82.379C94.8711 82.379 97.4467 82.6049 100.109 82.8841Z" fill="url(#paint4_linear_3229_1813)"/>
<path d="M85.1764 60.5538C85.0461 62.6672 83.5558 64.4616 81.2985 65.2591C80.6184 65.4983 78.4914 65.6578 73.4559 65.8306L70.8803 65.9104V68.489C70.8803 70.8284 70.9092 71.0809 71.1408 71.1607C72.0524 71.4531 73.6296 72.2107 74.1505 72.5962C74.4977 72.862 74.9752 73.3671 75.2357 73.726L75.6987 74.3773L80.4882 74.4172C85.0751 74.457 85.3066 74.4703 85.8564 74.7495C86.5944 75.1083 87.26 75.7596 87.6796 76.5173C88.0848 77.235 88.1427 78.6971 87.7809 79.4548C87.4626 80.1194 86.5799 80.9966 85.8709 81.3422C85.2921 81.6213 85.0896 81.6346 79.4174 81.7011C73.7164 81.7675 73.5427 81.7808 73.0508 82.06C72.7758 82.2195 72.1681 82.4454 71.7196 82.5651L70.8803 82.7777V86.3399C70.8803 88.5331 70.9382 90.0617 71.0395 90.3142C71.1263 90.5402 71.3723 90.8326 71.5749 90.9655C71.9366 91.1915 72.472 91.2048 78.8821 91.2446L85.7986 91.2845L80.3724 101.187C75.3804 110.279 74.9318 111.143 74.9318 111.754C74.9318 112.565 75.2067 113.07 75.8724 113.535C76.7839 114.186 78.1007 114.107 78.911 113.362C79.1425 113.163 81.8917 108.258 85.2198 102.131L91.1379 91.2712H92.4402H93.7424L99.6605 102.144C105.984 113.748 105.984 113.748 107.127 113.947C107.966 114.08 108.646 113.894 109.239 113.349C109.833 112.804 110.166 111.967 110.006 111.382C109.948 111.182 107.503 106.597 104.58 101.214C101.643 95.817 99.2409 91.3776 99.2409 91.3377C99.2409 91.2978 102.236 91.2712 105.897 91.2712C113.219 91.2712 113.334 91.2579 113.768 90.487C113.971 90.1281 114 88.4533 114 75.2413V60.4076L113.508 59.9556L113.016 59.5037H99.1252H85.2487L85.1764 60.5538ZM84.5252 67.0934C84.6989 67.1864 85.8275 67.8111 87.0285 68.489C88.2439 69.1802 89.2858 69.7384 89.3726 69.7384C89.4449 69.7384 91.0077 69.3796 92.8164 68.9276C95.1894 68.3428 96.2891 68.1434 96.7087 68.1833C97.1428 68.2232 98.3004 68.8213 101.267 70.5226C103.452 71.7721 105.434 72.9816 105.68 73.1943C106.809 74.2311 105.535 76.0255 104.03 75.4938C103.799 75.4273 101.99 74.4172 99.9789 73.2741C97.982 72.131 96.2746 71.2005 96.2023 71.2005C96.1299 71.2005 94.5527 71.5594 92.7006 72.0113C90.3855 72.5696 89.1845 72.8088 88.8227 72.7557C88.4899 72.7158 87.5349 72.2506 86.305 71.5461C85.2053 70.9214 84.1924 70.3366 84.0477 70.2701C83.8162 70.1638 83.3242 70.3631 81.4142 71.3467C78.2888 72.9683 78.0717 73.0481 77.4206 72.9152C76.6682 72.769 76.2341 72.2639 76.2341 71.5328C76.2341 71.1208 76.3209 70.8549 76.5669 70.6157C77.0299 70.1239 83.3098 66.9471 83.8017 66.9471C84.0333 66.9471 84.3516 67.0136 84.5252 67.0934ZM100.109 82.8841C102.772 83.1632 105.13 83.4689 105.347 83.5354C106.563 83.9873 106.49 85.6886 105.246 86.1671C104.797 86.3266 104.247 86.3001 99.6461 85.8083L94.5383 85.2633L86.3339 86.3532C78.6939 87.3501 78.1007 87.4166 77.6232 87.2305C77.0878 87.0311 76.6682 86.4463 76.6682 85.9279C76.6682 85.5158 77.1746 84.7848 77.5798 84.612C78.0428 84.4259 93.2939 82.3923 94.3936 82.379C94.8711 82.379 97.4467 82.6049 100.109 82.8841Z" fill="url(#paint5_radial_3229_1813)"/>
</g>
<defs>
<filter id="filter0_d_3229_1813" x="-7.12665" y="7.29297" width="145.078" height="152.004" filterUnits="userSpaceOnUse" color-interpolation-filters="sRGB">
<feFlood flood-opacity="0" result="BackgroundImageFix"/>
<feColorMatrix in="SourceAlpha" type="matrix" values="0 0 0 0 0 0 0 0 0 0 0 0 0 0 0 0 0 0 127 0" result="hardAlpha"/>
<feOffset dx="-5" dy="5"/>
<feGaussianBlur stdDeviation="4"/>
<feComposite in2="hardAlpha" operator="out"/>
<feColorMatrix type="matrix" values="0 0 0 0 0 0 0 0 0 0 0 0 0 0 0 0 0 0 0.25 0"/>
<feBlend mode="normal" in2="BackgroundImageFix" result="effect1_dropShadow_3229_1813"/>
<feBlend mode="normal" in="SourceGraphic" in2="effect1_dropShadow_3229_1813" result="shape"/>
</filter>
<linearGradient id="paint0_linear_3229_1813" x1="63.5493" y1="62.6088" x2="44.7049" y2="41.107" gradientUnits="userSpaceOnUse">
<stop offset="0.291277" stop-color="#C8FC36"/>
<stop offset="0.867194" stop-color="#0E9C47"/>
</linearGradient>
<radialGradient id="paint1_radial_3229_1813" cx="0" cy="0" r="1" gradientUnits="userSpaceOnUse" gradientTransform="translate(50.4387 55.5254) rotate(-32.5022) scale(23.7604 22.9875)">
<stop stop-color="#00862D"/>
<stop offset="0.627261" stop-color="#0033CC"/>
</radialGradient>
<linearGradient id="paint2_linear_3229_1813" x1="93.7487" y1="136.398" x2="7.45535" y2="73.2608" gradientUnits="userSpaceOnUse">
<stop offset="0.291277" stop-color="#C8FC36"/>
<stop offset="0.867194" stop-color="#0E9C47"/>
</linearGradient>
<radialGradient id="paint3_radial_3229_1813" cx="0" cy="0" r="1" gradientUnits="userSpaceOnUse" gradientTransform="translate(53.7055 102.66) rotate(-44.8156) scale(86.2783 92.0955)">
<stop stop-color="#00862D"/>
<stop offset="0.627261" stop-color="#0033CC"/>
</radialGradient>
<linearGradient id="paint4_linear_3229_1813" x1="122.84" y1="135.51" x2="37.3597" y2="64.679" gradientUnits="userSpaceOnUse">
<stop offset="0.291277" stop-color="#C8FC36"/>
<stop offset="0.867194" stop-color="#0E9C47"/>
</linearGradient>
<radialGradient id="paint5_radial_3229_1813" cx="0" cy="0" r="1" gradientUnits="userSpaceOnUse" gradientTransform="translate(79.2653 103.092) rotate(-41.2611) scale(88.5992 93.7705)">
<stop stop-color="#00862D"/>
<stop offset="0.627261" stop-color="#0033CC"/>
</radialGradient>
<clipPath id="clip0_3229_1813">
<rect width="160" height="160" fill="white"/>
</clipPath>
</defs>
</svg>
