<svg width="160" height="160" viewBox="0 0 160 160" fill="none" xmlns="http://www.w3.org/2000/svg">
<g clip-path="url(#clip0_3227_1808)">
<g filter="url(#filter0_d_3227_1808)">
<path d="M81.0962 15.7562C100.014 2.51003 126.177 14.71 128.189 37.7161L134.831 113.636C136.844 136.642 113.197 153.2 92.2671 143.44L23.1971 111.232C2.26686 101.472 -0.24911 72.7148 18.6684 59.4686L81.0962 15.7562Z" fill="white"/>
</g>
<path d="M96.5147 46.1397C89.9819 46.7535 84.5601 51.1901 82.7676 57.3428C82.4862 58.3194 82.4417 58.8217 82.4417 60.9842C82.4417 63.7606 82.6343 64.7093 83.5676 66.7881C85.8785 71.8944 91.0781 75.4381 96.811 75.8287C100.588 76.0799 103.818 75.3125 106.84 73.4291C111.743 70.3876 114.513 64.9744 113.921 59.5472C113.136 52.376 107.195 46.8093 99.5812 46.1257C98.7072 46.0559 97.9368 46.0001 97.848 46.0001C97.7739 46.0141 97.1665 46.0699 96.5147 46.1397ZM104.662 53.4503C105.136 53.8828 105.151 54.4827 104.692 54.8873C104.351 55.1803 104.247 55.1943 99.0182 55.2222L93.7001 55.264V60.9842V66.7044L99.0182 66.7462C104.247 66.7741 104.351 66.7881 104.692 67.0811C105.151 67.4857 105.136 68.0856 104.662 68.5181L104.307 68.8669H98.2035C92.1299 68.8669 92.0854 68.8669 91.7447 68.5599L91.404 68.267V60.9702V53.6735L91.7299 53.3806C92.041 53.1155 92.2188 53.1015 98.1739 53.1015H104.307L104.662 53.4503ZM105.092 57.58C105.388 57.7893 105.477 57.9846 105.477 58.3752C105.477 58.8496 105.284 59.0589 102.544 61.6399C98.8997 65.086 99.2405 65.0023 97.0777 62.9653C95.774 61.7376 95.5518 61.4586 95.5518 61.0819C95.5518 60.4819 95.9963 60.0773 96.6777 60.0773C97.1221 60.0773 97.3591 60.2169 98.1591 60.9423L99.1219 61.8073L101.522 59.5472C104.129 57.1196 104.322 57.008 105.092 57.58Z" fill="url(#paint0_linear_3227_1808)"/>
<path d="M96.5147 46.1397C89.9819 46.7535 84.5601 51.1901 82.7676 57.3428C82.4862 58.3194 82.4417 58.8217 82.4417 60.9842C82.4417 63.7606 82.6343 64.7093 83.5676 66.7881C85.8785 71.8944 91.0781 75.4381 96.811 75.8287C100.588 76.0799 103.818 75.3125 106.84 73.4291C111.743 70.3876 114.513 64.9744 113.921 59.5472C113.136 52.376 107.195 46.8093 99.5812 46.1257C98.7072 46.0559 97.9368 46.0001 97.848 46.0001C97.7739 46.0141 97.1665 46.0699 96.5147 46.1397ZM104.662 53.4503C105.136 53.8828 105.151 54.4827 104.692 54.8873C104.351 55.1803 104.247 55.1943 99.0182 55.2222L93.7001 55.264V60.9842V66.7044L99.0182 66.7462C104.247 66.7741 104.351 66.7881 104.692 67.0811C105.151 67.4857 105.136 68.0856 104.662 68.5181L104.307 68.8669H98.2035C92.1299 68.8669 92.0854 68.8669 91.7447 68.5599L91.404 68.267V60.9702V53.6735L91.7299 53.3806C92.041 53.1155 92.2188 53.1015 98.1739 53.1015H104.307L104.662 53.4503ZM105.092 57.58C105.388 57.7893 105.477 57.9846 105.477 58.3752C105.477 58.8496 105.284 59.0589 102.544 61.6399C98.8997 65.086 99.2405 65.0023 97.0777 62.9653C95.774 61.7376 95.5518 61.4586 95.5518 61.0819C95.5518 60.4819 95.9963 60.0773 96.6777 60.0773C97.1221 60.0773 97.3591 60.2169 98.1591 60.9423L99.1219 61.8073L101.522 59.5472C104.129 57.1196 104.322 57.008 105.092 57.58Z" fill="url(#paint1_radial_3227_1808)"/>
<path d="M48.622 47.7855C47.6443 48.1064 46.6222 49.0133 46.2666 49.8922C46.0148 50.4782 46 52.264 46 80.7951C46 109.242 46.0148 111.098 46.2518 111.6C46.6962 112.521 47.3777 113.205 48.2665 113.609L49.1109 114H71.924H94.7371L95.4037 113.707C96.2777 113.33 96.9888 112.647 97.4184 111.768L97.7739 111.07V94.5933V78.1164L96.4999 78.0187C95.1074 77.9071 92.9298 77.4188 91.7892 76.9724C91.404 76.8049 91.0633 76.6794 91.0337 76.6794C91.0188 76.6794 90.9448 76.8328 90.9003 77.0282C90.6929 77.7955 90.7374 77.7955 80.7381 77.7955H71.524L71.0944 77.3909C70.8574 77.1677 70.6648 76.8886 70.6648 76.7631C70.6648 76.3724 70.9907 75.8702 71.3611 75.7167C71.6129 75.6051 74.2942 75.5632 80.1604 75.5632H88.619L87.4487 74.7401C86.8117 74.2936 85.9229 73.61 85.4785 73.2054L84.6638 72.4939H77.968H71.2722L70.9759 72.1311C70.5611 71.6428 70.5907 71.3498 71.05 70.8336L71.4351 70.4011H77.1977H82.9602L82.2047 69.0757C79.8049 64.8623 79.3753 60.1188 80.9603 55.6403C81.938 52.9197 83.5231 50.5898 85.7748 48.5808L86.9895 47.5204H68.1909C50.3404 47.5344 49.3627 47.5483 48.622 47.7855ZM59.9989 51.2176C62.0136 51.8873 63.2431 53.5057 63.258 55.4729C63.258 56.6588 62.9024 57.5656 62.0877 58.4306L61.6285 58.9329L62.1321 59.2398C62.4136 59.3933 62.9765 59.8676 63.3765 60.2862C64.6356 61.5837 65.1837 63.0765 65.1837 65.253C65.1837 66.397 65.1393 66.6481 64.8727 66.969L64.5764 67.3318H58.2509C53.5105 67.3178 51.8662 67.276 51.6885 67.1504C51.2589 66.8295 51.1107 66.3831 51.1107 65.2809C51.1107 63.9276 51.4218 62.5324 51.9255 61.5697C52.3403 60.7885 53.4069 59.6723 54.192 59.2259L54.666 58.9329L54.1475 58.3609C52.6217 56.6867 52.681 54.0359 54.2957 52.4872C54.9919 51.8036 56.1474 51.1897 57.0955 51.0083C57.851 50.8549 59.2138 50.9525 59.9989 51.2176ZM67.2577 69.8431C67.5391 70.1081 67.5539 70.3035 67.5539 74.0286V77.949L67.1836 78.2838L66.8281 78.6326H63.1987C59.5842 78.6326 59.5694 78.6326 59.1546 78.2978L58.7398 77.9629V74.0286V70.0942L59.0953 69.8291C59.4064 69.578 59.7175 69.564 63.1987 69.564C66.7688 69.564 66.9762 69.578 67.2577 69.8431ZM66.9466 83.8645C67.1836 83.9761 67.4058 84.1714 67.4651 84.283C67.5095 84.4086 67.5539 86.2362 67.5539 88.329C67.5539 91.8727 67.5391 92.1517 67.2725 92.4587L66.991 92.7935H63.1987C59.4508 92.7935 59.4064 92.7935 59.0805 92.4726C58.7398 92.1657 58.7398 92.1238 58.7398 88.2732C58.7398 84.1435 58.7546 84.0598 59.4805 83.7947C59.6434 83.7249 61.3026 83.6691 63.1543 83.6691C65.8355 83.6552 66.6207 83.697 66.9466 83.8645ZM90.6485 84.9666C91.0929 85.3433 91.0633 86.0828 90.5892 86.5153L90.2337 86.8641H80.8863H71.524L71.0944 86.4595C70.8574 86.2362 70.6648 85.9293 70.6648 85.7898C70.6648 85.441 71.0648 84.9248 71.4648 84.7713C71.6277 84.7016 75.9533 84.6597 81.0492 84.6737C89.9523 84.7016 90.3522 84.7155 90.6485 84.9666ZM90.6633 90.0729C90.8411 90.2404 90.9596 90.5333 90.9596 90.8403C90.9596 91.1472 90.8411 91.4402 90.6633 91.6076C90.367 91.8867 90.1745 91.8867 80.9011 91.8867C72.1017 91.8867 71.4203 91.8727 71.124 91.6355C70.9611 91.51 70.7685 91.203 70.7241 90.9519C70.65 90.5891 70.7093 90.4357 71.0055 90.1567L71.3907 89.7939H80.8863C90.1745 89.7939 90.367 89.7939 90.6633 90.0729ZM67.2577 98.3044C67.5391 98.5695 67.5539 98.7648 67.5539 102.49V106.41L67.1836 106.745L66.8281 107.094H63.1987C59.5842 107.094 59.5694 107.094 59.1546 106.759L58.7398 106.424V102.49V98.5555L59.0953 98.2905C59.4064 98.0393 59.7175 98.0254 63.1987 98.0254C66.7688 98.0254 66.9762 98.0393 67.2577 98.3044ZM90.6633 99.1415C90.8411 99.3089 90.9596 99.6019 90.9596 99.9088C90.9596 100.216 90.8411 100.509 90.6633 100.676C90.367 100.955 90.1745 100.955 80.827 100.955H71.2722L70.9611 100.579C70.5759 100.118 70.65 99.4763 71.124 99.0996C71.4203 98.8764 72.1017 98.8625 80.9011 98.8625C90.1745 98.8625 90.367 98.8625 90.6633 99.1415ZM90.5744 104.318C91.0781 104.694 91.1225 105.517 90.6485 105.922C90.3522 106.173 89.9374 106.187 80.9307 106.229L71.5388 106.257L71.0944 105.852C70.5463 105.336 70.5463 104.945 71.0944 104.429L71.524 104.025H80.8566C90.0708 104.025 90.1893 104.025 90.5744 104.318Z" fill="url(#paint2_linear_3227_1808)"/>
<path d="M48.622 47.7855C47.6443 48.1064 46.6222 49.0133 46.2666 49.8922C46.0148 50.4782 46 52.264 46 80.7951C46 109.242 46.0148 111.098 46.2518 111.6C46.6962 112.521 47.3777 113.205 48.2665 113.609L49.1109 114H71.924H94.7371L95.4037 113.707C96.2777 113.33 96.9888 112.647 97.4184 111.768L97.7739 111.07V94.5933V78.1164L96.4999 78.0187C95.1074 77.9071 92.9298 77.4188 91.7892 76.9724C91.404 76.8049 91.0633 76.6794 91.0337 76.6794C91.0188 76.6794 90.9448 76.8328 90.9003 77.0282C90.6929 77.7955 90.7374 77.7955 80.7381 77.7955H71.524L71.0944 77.3909C70.8574 77.1677 70.6648 76.8886 70.6648 76.7631C70.6648 76.3724 70.9907 75.8702 71.3611 75.7167C71.6129 75.6051 74.2942 75.5632 80.1604 75.5632H88.619L87.4487 74.7401C86.8117 74.2936 85.9229 73.61 85.4785 73.2054L84.6638 72.4939H77.968H71.2722L70.9759 72.1311C70.5611 71.6428 70.5907 71.3498 71.05 70.8336L71.4351 70.4011H77.1977H82.9602L82.2047 69.0757C79.8049 64.8623 79.3753 60.1188 80.9603 55.6403C81.938 52.9197 83.5231 50.5898 85.7748 48.5808L86.9895 47.5204H68.1909C50.3404 47.5344 49.3627 47.5483 48.622 47.7855ZM59.9989 51.2176C62.0136 51.8873 63.2431 53.5057 63.258 55.4729C63.258 56.6588 62.9024 57.5656 62.0877 58.4306L61.6285 58.9329L62.1321 59.2398C62.4136 59.3933 62.9765 59.8676 63.3765 60.2862C64.6356 61.5837 65.1837 63.0765 65.1837 65.253C65.1837 66.397 65.1393 66.6481 64.8727 66.969L64.5764 67.3318H58.2509C53.5105 67.3178 51.8662 67.276 51.6885 67.1504C51.2589 66.8295 51.1107 66.3831 51.1107 65.2809C51.1107 63.9276 51.4218 62.5324 51.9255 61.5697C52.3403 60.7885 53.4069 59.6723 54.192 59.2259L54.666 58.9329L54.1475 58.3609C52.6217 56.6867 52.681 54.0359 54.2957 52.4872C54.9919 51.8036 56.1474 51.1897 57.0955 51.0083C57.851 50.8549 59.2138 50.9525 59.9989 51.2176ZM67.2577 69.8431C67.5391 70.1081 67.5539 70.3035 67.5539 74.0286V77.949L67.1836 78.2838L66.8281 78.6326H63.1987C59.5842 78.6326 59.5694 78.6326 59.1546 78.2978L58.7398 77.9629V74.0286V70.0942L59.0953 69.8291C59.4064 69.578 59.7175 69.564 63.1987 69.564C66.7688 69.564 66.9762 69.578 67.2577 69.8431ZM66.9466 83.8645C67.1836 83.9761 67.4058 84.1714 67.4651 84.283C67.5095 84.4086 67.5539 86.2362 67.5539 88.329C67.5539 91.8727 67.5391 92.1517 67.2725 92.4587L66.991 92.7935H63.1987C59.4508 92.7935 59.4064 92.7935 59.0805 92.4726C58.7398 92.1657 58.7398 92.1238 58.7398 88.2732C58.7398 84.1435 58.7546 84.0598 59.4805 83.7947C59.6434 83.7249 61.3026 83.6691 63.1543 83.6691C65.8355 83.6552 66.6207 83.697 66.9466 83.8645ZM90.6485 84.9666C91.0929 85.3433 91.0633 86.0828 90.5892 86.5153L90.2337 86.8641H80.8863H71.524L71.0944 86.4595C70.8574 86.2362 70.6648 85.9293 70.6648 85.7898C70.6648 85.441 71.0648 84.9248 71.4648 84.7713C71.6277 84.7016 75.9533 84.6597 81.0492 84.6737C89.9523 84.7016 90.3522 84.7155 90.6485 84.9666ZM90.6633 90.0729C90.8411 90.2404 90.9596 90.5333 90.9596 90.8403C90.9596 91.1472 90.8411 91.4402 90.6633 91.6076C90.367 91.8867 90.1745 91.8867 80.9011 91.8867C72.1017 91.8867 71.4203 91.8727 71.124 91.6355C70.9611 91.51 70.7685 91.203 70.7241 90.9519C70.65 90.5891 70.7093 90.4357 71.0055 90.1567L71.3907 89.7939H80.8863C90.1745 89.7939 90.367 89.7939 90.6633 90.0729ZM67.2577 98.3044C67.5391 98.5695 67.5539 98.7648 67.5539 102.49V106.41L67.1836 106.745L66.8281 107.094H63.1987C59.5842 107.094 59.5694 107.094 59.1546 106.759L58.7398 106.424V102.49V98.5555L59.0953 98.2905C59.4064 98.0393 59.7175 98.0254 63.1987 98.0254C66.7688 98.0254 66.9762 98.0393 67.2577 98.3044ZM90.6633 99.1415C90.8411 99.3089 90.9596 99.6019 90.9596 99.9088C90.9596 100.216 90.8411 100.509 90.6633 100.676C90.367 100.955 90.1745 100.955 80.827 100.955H71.2722L70.9611 100.579C70.5759 100.118 70.65 99.4763 71.124 99.0996C71.4203 98.8764 72.1017 98.8625 80.9011 98.8625C90.1745 98.8625 90.367 98.8625 90.6633 99.1415ZM90.5744 104.318C91.0781 104.694 91.1225 105.517 90.6485 105.922C90.3522 106.173 89.9374 106.187 80.9307 106.229L71.5388 106.257L71.0944 105.852C70.5463 105.336 70.5463 104.945 71.0944 104.429L71.524 104.025H80.8566C90.0708 104.025 90.1893 104.025 90.5744 104.318Z" fill="url(#paint3_radial_3227_1808)"/>
<path d="M56.814 53.2122C54.8438 54.1051 54.6512 56.2397 56.4437 57.3837C57.688 58.1929 59.5694 57.872 60.4878 56.7001C60.9174 56.156 60.9915 54.984 60.6211 54.3562C59.9397 53.1843 58.1028 52.6262 56.814 53.2122Z" fill="url(#paint4_linear_3227_1808)"/>
<path d="M56.814 53.2122C54.8438 54.1051 54.6512 56.2397 56.4437 57.3837C57.688 58.1929 59.5694 57.872 60.4878 56.7001C60.9174 56.156 60.9915 54.984 60.6211 54.3562C59.9397 53.1843 58.1028 52.6262 56.814 53.2122Z" fill="url(#paint5_radial_3227_1808)"/>
<path d="M56.9918 60.2285C55.066 60.661 53.6587 62.2515 53.5106 64.1489L53.4365 65.0977H58.0584H62.6655V64.5675C62.6506 62.5724 61.3026 60.8703 59.2583 60.2983C58.3843 60.0611 57.851 60.0332 56.9918 60.2285Z" fill="url(#paint6_linear_3227_1808)"/>
<path d="M56.9918 60.2285C55.066 60.661 53.6587 62.2515 53.5106 64.1489L53.4365 65.0977H58.0584H62.6655V64.5675C62.6506 62.5724 61.3026 60.8703 59.2583 60.2983C58.3843 60.0611 57.851 60.0332 56.9918 60.2285Z" fill="url(#paint7_radial_3227_1808)"/>
</g>
<defs>
<filter id="filter0_d_3227_1808" x="-7.12671" y="7.29297" width="145.078" height="152.004" filterUnits="userSpaceOnUse" color-interpolation-filters="sRGB">
<feFlood flood-opacity="0" result="BackgroundImageFix"/>
<feColorMatrix in="SourceAlpha" type="matrix" values="0 0 0 0 0 0 0 0 0 0 0 0 0 0 0 0 0 0 127 0" result="hardAlpha"/>
<feOffset dx="-5" dy="5"/>
<feGaussianBlur stdDeviation="4"/>
<feComposite in2="hardAlpha" operator="out"/>
<feColorMatrix type="matrix" values="0 0 0 0 0 0 0 0 0 0 0 0 0 0 0 0 0 0 0.25 0"/>
<feBlend mode="normal" in2="BackgroundImageFix" result="effect1_dropShadow_3227_1808"/>
<feBlend mode="normal" in="SourceGraphic" in2="effect1_dropShadow_3227_1808" result="shape"/>
</filter>
<linearGradient id="paint0_linear_3227_1808" x1="120.469" y1="87.6756" x2="73.0099" y2="35.1843" gradientUnits="userSpaceOnUse">
<stop offset="0.291277" stop-color="#C8FC36"/>
<stop offset="0.867194" stop-color="#0E9C47"/>
</linearGradient>
<radialGradient id="paint1_radial_3227_1808" cx="0" cy="0" r="1" gradientUnits="userSpaceOnUse" gradientTransform="translate(88.5785 69.9004) rotate(-33.3162) scale(58.3302 57.1574)">
<stop stop-color="#00862D"/>
<stop offset="0.627261" stop-color="#0033CC"/>
</radialGradient>
<linearGradient id="paint2_linear_3227_1808" x1="108.388" y1="140.259" x2="4.41294" y2="55.477" gradientUnits="userSpaceOnUse">
<stop offset="0.291277" stop-color="#C8FC36"/>
<stop offset="0.867194" stop-color="#0E9C47"/>
</linearGradient>
<radialGradient id="paint3_radial_3227_1808" cx="0" cy="0" r="1" gradientUnits="userSpaceOnUse" gradientTransform="translate(56.0679 100.705) rotate(-41.718) scale(107.134 113.61)">
<stop stop-color="#00862D"/>
<stop offset="0.627261" stop-color="#0033CC"/>
</radialGradient>
<linearGradient id="paint4_linear_3227_1808" x1="62.0176" y1="59.7497" x2="54.415" y2="50.4864" gradientUnits="userSpaceOnUse">
<stop offset="0.291277" stop-color="#C8FC36"/>
<stop offset="0.867194" stop-color="#0E9C47"/>
</linearGradient>
<radialGradient id="paint5_radial_3227_1808" cx="0" cy="0" r="1" gradientUnits="userSpaceOnUse" gradientTransform="translate(56.3086 56.8611) rotate(-30.8222) scale(10.1612 9.5451)">
<stop stop-color="#00862D"/>
<stop offset="0.627261" stop-color="#0033CC"/>
</radialGradient>
<linearGradient id="paint6_linear_3227_1808" x1="64.5574" y1="67.0721" x2="58.0435" y2="54.4796" gradientUnits="userSpaceOnUse">
<stop offset="0.291277" stop-color="#C8FC36"/>
<stop offset="0.867194" stop-color="#0E9C47"/>
</linearGradient>
<radialGradient id="paint7_radial_3227_1808" cx="0" cy="0" r="1" gradientUnits="userSpaceOnUse" gradientTransform="translate(55.2312 64.098) rotate(-20.6089) scale(15.2293 10.7117)">
<stop stop-color="#00862D"/>
<stop offset="0.627261" stop-color="#0033CC"/>
</radialGradient>
<clipPath id="clip0_3227_1808">
<rect width="160" height="160" fill="white"/>
</clipPath>
</defs>
</svg>
