<svg width="160" height="160" viewBox="0 0 160 160" fill="none" xmlns="http://www.w3.org/2000/svg">
<g clip-path="url(#clip0_3056_1875)">
<g filter="url(#filter0_d_3056_1875)">
<path d="M81.5962 15.7562C100.514 2.51002 126.677 14.71 128.689 37.7161L135.332 113.636C137.344 136.642 113.697 153.2 92.7671 143.44L23.6972 111.232C2.76689 101.472 0.25095 72.7148 19.1685 59.4686L81.5962 15.7562Z" fill="white"/>
</g>
<path d="M80.4536 46.0772C80.014 46.1341 79.9701 46.2195 79.1788 48.1547C78.71 49.2646 78.2118 50.3887 78.0506 50.6448C77.6697 51.2425 77.0836 51.584 75.6331 52.0393C74.9884 52.2385 73.6404 52.7792 72.6294 53.2488C71.5159 53.7468 70.5928 54.0883 70.2998 54.0883C70.0214 54.0883 68.8199 53.6757 67.5599 53.1634C66.3145 52.6512 65.2009 52.2385 65.0837 52.2385C64.8053 52.2385 61.9335 54.9137 61.6405 55.4259C61.4647 55.7532 61.5379 55.9809 62.4317 57.9872C63.0471 59.3959 63.3987 60.3777 63.3987 60.7193C63.3987 61.075 63.1203 61.8149 62.6075 62.8964C62.168 63.807 61.5965 65.1873 61.3181 65.9557C60.6295 67.9478 60.3511 68.2039 57.6845 69.2284C56.5123 69.6838 55.472 70.1249 55.3695 70.2245C55.135 70.4379 54.9885 73.2127 55.1497 74.3653L55.2669 75.219L57.5379 76.1155C60.3804 77.2254 60.6442 77.453 61.3328 79.4879C61.5965 80.2705 62.1826 81.6365 62.6222 82.5187C63.6478 84.5251 63.6331 84.7101 62.4024 87.499C61.9042 88.6231 61.494 89.6334 61.494 89.7473C61.494 89.9892 64.776 93.2192 65.0251 93.2192C65.113 93.2192 66.1972 92.8066 67.428 92.2943C70.2705 91.1275 70.4463 91.1133 72.4829 92.0951C73.3181 92.4793 74.6954 93.0343 75.5452 93.3331C77.7283 94.0588 77.9334 94.2722 78.9884 96.8762C79.4719 98.0288 79.9114 99.0675 79.9994 99.1671C80.0726 99.2525 80.395 99.3379 80.7027 99.3379H81.2741V94.6564V89.9892L80.307 89.9038C77.9481 89.6903 74.6661 88.4524 72.3804 86.9298C70.7686 85.8626 68.9078 83.9986 67.765 82.3337C66.3731 80.2989 65.5965 78.5345 65.069 76.1155C64.6881 74.4649 64.6881 70.9644 65.0544 69.3138C65.8456 65.7707 67.384 62.996 69.9774 60.4774C72.9225 57.6172 76.3657 55.9809 80.5854 55.4401L81.2741 55.3548V50.6591C81.2741 47.0021 81.2301 45.9776 81.0983 46.006C80.9957 46.006 80.7027 46.0487 80.4536 46.0772Z" fill="black"/>
<path d="M80.4536 46.0772C80.014 46.1341 79.9701 46.2195 79.1788 48.1547C78.71 49.2646 78.2118 50.3887 78.0506 50.6448C77.6697 51.2425 77.0836 51.584 75.6331 52.0393C74.9884 52.2385 73.6404 52.7792 72.6294 53.2488C71.5159 53.7468 70.5928 54.0883 70.2998 54.0883C70.0214 54.0883 68.8199 53.6757 67.5599 53.1634C66.3145 52.6512 65.2009 52.2385 65.0837 52.2385C64.8053 52.2385 61.9335 54.9137 61.6405 55.4259C61.4647 55.7532 61.5379 55.9809 62.4317 57.9872C63.0471 59.3959 63.3987 60.3777 63.3987 60.7193C63.3987 61.075 63.1203 61.8149 62.6075 62.8964C62.168 63.807 61.5965 65.1873 61.3181 65.9557C60.6295 67.9478 60.3511 68.2039 57.6845 69.2284C56.5123 69.6838 55.472 70.1249 55.3695 70.2245C55.135 70.4379 54.9885 73.2127 55.1497 74.3653L55.2669 75.219L57.5379 76.1155C60.3804 77.2254 60.6442 77.453 61.3328 79.4879C61.5965 80.2705 62.1826 81.6365 62.6222 82.5187C63.6478 84.5251 63.6331 84.7101 62.4024 87.499C61.9042 88.6231 61.494 89.6334 61.494 89.7473C61.494 89.9892 64.776 93.2192 65.0251 93.2192C65.113 93.2192 66.1972 92.8066 67.428 92.2943C70.2705 91.1275 70.4463 91.1133 72.4829 92.0951C73.3181 92.4793 74.6954 93.0343 75.5452 93.3331C77.7283 94.0588 77.9334 94.2722 78.9884 96.8762C79.4719 98.0288 79.9114 99.0675 79.9994 99.1671C80.0726 99.2525 80.395 99.3379 80.7027 99.3379H81.2741V94.6564V89.9892L80.307 89.9038C77.9481 89.6903 74.6661 88.4524 72.3804 86.9298C70.7686 85.8626 68.9078 83.9986 67.765 82.3337C66.3731 80.2989 65.5965 78.5345 65.069 76.1155C64.6881 74.4649 64.6881 70.9644 65.0544 69.3138C65.8456 65.7707 67.384 62.996 69.9774 60.4774C72.9225 57.6172 76.3657 55.9809 80.5854 55.4401L81.2741 55.3548V50.6591C81.2741 47.0021 81.2301 45.9776 81.0983 46.006C80.9957 46.006 80.7027 46.0487 80.4536 46.0772Z" fill="url(#paint0_radial_3056_1875)"/>
<path d="M83.9407 47.2741L83.9847 48.4694L84.7173 48.5406C85.655 48.6402 86.036 48.8536 86.2411 49.3943C86.4169 49.8923 86.3437 50.1912 85.9188 50.6323C85.6697 50.9026 85.4645 50.9596 84.7613 50.9596H83.9114V67.9068V84.8398L86.4755 84.7971L89.0396 84.7544L89.4938 84.3133C90.1092 83.7014 90.2411 82.7765 89.7869 82.0793C89.4645 81.567 89.0543 81.3394 88.1165 81.1828C87.0763 81.0121 86.6514 79.9449 87.3253 79.1907C87.6037 78.8777 87.7796 78.8208 88.351 78.8208C89.3473 78.8492 90.0799 79.0911 90.8858 79.6887C92.3217 80.756 92.9224 82.7054 92.3363 84.4129C91.97 85.4517 90.7246 86.6612 89.699 86.9884L88.9664 87.2019L88.9224 93.349L88.8931 99.4961L90.0946 99.4534L91.3107 99.4107L91.3986 97.4897C91.5451 94.5016 92.1019 92.3814 93.4205 89.7347C94.4462 87.7141 95.633 86.1489 97.948 83.8722C99.0469 82.7908 100.395 81.2824 100.937 80.5425C105.098 74.8792 106.197 67.6364 103.911 60.9771C102.344 56.3952 99.2081 52.3967 95.0762 49.7216C92.0726 47.7722 88.2924 46.4346 84.9664 46.1642L83.8968 46.0789L83.9407 47.2741ZM91.5744 50.5184C95.6476 52.5532 98.6806 55.5841 100.644 59.5968C101.552 61.4324 101.655 62.0016 101.186 62.5423C100.483 63.3391 99.3839 62.9834 98.9297 61.8166C97.4791 58.0031 94.4315 54.7304 90.4316 52.6671C89.1129 51.9841 88.9078 51.7849 88.9078 51.173C88.9078 50.7034 89.0982 50.3904 89.5524 50.1343C90.0359 49.8639 90.4316 49.935 91.5744 50.5184Z" fill="black"/>
<path d="M83.9407 47.2741L83.9847 48.4694L84.7173 48.5406C85.655 48.6402 86.036 48.8536 86.2411 49.3943C86.4169 49.8923 86.3437 50.1912 85.9188 50.6323C85.6697 50.9026 85.4645 50.9596 84.7613 50.9596H83.9114V67.9068V84.8398L86.4755 84.7971L89.0396 84.7544L89.4938 84.3133C90.1092 83.7014 90.2411 82.7765 89.7869 82.0793C89.4645 81.567 89.0543 81.3394 88.1165 81.1828C87.0763 81.0121 86.6514 79.9449 87.3253 79.1907C87.6037 78.8777 87.7796 78.8208 88.351 78.8208C89.3473 78.8492 90.0799 79.0911 90.8858 79.6887C92.3217 80.756 92.9224 82.7054 92.3363 84.4129C91.97 85.4517 90.7246 86.6612 89.699 86.9884L88.9664 87.2019L88.9224 93.349L88.8931 99.4961L90.0946 99.4534L91.3107 99.4107L91.3986 97.4897C91.5451 94.5016 92.1019 92.3814 93.4205 89.7347C94.4462 87.7141 95.633 86.1489 97.948 83.8722C99.0469 82.7908 100.395 81.2824 100.937 80.5425C105.098 74.8792 106.197 67.6364 103.911 60.9771C102.344 56.3952 99.2081 52.3967 95.0762 49.7216C92.0726 47.7722 88.2924 46.4346 84.9664 46.1642L83.8968 46.0789L83.9407 47.2741ZM91.5744 50.5184C95.6476 52.5532 98.6806 55.5841 100.644 59.5968C101.552 61.4324 101.655 62.0016 101.186 62.5423C100.483 63.3391 99.3839 62.9834 98.9297 61.8166C97.4791 58.0031 94.4315 54.7304 90.4316 52.6671C89.1129 51.9841 88.9078 51.7849 88.9078 51.173C88.9078 50.7034 89.0982 50.3904 89.5524 50.1343C90.0359 49.8639 90.4316 49.935 91.5744 50.5184Z" fill="url(#paint1_radial_3056_1875)"/>
<path d="M80.4682 57.8875C75.6038 58.5278 71.1789 61.5302 68.9371 65.7136C67.6771 68.0757 67.1643 70.1248 67.1789 72.7999C67.1936 76.8837 68.6148 80.185 71.6038 83.1162C73.2448 84.7241 74.6221 85.6633 76.4536 86.4174C77.6697 86.9155 80.0726 87.5273 80.7906 87.5273H81.2741L81.2448 85.0799L81.2008 82.6467L80.2484 82.4617C78.7979 82.1771 76.8052 81.1526 75.6038 80.0711C71.6331 76.4995 71.1203 70.8647 74.373 66.6101C75.6624 64.931 78.0213 63.4369 80.2191 62.9531L81.2741 62.7112V60.2496C81.2741 58.357 81.2301 57.7879 81.0983 57.8021C80.9957 57.8163 80.7173 57.859 80.4682 57.8875Z" fill="black"/>
<path d="M80.4682 57.8875C75.6038 58.5278 71.1789 61.5302 68.9371 65.7136C67.6771 68.0757 67.1643 70.1248 67.1789 72.7999C67.1936 76.8837 68.6148 80.185 71.6038 83.1162C73.2448 84.7241 74.6221 85.6633 76.4536 86.4174C77.6697 86.9155 80.0726 87.5273 80.7906 87.5273H81.2741L81.2448 85.0799L81.2008 82.6467L80.2484 82.4617C78.7979 82.1771 76.8052 81.1526 75.6038 80.0711C71.6331 76.4995 71.1203 70.8647 74.373 66.6101C75.6624 64.931 78.0213 63.4369 80.2191 62.9531L81.2741 62.7112V60.2496C81.2741 58.357 81.2301 57.7879 81.0983 57.8021C80.9957 57.8163 80.7173 57.859 80.4682 57.8875Z" fill="url(#paint2_radial_3056_1875)"/>
<path d="M80.6294 65.3454C78.1092 65.9288 75.7356 68.2197 75.047 70.7526C74.7539 71.7771 74.7686 73.7692 75.0616 74.7368C75.6917 76.8001 77.2155 78.593 79.0909 79.461C79.6916 79.7456 80.4242 80.0159 80.7319 80.0586L81.2741 80.1582V72.6735C81.2741 68.5612 81.2594 65.1889 81.2448 65.2031C81.2154 65.2173 80.9517 65.2742 80.6294 65.3454Z" fill="black"/>
<path d="M80.6294 65.3454C78.1092 65.9288 75.7356 68.2197 75.047 70.7526C74.7539 71.7771 74.7686 73.7692 75.0616 74.7368C75.6917 76.8001 77.2155 78.593 79.0909 79.461C79.6916 79.7456 80.4242 80.0159 80.7319 80.0586L81.2741 80.1582V72.6735C81.2741 68.5612 81.2594 65.1889 81.2448 65.2031C81.2154 65.2173 80.9517 65.2742 80.6294 65.3454Z" fill="url(#paint3_radial_3056_1875)"/>
<path d="M83.9114 93.3632V99.4961L85.1275 99.4534L86.329 99.4107V93.3632V87.3157L85.1275 87.273L83.9114 87.2303V93.3632Z" fill="black"/>
<path d="M83.9114 93.3632V99.4961L85.1275 99.4534L86.329 99.4107V93.3632V87.3157L85.1275 87.273L83.9114 87.2303V93.3632Z" fill="url(#paint4_radial_3056_1875)"/>
<path d="M70.4463 102.27C70.0214 102.797 70.0507 103.48 70.5196 103.907L70.9005 104.248H82.5928H94.285L94.6659 103.907C95.1348 103.48 95.1641 102.797 94.7392 102.27L94.4462 101.9H82.5928H70.7393L70.4463 102.27Z" fill="black"/>
<path d="M70.4463 102.27C70.0214 102.797 70.0507 103.48 70.5196 103.907L70.9005 104.248H82.5928H94.285L94.6659 103.907C95.1348 103.48 95.1641 102.797 94.7392 102.27L94.4462 101.9H82.5928H70.7393L70.4463 102.27Z" fill="url(#paint5_radial_3056_1875)"/>
<path d="M72.9957 107.094C72.3804 107.677 72.5415 108.588 73.3181 108.987C73.7723 109.228 91.4132 109.228 91.8674 108.987C92.644 108.588 92.8052 107.677 92.1898 107.094L91.8381 106.738H82.5928H73.3474L72.9957 107.094Z" fill="black"/>
<path d="M72.9957 107.094C72.3804 107.677 72.5415 108.588 73.3181 108.987C73.7723 109.228 91.4132 109.228 91.8674 108.987C92.644 108.588 92.8052 107.677 92.1898 107.094L91.8381 106.738H82.5928H73.3474L72.9957 107.094Z" fill="url(#paint6_radial_3056_1875)"/>
<path d="M75.4866 111.932C74.8712 112.515 75.0323 113.426 75.8089 113.824C76.2631 114.066 88.9224 114.066 89.3766 113.824C90.1531 113.426 90.3143 112.515 89.6989 111.932L89.3473 111.576H82.5927H75.8382L75.4866 111.932Z" fill="black"/>
<path d="M75.4866 111.932C74.8712 112.515 75.0323 113.426 75.8089 113.824C76.2631 114.066 88.9224 114.066 89.3766 113.824C90.1531 113.426 90.3143 112.515 89.6989 111.932L89.3473 111.576H82.5927H75.8382L75.4866 111.932Z" fill="url(#paint7_radial_3056_1875)"/>
</g>
<defs>
<filter id="filter0_d_3056_1875" x="-6.6266" y="7.29297" width="145.078" height="152.004" filterUnits="userSpaceOnUse" color-interpolation-filters="sRGB">
<feFlood flood-opacity="0" result="BackgroundImageFix"/>
<feColorMatrix in="SourceAlpha" type="matrix" values="0 0 0 0 0 0 0 0 0 0 0 0 0 0 0 0 0 0 127 0" result="hardAlpha"/>
<feOffset dx="-5" dy="5"/>
<feGaussianBlur stdDeviation="4"/>
<feComposite in2="hardAlpha" operator="out"/>
<feColorMatrix type="matrix" values="0 0 0 0 0 0 0 0 0 0 0 0 0 0 0 0 0 0 0.25 0"/>
<feBlend mode="normal" in2="BackgroundImageFix" result="effect1_dropShadow_3056_1875"/>
<feBlend mode="normal" in="SourceGraphic" in2="effect1_dropShadow_3056_1875" result="shape"/>
</filter>
<radialGradient id="paint0_radial_3056_1875" cx="0" cy="0" r="1" gradientUnits="userSpaceOnUse" gradientTransform="translate(60.1751 88.672) rotate(-54.727) scale(70.0565 70.5122)">
<stop stop-color="#00862D"/>
<stop offset="0.627261" stop-color="#0033CC"/>
</radialGradient>
<radialGradient id="paint1_radial_3056_1875" cx="0" cy="0" r="1" gradientUnits="userSpaceOnUse" gradientTransform="translate(88.0164 88.8133) rotate(-60.2651) scale(65.9724 60.6587)">
<stop stop-color="#00862D"/>
<stop offset="0.627261" stop-color="#0033CC"/>
</radialGradient>
<radialGradient id="paint2_radial_3056_1875" cx="0" cy="0" r="1" gradientUnits="userSpaceOnUse" gradientTransform="translate(69.9196 81.5826) rotate(-55.6688) scale(38.6033 38.3823)">
<stop stop-color="#00862D"/>
<stop offset="0.627261" stop-color="#0033CC"/>
</radialGradient>
<radialGradient id="paint3_radial_3056_1875" cx="0" cy="0" r="1" gradientUnits="userSpaceOnUse" gradientTransform="translate(76.0866 77.1673) rotate(-58.194) scale(18.8721 18.046)">
<stop stop-color="#00862D"/>
<stop offset="0.627261" stop-color="#0033CC"/>
</radialGradient>
<radialGradient id="paint4_radial_3056_1875" cx="0" cy="0" r="1" gradientUnits="userSpaceOnUse" gradientTransform="translate(84.3815 97.0431) rotate(-74.1522) scale(13.6738 7.66886)">
<stop stop-color="#00862D"/>
<stop offset="0.627261" stop-color="#0033CC"/>
</radialGradient>
<radialGradient id="paint5_radial_3056_1875" cx="0" cy="0" r="1" gradientUnits="userSpaceOnUse" gradientTransform="translate(74.9872 103.779) rotate(-3.74689) scale(38.5299 5.36393)">
<stop stop-color="#00862D"/>
<stop offset="0.627261" stop-color="#0033CC"/>
</radialGradient>
<radialGradient id="paint6_radial_3056_1875" cx="0" cy="0" r="1" gradientUnits="userSpaceOnUse" gradientTransform="translate(76.4982 108.682) rotate(-4.83417) scale(30.9193 5.54295)">
<stop stop-color="#00862D"/>
<stop offset="0.627261" stop-color="#0033CC"/>
</radialGradient>
<radialGradient id="paint7_radial_3056_1875" cx="0" cy="0" r="1" gradientUnits="userSpaceOnUse" gradientTransform="translate(78.0202 113.52) rotate(-6.43156) scale(23.2612 5.52773)">
<stop stop-color="#00862D"/>
<stop offset="0.627261" stop-color="#0033CC"/>
</radialGradient>
<clipPath id="clip0_3056_1875">
<rect width="160" height="160" fill="white"/>
</clipPath>
</defs>
</svg>
