<svg width="160" height="160" viewBox="0 0 160 160" fill="none" xmlns="http://www.w3.org/2000/svg">
<g clip-path="url(#clip0_3056_1871)">
<g filter="url(#filter0_d_3056_1871)">
<path d="M81.0962 15.7562C100.014 2.51003 126.177 14.71 128.189 37.7161L134.832 113.636C136.844 136.642 113.197 153.2 92.2671 143.44L23.1972 111.232C2.26692 101.472 -0.249049 72.7148 18.6685 59.4686L81.0962 15.7562Z" fill="white"/>
</g>
<path d="M66.7219 49.1444C66.2969 49.3571 66.0976 49.7691 66.0312 50.6197L65.9515 51.3906H79.406H92.8604L92.7807 50.6197C92.7143 49.7425 92.5151 49.3438 92.0635 49.1444C91.6385 48.945 67.1071 48.9583 66.7219 49.1444Z" fill="white"/>
<path d="M66.7219 49.1444C66.2969 49.3571 66.0976 49.7691 66.0312 50.6197L65.9515 51.3906H79.406H92.8604L92.7807 50.6197C92.7143 49.7425 92.5151 49.3438 92.0635 49.1444C91.6385 48.945 67.1071 48.9583 66.7219 49.1444Z" fill="url(#paint0_radial_3056_1871)"/>
<path d="M45.7499 54.3311L45.4045 54.7431L45.4311 77.0592L45.4709 99.362L45.7764 99.6677C46.0421 99.9468 46.228 99.9734 47.5296 100.013L48.9906 100.066V98.8569C48.9906 97.5411 49.1898 96.8366 49.6281 96.5974C50.0133 96.398 108.798 96.398 109.184 96.5974C109.622 96.8366 109.821 97.5411 109.821 98.8569V100.066L111.282 100.013C112.584 99.9734 112.77 99.9468 113.035 99.6677L113.341 99.362L113.381 77.0592L113.407 54.7431L113.062 54.3311L112.717 53.919H79.4059H46.0952L45.7499 54.3311ZM82.1286 61.4419C89.5133 62.8508 94.6135 69.6825 93.8697 77.1389C92.8603 87.1074 82.3279 93.1682 73.3494 88.9549C71.0915 87.8916 69.4977 86.6555 68.0898 84.8745C65.646 81.7776 64.5569 78.1491 64.942 74.3345C65.3538 70.2009 67.4523 66.4926 70.7727 64.0204C73.9604 61.628 78.1574 60.6843 82.1286 61.4419Z" fill="white"/>
<path d="M45.7499 54.3311L45.4045 54.7431L45.4311 77.0592L45.4709 99.362L45.7764 99.6677C46.0421 99.9468 46.228 99.9734 47.5296 100.013L48.9906 100.066V98.8569C48.9906 97.5411 49.1898 96.8366 49.6281 96.5974C50.0133 96.398 108.798 96.398 109.184 96.5974C109.622 96.8366 109.821 97.5411 109.821 98.8569V100.066L111.282 100.013C112.584 99.9734 112.77 99.9468 113.035 99.6677L113.341 99.362L113.381 77.0592L113.407 54.7431L113.062 54.3311L112.717 53.919H79.4059H46.0952L45.7499 54.3311ZM82.1286 61.4419C89.5133 62.8508 94.6135 69.6825 93.8697 77.1389C92.8603 87.1074 82.3279 93.1682 73.3494 88.9549C71.0915 87.8916 69.4977 86.6555 68.0898 84.8745C65.646 81.7776 64.5569 78.1491 64.942 74.3345C65.3538 70.2009 67.4523 66.4926 70.7727 64.0204C73.9604 61.628 78.1574 60.6843 82.1286 61.4419Z" fill="url(#paint1_radial_3056_1871)"/>
<path d="M77.387 63.7531C72.8845 64.5107 69.2055 67.7803 67.7843 72.2595C67.3062 73.8013 67.1734 76.4595 67.5054 78.1077C68.0632 80.859 69.6703 83.4773 71.8751 85.2185C77.5863 89.7508 85.8475 88.2755 89.7789 82.0286C90.35 81.1248 91.0673 79.2906 91.3063 78.1077C91.6517 76.3665 91.5056 73.788 90.9743 72.1266C89.5664 67.7537 85.8077 64.4708 81.3981 63.7664C80.4153 63.6069 78.3168 63.6069 77.387 63.7531ZM78.3433 69.1493C78.8215 69.4683 80.8536 70.9171 82.8591 72.3658C86.2194 74.7715 86.5249 75.0241 86.6311 75.476C86.7241 75.8614 86.7108 76.0342 86.5382 76.3C86.4186 76.4861 84.3068 78.0678 81.8497 79.8355C78.5824 82.1615 77.2675 83.0254 77.0019 83.0254C76.8026 83.0254 76.4573 82.8659 76.2315 82.6799L75.8198 82.3343V75.795C75.8198 68.724 75.8065 68.8303 76.537 68.5379C76.9753 68.3518 77.4003 68.4981 78.3433 69.1493Z" fill="white"/>
<path d="M77.387 63.7531C72.8845 64.5107 69.2055 67.7803 67.7843 72.2595C67.3062 73.8013 67.1734 76.4595 67.5054 78.1077C68.0632 80.859 69.6703 83.4773 71.8751 85.2185C77.5863 89.7508 85.8475 88.2755 89.7789 82.0286C90.35 81.1248 91.0673 79.2906 91.3063 78.1077C91.6517 76.3665 91.5056 73.788 90.9743 72.1266C89.5664 67.7537 85.8077 64.4708 81.3981 63.7664C80.4153 63.6069 78.3168 63.6069 77.387 63.7531ZM78.3433 69.1493C78.8215 69.4683 80.8536 70.9171 82.8591 72.3658C86.2194 74.7715 86.5249 75.0241 86.6311 75.476C86.7241 75.8614 86.7108 76.0342 86.5382 76.3C86.4186 76.4861 84.3068 78.0678 81.8497 79.8355C78.5824 82.1615 77.2675 83.0254 77.0019 83.0254C76.8026 83.0254 76.4573 82.8659 76.2315 82.6799L75.8198 82.3343V75.795C75.8198 68.724 75.8065 68.8303 76.537 68.5379C76.9753 68.3518 77.4003 68.4981 78.3433 69.1493Z" fill="url(#paint2_radial_3056_1871)"/>
<path d="M78.2104 75.7801V79.4219L80.734 77.6143C82.1286 76.6307 83.2442 75.7668 83.231 75.7003C83.1911 75.594 78.3831 72.125 78.2769 72.125C78.237 72.125 78.2104 73.7731 78.2104 75.7801Z" fill="white"/>
<path d="M78.2104 75.7801V79.4219L80.734 77.6143C82.1286 76.6307 83.2442 75.7668 83.231 75.7003C83.1911 75.594 78.3831 72.125 78.2769 72.125C78.237 72.125 78.2104 73.7731 78.2104 75.7801Z" fill="url(#paint3_radial_3056_1871)"/>
<path d="M51.5142 100.887C51.5142 102.907 51.5142 102.921 51.8595 103.279L52.2181 103.625H79.4059H106.594L106.952 103.279C107.298 102.921 107.298 102.907 107.298 100.887V98.8401H79.4059H51.5142V100.887Z" fill="white"/>
<path d="M51.5142 100.887C51.5142 102.907 51.5142 102.921 51.8595 103.279L52.2181 103.625H79.4059H106.594L106.952 103.279C107.298 102.921 107.298 102.907 107.298 100.887V98.8401H79.4059H51.5142V100.887Z" fill="url(#paint4_radial_3056_1871)"/>
<path d="M71.7821 106.445C71.6759 106.618 70.6399 108.426 69.4578 110.472C67.0671 114.633 66.9741 114.885 67.7312 115.51C67.957 115.696 68.2492 115.855 68.3953 115.855C69.0992 115.855 69.3516 115.523 71.7024 111.456C72.9775 109.236 74.1861 107.136 74.3986 106.791L74.7573 106.153H73.3627C72.0611 106.153 71.9681 106.166 71.7821 106.445Z" fill="white"/>
<path d="M71.7821 106.445C71.6759 106.618 70.6399 108.426 69.4578 110.472C67.0671 114.633 66.9741 114.885 67.7312 115.51C67.957 115.696 68.2492 115.855 68.3953 115.855C69.0992 115.855 69.3516 115.523 71.7024 111.456C72.9775 109.236 74.1861 107.136 74.3986 106.791L74.7573 106.153H73.3627C72.0611 106.153 71.9681 106.166 71.7821 106.445Z" fill="url(#paint5_radial_3056_1871)"/>
<path d="M78.2104 111.188V116.239L78.5292 116.611C78.9808 117.13 79.8308 117.13 80.2824 116.611L80.6012 116.239V111.188V106.151H79.4058H78.2104V111.188Z" fill="white"/>
<path d="M78.2104 111.188V116.239L78.5292 116.611C78.9808 117.13 79.8308 117.13 80.2824 116.611L80.6012 116.239V111.188V106.151H79.4058H78.2104V111.188Z" fill="url(#paint6_radial_3056_1871)"/>
<path d="M84.2936 106.576C84.4397 106.815 85.5554 108.743 86.7773 110.869C87.9992 112.983 89.1282 114.923 89.2743 115.149C89.8055 115.933 90.6954 116.026 91.2267 115.362C91.7447 114.71 91.6251 114.418 89.1946 110.205L86.8968 106.217L85.4624 106.177L84.028 106.138L84.2936 106.576Z" fill="white"/>
<path d="M84.2936 106.576C84.4397 106.815 85.5554 108.743 86.7773 110.869C87.9992 112.983 89.1282 114.923 89.2743 115.149C89.8055 115.933 90.6954 116.026 91.2267 115.362C91.7447 114.71 91.6251 114.418 89.1946 110.205L86.8968 106.217L85.4624 106.177L84.028 106.138L84.2936 106.576Z" fill="url(#paint7_radial_3056_1871)"/>
</g>
<defs>
<filter id="filter0_d_3056_1871" x="-7.12659" y="7.29297" width="145.078" height="152.004" filterUnits="userSpaceOnUse" color-interpolation-filters="sRGB">
<feFlood flood-opacity="0" result="BackgroundImageFix"/>
<feColorMatrix in="SourceAlpha" type="matrix" values="0 0 0 0 0 0 0 0 0 0 0 0 0 0 0 0 0 0 127 0" result="hardAlpha"/>
<feOffset dx="-5" dy="5"/>
<feGaussianBlur stdDeviation="4"/>
<feComposite in2="hardAlpha" operator="out"/>
<feColorMatrix type="matrix" values="0 0 0 0 0 0 0 0 0 0 0 0 0 0 0 0 0 0 0.25 0"/>
<feBlend mode="normal" in2="BackgroundImageFix" result="effect1_dropShadow_3056_1871"/>
<feBlend mode="normal" in="SourceGraphic" in2="effect1_dropShadow_3056_1871" result="shape"/>
</filter>
<radialGradient id="paint0_radial_3056_1871" cx="0" cy="0" r="1" gradientUnits="userSpaceOnUse" gradientTransform="translate(71.1842 50.9125) rotate(-3.53007) scale(41.6414 5.46339)">
<stop stop-color="#00862D"/>
<stop offset="0.627261" stop-color="#0033CC"/>
</radialGradient>
<radialGradient id="paint1_radial_3056_1871" cx="0" cy="0" r="1" gradientUnits="userSpaceOnUse" gradientTransform="translate(58.6283 90.8375) rotate(-25.2286) scale(116.11 95.5766)">
<stop stop-color="#00862D"/>
<stop offset="0.627261" stop-color="#0033CC"/>
</radialGradient>
<radialGradient id="paint2_radial_3056_1871" cx="0" cy="0" r="1" gradientUnits="userSpaceOnUse" gradientTransform="translate(72.022 83.0121) rotate(-34.814) scale(45.4739 45.5048)">
<stop stop-color="#00862D"/>
<stop offset="0.627261" stop-color="#0033CC"/>
</radialGradient>
<radialGradient id="paint3_radial_3056_1871" cx="0" cy="0" r="1" gradientUnits="userSpaceOnUse" gradientTransform="translate(79.1868 77.9626) rotate(-45.26) scale(11.0169 11.7594)">
<stop stop-color="#00862D"/>
<stop offset="0.627261" stop-color="#0033CC"/>
</radialGradient>
<radialGradient id="paint4_radial_3056_1871" cx="0" cy="0" r="1" gradientUnits="userSpaceOnUse" gradientTransform="translate(62.3618 102.668) rotate(-3.40827) scale(86.3137 10.9356)">
<stop stop-color="#00862D"/>
<stop offset="0.627261" stop-color="#0033CC"/>
</radialGradient>
<radialGradient id="paint5_radial_3056_1871" cx="0" cy="0" r="1" gradientUnits="userSpaceOnUse" gradientTransform="translate(68.7587 113.915) rotate(-42.1347) scale(15.5101 16.4734)">
<stop stop-color="#00862D"/>
<stop offset="0.627261" stop-color="#0033CC"/>
</radialGradient>
<radialGradient id="paint6_radial_3056_1871" cx="0" cy="0" r="1" gradientUnits="userSpaceOnUse" gradientTransform="translate(78.6753 114.83) rotate(-72.3917) scale(12.2066 7.51397)">
<stop stop-color="#00862D"/>
<stop offset="0.627261" stop-color="#0033CC"/>
</radialGradient>
<radialGradient id="paint7_radial_3056_1871" cx="0" cy="0" r="1" gradientUnits="userSpaceOnUse" gradientTransform="translate(85.4762 113.871) rotate(-42.026) scale(15.4858 16.4413)">
<stop stop-color="#00862D"/>
<stop offset="0.627261" stop-color="#0033CC"/>
</radialGradient>
<clipPath id="clip0_3056_1871">
<rect width="160" height="160" fill="white"/>
</clipPath>
</defs>
</svg>
