<svg width="45" height="45" viewBox="0 0 45 45" fill="none" xmlns="http://www.w3.org/2000/svg">
<path d="M21.4613 1.67417C21.4613 2.51881 21.4223 2.7787 21.2795 2.7787C21.1886 2.7787 20.6952 2.98661 20.2019 3.2335C19.0853 3.79226 18.3322 4.57193 17.7869 5.74143C17.3844 6.58607 17.3714 6.66404 17.3325 8.75615L17.2805 10.9002L11.9442 13.0313C8.99689 14.2138 6.3482 15.2794 6.03659 15.3963L5.49127 15.6302L6.20538 17.0726L6.91948 18.502V24.0896V29.6772H6.40013H5.88078V30.7168V31.7563H22.5H39.1192V30.7168V29.6772H38.5998H38.0805V24.0896V18.502L38.7946 17.0726L39.5087 15.6302L38.9634 15.3963C38.6518 15.2794 36.0031 14.2138 33.0558 13.0313L27.7195 10.9002L27.6675 8.75615C27.6286 6.66404 27.6156 6.58607 27.2131 5.74143C26.6678 4.57193 25.9147 3.79226 24.7981 3.2335C24.3047 2.98661 23.8113 2.7787 23.7205 2.7787C23.5776 2.7787 23.5387 2.51881 23.5387 1.67417V0.569637H22.5H21.4613V1.67417ZM23.4608 4.8838C24.2138 5.1047 25.2525 6.17025 25.4733 6.93692C25.5642 7.27478 25.6161 8.05445 25.5901 8.78214L25.5512 10.0296L24.123 9.45785C23.3439 9.14598 22.6168 8.88609 22.5 8.88609C22.3831 8.88609 21.656 9.14598 20.877 9.45785L19.4488 10.0296L19.4099 8.78214C19.3579 7.07986 19.5267 6.5211 20.3447 5.70245C21.2665 4.77984 22.2403 4.53295 23.4608 4.8838ZM29.6411 13.902C36.1199 16.5008 36.6393 16.7218 36.5095 16.9557C36.3926 17.2025 36.0161 17.2025 22.5 17.2025C8.9839 17.2025 8.60737 17.2025 8.49052 16.9557C8.36068 16.7218 8.88003 16.5008 15.333 13.902C19.1632 12.3686 22.3831 11.1081 22.461 11.0952C22.5519 11.0952 25.7849 12.3556 29.6411 13.902ZM11.0743 24.4794V29.6772H10.0356H8.99689V24.4794V19.2817H10.0356H11.0743V24.4794ZM15.2291 24.4794V29.6772H14.1904H13.1517V24.4794V19.2817H14.1904H15.2291V24.4794ZM19.3839 24.4794V29.6772H18.3452H17.3065V24.4794V19.2817H18.3452H19.3839V24.4794ZM23.5387 24.4794V29.6772H22.5H21.4613V24.4794V19.2817H22.5H23.5387V24.4794ZM27.6935 24.4794V29.6772H26.6548H25.6161V24.4794V19.2817H26.6548H27.6935V24.4794ZM31.8483 24.4794V29.6772H30.8096H29.7709V24.4794V19.2817H30.8096H31.8483V24.4794ZM36.0031 24.4794V29.6772H34.9644H33.9257V24.4794V19.2817H34.9644H36.0031V24.4794Z" fill="white"/>
<path d="M4.8913 24.4565L22.5 22.5L39.9366 24.4565V33.4652H5.06338L4.8913 24.4565Z" fill="#A1CB5C"/>
<path d="M15.6885 24.9609L12.5244 26.0156H10.3975C8.68359 26.0156 8.26172 25.9893 8.26172 25.9014C8.26172 25.6992 7.64648 25.0488 7.25977 24.8467C6.91699 24.6621 6.79395 24.6533 4.92188 24.6533C3.04981 24.6533 2.92676 24.6621 2.58398 24.8467C2.11816 25.0928 1.64356 25.6465 1.51172 26.0947C1.43262 26.332 1.40625 27.9492 1.40625 31.6582C1.40625 37.6172 1.37988 37.415 2.10059 38.083C2.33789 38.3027 2.68066 38.5225 2.86523 38.5752C3.31348 38.6982 6.53027 38.6982 6.97852 38.5752C7.62012 38.3994 8.28809 37.5996 8.41113 36.8613L8.46387 36.5625H9.3252C10.1777 36.5625 10.2041 36.5713 10.5908 36.8701C10.9424 37.1338 11.4521 37.3535 11.751 37.3535C11.8037 37.3535 11.874 37.5117 11.9092 37.6963C12.041 38.4697 12.8496 39.2871 13.6143 39.4189C13.9219 39.4717 13.9482 39.498 14.0537 39.9023C14.2031 40.4824 14.5811 40.9746 15.0908 41.2822C15.46 41.502 15.6006 41.5283 16.2422 41.5283C16.7168 41.5283 16.9629 41.5635 16.9629 41.625C16.9629 41.6777 17.0771 41.8799 17.2266 42.082C17.7275 42.7852 18.6855 43.1191 19.5557 42.8994C19.9512 42.8027 19.9775 42.8027 20.2676 43.0576C20.7949 43.5234 21.085 43.6377 21.7969 43.6377C22.3594 43.6377 22.5176 43.6025 22.8691 43.3916C23.2031 43.1982 23.5459 42.8555 23.7832 42.4688C23.792 42.4512 23.9854 42.5391 24.2051 42.6709C24.6709 42.9434 25.374 43.04 25.9014 42.8994C26.4111 42.7588 26.9736 42.3105 27.1934 41.8623L27.3779 41.502L27.8613 41.5459C28.125 41.5723 28.5117 41.5459 28.7139 41.4932C29.2148 41.3613 29.7861 40.9043 30.0059 40.4736L30.1904 40.1221H30.8936C31.5 40.1221 31.6494 40.0869 32.0098 39.876C32.7744 39.4277 33.1963 38.6104 33.1084 37.7402L33.0557 37.2656H33.9258C34.8926 37.2656 35.6836 37.0723 36.2373 36.6943L36.5625 36.4658V36.6768C36.5625 37.3975 37.3184 38.3818 38.0215 38.5752C38.4697 38.6982 41.6865 38.6982 42.1436 38.5752C42.6094 38.4521 43.3389 37.7051 43.4883 37.2129C43.5674 36.9404 43.5938 35.499 43.5938 31.5879C43.5938 26.4814 43.585 26.3145 43.4092 25.9277C43.1895 25.4443 42.8643 25.0928 42.4072 24.8467C42.0732 24.6621 41.9326 24.6533 40.0781 24.6533C38.2061 24.6533 38.083 24.6621 37.7402 24.8467C37.3535 25.0488 36.7383 25.6992 36.7383 25.9014C36.7383 25.9893 36.4922 26.0156 35.6484 26.0156H34.5586L32.0273 25.0928C30.6299 24.583 29.2061 24.1084 28.8545 24.0381C28.3359 23.9326 27.3516 23.9062 23.5371 23.9062H18.8525L15.6885 24.9609ZM23.8535 25.3828C23.8096 25.4268 22.8076 26.2617 21.6211 27.2461C20.4346 28.2217 19.3359 29.1709 19.1865 29.3467C18.7383 29.8477 18.5186 30.5068 18.5625 31.2451C18.6504 32.6426 19.6523 33.6445 21.041 33.7324C22.0078 33.7852 22.3857 33.6006 23.9502 32.2998L25.2686 31.2012L28.4941 34.4355C31.4385 37.3799 31.7285 37.6875 31.7285 37.96C31.7285 38.3555 31.3242 38.7598 30.9287 38.7598C30.665 38.7598 30.375 38.5049 27.8877 36.0176L25.1367 33.2666L24.6357 33.7764L24.126 34.2773L26.5254 36.6768C28.6787 38.8389 28.916 39.1025 28.916 39.3662C28.916 39.7617 28.5117 40.166 28.1162 40.166C27.8525 40.166 27.6152 39.9551 25.7783 38.127L23.7305 36.0791L23.2295 36.5889L22.7197 37.0898L24.416 38.7861C25.9189 40.2979 26.1035 40.5176 26.1035 40.7725C26.1035 41.168 25.6992 41.5723 25.3037 41.5723C25.0576 41.5723 24.8643 41.4229 23.8184 40.377C22.8516 39.4277 22.5879 39.1113 22.5088 38.8213C22.2803 38.0479 21.6738 37.459 20.9004 37.2656C20.5313 37.1689 20.5137 37.1514 20.373 36.6504C20.1621 35.9473 19.5996 35.3848 18.9053 35.1914L18.4131 35.0508L18.2637 34.5498C18.0879 33.9697 17.6484 33.4512 17.0947 33.1787C16.8311 33.0469 16.5674 33.0029 16.0664 33.0117C15.4424 33.0205 15.3896 33.0029 15.3457 32.8271C15.2754 32.5547 14.6953 31.9746 14.3086 31.79C13.8076 31.5527 13.2715 31.5176 12.709 31.6758C12.2783 31.7988 12.0938 31.9395 11.3027 32.6953C10.2305 33.7324 9.9668 34.084 9.82617 34.6992L9.71191 35.1562H9.0791H8.4375V31.2891V27.4219H10.6172H12.7881L15.9082 26.376L19.0283 25.3301L21.4805 25.3213C22.8428 25.3125 23.9063 25.3477 23.8535 25.3828ZM31.377 26.376L34.0576 27.3604L35.3145 27.4043L36.5625 27.4395V31.1133V34.7783L35.877 35.2354C35.4902 35.4814 35.0508 35.7275 34.8838 35.7715C34.7168 35.8242 33.9961 35.8594 33.2666 35.8594H31.9482L30.1465 34.0576C28.4854 32.3965 28.3711 32.2559 28.6084 32.2559C29.6367 32.2471 31.0342 31.6758 32.0186 30.8496C32.0537 30.8145 31.9043 30.5508 31.6758 30.2695C31.4473 29.9883 31.2451 29.7334 31.2363 29.7158C31.2188 29.6982 31.0605 29.8037 30.876 29.9531C29.874 30.7441 28.7051 31.0166 27.5713 30.7178C26.8594 30.5332 26.4111 30.2783 25.875 29.7773C25.6113 29.5312 25.3564 29.3555 25.2949 29.3818C25.2334 29.4082 24.4863 30.0059 23.6426 30.7178C21.8145 32.2559 21.6826 32.3438 21.2256 32.3438C20.3203 32.3438 19.6875 31.3594 20.0566 30.5332C20.1182 30.3926 21.2783 29.3643 22.6758 28.1953C25.875 25.5146 26.3145 25.2773 27.9492 25.3564C28.6523 25.3828 28.8809 25.4531 31.377 26.376ZM6.6709 26.1475C6.81152 26.2178 6.94336 26.3408 6.97852 26.4111C7.00488 26.4902 7.03125 28.8721 7.03125 31.6934V36.835L6.81152 37.0459C6.60059 37.2656 6.58301 37.2656 4.92188 37.2656C3.26074 37.2656 3.24316 37.2656 3.03223 37.0459L2.8125 36.835V31.6582C2.8125 26.209 2.80371 26.3408 3.20801 26.1211C3.48926 25.9629 6.36328 25.9805 6.6709 26.1475ZM41.8272 26.1475C41.9678 26.2178 42.0996 26.3408 42.1348 26.4111C42.1611 26.4902 42.1875 28.8721 42.1875 31.6934V36.835L41.9678 37.0459C41.7568 37.2656 41.7393 37.2656 40.0781 37.2656C38.417 37.2656 38.3994 37.2656 38.1885 37.0459L37.9688 36.835V31.6582C37.9688 26.209 37.96 26.3408 38.3643 26.1211C38.6455 25.9629 41.5195 25.9805 41.8272 26.1475ZM13.957 33.2754C14.3525 33.7236 14.2471 33.9521 13.2012 34.998C12.3838 35.8154 12.2168 35.9473 11.9619 35.9473C11.5752 35.9473 11.1621 35.543 11.1621 35.1475C11.1621 34.9102 11.2939 34.7344 12.0234 33.9961C12.4893 33.5127 12.9551 33.082 13.0518 33.0381C13.3242 32.9238 13.7373 33.0293 13.957 33.2754ZM16.7695 34.6816C16.8838 34.8135 16.9629 35.0156 16.9629 35.1826C16.9629 35.4199 16.7871 35.6309 15.6621 36.7559C14.5195 37.9072 14.3262 38.0566 14.0713 38.0566C13.6758 38.0566 13.2715 37.6523 13.2715 37.2568C13.2715 37.0107 13.4297 36.8174 14.4844 35.7451C15.1436 35.0771 15.7676 34.4883 15.8643 34.4443C16.1367 34.3301 16.5498 34.4355 16.7695 34.6816ZM18.8789 36.791C18.9932 36.9229 19.0723 37.125 19.0723 37.292C19.0723 37.5293 18.8965 37.7402 17.7715 38.8652C16.6289 40.0166 16.4355 40.166 16.1807 40.166C15.7852 40.166 15.3809 39.7617 15.3809 39.3662C15.3809 39.1201 15.5391 38.9268 16.5938 37.8545C17.2529 37.1865 17.877 36.5977 17.9736 36.5537C18.2461 36.4395 18.6592 36.5449 18.8789 36.791ZM20.9883 38.9004C21.3838 39.3486 21.2783 39.5771 20.2324 40.623C19.415 41.4404 19.248 41.5723 18.9932 41.5723C18.6064 41.5723 18.1934 41.168 18.1934 40.7725C18.1934 40.5352 18.3252 40.3594 19.0547 39.6211C19.5205 39.1377 19.9863 38.707 20.083 38.6631C20.3555 38.5488 20.7686 38.6543 20.9883 38.9004ZM22.4033 41.0098C22.667 41.3438 22.6406 41.7129 22.333 42.0205C22.0078 42.3457 21.6387 42.3545 21.2959 42.0645L21.0498 41.8447L21.5771 41.3174C21.8672 41.0186 22.1309 40.7812 22.1572 40.7812C22.1924 40.7812 22.3066 40.8867 22.4033 41.0098Z" fill="white"/>
</svg>
