<svg width="393" height="252" viewBox="0 0 393 252" fill="none" xmlns="http://www.w3.org/2000/svg">
<g clip-path="url(#clip0_1166_2421)">
<g opacity="0.5">
<path d="M-67.5229 26.3956C-32.1685 17.7248 -2.27462 14.1811 29.5628 31.1457C44.0008 38.8363 56.2175 50.2969 73.617 53.6144C96.7547 57.9875 122.484 45.773 141.827 37.1776C152.47 32.4275 163.484 23.5305 175.053 20.3637C183.752 17.951 190.971 20.1376 199.301 22.7765C222.254 29.9393 241.504 38.9118 266.308 41.4753C318.506 46.8286 400.414 42.6817 427.069 -0.747803C451.78 19.7606 465.57 55.5748 437.619 79.2499C423.644 91.0874 374.962 94.5557 386.531 117.251C390.511 125.017 400.136 130.37 404.486 137.985C409.576 146.807 407.54 155.553 406.152 164.902C400.784 199.284 415.87 224.769 439.1 253.496C409.762 246.483 391.066 233.967 365.615 221.828C346.179 212.554 329.983 213.987 309.899 221.828C286.114 231.102 266.585 253.345 238.82 253.194C216.33 253.119 193.933 243.468 173.757 236.38C153.581 229.368 127.389 217.983 104.436 221.602C83.3348 224.92 70.8405 242.11 50.0166 247.539C6.61025 259 -39.7577 236.832 -83.164 234.872C-82.6087 213.836 -73.4462 201.32 -56.9721 185.712C-33.5568 163.545 2.63058 137.985 -37.3514 113.707C-54.0105 103.604 -96.5839 92.52 -77.7961 70.1267C-72.9834 64.4718 -63.5432 62.2852 -58.3604 57.0828C-46.2362 44.7174 -56.5094 37.3284 -67.5229 26.3956Z" stroke="url(#paint0_linear_1166_2421)" stroke-width="0.5" stroke-miterlimit="10" stroke-linecap="round" stroke-linejoin="round"/>
<path d="M-82.7938 225.146C-42.6267 227.936 0.779583 241.884 39.9286 228.237C59.5493 221.451 71.0256 209.765 93.4229 208.935C117.023 208.031 140.439 215.57 162.466 221.527C182.179 226.88 203.373 233.741 224.475 233.44C253.258 232.987 270.38 213.535 295.276 204.411C315.082 197.098 330.445 198.832 349.048 207.126C373.759 218.209 392.269 227.031 421.33 230.575" stroke="url(#paint1_linear_1166_2421)" stroke-width="0.5" stroke-miterlimit="10" stroke-linecap="round" stroke-linejoin="round"/>
<path d="M-81.4055 217.078C-42.4416 220.697 -3.75539 226.202 33.9128 214.213C54.0889 207.804 68.1566 199.511 90.5539 199.963C114.339 200.415 137.385 206.372 160.152 211.348C179.495 215.57 199.764 220.245 220.032 218.888C245.484 217.229 260.385 201.999 282.782 193.705C301.755 186.693 317.396 188.729 335.536 195.891C361.728 206.221 380.701 211.574 410.594 211.499" stroke="url(#paint2_linear_1166_2421)" stroke-width="0.5" stroke-miterlimit="10" stroke-linecap="round" stroke-linejoin="round"/>
<path d="M-78.2588 209.689C-36.611 214.666 -1.71932 212.931 37.985 201.697C59.3642 195.665 75.0053 191.82 97.7728 193.78C120.355 195.741 142.382 200.415 164.594 204.11C182.549 207.05 201.152 209.689 219.57 207.729C242.8 205.241 256.775 191.971 277.784 185.185C296.109 179.304 310.547 182.546 327.947 188.351C355.156 197.55 375.888 199.133 405.412 195.514" stroke="url(#paint3_linear_1166_2421)" stroke-width="0.5" stroke-miterlimit="10" stroke-linecap="round" stroke-linejoin="round"/>
<path d="M-72.7982 201.923C-48.2723 205.618 -24.5793 207.503 -0.053345 202.602C15.8654 199.36 30.9512 193.856 46.7774 190.237C89.906 180.359 130.536 193.931 173.664 198.003C190.139 199.586 206.798 200.114 223.179 197.475C243.54 194.233 257.515 182.847 276.766 177.72C294.258 173.121 308.048 177.796 324.43 182.546C352.75 190.84 375.518 188.578 404.301 182.018" stroke="url(#paint4_linear_1166_2421)" stroke-width="0.5" stroke-miterlimit="10" stroke-linecap="round" stroke-linejoin="round"/>
<path d="M-64.2836 192.8C-38.5545 197.55 -15.1392 199.963 10.1272 192.951C26.7863 188.276 41.9647 181.188 59.5493 178.55C101.382 172.141 142.66 191.367 185.048 191.443C199.949 191.443 214.572 189.784 228.917 186.391C246.965 182.169 262.698 171.462 281.023 168.974C297.22 166.787 309.899 173.573 324.615 177.494C353.028 185.034 378.017 179.002 405.412 170.407" stroke="url(#paint5_linear_1166_2421)" stroke-width="0.5" stroke-miterlimit="10" stroke-linecap="round" stroke-linejoin="round"/>
<path d="M-52.1595 181.264C-26.708 186.994 -3.66284 190.764 21.2333 181.792C36.2266 176.363 49.2762 168.446 66.0279 166.561C91.8496 163.696 114.802 174.177 139.143 179.228C157.931 183.074 177.367 184.958 196.525 182.32C211.888 180.284 226.048 175.232 240.301 170.331C254.369 165.506 271.306 156.533 287.132 157.438C300.181 158.192 311.01 165.581 322.764 169.577C352.288 179.605 379.868 169.879 407.263 159.398" stroke="url(#paint6_linear_1166_2421)" stroke-width="0.5" stroke-miterlimit="10" stroke-linecap="round" stroke-linejoin="round"/>
<path d="M-35.6854 166.335C-12.1775 172.97 10.3123 178.926 32.9873 167.692C45.3891 161.509 54.7367 153.065 70.1927 152.386C96.1995 151.18 120.911 166.486 145.899 171.16C165.983 174.93 186.344 175.081 205.872 169.2C230.861 161.585 264.92 131.425 293.148 140.926C304.994 144.922 313.231 154.573 324.337 159.624C352.658 172.518 382.367 159.7 408.188 148.692" stroke="url(#paint7_linear_1166_2421)" stroke-width="0.5" stroke-miterlimit="10" stroke-linecap="round" stroke-linejoin="round"/>
<path d="M-19.7667 146.203C0.409409 151.331 19.66 156.231 40.1137 149.898C51.1272 146.43 59.0866 141.604 71.3959 142.132C95.1814 143.188 118.597 154.723 142.29 158.116C162.836 161.057 183.29 161.66 203.466 156.759C229.75 150.426 265.475 121.397 293.148 127.731C304.994 130.445 313.971 139.493 324.615 144.092C352.102 155.854 378.109 148.088 404.856 138.437" stroke="url(#paint8_linear_1166_2421)" stroke-width="0.5" stroke-miterlimit="10" stroke-linecap="round" stroke-linejoin="round"/>
<path d="M-19.304 130.747C-0.88638 134.216 17.2536 137.458 36.1339 135.497C47.3326 134.291 56.6802 132.406 68.0639 133.839C111.1 139.192 150.064 155.327 194.951 148.391C210.037 146.053 224.012 140.926 237.71 135.422C250.574 130.295 266.215 120.342 281.023 120.041C295.276 119.815 308.233 128.787 320.82 133.009C347.567 141.982 371.168 137.232 397.73 129.39" stroke="url(#paint9_linear_1166_2421)" stroke-width="0.5" stroke-miterlimit="10" stroke-linecap="round" stroke-linejoin="round"/>
<path d="M-29.5771 118.759C-0.0534124 121.549 30.4883 121.549 59.6418 126.525C99.8089 133.386 141.272 144.243 182.827 142.358C197.45 141.68 210.87 138.513 224.29 133.838C238.82 128.711 252.98 118.608 268.436 116.421C282.874 114.386 296.85 119.89 310.362 123.056C338.405 129.692 361.357 127.807 389.678 121.096" stroke="url(#paint10_linear_1166_2421)" stroke-width="0.5" stroke-miterlimit="10" stroke-linecap="round" stroke-linejoin="round"/>
<path d="M-45.866 109.108C27.064 108.429 97.1249 131.124 169.5 137.457C182.827 138.588 195.136 137.684 207.723 133.914C224.197 129.013 236.599 118.155 252.888 113.707C268.992 109.258 285.466 112.199 301.662 114.386C330.723 118.306 355.157 118.457 384.403 113.33" stroke="url(#paint11_linear_1166_2421)" stroke-width="0.5" stroke-miterlimit="10" stroke-linecap="round" stroke-linejoin="round"/>
<path d="M-63.3581 100.512C-40.0353 97.8729 -18.7486 97.2698 3.83375 103.302C19.0121 107.373 33.3574 113.405 48.9985 116.346C68.4342 119.965 88.7954 118.607 108.416 121.322C125.353 123.584 141.087 128.409 157.561 132.028C168.944 134.517 179.403 135.874 190.971 133.235C210.129 128.862 222.069 115.818 239.931 109.484C257.053 103.377 276.026 103.603 294.258 104.734C325.355 106.695 354.324 108.73 385.606 105.488" stroke="url(#paint12_linear_1166_2421)" stroke-width="0.5" stroke-miterlimit="10" stroke-linecap="round" stroke-linejoin="round"/>
<path d="M-77.3333 91.9172C-51.1414 86.1869 -28.8367 86.0361 -3.66288 94.7069C10.9601 99.7586 24.4726 107.072 40.0211 110.541C61.8631 115.441 83.8902 110.39 106.102 113.029C121.651 114.914 135.256 119.815 149.694 124.64C187.084 137.005 201.615 114.16 233.545 101.87C282.689 82.9448 344.421 97.8736 396.527 97.2704" stroke="url(#paint13_linear_1166_2421)" stroke-width="0.5" stroke-miterlimit="10" stroke-linecap="round" stroke-linejoin="round"/>
<path d="M-83.0714 82.04C-57.7125 73.8216 -36.9811 72.766 -12.1775 82.8694C5.22202 89.9568 20.9556 100.965 39.7435 105.64C60.9376 110.918 78.8925 103.378 100.087 103.302C118.041 103.227 131.924 108.279 148.028 113.783C159.689 117.779 169.037 121.021 181.716 117.553C202.263 111.973 217.256 95.3855 237.339 88.0719C294.351 67.2619 361.728 82.2662 420.682 88.3735" stroke="url(#paint14_linear_1166_2421)" stroke-width="0.5" stroke-miterlimit="10" stroke-linecap="round" stroke-linejoin="round"/>
<path d="M-80.0173 72.7658C-51.8818 64.095 -30.1324 63.718 -3.29267 75.7064C13.0888 83.0954 27.9895 93.7266 46.3146 97.9489C68.6193 103.076 88.8879 93.5758 111.193 92.9726C125.446 92.5956 138.032 95.1592 151.36 98.7783C187.269 108.429 206.057 88.9765 239.653 80.5319C302.218 64.7736 371.446 78.1191 435.213 81.2105" stroke="url(#paint15_linear_1166_2421)" stroke-width="0.5" stroke-miterlimit="10" stroke-linecap="round" stroke-linejoin="round"/>
<path d="M-72.5206 65.9799C-43.5522 57.6107 -21.0623 56.8567 5.86993 69.976C21.6961 77.6666 35.7638 88.8256 53.8112 93.1233C76.2085 98.552 96.2921 88.4486 118.227 85.6589C130.999 84.0755 142.66 84.6033 155.247 86.4128C188.195 91.0875 210.777 78.1944 242.893 73.0673C309.437 62.4362 378.387 72.8411 445.579 70.353" stroke="url(#paint16_linear_1166_2421)" stroke-width="0.5" stroke-miterlimit="10" stroke-linecap="round" stroke-linejoin="round"/>
<path d="M-63.5432 60.4001C-33.8344 52.3325 -10.6042 51.2015 16.4207 65.4518C31.599 73.4441 44.8338 85.1308 62.511 89.5793C94.1633 97.5715 126.649 75.1782 159.412 75.329C189.12 75.4798 215.497 68.9955 245.021 66.2058C313.694 59.6462 383.385 67.1106 451.595 56.7056" stroke="url(#paint17_linear_1166_2421)" stroke-width="0.5" stroke-miterlimit="10" stroke-linecap="round" stroke-linejoin="round"/>
<path d="M-55.769 54.896C-27.3559 47.6578 -2.92245 45.0943 23.0843 58.8922C38.3552 67.0352 51.1272 80.0791 68.7119 85.1308C102.123 94.7818 131.924 69.2217 163.762 64.3962C191.249 60.1739 222.716 60.8525 250.482 59.5708C317.581 56.5548 389.123 61.0787 452.983 41.5505" stroke="url(#paint18_linear_1166_2421)" stroke-width="0.5" stroke-miterlimit="10" stroke-linecap="round" stroke-linejoin="round"/>
<path d="M-51.9744 48.261C-22.7283 41.0982 3.09336 37.9314 29.6554 52.4833C44.6487 60.7017 57.0505 74.1226 74.45 79.0989C109.804 89.2023 137.385 61.0787 167.926 52.4833C175.701 50.2968 182.364 50.7491 190.601 51.3523C211.61 52.8603 231.971 53.6143 253.073 53.6143C317.118 53.4635 393.658 55.3484 449.558 26.3201" stroke="url(#paint19_linear_1166_2421)" stroke-width="0.5" stroke-miterlimit="10" stroke-linecap="round" stroke-linejoin="round"/>
<path d="M-54.936 39.1379C-22.5432 31.2965 4.94439 28.0544 33.9128 44.642C48.3507 52.9358 60.5674 65.3766 78.152 69.3727C115.45 77.8927 141.364 48.4873 171.906 38.1577C179.68 35.5188 186.159 36.6498 194.211 38.1577C214.294 41.8523 232.99 46.2254 253.721 47.3563C313.694 50.5231 396.99 49.9199 441.044 11.7683" stroke="url(#paint20_linear_1166_2421)" stroke-width="0.5" stroke-miterlimit="10" stroke-linecap="round" stroke-linejoin="round"/>
<path d="M420.22 9.80811C440.859 29.5625 445.301 60.1742 418.554 78.4206C401.154 90.3336 356.915 95.6868 368.206 121.021C372.278 130.219 381.719 137.231 384.865 146.882C387.549 155.252 385.421 163.998 384.403 172.518C380.423 203.054 398.655 224.769 420.405 248.821" stroke="url(#paint21_linear_1166_2421)" stroke-width="0.5" stroke-miterlimit="10" stroke-linecap="round" stroke-linejoin="round"/>
<path d="M409.299 18.8557C425.958 38.0823 423.274 62.9638 399.211 77.591C379.59 89.504 339.238 95.9882 351.732 122.755C355.434 130.596 362.561 137.156 365.615 145.299C369.224 155.025 367.558 164.148 366.448 174.026C363.394 202.828 383.014 221.15 404.671 242.94" stroke="url(#paint22_linear_1166_2421)" stroke-width="0.5" stroke-miterlimit="10" stroke-linecap="round" stroke-linejoin="round"/>
<path d="M395.046 26.3201C411.15 44.4157 396.712 66.3566 376.999 77.214C355.712 88.9007 324.337 96.2144 336.554 122.755C341.089 132.632 350.344 140.096 352.565 151.029C354.046 158.72 352.102 166.561 351.177 174.252C348.215 200.792 370.983 217.455 391.437 236.38" stroke="url(#paint23_linear_1166_2421)" stroke-width="0.5" stroke-miterlimit="10" stroke-linecap="round" stroke-linejoin="round"/>
<path d="M378.294 32.3518C387.549 47.6577 376.628 64.8485 360.895 73.8209C345.901 82.2655 327.947 84.2259 320.265 100.437C316.563 108.353 318.969 114.159 323.134 121.623C328.224 130.822 336.831 137.457 339.423 147.711C341.829 157.287 338.497 166.486 338.035 176.061C336.831 198.681 362.653 214.59 380.145 229.745" stroke="url(#paint24_linear_1166_2421)" stroke-width="0.5" stroke-miterlimit="10" stroke-linecap="round" stroke-linejoin="round"/>
<path d="M359.507 36.9514C370.613 77.5157 279.82 80.3055 310.917 119.663C317.766 128.334 326.929 135.045 329.52 145.676C331.741 154.799 328.039 163.47 327.206 172.442C325.17 194.609 352.38 209.237 369.595 223.713" stroke="url(#paint25_linear_1166_2421)" stroke-width="0.5" stroke-miterlimit="10" stroke-linecap="round" stroke-linejoin="round"/>
<path d="M339.515 40.2688C338.035 55.9517 330.816 64.6225 316.1 73.8965C296.294 86.4126 279.635 98.9287 299.348 117.477C306.382 124.036 315.36 129.691 319.154 138.211C324.059 149.295 318.044 159.474 317.396 170.482C316.193 191.443 343.032 205.09 359.414 218.812" stroke="url(#paint26_linear_1166_2421)" stroke-width="0.5" stroke-miterlimit="10" stroke-linecap="round" stroke-linejoin="round"/>
<path d="M318.969 42.1536C312.676 55.4991 309.344 64.0191 296.387 73.8209C277.692 87.845 266.678 100.21 288.798 115.441C296.757 120.945 306.752 125.62 311.01 133.838C316.933 145.072 309.807 155.779 308.696 167.013C306.567 188.351 332.111 201.244 348.863 215.645" stroke="url(#paint27_linear_1166_2421)" stroke-width="0.5" stroke-miterlimit="10" stroke-linecap="round" stroke-linejoin="round"/>
<path d="M298.515 42.908C290.186 53.0113 288.52 64.6227 278.062 73.8213C259.366 90.2581 253.536 101.342 278.895 114.084C289.908 119.588 302.865 123.509 305.92 135.12C308.604 145.374 301.014 156.156 299.811 166.109C297.22 186.617 321.838 200.641 337.294 214.892" stroke="url(#paint28_linear_1166_2421)" stroke-width="0.5" stroke-miterlimit="10" stroke-linecap="round" stroke-linejoin="round"/>
<path d="M278.895 42.3804C268.529 51.956 265.938 65.9801 258.163 76.9882C244.836 95.8378 242.337 105.564 269.084 113.783C278.062 116.497 290.834 119.061 296.202 126.374C304.161 137.156 294.906 151.18 291.667 161.962C284.54 186.014 305.734 198.53 323.689 216.852" stroke="url(#paint29_linear_1166_2421)" stroke-width="0.5" stroke-miterlimit="10" stroke-linecap="round" stroke-linejoin="round"/>
<path d="M260.755 40.7969C247.427 51.6542 246.224 67.0355 240.023 80.6826C236.691 88.0717 226.881 96.9687 232.897 105.263C237.987 112.275 251.037 113.632 259.644 115.14C268.529 116.648 282.967 117.628 288.89 124.489C298.053 134.969 286.299 151.331 282.412 161.811C272.694 188.276 288.89 200.114 307.678 222.658" stroke="url(#paint30_linear_1166_2421)" stroke-width="0.5" stroke-miterlimit="10" stroke-linecap="round" stroke-linejoin="round"/>
<path d="M244.743 38.0825C229.565 52.2574 228.547 64.8489 223.734 82.3414C221.143 91.7662 211.425 104.131 220.773 112.878C226.789 118.533 241.967 118.005 249.834 118.457C260.199 119.06 275.193 118.231 281.579 126.223C289.816 136.477 276.026 154.271 271.491 164.299C268.159 171.688 263.531 179.907 263.624 188.05C263.809 203.205 279.82 220.094 288.242 232.46" stroke="url(#paint31_linear_1166_2421)" stroke-width="0.5" stroke-miterlimit="10" stroke-linecap="round" stroke-linejoin="round"/>
<path d="M231.601 34.3879C211.24 53.1621 210.87 69.222 206.52 92.7463C205.224 99.4567 198.561 111.596 204.021 118.156C211.333 126.977 229.102 124.715 239.931 124.338C249.186 124.037 268.159 121.021 274.082 129.39C279.265 136.704 264.827 158.041 262.143 163.395C256.312 174.704 247.427 186.994 246.502 199.51C245.391 215.721 257.33 232.61 264.827 246.861" stroke="url(#paint32_linear_1166_2421)" stroke-width="0.5" stroke-miterlimit="10" stroke-linecap="round" stroke-linejoin="round"/>
<path d="M214.664 28.1296C198.561 51.5031 197.543 72.3885 194.211 98.3255C193.378 104.885 187.084 118.08 192.637 124.338C199.856 132.481 217.071 130.068 227.251 129.691C236.136 129.39 254.739 126.525 260.57 134.441C265.845 141.529 252.795 161.886 250.204 167.164C244.466 178.7 235.303 191.066 234.008 203.657C232.249 220.622 244.373 237.285 252.703 251.987" stroke="url(#paint33_linear_1166_2421)" stroke-width="0.5" stroke-miterlimit="10" stroke-linecap="round" stroke-linejoin="round"/>
<path d="M201.985 23.6057C189.398 49.6181 186.899 73.9718 183.938 101.492C183.197 108.052 177.367 121.699 182.92 127.957C189.861 135.798 206.242 133.914 216.238 133.914C225.215 133.914 242.892 131.802 248.631 139.719C253.999 147.033 242.245 165.355 239.283 171.01C233.452 182.168 223.364 193.931 221.236 206.145C218.274 223.11 230.306 238.868 239.005 253.42" stroke="url(#paint34_linear_1166_2421)" stroke-width="0.5" stroke-miterlimit="10" stroke-linecap="round" stroke-linejoin="round"/>
<path d="M192.545 20.5898C182.734 47.8087 178.292 74.4243 174.868 102.548C174.035 109.258 168.574 122.755 173.942 129.163C180.606 137.08 195.692 135.874 205.78 136.779C215.22 137.608 231.601 136.402 237.154 144.696C242.522 152.537 232.249 168.22 228.547 174.553C222.439 185.034 211.148 195.514 207.908 206.899C203.188 223.261 214.942 237.737 223.734 251.61" stroke="url(#paint35_linear_1166_2421)" stroke-width="0.5" stroke-miterlimit="10" stroke-linecap="round" stroke-linejoin="round"/>
<path d="M185.603 19.1572C177.922 46.6776 171.073 74.1226 166.908 102.171C163.021 127.882 164.317 133.16 196.154 138.739C205.965 140.473 221.05 140.85 226.418 149.446C231.601 157.89 223.087 170.783 218.366 177.795C211.795 187.446 199.116 196.117 194.581 206.522C187.825 221.828 199.116 234.646 208.001 247.69" stroke="url(#paint36_linear_1166_2421)" stroke-width="0.5" stroke-miterlimit="10" stroke-linecap="round" stroke-linejoin="round"/>
<path d="M180.05 19.0818C174.127 45.6974 165.242 71.8607 159.597 98.4763C157.653 107.599 152.193 120.493 159.227 128.937C164.872 135.798 177.459 137.382 186.251 139.719C218.089 148.239 225.03 163.62 201.985 186.466C195.784 192.649 185.696 197.55 180.883 204.411C171.073 218.737 181.439 229.443 190.879 242.336" stroke="url(#paint37_linear_1166_2421)" stroke-width="0.5" stroke-miterlimit="10" stroke-linecap="round" stroke-linejoin="round"/>
<path d="M175.145 20.3635C170.425 46.753 159.412 70.7296 152.1 96.5913C145.159 120.945 149.139 129.314 176.163 140.021C203.373 150.727 216.515 167.39 190.509 187.673C183.475 193.177 172.554 196.494 166.631 202.601C154.414 215.268 164.132 224.165 173.85 236.455" stroke="url(#paint38_linear_1166_2421)" stroke-width="0.5" stroke-miterlimit="10" stroke-linecap="round" stroke-linejoin="round"/>
<path d="M169.87 22.7769C166.168 48.5631 154.414 68.1667 144.604 92.2188C134.516 117.1 141.179 125.771 165.15 139.267C186.066 151.029 207.26 168.145 180.328 186.467C172.091 192.046 160.892 194.082 152.841 199.586C137.107 210.368 146.084 218.134 156.635 230.424" stroke="url(#paint39_linear_1166_2421)" stroke-width="0.5" stroke-miterlimit="10" stroke-linecap="round" stroke-linejoin="round"/>
<path d="M163.391 26.3958C161.725 42.7572 159.041 56.0273 149.601 70.5792C145.159 77.365 139.328 83.5477 135.534 90.6352C123.224 113.481 132.664 123.584 153.118 138.061C170.333 150.275 194.674 170.407 167.186 186.089C158.209 191.217 146.732 192.272 137.847 197.173C120.633 206.598 128.592 213.384 140.069 225.447" stroke="url(#paint40_linear_1166_2421)" stroke-width="0.5" stroke-miterlimit="10" stroke-linecap="round" stroke-linejoin="round"/>
<path d="M154.784 31.0703C153.859 47.2056 152.285 59.4201 140.994 72.841C136.089 78.7221 129.24 83.5476 124.89 89.8056C110.822 110.314 122.299 121.624 139.328 136.251C154.044 148.767 178.662 170.406 152.563 184.506C143.308 189.558 131.831 190.462 122.114 194.685C103.141 202.979 112.303 210.82 123.872 222.13" stroke="url(#paint41_linear_1166_2421)" stroke-width="0.5" stroke-miterlimit="10" stroke-linecap="round" stroke-linejoin="round"/>
<path d="M143.123 36.6499C143.123 52.4082 142.845 64.0195 129.888 76.1587C124.52 81.2103 116.931 84.6033 112.211 90.1827C96.9399 107.901 109.619 120.191 123.594 134.065C136.274 146.505 159.874 168.371 136.459 181.792C127.296 186.994 115.543 188.05 106.01 192.498C86.4816 201.622 96.4771 209.84 108.971 221.225" stroke="url(#paint42_linear_1166_2421)" stroke-width="0.5" stroke-miterlimit="10" stroke-linecap="round" stroke-linejoin="round"/>
<path d="M127.482 43.1343C128.592 57.6862 130.073 69.5237 116.561 80.3057C110.175 85.3574 101.567 87.6947 95.8292 93.5004C82.0391 107.6 94.2558 119.814 105.454 131.577C118.227 144.847 138.217 165.053 116.561 178.851C108.046 184.28 96.6622 186.165 88.1475 191.518C69.8225 203.054 82.8721 212.63 95.5516 223.638" stroke="url(#paint43_linear_1166_2421)" stroke-width="0.5" stroke-miterlimit="10" stroke-linecap="round" stroke-linejoin="round"/>
<path d="M107.028 50.3723C109.249 63.567 112.859 76.3094 99.3461 86.1111C92.4048 91.0874 82.2242 91.9922 76.301 98.1749C65.1949 109.786 75.6532 119.136 84.4455 128.711C94.6261 139.795 109.619 154.648 101.197 169.125C95.3665 179.153 78.6148 183.375 70.1927 191.593C54.459 206.899 70.3778 218.284 83.9827 229.971" stroke="url(#paint44_linear_1166_2421)" stroke-width="0.5" stroke-miterlimit="10" stroke-linecap="round" stroke-linejoin="round"/>
<path d="M91.0165 54.0671C93.8856 66.5833 98.4206 78.7978 85.3709 88.298C78.6147 93.1989 68.6192 93.8021 62.696 99.9093C51.6824 111.219 62.3258 118.08 71.4883 126.45C83.8901 137.759 92.3122 151.557 84.0752 166.712C77.8743 178.097 63.714 184.959 55.7547 195.364C42.2423 212.932 56.5876 225.598 70.4703 239.246" stroke="url(#paint45_linear_1166_2421)" stroke-width="0.5" stroke-miterlimit="10" stroke-linecap="round" stroke-linejoin="round"/>
<path d="M77.5967 54.2175C81.1137 66.4321 86.1114 78.0434 73.1543 87.3174C66.3055 92.2183 56.125 92.7461 50.2017 98.778C38.7254 110.54 51.0347 116.346 60.7525 124.413C75.4681 136.553 78.2446 150.577 69.915 166.486C63.529 178.7 50.3868 187.22 42.8902 198.832C31.0437 217.38 43.2604 230.424 56.8654 245.428" stroke="url(#paint46_linear_1166_2421)" stroke-width="0.5" stroke-miterlimit="10" stroke-linecap="round" stroke-linejoin="round"/>
<path d="M65.9354 51.5786C70.1927 64.3963 75.1905 74.9521 61.4004 84.3769C54.9218 88.8254 45.7593 89.5794 39.7435 94.7819C25.5832 107.223 40.7616 114.235 51.59 122.604C71.0257 137.684 66.4907 156.684 53.5336 174.704C47.055 183.752 37.7999 191.443 31.9692 200.792C20.0302 219.642 30.0257 232.761 43.2604 248.972" stroke="url(#paint47_linear_1166_2421)" stroke-width="0.5" stroke-miterlimit="10" stroke-linecap="round" stroke-linejoin="round"/>
<path d="M55.4771 46.9797C60.1972 59.9483 65.195 69.8254 51.2198 79.3256C44.371 83.9249 34.9309 84.7543 28.6374 90.183C12.9038 103.679 32.2469 112.275 43.6306 121.172C65.195 138.212 57.6058 158.419 42.8902 177.72C36.134 186.617 27.064 194.384 21.0482 203.733C9.57194 221.678 17.7164 234.345 29.4704 250.555" stroke="url(#paint48_linear_1166_2421)" stroke-width="0.5" stroke-miterlimit="10" stroke-linecap="round" stroke-linejoin="round"/>
<path d="M45.5741 41.0986C50.9421 54.2933 55.6622 63.5673 41.4094 73.2183C34.2829 78.0438 24.2875 78.9486 17.7164 84.6035C0.409358 99.3062 24.38 110.164 36.3191 119.89C60.1046 139.267 50.6644 160.454 33.1723 181.34C26.0459 189.86 16.976 197.399 10.775 206.372C-0.516148 222.809 5.68475 234.722 15.7728 250.404" stroke="url(#paint49_linear_1166_2421)" stroke-width="0.5" stroke-miterlimit="10" stroke-linecap="round" stroke-linejoin="round"/>
<path d="M35.3936 34.614C41.3169 48.0349 45.8519 56.7811 31.4139 66.5829C23.9173 71.6346 13.5516 72.7656 6.61034 78.6467C-12.3626 94.6311 16.5133 108.052 29.0076 118.683C54.9218 140.549 44.5561 162.791 23.5471 184.958C2.07534 207.653 -14.6763 219.265 1.70514 248.745" stroke="url(#paint50_linear_1166_2421)" stroke-width="0.5" stroke-miterlimit="10" stroke-linecap="round" stroke-linejoin="round"/>
<path d="M24.3801 28.4312C30.9512 42.0029 35.3936 50.2213 20.8631 60.3247C13.1814 65.678 2.35296 66.9597 -4.866 73.067C-25.1346 90.3332 8.36876 106.242 21.511 117.627C49.4613 141.755 38.6329 165.279 13.8293 188.426C-7.27232 208.03 -24.857 218.737 -12.2701 246.257" stroke="url(#paint51_linear_1166_2421)" stroke-width="0.5" stroke-miterlimit="10" stroke-linecap="round" stroke-linejoin="round"/>
<path d="M11.7931 23.1536C19.1046 36.6499 23.7322 44.6421 9.2017 54.9717C1.42743 60.5512 -9.67865 62.0591 -16.9902 68.468C-38.1843 86.8652 -0.608677 104.81 13.2739 116.798C43.2604 142.811 31.599 167.692 3.27845 191.292C-16.9902 208.106 -35.1301 217.832 -26.3378 243.317" stroke="url(#paint52_linear_1166_2421)" stroke-width="0.5" stroke-miterlimit="10" stroke-linecap="round" stroke-linejoin="round"/>
<path d="M-3.015 19.5344C5.12947 32.8045 10.2198 40.4952 -4.03305 51.2017C-11.8073 57.0074 -22.9134 58.7416 -30.2249 65.3012C-51.7893 84.8294 -10.7893 103.604 3.64865 115.894C35.7638 143.263 22.0663 169.2 -8.84571 192.951C-28.0037 207.729 -45.7735 216.701 -40.5906 240.15" stroke="url(#paint53_linear_1166_2421)" stroke-width="0.5" stroke-miterlimit="10" stroke-linecap="round" stroke-linejoin="round"/>
<path d="M-20.6922 18.4036C-11.6222 31.0705 -5.51388 38.6103 -19.2114 49.7693C-26.6155 55.8012 -37.7216 57.6861 -44.6629 64.3966C-65.7644 84.8295 -22.6358 103.076 -7.64255 115.215C26.8789 143.188 8.64639 169.502 -22.8209 193.252C-40.8683 206.9 -56.9721 215.797 -54.6583 237.511" stroke="url(#paint54_linear_1166_2421)" stroke-width="0.5" stroke-miterlimit="10" stroke-linecap="round" stroke-linejoin="round"/>
<path d="M-41.979 20.4392C-32.1686 32.126 -24.1167 39.6658 -36.8887 51.2772C-43.6449 57.3844 -54.3808 59.4956 -60.6742 66.2814C-80.3875 87.4684 -36.611 103.151 -21.155 114.536C44.8337 163.47 -74.927 187.974 -68.8187 235.626" stroke="url(#paint55_linear_1166_2421)" stroke-width="0.5" stroke-miterlimit="10" stroke-linecap="round" stroke-linejoin="round"/>
</g>
</g>
<defs>
<linearGradient id="paint0_linear_1166_2421" x1="184.97" y1="-0.747803" x2="184.97" y2="253.496" gradientUnits="userSpaceOnUse">
<stop offset="0.3125" stop-color="#3962D1"/>
<stop offset="0.927083" stop-color="#70BE8B" stop-opacity="0.44"/>
</linearGradient>
<linearGradient id="paint1_linear_1166_2421" x1="169.268" y1="199.798" x2="169.268" y2="234.131" gradientUnits="userSpaceOnUse">
<stop offset="0.3125" stop-color="#3962D1"/>
<stop offset="0.927083" stop-color="#70BE8B" stop-opacity="0.44"/>
</linearGradient>
<linearGradient id="paint2_linear_1166_2421" x1="164.594" y1="189.366" x2="164.594" y2="221.539" gradientUnits="userSpaceOnUse">
<stop offset="0.3125" stop-color="#3962D1"/>
<stop offset="0.927083" stop-color="#70BE8B" stop-opacity="0.44"/>
</linearGradient>
<linearGradient id="paint3_linear_1166_2421" x1="163.576" y1="182.071" x2="163.576" y2="212.329" gradientUnits="userSpaceOnUse">
<stop offset="0.3125" stop-color="#3962D1"/>
<stop offset="0.927083" stop-color="#70BE8B" stop-opacity="0.44"/>
</linearGradient>
<linearGradient id="paint4_linear_1166_2421" x1="165.751" y1="175.834" x2="165.751" y2="205.556" gradientUnits="userSpaceOnUse">
<stop offset="0.3125" stop-color="#3962D1"/>
<stop offset="0.927083" stop-color="#70BE8B" stop-opacity="0.44"/>
</linearGradient>
<linearGradient id="paint5_linear_1166_2421" x1="170.564" y1="168.55" x2="170.564" y2="197.337" gradientUnits="userSpaceOnUse">
<stop offset="0.3125" stop-color="#3962D1"/>
<stop offset="0.927083" stop-color="#70BE8B" stop-opacity="0.44"/>
</linearGradient>
<linearGradient id="paint6_linear_1166_2421" x1="177.552" y1="157.375" x2="177.552" y2="187.155" gradientUnits="userSpaceOnUse">
<stop offset="0.3125" stop-color="#3962D1"/>
<stop offset="0.927083" stop-color="#70BE8B" stop-opacity="0.44"/>
</linearGradient>
<linearGradient id="paint7_linear_1166_2421" x1="186.251" y1="139.093" x2="186.251" y2="173.98" gradientUnits="userSpaceOnUse">
<stop offset="0.3125" stop-color="#3962D1"/>
<stop offset="0.927083" stop-color="#70BE8B" stop-opacity="0.44"/>
</linearGradient>
<linearGradient id="paint8_linear_1166_2421" x1="192.545" y1="126.833" x2="192.545" y2="160.385" gradientUnits="userSpaceOnUse">
<stop offset="0.3125" stop-color="#3962D1"/>
<stop offset="0.927083" stop-color="#70BE8B" stop-opacity="0.44"/>
</linearGradient>
<linearGradient id="paint9_linear_1166_2421" x1="189.213" y1="120.037" x2="189.213" y2="150.095" gradientUnits="userSpaceOnUse">
<stop offset="0.3125" stop-color="#3962D1"/>
<stop offset="0.927083" stop-color="#70BE8B" stop-opacity="0.44"/>
</linearGradient>
<linearGradient id="paint10_linear_1166_2421" x1="180.05" y1="115.981" x2="180.05" y2="142.575" gradientUnits="userSpaceOnUse">
<stop offset="0.3125" stop-color="#3962D1"/>
<stop offset="0.927083" stop-color="#70BE8B" stop-opacity="0.44"/>
</linearGradient>
<linearGradient id="paint11_linear_1166_2421" x1="169.268" y1="109.093" x2="169.268" y2="137.912" gradientUnits="userSpaceOnUse">
<stop offset="0.3125" stop-color="#3962D1"/>
<stop offset="0.927083" stop-color="#70BE8B" stop-opacity="0.44"/>
</linearGradient>
<linearGradient id="paint12_linear_1166_2421" x1="161.124" y1="98.6023" x2="161.124" y2="134.669" gradientUnits="userSpaceOnUse">
<stop offset="0.3125" stop-color="#3962D1"/>
<stop offset="0.927083" stop-color="#70BE8B" stop-opacity="0.44"/>
</linearGradient>
<linearGradient id="paint13_linear_1166_2421" x1="159.597" y1="87.866" x2="159.597" y2="128.2" gradientUnits="userSpaceOnUse">
<stop offset="0.3125" stop-color="#3962D1"/>
<stop offset="0.927083" stop-color="#70BE8B" stop-opacity="0.44"/>
</linearGradient>
<linearGradient id="paint14_linear_1166_2421" x1="168.806" y1="75.5837" x2="168.806" y2="119.023" gradientUnits="userSpaceOnUse">
<stop offset="0.3125" stop-color="#3962D1"/>
<stop offset="0.927083" stop-color="#70BE8B" stop-opacity="0.44"/>
</linearGradient>
<linearGradient id="paint15_linear_1166_2421" x1="177.598" y1="66.459" x2="177.598" y2="101.403" gradientUnits="userSpaceOnUse">
<stop offset="0.3125" stop-color="#3962D1"/>
<stop offset="0.927083" stop-color="#70BE8B" stop-opacity="0.44"/>
</linearGradient>
<linearGradient id="paint16_linear_1166_2421" x1="186.529" y1="59.8735" x2="186.529" y2="94.7006" gradientUnits="userSpaceOnUse">
<stop offset="0.3125" stop-color="#3962D1"/>
<stop offset="0.927083" stop-color="#70BE8B" stop-opacity="0.44"/>
</linearGradient>
<linearGradient id="paint17_linear_1166_2421" x1="194.026" y1="54.4915" x2="194.026" y2="91.3036" gradientUnits="userSpaceOnUse">
<stop offset="0.3125" stop-color="#3962D1"/>
<stop offset="0.927083" stop-color="#70BE8B" stop-opacity="0.44"/>
</linearGradient>
<linearGradient id="paint18_linear_1166_2421" x1="198.607" y1="41.5505" x2="198.607" y2="87.2892" gradientUnits="userSpaceOnUse">
<stop offset="0.3125" stop-color="#3962D1"/>
<stop offset="0.927083" stop-color="#70BE8B" stop-opacity="0.44"/>
</linearGradient>
<linearGradient id="paint19_linear_1166_2421" x1="198.792" y1="26.3201" x2="198.792" y2="81.2602" gradientUnits="userSpaceOnUse">
<stop offset="0.3125" stop-color="#3962D1"/>
<stop offset="0.927083" stop-color="#70BE8B" stop-opacity="0.44"/>
</linearGradient>
<linearGradient id="paint20_linear_1166_2421" x1="193.054" y1="11.7683" x2="193.054" y2="70.9014" gradientUnits="userSpaceOnUse">
<stop offset="0.3125" stop-color="#3962D1"/>
<stop offset="0.927083" stop-color="#70BE8B" stop-opacity="0.44"/>
</linearGradient>
<linearGradient id="paint21_linear_1166_2421" x1="401.779" y1="9.80811" x2="401.779" y2="248.821" gradientUnits="userSpaceOnUse">
<stop offset="0.3125" stop-color="#3962D1"/>
<stop offset="0.927083" stop-color="#70BE8B" stop-opacity="0.44"/>
</linearGradient>
<linearGradient id="paint22_linear_1166_2421" x1="384.64" y1="18.8557" x2="384.64" y2="242.94" gradientUnits="userSpaceOnUse">
<stop offset="0.3125" stop-color="#3962D1"/>
<stop offset="0.927083" stop-color="#70BE8B" stop-opacity="0.44"/>
</linearGradient>
<linearGradient id="paint23_linear_1166_2421" x1="367.895" y1="26.3201" x2="367.895" y2="236.38" gradientUnits="userSpaceOnUse">
<stop offset="0.3125" stop-color="#3962D1"/>
<stop offset="0.927083" stop-color="#70BE8B" stop-opacity="0.44"/>
</linearGradient>
<linearGradient id="paint24_linear_1166_2421" x1="350.065" y1="32.3518" x2="350.065" y2="229.745" gradientUnits="userSpaceOnUse">
<stop offset="0.3125" stop-color="#3962D1"/>
<stop offset="0.927083" stop-color="#70BE8B" stop-opacity="0.44"/>
</linearGradient>
<linearGradient id="paint25_linear_1166_2421" x1="336.994" y1="36.9514" x2="336.994" y2="223.713" gradientUnits="userSpaceOnUse">
<stop offset="0.3125" stop-color="#3962D1"/>
<stop offset="0.927083" stop-color="#70BE8B" stop-opacity="0.44"/>
</linearGradient>
<linearGradient id="paint26_linear_1166_2421" x1="324.961" y1="40.2688" x2="324.961" y2="218.812" gradientUnits="userSpaceOnUse">
<stop offset="0.3125" stop-color="#3962D1"/>
<stop offset="0.927083" stop-color="#70BE8B" stop-opacity="0.44"/>
</linearGradient>
<linearGradient id="paint27_linear_1166_2421" x1="312.695" y1="42.1536" x2="312.695" y2="215.645" gradientUnits="userSpaceOnUse">
<stop offset="0.3125" stop-color="#3962D1"/>
<stop offset="0.927083" stop-color="#70BE8B" stop-opacity="0.44"/>
</linearGradient>
<linearGradient id="paint28_linear_1166_2421" x1="299.6" y1="42.908" x2="299.6" y2="214.892" gradientUnits="userSpaceOnUse">
<stop offset="0.3125" stop-color="#3962D1"/>
<stop offset="0.927083" stop-color="#70BE8B" stop-opacity="0.44"/>
</linearGradient>
<linearGradient id="paint29_linear_1166_2421" x1="286.058" y1="42.3804" x2="286.058" y2="216.852" gradientUnits="userSpaceOnUse">
<stop offset="0.3125" stop-color="#3962D1"/>
<stop offset="0.927083" stop-color="#70BE8B" stop-opacity="0.44"/>
</linearGradient>
<linearGradient id="paint30_linear_1166_2421" x1="269.332" y1="40.7969" x2="269.332" y2="222.658" gradientUnits="userSpaceOnUse">
<stop offset="0.3125" stop-color="#3962D1"/>
<stop offset="0.927083" stop-color="#70BE8B" stop-opacity="0.44"/>
</linearGradient>
<linearGradient id="paint31_linear_1166_2421" x1="252.519" y1="38.0825" x2="252.519" y2="232.46" gradientUnits="userSpaceOnUse">
<stop offset="0.3125" stop-color="#3962D1"/>
<stop offset="0.927083" stop-color="#70BE8B" stop-opacity="0.44"/>
</linearGradient>
<linearGradient id="paint32_linear_1166_2421" x1="238.549" y1="34.3879" x2="238.549" y2="246.861" gradientUnits="userSpaceOnUse">
<stop offset="0.3125" stop-color="#3962D1"/>
<stop offset="0.927083" stop-color="#70BE8B" stop-opacity="0.44"/>
</linearGradient>
<linearGradient id="paint33_linear_1166_2421" x1="226.092" y1="28.1296" x2="226.092" y2="251.987" gradientUnits="userSpaceOnUse">
<stop offset="0.3125" stop-color="#3962D1"/>
<stop offset="0.927083" stop-color="#70BE8B" stop-opacity="0.44"/>
</linearGradient>
<linearGradient id="paint34_linear_1166_2421" x1="215.281" y1="23.6057" x2="215.281" y2="253.42" gradientUnits="userSpaceOnUse">
<stop offset="0.3125" stop-color="#3962D1"/>
<stop offset="0.927083" stop-color="#70BE8B" stop-opacity="0.44"/>
</linearGradient>
<linearGradient id="paint35_linear_1166_2421" x1="205.142" y1="20.5898" x2="205.142" y2="251.61" gradientUnits="userSpaceOnUse">
<stop offset="0.3125" stop-color="#3962D1"/>
<stop offset="0.927083" stop-color="#70BE8B" stop-opacity="0.44"/>
</linearGradient>
<linearGradient id="paint36_linear_1166_2421" x1="196.696" y1="19.1572" x2="196.696" y2="247.69" gradientUnits="userSpaceOnUse">
<stop offset="0.3125" stop-color="#3962D1"/>
<stop offset="0.927083" stop-color="#70BE8B" stop-opacity="0.44"/>
</linearGradient>
<linearGradient id="paint37_linear_1166_2421" x1="185.656" y1="19.0818" x2="185.656" y2="242.336" gradientUnits="userSpaceOnUse">
<stop offset="0.3125" stop-color="#3962D1"/>
<stop offset="0.927083" stop-color="#70BE8B" stop-opacity="0.44"/>
</linearGradient>
<linearGradient id="paint38_linear_1166_2421" x1="176.839" y1="20.3635" x2="176.839" y2="236.455" gradientUnits="userSpaceOnUse">
<stop offset="0.3125" stop-color="#3962D1"/>
<stop offset="0.927083" stop-color="#70BE8B" stop-opacity="0.44"/>
</linearGradient>
<linearGradient id="paint39_linear_1166_2421" x1="166.537" y1="22.7769" x2="166.537" y2="230.424" gradientUnits="userSpaceOnUse">
<stop offset="0.3125" stop-color="#3962D1"/>
<stop offset="0.927083" stop-color="#70BE8B" stop-opacity="0.44"/>
</linearGradient>
<linearGradient id="paint40_linear_1166_2421" x1="153.731" y1="26.3958" x2="153.731" y2="225.447" gradientUnits="userSpaceOnUse">
<stop offset="0.3125" stop-color="#3962D1"/>
<stop offset="0.927083" stop-color="#70BE8B" stop-opacity="0.44"/>
</linearGradient>
<linearGradient id="paint41_linear_1166_2421" x1="137.607" y1="31.0703" x2="137.607" y2="222.13" gradientUnits="userSpaceOnUse">
<stop offset="0.3125" stop-color="#3962D1"/>
<stop offset="0.927083" stop-color="#70BE8B" stop-opacity="0.44"/>
</linearGradient>
<linearGradient id="paint42_linear_1166_2421" x1="120.711" y1="36.6499" x2="120.711" y2="221.225" gradientUnits="userSpaceOnUse">
<stop offset="0.3125" stop-color="#3962D1"/>
<stop offset="0.927083" stop-color="#70BE8B" stop-opacity="0.44"/>
</linearGradient>
<linearGradient id="paint43_linear_1166_2421" x1="103.62" y1="43.1343" x2="103.62" y2="223.638" gradientUnits="userSpaceOnUse">
<stop offset="0.3125" stop-color="#3962D1"/>
<stop offset="0.927083" stop-color="#70BE8B" stop-opacity="0.44"/>
</linearGradient>
<linearGradient id="paint44_linear_1166_2421" x1="86.4258" y1="50.3723" x2="86.4258" y2="229.971" gradientUnits="userSpaceOnUse">
<stop offset="0.3125" stop-color="#3962D1"/>
<stop offset="0.927083" stop-color="#70BE8B" stop-opacity="0.44"/>
</linearGradient>
<linearGradient id="paint45_linear_1166_2421" x1="72.2523" y1="54.0671" x2="72.2523" y2="239.246" gradientUnits="userSpaceOnUse">
<stop offset="0.3125" stop-color="#3962D1"/>
<stop offset="0.927083" stop-color="#70BE8B" stop-opacity="0.44"/>
</linearGradient>
<linearGradient id="paint46_linear_1166_2421" x1="59.8276" y1="54.2175" x2="59.8276" y2="245.428" gradientUnits="userSpaceOnUse">
<stop offset="0.3125" stop-color="#3962D1"/>
<stop offset="0.927083" stop-color="#70BE8B" stop-opacity="0.44"/>
</linearGradient>
<linearGradient id="paint47_linear_1166_2421" x1="48.5343" y1="51.5786" x2="48.5343" y2="248.972" gradientUnits="userSpaceOnUse">
<stop offset="0.3125" stop-color="#3962D1"/>
<stop offset="0.927083" stop-color="#70BE8B" stop-opacity="0.44"/>
</linearGradient>
<linearGradient id="paint48_linear_1166_2421" x1="37.9397" y1="46.9797" x2="37.9397" y2="250.555" gradientUnits="userSpaceOnUse">
<stop offset="0.3125" stop-color="#3962D1"/>
<stop offset="0.927083" stop-color="#70BE8B" stop-opacity="0.44"/>
</linearGradient>
<linearGradient id="paint49_linear_1166_2421" x1="27.7925" y1="41.0986" x2="27.7925" y2="250.404" gradientUnits="userSpaceOnUse">
<stop offset="0.3125" stop-color="#3962D1"/>
<stop offset="0.927083" stop-color="#70BE8B" stop-opacity="0.44"/>
</linearGradient>
<linearGradient id="paint50_linear_1166_2421" x1="19.7367" y1="34.614" x2="19.7367" y2="248.745" gradientUnits="userSpaceOnUse">
<stop offset="0.3125" stop-color="#3962D1"/>
<stop offset="0.927083" stop-color="#70BE8B" stop-opacity="0.44"/>
</linearGradient>
<linearGradient id="paint51_linear_1166_2421" x1="10.7772" y1="28.4312" x2="10.7772" y2="246.257" gradientUnits="userSpaceOnUse">
<stop offset="0.3125" stop-color="#3962D1"/>
<stop offset="0.927083" stop-color="#70BE8B" stop-opacity="0.44"/>
</linearGradient>
<linearGradient id="paint52_linear_1166_2421" x1="1.13186" y1="23.1536" x2="1.13186" y2="243.317" gradientUnits="userSpaceOnUse">
<stop offset="0.3125" stop-color="#3962D1"/>
<stop offset="0.927083" stop-color="#70BE8B" stop-opacity="0.44"/>
</linearGradient>
<linearGradient id="paint53_linear_1166_2421" x1="-9.73756" y1="19.5344" x2="-9.73756" y2="240.15" gradientUnits="userSpaceOnUse">
<stop offset="0.3125" stop-color="#3962D1"/>
<stop offset="0.927083" stop-color="#70BE8B" stop-opacity="0.44"/>
</linearGradient>
<linearGradient id="paint54_linear_1166_2421" x1="-21.9264" y1="18.4036" x2="-21.9264" y2="237.511" gradientUnits="userSpaceOnUse">
<stop offset="0.3125" stop-color="#3962D1"/>
<stop offset="0.927083" stop-color="#70BE8B" stop-opacity="0.44"/>
</linearGradient>
<linearGradient id="paint55_linear_1166_2421" x1="-35.1491" y1="20.4392" x2="-35.1491" y2="235.626" gradientUnits="userSpaceOnUse">
<stop offset="0.3125" stop-color="#3962D1"/>
<stop offset="0.927083" stop-color="#70BE8B" stop-opacity="0.44"/>
</linearGradient>
<clipPath id="clip0_1166_2421">
<rect width="393" height="252" fill="white"/>
</clipPath>
</defs>
</svg>
