<svg width="1440" height="684" viewBox="0 0 1440 684" fill="none" xmlns="http://www.w3.org/2000/svg">
<path d="M-246.16 71.6452C-117.273 48.1102 -8.2923 38.4915 107.773 84.5383C160.408 105.413 204.945 136.52 268.376 145.525C352.726 157.395 446.523 124.241 517.04 100.911C555.841 88.0174 595.992 63.8684 638.167 55.273C669.882 48.7241 696.2 54.659 726.566 61.8219C810.241 81.2639 880.42 105.618 970.844 112.576C1161.14 127.106 1459.74 115.85 1556.91 -2.02979C1646.99 53.6358 1697.27 150.846 1595.37 215.107C1544.42 247.237 1366.95 256.651 1409.13 318.252C1423.63 339.331 1458.72 353.861 1474.58 374.531C1493.14 398.476 1485.72 422.215 1480.66 447.592C1461.09 540.914 1516.08 610.087 1600.77 688.059C1493.81 669.027 1425.66 635.054 1332.87 602.105C1262.02 576.933 1202.97 580.821 1129.76 602.105C1043.05 627.277 971.856 687.65 870.636 687.241C788.647 687.036 706.996 660.841 633.443 641.603C559.89 622.57 464.406 591.668 380.73 601.491C303.803 610.496 258.254 657.157 182.339 671.892C24.0981 702.999 -144.939 642.831 -303.18 637.51C-301.156 580.412 -267.753 546.44 -207.696 504.076C-122.334 443.909 9.58994 374.531 -136.167 308.633C-196.899 281.21 -352.103 251.126 -283.611 190.344C-266.066 174.995 -231.651 169.06 -212.757 154.939C-168.557 121.376 -206.009 101.32 -246.16 71.6452Z" stroke="url(#paint0_linear_129_2757)" stroke-width="0.5" stroke-miterlimit="10" stroke-linecap="round" stroke-linejoin="round"/>
<path d="M-301.831 611.11C-155.399 618.682 2.84199 656.543 145.562 619.501C217.091 601.082 258.929 569.361 340.58 567.109C426.617 564.654 511.979 585.119 592.28 601.286C664.147 615.817 741.411 634.44 818.339 633.622C923.27 632.394 985.689 579.593 1076.45 554.83C1148.65 534.979 1204.66 539.686 1272.48 562.198C1362.57 592.282 1430.05 616.226 1535.99 625.845" stroke="url(#paint1_linear_129_2757)" stroke-width="0.5" stroke-miterlimit="10" stroke-linecap="round" stroke-linejoin="round"/>
<path d="M-296.77 589.213C-154.724 599.036 -13.6906 613.976 123.631 581.436C197.185 564.041 248.469 541.529 330.12 542.757C416.832 543.985 500.845 560.152 583.845 573.659C654.362 585.12 728.253 597.808 802.143 594.124C894.929 589.622 949.25 548.282 1030.9 525.77C1100.07 506.738 1157.09 512.263 1223.22 531.705C1318.7 559.743 1387.87 574.273 1496.85 574.069" stroke="url(#paint2_linear_129_2757)" stroke-width="0.5" stroke-miterlimit="10" stroke-linecap="round" stroke-linejoin="round"/>
<path d="M-285.298 569.156C-133.468 582.663 -6.26792 577.956 138.477 547.463C216.416 531.09 273.437 520.653 356.437 525.974C438.763 531.295 519.064 543.983 600.04 554.011C665.496 561.993 733.314 569.156 800.456 563.835C885.144 557.081 936.091 521.062 1012.68 502.644C1079.49 486.681 1132.12 495.481 1195.55 511.239C1294.75 536.207 1370.33 540.504 1477.96 530.681" stroke="url(#paint3_linear_129_2757)" stroke-width="0.5" stroke-miterlimit="10" stroke-linecap="round" stroke-linejoin="round"/>
<path d="M-265.391 548.078C-175.98 558.106 -89.6056 563.222 -0.194476 549.919C57.8384 541.119 112.835 526.18 170.53 516.356C327.759 489.547 475.877 526.384 633.106 537.436C693.163 541.733 753.895 543.166 813.615 536.003C887.843 527.203 938.791 496.3 1008.97 482.384C1072.74 469.9 1123.01 482.589 1182.73 495.482C1285.98 517.994 1368.98 511.854 1473.91 494.049" stroke="url(#paint4_linear_129_2757)" stroke-width="0.5" stroke-miterlimit="10" stroke-linecap="round" stroke-linejoin="round"/>
<path d="M-234.35 523.314C-140.553 536.207 -55.1909 542.756 36.9194 523.723C97.6515 511.035 152.985 491.797 217.091 484.634C369.596 467.239 520.077 519.425 674.606 519.63C728.928 519.63 782.237 515.128 834.534 505.918C900.327 494.458 957.685 465.397 1024.49 458.643C1083.54 452.709 1129.76 471.127 1183.41 481.769C1286.99 502.234 1378.09 485.862 1477.96 462.532" stroke="url(#paint5_linear_129_2757)" stroke-width="0.5" stroke-miterlimit="10" stroke-linecap="round" stroke-linejoin="round"/>
<path d="M-190.151 492.003C-97.3658 507.556 -13.3531 517.789 77.4076 493.435C132.066 478.7 179.64 457.212 240.709 452.095C334.844 444.318 418.519 472.765 507.256 486.477C575.748 496.914 646.602 502.03 716.444 494.868C772.452 489.342 824.075 475.63 876.034 462.328C927.319 449.23 989.063 424.876 1046.76 427.332C1094.33 429.379 1133.81 449.435 1176.66 460.281C1284.29 487.5 1384.83 461.1 1484.7 432.653" stroke="url(#paint6_linear_129_2757)" stroke-width="0.5" stroke-miterlimit="10" stroke-linecap="round" stroke-linejoin="round"/>
<path d="M-130.094 451.481C-44.3941 469.49 37.5942 485.658 120.257 455.164C165.469 438.383 199.546 415.462 255.892 413.62C350.702 410.345 440.788 451.89 531.886 464.578C605.102 474.811 679.33 475.22 750.521 459.257C841.619 438.587 965.783 356.726 1068.69 382.513C1111.88 393.359 1141.91 419.555 1182.39 433.266C1285.64 468.262 1393.94 433.471 1488.08 403.592" stroke="url(#paint7_linear_129_2757)" stroke-width="0.5" stroke-miterlimit="10" stroke-linecap="round" stroke-linejoin="round"/>
<path d="M-72.0608 396.838C1.49248 410.754 71.6717 424.057 146.237 406.866C186.388 397.452 215.404 384.354 260.279 385.787C346.99 388.652 432.353 419.963 518.727 429.173C593.63 437.154 668.195 438.792 741.749 425.489C837.57 408.298 967.807 329.507 1068.69 346.698C1111.88 354.065 1144.6 378.624 1183.41 391.108C1283.61 423.033 1378.42 401.954 1475.93 375.759" stroke="url(#paint8_linear_129_2757)" stroke-width="0.5" stroke-miterlimit="10" stroke-linecap="round" stroke-linejoin="round"/>
<path d="M-70.374 354.885C-3.23136 364.299 62.8991 373.099 131.729 367.778C172.554 364.504 206.632 359.387 248.132 363.276C405.023 377.806 547.069 421.602 710.708 402.774C765.704 396.43 816.651 382.513 866.587 367.574C913.485 353.657 970.506 326.643 1024.49 325.824C1076.45 325.21 1123.69 349.564 1169.57 361.025C1267.08 385.378 1353.12 372.485 1449.95 351.201" stroke="url(#paint9_linear_129_2757)" stroke-width="0.5" stroke-miterlimit="10" stroke-linecap="round" stroke-linejoin="round"/>
<path d="M-107.825 322.345C-0.194724 329.917 111.147 329.917 217.428 343.424C363.86 362.048 515.016 391.518 666.508 386.401C719.818 384.559 768.741 375.964 817.664 363.276C870.636 349.359 922.258 321.936 978.604 316.001C1031.24 310.475 1082.19 325.415 1131.45 334.01C1233.68 352.02 1317.35 346.903 1420.6 328.689" stroke="url(#paint10_linear_129_2757)" stroke-width="0.5" stroke-miterlimit="10" stroke-linecap="round" stroke-linejoin="round"/>
<path d="M-167.208 296.149C98.6637 294.307 354.076 355.908 617.923 373.099C666.508 376.169 711.383 373.713 757.269 363.48C817.326 350.178 862.538 320.708 921.921 308.633C980.628 296.559 1040.69 304.54 1099.73 310.475C1205.67 321.117 1294.75 321.526 1401.37 307.61" stroke="url(#paint11_linear_129_2757)" stroke-width="0.5" stroke-miterlimit="10" stroke-linecap="round" stroke-linejoin="round"/>
<path d="M-230.976 272.818C-145.952 265.655 -68.3495 264.018 13.9762 280.39C69.3099 291.441 121.607 307.814 178.628 315.795C249.482 325.618 323.71 321.935 395.239 329.302C456.983 335.442 514.341 348.539 574.398 358.363C615.898 365.116 654.025 368.8 696.2 361.637C766.042 349.767 809.566 314.362 874.685 297.172C937.104 280.595 1006.27 281.209 1072.74 284.278C1186.1 289.599 1291.71 295.125 1405.75 286.325" stroke="url(#paint12_linear_129_2757)" stroke-width="0.5" stroke-miterlimit="10" stroke-linecap="round" stroke-linejoin="round"/>
<path d="M-281.924 249.489C-186.44 233.936 -105.126 233.526 -13.3533 257.061C39.956 270.773 89.2164 290.624 145.9 300.038C225.526 313.341 305.828 299.629 386.804 306.792C443.487 311.908 493.085 325.211 545.719 338.309C682.029 371.872 735.001 309.862 851.404 276.503C1030.56 225.136 1255.61 265.657 1445.57 264.02" stroke="url(#paint13_linear_129_2757)" stroke-width="0.5" stroke-miterlimit="10" stroke-linecap="round" stroke-linejoin="round"/>
<path d="M-302.843 222.68C-210.395 200.373 -134.817 197.508 -44.3941 224.931C19.0372 244.168 76.3952 274.048 144.888 286.736C222.152 301.062 287.608 280.597 364.873 280.392C430.328 280.187 480.938 293.899 539.646 308.839C582.158 319.685 616.236 328.485 662.46 319.071C737.362 303.927 792.021 258.903 865.237 239.052C1073.08 182.568 1318.7 223.294 1533.63 239.871" stroke="url(#paint14_linear_129_2757)" stroke-width="0.5" stroke-miterlimit="10" stroke-linecap="round" stroke-linejoin="round"/>
<path d="M-291.708 197.507C-189.139 173.972 -109.85 172.949 -12.0036 205.489C47.7163 225.545 102.038 254.401 168.843 265.861C250.156 279.778 324.047 253.991 405.361 252.354C457.32 251.331 503.207 258.289 551.792 268.112C682.704 294.308 751.196 241.508 873.672 218.586C1101.75 175.814 1354.13 212.038 1586.6 220.428" stroke="url(#paint15_linear_129_2757)" stroke-width="0.5" stroke-miterlimit="10" stroke-linecap="round" stroke-linejoin="round"/>
<path d="M-264.379 179.088C-158.773 156.372 -76.7843 154.325 21.3992 189.935C79.0947 210.809 130.38 241.098 196.173 252.763C277.823 267.498 351.039 240.075 431.003 232.502C477.565 228.205 520.077 229.637 565.963 234.549C686.078 247.237 768.404 212.242 885.481 198.325C1128.07 169.469 1379.44 197.711 1624.39 190.958" stroke="url(#paint16_linear_129_2757)" stroke-width="0.5" stroke-miterlimit="10" stroke-linecap="round" stroke-linejoin="round"/>
<path d="M-231.651 163.943C-123.346 142.045 -38.6583 138.975 59.8626 177.655C115.196 199.348 163.445 231.069 227.888 243.144C343.279 264.837 461.706 204.055 581.146 204.464C689.452 204.874 785.611 187.274 893.242 179.701C1143.59 161.897 1397.66 182.157 1646.32 153.915" stroke="url(#paint17_linear_129_2757)" stroke-width="0.5" stroke-miterlimit="10" stroke-linecap="round" stroke-linejoin="round"/>
<path d="M-203.31 149.004C-99.7277 129.357 -10.654 122.399 84.1555 159.85C139.827 181.953 186.388 217.358 250.494 231.07C372.295 257.265 480.938 187.888 597.004 174.79C697.212 163.33 811.928 165.171 913.148 161.692C1157.76 153.506 1418.57 165.785 1651.38 112.78" stroke="url(#paint18_linear_129_2757)" stroke-width="0.5" stroke-miterlimit="10" stroke-linecap="round" stroke-linejoin="round"/>
<path d="M-189.476 130.994C-82.8577 111.552 11.277 102.957 108.111 142.455C162.77 164.762 207.981 201.19 271.413 214.697C400.3 242.121 500.845 165.785 612.187 142.455C640.529 136.52 664.821 137.748 694.85 139.385C771.44 143.478 845.668 145.525 922.595 145.525C1156.08 145.115 1435.11 150.232 1638.9 71.4404" stroke="url(#paint19_linear_129_2757)" stroke-width="0.5" stroke-miterlimit="10" stroke-linecap="round" stroke-linejoin="round"/>
<path d="M-200.273 106.231C-82.1828 84.9474 18.0251 76.1474 123.631 121.171C176.266 143.683 220.803 177.45 284.909 188.297C420.881 211.423 515.353 131.608 626.695 103.571C655.037 96.408 678.655 99.4778 708.009 103.571C781.225 113.599 849.38 125.469 924.957 128.538C1143.59 137.134 1447.25 135.497 1607.86 31.9424" stroke="url(#paint20_linear_129_2757)" stroke-width="0.5" stroke-miterlimit="10" stroke-linecap="round" stroke-linejoin="round"/>
<path d="M1531.94 26.6221C1607.18 80.2411 1623.38 163.33 1525.87 212.856C1462.44 245.191 1301.16 259.722 1342.32 328.485C1357.17 353.452 1391.58 372.485 1403.05 398.681C1412.84 421.397 1405.08 445.137 1401.37 468.263C1386.86 551.147 1453.33 610.087 1532.62 675.371" stroke="url(#paint21_linear_129_2757)" stroke-width="0.5" stroke-miterlimit="10" stroke-linecap="round" stroke-linejoin="round"/>
<path d="M1492.13 51.1797C1552.86 103.366 1543.07 170.902 1455.35 210.604C1383.82 242.939 1236.72 260.539 1282.26 333.191C1295.76 354.475 1321.74 372.28 1332.87 394.382C1346.03 420.782 1339.96 445.545 1335.91 472.355C1324.78 550.532 1396.31 600.263 1475.26 659.408" stroke="url(#paint22_linear_129_2757)" stroke-width="0.5" stroke-miterlimit="10" stroke-linecap="round" stroke-linejoin="round"/>
<path d="M1440.17 71.4404C1498.88 120.557 1446.24 180.111 1374.37 209.581C1296.77 241.302 1182.39 261.154 1226.93 333.191C1243.46 360.001 1277.2 380.261 1285.3 409.936C1290.7 430.811 1283.61 452.095 1280.24 472.969C1269.44 545.007 1352.44 590.235 1427.01 641.603" stroke="url(#paint23_linear_129_2757)" stroke-width="0.5" stroke-miterlimit="10" stroke-linecap="round" stroke-linejoin="round"/>
<path d="M1379.1 87.8115C1412.84 129.356 1373.02 176.017 1315.67 200.371C1261.01 223.292 1195.55 228.613 1167.55 272.613C1154.05 294.101 1162.82 309.86 1178.01 330.12C1196.56 355.088 1227.94 373.097 1237.39 400.93C1246.16 426.921 1234.02 451.889 1232.33 477.88C1227.94 539.275 1322.08 582.457 1385.85 623.592" stroke="url(#paint24_linear_129_2757)" stroke-width="0.5" stroke-miterlimit="10" stroke-linecap="round" stroke-linejoin="round"/>
<path d="M1310.61 100.296C1351.09 210.4 1020.1 217.972 1133.47 324.8C1158.44 348.335 1191.84 366.55 1201.29 395.406C1209.39 420.169 1195.89 443.704 1192.85 468.057C1185.43 528.225 1284.63 567.928 1347.38 607.221" stroke="url(#paint25_linear_129_2757)" stroke-width="0.5" stroke-miterlimit="10" stroke-linecap="round" stroke-linejoin="round"/>
<path d="M1237.73 109.301C1232.33 151.869 1206.01 175.404 1152.37 200.576C1080.16 234.549 1019.43 268.521 1091.3 318.866C1116.94 336.67 1149.67 352.019 1163.5 375.145C1181.38 405.229 1159.45 432.857 1157.09 462.737C1152.7 519.63 1250.55 556.672 1310.27 593.919" stroke="url(#paint26_linear_129_2757)" stroke-width="0.5" stroke-miterlimit="10" stroke-linecap="round" stroke-linejoin="round"/>
<path d="M1162.82 114.417C1139.88 150.641 1127.73 173.766 1080.5 200.371C1012.34 238.437 972.193 272 1052.83 313.339C1081.85 328.279 1118.29 340.968 1133.81 363.275C1155.4 393.768 1129.42 422.829 1125.37 453.322C1117.61 511.239 1210.74 546.234 1271.8 585.323" stroke="url(#paint27_linear_129_2757)" stroke-width="0.5" stroke-miterlimit="10" stroke-linecap="round" stroke-linejoin="round"/>
<path d="M1088.26 116.464C1057.89 143.888 1051.82 175.404 1013.69 200.372C945.539 244.986 924.282 275.07 1016.73 309.657C1056.88 324.596 1104.12 335.238 1115.25 366.755C1125.04 394.587 1097.37 423.853 1092.98 450.867C1083.54 506.532 1173.28 544.598 1229.63 583.277" stroke="url(#paint28_linear_129_2757)" stroke-width="0.5" stroke-miterlimit="10" stroke-linecap="round" stroke-linejoin="round"/>
<path d="M1016.73 115.032C978.941 141.023 969.494 179.089 941.152 208.968C892.567 260.131 883.457 286.531 980.966 308.838C1013.69 316.206 1060.25 323.164 1079.82 343.015C1108.84 372.281 1075.1 410.346 1063.29 439.611C1037.31 504.896 1114.58 538.868 1180.03 588.599" stroke="url(#paint29_linear_129_2757)" stroke-width="0.5" stroke-miterlimit="10" stroke-linecap="round" stroke-linejoin="round"/>
<path d="M950.6 110.734C902.014 140.204 897.628 181.954 875.022 218.996C862.875 239.052 827.111 263.201 849.042 285.712C867.599 304.745 915.172 308.429 946.551 312.522C978.941 316.615 1031.58 319.276 1053.17 337.899C1086.57 366.346 1043.72 410.755 1029.55 439.202C994.124 511.035 1053.17 543.166 1121.66 604.357" stroke="url(#paint30_linear_129_2757)" stroke-width="0.5" stroke-miterlimit="10" stroke-linecap="round" stroke-linejoin="round"/>
<path d="M892.229 103.367C836.896 141.841 833.184 176.018 815.639 223.498C806.192 249.079 770.765 282.642 804.843 306.382C826.774 321.731 882.107 320.299 910.786 321.527C948.575 323.164 1003.23 320.913 1026.51 342.606C1056.54 370.439 1006.27 418.737 989.738 445.955C977.591 466.011 960.721 488.319 961.059 510.421C961.734 551.556 1020.1 597.398 1050.81 630.961" stroke="url(#paint31_linear_129_2757)" stroke-width="0.5" stroke-miterlimit="10" stroke-linecap="round" stroke-linejoin="round"/>
<path d="M844.319 93.3389C770.091 144.297 768.741 187.888 752.883 251.74C748.159 269.954 723.867 302.903 743.773 320.708C770.428 344.652 835.209 338.513 874.685 337.49C908.425 336.671 977.592 328.485 999.185 351.201C1018.08 371.053 965.445 428.969 955.661 443.5C934.404 474.198 902.014 507.556 898.64 541.528C894.591 585.529 938.116 631.371 965.445 670.05" stroke="url(#paint32_linear_129_2757)" stroke-width="0.5" stroke-miterlimit="10" stroke-linecap="round" stroke-linejoin="round"/>
<path d="M782.574 76.3521C723.867 139.794 720.155 196.483 708.009 266.884C704.972 284.689 682.029 320.503 702.273 337.489C728.59 359.591 791.347 353.043 828.461 352.019C860.851 351.201 928.669 343.424 949.925 364.912C969.157 384.15 921.583 439.406 912.136 453.732C891.217 485.044 857.814 518.607 853.091 552.784C846.68 598.83 890.88 644.059 921.246 683.966" stroke="url(#paint33_linear_129_2757)" stroke-width="0.5" stroke-miterlimit="10" stroke-linecap="round" stroke-linejoin="round"/>
<path d="M736.35 64.0728C690.464 134.678 681.354 200.781 670.557 275.479C667.858 293.284 646.602 330.326 666.846 347.312C692.151 368.596 751.871 363.48 788.31 363.48C821.038 363.48 885.481 357.749 906.4 379.238C925.969 399.089 883.12 448.82 872.323 464.169C851.067 494.457 814.29 526.383 806.53 559.537C795.733 605.584 839.595 648.356 871.311 687.854" stroke="url(#paint34_linear_129_2757)" stroke-width="0.5" stroke-miterlimit="10" stroke-linecap="round" stroke-linejoin="round"/>
<path d="M701.935 55.8872C666.171 129.767 649.976 202.009 637.492 278.345C634.455 296.559 614.549 333.192 634.118 350.587C658.411 372.076 713.407 368.801 750.184 371.257C784.598 373.508 844.318 370.234 864.562 392.746C884.132 414.029 846.68 456.597 833.184 473.788C810.916 502.235 769.753 530.681 757.944 561.584C740.737 605.994 783.586 645.287 815.639 682.943" stroke="url(#paint35_linear_129_2757)" stroke-width="0.5" stroke-miterlimit="10" stroke-linecap="round" stroke-linejoin="round"/>
<path d="M676.63 51.9985C648.626 126.697 623.659 201.19 608.476 277.321C594.305 347.108 599.028 361.433 715.094 376.578C750.858 381.285 805.855 382.308 825.424 405.638C844.318 428.559 813.278 463.555 796.07 482.588C772.115 508.783 725.891 532.318 709.358 560.56C684.728 602.105 725.891 636.896 758.281 672.301" stroke="url(#paint36_linear_129_2757)" stroke-width="0.5" stroke-miterlimit="10" stroke-linecap="round" stroke-linejoin="round"/>
<path d="M656.386 51.7935C634.793 124.036 602.402 195.05 581.821 267.293C574.736 292.056 554.829 327.051 580.471 349.973C601.053 368.596 646.939 372.894 678.992 379.238C795.058 402.364 820.363 444.113 736.35 506.123C713.745 522.904 676.968 536.207 659.423 554.83C623.659 593.714 661.448 622.775 695.862 657.77" stroke="url(#paint37_linear_129_2757)" stroke-width="0.5" stroke-miterlimit="10" stroke-linecap="round" stroke-linejoin="round"/>
<path d="M638.504 55.2725C621.297 126.901 581.146 191.98 554.492 262.176C529.187 328.279 543.695 350.996 642.216 380.056C741.411 409.117 789.322 454.345 694.513 509.397C668.87 524.337 629.057 533.341 607.463 549.918C562.927 584.3 598.354 608.449 633.781 641.807" stroke="url(#paint38_linear_129_2757)" stroke-width="0.5" stroke-miterlimit="10" stroke-linecap="round" stroke-linejoin="round"/>
<path d="M619.272 61.8228C605.776 131.814 562.927 185.024 527.162 250.308C490.386 317.843 514.678 341.378 602.065 378.011C678.318 409.937 755.582 456.393 657.399 506.124C627.37 521.268 586.545 526.794 557.191 541.733C499.833 570.999 532.561 592.078 571.024 625.436" stroke="url(#paint39_linear_129_2757)" stroke-width="0.5" stroke-miterlimit="10" stroke-linecap="round" stroke-linejoin="round"/>
<path d="M595.654 71.6455C589.581 116.055 579.797 152.074 545.382 191.572C529.187 209.991 507.93 226.772 494.097 246.01C449.223 308.019 483.638 335.443 558.203 374.736C620.959 407.89 709.696 462.532 609.488 505.1C576.76 519.016 534.922 521.882 502.532 535.184C439.775 560.766 468.792 579.184 510.63 611.929" stroke="url(#paint40_linear_129_2757)" stroke-width="0.5" stroke-miterlimit="10" stroke-linecap="round" stroke-linejoin="round"/>
<path d="M564.276 84.3335C560.902 128.129 555.166 161.283 514.003 197.711C496.121 213.674 471.154 226.772 455.296 243.758C404.011 299.423 445.849 330.121 507.93 369.824C561.577 403.796 651.325 462.532 556.178 500.802C522.438 514.513 480.601 516.969 445.174 528.43C376.007 550.942 409.409 572.226 451.584 602.923" stroke="url(#paint41_linear_129_2757)" stroke-width="0.5" stroke-miterlimit="10" stroke-linecap="round" stroke-linejoin="round"/>
<path d="M521.764 99.4785C521.764 142.251 520.751 173.767 473.515 206.717C453.946 220.428 426.279 229.638 409.072 244.782C353.401 292.875 399.625 326.234 450.572 363.89C496.796 397.657 582.833 457.007 497.471 493.435C464.068 507.556 421.218 510.421 386.466 522.496C315.275 547.259 351.714 569.566 397.263 600.468" stroke="url(#paint42_linear_129_2757)" stroke-width="0.5" stroke-miterlimit="10" stroke-linecap="round" stroke-linejoin="round"/>
<path d="M464.743 117.079C468.792 156.577 474.19 188.707 424.93 217.972C401.649 231.684 370.271 238.028 349.352 253.787C299.08 292.057 343.616 325.21 384.442 357.136C431.003 393.155 503.882 448.002 424.93 485.453C393.889 500.188 352.389 505.305 321.348 519.835C254.543 551.147 302.116 577.138 348.34 607.017" stroke="url(#paint43_linear_129_2757)" stroke-width="0.5" stroke-miterlimit="10" stroke-linecap="round" stroke-linejoin="round"/>
<path d="M390.178 136.725C398.275 172.539 411.434 207.125 362.173 233.73C336.868 247.237 299.754 249.693 278.161 266.474C237.673 297.991 275.799 323.368 307.852 349.359C344.966 379.443 399.625 419.759 368.921 459.053C347.665 486.271 286.596 497.732 255.892 520.039C198.534 561.584 256.567 592.486 306.165 624.207" stroke="url(#paint44_linear_129_2757)" stroke-width="0.5" stroke-miterlimit="10" stroke-linecap="round" stroke-linejoin="round"/>
<path d="M331.807 146.753C342.267 180.726 358.799 213.879 311.226 239.666C286.596 252.968 250.156 254.605 228.563 271.182C188.412 301.88 227.213 320.504 260.616 343.22C305.827 373.918 336.531 411.369 306.502 452.505C283.896 483.407 232.274 502.031 203.258 530.273C153.997 577.957 206.294 612.338 256.904 649.38" stroke="url(#paint45_linear_129_2757)" stroke-width="0.5" stroke-miterlimit="10" stroke-linecap="round" stroke-linejoin="round"/>
<path d="M282.884 147.162C295.705 180.315 313.925 211.832 266.689 237.004C241.721 250.307 204.607 251.739 183.014 268.111C141.176 300.037 186.05 315.796 221.477 337.693C275.124 370.642 285.246 408.708 254.88 451.89C231.599 485.043 183.689 508.169 156.359 539.686C113.172 590.03 157.709 625.435 207.307 666.161" stroke="url(#paint46_linear_129_2757)" stroke-width="0.5" stroke-miterlimit="10" stroke-linecap="round" stroke-linejoin="round"/>
<path d="M240.372 139.999C255.892 174.79 274.112 203.441 223.839 229.023C200.221 241.097 166.819 243.144 144.888 257.265C93.2654 291.033 148.599 310.065 188.075 332.782C258.929 373.712 242.396 425.285 195.16 474.197C171.542 498.755 137.802 519.63 116.546 545.007C73.0214 596.17 109.461 631.779 157.709 675.78" stroke="url(#paint47_linear_129_2757)" stroke-width="0.5" stroke-miterlimit="10" stroke-linecap="round" stroke-linejoin="round"/>
<path d="M202.246 127.516C219.453 162.716 237.673 189.526 186.725 215.312C161.758 227.796 127.343 230.047 104.4 244.782C47.0415 281.415 117.558 304.745 159.058 328.894C237.673 375.146 210.006 429.993 156.359 482.384C131.729 506.533 98.6637 527.612 76.7327 552.989C34.8951 601.696 64.5863 636.078 107.436 680.078" stroke="url(#paint48_linear_129_2757)" stroke-width="0.5" stroke-miterlimit="10" stroke-linecap="round" stroke-linejoin="round"/>
<path d="M166.144 111.553C185.713 147.367 202.92 172.54 150.961 198.735C124.981 211.833 88.5417 214.289 64.5862 229.638C1.49238 269.545 88.879 299.015 132.404 325.415C219.116 378.011 184.701 435.518 120.932 492.207C94.9523 515.333 61.887 535.798 39.2812 560.152C-1.88162 604.766 20.7242 637.101 57.5008 679.669" stroke="url(#paint49_linear_129_2757)" stroke-width="0.5" stroke-miterlimit="10" stroke-linecap="round" stroke-linejoin="round"/>
<path d="M129.03 93.9521C150.624 130.38 167.156 154.12 114.522 180.725C87.1923 194.437 49.4035 197.506 24.0984 213.469C-45.0686 256.856 60.2003 293.284 105.749 322.14C200.221 381.489 162.433 441.862 85.8427 502.03C7.56577 563.63 -53.5037 595.147 6.21621 675.166" stroke="url(#paint50_linear_129_2757)" stroke-width="0.5" stroke-miterlimit="10" stroke-linecap="round" stroke-linejoin="round"/>
<path d="M88.8792 77.1704C112.835 114.008 129.03 136.315 76.0579 163.739C48.0537 178.269 8.57787 181.748 -17.7394 198.325C-91.63 245.19 30.5089 288.372 78.4197 319.275C180.315 384.763 140.839 448.615 50.4155 511.444C-26.5118 564.653 -90.6178 593.714 -44.7314 668.412" stroke="url(#paint51_linear_129_2757)" stroke-width="0.5" stroke-miterlimit="10" stroke-linecap="round" stroke-linejoin="round"/>
<path d="M42.9926 62.8457C69.6473 99.4785 86.5173 121.172 33.5454 149.209C5.20378 164.353 -35.2842 168.446 -61.9388 185.842C-139.204 235.777 -2.21899 284.485 48.3911 317.024C157.709 387.63 115.196 455.165 11.9518 519.221C-61.9389 564.859 -128.069 591.259 -96.0163 660.432" stroke="url(#paint52_linear_129_2757)" stroke-width="0.5" stroke-miterlimit="10" stroke-linecap="round" stroke-linejoin="round"/>
<path d="M-10.9914 53.022C18.6998 89.0409 37.2569 109.915 -14.7028 138.976C-43.0444 154.734 -83.5325 159.441 -110.187 177.246C-188.801 230.251 -39.3331 281.21 13.3014 314.568C130.379 388.857 80.4441 459.258 -32.2477 523.723C-102.09 563.835 -166.87 588.189 -147.976 651.836" stroke="url(#paint53_linear_129_2757)" stroke-width="0.5" stroke-miterlimit="10" stroke-linecap="round" stroke-linejoin="round"/>
<path d="M-75.4348 49.9521C-42.3696 84.3338 -20.1012 104.799 -70.0364 135.088C-97.0284 151.46 -137.516 156.576 -162.822 174.79C-239.749 230.251 -82.5202 279.777 -27.8614 312.726C97.9889 388.652 31.5211 460.076 -83.195 524.542C-148.988 561.584 -207.696 585.733 -199.261 644.673" stroke="url(#paint54_linear_129_2757)" stroke-width="0.5" stroke-miterlimit="10" stroke-linecap="round" stroke-linejoin="round"/>
<defs>
<linearGradient id="paint0_linear_129_2757" x1="674.32" y1="-2.02979" x2="674.32" y2="688.059" gradientUnits="userSpaceOnUse">
<stop offset="0.3125" stop-color="#3962D1"/>
<stop offset="0.927083" stop-color="#70BE8B" stop-opacity="0.44"/>
</linearGradient>
<linearGradient id="paint1_linear_129_2757" x1="617.079" y1="542.308" x2="617.079" y2="635.498" gradientUnits="userSpaceOnUse">
<stop offset="0.3125" stop-color="#3962D1"/>
<stop offset="0.927083" stop-color="#70BE8B" stop-opacity="0.44"/>
</linearGradient>
<linearGradient id="paint2_linear_129_2757" x1="600.041" y1="513.994" x2="600.041" y2="601.32" gradientUnits="userSpaceOnUse">
<stop offset="0.3125" stop-color="#3962D1"/>
<stop offset="0.927083" stop-color="#70BE8B" stop-opacity="0.44"/>
</linearGradient>
<linearGradient id="paint3_linear_129_2757" x1="596.329" y1="494.193" x2="596.329" y2="576.321" gradientUnits="userSpaceOnUse">
<stop offset="0.3125" stop-color="#3962D1"/>
<stop offset="0.927083" stop-color="#70BE8B" stop-opacity="0.44"/>
</linearGradient>
<linearGradient id="paint4_linear_129_2757" x1="604.258" y1="477.265" x2="604.258" y2="557.937" gradientUnits="userSpaceOnUse">
<stop offset="0.3125" stop-color="#3962D1"/>
<stop offset="0.927083" stop-color="#70BE8B" stop-opacity="0.44"/>
</linearGradient>
<linearGradient id="paint5_linear_129_2757" x1="621.803" y1="457.492" x2="621.803" y2="535.63" gradientUnits="userSpaceOnUse">
<stop offset="0.3125" stop-color="#3962D1"/>
<stop offset="0.927083" stop-color="#70BE8B" stop-opacity="0.44"/>
</linearGradient>
<linearGradient id="paint6_linear_129_2757" x1="647.277" y1="427.16" x2="647.277" y2="507.993" gradientUnits="userSpaceOnUse">
<stop offset="0.3125" stop-color="#3962D1"/>
<stop offset="0.927083" stop-color="#70BE8B" stop-opacity="0.44"/>
</linearGradient>
<linearGradient id="paint7_linear_129_2757" x1="678.992" y1="377.539" x2="678.992" y2="472.23" gradientUnits="userSpaceOnUse">
<stop offset="0.3125" stop-color="#3962D1"/>
<stop offset="0.927083" stop-color="#70BE8B" stop-opacity="0.44"/>
</linearGradient>
<linearGradient id="paint8_linear_129_2757" x1="701.936" y1="344.261" x2="701.936" y2="435.331" gradientUnits="userSpaceOnUse">
<stop offset="0.3125" stop-color="#3962D1"/>
<stop offset="0.927083" stop-color="#70BE8B" stop-opacity="0.44"/>
</linearGradient>
<linearGradient id="paint9_linear_129_2757" x1="689.789" y1="325.813" x2="689.789" y2="407.399" gradientUnits="userSpaceOnUse">
<stop offset="0.3125" stop-color="#3962D1"/>
<stop offset="0.927083" stop-color="#70BE8B" stop-opacity="0.44"/>
</linearGradient>
<linearGradient id="paint10_linear_129_2757" x1="656.386" y1="314.805" x2="656.386" y2="386.989" gradientUnits="userSpaceOnUse">
<stop offset="0.3125" stop-color="#3962D1"/>
<stop offset="0.927083" stop-color="#70BE8B" stop-opacity="0.44"/>
</linearGradient>
<linearGradient id="paint11_linear_129_2757" x1="617.079" y1="296.109" x2="617.079" y2="374.333" gradientUnits="userSpaceOnUse">
<stop offset="0.3125" stop-color="#3962D1"/>
<stop offset="0.927083" stop-color="#70BE8B" stop-opacity="0.44"/>
</linearGradient>
<linearGradient id="paint12_linear_129_2757" x1="587.388" y1="267.635" x2="587.388" y2="365.531" gradientUnits="userSpaceOnUse">
<stop offset="0.3125" stop-color="#3962D1"/>
<stop offset="0.927083" stop-color="#70BE8B" stop-opacity="0.44"/>
</linearGradient>
<linearGradient id="paint13_linear_129_2757" x1="581.821" y1="238.493" x2="581.821" y2="347.972" gradientUnits="userSpaceOnUse">
<stop offset="0.3125" stop-color="#3962D1"/>
<stop offset="0.927083" stop-color="#70BE8B" stop-opacity="0.44"/>
</linearGradient>
<linearGradient id="paint14_linear_129_2757" x1="615.392" y1="205.156" x2="615.392" y2="323.063" gradientUnits="userSpaceOnUse">
<stop offset="0.3125" stop-color="#3962D1"/>
<stop offset="0.927083" stop-color="#70BE8B" stop-opacity="0.44"/>
</linearGradient>
<linearGradient id="paint15_linear_129_2757" x1="647.445" y1="180.389" x2="647.445" y2="275.236" gradientUnits="userSpaceOnUse">
<stop offset="0.3125" stop-color="#3962D1"/>
<stop offset="0.927083" stop-color="#70BE8B" stop-opacity="0.44"/>
</linearGradient>
<linearGradient id="paint16_linear_129_2757" x1="680.005" y1="162.514" x2="680.005" y2="257.044" gradientUnits="userSpaceOnUse">
<stop offset="0.3125" stop-color="#3962D1"/>
<stop offset="0.927083" stop-color="#70BE8B" stop-opacity="0.44"/>
</linearGradient>
<linearGradient id="paint17_linear_129_2757" x1="707.334" y1="147.905" x2="707.334" y2="247.824" gradientUnits="userSpaceOnUse">
<stop offset="0.3125" stop-color="#3962D1"/>
<stop offset="0.927083" stop-color="#70BE8B" stop-opacity="0.44"/>
</linearGradient>
<linearGradient id="paint18_linear_129_2757" x1="724.035" y1="112.78" x2="724.035" y2="236.928" gradientUnits="userSpaceOnUse">
<stop offset="0.3125" stop-color="#3962D1"/>
<stop offset="0.927083" stop-color="#70BE8B" stop-opacity="0.44"/>
</linearGradient>
<linearGradient id="paint19_linear_129_2757" x1="724.71" y1="71.4404" x2="724.71" y2="220.564" gradientUnits="userSpaceOnUse">
<stop offset="0.3125" stop-color="#3962D1"/>
<stop offset="0.927083" stop-color="#70BE8B" stop-opacity="0.44"/>
</linearGradient>
<linearGradient id="paint20_linear_129_2757" x1="703.791" y1="31.9424" x2="703.791" y2="192.446" gradientUnits="userSpaceOnUse">
<stop offset="0.3125" stop-color="#3962D1"/>
<stop offset="0.927083" stop-color="#70BE8B" stop-opacity="0.44"/>
</linearGradient>
<linearGradient id="paint21_linear_129_2757" x1="1464.71" y1="26.6221" x2="1464.71" y2="675.371" gradientUnits="userSpaceOnUse">
<stop offset="0.3125" stop-color="#3962D1"/>
<stop offset="0.927083" stop-color="#70BE8B" stop-opacity="0.44"/>
</linearGradient>
<linearGradient id="paint22_linear_129_2757" x1="1402.23" y1="51.1797" x2="1402.23" y2="659.408" gradientUnits="userSpaceOnUse">
<stop offset="0.3125" stop-color="#3962D1"/>
<stop offset="0.927083" stop-color="#70BE8B" stop-opacity="0.44"/>
</linearGradient>
<linearGradient id="paint23_linear_129_2757" x1="1341.19" y1="71.4404" x2="1341.19" y2="641.603" gradientUnits="userSpaceOnUse">
<stop offset="0.3125" stop-color="#3962D1"/>
<stop offset="0.927083" stop-color="#70BE8B" stop-opacity="0.44"/>
</linearGradient>
<linearGradient id="paint24_linear_129_2757" x1="1276.18" y1="87.8115" x2="1276.18" y2="623.592" gradientUnits="userSpaceOnUse">
<stop offset="0.3125" stop-color="#3962D1"/>
<stop offset="0.927083" stop-color="#70BE8B" stop-opacity="0.44"/>
</linearGradient>
<linearGradient id="paint25_linear_129_2757" x1="1228.54" y1="100.296" x2="1228.54" y2="607.221" gradientUnits="userSpaceOnUse">
<stop offset="0.3125" stop-color="#3962D1"/>
<stop offset="0.927083" stop-color="#70BE8B" stop-opacity="0.44"/>
</linearGradient>
<linearGradient id="paint26_linear_129_2757" x1="1184.67" y1="109.301" x2="1184.67" y2="593.919" gradientUnits="userSpaceOnUse">
<stop offset="0.3125" stop-color="#3962D1"/>
<stop offset="0.927083" stop-color="#70BE8B" stop-opacity="0.44"/>
</linearGradient>
<linearGradient id="paint27_linear_129_2757" x1="1139.95" y1="114.417" x2="1139.95" y2="585.323" gradientUnits="userSpaceOnUse">
<stop offset="0.3125" stop-color="#3962D1"/>
<stop offset="0.927083" stop-color="#70BE8B" stop-opacity="0.44"/>
</linearGradient>
<linearGradient id="paint28_linear_129_2757" x1="1092.21" y1="116.464" x2="1092.21" y2="583.277" gradientUnits="userSpaceOnUse">
<stop offset="0.3125" stop-color="#3962D1"/>
<stop offset="0.927083" stop-color="#70BE8B" stop-opacity="0.44"/>
</linearGradient>
<linearGradient id="paint29_linear_129_2757" x1="1042.85" y1="115.032" x2="1042.85" y2="588.599" gradientUnits="userSpaceOnUse">
<stop offset="0.3125" stop-color="#3962D1"/>
<stop offset="0.927083" stop-color="#70BE8B" stop-opacity="0.44"/>
</linearGradient>
<linearGradient id="paint30_linear_129_2757" x1="981.868" y1="110.734" x2="981.868" y2="604.357" gradientUnits="userSpaceOnUse">
<stop offset="0.3125" stop-color="#3962D1"/>
<stop offset="0.927083" stop-color="#70BE8B" stop-opacity="0.44"/>
</linearGradient>
<linearGradient id="paint31_linear_129_2757" x1="920.576" y1="103.367" x2="920.576" y2="630.961" gradientUnits="userSpaceOnUse">
<stop offset="0.3125" stop-color="#3962D1"/>
<stop offset="0.927083" stop-color="#70BE8B" stop-opacity="0.44"/>
</linearGradient>
<linearGradient id="paint32_linear_129_2757" x1="869.646" y1="93.3389" x2="869.646" y2="670.05" gradientUnits="userSpaceOnUse">
<stop offset="0.3125" stop-color="#3962D1"/>
<stop offset="0.927083" stop-color="#70BE8B" stop-opacity="0.44"/>
</linearGradient>
<linearGradient id="paint33_linear_129_2757" x1="824.235" y1="76.3521" x2="824.235" y2="683.966" gradientUnits="userSpaceOnUse">
<stop offset="0.3125" stop-color="#3962D1"/>
<stop offset="0.927083" stop-color="#70BE8B" stop-opacity="0.44"/>
</linearGradient>
<linearGradient id="paint34_linear_129_2757" x1="784.822" y1="64.0728" x2="784.822" y2="687.854" gradientUnits="userSpaceOnUse">
<stop offset="0.3125" stop-color="#3962D1"/>
<stop offset="0.927083" stop-color="#70BE8B" stop-opacity="0.44"/>
</linearGradient>
<linearGradient id="paint35_linear_129_2757" x1="747.861" y1="55.8872" x2="747.861" y2="682.943" gradientUnits="userSpaceOnUse">
<stop offset="0.3125" stop-color="#3962D1"/>
<stop offset="0.927083" stop-color="#70BE8B" stop-opacity="0.44"/>
</linearGradient>
<linearGradient id="paint36_linear_129_2757" x1="717.069" y1="51.9985" x2="717.069" y2="672.301" gradientUnits="userSpaceOnUse">
<stop offset="0.3125" stop-color="#3962D1"/>
<stop offset="0.927083" stop-color="#70BE8B" stop-opacity="0.44"/>
</linearGradient>
<linearGradient id="paint37_linear_129_2757" x1="676.82" y1="51.7935" x2="676.82" y2="657.77" gradientUnits="userSpaceOnUse">
<stop offset="0.3125" stop-color="#3962D1"/>
<stop offset="0.927083" stop-color="#70BE8B" stop-opacity="0.44"/>
</linearGradient>
<linearGradient id="paint38_linear_129_2757" x1="644.677" y1="55.2725" x2="644.677" y2="641.807" gradientUnits="userSpaceOnUse">
<stop offset="0.3125" stop-color="#3962D1"/>
<stop offset="0.927083" stop-color="#70BE8B" stop-opacity="0.44"/>
</linearGradient>
<linearGradient id="paint39_linear_129_2757" x1="607.123" y1="61.8228" x2="607.123" y2="625.436" gradientUnits="userSpaceOnUse">
<stop offset="0.3125" stop-color="#3962D1"/>
<stop offset="0.927083" stop-color="#70BE8B" stop-opacity="0.44"/>
</linearGradient>
<linearGradient id="paint40_linear_129_2757" x1="560.435" y1="71.6455" x2="560.435" y2="611.929" gradientUnits="userSpaceOnUse">
<stop offset="0.3125" stop-color="#3962D1"/>
<stop offset="0.927083" stop-color="#70BE8B" stop-opacity="0.44"/>
</linearGradient>
<linearGradient id="paint41_linear_129_2757" x1="501.657" y1="84.3335" x2="501.657" y2="602.923" gradientUnits="userSpaceOnUse">
<stop offset="0.3125" stop-color="#3962D1"/>
<stop offset="0.927083" stop-color="#70BE8B" stop-opacity="0.44"/>
</linearGradient>
<linearGradient id="paint42_linear_129_2757" x1="440.062" y1="99.4785" x2="440.062" y2="600.468" gradientUnits="userSpaceOnUse">
<stop offset="0.3125" stop-color="#3962D1"/>
<stop offset="0.927083" stop-color="#70BE8B" stop-opacity="0.44"/>
</linearGradient>
<linearGradient id="paint43_linear_129_2757" x1="377.754" y1="117.079" x2="377.754" y2="607.017" gradientUnits="userSpaceOnUse">
<stop offset="0.3125" stop-color="#3962D1"/>
<stop offset="0.927083" stop-color="#70BE8B" stop-opacity="0.44"/>
</linearGradient>
<linearGradient id="paint44_linear_129_2757" x1="315.072" y1="136.725" x2="315.072" y2="624.207" gradientUnits="userSpaceOnUse">
<stop offset="0.3125" stop-color="#3962D1"/>
<stop offset="0.927083" stop-color="#70BE8B" stop-opacity="0.44"/>
</linearGradient>
<linearGradient id="paint45_linear_129_2757" x1="263.401" y1="146.753" x2="263.401" y2="649.38" gradientUnits="userSpaceOnUse">
<stop offset="0.3125" stop-color="#3962D1"/>
<stop offset="0.927083" stop-color="#70BE8B" stop-opacity="0.44"/>
</linearGradient>
<linearGradient id="paint46_linear_129_2757" x1="218.105" y1="147.162" x2="218.105" y2="666.161" gradientUnits="userSpaceOnUse">
<stop offset="0.3125" stop-color="#3962D1"/>
<stop offset="0.927083" stop-color="#70BE8B" stop-opacity="0.44"/>
</linearGradient>
<linearGradient id="paint47_linear_129_2757" x1="176.935" y1="139.999" x2="176.935" y2="675.78" gradientUnits="userSpaceOnUse">
<stop offset="0.3125" stop-color="#3962D1"/>
<stop offset="0.927083" stop-color="#70BE8B" stop-opacity="0.44"/>
</linearGradient>
<linearGradient id="paint48_linear_129_2757" x1="138.312" y1="127.516" x2="138.312" y2="680.078" gradientUnits="userSpaceOnUse">
<stop offset="0.3125" stop-color="#3962D1"/>
<stop offset="0.927083" stop-color="#70BE8B" stop-opacity="0.44"/>
</linearGradient>
<linearGradient id="paint49_linear_129_2757" x1="101.32" y1="111.553" x2="101.32" y2="679.669" gradientUnits="userSpaceOnUse">
<stop offset="0.3125" stop-color="#3962D1"/>
<stop offset="0.927083" stop-color="#70BE8B" stop-opacity="0.44"/>
</linearGradient>
<linearGradient id="paint50_linear_129_2757" x1="71.9515" y1="93.9521" x2="71.9515" y2="675.166" gradientUnits="userSpaceOnUse">
<stop offset="0.3125" stop-color="#3962D1"/>
<stop offset="0.927083" stop-color="#70BE8B" stop-opacity="0.44"/>
</linearGradient>
<linearGradient id="paint51_linear_129_2757" x1="39.289" y1="77.1704" x2="39.289" y2="668.412" gradientUnits="userSpaceOnUse">
<stop offset="0.3125" stop-color="#3962D1"/>
<stop offset="0.927083" stop-color="#70BE8B" stop-opacity="0.44"/>
</linearGradient>
<linearGradient id="paint52_linear_129_2757" x1="4.12627" y1="62.8457" x2="4.12627" y2="660.432" gradientUnits="userSpaceOnUse">
<stop offset="0.3125" stop-color="#3962D1"/>
<stop offset="0.927083" stop-color="#70BE8B" stop-opacity="0.44"/>
</linearGradient>
<linearGradient id="paint53_linear_129_2757" x1="-35.499" y1="53.022" x2="-35.499" y2="651.836" gradientUnits="userSpaceOnUse">
<stop offset="0.3125" stop-color="#3962D1"/>
<stop offset="0.927083" stop-color="#70BE8B" stop-opacity="0.44"/>
</linearGradient>
<linearGradient id="paint54_linear_129_2757" x1="-79.9343" y1="49.9521" x2="-79.9343" y2="644.673" gradientUnits="userSpaceOnUse">
<stop offset="0.3125" stop-color="#3962D1"/>
<stop offset="0.927083" stop-color="#70BE8B" stop-opacity="0.44"/>
</linearGradient>
</defs>
</svg>
