<svg width="206" height="206" viewBox="0 0 206 206" fill="none" xmlns="http://www.w3.org/2000/svg">
<path d="M103 0L192.201 51.5V154.5L103 206L13.7994 154.5V51.5L103 0Z" fill="#3378C9"/>
<path d="M50.7628 90.74C51.5228 90.08 51.9828 89.16 51.9828 88C51.9828 85.58 50.0028 84 47.5628 84H42.0828V98H47.9628C50.4628 98 52.4828 96.38 52.4828 93.9C52.4828 92.48 51.8028 91.4 50.7628 90.74ZM47.5628 87C48.3028 87 48.7828 87.52 48.7828 88.24C48.7828 88.96 48.2828 89.48 47.5628 89.48H45.2828V87H47.5628ZM47.9628 95H45.2828V92.32H47.9628C48.7628 92.32 49.2828 92.88 49.2828 93.66C49.2828 94.44 48.7628 95 47.9628 95ZM58.9703 98.28C61.9103 98.28 64.2703 95.98 64.2703 93C64.2703 90.02 61.9103 87.72 58.9703 87.72C56.0303 87.72 53.6703 90.02 53.6703 93C53.6703 95.98 56.0303 98.28 58.9703 98.28ZM58.9703 95.36C57.6703 95.36 56.6703 94.42 56.6703 93C56.6703 91.58 57.6703 90.64 58.9703 90.64C60.2703 90.64 61.2703 91.58 61.2703 93C61.2703 94.42 60.2703 95.36 58.9703 95.36ZM71.6566 92.92C72.3766 92.42 72.7166 91.64 72.7166 90.72C72.7166 89.14 71.3166 87.72 68.8766 87.72C67.1566 87.72 65.7166 88.44 64.8766 90.06L67.2966 91.44C67.6566 90.64 68.1766 90.28 68.9366 90.28C69.4966 90.28 69.8766 90.52 69.8766 91C69.8766 91.44 69.5766 91.68 68.9366 91.68H67.8566V94.2H69.2566C69.9166 94.2 70.1966 94.46 70.1966 94.9C70.1966 95.4 69.7566 95.68 69.0166 95.68C68.0966 95.68 67.4766 95.24 67.1966 94.46L64.7766 95.9C65.5566 97.52 66.9766 98.28 68.9766 98.28C71.6766 98.28 73.1166 96.94 73.1166 95.28C73.1166 94.26 72.5966 93.42 71.6566 92.92ZM85.2195 88H82.3395L79.9195 91.78L77.4995 88H74.6195V98H77.4995V92.84L79.7395 96.32H80.0995L82.3395 92.84V98H85.2195V88ZM92.2125 98.28C95.1525 98.28 97.5125 95.98 97.5125 93C97.5125 90.02 95.1525 87.72 92.2125 87.72C89.2725 87.72 86.9125 90.02 86.9125 93C86.9125 95.98 89.2725 98.28 92.2125 98.28ZM92.2125 95.36C90.9125 95.36 89.9125 94.42 89.9125 93C89.9125 91.58 90.9125 90.64 92.2125 90.64C93.5125 90.64 94.5125 91.58 94.5125 93C94.5125 94.42 93.5125 95.36 92.2125 95.36ZM112.509 98L109.189 93L112.309 88H108.989L106.469 92.28V88H103.549V92.28L101.029 88H97.7086L100.829 93L97.5086 98H100.829L103.549 93.66V98H106.469V93.66L109.189 98H112.509ZM120.199 88V91.6H116.799V88H113.799V98H116.799V94.4H120.199V98H123.199V88H120.199ZM130.201 98.28C133.141 98.28 135.501 95.98 135.501 93C135.501 90.02 133.141 87.72 130.201 87.72C127.261 87.72 124.901 90.02 124.901 93C124.901 95.98 127.261 98.28 130.201 98.28ZM130.201 95.36C128.901 95.36 127.901 94.42 127.901 93C127.901 91.58 128.901 90.64 130.201 90.64C131.501 90.64 132.501 91.58 132.501 93C132.501 94.42 131.501 95.36 130.201 95.36ZM141.998 98.28C143.958 98.28 145.658 97.26 146.518 95.7L143.898 94.2C143.578 94.9 142.838 95.32 141.958 95.32C140.658 95.32 139.698 94.38 139.698 93C139.698 91.62 140.658 90.68 141.958 90.68C142.838 90.68 143.558 91.1 143.898 91.8L146.518 90.28C145.658 88.74 143.938 87.72 141.998 87.72C138.958 87.72 136.698 90.02 136.698 93C136.698 95.98 138.958 98.28 141.998 98.28ZM155.825 88H146.825V90.88H149.845V98H152.845V90.88H155.825V88ZM161.8 91H160.12V88H157.12V98H161.8C164.22 98 165.72 96.6 165.72 94.5C165.72 92.4 164.22 91 161.8 91ZM161.82 95.4H160.12V93.6H161.82C162.42 93.6 162.8 93.98 162.8 94.5C162.8 95.02 162.42 95.4 161.82 95.4ZM46.6401 116.88C47.2601 116.42 47.5801 115.72 47.5801 114.86C47.5801 113.2 46.4001 112 44.1801 112H39.1801V122H44.5801C46.8001 122 47.9801 120.8 47.9801 119.14C47.9801 118.12 47.5001 117.34 46.6401 116.88ZM43.8601 114.4C44.4001 114.4 44.7401 114.62 44.7401 115.12C44.7401 115.6 44.4001 115.8 43.8601 115.8H41.9801V114.4H43.8601ZM44.1801 119.52H41.9801V118.08H44.1801C44.7001 118.08 45.0601 118.3 45.0601 118.78C45.0601 119.28 44.7001 119.52 44.1801 119.52ZM54.273 122.28C56.233 122.28 57.933 121.26 58.793 119.7L56.173 118.2C55.853 118.9 55.113 119.32 54.233 119.32C52.933 119.32 51.973 118.38 51.973 117C51.973 115.62 52.933 114.68 54.233 114.68C55.113 114.68 55.833 115.1 56.173 115.8L58.793 114.28C57.933 112.74 56.213 111.72 54.273 111.72C51.233 111.72 48.973 114.02 48.973 117C48.973 119.98 51.233 122.28 54.273 122.28ZM68.1004 112H59.1004V114.88H62.1204V122H65.1204V114.88H68.1004V112ZM75.3749 111.72C74.0349 111.72 73.0549 112.18 72.3949 112.94V112H69.3949V126H72.3949V121.06C73.0549 121.82 74.0349 122.28 75.3749 122.28C77.9949 122.28 80.1549 119.98 80.1549 117C80.1549 114.02 77.9949 111.72 75.3749 111.72ZM74.7749 119.44C73.3949 119.44 72.3949 118.5 72.3949 117C72.3949 115.5 73.3949 114.56 74.7749 114.56C76.1549 114.56 77.1549 115.5 77.1549 117C77.1549 118.5 76.1549 119.44 74.7749 119.44ZM84.5359 118.2H91.6359C91.7159 117.82 91.7559 117.42 91.7559 117C91.7559 113.98 89.5959 111.72 86.6759 111.72C83.5159 111.72 81.3559 114.02 81.3559 117C81.3559 119.98 83.4759 122.28 86.8959 122.28C88.7959 122.28 90.2759 121.58 91.2559 120.22L88.8559 118.84C88.4559 119.28 87.7559 119.6 86.9359 119.6C85.8359 119.6 84.9159 119.24 84.5359 118.2ZM84.4759 115.96C84.7559 114.94 85.5159 114.38 86.6559 114.38C87.5559 114.38 88.4559 114.8 88.7759 115.96H84.4759ZM101.167 112H92.1668V114.88H95.1868V122H98.1868V114.88H101.167V112ZM109.661 112L105.381 117V112H102.461V122H104.661L108.941 117V122H111.861V112H109.661ZM122.163 112H113.163V114.88H116.183V122H119.183V114.88H122.163V112ZM128.137 115H126.457V112H123.457V122H128.137C130.557 122 132.057 120.6 132.057 118.5C132.057 116.4 130.557 115 128.137 115ZM128.157 119.4H126.457V117.6H128.157C128.757 117.6 129.137 117.98 129.137 118.5C129.137 119.02 128.757 119.4 128.157 119.4ZM138.257 122.28C140.217 122.28 141.917 121.26 142.777 119.7L140.157 118.2C139.837 118.9 139.097 119.32 138.217 119.32C136.917 119.32 135.957 118.38 135.957 117C135.957 115.62 136.917 114.68 138.217 114.68C139.097 114.68 139.817 115.1 140.157 115.8L142.777 114.28C141.917 112.74 140.197 111.72 138.257 111.72C135.217 111.72 132.957 114.02 132.957 117C132.957 119.98 135.217 122.28 138.257 122.28ZM152.187 112H147.307C144.887 112 143.587 113.8 143.587 115.56C143.587 116.8 144.287 118.08 145.527 118.7L143.187 122H146.587L148.647 119.12H149.267V122H152.187V112ZM147.567 114.64H149.267V116.64H147.567C146.927 116.64 146.507 116.28 146.507 115.66C146.507 115.02 146.927 114.64 147.567 114.64ZM164.195 122.28C166.155 122.28 167.855 121.26 168.715 119.7L166.095 118.2C165.775 118.9 165.035 119.32 164.155 119.32C162.855 119.32 161.895 118.38 161.895 117C161.895 115.62 162.855 114.68 164.155 114.68C165.035 114.68 165.755 115.1 166.095 115.8L168.715 114.28C167.855 112.74 166.135 111.72 164.195 111.72C161.155 111.72 158.895 114.02 158.895 117C158.895 119.98 161.155 122.28 164.195 122.28Z" fill="white"/>
</svg>
