<svg width="322" height="116" viewBox="0 0 322 116" fill="none" xmlns="http://www.w3.org/2000/svg">
<g clip-path="url(#clip0_5487_7847)">
<path opacity="0.965" fill-rule="evenodd" clip-rule="evenodd" d="M245.716 1.55469C245.196 1.55469 246.236 1.55469 245.716 1.55469C247.246 4.69436 249.402 8.36712 250.993 11.5421C240.642 17.5862 236.899 27.6352 239.199 38.3796L248.126 34.8359C248.534 38.0619 249.166 43.595 249.549 47.4876C249.376 48.1015 249.723 46.8736 249.549 47.4876C246.73 49.1331 243.232 51.0758 240.329 52.5876C240.559 59.4201 240.906 66.261 241.369 73.1104C241.716 80.3023 241.716 87.4937 241.369 94.6856C240.056 102.78 236.675 109.796 231.226 115.735C230.879 115.735 230.532 115.735 230.185 115.735C226.668 113.501 223.199 111.133 219.781 108.631C224.308 103.669 226.823 97.7929 227.324 91.002C226.487 73.4724 225.707 55.9318 224.983 38.3796C222.537 21.0393 230.092 8.4207 245.716 1.55469Z" fill="#22CA45"/>
<path opacity="0.967" fill-rule="evenodd" clip-rule="evenodd" d="M-0.257705 84.1653C-0.257705 80.3065 -0.257705 76.4471 -0.257705 72.5883C0.592937 54.9545 1.45993 37.2382 2.34327 19.4397C6.85158 16.9261 11.5333 14.8212 16.3885 13.125C16.8068 34.7087 16.46 56.2838 15.3481 77.8506C14.8682 88.9497 18.683 98.1586 26.7924 105.477C24.018 108.284 21.2436 111.091 18.4693 113.897C16.5437 113.804 14.8098 113.102 13.2673 111.792C4.09261 104.895 -0.41574 95.6859 -0.257705 84.1653Z" fill="#22CA45"/>
<path opacity="0.967" fill-rule="evenodd" clip-rule="evenodd" d="M129.791 13.125C130.561 15.4453 130.908 17.901 130.832 20.4921C129.854 42.0585 129.421 63.6336 129.531 85.2177C130.116 89.4475 131.329 93.4816 133.172 97.3209C135.329 100.187 137.67 102.906 140.195 105.477C137.312 108.571 134.277 111.465 131.092 114.16C118.077 106.339 112.095 94.674 113.145 79.1661C114.12 59.4438 114.9 39.7102 115.486 19.9659C120.12 17.314 124.889 15.0337 129.791 13.125Z" fill="#22CA45"/>
<path opacity="0.969" fill-rule="evenodd" clip-rule="evenodd" d="M173.488 36.8035C182.089 36.4582 189.631 39.0893 196.116 44.6968C199.631 42.6556 203.272 40.9016 207.04 39.4346C207.213 51.5378 207.387 63.6409 207.56 75.7441C207.736 78.9219 208.082 82.0793 208.601 85.2161C209.107 86.9416 209.887 88.5203 210.942 89.9521C208.435 92.7511 205.834 95.4696 203.139 98.1086C200.87 97.3157 196.648 94.8755 195.336 93.6357C181.629 102.946 168.104 102.683 154.761 92.8464C143.186 81.3089 140.845 68.0654 147.738 53.1164C153.641 43.3346 162.224 37.897 173.488 36.8035ZM173.488 52.064C189.84 52.7205 195.822 60.9645 191.434 76.7965C185.728 84.3157 178.358 86.6837 169.326 83.9005C158.845 77.8816 156.504 69.5494 162.304 58.9049C165.232 55.1913 168.959 52.9112 173.488 52.064Z" fill="#22CA45"/>
<path opacity="0.969" fill-rule="evenodd" clip-rule="evenodd" d="M59.5073 36.8035C68.1082 36.4582 75.651 39.0893 82.1357 44.6968C85.6507 42.6556 89.292 40.9016 93.0598 39.4346C93.233 51.5378 93.4067 63.6409 93.58 75.7441C93.7553 78.9219 94.1017 82.0793 94.6203 85.2161C95.1265 86.9416 95.9068 88.5203 96.9612 89.9521C94.4549 92.7511 91.854 95.4696 89.1583 98.1086C86.8893 97.3157 82.6673 94.8755 81.3554 93.6357C67.6488 102.946 54.1238 102.683 40.7803 92.8464C29.2055 81.3089 26.8646 68.0654 33.7577 53.1164C39.6603 43.3346 48.2435 37.897 59.5073 36.8035ZM59.5073 52.064C75.8596 52.7205 81.8418 60.9645 77.454 76.7965C71.7474 84.3157 64.3778 86.6837 55.3457 83.9005C44.8648 77.8816 42.524 69.5494 48.3231 58.9049C51.2513 55.1913 54.979 52.9112 59.5073 52.064Z" fill="#22CA45"/>
<path opacity="0.968" fill-rule="evenodd" clip-rule="evenodd" d="M321.742 65.2202C321.742 67.5004 321.742 69.781 321.742 72.0611C319.106 86.7623 310.61 95.9712 296.253 99.6879C281.583 101.956 270.052 96.9573 261.66 84.6905C254.157 69.1827 256.672 55.5888 269.202 43.9082C282.444 34.6573 295.795 34.4819 309.257 43.3819C316.197 49.0959 320.358 56.3755 321.742 65.2202ZM287.929 52.0646C298.55 52.5502 304.619 58.0757 306.136 68.6407C305.103 78.7358 299.554 84.2611 289.49 85.2168C277.102 83.3039 271.813 76.1125 273.624 63.6416C276.357 57.0953 281.126 53.2366 287.929 52.0646Z" fill="#22CA45"/>
</g>
<defs>
<clipPath id="clip0_5487_7847">
<rect width="322" height="116" fill="white"/>
</clipPath>
</defs>
</svg>
