<svg width="65" height="64" viewBox="0 0 65 64" fill="none" xmlns="http://www.w3.org/2000/svg">
<circle cx="32.797" cy="32" r="30" fill="white"/>
<circle cx="33.797" cy="33" r="25" fill="url(#paint0_linear_2247_4780)"/>
<path d="M31.3 6.03276C29.5293 6.23188 28.7545 6.35356 27.6478 6.59692C17.6872 8.77611 9.92905 16.3314 7.50531 26.2318C6.9298 28.588 6.797 29.7937 6.797 32.5149C6.797 35.2362 6.94087 36.4751 7.50531 38.7981C8.5235 42.9463 10.4049 46.6078 13.205 49.86C17.4327 54.7825 23.3426 57.9462 29.972 58.8644C31.3332 59.0524 35.2621 59.0414 36.6123 58.8533C43.3081 57.9352 49.1627 54.7825 53.4015 49.8379C56.7216 45.9551 58.7802 41.464 59.5881 36.2539C59.8648 34.5171 59.8648 30.5238 59.5991 28.7871C58.6916 23.0238 56.1351 17.8911 52.173 13.8867C48.0891 9.74956 42.9871 7.17214 37.0882 6.24294C36.059 6.07701 32.1301 5.9332 31.3 6.03276ZM25.545 15.7562C29.1087 17.0725 31.0676 20.6787 30.1933 24.307C29.5514 26.9951 27.7364 28.8756 25.0913 29.5946C24.1395 29.8601 22.2027 29.8601 21.2398 29.6057C18.628 28.9088 16.7797 26.984 16.1378 24.296C15.5291 21.7738 16.2153 19.3845 18.0746 17.515C19.0374 16.5526 19.6351 16.1655 20.8303 15.7562C21.9481 15.3801 21.926 15.3801 23.3869 15.4133C24.5158 15.4464 24.8367 15.4907 25.545 15.7562ZM50.8228 15.9885C50.9224 16.077 50.9998 16.2318 50.9998 16.3093C50.9998 16.6079 48.8749 24.0637 48.72 24.296C48.4433 24.7274 48.0559 24.6278 47.3698 23.942L46.7721 23.3446L45.4773 24.2628C37.8851 29.7052 28.7656 33.3556 19.3473 34.7163C16.824 35.0924 16.0603 35.1255 15.8058 34.8932C15.5291 34.6499 15.518 34.2627 15.7837 34.0415C15.8833 33.9419 16.7465 33.6654 17.6872 33.422C26.6075 31.1101 35.2068 26.4973 42.2345 20.2584L43.0314 19.5393L42.5887 19.0637C41.9246 18.3447 42.0353 17.9354 42.9539 17.6809C46.7389 16.6522 50.0149 15.8225 50.3026 15.8225C50.4907 15.8115 50.7342 15.8889 50.8228 15.9885ZM47.6575 26.6743C47.7571 26.7738 47.7903 29.2074 47.7903 36.9618V47.1166H44.6361H41.482V38.1676C41.482 29.8048 41.493 29.2074 41.6812 28.9862C41.9025 28.7096 46.8275 26.5526 47.248 26.5415C47.403 26.5415 47.58 26.5968 47.6575 26.6743ZM40.0432 30.3026C40.2645 30.5238 40.2646 30.6676 40.2646 38.8202V47.1166H37.1104H33.9562V40.0038C33.9562 36.099 34.0005 32.8468 34.0447 32.7804C34.1443 32.6256 34.6313 32.3711 37.3317 31.1101C38.5491 30.5459 39.6116 30.0813 39.689 30.0813C39.7555 30.0813 39.9215 30.1809 40.0432 30.3026ZM32.451 33.6875C32.606 33.8424 32.6281 34.6056 32.6281 40.4906V47.1166H29.4739H26.3197V41.3313C26.3197 36.8733 26.3529 35.5016 26.4636 35.3578C26.6075 35.1587 31.466 33.5437 31.9862 33.5216C32.1522 33.5105 32.3625 33.5879 32.451 33.6875ZM24.881 35.9441C25.0913 36.1543 25.1023 36.3092 25.1023 41.641V47.1166H21.8928H18.6722L18.7054 42.0835C18.7386 37.5813 18.7608 37.0393 18.9268 36.8733C19.0485 36.7516 19.9339 36.5304 21.5829 36.2207C24.4936 35.6676 24.5932 35.6565 24.881 35.9441ZM50.8228 48.6874C51.0441 49.0082 51.0441 49.2073 50.8117 49.4618C50.6457 49.6498 49.9485 49.6609 33.3143 49.6609C17.3441 49.6609 15.9718 49.6498 15.7837 49.4728C15.5402 49.2516 15.5291 48.9087 15.7726 48.6432C15.9386 48.4551 16.6358 48.4441 33.3032 48.4441H50.6568L50.8228 48.6874Z" fill="white"/>
<path d="M22.4219 18.1455C22.3142 18.2364 22.2653 18.4545 22.2653 18.8182C22.2653 19.3455 22.2555 19.3545 21.9227 19.5091C21.3256 19.7727 20.797 20.5455 20.797 21.1455C20.797 22.0364 21.7759 22.9909 22.6862 23C23.2735 23 23.6259 23.3273 23.6357 23.8455C23.6357 24.3 23.2931 24.6364 22.833 24.6364C22.373 24.6364 22.0989 24.4273 21.9618 23.9727C21.8052 23.4636 21.7073 23.3636 21.3843 23.3636C20.3859 23.3636 20.797 25 21.9227 25.4909C22.2555 25.6364 22.2653 25.6636 22.2653 26.1455C22.2653 26.8182 22.3828 27 22.8037 27C23.2246 27 23.342 26.8182 23.342 26.1455C23.342 25.6636 23.3518 25.6364 23.6846 25.4909C24.4579 25.1545 24.9474 24.1636 24.732 23.4182C24.4873 22.6273 23.9 22.1364 22.9994 22C22.2751 21.8909 21.9716 21.6455 21.9716 21.1636C21.9716 20.7 22.3142 20.3636 22.7743 20.3636C23.2344 20.3636 23.5084 20.5727 23.6455 21.0273C23.714 21.2364 23.8119 21.4636 23.8608 21.5182C23.9979 21.7 24.4677 21.6545 24.6635 21.4545C25.0648 21.0455 24.5069 19.9091 23.714 19.5182C23.3518 19.3455 23.342 19.3364 23.342 18.8182C23.342 18.2273 23.1952 18 22.8037 18C22.6764 18 22.5002 18.0636 22.4219 18.1455Z" fill="#F0F0F0"/>
<defs>
<linearGradient id="paint0_linear_2247_4780" x1="97.547" y1="33" x2="-25.7863" y2="33" gradientUnits="userSpaceOnUse">
<stop offset="0.391602" stop-color="#2C5CA6"/>
<stop offset="0.614195" stop-color="#00BEFA"/>
</linearGradient>
</defs>
</svg>
