<svg width="65" height="64" viewBox="0 0 65 64" fill="none" xmlns="http://www.w3.org/2000/svg">
<circle cx="32.797" cy="32" r="30" fill="white"/>
<path d="M24.995 13.147C23.4818 13.6397 23.0084 14.3278 21.9179 17.6323C20.7852 21.0557 20.5147 24.3686 21.0895 27.5287C21.2417 28.3527 21.4784 28.8114 21.9349 29.1172C22.3068 29.3806 23.6763 29.8817 24.1835 29.9497C25.088 30.0601 25.7981 29.4825 26.542 28.0129C26.99 27.1294 26.9985 27.1294 26.99 26.3649C26.9816 25.7193 26.9224 25.422 26.6265 24.4536C26.1447 22.899 26.001 21.9901 26.0517 20.8858C26.1024 19.7899 26.2715 19.3057 26.7956 18.7281L27.1929 18.2949L27.7509 18.3119C28.0552 18.3203 28.3933 18.3543 28.4948 18.3883C28.6976 18.4478 28.7061 18.4817 28.3511 17.4879C28.0298 16.6044 27.8946 15.7379 27.8861 14.6251C27.8861 13.7586 27.8692 13.6567 27.7001 13.4613C27.3028 13.0111 25.908 12.8582 24.995 13.147Z" fill="url(#paint0_linear_2260_4800)"/>
<path d="M39.4843 13.1472C38.7573 13.402 38.7573 13.402 38.6897 14.8801C38.6389 16.2138 38.4699 17.0633 38.0979 17.9382C38.0049 18.1591 37.9373 18.3545 37.9542 18.3715C37.9711 18.3885 38.2416 18.363 38.5544 18.3205C39.4589 18.2016 39.9492 18.5244 40.2705 19.4503C40.7354 20.7585 40.5917 22.3385 39.7548 25.0484C39.4082 26.1782 39.4336 26.518 39.9746 27.7667C40.355 28.6502 40.5156 28.9135 40.9045 29.3128C41.6568 30.0858 42.1387 30.1368 43.5927 29.6016C44.9621 29.1004 45.2834 28.7436 45.5032 27.5289C46.171 23.7996 45.706 20.0534 44.0492 15.874C43.8378 15.3388 43.5758 14.7527 43.4743 14.5828C43.1615 14.0901 42.5952 13.5974 42.0119 13.3001C41.5469 13.0707 41.361 13.0283 40.7016 13.0113C40.1098 12.9858 39.8309 13.0198 39.4843 13.1472Z" fill="url(#paint1_linear_2260_4800)"/>
<path d="M27.624 20.0027C27.2943 20.8606 27.3704 21.8036 27.9706 24.0292C28.1989 24.8957 28.4102 25.8046 28.444 26.0425L28.5032 26.4927H33.254H38.0049L38.0979 25.915C38.1486 25.6007 38.3684 24.7512 38.5713 24.0207C38.7742 23.2901 38.994 22.4577 39.0447 22.1773C39.1715 21.5572 39.1208 20.3509 38.9517 20.0027L38.8418 19.7563L37.988 19.8158C34.9109 20.0281 31.6817 20.0281 28.5877 19.8158L27.7255 19.7563L27.624 20.0027Z" fill="url(#paint2_linear_2260_4800)"/>
<path d="M28.4778 28.2934C28.4778 28.9051 28.0889 30.4086 27.6071 31.6829C27.3535 32.354 26.6772 34.1294 26.1108 35.6244C23.9805 41.2565 22.8224 45.0367 22.5181 47.3897C22.3744 48.4686 22.4082 49.1057 22.6449 49.4964C22.8139 49.7768 22.8393 49.7852 24.8174 50.1505C28.0467 50.7537 30.7433 51 34.0571 51C37.5146 50.9915 39.7886 50.7537 42.8065 50.0656C44.066 49.7768 44.1675 49.6493 44.1506 48.3241C44.1167 46.0136 42.7388 41.5368 39.4673 33.1185C39.0447 32.0227 38.6051 30.8504 38.4952 30.5106C38.2585 29.8055 38.0302 28.6502 38.0302 28.2255V27.9367H33.254H28.4778V28.2934Z" fill="url(#paint3_linear_2260_4800)"/>
<defs>
<linearGradient id="paint0_linear_2260_4800" x1="34.7099" y1="21.4814" x2="15.3755" y2="21.4814" gradientUnits="userSpaceOnUse">
<stop offset="0.328249" stop-color="#EF4664"/>
<stop offset="0.750869" stop-color="#6638C7"/>
</linearGradient>
<linearGradient id="paint1_linear_2260_4800" x1="51.8771" y1="21.4797" x2="32.5252" y2="21.4797" gradientUnits="userSpaceOnUse">
<stop offset="0.328249" stop-color="#EF4664"/>
<stop offset="0.750869" stop-color="#6638C7"/>
</linearGradient>
<linearGradient id="paint2_linear_2260_4800" x1="48.1716" y1="23.1245" x2="19.3482" y2="23.1245" gradientUnits="userSpaceOnUse">
<stop offset="0.328249" stop-color="#EF4664"/>
<stop offset="0.750869" stop-color="#6638C7"/>
</linearGradient>
<linearGradient id="paint3_linear_2260_4800" x1="60.9849" y1="39.4683" x2="7.40966" y2="39.4683" gradientUnits="userSpaceOnUse">
<stop offset="0.328249" stop-color="#EF4664"/>
<stop offset="0.750869" stop-color="#6638C7"/>
</linearGradient>
</defs>
</svg>
