<svg width="61" height="60" viewBox="0 0 61 60" fill="none" xmlns="http://www.w3.org/2000/svg">
<circle cx="30.797" cy="30" r="30" fill="white"/>
<g clip-path="url(#clip0_2269_4833)">
<path d="M29.0001 10.7109C26.5782 10.9375 24.2032 11.6406 21.9767 12.7734C14.4064 16.625 10.2267 25.0547 11.7345 33.4219C12.8126 39.375 16.6095 44.5 21.9767 47.2265C23.9064 48.2109 25.9532 48.8672 28.1017 49.1875C29.4064 49.3828 32.1798 49.3828 33.4923 49.1953C37.8673 48.539 41.7657 46.5312 44.797 43.3672C49.0157 38.9609 50.9064 32.7969 49.8907 26.7187C49.3595 23.5625 48.0001 20.5312 45.8907 17.8516C45.3204 17.1328 43.6485 15.4609 42.9064 14.875C38.9142 11.7266 33.9376 10.2344 29.0001 10.7109ZM29.797 15.8281C30.1485 15.9453 30.6017 16.0312 30.797 16.0312C30.9923 16.0312 31.4454 15.9453 31.797 15.8281C32.7657 15.5234 32.9376 15.5469 33.7657 16.1016C34.586 16.6406 34.6642 16.6719 35.6485 16.6875C36.2814 16.6953 36.6251 16.7422 36.7892 16.8203C36.9142 16.8906 37.2892 17.2344 37.6095 17.5937C38.2423 18.2891 38.4064 18.3906 39.3673 18.6641C40.1329 18.8906 40.3673 19.1094 40.7735 20C40.9689 20.4062 41.1798 20.8047 41.2501 20.8906C41.3204 20.9687 41.6642 21.2187 42.0157 21.4453C42.9376 22.0469 43.0626 22.25 43.1798 23.3594C43.2501 24.0391 43.422 24.3984 43.9454 24.9844C44.586 25.6953 44.6564 25.8515 44.5939 26.5156C44.5704 26.8203 44.5235 27.3047 44.5001 27.5859C44.4532 28.0859 44.461 28.1406 44.7892 28.8359C45.2579 29.8359 45.2579 30.164 44.7892 31.164C44.4142 31.9687 44.4376 31.7265 44.5939 33.5C44.6564 34.1406 44.5782 34.3125 43.9454 35.0156C43.422 35.6015 43.2501 35.9609 43.1798 36.6406C43.0626 37.75 42.9376 37.9531 42.0157 38.5547C41.6642 38.7812 41.3204 39.0312 41.2501 39.1094C41.1798 39.1953 40.9689 39.5937 40.7735 40C40.3673 40.8906 40.1329 41.1094 39.3673 41.3359C38.4064 41.6094 38.2423 41.7109 37.6095 42.4062C37.2892 42.7656 36.9064 43.1172 36.7814 43.1797C36.6017 43.2734 36.297 43.3125 35.6407 43.3203C34.6485 43.3359 34.6017 43.3515 33.6798 43.9609C32.9845 44.4219 32.711 44.4531 31.836 44.1797C30.9767 43.914 30.6173 43.914 29.7579 44.1797C28.8829 44.4531 28.6095 44.4219 27.9142 43.9609C26.9923 43.3437 26.9454 43.3281 25.9532 43.3203C25.3048 43.3125 24.9923 43.2734 24.8126 43.1797C24.6876 43.1172 24.3048 42.7656 23.9845 42.4062C23.3517 41.7109 23.1876 41.6094 22.2267 41.3359C21.4532 41.1094 21.2345 40.8984 20.797 39.9609C20.3907 39.1015 20.3048 39.0078 19.5001 38.4922C18.6564 37.9609 18.5235 37.7344 18.4142 36.6406C18.3439 35.9609 18.172 35.6015 17.6485 35.0156C17.0157 34.3125 16.9376 34.1406 17.0001 33.5C17.1564 31.7265 17.1798 31.9687 16.8048 31.164C16.336 30.164 16.336 29.8359 16.8048 28.8437C17.1173 28.164 17.1407 28.0781 17.1017 27.6328C16.9454 26 16.9454 25.9687 17.0782 25.7187C17.1485 25.5859 17.3985 25.25 17.6407 24.9844C18.2189 24.3359 18.2814 24.2031 18.422 23.2734C18.586 22.1562 18.6798 22.0156 19.586 21.4453C20.297 21.0078 20.3985 20.8828 20.797 20.0391C21.2345 19.1016 21.4532 18.8906 22.2267 18.6641C23.1876 18.3906 23.3517 18.2891 23.9845 17.5937C24.3048 17.2344 24.6876 16.8828 24.8126 16.8203C24.9845 16.7266 25.3048 16.6875 25.9532 16.6797C26.9376 16.6641 27.0314 16.6328 27.8439 16.0781C28.6329 15.5469 28.8282 15.5234 29.797 15.8281Z" fill="url(#paint0_linear_2269_4833)"/>
<path d="M28.922 19.4764C28.5392 19.6014 27.8829 20.2733 27.7657 20.6717C27.547 21.4061 27.7032 21.992 28.2579 22.5389C29.0548 23.3436 30.1563 23.328 30.8985 22.4998C31.6017 21.7186 31.6017 20.7811 30.8985 19.9998C30.3907 19.4373 29.6642 19.242 28.922 19.4764Z" fill="url(#paint1_linear_2269_4833)"/>
<path d="M33.4923 19.5703C33.3673 19.6875 33.297 19.8516 33.297 20C33.297 20.1484 33.3673 20.3125 33.4923 20.4297C33.6095 20.5547 33.7736 20.625 33.922 20.625C34.0704 20.625 34.2345 20.5547 34.3517 20.4297C34.4767 20.3125 34.547 20.1484 34.547 20C34.547 19.8516 34.4767 19.6875 34.3517 19.5703C34.2345 19.4453 34.0704 19.375 33.922 19.375C33.7736 19.375 33.6095 19.4453 33.4923 19.5703Z" fill="url(#paint2_linear_2269_4833)"/>
<path d="M23.4923 22.0703C23.1017 22.4531 23.3751 23.125 23.922 23.125C24.2423 23.125 24.547 22.8203 24.547 22.5C24.547 22.1797 24.2423 21.875 23.922 21.875C23.7735 21.875 23.6095 21.9453 23.4923 22.0703Z" fill="url(#paint3_linear_2269_4833)"/>
<path d="M34.1642 22.6327C34.0704 22.7109 33.9767 22.9062 33.9454 23.0624C33.9063 23.3437 33.922 23.3749 34.3517 23.7656C34.9142 24.289 35.0938 24.6406 35.1642 25.3749C35.211 25.8515 35.2501 25.9843 35.3985 26.1015C35.6563 26.3124 36.0001 26.289 36.2267 26.0546C36.3907 25.8984 36.422 25.789 36.422 25.4062C36.422 24.4374 35.922 23.414 35.1642 22.8124C34.7267 22.4687 34.4298 22.414 34.1642 22.6327Z" fill="url(#paint4_linear_2269_4833)"/>
<path d="M23.961 24.0625C23.422 24.5234 23.0001 24.75 22.3126 24.9219C21.922 25.0234 21.6485 25.1406 21.5626 25.2422C21.2189 25.6562 21.547 26.25 22.1095 26.25C23.047 26.25 24.9767 25.1641 25.1251 24.5547C25.2345 24.1484 24.9064 23.75 24.4689 23.75C24.3907 23.75 24.1642 23.8906 23.961 24.0625Z" fill="url(#paint5_linear_2269_4833)"/>
<path d="M39.1173 23.9453C38.9923 24.0625 38.922 24.2266 38.922 24.375C38.922 24.5234 38.9923 24.6875 39.1173 24.8047C39.2345 24.9297 39.3986 25 39.547 25C39.6954 25 39.8595 24.9297 39.9767 24.8047C40.1017 24.6875 40.172 24.5234 40.172 24.375C40.172 24.2266 40.1017 24.0625 39.9767 23.9453C39.8595 23.8203 39.6954 23.75 39.547 23.75C39.3986 23.75 39.2345 23.8203 39.1173 23.9453Z" fill="url(#paint6_linear_2269_4833)"/>
<path d="M28.4923 26.4453C28.1017 26.8281 28.3751 27.5 28.922 27.5C29.2423 27.5 29.547 27.1953 29.547 26.875C29.547 26.5547 29.2423 26.25 28.922 26.25C28.7736 26.25 28.6095 26.3203 28.4923 26.4453Z" fill="url(#paint7_linear_2269_4833)"/>
<path d="M20.3673 27.6953C19.9767 28.0781 20.2501 28.75 20.797 28.75C21.1173 28.75 21.422 28.4453 21.422 28.125C21.422 27.8047 21.1173 27.5 20.797 27.5C20.6485 27.5 20.4845 27.5703 20.3673 27.6953Z" fill="url(#paint8_linear_2269_4833)"/>
<path d="M37.2423 28.3203C37.1173 28.4375 37.047 28.6016 37.047 28.75C37.047 28.8984 37.1173 29.0625 37.2423 29.1797C37.3595 29.3047 37.5236 29.375 37.672 29.375C37.8204 29.375 37.9845 29.3047 38.1017 29.1797C38.2267 29.0625 38.297 28.8984 38.297 28.75C38.297 28.6016 38.2267 28.4375 38.1017 28.3203C37.9845 28.1953 37.8204 28.125 37.672 28.125C37.5236 28.125 37.3595 28.1953 37.2423 28.3203Z" fill="url(#paint9_linear_2269_4833)"/>
<path d="M23.961 28.8201C23.2423 29.0076 22.6095 29.5232 22.2813 30.1951C22.0157 30.7341 22.0079 31.7419 22.2657 32.2654C22.5313 32.8201 22.8517 33.156 23.3907 33.4451C23.8438 33.6873 23.9376 33.7107 24.547 33.7029C25.1095 33.7029 25.2735 33.6716 25.6095 33.4998C26.1954 33.1873 26.4454 32.9529 26.7423 32.406C26.9845 31.9529 27.0079 31.8591 27.0079 31.2498C27.0079 30.6404 26.9845 30.5466 26.7423 30.0935C26.297 29.281 25.6173 28.8435 24.711 28.7888C24.4298 28.7732 24.0938 28.781 23.961 28.8201Z" fill="url(#paint10_linear_2269_4833)"/>
<path d="M30.9923 28.9453C30.8751 29.0547 30.797 29.2266 30.797 29.3594C30.797 29.7344 31.0079 29.9141 31.5861 30.0313C32.2736 30.1797 32.7345 30.4063 33.2579 30.8672C33.5704 31.1406 33.7657 31.25 33.9298 31.25C34.2501 31.25 34.547 30.9453 34.547 30.6094C34.547 30.0859 33.2111 29.125 32.1173 28.8672C31.4142 28.7031 31.2111 28.7188 30.9923 28.9453Z" fill="url(#paint11_linear_2269_4833)"/>
<path d="M39.4845 30.7891C38.8986 31.0156 38.3126 31.6172 37.9532 32.3516C37.797 32.6797 37.672 33.0391 37.672 33.1562C37.672 33.4219 37.9923 33.75 38.2579 33.75C38.6017 33.75 38.7579 33.6094 39.0079 33.0625C39.3439 32.3203 39.8126 31.875 40.2501 31.875C40.5001 31.875 40.797 31.5312 40.797 31.25C40.797 30.9219 40.4923 30.625 40.1564 30.6328C40.0157 30.6328 39.7111 30.7031 39.4845 30.7891Z" fill="url(#paint12_linear_2269_4833)"/>
<path d="M29.1173 33.3203C28.7267 33.7031 29.0001 34.375 29.547 34.375C29.6954 34.375 29.8595 34.3047 29.9767 34.1797C30.1017 34.0625 30.172 33.8984 30.172 33.75C30.172 33.6016 30.1017 33.4375 29.9767 33.3203C29.8595 33.1953 29.6954 33.125 29.547 33.125C29.3985 33.125 29.2345 33.1953 29.1173 33.3203Z" fill="url(#paint13_linear_2269_4833)"/>
<path d="M38.4923 35.1953C38.1017 35.5781 38.3751 36.25 38.922 36.25C39.2423 36.25 39.547 35.9453 39.547 35.625C39.547 35.3047 39.2423 35 38.922 35C38.7735 35 38.6095 35.0703 38.4923 35.1953Z" fill="url(#paint14_linear_2269_4833)"/>
<path d="M22.2423 35.8203C22.1251 35.9297 22.047 36.1016 22.047 36.2344C22.047 36.6094 22.2579 36.7891 22.8361 36.9063C23.5236 37.0547 23.9845 37.2813 24.5079 37.7422C24.8204 38.0156 25.0157 38.125 25.1798 38.125C25.5001 38.125 25.797 37.8203 25.797 37.4844C25.797 36.9609 24.4611 36 23.3673 35.7422C22.6642 35.5781 22.4611 35.5938 22.2423 35.8203Z" fill="url(#paint15_linear_2269_4833)"/>
<path d="M33.297 35.7264C32.9142 35.8514 32.2579 36.5233 32.1407 36.9217C31.922 37.6561 32.0782 38.242 32.6329 38.7889C33.4298 39.5936 34.5313 39.578 35.2735 38.7498C35.9767 37.9686 35.9767 37.0311 35.2735 36.2498C34.7657 35.6873 34.0392 35.492 33.297 35.7264Z" fill="url(#paint16_linear_2269_4833)"/>
<path d="M25.9923 38.9453C25.6017 39.3281 25.8751 40 26.422 40C26.5704 40 26.7345 39.9297 26.8517 39.8047C26.9767 39.6875 27.047 39.5234 27.047 39.375C27.047 39.2266 26.9767 39.0625 26.8517 38.9453C26.7345 38.8203 26.5704 38.75 26.422 38.75C26.2735 38.75 26.1095 38.8203 25.9923 38.9453Z" fill="url(#paint17_linear_2269_4833)"/>
<path d="M30.3673 40.8201C30.2423 40.9372 30.172 41.1013 30.172 41.2497C30.172 41.3982 30.2423 41.5622 30.3673 41.6794C30.7501 42.0701 31.422 41.7966 31.422 41.2497C31.422 40.9294 31.1173 40.6247 30.797 40.6247C30.6486 40.6247 30.4845 40.6951 30.3673 40.8201Z" fill="url(#paint18_linear_2269_4833)"/>
</g>
<defs>
<linearGradient id="paint0_linear_2269_4833" x1="78.297" y1="18" x2="-15.3598" y2="29.9794" gradientUnits="userSpaceOnUse">
<stop offset="0.410678" stop-color="#F5B41D"/>
<stop offset="1" stop-color="#E62D2D"/>
</linearGradient>
<linearGradient id="paint1_linear_2269_4833" x1="34.154" y1="20.0942" x2="25.0732" y2="21.256" gradientUnits="userSpaceOnUse">
<stop offset="0.410678" stop-color="#F5B41D"/>
<stop offset="1" stop-color="#E62D2D"/>
</linearGradient>
<linearGradient id="paint2_linear_2269_4833" x1="35.4551" y1="19.6132" x2="32.4324" y2="19.9996" gradientUnits="userSpaceOnUse">
<stop offset="0.410678" stop-color="#F5B41D"/>
<stop offset="1" stop-color="#E62D2D"/>
</linearGradient>
<linearGradient id="paint3_linear_2269_4833" x1="25.4467" y1="22.1132" x2="22.4509" y2="22.4927" gradientUnits="userSpaceOnUse">
<stop offset="0.410678" stop-color="#F5B41D"/>
<stop offset="1" stop-color="#E62D2D"/>
</linearGradient>
<linearGradient id="paint4_linear_2269_4833" x1="38.2313" y1="23.2158" x2="32.1541" y2="23.7327" gradientUnits="userSpaceOnUse">
<stop offset="0.410678" stop-color="#F5B41D"/>
<stop offset="1" stop-color="#E62D2D"/>
</linearGradient>
<linearGradient id="paint5_linear_2269_4833" x1="27.8517" y1="24.2264" x2="19.0195" y2="25.9083" gradientUnits="userSpaceOnUse">
<stop offset="0.410678" stop-color="#F5B41D"/>
<stop offset="1" stop-color="#E62D2D"/>
</linearGradient>
<linearGradient id="paint6_linear_2269_4833" x1="41.0801" y1="23.9882" x2="38.0574" y2="24.3746" gradientUnits="userSpaceOnUse">
<stop offset="0.410678" stop-color="#F5B41D"/>
<stop offset="1" stop-color="#E62D2D"/>
</linearGradient>
<linearGradient id="paint7_linear_2269_4833" x1="30.4468" y1="26.4882" x2="27.4509" y2="26.8677" gradientUnits="userSpaceOnUse">
<stop offset="0.410678" stop-color="#F5B41D"/>
<stop offset="1" stop-color="#E62D2D"/>
</linearGradient>
<linearGradient id="paint8_linear_2269_4833" x1="22.3217" y1="27.7382" x2="19.3259" y2="28.1177" gradientUnits="userSpaceOnUse">
<stop offset="0.410678" stop-color="#F5B41D"/>
<stop offset="1" stop-color="#E62D2D"/>
</linearGradient>
<linearGradient id="paint9_linear_2269_4833" x1="39.2051" y1="28.3632" x2="36.1824" y2="28.7496" gradientUnits="userSpaceOnUse">
<stop offset="0.410678" stop-color="#F5B41D"/>
<stop offset="1" stop-color="#E62D2D"/>
</linearGradient>
<linearGradient id="paint10_linear_2269_4833" x1="30.59" y1="29.7193" x2="18.6671" y2="31.246" gradientUnits="userSpaceOnUse">
<stop offset="0.410678" stop-color="#F5B41D"/>
<stop offset="1" stop-color="#E62D2D"/>
</linearGradient>
<linearGradient id="paint11_linear_2269_4833" x1="37.2713" y1="29.2326" x2="28.3837" y2="30.9421" gradientUnits="userSpaceOnUse">
<stop offset="0.410678" stop-color="#F5B41D"/>
<stop offset="1" stop-color="#E62D2D"/>
</linearGradient>
<linearGradient id="paint12_linear_2269_4833" x1="43.0672" y1="31.2267" x2="35.511" y2="32.195" gradientUnits="userSpaceOnUse">
<stop offset="0.410678" stop-color="#F5B41D"/>
<stop offset="1" stop-color="#E62D2D"/>
</linearGradient>
<linearGradient id="paint13_linear_2269_4833" x1="31.0717" y1="33.3632" x2="28.0759" y2="33.7427" gradientUnits="userSpaceOnUse">
<stop offset="0.410678" stop-color="#F5B41D"/>
<stop offset="1" stop-color="#E62D2D"/>
</linearGradient>
<linearGradient id="paint14_linear_2269_4833" x1="40.4467" y1="35.2382" x2="37.4509" y2="35.6177" gradientUnits="userSpaceOnUse">
<stop offset="0.410678" stop-color="#F5B41D"/>
<stop offset="1" stop-color="#E62D2D"/>
</linearGradient>
<linearGradient id="paint15_linear_2269_4833" x1="28.5213" y1="36.1076" x2="19.6337" y2="37.8171" gradientUnits="userSpaceOnUse">
<stop offset="0.410678" stop-color="#F5B41D"/>
<stop offset="1" stop-color="#E62D2D"/>
</linearGradient>
<linearGradient id="paint16_linear_2269_4833" x1="38.529" y1="36.3442" x2="29.4482" y2="37.506" gradientUnits="userSpaceOnUse">
<stop offset="0.410678" stop-color="#F5B41D"/>
<stop offset="1" stop-color="#E62D2D"/>
</linearGradient>
<linearGradient id="paint17_linear_2269_4833" x1="27.9467" y1="38.9882" x2="24.9509" y2="39.3677" gradientUnits="userSpaceOnUse">
<stop offset="0.410678" stop-color="#F5B41D"/>
<stop offset="1" stop-color="#E62D2D"/>
</linearGradient>
<linearGradient id="paint18_linear_2269_4833" x1="32.3301" y1="40.8607" x2="29.3083" y2="41.2506" gradientUnits="userSpaceOnUse">
<stop offset="0.410678" stop-color="#F5B41D"/>
<stop offset="1" stop-color="#E62D2D"/>
</linearGradient>
<clipPath id="clip0_2269_4833">
<rect width="40" height="40" fill="white" transform="translate(10.797 10)"/>
</clipPath>
</defs>
</svg>
