<svg width="60" height="61" viewBox="0 0 60 61" fill="none" xmlns="http://www.w3.org/2000/svg">
<circle cx="30" cy="30.2656" r="30" fill="white"/>
<path d="M30.8085 10.2916C30.1526 10.5163 29.0655 11.2709 28.4546 11.9178C27.071 13.3913 26.6218 15.269 27.2417 16.994C27.5382 17.8206 27.9335 18.3956 28.6882 19.0963L29.3261 19.7073L29.2542 20.5428C29.1733 21.4772 29.2811 22.2498 29.5327 22.4745C29.6495 22.5823 30.0268 22.6452 30.8354 22.7081C32.1831 22.8249 33.0636 22.9956 34.1686 23.3639C36.1811 24.0377 37.987 25.2057 39.5413 26.8319C41.2034 28.5838 42.3714 30.803 42.8925 33.2288C43.0991 34.1721 43.162 36.0768 43.0362 37.1459C42.7757 39.2483 42.03 41.4674 41.0686 42.9678C39.1909 45.8967 36.3339 47.8374 32.7671 48.601C31.4374 48.8885 29.1643 48.9334 27.7897 48.6999C23.3874 47.9452 19.9913 45.4206 18.1944 41.5842C17.5026 40.0928 17.0354 38.3049 16.9276 36.6877C16.8288 35.385 16.694 35.1155 16.0921 35.1155C15.9393 35.1155 15.7597 35.1963 15.6249 35.3401C15.4272 35.5557 15.4183 35.5916 15.4722 36.7057C15.7327 42.3749 19.5511 47.487 25.0046 49.4995C27.9604 50.5956 31.5811 50.6764 34.546 49.7151C37.9601 48.601 41.1315 45.8518 42.8925 42.4647C44.1952 39.967 44.7882 37.128 44.5636 34.5405C44.2491 31.1264 42.8026 28.0627 40.3319 25.5831C38.8046 24.0467 37.5558 23.1932 35.6511 22.3756C34.2765 21.7916 32.1561 21.2795 31.105 21.2795H30.7186V20.5608V19.842L31.0331 19.7163C31.5542 19.5006 32.6772 18.6741 33.0726 18.2338C33.8632 17.3354 34.1866 16.2663 33.9171 15.4038C33.8452 15.1612 33.5577 14.6401 33.2882 14.2358C32.6503 13.3014 32.4976 12.7354 32.5694 11.6213C32.6413 10.669 32.5604 10.4534 32.1112 10.2647C31.7159 10.103 31.3206 10.112 30.8085 10.2916ZM31.2577 13.3643C31.3835 13.8584 31.7339 14.5502 32.1202 15.0983C32.5155 15.6284 32.6413 15.9967 32.5694 16.3741C32.5065 16.6885 31.9226 17.4342 31.5991 17.6049C31.4284 17.6948 31.4194 17.6858 31.4643 17.4522C31.5272 17.1018 31.3835 16.1674 31.1679 15.5565C30.7995 14.5143 30.2784 14.0471 29.7304 14.2717C29.2272 14.4784 29.1464 14.9276 29.5147 15.4666C29.9999 16.1854 30.1616 17.2186 29.8831 17.8745L29.7573 18.1799L29.38 17.7756C29.1733 17.56 28.8768 17.1108 28.7151 16.7963C28.4546 16.2663 28.4276 16.1315 28.4276 15.3948C28.4276 14.685 28.4636 14.5233 28.6882 14.0471C28.9936 13.4272 30.1077 12.2413 30.6737 11.9538L31.0331 11.7741L31.096 12.367C31.1319 12.6995 31.2038 13.1397 31.2577 13.3643Z" fill="url(#paint0_linear_4663_7301)"/>
<path d="M29.0115 24.0285C24.2947 24.4688 20.3056 27.6223 18.8142 32.0875C18.3291 33.534 18.2033 34.4684 18.2572 36.1035C18.338 38.134 18.7244 39.6793 19.5779 41.3594C21.0962 44.3332 23.6388 46.3188 27.0798 47.2172C28.0142 47.4598 28.167 47.4688 29.9998 47.4688C31.8326 47.4688 31.9853 47.4598 32.9107 47.2172C37.0255 46.1391 39.9634 43.4078 41.1853 39.5176C41.8322 37.4512 41.949 34.8547 41.4728 33.0488C40.2779 28.4937 36.8189 25.1516 32.3537 24.2531C31.4822 24.0734 29.7752 23.9566 29.0115 24.0285ZM30.4939 27.1641C30.7095 27.3707 30.7185 27.4246 30.7185 28.5566C30.7185 29.4281 30.7455 29.7246 30.8353 29.7246C31.1048 29.7246 31.9314 30.2098 32.3716 30.623C32.9826 31.207 33.3509 31.9617 33.3959 32.7793C33.4228 33.2824 33.4048 33.3902 33.2341 33.5609C33.0365 33.7855 32.6232 33.8305 32.3357 33.6777C32.165 33.5879 32.0302 33.2285 31.9314 32.5906C31.8146 31.818 30.8712 31.0723 29.9998 31.0723C29.2271 31.0723 28.4634 31.6023 28.131 32.357C27.9693 32.7254 28.0052 33.4891 28.1939 33.9023C28.3736 34.2977 28.8947 34.8008 29.272 34.9445C29.3978 34.9984 29.838 35.0703 30.2513 35.1152C31.59 35.259 32.4615 35.834 33.0095 36.9391C33.7193 38.3676 33.4498 40.0477 32.3537 41.0539C32.0212 41.3684 31.4373 41.6918 30.8802 41.8805C30.7365 41.9344 30.7185 42.0691 30.7185 43.0664C30.7185 44.1984 30.7185 44.2074 30.458 44.468C30.3142 44.6117 30.1255 44.7285 30.0447 44.7285C29.8291 44.7285 29.3978 44.4859 29.3349 44.3242C29.308 44.2434 29.281 43.6684 29.281 43.0574C29.281 42.0691 29.263 41.9344 29.1283 41.8805C27.6548 41.3863 26.7025 40.2633 26.6037 38.9066C26.5587 38.152 26.7295 37.8645 27.2416 37.8645C27.6548 37.8645 27.9154 38.098 27.9783 38.5203C28.1849 39.832 28.8587 40.4969 29.9818 40.5059C31.9134 40.5148 32.722 38.116 31.1767 36.9391C30.9701 36.7773 30.6736 36.6336 30.5119 36.6066C30.3591 36.5887 29.9279 36.5258 29.5595 36.4719C28.3377 36.2832 27.3763 35.5824 26.8732 34.5043C26.6576 34.0551 26.6306 33.8844 26.6306 33.0488C26.6306 32.1863 26.6576 32.0605 26.8912 31.5844C27.0349 31.3059 27.3673 30.8656 27.6279 30.6141C28.0681 30.2098 28.8947 29.7246 29.1732 29.7246C29.2541 29.7246 29.281 29.4371 29.281 28.5656C29.281 27.5324 29.299 27.3887 29.4697 27.173C29.7212 26.8586 30.1884 26.8496 30.4939 27.1641Z" fill="url(#paint1_linear_4663_7301)"/>
<defs>
<linearGradient id="paint0_linear_4663_7301" x1="65.4999" y1="23.7642" x2="-4.7295" y2="30.2663" gradientUnits="userSpaceOnUse">
<stop offset="0.276171" stop-color="#29F170"/>
<stop offset="0.835467" stop-color="#003CF0"/>
</linearGradient>
<linearGradient id="paint1_linear_4663_7301" x1="58.6082" y1="31.9462" x2="2.41442" y2="39.1402" gradientUnits="userSpaceOnUse">
<stop offset="0.276171" stop-color="#29F170"/>
<stop offset="0.835467" stop-color="#003CF0"/>
</linearGradient>
</defs>
</svg>
