<svg width="151" height="30" viewBox="0 0 151 30" fill="none" xmlns="http://www.w3.org/2000/svg">
<g clip-path="url(#clip0_5000_6149)">
<path d="M151 28.3585V0H135.681V28.3585C136.535 28.3585 137.229 29.0944 137.229 30H139.204C139.204 29.0944 139.897 28.3585 140.752 28.3585C141.606 28.3585 142.3 29.0944 142.3 30H144.275C144.275 29.0944 144.968 28.3585 145.822 28.3585C146.677 28.3585 147.37 29.0944 147.37 30H149.345C149.452 29.0944 150.146 28.3585 151 28.3585Z" fill="#CB3032"/>
<path fill-rule="evenodd" clip-rule="evenodd" d="M105.84 1.3009C106.545 1.3009 107.088 0.735294 107.088 0H130.21V7.63575H122.232V28.8461H114.036V7.63575H107.305C107.305 6.95701 106.763 6.33484 106.057 6.33484C105.351 6.33484 104.809 6.90045 104.809 7.63575H91.5107V11.086H104.971V17.7601H91.5107V21.2104H104.971V28.8461H83.4235C83.4235 28.1109 82.8807 27.5452 82.1751 27.5452C81.4695 27.5452 80.9267 28.1109 80.9267 28.8461H80.8725H73.328V20.871L66.9233 17.1946V28.8461H58.8904C58.8904 28.1109 58.3476 27.5452 57.642 27.5452C56.9364 27.5452 56.3936 28.1109 56.3936 28.8461H36.3112V7.69231V7.63575C36.3112 6.90045 35.7685 6.33484 35.0628 6.33484C34.3573 6.33484 33.8145 6.90045 33.8145 7.63575V7.69231V28.8461H25.4015V7.63575C25.4015 6.90045 24.8588 6.33484 24.1532 6.33484C23.4476 6.33484 22.9048 6.90045 22.9048 7.63575H16.1745V28.8461H7.9787V7.63575H0V0H22.8506C22.8506 0.735294 23.3933 1.3009 24.0989 1.3009C24.8045 1.3009 25.3473 0.735294 25.3473 0H33.7602C33.7602 0.735294 34.3029 1.3009 35.0086 1.3009C35.7141 1.3009 36.2569 0.735294 36.2569 0H56.3394C56.3394 0.735294 56.8822 1.3009 57.5877 1.3009C58.2934 1.3009 58.8361 0.735294 58.8361 0H66.8691V7.86199L73.2738 3.84615V0H80.7639C80.7639 0.735294 81.3067 1.3009 82.0123 1.3009C82.7179 1.3009 83.2607 0.735294 83.2607 0H104.592C104.592 0.735294 105.134 1.3009 105.84 1.3009ZM22.8506 3.84615C22.8506 4.58145 23.3933 5.14706 24.0989 5.14706C24.8045 5.14706 25.3473 4.58145 25.3473 3.84615C25.3473 3.11086 24.8045 2.54525 24.0989 2.54525C23.3933 2.54525 22.8506 3.11086 22.8506 3.84615ZM35.0628 5.14706C34.3573 5.14706 33.8145 4.58145 33.8145 3.84615C33.8145 3.11086 34.3573 2.54525 35.0628 2.54525C35.7685 2.54525 36.3112 3.11086 36.3112 3.84615C36.3112 4.58145 35.7141 5.14706 35.0628 5.14706ZM56.3394 25.0565C56.3394 25.7919 56.8822 26.3575 57.5877 26.3575C58.239 26.3575 58.8361 25.7919 58.8361 25.0565C58.8361 24.3213 58.2934 23.7556 57.5877 23.7556C56.8822 23.7556 56.3394 24.3213 56.3394 25.0565ZM58.7818 7.63575V21.2104C58.7818 21.9457 58.239 22.5114 57.5335 22.5114C56.8278 22.5114 56.2851 21.9457 56.2851 21.2104H44.3442V7.63575H56.3394C56.3394 6.90045 56.8822 6.33484 57.5877 6.33484C58.2934 6.33484 58.7818 6.90045 58.7818 7.63575ZM56.3394 3.84615C56.3394 4.58145 56.8822 5.14706 57.5877 5.14706C58.239 5.14706 58.8361 4.58145 58.8361 3.84615C58.8361 3.11086 58.2934 2.54525 57.5877 2.54525C56.8822 2.54525 56.3394 3.11086 56.3394 3.84615ZM82.0123 2.54525C82.7179 2.54525 83.2607 3.11086 83.2607 3.84615C83.2607 4.58145 82.7179 5.14706 82.0123 5.14706C81.3067 5.14706 80.7639 4.58145 80.7639 3.84615C80.7639 3.11086 81.3609 2.54525 82.0123 2.54525ZM80.7639 25.0565C80.7639 25.7919 81.3067 26.3575 82.0123 26.3575C82.7179 26.3575 83.2607 25.7919 83.2607 25.0565C83.2607 24.3213 82.7179 23.7556 82.0123 23.7556C81.3067 23.7556 80.7639 24.3213 80.7639 25.0565ZM83.2607 21.2104C83.2607 21.9457 82.7179 22.5114 82.0123 22.5114C81.3067 22.5114 80.7639 21.9457 80.7639 21.2104V16.7421L73.1652 12.4434L80.8182 7.63575C80.8182 6.90045 81.3609 6.33484 82.0666 6.33484C82.7721 6.33484 83.3149 6.90045 83.3149 7.63575V7.69231C83.2607 7.86199 83.2607 20.8145 83.2607 21.2104ZM104.592 3.84615C104.592 4.58145 105.134 5.14706 105.84 5.14706C106.545 5.14706 107.088 4.58145 107.088 3.84615C107.088 3.11086 106.545 2.54525 105.84 2.54525C105.134 2.54525 104.592 3.11086 104.592 3.84615Z" fill="#303030"/>
<path d="M147.717 13.8529V9.27517L144.044 7.20577L147.717 4.94824V2.31445H145.207V3.75677L141.719 5.95158V2.31445H138.964V13.8529H141.719V8.58537L145.207 10.5921V13.8529H147.717Z" fill="#FFF9F9"/>
<path d="M147.717 17.5084V15H138.964V26.5385H147.717V19.6405H143.616V22.1489H145.33V24.0301H141.719V17.5084H147.717Z" fill="#FFF9F9"/>
</g>
<defs>
<clipPath id="clip0_5000_6149">
<rect width="151" height="30" fill="white"/>
</clipPath>
</defs>
</svg>
