<svg width="160" height="160" viewBox="0 0 160 160" fill="none" xmlns="http://www.w3.org/2000/svg">
<g clip-path="url(#clip0_3056_1876)">
<g filter="url(#filter0_d_3056_1876)">
<path d="M81.5962 15.7562C100.514 2.51003 126.677 14.71 128.689 37.7161L135.332 113.636C137.344 136.642 113.697 153.2 92.7671 143.44L23.6972 111.232C2.76692 101.472 0.250951 72.7148 19.1685 59.4686L81.5962 15.7562Z" fill="white"/>
</g>
<path d="M51.9991 81.457H107.894V86.053C107.894 101.488 95.3818 114.001 79.9467 114.001C64.5117 114.001 51.9991 101.488 51.9991 86.053V81.457Z" fill="url(#paint0_radial_3056_1876)"/>
<path d="M52.0519 80.8652H56.9786H60.5784L61.7783 81.7898C63.8782 82.4061 64.7782 83.947 64.7782 83.947C66.878 87.6452 68.378 87.9533 68.378 87.9533C71.9778 88.8779 71.3778 91.6515 71.3778 91.6515C69.8779 96.2741 68.378 99.3559 68.378 99.3559C67.178 102.438 68.6779 104.903 68.6779 104.903C70.7778 108.909 66.7083 111.042 66.7083 111.042C49.3093 101.797 52.0519 80.8652 52.0519 80.8652Z" fill="url(#paint1_radial_3056_1876)" stroke="white" stroke-width="2"/>
<path d="M72.8418 46.1402C72.0892 46.3927 71.5152 46.7914 70.8902 47.4958C70.0738 48.4261 69.8187 49.1305 69.8059 50.4861C69.8059 51.5227 69.8442 51.7088 70.2269 52.4664C70.4565 52.9315 70.6223 53.3169 70.6095 53.3302C70.584 53.3435 70.2651 53.5296 69.8952 53.7422C69.0533 54.2074 68.1477 55.2174 67.714 56.1876C67.4206 56.8388 67.3823 57.1312 67.3186 58.8988L67.2548 60.8658L66.6042 61.1183C65.6603 61.4904 64.8567 62.2878 64.3592 63.3377C63.9893 64.1086 63.9383 64.3478 63.9383 65.2914C63.9383 66.3413 64.0148 66.5938 64.7419 68.0425C64.7674 68.0956 64.4868 68.295 64.1296 68.4811C63.2367 68.9595 62.3821 69.8898 61.9101 70.9397C61.5275 71.777 61.5147 71.8568 61.4764 73.9965C61.4382 76.1096 61.4509 76.2027 61.7316 76.6545C62.3438 77.6114 62.2673 77.5981 68.4028 77.5317C71.4259 77.5051 73.977 77.4785 74.0791 77.4785C74.1811 77.4652 75.1123 77.4918 76.1455 77.5317C78.0206 77.5981 83.7479 77.5317 83.7479 77.5317C83.7479 77.5317 84.7301 75.5913 83.327 75.5913H75.0995V73.9566C75.0995 72.0428 75.2526 71.5644 76.1455 70.7271C77.0001 69.9031 77.3828 69.8101 79.9467 69.8101C82.5106 69.8101 82.8933 69.9031 83.7479 70.7271C84.6408 71.5644 84.7939 72.0428 84.7939 73.9566V75.5913H83.327C81.9238 75.5913 81.8346 75.6046 81.5412 75.9236C81.133 76.3356 81.133 76.8406 81.5412 77.2659C81.8728 77.5981 81.8728 77.5981 83.7479 77.5317C84.7811 77.4918 85.7123 77.4652 85.8143 77.4785C85.9164 77.4785 88.4803 77.5051 91.4906 77.5317C97.6261 77.5981 97.5496 77.6114 98.1619 76.6545C98.4425 76.2027 98.4552 76.1096 98.417 73.9965C98.3787 71.8568 98.366 71.777 97.9833 70.9265C97.5241 69.9164 96.5802 68.8798 95.7128 68.4412C95.3811 68.2684 95.1388 68.0823 95.1515 68.0425C95.8531 66.6869 95.9551 66.328 95.9551 65.2914C95.9551 64.3478 95.9041 64.1086 95.5342 63.3377C95.0367 62.2878 94.2331 61.4904 93.2892 61.1183L92.6386 60.8658L92.5749 58.8988C92.5111 57.1312 92.4728 56.8388 92.1794 56.1876C91.7457 55.2174 90.8401 54.2074 89.9982 53.7422C89.6283 53.5296 89.3094 53.3435 89.2839 53.3302C89.2711 53.3169 89.437 52.9315 89.6666 52.4664C90.0492 51.7088 90.0875 51.5095 90.0875 50.4861C90.0875 49.5026 90.0365 49.2368 89.7303 48.5989C89.3222 47.7085 88.34 46.7117 87.4981 46.313C86.5924 45.8744 84.9725 45.901 84.0285 46.3661C83.1356 46.8047 82.3448 47.6287 81.8983 48.5856C81.5922 49.2368 81.5412 49.5026 81.5412 50.4861C81.5412 51.5095 81.5794 51.7088 81.9621 52.4664C82.1917 52.9315 82.3575 53.3169 82.3448 53.3302C82.3193 53.3568 82.0514 53.503 81.7453 53.6625C81.4391 53.8219 80.9034 54.2207 80.5717 54.5529L79.9467 55.1643L79.3217 54.5529C78.99 54.2207 78.4543 53.8219 78.1482 53.6625C77.842 53.503 77.5741 53.3568 77.5486 53.3302C77.5359 53.3169 77.7017 52.9315 77.9313 52.4664C78.314 51.7088 78.3522 51.5095 78.3522 50.4861C78.3522 49.5026 78.3012 49.2368 77.9951 48.5856C77.268 47.0307 75.9031 46.0738 74.2959 46.0073C73.7474 45.9807 73.1607 46.0339 72.8418 46.1402ZM74.9465 48.147C76.9874 49.0375 76.9874 51.9082 74.9465 52.7986C74.347 53.0511 73.8112 53.0511 73.2117 52.7986C71.209 51.9215 71.158 49.1438 73.1224 48.2002C73.7474 47.8945 74.3214 47.8812 74.9465 48.147ZM86.6817 48.147C88.7226 49.0375 88.7226 51.9082 86.6817 52.7986C86.0822 53.0511 85.5465 53.0511 84.9469 52.7986C82.9443 51.9215 82.8933 49.1438 84.8577 48.2002C85.4827 47.8945 86.0567 47.8812 86.6817 48.147ZM76.6557 55.1244C77.4083 55.3503 78.1864 56.0414 78.5818 56.8388C78.9007 57.5033 78.9263 57.6894 78.9263 59.138V60.7063H74.0791H69.2319V59.1248C69.2319 57.6628 69.2574 57.49 69.5891 56.8521C69.9717 56.068 70.6223 55.4566 71.3494 55.1908C71.9489 54.9649 75.9414 54.925 76.6557 55.1244ZM88.391 55.1244C89.1181 55.337 89.9089 56.0414 90.3043 56.8388C90.636 57.5033 90.6615 57.6495 90.6615 59.1248V60.7063H85.8143H80.9672V59.138C80.9672 57.6894 80.9927 57.5166 81.3243 56.8521C81.707 56.0547 82.332 55.4699 83.0846 55.1908C83.6841 54.9649 87.6767 54.925 88.391 55.1244ZM76.2093 62.9257C76.1583 63.0587 76.0052 63.5238 75.8521 63.9624C75.4184 65.2382 75.5715 66.235 76.4772 68.0425C76.5027 68.0956 76.222 68.295 75.8649 68.4811C75.495 68.6671 74.9465 69.0924 74.6403 69.4114L74.0791 69.9961L73.4668 69.3715C73.1224 69.026 72.5739 68.6007 72.2423 68.4412C71.9106 68.2684 71.6683 68.0823 71.681 68.0425C72.5356 66.3812 72.7015 65.411 72.3571 64.0953C72.2423 63.6168 72.0892 63.1916 72.0254 63.1517C71.9616 63.1118 71.9106 62.9922 71.9106 62.8859C71.9106 62.7264 72.2805 62.6998 74.0918 62.6998C76.12 62.6998 76.2731 62.7131 76.2093 62.9257ZM87.9828 62.8061C87.9828 62.8726 87.8552 63.1783 87.7022 63.5105C87.4853 63.9757 87.4216 64.3345 87.4088 65.225C87.4088 66.3546 87.4726 66.5673 88.2124 68.0425C88.2379 68.0956 87.9573 68.295 87.6001 68.4811C87.2302 68.6671 86.6817 69.0924 86.3756 69.4247L85.8016 70.0094L85.1893 69.3848C84.8577 69.026 84.3092 68.6007 83.9775 68.4412C83.6459 68.2684 83.4035 68.0823 83.4163 68.0425C84.3092 66.3015 84.475 65.225 84.0413 63.9624C83.8882 63.5238 83.7352 63.0587 83.6841 62.9257C83.6204 62.7131 83.7734 62.6998 85.8016 62.6998C87.0006 62.6998 87.9828 62.753 87.9828 62.8061ZM69.3595 63.0985C70.5458 63.7365 70.9667 65.4775 70.2141 66.6603C69.2829 68.1488 67.0507 68.1089 66.1578 66.5938C65.7113 65.8363 65.7368 64.6668 66.1961 63.9225C66.4001 63.6168 66.7701 63.258 67.0252 63.1118C67.6757 62.753 68.7089 62.753 69.3595 63.0985ZM81.0947 63.0985C81.3753 63.2447 81.758 63.6035 81.9366 63.8959C83.0081 65.5838 81.8856 67.7501 79.9467 67.7501C78.0078 67.7501 76.8853 65.5838 77.9441 63.8959C78.5946 62.8859 80.0105 62.527 81.0947 63.0985ZM92.83 63.0985C93.6081 63.5105 94.0418 64.2946 94.0418 65.2781C94.0418 65.8895 93.9652 66.2084 93.7356 66.5938C92.8427 68.1089 90.6105 68.1488 89.6793 66.6603C89.3859 66.2084 89.3222 65.9559 89.3222 65.2781C89.3222 64.5737 89.3732 64.3744 89.7048 63.8826C89.9217 63.577 90.2916 63.2181 90.5339 63.0852C91.1335 62.7397 92.1794 62.753 92.83 63.0985ZM71.1453 70.1025C71.8468 70.4347 72.5867 71.2321 72.88 71.9365C73.0076 72.2688 73.1096 73.013 73.1607 74.0231L73.2245 75.5913H68.288H63.3643V73.9965C63.3643 72.1624 63.4918 71.684 64.2317 70.8999C65.1628 69.8898 65.7369 69.7436 68.5304 69.7968C70.2779 69.8234 70.6478 69.8632 71.1453 70.1025ZM94.6158 70.0892C95.2663 70.3948 96.0827 71.272 96.3506 71.9498C96.4654 72.2422 96.5291 72.92 96.5291 73.9965V75.5913H91.6054H86.669L86.7327 74.0231C86.822 72.2422 87.0006 71.6574 87.7022 70.8999C88.6333 69.8898 89.2074 69.7436 92.0009 69.7968C93.7356 69.8234 94.1311 69.8632 94.6158 70.0892Z" fill="url(#paint2_radial_3056_1876)"/>
<path d="M100.246 91.8121C102.011 88.9144 102.011 80.8652 102.011 80.8652H83.1827C83.4769 82.797 85.5362 83.441 85.5362 83.441L91.1258 84.4069C93.7734 85.6947 92.5967 89.5583 92.5967 89.5583C90.8316 94.7098 91.1258 95.6757 91.1258 95.6757C91.1258 96.9635 92.0083 100.827 92.0083 100.827C92.5967 103.403 94.3618 101.471 94.3618 101.471C97.3037 98.5734 100.246 91.8121 100.246 91.8121Z" fill="url(#paint3_radial_3056_1876)" stroke="white" stroke-width="2"/>
</g>
<defs>
<filter id="filter0_d_3056_1876" x="-6.62659" y="7.29297" width="145.078" height="152.004" filterUnits="userSpaceOnUse" color-interpolation-filters="sRGB">
<feFlood flood-opacity="0" result="BackgroundImageFix"/>
<feColorMatrix in="SourceAlpha" type="matrix" values="0 0 0 0 0 0 0 0 0 0 0 0 0 0 0 0 0 0 127 0" result="hardAlpha"/>
<feOffset dx="-5" dy="5"/>
<feGaussianBlur stdDeviation="4"/>
<feComposite in2="hardAlpha" operator="out"/>
<feColorMatrix type="matrix" values="0 0 0 0 0 0 0 0 0 0 0 0 0 0 0 0 0 0 0.25 0"/>
<feBlend mode="normal" in2="BackgroundImageFix" result="effect1_dropShadow_3056_1876"/>
<feBlend mode="normal" in="SourceGraphic" in2="effect1_dropShadow_3056_1876" result="shape"/>
</filter>
<radialGradient id="paint0_radial_3056_1876" cx="0" cy="0" r="1" gradientUnits="userSpaceOnUse" gradientTransform="translate(62.8684 87.9654) rotate(22.011) scale(93.1212 69.0779)">
<stop stop-color="#00862D"/>
<stop offset="0.627261" stop-color="#0033CC"/>
</radialGradient>
<radialGradient id="paint1_radial_3056_1876" cx="0" cy="0" r="1" gradientUnits="userSpaceOnUse" gradientTransform="translate(55.6904 86.9002) rotate(47.0256) scale(44.2314 47.0966)">
<stop stop-color="#00862D"/>
<stop offset="0.627261" stop-color="#0033CC"/>
</radialGradient>
<radialGradient id="paint2_radial_3056_1876" cx="0" cy="0" r="1" gradientUnits="userSpaceOnUse" gradientTransform="translate(68.6502 71.2535) rotate(-30.6597) scale(66.3855 62.1686)">
<stop stop-color="#00862D"/>
<stop offset="0.627261" stop-color="#0033CC"/>
</radialGradient>
<radialGradient id="paint3_radial_3056_1876" cx="0" cy="0" r="1" gradientUnits="userSpaceOnUse" gradientTransform="translate(86.844 85.1252) rotate(38.1508) scale(36.9803 38.3516)">
<stop stop-color="#00862D"/>
<stop offset="0.627261" stop-color="#0033CC"/>
</radialGradient>
<clipPath id="clip0_3056_1876">
<rect width="160" height="160" fill="white"/>
</clipPath>
</defs>
</svg>
