<svg width="160" height="161" viewBox="0 0 160 161" fill="none" xmlns="http://www.w3.org/2000/svg">
<g clip-path="url(#clip0_3056_1877)">
<g filter="url(#filter0_d_3056_1877)">
<path d="M81.0962 15.7562C100.014 2.51003 126.177 14.71 128.189 37.7161L134.832 113.636C136.844 136.642 113.197 153.2 92.2671 143.44L23.1972 111.232C2.26692 101.472 -0.249049 72.7148 18.6685 59.4686L81.0962 15.7562Z" fill="white"/>
</g>
<g clip-path="url(#clip1_3056_1877)">
<path d="M61.0795 46.146C59.3662 46.478 57.5334 47.8991 56.7498 49.5061C56.4975 50.0241 56.2186 50.7679 56.1521 51.1663C55.9662 52.1624 55.9662 107.864 56.1521 108.833C56.4842 110.573 57.892 112.473 59.4459 113.256C60.96 114.026 60.2428 114 79.3412 114C90.4709 114 97.1514 113.947 97.6029 113.867C100.02 113.416 102.172 111.264 102.637 108.833C102.822 107.851 102.822 52.1491 102.637 51.1663C102.291 49.3335 100.923 47.5405 99.2631 46.7304C98.7451 46.478 98.0014 46.1991 97.6029 46.1327C97.2178 46.053 95.3451 45.9999 93.4592 45.9999H90.0193V47.3147C90.0193 48.0319 89.9529 48.935 89.8865 49.3335C89.4217 51.764 87.2834 53.9022 84.8529 54.3671C84.4412 54.4468 82.0639 54.4999 79.2748 54.4866C75.1311 54.4866 74.2811 54.4468 73.5373 54.2608C71.2396 53.6632 69.3404 51.6311 68.9021 49.3335C68.8357 48.935 68.7693 48.0319 68.7693 47.3147V45.9999L65.2232 46.0132C63.2576 46.0265 61.3982 46.0796 61.0795 46.146ZM80.5631 63.3585C81.3467 63.9429 81.4529 64.2218 81.5193 65.9483L81.5857 67.5421L82.2498 67.7679C82.6217 67.9007 83.0998 68.0999 83.3256 68.2194L83.7373 68.4319L84.6537 67.5022C85.7561 66.3866 86.0881 66.1874 86.9248 66.1874C88.1201 66.1874 88.9568 67.0241 88.9568 68.2194C88.9568 69.0561 88.7576 69.3882 87.642 70.4905L86.7123 71.4069L86.9248 71.8186C87.0443 72.0444 87.2436 72.5225 87.3764 72.8944L87.6021 73.5585L89.1959 73.6249C90.9225 73.6913 91.2014 73.7975 91.799 74.6077C92.1842 75.1257 92.1842 76.3741 91.799 76.8921C91.2014 77.7022 90.9225 77.8085 89.1959 77.8749L87.6021 77.9413L87.3764 78.6054C87.2436 78.964 87.0443 79.4554 86.9248 79.6811L86.7123 80.0929L87.642 81.0093C88.7443 82.085 88.9834 82.4835 88.9834 83.2538C88.9834 84.2499 88.3725 85.0335 87.3896 85.3124C86.5396 85.5382 85.9686 85.2725 84.7732 84.1171L83.7107 83.0811L83.3123 83.2804C83.0998 83.3999 82.6217 83.5991 82.2498 83.7319L81.5857 83.9577L81.5193 85.5515C81.4529 87.278 81.3467 87.5569 80.5365 88.1546C80.0186 88.5397 78.7701 88.5397 78.2521 88.1546C77.442 87.5569 77.3357 87.278 77.2693 85.5515L77.2029 83.9577L76.5389 83.7319C76.167 83.5991 75.6889 83.3999 75.4764 83.2804L75.0779 83.0811L74.0154 84.1171C72.8068 85.2858 72.1693 85.578 71.3592 85.3124C70.3764 84.9936 69.8053 84.2366 69.8053 83.2538C69.8053 82.4835 70.0443 82.085 71.1467 81.0093L72.0764 80.0929L71.8639 79.6811C71.7443 79.4554 71.5451 78.964 71.4123 78.6054L71.1865 77.9413L69.5928 77.8749C67.8662 77.8085 67.5873 77.7022 66.9896 76.8921C66.6045 76.3741 66.6045 75.1257 66.9896 74.6077C67.5873 73.7975 67.8662 73.6913 69.5928 73.6249L71.1865 73.5585L71.4123 72.8944C71.5451 72.5225 71.7443 72.0444 71.8639 71.8186L72.0764 71.4069L71.1467 70.4905C70.0311 69.3882 69.8318 69.0561 69.8318 68.2194C69.8318 67.0241 70.6686 66.1874 71.8639 66.1874C72.7006 66.1874 73.0326 66.3866 74.1217 67.489L75.0381 68.4054L75.9146 68.0335C76.4061 67.8343 76.9107 67.635 77.0436 67.5952C77.2428 67.5288 77.2693 67.3429 77.2693 66.1343C77.2693 64.2882 77.5482 63.6374 78.5311 63.1858C79.0623 62.9335 80.1115 63.0265 80.5631 63.3585ZM93.2865 93.0952C93.9904 93.6132 94.2029 94.0382 94.2029 94.8749C94.2029 95.7116 93.9904 96.1366 93.2865 96.6546C92.9279 96.9335 92.8217 96.9335 79.6865 96.9733C70.642 96.9999 66.2857 96.9733 65.9537 96.8671C64.6123 96.4819 64.0943 94.6358 65.0107 93.5335C65.7014 92.7233 64.9576 92.7499 79.5537 92.7897C92.8217 92.8163 92.9279 92.8163 93.2865 93.0952ZM93.2865 101.595C93.9904 102.113 94.2029 102.538 94.2029 103.375C94.2029 104.212 93.9904 104.637 93.2865 105.155C92.9279 105.433 92.8217 105.433 79.6865 105.473C70.642 105.5 66.2857 105.473 65.9537 105.367C64.6123 104.982 64.0943 103.136 65.0107 102.033C65.7014 101.223 64.9576 101.25 79.5537 101.29C92.8217 101.316 92.9279 101.316 93.2865 101.595Z" fill="black"/>
<path d="M61.0795 46.146C59.3662 46.478 57.5334 47.8991 56.7498 49.5061C56.4975 50.0241 56.2186 50.7679 56.1521 51.1663C55.9662 52.1624 55.9662 107.864 56.1521 108.833C56.4842 110.573 57.892 112.473 59.4459 113.256C60.96 114.026 60.2428 114 79.3412 114C90.4709 114 97.1514 113.947 97.6029 113.867C100.02 113.416 102.172 111.264 102.637 108.833C102.822 107.851 102.822 52.1491 102.637 51.1663C102.291 49.3335 100.923 47.5405 99.2631 46.7304C98.7451 46.478 98.0014 46.1991 97.6029 46.1327C97.2178 46.053 95.3451 45.9999 93.4592 45.9999H90.0193V47.3147C90.0193 48.0319 89.9529 48.935 89.8865 49.3335C89.4217 51.764 87.2834 53.9022 84.8529 54.3671C84.4412 54.4468 82.0639 54.4999 79.2748 54.4866C75.1311 54.4866 74.2811 54.4468 73.5373 54.2608C71.2396 53.6632 69.3404 51.6311 68.9021 49.3335C68.8357 48.935 68.7693 48.0319 68.7693 47.3147V45.9999L65.2232 46.0132C63.2576 46.0265 61.3982 46.0796 61.0795 46.146ZM80.5631 63.3585C81.3467 63.9429 81.4529 64.2218 81.5193 65.9483L81.5857 67.5421L82.2498 67.7679C82.6217 67.9007 83.0998 68.0999 83.3256 68.2194L83.7373 68.4319L84.6537 67.5022C85.7561 66.3866 86.0881 66.1874 86.9248 66.1874C88.1201 66.1874 88.9568 67.0241 88.9568 68.2194C88.9568 69.0561 88.7576 69.3882 87.642 70.4905L86.7123 71.4069L86.9248 71.8186C87.0443 72.0444 87.2436 72.5225 87.3764 72.8944L87.6021 73.5585L89.1959 73.6249C90.9225 73.6913 91.2014 73.7975 91.799 74.6077C92.1842 75.1257 92.1842 76.3741 91.799 76.8921C91.2014 77.7022 90.9225 77.8085 89.1959 77.8749L87.6021 77.9413L87.3764 78.6054C87.2436 78.964 87.0443 79.4554 86.9248 79.6811L86.7123 80.0929L87.642 81.0093C88.7443 82.085 88.9834 82.4835 88.9834 83.2538C88.9834 84.2499 88.3725 85.0335 87.3896 85.3124C86.5396 85.5382 85.9686 85.2725 84.7732 84.1171L83.7107 83.0811L83.3123 83.2804C83.0998 83.3999 82.6217 83.5991 82.2498 83.7319L81.5857 83.9577L81.5193 85.5515C81.4529 87.278 81.3467 87.5569 80.5365 88.1546C80.0186 88.5397 78.7701 88.5397 78.2521 88.1546C77.442 87.5569 77.3357 87.278 77.2693 85.5515L77.2029 83.9577L76.5389 83.7319C76.167 83.5991 75.6889 83.3999 75.4764 83.2804L75.0779 83.0811L74.0154 84.1171C72.8068 85.2858 72.1693 85.578 71.3592 85.3124C70.3764 84.9936 69.8053 84.2366 69.8053 83.2538C69.8053 82.4835 70.0443 82.085 71.1467 81.0093L72.0764 80.0929L71.8639 79.6811C71.7443 79.4554 71.5451 78.964 71.4123 78.6054L71.1865 77.9413L69.5928 77.8749C67.8662 77.8085 67.5873 77.7022 66.9896 76.8921C66.6045 76.3741 66.6045 75.1257 66.9896 74.6077C67.5873 73.7975 67.8662 73.6913 69.5928 73.6249L71.1865 73.5585L71.4123 72.8944C71.5451 72.5225 71.7443 72.0444 71.8639 71.8186L72.0764 71.4069L71.1467 70.4905C70.0311 69.3882 69.8318 69.0561 69.8318 68.2194C69.8318 67.0241 70.6686 66.1874 71.8639 66.1874C72.7006 66.1874 73.0326 66.3866 74.1217 67.489L75.0381 68.4054L75.9146 68.0335C76.4061 67.8343 76.9107 67.635 77.0436 67.5952C77.2428 67.5288 77.2693 67.3429 77.2693 66.1343C77.2693 64.2882 77.5482 63.6374 78.5311 63.1858C79.0623 62.9335 80.1115 63.0265 80.5631 63.3585ZM93.2865 93.0952C93.9904 93.6132 94.2029 94.0382 94.2029 94.8749C94.2029 95.7116 93.9904 96.1366 93.2865 96.6546C92.9279 96.9335 92.8217 96.9335 79.6865 96.9733C70.642 96.9999 66.2857 96.9733 65.9537 96.8671C64.6123 96.4819 64.0943 94.6358 65.0107 93.5335C65.7014 92.7233 64.9576 92.7499 79.5537 92.7897C92.8217 92.8163 92.9279 92.8163 93.2865 93.0952ZM93.2865 101.595C93.9904 102.113 94.2029 102.538 94.2029 103.375C94.2029 104.212 93.9904 104.637 93.2865 105.155C92.9279 105.433 92.8217 105.433 79.6865 105.473C70.642 105.5 66.2857 105.473 65.9537 105.367C64.6123 104.982 64.0943 103.136 65.0107 102.033C65.7014 101.223 64.9576 101.25 79.5537 101.29C92.8217 101.316 92.9279 101.316 93.2865 101.595Z" fill="url(#paint0_radial_3056_1877)"/>
<path d="M78.0264 71.8188C76.2998 72.4563 75.224 73.9836 75.224 75.8164C75.224 77.4367 76.0607 78.7781 77.5748 79.5617C78.1725 79.8805 78.4248 79.9336 79.3943 79.9336C80.3639 79.9336 80.6162 79.8805 81.2139 79.5617C81.599 79.3625 82.1303 78.9906 82.3959 78.7117C84.335 76.7859 83.8037 73.4258 81.36 72.0977C80.7889 71.7789 80.4701 71.7125 79.5936 71.6727C78.9029 71.6461 78.3584 71.6992 78.0264 71.8188Z" fill="black"/>
<path d="M78.0264 71.8188C76.2998 72.4563 75.224 73.9836 75.224 75.8164C75.224 77.4367 76.0607 78.7781 77.5748 79.5617C78.1725 79.8805 78.4248 79.9336 79.3943 79.9336C80.3639 79.9336 80.6162 79.8805 81.2139 79.5617C81.599 79.3625 82.1303 78.9906 82.3959 78.7117C84.335 76.7859 83.8037 73.4258 81.36 72.0977C80.7889 71.7789 80.4701 71.7125 79.5936 71.6727C78.9029 71.6461 78.3584 71.6992 78.0264 71.8188Z" fill="url(#paint1_radial_3056_1877)"/>
<path d="M73.0459 47.4346C73.0858 48.7893 73.1123 48.9088 73.4709 49.3736C74.135 50.2635 74.1881 50.2635 79.5936 50.2236C84.2287 50.1838 84.4412 50.1705 84.7865 49.9049C85.5834 49.3205 85.703 49.015 85.7428 47.4478L85.7959 46.0002H79.3944H72.9928L73.0459 47.4346Z" fill="black"/>
<path d="M73.0459 47.4346C73.0858 48.7893 73.1123 48.9088 73.4709 49.3736C74.135 50.2635 74.1881 50.2635 79.5936 50.2236C84.2287 50.1838 84.4412 50.1705 84.7865 49.9049C85.5834 49.3205 85.703 49.015 85.7428 47.4478L85.7959 46.0002H79.3944H72.9928L73.0459 47.4346Z" fill="url(#paint2_radial_3056_1877)"/>
</g>
</g>
<defs>
<filter id="filter0_d_3056_1877" x="-7.12659" y="7.29297" width="145.078" height="152.004" filterUnits="userSpaceOnUse" color-interpolation-filters="sRGB">
<feFlood flood-opacity="0" result="BackgroundImageFix"/>
<feColorMatrix in="SourceAlpha" type="matrix" values="0 0 0 0 0 0 0 0 0 0 0 0 0 0 0 0 0 0 127 0" result="hardAlpha"/>
<feOffset dx="-5" dy="5"/>
<feGaussianBlur stdDeviation="4"/>
<feComposite in2="hardAlpha" operator="out"/>
<feColorMatrix type="matrix" values="0 0 0 0 0 0 0 0 0 0 0 0 0 0 0 0 0 0 0.25 0"/>
<feBlend mode="normal" in2="BackgroundImageFix" result="effect1_dropShadow_3056_1877"/>
<feBlend mode="normal" in="SourceGraphic" in2="effect1_dropShadow_3056_1877" result="shape"/>
</filter>
<radialGradient id="paint0_radial_3056_1877" cx="0" cy="0" r="1" gradientUnits="userSpaceOnUse" gradientTransform="translate(65.1062 100.401) rotate(-45.2747) scale(102.64 109.558)">
<stop stop-color="#00862D"/>
<stop offset="0.627261" stop-color="#0033CC"/>
</radialGradient>
<radialGradient id="paint1_radial_3056_1877" cx="0" cy="0" r="1" gradientUnits="userSpaceOnUse" gradientTransform="translate(76.8477 78.2802) rotate(-34.5087) scale(15.6503 15.5981)">
<stop stop-color="#00862D"/>
<stop offset="0.627261" stop-color="#0033CC"/>
</radialGradient>
<radialGradient id="paint2_radial_3056_1877" cx="0" cy="0" r="1" gradientUnits="userSpaceOnUse" gradientTransform="translate(75.4825 49.3892) rotate(-12.938) scale(20.2903 9.45243)">
<stop stop-color="#00862D"/>
<stop offset="0.627261" stop-color="#0033CC"/>
</radialGradient>
<clipPath id="clip0_3056_1877">
<rect width="159" height="161" fill="white" transform="translate(0.5)"/>
</clipPath>
<clipPath id="clip1_3056_1877">
<rect width="68" height="68" fill="white" transform="translate(45.3943 46)"/>
</clipPath>
</defs>
</svg>
