<svg width="72" height="100" viewBox="0 0 72 100" fill="none" xmlns="http://www.w3.org/2000/svg">
<path fill-rule="evenodd" clip-rule="evenodd" d="M55.7822 18.5457H15.7695C15.7695 18.5457 14.8106 23.8443 10.2768 26.8308C5.61781 29.9232 0 30.9155 0 30.9155C0 30.9155 2.98087 53.9886 6.69135 63.9308C16.1239 88.8825 35.7186 96.7245 35.7186 96.7245C35.7186 96.7245 55.4278 88.8825 64.8603 63.9308C68.5604 53.9886 71.5518 30.9155 71.5518 30.9155C71.5518 30.9155 65.9338 29.9232 61.2749 26.8308C56.741 23.8443 55.7822 18.5457 55.7822 18.5457Z" fill="#010005"/>
<path fill-rule="evenodd" clip-rule="evenodd" d="M26.1617 88.2173C29.0279 90.7606 32.4883 92.6296 35.7193 94.7298C47.6637 87.6585 55.3139 79.7106 61.161 67.6779C66.1743 56.31 66.7788 43.9401 69.2803 32.2349C61.9948 30.0287 56.7419 27.4854 54.23 20.3082H17.3233C14.9365 26.9363 9.44366 30.5779 2.1582 32.2349C5.61853 52.7743 7.65099 73.4197 26.1617 88.2173Z" fill="white"/>
<path fill-rule="evenodd" clip-rule="evenodd" d="M47.6637 83.4679C60.3273 71.2136 63.3082 56.753 65.695 40.7415C66.1744 38.4198 66.5288 35.549 67.1229 33.3428C59.9521 31.4642 55.8977 28.1501 52.7917 22.0807H18.7512C15.2908 28.2657 11.7055 31.3582 4.29492 33.5644C6.92144 50.3466 9.43331 67.3504 21.4923 81.2617C25.6718 85.674 30.5705 89.3253 35.8235 92.6297C39.8988 89.9804 43.9636 86.7819 47.6637 83.4679Z" fill="#010005"/>
<path fill-rule="evenodd" clip-rule="evenodd" d="M59.6045 54.6522C60.9178 48.4672 62.3562 41.6271 63.0649 35.4422C56.9781 32.8988 54.1014 30.1436 50.7661 25.1725H20.7801C17.0801 30.2496 14.6932 32.8989 8.24159 35.5482H8.12695C10.5137 50.6734 13.6197 69.1126 25.6891 80.8178C28.5554 83.5827 32.4952 86.5596 35.7263 88.7657C48.9735 79.8255 56.2589 69.1126 59.6045 54.6522Z" fill="white"/>
<path fill-rule="evenodd" clip-rule="evenodd" d="M12.4219 38.3147L12.5365 38.5363C15.5174 56.3108 18.8631 72.6498 35.8312 84.2489C44.43 77.5149 51.1213 69.2297 54.3419 59.2972C56.6141 52.4571 57.3332 45.0583 58.8758 38.1027C55.1757 36.3397 50.2771 32.6885 48.4844 29.4901H22.928C20.1868 33.2376 16.7264 36.2145 12.4219 38.3147Z" fill="#010005"/>
<path fill-rule="evenodd" clip-rule="evenodd" d="M16.9687 51.2331C19.9496 62.7167 24.8483 74.7493 35.8443 81.9266C40.9826 76.9555 46.2356 72.1 49.4562 65.6935C53.8754 57.4084 55.0741 48.025 56.627 38.9788C53.7608 37.6493 48.8622 33.9018 47.4343 31.2524H23.8998C21.6277 34.0174 18.4071 37.5434 14.707 39.2004C15.4158 43.1695 16.2496 47.2543 16.9687 51.2331Z" fill="white"/>
<path fill-rule="evenodd" clip-rule="evenodd" d="M29.7467 74.8547C31.5394 76.7333 33.5719 78.7179 35.719 80.1534C41.5765 74.3056 46.5898 69.007 49.9355 61.4925C52.3223 54.4309 53.8752 46.9165 55.0738 39.7393C52.562 38.6314 47.903 34.8838 46.7148 32.562H24.6188C21.9923 35.6545 19.4804 37.7547 16.2598 39.9609C18.7716 51.772 20.679 63.034 28.4439 73.1977L29.7467 74.8547Z" fill="#010005"/>
<path fill-rule="evenodd" clip-rule="evenodd" d="M38.6155 93.1503C39.9288 87.187 39.8142 79.239 39.8142 71.8402C39.8142 56.9366 40.0539 25.9156 40.0539 25.9156L48.2983 20.8386L48.8924 21.0601C49.7262 21.8308 51.4043 23.1602 51.7587 20.5109C51.9984 20.1834 51.6335 19.6247 50.3306 19.5187C48.8923 19.1912 47.0997 19.5187 46.0262 19.6247C43.6394 20.1738 37.6672 20.8386 37.6672 20.8386C37.6672 20.8386 38.7406 13.6613 38.7406 10.2413C38.7406 7.04286 38.1466 6.37811 36.5936 6.37811C34.8009 6.37811 34.2068 7.04286 34.2068 10.2413C34.2068 13.6613 35.0406 20.8386 35.0406 20.8386C35.0406 20.8386 29.3081 20.1738 26.9213 19.6247C25.8478 19.5187 24.1697 19.1815 22.7418 19.5187C21.3035 19.6247 21.0742 20.1834 21.0742 20.5109C21.6683 23.1602 23.461 21.8405 24.1802 21.0601L24.6596 20.8386L33.1437 25.9156C33.1437 25.9156 33.0291 56.9366 33.0291 71.8402C33.0291 79.239 33.3834 87.187 34.582 93.1503C35.1761 95.7997 36.135 98.343 36.6145 100C36.948 98.343 38.1361 95.7997 38.6155 93.1503Z" fill="white"/>
<path fill-rule="evenodd" clip-rule="evenodd" d="M35.7198 96.4636C35.7198 96.4636 33.333 82.9954 33.333 77.244C33.333 71.6949 32.8535 25.2789 32.8535 25.2789H36.4389L35.9595 72.0706C35.9595 77.822 35.7198 96.4636 35.7198 96.4636ZM36.0846 21.9745C34.2919 21.9745 32.8639 17.6681 32.8639 12.4755C32.8639 7.28283 34.3023 2.9765 36.0846 2.9765C37.8773 2.9765 39.3052 7.28283 39.3052 12.4755C39.3052 17.6681 37.8669 21.9745 36.0846 21.9745Z" fill="#010005"/>
<path fill-rule="evenodd" clip-rule="evenodd" d="M35.9572 8.83502C34.7586 8.83502 33.8101 9.05667 33.8101 9.38422C33.8101 9.71177 34.769 9.9333 35.9572 9.9333C37.1558 9.9333 38.1042 9.71177 38.1042 9.38422C38.1042 9.05667 37.1558 8.83502 35.9572 8.83502ZM35.9572 10.9353C34.7586 10.9353 33.8101 11.1568 33.8101 11.4843C33.8101 11.8119 34.769 12.0335 35.9572 12.0335C37.1558 12.0335 38.1042 11.8119 38.1042 11.4843C38.1042 11.1472 37.1558 10.9353 35.9572 10.9353ZM35.9572 15.02C34.9983 15.02 34.2895 15.2415 34.2895 15.4631C34.2895 15.6847 35.0088 15.9064 35.9572 15.9064C36.9161 15.9064 37.6248 15.6847 37.6248 15.4631C37.6248 15.2319 36.9161 15.02 35.9572 15.02ZM35.9572 17.0046C34.9983 17.0046 34.2895 17.4477 34.2895 18.1124C34.2895 18.7772 35.0088 19.2204 35.9572 19.2204C36.9161 19.2204 37.6248 18.7772 37.6248 18.1124C37.6248 17.4477 36.9161 17.0046 35.9572 17.0046ZM35.9572 13.0258C34.5189 13.0258 33.4453 13.3533 33.4453 13.6905C33.4453 14.0181 34.5189 14.3553 35.9572 14.3553C37.3955 14.3553 38.4691 14.0277 38.4691 13.6905C38.4691 13.363 37.3955 13.0258 35.9572 13.0258Z" fill="white"/>
<path fill-rule="evenodd" clip-rule="evenodd" d="M36.0811 0C34.5281 0 33.2148 1.21387 33.2148 2.64931C33.2148 4.08476 34.5281 5.29863 36.0811 5.29863C37.6341 5.29863 38.9473 4.08476 38.9473 2.64931C38.9369 1.21387 37.6236 0 36.0811 0Z" fill="#010005"/>
<path fill-rule="evenodd" clip-rule="evenodd" d="M36.3122 0.886414C35.3533 0.886414 34.5195 1.65721 34.5195 2.54353C34.5195 3.31424 35.3533 4.08492 36.3122 4.08492C37.146 4.08492 37.9798 3.31424 37.9798 2.54353C37.9902 1.65721 37.1564 0.886414 36.3122 0.886414Z" fill="white"/>
<path fill-rule="evenodd" clip-rule="evenodd" d="M41.2752 19.7592C42.4738 21.0791 40.1079 24.8363 41.0668 26.1658C43.2138 24.7303 45.0065 23.4104 47.0389 22.7457C47.8727 24.0752 49.7905 24.9519 51.4581 24.9519C54.0847 24.9519 56.2317 22.9672 56.2317 20.5395C56.9717 13.9885 46.6637 14.4413 41.2439 19.7303L41.2752 19.7592ZM30.7691 19.7399C29.5705 21.0694 31.5091 24.8363 30.5606 26.1658C28.4135 24.7303 26.6209 23.4104 24.5884 22.7457C23.7546 24.0752 21.8369 24.9519 20.1692 24.9519C17.5427 24.9519 15.3956 22.9672 15.3956 20.5395C14.666 14.1137 25.1304 14.2486 30.5606 19.5472L30.7691 19.7399Z" fill="#010005"/>
<path fill-rule="evenodd" clip-rule="evenodd" d="M41.2752 19.7583C42.3488 20.8662 40.8583 23.9491 41.6922 25.0569C43.5995 23.8431 46.1113 22.7352 47.904 22.1861C48.6232 23.1784 49.8115 24.1706 51.3644 24.1706C53.6366 24.1706 54.9498 22.4076 54.9498 20.4134C55.1895 18.7563 53.3968 16.8778 51.7292 16.7718C48.2585 15.8952 45.1003 16.3383 41.2752 19.7583ZM31.4258 20.317C30.3522 21.4249 32.2596 23.9587 31.4258 25.0666C29.5184 23.8527 27.0066 22.7447 25.2139 22.1956C24.4947 23.1879 23.3065 24.1802 21.7536 24.1802C19.4814 24.1802 18.1682 22.4172 18.1682 20.423C17.9284 18.766 19.7211 16.8873 21.3887 16.7814C24.8491 15.8951 27.6007 16.8874 31.4258 20.317Z" fill="white"/>
<path fill-rule="evenodd" clip-rule="evenodd" d="M51.2471 23.1887C51.2471 23.1887 54.2385 19.3256 48.9751 18.998C45.0353 20.3275 41.8147 22.418 41.8147 22.1964C41.8147 21.9748 41.6896 21.2042 41.575 20.655C41.575 20.655 47.6722 17.8902 50.5385 18.449C53.3943 18.9885 55.6664 21.8593 51.2471 23.1887ZM21.8657 23.1887C21.8657 23.1887 18.8848 19.3256 24.1378 18.998C28.0776 20.3275 31.3086 22.418 31.3086 22.1964C31.3086 21.9748 31.4232 21.2042 31.5483 20.655C31.5483 20.655 25.4511 17.8902 22.5848 18.449C19.7082 18.9885 17.4464 21.8593 21.8657 23.1887Z" fill="#010005"/>
<path fill-rule="evenodd" clip-rule="evenodd" d="M42.0448 19.759H30.3402C29.9858 19.759 29.7461 19.9805 29.7461 20.3081V26.8206C29.7461 27.1481 29.9858 27.3698 30.3402 27.3698H42.0448C42.3992 27.3698 42.639 27.1481 42.639 26.8206V20.3081C42.6494 19.9805 42.4096 19.759 42.0448 19.759Z" fill="#010005"/>
<path d="M41.6926 20.6454H30.707V26.4932H41.6926V20.6454Z" fill="white"/>
<path d="M40.2521 21.7534H32.1328V25.2891H40.2521V21.7534Z" fill="#010005"/>
<path fill-rule="evenodd" clip-rule="evenodd" d="M36.2089 20.8676C34.4162 20.8676 32.9883 22.0814 32.9883 23.4109C32.9883 24.7403 34.4266 25.9542 36.2089 25.9542C38.0016 25.9542 39.4295 24.7403 39.4295 23.4109C39.4399 22.0814 38.0016 20.8676 36.2089 20.8676Z" fill="white"/>
<path fill-rule="evenodd" clip-rule="evenodd" d="M26.3999 24.624C25.3264 24.624 24.4926 25.3948 24.4926 26.3871C24.4926 27.3794 25.3264 28.1501 26.3999 28.1501C27.4734 28.1501 28.3073 27.3794 28.3073 26.3871C28.3177 25.3948 27.4734 24.624 26.3999 24.624ZM27.2338 24.624C27.2442 24.624 27.2442 24.624 27.2338 24.624C27.8279 24.624 28.3073 25.0672 28.3073 25.6163C28.3073 26.1655 27.8279 26.6087 27.2338 26.6087C26.6397 26.6087 26.1602 26.1655 26.1602 25.6163C26.1602 25.0672 26.6397 24.624 27.2338 24.624ZM45.7549 24.624C44.6814 24.624 43.8475 25.3948 43.8475 26.3871C43.8475 27.3794 44.6814 28.1501 45.7549 28.1501C46.8284 28.1501 47.6622 27.3794 47.6622 26.3871C47.6622 25.3948 46.8284 24.624 45.7549 24.624ZM46.5886 24.624C47.1827 24.624 47.6622 25.0672 47.6622 25.6163C47.6622 26.1655 47.1827 26.6087 46.5886 26.6087C45.9945 26.6087 45.5151 26.1655 45.5151 25.6163C45.5151 25.0672 45.9945 24.624 46.5886 24.624ZM57.9389 32.6779C56.8654 32.6779 56.0316 33.4487 56.0316 34.441C56.0316 35.4333 56.8654 36.204 57.9389 36.204C59.0125 36.204 59.8463 35.4333 59.8463 34.441C59.8463 33.4487 59.0125 32.6779 57.9389 32.6779ZM58.7728 32.6779C59.3669 32.6779 59.8463 33.1211 59.8463 33.6702C59.8463 34.2194 59.3669 34.6626 58.7728 34.6626C58.1787 34.6626 57.6992 34.2194 57.6992 33.6702C57.6992 33.1211 58.1787 32.6779 58.7728 32.6779ZM13.9761 32.6779C12.9025 32.6779 12.0687 33.4487 12.0687 34.441C12.0687 35.4333 12.9025 36.204 13.9761 36.204C15.0496 36.204 15.8834 35.4333 15.8834 34.441C15.8939 33.4487 15.0496 32.6779 13.9761 32.6779ZM14.8203 32.6779C15.4144 32.6779 15.8939 33.1211 15.8939 33.6702C15.8939 34.2194 15.4144 34.6626 14.8203 34.6626C14.2262 34.6626 13.7468 34.2194 13.7468 33.6702C13.7364 33.1211 14.2158 32.6779 14.8203 32.6779ZM13.382 53.8821C12.3084 53.8821 11.4746 54.6529 11.4746 55.6452C11.4746 56.6374 12.3084 57.4081 13.382 57.4081C14.4555 57.4081 15.2893 56.6374 15.2893 55.6452C15.2893 54.6529 14.4555 53.8821 13.382 53.8821ZM14.2158 53.8821C14.8099 53.8821 15.2893 54.3253 15.2893 54.8744C15.2893 55.4235 14.8099 55.8667 14.2158 55.8667C13.6217 55.8667 13.1423 55.4235 13.1423 54.8744C13.1423 54.3156 13.6217 53.8821 14.2158 53.8821ZM58.2933 53.8821C57.2197 53.8821 56.386 54.6529 56.386 55.6452C56.386 56.6374 57.2197 57.4081 58.2933 57.4081C59.3668 57.4081 60.2007 56.6374 60.2007 55.6452C60.2007 54.6529 59.3668 53.8821 58.2933 53.8821ZM59.1271 53.8821C59.7212 53.8821 60.2007 54.3253 60.2007 54.8744C60.2007 55.4235 59.7212 55.8667 59.1271 55.8667C58.5331 55.8667 58.0536 55.4235 58.0536 54.8744C58.0536 54.3156 58.5331 53.8821 59.1271 53.8821ZM46.1092 76.8397C45.0357 76.8397 44.2019 77.6103 44.2019 78.6026C44.2019 79.5949 45.0357 80.3656 46.1092 80.3656C47.1828 80.3656 48.0165 79.5949 48.0165 78.6026C48.027 77.6103 47.1828 76.8397 46.1092 76.8397ZM46.943 76.8397C46.9534 76.8397 46.9534 76.8397 46.943 76.8397C47.5371 76.8397 48.0165 77.2827 48.0165 77.8319C48.0165 78.381 47.5371 78.8242 46.943 78.8242C46.3489 78.8242 45.8695 78.381 45.8695 77.8319C45.8695 77.2827 46.3489 76.8397 46.943 76.8397ZM24.8469 76.8397C23.7734 76.8397 22.9396 77.6103 22.9396 78.6026C22.9396 79.5949 23.7734 80.3656 24.8469 80.3656C25.9205 80.3656 26.7543 79.5949 26.7543 78.6026C26.7647 77.6103 25.9205 76.8397 24.8469 76.8397ZM25.6807 76.8397C25.6912 76.8397 25.6912 76.8397 25.6807 76.8397C26.2748 76.8397 26.7543 77.2827 26.7543 77.8319C26.7543 77.8319 26.7543 77.8319 26.7543 77.8415C26.7543 78.3906 26.2748 78.8338 25.6807 78.8338C25.0866 78.8338 24.6072 78.3906 24.6072 77.8415C24.6072 77.2827 25.0866 76.8397 25.6807 76.8397Z" fill="#010005"/>
<path d="M35.8728 63.5454C45.0771 63.5454 52.5388 56.6485 52.5388 48.1408C52.5388 39.6331 45.0771 32.7363 35.8728 32.7363C26.6685 32.7363 19.207 39.6331 19.207 48.1408C19.207 56.6485 26.6685 63.5454 35.8728 63.5454Z" fill="#9C0E04" stroke="black" stroke-width="0.769298" stroke-miterlimit="22.9256"/>
<path fill-rule="evenodd" clip-rule="evenodd" d="M30.8203 44.3735H34.1452L34.9998 42.4371L40.1694 52.4853L43.8487 52.495L35.0728 35.626L30.8203 44.3735Z" fill="white"/>
<path fill-rule="evenodd" clip-rule="evenodd" d="M25.4746 49.9518L38.1068 49.9904L37.0541 47.736L26.6627 47.7456L25.4746 49.9518Z" fill="white"/>
<path fill-rule="evenodd" clip-rule="evenodd" d="M27.1309 46.8971L36.6051 46.9356L35.7608 45.0762L28.1419 45.0474L27.1309 46.8971Z" fill="white"/>
<path fill-rule="evenodd" clip-rule="evenodd" d="M26.9531 52.4854L30.6427 52.4951L31.4974 50.472L29.5171 50.4913H29.0168H27.8495L26.9531 52.4854Z" fill="white"/>
<path fill-rule="evenodd" clip-rule="evenodd" d="M43.2853 49.9802L45.2864 49.9899L44.1399 47.7644L42.0449 47.7451C42.3055 48.458 42.7954 49.4407 43.2853 49.9802Z" fill="white"/>
<path fill-rule="evenodd" clip-rule="evenodd" d="M41.554 46.9163L43.7845 46.9356L42.836 45.0571L40.5742 45.0474L41.554 46.9163Z" fill="white"/>
<path fill-rule="evenodd" clip-rule="evenodd" d="M34.6439 23.6698C34.5814 23.2748 34.7377 22.8606 35.0087 22.5619C35.7904 21.666 37.5414 21.955 37.7603 23.3327C37.8333 23.7855 37.6248 24.1901 37.3955 24.4309C36.8431 25.0475 35.853 25.1149 35.1859 24.6043L34.9878 24.4309C34.8106 24.2094 34.6856 23.9588 34.6439 23.6698ZM38.9276 23.3809C38.8338 23.3712 38.7817 23.4001 38.6775 23.3809C38.3752 23.3327 38.469 23.2363 37.9791 23.2363C38.0729 23.0726 38.542 23.2267 38.7504 23.1111C38.8442 23.0629 38.8234 23.0533 38.8755 22.9859C38.6566 23.0244 38.6879 23.0629 38.4169 23.0051C38.1459 22.9473 38.1668 22.9666 37.9062 22.9762C37.9271 22.9377 37.9063 22.9665 37.948 22.928C38.0626 22.8317 38.2606 22.8606 38.4065 22.8317C38.5212 22.8124 38.5524 22.8028 38.6358 22.7547C38.7192 22.6969 38.7087 22.6776 38.7608 22.6005C38.6983 22.6101 38.6254 22.6583 38.5524 22.668C38.4586 22.6872 38.3961 22.6776 38.3023 22.668C38.0417 22.6391 38.0209 22.6872 37.802 22.7257C37.9375 22.4656 38.5108 22.6005 38.5733 22.244C38.5108 22.2633 38.4586 22.3114 38.3752 22.3403C38.2814 22.3692 38.2189 22.3693 38.1146 22.3789C37.8645 22.3886 37.8437 22.4367 37.6457 22.5138C37.7291 22.2152 38.344 22.3115 38.3232 21.9165C38.0834 22.1477 37.9062 22.0706 37.6457 22.1958C37.5623 22.2343 37.5205 22.2826 37.458 22.3115C37.5205 22.0032 38.0938 22.0224 38.0313 21.6178C38.0105 21.6371 37.9375 21.7431 37.8749 21.7816C37.7499 21.8683 37.5519 21.8972 37.4268 21.9839C37.3643 22.0224 37.3017 22.1092 37.2392 22.1284C37.3017 21.7527 37.7602 21.8394 37.6977 21.377C37.6456 21.4059 37.6248 21.5504 37.3434 21.695C37.0724 21.8298 37.135 21.8779 36.9995 22.0032C36.9786 21.9068 37.0202 21.8394 37.0619 21.772C37.187 21.6082 37.4684 21.4155 37.3121 21.1843L37.2809 21.2324C37.2184 21.3769 37.1558 21.4444 37.0308 21.5408C36.864 21.6757 36.8536 21.7142 36.7389 21.8972C36.7181 21.8683 36.7389 21.9357 36.718 21.8683V21.7623C36.7285 21.7142 36.7389 21.6949 36.7598 21.6467L36.8744 21.4637C36.9786 21.2903 36.9786 21.2036 36.8848 21.0398C36.864 21.165 36.843 21.2325 36.7805 21.3289C36.7075 21.4445 36.6033 21.5119 36.5304 21.6371C36.4887 21.7045 36.4887 21.7719 36.447 21.849C36.3532 21.6852 36.4783 21.5215 36.5304 21.3866C36.5721 21.2806 36.6242 21.0398 36.4679 20.9724C36.4679 21.2036 36.4366 21.2518 36.322 21.4155C36.2282 21.5504 36.2073 21.6371 36.1656 21.8394C35.9676 21.5311 36.3845 21.2807 36.051 20.9628C36.0405 21.194 36.0927 21.1843 35.9885 21.3962C35.8947 21.5793 35.8946 21.6274 35.8946 21.8394C35.7591 21.7719 35.8113 21.5214 35.8217 21.3577C35.8217 21.1939 35.7591 21.0879 35.6236 21.0109C35.6861 21.1746 35.6861 21.2807 35.634 21.4541C35.5715 21.6661 35.6028 21.7046 35.6236 21.9165C35.4881 21.8298 35.4882 21.6756 35.4674 21.4733C35.4465 21.3095 35.3736 21.165 35.2068 21.1361C35.2902 21.2806 35.311 21.3481 35.2901 21.5504C35.2484 21.878 35.3318 21.8105 35.3526 22.0128C35.0399 21.878 35.2589 21.377 34.8315 21.2999C34.8628 21.3866 34.9149 21.3962 34.9357 21.4926C34.9774 21.6371 34.967 21.8297 35.0191 21.9743C35.0504 22.0417 35.0921 22.0996 35.1129 22.1574C34.9774 22.1285 34.8941 21.9454 34.842 21.8106C34.7794 21.6564 34.696 21.5504 34.498 21.5215C34.5084 21.5793 34.5293 21.5793 34.571 21.6178C34.7065 21.7527 34.696 21.9936 34.7794 22.1477C34.8211 22.2248 34.8837 22.2729 34.9045 22.3211C34.5501 22.2633 34.6335 21.772 34.1645 21.7816C34.1957 21.8394 34.2895 21.878 34.3416 21.9358C34.5188 22.167 34.4042 22.2152 34.7273 22.5138C34.3937 22.5331 34.2687 21.9454 33.9039 22.0995L34.0185 22.167C34.1228 22.2248 34.1853 22.3308 34.2374 22.4271C34.3938 22.6776 34.3938 22.5909 34.5605 22.7354C34.227 22.7932 34.0186 22.2536 33.6746 22.4463C33.7372 22.4848 33.8518 22.5138 33.9039 22.5524C33.9664 22.6005 34.0082 22.6486 34.0603 22.7161C34.2166 22.8895 34.2479 22.8703 34.4459 22.9859C34.227 23.0244 34.1019 22.9088 33.9664 22.8413C33.758 22.7354 33.6954 22.7546 33.5078 22.8317C33.9039 22.8895 33.883 23.0436 34.1436 23.1592L34.3313 23.2171C34.3938 23.2363 34.3625 23.2267 34.3729 23.2363C34.1853 23.2942 34.0498 23.217 33.8935 23.1592C33.7788 23.1207 33.5287 23.0629 33.4557 23.2074C33.8935 23.2267 33.8414 23.4098 34.3625 23.4868C34.0811 23.6699 33.7163 23.2845 33.4141 23.6024C33.6642 23.6121 33.6537 23.5639 33.8935 23.6698C34.1228 23.7662 34.1332 23.7277 34.3729 23.7566C34.2479 23.8722 34.0498 23.8336 33.8622 23.824C33.6642 23.824 33.5704 23.8721 33.4662 24.007C33.9143 23.8721 33.9143 24.0938 34.4459 23.9975C34.2687 24.2383 33.6642 24.0263 33.5912 24.3827C33.7684 24.3153 33.8101 24.2768 34.0498 24.3057C34.3417 24.3346 34.3104 24.296 34.5397 24.2478C34.4042 24.5176 33.8518 24.3442 33.7684 24.7295C33.8518 24.7006 33.8726 24.6525 33.9664 24.6332C34.1228 24.585 34.3208 24.614 34.4876 24.5562C34.5709 24.5273 34.6126 24.4984 34.6856 24.4695C34.5814 24.7682 34.0082 24.6622 33.9977 25.0668C34.1541 24.9608 34.154 24.9029 34.425 24.8548C34.7064 24.8066 34.6752 24.7488 34.8732 24.6621C34.7898 24.9993 34.2895 24.903 34.2895 25.3461C34.3938 25.2883 34.3625 25.1921 34.6856 25.0764C34.9462 24.9897 34.915 24.9512 35.0817 24.8163C35.0713 24.9897 34.9462 25.0764 34.8107 25.1824C34.696 25.2691 34.5501 25.4328 34.6335 25.5966C34.7481 25.4521 34.7169 25.3943 34.9775 25.2787C35.04 25.2498 35.1234 25.2016 35.1755 25.1535C35.2276 25.1053 35.2798 25.0089 35.3319 24.98C35.3319 25.3172 34.8107 25.4618 35.0191 25.799C35.0921 25.5967 35.1338 25.5485 35.3006 25.4233C35.5716 25.2209 35.4778 25.2209 35.5924 25.0668C35.6237 25.1824 35.6028 25.221 35.5611 25.3173C35.5299 25.3944 35.4778 25.4425 35.4465 25.4906C35.3631 25.6351 35.3006 25.799 35.4152 25.9146C35.436 25.8857 35.4256 25.8953 35.4361 25.8567C35.4569 25.7604 35.4986 25.6833 35.5611 25.6062C35.6549 25.5003 35.7696 25.404 35.8113 25.2691C35.8321 25.2209 35.8322 25.192 35.8634 25.1631L35.8842 25.2305C35.8946 25.3654 35.8112 25.4906 35.7695 25.6062C35.7278 25.7026 35.7071 25.9435 35.8426 26.0013C35.8634 25.7315 35.8634 25.7605 35.9885 25.5581C36.1136 25.3751 36.0926 25.3847 36.1447 25.1438C36.2281 25.3172 36.1864 25.4232 36.1447 25.6062C36.103 25.8086 36.1343 25.9049 36.2698 26.0109C36.2802 25.7508 36.2282 25.7989 36.3428 25.5677C36.4366 25.3654 36.4053 25.3461 36.4366 25.1245C36.6659 25.4232 36.322 25.7315 36.7076 25.9627C36.6972 25.9145 36.6867 25.9145 36.6763 25.8664C36.645 25.7508 36.6555 25.6448 36.6972 25.5292C36.7597 25.3076 36.7389 25.2691 36.7076 25.0572C36.9473 25.2017 36.7493 25.8085 37.1141 25.8374C37.0307 25.6737 36.9995 25.6256 37.0308 25.4136C37.0725 25.1439 37.0203 25.1631 36.9682 24.9512C37.1245 25.0186 37.1557 25.2016 37.187 25.3461C37.2183 25.481 37.3121 25.6641 37.4893 25.6545C37.4685 25.6063 37.4581 25.6158 37.4268 25.5677C37.3539 25.4521 37.3538 25.3461 37.3434 25.2209C37.3329 25.0282 37.26 24.9705 37.1974 24.8163C37.531 24.8934 37.4163 25.4713 37.8436 25.4521C37.7081 25.3076 37.6769 25.3076 37.6248 25.0572C37.604 24.9801 37.5832 24.8934 37.5415 24.826C37.4998 24.7585 37.4477 24.7103 37.4164 24.6525C37.7603 24.7199 37.7186 25.2402 38.1668 25.1824C38.146 25.1631 38.0939 25.1342 38.073 25.1149C38.0418 25.086 38.0208 25.0668 37.9896 25.0379C37.927 24.9801 37.9062 24.9127 37.8749 24.8163C37.7499 24.5369 37.7498 24.614 37.5935 24.4502C37.8958 24.4406 37.9479 24.7392 38.1668 24.8451C38.2293 24.874 38.3648 24.903 38.4378 24.8644C38.2293 24.7681 38.1876 24.7296 38.0833 24.5465C37.9791 24.3635 37.8958 24.3539 37.7499 24.2287C38.1042 24.1805 38.2397 24.691 38.6462 24.5176C38.4378 24.4405 38.3752 24.4213 38.2397 24.2575C38.198 24.1997 38.1356 24.1419 38.0626 24.0938C37.9896 24.0456 37.8958 24.0264 37.8541 23.9878C38.0521 23.9493 38.1772 24.0456 38.3127 24.1131C38.4378 24.1901 38.6358 24.2671 38.7817 24.1515C38.7713 24.1419 38.7921 24.1515 38.74 24.1322C38.7296 24.1322 38.7192 24.1226 38.7088 24.1226L38.5211 24.0648C38.469 24.0359 38.396 23.9781 38.3543 23.9396C38.125 23.7469 38.1043 23.824 37.9375 23.7277C38.1043 23.6602 38.271 23.7565 38.4378 23.8047C38.542 23.8432 38.8234 23.8722 38.8755 23.747C38.6253 23.7373 38.5733 23.7181 38.3961 23.6121C38.1772 23.4868 38.1981 23.5254 37.948 23.4676C38.3649 23.3327 38.5941 23.6892 38.9276 23.3809Z" fill="#9C0E04"/>
<path fill-rule="evenodd" clip-rule="evenodd" d="M35.5332 24.5857C35.7938 24.6724 35.8772 24.7398 36.2211 24.7398C36.5547 24.7398 36.638 24.6724 36.8778 24.5857C36.8465 24.3352 36.4191 23.603 36.2003 23.4778C36.1586 23.5067 36.1378 23.5356 36.0961 23.5837C36.0648 23.6223 36.0231 23.6608 35.9919 23.6993C35.9502 23.7475 35.9292 23.7764 35.898 23.8246C35.7729 23.998 35.554 24.393 35.5332 24.5857Z" fill="#9C0E04"/>
<path fill-rule="evenodd" clip-rule="evenodd" d="M34.9044 23.8434C34.9878 23.6796 35.0816 23.5351 35.1858 23.3906C35.363 23.1594 35.4255 23.1401 35.5506 22.9956C35.5089 22.9378 35.1233 22.774 35.0712 22.7644C34.967 22.8896 34.8939 23.0823 34.8627 23.2557C34.821 23.4292 34.8106 23.7278 34.9044 23.8434Z" fill="#9C0E04"/>
<path fill-rule="evenodd" clip-rule="evenodd" d="M36.8633 23.0053C36.9258 23.1112 37.1342 23.1979 37.4678 23.7855L37.5095 23.8337C37.6554 23.5929 37.5511 23.0438 37.3427 22.7644C37.2593 22.7837 37.1759 22.8318 37.103 22.8607C37.0509 22.88 37.03 22.8992 36.9779 22.9185C36.9258 22.957 36.8945 22.9571 36.8633 23.0053Z" fill="#9C0E04"/>
<path fill-rule="evenodd" clip-rule="evenodd" d="M35.5332 22.3705C35.6062 22.409 35.7834 22.4475 35.8668 22.4668C36.3879 22.6402 36.0336 22.6113 36.513 22.4668C36.6068 22.4379 36.7944 22.3994 36.8673 22.3608C36.6485 22.2741 36.4921 22.2067 36.2003 22.2067C35.9605 22.2163 35.7 22.2741 35.5332 22.3705Z" fill="#9C0E04"/>
<path fill-rule="evenodd" clip-rule="evenodd" d="M35.209 24.3348C35.2403 24.383 35.2924 24.4312 35.3445 24.4601C35.3862 24.4023 35.4486 24.2384 35.4799 24.1517C35.5007 24.0939 35.5321 24.0554 35.5633 24.0072C35.5842 23.9783 35.5842 23.9687 35.6051 23.9398C35.6259 23.9109 35.6258 23.8917 35.6467 23.8628C35.6675 23.8339 35.678 23.8242 35.6988 23.7953L35.949 23.4871C35.9906 23.4389 36.0323 23.41 36.0636 23.3618C36.0323 23.3233 36.0011 23.2944 35.949 23.2655C35.7092 23.4389 35.3028 24.0073 35.209 24.3348Z" fill="#9C0E04"/>
<path fill-rule="evenodd" clip-rule="evenodd" d="M36.332 23.3618C36.3529 23.4004 36.405 23.4485 36.4362 23.4774L36.7385 23.8628L36.9782 24.2963C36.9991 24.3444 37.0199 24.4119 37.0511 24.4601C37.1137 24.4312 37.1554 24.383 37.1866 24.3348C37.1033 24.0844 36.7072 23.4196 36.4467 23.2655C36.3946 23.2944 36.3633 23.3233 36.332 23.3618Z" fill="#9C0E04"/>
<path fill-rule="evenodd" clip-rule="evenodd" d="M36.5918 23.161C36.6022 23.1995 36.6647 23.2478 36.6856 23.2671C36.7898 23.3634 36.9149 23.5079 36.9983 23.6235C37.0504 23.7006 37.1234 23.7968 37.1651 23.8836C37.2172 23.9703 37.2588 24.0955 37.3109 24.1726C37.3317 24.163 37.3318 24.1823 37.3631 24.1149C37.4256 24.0089 37.4047 24.0282 37.3318 23.874C37.238 23.6717 36.8523 23.1418 36.6856 23.0743C36.6751 23.1032 36.6231 23.1321 36.5918 23.161Z" fill="#9C0E04"/>
<path fill-rule="evenodd" clip-rule="evenodd" d="M35.0834 24.1804C35.1356 23.9685 35.4274 23.5543 35.5837 23.3809C35.6254 23.3327 35.7921 23.1882 35.8026 23.1497C35.6775 23.034 35.6463 23.1015 35.6046 23.14C35.344 23.4001 35.4273 23.2941 35.2188 23.5831C35.1771 23.6409 34.9688 23.9685 34.9688 24.0359L35.0313 24.1515C35.0626 24.1804 35.0418 24.1612 35.0834 24.1804Z" fill="#9C0E04"/>
<path fill-rule="evenodd" clip-rule="evenodd" d="M36.3574 22.6588C36.4721 22.784 36.5554 22.6973 36.7013 22.6395C36.7743 22.6106 37.0244 22.5335 37.0661 22.5046C36.9931 22.4083 36.9202 22.4468 36.7118 22.5142C36.6388 22.5431 36.4095 22.6202 36.3574 22.6588Z" fill="#9C0E04"/>
<path fill-rule="evenodd" clip-rule="evenodd" d="M35.3223 22.5048C35.364 22.5337 35.4264 22.5529 35.5098 22.5722C35.6974 22.63 35.7079 22.6493 35.8643 22.7071C35.9268 22.7264 35.9268 22.736 35.9789 22.7071L36.0518 22.6494C35.9788 22.5915 35.5202 22.4373 35.3952 22.4373L35.3223 22.5048Z" fill="#9C0E04"/>
<path fill-rule="evenodd" clip-rule="evenodd" d="M35.1543 22.6771L35.6754 22.8892C35.6754 22.8892 35.7484 22.8505 35.7796 22.812C35.7171 22.7638 35.3107 22.6001 35.2065 22.6001C35.1543 22.6386 35.1647 22.6097 35.1543 22.6771Z" fill="#9C0E04"/>
<path fill-rule="evenodd" clip-rule="evenodd" d="M36.625 22.812C36.6458 22.8506 36.6249 22.8217 36.6666 22.8506C36.7604 22.918 36.7709 22.8603 36.9898 22.7736C37.0627 22.7447 37.1878 22.6965 37.2608 22.6676C37.2399 22.6194 37.2294 22.6194 37.1982 22.6001C37.0731 22.6097 36.6667 22.7638 36.625 22.812Z" fill="#9C0E04"/>
<path fill-rule="evenodd" clip-rule="evenodd" d="M36.084 23.1599C36.1361 23.1984 36.1569 23.2274 36.1986 23.2466C36.2299 23.237 36.282 23.1888 36.3133 23.1599C36.2924 23.1213 36.2507 23.0828 36.1986 23.0635C36.1465 23.0828 36.1048 23.1117 36.084 23.1599Z" fill="#9C0E04"/>
<path fill-rule="evenodd" clip-rule="evenodd" d="M35.8242 22.986C35.8659 23.0149 35.8972 23.0245 35.9389 23.063C35.991 23.0534 36.0431 23.0053 36.0639 22.9764C35.9805 22.8897 35.8763 22.8608 35.8242 22.986Z" fill="#9C0E04"/>
<path fill-rule="evenodd" clip-rule="evenodd" d="M36.3418 22.9666L36.446 23.0533C36.4981 23.034 36.5607 22.9955 36.5815 22.9666C36.4981 22.8799 36.4356 22.8799 36.3418 22.9666Z" fill="#9C0E04"/>
<path fill-rule="evenodd" clip-rule="evenodd" d="M36.0723 22.8027C36.114 22.8509 36.1452 22.8606 36.2078 22.8799C36.2703 22.8606 36.3016 22.8413 36.3433 22.8027L36.2078 22.7354L36.0723 22.8027Z" fill="#9C0E04"/>
</svg>
