<svg width="85" height="84" viewBox="0 0 85 84" fill="none" xmlns="http://www.w3.org/2000/svg">
<path d="M84.0033 41.9293C84.0033 64.8576 65.4162 83.4447 42.488 83.4447C19.5597 83.4447 0.972656 64.8576 0.972656 41.9293C0.972656 4.24107 22.7435 46.7261 45.6717 46.7261C68.6 46.7261 84.0033 19.0011 84.0033 41.9293Z" fill="url(#paint0_linear_5645_8056)" fill-opacity="0.62"/>
<path d="M75.3049 25.4171C69.8067 27.025 62.9542 30.3765 56.7624 34.4879C56.3178 34.7869 56.0254 34.9281 55.9864 34.8838C55.9474 34.8395 54.8081 33.2806 53.4464 31.421L50.9705 28.0422L50.7473 28.1137C50.6276 28.1506 49.999 28.4492 49.352 28.7802L48.1799 29.3752L48.7573 31.2398C50.1701 35.7861 51.68 41.1026 52.2949 43.6627C52.4793 44.4471 52.6456 45.1244 52.6639 45.1616C52.6822 45.1989 53.2237 44.7699 53.869 44.2132C59.7874 39.0311 66.8169 33.7378 72.1537 30.4222C74.3487 29.0574 75.2538 28.5502 77.5794 27.3928L79.73 26.3234L77.9858 25.7307L76.2393 25.1449L75.3049 25.4171Z" fill="#3378C9"/>
<path d="M19.1184 8.33376L18.6985 8.50729L18.7339 8.56937C18.8941 8.98268 18.8832 9.44574 18.7036 9.85708C18.5239 10.2684 18.1902 10.5945 17.7755 10.7639C17.7376 10.7812 17.6986 10.7956 17.6586 10.8071L17.7472 11.0324L19.3119 14.9802L29.7358 41.2789L31.3906 45.4547C31.4236 45.4301 31.4592 45.4093 31.4967 45.3927C31.702 45.3075 31.9213 45.2635 32.1421 45.2632C32.3629 45.2629 32.5808 45.3062 32.7833 45.3907C32.9858 45.4752 33.169 45.5993 33.3223 45.7558C33.4757 45.9122 33.5962 46.098 33.677 46.3026L33.7123 46.3647L34.1322 46.1911C34.1079 46.1234 34.1109 46.0484 34.1407 45.9819C34.1706 45.9154 34.2248 45.8627 34.292 45.835C34.3257 45.8205 34.3618 45.8129 34.3983 45.8127C34.4347 45.8125 34.4707 45.8196 34.5041 45.8337C34.5375 45.8477 34.5676 45.8684 34.5927 45.8945C34.6177 45.9206 34.6372 45.9516 34.6499 45.9856L34.9929 45.8426C34.9684 45.7747 34.9712 45.6995 35.0007 45.6327C35.0302 45.5658 35.084 45.5125 35.1511 45.4838C35.1849 45.4697 35.2209 45.4625 35.2573 45.4625C35.2936 45.4625 35.3294 45.4697 35.3627 45.4837C35.396 45.4977 35.426 45.5182 35.4512 45.5441C35.4763 45.57 35.4959 45.6006 35.509 45.6344L35.8535 45.4941C35.8401 45.4606 35.8335 45.4246 35.834 45.3883C35.8345 45.3519 35.8422 45.3159 35.8565 45.2823C35.8709 45.2487 35.8917 45.2181 35.9177 45.1923C35.9437 45.1665 35.9744 45.146 36.0081 45.132C36.0418 45.118 36.0778 45.1107 36.114 45.1106C36.1503 45.1104 36.1861 45.1175 36.2193 45.1312C36.2526 45.145 36.2828 45.1653 36.308 45.1909C36.3333 45.2165 36.3532 45.247 36.3666 45.2805L36.7111 45.1402C36.6841 45.0725 36.6851 44.9963 36.7141 44.9284C36.7431 44.8605 36.7976 44.8064 36.8657 44.7781C36.9337 44.7498 37.0097 44.7495 37.0769 44.7773C37.1442 44.8052 37.1971 44.8589 37.2242 44.9266L37.5672 44.7836C37.5539 44.75 37.5475 44.714 37.5482 44.6776C37.5489 44.6412 37.5568 44.6052 37.5714 44.5716C37.5859 44.5381 37.6069 44.5076 37.633 44.4819C37.6592 44.4562 37.69 44.4359 37.7238 44.4221C37.7576 44.4082 37.7937 44.4011 37.83 44.4012C37.8662 44.4013 37.902 44.4085 37.9352 44.4225C37.9685 44.4365 37.9985 44.4569 38.0237 44.4827C38.0488 44.5085 38.0686 44.539 38.0818 44.5727L38.4247 44.4297C38.398 44.3618 38.3996 44.2855 38.4289 44.2177C38.4583 44.1499 38.5132 44.0961 38.5814 44.0681C38.6497 44.0402 38.7257 44.0403 38.7928 44.0686C38.86 44.0968 38.9127 44.1508 38.9394 44.2188L39.2823 44.0758C39.2556 44.0079 39.2571 43.9316 39.2865 43.8638C39.3159 43.796 39.3707 43.7422 39.439 43.7142C39.5072 43.6863 39.5833 43.6864 39.6504 43.7147C39.7175 43.7429 39.7702 43.7969 39.7969 43.8649L40.1399 43.7219C40.1265 43.6884 40.1199 43.6524 40.1204 43.6161C40.1209 43.5797 40.1286 43.5437 40.1429 43.5101C40.1573 43.4765 40.178 43.4459 40.204 43.4201C40.23 43.3943 40.2608 43.3738 40.2944 43.3598C40.3281 43.3458 40.3641 43.3385 40.4004 43.3383C40.4366 43.3382 40.4724 43.3452 40.5057 43.359C40.539 43.3728 40.5692 43.3931 40.5944 43.4187C40.6197 43.4443 40.6396 43.4747 40.653 43.5083L40.9948 43.3696C40.9729 43.3026 40.9774 43.2294 41.0074 43.1647C41.0374 43.1 41.0907 43.0488 41.1563 43.0214C41.222 42.994 41.2951 42.9925 41.3609 43.0172C41.4267 43.0419 41.4802 43.0909 41.5106 43.1544L41.8523 43.0157C41.8305 42.9487 41.835 42.8755 41.865 42.8108C41.895 42.7461 41.9483 42.6949 42.0139 42.6675C42.0796 42.6401 42.1527 42.6386 42.2185 42.6633C42.2843 42.688 42.3378 42.737 42.3681 42.8005L42.7084 42.6591C42.6858 42.5917 42.69 42.5177 42.7202 42.4524C42.7505 42.3871 42.8043 42.3355 42.8707 42.3082C42.9371 42.281 43.011 42.2801 43.077 42.3058C43.1431 42.3316 43.1963 42.382 43.2257 42.4466L43.566 42.3052C43.5434 42.2378 43.5476 42.1638 43.5778 42.0985C43.608 42.0332 43.6619 41.9816 43.7283 41.9543C43.7947 41.9271 43.8686 41.9262 43.9346 41.9519C44.0007 41.9777 44.0539 42.0281 44.0833 42.0927L44.4236 41.9513C44.3992 41.8836 44.4023 41.8085 44.4321 41.7421C44.4619 41.6756 44.5161 41.6229 44.5833 41.5951C44.617 41.5807 44.6532 41.5731 44.6896 41.5729C44.7261 41.5727 44.7621 41.5798 44.7955 41.5938C44.8289 41.6079 44.859 41.6286 44.884 41.6547C44.9091 41.6808 44.9285 41.7117 44.9412 41.7457L45.2842 41.6028C45.2598 41.5349 45.2626 41.4597 45.2921 41.3928C45.3215 41.326 45.3754 41.2726 45.4424 41.2439C45.4762 41.2299 45.5123 41.2227 45.5486 41.2227C45.5849 41.2227 45.6208 41.2299 45.6541 41.2439C45.6873 41.2579 45.7174 41.2784 45.7425 41.3043C45.7676 41.3301 45.7873 41.3608 45.8004 41.3945L46.1449 41.2543C46.1332 41.2239 46.1282 41.1912 46.1302 41.1585C46.13 41.103 46.1466 41.0485 46.1777 41.002C46.2089 40.9555 46.2531 40.9193 46.3046 40.8981C46.3729 40.8707 46.4487 40.8711 46.5157 40.8993C46.5827 40.9275 46.6355 40.9812 46.6626 41.0487L47.0071 40.9085C46.98 40.8408 46.9811 40.7646 47.0101 40.6967C47.0391 40.6288 47.0936 40.5747 47.1616 40.5464C47.2297 40.518 47.3057 40.5178 47.3729 40.5456C47.4401 40.5734 47.4931 40.6271 47.5202 40.6948L47.9757 40.5076L47.9403 40.4455C47.8591 40.2412 47.8191 40.0221 47.8227 39.8008C47.8263 39.5795 47.8734 39.3602 47.9614 39.1557C48.0493 38.9511 48.1764 38.7652 48.3352 38.6087C48.4941 38.4521 48.6816 38.328 48.8871 38.2434C48.9244 38.2247 48.9636 38.2102 49.004 38.2002L47.3507 34.0271L36.9268 7.72839L35.272 3.55259C35.2382 3.57592 35.2028 3.59666 35.1659 3.61464C34.9603 3.69952 34.7408 3.74324 34.5198 3.74331C34.2989 3.74338 34.0809 3.69979 33.8783 3.61503C33.6756 3.53028 33.4924 3.40602 33.339 3.24935C33.1855 3.0927 33.065 2.90671 32.9842 2.70202L32.9503 2.64263L32.4947 2.82985C32.5081 2.86338 32.5147 2.89934 32.5142 2.93568C32.5137 2.97202 32.506 3.00804 32.4917 3.04167C32.4627 3.10958 32.4082 3.16364 32.3402 3.19197C32.2721 3.22031 32.1961 3.22059 32.1289 3.19274C32.0616 3.1649 32.0087 3.11121 31.9816 3.0435L31.6371 3.18375C31.6642 3.25146 31.6631 3.32766 31.6341 3.39557C31.6051 3.46348 31.5506 3.51754 31.4826 3.54588C31.4145 3.57421 31.3385 3.57448 31.2713 3.54664C31.2041 3.51879 31.1511 3.46511 31.124 3.3974L30.7795 3.53766C30.8056 3.60543 30.8036 3.6813 30.774 3.7486C30.7443 3.81589 30.6894 3.8691 30.6213 3.89653C30.5529 3.92491 30.4766 3.92516 30.409 3.89723C30.3414 3.8693 30.288 3.81546 30.2607 3.7475L29.9177 3.89045C29.9429 3.95811 29.9402 4.03347 29.9103 4.10016C29.8804 4.16684 29.8256 4.21948 29.758 4.24662C29.6895 4.275 29.6132 4.27526 29.5456 4.24733C29.478 4.21939 29.4247 4.16555 29.3973 4.09759L29.0543 4.24055C29.081 4.30847 29.0795 4.38472 29.0501 4.45253C29.0207 4.52033 28.9659 4.57414 28.8977 4.60211C28.8294 4.63009 28.7534 4.62993 28.6862 4.60168C28.6191 4.57343 28.5664 4.51941 28.5397 4.45149L28.1995 4.59286C28.2221 4.66025 28.2178 4.73424 28.1876 4.79953C28.1574 4.86482 28.1035 4.91644 28.0371 4.94372C27.9707 4.971 27.8969 4.97185 27.8308 4.94611C27.7647 4.92037 27.7115 4.87 27.6821 4.80539L27.3419 4.94676C27.3637 5.01373 27.3592 5.08699 27.3292 5.15166C27.2992 5.21633 27.246 5.26757 27.1803 5.29497C27.1147 5.32236 27.0415 5.32385 26.9757 5.29916C26.9099 5.27446 26.8564 5.22543 26.8261 5.162L26.4843 5.30066C26.5062 5.36763 26.5016 5.44089 26.4716 5.50556C26.4416 5.57023 26.3884 5.62147 26.3227 5.64887C26.2571 5.67626 26.1839 5.67777 26.1181 5.65307C26.0523 5.62838 25.9988 5.57933 25.9685 5.5159L25.6267 5.65456C25.6486 5.72153 25.6441 5.79479 25.614 5.85946C25.584 5.92413 25.5308 5.97537 25.4651 6.00277C25.3995 6.03017 25.3263 6.03167 25.2605 6.00697C25.1948 5.98228 25.1413 5.93324 25.1109 5.8698L24.7707 6.01117C24.795 6.07889 24.7919 6.15392 24.7621 6.22038C24.7323 6.28685 24.6781 6.33955 24.6109 6.36734C24.5771 6.38136 24.5411 6.38858 24.5047 6.38858C24.4684 6.38859 24.4326 6.38138 24.3993 6.36738C24.366 6.35337 24.3359 6.33284 24.3108 6.30698C24.2857 6.28112 24.2661 6.25045 24.253 6.21672L23.91 6.35967C23.9343 6.42739 23.9313 6.50242 23.9015 6.56888C23.8717 6.63535 23.8174 6.68804 23.7503 6.71584C23.7165 6.73029 23.6804 6.73786 23.6439 6.73808C23.6075 6.7383 23.5715 6.73117 23.5381 6.71712C23.5047 6.70307 23.4746 6.68238 23.4495 6.65628C23.4245 6.63019 23.405 6.59922 23.3923 6.56521L23.0493 6.70817C23.0737 6.77589 23.0706 6.85092 23.0408 6.91739C23.011 6.98385 22.9568 7.03655 22.8896 7.06434C22.8558 7.07836 22.8197 7.08558 22.7834 7.08559C22.7471 7.08559 22.7112 7.07839 22.678 7.06439C22.6447 7.05038 22.6146 7.02985 22.5895 7.00399C22.5644 6.97813 22.5447 6.94745 22.5316 6.91372L22.1887 7.05667C22.2021 7.0902 22.2087 7.12617 22.2082 7.16251C22.2077 7.19885 22.2 7.23487 22.1857 7.26849C22.1567 7.3364 22.1022 7.39046 22.0341 7.4188C21.9661 7.44713 21.8901 7.44741 21.8229 7.41956C21.7556 7.39172 21.7027 7.33803 21.6756 7.27032L21.3311 7.41058C21.3445 7.4441 21.3511 7.48007 21.3506 7.51641C21.3501 7.55275 21.3424 7.58877 21.3281 7.62239C21.3137 7.65602 21.293 7.68659 21.267 7.71238C21.241 7.73817 21.2103 7.75867 21.1766 7.7727C21.1429 7.78673 21.1069 7.79402 21.0706 7.79415C21.0344 7.79428 20.9986 7.78725 20.9653 7.77346C20.932 7.75967 20.9019 7.7394 20.8766 7.71379C20.8513 7.68819 20.8314 7.65775 20.818 7.62422L20.4735 7.76448C20.4996 7.83225 20.4976 7.90813 20.4679 7.97542C20.4383 8.04271 20.3834 8.09593 20.3153 8.12335C20.2469 8.15174 20.1705 8.15198 20.1029 8.12405C20.0353 8.09612 19.982 8.04229 19.9546 7.97432L19.6117 8.11728C19.6369 8.18494 19.6342 8.26029 19.6043 8.32698C19.5744 8.39367 19.5196 8.4463 19.4519 8.47344C19.3881 8.49449 19.3193 8.49197 19.2581 8.46632C19.1968 8.44067 19.1472 8.39362 19.1184 8.33376ZM27.9967 36.0006C27.9849 35.9729 27.9788 35.943 27.9787 35.9126C27.9786 35.8823 27.9845 35.8522 27.9961 35.8239C28.0077 35.7957 28.0248 35.77 28.0463 35.7483C28.0678 35.7265 28.0933 35.7092 28.1213 35.6973C28.1773 35.6798 28.2375 35.6837 28.29 35.7083C28.3425 35.7329 28.3837 35.7764 28.4054 35.8304C28.427 35.8843 28.4277 35.9448 28.4072 36C28.3867 36.0552 28.3466 36.1011 28.2946 36.1287C28.2375 36.1475 28.1758 36.1446 28.1214 36.1207C28.0669 36.0968 28.0235 36.0535 27.9994 35.999L27.9967 36.0006ZM29.2004 35.7574C29.1423 35.7814 29.0776 35.7814 29.0204 35.7574C28.9632 35.7335 28.9183 35.6876 28.8954 35.6298C28.8726 35.572 28.8738 35.5071 28.8987 35.4494C28.9236 35.3916 28.9702 35.3457 29.0282 35.3218L29.0554 35.3059C29.1135 35.282 29.1782 35.282 29.2354 35.3059C29.2926 35.3299 29.3375 35.3757 29.3604 35.4335C29.3832 35.4913 29.382 35.5562 29.3571 35.614C29.3322 35.6717 29.2856 35.7176 29.2276 35.7415L29.2004 35.7574ZM30.1182 35.3755C30.0607 35.3993 29.9965 35.3995 29.9397 35.3761C29.8829 35.3527 29.838 35.3076 29.8148 35.2506C29.8034 35.222 29.7978 35.1913 29.7983 35.1603C29.7988 35.1294 29.8054 35.0987 29.8177 35.07C29.8301 35.0414 29.8479 35.0154 29.8702 34.9935C29.8925 34.9717 29.9188 34.9544 29.9476 34.9426L29.9748 34.9267C30.0035 34.9148 30.0342 34.9087 30.0651 34.9087C30.096 34.9087 30.1264 34.9149 30.1547 34.9267C30.1831 34.9386 30.2087 34.9559 30.2301 34.9778C30.2516 34.9997 30.2684 35.0257 30.2797 35.0543C30.291 35.0829 30.2966 35.1136 30.296 35.1445C30.2954 35.1755 30.2888 35.2061 30.2765 35.2347C30.2641 35.2633 30.2464 35.2893 30.2241 35.3112C30.2019 35.3331 30.1757 35.3505 30.1469 35.3623L30.1182 35.3755ZM31.0402 34.9947C31.0118 35.0069 30.9813 35.0134 30.9506 35.0137C30.9199 35.014 30.8895 35.0082 30.8613 34.9965C30.833 34.9849 30.8075 34.9677 30.7861 34.9459C30.7647 34.9242 30.748 34.8983 30.7368 34.8698C30.7254 34.8412 30.7198 34.8105 30.7203 34.7795C30.7208 34.7485 30.7275 34.7179 30.7398 34.6892C30.7521 34.6606 30.77 34.6346 30.7922 34.6127C30.8145 34.5909 30.8408 34.5735 30.8696 34.5618L30.8968 34.5459C30.9549 34.522 31.0196 34.522 31.0768 34.5459C31.134 34.5698 31.1789 34.6157 31.2018 34.6735C31.2246 34.7313 31.2234 34.7962 31.1985 34.8539C31.1736 34.9117 31.127 34.9576 31.069 34.9815L31.0402 34.9947ZM31.9596 34.6155C31.9015 34.6388 31.837 34.6384 31.78 34.6146C31.723 34.5907 31.678 34.5452 31.6546 34.4879C31.6325 34.4302 31.6343 34.3658 31.6594 34.3085C31.6846 34.2513 31.7312 34.206 31.789 34.1826L31.8162 34.1666C31.8449 34.1548 31.8756 34.1487 31.9065 34.1487C31.9374 34.1487 31.9678 34.1548 31.9961 34.1667C32.0245 34.1785 32.0501 34.1959 32.0715 34.2178C32.093 34.2397 32.1098 34.2657 32.1211 34.2943C32.1324 34.3229 32.1379 34.3535 32.1374 34.3845C32.1368 34.4155 32.1302 34.4461 32.1179 34.4747C32.1055 34.5033 32.0878 34.5293 32.0655 34.5512C32.0433 34.5731 32.0171 34.5904 31.9883 34.6023L31.9596 34.6155ZM32.8816 34.2347C32.8238 34.259 32.7591 34.2594 32.7018 34.2359C32.6445 34.2123 32.5993 34.1668 32.5761 34.1092C32.5529 34.0517 32.5537 33.9868 32.5782 33.9289C32.6027 33.8711 32.6489 33.8249 32.7068 33.8007L32.7367 33.7831C32.7946 33.76 32.8589 33.7605 32.9155 33.7848C32.9722 33.809 33.0165 33.8548 33.0389 33.9124C33.0505 33.9405 33.0564 33.9709 33.056 34.0016C33.0557 34.0323 33.0492 34.0627 33.0369 34.0911C33.0246 34.1194 33.0068 34.1451 32.9845 34.1666C32.9623 34.188 32.936 34.2049 32.9073 34.2161L32.8816 34.2347ZM33.801 33.8555C33.7722 33.8673 33.7415 33.8734 33.7107 33.8734C33.6798 33.8734 33.6493 33.8673 33.621 33.8555C33.5927 33.8436 33.5671 33.8262 33.5456 33.8043C33.5242 33.7824 33.5073 33.7564 33.496 33.7278C33.4847 33.6992 33.4792 33.6686 33.4798 33.6376C33.4803 33.6067 33.4869 33.576 33.4993 33.5474C33.5116 33.5188 33.5294 33.4928 33.5516 33.4709C33.5738 33.449 33.6001 33.4317 33.6288 33.4198L33.656 33.4039C33.6845 33.3917 33.7149 33.3853 33.7457 33.385C33.7764 33.3847 33.8068 33.3905 33.835 33.4021C33.8633 33.4137 33.8888 33.431 33.9102 33.4527C33.9315 33.4745 33.9483 33.5004 33.9594 33.5289C33.9708 33.5575 33.9764 33.5881 33.9759 33.6191C33.9754 33.6501 33.9688 33.6808 33.9565 33.7094C33.9441 33.738 33.9263 33.764 33.904 33.7859C33.8817 33.8078 33.8554 33.8251 33.8266 33.8369L33.801 33.8555ZM34.723 33.4747C34.6943 33.4866 34.6636 33.4928 34.6327 33.4928C34.6018 33.4929 34.5713 33.4868 34.5429 33.4749C34.5146 33.4631 34.489 33.4457 34.4675 33.4237C34.4461 33.4018 34.4293 33.3757 34.4181 33.347C34.4064 33.3188 34.4005 33.2883 34.4008 33.2575C34.401 33.2267 34.4074 33.1962 34.4195 33.1676C34.4316 33.1391 34.4492 33.1132 34.4713 33.0914C34.4934 33.0696 34.5195 33.0523 34.5482 33.0406L34.5754 33.0247C34.6314 33.0072 34.6915 33.0111 34.7441 33.0357C34.7966 33.0603 34.8377 33.1038 34.8594 33.1578C34.8811 33.2117 34.8817 33.2722 34.8613 33.3274C34.8408 33.3825 34.8006 33.4284 34.7487 33.4561L34.723 33.4747ZM35.6424 33.0955C35.5843 33.1194 35.5196 33.1194 35.4624 33.0954C35.4341 33.0836 35.4085 33.0662 35.387 33.0443C35.3656 33.0224 35.3487 32.9964 35.3374 32.9678C35.3261 32.9392 35.3206 32.9086 35.3212 32.8776C35.3217 32.8466 35.3283 32.816 35.3407 32.7874C35.353 32.7588 35.3708 32.7328 35.393 32.7109C35.4152 32.689 35.4415 32.6717 35.4702 32.6598L35.4974 32.6439C35.5555 32.62 35.6202 32.62 35.6774 32.6439C35.7346 32.6679 35.7795 32.7138 35.8024 32.7715C35.8252 32.8293 35.824 32.8942 35.7991 32.952C35.7742 33.0097 35.7276 33.0556 35.6696 33.0796L35.6424 33.0955ZM36.5602 32.7135C36.5038 32.7314 36.4432 32.7276 36.3903 32.7027C36.3375 32.6779 36.2962 32.6338 36.2747 32.5793C36.2532 32.5248 36.2531 32.4639 36.2744 32.4086C36.2957 32.3532 36.3368 32.3075 36.3895 32.2806L36.4168 32.2647C36.4455 32.2527 36.4762 32.2466 36.5071 32.2465C36.538 32.2465 36.5685 32.2526 36.5968 32.2644C36.6252 32.2763 36.6508 32.2937 36.6722 32.3157C36.6937 32.3376 36.7105 32.3637 36.7217 32.3923C36.7334 32.4206 36.7393 32.451 36.739 32.4819C36.7388 32.5127 36.7324 32.5432 36.7203 32.5717C36.7082 32.6003 36.6906 32.6262 36.6685 32.648C36.6464 32.6698 36.6203 32.6871 36.5916 32.6987L36.5602 32.7135ZM37.4822 32.3327C37.4538 32.3449 37.4233 32.3514 37.3926 32.3517C37.3619 32.352 37.3315 32.3462 37.3032 32.3346C37.275 32.3229 37.2494 32.3057 37.2281 32.284C37.2067 32.2622 37.19 32.2363 37.1788 32.2078C37.1674 32.1792 37.1618 32.1485 37.1623 32.1176C37.1628 32.0866 37.1694 32.0559 37.1818 32.0272C37.1941 31.9986 37.2119 31.9726 37.2342 31.9508C37.2565 31.9289 37.2828 31.9116 37.3116 31.8998L37.3388 31.8839C37.3969 31.86 37.4616 31.86 37.5188 31.8839C37.576 31.9078 37.6209 31.9537 37.6438 32.0115C37.6666 32.0693 37.6654 32.1342 37.6405 32.192C37.6156 32.2497 37.569 32.2956 37.511 32.3195L37.4822 32.3327ZM38.4016 31.9535C38.3435 31.9768 38.279 31.9765 38.222 31.9526C38.165 31.9287 38.12 31.8832 38.0966 31.8259C38.0745 31.7683 38.0762 31.7038 38.1014 31.6466C38.1266 31.5894 38.1732 31.5441 38.2309 31.5206L38.2582 31.5047C38.2873 31.4898 38.319 31.4811 38.3514 31.4791C38.3838 31.4771 38.4161 31.4819 38.4464 31.4931C38.4766 31.5043 38.5041 31.5217 38.527 31.5443C38.55 31.5668 38.568 31.5939 38.5798 31.624C38.5917 31.654 38.5971 31.6863 38.5958 31.7188C38.5945 31.7513 38.5865 31.7833 38.5724 31.8128C38.5582 31.8423 38.5381 31.8686 38.5133 31.8901C38.4886 31.9115 38.4598 31.9277 38.4288 31.9376L38.4016 31.9535ZM44.6939 28.8571C44.7519 28.8332 44.8167 28.8332 44.8738 28.8572C44.931 28.8811 44.976 28.927 44.9988 28.9848C45.0216 29.0426 45.0205 29.1075 44.9956 29.1652C44.9707 29.223 44.9241 29.2689 44.866 29.2928C44.8076 29.3171 44.7424 29.3177 44.6844 29.2944C44.6264 29.2711 44.5802 29.2259 44.5556 29.1683C44.5318 29.1121 44.5314 29.0483 44.5544 28.991C44.5775 28.9336 44.6222 28.8873 44.6787 28.8624L44.6939 28.8571ZM43.7897 29.2311C43.8477 29.2072 43.9125 29.2072 43.9697 29.2311C44.0268 29.2551 44.0718 29.301 44.0946 29.3587C44.1174 29.4165 44.1163 29.4814 44.0914 29.5392C44.0665 29.5969 44.0199 29.6428 43.9618 29.6668L43.9346 29.6827C43.9062 29.6949 43.8757 29.7013 43.845 29.7016C43.8143 29.7019 43.7839 29.6961 43.7556 29.6845C43.7274 29.6728 43.7018 29.6556 43.6805 29.6339C43.6591 29.6121 43.6424 29.5862 43.6312 29.5577C43.6198 29.5291 43.6142 29.4985 43.6147 29.4675C43.6152 29.4365 43.6218 29.4058 43.6342 29.3772C43.6465 29.3485 43.6643 29.3226 43.6866 29.3007C43.7089 29.2788 43.7352 29.2615 43.764 29.2497L43.7897 29.2311ZM42.8676 29.6119C42.8964 29.6 42.9271 29.5938 42.958 29.5938C42.9889 29.5937 43.0194 29.5998 43.0477 29.6117C43.0761 29.6235 43.1017 29.6409 43.1231 29.6629C43.1445 29.6848 43.1613 29.7109 43.1726 29.7396C43.1953 29.7968 43.1943 29.8611 43.17 29.9185C43.1456 29.9759 43.0998 30.0217 43.0425 30.046L43.0153 30.0619C42.9593 30.0794 42.8991 30.0755 42.8466 30.0509C42.7941 30.0263 42.7529 29.9828 42.7313 29.9288C42.7096 29.8749 42.7089 29.8144 42.7294 29.7592C42.7499 29.7041 42.79 29.6582 42.842 29.6305L42.8676 29.6119ZM41.9483 29.9911C42.0063 29.9672 42.0711 29.9672 42.1283 29.9912C42.1854 30.0151 42.2304 30.061 42.2532 30.1188C42.276 30.1765 42.2749 30.2414 42.25 30.2992C42.2251 30.357 42.1785 30.4028 42.1204 30.4268L42.0932 30.4427C42.0357 30.4665 41.9716 30.4667 41.9148 30.4433C41.8579 30.4199 41.813 30.3748 41.7898 30.3178C41.7784 30.2892 41.7728 30.2585 41.7733 30.2275C41.7738 30.1965 41.7804 30.1658 41.7928 30.1372C41.8051 30.1086 41.8229 30.0826 41.8452 30.0607C41.8675 30.0388 41.8938 30.0215 41.9226 30.0097L41.9483 29.9911ZM41.0289 30.3703C41.0868 30.3472 41.1511 30.3477 41.2078 30.372C41.2644 30.3962 41.3088 30.4421 41.3312 30.4996C41.3428 30.5279 41.3487 30.5583 41.3485 30.5891C41.3482 30.6199 41.3419 30.6505 41.3298 30.679C41.3177 30.7075 41.3001 30.7334 41.278 30.7552C41.2559 30.7771 41.2297 30.7943 41.2011 30.806L41.1739 30.8219C41.1452 30.8338 41.1144 30.84 41.0835 30.8401C41.0526 30.8401 41.0221 30.834 40.9938 30.8222C40.9655 30.8103 40.9398 30.7929 40.9184 30.7709C40.897 30.749 40.8802 30.7229 40.869 30.6943C40.8573 30.666 40.8514 30.6355 40.8516 30.6047C40.8519 30.5739 40.8582 30.5434 40.8703 30.5148C40.8824 30.4863 40.9001 30.4604 40.9222 30.4386C40.9442 30.4168 40.9704 30.3995 40.999 30.3878L41.0289 30.3703ZM40.1084 30.7539C40.1369 30.7416 40.1673 30.7352 40.1981 30.7349C40.2288 30.7346 40.2592 30.7404 40.2874 30.752C40.3157 30.7637 40.3412 30.7809 40.3626 30.8026C40.3839 30.8244 40.4007 30.8503 40.4118 30.8788C40.4232 30.9074 40.4288 30.9381 40.4283 30.969C40.4278 31 40.4212 31.0307 40.4089 31.0593C40.3965 31.088 40.3787 31.114 40.3564 31.1358C40.3341 31.1577 40.3078 31.175 40.279 31.1868L40.2518 31.2027C40.1938 31.2266 40.129 31.2266 40.0719 31.2027C40.0147 31.1787 39.9697 31.1328 39.9469 31.0751C39.9241 31.0173 39.9252 30.9524 39.9501 30.8946C39.975 30.8369 40.0216 30.791 40.0797 30.7671L40.1084 30.7539ZM39.1891 31.1331C39.2182 31.1182 39.2499 31.1095 39.2823 31.1075C39.3147 31.1055 39.3471 31.1103 39.3773 31.1215C39.4075 31.1327 39.435 31.1501 39.458 31.1727C39.481 31.1952 39.4989 31.2223 39.5108 31.2524C39.5226 31.2824 39.5281 31.3147 39.5268 31.3472C39.5255 31.3797 39.5175 31.4117 39.5033 31.4412C39.4891 31.4707 39.469 31.497 39.4443 31.5185C39.4196 31.54 39.3908 31.5561 39.3597 31.566L39.3298 31.5835C39.2819 31.6046 39.2283 31.6078 39.1789 31.5925C39.1443 31.5833 39.1124 31.5662 39.0856 31.5425C39.0589 31.5188 39.0381 31.4892 39.0248 31.4559C39.014 31.4253 39.009 31.3928 39.0101 31.3601C39.0122 31.3147 39.0272 31.2705 39.0533 31.2329C39.0795 31.1953 39.1156 31.1658 39.1576 31.1479L39.1891 31.1331Z" fill="#C3DFFF"/>
<path d="M29.3305 36.7494L32.2242 44.044C32.8751 44.0489 33.5027 44.2679 34.0106 44.6673C34.1159 44.6327 34.2246 44.6101 34.3345 44.6001C34.4573 44.5015 34.5938 44.4217 34.7394 44.3633C34.8845 44.3036 35.0372 44.2652 35.1925 44.2493C35.3153 44.1508 35.4517 44.071 35.5974 44.0125C35.742 43.9514 35.8949 43.9129 36.0505 43.8986C36.1723 43.7986 36.309 43.7186 36.4554 43.6618C36.6 43.6006 36.7529 43.5622 36.9085 43.5478C37.0312 43.4493 37.1677 43.3695 37.3133 43.311C37.4584 43.2531 37.6106 43.2162 37.7653 43.2013C37.8888 43.102 38.0262 43.0217 38.1729 42.963C38.3175 42.9036 38.4699 42.8666 38.6248 42.8533C38.7476 42.7547 38.884 42.6749 39.0297 42.6165C39.175 42.5562 39.3284 42.5187 39.4843 42.5052C39.6071 42.4067 39.7435 42.3269 39.8892 42.2685C40.0343 42.2088 40.1869 42.1704 40.3423 42.1545C40.4658 42.057 40.6021 41.9773 40.7472 41.9177C40.8918 41.8566 41.0447 41.8181 41.2003 41.8037C41.322 41.7037 41.4588 41.6238 41.6051 41.567C41.7498 41.5058 41.9027 41.4674 42.0582 41.453C42.181 41.3544 42.3175 41.2746 42.4631 41.2162C42.6089 41.1573 42.762 41.1198 42.9178 41.1049C43.0405 41.0064 43.177 40.9266 43.3226 40.8682C43.468 40.8079 43.6213 40.7703 43.7773 40.7569C43.9001 40.6583 44.0365 40.5785 44.1822 40.5201C44.3275 40.4598 44.4809 40.4223 44.6368 40.4088C44.7596 40.3103 44.896 40.2305 45.0417 40.1721C45.1868 40.1123 45.3394 40.0739 45.4948 40.0581C45.6176 39.9595 45.754 39.8797 45.8997 39.8213C46.0443 39.7601 46.1972 39.7217 46.3528 39.7073C46.4496 39.6344 46.5545 39.573 46.6653 39.5246C46.7562 38.8784 47.0582 38.2769 47.5238 37.8147L44.6302 30.5201L29.3305 36.7494Z" stroke="#70B2FF" stroke-width="0.518515" stroke-miterlimit="10"/>
<path d="M23.3554 8.21629C23.2101 8.27608 23.0573 8.31452 22.9018 8.3304C22.7789 8.42905 22.6423 8.50893 22.4965 8.56741C22.3517 8.62864 22.1987 8.66714 22.043 8.68152C21.9211 8.78162 21.7842 8.86166 21.6377 8.91853C21.4929 8.97976 21.3399 9.01825 21.1841 9.03264C21.0612 9.13128 20.9246 9.21117 20.7788 9.26964C20.6329 9.32861 20.4796 9.36614 20.3237 9.38105C20.2429 9.44922 20.1547 9.50802 20.061 9.55631C19.9707 10.2049 19.6679 10.8087 19.2003 11.2723L28.3879 34.4532L43.6518 28.1466L34.4643 4.9657C33.8129 4.96423 33.1844 4.74569 32.6776 4.34445C32.3994 4.36405 32.1339 4.47618 31.9235 4.66306C31.7776 4.72203 31.6243 4.75956 31.4684 4.77447C31.3456 4.87312 31.2089 4.95301 31.0632 5.01148C30.9177 5.07185 30.7642 5.10943 30.608 5.12289C30.4852 5.22154 30.3486 5.30142 30.2028 5.3599C30.0573 5.42027 29.9038 5.45785 29.7477 5.47131C29.6248 5.56995 29.4882 5.64984 29.3424 5.70832C29.1971 5.76811 29.0443 5.80654 28.8888 5.82242C28.7652 5.91997 28.6287 5.99976 28.4835 6.05943C28.3383 6.11922 28.1855 6.15766 28.03 6.17355C27.9071 6.27219 27.7705 6.35208 27.6247 6.41055C27.4799 6.47178 27.3269 6.51027 27.1711 6.52466C27.0492 6.62476 26.9124 6.70479 26.7658 6.76166C26.621 6.82289 26.468 6.86139 26.3122 6.87577C26.1894 6.97441 26.0528 7.0543 25.907 7.11277C25.7624 7.17266 25.6097 7.20972 25.4546 7.2226C25.331 7.32204 25.1934 7.40247 25.0466 7.4612C24.9018 7.52061 24.7493 7.55764 24.5942 7.57102C24.4713 7.66966 24.3347 7.74955 24.1889 7.80802C24.0434 7.86839 23.8899 7.90598 23.7338 7.91944C23.6232 8.03693 23.4956 8.13704 23.3554 8.21629Z" stroke="#70B2FF" stroke-width="0.518515" stroke-miterlimit="10"/>
<path d="M28.3093 30.705L29.2778 30.3184L28.9032 29.3686L27.9381 29.7676L27.6968 29.1534L30.0573 28.1758L30.3002 28.7926L29.3925 29.1652L29.7699 30.1134L30.6775 29.7408L30.9216 30.3534L28.5567 31.33L28.3093 30.705Z" fill="#407BFF"/>
<path d="M28.0349 26.5833L29.21 26.1011L29.4414 26.6851L29.2357 26.7694C29.3424 26.8029 29.4392 26.8617 29.5178 26.9409C29.5963 27.0201 29.6545 27.1175 29.6873 27.2247C29.7274 27.3002 29.7509 27.3838 29.7562 27.4697C29.7614 27.5557 29.7483 27.6421 29.7178 27.7233C29.6872 27.8045 29.6399 27.8785 29.579 27.9404C29.518 28.0023 29.4448 28.0508 29.3643 28.0825C29.0174 28.2243 28.7221 28.0624 28.5355 27.6141L28.3505 27.1433L28.3314 27.1544C28.1572 27.2239 28.1011 27.3862 28.1939 27.6125C28.2787 27.7975 28.401 27.9623 28.5531 28.0966L28.2158 28.4269C27.9821 28.2157 27.7994 27.9538 27.6812 27.6606C27.4901 27.1537 27.617 26.7594 28.0349 26.5833ZM28.8368 26.9344L28.6792 27.0014L28.8206 27.3575C28.8864 27.524 28.9791 27.5849 29.108 27.5311C29.2368 27.4773 29.2753 27.3541 29.2171 27.2011C29.1913 27.1212 29.1404 27.0521 29.0719 27.0041C29.0034 26.9561 28.921 26.9317 28.8368 26.9344Z" fill="#407BFF"/>
<path d="M26.3165 26.1077L28.8158 25.0739L29.0443 25.6588L26.5477 26.6909L26.3165 26.1077Z" fill="#407BFF"/>
<path opacity="0.7" d="M34.7588 13.2731L37.8551 21.0849C37.9167 21.2398 37.947 21.4059 37.9442 21.5737C37.9414 21.7414 37.9057 21.9076 37.839 22.0627C37.7723 22.2177 37.6759 22.3586 37.5555 22.4773C37.435 22.596 37.2928 22.6901 37.137 22.7542C36.9813 22.8187 36.815 22.8521 36.6476 22.8523C36.4802 22.8525 36.315 22.8196 36.1615 22.7555C36.0079 22.6914 35.869 22.5974 35.7528 22.4788C35.6365 22.3601 35.5451 22.2193 35.4839 22.0642L32.3876 14.2525C32.326 14.0976 32.2957 13.9315 32.2985 13.7637C32.3013 13.596 32.337 13.4298 32.4037 13.2747C32.4705 13.1197 32.5668 12.9787 32.6872 12.8601C32.8077 12.7414 32.9499 12.6473 33.1057 12.5831C33.4202 12.4538 33.7708 12.4537 34.0807 12.5831C34.3906 12.7124 34.6345 12.9606 34.7588 13.2731Z" fill="white"/>
<path d="M34.0781 21.7134L31.594 15.4476" stroke="#407BFF" stroke-width="0.518515" stroke-linecap="round" stroke-linejoin="round"/>
<path d="M38.9375 19.7144L36.4534 13.4486" stroke="#407BFF" stroke-width="0.518515" stroke-linecap="round" stroke-linejoin="round"/>
<path d="M35.6797 11.519L35.2042 10.3161" stroke="#407BFF" stroke-width="0.518515" stroke-linecap="round" stroke-linejoin="round"/>
<path d="M39.6485 21.4905L40.4297 23.4587" stroke="#407BFF" stroke-width="0.518515" stroke-linecap="round" stroke-linejoin="round"/>
<path d="M37.5752 41.4825L41.9171 39.6918" stroke="#407BFF" stroke-width="0.518515" stroke-linecap="round" stroke-linejoin="round"/>
<path d="M43.2565 39.1453L44.0849 38.8012" stroke="#407BFF" stroke-width="0.518515" stroke-linecap="round" stroke-linejoin="round"/>
<path d="M36.3486 41.9883L34.9861 42.5511" stroke="#407BFF" stroke-width="0.518515" stroke-linecap="round" stroke-linejoin="round"/>
<path d="M32.974 37.3766L34.8086 42.0168L35.7329 41.6372L33.8984 36.9969L32.974 37.3766Z" fill="white"/>
<path d="M41.2318 33.9899L43.0664 38.6301L43.9907 38.2505L42.1562 33.6102L41.2318 33.9899Z" fill="white"/>
<path d="M34.2878 36.6932L36.1328 41.333L36.3605 41.2392L34.5155 36.5994L34.2878 36.6932Z" fill="white"/>
<path d="M35.1469 36.4846L36.9844 41.1267L37.2122 41.0333L35.3747 36.3912L35.1469 36.4846Z" fill="white"/>
<path d="M38.2527 35.0609L40.0977 39.7007L40.3253 39.6069L38.4803 34.9671L38.2527 35.0609Z" fill="white"/>
<path d="M35.6563 36.2758L37.4922 40.917L38.0466 40.6894L36.2107 36.0482L35.6563 36.2758Z" fill="white"/>
<path d="M39.598 34.5054L41.4414 39.1443L41.9956 38.9158L40.1521 34.2769L39.598 34.5054Z" fill="white"/>
<path d="M39.0547 34.8791L40.8906 39.5203L41.445 39.2927L39.6091 34.6515L39.0547 34.8791Z" fill="white"/>
<path d="M36.3693 35.8324L38.2148 40.4724L38.3521 40.4159L36.5065 35.7758L36.3693 35.8324Z" fill="white"/>
<path d="M34.0917 36.9151L35.9297 41.5574L36.067 41.5011L34.229 36.8587L34.0917 36.9151Z" fill="white"/>
<path d="M37.7599 35.2596L39.6055 39.8997L39.7427 39.8431L37.8972 35.2031L37.7599 35.2596Z" fill="white"/>
<path d="M36.7834 35.6627L38.6289 40.3027L38.7661 40.2462L36.9206 35.6061L36.7834 35.6627Z" fill="white"/>
<path d="M40.7049 34.2048L42.543 38.8472L42.6803 38.7908L40.8422 34.1485L40.7049 34.2048Z" fill="white"/>
<path d="M5.37412 25.3858L5.0618 25.716L5.11469 25.7642C5.27326 25.9156 5.39995 26.0973 5.48752 26.2991C5.5751 26.5008 5.62184 26.7186 5.62508 26.94C5.62831 27.1613 5.58797 27.3819 5.50637 27.5892C5.42477 27.7964 5.3035 27.9863 5.1495 28.1478C5.11686 28.1669 5.09227 28.2065 5.05998 28.2325L8.29366 31.3222L28.6761 50.7908L31.9082 53.8777C31.933 53.8451 31.9605 53.8146 31.9904 53.7865C32.1437 53.6246 32.3268 53.4942 32.5292 53.4026C32.7317 53.311 32.9495 53.26 33.1701 53.2527C33.3908 53.2454 33.6099 53.2819 33.8149 53.36C34.0199 53.4381 34.2068 53.5563 34.3648 53.7079L34.4165 53.7604L34.7288 53.4303C34.6839 53.3783 34.6603 53.311 34.6625 53.2416C34.6647 53.1723 34.6926 53.1058 34.7408 53.0551C34.789 53.0044 34.854 52.9733 34.923 52.9677C34.9921 52.9621 35.0603 52.9825 35.1143 53.0249L35.371 52.7561C35.3261 52.7041 35.3024 52.6368 35.3046 52.5674C35.3069 52.4981 35.3348 52.4316 35.383 52.3809C35.4311 52.3302 35.4961 52.2991 35.5652 52.2935C35.6343 52.2879 35.7025 52.3083 35.7565 52.3507L36.0131 52.0819C35.9682 52.0299 35.9446 51.9626 35.9468 51.8932C35.949 51.8239 35.9769 51.7574 36.0251 51.7067C36.0733 51.656 36.1382 51.6249 36.2073 51.6193C36.2764 51.6137 36.3446 51.6341 36.3986 51.6765L36.6552 51.4076C36.6049 51.357 36.5764 51.2883 36.5759 51.2162C36.5753 51.144 36.6027 51.0739 36.6523 51.0207C36.7031 50.9681 36.7719 50.9369 36.8442 50.9335C36.9166 50.93 36.987 50.9547 37.0408 51.0023L37.2974 50.7334C37.2463 50.6832 37.2173 50.6144 37.2168 50.542C37.2162 50.4696 37.2441 50.3994 37.2944 50.3465C37.3453 50.2939 37.414 50.2627 37.4864 50.2593C37.5587 50.2558 37.6291 50.2805 37.6829 50.3281L37.9368 50.0608C37.8919 50.0088 37.8682 49.9416 37.8705 49.8722C37.8727 49.8028 37.9006 49.7363 37.9488 49.6857C37.997 49.635 38.0619 49.6038 38.131 49.5983C38.2001 49.5927 38.2683 49.6131 38.3223 49.6555L38.5789 49.3866C38.534 49.3346 38.5104 49.2674 38.5126 49.198C38.5148 49.1286 38.5427 49.0621 38.5909 49.0115C38.6391 48.9608 38.7041 48.9296 38.7731 48.9241C38.8422 48.9185 38.9104 48.9389 38.9644 48.9812L39.2211 48.7124C39.1762 48.6604 39.1525 48.5932 39.1547 48.5238C39.1569 48.4544 39.1849 48.3879 39.233 48.3373C39.2812 48.2866 39.3462 48.2554 39.4153 48.2498C39.4843 48.2443 39.5525 48.2647 39.6066 48.307L39.8632 48.0382C39.8183 47.9862 39.7946 47.919 39.7969 47.8496C39.7991 47.7802 39.827 47.7137 39.8752 47.6631C39.9234 47.6124 39.9883 47.5812 40.0574 47.5756C40.1265 47.5701 40.1947 47.5905 40.2487 47.6328L40.5053 47.364C40.4549 47.3133 40.4265 47.2447 40.4259 47.1725C40.4254 47.1004 40.4528 47.0303 40.5024 46.9771C40.5532 46.9245 40.622 46.8933 40.6943 46.8898C40.7667 46.8864 40.8371 46.911 40.8908 46.9586L41.1475 46.6898C41.0971 46.6391 41.0686 46.5705 41.0681 46.4983C41.0675 46.4262 41.0949 46.3561 41.1445 46.3029C41.1953 46.2503 41.2641 46.2191 41.3364 46.2156C41.4088 46.2122 41.4792 46.2368 41.533 46.2844L41.8012 46.0232C41.7752 45.9985 41.7544 45.9688 41.74 45.9358C41.7256 45.9028 41.7178 45.8672 41.7172 45.8309C41.7166 45.7947 41.7231 45.7586 41.7364 45.7246C41.7497 45.6907 41.7694 45.6595 41.7946 45.633C41.8197 45.6065 41.8497 45.5851 41.8829 45.5701C41.9161 45.5551 41.9517 45.5467 41.9879 45.5454C42.0241 45.5442 42.06 45.55 42.0936 45.5627C42.1273 45.5754 42.158 45.5947 42.184 45.6194L42.4406 45.3506C42.3957 45.2986 42.3721 45.2314 42.3743 45.162C42.3765 45.0926 42.4044 45.0261 42.4526 44.9755C42.5008 44.9248 42.5657 44.8936 42.6348 44.888C42.7039 44.8824 42.7721 44.9028 42.8261 44.9452L43.0827 44.6764C43.0378 44.6244 43.0142 44.5572 43.0164 44.4878C43.0186 44.4184 43.0465 44.3519 43.0947 44.3013C43.1429 44.2506 43.2079 44.2194 43.2769 44.2138C43.346 44.2082 43.4142 44.2286 43.4682 44.271L43.7249 44.0022C43.68 43.9502 43.6563 43.883 43.6585 43.8136C43.6608 43.7442 43.6887 43.6777 43.7369 43.627C43.785 43.5764 43.85 43.5452 43.9191 43.5396C43.9882 43.534 44.0564 43.5544 44.1104 43.5968L44.367 43.328C44.3166 43.2773 44.2882 43.2087 44.2876 43.1365C44.2871 43.0643 44.3145 42.9943 44.3641 42.9411C44.4149 42.8885 44.4836 42.8573 44.556 42.8538C44.6283 42.8504 44.6987 42.875 44.7525 42.9226L45.0929 42.5652L45.0388 42.5213C44.7193 42.2152 44.5362 41.7923 44.5297 41.3455C44.5232 40.8987 44.6937 40.4644 45.004 40.1377C45.0314 40.1071 45.0614 40.0787 45.0935 40.053L41.8598 36.9634L21.4801 17.4931L18.2464 14.4035C18.2218 14.4367 18.1949 14.4681 18.1658 14.4974C17.8547 14.8232 17.4296 15.0143 16.9837 15.0289C16.5378 15.0434 16.1075 14.8801 15.7871 14.5749L15.737 14.5251L15.3993 14.8808C15.4442 14.9328 15.4679 15.0001 15.4657 15.0695C15.4635 15.1388 15.4355 15.2053 15.3874 15.256C15.3392 15.3067 15.2742 15.3378 15.2051 15.3434C15.1361 15.349 15.0678 15.3286 15.0138 15.2862L14.7572 15.555C14.8021 15.607 14.8258 15.6743 14.8235 15.7437C14.8213 15.813 14.7934 15.8795 14.7452 15.9302C14.697 15.9809 14.6321 16.012 14.563 16.0176C14.4939 16.0232 14.4257 16.0028 14.3717 15.9604L14.1151 16.2293C14.16 16.2812 14.1836 16.3485 14.1814 16.4179C14.1792 16.4872 14.1513 16.5538 14.1031 16.6044C14.0549 16.6551 13.9899 16.6862 13.9209 16.6918C13.8518 16.6974 13.7836 16.677 13.7296 16.6346L13.4729 16.9035C13.5178 16.9554 13.5415 17.0227 13.5393 17.0921C13.5371 17.1614 13.5091 17.228 13.461 17.2786C13.4128 17.3293 13.3478 17.3604 13.2787 17.366C13.2097 17.3716 13.1414 17.3512 13.0874 17.3088L12.8308 17.5777C12.8812 17.6283 12.9096 17.697 12.9102 17.7691C12.9107 17.8413 12.8833 17.9114 12.8337 17.9646C12.7829 18.0172 12.7142 18.0484 12.6418 18.0518C12.5695 18.0553 12.4991 18.0306 12.4453 17.983L12.1887 18.2519C12.2412 18.3018 12.2714 18.371 12.2726 18.4441C12.2739 18.5173 12.246 18.5885 12.1953 18.6421C12.1445 18.6956 12.075 18.7271 12.0019 18.7297C11.9289 18.7322 11.8584 18.7056 11.8059 18.6557L11.5493 18.9245C11.5942 18.9765 11.6178 19.0437 11.6156 19.1131C11.6134 19.1825 11.5854 19.249 11.5373 19.2996C11.4891 19.3503 11.4241 19.3815 11.355 19.3871C11.286 19.3926 11.2178 19.3723 11.1637 19.3299L10.9071 19.5987C10.952 19.6507 10.9757 19.7179 10.9735 19.7873C10.9712 19.8567 10.9433 19.9232 10.8951 19.9738C10.847 20.0245 10.782 20.0557 10.7129 20.0613C10.6438 20.0668 10.5756 20.0465 10.5216 20.0041L10.265 20.2729C10.3173 20.3234 10.3472 20.393 10.3479 20.4665C10.3486 20.54 10.3202 20.6113 10.2689 20.6647C10.2175 20.7181 10.1475 20.7492 10.0742 20.7513C10.0009 20.7533 9.93029 20.7261 9.87793 20.6756L9.62096 20.9374C9.64688 20.9624 9.66755 20.9924 9.68177 21.0256C9.696 21.0588 9.70351 21.0947 9.70387 21.131C9.70423 21.1674 9.69744 21.2036 9.68388 21.2376C9.67032 21.2716 9.65026 21.3027 9.62485 21.3292C9.59943 21.3556 9.56916 21.3769 9.53576 21.3917C9.50236 21.4066 9.46648 21.4148 9.43018 21.4158C9.39388 21.4168 9.35786 21.4106 9.32418 21.3976C9.29051 21.3846 9.25983 21.3651 9.2339 21.3401L8.97882 21.6116C9.03118 21.6621 9.06101 21.7318 9.06174 21.8052C9.06247 21.8787 9.03404 21.95 8.98271 22.0034C8.93138 22.0568 8.86136 22.0879 8.78804 22.09C8.71473 22.092 8.64413 22.0648 8.59177 22.0143L8.33669 22.2858C8.38779 22.3361 8.41676 22.4049 8.41731 22.4773C8.41786 22.5497 8.38995 22.6199 8.33963 22.6727C8.28837 22.7254 8.21911 22.7564 8.1464 22.7594C8.07368 22.7623 8.00315 22.7369 7.94963 22.6885L7.69727 22.9584C7.74702 23.0099 7.77478 23.0789 7.77482 23.1513C7.77486 23.2236 7.74718 23.2936 7.6975 23.347C7.64654 23.3993 7.57761 23.43 7.50532 23.4327C7.43302 23.4353 7.36305 23.4096 7.31022 23.3611L7.05514 23.6326C7.08107 23.6576 7.10173 23.6876 7.11596 23.7208C7.13019 23.7541 7.13769 23.7899 7.13805 23.8263C7.13878 23.8997 7.11036 23.971 7.05903 24.0244C7.00771 24.0778 6.93768 24.109 6.86436 24.111C6.79105 24.113 6.72045 24.0858 6.66809 24.0353L6.41301 24.3068C6.43893 24.3318 6.4596 24.3618 6.47382 24.395C6.48805 24.4283 6.49556 24.4641 6.49592 24.5005C6.49628 24.5368 6.48949 24.5731 6.47593 24.6071C6.46237 24.6411 6.44231 24.6722 6.4169 24.6986C6.39148 24.7251 6.36121 24.7463 6.32781 24.7612C6.29441 24.776 6.25853 24.7842 6.22223 24.7852C6.18593 24.7862 6.14991 24.78 6.11623 24.7671C6.08255 24.7541 6.05188 24.7345 6.02595 24.7095L5.77087 24.981C5.82323 25.0315 5.85306 25.1012 5.85379 25.1747C5.85451 25.2481 5.82609 25.3194 5.77476 25.3728C5.72344 25.4262 5.65341 25.4574 5.58009 25.4594C5.50678 25.4614 5.43618 25.4342 5.38382 25.3837L5.37412 25.3858ZM37.288 33.3715C37.3318 33.3268 37.391 33.3008 37.4529 33.2988C37.5148 33.2969 37.5746 33.3193 37.6195 33.3612C37.6415 33.3823 37.6591 33.4077 37.6713 33.4358C37.6834 33.464 37.6899 33.4943 37.6903 33.5251C37.6907 33.556 37.685 33.5867 37.6736 33.6156C37.6622 33.6444 37.6453 33.6709 37.6238 33.6934C37.6026 33.7186 37.5765 33.7394 37.5472 33.7544C37.5178 33.7694 37.4859 33.7783 37.4532 33.7806C37.4205 33.7828 37.3879 33.7784 37.3572 33.7675C37.3266 33.7567 37.2986 33.7397 37.2749 33.7175C37.2527 33.6971 37.2349 33.6725 37.2224 33.645C37.21 33.6175 37.2032 33.5877 37.2024 33.5573C37.2016 33.5269 37.2069 33.4966 37.2179 33.4681C37.229 33.4395 37.2455 33.4134 37.2666 33.3912L37.288 33.3715ZM36.6074 34.0862C36.6288 34.0638 36.6544 34.0457 36.6827 34.033C36.711 34.0203 36.7414 34.0133 36.7722 34.0123C36.803 34.0114 36.8335 34.0165 36.8621 34.0274C36.8907 34.0383 36.9168 34.0548 36.9388 34.0759C36.9609 34.0971 36.9785 34.1224 36.9906 34.1506C37.0028 34.1787 37.0092 34.209 37.0096 34.2399C37.01 34.2707 37.0044 34.3015 36.993 34.3303C36.9815 34.3592 36.9646 34.3856 36.9431 34.4081L36.9159 34.424C36.8722 34.4687 36.813 34.4947 36.7511 34.4967C36.6892 34.4986 36.6294 34.4762 36.5845 34.4343C36.54 34.3916 36.5145 34.3326 36.5137 34.2703C36.5129 34.2081 36.5368 34.1476 36.5802 34.1021L36.6074 34.0862ZM35.9282 34.8037C35.9497 34.7812 35.9753 34.7631 36.0036 34.7504C36.0319 34.7377 36.0623 34.7307 36.093 34.7297C36.1238 34.7288 36.1544 34.7339 36.183 34.7448C36.2115 34.7558 36.2376 34.7723 36.2597 34.7934C36.2817 34.8145 36.2993 34.8399 36.3115 34.868C36.3236 34.8961 36.3301 34.9265 36.3305 34.9573C36.3309 34.9882 36.3252 35.0189 36.3138 35.0478C36.3024 35.0766 36.2855 35.103 36.264 35.1255L36.2395 35.1398C36.1961 35.1853 36.1369 35.2119 36.0747 35.2138C36.0125 35.2157 35.9526 35.1928 35.9081 35.1501C35.8635 35.1075 35.8381 35.0485 35.8373 34.9862C35.8364 34.9239 35.8604 34.8634 35.9037 34.818L35.9282 34.8037ZM35.2491 35.5211C35.2924 35.4757 35.3517 35.4491 35.4139 35.4472C35.476 35.4453 35.536 35.4681 35.5805 35.5108C35.625 35.5535 35.6505 35.6125 35.6513 35.6748C35.6521 35.7371 35.6282 35.7976 35.5849 35.843L35.5576 35.8589C35.5362 35.8814 35.5106 35.8995 35.4823 35.9121C35.454 35.9248 35.4236 35.9319 35.3928 35.9328C35.3621 35.9338 35.3315 35.9286 35.3029 35.9177C35.2743 35.9068 35.2483 35.8903 35.2262 35.8692C35.2042 35.848 35.1866 35.8227 35.1744 35.7945C35.1623 35.7664 35.1558 35.7361 35.1554 35.7052C35.155 35.6744 35.1607 35.6437 35.1721 35.6148C35.1835 35.5859 35.2004 35.5595 35.2219 35.537L35.2491 35.5211ZM34.5699 36.2386C34.6133 36.1932 34.6726 36.1666 34.7347 36.1646C34.7969 36.1627 34.8568 36.1856 34.9014 36.2283C34.9238 36.2492 34.9417 36.2745 34.9541 36.3026C34.9665 36.3308 34.9731 36.3612 34.9735 36.3922C34.9739 36.4231 34.9681 36.454 34.9565 36.4829C34.9448 36.5118 34.9276 36.5381 34.9057 36.5604L34.8785 36.5763C34.857 36.5988 34.8314 36.6169 34.8031 36.6296C34.7749 36.6423 34.7445 36.6493 34.7137 36.6503C34.6829 36.6512 34.6523 36.6461 34.6238 36.6352C34.5952 36.6242 34.5691 36.6077 34.5471 36.5866C34.525 36.5655 34.5074 36.5401 34.4953 36.512C34.4831 36.4839 34.4766 36.4535 34.4762 36.4227C34.4758 36.3918 34.4815 36.3611 34.4929 36.3322C34.5043 36.3034 34.5212 36.277 34.5427 36.2545L34.5699 36.2386ZM33.8908 36.956C33.9123 36.9335 33.9379 36.9154 33.9661 36.9027C33.9944 36.89 34.0248 36.883 34.0556 36.8821C34.0864 36.8811 34.1169 36.8862 34.1455 36.8972C34.1741 36.9081 34.2002 36.9246 34.2222 36.9457C34.2446 36.9666 34.2626 36.9919 34.275 37.02C34.2874 37.0482 34.2939 37.0786 34.2944 37.1096C34.2948 37.1406 34.289 37.1714 34.2773 37.2003C34.2657 37.2292 34.2484 37.2556 34.2266 37.2779L34.2021 37.2922C34.1808 37.315 34.1553 37.3335 34.127 37.3464C34.0987 37.3593 34.0682 37.3665 34.0373 37.3674C34.0064 37.3684 33.9757 37.3631 33.9471 37.352C33.9185 37.3408 33.8925 37.324 33.8706 37.3025C33.8262 37.2602 33.8005 37.2018 33.7992 37.1399C33.7979 37.078 33.821 37.0176 33.8636 36.9719L33.8908 36.956ZM33.2116 37.6734C33.2558 37.6295 33.3148 37.6039 33.3765 37.602C33.4382 37.6001 33.4978 37.622 33.5431 37.6632C33.5868 37.7063 33.6118 37.7651 33.6126 37.8271C33.6134 37.8892 33.59 37.9495 33.5474 37.9953L33.5202 38.0112C33.4987 38.0337 33.4731 38.0518 33.4448 38.0645C33.4166 38.0772 33.3862 38.0842 33.3554 38.0851C33.3246 38.0861 33.2941 38.081 33.2655 38.07C33.2369 38.0591 33.2108 38.0426 33.1888 38.0215C33.1667 38.0004 33.1491 37.975 33.137 37.9469C33.1248 37.9187 33.1184 37.8884 33.1179 37.8575C33.1175 37.8267 33.1232 37.796 33.1346 37.7671C33.146 37.7383 33.1629 37.7118 33.1844 37.6893L33.2116 37.6734ZM32.534 38.3936C32.5542 38.367 32.5796 38.3449 32.6087 38.3288C32.6378 38.3126 32.6699 38.3027 32.7028 38.2998C32.7357 38.2968 32.7688 38.3008 32.7998 38.3116C32.8308 38.3224 32.8591 38.3396 32.8828 38.3623C32.9065 38.3849 32.9251 38.4124 32.9373 38.4429C32.9495 38.4734 32.9551 38.5063 32.9538 38.5394C32.9524 38.5725 32.9441 38.605 32.9293 38.6349C32.9146 38.6648 32.8938 38.6913 32.8683 38.7127L32.8411 38.7286C32.8196 38.7511 32.794 38.7692 32.7657 38.7819C32.7374 38.7946 32.707 38.8016 32.6762 38.8026C32.6455 38.8035 32.6149 38.7984 32.5863 38.7875C32.5577 38.7766 32.5317 38.7601 32.5096 38.7389C32.4658 38.6958 32.4409 38.637 32.4401 38.5749C32.4393 38.5129 32.4627 38.4526 32.5053 38.4068L32.534 38.3936ZM31.8549 39.111C31.8761 39.0882 31.9017 39.0697 31.93 39.0568C31.9583 39.0439 31.9888 39.0367 32.0197 39.0358C32.0506 39.0348 32.0812 39.0401 32.1099 39.0512C32.1385 39.0624 32.1645 39.0792 32.1863 39.1007C32.2084 39.1219 32.226 39.1472 32.2381 39.1754C32.2503 39.2035 32.2567 39.2338 32.2571 39.2647C32.2575 39.2955 32.2519 39.3262 32.2405 39.3551C32.2291 39.384 32.2121 39.4104 32.1907 39.4329L32.1662 39.4472C32.1459 39.4732 32.1205 39.4948 32.0917 39.5106C32.0628 39.5264 32.031 39.536 31.9985 39.5388C31.9659 39.5417 31.9332 39.5377 31.9025 39.5271C31.8718 39.5165 31.8438 39.4995 31.8202 39.4773C31.7966 39.4551 31.778 39.4281 31.7656 39.398C31.7531 39.368 31.7472 39.3356 31.748 39.3028C31.7489 39.2701 31.7565 39.2378 31.7705 39.208C31.7845 39.1781 31.8045 39.1515 31.8292 39.1296L31.8549 39.111ZM31.1757 39.8285C31.2194 39.7828 31.279 39.7559 31.3416 39.7537C31.4042 39.7514 31.4646 39.774 31.5099 39.8166C31.553 39.8601 31.5774 39.9188 31.5782 39.9806C31.579 40.0424 31.5561 40.1026 31.5142 40.1487L31.487 40.1646C31.4432 40.2093 31.3841 40.2354 31.3222 40.2373C31.2603 40.2392 31.2005 40.2168 31.1556 40.1749C31.1332 40.154 31.1152 40.1287 31.1028 40.1006C31.0904 40.0724 31.0838 40.042 31.0834 40.011C31.083 39.9801 31.0888 39.9492 31.1005 39.9203C31.1121 39.8914 31.1294 39.8651 31.1512 39.8428L31.1757 39.8285ZM30.4966 40.5459C30.5399 40.5005 30.5992 40.4739 30.6614 40.472C30.7235 40.47 30.7835 40.4929 30.828 40.5356C30.8718 40.5787 30.8968 40.6376 30.8976 40.6996C30.8984 40.7616 30.875 40.822 30.8324 40.8678L30.8052 40.8837C30.7837 40.9061 30.7581 40.9242 30.7298 40.9369C30.7015 40.9496 30.6711 40.9566 30.6403 40.9576C30.6096 40.9585 30.579 40.9534 30.5504 40.9425C30.5218 40.9316 30.4958 40.9151 30.4737 40.8939C30.4513 40.873 30.4334 40.8478 30.421 40.8196C30.4086 40.7915 30.402 40.761 30.4016 40.7301C30.4012 40.6991 30.407 40.6682 30.4186 40.6394C30.4302 40.6105 30.4475 40.5841 30.4694 40.5618L30.4966 40.5459ZM29.8174 41.2633C29.8389 41.2409 29.8645 41.2228 29.8928 41.2101C29.9211 41.1974 29.9515 41.1904 29.9822 41.1894C30.013 41.1885 30.0436 41.1936 30.0722 41.2045C30.1008 41.2154 30.1268 41.2319 30.1489 41.2531C30.1709 41.2742 30.1885 41.2995 30.2007 41.3277C30.2128 41.3558 30.2193 41.3862 30.2197 41.417C30.2201 41.4478 30.2144 41.4786 30.203 41.5074C30.1916 41.5363 30.1747 41.5627 30.1532 41.5852L30.126 41.6011C30.0826 41.6465 30.0233 41.6731 29.9612 41.675C29.899 41.677 29.8391 41.6541 29.7946 41.6114C29.75 41.5687 29.7246 41.5097 29.7237 41.4474C29.7229 41.3852 29.7468 41.3247 29.7902 41.2792L29.8174 41.2633ZM29.1383 41.9808C29.1814 41.935 29.2407 41.908 29.3029 41.9057C29.3652 41.9033 29.4254 41.9259 29.4703 41.9684C29.5152 42.0108 29.5411 42.0697 29.5423 42.1321C29.5435 42.1945 29.52 42.2553 29.4768 42.301L29.4496 42.317C29.4062 42.3624 29.3469 42.389 29.2848 42.3909C29.2226 42.3928 29.1627 42.3699 29.1181 42.3272C29.0736 42.2846 29.0481 42.2256 29.0473 42.1633C29.0465 42.101 29.0704 42.0405 29.1138 41.9951L29.1383 41.9808ZM28.4591 42.6982C28.4806 42.6757 28.5062 42.6576 28.5345 42.645C28.5628 42.6323 28.5932 42.6253 28.624 42.6243C28.6547 42.6233 28.6853 42.6285 28.7139 42.6394C28.7425 42.6503 28.7685 42.6668 28.7906 42.6879C28.8126 42.7091 28.8302 42.7344 28.8424 42.7626C28.8545 42.7907 28.861 42.821 28.8614 42.8519C28.8618 42.8827 28.8561 42.9134 28.8447 42.9423C28.8333 42.9712 28.8164 42.9976 28.7949 43.0201L28.7677 43.036C28.7243 43.0814 28.6651 43.108 28.6029 43.1099C28.5407 43.1118 28.4808 43.089 28.4363 43.0463C28.3917 43.0036 28.3663 42.9446 28.3655 42.8823C28.3646 42.82 28.3885 42.7595 28.4319 42.7141L28.4591 42.6982ZM27.78 43.4157C27.8015 43.3932 27.8271 43.3751 27.8554 43.3624C27.8836 43.3497 27.914 43.3427 27.9448 43.3417C27.9756 43.3408 28.0061 43.3459 28.0347 43.3568C28.0633 43.3677 28.0894 43.3842 28.1114 43.4054C28.1339 43.4263 28.1518 43.4516 28.1642 43.4797C28.1766 43.5079 28.1832 43.5383 28.1836 43.5693C28.184 43.6002 28.1782 43.6311 28.1665 43.66C28.1549 43.6889 28.1376 43.7152 28.1158 43.7375L28.0886 43.7534C28.0452 43.7988 27.9859 43.8254 27.9237 43.8274C27.8616 43.8293 27.8017 43.8064 27.7571 43.7637C27.7133 43.7206 27.6884 43.6618 27.6876 43.5997C27.6868 43.5377 27.7102 43.4774 27.7528 43.4316L27.78 43.4157ZM27.1008 44.1331C27.1446 44.0884 27.2038 44.0624 27.2657 44.0604C27.3276 44.0585 27.3874 44.0809 27.4323 44.1228C27.4547 44.1435 27.4726 44.1686 27.4851 44.1965C27.4976 44.2244 27.5044 44.2546 27.505 44.2854C27.5057 44.3161 27.5002 44.3468 27.4889 44.3757C27.4777 44.4045 27.4608 44.4309 27.4393 44.4534L27.4121 44.4693C27.3909 44.4921 27.3654 44.5106 27.337 44.5235C27.3087 44.5364 27.2782 44.5436 27.2473 44.5445C27.2164 44.5455 27.1858 44.5402 27.1572 44.5291C27.1285 44.5179 27.1025 44.5011 27.0807 44.4796C27.0362 44.4369 27.0107 44.3779 27.0099 44.3156C27.0091 44.2533 27.033 44.1928 27.0764 44.1474L27.1008 44.1331ZM26.4232 44.8532C26.4434 44.8267 26.4689 44.8046 26.4979 44.7884C26.527 44.7723 26.5591 44.7624 26.592 44.7594C26.625 44.7565 26.658 44.7605 26.689 44.7713C26.72 44.782 26.7483 44.7993 26.772 44.8219C26.7957 44.8446 26.8143 44.872 26.8265 44.9025C26.8387 44.9331 26.8443 44.9659 26.843 44.999C26.8416 45.0321 26.8333 45.0647 26.8185 45.0945C26.8038 45.1244 26.783 45.1509 26.7575 45.1724L26.7303 45.1883C26.6869 45.2337 26.6276 45.2603 26.5655 45.2622C26.5033 45.2642 26.4434 45.2413 26.3988 45.1986C26.3543 45.1559 26.3288 45.0969 26.328 45.0347C26.3272 44.9724 26.3511 44.9119 26.3945 44.8665L26.4232 44.8532ZM25.7441 45.5707C25.787 45.5254 25.8458 45.4986 25.9076 45.4962C25.9694 45.4937 26.0292 45.5159 26.074 45.5577C26.1188 45.6007 26.1445 45.66 26.1456 45.7227C26.1467 45.7854 26.1231 45.8464 26.0799 45.8925L26.0527 45.9084C26.0325 45.935 26.007 45.9571 25.9779 45.9733C25.9489 45.9894 25.9168 45.9993 25.8839 46.0023C25.8509 46.0052 25.8179 46.0012 25.7869 45.9904C25.7558 45.9796 25.7276 45.9624 25.7039 45.9398C25.6802 45.9171 25.6616 45.8897 25.6494 45.8592C25.6372 45.8286 25.6315 45.7958 25.6329 45.7627C25.6343 45.7296 25.6426 45.697 25.6574 45.6672C25.6721 45.6373 25.6929 45.6107 25.7184 45.5893L25.7441 45.5707ZM25.0649 46.2881C25.0862 46.2653 25.1117 46.2468 25.14 46.2339C25.1683 46.221 25.1988 46.2138 25.2297 46.2129C25.2606 46.2119 25.2913 46.2172 25.3199 46.2283C25.3485 46.2395 25.3745 46.2563 25.3964 46.2778C25.4184 46.299 25.436 46.3243 25.4482 46.3525C25.4603 46.3806 25.4668 46.4109 25.4672 46.4418C25.4676 46.4726 25.4619 46.5033 25.4505 46.5322C25.4391 46.5611 25.4222 46.5875 25.4007 46.61C25.3792 46.6349 25.353 46.6553 25.3237 46.6701C25.2944 46.6848 25.2625 46.6936 25.23 46.6958C25.1975 46.6981 25.165 46.6938 25.1343 46.6832C25.1037 46.6726 25.0757 46.6559 25.0518 46.6341C25.0295 46.6138 25.0115 46.5893 24.9988 46.5618C24.9861 46.5344 24.979 46.5046 24.9778 46.4742C24.9767 46.4438 24.9815 46.4134 24.992 46.3847C25.0026 46.3559 25.0186 46.3294 25.0393 46.3067L25.0649 46.2881Z" fill="#C4DFFF"/>
<path d="M26.4121 46.876L32.0638 52.2715C32.6638 52.0071 33.3302 51.9458 33.9609 52.0969C34.0416 52.0287 34.1279 51.9674 34.2188 51.9137C34.3613 51.6309 34.5849 51.3961 34.8603 51.2402C35.0029 50.9573 35.2264 50.7226 35.5018 50.5666C35.5721 50.4258 35.6631 50.2962 35.7718 50.1822C35.8801 50.0688 36.0044 49.9718 36.1406 49.8947C36.2124 49.7536 36.3043 49.6236 36.4134 49.5086C36.5217 49.3952 36.6459 49.2983 36.7821 49.2211C36.8535 49.081 36.9445 48.9515 37.0521 48.8367C37.1614 48.7227 37.2866 48.6253 37.4236 48.5475C37.4951 48.4074 37.586 48.278 37.6937 48.1631C37.8029 48.0491 37.9281 47.9517 38.0651 47.874C38.2077 47.5911 38.4313 47.3564 38.7066 47.2004C38.8492 46.9175 39.0728 46.6828 39.3481 46.5269C39.4184 46.3861 39.5095 46.2564 39.6182 46.1424C39.7265 46.029 39.8508 45.9321 39.9869 45.8549C40.0587 45.7139 40.1507 45.5838 40.2597 45.4689C40.368 45.3554 40.4923 45.2585 40.6284 45.1813C40.6999 45.0412 40.7908 44.9118 40.8985 44.7969C41.0077 44.6829 41.1329 44.5855 41.27 44.5078C41.3414 44.3677 41.4323 44.2382 41.54 44.1234C41.6492 44.0094 41.7744 43.9119 41.9115 43.8342C42.054 43.5513 42.2776 43.3166 42.553 43.1607C42.6955 42.8778 42.9191 42.6431 43.1945 42.4871C43.2468 42.3805 43.3112 42.2801 43.3863 42.188C43.2066 41.5653 43.2369 40.8971 43.4726 40.286L37.8236 34.8889L26.4121 46.876Z" stroke="#70B2FF" stroke-width="0.518515" stroke-miterlimit="10"/>
<path d="M9.23216 23.517C9.12444 23.6314 9.00058 23.7293 8.86467 23.8075C8.79381 23.9476 8.70216 24.0765 8.59289 24.1895C8.48418 24.3043 8.35943 24.4027 8.22268 24.4816C8.15182 24.6217 8.06017 24.7505 7.9509 24.8636C7.84218 24.9784 7.71743 25.0768 7.58069 25.1556C7.51039 25.2961 7.41868 25.425 7.30891 25.5376C7.20047 25.6528 7.07568 25.7512 6.93871 25.8297C6.88926 25.9256 6.83058 26.0166 6.76351 26.1013C6.94705 26.7247 6.91723 27.3953 6.67875 28.0074L24.6339 45.1688L36.069 33.1672L18.1084 16.009C17.51 16.2753 16.8439 16.3372 16.2142 16.1848C16.1255 16.2671 16.0276 16.3388 15.9227 16.3985C15.8512 16.5387 15.7601 16.6683 15.6524 16.7832C15.542 16.8961 15.417 16.9935 15.2807 17.0726C15.2097 17.2132 15.1187 17.3428 15.0104 17.4573C14.9002 17.5704 14.7751 17.6678 14.6387 17.7467C14.5677 17.8872 14.4767 18.0169 14.3684 18.1314C14.2582 18.2445 14.1331 18.3419 13.9967 18.4208C13.9264 18.5617 13.8352 18.6914 13.7264 18.8055C13.617 18.9178 13.4928 19.0147 13.3574 19.0932C13.2862 19.2343 13.1935 19.3637 13.0829 19.4769C12.9752 19.5912 12.8513 19.6891 12.7154 19.7673C12.6446 19.9075 12.5529 20.0363 12.4436 20.1493C12.3349 20.2642 12.2102 20.3626 12.0734 20.4414C12.0026 20.5815 11.9109 20.7104 11.8017 20.8234C11.6929 20.9382 11.5682 21.0367 11.4314 21.1155C11.3611 21.256 11.2694 21.3849 11.1597 21.4975C11.0512 21.6126 10.9264 21.7111 10.7895 21.7895C10.7192 21.93 10.6274 22.0589 10.5177 22.1716C10.4092 22.2867 10.2844 22.3852 10.1475 22.4636C10.0777 22.6044 9.98594 22.7334 9.87568 22.8456C9.76797 22.96 9.64411 23.0579 9.5082 23.1361C9.43624 23.2763 9.3431 23.4048 9.23216 23.517Z" stroke="#70B2FF" stroke-width="0.518515" stroke-miterlimit="10"/>
<path opacity="0.7" d="M21.774 23.3727L27.8221 29.1569C28.0636 29.3889 28.2021 29.709 28.2073 30.0472C28.2125 30.3854 28.084 30.7144 27.8498 30.9623C27.6139 31.2095 27.2914 31.3543 26.9532 31.3651C26.615 31.3758 26.2888 31.2516 26.0463 31.0196L19.997 25.2397C19.8767 25.1253 19.7805 24.9877 19.7139 24.8349C19.6474 24.6822 19.6118 24.5172 19.6092 24.3495C19.6067 24.1818 19.6371 24.0146 19.6989 23.8576C19.7607 23.7005 19.8526 23.5567 19.9693 23.4343C20.0856 23.3111 20.2247 23.2117 20.3785 23.1419C20.5323 23.0721 20.6979 23.0332 20.8656 23.0275C21.0333 23.0218 21.1999 23.0493 21.3558 23.1086C21.5117 23.1678 21.6538 23.2576 21.774 23.3727Z" fill="white"/>
<path d="M24.6194 31.2849L19.765 26.6497" stroke="#407BFF" stroke-width="0.518515" stroke-linecap="round" stroke-linejoin="round"/>
<path d="M28.26 27.4643L23.4057 22.8291" stroke="#407BFF" stroke-width="0.518515" stroke-linecap="round" stroke-linejoin="round"/>
<path d="M21.9046 21.3941L20.9729 20.5053" stroke="#407BFF" stroke-width="0.518515" stroke-linecap="round" stroke-linejoin="round"/>
<path d="M29.6286 28.7882L31.153 30.2453" stroke="#407BFF" stroke-width="0.518515" stroke-linecap="round" stroke-linejoin="round"/>
<path d="M35.9336 47.7524L39.1863 44.3393" stroke="#407BFF" stroke-width="0.518515" stroke-linecap="round" stroke-linejoin="round"/>
<path d="M40.1836 43.2864L40.805 42.6357" stroke="#407BFF" stroke-width="0.518515" stroke-linecap="round" stroke-linejoin="round"/>
<path d="M35.0224 48.7194L34 49.7913" stroke="#407BFF" stroke-width="0.518515" stroke-linecap="round" stroke-linejoin="round"/>
<path d="M29.8485 45.9537L33.4414 49.3918L34.1318 48.6657L30.5389 45.2276L29.8485 45.9537Z" fill="white"/>
<path d="M36.0243 39.4557L39.6172 42.8938L40.3076 42.1677L36.7147 38.7296L36.0243 39.4557Z" fill="white"/>
<path d="M31.1488 44.7459L34.7383 48.1919L34.9085 48.0134L31.319 44.5674L31.1488 44.7459Z" fill="white"/>
<path d="M31.4832 44.2355L35.0781 47.6758L35.2481 47.497L31.6532 44.0567L31.4832 44.2355Z" fill="white"/>
<path d="M33.9363 41.6549L37.5312 45.0952L37.7012 44.9164L34.1063 41.4762L33.9363 41.6549Z" fill="white"/>
<path d="M31.8475 43.8408L35.4414 47.28L35.8553 46.8447L32.2614 43.4055L31.8475 43.8408Z" fill="white"/>
<path d="M34.9412 40.5962L38.5352 44.0354L38.9491 43.6001L35.3552 40.1609L34.9412 40.5962Z" fill="white"/>
<path d="M34.3944 41.1673L37.9883 44.6064L38.4022 44.1711L34.8083 40.7319L34.3944 41.1673Z" fill="white"/>
<path d="M32.711 43.1042L36.3008 46.5505L36.4034 46.443L32.8136 42.9967L32.711 43.1042Z" fill="white"/>
<path d="M30.6899 45.067L34.2852 48.5076L34.3876 48.3998L30.7924 44.9592L30.6899 45.067Z" fill="white"/>
<path d="M33.5649 42.0445L37.1602 45.4851L37.2626 45.3774L33.6673 41.9368L33.5649 42.0445Z" fill="white"/>
<path d="M32.8344 42.8109L36.4297 46.2515L36.5321 46.1437L32.9369 42.7031L32.8344 42.8109Z" fill="white"/>
<path d="M35.6313 39.8658L39.2266 43.3064L39.329 43.1987L35.7338 39.7581L35.6313 39.8658Z" fill="white"/>
<defs>
<linearGradient id="paint0_linear_5645_8056" x1="42.488" y1="26.3381" x2="42.488" y2="83.4447" gradientUnits="userSpaceOnUse">
<stop offset="0.276042" stop-color="#18C655" stop-opacity="0"/>
<stop offset="1" stop-color="#18C655"/>
</linearGradient>
</defs>
</svg>
