<svg width="84" height="73" viewBox="0 0 84 73" fill="none" xmlns="http://www.w3.org/2000/svg">
<path d="M84 30.565C84 53.7609 65.196 72.565 42 72.565C18.804 72.565 0 53.7609 0 30.565C0 -7.56329 22.025 35.4177 45.2209 35.4177C68.4169 35.4177 84 7.36901 84 30.565Z" fill="url(#paint0_linear_5661_8116)" fill-opacity="0.62"/>
<path d="M71 42.8289H16V42.8564H71V42.8289Z" fill="#EBEBEB"/>
<path d="M65.4909 44.6309H61.8477V44.6584H65.4909V44.6309Z" fill="#EBEBEB"/>
<path d="M52.4325 44.9355H51.4766V44.963H52.4325V44.9355Z" fill="#EBEBEB"/>
<path d="M61.7359 43.5916H59.625V43.6191H61.7359V43.5916Z" fill="#EBEBEB"/>
<path d="M26.5204 43.7798H21.7695V43.8073H26.5204V43.7798Z" fill="#EBEBEB"/>
<path d="M28.1963 43.7798H27.5V43.8073H28.1963V43.7798Z" fill="#EBEBEB"/>
<path d="M40.7657 44.2524H30.4609V44.2799H40.7657V44.2524Z" fill="#EBEBEB"/>
<path d="M32.1181 42.417H34.1641V31.5239H32.1181V42.417Z" fill="#F0F0F0"/>
<path d="M24.8485 42.8267H33.7695V42.4167H24.8485V42.8267Z" fill="#F0F0F0"/>
<path d="M32.1174 31.5247H24.457V42.4178H32.1174V31.5247Z" fill="#F5F5F5"/>
<path d="M31.7762 35.1019V38.3891H24.7956V35.1019H31.7762ZM31.8257 35.0515H24.7461V38.4384H31.8257V35.0515Z" fill="#E0E0E0"/>
<path d="M28.5872 36.7483C28.5872 36.9174 28.4519 37.0552 28.2858 37.0552C28.1197 37.0552 27.9844 36.9174 27.9844 36.7483C27.9844 36.5792 28.1197 36.4414 28.2858 36.4414C28.4519 36.4414 28.5872 36.5792 28.5872 36.7483Z" fill="#E0E0E0"/>
<path d="M31.8257 31.8831H24.7461V34.3818H31.8257V31.8831Z" fill="#F0F0F0"/>
<path d="M31.8257 39.1082H24.7461V41.6069H31.8257V39.1082Z" fill="#F0F0F0"/>
<path d="M26.2399 31.8831H24.7461V34.3818H26.2399V31.8831Z" fill="#E0E0E0"/>
<path d="M26.2399 39.1082H24.7461V41.6069H26.2399V39.1082Z" fill="#E0E0E0"/>
<path d="M41.2888 42.5936C41.9697 42.5936 42.5274 42.0258 42.5274 41.3325V30.5211C42.5274 29.8279 41.9697 29.26 41.2888 29.26H34.5469V42.5936H41.2888Z" fill="#E6E6E6"/>
<path d="M34.5472 29.26C33.8663 29.26 33.3086 29.8279 33.3086 30.5211V41.0491C33.3086 41.9026 33.9873 42.5936 34.8255 42.5936H35.7858V30.5211C35.7858 29.8267 35.2281 29.26 34.5472 29.26Z" fill="#E0E0E0"/>
<path d="M61.6393 34.0155L62.076 28.5018C62.1552 27.5038 61.4182 26.6885 60.4392 26.6885H44.6938C43.7137 26.6885 42.848 27.505 42.7688 28.5018L42.3321 34.0155C42.2782 34.6886 42.7765 35.2408 43.4376 35.2408H60.3402C61.0013 35.2408 61.5865 34.6898 61.6393 34.0155Z" fill="#E0E0E0"/>
<path d="M59.4362 34.0155L59.8729 28.5018C59.9521 27.5038 59.2151 26.6885 58.2361 26.6885H42.4907C41.5106 26.6885 40.6449 27.505 40.5657 28.5018L40.129 34.0155C40.0751 34.6886 40.5734 35.2408 41.2345 35.2408H58.1371C58.7982 35.2408 59.3834 34.6898 59.4362 34.0155Z" fill="#F0F0F0"/>
<path d="M37.9314 30.0564C37.9314 30.0564 37.608 29.8088 37.7246 29.6767C37.8412 29.5445 38.3725 29.7965 38.3725 29.7965C38.3725 29.7965 41.3645 29.4124 43.1245 29.4818C43.1366 29.2399 43.3709 29.1469 43.5601 29.1906C43.7493 29.2343 43.5645 29.6274 43.5645 29.6274C43.5645 29.6274 44.7987 32.8306 44.7591 34.4479C44.956 34.6215 45.1529 34.7424 44.9505 34.8253C44.7492 34.9082 44.5688 34.7548 44.5688 34.7548C44.5688 34.7548 40.5967 35.3461 38.9808 35.0482C38.8697 35.2666 38.6387 35.224 38.5056 35.1568C38.3725 35.0896 38.5947 34.7716 38.5947 34.7716C38.5947 34.7716 37.6014 31.9704 37.9314 30.0564Z" fill="white"/>
<path d="M62.43 42.5936C63.1109 42.5936 63.6686 42.0258 63.6686 41.3325V30.5211C63.6686 29.8279 63.1109 29.26 62.43 29.26H56.5703V42.5936H62.43Z" fill="#E6E6E6"/>
<path d="M56.8614 36.4716V35.3818C56.8614 34.9876 56.5446 34.665 56.1574 34.665H37.3837C36.9965 34.665 36.6797 34.9876 36.6797 35.3818V36.4716C36.6797 36.8658 36.9965 37.1884 37.3837 37.1884H56.1585C56.5446 37.1873 56.8614 36.8658 56.8614 36.4716Z" fill="#EBEBEB"/>
<path d="M56.8602 42.2105V37.5703C56.8602 37.3597 56.6908 37.1873 56.484 37.1873H37.927C37.7202 37.1873 37.5508 37.3597 37.5508 37.5703V42.2105C37.5508 42.421 37.7202 42.5935 37.927 42.5935H56.484C56.6919 42.5935 56.8602 42.421 56.8602 42.2105Z" fill="#F0F0F0"/>
<path d="M56.5706 29.26C55.8897 29.26 55.332 29.8279 55.332 30.5211V42.5936H57.8092V30.5211C57.8092 29.8267 57.2515 29.26 56.5706 29.26Z" fill="#E0E0E0"/>
<path d="M61.9667 42.8266H35.4369C35.3104 42.8266 35.207 42.7224 35.207 42.5925H62.1955C62.1966 42.7224 62.0932 42.8266 61.9667 42.8266Z" fill="#E0E0E0"/>
<path d="M43.4998 47.8868C55.2788 47.8868 64.8277 47.3191 64.8277 46.6189C64.8277 45.9187 55.2788 45.3511 43.4998 45.3511C31.7207 45.3511 22.1719 45.9187 22.1719 46.6189C22.1719 47.3191 31.7207 47.8868 43.4998 47.8868Z" fill="#F5F5F5"/>
<path d="M63.5657 39.2091H28.8662C28.4933 39.2091 28.1875 38.8977 28.1875 38.518V15.5748C28.1875 15.1951 28.4933 14.8838 28.8662 14.8838H63.5657C63.9386 14.8838 64.2444 15.1951 64.2444 15.5748V38.518C64.2444 38.8988 63.9397 39.2091 63.5657 39.2091Z" fill="#263238"/>
<path d="M51.0749 45.8485H42.9734L41.5742 31.4094H49.6757L51.0749 45.8485Z" fill="#263238"/>
<path d="M50.8573 45.8485H42.7558L41.3555 31.4094H49.457L50.8573 45.8485Z" fill="#3378C9"/>
<path d="M52.6599 46.3345H42.2891L42.4024 45.8484H52.2826C52.5334 45.8484 52.7182 46.0858 52.6599 46.3345Z" fill="#263238"/>
<path d="M50.9021 46.3345H40.5312C40.5984 46.05 40.8481 45.8484 41.1352 45.8484H51.0153L50.9021 46.3345Z" fill="#3378C9"/>
<path d="M51.7649 45.8484H50.7276C50.4768 45.8484 50.2931 46.087 50.3503 46.3345H51.8782" fill="#263238"/>
<path opacity="0.2" d="M49.457 31.4082H41.3555L42.1794 39.9012H50.2809L49.457 31.4082Z" fill="black"/>
<path d="M63.3665 39.2091H28.667C28.2941 39.2091 27.9883 38.8977 27.9883 38.518V15.5748C27.9883 15.1951 28.2941 14.8838 28.667 14.8838H63.3665C63.7394 14.8838 64.0452 15.1951 64.0452 15.5748V38.518C64.0452 38.8988 63.7394 39.2091 63.3665 39.2091Z" fill="#3378C9"/>
<path opacity="0.2" d="M46.0169 38.1954C46.3693 38.1954 46.6549 37.9046 46.6549 37.5458C46.6549 37.1871 46.3693 36.8962 46.0169 36.8962C45.6646 36.8962 45.3789 37.1871 45.3789 37.5458C45.3789 37.9046 45.6646 38.1954 46.0169 38.1954Z" fill="black"/>
<path opacity="0.9" d="M63.4432 35.7215H28.5655C28.406 35.7215 28.2773 35.5904 28.2773 35.428V16.6064C28.2773 16.444 28.406 16.313 28.5655 16.313H63.4432C63.6027 16.313 63.7314 16.444 63.7314 16.6064V35.428C63.7314 35.5904 63.6027 35.7215 63.4432 35.7215Z" fill="white"/>
<path d="M46.934 31.6929C46.0826 31.6044 45.2675 31.3479 44.5459 30.9492C43.8243 30.5516 43.1962 30.014 42.7012 29.389C42.2073 28.7629 41.8476 28.0506 41.6397 27.3125C41.4934 26.7962 41.4241 26.2687 41.423 25.7479H42.5747L40.3362 21.801L38.0977 25.7479H39.3C39.4342 26.5364 39.6828 27.2969 40.037 27.9901C40.4891 28.8772 41.1084 29.6545 41.8344 30.2727C42.5615 30.8909 43.3975 31.349 44.2709 31.6234C45.1454 31.8989 46.0562 31.9885 46.9329 31.9034C46.9813 31.8989 47.0209 31.8597 47.0264 31.8082C47.033 31.75 46.9912 31.6985 46.934 31.6929Z" fill="#3378C9"/>
<path d="M52.7347 26.2809C52.6005 25.4925 52.3519 24.732 51.9977 24.0387C51.5456 23.1517 50.9263 22.3744 50.2003 21.7561C49.4732 21.1379 48.6372 20.6798 47.7638 20.4054C46.8893 20.1299 45.9785 20.0403 45.1018 20.1254C45.0534 20.1299 45.0138 20.1691 45.0083 20.2206C45.0028 20.2789 45.0446 20.3304 45.1018 20.336C45.9532 20.4245 46.7683 20.6809 47.4899 21.0797C48.2115 21.4773 48.8396 22.0149 49.3346 22.6398C49.8285 23.2659 50.1882 23.9782 50.3961 24.7163C50.5424 25.2326 50.6117 25.7601 50.6128 26.2809H49.4611L51.6996 30.2289L53.9381 26.2809H52.7347Z" fill="#3378C9"/>
<g opacity="0.3">
<path d="M35.6129 23.6848L40.487 16.3096H34.3644L29.5838 23.5403L29.3814 23.8483L28.2891 25.5014V34.7661L29.3814 33.1129L35.6129 23.6848Z" fill="white"/>
<path d="M46.2696 16.3096L40.0656 25.6963L33.7934 35.186L33.4414 35.718H36.4411L40.0656 30.2368L49.2693 16.3096H46.2696Z" fill="white"/>
</g>
<path d="M33.7296 46.4397H24.3235C23.6668 46.4397 23.1289 45.892 23.1289 45.2234V23.3296C23.1289 22.661 23.6668 22.1133 24.3235 22.1133H33.7296C34.3863 22.1133 34.9242 22.661 34.9242 23.3296V45.2234C34.9242 45.892 34.3874 46.4397 33.7296 46.4397Z" fill="#263238"/>
<path d="M34.8487 29.7943H34.6892C34.566 29.7943 34.4648 29.6913 34.4648 29.5659V26.6169C34.4648 26.4915 34.566 26.3884 34.6892 26.3884H34.8487C34.9719 26.3884 35.0731 26.4915 35.0731 26.6169V29.5659C35.0731 29.6913 34.9719 29.7943 34.8487 29.7943Z" fill="#263238"/>
<path d="M23.1538 28.0516H22.9701C22.8535 28.0516 22.7578 27.9542 22.7578 27.8355V26.6046C22.7578 26.4859 22.8535 26.3884 22.9701 26.3884H23.1538C23.2704 26.3884 23.3661 26.4859 23.3661 26.6046V27.8355C23.3661 27.9542 23.2704 28.0516 23.1538 28.0516Z" fill="#263238"/>
<path d="M23.1538 30.2501H22.9701C22.8535 30.2501 22.7578 30.1527 22.7578 30.034V28.8031C22.7578 28.6844 22.8535 28.5869 22.9701 28.5869H23.1538C23.2704 28.5869 23.3661 28.6844 23.3661 28.8031V30.034C23.3661 30.1527 23.2704 30.2501 23.1538 30.2501Z" fill="#263238"/>
<path d="M33.5304 46.4397H24.1243C23.4676 46.4397 22.9297 45.892 22.9297 45.2234V23.3296C22.9297 22.661 23.4676 22.1133 24.1243 22.1133H33.5304C34.1871 22.1133 34.725 22.661 34.725 23.3296V45.2234C34.725 45.892 34.1882 46.4397 33.5304 46.4397Z" fill="#3378C9"/>
<path opacity="0.9" d="M34.2752 45.0544H23.3819C23.2224 45.0544 23.0938 44.9233 23.0938 44.7609V23.8337C23.0938 23.6713 23.2224 23.5403 23.3819 23.5403H34.2764C34.4359 23.5403 34.5645 23.6713 34.5645 23.8337V44.7609C34.5634 44.9233 34.4347 45.0544 34.2752 45.0544Z" fill="white"/>
<path d="M29.2936 36.8356C28.8635 36.7908 28.4521 36.662 28.088 36.4604C27.7239 36.26 27.4071 35.9878 27.1574 35.6731C26.9077 35.3572 26.7262 34.9977 26.6217 34.6248C26.548 34.3638 26.5128 34.0972 26.5117 33.834H27.0936L25.9628 31.8416L24.832 33.834H25.4392C25.5063 34.2328 25.6328 34.6158 25.8121 34.9664C26.0409 35.4144 26.3533 35.8064 26.7196 36.1188C27.087 36.4313 27.5083 36.662 27.9494 36.8009C28.3905 36.9398 28.8503 36.9857 29.2936 36.942C29.3178 36.9398 29.3387 36.9196 29.3409 36.8939C29.3431 36.8636 29.3222 36.8379 29.2936 36.8356Z" fill="#3378C9"/>
<path d="M32.2212 34.1029C32.1541 33.7042 32.0276 33.3212 31.8494 32.9706C31.6206 32.5226 31.3082 32.1306 30.9419 31.8181C30.5745 31.5068 30.1532 31.2749 29.7121 31.136C29.271 30.9972 28.8112 30.9512 28.3679 30.9949C28.3437 30.9972 28.3228 31.0173 28.3206 31.0431C28.3173 31.0722 28.3393 31.098 28.3679 31.1013C28.798 31.1461 29.2094 31.2749 29.5735 31.4765C29.9376 31.677 30.2544 31.9492 30.5041 32.2639C30.7538 32.5797 30.9353 32.9392 31.0398 33.3122C31.1135 33.5732 31.1487 33.8397 31.1498 34.1029H30.5679L31.6987 36.0954L32.8295 34.1029H32.2212Z" fill="#3378C9"/>
<g opacity="0.3">
<path d="M34.5227 23.6848C34.4732 23.5985 34.3808 23.5403 34.2752 23.5403H28.4948L28.2912 23.8483L23.0938 31.7118V40.9776L28.2912 33.1129L34.5227 23.6848Z" fill="white"/>
<path d="M28.2913 35.1861L23.0938 43.0496V44.7609C23.0938 44.9233 23.2224 45.0544 23.3819 45.0544H24.769L30.9401 35.7181L34.5635 30.2368V25.6963L28.2913 35.1861Z" fill="white"/>
</g>
<path opacity="0.2" d="M27.6943 22.6755H29.9625C30.0439 22.6755 30.1099 22.7427 30.1099 22.8256C30.1099 22.9085 30.0439 22.9757 29.9625 22.9757H27.6943C27.6129 22.9757 27.5469 22.9085 27.5469 22.8256C27.5469 22.7439 27.6129 22.6755 27.6943 22.6755Z" fill="black"/>
<path d="M54.6618 8.91415C54.6541 8.91301 54.6475 8.91301 54.6398 8.91301C54.6189 8.91187 54.598 8.90959 54.5771 8.90959C54.5617 8.90959 54.5463 8.90845 54.5298 8.90845H53.9336C53.971 8.90845 54.0073 8.91073 54.0436 8.91301C54.0513 8.91301 54.059 8.91415 54.0656 8.91415C54.1063 8.91757 54.1459 8.92213 54.1844 8.92783H54.7806C54.774 8.92669 54.7663 8.92555 54.7597 8.92441C54.7278 8.91985 54.6959 8.91643 54.6618 8.91415Z" fill="#263238"/>
<path d="M60.5287 11.2986C60.532 11.2583 60.5342 11.218 60.5342 11.1776C60.5342 11.1687 60.5342 11.1586 60.5342 11.1496C60.5331 11.1172 60.5309 11.0858 60.5287 11.0533C60.5276 11.0466 60.5265 11.0388 60.5265 11.032C60.5243 11.0152 60.5232 10.9996 60.521 10.9828C60.5188 10.9704 60.5166 10.9581 60.5144 10.9458C60.5122 10.9301 60.5089 10.9156 60.5056 10.8999C60.5001 10.8752 60.4946 10.8506 60.4869 10.826C60.4836 10.8125 60.4803 10.7991 60.4759 10.7845C60.4748 10.78 60.4737 10.7744 60.4715 10.77C60.4616 10.7408 60.4517 10.7117 60.4407 10.6826C60.4385 10.6759 60.4352 10.6703 60.433 10.6647C60.4209 10.6356 60.4077 10.6064 60.3934 10.5784C60.3901 10.5717 60.3868 10.5639 60.3824 10.5572C60.3659 10.5258 60.3483 10.4944 60.3285 10.4642C60.3252 10.4586 60.3208 10.453 60.3164 10.4463C60.2999 10.4205 60.2812 10.3948 60.2636 10.3712C60.2592 10.3656 60.2548 10.3589 60.2493 10.3533C60.2273 10.3253 60.2042 10.2984 60.18 10.2727C60.1745 10.2671 60.1701 10.2626 60.1646 10.257C60.1536 10.2458 60.1437 10.2346 60.1327 10.2245C60.125 10.2167 60.1162 10.21 60.1074 10.2021C60.0953 10.1909 60.0832 10.1797 60.07 10.1685C60.0535 10.154 60.0359 10.1405 60.0183 10.1271C60.0051 10.117 59.9919 10.1069 59.9787 10.098C59.9732 10.0935 59.9677 10.089 59.9622 10.0856C59.9391 10.07 59.9171 10.0554 59.8929 10.042C59.8918 10.042 59.8907 10.0408 59.8907 10.0408C59.8687 10.0274 59.8456 10.0151 59.8225 10.0039C59.817 10.0016 59.8115 9.9994 59.806 9.99716C59.7785 9.98372 59.751 9.9714 59.7224 9.9602C59.7125 9.95572 59.7026 9.95124 59.6916 9.94676C59.6883 9.94564 59.685 9.94452 59.6828 9.9434C59.6553 9.93332 59.6267 9.92548 59.5981 9.91764C59.586 9.91428 59.575 9.9098 59.564 9.90644C59.5629 9.90644 59.5607 9.90644 59.5596 9.90532C59.52 9.89524 59.4804 9.8874 59.4386 9.8818C59.4364 9.8818 59.4342 9.88068 59.4331 9.88068C59.3913 9.87508 59.3495 9.8706 59.3066 9.86948C59.3044 9.8538 59.3033 9.83812 59.3011 9.82356C59.2989 9.80676 59.2945 9.79108 59.2923 9.7754C59.289 9.7586 59.2868 9.74068 59.2824 9.72388C59.2769 9.69924 59.2703 9.6746 59.2637 9.64996C59.2593 9.63428 59.256 9.6186 59.2505 9.60292C59.2494 9.59956 59.2483 9.59508 59.2472 9.59172C59.2373 9.56036 59.2252 9.529 59.2131 9.49764C59.2098 9.49092 59.2076 9.4842 59.2043 9.47636C59.1922 9.44724 59.179 9.41924 59.1658 9.39124C59.1614 9.38228 59.157 9.37332 59.1526 9.36436C59.135 9.33076 59.1174 9.29828 59.0976 9.26692C59.0954 9.26356 59.0932 9.26132 59.0921 9.25796C59.0734 9.22884 59.0547 9.20084 59.0338 9.17396C59.0283 9.16612 59.0217 9.15828 59.0151 9.14932C58.9942 9.12244 58.9733 9.09668 58.9513 9.07204C58.9491 9.06868 58.9469 9.06644 58.9436 9.06308C58.9238 9.04068 58.9029 9.0194 58.8809 8.99812C58.8765 8.99476 58.8721 8.9914 58.8688 8.98692C58.8556 8.9746 58.8413 8.96228 58.827 8.94996C58.8105 8.9354 58.794 8.92084 58.7764 8.9074C58.7621 8.8962 58.7467 8.885 58.7313 8.8738C58.7192 8.86484 58.7082 8.85588 58.6961 8.84804C58.6884 8.84244 58.6807 8.83796 58.673 8.83348C58.6642 8.82788 58.6554 8.82228 58.6466 8.81668C58.6191 8.79988 58.5916 8.78308 58.563 8.76852C58.5586 8.76628 58.5542 8.76292 58.5487 8.76068C58.5476 8.75956 58.5454 8.75956 58.5443 8.75844C58.5377 8.75508 58.5311 8.75284 58.5245 8.74948C58.4893 8.73268 58.4541 8.717 58.4178 8.70244C58.4123 8.7002 58.4079 8.69796 58.4035 8.69572C58.3925 8.69124 58.3804 8.689 58.3694 8.68564C58.343 8.67668 58.3155 8.66772 58.288 8.661C58.2803 8.65876 58.2726 8.6554 58.2638 8.65316C58.2539 8.65092 58.2429 8.6498 58.233 8.64756C58.2066 8.64196 58.1802 8.63636 58.1538 8.63188C58.1428 8.62964 58.1329 8.6274 58.1219 8.62628C58.1142 8.62516 58.1054 8.62516 58.0977 8.62404C58.068 8.62068 58.0383 8.61844 58.0086 8.6162C57.9965 8.61508 57.9844 8.61396 57.9712 8.61284C57.9591 8.61284 57.947 8.61284 57.9349 8.61284H57.4377C57.4333 8.605 57.4289 8.59828 57.4245 8.59044C57.4179 8.58036 57.4113 8.57028 57.4047 8.5602C57.3904 8.53668 57.375 8.51428 57.3585 8.49188C57.3508 8.48068 57.3431 8.4706 57.3354 8.4594C57.3189 8.437 57.3013 8.41572 57.2826 8.39444C57.276 8.38548 57.2683 8.37764 57.2617 8.36868C57.2364 8.33956 57.21 8.31156 57.1825 8.2858C57.1814 8.28468 57.1814 8.28468 57.1803 8.28356C57.177 8.2802 57.1726 8.27684 57.1693 8.2746C57.1451 8.2522 57.1209 8.2298 57.0956 8.20964C57.0857 8.2018 57.0758 8.19396 57.0659 8.18612C57.045 8.16932 57.0241 8.15364 57.0021 8.13796C56.9966 8.13348 56.99 8.129 56.9845 8.12452C56.9779 8.12004 56.9724 8.11668 56.9658 8.1122C56.9537 8.10436 56.9416 8.09652 56.9284 8.08868C56.913 8.07972 56.8987 8.07076 56.8833 8.0618C56.8701 8.05396 56.8569 8.04724 56.8448 8.04052C56.8371 8.03716 56.8305 8.03268 56.8228 8.0282C56.8184 8.02596 56.8129 8.02372 56.8085 8.02148C56.7656 8.0002 56.7216 7.98004 56.6765 7.96324C56.6754 7.96324 56.6743 7.96212 56.6732 7.96212C56.6699 7.961 56.6655 7.95988 56.6622 7.95876C56.6237 7.94532 56.5841 7.933 56.5445 7.9218C56.5379 7.92068 56.5324 7.91732 56.5269 7.9162C56.5225 7.91508 56.5181 7.91508 56.5126 7.91396C56.4697 7.90388 56.4257 7.89492 56.3806 7.8882C56.3795 7.8882 56.3784 7.88708 56.3762 7.88708C56.3476 7.8826 56.3179 7.88036 56.2893 7.87812C56.2816 7.877 56.2739 7.877 56.2651 7.877C56.2486 7.87588 56.2332 7.87476 56.2167 7.87476C56.2035 7.87476 56.1903 7.87476 56.1782 7.87476H55.582C55.6117 7.87476 55.6403 7.87588 55.67 7.87812C55.6777 7.87812 55.6854 7.87924 55.6942 7.87924C55.725 7.88148 55.7558 7.88484 55.7855 7.88932C55.8306 7.89604 55.8746 7.905 55.9175 7.91508C55.9285 7.91732 55.9384 7.92068 55.9494 7.92292C55.989 7.933 56.0286 7.94532 56.0671 7.95988C56.0715 7.96212 56.077 7.96324 56.0814 7.96436C56.1265 7.98116 56.1705 8.00132 56.2134 8.0226C56.2255 8.0282 56.2376 8.03492 56.2497 8.04052C56.2629 8.04724 56.2761 8.05508 56.2882 8.0618C56.3036 8.07076 56.319 8.07972 56.3333 8.08868C56.3454 8.09652 56.3586 8.10436 56.3707 8.1122C56.3828 8.12004 56.3949 8.129 56.407 8.13684C56.429 8.15252 56.4499 8.1682 56.4708 8.185C56.4807 8.19284 56.4906 8.20068 56.5005 8.20852C56.5258 8.2298 56.55 8.25108 56.5742 8.2746C56.5786 8.27796 56.5819 8.28132 56.5863 8.2858C56.6138 8.31268 56.6402 8.34068 56.6655 8.3698C56.6732 8.37764 56.6798 8.3866 56.6864 8.39556C56.704 8.41684 56.7216 8.43812 56.7392 8.46052C56.7469 8.4706 56.7546 8.4818 56.7623 8.493C56.7777 8.5154 56.7931 8.5378 56.8085 8.56132C56.8151 8.5714 56.8217 8.58148 56.8283 8.59156C56.8481 8.62516 56.8679 8.65876 56.8855 8.69348H57.4817C57.4685 8.66772 57.4553 8.64308 57.441 8.61956C57.4608 8.62068 57.4817 8.6218 57.5015 8.62404C57.5202 8.62628 57.5389 8.62964 57.5576 8.63188C57.584 8.63636 57.6104 8.64196 57.6368 8.64756C57.6555 8.65204 57.6731 8.65652 57.6907 8.661C57.7182 8.66884 57.7446 8.67668 57.7721 8.68564C57.7886 8.69124 57.8051 8.69684 57.8205 8.70244C57.8568 8.71588 57.892 8.73156 57.9272 8.74948C57.9349 8.75284 57.9437 8.7562 57.9514 8.76068C57.9558 8.76292 57.9602 8.76628 57.9657 8.76852C57.9943 8.78308 58.0218 8.79988 58.0493 8.81668C58.0581 8.82228 58.0669 8.82788 58.0757 8.83348C58.0955 8.84692 58.1153 8.86036 58.134 8.87492C58.1494 8.88612 58.1648 8.89732 58.1791 8.90852C58.1967 8.92196 58.2132 8.93652 58.2297 8.95108C58.244 8.9634 58.2583 8.97572 58.2715 8.98804C58.2979 9.01268 58.3221 9.03732 58.3463 9.0642C58.3485 9.06756 58.3507 9.0698 58.354 9.07316C58.376 9.0978 58.398 9.12356 58.4178 9.15044C58.4244 9.15828 58.4299 9.16612 58.4365 9.17508C58.4563 9.20196 58.4761 9.22996 58.4948 9.25908C58.497 9.26244 58.4992 9.26468 58.5003 9.26804C58.5201 9.2994 58.5377 9.33188 58.5553 9.36548C58.5597 9.37444 58.5641 9.3834 58.5685 9.39236C58.5828 9.42036 58.5949 9.44836 58.607 9.47748C58.6103 9.4842 58.6136 9.49092 58.6158 9.49876C58.629 9.53348 58.6422 9.5682 58.6532 9.60404C58.6576 9.61972 58.662 9.6354 58.6664 9.65108C58.673 9.67572 58.6796 9.69924 58.6851 9.725C58.6884 9.7418 58.6917 9.75972 58.695 9.77652C58.7005 9.80788 58.706 9.83924 58.7104 9.8706C58.7533 9.87172 58.7951 9.8762 58.8369 9.8818C58.8391 9.8818 58.8413 9.88292 58.8435 9.88292C58.8842 9.88852 58.9249 9.89636 58.9634 9.90644C58.9766 9.9098 58.9898 9.91428 59.0019 9.91764C59.0305 9.92548 59.058 9.93332 59.0866 9.9434C59.0998 9.94788 59.113 9.9546 59.1262 9.9602C59.1548 9.9714 59.1823 9.98372 59.2098 9.99716C59.2384 10.0117 59.267 10.0252 59.2945 10.042C59.2956 10.042 59.2967 10.0431 59.2967 10.0431C59.3264 10.061 59.355 10.08 59.3825 10.0991C59.3957 10.108 59.4089 10.1181 59.4221 10.1282C59.4397 10.1416 59.4573 10.1551 59.4738 10.1696C59.487 10.1808 59.4991 10.192 59.5112 10.2032C59.531 10.2212 59.5497 10.2391 59.5684 10.2581C59.5739 10.2637 59.5783 10.2682 59.5838 10.2738C59.608 10.2996 59.6311 10.3264 59.6531 10.3544C59.6575 10.36 59.6619 10.3668 59.6674 10.3724C59.6861 10.397 59.7037 10.4216 59.7202 10.4474C59.7235 10.453 59.7279 10.4586 59.7323 10.4653C59.751 10.4956 59.7697 10.5269 59.7862 10.5583C59.7895 10.565 59.7928 10.5728 59.7972 10.5796C59.8115 10.6076 59.8247 10.6367 59.8368 10.6658C59.839 10.6725 59.8423 10.6781 59.8445 10.6837C59.8577 10.7162 59.8687 10.7509 59.8797 10.7845C59.8841 10.798 59.8874 10.8114 59.8907 10.826C59.8973 10.8506 59.9039 10.8752 59.9094 10.8999C59.9127 10.9156 59.9149 10.9301 59.9182 10.9458C59.9226 10.9749 59.9281 11.0029 59.9303 11.032C59.9314 11.0388 59.9325 11.0466 59.9325 11.0533C59.9358 11.0948 59.938 11.1362 59.938 11.1776C59.938 11.2202 59.9358 11.2628 59.9314 11.3053C59.9281 11.3356 59.9237 11.3658 59.9182 11.396C59.916 11.4106 59.9149 11.4252 59.9116 11.4397C59.9028 11.4834 59.8929 11.5271 59.8797 11.5685C59.8797 11.5696 59.8786 11.5719 59.8786 11.573C59.8654 11.6144 59.8511 11.6559 59.8346 11.6951C59.8302 11.7052 59.8247 11.7152 59.8203 11.7253C59.8049 11.7589 59.7895 11.7925 59.7719 11.825C59.7587 11.8485 59.7444 11.8732 59.7301 11.8956C59.7257 11.9023 59.7213 11.909 59.7169 11.9157C59.696 11.9471 59.674 11.9784 59.6498 12.0076C59.6465 12.012 59.6432 12.0154 59.6399 12.0199C59.6157 12.049 59.5915 12.0781 59.5651 12.105C59.5651 12.105 59.5651 12.105 59.564 12.1061C59.5376 12.133 59.5101 12.1588 59.4815 12.1834C59.4771 12.1868 59.4727 12.1912 59.4683 12.1946C59.4408 12.2181 59.4122 12.2394 59.3836 12.2607C59.3781 12.264 59.3726 12.2685 59.3671 12.2719C59.3374 12.292 59.3066 12.3111 59.2758 12.329C59.2714 12.3312 59.2659 12.3346 59.2615 12.3368C59.2285 12.3548 59.1944 12.3727 59.1603 12.3872C59.1251 12.4029 59.0899 12.4152 59.0536 12.4276C59.0481 12.4298 59.0426 12.4309 59.0371 12.4332C59.0019 12.4444 58.9667 12.4533 58.9304 12.4612C58.9238 12.4623 58.9172 12.4645 58.9106 12.4656C58.8743 12.4735 58.838 12.4791 58.8006 12.4824C58.7951 12.4836 58.7896 12.4836 58.783 12.4836C58.7434 12.4869 58.7038 12.4903 58.6642 12.4903H59.2604C59.3011 12.4903 59.3407 12.488 59.3792 12.4836C59.3847 12.4836 59.3902 12.4824 59.3968 12.4824C59.4342 12.478 59.4705 12.4724 59.5068 12.4656C59.5134 12.4645 59.52 12.4634 59.5266 12.4612C59.5629 12.4533 59.5981 12.4444 59.6333 12.4332C59.6388 12.432 59.6443 12.4298 59.6498 12.4276C59.6861 12.4152 59.7213 12.4029 59.7565 12.3872C59.7917 12.3716 59.8247 12.3548 59.8577 12.3368C59.8621 12.3346 59.8676 12.3324 59.872 12.329C59.9039 12.3111 59.9336 12.292 59.9633 12.2719C59.9688 12.2685 59.9743 12.264 59.9798 12.2607C60.0095 12.2394 60.0381 12.2181 60.0645 12.1946C60.0689 12.1912 60.0733 12.1868 60.0777 12.1834C60.1063 12.1588 60.1338 12.133 60.1602 12.1061C60.1602 12.1061 60.1602 12.1061 60.1613 12.105C60.1877 12.0781 60.2119 12.049 60.2361 12.0199C60.2394 12.0154 60.2427 12.012 60.246 12.0076C60.2482 12.0042 60.2504 12.002 60.2537 11.9986C60.2746 11.9717 60.2944 11.9437 60.3131 11.9157C60.3175 11.909 60.3219 11.9023 60.3263 11.8956C60.3373 11.8776 60.3494 11.8597 60.3604 11.8407C60.3637 11.8351 60.3659 11.8295 60.3681 11.8239C60.3857 11.7914 60.4022 11.7589 60.4165 11.7242C60.4198 11.7164 60.4253 11.7085 60.4286 11.6996C60.4297 11.6973 60.4297 11.6951 60.4308 11.694C60.4473 11.6536 60.4627 11.6133 60.4748 11.5719C60.4748 11.5708 60.4759 11.5696 60.4759 11.5674C60.4891 11.5248 60.499 11.4823 60.5078 11.4386C60.5078 11.4375 60.5089 11.4364 60.5089 11.4352C60.5111 11.4218 60.5122 11.4084 60.5144 11.3949C60.5188 11.3647 60.5243 11.3356 60.5276 11.3042C60.5276 11.3031 60.5287 11.3008 60.5287 11.2986Z" fill="#263238"/>
<path d="M55.5822 7.87354C56.1487 7.87354 56.6404 8.20617 56.8846 8.69113C57.0265 8.64073 57.1794 8.61049 57.3389 8.61049C58.0462 8.61049 58.6281 9.16041 58.7084 9.86713C59.3893 9.89177 59.9349 10.4686 59.9349 11.1775C59.9349 11.9022 59.3651 12.4902 58.6611 12.4902H53.9322C52.9719 12.4902 52.1953 11.6883 52.1953 10.6993C52.1953 9.71033 52.973 8.90841 53.9322 8.90841C54.018 8.90841 54.1016 8.91513 54.183 8.92745C54.3722 8.31593 54.9277 7.87354 55.5822 7.87354Z" fill="#3378C9"/>
<g opacity="0.1">
<path d="M55.5813 7.87354C54.9268 7.87354 54.3713 8.31593 54.1832 8.92633C54.1381 8.91961 54.0919 8.91513 54.0446 8.91177L53.0898 12.2662C53.3384 12.4084 53.6255 12.4902 53.9324 12.4902H54.7277L56.0213 7.94409C55.8827 7.89817 55.7353 7.87354 55.5813 7.87354Z" fill="white"/>
<path d="M57.3364 8.61058C57.1769 8.61058 57.024 8.6397 56.8821 8.69122C56.7446 8.41682 56.5279 8.1917 56.2639 8.04834L55 12.4903H56.3618L57.464 8.6173C57.4222 8.61282 57.3793 8.61058 57.3364 8.61058Z" fill="white"/>
</g>
<path d="M51.6373 11.0454C51.6087 11.0454 51.5801 11.033 51.5592 11.0129C51.5383 10.9916 51.5273 10.9636 51.5273 10.9334C51.5273 10.9042 51.5394 10.8751 51.5592 10.8538C51.5999 10.8124 51.6736 10.8124 51.7143 10.8538C51.7352 10.8751 51.7462 10.9031 51.7462 10.9334C51.7462 10.9625 51.7341 10.9916 51.7143 11.0129C51.6945 11.0342 51.6659 11.0454 51.6373 11.0454Z" fill="#3378C9"/>
<path d="M25.2149 21.0346C25.2149 20.973 25.2644 20.9226 25.3249 20.9226C25.3854 20.9226 25.4349 20.973 25.4349 21.0346C25.4349 21.0962 25.3854 21.1466 25.3249 21.1466C25.2644 21.1466 25.2149 21.0962 25.2149 21.0346ZM25.2149 20.5843C25.2149 20.5227 25.2644 20.4723 25.3249 20.4723C25.3854 20.4723 25.4349 20.5227 25.4349 20.5843C25.4349 20.6459 25.3854 20.6963 25.3249 20.6963C25.2644 20.6963 25.2149 20.6459 25.2149 20.5843ZM25.2149 20.1341C25.2149 20.0725 25.2644 20.0221 25.3249 20.0221C25.3854 20.0221 25.4349 20.0725 25.4349 20.1341C25.4349 20.1957 25.3854 20.2461 25.3249 20.2461C25.2644 20.2461 25.2149 20.1957 25.2149 20.1341ZM25.2149 19.6827C25.2149 19.6211 25.2644 19.5707 25.3249 19.5707C25.3854 19.5707 25.4349 19.6211 25.4349 19.6827C25.4349 19.7443 25.3854 19.7947 25.3249 19.7947C25.2644 19.7947 25.2149 19.7454 25.2149 19.6827ZM25.2149 19.2325C25.2149 19.1709 25.2644 19.1205 25.3249 19.1205C25.3854 19.1205 25.4349 19.1709 25.4349 19.2325C25.4349 19.2941 25.3854 19.3445 25.3249 19.3445C25.2644 19.3445 25.2149 19.2952 25.2149 19.2325ZM25.2149 18.7822C25.2149 18.7206 25.2644 18.6702 25.3249 18.6702C25.3854 18.6702 25.4349 18.7206 25.4349 18.7822C25.4349 18.8438 25.3854 18.8942 25.3249 18.8942C25.2644 18.8942 25.2149 18.845 25.2149 18.7822ZM25.2149 18.332C25.2149 18.2704 25.2644 18.22 25.3249 18.22C25.3854 18.22 25.4349 18.2704 25.4349 18.332C25.4349 18.3936 25.3854 18.444 25.3249 18.444C25.2644 18.444 25.2149 18.3947 25.2149 18.332ZM25.2149 17.8818C25.2149 17.8202 25.2644 17.7698 25.3249 17.7698C25.3854 17.7698 25.4349 17.8202 25.4349 17.8818C25.4349 17.9434 25.3854 17.9938 25.3249 17.9938C25.2644 17.9938 25.2149 17.9445 25.2149 17.8818ZM25.2149 17.4315C25.2149 17.3699 25.2644 17.3195 25.3249 17.3195C25.3854 17.3195 25.4349 17.3699 25.4349 17.4315C25.4349 17.4931 25.3854 17.5435 25.3249 17.5435C25.2644 17.5435 25.2149 17.4931 25.2149 17.4315ZM25.2149 16.9813C25.2149 16.9197 25.2644 16.8693 25.3249 16.8693C25.3854 16.8693 25.4349 16.9197 25.4349 16.9813C25.4349 17.0429 25.3854 17.0933 25.3249 17.0933C25.2644 17.0933 25.2149 17.0429 25.2149 16.9813ZM25.2149 16.531C25.2149 16.4694 25.2644 16.419 25.3249 16.419C25.3854 16.419 25.4349 16.4694 25.4349 16.531C25.4349 16.5926 25.3854 16.643 25.3249 16.643C25.2644 16.643 25.2149 16.5926 25.2149 16.531ZM25.2149 16.0808C25.2149 16.0192 25.2644 15.9688 25.3249 15.9688C25.3854 15.9688 25.4349 16.0192 25.4349 16.0808C25.4349 16.1424 25.3854 16.1928 25.3249 16.1928C25.2644 16.1928 25.2149 16.1424 25.2149 16.0808ZM25.2149 15.6306C25.2149 15.569 25.2644 15.5186 25.3249 15.5186C25.3854 15.5186 25.4349 15.569 25.4349 15.6306C25.4349 15.6922 25.3854 15.7426 25.3249 15.7426C25.2644 15.7426 25.2149 15.6922 25.2149 15.6306ZM25.2149 15.1803C25.2149 15.1187 25.2644 15.0683 25.3249 15.0683C25.3854 15.0683 25.4349 15.1187 25.4349 15.1803C25.4349 15.2419 25.3854 15.2923 25.3249 15.2923C25.2644 15.2923 25.2149 15.2419 25.2149 15.1803ZM25.2149 14.7301C25.2149 14.6685 25.2644 14.6181 25.3249 14.6181C25.3854 14.6181 25.4349 14.6685 25.4349 14.7301C25.4349 14.7917 25.3854 14.8421 25.3249 14.8421C25.2644 14.8421 25.2149 14.7917 25.2149 14.7301ZM25.2149 14.2798C25.2149 14.2182 25.2644 14.1678 25.3249 14.1678C25.3854 14.1678 25.4349 14.2182 25.4349 14.2798C25.4349 14.3414 25.3854 14.3918 25.3249 14.3918C25.2644 14.3918 25.2149 14.3414 25.2149 14.2798ZM25.2149 13.8296C25.2149 13.768 25.2644 13.7176 25.3249 13.7176C25.3854 13.7176 25.4349 13.768 25.4349 13.8296C25.4349 13.8912 25.3854 13.9416 25.3249 13.9416C25.2644 13.9416 25.2149 13.8912 25.2149 13.8296ZM25.2149 13.3794C25.2149 13.3178 25.2644 13.2674 25.3249 13.2674C25.3854 13.2674 25.4349 13.3178 25.4349 13.3794C25.4349 13.441 25.3854 13.4914 25.3249 13.4914C25.2644 13.4914 25.2149 13.441 25.2149 13.3794ZM25.3227 13.0411C25.2622 13.04 25.2138 12.9896 25.2149 12.9269C25.216 12.8653 25.2655 12.816 25.3271 12.8171C25.3876 12.8182 25.436 12.8686 25.4349 12.9314C25.4338 12.993 25.3854 13.0411 25.3249 13.0411C25.3249 13.0411 25.3238 13.0411 25.3227 13.0411ZM25.3546 12.592C25.2952 12.5774 25.2589 12.517 25.2732 12.4565C25.2875 12.396 25.3469 12.359 25.4063 12.3736C25.4657 12.3882 25.502 12.4486 25.4877 12.5091C25.4756 12.5606 25.4305 12.5942 25.381 12.5942C25.3722 12.5954 25.3634 12.5942 25.3546 12.592ZM25.4822 12.1608C25.4272 12.1339 25.4052 12.0656 25.4327 12.0107C25.4591 11.9547 25.5262 11.9323 25.5801 11.9603C25.6351 11.9883 25.6571 12.0555 25.6296 12.1104C25.6109 12.1496 25.5713 12.1731 25.5306 12.1731C25.5152 12.1731 25.4987 12.1686 25.4822 12.1608ZM25.7011 11.7699C25.6538 11.7307 25.6472 11.6602 25.6857 11.612C25.7242 11.5638 25.7935 11.5571 25.8408 11.5952C25.8881 11.6344 25.8947 11.705 25.8573 11.7531C25.8353 11.78 25.8034 11.7946 25.7715 11.7946C25.7462 11.7957 25.7209 11.7867 25.7011 11.7699ZM25.9981 11.4373C25.9607 11.3891 25.9684 11.3186 26.0168 11.2794C26.0641 11.2413 26.1334 11.2491 26.1708 11.2984C26.2082 11.3466 26.2005 11.4171 26.1521 11.4552C26.1323 11.4709 26.1081 11.4787 26.0839 11.4787C26.052 11.4798 26.0201 11.4653 25.9981 11.4373ZM26.36 11.1786C26.3336 11.1226 26.3567 11.0554 26.4117 11.0296C26.4667 11.0027 26.5327 11.0262 26.558 11.0822C26.5844 11.1382 26.5613 11.2054 26.5063 11.2312C26.4909 11.239 26.4744 11.2424 26.459 11.2424C26.4183 11.2424 26.3787 11.2189 26.36 11.1786ZM26.7692 11.0083C26.756 10.9478 26.7934 10.8885 26.8528 10.8739C26.9122 10.8605 26.9705 10.8986 26.9837 10.959C26.9969 11.0195 26.9595 11.0789 26.9001 11.0934C26.8924 11.0957 26.8836 11.0957 26.8759 11.0957C26.8264 11.0957 26.7802 11.0598 26.7692 11.0083ZM51.0869 10.9333C51.0869 10.8717 51.1364 10.8213 51.1969 10.8213C51.2574 10.8213 51.3069 10.8717 51.3069 10.9333C51.3069 10.9949 51.2574 11.0453 51.1969 11.0453C51.1364 11.0453 51.0869 10.996 51.0869 10.9333ZM50.6447 10.9333C50.6447 10.8717 50.6942 10.8213 50.7547 10.8213C50.8152 10.8213 50.8647 10.8717 50.8647 10.9333C50.8647 10.9949 50.8152 11.0453 50.7547 11.0453C50.6942 11.0453 50.6447 10.996 50.6447 10.9333ZM50.2025 10.9333C50.2025 10.8717 50.252 10.8213 50.3125 10.8213C50.373 10.8213 50.4225 10.8717 50.4225 10.9333C50.4225 10.9949 50.373 11.0453 50.3125 11.0453C50.252 11.0453 50.2025 10.996 50.2025 10.9333ZM49.7603 10.9333C49.7603 10.8717 49.8098 10.8213 49.8703 10.8213C49.9308 10.8213 49.9803 10.8717 49.9803 10.9333C49.9803 10.9949 49.9308 11.0453 49.8703 11.0453C49.8098 11.0453 49.7603 10.996 49.7603 10.9333ZM49.3181 10.9333C49.3181 10.8717 49.3676 10.8213 49.4281 10.8213C49.4886 10.8213 49.5381 10.8717 49.5381 10.9333C49.5381 10.9949 49.4886 11.0453 49.4281 11.0453C49.3676 11.0453 49.3181 10.996 49.3181 10.9333ZM48.8759 10.9333C48.8759 10.8717 48.9254 10.8213 48.9859 10.8213C49.0464 10.8213 49.0959 10.8717 49.0959 10.9333C49.0959 10.9949 49.0464 11.0453 48.9859 11.0453C48.9243 11.0453 48.8759 10.996 48.8759 10.9333ZM48.4337 10.9333C48.4337 10.8717 48.4832 10.8213 48.5437 10.8213C48.6042 10.8213 48.6537 10.8717 48.6537 10.9333C48.6537 10.9949 48.6042 11.0453 48.5437 11.0453C48.4821 11.0453 48.4337 10.996 48.4337 10.9333ZM47.9915 10.9333C47.9915 10.8717 48.041 10.8213 48.1015 10.8213C48.162 10.8213 48.2115 10.8717 48.2115 10.9333C48.2115 10.9949 48.162 11.0453 48.1015 11.0453C48.0399 11.0453 47.9915 10.996 47.9915 10.9333ZM47.5493 10.9333C47.5493 10.8717 47.5988 10.8213 47.6593 10.8213C47.7198 10.8213 47.7693 10.8717 47.7693 10.9333C47.7693 10.9949 47.7198 11.0453 47.6593 11.0453C47.5977 11.0453 47.5493 10.996 47.5493 10.9333ZM47.106 10.9333C47.106 10.8717 47.1555 10.8213 47.216 10.8213C47.2765 10.8213 47.326 10.8717 47.326 10.9333C47.326 10.9949 47.2765 11.0453 47.216 11.0453C47.1555 11.0453 47.106 10.996 47.106 10.9333ZM46.6638 10.9333C46.6638 10.8717 46.7133 10.8213 46.7738 10.8213C46.8343 10.8213 46.8838 10.8717 46.8838 10.9333C46.8838 10.9949 46.8343 11.0453 46.7738 11.0453C46.7133 11.0453 46.6638 10.996 46.6638 10.9333ZM46.2216 10.9333C46.2216 10.8717 46.2711 10.8213 46.3316 10.8213C46.3921 10.8213 46.4416 10.8717 46.4416 10.9333C46.4416 10.9949 46.3921 11.0453 46.3316 11.0453C46.2711 11.0453 46.2216 10.996 46.2216 10.9333ZM45.7794 10.9333C45.7794 10.8717 45.8289 10.8213 45.8894 10.8213C45.9499 10.8213 45.9994 10.8717 45.9994 10.9333C45.9994 10.9949 45.9499 11.0453 45.8894 11.0453C45.8289 11.0453 45.7794 10.996 45.7794 10.9333ZM45.3372 10.9333C45.3372 10.8717 45.3867 10.8213 45.4472 10.8213C45.5077 10.8213 45.5572 10.8717 45.5572 10.9333C45.5572 10.9949 45.5077 11.0453 45.4472 11.0453C45.3867 11.0453 45.3372 10.996 45.3372 10.9333ZM44.895 10.9333C44.895 10.8717 44.9445 10.8213 45.005 10.8213C45.0655 10.8213 45.115 10.8717 45.115 10.9333C45.115 10.9949 45.0655 11.0453 45.005 11.0453C44.9445 11.0453 44.895 10.996 44.895 10.9333ZM44.4528 10.9333C44.4528 10.8717 44.5023 10.8213 44.5628 10.8213C44.6233 10.8213 44.6728 10.8717 44.6728 10.9333C44.6728 10.9949 44.6233 11.0453 44.5628 11.0453C44.5023 11.0453 44.4528 10.996 44.4528 10.9333ZM44.0106 10.9333C44.0106 10.8717 44.0601 10.8213 44.1206 10.8213C44.1811 10.8213 44.2306 10.8717 44.2306 10.9333C44.2306 10.9949 44.1811 11.0453 44.1206 11.0453C44.0601 11.0453 44.0106 10.996 44.0106 10.9333ZM43.5684 10.9333C43.5684 10.8717 43.6179 10.8213 43.6784 10.8213C43.7389 10.8213 43.7884 10.8717 43.7884 10.9333C43.7884 10.9949 43.7389 11.0453 43.6784 11.0453C43.6179 11.0453 43.5684 10.996 43.5684 10.9333ZM43.1262 10.9333C43.1262 10.8717 43.1757 10.8213 43.2362 10.8213C43.2967 10.8213 43.3462 10.8717 43.3462 10.9333C43.3462 10.9949 43.2967 11.0453 43.2362 11.0453C43.1757 11.0453 43.1262 10.996 43.1262 10.9333ZM42.684 10.9333C42.684 10.8717 42.7335 10.8213 42.794 10.8213C42.8545 10.8213 42.904 10.8717 42.904 10.9333C42.904 10.9949 42.8545 11.0453 42.794 11.0453C42.7335 11.0453 42.684 10.996 42.684 10.9333ZM42.2418 10.9333C42.2418 10.8717 42.2913 10.8213 42.3518 10.8213C42.4123 10.8213 42.4618 10.8717 42.4618 10.9333C42.4618 10.9949 42.4123 11.0453 42.3518 11.0453C42.2913 11.0453 42.2418 10.996 42.2418 10.9333ZM41.7996 10.9333C41.7996 10.8717 41.8491 10.8213 41.9096 10.8213C41.9701 10.8213 42.0196 10.8717 42.0196 10.9333C42.0196 10.9949 41.9701 11.0453 41.9096 11.0453C41.8491 11.0453 41.7996 10.996 41.7996 10.9333ZM41.3574 10.9333C41.3574 10.8717 41.4069 10.8213 41.4674 10.8213C41.5279 10.8213 41.5774 10.8717 41.5774 10.9333C41.5774 10.9949 41.5279 11.0453 41.4674 11.0453C41.4069 11.0453 41.3574 10.996 41.3574 10.9333ZM40.9152 10.9333C40.9152 10.8717 40.9647 10.8213 41.0252 10.8213C41.0857 10.8213 41.1352 10.8717 41.1352 10.9333C41.1352 10.9949 41.0857 11.0453 41.0252 11.0453C40.9647 11.0453 40.9152 10.996 40.9152 10.9333ZM40.473 10.9333C40.473 10.8717 40.5225 10.8213 40.583 10.8213C40.6435 10.8213 40.693 10.8717 40.693 10.9333C40.693 10.9949 40.6435 11.0453 40.583 11.0453C40.5214 11.0453 40.473 10.996 40.473 10.9333ZM40.0308 10.9333C40.0308 10.8717 40.0803 10.8213 40.1408 10.8213C40.2013 10.8213 40.2508 10.8717 40.2508 10.9333C40.2508 10.9949 40.2013 11.0453 40.1408 11.0453C40.0792 11.0453 40.0308 10.996 40.0308 10.9333ZM39.5886 10.9333C39.5886 10.8717 39.6381 10.8213 39.6986 10.8213C39.7591 10.8213 39.8086 10.8717 39.8086 10.9333C39.8086 10.9949 39.7591 11.0453 39.6986 11.0453C39.637 11.0453 39.5886 10.996 39.5886 10.9333ZM39.1453 10.9333C39.1453 10.8717 39.1948 10.8213 39.2553 10.8213C39.3158 10.8213 39.3653 10.8717 39.3653 10.9333C39.3653 10.9949 39.3158 11.0453 39.2553 11.0453C39.1948 11.0453 39.1453 10.996 39.1453 10.9333ZM38.7031 10.9333C38.7031 10.8717 38.7526 10.8213 38.8131 10.8213C38.8736 10.8213 38.9231 10.8717 38.9231 10.9333C38.9231 10.9949 38.8736 11.0453 38.8131 11.0453C38.7526 11.0453 38.7031 10.996 38.7031 10.9333ZM38.2609 10.9333C38.2609 10.8717 38.3104 10.8213 38.3709 10.8213C38.4314 10.8213 38.4809 10.8717 38.4809 10.9333C38.4809 10.9949 38.4314 11.0453 38.3709 11.0453C38.3104 11.0453 38.2609 10.996 38.2609 10.9333ZM37.8187 10.9333C37.8187 10.8717 37.8682 10.8213 37.9287 10.8213C37.9892 10.8213 38.0387 10.8717 38.0387 10.9333C38.0387 10.9949 37.9892 11.0453 37.9287 11.0453C37.8682 11.0453 37.8187 10.996 37.8187 10.9333ZM37.3765 10.9333C37.3765 10.8717 37.426 10.8213 37.4865 10.8213C37.547 10.8213 37.5965 10.8717 37.5965 10.9333C37.5965 10.9949 37.547 11.0453 37.4865 11.0453C37.426 11.0453 37.3765 10.996 37.3765 10.9333ZM36.9343 10.9333C36.9343 10.8717 36.9838 10.8213 37.0443 10.8213C37.1048 10.8213 37.1543 10.8717 37.1543 10.9333C37.1543 10.9949 37.1048 11.0453 37.0443 11.0453C36.9838 11.0453 36.9343 10.996 36.9343 10.9333ZM36.4921 10.9333C36.4921 10.8717 36.5416 10.8213 36.6021 10.8213C36.6626 10.8213 36.7121 10.8717 36.7121 10.9333C36.7121 10.9949 36.6626 11.0453 36.6021 11.0453C36.5416 11.0453 36.4921 10.996 36.4921 10.9333ZM36.0499 10.9333C36.0499 10.8717 36.0994 10.8213 36.1599 10.8213C36.2204 10.8213 36.2699 10.8717 36.2699 10.9333C36.2699 10.9949 36.2204 11.0453 36.1599 11.0453C36.0994 11.0453 36.0499 10.996 36.0499 10.9333ZM35.6077 10.9333C35.6077 10.8717 35.6572 10.8213 35.7177 10.8213C35.7782 10.8213 35.8277 10.8717 35.8277 10.9333C35.8277 10.9949 35.7782 11.0453 35.7177 11.0453C35.6572 11.0453 35.6077 10.996 35.6077 10.9333ZM35.1655 10.9333C35.1655 10.8717 35.215 10.8213 35.2755 10.8213C35.336 10.8213 35.3855 10.8717 35.3855 10.9333C35.3855 10.9949 35.336 11.0453 35.2755 11.0453C35.215 11.0453 35.1655 10.996 35.1655 10.9333ZM34.7233 10.9333C34.7233 10.8717 34.7728 10.8213 34.8333 10.8213C34.8938 10.8213 34.9433 10.8717 34.9433 10.9333C34.9433 10.9949 34.8938 11.0453 34.8333 11.0453C34.7728 11.0453 34.7233 10.996 34.7233 10.9333ZM34.2811 10.9333C34.2811 10.8717 34.3306 10.8213 34.3911 10.8213C34.4516 10.8213 34.5011 10.8717 34.5011 10.9333C34.5011 10.9949 34.4516 11.0453 34.3911 11.0453C34.3306 11.0453 34.2811 10.996 34.2811 10.9333ZM33.8389 10.9333C33.8389 10.8717 33.8884 10.8213 33.9489 10.8213C34.0094 10.8213 34.0589 10.8717 34.0589 10.9333C34.0589 10.9949 34.0094 11.0453 33.9489 11.0453C33.8884 11.0453 33.8389 10.996 33.8389 10.9333ZM33.3967 10.9333C33.3967 10.8717 33.4462 10.8213 33.5067 10.8213C33.5672 10.8213 33.6167 10.8717 33.6167 10.9333C33.6167 10.9949 33.5672 11.0453 33.5067 11.0453C33.4462 11.0453 33.3967 10.996 33.3967 10.9333ZM32.9545 10.9333C32.9545 10.8717 33.004 10.8213 33.0645 10.8213C33.125 10.8213 33.1745 10.8717 33.1745 10.9333C33.1745 10.9949 33.125 11.0453 33.0645 11.0453C33.004 11.0453 32.9545 10.996 32.9545 10.9333ZM32.5123 10.9333C32.5123 10.8717 32.5618 10.8213 32.6223 10.8213C32.6828 10.8213 32.7323 10.8717 32.7323 10.9333C32.7323 10.9949 32.6828 11.0453 32.6223 11.0453C32.5607 11.0453 32.5123 10.996 32.5123 10.9333ZM32.0701 10.9333C32.0701 10.8717 32.1196 10.8213 32.1801 10.8213C32.2406 10.8213 32.2901 10.8717 32.2901 10.9333C32.2901 10.9949 32.2406 11.0453 32.1801 11.0453C32.1185 11.0453 32.0701 10.996 32.0701 10.9333ZM31.6279 10.9333C31.6279 10.8717 31.6774 10.8213 31.7379 10.8213C31.7984 10.8213 31.8479 10.8717 31.8479 10.9333C31.8479 10.9949 31.7984 11.0453 31.7379 11.0453C31.6763 11.0453 31.6279 10.996 31.6279 10.9333ZM31.1857 10.9333C31.1857 10.8717 31.2352 10.8213 31.2957 10.8213C31.3562 10.8213 31.4057 10.8717 31.4057 10.9333C31.4057 10.9949 31.3562 11.0453 31.2957 11.0453C31.2341 11.0453 31.1857 10.996 31.1857 10.9333ZM30.7424 10.9333C30.7424 10.8717 30.7919 10.8213 30.8524 10.8213C30.9129 10.8213 30.9624 10.8717 30.9624 10.9333C30.9624 10.9949 30.9129 11.0453 30.8524 11.0453C30.7919 11.0453 30.7424 10.996 30.7424 10.9333ZM30.3002 10.9333C30.3002 10.8717 30.3497 10.8213 30.4102 10.8213C30.4707 10.8213 30.5202 10.8717 30.5202 10.9333C30.5202 10.9949 30.4707 11.0453 30.4102 11.0453C30.3497 11.0453 30.3002 10.996 30.3002 10.9333ZM29.858 10.9333C29.858 10.8717 29.9075 10.8213 29.968 10.8213C30.0285 10.8213 30.078 10.8717 30.078 10.9333C30.078 10.9949 30.0285 11.0453 29.968 11.0453C29.9075 11.0453 29.858 10.996 29.858 10.9333ZM29.4158 10.9333C29.4158 10.8717 29.4653 10.8213 29.5258 10.8213C29.5863 10.8213 29.6358 10.8717 29.6358 10.9333C29.6358 10.9949 29.5863 11.0453 29.5258 11.0453C29.4653 11.0453 29.4158 10.996 29.4158 10.9333ZM28.9736 10.9333C28.9736 10.8717 29.0231 10.8213 29.0836 10.8213C29.1441 10.8213 29.1936 10.8717 29.1936 10.9333C29.1936 10.9949 29.1441 11.0453 29.0836 11.0453C29.0231 11.0453 28.9736 10.996 28.9736 10.9333ZM28.5314 10.9333C28.5314 10.8717 28.5809 10.8213 28.6414 10.8213C28.7019 10.8213 28.7514 10.8717 28.7514 10.9333C28.7514 10.9949 28.7019 11.0453 28.6414 11.0453C28.5809 11.0453 28.5314 10.996 28.5314 10.9333ZM28.0892 10.9333C28.0892 10.8717 28.1387 10.8213 28.1992 10.8213C28.2597 10.8213 28.3092 10.8717 28.3092 10.9333C28.3092 10.9949 28.2597 11.0453 28.1992 11.0453C28.1387 11.0453 28.0892 10.996 28.0892 10.9333ZM27.647 10.9333C27.647 10.8717 27.6965 10.8213 27.757 10.8213C27.8175 10.8213 27.867 10.8717 27.867 10.9333C27.867 10.9949 27.8175 11.0453 27.757 11.0453C27.6965 11.0453 27.647 10.996 27.647 10.9333ZM27.2048 10.9344C27.2048 10.8728 27.2543 10.8224 27.3148 10.8224C27.3753 10.8224 27.4248 10.8728 27.4248 10.9344C27.4248 10.996 27.3753 11.0464 27.3148 11.0464C27.2543 11.0453 27.2048 10.996 27.2048 10.9344Z" fill="#3378C9"/>
<path d="M25.3248 21.5991C25.2962 21.5991 25.2676 21.5867 25.2467 21.5666C25.2258 21.5453 25.2148 21.5173 25.2148 21.4871C25.2148 21.4579 25.2269 21.4288 25.2467 21.4075C25.2874 21.3661 25.3611 21.3661 25.4029 21.4075C25.4238 21.4288 25.4348 21.4568 25.4348 21.4871C25.4348 21.5162 25.4227 21.5453 25.4029 21.5666C25.382 21.5867 25.3534 21.5991 25.3248 21.5991Z" fill="#3378C9"/>
<path d="M56.2116 14.4311C56.183 14.4311 56.1544 14.4188 56.1335 14.3986C56.1126 14.3773 56.1016 14.3493 56.1016 14.3191C56.1016 14.29 56.1137 14.2609 56.1335 14.2396C56.1742 14.1981 56.2479 14.1981 56.2886 14.2396C56.3095 14.2609 56.3205 14.29 56.3205 14.3191C56.3205 14.3482 56.3084 14.3773 56.2886 14.3986C56.2688 14.4188 56.2413 14.4311 56.2116 14.4311Z" fill="#3378C9"/>
<path d="M56.1016 13.8913C56.1016 13.8297 56.1511 13.7793 56.2116 13.7793C56.2721 13.7793 56.3216 13.8297 56.3216 13.8913C56.3216 13.9529 56.2721 14.0033 56.2116 14.0033C56.1511 14.0033 56.1016 13.9529 56.1016 13.8913ZM56.1016 13.4645C56.1016 13.4029 56.1511 13.3525 56.2116 13.3525C56.2721 13.3525 56.3216 13.4029 56.3216 13.4645C56.3216 13.5261 56.2721 13.5765 56.2116 13.5765C56.1511 13.5765 56.1016 13.5261 56.1016 13.4645Z" fill="#3378C9"/>
<path d="M56.2116 13.1486C56.183 13.1486 56.1544 13.1363 56.1335 13.1161C56.1126 13.0949 56.1016 13.0669 56.1016 13.0366C56.1016 13.0075 56.1137 12.9784 56.1335 12.9571C56.1742 12.9157 56.2479 12.9157 56.2886 12.9571C56.3095 12.9784 56.3205 13.0064 56.3205 13.0366C56.3205 13.0657 56.3084 13.0949 56.2886 13.1161C56.2699 13.1363 56.2413 13.1486 56.2116 13.1486Z" fill="#3378C9"/>
<defs>
<linearGradient id="paint0_linear_5661_8116" x1="42" y1="14.7917" x2="42" y2="72.565" gradientUnits="userSpaceOnUse">
<stop offset="0.276042" stop-color="#18C655" stop-opacity="0"/>
<stop offset="1" stop-color="#18C655"/>
</linearGradient>
</defs>
</svg>
