<svg width="83" height="82" viewBox="0 0 83 82" fill="none" xmlns="http://www.w3.org/2000/svg">
<path d="M82.189 40.4332C82.189 63.129 63.7904 81.5277 41.0945 81.5277C18.3986 81.5277 0 63.129 0 40.4332C0 3.12692 21.5501 45.1813 44.246 45.1813C66.9419 45.1813 82.189 17.7373 82.189 40.4332Z" fill="url(#paint0_linear_5670_8231)" fill-opacity="0.62"/>
<path d="M27.5591 38.3412C27.7462 40.306 28.1859 42.9035 28.7142 45.142H29.0459C28.3629 42.4409 27.7341 38.7417 27.9192 34.4774C28.1058 30.1772 29.159 24.9561 27.1953 22.4618C25.5608 20.3861 18.6252 20.0757 16.3445 20.0301C16.0596 20.0245 15.8964 20.3527 16.0737 20.5758C16.948 21.676 18.7789 24.2239 18.9384 26.4488C19.1487 29.3813 21.4278 31.6831 23.6926 32.6412C25.9574 33.5993 27.177 34.3302 27.5591 38.3412Z" fill="#91B3FA"/>
<path d="M19.1993 21.8431C20.6022 22.1991 21.929 22.839 23.0899 23.7156C23.6715 24.1521 24.1986 24.665 24.653 25.2378C25.1028 25.8138 25.4803 26.4516 25.7423 27.1369L25.8393 27.3942C25.871 27.4801 25.8948 27.5689 25.923 27.656C25.9489 27.7435 25.9781 27.8318 26.0012 27.9187L26.0705 28.1793C26.1637 28.5266 26.2552 28.8744 26.3431 29.223C26.5201 29.9201 26.6858 30.6201 26.8407 31.3223C27.1512 32.7269 27.4183 34.1409 27.5984 35.5707C27.6028 35.6051 27.5785 35.6364 27.5442 35.6406C27.5111 35.6449 27.4808 35.6223 27.4748 35.5899L27.4745 35.588C27.3464 34.8842 27.2047 34.1803 27.0497 33.4808C26.898 32.7801 26.7377 32.0814 26.5699 31.3846L26.3148 30.3403L26.0478 29.2987C25.9591 28.9515 25.8668 28.6051 25.7729 28.2593L25.703 27.9997C25.6798 27.9131 25.652 27.831 25.6268 27.7465C25.6002 27.6629 25.5782 27.5775 25.5481 27.4951L25.4563 27.248C25.2102 26.5889 24.8471 25.9786 24.4238 25.4162C24.206 25.1396 23.9781 24.8691 23.7251 24.6222L23.6321 24.5279L23.5354 24.4372C23.4706 24.3769 23.4076 24.315 23.3416 24.2562C23.2079 24.1403 23.0755 24.0225 22.9357 23.9137C22.384 23.468 21.7779 23.0899 21.1482 22.7582C20.5184 22.4273 19.8558 22.1479 19.1755 21.9408L19.1724 21.9399C19.1458 21.9318 19.1308 21.9038 19.1389 21.8772C19.1468 21.8515 19.1736 21.8366 19.1993 21.8431Z" fill="#BDD0FB"/>
<path d="M28.9137 42.3473C30.0998 44.0888 29.9475 45.0632 29.984 45.8885C29.9905 46.035 29.9984 46.2421 30.0155 46.4869H30.3393C30.2731 46.1509 30.2263 45.8123 30.2095 45.48C30.0942 43.2006 29.58 39.3102 27.6144 36.983C25.6487 34.6557 23.4961 34.4435 20.7838 36.5592C18.5236 38.3221 17.1137 39.2119 16.2868 39.3774C16.082 39.4184 15.9776 39.6495 16.0772 39.8329C16.6076 40.8095 18.107 43.053 20.6245 42.8951C23.8356 42.6933 27.7274 40.6058 28.9137 42.3473Z" fill="#BDD0FB"/>
<path d="M21.7031 39.3619C21.8808 39.1929 22.069 39.0404 22.2633 38.8933C22.4573 38.7468 22.6575 38.6072 22.8658 38.4797C23.281 38.2233 23.7241 38.0046 24.1958 37.8539C24.4318 37.7794 24.6748 37.722 24.9234 37.6903C25.1718 37.6602 25.4259 37.6562 25.6779 37.6873C25.7406 37.6975 25.804 37.7035 25.8661 37.7174C25.9278 37.7321 25.9915 37.7439 26.0514 37.7609L26.4053 37.8708L26.7517 38.0055L27.0875 38.1668C27.5275 38.3987 27.9256 38.7121 28.257 39.0812C28.5909 39.4492 28.852 39.8734 29.067 40.3128L29.1477 40.4778C29.1753 40.5323 29.1954 40.5903 29.2197 40.6463C29.2653 40.7595 29.3146 40.8715 29.357 40.9858L29.4763 41.3312C29.5185 41.4455 29.5455 41.5644 29.5794 41.6811C29.714 42.1483 29.8068 42.6246 29.8869 43.1013C29.8913 43.1279 29.8733 43.153 29.8467 43.1576C29.8214 43.1618 29.7973 43.1458 29.7913 43.1212L29.7909 43.1196C29.6779 42.6524 29.5691 42.1844 29.4134 41.7318C29.3428 41.5031 29.2533 41.2819 29.1702 41.0587C29.1253 40.9484 29.0743 40.841 29.0267 40.732C29.0015 40.6783 28.9804 40.6225 28.952 40.5704L28.8693 40.413C28.6502 39.9932 28.3843 39.5996 28.0669 39.2555C27.749 38.9115 27.372 38.6275 26.9589 38.4102L26.6423 38.2601L26.3143 38.1346L25.9773 38.0321C25.9213 38.0163 25.8665 38.0057 25.811 37.9921C25.7557 37.9791 25.6987 37.9738 25.6427 37.964C25.4164 37.9344 25.185 37.9361 24.9553 37.9624C24.7251 37.987 24.496 38.0355 24.2712 38.1011C23.8206 38.2323 23.3862 38.4281 22.9687 38.6562C22.7607 38.7718 22.5547 38.8926 22.3548 39.0235C22.1555 39.1545 21.9585 39.2929 21.7707 39.4381L21.7695 39.439C21.7473 39.4563 21.7155 39.4522 21.6982 39.4301C21.682 39.4091 21.6846 39.3797 21.7031 39.3619Z" fill="url(#paint1_linear_5670_8231)"/>
<path d="M52.3071 30.1384C52.3071 30.1384 52.3314 23.8939 55.2518 22.3033C58.1722 20.7126 63.6661 19.8196 64.119 10.8648C64.384 5.6222 64.5773 3.33221 64.6919 2.33451C64.7367 1.94536 64.3988 1.62083 64.0119 1.68264C61.2755 2.12021 52.374 3.98619 50.3529 9.97064C47.9571 17.0653 52.3071 30.1384 52.3071 30.1384Z" fill="#BDD0FB"/>
<path d="M61.8426 4.11733C58.7809 6.69963 55.1951 11.3205 53.2229 15.986C52.9649 16.7568 52.2278 18.3907 51.8463 21.3193C51.5103 23.7615 51.5719 26.3534 51.8498 28.0757C51.8674 28.1846 51.9699 28.2587 52.0787 28.2411C52.2659 28.211 52.2467 28.0099 52.2449 28.0162C51.9546 25.0786 52.2095 21.4392 53.1514 18.1753C54.3504 14.1687 56.8837 10.3221 59.484 7.07205L59.7511 6.75228C61.7634 4.31032 62.1732 4.30328 61.9962 4.1242C61.9545 4.08211 61.8874 4.07983 61.8426 4.11733Z" fill="url(#paint2_linear_5670_8231)"/>
<path d="M47.4323 42.7991C47.0434 42.9898 51.1152 37.8694 52.3907 29.8274C52.9917 26.0377 52.9996 21.2897 55.1584 19.46C56.955 17.9372 63.0689 18.8986 65.0692 19.264C65.3193 19.3096 65.4033 19.6253 65.2087 19.7889C64.2494 20.5945 62.1973 22.495 61.6625 24.4101C60.9578 26.9345 58.5578 28.5402 56.4092 28.9746C54.2606 29.4092 53.0653 29.8309 52.0187 33.2669C50.972 36.7028 48.5376 42.2571 47.4323 42.7991Z" fill="#91B3FA"/>
<path d="M62.2562 20.3306C59.704 20.4375 56.9643 21.6018 55.5741 23.7856L55.4429 23.9939C55.1399 24.4825 53.4222 27.9562 52.4683 30.8357C52.4565 30.8716 52.4759 30.9104 52.5118 30.9222C52.5727 30.9424 52.6034 30.8753 52.5975 30.8811C53.2623 29.2545 54.2168 27.1921 54.977 25.6498C55.7923 23.9669 56.363 22.8271 58.2226 21.7354C60.2925 20.5597 62.2701 20.4387 62.2641 20.44C62.2942 20.4368 62.3162 20.4098 62.3133 20.3797C62.3101 20.3509 62.2849 20.3295 62.2562 20.3306Z" fill="#BDD0FB"/>
<path d="M49.7112 43.4729C49.4803 43.5946 51.0116 40.9591 51.129 38.637C51.2465 36.315 51.7703 32.352 53.7728 29.9814C55.7752 27.6107 57.9678 27.3943 60.731 29.5496C63.0335 31.3455 64.4698 32.252 65.312 32.4203C65.5205 32.4621 65.627 32.6975 65.5256 32.8845C64.9854 33.8794 63.458 36.1646 60.8935 36.0037C57.6222 35.7985 53.6576 33.6719 52.4493 35.4458C51.241 37.2199 51.3961 38.2125 51.359 39.0531C51.3216 39.8941 51.2389 42.6675 49.7112 43.4729Z" fill="#BDD0FB"/>
<path d="M59.8014 32.3964C58.7993 31.4357 57.1671 30.4915 55.7407 30.6676C53.8847 30.9666 52.6484 32.2059 51.9742 34.0507C51.7106 34.8341 51.6021 35.2521 51.4463 36.2123C51.4338 36.2889 51.547 36.312 51.5658 36.237C51.6792 35.786 51.7916 35.3138 51.9596 34.8253C52.9377 31.6741 55.0259 31.2497 55.1071 31.1853C55.265 31.2008 56.2221 30.4844 58.4929 31.7063C58.9169 31.9371 59.3296 32.2006 59.7172 32.4911L59.7193 32.4927C59.7473 32.5137 59.7871 32.508 59.8082 32.48C59.8278 32.4541 59.8243 32.4182 59.8014 32.3964Z" fill="url(#paint3_linear_5670_8231)"/>
<path d="M25.9522 3.53634C24.718 3.64375 23.7718 4.6772 23.7682 5.91613C23.7468 13.492 23.7114 39.6237 24.2051 48.8728C24.2574 49.8527 25.0607 50.6224 26.0419 50.6329C30.895 50.6852 44.8545 50.7812 52.7794 50.2742C54.43 50.1686 55.7146 48.8016 55.7125 47.1475C55.7028 39.1962 55.5758 16.8345 54.4866 6.61326C54.3561 5.38858 53.3716 4.43261 52.1438 4.337C46.851 3.92478 32.7953 2.94117 25.9522 3.53634Z" fill="#B2D99E"/>
<path d="M25.7187 7.90143C25.6234 14.3821 25.352 35.9403 25.8257 43.8969C25.8949 45.0599 26.7984 45.978 27.9137 46.0169C32.5064 46.177 44.2837 46.4867 50.9945 45.7482C52.203 45.6153 53.1266 44.5679 53.1586 43.2996C53.3264 36.6862 53.7799 16.6073 53.3196 8.73942C53.2461 7.48428 52.2872 6.4827 51.0852 6.4017C46.1124 6.06661 33.3428 5.29395 27.6361 5.76903C26.5649 5.85848 25.7352 6.77941 25.7187 7.90143Z" fill="#B2D99E"/>
<path d="M36.8106 4.66302C36.8145 4.84209 36.9573 4.98666 37.1364 4.99212C38.0201 5.01888 40.5095 5.09513 41.6223 5.13528C41.8417 5.1432 42.0093 4.94246 41.963 4.72782C41.9592 4.72112 41.9308 4.4459 41.6498 4.42636C40.897 4.37406 38.6262 4.23284 37.1256 4.31947C36.8173 4.33726 36.8006 4.68767 36.8106 4.66302Z" fill="#B2D99E"/>
<path d="M39.6525 28.3611C46.8516 28.3611 52.6877 22.525 52.6877 15.3258C52.6877 8.12662 46.8516 2.29053 39.6525 2.29053C32.4533 2.29053 26.6172 8.12662 26.6172 15.3258C26.6172 22.525 32.4533 28.3611 39.6525 28.3611Z" fill="url(#paint4_linear_5670_8231)"/>
<path opacity="0.78" d="M28.7767 10.431C28.7399 10.4319 28.7023 10.4247 28.6667 10.4078C28.5452 10.3502 28.4933 10.2051 28.5508 10.0838C30.5457 5.86652 34.68 3.17276 39.3405 3.05337C40.0841 3.03436 40.8307 3.08225 41.5593 3.196C41.6921 3.21661 41.7831 3.34092 41.7624 3.47387C41.7416 3.60663 41.6182 3.6982 41.4843 3.67654C40.7844 3.56754 40.0672 3.52141 39.3528 3.53972C34.8771 3.65435 30.9067 6.2414 28.9907 10.2916C28.9502 10.3777 28.8657 10.4287 28.7767 10.431Z" fill="white"/>
<path opacity="0.78" d="M47.7438 23.4039C52.0523 19.0953 52.0523 12.1098 47.7438 7.80123C43.4352 3.49268 36.4497 3.49268 32.1412 7.80123C27.8326 12.1098 27.8326 19.0953 32.1412 23.4039C36.4497 27.7124 43.4352 27.7124 47.7438 23.4039Z" fill="white"/>
<path d="M39.0708 23.8295L39.0402 22.6297C37.788 22.6115 36.5433 22.3481 35.6546 21.9859C35.3373 21.8567 35.1682 21.5085 35.2499 21.1757L35.5262 20.0502C35.6275 19.6373 36.068 19.4138 36.4642 19.5681C37.3454 19.9111 38.429 20.1727 39.5896 20.143C40.7943 20.1122 41.6823 19.6808 41.661 18.8435C41.6417 18.0879 40.9359 17.6565 39.2499 17.2503C36.844 16.6579 35.102 15.6604 35.0481 13.557C34.9995 11.6578 36.3512 10.1725 38.7507 9.72277L38.7201 8.52274C38.7102 8.13659 39.0152 7.81558 39.4013 7.80572L40.1064 7.78759C40.4925 7.77773 40.8135 8.0827 40.8234 8.46886L40.851 9.54633C42.0097 9.56306 42.8574 9.73932 43.532 9.95731C43.8776 10.069 44.0743 10.4331 43.9882 10.786L43.7343 11.8268C43.6364 12.2281 43.2159 12.4574 42.8258 12.3213C42.2043 12.1042 41.3277 11.884 40.1964 11.9131C38.7669 11.9497 38.3737 12.5523 38.3873 13.0832C38.404 13.7366 39.2731 14.1638 41.146 14.6882C43.8211 15.4167 44.9519 16.4911 45.0026 18.4719C45.0491 20.2893 43.7433 21.9576 41.1398 22.4328L41.1742 23.7756C41.184 24.1618 40.879 24.4828 40.4929 24.4927L39.7878 24.5106C39.4017 24.5207 39.0807 24.2157 39.0708 23.8295Z" fill="url(#paint5_linear_5670_8231)"/>
<path d="M55.3401 18.8062C55.3401 18.8062 56.0554 19.1541 56.1869 19.5538C56.2924 19.8745 57.0834 19.9158 57.1616 20.5466C57.2019 20.8722 57.443 21.1331 57.7673 21.1828C58.5752 21.3066 59.8201 21.7262 60.0193 23.1287C60.1712 24.1993 59.6255 24.6052 59.0527 24.7457C58.6321 24.8489 58.3524 25.2581 58.4375 25.6828C58.5192 26.0901 58.3973 26.5611 57.6916 26.9336C56.1102 27.768 54.5307 24.9566 54.5307 24.9566L54.207 20.0476L55.3401 18.8062Z" fill="url(#paint6_linear_5670_8231)"/>
<path d="M47.8983 16.2173C47.8983 16.2173 49.9333 21.7649 53.4008 23.4988C53.4008 23.4988 52.2467 25.3818 51.6443 25.4961C51.6443 25.4961 47.9402 20.7552 47.5625 16.8711L47.8983 16.2173Z" fill="url(#paint7_linear_5670_8231)"/>
<path d="M61.8459 49.5879L61.9482 50.4292C61.9676 50.5887 62.0933 50.715 62.253 50.7333C62.5228 50.7641 62.9556 50.7956 63.3789 50.7509C63.5648 50.7312 63.6855 50.5431 63.6288 50.3649C63.5256 50.0402 63.3366 49.5526 63.0644 49.2656H62.1311C61.9588 49.2656 61.8251 49.4165 61.8459 49.5879Z" fill="url(#paint8_linear_5670_8231)"/>
<path d="M54.5334 39.7319L54.3758 40.6585C54.3758 40.6585 54.9033 46.0018 54.9972 48.1391C55.012 48.4742 54.9252 48.8055 54.7493 49.0911L53.832 50.5806L56.1632 49.205L56.2097 48.9204L55.8281 48.3957L56.328 42.4098C56.3575 42.0582 56.2849 41.7055 56.119 41.394L55.6369 40.4882L54.5334 39.7319Z" fill="url(#paint9_linear_5670_8231)"/>
<path d="M53.6772 50.7968H54.4212C54.5604 50.7968 54.6918 50.7329 54.7767 50.6224C55.0086 50.3212 55.4891 49.7332 55.7189 49.7179C56.0281 49.6973 55.9887 50.7968 55.9887 50.7968H56.1621L56.3817 49.4303C56.437 49.0866 56.266 48.7461 55.9573 48.585C55.9573 48.585 55.8865 49.1078 55.5032 49.3391C55.1199 49.5703 53.9431 50.3986 53.9431 50.3986C53.9431 50.3986 53.7991 50.378 53.6407 50.4067C53.4059 50.4492 53.4386 50.7968 53.6772 50.7968Z" fill="url(#paint10_linear_5670_8231)"/>
<path d="M57.7266 40.1725C57.7266 40.1725 60.8169 46.0345 61.3081 47.373C61.7994 48.7114 61.9715 49.828 61.9782 49.9336C61.9884 50.0988 62.1939 50.2573 62.7603 50.2573C63.0526 50.2573 63.1958 50.1402 63.2659 50.0266C63.3257 49.9297 63.3287 49.8088 63.2784 49.7068C63.0996 49.345 62.5323 48.189 62.3222 47.6646C62.0713 47.0384 61.5318 44.2011 61.2358 43.2147C60.9398 42.2283 60.6054 41.1582 59.3166 40.1725C59.3166 40.1725 58.432 39.306 57.7266 40.1725Z" fill="url(#paint11_linear_5670_8231)"/>
<path d="M55.7776 30.5671C54.9804 27.1892 56.9998 25.2787 56.9998 25.2787C55.7256 24.0556 53.4039 23.499 53.4039 23.499C53.4039 23.499 51.1886 25.1187 51.4513 26.3863C51.6054 27.1294 53.0085 30.8369 53.0085 30.8369C53.0085 30.8369 54.306 31.4509 55.7776 30.5671Z" fill="url(#paint12_linear_5670_8231)"/>
<path d="M57.5409 32.2394C57.2165 31.2621 55.7735 30.5671 55.7735 30.5671C54.3019 31.4509 53.0045 30.8369 53.0045 30.8369C53.0045 30.8369 52.7136 31.9491 52.9144 32.9827C53.1153 34.0163 54.3752 40.659 54.3752 40.659C56.3606 41.0613 59.4141 40.2543 59.4141 40.2543C58.1494 38.0089 57.8654 33.2167 57.5409 32.2394Z" fill="url(#paint13_linear_5670_8231)"/>
<path d="M54.85 21.2666L55.4982 24.1778C55.5602 24.4342 55.3265 24.3923 55.0673 24.3433C54.6428 24.2632 54.0955 24.0984 53.9126 23.7681C53.8939 23.7344 53.8846 23.6964 53.8794 23.6584L53.6011 21.6397C53.579 21.4795 53.6655 21.3242 53.8134 21.2587L54.3507 21.0204C54.5574 20.9285 54.7969 21.0467 54.85 21.2666Z" fill="url(#paint14_linear_5670_8231)"/>
<path d="M56.9987 25.2788C56.9987 25.2788 61.5221 28.5151 57.5771 31.9158C57.5771 31.9158 57.4267 32.0859 57.1307 32.1745C56.9814 32.2192 56.5394 32.5534 56.3153 32.7279C56.2433 32.7839 56.1392 32.7649 56.0908 32.6876C56.0529 32.627 56.0483 32.5511 56.079 32.4865L56.6389 31.3023C56.7944 31.1573 57.0325 31.1469 57.1999 31.2781C57.3068 31.3617 57.4634 31.3266 57.523 31.2048C57.828 30.5837 58.4038 28.7569 56.0469 26.6928C55.9583 26.6151 55.936 26.4868 55.9902 26.3823C56.1561 26.0642 56.5348 25.4325 56.9987 25.2788Z" fill="url(#paint15_linear_5670_8231)"/>
<path d="M54.0845 18.4946C54.0845 18.4946 53.3169 18.8188 52.795 19.9279C52.2731 21.0371 52.6628 21.5493 53.1525 21.6196C53.6422 21.6898 54.3741 21.6791 55.1486 20.9626C55.923 20.2461 55.0824 18.1104 54.0845 18.4946Z" fill="url(#paint16_linear_5670_8231)"/>
<path d="M54.6309 20.3706C54.6309 20.3706 55.2101 18.7478 53.7713 18.7286L53.4327 18.9653C53.4327 18.9653 52.9048 18.0655 53.7713 17.636C54.6378 17.2065 55.6517 17.5614 56.0204 18.7286C56.3892 19.8959 56.4522 20.6774 55.8387 21.2359C55.2252 21.7945 54.9726 21.1611 54.9726 21.1611C54.9726 21.1611 55.3066 20.6386 55.1707 20.3592C55.0347 20.0797 54.7209 20.4169 54.7209 20.4169L54.6309 20.3706Z" fill="url(#paint17_linear_5670_8231)"/>
<path d="M54.793 20.5513C54.793 20.5513 55.0858 19.7155 55.4764 20.0483C55.8669 20.3811 55.1589 20.8204 54.8817 20.9627L54.793 20.5513Z" fill="url(#paint18_linear_5670_8231)"/>
<path d="M47.7073 17.2274C47.6763 17.3262 48.0359 17.4764 48.2475 17.0726C48.2549 16.8791 48.3726 16.0503 48.2571 15.8927C47.6413 15.0533 46.4476 14.001 46.4476 14.001C46.2458 14.2001 46.412 14.3956 46.412 14.3956L46.9912 14.9989C46.87 15.2177 46.7223 15.4024 46.6531 15.6673C46.6006 15.8678 46.6327 16.0821 46.7339 16.2646C46.8355 16.4477 46.9743 16.6858 47.1053 16.8721C47.3534 17.2248 47.7073 17.2274 47.7073 17.2274Z" fill="url(#paint19_linear_5670_8231)"/>
<path d="M47.4149 16.8145C47.3714 16.5715 47.2382 15.908 47.1462 15.7581C47.0821 15.6539 47.0611 15.5671 47.0821 15.4924C47.0997 15.4299 47.1449 15.3808 47.2205 15.3421L47.2525 15.3257L47.8184 15.8053L47.9891 16.264L47.888 16.3017L47.7272 15.8696L47.2393 15.456C47.2104 15.4755 47.1928 15.4972 47.1861 15.5217C47.174 15.5652 47.1914 15.6256 47.2382 15.7016C47.3597 15.8994 47.5147 16.759 47.5212 16.7955L47.4149 16.8145Z" fill="url(#paint20_linear_5670_8231)"/>
<path d="M50.2815 33.8319H28.7952C28.403 33.8319 28.082 33.5109 28.082 33.1188V32.9099C28.082 32.5178 28.4029 32.1968 28.7952 32.1968H50.2815C50.6737 32.1968 50.9947 32.5178 50.9947 32.9099V33.1188C50.9947 33.5111 50.6737 33.8319 50.2815 33.8319Z" fill="white"/>
<path d="M50.2815 37.3119H28.7952C28.403 37.3119 28.082 36.9911 28.082 36.5987V36.3899C28.082 35.9978 28.4029 35.6768 28.7952 35.6768H50.2815C50.6737 35.6768 50.9947 35.9976 50.9947 36.3899V36.5987C50.9947 36.9909 50.6737 37.3119 50.2815 37.3119Z" fill="white"/>
<path d="M50.2815 40.7914H28.7952C28.403 40.7914 28.082 40.4706 28.082 40.0782V39.8694C28.082 39.4773 28.4029 39.1562 28.7952 39.1562H50.2815C50.6737 39.1562 50.9947 39.4771 50.9947 39.8694V40.0782C50.9947 40.4704 50.6737 40.7914 50.2815 40.7914Z" fill="white"/>
<defs>
<linearGradient id="paint0_linear_5670_8231" x1="41.0945" y1="25" x2="41.0945" y2="81.5277" gradientUnits="userSpaceOnUse">
<stop offset="0.276042" stop-color="#18C655" stop-opacity="0"/>
<stop offset="1" stop-color="#18C655"/>
</linearGradient>
<linearGradient id="paint1_linear_5670_8231" x1="21.6875" y1="40.4121" x2="29.8874" y2="40.4121" gradientUnits="userSpaceOnUse">
<stop stop-color="#DAE3FE"/>
<stop offset="1" stop-color="#E9EFFD"/>
</linearGradient>
<linearGradient id="paint2_linear_5670_8231" x1="51.6171" y1="16.1673" x2="62.0333" y2="16.1673" gradientUnits="userSpaceOnUse">
<stop stop-color="#DAE3FE"/>
<stop offset="1" stop-color="#E9EFFD"/>
</linearGradient>
<linearGradient id="paint3_linear_5670_8231" x1="51.4453" y1="33.4645" x2="59.821" y2="33.4645" gradientUnits="userSpaceOnUse">
<stop stop-color="#DAE3FE"/>
<stop offset="1" stop-color="#E9EFFD"/>
</linearGradient>
<linearGradient id="paint4_linear_5670_8231" x1="31.1441" y1="25.2016" x2="48.1607" y2="5.45017" gradientUnits="userSpaceOnUse">
<stop stop-color="#2489FF"/>
<stop offset="1" stop-color="#00862D"/>
</linearGradient>
<linearGradient id="paint5_linear_5670_8231" x1="40.0253" y1="7.78735" x2="40.0253" y2="24.5109" gradientUnits="userSpaceOnUse">
<stop stop-color="#00862D"/>
<stop offset="1" stop-color="#2489FF"/>
</linearGradient>
<linearGradient id="paint6_linear_5670_8231" x1="53.0789" y1="19.0677" x2="60.9235" y2="28.0414" gradientUnits="userSpaceOnUse">
<stop stop-color="#E1473D"/>
<stop offset="1" stop-color="#E9605A"/>
</linearGradient>
<linearGradient id="paint7_linear_5670_8231" x1="53.3333" y1="25.8021" x2="46.2018" y2="14.8672" gradientUnits="userSpaceOnUse">
<stop stop-color="#FEBBBA"/>
<stop offset="1" stop-color="#FF928E"/>
</linearGradient>
<linearGradient id="paint8_linear_5670_8231" x1="61.8438" y1="50.0194" x2="63.643" y2="50.0194" gradientUnits="userSpaceOnUse">
<stop stop-color="#4F52FF"/>
<stop offset="1" stop-color="#4042E2"/>
</linearGradient>
<linearGradient id="paint9_linear_5670_8231" x1="54.2382" y1="57.1143" x2="56.8274" y2="26.8523" gradientUnits="userSpaceOnUse">
<stop stop-color="#FEBBBA"/>
<stop offset="1" stop-color="#FF928E"/>
</linearGradient>
<linearGradient id="paint10_linear_5670_8231" x1="53.4805" y1="49.6908" x2="56.3918" y2="49.6908" gradientUnits="userSpaceOnUse">
<stop stop-color="#4F52FF"/>
<stop offset="1" stop-color="#4042E2"/>
</linearGradient>
<linearGradient id="paint11_linear_5670_8231" x1="59.4469" y1="57.5649" x2="62.0368" y2="27.2949" gradientUnits="userSpaceOnUse">
<stop stop-color="#FEBBBA"/>
<stop offset="1" stop-color="#FF928E"/>
</linearGradient>
<linearGradient id="paint12_linear_5670_8231" x1="54.3056" y1="26.5974" x2="55.6003" y2="38.6093" gradientUnits="userSpaceOnUse">
<stop stop-color="#10923E" stop-opacity="0.62"/>
<stop offset="1" stop-color="#4042E2"/>
</linearGradient>
<linearGradient id="paint13_linear_5670_8231" x1="34.5294" y1="66.7791" x2="55.5693" y2="36.4674" gradientUnits="userSpaceOnUse">
<stop stop-color="#10923E" stop-opacity="0.62"/>
<stop offset="1" stop-color="#10923E" stop-opacity="0.62"/>
</linearGradient>
<linearGradient id="paint14_linear_5670_8231" x1="55.412" y1="28.647" x2="54.1045" y2="20.0892" gradientUnits="userSpaceOnUse">
<stop stop-color="#FEBBBA"/>
<stop offset="1" stop-color="#FF928E"/>
</linearGradient>
<linearGradient id="paint15_linear_5670_8231" x1="55.6278" y1="33.3983" x2="58.4209" y2="25.6131" gradientUnits="userSpaceOnUse">
<stop stop-color="#FEBBBA"/>
<stop offset="1" stop-color="#FF928E"/>
</linearGradient>
<linearGradient id="paint16_linear_5670_8231" x1="52.8504" y1="19.7026" x2="57.3076" y2="21.3072" gradientUnits="userSpaceOnUse">
<stop stop-color="#FEBBBA"/>
<stop offset="1" stop-color="#FF928E"/>
</linearGradient>
<linearGradient id="paint17_linear_5670_8231" x1="54.075" y1="18.1986" x2="61.9196" y2="27.1723" gradientUnits="userSpaceOnUse">
<stop stop-color="#E1473D"/>
<stop offset="1" stop-color="#E9605A"/>
</linearGradient>
<linearGradient id="paint18_linear_5670_8231" x1="52.8691" y1="19.6609" x2="57.3262" y2="21.2655" gradientUnits="userSpaceOnUse">
<stop stop-color="#FEBBBA"/>
<stop offset="1" stop-color="#FF928E"/>
</linearGradient>
<linearGradient id="paint19_linear_5670_8231" x1="53.6783" y1="25.5802" x2="46.5469" y2="14.6453" gradientUnits="userSpaceOnUse">
<stop stop-color="#FEBBBA"/>
<stop offset="1" stop-color="#FF928E"/>
</linearGradient>
<linearGradient id="paint20_linear_5670_8231" x1="52.0924" y1="7.93152" x2="43.0894" y2="23.62" gradientUnits="userSpaceOnUse">
<stop stop-color="#FEBBBA"/>
<stop offset="1" stop-color="#FF928E"/>
</linearGradient>
</defs>
</svg>
