<svg width="83" height="80" viewBox="0 0 83 80" fill="none" xmlns="http://www.w3.org/2000/svg">
<path d="M39.4965 24.2237C39.4965 24.2237 37.1419 29.5489 36.1783 29.0496C35.2146 28.5504 39.2296 23.3049 39.2296 23.3049C39.2296 23.3049 36.2967 18.184 34.4627 17.1681C34.4627 17.1681 34.0151 23.6409 33.2038 22.9199C32.3925 22.1987 32.5454 15.4416 32.5454 15.4416C32.5454 15.4416 28.6243 11.5202 26.0726 13.687C23.5209 15.8537 23.7703 17.9859 24.3216 18.61C24.8728 19.2342 29.182 22.1154 28.6899 22.594C28.1974 23.0723 24.703 21.9766 23.4376 20.3714C23.4376 20.3714 22.1997 25.9741 24.6817 27.3541C27.1641 28.734 28.8768 27.7878 30.3952 28.6685C31.9136 29.5492 32.7007 30.6622 31.7125 30.5545C30.7244 30.447 28.4631 28.5076 26.6176 28.6971C24.7721 28.8867 23.4093 28.8483 25.2675 30.7794C27.1257 32.7106 31.1994 35.1032 33.1199 33.973C33.2038 33.9237 33.2835 33.8768 33.3602 33.8316C33.2188 33.9367 33.1199 33.973 33.1199 33.973C33.3591 34.4802 33.194 36.0019 33.0237 37.1391C32.9832 37.3248 32.9389 37.5897 32.8908 37.9578C32.8625 38.1196 32.8383 38.2516 32.8211 38.3431C32.2717 40.7756 29.6025 43.7926 29.6025 43.7926L29.9792 44.2346C33.2864 41.6182 33.3659 37.6549 33.3659 37.6549C33.6885 34.6907 35.0407 32.8428 35.0407 32.8428C35.0407 32.8428 40.8029 33.3737 41.0355 28.8769C41.0355 28.8766 40.817 25.8673 39.4965 24.2237Z" fill="#DFEBFD"/>
<path d="M56.3953 21.8831C56.3953 21.8831 53.5837 27.5077 50.7276 31.3904C49.5912 32.9356 48.4478 34.2049 47.472 34.7342C46.5166 35.2521 45.708 36.0569 45.039 36.9488C43.3059 39.2578 42.5061 42.1485 42.5061 42.1485L35.2031 31.0999C35.2031 31.0999 35.4523 20.2998 36.3292 18.4932C37.6072 15.8606 38.2246 10.5413 38.7156 9.48229C39.0799 8.69666 40.12 4.63863 40.2198 4.34044C40.2632 4.21201 40.6092 4.01479 41.0586 4.01538C41.4193 4.01538 42.0317 4.36406 42.1861 5.0803C42.967 8.70139 42.0269 11.0896 42.0376 11.1958C42.313 13.9788 41.4849 16.0445 42.0656 16.5916C42.0872 16.612 42.1273 16.6022 42.1843 16.5659C43.1911 15.9193 49.4398 6.80951 50.2094 6.61288C51.0219 6.40533 56.3953 21.8831 56.3953 21.8831Z" fill="#EFA26F"/>
<path d="M44.7039 39.9618C44.7039 39.9618 44.6044 44.8716 44.3198 51.4843H25.8984C30.1091 42.505 33.7701 34.9475 33.7701 34.9475C33.7701 34.9475 44.2589 35.2678 44.7039 39.9618Z" fill="#3378C9"/>
<path d="M62.7806 2.84797L60.5191 6.16349L58.2998 9.417C58.1646 9.58027 58.0078 9.63695 57.8383 9.62071C57.3057 9.57023 56.6467 8.80202 56.1333 8.37688L56.0814 8.33407C55.4041 7.774 55.3087 6.76164 55.8688 6.08495L59.2608 1.9847V1.9844L60.2669 0.768617C60.827 0.0913426 61.8394 -0.00401938 62.5161 0.556046L62.568 0.598855C63.245 1.15833 63.3407 2.1707 62.7806 2.84797Z" fill="#FFB27D"/>
<path d="M60.5167 6.16316L58.2974 9.41668C58.1622 9.57994 58.0054 9.63663 57.8359 9.62039L59.2581 1.98438C59.2613 2.02718 59.5031 5.45341 60.5167 6.16316Z" fill="#EFA26F"/>
<path d="M50.7264 31.3905C49.59 32.9358 48.4466 34.205 47.4708 34.7344C46.5154 35.2522 45.7068 36.057 45.0377 36.949C44.2681 36.5902 43.3906 36.1692 42.533 35.7524C41.4887 35.2448 41.4485 33.7619 42.4715 33.2124C42.4816 33.2071 42.4913 33.2015 42.5011 33.1962C43.4597 32.6476 44.4417 30.7112 44.4417 30.7112L50.7264 31.3905Z" fill="#D38254"/>
<path d="M40.1698 4.5083L39.5781 6.89736C39.5781 6.89736 40.0954 7.10905 40.4275 6.9446C40.76 6.78045 41.031 4.63702 40.1698 4.5083Z" fill="#FFC197"/>
<path d="M57.1873 32.5195H44.4632C43.2117 32.5195 42.1875 31.4956 42.1875 30.2438V2.27569C42.1875 1.02418 43.2114 0 44.4632 0H57.1873C58.4388 0 59.463 1.02388 59.463 2.27569V30.2438C59.4627 31.4953 58.4388 32.5195 57.1873 32.5195Z" fill="#2B478B"/>
<path d="M58.6061 2.49107V29.8111C58.6061 30.7379 57.8532 31.4961 56.9333 31.4961H44.7155C43.7958 31.4961 43.043 30.7379 43.043 29.8111V2.49107C43.043 1.56432 43.7955 0.806152 44.7155 0.806152H56.9333C57.8532 0.806152 58.6061 1.56432 58.6061 2.49107Z" fill="#C0D8FB"/>
<path d="M56.9333 0.806152L44.8666 31.4961H44.7155C43.7958 31.4961 43.043 30.7379 43.043 29.8111V2.49107C43.043 1.56432 43.7955 0.806152 44.7155 0.806152H56.9333Z" fill="#CBE1FD"/>
<path d="M53.3784 1.82196H48.272C47.856 1.82196 47.5156 1.48155 47.5156 1.06556V0.946584C47.5156 0.530595 47.856 0.190186 48.272 0.190186H53.3784C53.7944 0.190186 54.1348 0.530595 54.1348 0.946584V1.06556C54.1345 1.48185 53.7944 1.82196 53.3784 1.82196Z" fill="#2B478B"/>
<path d="M61.6529 15.368L61.3158 15.4962L59.0477 16.358C58.9946 16.378 58.9409 16.3955 58.8871 16.409C58.1361 16.6042 57.3371 16.2038 57.0555 15.4628L57.0221 15.3757C56.7204 14.5815 57.1231 13.6849 57.9173 13.3831L60.0315 12.5798L60.185 12.5214L60.5222 12.3932C61.3163 12.0915 62.2127 12.4942 62.5144 13.2884L62.5478 13.3755C62.8498 14.1694 62.4471 15.0663 61.6529 15.368Z" fill="#FFB27D"/>
<path d="M59.8133 15.42C59.4348 15.5634 58.7496 15.8179 58.3832 15.8705C58.2796 15.8855 58.0885 15.8292 57.9102 15.6337C57.8033 15.5168 57.7009 15.3503 57.625 15.1194C57.5893 15.0108 57.5598 14.9027 57.5474 14.7911C57.5332 14.6606 57.537 14.5298 57.5598 14.4005C57.5804 14.2839 57.6602 14.1779 57.7762 14.1218C57.7765 14.1215 57.7774 14.1215 57.778 14.1209C58.1677 13.9349 58.6929 13.7082 59.1535 13.5815C59.4717 13.4935 59.7938 13.6341 59.8948 13.9128L59.9423 14.043L60.1856 14.7096C60.2863 14.9868 60.1224 15.3033 59.8133 15.42Z" fill="#FFD3B6"/>
<path d="M59.8117 15.4199C59.4332 15.5634 58.748 15.8179 58.3816 15.8705C58.278 15.8855 58.087 15.8291 57.9086 15.6337C57.8894 15.5894 57.872 15.5425 57.8555 15.4923C57.8198 15.3836 57.7902 15.2756 57.7778 15.164C57.7637 15.0335 57.7675 14.9027 57.7902 14.7734C57.8109 14.6568 57.8906 14.5508 58.0066 14.4947C58.0069 14.4944 58.0078 14.4944 58.0084 14.4938C58.3981 14.3078 58.9234 14.081 59.3839 13.9544C59.5879 13.898 59.7931 13.9352 59.9407 14.0427L60.184 14.7093C60.2847 14.9868 60.1208 15.3033 59.8117 15.4199Z" fill="#FFC197"/>
<path d="M60.6221 18.5564L58.8731 19.0326C58.3417 19.1772 57.7884 18.8607 57.6438 18.3293L57.5897 18.1315C57.4451 17.6001 57.7616 17.0468 58.293 16.9021L60.042 16.4259C60.5734 16.2813 61.1267 16.5977 61.2713 17.1292L61.3254 17.327C61.47 17.8587 61.1535 18.4117 60.6221 18.5564Z" fill="#FFB27D"/>
<path d="M59.6754 18.4708C59.3541 18.5568 58.7734 18.7079 58.469 18.7245C58.3583 18.7307 58.1366 18.6371 57.9919 18.346C57.9562 18.2754 57.9261 18.1939 57.9025 18.0994C57.8812 18.0135 57.8653 17.9285 57.8635 17.8423C57.8614 17.7407 57.8744 17.6409 57.9025 17.5429C57.9279 17.4546 58.0011 17.3785 58.1003 17.343C58.1012 17.3427 58.1015 17.3427 58.102 17.3422C58.4354 17.2244 58.8829 17.0838 59.2703 17.0162C59.5378 16.9693 59.7914 17.098 59.854 17.3185L59.8992 17.4762L60.0338 17.9492C60.0958 18.1682 59.9378 18.4012 59.6754 18.4708Z" fill="#FFD3B6"/>
<path d="M59.6758 18.4708C59.3546 18.5567 58.7739 18.7078 58.4695 18.7244C58.3588 18.7306 58.137 18.637 57.9924 18.3459C57.9729 18.2659 57.9587 18.1859 57.9572 18.1047C57.9552 18.0034 57.9679 17.9033 57.9962 17.8053C58.0216 17.7173 58.0948 17.6408 58.194 17.6054C58.1949 17.6051 58.1952 17.6051 58.1958 17.6045C58.5291 17.4867 58.9767 17.3462 59.3641 17.2792C59.5855 17.2402 59.7978 17.322 59.8996 17.4761L60.0342 17.9491C60.0962 18.1681 59.9383 18.4011 59.6758 18.4708Z" fill="#FFC197"/>
<path d="M31.9766 38.6724C31.9766 38.6724 35.5764 42.1202 38.0029 43.4514L39.8402 42.1482V44.0708C39.8402 44.0708 43.4536 44.7097 44.5935 44.0708V38.8283L34.4445 33.7405L31.9766 38.6724Z" fill="#2489FF"/>
<path d="M35.2024 30.7109C35.2024 30.7109 32.9164 34.1307 30.6445 37.7872C30.6445 37.7872 35.4327 41.0811 38.0284 42.0472L41.4334 38.1477L40.9474 42.8419C40.9474 42.8419 43.9606 43.9402 45.3589 43.6535C45.3589 43.6535 45.2706 39.395 45.2715 36.6051C45.2712 36.6048 36.9877 34.283 35.2024 30.7109Z" fill="#F3F8FF"/>
<path d="M35.7656 39.3897C35.7686 39.0767 36.0246 38.8252 36.3375 38.8282C36.6505 38.8311 36.902 39.0871 36.8991 39.4C36.8961 39.713 36.6401 39.9645 36.3272 39.9616C36.0142 39.9589 35.763 39.7026 35.7656 39.3897Z" fill="black"/>
<path d="M61.5967 12.0161C61.5843 12.0205 61.5719 12.0247 61.5589 12.0291L59.2661 12.6178C58.2578 12.877 57.2154 12.3314 56.9491 11.4056L56.8127 10.9314C56.557 10.0428 57.1067 9.11335 58.0435 8.81191L58.8005 8.61735L60.3363 8.22321C61.3445 7.96399 62.387 8.50959 62.653 9.43545L62.7894 9.9096C63.0419 10.7862 62.5104 11.702 61.5967 12.0161Z" fill="#FFB27D"/>
<path d="M60.546 11.376L59.4321 11.8779C59.4303 11.8782 59.4283 11.8788 59.425 11.8796C59.3801 11.8918 59.335 11.9009 59.2904 11.9074C59.2718 11.9104 59.2526 11.9124 59.234 11.9145C59.226 11.9154 59.2184 11.9154 59.2104 11.9148C59.0876 11.9106 59.0034 11.7804 59.0566 11.6644C59.162 11.4353 59.1906 11.1699 59.1195 10.9092L59.0929 10.8121C59.0929 10.8112 59.0926 10.81 59.092 10.8091L59.0058 10.4929C58.9373 10.2408 58.7917 10.03 58.6019 9.87735C58.5792 9.85875 58.5556 9.84133 58.5313 9.8248C58.3111 9.67216 58.3672 9.32703 58.6249 9.25529C58.6273 9.2544 58.6294 9.25411 58.632 9.25322L59.8546 9.0684C60.1569 8.98633 60.4477 9.21897 60.5304 9.521L60.6287 9.88119L60.8377 10.6494C60.9201 10.9517 60.8484 11.2939 60.546 11.376Z" fill="#FFD3B6"/>
<path d="M60.5457 11.3761L59.4318 11.878C59.43 11.8783 59.4279 11.8789 59.4247 11.8798C59.3987 11.8848 59.3169 11.8984 59.21 11.9149C59.0872 11.9108 59.0031 11.7806 59.0562 11.6645C59.1616 11.4354 59.1903 11.17 59.1191 10.9093L59.0925 10.8122C59.0925 10.8113 59.0922 10.8101 59.0917 10.8092L59.0054 10.493C58.937 10.2409 58.7914 10.0301 58.6016 9.87747C58.6408 9.8199 58.6999 9.77414 58.7769 9.75259C58.779 9.7517 58.7814 9.7514 58.784 9.75052L60.0066 9.5657C60.2611 9.49661 60.5073 9.65073 60.6284 9.88131L60.8374 10.6495C60.9198 10.9518 60.848 11.294 60.5457 11.3761Z" fill="#FFC197"/>
<path d="M42.1847 23.9424C42.1847 23.9424 41.6846 19.5758 41.2231 18.7246C40.7616 17.8729 40.371 16.1679 41.0811 14.901C41.7911 13.6336 42.0365 11.1958 42.0365 11.1958C42.3119 13.9787 41.4838 16.0445 42.0645 16.5916C42.0861 16.6119 42.1262 16.6022 42.1832 16.5659L42.1847 23.9424Z" fill="#D38254"/>
<path d="M28.5807 40.1691C28.5807 40.1691 27.7278 37.8379 26.3115 36.8365C26.3115 36.8365 25.6526 41.5812 24.7775 41.4038C23.9021 41.2266 25.8929 36.1698 25.8929 36.1698C25.8929 36.1698 22.4153 32.7823 20.7351 32.3928C20.7351 32.3928 21.8443 37.6147 21.0392 37.2273C20.2347 36.8403 18.8282 31.4605 18.8282 31.4605C18.8282 31.4605 15.8932 29.8299 14.0938 30.813V36.287C15.471 36.8323 17.6009 37.6303 17.3945 37.9897C17.1881 38.3492 15.5109 38.4033 14.0938 38.0177V41.8304C14.4159 42.2411 14.8124 42.5472 15.3001 42.6609C17.5758 43.1914 18.7166 42.0554 20.1169 42.4091C21.5172 42.7625 22.3911 43.4648 21.5854 43.603C20.7794 43.7415 18.5524 42.7185 17.1353 43.2856C15.7178 43.8525 14.6314 44.1303 16.538 45.238C18.4444 46.3457 22.2075 47.3174 23.4714 45.9891C23.4714 45.9891 23.4714 45.9891 23.4717 45.9888C23.5269 45.9309 23.5794 45.8754 23.6296 45.8226C23.6299 45.8223 23.6302 45.822 23.6305 45.8217C23.5419 45.938 23.4714 45.9891 23.4714 45.9891C23.7752 46.3363 23.9889 47.5781 24.1111 48.5163C24.1209 48.6716 24.146 48.8907 24.1906 49.1907C24.2053 49.33 24.2163 49.4428 24.2233 49.5201C24.2564 50.1266 24.1548 50.815 23.9948 51.4841H24.6021C24.7955 49.9775 24.4991 48.8511 24.4979 48.8464V48.8461C24.0831 46.4284 24.735 44.6608 24.735 44.6608C24.7456 44.6594 29.4124 43.7748 28.5807 40.1691Z" fill="#E1EEFB"/>
<path d="M67.6016 35.9989C66.801 33.0427 61.8126 33.9665 61.8126 33.9665C61.8126 33.9665 58.4254 39.1396 57.4399 39.263C56.4544 39.3865 59.4723 34.2744 59.4723 34.2744C57.563 34.0896 52.6978 36.4299 52.6978 36.4299C52.6978 36.4299 53.0057 42.4655 52.0202 42.3424C51.0347 42.2193 52.0202 36.9844 52.0202 36.9844C50.1726 37.5386 48.4481 39.6944 48.4481 39.6944C46.2926 43.2048 50.9116 45.7913 50.9116 45.7913C50.9116 45.7913 50.9733 47.8851 49.6799 50.2872C49.6799 50.2872 49.3879 50.7306 49.0912 51.4844H49.5948C49.6359 51.3492 49.6813 51.2187 49.7315 51.0935C49.7315 51.0926 49.7318 51.092 49.7324 51.0911C49.733 51.0894 49.7339 51.0876 49.7348 51.0858C49.7693 51.0079 49.8189 50.8972 49.8806 50.7622C49.8806 50.7619 49.8806 50.7619 49.8809 50.7616C49.8809 50.7613 49.8812 50.7613 49.8812 50.7611C50.035 50.4599 50.139 50.2373 50.2048 50.0767C50.2051 50.0761 50.2051 50.0758 50.2054 50.0752C50.6665 49.1296 51.3308 47.8975 51.7737 47.6389C51.7737 47.6389 51.7179 47.5604 51.6659 47.4078C51.7002 47.4816 51.7362 47.5583 51.7737 47.6389C52.6358 49.4865 56.9471 49.7944 59.3489 49.3017C61.7506 48.8089 60.7037 48.1317 59.4103 47.0319C58.1169 45.9324 55.4072 46.2224 54.6065 45.791C53.8058 45.36 54.9761 44.9289 56.5772 45.0521C58.1786 45.1752 58.9789 46.7765 61.5658 47.0228C64.1524 47.269 66.1231 42.4038 66.1231 42.4038C64.3372 42.9579 61.1345 41.9727 61.0114 41.3569C60.8882 40.741 65.6303 40.8027 66.3693 40.6179C67.1092 40.4331 68.4023 38.9551 67.6016 35.9989Z" fill="#DFEBFD"/>
<path d="M82.189 38.8763C82.189 61.5721 63.7904 79.9708 41.0945 79.9708C18.3986 79.9708 0 61.5721 0 38.8763C0 1.57004 21.5501 43.6244 44.246 43.6244C66.9419 43.6244 82.189 16.1804 82.189 38.8763Z" fill="url(#paint0_linear_5670_8233)" fill-opacity="0.62"/>
<defs>
<linearGradient id="paint0_linear_5670_8233" x1="41.0945" y1="23.4431" x2="41.0945" y2="79.9708" gradientUnits="userSpaceOnUse">
<stop offset="0.276042" stop-color="#18C655" stop-opacity="0"/>
<stop offset="1" stop-color="#18C655"/>
</linearGradient>
</defs>
</svg>
