<svg width="272" height="191" viewBox="0 0 272 191" fill="none" xmlns="http://www.w3.org/2000/svg">
<path opacity="0.3" d="M239.046 32.9278C239.046 32.9278 235.32 14.7113 222.898 15.9566C217.248 16.5242 213.473 19.3535 210.199 23.7492C205.997 29.3901 204.492 26.112 198.477 27.9645C193.096 29.6189 193.923 34.173 190.61 35.0003C187.297 35.8275 184.815 32.1006 180.261 32.9322C175.707 33.7594 173.225 38.3135 173.225 38.3135H256.022C256.022 38.3135 255.608 33.3458 250.227 31.6914C244.841 30.0325 242.36 34.173 239.046 32.9278Z" stroke="black" stroke-miterlimit="10"/>
<path opacity="0.3" d="M43.4487 31.7218C43.4487 31.7218 41.099 20.2243 33.258 21.0075C29.6939 21.3639 27.3091 23.1504 25.241 25.9268C22.5878 29.4865 21.6417 27.4185 17.8444 28.5845C14.4475 29.6317 14.9712 32.505 12.8811 33.0242C10.7911 33.5478 9.22461 31.1938 6.35134 31.7174C3.47806 32.241 1.91162 35.1143 1.91162 35.1143H54.1586C54.1586 35.1143 53.899 31.977 50.5021 30.9342C47.1052 29.8913 45.5388 32.505 43.4487 31.7218Z" stroke="black" stroke-miterlimit="10"/>
<path opacity="0.3" d="M175.812 148.656C175.812 148.656 173.749 138.557 166.863 139.248C163.73 139.561 161.64 141.132 159.822 143.569C157.495 146.698 156.659 144.88 153.323 145.906C150.34 146.825 150.798 149.347 148.963 149.809C147.128 150.266 145.751 148.202 143.225 148.66C140.7 149.118 139.322 151.643 139.322 151.643H185.215C185.215 151.643 184.987 148.889 182.003 147.974C179.025 147.05 177.647 149.347 175.812 148.656Z" stroke="black" stroke-miterlimit="10"/>
<path opacity="0.3" d="M66.2275 130.909C66.2275 130.909 64.1638 120.811 57.2776 121.502C54.1447 121.814 52.0547 123.385 50.2374 125.823C47.9098 128.951 47.0738 127.134 43.7385 128.159C40.7552 129.079 41.2128 131.6 39.378 132.062C37.5431 132.52 36.1659 130.456 33.6402 130.914C31.1145 131.371 29.7373 133.897 29.7373 133.897H75.6305C75.6305 133.897 75.4017 131.142 72.4184 130.227C69.4395 129.303 68.0623 131.6 66.2275 130.909Z" stroke="black" stroke-miterlimit="10"/>
<path d="M219.583 46.2343L228.63 52.9356L165.299 91.4718L153.907 112.918L81.1908 139.723L5.48242 189.674H49.9984L97.612 153.799L169.99 127.324L182.723 103.867L243.709 61.9823L256.443 71.7021L270.853 36.5144V32.4751L219.583 46.2343Z" fill="#263238" stroke="#263238" stroke-miterlimit="10" stroke-linecap="round" stroke-linejoin="round"/>
<path d="M219.585 42.1906L228.631 48.8919L165.3 87.4281L153.908 108.874L81.1921 135.68L1 189.674H45.494L97.6133 149.756L169.991 123.285L182.725 99.8277L243.71 57.9386L256.444 67.6584L270.855 32.4751L219.585 42.1906Z" fill="white" stroke="#263238" stroke-miterlimit="10" stroke-linecap="round" stroke-linejoin="round"/>
<path d="M165.494 119.024L166.977 120.265" stroke="#263238" stroke-miterlimit="10" stroke-linecap="round" stroke-linejoin="round"/>
<path d="M156.588 111.554L163.651 117.481" stroke="#263238" stroke-miterlimit="10" stroke-linecap="round" stroke-linejoin="round"/>
<path d="M167.98 88.4346L172.675 91.7831" stroke="#263238" stroke-miterlimit="10" stroke-linecap="round" stroke-linejoin="round"/>
<path d="M95.2676 148.414L81.8076 138.958" stroke="#263238" stroke-miterlimit="10" stroke-linecap="round" stroke-linejoin="round"/>
<path d="M219.585 46.2336V42.1899L228.632 48.8913L225.653 50.7394L219.585 46.2336Z" fill="white" stroke="#263238" stroke-miterlimit="10" stroke-linecap="round" stroke-linejoin="round"/>
<path d="M256.445 71.702V67.6583L243.711 57.9385V61.9822L256.445 71.702Z" fill="white" stroke="#263238" stroke-miterlimit="10"/>
<path d="M103.035 65.907L100.408 70.8703C100.408 70.8703 101.042 71.7108 101.293 71.5744C101.539 71.438 102.833 69.1895 102.833 69.1895L101.794 73.0308C101.794 73.0308 102.208 73.6952 102.472 73.4048C102.731 73.1144 103.677 70.3643 103.915 70.3071C104.157 70.2499 104.712 69.2731 104.712 69.2731L103.735 72.4104C103.735 72.4104 103.374 73.8712 104.012 73.77C104.65 73.6688 104.694 72.2564 104.694 72.2564L106.054 70.1707L105.548 72.406C105.548 72.406 106.436 73.0308 106.564 72.494C106.687 71.9528 107.18 69.8759 107.18 69.8759C107.18 69.8759 109.371 67.2358 109.631 66.941C109.89 66.6506 111.188 63.4561 111.188 63.4561L109.226 60.6929L103.035 65.907Z" fill="white" stroke="#3962D1" stroke-miterlimit="10" stroke-linecap="round" stroke-linejoin="round"/>
<path d="M108.856 61.2959L103.629 62.6555C103.629 62.6555 102.04 66.5276 101.587 67.1964C101.138 67.8653 101.675 67.9885 102.489 67.6673C103.303 67.3461 104.72 65.498 104.72 65.498C104.72 65.498 107.202 65.8676 108.025 64.5256" fill="white"/>
<path d="M108.856 61.2959L103.629 62.6555C103.629 62.6555 102.04 66.5276 101.587 67.1964C101.138 67.8653 101.675 67.9885 102.489 67.6673C103.303 67.3461 104.72 65.498 104.72 65.498C104.72 65.498 107.202 65.8676 108.025 64.5256" stroke="#3962D1" stroke-miterlimit="10" stroke-linecap="round" stroke-linejoin="round"/>
<path d="M104.135 67.729L106.384 69.0226" stroke="#3962D1" stroke-miterlimit="10" stroke-linecap="round" stroke-linejoin="round"/>
<path d="M140.942 18.3758L151.814 46.1229L152.773 49.1282C152.773 49.1282 142.306 53.5019 140.132 53.8495C137.958 54.1971 137.131 54.4875 137.131 54.4875L126.175 27.0264L129.893 21.1082L138.79 17.3857L140.942 18.3758Z" fill="white" stroke="#3962D1" stroke-miterlimit="10" stroke-linecap="round" stroke-linejoin="round"/>
<path d="M141.003 32.9399L146.121 49.0488" stroke="#3962D1" stroke-miterlimit="10" stroke-linecap="round" stroke-linejoin="round"/>
<path d="M138.143 110.466C138.143 110.466 137.8 113.55 137.461 114.769C137.123 115.988 136.058 119.323 136.216 120.194C136.375 121.066 137.224 124.797 137.743 125.079C138.262 125.356 139.037 125.422 139.459 125.07C139.877 124.718 142.029 120.538 142.231 119.077C142.434 117.616 142.297 112.851 142.332 112.463C142.368 112.072 138.143 110.466 138.143 110.466Z" fill="#3962D1" stroke="#3962D1" stroke-miterlimit="10" stroke-linecap="round" stroke-linejoin="round"/>
<path d="M184.014 83.2383C184.014 83.2383 187.534 84.8619 188.001 84.9059C188.467 84.9499 192.48 85.3679 192.48 85.3679C192.48 85.3679 195.807 84.7167 196.33 84.9983C196.849 85.2755 196.669 86.5076 196.669 86.5076C196.669 86.5076 189.976 90.0629 189.022 90.2917C188.067 90.5205 186.936 90.1113 186.294 90.2917C185.656 90.4721 185.656 90.4721 185.656 90.4721L186.197 91.4533L182.197 93.605C182.197 93.605 180.424 91.5853 180.367 90.4105C180.309 89.2356 180.252 87.2072 180.252 87.2072L179.676 84.8223L184.014 83.2383Z" fill="#3962D1" stroke="#3962D1" stroke-miterlimit="10" stroke-linecap="round" stroke-linejoin="round"/>
<path d="M140.023 17.7255C140.023 17.7255 147.525 36.8132 148.92 39.7525C150.319 42.6918 151.595 46.2382 152.686 47.1579C153.778 48.0775 149.875 37.4248 149.505 35.3304C149.136 33.2359 149.193 29.3198 149.193 29.3198L182.066 18.0379L180.834 13.9458L153.39 17.2327C153.39 17.2327 147.802 16.6167 146.632 16.6519C145.461 16.6959 140.023 17.7255 140.023 17.7255Z" fill="#40A865" stroke="#3962D1" stroke-miterlimit="10" stroke-linecap="round" stroke-linejoin="round"/>
<path d="M142.518 17.2729C141.167 17.5106 140.019 17.7262 140.019 17.7262C140.019 17.7262 145.255 31.0541 147.794 37.1527C147.604 34.4466 147.178 30.2489 146.249 26.7376C145.175 22.6587 143.424 19.0154 142.518 17.2729Z" fill="#40A865" stroke="#3962D1" stroke-miterlimit="10" stroke-linecap="round" stroke-linejoin="round"/>
<path d="M150.2 20.814L149.192 29.3238L151.815 21.2276" stroke="#3962D1" stroke-miterlimit="10" stroke-linecap="round" stroke-linejoin="round"/>
<path d="M180.837 13.9501L182.857 13.6421L183.653 17.2194L182.069 18.0466L180.837 13.9501Z" fill="white" stroke="#3962D1" stroke-miterlimit="10" stroke-linecap="round" stroke-linejoin="round"/>
<path d="M190.099 12.6123C190.099 12.6123 191.793 12.8939 191.758 13.3031C191.723 13.7123 191.12 15.93 191.12 15.93C191.12 15.93 189.712 16.2908 188.643 15.9256C187.574 15.5604 187.23 14.7728 187.499 14.0379C187.767 13.3075 190.099 12.6123 190.099 12.6123Z" fill="white" stroke="#3962D1" stroke-miterlimit="10" stroke-linecap="round" stroke-linejoin="round"/>
<path d="M188.863 13.4004L190.262 13.9328L190.112 15.6401" stroke="#3962D1" stroke-miterlimit="10" stroke-linecap="round" stroke-linejoin="round"/>
<path d="M188.348 13.7705L189.175 14.5273C189.175 14.5273 189.277 14.9497 189.193 15.1477" stroke="#3962D1" stroke-miterlimit="10" stroke-linecap="round" stroke-linejoin="round"/>
<path d="M182.857 13.6411L188.12 12.4399C188.12 12.4399 193.184 10.3278 193.365 10.6182C193.545 10.9086 193.585 11.2563 193.29 11.5071C192.995 11.7579 189.304 13.0911 188.864 13.3991C188.424 13.7071 188.155 14.4375 188.468 14.8116C188.78 15.1856 189.352 15.7136 190.118 15.6388C190.879 15.5684 192.758 15.3132 192.802 15.5948C192.846 15.872 193.022 16.2328 192.384 16.4528C191.746 16.6728 190.72 16.5848 190.232 16.6816C189.744 16.7784 187.768 17.3636 187.016 17.302C186.263 17.236 184.996 16.7872 184.996 16.7872L183.654 17.2228L182.857 13.6411Z" fill="white" stroke="#3962D1" stroke-miterlimit="10" stroke-linecap="round" stroke-linejoin="round"/>
<path d="M151.187 46.1811C151.187 46.1811 156.687 56.8734 157.118 56.8822C157.549 56.891 162.526 53.1377 162.662 52.9661C162.794 52.7945 156.027 48.9268 154.117 46.9379C152.208 44.9491 150.522 42.7446 150.522 42.7446L151.187 46.1811Z" fill="#40A865" stroke="#3962D1" stroke-miterlimit="10" stroke-linecap="round" stroke-linejoin="round"/>
<path d="M152.774 49.1284L155.414 53.7309C155.414 53.7309 169.213 52.1425 173.886 51.8301C178.559 51.5177 180.209 52.0149 180.209 52.0149L184.86 83.2249L177.432 86.5162L170.502 63.1472C170.502 63.1472 155.049 67.3625 152.796 67.6133C150.543 67.8685 149.439 68.2205 149.439 68.2205C149.439 68.2205 145.184 97.0589 144.854 100.874C144.528 104.684 144.555 111.654 144.555 111.654L142.416 113.705C142.416 113.705 137.805 111.254 137.567 110.88C137.33 110.501 135.006 75.1155 135.006 75.1155L134.135 61.2859L137.127 54.4878L152.774 49.1284Z" fill="#40A865" stroke="#3962D1" stroke-miterlimit="10" stroke-linecap="round" stroke-linejoin="round"/>
<path d="M138.839 55.4338L153.425 50.4133L152.774 49.1284L138.632 53.9333L138.839 55.4338Z" fill="#3962D1" stroke="#3962D1" stroke-miterlimit="10" stroke-linecap="round" stroke-linejoin="round"/>
<path d="M144.969 51.7558L145.651 53.3882L148.921 52.231L148.305 50.6646L144.969 51.7558Z" fill="white" stroke="#3962D1" stroke-miterlimit="10" stroke-linecap="round" stroke-linejoin="round"/>
<path d="M141.875 81.9715L141.844 80.1982" stroke="#3962D1" stroke-miterlimit="10" stroke-linecap="round" stroke-linejoin="round"/>
<path d="M142.422 113.705L141.907 83.8369" stroke="#3962D1" stroke-miterlimit="10" stroke-linecap="round" stroke-linejoin="round"/>
<path d="M149.443 68.222C149.443 68.222 150.293 62.2774 152.061 58.7617" stroke="#3962D1" stroke-miterlimit="10" stroke-linecap="round" stroke-linejoin="round"/>
<path d="M152.924 56.0122C152.924 56.0122 150.368 60.1923 149.976 61.1031" stroke="#3962D1" stroke-miterlimit="10" stroke-linecap="round" stroke-linejoin="round"/>
<path d="M175.189 61.6748L176.461 61.2744" stroke="#3962D1" stroke-miterlimit="10" stroke-linecap="round" stroke-linejoin="round"/>
<path d="M170.507 63.1532L173.878 62.0884" stroke="#3962D1" stroke-miterlimit="10" stroke-linecap="round" stroke-linejoin="round"/>
<path d="M136.66 28.4573L140.396 30.8201L141.571 25.3332L137.355 24.0308L136.66 28.4573Z" fill="#3962D1" stroke="#3962D1" stroke-miterlimit="10" stroke-linecap="round" stroke-linejoin="round"/>
<path d="M138.343 26.2085L135.157 33.2047L130.929 21.9052L140.024 17.7251L145.031 27.2029L138.343 26.2085Z" fill="white" stroke="#3962D1" stroke-miterlimit="10" stroke-linecap="round" stroke-linejoin="round"/>
<path d="M110.176 59.4873L108.451 61.2913L111.197 64.3758L112.086 62.981L110.176 59.4873Z" stroke="#3962D1" stroke-miterlimit="10" stroke-linecap="round" stroke-linejoin="round"/>
<path d="M129.892 21.1098L119.517 29.272L118.47 50.6654L109.652 59.9012L112.226 63.8217L124.973 53.7411L126.702 41.5571L129.118 48.5093L126.324 65.5026C126.324 65.5026 129.29 66.6994 132.22 67.4254C135.146 68.147 138.886 67.6806 138.886 67.6806L139.533 47.2773L131.34 20.7666L129.892 21.1098Z" fill="#40A865" stroke="#3962D1" stroke-miterlimit="10" stroke-linecap="round" stroke-linejoin="round"/>
<path d="M130.307 51.7778L137.796 52.4995V55.3815L130.162 54.2287" fill="#40A865"/>
<path d="M130.307 51.7778L137.796 52.4995V55.3815L130.162 54.2287" stroke="#3962D1" stroke-miterlimit="10" stroke-linecap="round" stroke-linejoin="round"/>
<path d="M131.34 20.7617L129.892 21.1093L127.991 22.601C128.458 24.3654 129.558 28.1319 131.384 32.1712C132.972 35.6913 135.991 39.7702 137.997 42.2959L131.34 20.7617Z" fill="#40A865" stroke="#3962D1" stroke-miterlimit="10" stroke-linecap="round" stroke-linejoin="round"/>
<path d="M140.395 30.8208L133.099 36.9634L119.56 35.1725L113.149 40.2106L111.768 43.4755L117.281 44.3424L122.482 38.7278C122.482 38.7278 132.941 40.6463 133.509 40.4571C134.076 40.2678 139.686 32.6468 139.686 32.6468L140.395 30.8208Z" fill="#3962D1" stroke="#3962D1" stroke-miterlimit="10" stroke-linecap="round" stroke-linejoin="round"/>
<path d="M125.036 7.06356C125.036 7.06356 123.153 7.60038 122.29 6.47835C121.428 5.35632 120.852 3.90868 121.617 4.14629C122.383 4.38829 123.461 5.09231 123.461 5.09231C123.461 5.09231 123.162 2.44344 123.787 2.32464C124.407 2.20144 124.658 3.35867 124.658 3.35867C124.658 3.35867 127.359 1.40502 130.36 1.04861C133.361 0.692196 137.849 2.39064 138.492 3.05506C139.134 3.71948 138.707 9.71683 138.584 10.1436C138.461 10.5705 138.197 11.5957 137.735 11.9081C137.273 12.2161 136.186 12.6473 135.614 12.1633C135.042 11.6793 135.104 10.9841 134.07 10.8081C133.036 10.6321 130.505 10.5881 130.334 9.52763C130.162 8.4628 131.289 6.54875 130.241 6.54875C129.194 6.54435 126.581 7.45957 125.877 7.48597C125.173 7.51237 125.036 7.06356 125.036 7.06356Z" fill="#3962D1" stroke="#3962D1" stroke-miterlimit="10" stroke-linecap="round" stroke-linejoin="round"/>
<path d="M125.037 7.0651L125.019 12.3936L126.123 13.7973L125.692 18.831L127.892 18.6682C127.892 18.6682 129.358 22.9891 129.784 23.1123C130.211 23.2355 132.059 22.0827 132.059 22.0827C132.059 22.0827 138.065 26.4432 138.347 26.2056C138.629 25.968 139.795 18.4658 139.993 18.2194C140.191 17.973 139.126 14.0393 139.126 14.0393C139.126 14.0393 139.975 12.2748 139.742 10.946C139.504 9.61277 139.082 9.48956 139.082 9.48956C139.082 9.48956 138.167 8.97475 137.859 9.47196C137.555 9.96918 136.631 11.5532 136.631 11.5532L135.289 9.86357C135.289 9.86357 131.47 9.53796 131.518 9.01435C131.562 8.49514 132.402 5.85507 132.16 5.57346C131.918 5.29625 127.355 5.51626 125.037 7.0651Z" fill="white" stroke="#3962D1" stroke-miterlimit="10" stroke-linecap="round" stroke-linejoin="round"/>
<path d="M130.208 13.3856C130.384 13.8256 130.353 14.2524 130.133 14.3448C129.913 14.4328 129.592 14.1468 129.411 13.7068C129.235 13.2668 129.266 12.84 129.486 12.7476C129.706 12.664 130.027 12.9456 130.208 13.3856Z" fill="#3962D1"/>
<path d="M127.06 12.8809C127.06 12.8809 128.34 15.5782 129.111 15.7894C129.885 16.0006 132.081 15.5386 132.362 14.773C132.644 14.0074 131.869 11.2793 131.869 11.2793L127.06 12.8809Z" stroke="#3962D1" stroke-miterlimit="10" stroke-linecap="round" stroke-linejoin="round"/>
<path d="M131.869 11.2831L137.853 9.47461" stroke="#3962D1" stroke-miterlimit="10" stroke-linecap="round" stroke-linejoin="round"/>
<path d="M127.06 12.8809L123.263 14.4253C123.263 14.4253 124.121 16.1501 125.577 15.9169" stroke="#3962D1" stroke-miterlimit="10" stroke-linecap="round" stroke-linejoin="round"/>
<path d="M130.493 18.1341C130.493 18.1341 132.6 17.8833 133.049 15.9824" stroke="#3962D1" stroke-miterlimit="10" stroke-linecap="round" stroke-linejoin="round"/>
<path d="M132.054 22.0862C132.054 22.0862 135.227 19.9037 135.614 19.5781C136.001 19.2525 136.393 18.0645 136.393 18.0645C136.393 18.0645 135.94 21.6901 135.658 22.4558C135.376 23.2214 135.02 24.053 135.02 24.053L132.054 22.0862Z" fill="#3962D1" stroke="#3962D1" stroke-miterlimit="10" stroke-linecap="round" stroke-linejoin="round"/>
<path d="M139.12 14.0439C139.12 14.0439 138.632 15.386 137.835 15.4608" stroke="#3962D1" stroke-miterlimit="10" stroke-linecap="round" stroke-linejoin="round"/>
<path d="M128.24 11.6899C128.24 11.6899 128.997 10.3874 130.691 10.7482" stroke="#3962D1" stroke-miterlimit="10" stroke-linecap="round" stroke-linejoin="round"/>
<path d="M91.4707 74.4448L92.4563 71.8883L94.4848 69.9742C94.4848 69.9742 95.1888 68.6938 95.6156 68.9534C96.0424 69.213 95.7916 69.4902 95.6024 69.9962C95.4088 70.5023 94.432 71.4615 94.432 71.4615C94.432 71.4615 98.3833 68.8214 98.6121 68.7642C98.8409 68.7114 99.4745 69.1382 99.1401 69.5562C98.8057 69.9742 96.1216 71.7563 96.1216 71.7563L100.46 69.8202C100.46 69.8202 100.808 70.9687 100.341 71.2239C99.8705 71.4835 97.4197 73.1335 97.4197 73.1335C97.4197 73.1335 99.3249 72.6275 99.8705 72.3767C100.412 72.1259 100.641 72.9663 100.245 73.2303C99.8485 73.4943 97.4109 74.9992 97.4109 74.9992C97.4109 74.9992 99.7693 74.458 99.6681 74.744C99.5669 75.0344 99.6241 75.2632 98.9377 75.426C98.2513 75.5888 95.5364 76.8472 95.5364 76.8472L91.7919 77.9429L91.4707 74.4448Z" fill="white" stroke="#3962D1" stroke-miterlimit="10" stroke-linecap="round" stroke-linejoin="round"/>
<path d="M90.103 75.3434L91.4715 74.4458L93.1083 78.0011L91.1591 79.2199L90.103 75.3434Z" fill="white" stroke="#3962D1" stroke-miterlimit="10" stroke-linecap="round" stroke-linejoin="round"/>
<path d="M38.7666 107.966C38.7666 107.966 39.1538 112.639 39.1142 113.106C39.0746 113.572 41.0899 115.711 41.6135 116.071C42.1327 116.432 43.9895 115.882 43.9895 115.882C43.9895 115.882 46.0312 113.15 45.864 112.349C45.6968 111.548 45.1776 111.192 45.1776 111.192L42.6607 108.829L41.8423 107.839L38.7666 107.966Z" fill="white" stroke="#3962D1" stroke-miterlimit="10" stroke-linecap="round" stroke-linejoin="round"/>
<path d="M42.3177 113.302L41.2749 114.473C41.2749 114.473 41.7589 115.221 42.2429 115.106C42.7225 114.992 42.7225 114.992 42.7225 114.992" stroke="#3962D1" stroke-miterlimit="10" stroke-linecap="round" stroke-linejoin="round"/>
<path d="M41.8424 107.839C41.8424 107.839 44.4693 110.189 45.0061 110.391C45.5385 110.593 45.7893 111.324 45.6925 111.548C45.5957 111.777 43.5541 113.568 43.0524 113.915C42.5508 114.267 42.102 113.99 42.3176 113.304C42.5332 112.613 43.0172 111.557 43.0172 111.557C43.0172 111.557 41.9876 111.627 41.7456 110.818" fill="white"/>
<path d="M41.8424 107.839C41.8424 107.839 44.4693 110.189 45.0061 110.391C45.5385 110.593 45.7893 111.324 45.6925 111.548C45.5957 111.777 43.5541 113.568 43.0524 113.915C42.5508 114.267 42.102 113.99 42.3176 113.304C42.5332 112.613 43.0172 111.557 43.0172 111.557C43.0172 111.557 41.9876 111.627 41.7456 110.818" stroke="#3962D1" stroke-miterlimit="10" stroke-linecap="round" stroke-linejoin="round"/>
<path d="M38.5547 105.826L38.7659 107.964C38.7659 107.964 39.8835 108.69 40.6755 108.598C41.4676 108.51 42.4664 107.885 42.4664 107.885L43.1088 106.411L38.5547 105.826Z" fill="white" stroke="#3962D1" stroke-miterlimit="10" stroke-linecap="round" stroke-linejoin="round"/>
<path d="M82.8517 137.974C82.8517 137.974 81.3688 143.289 81.3556 144.394C81.338 145.498 81.6856 147.892 81.6856 147.892C81.6856 147.892 82.1212 148.323 83.2389 148.182C84.3565 148.042 85.2497 147.725 85.5049 147.509C85.7602 147.294 85.7293 145.793 85.7293 145.793C85.7293 145.793 86.8206 145.965 87.595 146.11C88.3694 146.255 90.9083 145.212 91.8939 144.741C92.8795 144.275 94.7232 143.012 94.9696 142.009C95.2116 141.006 94.5428 140.553 94.2304 140.526C93.918 140.5 90.0547 140.482 89.1966 140.333C88.343 140.179 86.891 138.713 86.8294 138.471C86.7766 138.229 82.8517 137.974 82.8517 137.974Z" fill="#3962D1" stroke="#3962D1" stroke-miterlimit="10" stroke-linecap="round" stroke-linejoin="round"/>
<path d="M62.0255 159.148L62.2103 161.607C62.2103 161.607 63.988 163.891 64.516 164.173C65.044 164.454 66.2276 164.476 66.32 165.193C66.4168 165.911 66.6236 166.245 66.0472 166.513C65.4708 166.782 63.1915 167.609 62.3247 167.613C61.4579 167.618 59.8606 166.927 59.8606 166.927L59.623 167.856C59.623 167.856 59.0466 168.124 58.0214 168.111C56.9962 168.102 56.1557 167.794 56.1557 167.794C56.1557 167.794 55.7773 165.787 55.9489 164.701C56.1205 163.609 56.8378 160.754 56.8378 160.754L57.4494 158.202L62.0255 159.148Z" fill="#3962D1" stroke="#3962D1" stroke-miterlimit="10" stroke-linecap="round" stroke-linejoin="round"/>
<path d="M52.7534 108.93L54.7555 113.11L60.3348 133.319L56.9863 158.66C56.9863 158.66 58.2404 159.632 59.2524 159.72C60.2644 159.808 62.7989 159.632 62.7989 159.632L68.7082 132.862L69.6983 113.057L85.1339 113.673L82.0362 138.617C82.0362 138.617 83.959 139.097 84.6631 139.158C85.3671 139.22 87.9147 138.806 87.9147 138.806C87.9147 138.806 95.1573 107.693 95.3729 107.007C95.5885 106.316 95.5313 106.078 95.3289 105.665C95.1265 105.255 77.4117 100.987 77.4117 100.987C77.4117 100.987 56.6563 109.264 52.7534 108.93Z" fill="#40A865" stroke="#3962D1" stroke-miterlimit="10" stroke-linecap="round" stroke-linejoin="round"/>
<path d="M69.6943 113.052L60.8413 112.467L69.3027 118.693L69.6943 113.052Z" fill="#3962D1" stroke="#3962D1" stroke-miterlimit="10" stroke-linecap="round" stroke-linejoin="round"/>
<path d="M52.7799 67.898C52.7799 67.898 47.5217 71.0485 47.1521 72.1265C46.7825 73.2045 39.5443 90.871 39.4783 91.6058C39.4167 92.3407 38.0967 106.637 38.0967 106.637C38.0967 106.637 39.2583 107.107 40.3583 107.2C41.4584 107.292 43.104 106.421 43.104 106.421L46.3249 91.4562L52.1022 84.3764L53.7831 90.6158L49.7482 109.664C49.7482 109.664 56.5068 111.626 63.6041 109.651C70.7015 107.671 78.7625 100.881 78.7625 100.881C78.7625 100.881 74.622 93.1371 73.4648 91.5618C72.3076 89.9866 71.3396 88.3321 71.3396 88.3321L71.4407 85.0145C71.4407 85.0145 77.5305 91.5398 78.1949 91.3198C78.8593 91.0998 91.8881 79.1931 91.8881 79.1931L90.0928 75.343L78.2345 81.16C78.2345 81.16 72.2812 67.6252 71.0315 67.15C69.7775 66.6748 67.0362 66.3448 67.0362 66.3448C67.0362 66.3448 58.5352 64.3295 52.7799 67.898Z" fill="#40A865" stroke="#3962D1" stroke-miterlimit="10" stroke-linecap="round" stroke-linejoin="round"/>
<path d="M61.4222 44.6301C61.4222 44.6301 62.0822 45.3341 62.7686 46.6234C63.4506 47.9082 63.6222 49.2943 64.6607 49.8179C65.6991 50.3415 67.1511 50.2491 67.1071 50.7507C67.0631 51.2523 66.2491 52.3347 66.2491 52.3347C66.2491 52.3347 67.4503 56.8404 67.1687 57.6105C66.8871 58.3805 63.3494 60.0965 63.3494 60.0965L63.3626 64.1402L58.1309 64.5583C58.1309 64.5583 56.5865 60.6729 55.9748 57.7337C55.3588 54.7944 58.2497 53.096 58.1837 49.6243C58.1221 46.157 58.7161 44.2561 59.4509 44.1065C60.1858 43.9437 61.4222 44.6301 61.4222 44.6301Z" fill="white" stroke="#3962D1" stroke-miterlimit="10" stroke-linecap="round" stroke-linejoin="round"/>
<path d="M63.6706 49.9108C63.8466 50.3552 63.8246 50.7776 63.6222 50.8568C63.4198 50.936 63.1118 50.6456 62.9358 50.2012C62.7598 49.7568 62.7818 49.3344 62.9842 49.2552C63.1866 49.176 63.4946 49.4664 63.6706 49.9108Z" fill="#3962D1"/>
<path d="M62.2148 48.8803C62.2148 48.8803 62.1444 48.0091 62.9936 48.2247" stroke="#3962D1" stroke-miterlimit="10" stroke-linecap="round" stroke-linejoin="round"/>
<path d="M66.6678 54.1699C66.6678 54.1699 66.1838 54.7771 65.2686 54.4823" stroke="#3962D1" stroke-miterlimit="10" stroke-linecap="round" stroke-linejoin="round"/>
<path d="M60.7054 46.2982C60.7054 46.2982 61.8582 48.8503 61.273 50.6059C60.6878 52.3616 59.7021 53.7916 59.7021 53.7916C59.7021 53.7916 58.5449 55.4945 58.7385 56.5945C58.9321 57.6945 60.0938 61.835 60.4326 62.077C60.7714 62.3234 60.7714 62.3234 60.7714 62.3234L61.4974 63.1067C61.4974 63.1067 57.6869 65.4519 53.5332 65.9579C49.3751 66.4683 46.6514 65.4387 46.1014 65.1043C45.5514 64.7699 45.0806 64.3695 45.0806 64.3695C45.0806 64.3695 47.197 60.7262 47.2366 56.9069C47.2762 53.0876 46.1058 50.7467 47.2586 47.385C48.4115 44.019 57.0005 42.3029 57.0005 42.3029C57.0005 42.3029 57.3965 41.0401 59.0465 41.1809C60.6922 41.3217 62.3466 44.7846 62.3466 44.7846L60.7054 46.2982Z" fill="#3962D1" stroke="#3962D1" stroke-miterlimit="10" stroke-linecap="round" stroke-linejoin="round"/>
<path d="M60.2435 55.0631C60.2435 55.0631 58.9587 53.2195 58.2547 54.6759C57.5507 56.1324 59.8035 58.4864 60.9476 57.7912" fill="white"/>
<path d="M60.2435 55.0631C60.2435 55.0631 58.9587 53.2195 58.2547 54.6759C57.5507 56.1324 59.8035 58.4864 60.9476 57.7912" stroke="#3962D1" stroke-miterlimit="10" stroke-linecap="round" stroke-linejoin="round"/>
<path d="M58.5013 63.6776C58.5013 63.6776 62.6902 63.2992 63.4251 63.3608C64.1599 63.4224 65.9067 64.5884 65.9067 64.5884L65.7879 65.9657C65.7879 65.9657 61.7266 64.8788 59.4694 65.332C57.2121 65.7852 53.9868 66.8017 53.9868 66.8017L54.6336 64.6412C54.6292 64.6368 56.8337 63.7172 58.5013 63.6776Z" fill="white" stroke="#3962D1" stroke-miterlimit="10" stroke-linecap="round" stroke-linejoin="round"/>
<path d="M52.7812 67.8971L53.5381 65.9566C53.5381 65.9566 59.0602 64.6102 61.2119 64.3682C63.3635 64.1262 65.6956 64.8434 66.668 65.389C67.636 65.9346 67.9352 66.7882 67.9352 66.7882C67.9352 66.7882 63.5879 65.7674 59.7598 66.2734C55.9273 66.7794 52.7812 67.8971 52.7812 67.8971Z" fill="#40A865" stroke="#3962D1" stroke-miterlimit="10" stroke-linecap="round" stroke-linejoin="round"/>
<path d="M71.4506 85.0136L65.9152 79.5531C65.9152 79.5531 64.6744 77.8766 65.374 75.0737" stroke="#3962D1" stroke-miterlimit="10" stroke-linecap="round" stroke-linejoin="round"/>
<path d="M52.1067 84.3714L48.8506 76.0596" stroke="#3962D1" stroke-miterlimit="10" stroke-linecap="round" stroke-linejoin="round"/>
</svg>
