<svg width="203" height="204" viewBox="0 0 203 204" fill="none" xmlns="http://www.w3.org/2000/svg">
<path d="M3.82487 170.583C3.47115 172.738 3.25644 174.921 3.19228 177.114C3.18405 177.385 3.1783 177.654 3.175 177.925C3.17336 178.045 3.17254 178.165 3.17171 178.285C3.17171 178.328 3.17172 178.802 3.17089 178.575C3.17007 178.382 3.17336 178.742 3.17418 178.776C3.17665 178.926 3.17912 179.076 3.18241 179.226C3.18899 179.497 3.19804 179.766 3.20873 180.037C3.25398 181.147 3.33871 182.255 3.45716 183.358C3.56164 184.325 2.97017 185.371 2.10313 185.469C1.25419 185.565 0.411005 184.921 0.299128 183.884C-0.193621 179.311 -0.0809215 174.637 0.661904 170.109C0.819024 169.152 1.5602 168.315 2.44617 168.495C3.25398 168.66 3.99351 169.556 3.82487 170.583Z" fill="#DFF2F2"/>
<mask id="mask0_6373_49150" style="mask-type:luminance" maskUnits="userSpaceOnUse" x="6" y="20" width="185" height="169">
<path d="M7.46161 101.264C10.8623 143.342 -12.074 175.88 65.2695 185.779C78.9604 187.531 97.8806 188.787 113.848 188.424C126.784 188.131 141.012 186.79 153.585 182.984C174.35 176.692 189.818 163.911 190.299 139.017C190.788 113.545 169.152 96.919 172.616 86.4561C183.333 54.0777 165.95 30.5114 131.624 22.1422C88.1852 11.5531 70.6577 46.6279 52.9442 42.0659C24.2348 34.6719 4.00003 58.426 7.46161 101.264Z" fill="white"/>
</mask>
<g mask="url(#mask0_6373_49150)">
<path d="M7.46161 101.264C10.8623 143.342 -12.074 175.88 65.2695 185.779C78.9604 187.531 97.8806 188.787 113.848 188.424C126.784 188.131 141.012 186.79 153.585 182.984C174.35 176.692 189.818 163.911 190.299 139.017C190.788 113.545 169.152 96.919 172.616 86.4561C183.333 54.0777 165.95 30.5114 131.624 22.1422C88.1852 11.5531 70.6577 46.6279 52.9442 42.0659C24.2348 34.6719 4.00003 58.426 7.46161 101.264Z" fill="#DFF2F2"/>
</g>
<mask id="mask1_6373_49150" style="mask-type:luminance" maskUnits="userSpaceOnUse" x="6" y="20" width="185" height="169">
<path d="M7.46161 101.264C10.8623 143.342 -12.074 175.88 65.2695 185.779C78.9604 187.531 97.8806 188.787 113.848 188.424C126.784 188.131 141.012 186.79 153.585 182.984C174.35 176.692 189.818 163.911 190.299 139.017C190.788 113.545 169.152 96.919 172.616 86.4561C183.333 54.0777 165.95 30.5114 131.624 22.1422C88.1852 11.5531 70.6577 46.6279 52.9442 42.0659C24.2348 34.6719 4.00003 58.426 7.46161 101.264Z" fill="white"/>
</mask>
<g mask="url(#mask1_6373_49150)">
<path d="M167.333 62.3915L98.8291 33.1387L66.1407 137.965L134.644 167.218L167.333 62.3915Z" fill="#C4E4E8"/>
<path d="M123.268 66.3534C122.133 69.9932 119.979 72.8532 117.318 74.6504C117.161 74.7563 117.003 74.8593 116.842 74.9584C115.537 75.7623 114.122 76.3177 112.653 76.592C110.447 77.006 108.122 76.7846 105.871 75.8248C103.759 74.9219 101.953 73.4692 100.532 71.6547C99.7062 70.6035 99.0095 69.43 98.4591 68.1709C98.0618 67.2737 97.7426 66.3332 97.5 65.3609C96.7135 62.2237 96.7464 58.7746 97.7772 55.466C100.347 47.2287 108.136 42.9892 115.174 45.9946C122.214 49.0018 125.837 58.1171 123.268 66.3534Z" fill="#E9F4F6"/>
<path d="M118.92 57.0553C117.465 49.487 112.424 48.7304 112.424 48.7304C110.854 48.5591 109.33 49.0885 108.08 49.9308C106.831 50.7731 105.823 51.9129 104.865 53.0738C103.783 54.3859 102.748 55.7384 101.763 57.1285C101.572 57.399 101.375 57.6897 101.359 58.0334C101.344 58.3462 101.48 58.6591 101.632 58.9479C102.991 61.5287 105.66 63.2104 108.325 64.3444C111.937 65.8827 115.805 66.6817 119.603 66.6759C119.691 63.4858 119.533 60.2484 118.92 57.0553Z" fill="#384955"/>
<path d="M116.813 74.5247C115.507 75.3285 114.092 75.8839 112.624 76.1583C110.418 76.5722 108.092 76.3508 105.841 75.3911C103.73 74.4881 101.923 73.0355 100.503 71.2209C99.6768 70.1697 98.98 68.9962 98.4297 67.7371C99.5838 67.1586 100.965 66.8072 102.482 66.7129C103.595 66.6426 104.781 66.7119 106.002 66.9333H106.004C106.629 67.045 107.262 67.198 107.901 67.3925C109.018 67.7323 110.071 68.1761 111.04 68.6969C112.153 69.2985 113.155 70.0041 114.018 70.781C115.279 71.9159 116.241 73.1982 116.813 74.5247Z" fill="#FFCFBF"/>
<path d="M110.422 73.3104C111.727 73.503 110.661 69.4714 110.661 69.4714L112.834 63.6696C113.468 61.9754 112.864 60.0068 111.484 59.2713C110.104 58.5358 109.39 58.4588 108.755 60.1531L105.748 67.3459C105.114 69.0392 108.579 73.038 110.422 73.3104Z" fill="#FFCFBF"/>
<path d="M116.266 54.3465C116.266 54.3465 117.841 64.8431 113.879 66.2082C111.446 67.0466 109.27 64.7546 106.894 60.9281C104.85 57.6349 112.322 45.8666 116.266 54.3465Z" fill="#FFCFBF"/>
<path d="M109.12 64.5033C110.048 65.5102 111.067 66.1629 112.319 66.3082C112.586 66.339 112.622 65.8327 112.357 65.8019C111.174 65.6642 110.235 65.0337 109.361 64.0865C109.161 63.8708 108.923 64.2886 109.12 64.5033Z" fill="#FF9F89"/>
<path d="M116.904 55.5181C117.044 54.9184 116.897 54.2667 116.625 53.7324C116.353 53.1982 115.964 52.7611 115.581 52.3308C115.236 51.9439 114.883 51.5501 114.451 51.3153C114.016 51.0794 113.527 51.0188 113.047 50.9976C111.575 50.9312 110.064 51.2142 108.775 52.0517C108.718 52.0892 108.657 52.1335 108.637 52.2067C108.622 52.2635 108.636 52.3251 108.65 52.3819C108.931 53.5399 109.303 54.7567 109.024 55.9157C109.665 55.8214 110.291 55.6192 110.927 55.4912C112.938 55.0849 115.054 55.4286 116.894 56.4586L116.904 55.5181Z" fill="#384955"/>
<path d="M110.677 54.238L110.302 53.2446C108.97 53.2225 107.672 54.0041 106.812 55.1939C105.953 56.3847 105.515 57.95 105.475 59.5075C105.455 60.2738 105.541 61.0843 105.934 61.6966C106.231 62.1586 106.673 62.459 107.101 62.7468C107.191 62.8075 107.289 62.87 107.392 62.8537C107.498 62.8373 107.582 62.741 107.654 62.6486C109.452 60.3729 110.476 57.3281 110.677 54.238Z" fill="#384955"/>
<path d="M111.286 50.4464C109.841 50.8681 108.763 52.0252 107.748 53.2419C106.403 54.8534 105.056 56.461 103.683 58.0397C103.61 58.1235 103.709 58.2688 103.782 58.1851C105.038 56.7421 106.28 55.2808 107.504 53.8012C108.6 52.4776 109.73 51.0914 111.311 50.6303C111.41 50.6014 111.386 50.4175 111.286 50.4464Z" fill="#4D6371"/>
<path d="M109.837 53.4371C108.336 55.5646 106.916 58.0357 104.998 59.6798C104.915 59.7511 105.016 59.8964 105.098 59.8252C107.029 58.1695 108.454 55.6878 109.965 53.5488C110.031 53.4554 109.902 53.3447 109.837 53.4371Z" fill="#4D6371"/>
<path d="M116.812 74.5237C115.506 75.3275 114.091 75.883 112.623 76.1573C110.417 76.5713 108.091 76.3499 105.841 75.3901C103.729 74.4871 101.922 73.0345 100.502 71.22C99.6758 70.1687 98.979 68.9953 98.4287 67.7362C99.5828 67.1576 100.964 66.8063 102.481 66.7119C103.528 67.92 105.618 70.1245 107.892 71.3692H107.894C108.989 71.9699 110.126 72.3462 111.208 72.2827C112.217 72.223 113.179 71.7821 114.017 70.78C115.278 71.915 116.24 73.1972 116.812 74.5237Z" fill="#384955"/>
<path d="M93.7563 79.8344C100.077 82.4634 106.397 85.0924 112.718 87.7213C113.373 87.9938 113.773 86.8174 113.117 86.545C106.796 83.916 100.476 81.2871 94.1553 78.6581C93.5005 78.3847 93.0999 79.5611 93.7563 79.8344Z" fill="#D3F0F4"/>
<path d="M92.1924 84.7316C96.7325 86.6203 101.273 88.509 105.813 90.3968C111.591 92.8005 117.369 95.2032 123.147 97.6069C125.307 98.5051 127.467 99.4042 129.627 100.302C130.283 100.575 130.683 99.3984 130.026 99.126C125.486 97.2373 120.945 95.3486 116.405 93.4608C110.627 91.0571 104.85 88.6544 99.072 86.2507C96.9118 85.3525 94.7516 84.4534 92.5914 83.5553C91.9358 83.2829 91.5352 84.4592 92.1924 84.7316Z" fill="#D3F0F4"/>
<path d="M115.523 89.1533C123.758 92.5783 131.991 96.0034 140.226 99.4275C142.092 100.203 143.959 100.98 145.825 101.756C146.481 102.029 146.881 100.852 146.224 100.58C137.99 97.1547 129.756 93.7296 121.522 90.3055C119.655 89.5287 117.789 88.7528 115.922 87.9759C115.266 87.7045 114.867 88.8799 115.523 89.1533Z" fill="#D3F0F4"/>
<path d="M132.449 101.569C136.407 103.209 140.366 104.847 144.324 106.486C144.98 106.758 145.38 105.582 144.723 105.31C140.765 103.671 136.806 102.032 132.848 100.393C132.192 100.121 131.792 101.298 132.449 101.569Z" fill="#D3F0F4"/>
<path d="M90.3345 89.1845C96.3273 91.5199 102.258 94.068 108.118 96.824C108.764 97.1282 109.163 95.9509 108.517 95.6477C102.657 92.8917 96.7255 90.3436 90.7335 88.0082C90.0754 87.7512 89.6731 88.9265 90.3345 89.1845Z" fill="#D3F0F4"/>
<path d="M111.08 98.0336C121.725 102.586 132.369 107.138 143.013 111.691C143.667 111.97 144.067 110.793 143.412 110.514C132.768 105.962 122.124 101.41 111.479 96.8572C110.825 96.5771 110.425 97.7535 111.08 98.0336Z" fill="#D3F0F4"/>
<path d="M86.3076 98.7512C90.8476 100.64 95.3885 102.529 99.9285 104.416C105.707 106.82 111.484 109.223 117.262 111.626C119.422 112.525 121.582 113.424 123.743 114.322C124.398 114.594 124.798 113.418 124.142 113.146C119.601 111.257 115.061 109.368 110.521 107.48C104.743 105.077 98.9653 102.674 93.1872 100.27C91.027 99.3721 88.8668 98.473 86.7066 97.5748C86.0518 97.3024 85.6512 98.4787 86.3076 98.7512Z" fill="#D3F0F4"/>
<path d="M126.565 115.586C130.524 117.225 134.482 118.864 138.441 120.503C139.096 120.774 139.497 119.598 138.84 119.327C134.881 117.687 130.923 116.049 126.964 114.41C126.31 114.138 125.909 115.314 126.565 115.586Z" fill="#D3F0F4"/>
<path d="M84.45 103.203C90.4428 105.539 96.373 108.087 102.233 110.843C102.88 111.147 103.278 109.969 102.632 109.666C96.772 106.91 90.8409 104.362 84.8489 102.027C84.19 101.77 83.7886 102.945 84.45 103.203Z" fill="#D3F0F4"/>
<path d="M105.194 112.051C115.838 116.603 126.482 121.156 137.127 125.708C137.781 125.987 138.181 124.811 137.526 124.532C126.881 119.979 116.237 115.427 105.593 110.875C104.94 110.595 104.54 111.771 105.194 112.051Z" fill="#D3F0F4"/>
<path d="M133.739 59.8747C141.049 62.8829 148.359 65.8912 155.67 68.8994C156.325 69.1689 156.726 67.9936 156.068 67.7231C148.759 64.7148 141.449 61.7066 134.139 58.6983C133.483 58.4278 133.082 59.6042 133.739 59.8747Z" fill="#D3F0F4"/>
<path d="M132.59 63.5209C139.9 66.5292 147.21 69.5374 154.52 72.5457C155.175 72.8152 155.576 71.6398 154.919 71.3693C147.609 68.3611 140.299 65.3528 132.989 62.3446C132.334 62.075 131.933 63.2504 132.59 63.5209Z" fill="#D3F0F4"/>
<path d="M131.458 68.132C138.594 71.0912 145.731 74.0503 152.868 77.0105C153.523 77.2819 153.924 76.1065 153.267 75.8341C146.13 72.875 138.994 69.9158 131.857 66.9557C131.202 66.6833 130.802 67.8596 131.458 68.132Z" fill="#D3F0F4"/>
<path d="M130.033 73.105C133.765 74.5933 137.497 76.0815 141.229 77.5707C141.887 77.8325 142.288 76.6572 141.628 76.3944C137.896 74.9061 134.164 73.4179 130.432 71.9287C129.775 71.6659 129.373 72.8413 130.033 73.105Z" fill="#D3F0F4"/>
<path d="M143.885 78.9387C146.511 80.0756 149.136 81.2134 151.762 82.3503C152.415 82.6333 152.815 81.457 152.161 81.174C149.535 80.0371 146.91 78.8992 144.284 77.7624C143.632 77.4793 143.232 78.6557 143.885 78.9387Z" fill="#D3F0F4"/>
<path d="M128.617 77.6394C135.825 80.7844 143.101 83.7118 150.437 86.4178C151.098 86.6613 151.5 85.4859 150.836 85.2414C143.499 82.5345 136.224 79.6071 129.016 76.4631C128.365 76.1782 127.965 77.3545 128.617 77.6394Z" fill="#D3F0F4"/>
</g>
<mask id="mask2_6373_49150" style="mask-type:luminance" maskUnits="userSpaceOnUse" x="6" y="20" width="185" height="169">
<path d="M7.46161 101.264C10.8623 143.342 -12.074 175.88 65.2695 185.779C78.9604 187.531 97.8806 188.787 113.848 188.424C126.784 188.131 141.012 186.79 153.585 182.984C174.35 176.692 189.818 163.911 190.299 139.017C190.788 113.545 169.152 96.919 172.616 86.4561C183.333 54.0777 165.95 30.5114 131.624 22.1422C88.1852 11.5531 70.6577 46.6279 52.9442 42.0659C24.2348 34.6719 4.00003 58.426 7.46161 101.264Z" fill="white"/>
</mask>
<g mask="url(#mask2_6373_49150)">
<path d="M3.33057 141.299L29.6108 160.041C46.2063 148.421 51.9704 144.41 51.9803 144.392C52.7009 143.419 56.0991 138.497 58.0199 137.08C56.1444 132.655 55.1728 130.365 54.3815 128.493C54.3823 128.469 55.1243 93.2811 55.1087 93.2695C53.6946 95.2314 35.6743 122.829 27.0878 128.144C27.0878 128.144 27.087 128.143 27.0862 128.144C26.776 128.338 26.8748 128.25 26.832 128.332C26.3713 129.216 16.272 134.241 3.91463 140.179L3.33057 141.299Z" fill="#FDBAA0"/>
<path d="M50.5699 100.835C50.9195 101.054 58.9104 102.792 58.0705 103.999C54.7932 108.711 53.8924 115.976 55.2555 118.556C57.8673 123.499 62.9017 121.488 63.4455 121.231L50.3453 135.59C46.7809 136.24 27.1606 137.155 27.1836 135.757C27.2766 130.018 49.6781 100.276 50.5699 100.835Z" fill="#FDBAA0"/>
<path d="M22.3521 131.96C22.3521 131.96 31.5177 125.477 35.7056 117.275C41.5273 105.875 46.8776 91.948 48.2053 90.378C50.4889 87.6787 57.9435 82.3515 59.9737 82.1051C62.0031 81.8586 68.5882 80.5648 69.9216 81.1742C71.2551 81.7826 67.2695 87.1878 62.2886 90.2933C57.3076 93.3987 51.9548 98.776 51.9548 98.776L43.9754 127.832L22.3521 131.96Z" fill="#FDBAA0"/>
<path d="M42.4453 109.017C42.4453 109.017 51.328 89.1597 55.9503 86.7425C60.5725 84.3253 65.9163 82.6109 69.0315 84.6507C72.1468 86.6905 77.8813 92.8399 77.7373 94.0393C77.5934 95.2388 72.6124 95.361 69.2783 93.8122C65.9434 92.2633 56.967 96.8628 56.967 96.8628L47.1071 109.614L42.4453 109.017Z" fill="#FDBAA0"/>
<path d="M43.3052 128.522C43.3052 128.522 51.9698 96.6985 54.2954 93.3196C56.6209 89.9417 67.0772 90.8582 70.3323 91.5638C73.5874 92.2694 79.98 101.337 79.9759 103.948C79.9701 107.15 74.3615 104.933 70.8169 101.927C67.5601 99.1648 62.8424 100.682 61.2251 100.673C60.7546 100.67 59.8275 101.493 58.8395 102.714C57.5505 104.305 56.1553 106.573 55.526 108.57C53.3954 115.33 59.9097 122.05 59.9097 122.05L43.3052 128.522Z" fill="#FDBAA0"/>
<path d="M65.3153 85.9188C63.7795 86.0699 62.2453 86.2412 60.7136 86.4357C59.2206 86.6253 57.6716 86.7447 56.2435 87.3281C53.6876 88.3716 51.9371 90.9678 50.3231 93.3734C50.0747 93.7431 49.6008 93.2676 49.8493 92.8979C51.4937 90.447 53.2804 87.8508 55.8519 86.7178C57.2496 86.1017 58.7673 85.9534 60.2406 85.7619C61.9113 85.5453 63.5845 85.3556 65.2602 85.191C65.6608 85.1515 65.716 85.8793 65.3153 85.9188Z" fill="#EF9F8A"/>
<path d="M127.958 183.185L52.8438 164.19L74.069 49.2471L137.99 65.4108L147.212 78.9147L127.958 183.185Z" fill="white"/>
<path d="M103.215 79.8552C102.478 83.8473 100.581 87.1953 98.0256 89.5211C96.6469 90.7763 95.0765 91.7342 93.3943 92.3339C91.1411 93.1377 88.6864 93.2985 86.2194 92.6756C83.9029 92.0894 81.8398 90.8774 80.132 89.2236C78.4341 87.5813 77.0875 85.5011 76.1917 83.1657C74.9849 80.0217 74.5942 76.4157 75.2638 72.7885C76.9312 63.757 84.5404 58.0168 92.2591 59.969C99.9777 61.9193 104.882 70.8237 103.215 79.8552Z" fill="#E9F4F6"/>
<path d="M87.693 64.9005C86.6877 64.8187 85.6134 65.1191 84.9158 66.0605C84.5909 66.4985 84.3918 67.0337 84.3383 67.6142C84.2832 68.2159 84.3531 68.8156 84.3852 69.4144C84.4181 70.0314 84.4066 70.6677 84.1491 71.2251C83.9065 71.7497 83.5042 72.1887 83.4096 72.798C83.3109 73.4305 83.5856 74.0591 83.4302 74.6877C83.3496 75.0111 83.1916 75.2961 83.0485 75.5829C82.9045 75.8737 82.7844 76.173 82.7063 76.4975C82.5327 77.2194 82.5401 78.003 82.6067 78.7414C82.6569 79.2958 82.7828 79.8831 83.1949 80.1998C83.2739 80.2604 83.3413 80.1045 83.2632 80.0438C82.8823 79.7502 82.7869 79.163 82.7466 78.6567C82.6939 77.9953 82.6849 77.3099 82.8206 76.6582C82.8905 76.3232 83.0049 76.0132 83.1505 75.7158C83.2788 75.454 83.4211 75.1979 83.5157 74.9149C83.7074 74.3383 83.561 73.804 83.5355 73.2149C83.5075 72.5641 83.8357 72.1059 84.1253 71.5976C84.391 71.1317 84.521 70.6331 84.5415 70.0728C84.5827 68.9321 84.2404 67.7163 84.7398 66.6506C85.3296 65.3924 86.5808 64.9843 87.6996 65.0757C87.7933 65.0834 87.7851 64.9082 87.693 64.9005Z" fill="#384955"/>
<path d="M90.6851 73.4398C90.9335 71.8832 91.2543 70.3429 91.6442 68.8278L87.968 64.8857C87.198 64.9945 86.3968 65.2092 85.8135 65.8282C84.9333 66.76 84.7877 68.3339 84.87 69.7297C84.9522 71.1265 85.1949 72.558 84.8609 73.9057C84.5047 75.3419 83.5324 76.4942 83.2585 77.9545C82.9582 79.5583 83.5974 81.2593 84.6298 82.3182C85.6622 83.3771 87.0261 83.8709 88.3801 84.0577C88.4475 84.0673 88.5183 84.075 88.5833 84.048C88.705 83.997 88.7684 83.8392 88.8177 83.6957C89.9274 80.4458 90.1347 76.8831 90.6851 73.4398Z" fill="#384955"/>
<path d="M98 89.1057C96.6213 90.361 95.0509 91.3188 93.3686 91.9185C91.2874 91.8117 88.7151 91.4122 85.9683 90.7172C83.804 90.1694 81.8026 89.5081 80.1064 88.8073C78.4085 87.165 77.0618 85.0848 76.166 82.7494C77.1334 81.7579 78.443 81.0041 79.9756 80.5382H79.9764C81.0754 80.2042 82.2904 80.0174 83.5737 79.9962C84.3182 79.9837 85.0848 80.027 85.8672 80.1291C86.5203 80.2148 87.1834 80.3399 87.853 80.5093C88.2824 80.6181 88.7036 80.7413 89.1157 80.879C89.2802 80.9338 89.4439 80.9916 89.6051 81.0513C89.717 81.0917 89.8281 81.1331 89.9383 81.1774C90.1497 81.2592 90.3587 81.3459 90.5643 81.4354C90.6104 81.4556 90.6556 81.4758 90.7017 81.497C92.1059 82.1246 93.367 82.9188 94.4364 83.8237C94.6174 83.9758 94.7926 84.1327 94.9629 84.2915C94.9637 84.2925 94.9645 84.2925 94.9653 84.2935C96.4962 85.7249 97.564 87.3932 98 89.1057Z" fill="#FCBFAF"/>
<path d="M98 89.0968C96.6213 90.3521 95.0509 91.3099 93.3686 91.9096C91.1155 92.7134 88.6608 92.8742 86.1937 92.2514C83.8773 91.6651 81.8141 90.4532 80.1064 88.7993C78.4085 87.1571 77.0618 85.0768 76.166 82.7415C77.1334 81.7499 78.443 80.9962 79.9756 80.5303H79.9764C79.9764 80.5303 85.2008 90.018 94.2965 83.9101C94.3426 83.8793 94.3895 83.8475 94.4356 83.8158C94.6165 83.9679 94.7918 84.1248 94.962 84.2836C94.9629 84.2846 94.9637 84.2846 94.9645 84.2855C96.4962 85.716 97.564 87.3843 98 89.0968Z" fill="#FF8D67"/>
<path d="M86.5817 82.8566C85.4095 82.3792 85.5296 81.2866 85.7681 79.7011L86.715 73.4073C86.9807 71.6399 88.3413 70.4203 89.7537 70.6831C91.1662 70.9449 91.2534 71.304 90.9877 73.0714L89.9832 80.5983C89.7167 82.3628 87.8625 83.4968 86.5817 82.8566Z" fill="#FCBFAF"/>
<path d="M88.093 65.6411C88.093 65.6411 82.4268 72.3835 84.6397 75.7575C85.9986 77.8301 88.5323 77.4556 91.873 76.0771C94.748 74.8902 94.5621 61.7954 88.093 65.6411Z" fill="#FCBFAF"/>
<path d="M88.5751 77.2984C87.4818 77.4793 86.4774 77.3465 85.5281 76.7034C85.3265 76.5667 85.5199 76.174 85.7214 76.3107C86.6181 76.9181 87.5567 77.0202 88.5849 76.8498C88.8202 76.8103 88.8071 77.2598 88.5751 77.2984Z" fill="#F3A99C"/>
<path d="M95.0729 73.91C95.2506 72.9734 95.2605 72.0069 95.2704 71.0491C95.2802 70.0662 95.286 69.0564 94.9989 68.14C94.5177 66.6065 93.3051 65.5996 92.0909 64.8535L89.7407 65.5745C90.2351 65.7468 90.5584 66.284 90.5049 66.7711C90.4515 67.2582 90.3322 67.7434 90.37 68.2305C90.449 69.2489 91.1721 69.9959 91.5299 70.9201C91.7701 71.54 91.5258 72.2658 91.4164 72.9416C91.3202 73.5385 91.4024 74.0968 91.3925 74.7032C91.3876 75.0017 91.4378 75.3039 91.3794 75.5946C91.3185 75.9008 91.1449 76.1549 91.0232 76.4341C90.8332 76.8721 90.7706 77.3977 90.8981 77.8626C91.0256 78.3276 91.3563 78.7155 91.757 78.806C92.448 78.962 93.0674 78.2718 93.5026 77.6008C94.2174 76.5005 94.8163 75.2645 95.0729 73.91Z" fill="#384955"/>
<path d="M98.4722 83.1419C98.5602 82.0772 98.3249 81.0202 98.2632 79.9546C98.1966 78.81 98.3315 77.6568 98.5684 76.5411C98.8292 75.3118 99.0406 74.0777 99.0127 72.8137C98.9682 70.7749 98.1398 68.9237 96.553 66.2062C94.5483 62.7715 92.0771 61.2601 89.4332 62.0379C86.7893 62.8157 87.3874 66.5363 87.5075 66.3746C89.5723 63.5945 92.3535 67.5943 92.3963 71.1349L90.9115 73.4914C90.9855 74.3058 90.7922 75.1549 90.3825 75.8172C90.158 76.181 89.8651 76.5035 89.75 76.9329C89.5928 77.522 89.8067 78.1583 89.7401 78.7705C89.6529 79.5647 89.1124 80.1904 88.9356 80.9634C88.6987 82.0002 89.1947 83.1284 89.9449 83.6983C90.6951 84.2682 91.6403 84.3635 92.5279 84.2354C92.857 84.1883 93.1869 84.1122 93.5159 84.143C94.1345 84.2008 94.6774 84.6253 95.2138 84.993C95.7501 85.3617 96.3605 85.6948 96.9717 85.5485C97.8478 85.3396 98.3842 84.2075 98.4722 83.1419Z" fill="#384955"/>
<path d="M90.3403 72.9769C90.3403 72.9769 91.5783 71.7187 92.0637 72.3483C92.5498 72.9778 91.9715 74.5912 91.3019 74.6576C90.6323 74.724 90.2802 73.4495 90.3098 73.2127L90.3403 72.9769Z" fill="#FCBFAF"/>
<path d="M90.7762 74.458C90.6997 74.2722 90.7161 74.4282 90.8 74.408C90.8362 74.3993 90.9094 74.4263 90.9464 74.4272C91.1151 74.432 91.2903 74.3772 91.4416 74.28C91.7024 74.1115 91.8694 73.8237 92.0142 73.5137C92.0989 73.3317 92.205 73.1498 92.1795 72.9217C92.1294 72.4702 91.7649 72.4095 91.5001 72.5819C91.2911 72.7185 91.1603 72.2988 91.3676 72.1631C91.8036 71.8791 92.335 72.0765 92.502 72.6695C92.6632 73.2393 92.2972 73.9276 91.9821 74.3252C91.7181 74.6592 91.3668 74.8623 90.9941 74.8768C90.8058 74.8835 90.5343 74.8681 90.4372 74.6323C90.3328 74.3762 90.6717 74.2029 90.7762 74.458Z" fill="#FDBAA0"/>
<path d="M89.5416 65.4699C90.0467 64.8894 90.8735 64.8355 91.3934 65.3967C91.6336 65.6557 91.7997 66.0186 91.8442 66.4055C91.8919 66.8243 91.78 67.2373 91.6846 67.6368C91.5941 68.0151 91.5093 68.4117 91.5768 68.8035C91.6401 69.1702 91.8376 69.461 92.0638 69.7045C92.3024 69.9615 92.5672 70.1801 92.7852 70.4631C93.0156 70.7615 93.2023 71.1138 93.3282 71.4931C93.5922 72.2834 93.5832 73.1768 93.2689 73.9536C93.1126 74.3387 92.8881 74.6842 92.6051 74.9471C92.3525 75.181 92.0539 75.36 91.8614 75.6767C91.4156 76.4112 91.8507 77.292 92.0531 78.0169C92.1847 78.4876 92.1946 78.9507 91.998 79.4031C91.8187 79.8151 91.5381 80.1395 91.2535 80.4476C90.7106 81.0348 90.0237 81.7616 90.143 82.7377C90.2466 83.5848 90.9697 83.9275 91.5645 84.1634C91.6533 84.198 91.6846 84.0267 91.5965 83.992C90.9705 83.7446 90.1857 83.3384 90.2861 82.3777C90.384 81.4391 91.1046 80.8885 91.6204 80.2753C91.8746 79.973 92.1049 79.6235 92.2242 79.2144C92.3435 78.8063 92.3089 78.3914 92.2003 77.989C92.0802 77.5462 91.8861 77.1303 91.8326 76.6634C91.7759 76.1706 91.91 75.7778 92.239 75.4726C92.5129 75.2185 92.8033 75.0173 93.0328 74.6997C93.2484 74.4003 93.4121 74.0518 93.5198 73.6792C93.7419 72.914 93.7008 72.0745 93.4334 71.341C93.3101 71.0031 93.1447 70.6912 92.9432 70.413C92.7211 70.1069 92.448 69.8768 92.1954 69.6102C91.9223 69.3223 91.7051 68.9854 91.6977 68.5282C91.6911 68.1027 91.831 67.6907 91.9182 67.2835C92.0095 66.858 92.0391 66.4296 91.9116 66.0138C91.7981 65.6431 91.5883 65.3197 91.3144 65.1031C90.7344 64.6439 89.9332 64.7787 89.4331 65.3524C89.3664 65.4314 89.4742 65.5488 89.5416 65.4699Z" fill="#4D6371"/>
<path d="M89.9102 65.1079C91.0191 64.0433 92.7893 64.0818 93.7814 65.3149C94.0488 65.647 94.2618 66.0792 94.3013 66.548C94.3466 67.091 94.0932 67.5116 93.9246 67.9901C93.6087 68.8882 93.7748 69.9 94.1319 70.7336C94.5226 71.6443 95.1305 72.3768 95.6504 73.1768C96.1432 73.9344 96.6038 74.819 96.6203 75.8144C96.6277 76.2736 96.5429 76.7453 96.3455 77.1448C96.1423 77.5578 95.833 77.8129 95.4727 77.9996C95.1494 78.1671 94.8039 78.3019 94.53 78.5791C94.2528 78.8602 94.0883 79.2761 94.0734 79.7083C94.0438 80.5689 94.6394 81.1407 95.0869 81.7C95.365 82.0475 95.5895 82.4364 95.7121 82.9014C95.8355 83.3692 95.9161 84.0565 95.5797 84.4358C95.4291 84.6062 95.2087 84.689 95.0154 84.587C94.9298 84.5417 94.8615 84.6977 94.9471 84.7429C95.2531 84.9046 95.6093 84.7333 95.7911 84.4031C96.0247 83.9795 95.9827 83.4164 95.8775 82.9543C95.773 82.4951 95.5739 82.086 95.3123 81.7327C95.0614 81.3948 94.7669 81.1041 94.5366 80.7441C94.2914 80.3629 94.1516 79.9056 94.2553 79.4205C94.3704 78.8775 94.7274 78.5676 95.1346 78.3567C95.4777 78.1787 95.838 78.0362 96.1251 77.7358C96.4064 77.4413 96.5915 77.035 96.6869 76.6067C97.164 74.4696 95.5262 72.8947 94.6238 71.3584C94.1105 70.4852 93.709 69.359 93.9912 68.2721C94.1236 67.7639 94.4239 67.3365 94.4502 66.7897C94.4716 66.344 94.3342 65.9069 94.1277 65.5469C93.3043 64.1135 91.5414 63.8122 90.2894 64.6006C90.1273 64.7027 89.9743 64.8249 89.8312 64.9616C89.7588 65.0319 89.8361 65.1792 89.9102 65.1079Z" fill="#4D6371"/>
<path d="M95.465 78.8253C95.145 78.8387 94.899 79.1766 94.8744 79.5501C94.8423 80.0199 95.0924 80.4175 95.3655 80.7149C95.6855 81.0634 96.0236 81.3763 96.3098 81.77C96.6068 82.1791 96.8569 82.6469 97.0025 83.1639C97.1654 83.7395 97.1966 84.3595 97.051 84.9496C97.0239 85.0583 97.167 85.094 97.1933 84.9852C97.4821 83.8175 97.0963 82.619 96.4727 81.7295C96.3148 81.5033 96.142 81.2925 95.9602 81.0942C95.762 80.8786 95.5432 80.6889 95.3556 80.4589C95.1787 80.2413 95.0233 79.9621 95.0175 79.6464C95.0117 79.3297 95.1935 79.013 95.4724 79.0014C95.5662 78.9966 95.5588 78.8214 95.465 78.8253Z" fill="#4D6371"/>
<path d="M92.4022 76.4273C92.4252 76.7229 92.491 77.002 92.5972 77.2687C92.6375 77.3698 92.7609 77.2725 92.7205 77.1724C92.6251 76.9337 92.5684 76.6796 92.5478 76.4158C92.5396 76.3041 92.394 76.3138 92.4022 76.4273Z" fill="#4D6371"/>
<path d="M95.7388 71.6312C95.8499 71.8391 95.9609 72.0471 96.0712 72.254C96.1213 72.3484 96.2447 72.2531 96.1945 72.1578C96.0835 71.9498 95.9724 71.7419 95.8622 71.5349C95.812 71.4406 95.6886 71.5359 95.7388 71.6312Z" fill="#4D6371"/>
<path d="M93.7648 150.782C86.2485 148.881 81.456 140.18 83.0798 131.384C84.7045 122.589 92.1401 116.979 99.6556 118.88C107.172 120.78 111.964 129.482 110.341 138.278C108.717 147.073 101.281 152.683 93.7648 150.782ZM99.2032 121.334C92.8435 119.726 86.5513 124.473 85.1767 131.916C83.8029 139.358 87.8584 146.72 94.2181 148.329C100.578 149.937 106.87 145.191 108.244 137.749C109.618 130.305 105.563 122.942 99.2032 121.334Z" fill="#8FCEC5"/>
<path d="M87.5833 131.457C88.2554 133.35 88.9283 135.242 89.6004 137.134C89.9228 138.042 90.2461 138.951 90.5686 139.858C90.7726 140.432 90.9659 141.022 91.2522 141.546C91.8889 142.711 93.0661 143.411 94.2383 143.371C95.8202 143.317 96.9077 142.015 98.0026 140.852C98.6039 140.214 99.1987 139.566 99.791 138.915C102.979 135.418 106.111 131.852 109.283 128.335C110.636 126.835 111.984 125.323 113.393 123.894C113.93 123.349 114.198 122.17 114.16 121.38C114.12 120.556 113.762 119.581 113.212 119.041C112.622 118.462 111.854 118.051 111.064 118.144C110.256 118.239 109.675 118.635 109.065 119.253C103.592 124.8 98.6434 131.029 93.2405 136.667C93.1294 136.784 93.0167 136.898 92.9057 137.014C92.7247 137.201 92.5215 137.253 93.2002 136.725C92.9443 136.926 93.0299 136.895 93.4568 136.634C94.9671 136.409 95.9181 136.922 96.3097 138.176C96.3212 138.116 96.1558 137.742 96.1484 137.721C96.0407 137.418 95.9329 137.116 95.826 136.814C95.6376 136.284 95.4492 135.754 95.2608 135.224C94.5616 133.257 93.8624 131.289 93.1631 129.32C92.8654 128.482 92.4401 127.776 91.7334 127.344C91.0877 126.949 90.1548 126.817 89.4605 127.124C88.0678 127.739 86.9532 129.683 87.5833 131.457Z" fill="#00862D"/>
<path d="M74.6917 95.717C81.6132 97.3958 88.5356 99.0756 95.4571 100.754C96.1333 100.918 96.3611 99.6907 95.6841 99.5271C88.7626 97.8482 81.8403 96.1684 74.9187 94.4896C74.2426 94.3259 74.0147 95.5533 74.6917 95.717Z" fill="#C0E2E8"/>
<path d="M73.6637 101.097C78.6365 102.303 83.6084 103.509 88.5811 104.715C94.9087 106.251 101.236 107.785 107.565 109.321C109.931 109.894 112.296 110.468 114.661 111.042C115.338 111.206 115.565 109.978 114.888 109.815C109.916 108.608 104.944 107.402 99.9711 106.196C93.6435 104.661 87.3159 103.126 80.9875 101.591C78.6217 101.017 76.2566 100.443 73.8908 99.8695C73.2146 99.7058 72.9859 100.932 73.6637 101.097Z" fill="#C0E2E8"/>
<path d="M98.5622 101.774C102.663 102.768 106.765 103.764 110.865 104.758C115.797 105.955 120.728 107.15 125.659 108.347C127.689 108.839 129.718 109.331 131.747 109.823C132.424 109.987 132.652 108.76 131.974 108.596C127.874 107.602 123.772 106.606 119.671 105.612C114.74 104.415 109.809 103.22 104.877 102.023C102.848 101.531 100.819 101.038 98.7892 100.546C98.113 100.382 97.8843 101.609 98.5622 101.774Z" fill="#C0E2E8"/>
<path d="M117.763 111.892C122.097 112.935 126.432 113.98 130.766 115.023C131.442 115.186 131.671 113.958 130.993 113.796C126.659 112.752 122.325 111.708 117.99 110.664C117.313 110.502 117.085 111.729 117.763 111.892Z" fill="#C0E2E8"/>
<path d="M72.2713 106.053C78.8145 107.481 85.3197 109.14 91.7765 111.031C92.4469 111.227 92.6731 109.999 92.0035 109.804C85.5468 107.913 79.0415 106.253 72.4984 104.826C71.8197 104.678 71.5902 105.905 72.2713 106.053Z" fill="#C0E2E8"/>
<path d="M95.0162 111.796C104.118 114.103 113.22 116.409 122.321 118.716C124.892 119.368 127.463 120.018 130.033 120.67C130.709 120.841 130.936 119.614 130.26 119.443C121.159 117.136 112.057 114.83 102.955 112.523C100.385 111.872 97.8139 111.22 95.2432 110.569C94.5687 110.398 94.3408 111.625 95.0162 111.796Z" fill="#C0E2E8"/>
<path d="M112.588 75.66C120.59 77.5679 128.591 79.4759 136.592 81.3848C137.265 81.5456 137.492 80.3249 136.818 80.1642C128.816 78.2562 120.814 76.3483 112.814 74.4394C112.141 74.2786 111.914 75.4992 112.588 75.66Z" fill="#C0E2E8"/>
<path d="M111.837 79.6571C119.839 81.565 127.84 83.473 135.841 85.3819C136.514 85.5426 136.741 84.322 136.067 84.1612C128.065 82.2533 120.063 80.3453 112.063 78.4364C111.39 78.2757 111.163 79.4963 111.837 79.6571Z" fill="#C0E2E8"/>
<path d="M111.223 84.6672C119.037 86.5539 126.852 88.4407 134.666 90.3265C135.338 90.4892 135.566 89.2686 134.892 89.1059C127.078 87.2191 119.263 85.3323 111.449 83.4465C110.777 83.2838 110.55 84.5045 111.223 84.6672Z" fill="#C0E2E8"/>
<path d="M110.347 90.0981C114.426 91.0232 118.506 91.9474 122.585 92.8725C123.259 93.0255 123.487 91.8049 122.81 91.6518C118.731 90.7267 114.652 89.8026 110.572 88.8775C109.899 88.7244 109.671 89.9451 110.347 90.0981Z" fill="#C0E2E8"/>
<path d="M125.527 93.8528C128.408 94.5979 131.289 95.342 134.17 96.0871C134.841 96.2604 135.067 95.0398 134.395 94.8665C131.514 94.1214 128.633 93.3773 125.752 92.6322C125.081 92.458 124.855 93.6786 125.527 93.8528Z" fill="#C0E2E8"/>
<path d="M109.428 95.064C117.339 97.1327 125.295 98.9626 133.286 100.551C133.962 100.685 134.19 99.4651 133.512 99.3304C125.52 97.742 117.564 95.912 109.653 93.8433C108.983 93.6681 108.757 94.8887 109.428 95.064Z" fill="#C0E2E8"/>
<path d="M136.337 65.0869L134.366 75.7607L145.56 78.5908L136.337 65.0869Z" fill="#AFD0D3"/>
<path d="M55.5038 108.362C55.8402 107.295 56.3955 106.151 57.0355 105.075C55.4372 103.942 53.1034 102.297 51.2517 101.028C48.9023 108.287 45.9861 118.575 44.4141 124.217L52.5341 124.707L59.8875 121.841C59.8875 121.842 53.3732 115.122 55.5038 108.362Z" fill="#FDBAA0"/>
<path d="M48.1456 146.537C57.3869 144.584 68.0053 132.012 70.4764 127.891C75.0979 120.185 81.9166 116.46 81.8853 114.961C81.8541 113.462 78.9848 110.234 72.8842 113.429C67.0889 116.464 62.8483 122.056 59.2246 121.432C57.7908 121.186 48.9493 120.62 48.9493 120.62C48.9493 120.62 44.6149 147.284 48.1456 146.537Z" fill="#FDBAA0"/>
<path d="M79.6815 116.02C79.702 115.427 79.0176 115.809 78.8366 115.947C78.7017 116.05 78.5759 116.174 78.45 116.291C78.1596 116.559 77.8775 116.841 77.5945 117.12C77.0951 117.614 75.9262 118.398 76.6057 119.265C76.7924 119.503 76.4428 119.796 76.2585 119.56C75.2599 118.285 76.9528 117.092 77.6702 116.39C78.1267 115.942 78.7009 115.204 79.3434 115.191C79.8024 115.181 80.1216 115.591 80.1035 116.105C80.0936 116.427 79.6708 116.34 79.6815 116.02Z" fill="#E79780"/>
<path d="M53.9792 120.987C56.0695 121.346 58.1795 121.409 60.2829 121.177C60.6835 121.133 60.6671 121.865 60.2714 121.908C58.168 122.14 56.058 122.077 53.9677 121.717C53.5745 121.65 53.5827 120.919 53.9792 120.987Z" fill="#EF9F8A"/>
<path d="M49.669 145.839C47.7021 146.141 45.7311 145.948 43.8333 145.273C43.4599 145.14 43.6721 144.477 44.0431 144.609C46.3102 145.415 47.4372 145.467 49.5719 145.139C49.9569 145.082 50.0564 145.781 49.669 145.839Z" fill="#EF9F8A"/>
<path d="M27.9471 166.397C27.9471 166.397 39.8907 156.394 39.3906 155.188C38.8904 153.981 28.1996 133.028 26.8884 126.44C26.8884 126.44 26.9089 125.173 25.3213 125.684C23.7336 126.194 10.4697 131.876 10.4697 131.876L13.5044 152.563L27.9471 166.397Z" fill="white"/>
<path d="M-12.1678 134.457L-19.6577 171.295L16.6494 181.404C26.8005 172.518 32.4832 167.138 32.5161 165.033C32.5243 164.569 32.3795 163.982 32.1155 163.292C31.8053 162.487 31.3307 161.538 30.74 160.486C27.7251 155.098 21.7283 146.929 19.6018 140.425C18.4164 136.795 17.4646 133.873 16.4577 131.752C16.1344 131.07 15.8062 130.472 15.4615 129.958C14.2613 128.171 12.8744 127.424 10.8935 127.854C9.65138 128.125 -5.42065 131.477 -12.1678 134.457Z" fill="#384955"/>
<path d="M35.8071 155.231C36.0136 154.644 35.7751 153.972 35.2733 153.73C34.7715 153.489 34.1973 153.768 33.9908 154.355C33.7843 154.942 34.0229 155.614 34.5247 155.856C35.0265 156.098 35.6007 155.818 35.8071 155.231Z" fill="#198DA5"/>
</g>
<path d="M65.9457 35.8534C61.8738 39.1735 56.8002 39.7708 51.9689 39.3858C49.1897 39.1641 46.438 38.6433 43.6693 38.3093C42.2886 38.1423 40.9014 38.0225 39.5126 38.0102C39.4351 38.0093 39.3583 38.0093 39.2808 38.0093C39.3123 38.0093 39.5021 38.0045 39.3147 38.0093C39.1491 38.013 38.9835 38.0159 38.817 38.0215C38.4906 38.0328 38.1642 38.0517 37.8379 38.0762C37.2319 38.1225 36.6276 38.1904 36.0257 38.2819C35.3083 38.3904 34.5941 38.5301 33.8856 38.7008C33.543 38.7839 33.2013 38.8735 32.8612 38.9707C32.7028 39.016 32.5445 39.0632 32.3861 39.1113C32.3182 39.132 32.2504 39.1528 32.1833 39.1745C31.7511 39.3103 32.3489 39.1122 32.1025 39.2018C30.738 39.6953 29.4033 40.2444 28.1026 40.9379C27.3561 41.336 26.3406 40.8775 26.0489 39.9699C25.7443 39.0207 26.082 37.9961 26.8778 37.5715C31.7269 34.9853 36.9992 34.0541 42.2975 34.4985C45.0492 34.7296 47.7743 35.2448 50.5171 35.5722C51.754 35.7203 52.9958 35.8307 54.2391 35.8524C54.3684 35.8543 54.4977 35.8552 54.6261 35.8562C54.7004 35.8571 54.9339 35.8741 54.5938 35.8581C54.6576 35.8609 54.7231 35.8562 54.7877 35.8552C55.0891 35.8496 55.3904 35.8383 55.6917 35.8213C56.25 35.7892 56.8075 35.7373 57.3625 35.6618C57.9983 35.575 58.6317 35.4561 59.2578 35.3014C59.5697 35.224 59.8767 35.1316 60.1861 35.0419C59.8678 35.1344 60.2895 35.0061 60.4043 34.9646C60.5456 34.9136 60.6854 34.8608 60.8252 34.8051C61.423 34.5683 62.0088 34.29 62.5751 33.9664C62.8587 33.8041 63.1382 33.6314 63.4113 33.4455C63.1237 33.6408 63.5268 33.355 63.6068 33.2955C63.7498 33.188 63.8896 33.0757 64.0293 32.9625C64.7007 32.4152 65.7211 32.4577 66.226 33.2908C66.697 34.0654 66.6631 35.2684 65.9457 35.8534Z" fill="#DFF2F2"/>
<path d="M168.164 43.9172C167.379 42.8189 166.562 41.7528 165.708 40.7263C165.598 40.5932 165.485 40.4621 165.375 40.329C165.251 40.18 165.401 40.3583 165.418 40.3781C165.369 40.3215 165.321 40.2658 165.273 40.2102C165.047 39.9498 164.819 39.6912 164.589 39.4365C164.144 38.944 163.693 38.4609 163.233 37.9892C161.394 36.0993 159.433 34.3718 157.37 32.8282C157.065 32.5999 156.757 32.3744 156.447 32.1545C156.311 32.0583 156.175 31.9621 156.039 31.8677C155.98 31.8271 155.921 31.7866 155.863 31.746C155.488 31.4856 156.022 31.8507 155.803 31.7035C155.192 31.296 154.577 30.8997 153.953 30.5195C153.229 30.0788 152.732 29.0721 153.113 28.1258C153.45 27.2917 154.385 26.6709 155.163 27.1445C159.827 29.9854 164.05 33.6245 167.756 37.9797C168.764 39.1638 169.725 40.3989 170.641 41.6811C171.167 42.418 171.032 43.6907 170.359 44.2465C169.646 44.8352 168.724 44.7031 168.164 43.9172Z" fill="#DFF2F2"/>
<path d="M176.905 88.9111C176.879 89.1347 176.858 89.3574 176.846 89.5828C176.842 89.6725 176.84 89.7621 176.836 89.8517C176.817 90.2942 176.821 89.5753 176.833 89.8329C176.854 90.2603 176.879 90.682 176.94 91.1047C176.972 91.3264 177.018 91.5444 177.058 91.7642C177.12 92.1029 176.994 91.5482 177.056 91.7623C177.086 91.869 177.112 91.9775 177.144 92.0841C177.262 92.4888 177.402 92.8851 177.565 93.2682C177.641 93.4474 177.716 93.6361 177.81 93.8041C177.704 93.6144 177.717 93.621 177.818 93.8041C177.871 93.8984 177.924 93.9928 177.979 94.0843C178.187 94.4353 178.417 94.7693 178.664 95.0835C178.69 95.1165 178.716 95.1495 178.743 95.1816C178.822 95.2778 178.794 95.2476 178.661 95.091C178.66 95.1269 178.803 95.2505 178.828 95.2769C178.97 95.4288 179.115 95.575 179.266 95.7147C179.416 95.8543 179.572 95.9873 179.731 96.1119C179.795 96.1619 179.861 96.21 179.925 96.2591C180.254 96.511 179.629 96.0713 179.974 96.293C180.689 96.7535 181.202 97.7262 180.814 98.6867C180.484 99.5038 179.533 100.162 178.764 99.6679C175.355 97.4715 173.278 93.0068 173.799 88.4459C173.907 87.4977 174.714 86.6948 175.551 86.8646C176.383 87.0344 177.021 87.8949 176.905 88.9111Z" fill="#DFF2F2"/>
</svg>
