<svg width="119" height="190" viewBox="0 0 119 190" fill="none" xmlns="http://www.w3.org/2000/svg">
<g clip-path="url(#clip0_6373_49135)">
<path d="M27.4673 171.639C27.4673 175.893 38.8267 179.357 52.8425 179.373C66.8584 179.392 78.2201 175.958 78.2201 171.704C78.2201 167.45 66.8607 163.985 52.8449 163.969C38.8314 163.95 27.4696 167.385 27.4673 171.639Z" fill="#3378C9"/>
<path d="M47.7002 -6.92725L47.7234 173.92H56.8119L59.1502 -6.11685L47.7002 -6.92725Z" fill="#00862D"/>
<path d="M52.0557 1.04724L52.476 15.4671L107.153 18.1955L118.68 7.04972L107.736 -1.68115L52.0557 1.04724Z" fill="#407BFF"/>
<path d="M55.8121 20.5973L55.422 34.6271L7.06552 36.7703L-4.85352 28.2949L6.06008 16.9146L55.8121 20.5973Z" fill="#407BFF"/>
<path d="M52.4761 39.2922L52.8662 52.9342L102.528 54.4319L111.461 46.112L101.522 36.6265L52.4761 39.2922Z" fill="#407BFF"/>
<path d="M53.6277 57.3502L53.2399 71.9303L9.48569 76.4165L-6 65.9603L8.90054 55.1768L53.6277 57.3502Z" fill="#407BFF"/>
<path d="M51.3354 78.4405L51.3656 90.9122L95.5494 94.2258L105.293 86.3332L95.9395 75.5171L51.3354 78.4405Z" fill="#407BFF"/>
<path d="M52.9756 97.1558L53.7558 110.991L16.8214 115.31L3.85742 105.699L16.7192 96.5103L52.9756 97.1558Z" fill="#407BFF"/>
</g>
<defs>
<clipPath id="clip0_6373_49135">
<rect width="119" height="190" fill="white"/>
</clipPath>
</defs>
</svg>
