<svg width="191" height="190" viewBox="0 0 191 190" fill="none" xmlns="http://www.w3.org/2000/svg">
<path d="M98.2289 0.0427394C50.4475 -1.40802 9.05868 34.2454 2.80563 81.028C-4.032 132.179 33.5974 178.202 79.899 185.573C137.491 194.741 193.35 141.7 188.335 84.158C184.556 40.8049 146.799 1.51766 98.2289 0.0427394Z" fill="#F4F7FA"/>
<path d="M124.311 107.441C122.439 102.033 120.49 93.7635 122.466 84.5152C124.737 73.8957 130.109 71.6916 134.781 60.3037C142.275 42.0381 136.228 28.7582 140.513 27.4303C144.974 26.048 156.213 38.9808 156.139 53.0028C156.07 65.9887 146.322 75.1245 145.36 76.0003C137.937 82.7568 132.021 81.4391 127.332 87.82C122.826 93.9525 123.316 101.939 124.311 107.441Z" fill="url(#paint0_linear_6373_49138)"/>
<mask id="mask0_6373_49138" style="mask-type:luminance" maskUnits="userSpaceOnUse" x="121" y="27" width="36" height="81">
<path d="M124.311 107.441C122.439 102.033 120.49 93.7635 122.466 84.5152C124.737 73.8957 130.109 71.6916 134.781 60.3037C142.275 42.0381 136.228 28.7582 140.513 27.4303C144.974 26.048 156.213 38.9808 156.139 53.0028C156.07 65.9887 146.322 75.1245 145.36 76.0003C137.937 82.7568 132.021 81.4391 127.332 87.82C122.826 93.9525 123.316 101.939 124.311 107.441Z" fill="white"/>
</mask>
<g mask="url(#mask0_6373_49138)">
<path opacity="0.5" d="M124.493 119.585C120.817 104.842 121.5 92.1401 126.523 81.8326C129.559 75.6056 133.538 71.5247 137.049 67.9245C141.301 63.5642 144.973 59.798 146.414 53.3876C148.452 44.3149 144.976 33.9429 136.081 22.5597L136.226 22.4463C145.157 33.8747 148.645 44.2983 146.594 53.4277C145.142 59.8893 141.453 63.6725 137.181 68.0531C133.68 71.6431 129.711 75.7126 126.689 81.9133C121.685 92.1806 121.006 104.84 124.672 119.541L124.493 119.585Z" fill="white"/>
</g>
<mask id="mask1_6373_49138" style="mask-type:luminance" maskUnits="userSpaceOnUse" x="121" y="27" width="36" height="81">
<path d="M124.311 107.441C122.439 102.033 120.49 93.7635 122.466 84.5152C124.737 73.8957 130.109 71.6916 134.781 60.3037C142.275 42.0381 136.228 28.7582 140.513 27.4303C144.974 26.048 156.213 38.9808 156.139 53.0028C156.07 65.9887 146.322 75.1245 145.36 76.0003C137.937 82.7568 132.021 81.4391 127.332 87.82C122.826 93.9525 123.316 101.939 124.311 107.441Z" fill="white"/>
</mask>
<g mask="url(#mask1_6373_49138)">
<path opacity="0.5" d="M145.856 55.654L145.83 55.471C145.41 52.5184 144.349 49.6418 142.761 47.1519C140.239 43.1982 136.924 40.9434 134.587 39.7482L134.671 39.5841C137.028 40.7899 140.372 43.0645 142.916 47.0528C144.485 49.5127 145.544 52.3474 145.985 55.2617C148.266 52.9286 150.044 50.1004 151.132 47.0712C153.009 41.8431 152.546 37.115 151.827 34.0693L152.006 34.0269C152.731 37.0966 153.198 41.8624 151.305 47.133C150.188 50.2442 148.349 53.1452 145.986 55.5222L145.856 55.654Z" fill="white"/>
</g>
<mask id="mask2_6373_49138" style="mask-type:luminance" maskUnits="userSpaceOnUse" x="121" y="27" width="36" height="81">
<path d="M124.311 107.441C122.439 102.033 120.49 93.7635 122.466 84.5152C124.737 73.8957 130.109 71.6916 134.781 60.3037C142.275 42.0381 136.228 28.7582 140.513 27.4303C144.974 26.048 156.213 38.9808 156.139 53.0028C156.07 65.9887 146.322 75.1245 145.36 76.0003C137.937 82.7568 132.021 81.4391 127.332 87.82C122.826 93.9525 123.316 101.939 124.311 107.441Z" fill="white"/>
</mask>
<g mask="url(#mask2_6373_49138)">
<path opacity="0.5" d="M134.978 70.3467L135.096 70.1821C136.245 68.58 138.134 65.2125 137.877 60.6633C137.642 56.4938 135.697 53.5205 134.558 52.1193L134.701 52.0031C135.853 53.4218 137.823 56.4316 138.061 60.6527C138.313 65.1079 136.532 68.4426 135.362 70.1241C139.939 69.6567 144.34 68.1348 148.101 65.7163C156.719 60.1752 159.767 51.4818 160.677 48.0015L160.856 48.048C159.94 51.5491 156.873 60.295 148.201 65.8712C144.36 68.3403 139.858 69.8812 135.18 70.3273L134.978 70.3467Z" fill="white"/>
</g>
<mask id="mask3_6373_49138" style="mask-type:luminance" maskUnits="userSpaceOnUse" x="121" y="27" width="36" height="81">
<path d="M124.311 107.441C122.439 102.033 120.49 93.7635 122.466 84.5152C124.737 73.8957 130.109 71.6916 134.781 60.3037C142.275 42.0381 136.228 28.7582 140.513 27.4303C144.974 26.048 156.213 38.9808 156.139 53.0028C156.07 65.9887 146.322 75.1245 145.36 76.0003C137.937 82.7568 132.021 81.4391 127.332 87.82C122.826 93.9525 123.316 101.939 124.311 107.441Z" fill="white"/>
</mask>
<g mask="url(#mask3_6373_49138)">
<path opacity="0.5" d="M125.728 83.9761L125.723 83.8843C125.618 81.7462 125.618 79.5798 125.723 77.4453C125.95 72.8468 126.673 68.2404 127.871 63.7552L128.049 63.8027C126.855 68.2754 126.134 72.8684 125.908 77.4546C125.804 79.5522 125.802 81.6812 125.903 83.7839C130.978 83.5414 135.842 82.3601 140.361 80.2712C150.58 75.5473 156.165 67.3941 158.584 62.9546L158.746 63.0426C156.316 67.5025 150.706 75.6925 140.438 80.4385C135.87 82.5495 130.952 83.7387 125.82 83.9719L125.728 83.9761Z" fill="white"/>
</g>
<path d="M113.353 114.346C111.745 108.581 110.192 99.4742 114.079 90.7565C120.861 75.5477 136.571 78.6418 149.449 61.7378C159.836 48.104 155.096 38.8997 167.201 29.2744C175.888 22.3657 187.31 19.9659 188.944 22.4761C190.702 25.1754 179.257 30.6479 174.05 44.1762C167.275 61.7799 179.201 71.8794 171.986 82.9161C166.498 91.3108 157.553 88.5977 138.05 98.0559C126.711 103.555 118.443 109.947 113.353 114.346Z" fill="url(#paint1_linear_6373_49138)"/>
<mask id="mask4_6373_49138" style="mask-type:luminance" maskUnits="userSpaceOnUse" x="111" y="21" width="79" height="94">
<path d="M113.353 114.346C111.745 108.581 110.192 99.4742 114.079 90.7565C120.861 75.5477 136.571 78.6418 149.449 61.7378C159.836 48.104 155.096 38.8997 167.201 29.2744C175.888 22.3657 187.31 19.9659 188.944 22.4761C190.702 25.1754 179.257 30.6479 174.05 44.1762C167.275 61.7799 179.201 71.8794 171.986 82.9161C166.498 91.3108 157.553 88.5977 138.05 98.0559C126.711 103.555 118.443 109.947 113.353 114.346Z" fill="white"/>
</mask>
<g mask="url(#mask4_6373_49138)">
<path opacity="0.5" d="M110.685 134.411L110.409 134.411C110.431 113.357 115.617 98.2432 125.821 89.4903C130.674 85.3271 135.377 83.623 139.925 81.9756C145.515 79.9499 150.795 78.0367 155.655 71.7339C159.999 66.0993 160.809 61.092 161.667 55.7901C162.457 50.9056 163.274 45.8542 166.828 39.7723C172.157 30.6509 181.133 23.6214 193.506 18.8784L193.604 19.1359C181.292 23.856 172.363 30.8462 167.066 39.9117C163.539 45.9494 162.726 50.9746 161.94 55.8342C161.076 61.1714 160.26 66.2125 155.874 71.9024C150.964 78.2693 145.648 80.1956 140.019 82.2351C135.495 83.8743 130.816 85.5693 126.001 89.7001C115.86 98.3978 110.707 113.441 110.685 134.411Z" fill="white"/>
</g>
<mask id="mask5_6373_49138" style="mask-type:luminance" maskUnits="userSpaceOnUse" x="111" y="21" width="79" height="94">
<path d="M113.353 114.346C111.745 108.581 110.192 99.4742 114.079 90.7565C120.861 75.5477 136.571 78.6418 149.449 61.7378C159.836 48.104 155.096 38.8997 167.201 29.2744C175.888 22.3657 187.31 19.9659 188.944 22.4761C190.702 25.1754 179.257 30.6479 174.05 44.1762C167.275 61.7799 179.201 71.8794 171.986 82.9161C166.498 91.3108 157.553 88.5977 138.05 98.0559C126.711 103.555 118.443 109.947 113.353 114.346Z" fill="white"/>
</mask>
<g mask="url(#mask5_6373_49138)">
<path opacity="0.5" d="M162.612 51.8021L162.482 51.4411C161.282 48.1006 160.734 44.6477 160.853 41.1781C161.133 32.9995 165.102 26.9825 167.443 24.1237L167.656 24.2983C165.337 27.1302 161.406 33.0899 161.128 41.1871C161.015 44.4965 161.515 47.7914 162.614 50.9856C164.49 45.9473 167.29 42.3052 170.941 40.1587C174.776 37.9039 178.27 38.0019 181.969 38.1061C184.256 38.1703 186.62 38.2373 189.097 37.7031C196.682 36.0687 203.352 29.1186 208.923 17.0459L209.174 17.1612C203.564 29.316 196.829 36.3179 189.156 37.9722C186.646 38.5133 184.264 38.4457 181.961 38.3808C178.304 38.2773 174.848 38.18 171.081 40.3955C167.401 42.5592 164.595 46.2751 162.742 51.4398L162.612 51.8021Z" fill="white"/>
</g>
<mask id="mask6_6373_49138" style="mask-type:luminance" maskUnits="userSpaceOnUse" x="111" y="21" width="79" height="94">
<path d="M113.353 114.346C111.745 108.581 110.192 99.4742 114.079 90.7565C120.861 75.5477 136.571 78.6418 149.449 61.7378C159.836 48.104 155.096 38.8997 167.201 29.2744C175.888 22.3657 187.31 19.9659 188.944 22.4761C190.702 25.1754 179.257 30.6479 174.05 44.1762C167.275 61.7799 179.201 71.8794 171.986 82.9161C166.498 91.3108 157.553 88.5977 138.05 98.0559C126.711 103.555 118.443 109.947 113.353 114.346Z" fill="white"/>
</mask>
<g mask="url(#mask6_6373_49138)">
<path opacity="0.5" d="M154.051 73.8951L154.029 73.7516C153.55 70.6216 153.257 67.4343 153.156 64.2768C152.941 57.5309 153.593 50.7333 155.094 44.0737L155.364 44.1345C153.867 50.7713 153.217 57.5454 153.432 64.2685C153.53 67.3667 153.816 70.4939 154.279 73.5666C158.843 72.5983 163.078 70.7576 166.87 68.0941C172.635 64.0442 175.966 59.0203 177.745 55.5183L177.991 55.6433C176.197 59.1728 172.84 64.2374 167.028 68.3191C163.166 71.0316 158.848 72.8978 154.193 73.8661L154.051 73.8951Z" fill="white"/>
</g>
<mask id="mask7_6373_49138" style="mask-type:luminance" maskUnits="userSpaceOnUse" x="111" y="21" width="79" height="94">
<path d="M113.353 114.346C111.745 108.581 110.192 99.4742 114.079 90.7565C120.861 75.5477 136.571 78.6418 149.449 61.7378C159.836 48.104 155.096 38.8997 167.201 29.2744C175.888 22.3657 187.31 19.9659 188.944 22.4761C190.702 25.1754 179.257 30.6479 174.05 44.1762C167.275 61.7799 179.201 71.8794 171.986 82.9161C166.498 91.3108 157.553 88.5977 138.05 98.0559C126.711 103.555 118.443 109.947 113.353 114.346Z" fill="white"/>
</mask>
<g mask="url(#mask7_6373_49138)">
<path opacity="0.5" d="M157.116 87.7559C155.977 87.7559 154.815 87.7172 153.632 87.6365C147.908 87.2438 142.286 85.8841 136.923 83.5948L136.729 83.512L136.883 83.3677C139.641 80.7761 141.786 77.5488 143.086 74.0351C144.152 71.1535 144.658 68.123 144.589 65.0282L144.864 65.022C144.934 68.1519 144.422 71.2164 143.344 74.1303C142.054 77.6185 139.94 80.8271 137.225 83.4229C142.501 85.6501 148.027 86.9746 153.651 87.3611C166.176 88.2204 176.333 84.2546 182.648 80.7761L182.781 81.0176C177.029 84.1856 168.107 87.7559 157.116 87.7559Z" fill="white"/>
</g>
<mask id="mask8_6373_49138" style="mask-type:luminance" maskUnits="userSpaceOnUse" x="111" y="21" width="79" height="94">
<path d="M113.353 114.346C111.745 108.581 110.192 99.4742 114.079 90.7565C120.861 75.5477 136.571 78.6418 149.449 61.7378C159.836 48.104 155.096 38.8997 167.201 29.2744C175.888 22.3657 187.31 19.9659 188.944 22.4761C190.702 25.1754 179.257 30.6479 174.05 44.1762C167.275 61.7799 179.201 71.8794 171.986 82.9161C166.498 91.3108 157.553 88.5977 138.05 98.0559C126.711 103.555 118.443 109.947 113.353 114.346Z" fill="white"/>
</mask>
<g mask="url(#mask8_6373_49138)">
<path opacity="0.5" d="M145.255 99.9649C143.742 98.1256 140.435 94.8624 135.287 93.6808C126.266 91.6096 119.211 97.6956 118.437 98.3969L118.187 98.6232L118.207 98.2864C118.402 95.0433 119.011 91.8477 120.016 88.7888C121.72 83.6097 124.501 78.9096 128.284 74.8188L128.486 75.0059C124.73 79.0669 121.969 83.7332 120.278 88.8751C119.314 91.8077 118.717 94.8666 118.503 97.9724C120.031 96.6707 126.82 91.455 135.348 93.4124C140.575 94.6126 143.931 97.9234 145.467 99.7903L145.255 99.9649Z" fill="white"/>
</g>
<path d="M112.607 109.382C115.834 106.608 120.813 102.782 127.502 99.3753C143.076 91.443 150.968 94.4198 159.477 87.0562C169.938 78.0038 167.905 64.9434 171.339 65.0263C176.387 65.1491 186.534 93.5211 174.164 105.381C166.242 112.976 151.916 111.082 148.991 110.617C142.068 109.516 140.189 107.069 133.174 106.154C124.642 105.042 117.332 107.347 112.607 109.382Z" fill="url(#paint2_linear_6373_49138)"/>
<mask id="mask9_6373_49138" style="mask-type:luminance" maskUnits="userSpaceOnUse" x="112" y="65" width="69" height="47">
<path d="M112.607 109.382C115.834 106.608 120.813 102.782 127.502 99.3753C143.076 91.443 150.968 94.4198 159.477 87.0562C169.938 78.0038 167.905 64.9434 171.339 65.0263C176.387 65.1491 186.534 93.5211 174.164 105.381C166.242 112.976 151.916 111.082 148.991 110.617C142.068 109.516 140.189 107.069 133.174 106.154C124.642 105.042 117.332 107.347 112.607 109.382Z" fill="white"/>
</mask>
<g mask="url(#mask9_6373_49138)">
<path opacity="0.5" d="M108.774 111.822L108.605 111.604C117.842 104.46 127.069 100.909 136.032 101.057C140.864 101.135 144.618 102.243 147.932 103.221C152.292 104.508 156.058 105.618 160.611 103.745C166.425 101.352 170.867 95.1654 173.117 86.3235C176.723 72.1568 168.741 60.3312 166.209 57.0439L166.428 56.8755C168.979 60.1877 177.02 72.1044 173.385 86.3911C171.113 95.3193 166.613 101.573 160.717 103.999C156.073 105.91 152.265 104.786 147.855 103.485C144.559 102.512 140.823 101.41 136.028 101.332C127.132 101.185 117.96 104.718 108.774 111.822Z" fill="white"/>
<path opacity="0.5" d="M170.103 94.5471L170.155 94.2752C170.924 90.2155 170.924 86.1062 170.155 82.0624C169.308 77.6066 167.49 73.2709 164.897 69.5239L165.123 69.3672C167.738 73.1452 169.571 77.5169 170.425 82.0106C171.183 85.9978 171.2 90.0478 170.476 94.0522C172.656 92.9314 175.602 90.8953 177.751 87.4272C182.334 80.0326 179.677 71.8939 179.098 70.3383L179.356 70.2423C179.943 71.8201 182.635 80.0691 177.985 87.5728C175.719 91.2294 172.583 93.3172 170.351 94.4242L170.103 94.5471Z" fill="white"/>
<path opacity="0.5" d="M164.278 109.995C161.427 109.995 158.353 109.603 155.187 108.578C151.335 107.33 147.786 105.306 144.637 102.563L144.322 102.288L144.739 102.322C150.787 102.806 156.453 100.112 159.522 95.2877C162.799 90.1348 161.716 84.5981 161.306 83.0238L161.574 82.9541C161.99 84.5553 163.092 90.1879 159.754 95.4354C156.701 100.236 151.128 102.968 145.132 102.625C148.174 105.207 151.583 107.121 155.272 108.316C165.773 111.717 175.26 108.09 178.851 106.372L178.97 106.62C176.43 107.835 170.969 109.995 164.278 109.995Z" fill="white"/>
<path opacity="0.5" d="M148.94 116.746C147.462 113.584 143.945 107.791 136.998 104.52C134.074 103.144 130.912 102.384 127.599 102.261L127.591 101.985C133.138 101.444 137.175 99.8748 139.592 97.3211C139.809 97.0913 140.09 96.7731 140.516 96.2914C141.088 95.6433 141.954 94.6639 143.281 93.2035C144.607 91.7452 145.949 90.2965 147.269 88.8975L147.469 89.0866C146.151 90.4842 144.81 91.9315 143.486 93.3885C142.158 94.8482 141.294 95.8262 140.723 96.4736C140.296 96.9574 140.013 97.277 139.793 97.5102C137.553 99.8776 133.963 101.413 129.11 102.085C131.916 102.355 134.603 103.088 137.116 104.271C144.141 107.578 147.696 113.433 149.189 116.629L148.94 116.746Z" fill="white"/>
</g>
<path d="M18.4272 112.966L91.3056 117.407L172.222 112.744L92.4155 138.046L18.4272 112.966Z" fill="url(#paint3_linear_6373_49138)"/>
<path d="M77.4222 189.376L18.1197 166.249C12.2904 164.681 7.76074 158.904 7.76074 153.303V153.241C7.76074 147.64 12.2897 143.882 18.1197 144.91L81.622 162.618L77.4222 189.376Z" fill="url(#paint4_linear_6373_49138)"/>
<path d="M172.322 170.128L80.212 188.121C74.3537 188.775 69.5376 184.69 69.5376 178.987V175.118C69.5376 169.415 74.3537 164.41 80.212 163.943L172.322 148.95C168.183 156.655 167.228 163.863 172.322 170.128Z" fill="url(#paint5_linear_6373_49138)"/>
<path d="M173.136 171.166L80.9957 189.322C73.3547 190.188 67.0229 184.837 67.0229 177.376V177.294C67.0229 169.833 73.3547 163.27 80.9957 162.674L173.136 147.829C173.699 147.785 174.154 148.254 174.154 148.876C174.154 149.498 173.699 150.04 173.136 150.085L80.9957 165.251C74.8489 165.751 69.7733 171.039 69.7733 177.031V177.113C69.7733 183.105 74.8489 187.422 80.9957 186.746L173.136 168.909C173.699 168.847 174.154 169.301 174.154 169.924C174.154 170.546 173.698 171.102 173.136 171.166Z" fill="url(#paint6_linear_6373_49138)"/>
<path d="M79.8544 162.681L18.1197 144.911C12.2904 143.882 7.76074 136.241 7.76074 127.831V127.738C7.76074 119.328 12.2897 112.654 18.1197 112.87L83.5213 122.795L79.8544 162.681Z" fill="url(#paint7_linear_6373_49138)"/>
<path d="M172.321 146.196L85.4532 160.403C76.7459 161.06 69.5376 154.662 69.5376 146.1V140.291C69.5376 131.729 76.7465 124.591 85.4532 124.353L172.321 114.399C168.169 125.944 167.241 136.754 172.321 146.196Z" fill="url(#paint8_linear_6373_49138)"/>
<path d="M173.136 147.829L80.9957 162.674C73.3547 163.27 67.0229 154.65 67.0229 143.448V143.325C67.0229 132.122 73.3547 122.852 80.9957 122.661L173.136 112.788C173.699 112.774 174.154 113.52 174.154 114.454C174.154 115.388 173.699 116.159 173.136 116.176L80.9957 126.53C74.8489 126.715 69.7733 134.187 69.7733 143.184V143.307C69.7733 152.304 74.8489 159.254 80.9957 158.806L173.136 144.442C173.699 144.401 174.154 145.125 174.154 146.059C174.154 146.993 173.698 147.785 173.136 147.829Z" fill="url(#paint9_linear_6373_49138)"/>
<path opacity="0.5" d="M61.1505 154.251L46.8389 150.377C43.8283 142.16 44.0547 134.611 46.8389 125.589L61.1505 128.126C58.5078 137.621 58.9081 146.22 61.1505 154.251Z" fill="white"/>
<path d="M174.865 108.066L17.4561 106.548V111.04C17.4561 112.26 18.1428 113.296 19.0725 113.481L63.583 122.327C64.111 122.432 64.6473 122.459 65.1801 122.41L173.155 112.324C174.119 112.234 174.865 111.194 174.865 109.941V108.066Z" fill="url(#paint10_linear_6373_49138)"/>
<path d="M124.194 100.784L19.1895 109.002C17.3108 109.149 15.7827 107.586 15.7827 105.511V22.3809C15.7827 20.3062 17.3108 18.6235 19.1895 18.6235H124.194C125.743 18.6235 126.994 20.144 126.994 22.0199V97.1683C126.994 99.0436 125.743 100.662 124.194 100.784Z" fill="url(#paint11_linear_6373_49138)"/>
<path d="M125.868 100.784L20.8628 109.002C18.9834 109.149 17.4561 107.586 17.4561 105.511V22.3809C17.4561 20.3062 18.9841 18.6235 20.8628 18.6235H125.868C127.416 18.6235 128.667 20.144 128.667 22.0199V97.1683C128.667 99.0436 127.416 100.662 125.868 100.784Z" fill="url(#paint12_linear_6373_49138)"/>
<path d="M122.598 95.4855L24.7967 102.624C23.2672 102.736 22.0249 101.453 22.0249 99.7591V26.9787C22.0249 25.285 23.2672 23.906 24.7967 23.8991L122.598 23.4512C123.874 23.445 124.908 24.6914 124.908 26.234V92.5239C124.908 94.0665 123.874 95.3923 122.598 95.4855Z" fill="url(#paint13_linear_6373_49138)"/>
<path d="M77.0756 20.8966C77.0756 21.669 76.5352 22.297 75.8678 22.2991C75.1997 22.3012 74.6572 21.6759 74.6572 20.9015C74.6572 20.1271 75.1997 19.499 75.8678 19.499C76.5345 19.499 77.0756 20.1243 77.0756 20.8966Z" fill="white"/>
<path opacity="0.48" d="M100.568 77.9833C92.4733 73.1597 86.1085 79.2719 79.9659 73.2418C76.2416 69.5859 78.0699 66.8597 73.4878 61.3962C68.4122 55.3454 65.1083 57.3793 60.0072 51.9331C53.5574 45.0472 56.7833 39.6893 51.2281 34.7455C44.4884 28.7478 37.2201 34.299 30.8049 28.547C28.0379 26.0658 26.5195 22.4596 25.7265 18.6235H19.4493C18.3492 18.6235 17.4561 19.6112 17.4561 20.8287V107.001C17.4561 108.219 18.3492 109.135 19.4493 109.049L126.466 100.637C126.991 100.595 127.457 100.256 127.756 99.7634C119.922 99.4473 115.109 96.5389 112.033 93.5325C106.015 87.6507 107.058 81.8504 100.568 77.9833Z" fill="white"/>
<path d="M123.248 100.411L17.4561 109.062L63.583 118.229C64.111 118.333 64.6473 118.361 65.1801 118.311L174.865 108.066L124.93 100.47C124.372 100.385 123.809 100.365 123.248 100.411Z" fill="url(#paint14_linear_6373_49138)"/>
<path opacity="0.3" d="M32.8936 109.279L120.968 101.97L148.226 106.084L60.9108 113.896L32.8936 109.279Z" fill="url(#paint15_linear_6373_49138)"/>
<path d="M117.143 51.5186L97.6741 41.4633L77.2509 30.9146L33.6997 53.409L33.8384 53.4739V54.2724L77.2937 74.7577L117.104 52.3143V51.5517L117.084 51.5524L117.143 51.5186Z" fill="white"/>
<path d="M102.54 63.0889L77.2518 77.3881L49.4492 64.3885V83.1966C49.4492 86.279 51.7965 88.8561 54.8665 89.1363C59.8406 89.5905 67.7673 90.0384 76.6286 89.4925C85.2552 88.9604 92.8106 87.6021 97.5025 86.5916C100.443 85.9587 102.54 83.3581 102.54 80.3503V63.0889Z" fill="white"/>
<path d="M117.119 80.8355C116.838 80.8507 116.863 80.6016 116.863 80.2951V53.2779C116.863 52.6671 116.294 52.2792 115.733 52.2923L77.545 53.1882C77.24 53.1951 76.9922 52.937 76.9922 52.6174C76.9922 52.2979 77.24 52.0287 77.545 52.0218L115.733 51.1729C116.854 51.148 117.374 52.0439 117.374 53.2655V80.2675C117.375 80.5739 117.399 80.8203 117.119 80.8355Z" fill="white"/>
<path d="M117.931 51.8524C117.671 51.3506 118.034 51.1229 117.376 51.1374L77.546 52.0229C77.2409 52.0298 76.9932 52.2989 76.9932 52.6185C76.9932 52.9381 77.2409 53.1962 77.546 53.1893L115.734 52.2934C116.045 52.2858 116.358 52.4025 116.576 52.6116L117.104 52.3134L117.931 51.8524Z" fill="url(#paint16_linear_6373_49138)"/>
<path d="M118.334 75.1585L117.836 74.3448C117.671 74.0349 117.328 73.8568 116.993 73.8782C116.658 73.9003 116.336 74.1204 116.18 74.4517L115.74 75.3469C115.639 75.5629 115.565 75.8017 115.565 76.0405V83.4006C115.565 83.5587 116.332 83.6422 117.104 83.598C117.874 83.5532 118.637 83.3813 118.637 83.2239V75.868C118.637 75.6147 118.449 75.3738 118.334 75.1585Z" fill="white"/>
<defs>
<linearGradient id="paint0_linear_6373_49138" x1="150.352" y1="40.477" x2="126.314" y2="79.1846" gradientUnits="userSpaceOnUse">
<stop stop-color="#3378C9"/>
<stop offset="0.0521" stop-color="#3378C9"/>
<stop offset="0.1424" stop-color="#3378C9"/>
<stop offset="0.3183" stop-color="#3378C9"/>
<stop offset="0.4849" stop-color="#3378C9"/>
<stop offset="0.7754" stop-color="#3378C9"/>
<stop offset="0.8658" stop-color="#3378C9"/>
<stop offset="1" stop-color="#3378C9"/>
</linearGradient>
<linearGradient id="paint1_linear_6373_49138" x1="162.733" y1="28.647" x2="133.941" y2="114.552" gradientUnits="userSpaceOnUse">
<stop stop-color="#10923E" stop-opacity="0.62"/>
<stop offset="0.9964" stop-color="#40A865"/>
</linearGradient>
<linearGradient id="paint2_linear_6373_49138" x1="181.754" y1="75.8827" x2="97.145" y2="145.383" gradientUnits="userSpaceOnUse">
<stop offset="0.00359712" stop-color="#407BFF"/>
<stop offset="1" stop-color="#9571F6"/>
</linearGradient>
<linearGradient id="paint3_linear_6373_49138" x1="18.427" y1="125.395" x2="172.222" y2="125.395" gradientUnits="userSpaceOnUse">
<stop stop-color="#00862D"/>
<stop offset="0.9964" stop-color="#6165D7"/>
</linearGradient>
<linearGradient id="paint4_linear_6373_49138" x1="37.9117" y1="180.956" x2="48.2016" y2="157.552" gradientUnits="userSpaceOnUse">
<stop stop-color="#0033CC"/>
<stop offset="0.9964" stop-color="#0033CC"/>
</linearGradient>
<linearGradient id="paint5_linear_6373_49138" x1="69.538" y1="168.57" x2="172.322" y2="168.57" gradientUnits="userSpaceOnUse">
<stop offset="0.494" stop-color="#EAEDF3"/>
<stop offset="1" stop-color="white"/>
</linearGradient>
<linearGradient id="paint6_linear_6373_49138" x1="67.023" y1="168.62" x2="174.154" y2="168.62" gradientUnits="userSpaceOnUse">
<stop stop-color="#0033CC"/>
<stop offset="0.9964" stop-color="#F36F56"/>
</linearGradient>
<linearGradient id="paint7_linear_6373_49138" x1="53.292" y1="111.655" x2="34.5287" y2="174.858" gradientUnits="userSpaceOnUse">
<stop stop-color="#00862D"/>
<stop offset="0.9964" stop-color="#6165D7"/>
</linearGradient>
<linearGradient id="paint8_linear_6373_49138" x1="69.5373" y1="137.424" x2="172.321" y2="137.424" gradientUnits="userSpaceOnUse">
<stop offset="0.494" stop-color="#EAEDF3"/>
<stop offset="1" stop-color="white"/>
</linearGradient>
<linearGradient id="paint9_linear_6373_49138" x1="67.023" y1="137.746" x2="174.154" y2="137.746" gradientUnits="userSpaceOnUse">
<stop stop-color="#00862D"/>
<stop offset="0.9964" stop-color="#6165D7"/>
</linearGradient>
<linearGradient id="paint10_linear_6373_49138" x1="83.9067" y1="114.26" x2="72.8374" y2="118.909" gradientUnits="userSpaceOnUse">
<stop stop-color="#40447E"/>
<stop offset="0.9964" stop-color="#3C3B6B"/>
</linearGradient>
<linearGradient id="paint11_linear_6373_49138" x1="69.0191" y1="60.7607" x2="56.7241" y2="65.9246" gradientUnits="userSpaceOnUse">
<stop stop-color="#40447E"/>
<stop offset="0.9964" stop-color="#3C3B6B"/>
</linearGradient>
<linearGradient id="paint12_linear_6373_49138" x1="17.456" y1="63.8171" x2="128.667" y2="63.8171" gradientUnits="userSpaceOnUse">
<stop stop-color="#40447E"/>
<stop offset="0.9964" stop-color="#3C3B6B"/>
</linearGradient>
<linearGradient id="paint13_linear_6373_49138" x1="95.8162" y1="41.5885" x2="33.3312" y2="92.3797" gradientUnits="userSpaceOnUse">
<stop stop-color="#00862D"/>
<stop offset="1" stop-color="#3378C9"/>
</linearGradient>
<linearGradient id="paint14_linear_6373_49138" x1="17.456" y1="109.361" x2="174.865" y2="109.361" gradientUnits="userSpaceOnUse">
<stop stop-color="#40447E"/>
<stop offset="0.9964" stop-color="#3C3B6B"/>
</linearGradient>
<linearGradient id="paint15_linear_6373_49138" x1="32.8935" y1="107.933" x2="148.226" y2="107.933" gradientUnits="userSpaceOnUse">
<stop stop-color="#40447E"/>
<stop offset="0.9964" stop-color="#3C3B6B"/>
</linearGradient>
<linearGradient id="paint16_linear_6373_49138" x1="103.468" y1="47.208" x2="42.5031" y2="96.7635" gradientUnits="userSpaceOnUse">
<stop stop-color="#FF9085"/>
<stop offset="1" stop-color="#FB6FBB"/>
</linearGradient>
</defs>
</svg>
