<svg width="203" height="204" viewBox="0 0 203 204" fill="none" xmlns="http://www.w3.org/2000/svg">
<path d="M183.956 90.1213C181.921 136.463 139.721 172.251 89.6989 170.055C39.6771 167.859 0.775829 128.512 2.81017 82.1695C4.84452 35.8267 47.0443 0.0396316 97.0668 2.23554C147.089 4.43144 185.99 43.7791 183.956 90.1213Z" fill="url(#paint0_linear_6373_49141)"/>
<path d="M24.3919 29.7225C22.4022 32.9175 20.8674 36.5136 21.1558 40.2662C21.4895 44.6113 23.689 48.6807 23.8016 53.037C23.9929 60.4255 18.2895 66.61 16.5103 73.7837C14.5213 81.802 22.0195 90.9378 25.0069 95.4132C27.9943 99.8887 26.7104 91.7817 28.5222 88.6207C30.3341 85.4597 34.2398 101.922 40.3414 105.535C43.6151 107.474 47.4556 108.764 49.8102 111.752C53.244 116.111 52.2924 122.313 51.7773 127.838C51.2614 133.363 52.0338 140.096 57.0094 142.553C59.9394 143.999 63.6631 143.509 66.3068 145.429C70.9501 148.8 68.7316 156.15 70.5718 161.584C72.5728 167.495 76.5395 167.573 82.6779 168.825C88.8164 170.078 81.9049 156.593 84.7803 151.88C86.2917 149.403 88.5988 147.432 89.7907 144.786C91.4438 141.117 90.9783 136.214 94.1853 133.783C96.5896 131.961 99.9341 132.454 102.951 132.427C105.967 132.4 109.636 131.091 109.978 128.094C110.282 125.435 107.619 123.314 105.015 122.698C102.41 122.082 99.6343 122.376 97.0764 121.588C89.7595 119.334 86.3463 109.095 78.7056 108.616C72.1739 108.207 66.7036 115.538 60.2859 114.257C56.7083 113.544 54.2594 110.375 51.6037 107.874C48.1918 104.66 43.958 102.248 41.2491 98.424C38.5402 94.5991 38.0796 88.4861 41.9329 85.8183C44.7956 83.8364 48.8621 84.6413 51.6901 86.6721C54.5181 88.7029 56.444 91.7158 58.5209 94.5105C59.1621 95.3736 59.8884 96.2678 60.9145 96.5888C63.6758 97.4532 65.691 93.5681 65.0299 90.7515C64.3695 87.9341 62.3791 85.4569 62.2856 82.5645C62.1212 77.4676 67.6092 74.2336 72.4247 72.5543C77.2395 70.875 82.9146 68.8725 84.3303 63.9733C84.8306 62.243 84.6995 60.3383 85.4627 58.7071C87.9916 53.2999 101.337 50.6002 98.147 47.4647C94.957 44.3293 84.832 43.6476 82.8607 37.3327C82.155 35.0723 81.428 32.0835 79.0698 31.8653C75.2286 31.5088 73.0369 36.2634 69.815 37.0797C68.2852 37.4673 68.1385 40.065 68.198 43.26C68.2412 45.5785 66.3968 47.4938 64.0783 47.5377C61.7598 47.5817 59.8438 45.7379 59.7999 43.4187C59.7836 42.5578 59.9345 41.6884 60.2881 40.8203C60.9081 39.2997 62.0865 38.0838 63.274 36.9501C68.2299 32.2181 83.0166 27.0192 79.9201 25.0054C76.8236 22.9909 61.9624 17.4328 59.7453 20.5003C57.5288 23.5677 61.1951 20.9701 62.0893 24.6086C62.9835 28.2465 51.0956 27.759 45.5991 29.3342C44.6914 29.5942 43.6852 29.8472 42.8349 29.4362C41.8854 28.9764 41.4851 27.871 40.9699 26.9498C38.2093 22.0181 29.0274 25.2194 29.0274 25.2194C29.0274 25.2194 26.1697 26.8683 24.3919 29.7225Z" fill="url(#paint1_linear_6373_49141)"/>
<path d="M63.8126 8.09511C62.4783 10.583 66.4471 10.5426 66.8418 13.3386C70.4145 13.7277 71.8819 8.09441 75.4157 7.43755C77.4096 7.06625 79.3433 8.49546 80.4268 10.2102C81.5102 11.925 82.0161 13.9381 82.9344 15.7464C84.9922 19.7988 89.2416 22.6501 93.7715 23.0193C94.7572 23.0994 95.8427 23.0363 96.5846 22.383C98.738 20.4854 95.6571 16.9205 96.4578 14.1641C97.3726 11.0145 101.915 11.4921 104.984 10.3371C105.831 10.0182 112.343 8.28076 112.448 7.38228C112.633 5.78938 109.612 4.77539 106.233 3.90596C100.507 2.43352 90.4313 2.49446 85.5066 2.94016C78.9543 3.53253 68.0386 3.05353 63.8126 8.09511Z" fill="url(#paint2_linear_6373_49141)"/>
<path d="M169.923 113.776C171.408 104.483 171.284 94.9337 169.56 85.6817C169.1 83.2137 168.023 80.271 165.537 79.916C162.662 79.505 159.143 82.8077 157.343 80.5282C156.549 79.522 156.865 78.0574 157.315 76.857C158.502 73.6911 160.36 70.7795 162.731 68.3689C164.203 66.8716 165.889 65.5438 167.023 63.7765C169.448 59.9955 167.746 54.4707 164.313 51.5733C160.88 48.6759 156.452 53.8719 152.843 51.8093C149.234 49.7466 149.122 44.744 148.444 40.6427C147.941 37.605 145.704 29.3762 143.232 33.3839C140.759 37.3917 146.529 53.3455 153.023 60.9932C153.806 61.9158 154.671 62.9489 154.605 64.157C154.447 67.0424 150.242 66.9142 147.414 67.5051C143.912 68.2364 138.546 66.3615 141.507 72.4624C143.069 75.68 150.53 80.0846 148.525 82.238C146.521 84.3914 140.357 90.6291 137.465 95.6742C134.573 100.719 133.172 107.001 135.352 112.391C137.533 117.781 144.09 121.504 149.444 119.232C151.949 118.17 154.68 115.96 157.009 117.368C159.118 118.644 158.807 121.704 158.703 124.166C158.599 126.629 160.018 129.897 162.414 129.319C163.202 129.129 163.822 128.531 164.354 127.919C167.724 124.045 169.113 118.846 169.923 113.776Z" fill="url(#paint3_linear_6373_49141)"/>
<path opacity="0.17" d="M87.8531 146.832C127.143 146.832 158.993 116.744 158.993 79.6281C158.993 42.5122 127.143 12.4238 87.8531 12.4238C48.5637 12.4238 16.7134 42.5122 16.7134 79.6281C16.7134 116.744 48.5637 146.832 87.8531 146.832Z" fill="white"/>
<g opacity="0.68">
<path d="M115.712 87.429C115.69 102.238 114.678 117.077 112.079 131.676C111.421 135.322 110.658 138.952 109.748 142.546C108.835 146.14 107.781 149.702 106.491 153.184C105.843 154.923 105.136 156.643 104.339 158.323C103.542 160.002 102.657 161.646 101.63 163.204C100.598 164.755 99.4275 166.241 97.9855 167.462C97.2649 168.068 96.4734 168.605 95.6047 168.998C94.7374 169.39 93.7907 169.636 92.8299 169.655C91.8697 169.683 90.9089 169.494 90.0246 169.137C89.1367 168.784 88.3268 168.271 87.5885 167.685C86.1118 166.503 84.9157 165.033 83.8656 163.494C82.8176 161.948 81.9226 160.311 81.112 158.637C80.3049 156.961 79.5878 155.246 78.9338 153.508C77.6265 150.033 76.5622 146.473 75.641 142.882C74.722 139.29 73.951 135.662 73.2871 132.017C71.9628 124.724 71.0607 117.36 70.4542 109.978C69.8519 102.593 69.5521 95.1852 69.5203 87.7762C69.5047 84.0725 69.5975 80.3687 69.7272 76.6678C69.8625 72.9668 70.0623 69.268 70.3316 65.5735C70.8722 58.1865 71.6836 50.8158 72.8924 43.5053C73.499 39.8511 74.2076 36.2125 75.06 32.6058C75.9145 29.0006 76.9087 25.4236 78.1416 21.9246C78.7616 20.1766 79.4397 18.4476 80.2128 16.7598C80.9852 15.0719 81.8489 13.4209 82.865 11.8606C83.8833 10.3067 85.0531 8.82433 86.5093 7.63816C87.237 7.05003 88.0391 6.53914 88.9171 6.19264C89.7914 5.84189 90.7395 5.66333 91.6841 5.69876C92.6286 5.72569 93.5597 5.96235 94.4185 6.34145C95.2787 6.72266 96.0702 7.24135 96.7965 7.82876C98.2498 9.0121 99.453 10.459 100.52 11.9789C101.584 13.5052 102.512 15.1201 103.35 16.7768C104.189 18.4327 104.937 20.1326 105.628 21.8538C107.003 25.2996 108.138 28.8348 109.126 32.406C110.111 35.9794 110.944 39.5925 111.665 43.2268C114.517 57.7769 115.673 72.6175 115.712 87.429ZM114.811 87.429C114.821 80.0449 114.538 72.6593 113.922 65.3014C113.312 57.9434 112.389 50.6074 111.018 43.353C110.333 39.7264 109.535 36.1197 108.586 32.5534C107.634 28.9892 106.536 25.4605 105.2 22.0238C104.529 20.3069 103.801 18.612 102.982 16.9617C102.166 15.3114 101.261 13.7036 100.223 12.1859C99.1823 10.6751 98.0089 9.23956 96.5995 8.0711C95.8952 7.49077 95.1299 6.97988 94.3016 6.60433C93.474 6.23303 92.5826 5.98999 91.6756 5.9666C90.7693 5.93755 89.8637 6.11824 89.0255 6.46261C88.1844 6.80344 87.412 7.30441 86.7084 7.88332C85.3012 9.05036 84.1617 10.5171 83.1711 12.0597C82.1827 13.6087 81.3409 15.2512 80.5905 16.932C79.8387 18.6134 79.1804 20.3367 78.5802 22.0791C77.3856 25.5682 76.4283 29.1366 75.6091 32.7348C74.7921 36.3344 74.1197 39.9659 73.5472 43.613C72.4078 50.9093 71.6644 58.2644 71.1918 65.6344C70.7157 73.0051 70.5413 80.3928 70.5541 87.777C70.5399 95.1604 70.7915 102.546 71.3449 109.91C71.9032 117.272 72.7557 124.615 74.0283 131.886C74.666 135.521 75.4107 139.138 76.3028 142.717C77.1964 146.295 78.2323 149.84 79.5071 153.296C80.1448 155.024 80.8449 156.728 81.6321 158.39C82.4222 160.048 83.2959 161.67 84.3141 163.193C85.3345 164.709 86.4951 166.148 87.9045 167.29C88.6088 167.857 89.3762 168.348 90.2067 168.684C91.0343 169.021 91.9243 169.208 92.815 169.178C93.7057 169.156 94.5836 168.922 95.3971 168.549C96.2119 168.174 96.9623 167.659 97.6518 167.071C99.0307 165.889 100.167 164.433 101.168 162.904C103.16 159.822 104.637 156.423 105.905 152.97C107.162 149.507 108.188 145.96 109.072 142.38C109.954 138.798 110.69 135.18 111.322 131.544C112.585 124.271 113.427 116.927 113.986 109.565C114.552 102.2 114.813 94.8139 114.811 87.429Z" fill="white"/>
<path d="M154.865 87.4479C154.817 96.9777 153.594 106.512 151.046 115.703C148.455 124.874 144.551 133.698 139.245 141.621C136.591 145.579 133.585 149.305 130.225 152.685C126.867 156.064 123.152 159.099 119.118 161.64C115.08 164.171 110.719 166.198 106.153 167.573C101.589 168.951 96.8261 169.671 92.0574 169.677C87.2893 169.674 82.5241 168.959 77.9594 167.583C73.3918 166.211 69.0269 164.188 64.9859 161.659C60.9484 159.12 57.2297 156.087 53.8661 152.709C50.5017 149.33 47.4902 145.605 44.8316 141.648C39.5165 133.723 35.6058 124.895 33.0053 115.722C30.4381 106.529 29.2187 96.9848 29.1797 87.4487C29.2031 82.6792 29.5205 77.9118 30.1512 73.1849C30.7846 68.4586 31.7377 63.7734 33.0209 59.1804C35.6264 50.0099 39.5427 41.1866 44.8607 33.2689C47.52 29.3143 50.5315 25.5928 53.8958 22.2171C57.2595 18.8435 60.9753 15.8129 65.0128 13.2804C69.0532 10.7571 73.4166 8.74546 77.9778 7.37364C82.5361 5.99686 87.2943 5.27764 92.0574 5.27197C96.8205 5.28118 101.578 6.00323 106.134 7.38285C110.693 8.7575 115.054 10.772 119.091 13.2981C123.125 15.8327 126.836 18.8655 130.195 22.2405C133.554 25.6176 136.561 29.3398 139.216 33.2944C144.525 41.2114 148.434 50.0304 151.03 59.1981C153.584 68.3842 154.811 77.9175 154.865 87.4479ZM153.832 87.4479C153.814 78.0068 152.634 68.5564 150.139 59.444C147.628 50.3465 143.846 41.5664 138.647 33.672C136.049 29.7288 133.099 26.0122 129.796 22.6351C126.491 19.2623 122.841 16.2132 118.852 13.6779C114.857 11.1561 110.544 9.12738 106.023 7.75486C101.503 6.3802 96.785 5.65815 92.0581 5.64327C87.3311 5.66169 82.614 6.38729 78.0961 7.76407C73.576 9.14014 69.2657 11.1716 65.275 13.6963C61.2892 16.2345 57.6435 19.2857 54.3429 22.6592C51.0438 26.0378 48.0989 29.755 45.5055 33.6983C40.3151 41.5919 36.5405 50.3684 34.0392 59.4624C32.7942 64.0151 31.8907 68.657 31.2799 73.3344C30.6677 78.0124 30.3651 82.7295 30.3538 87.4487C30.368 92.1671 30.6734 96.8842 31.2877 101.562C31.9014 106.238 32.8076 110.879 34.0547 115.43C36.5617 124.521 40.3413 133.293 45.5345 141.18C48.1287 145.12 51.0742 148.833 54.3727 152.208C57.6726 155.578 61.3161 158.627 65.3019 161.158C69.292 163.677 73.6009 165.696 78.1145 167.072C82.6254 168.451 87.3361 169.18 92.0581 169.201C96.7794 169.182 101.492 168.458 106.004 167.082C110.52 165.71 114.832 163.693 118.825 161.176C122.813 158.647 126.462 155.6 129.766 152.232C133.07 148.858 136.02 145.145 138.618 141.205C143.82 133.317 147.607 124.542 150.123 115.447C152.624 106.337 153.809 96.8884 153.832 87.4479Z" fill="white"/>
<path d="M19.0903 52.7971L37.9854 52.6724L56.8805 52.6009L94.6714 52.5435L132.462 52.6065L151.358 52.6845L170.253 52.8198C170.278 52.8198 170.298 52.8404 170.298 52.8659C170.298 52.8907 170.277 52.9112 170.253 52.9112L151.358 53.0466L132.462 53.1245L94.6714 53.1876L56.8805 53.1302L37.9854 53.0586L19.0903 52.9332C19.0527 52.9332 19.0223 52.9027 19.023 52.8652C19.023 52.8276 19.0534 52.7978 19.0903 52.7971Z" fill="white"/>
<path d="M40.0751 22.4983L53.4901 22.3729L66.905 22.302C71.3768 22.2716 75.8487 22.2751 80.3199 22.2659L93.7348 22.2446L120.565 22.3077L133.98 22.3856C138.452 22.4317 142.924 22.4586 147.395 22.521C147.421 22.5217 147.441 22.5422 147.441 22.567C147.441 22.5918 147.42 22.6117 147.395 22.6124C142.923 22.6747 138.451 22.7017 133.98 22.7477L120.565 22.8257L93.7348 22.8887L80.3199 22.8675C75.848 22.8583 71.3761 22.8611 66.905 22.8313L53.4901 22.7605L40.0751 22.6351C40.0376 22.6351 40.0078 22.6039 40.0078 22.5663C40.0085 22.5288 40.0383 22.499 40.0751 22.4983Z" fill="white"/>
<path d="M12.8037 83.0952L33.3406 82.9698L53.8775 82.8982L94.9513 82.8408L136.025 82.9039L156.562 82.9818L177.099 83.1172C177.124 83.1172 177.144 83.1377 177.144 83.1632C177.144 83.188 177.124 83.2086 177.099 83.2086L156.562 83.3439L136.025 83.4219L94.9513 83.4849L53.8775 83.4275L33.3406 83.356L12.8037 83.2313C12.7661 83.2313 12.7356 83.2001 12.7363 83.1632C12.7363 83.125 12.7668 83.0952 12.8037 83.0952Z" fill="white"/>
<path d="M19.0903 113.393L37.9854 113.268L56.8805 113.197L94.6714 113.139L132.462 113.202L151.358 113.28L170.253 113.416C170.278 113.416 170.298 113.436 170.298 113.462C170.298 113.486 170.277 113.507 170.253 113.507L151.358 113.642L132.462 113.72L94.6714 113.783L56.8805 113.726L37.9854 113.654L19.0903 113.53C19.0527 113.53 19.0223 113.498 19.023 113.461C19.023 113.423 19.0534 113.394 19.0903 113.393Z" fill="white"/>
<path d="M149.993 143.992H42.6712C42.5394 143.992 42.4331 143.886 42.4331 143.754C42.4331 143.622 42.5401 143.516 42.6712 143.516H149.993C150.125 143.516 150.231 143.622 150.231 143.754C150.231 143.886 150.125 143.992 149.993 143.992Z" fill="white"/>
</g>
<path d="M30.9405 110.944L41.6026 111.076L37.8712 107.564C36.9436 106.691 35.5279 106.549 34.4572 107.244C33.8301 107.65 33.1506 108.202 32.5618 108.933C32.5618 108.933 25.911 106.502 22.6869 101.064C21.6829 102.556 20.5087 104.586 19.4912 107.112C22.3815 108.81 26.1278 110.144 30.9405 110.944Z" fill="url(#paint4_linear_6373_49141)"/>
<path d="M44.4122 183.314C41.5736 183.56 36.6475 183.959 32.7638 184.129C30.429 184.232 29.0855 184.003 28.311 183.694C28.3125 183.781 28.3146 183.864 28.3181 183.94C28.3365 184.349 28.6689 184.676 29.0813 184.699C36.4194 185.109 42.256 184.841 44.3336 184.715C44.763 184.688 45.0195 184.221 44.7998 183.855C44.69 183.672 44.5568 183.492 44.4122 183.314Z" fill="url(#paint5_linear_6373_49141)"/>
<path d="M32.7643 184.373C36.648 184.202 41.5741 183.803 44.4127 183.558C41.6223 180.134 32.7643 177.826 32.7643 177.826H30.2623C28.5418 180.306 28.2924 182.668 28.3115 183.937C29.0853 184.247 30.4295 184.476 32.7643 184.373Z" fill="url(#paint6_linear_6373_49141)"/>
<path d="M29.7769 173.917L30.0107 178.55C30.0362 179.052 30.4117 179.473 30.9141 179.545C31.4144 179.616 32.0833 179.626 32.7933 179.389C33.2298 179.244 33.5543 178.876 33.6351 178.427L34.4443 173.917H29.7769V173.917Z" fill="url(#paint7_linear_6373_49141)"/>
<path d="M2.06799 187.201C0.837176 187.001 0.280231 186.257 0.0463978 185.461C0.0449807 185.468 0.043563 185.475 0.0414372 185.482C-0.139252 186.322 0.280232 187.192 1.1192 187.606C2.13389 188.106 3.24282 188.191 4.10375 188.15C5.02775 188.105 5.87592 187.66 6.34146 186.948L6.34855 186.938C5.42243 187.472 4.12076 187.534 2.06799 187.201Z" fill="url(#paint8_linear_6373_49141)"/>
<path d="M7.87004 175.284H5.80664C2.66407 175.21 0.690663 182.926 0.0444336 185.914C0.278267 186.71 0.835216 187.455 2.06603 187.655C4.1188 187.988 5.42047 187.925 6.348 187.391C8.04577 184.79 8.88757 180.981 9.29217 178.757C9.75275 176.229 7.87004 175.284 7.87004 175.284Z" fill="url(#paint9_linear_6373_49141)"/>
<path d="M5.86499 171.167L4.71921 175.723C4.57891 176.282 4.84605 176.86 5.3626 177.125C6.00317 177.454 6.9059 177.799 7.73495 177.699C8.12467 177.653 8.4492 177.378 8.57745 177.011L10.2596 172.216L5.86499 171.167Z" fill="url(#paint10_linear_6373_49141)"/>
<path d="M46.1525 113.771C46.1525 113.771 35.9149 177.766 36.0835 178.118C36.0835 178.118 33.2556 179.404 30.1732 178.282C30.1732 178.282 31.0993 144.072 33.2683 130.955C33.2683 130.955 15.796 161.532 10.2471 176.768C10.2471 176.768 7.35324 176.423 4.95752 174.846C4.95752 174.846 23.7704 119.809 28.7893 112.478L46.1525 113.771Z" fill="#00862D"/>
<path d="M32.4725 130.36C32.3832 130.36 32.2918 130.336 32.2103 130.285C31.9786 130.139 31.9084 129.834 32.0537 129.603L35.8793 123.492C35.9516 123.377 36.0678 123.297 36.201 123.27L39.017 122.703C39.2848 122.647 39.5456 122.823 39.5994 123.09C39.6533 123.358 39.4797 123.619 39.2118 123.673L36.6049 124.198L32.892 130.128C32.7984 130.278 32.6369 130.36 32.4725 130.36Z" fill="url(#paint11_linear_6373_49141)"/>
<path d="M46.9286 74.2508C45.2067 70.6391 30.3392 70.2586 19.4483 73.8568C17.156 74.6143 15.2995 76.3085 14.3429 78.5044C11.3966 85.2657 6.62644 100.664 19.8685 108.437C20.886 105.911 22.0601 103.881 23.0642 102.389C20.9313 98.7926 20.3 93.8793 24.0845 87.4821C26.8438 94.9329 28.1384 105.805 28.409 110.616C28.4983 112.2 28.2199 113.781 27.5984 115.244L27.5304 115.403C27.3972 115.716 27.5807 116.076 27.9152 116.151C35.3702 117.825 43.1235 117.37 45.4399 117.179C45.8537 117.145 46.1966 116.849 46.2916 116.449C49.9167 101.175 49.522 79.6884 46.9286 74.2508Z" fill="#0033CC"/>
<path d="M29.8804 62.4199C29.8804 62.4199 29.1264 70.3936 28.4625 72.7525C28.3619 73.1103 28.5171 73.4873 28.8423 73.6737C29.969 74.3178 32.6722 75.3679 36.3696 73.556C36.9684 73.2627 37.3283 72.6384 37.3007 71.9773L36.9747 64.2722L29.8804 62.4199Z" fill="url(#paint12_linear_6373_49141)"/>
<path d="M37.1782 52.6538C37.1782 52.6538 39.5902 58.1949 39.7524 61.103C39.9147 64.011 40.5411 65.8987 37.1782 66.484C33.8152 67.07 30.9823 65.3942 29.4482 62.4975C29.4482 62.4975 27.044 58.0334 27.5832 56.2052C28.1224 54.3771 37.1782 52.6538 37.1782 52.6538Z" fill="url(#paint13_linear_6373_49141)"/>
<path d="M30.7811 60.6723L30.9724 60.588C31.2162 60.4803 31.3203 60.1905 31.1977 59.9538C30.7237 59.0376 29.799 56.9381 30.993 56.4484C32.532 55.8171 38.6287 54.5742 39.9438 52.4109C41.2079 50.3319 40.0876 47.6485 38.4048 46.8847C38.2921 46.8337 38.1596 46.874 38.1015 46.9832L37.9612 47.2489C37.8648 47.4303 37.597 47.4033 37.5396 47.2057C37.485 47.0165 37.2328 46.9796 37.1279 47.1468C36.7233 47.7938 35.6321 48.8432 32.7127 49.3817C28.5639 50.1477 25.8217 51.8263 25.753 54.6933C25.7487 54.8754 25.5546 54.9767 25.3994 54.8818C25.0933 54.6954 24.6029 54.6075 23.9475 55.1581C22.8081 56.1161 23.2743 58.6011 25.7721 60.6454C25.8904 60.7425 25.8897 60.9274 25.7615 61.011C25.3087 61.3058 24.6334 62.0073 26.3829 62.9419C28.1919 63.9091 29.5425 63.8298 30.0633 63.744C30.193 63.7228 30.2759 63.5973 30.2482 63.4691L29.6927 60.9494C29.6615 60.8069 29.7699 60.6716 29.9159 60.6716H30.7811V60.6723Z" fill="url(#paint14_linear_6373_49141)"/>
<path d="M30.6938 60.7096C30.6938 60.7096 29.7734 57.1702 28.1869 58.1622C26.5996 59.155 29.0102 62.1282 30.2864 62.2607L30.6938 60.7096Z" fill="url(#paint15_linear_6373_49141)"/>
<path d="M26.1772 106.477C26.1772 106.477 27.0842 104.965 29.2008 104.965C31.3173 104.965 33.7364 108.895 33.7364 108.895C33.7364 108.895 30.4103 110.407 29.2008 111.617C27.9919 112.827 26.1772 108.896 26.1772 106.477Z" fill="url(#paint16_linear_6373_49141)"/>
<path d="M96.2898 184.034C96.2883 183.956 96.294 183.876 96.3139 183.795C97.5036 179.079 102.367 176.662 102.367 176.662L104.707 176.846C106.052 181.002 106.919 183.032 106.704 184.167C106.698 184.199 106.688 184.23 106.68 184.26C104.75 184.432 100.777 184.545 96.2898 184.034Z" fill="url(#paint17_linear_6373_49141)"/>
<path d="M106.68 183.947C106.575 184.326 106.295 184.621 105.937 184.696C103.191 185.274 98.8277 184.809 96.996 184.57C96.5921 184.516 96.2966 184.143 96.2896 183.721C100.777 184.232 104.75 184.119 106.68 183.947Z" fill="url(#paint18_linear_6373_49141)"/>
<path d="M100.265 173.177L101.29 178.109C101.365 178.47 101.643 178.741 101.979 178.772C102.39 178.81 102.976 178.833 103.566 178.746C104.094 178.668 104.462 178.131 104.369 177.555L103.656 173.177H100.265V173.177Z" fill="url(#paint19_linear_6373_49141)"/>
<path d="M125.459 183.924C122.96 183.854 121.668 183.56 121 183.286C120.998 183.535 121 183.787 121.007 184.049C121.016 184.329 121.223 184.552 121.478 184.551L135.197 184.462C135.635 184.46 135.891 183.951 135.701 183.55C133.903 183.7 129.321 184.032 125.459 183.924Z" fill="url(#paint20_linear_6373_49141)"/>
<path d="M135.702 183.827C135.686 183.792 135.672 183.756 135.648 183.723C134.436 182.03 131.35 178.659 125.252 177.197L122.326 177.105C122.326 177.105 121.024 179.369 120.999 183.563C121.667 183.836 122.96 184.131 125.458 184.201C129.321 184.308 133.903 183.975 135.702 183.827Z" fill="url(#paint21_linear_6373_49141)"/>
<path d="M121.75 172.89C121.782 173.109 122.183 176.423 122.338 177.707C122.375 178.013 122.596 178.249 122.875 178.282C123.374 178.342 124.18 178.395 124.885 178.251C125.266 178.173 125.541 177.807 125.541 177.382V172.18L121.75 172.89Z" fill="url(#paint22_linear_6373_49141)"/>
<path d="M102.259 111.185C102.259 111.185 97.5776 152.795 100.178 178.801C100.178 178.801 103.299 178.801 104.859 178.281C104.859 178.281 109.723 137.597 111.297 125.955C111.357 125.516 111.983 125.497 112.069 125.931C114.01 135.725 121.636 174.134 122.543 177.761C122.543 177.761 125.144 178.801 127.224 177.761C127.224 177.761 123.063 122.107 119.943 112.225L102.259 111.185Z" fill="url(#paint23_linear_6373_49141)"/>
<path d="M93.1762 64.9242C93.1762 64.9242 112.941 61.8036 128.545 65.9644L127.505 82.0882C127.505 82.0882 123.344 104.454 120.224 114.336C120.224 114.336 108.261 116.416 102.539 113.296C102.539 113.296 97.8585 85.2088 95.258 81.048C95.2566 81.048 92.6561 70.1259 93.1762 64.9242Z" fill="url(#paint24_linear_6373_49141)"/>
<path d="M106.401 51.2705L104.432 64.5855C104.432 64.5855 109.933 67.1123 113.785 64.4771L112.956 55.0799L106.401 51.2705Z" fill="url(#paint25_linear_6373_49141)"/>
<path d="M114.835 43.0061C114.897 43.1188 116.084 49.8334 116.814 53.9892C117.116 55.7061 115.854 57.3018 114.113 57.4046L112.52 57.4988C109.591 57.6724 107.012 55.5871 106.568 52.6875L105.416 45.1588C105.416 45.1588 113.33 40.2753 114.835 43.0061Z" fill="url(#paint26_linear_6373_49141)"/>
<path d="M103.818 45.3733C103.207 44.613 102.674 43.385 103.975 42.0926C105.293 40.7845 106.788 41.1105 107.736 41.5491C108.155 41.7432 108.673 41.6575 108.972 41.3039C109.104 41.1473 109.301 41.0403 109.594 41.0729C110.145 41.1345 110.637 40.771 110.702 40.2198C110.814 39.2759 111.317 38.1642 112.986 37.841C116.048 37.2494 117.576 40.3133 117.521 42.4674C117.467 44.6208 114.11 45.0743 112.206 44.7164C110.808 44.4536 109.598 45.6829 109.055 46.354C108.858 46.5977 108.784 46.9166 108.855 47.222L109.339 49.3024C109.004 49.9493 108.674 50.6097 108.204 51.1617C107.864 51.5592 107.493 51.7782 107.098 51.871C106.527 50.8081 104.931 50.6282 104.189 50.6041C103.905 50.5949 103.64 50.4701 103.453 50.2562C102.893 49.6142 102.017 48.1814 103.694 46.7749C104.111 46.427 104.159 45.797 103.818 45.3733Z" fill="url(#paint27_linear_6373_49141)"/>
<path d="M107.608 53.5809C107.608 53.5809 107.542 49.824 106.022 49.4711C104.501 49.1182 102.861 50.2173 104.161 52.467C105.778 55.2652 107.608 53.5809 107.608 53.5809Z" fill="url(#paint28_linear_6373_49141)"/>
<path d="M114.634 44.1136C114.596 44.1136 114.558 44.0937 114.538 44.0576C114.506 44.0045 114.525 43.9364 114.578 43.9053C115.301 43.4872 115.721 42.9409 115.827 42.2812C116.063 40.8123 114.68 39.2392 114.666 39.2229C114.625 39.1769 114.629 39.1067 114.675 39.0656C114.72 39.0245 114.791 39.0281 114.832 39.0748C114.893 39.1422 116.299 40.7436 116.047 42.3159C115.93 43.0443 115.473 43.6438 114.69 44.0973C114.672 44.1093 114.653 44.1136 114.634 44.1136Z" fill="white"/>
<path d="M93.6917 64.876C93.6917 64.876 63.0043 98.1639 99.1528 110.907V108.307C99.1528 108.307 85.6294 96.8636 96.0322 81.2599C96.0322 81.2599 94.7319 66.4363 93.6917 64.876Z" fill="url(#paint29_linear_6373_49141)"/>
<path d="M98.6775 106.801C98.6775 106.801 103.358 103.68 105.439 104.72C107.519 105.76 107.519 107.321 107.519 107.321C107.519 107.321 106.479 109.401 104.919 108.881C103.358 108.361 99.7177 109.401 98.1574 108.881C98.1574 108.881 97.6373 106.801 98.6775 106.801Z" fill="url(#paint30_linear_6373_49141)"/>
<path d="M127.21 65.8726C127.21 65.8726 159.197 98.1203 123.049 110.863V108.263C123.049 108.263 136.572 96.82 126.169 81.2163C126.169 81.2163 125.129 68.4731 127.21 65.8726Z" fill="url(#paint31_linear_6373_49141)"/>
<path d="M123.177 106.801C123.177 106.801 118.496 103.68 116.415 104.72C114.335 105.76 114.335 107.321 114.335 107.321C114.335 107.321 115.375 109.401 116.935 108.881C118.496 108.361 122.136 109.401 123.697 108.881C123.697 108.881 124.217 106.801 123.177 106.801Z" fill="url(#paint32_linear_6373_49141)"/>
<path d="M138.925 49.908C136.111 57.3729 134.984 78.3187 136.955 89.3542C133.994 79.7408 129.728 55.7 138.383 48.3491L138.925 49.908Z" fill="url(#paint33_linear_6373_49141)"/>
<path d="M173.339 184.922L173.278 185.656C173.288 186.355 173.964 187.317 174.663 187.311L179.911 186.867C180.648 186.862 181.152 186.119 180.885 185.431L180.713 184.988L173.339 184.922Z" fill="url(#paint34_linear_6373_49141)"/>
<path d="M181.51 186.484C181.053 185.047 180.217 182.888 179.011 181.619C177.931 179.4 176.414 176.223 175.736 174.531C174.626 171.76 172.237 159.2 170.927 154.833C169.617 150.466 168.136 145.729 162.431 141.365C162.431 141.365 158.515 137.53 155.392 141.365C155.392 141.365 169.073 167.316 171.247 173.241C172.578 176.866 173.379 180.121 173.807 182.21C173.655 182.449 173.579 182.74 173.617 183.046L174.07 186.77C174.155 187.476 174.492 188.727 175.199 188.808C176.393 188.945 178.529 188.393 180.404 188.194C181.226 188.106 181.761 187.272 181.51 186.484Z" fill="url(#paint35_linear_6373_49141)"/>
<path d="M173.139 183.317C174.543 183.828 176.004 184.823 177.267 185.827L177.549 185.653C176.226 184.465 174.748 183.413 172.943 182.654C172.88 182.627 172.811 182.683 172.824 182.75L172.878 183.018C172.907 183.157 173.006 183.268 173.139 183.317Z" fill="url(#paint36_linear_6373_49141)"/>
<path d="M177.597 185.57C177.951 184.421 178.623 183.251 179.518 182.09C179.564 182.031 179.656 182.038 179.691 182.103L180.012 182.701C180.046 182.764 180.029 182.841 179.972 182.884C179.168 183.488 178.141 184.672 177.726 186.047L177.597 185.57Z" fill="url(#paint37_linear_6373_49141)"/>
<path d="M177.241 185.4L177.445 185.319C177.659 185.233 177.894 185.384 177.904 185.614L177.948 186.576L177.492 186.707L177.067 185.857C176.98 185.684 177.06 185.473 177.241 185.4Z" fill="url(#paint38_linear_6373_49141)"/>
<path d="M135.457 183.837L135.46 183.928C135.471 184.239 135.73 184.485 136.042 184.477L149.053 184.249C149.639 184.239 150.083 183.715 149.995 183.136L149.886 182.403L136.085 183.16C135.725 183.175 135.445 183.477 135.457 183.837Z" fill="url(#paint39_linear_6373_49141)"/>
<path d="M143.179 139.427L142.482 143.529C142.482 143.529 144.817 167.183 145.232 176.644C145.298 178.128 144.914 179.594 144.136 180.858L135.884 185.203C135.508 185.401 135.659 185.972 136.084 185.958L148.714 185.539C149.368 185.515 149.883 184.973 149.875 184.319L149.845 181.717L148.977 180.805L151.124 151.282C151.253 149.725 150.932 148.164 150.198 146.785L148.064 142.776L143.179 139.427Z" fill="url(#paint40_linear_6373_49141)"/>
<path d="M137.869 182.351C138.976 182.679 140.053 183.215 141.104 183.936L141.973 183.98C140.561 183.107 139.306 182.445 137.912 182.181L137.869 182.351Z" fill="url(#paint41_linear_6373_49141)"/>
<path d="M148.055 50.0596C152.326 55.3817 157.592 76.6563 159.185 96.5583C154.224 98.1342 146.475 97.1401 142.409 96.2713L140.744 57.5096L148.055 50.0596Z" fill="url(#paint42_linear_6373_49141)"/>
<path d="M148.939 101.908C145.41 86.9551 154.35 78.4974 154.35 78.4974C149.917 74.2431 142.623 71.8105 139.7 70.9631C138.897 70.7306 137.773 70.9489 137.125 71.4782C134.63 73.5161 128.861 78.9325 129.787 83.4008C130.469 86.6901 136.68 103.102 136.68 103.102C136.68 103.102 142.425 105.821 148.939 101.908Z" fill="url(#paint43_linear_6373_49141)"/>
<path d="M156.496 107.988C155.059 103.661 148.671 100.584 148.671 100.584C142.157 104.497 136.414 101.778 136.414 101.778C136.414 101.778 135.125 106.702 136.015 111.278C136.904 115.853 139.334 181.927 139.334 181.927C141.343 186.482 178.595 186.137 182.94 184.36C177.341 174.42 157.931 112.314 156.496 107.988Z" fill="url(#paint44_linear_6373_49141)"/>
<path d="M157.02 99.1167C156.827 101.053 156.246 102.557 155.797 103.471C155.532 104.01 154.839 104.165 154.366 103.795C153.625 103.214 152.571 103.26 151.882 103.902L149.403 109.145C149.268 109.431 149.288 109.766 149.456 110.035C149.67 110.377 150.131 110.461 150.45 110.213C151.442 109.441 153.398 107.961 154.059 107.764C155.369 107.372 156.035 106.618 156.035 106.618C158.541 104.459 160.271 102.315 161.404 100.225C159.948 99.8352 158.488 99.4632 157.02 99.1167Z" fill="url(#paint45_linear_6373_49141)"/>
<path d="M135.924 183.264C136.732 182.886 137.742 182.395 137.966 182.347L138 182.181C137.52 182.367 136.739 182.771 135.918 183.205L135.924 183.264Z" fill="url(#paint46_linear_6373_49141)"/>
<path d="M148.783 85.865C149.13 81.4384 150.216 79.1547 152.952 77.7212C161.074 84.7029 166.665 94.7931 163.56 109.912C163.405 110.667 162.58 111.071 161.886 110.738C156.506 108.156 152.906 105.405 152.17 102.38C155.279 95.1262 155.946 89.3115 148.783 85.865Z" fill="url(#paint47_linear_6373_49141)"/>
<path d="M136.591 72.0967L137.992 82.0601L149.544 75.0458C146.461 73.037 142.607 71.4604 139.003 70.7738C138.45 70.6682 137.878 70.7667 137.391 71.0466L136.994 71.274C136.705 71.4406 136.545 71.7665 136.591 72.0967Z" fill="white"/>
<path d="M139.671 100.325C138.005 94.1157 137.173 87.5932 136.914 80.4329L136.393 71.9639C136.37 71.6323 136.707 71.4247 136.995 71.2596L137.131 71.1816L137.782 80.3458C137.841 87.6456 138.964 94.2354 140.801 100.032L139.671 100.325Z" fill="url(#paint48_linear_6373_49141)"/>
<path d="M137.711 81.7354C142.025 79.4616 145.833 77.0439 148.921 74.4229C149.355 74.6198 149.545 74.7481 149.799 74.9904C149.872 75.0478 149.943 75.2228 149.865 75.2724C146.47 77.8673 142.419 80.3452 137.921 82.7431C137.833 82.7983 137.802 82.8663 137.787 82.7686L137.651 81.8651C137.644 81.8148 137.667 81.7645 137.711 81.7354Z" fill="url(#paint49_linear_6373_49141)"/>
<path d="M147.024 73.8425C146.892 73.6604 146.726 73.5059 146.679 73.2862L144.326 62.2444C144.09 61.382 142.887 61.8114 141.971 62.1714L139.592 63.1053C138.938 63.3625 138.555 63.9719 138.653 64.5997L139.648 70.9911C139.663 71.0896 139.595 71.1803 139.497 71.198C139.22 71.2483 138.999 71.2597 138.743 71.2576C138.688 71.2568 138.644 71.305 138.651 71.3603L139.48 77.2975C139.515 77.5363 139.767 77.6773 139.989 77.5824L147.563 74.3186C147.388 74.1514 147.171 74.0465 147.024 73.8425Z" fill="url(#paint50_linear_6373_49141)"/>
<path d="M147.45 47.012C147.399 47.0368 147.337 47.0155 147.312 46.9645L147.28 46.8993C147.256 46.8483 147.277 46.7866 147.328 46.7618L151.396 44.7814C151.447 44.7566 151.509 44.7778 151.533 44.8288L151.565 44.894C151.59 44.945 151.569 45.0067 151.518 45.0315L147.45 47.012Z" fill="url(#paint51_linear_6373_49141)"/>
<path d="M147.619 47.1263C147.562 47.1284 147.514 47.0845 147.512 47.0271L147.509 46.9548C147.507 46.8981 147.551 46.8499 147.608 46.8478L152.129 46.6685C152.186 46.6664 152.234 46.7103 152.236 46.7677L152.239 46.84C152.241 46.8967 152.197 46.9449 152.139 46.947L147.619 47.1263Z" fill="url(#paint52_linear_6373_49141)"/>
<path d="M151.663 45.0486C151.564 45.2937 151.285 45.4121 151.04 45.3129C150.795 45.2137 150.677 44.9352 150.776 44.69C150.875 44.4448 151.153 44.3265 151.399 44.4257C151.644 44.5242 151.762 44.8034 151.663 45.0486Z" fill="url(#paint53_linear_6373_49141)"/>
<path d="M152.3 47.03C152.2 47.2752 151.922 47.3935 151.677 47.2943C151.432 47.1951 151.313 46.9166 151.413 46.6715C151.512 46.4263 151.79 46.308 152.035 46.4072C152.281 46.5057 152.399 46.7848 152.3 47.03Z" fill="url(#paint54_linear_6373_49141)"/>
<path d="M148.383 47.8833C147.455 49.1254 145.158 49.5803 144.253 48.9043C143.508 48.3474 143.136 45.8957 144.065 44.6542C144.994 43.4121 146.713 43.1287 147.905 44.0208C149.098 44.9115 149.312 46.6411 148.383 47.8833Z" fill="url(#paint55_linear_6373_49141)"/>
<path d="M137.788 51.6127C137.788 51.6127 135.286 54.3237 135.212 59.75C135.138 65.1764 137.646 66.5276 139.748 65.9154C141.85 65.3032 144.577 63.4297 146.387 59.1244C148.199 54.8183 141.107 48.2377 137.788 51.6127Z" fill="url(#paint56_linear_6373_49141)"/>
<path d="M141.795 49.722L137.615 53.2919C137.615 53.2919 136.11 49.5612 138.382 48.2135C140.791 46.7842 147.046 46.9706 149.387 51.8577C151.895 57.0941 151.102 60.6541 148.427 63.1696C145.752 65.6857 144.587 62.9003 144.587 62.9003C144.587 62.9003 146.028 60.5641 145.406 59.3368C144.785 58.1103 148.164 49.7036 141.795 49.722Z" fill="url(#paint57_linear_6373_49141)"/>
<path d="M143.957 59.3302C143.957 59.3302 144.322 55.4266 146.356 56.4392C148.389 57.4525 145.816 60.0955 144.778 61.0032L143.957 59.3302Z" fill="url(#paint58_linear_6373_49141)"/>
<path d="M138.985 49.1714C136.713 50.8606 136.667 53.2025 135.564 54.6416C136.98 54.5772 141.241 55.3998 142.324 56.0468C143.088 55.1001 143.489 53.1536 143.935 51.6741C143.659 53.1416 143.519 55.5097 142.912 56.5024C144.421 57.2634 144.088 57.1557 145.37 58.8379L147.168 51.9299C145.078 48.7455 142.339 47.8654 138.985 49.1714Z" fill="url(#paint59_linear_6373_49141)"/>
<path d="M134.943 97.9911C137.363 99.0936 142.385 97.974 148.061 96.2954C148.484 99.0256 149.619 101.265 151.913 102.503C152.122 102.616 152.133 102.911 151.93 103.034C146.983 106.036 141.516 108.976 135.591 107.678C135.375 107.631 135.24 107.416 135.278 107.198C135.866 103.848 135.46 100.933 134.758 98.1477C134.73 98.0378 134.839 97.9443 134.943 97.9911Z" fill="url(#paint60_linear_6373_49141)"/>
<path d="M89.1568 85.5248C89.1568 85.5248 99.0642 104.889 82.8525 108.042C66.6401 111.193 82.4018 77.4186 89.1568 85.5248Z" fill="url(#paint61_linear_6373_49141)"/>
<path d="M73.954 179.023C73.5125 179.112 72.6027 183.076 74.4046 183.526C76.2058 183.977 85.6626 185.327 87.4645 183.977C89.265 182.626 76.2051 178.572 73.954 179.023Z" fill="url(#paint62_linear_6373_49141)"/>
<path d="M69.6162 146.689C69.6162 147.14 73.6693 179.564 74.5699 181.365C74.5699 181.365 75.9212 182.265 77.2718 181.365C77.2718 181.365 79.9736 157.498 80.4243 147.139L69.6162 146.689Z" fill="#865D00"/>
<path d="M55.4427 179.855C55.0013 179.944 54.0915 183.908 55.8934 184.358C57.6946 184.809 67.1514 186.159 68.9533 184.809C70.7545 183.458 57.6946 179.405 55.4427 179.855Z" fill="url(#paint63_linear_6373_49141)"/>
<path d="M51.1055 147.52C51.1055 147.971 55.1586 180.394 56.0592 182.195C56.0592 182.195 57.4105 183.096 58.761 182.195C58.761 182.195 61.4629 158.328 61.9135 147.97L51.1055 147.52Z" fill="#865D00"/>
<path d="M63.9833 74.2668C63.9833 74.2668 60.8308 76.9686 59.4802 78.3199C58.129 79.6712 44.4292 152.755 44.4292 155.006C44.4292 157.258 45.9498 158.265 45.9498 158.265C45.9498 158.265 49.3177 159.677 54.0759 158.929C61.9978 157.683 71.1577 165.143 82.4759 157.553C83.0074 157.197 83.3411 156.61 83.3787 155.971C83.8095 148.687 86.4263 103.378 85.5987 91.3798C84.6981 78.3206 82.8968 77.4193 82.8968 77.4193C82.8968 77.4193 66.2352 73.3662 63.9833 74.2668Z" fill="url(#paint64_linear_6373_49141)"/>
<path d="M65.6007 66.1552C65.6007 66.1552 64.7 70.2083 62.4482 71.5588C60.1963 72.9101 56.7384 76.8938 60.0439 78.279C63.3495 79.6643 65.1507 80.115 73.7069 81.0156C82.263 81.9162 82.8837 80.91 83.2487 79.1619C83.6143 77.4132 79.5612 73.8107 80.0111 69.3077C80.4611 64.8046 67.4019 62.1021 65.6007 66.1552Z" fill="url(#paint65_linear_6373_49141)"/>
<path d="M74.3928 48.8255C71.6959 48.6568 65.8366 51.978 64.4853 57.8323C63.1341 63.6866 62.6841 68.6403 66.2866 73.594C69.889 78.5477 75.7433 76.7465 78.4452 73.1434C81.147 69.5409 82.0476 62.786 82.4983 59.6335C82.9489 56.4817 81.5977 49.2761 74.3928 48.8255Z" fill="url(#paint66_linear_6373_49141)"/>
<path d="M71.36 60.6967C71.36 60.6967 69.5587 66.1003 73.1612 68.8029C76.7636 71.5047 79.0155 69.2535 79.9161 67.0017C80.8167 64.7498 81.2674 60.6974 80.8167 57.9948C80.3661 55.2923 74.5118 52.5905 71.36 60.6967Z" fill="url(#paint67_linear_6373_49141)"/>
<path d="M73.7203 80.6327C76.4221 77.0302 83.6277 70.7253 91.2833 73.4271C98.9388 76.1289 83.6277 101.347 80.9259 105.401C78.2241 109.454 71.9191 117.559 62.0124 113.507C52.1056 109.454 64.5413 92.8713 73.7203 80.6327Z" fill="url(#paint68_linear_6373_49141)"/>
<path d="M93.3838 76.5771C90.0011 82.0765 82.6346 88.6996 66.6546 90.1487C60.2398 99.4467 55.3378 108.813 60.5806 112.556C72.0845 109.847 81.5434 100.923 87.6734 93.5307C90.7784 87.4816 93.6581 80.631 93.3838 76.5771Z" fill="url(#paint69_linear_6373_49141)"/>
<path d="M89.9788 77.7104C89.9788 77.7104 92.6807 84.0147 91.7801 87.6179C90.8794 91.2203 87.644 90.2269 87.644 90.2269C87.644 90.2269 89.0782 85.8167 89.0782 84.916C89.0782 84.0154 87.7269 77.7104 89.9788 77.7104Z" fill="#865D00"/>
<path d="M69.1851 101.239C69.1851 101.239 72.6614 98.2612 77.0029 96.3722C81.3444 94.4838 82.245 95.8343 82.6949 96.735C83.1456 97.6356 78.6262 98.3456 75.94 100.788C70.9863 105.292 69.1851 101.239 69.1851 101.239Z" fill="#865D00"/>
<path d="M59.2909 78.1416C59.2909 78.1416 55.6885 91.2008 58.8403 96.1545C61.9928 101.108 71.4021 101.482 71.4021 101.482L72.161 103.762C72.161 103.762 63.3441 115.519 52.9867 111.466C42.6293 107.413 53.4366 79.9428 59.2909 78.1416Z" fill="url(#paint70_linear_6373_49141)"/>
<defs>
<linearGradient id="paint0_linear_6373_49141" x1="147.013" y1="148.095" x2="-210.267" y2="-259.119" gradientUnits="userSpaceOnUse">
<stop stop-color="#53D8FF"/>
<stop offset="1" stop-color="#3840F7"/>
</linearGradient>
<linearGradient id="paint1_linear_6373_49141" x1="87.8717" y1="143.245" x2="38.3706" y2="18.4518" gradientUnits="userSpaceOnUse">
<stop stop-color="#53D8FF"/>
<stop offset="1" stop-color="#3840F7"/>
</linearGradient>
<linearGradient id="paint2_linear_6373_49141" x1="133.268" y1="124.663" x2="84.203" y2="0.970642" gradientUnits="userSpaceOnUse">
<stop stop-color="#53D8FF"/>
<stop offset="1" stop-color="#3840F7"/>
</linearGradient>
<linearGradient id="paint3_linear_6373_49141" x1="124.438" y1="158.635" x2="186.005" y2="-10.5371" gradientUnits="userSpaceOnUse">
<stop stop-color="#53D8FF"/>
<stop offset="1" stop-color="#3840F7"/>
</linearGradient>
<linearGradient id="paint4_linear_6373_49141" x1="43.351" y1="88.2375" x2="34.1114" y2="102.097" gradientUnits="userSpaceOnUse">
<stop stop-color="#F9B776"/>
<stop offset="1" stop-color="#F47960"/>
</linearGradient>
<linearGradient id="paint5_linear_6373_49141" x1="28.3109" y1="184.082" x2="44.173" y2="184.082" gradientUnits="userSpaceOnUse">
<stop stop-color="#53D8FF"/>
<stop offset="1" stop-color="#3840F7"/>
</linearGradient>
<linearGradient id="paint6_linear_6373_49141" x1="44.1207" y1="157.543" x2="40.5094" y2="168.757" gradientUnits="userSpaceOnUse">
<stop stop-color="#CB236D"/>
<stop offset="1" stop-color="#4C246D"/>
</linearGradient>
<linearGradient id="paint7_linear_6373_49141" x1="29.7766" y1="176.632" x2="34.2446" y2="176.632" gradientUnits="userSpaceOnUse">
<stop stop-color="#F9B776"/>
<stop offset="1" stop-color="#F47960"/>
</linearGradient>
<linearGradient id="paint8_linear_6373_49141" x1="8.07227e-05" y1="186.752" x2="6.07871" y2="186.752" gradientUnits="userSpaceOnUse">
<stop stop-color="#53D8FF"/>
<stop offset="1" stop-color="#3840F7"/>
</linearGradient>
<linearGradient id="paint9_linear_6373_49141" x1="15.396" y1="148.294" x2="11.7848" y2="159.508" gradientUnits="userSpaceOnUse">
<stop stop-color="#CB236D"/>
<stop offset="1" stop-color="#4C246D"/>
</linearGradient>
<linearGradient id="paint10_linear_6373_49141" x1="4.68198" y1="174.302" x2="10.0217" y2="174.302" gradientUnits="userSpaceOnUse">
<stop stop-color="#F9B776"/>
<stop offset="1" stop-color="#F47960"/>
</linearGradient>
<linearGradient id="paint11_linear_6373_49141" x1="56.16" y1="63.9849" x2="47.2686" y2="91.0013" gradientUnits="userSpaceOnUse">
<stop stop-color="#53D8FF"/>
<stop offset="1" stop-color="#3840F7"/>
</linearGradient>
<linearGradient id="paint12_linear_6373_49141" x1="30.9891" y1="79.6086" x2="33.3028" y2="67.4619" gradientUnits="userSpaceOnUse">
<stop stop-color="#F9B776"/>
<stop offset="1" stop-color="#F47960"/>
</linearGradient>
<linearGradient id="paint13_linear_6373_49141" x1="37.2494" y1="57.3226" x2="24.0485" y2="67.4233" gradientUnits="userSpaceOnUse">
<stop stop-color="#F9B776"/>
<stop offset="1" stop-color="#F47960"/>
</linearGradient>
<linearGradient id="paint14_linear_6373_49141" x1="27.9561" y1="49.3251" x2="40.2506" y2="65.1543" gradientUnits="userSpaceOnUse">
<stop stop-color="#2B3582"/>
<stop offset="1" stop-color="#150E42"/>
</linearGradient>
<linearGradient id="paint15_linear_6373_49141" x1="35.6113" y1="55.1836" x2="22.4104" y2="65.2842" gradientUnits="userSpaceOnUse">
<stop stop-color="#F9B776"/>
<stop offset="1" stop-color="#F47960"/>
</linearGradient>
<linearGradient id="paint16_linear_6373_49141" x1="32.3404" y1="103.753" x2="26.2499" y2="112.889" gradientUnits="userSpaceOnUse">
<stop stop-color="#F9B776"/>
<stop offset="1" stop-color="#F47960"/>
</linearGradient>
<linearGradient id="paint17_linear_6373_49141" x1="102.301" y1="213.885" x2="101.706" y2="196.031" gradientUnits="userSpaceOnUse">
<stop stop-color="#7C27DD"/>
<stop offset="1" stop-color="#2B41D9"/>
</linearGradient>
<linearGradient id="paint18_linear_6373_49141" x1="81.0875" y1="168.192" x2="117.873" y2="197.076" gradientUnits="userSpaceOnUse">
<stop stop-color="#53D8FF"/>
<stop offset="1" stop-color="#3840F7"/>
</linearGradient>
<linearGradient id="paint19_linear_6373_49141" x1="103.01" y1="168.634" x2="101.014" y2="186.059" gradientUnits="userSpaceOnUse">
<stop stop-color="#C4421B"/>
<stop offset="1" stop-color="#5C0E16"/>
</linearGradient>
<linearGradient id="paint20_linear_6373_49141" x1="136.908" y1="176.763" x2="101.336" y2="204.695" gradientUnits="userSpaceOnUse">
<stop stop-color="#53D8FF"/>
<stop offset="1" stop-color="#3840F7"/>
</linearGradient>
<linearGradient id="paint21_linear_6373_49141" x1="126.65" y1="224.925" x2="127.245" y2="207.071" gradientUnits="userSpaceOnUse">
<stop stop-color="#7C27DD"/>
<stop offset="1" stop-color="#2B41D9"/>
</linearGradient>
<linearGradient id="paint22_linear_6373_49141" x1="124.043" y1="170.862" x2="122.175" y2="187.163" gradientUnits="userSpaceOnUse">
<stop stop-color="#C4421B"/>
<stop offset="1" stop-color="#5C0E16"/>
</linearGradient>
<linearGradient id="paint23_linear_6373_49141" x1="112.513" y1="170.341" x2="114.753" y2="100.136" gradientUnits="userSpaceOnUse">
<stop stop-color="#2B3582"/>
<stop offset="1" stop-color="#150E42"/>
</linearGradient>
<linearGradient id="paint24_linear_6373_49141" x1="113.808" y1="73.5" x2="82.3985" y2="134.892" gradientUnits="userSpaceOnUse">
<stop stop-color="#0033CC"/>
<stop offset="1" stop-color="#00862D"/>
</linearGradient>
<linearGradient id="paint25_linear_6373_49141" x1="104.432" y1="58.1665" x2="113.386" y2="58.1665" gradientUnits="userSpaceOnUse">
<stop stop-color="#C4421B"/>
<stop offset="1" stop-color="#5C0E16"/>
</linearGradient>
<linearGradient id="paint26_linear_6373_49141" x1="855.285" y1="-633.152" x2="867.178" y2="-644.068" gradientUnits="userSpaceOnUse">
<stop stop-color="#C4421B"/>
<stop offset="1" stop-color="#5C0E16"/>
</linearGradient>
<linearGradient id="paint27_linear_6373_49141" x1="102.719" y1="44.5191" x2="116.891" y2="44.5191" gradientUnits="userSpaceOnUse">
<stop stop-color="#2B3582"/>
<stop offset="1" stop-color="#150E42"/>
</linearGradient>
<linearGradient id="paint28_linear_6373_49141" x1="853.702" y1="-634.873" x2="865.594" y2="-645.789" gradientUnits="userSpaceOnUse">
<stop stop-color="#C4421B"/>
<stop offset="1" stop-color="#5C0E16"/>
</linearGradient>
<linearGradient id="paint29_linear_6373_49141" x1="104.174" y1="68.5707" x2="72.7645" y2="129.962" gradientUnits="userSpaceOnUse">
<stop stop-color="#00862D"/>
<stop offset="1" stop-color="#0075FF"/>
</linearGradient>
<linearGradient id="paint30_linear_6373_49141" x1="106.611" y1="103.857" x2="90.6775" y2="117.467" gradientUnits="userSpaceOnUse">
<stop stop-color="#C4421B"/>
<stop offset="1" stop-color="#5C0E16"/>
</linearGradient>
<linearGradient id="paint31_linear_6373_49141" x1="131.968" y1="82.7916" x2="100.558" y2="144.183" gradientUnits="userSpaceOnUse">
<stop stop-color="#0033CC"/>
<stop offset="1" stop-color="#D93C65"/>
</linearGradient>
<linearGradient id="paint32_linear_6373_49141" x1="116.198" y1="104.59" x2="125.161" y2="113.553" gradientUnits="userSpaceOnUse">
<stop stop-color="#C4421B"/>
<stop offset="1" stop-color="#5C0E16"/>
</linearGradient>
<linearGradient id="paint33_linear_6373_49141" x1="156.863" y1="39.1697" x2="120.444" y2="92.7285" gradientUnits="userSpaceOnUse">
<stop stop-color="#2B3582"/>
<stop offset="1" stop-color="#150E42"/>
</linearGradient>
<linearGradient id="paint34_linear_6373_49141" x1="176.636" y1="189.426" x2="177.333" y2="181.28" gradientUnits="userSpaceOnUse">
<stop stop-color="#7C27DD"/>
<stop offset="1" stop-color="#2B41D9"/>
</linearGradient>
<linearGradient id="paint35_linear_6373_49141" x1="163.055" y1="220.004" x2="174.759" y2="83.2159" gradientUnits="userSpaceOnUse">
<stop stop-color="#F9B776"/>
<stop offset="1" stop-color="#F47960"/>
</linearGradient>
<linearGradient id="paint36_linear_6373_49141" x1="174.796" y1="187.51" x2="175.484" y2="179.466" gradientUnits="userSpaceOnUse">
<stop stop-color="#7C27DD"/>
<stop offset="1" stop-color="#2B41D9"/>
</linearGradient>
<linearGradient id="paint37_linear_6373_49141" x1="178.348" y1="188.914" x2="179.367" y2="177.001" gradientUnits="userSpaceOnUse">
<stop stop-color="#7C27DD"/>
<stop offset="1" stop-color="#2B41D9"/>
</linearGradient>
<linearGradient id="paint38_linear_6373_49141" x1="177.337" y1="187.655" x2="177.685" y2="183.584" gradientUnits="userSpaceOnUse">
<stop stop-color="#7C27DD"/>
<stop offset="1" stop-color="#2B41D9"/>
</linearGradient>
<linearGradient id="paint39_linear_6373_49141" x1="142.141" y1="186.776" x2="142.882" y2="178.113" gradientUnits="userSpaceOnUse">
<stop stop-color="#7C27DD"/>
<stop offset="1" stop-color="#2B41D9"/>
</linearGradient>
<linearGradient id="paint40_linear_6373_49141" x1="140.057" y1="211.204" x2="150.769" y2="86.0064" gradientUnits="userSpaceOnUse">
<stop stop-color="#F9B776"/>
<stop offset="1" stop-color="#F47960"/>
</linearGradient>
<linearGradient id="paint41_linear_6373_49141" x1="139.707" y1="184.599" x2="140.044" y2="180.664" gradientUnits="userSpaceOnUse">
<stop stop-color="#7C27DD"/>
<stop offset="1" stop-color="#2B41D9"/>
</linearGradient>
<linearGradient id="paint42_linear_6373_49141" x1="129.082" y1="38.8596" x2="139.577" y2="67.9492" gradientUnits="userSpaceOnUse">
<stop stop-color="#2B3582"/>
<stop offset="1" stop-color="#150E42"/>
</linearGradient>
<linearGradient id="paint43_linear_6373_49141" x1="146.371" y1="59.7496" x2="135.883" y2="103.525" gradientUnits="userSpaceOnUse">
<stop stop-color="#0033CC"/>
<stop offset="1" stop-color="#00862D"/>
</linearGradient>
<linearGradient id="paint44_linear_6373_49141" x1="151.748" y1="112.783" x2="160.868" y2="186.199" gradientUnits="userSpaceOnUse">
<stop stop-color="#00862D"/>
<stop offset="1" stop-color="#0033CC"/>
</linearGradient>
<linearGradient id="paint45_linear_6373_49141" x1="149.314" y1="104.497" x2="160.888" y2="104.497" gradientUnits="userSpaceOnUse">
<stop stop-color="#F9B776"/>
<stop offset="1" stop-color="#F47960"/>
</linearGradient>
<linearGradient id="paint46_linear_6373_49141" x1="136.8" y1="184.011" x2="137.086" y2="180.665" gradientUnits="userSpaceOnUse">
<stop stop-color="#7C27DD"/>
<stop offset="1" stop-color="#2B41D9"/>
</linearGradient>
<linearGradient id="paint47_linear_6373_49141" x1="159.254" y1="70.5066" x2="150.771" y2="137.698" gradientUnits="userSpaceOnUse">
<stop stop-color="#00862D"/>
<stop offset="1" stop-color="#0033CC"/>
</linearGradient>
<linearGradient id="paint48_linear_6373_49141" x1="140.987" y1="41.6179" x2="132.538" y2="190.253" gradientUnits="userSpaceOnUse">
<stop stop-color="#2B3582"/>
<stop offset="1" stop-color="#150E42"/>
</linearGradient>
<linearGradient id="paint49_linear_6373_49141" x1="144.277" y1="64.9151" x2="141.647" y2="111.182" gradientUnits="userSpaceOnUse">
<stop stop-color="#2B3582"/>
<stop offset="1" stop-color="#150E42"/>
</linearGradient>
<linearGradient id="paint50_linear_6373_49141" x1="142.798" y1="81.1915" x2="142.972" y2="62.3135" gradientUnits="userSpaceOnUse">
<stop stop-color="#F9B776"/>
<stop offset="1" stop-color="#F47960"/>
</linearGradient>
<linearGradient id="paint51_linear_6373_49141" x1="161.064" y1="39.632" x2="137.479" y2="52.1278" gradientUnits="userSpaceOnUse">
<stop stop-color="#53D8FF"/>
<stop offset="1" stop-color="#3840F7"/>
</linearGradient>
<linearGradient id="paint52_linear_6373_49141" x1="163.015" y1="45.9105" x2="136.397" y2="47.8756" gradientUnits="userSpaceOnUse">
<stop stop-color="#53D8FF"/>
<stop offset="1" stop-color="#3840F7"/>
</linearGradient>
<linearGradient id="paint53_linear_6373_49141" x1="152.122" y1="42.322" x2="150.268" y2="47.4015" gradientUnits="userSpaceOnUse">
<stop stop-color="#53D8FF"/>
<stop offset="1" stop-color="#3840F7"/>
</linearGradient>
<linearGradient id="paint54_linear_6373_49141" x1="152.758" y1="44.3037" x2="150.905" y2="49.3832" gradientUnits="userSpaceOnUse">
<stop stop-color="#53D8FF"/>
<stop offset="1" stop-color="#3840F7"/>
</linearGradient>
<linearGradient id="paint55_linear_6373_49141" x1="146.585" y1="41.0209" x2="142.865" y2="65.5799" gradientUnits="userSpaceOnUse">
<stop stop-color="#2B3582"/>
<stop offset="1" stop-color="#150E42"/>
</linearGradient>
<linearGradient id="paint56_linear_6373_49141" x1="139.668" y1="70.1835" x2="142.828" y2="33.4757" gradientUnits="userSpaceOnUse">
<stop stop-color="#F9B776"/>
<stop offset="1" stop-color="#F47960"/>
</linearGradient>
<linearGradient id="paint57_linear_6373_49141" x1="138.71" y1="41.4992" x2="147.811" y2="63.2942" gradientUnits="userSpaceOnUse">
<stop stop-color="#2B3582"/>
<stop offset="1" stop-color="#150E42"/>
</linearGradient>
<linearGradient id="paint58_linear_6373_49141" x1="141.887" y1="71.3039" x2="151.617" y2="35.9033" gradientUnits="userSpaceOnUse">
<stop stop-color="#F9B776"/>
<stop offset="1" stop-color="#F47960"/>
</linearGradient>
<linearGradient id="paint59_linear_6373_49141" x1="142.053" y1="36.6506" x2="155.515" y2="91.5519" gradientUnits="userSpaceOnUse">
<stop stop-color="#2B3582"/>
<stop offset="1" stop-color="#150E42"/>
</linearGradient>
<linearGradient id="paint60_linear_6373_49141" x1="138.261" y1="92.0384" x2="141.106" y2="99.1756" gradientUnits="userSpaceOnUse">
<stop stop-color="#2B3582"/>
<stop offset="1" stop-color="#150E42"/>
</linearGradient>
<linearGradient id="paint61_linear_6373_49141" x1="92.7922" y1="86.2241" x2="78.9965" y2="103.253" gradientUnits="userSpaceOnUse">
<stop stop-color="#00862D"/>
<stop offset="1" stop-color="#0033CC"/>
</linearGradient>
<linearGradient id="paint62_linear_6373_49141" x1="73.3294" y1="181.656" x2="87.0233" y2="181.656" gradientUnits="userSpaceOnUse">
<stop stop-color="#2B3582"/>
<stop offset="1" stop-color="#150E42"/>
</linearGradient>
<linearGradient id="paint63_linear_6373_49141" x1="54.8187" y1="182.488" x2="68.5125" y2="182.488" gradientUnits="userSpaceOnUse">
<stop stop-color="#2B3582"/>
<stop offset="1" stop-color="#150E42"/>
</linearGradient>
<linearGradient id="paint64_linear_6373_49141" x1="79.6475" y1="101.097" x2="49.0417" y2="148.281" gradientUnits="userSpaceOnUse">
<stop stop-color="#00862D"/>
<stop offset="1" stop-color="#0033CC"/>
</linearGradient>
<linearGradient id="paint65_linear_6373_49141" x1="54.006" y1="84.5725" x2="77.7173" y2="70.1302" gradientUnits="userSpaceOnUse">
<stop stop-color="#FDF53F"/>
<stop offset="1" stop-color="#D93C65"/>
</linearGradient>
<linearGradient id="paint66_linear_6373_49141" x1="70.5878" y1="51.3035" x2="78.2626" y2="89.2266" gradientUnits="userSpaceOnUse">
<stop stop-color="#FDF53F"/>
<stop offset="1" stop-color="#D93C65"/>
</linearGradient>
<linearGradient id="paint67_linear_6373_49141" x1="70.9093" y1="62.3504" x2="80.563" y2="62.3504" gradientUnits="userSpaceOnUse">
<stop stop-color="#C4421B"/>
<stop offset="1" stop-color="#5C0E16"/>
</linearGradient>
<linearGradient id="paint68_linear_6373_49141" x1="71.8138" y1="101.611" x2="86.7121" y2="59.1733" gradientUnits="userSpaceOnUse">
<stop stop-color="#53D8FF"/>
<stop offset="1" stop-color="#3840F7"/>
</linearGradient>
<linearGradient id="paint69_linear_6373_49141" x1="58.3679" y1="93.7992" x2="91.9074" y2="93.7992" gradientUnits="userSpaceOnUse">
<stop stop-color="#53D8FF"/>
<stop offset="1" stop-color="#3840F7"/>
</linearGradient>
<linearGradient id="paint70_linear_6373_49141" x1="55.3291" y1="110.362" x2="63.7358" y2="89.884" gradientUnits="userSpaceOnUse">
<stop stop-color="#00862D"/>
<stop offset="1" stop-color="#4C246D"/>
<stop offset="1" stop-color="#0033CC"/>
</linearGradient>
</defs>
</svg>
