<svg width="203" height="204" viewBox="0 0 203 204" fill="none" xmlns="http://www.w3.org/2000/svg">
<path d="M117.02 139.909L118.013 164.943C118.186 169.309 121.795 172.756 126.185 172.749L186.15 172.651C189.084 172.646 191.567 170.496 191.973 167.604C192.863 161.274 193.973 149.95 192.548 139.341L117.02 139.909Z" fill="url(#paint0_linear_6373_49142)"/>
<path d="M127.914 171.316C127.823 171.313 127.749 171.238 127.749 171.147C127.749 171.053 127.825 170.978 127.918 170.978L129.271 170.976C129.383 170.966 129.44 171.051 129.441 171.145C129.441 171.239 129.365 171.314 129.271 171.314L127.919 171.316C127.917 171.316 127.916 171.316 127.914 171.316ZM132.422 171.308C132.331 171.306 132.258 171.232 132.258 171.14C132.258 171.046 132.333 170.971 132.427 170.971L133.779 170.969C133.879 170.964 133.948 171.045 133.949 171.138C133.949 171.232 133.874 171.307 133.78 171.307L132.428 171.309C132.426 171.308 132.424 171.308 132.422 171.308ZM136.931 171.301C136.84 171.299 136.766 171.224 136.766 171.133C136.766 171.039 136.842 170.964 136.935 170.963L138.288 170.961C138.389 170.969 138.457 171.036 138.458 171.129C138.458 171.223 138.382 171.299 138.288 171.299L136.936 171.301C136.934 171.301 136.933 171.301 136.931 171.301ZM141.439 171.294C141.348 171.291 141.275 171.217 141.275 171.126C141.275 171.032 141.35 170.956 141.444 170.956L142.796 170.953C142.893 170.956 142.965 171.029 142.966 171.122C142.966 171.215 142.891 171.291 142.797 171.291L141.445 171.294C141.443 171.294 141.441 171.294 141.439 171.294ZM124.819 170.819C124.801 170.819 124.782 170.815 124.764 170.809C124.334 170.647 123.916 170.446 123.519 170.212C123.439 170.165 123.413 170.061 123.46 169.981C123.508 169.9 123.611 169.873 123.692 169.921C124.071 170.145 124.472 170.337 124.883 170.492C124.97 170.525 125.014 170.622 124.982 170.71C124.956 170.779 124.889 170.821 124.819 170.819ZM145.948 171.286C145.857 171.284 145.783 171.209 145.783 171.118C145.783 171.024 145.859 170.949 145.952 170.948L147.305 170.945C147.396 170.944 147.474 171.022 147.475 171.115C147.475 171.208 147.399 171.284 147.305 171.284L145.953 171.286C145.951 171.287 145.949 171.287 145.948 171.286ZM150.456 171.279C150.365 171.276 150.292 171.202 150.292 171.111C150.292 171.017 150.367 170.941 150.461 170.941L151.813 170.94C151.913 170.934 151.982 171.015 151.982 171.109C151.982 171.202 151.907 171.278 151.814 171.278L150.462 171.28C150.46 171.279 150.458 171.279 150.456 171.279ZM154.965 171.272C154.874 171.269 154.8 171.195 154.8 171.103C154.8 171.01 154.876 170.934 154.969 170.934L156.322 170.932C156.43 170.923 156.491 171.008 156.492 171.102C156.492 171.195 156.416 171.271 156.322 171.271L154.97 171.273C154.968 171.272 154.967 171.272 154.965 171.272ZM159.473 171.264C159.382 171.262 159.309 171.187 159.309 171.096C159.309 171.002 159.384 170.927 159.478 170.927L160.83 170.925C160.937 170.919 160.999 171 160.999 171.094C160.999 171.187 160.924 171.263 160.831 171.263L159.479 171.265C159.477 171.264 159.475 171.264 159.473 171.264ZM163.982 171.257C163.891 171.254 163.817 171.18 163.817 171.088C163.817 170.995 163.893 170.919 163.986 170.919L165.339 170.917C165.449 170.925 165.508 170.992 165.508 171.085C165.508 171.179 165.432 171.254 165.339 171.255L163.987 171.257C163.985 171.257 163.984 171.257 163.982 171.257ZM168.49 171.249C168.399 171.247 168.326 171.172 168.326 171.081C168.326 170.987 168.401 170.912 168.495 170.911L169.847 170.909C169.951 170.92 170.016 170.984 170.016 171.077C170.016 171.171 169.941 171.247 169.848 171.247L168.496 171.249C168.494 171.25 168.492 171.249 168.49 171.249ZM172.999 171.242C172.908 171.239 172.834 171.165 172.834 171.074C172.834 170.98 172.91 170.904 173.003 170.904L174.356 170.902C174.466 170.91 174.525 170.979 174.525 171.072C174.525 171.165 174.449 171.241 174.356 171.241L173.003 171.243C173.002 171.242 173.001 171.242 172.999 171.242ZM177.507 171.235C177.416 171.232 177.343 171.157 177.343 171.066C177.343 170.973 177.418 170.897 177.512 170.897L178.864 170.895C178.973 170.891 179.033 170.971 179.033 171.064C179.033 171.158 178.958 171.234 178.865 171.234L177.513 171.236C177.511 171.235 177.509 171.235 177.507 171.235ZM182.016 171.228C181.925 171.225 181.851 171.15 181.851 171.059C181.851 170.966 181.927 170.89 182.02 170.89L183.373 170.888C183.463 170.878 183.542 170.963 183.542 171.057C183.542 171.15 183.466 171.226 183.373 171.226L182.02 171.228C182.019 171.228 182.018 171.228 182.016 171.228ZM186.489 170.91C186.421 170.908 186.358 170.865 186.334 170.797C186.304 170.709 186.35 170.612 186.439 170.582C186.852 170.438 187.247 170.244 187.613 170.005C187.691 169.955 187.796 169.977 187.847 170.055C187.898 170.134 187.876 170.238 187.798 170.289C187.409 170.543 186.989 170.748 186.55 170.901C186.53 170.908 186.509 170.911 186.489 170.91ZM121.28 168.131C121.229 168.13 121.179 168.106 121.148 168.062C120.876 167.69 120.635 167.293 120.433 166.881C120.392 166.798 120.427 166.696 120.511 166.655C120.595 166.613 120.696 166.648 120.737 166.732C120.931 167.126 121.161 167.506 121.421 167.863C121.477 167.938 121.46 168.044 121.385 168.099C121.353 168.122 121.316 168.132 121.28 168.131ZM189.736 167.96C189.714 167.96 189.692 167.954 189.671 167.945C189.586 167.906 189.548 167.806 189.588 167.721C189.769 167.323 189.902 166.905 189.983 166.474C190 166.382 190.088 166.324 190.18 166.339C190.272 166.356 190.332 166.445 190.315 166.536C190.23 166.994 190.088 167.439 189.895 167.861C189.866 167.925 189.802 167.962 189.736 167.96ZM119.802 163.94C119.715 163.938 119.642 163.869 119.638 163.78L119.585 162.427C119.581 162.334 119.653 162.255 119.746 162.251C119.839 162.243 119.918 162.32 119.922 162.414L119.976 163.763C119.981 163.856 119.909 163.936 119.815 163.94C119.811 163.94 119.807 163.94 119.802 163.94ZM190.557 163.545C190.552 163.545 190.546 163.545 190.541 163.544C190.449 163.533 190.382 163.45 190.393 163.357C190.444 162.923 190.494 162.475 190.543 162.014C190.553 161.922 190.638 161.854 190.729 161.864C190.822 161.874 190.889 161.957 190.879 162.05C190.83 162.512 190.779 162.961 190.728 163.395C190.719 163.484 190.643 163.548 190.557 163.545ZM119.624 159.435C119.535 159.432 119.463 159.362 119.46 159.272L119.406 157.921C119.402 157.828 119.475 157.749 119.568 157.746C119.663 157.737 119.74 157.815 119.744 157.908L119.798 159.26C119.802 159.353 119.729 159.432 119.636 159.436C119.631 159.436 119.627 159.435 119.624 159.435ZM191.002 159.058C190.999 159.058 190.996 159.058 190.993 159.058C190.9 159.051 190.83 158.969 190.838 158.876C190.874 158.435 190.908 157.985 190.94 157.529C190.946 157.436 191.035 157.364 191.12 157.372C191.213 157.378 191.283 157.46 191.277 157.552C191.245 158.01 191.21 158.459 191.175 158.902C191.168 158.993 191.091 159.061 191.002 159.058ZM119.445 154.93C119.356 154.927 119.284 154.857 119.281 154.768L119.227 153.417C119.223 153.323 119.296 153.244 119.389 153.241C119.48 153.233 119.56 153.31 119.564 153.403L119.618 154.755C119.622 154.848 119.549 154.927 119.456 154.931C119.452 154.931 119.448 154.931 119.445 154.93ZM191.283 154.559C191.282 154.559 191.281 154.559 191.28 154.559C191.186 154.555 191.114 154.476 191.118 154.383C191.138 153.937 191.154 153.488 191.168 153.032C191.171 152.939 191.267 152.859 191.343 152.869C191.436 152.872 191.509 152.95 191.506 153.043C191.492 153.499 191.475 153.951 191.456 154.397C191.452 154.49 191.375 154.562 191.283 154.559ZM119.266 150.425C119.177 150.423 119.105 150.352 119.102 150.263L119.049 148.912C119.045 148.818 119.117 148.739 119.21 148.736C119.303 148.728 119.382 148.805 119.386 148.898L119.439 150.249C119.443 150.343 119.37 150.421 119.277 150.425C119.274 150.425 119.27 150.425 119.266 150.425ZM191.383 150.053C191.292 150.05 191.218 149.976 191.218 149.883C191.218 149.436 191.216 148.986 191.209 148.534C191.208 148.441 191.283 148.364 191.376 148.363C191.46 148.365 191.545 148.436 191.547 148.529C191.553 148.983 191.557 149.435 191.556 149.884C191.556 149.978 191.48 150.053 191.387 150.053C191.385 150.053 191.384 150.053 191.383 150.053ZM119.087 145.921C118.998 145.918 118.926 145.848 118.923 145.759L118.87 144.406C118.866 144.313 118.939 144.235 119.032 144.231C119.125 144.224 119.203 144.3 119.207 144.393L119.261 145.745C119.265 145.839 119.192 145.917 119.099 145.921C119.095 145.921 119.091 145.921 119.087 145.921ZM191.274 145.546C191.187 145.543 191.114 145.474 191.11 145.385C191.088 144.937 191.062 144.488 191.032 144.038C191.026 143.945 191.096 143.864 191.189 143.858C191.283 143.853 191.363 143.922 191.369 144.015C191.399 144.467 191.425 144.918 191.448 145.369C191.452 145.462 191.381 145.541 191.287 145.546C191.283 145.547 191.279 145.547 191.274 145.546ZM118.908 141.415C118.82 141.413 118.747 141.343 118.744 141.253L118.684 139.727L120.143 139.716C120.249 139.722 120.312 139.791 120.313 139.884C120.314 139.978 120.238 140.054 120.145 140.055L119.035 140.063L119.082 141.24C119.086 141.333 119.013 141.412 118.92 141.415C118.916 141.415 118.912 141.415 118.908 141.415ZM123.295 140.031C123.204 140.028 123.131 139.954 123.13 139.863C123.13 139.769 123.205 139.693 123.298 139.692L124.65 139.683C124.758 139.681 124.82 139.757 124.821 139.85C124.822 139.944 124.746 140.02 124.653 140.021L123.301 140.031C123.299 140.031 123.297 140.031 123.295 140.031ZM127.803 139.997C127.712 139.994 127.639 139.921 127.638 139.829C127.637 139.735 127.713 139.659 127.806 139.658L129.158 139.649C129.257 139.649 129.328 139.724 129.329 139.817C129.329 139.91 129.254 139.986 129.161 139.987L127.809 139.997C127.807 139.997 127.805 139.997 127.803 139.997ZM132.312 139.963C132.221 139.96 132.148 139.887 132.147 139.795C132.147 139.701 132.222 139.626 132.315 139.625L133.668 139.614C133.768 139.619 133.838 139.689 133.839 139.782C133.839 139.876 133.764 139.951 133.671 139.952L132.318 139.963C132.315 139.963 132.313 139.963 132.312 139.963ZM136.82 139.929C136.729 139.926 136.656 139.853 136.655 139.761C136.654 139.668 136.73 139.592 136.823 139.591L138.175 139.58C138.278 139.578 138.345 139.655 138.346 139.748C138.346 139.842 138.271 139.917 138.178 139.919L136.826 139.929C136.824 139.929 136.822 139.929 136.82 139.929ZM141.328 139.895C141.237 139.892 141.164 139.818 141.164 139.727C141.163 139.633 141.238 139.557 141.331 139.556L142.684 139.547C142.787 139.56 142.854 139.621 142.854 139.714C142.855 139.808 142.779 139.884 142.686 139.885L141.334 139.895C141.332 139.895 141.33 139.895 141.328 139.895ZM145.837 139.861C145.746 139.858 145.673 139.785 145.672 139.693C145.671 139.599 145.747 139.523 145.84 139.523L147.192 139.513C147.298 139.519 147.362 139.588 147.363 139.681C147.363 139.774 147.288 139.85 147.195 139.851L145.843 139.861C145.841 139.861 145.839 139.861 145.837 139.861ZM190.919 141.052C190.836 141.05 190.765 140.987 190.756 140.902C190.706 140.455 190.653 140.008 190.594 139.562C190.582 139.47 190.648 139.385 190.74 139.373C190.83 139.362 190.917 139.426 190.93 139.519C190.989 139.966 191.043 140.416 191.093 140.865C191.103 140.958 191.036 141.041 190.943 141.051C190.935 141.052 190.927 141.052 190.919 141.052ZM150.345 139.827C150.254 139.824 150.181 139.751 150.181 139.659C150.18 139.565 150.255 139.489 150.348 139.489L151.701 139.479C151.801 139.478 151.871 139.554 151.871 139.647C151.872 139.74 151.796 139.817 151.703 139.817L150.351 139.827C150.349 139.827 150.347 139.827 150.345 139.827ZM154.854 139.793C154.763 139.791 154.69 139.717 154.689 139.625C154.688 139.532 154.764 139.456 154.857 139.455L156.209 139.444C156.318 139.437 156.379 139.519 156.38 139.612C156.38 139.706 156.305 139.781 156.212 139.783L154.86 139.793C154.858 139.793 154.855 139.793 154.854 139.793ZM159.362 139.759C159.272 139.757 159.198 139.683 159.198 139.591C159.197 139.498 159.272 139.422 159.365 139.421L160.718 139.411C160.816 139.418 160.887 139.485 160.888 139.578C160.889 139.672 160.813 139.748 160.72 139.749L159.368 139.759C159.366 139.759 159.363 139.759 159.362 139.759ZM163.87 139.725C163.78 139.722 163.707 139.649 163.705 139.557C163.705 139.463 163.78 139.387 163.873 139.387L165.226 139.377C165.328 139.376 165.395 139.452 165.396 139.545C165.397 139.638 165.321 139.714 165.228 139.715L163.876 139.725C163.874 139.725 163.872 139.725 163.87 139.725ZM168.379 139.691C168.288 139.688 168.215 139.615 168.214 139.523C168.213 139.429 168.289 139.353 168.382 139.353L169.734 139.343C169.838 139.335 169.904 139.417 169.905 139.511C169.905 139.604 169.83 139.681 169.737 139.681L168.384 139.691C168.382 139.691 168.38 139.691 168.379 139.691ZM172.887 139.657C172.796 139.655 172.723 139.581 172.722 139.489C172.722 139.396 172.797 139.32 172.89 139.319L174.243 139.309C174.335 139.312 174.412 139.383 174.413 139.477C174.414 139.571 174.338 139.647 174.245 139.647L172.893 139.657C172.891 139.657 172.889 139.657 172.887 139.657ZM177.396 139.623C177.304 139.621 177.232 139.547 177.231 139.456C177.23 139.362 177.306 139.286 177.399 139.285L178.751 139.275C178.856 139.275 178.921 139.35 178.922 139.443C178.922 139.537 178.847 139.613 178.754 139.614L177.401 139.623C177.399 139.623 177.397 139.623 177.396 139.623ZM181.904 139.59C181.814 139.587 181.74 139.513 181.739 139.422C181.739 139.328 181.814 139.253 181.907 139.251L183.26 139.241C183.366 139.236 183.429 139.316 183.43 139.409C183.431 139.502 183.355 139.578 183.262 139.579L181.91 139.59C181.908 139.59 181.905 139.59 181.904 139.59ZM186.413 139.556C186.322 139.553 186.249 139.48 186.248 139.388C186.247 139.294 186.323 139.219 186.416 139.217L187.768 139.207C187.876 139.218 187.938 139.282 187.939 139.375C187.939 139.469 187.864 139.544 187.771 139.545L186.418 139.556C186.416 139.556 186.414 139.556 186.413 139.556Z" fill="white"/>
<path d="M134.456 121.599L134.621 119.666C134.822 119.204 135.242 118.874 135.741 118.791C137.607 118.479 142.236 117.922 144.479 119.572L144.829 121.814L134.456 121.599Z" fill="url(#paint1_linear_6373_49142)"/>
<path d="M140.277 119.696C139.848 119.804 139.417 119.808 138.985 119.705C138.462 119.581 138.089 119.116 138.086 118.58L138.04 112.533L141.117 112.51L141.163 118.552C141.167 119.09 140.801 119.564 140.277 119.696Z" fill="url(#paint2_linear_6373_49142)"/>
<path d="M164.262 121.374L164.428 119.442C164.628 118.979 165.048 118.65 165.547 118.566C167.413 118.255 172.042 117.697 174.285 119.348L174.635 121.589L164.262 121.374Z" fill="url(#paint3_linear_6373_49142)"/>
<path d="M170.083 119.472C169.654 119.58 169.223 119.584 168.79 119.481C168.267 119.357 167.895 118.892 167.891 118.356L167.841 111.672L170.919 111.648L170.969 118.328C170.973 118.866 170.607 119.34 170.083 119.472Z" fill="url(#paint4_linear_6373_49142)"/>
<path d="M137.738 114.018L170.825 112.673C171.58 112.643 172.215 112.094 172.339 111.352C172.513 110.315 172.661 108.763 172.411 107.157C172.126 105.33 170.543 103.984 168.686 103.954C162.511 103.853 146.794 103.976 138.157 107.468C137.244 107.837 136.57 108.625 136.346 109.58C136.131 110.492 135.993 111.707 136.292 112.941C136.45 113.598 137.061 114.045 137.738 114.018Z" fill="url(#paint5_linear_6373_49142)"/>
<path d="M137.139 112.607C136.917 112.601 136.728 112.432 136.704 112.205C136.698 112.15 136.562 110.853 136.891 109.599C137.158 108.585 137.951 107.765 138.963 107.46C140.818 106.901 144.365 105.947 147.274 105.844C147.522 105.839 147.732 106.029 147.741 106.278C147.749 106.528 147.555 106.736 147.306 106.745C144.499 106.844 141.037 107.776 139.223 108.323C138.51 108.538 137.95 109.114 137.763 109.827C137.478 110.916 137.599 112.095 137.6 112.107C137.627 112.354 137.447 112.576 137.2 112.603C137.18 112.607 137.159 112.608 137.139 112.607Z" fill="url(#paint6_linear_6373_49142)"/>
<path d="M119.094 120.961C129.785 120.744 176.035 119.91 189.482 121.429C190.64 121.56 191.59 122.399 191.849 123.53C192.67 127.113 194.33 135.439 194.203 143.705C194.185 144.83 193.368 145.785 192.259 146.003L161.634 152.036L150.74 152.118L118.014 145.868C116.861 145.648 116.004 144.679 115.936 143.511C115.692 139.355 115.287 129.601 116.364 123.313C116.592 121.978 117.733 120.989 119.094 120.961Z" fill="url(#paint7_linear_6373_49142)"/>
<path d="M150.976 149.644C150.967 149.644 150.958 149.643 150.949 149.641L149.62 149.388C149.528 149.37 149.468 149.281 149.485 149.19C149.503 149.098 149.591 149.039 149.683 149.055L151.011 149.309C151.103 149.326 151.163 149.415 151.146 149.507C151.131 149.59 151.057 149.647 150.976 149.644ZM152.921 149.63C152.831 149.628 152.757 149.554 152.757 149.462C152.756 149.369 152.831 149.293 152.924 149.292L154.277 149.282C154.37 149.286 154.446 149.356 154.447 149.45C154.448 149.544 154.372 149.62 154.279 149.62L152.927 149.63C152.925 149.63 152.923 149.63 152.921 149.63ZM157.43 149.596C157.339 149.593 157.266 149.52 157.265 149.428C157.264 149.334 157.34 149.258 157.433 149.257L158.786 149.248C158.887 149.241 158.956 149.322 158.956 149.415C158.957 149.509 158.881 149.585 158.788 149.586L157.436 149.596C157.434 149.596 157.432 149.596 157.43 149.596ZM161.927 149.455C161.85 149.453 161.781 149.398 161.766 149.319C161.748 149.227 161.807 149.138 161.899 149.12L163.226 148.859C163.318 148.842 163.407 148.9 163.424 148.992C163.443 149.084 163.383 149.172 163.291 149.19L161.964 149.452C161.952 149.455 161.939 149.456 161.927 149.455ZM146.548 148.799C146.539 148.799 146.529 148.798 146.52 148.796L145.191 148.542C145.1 148.524 145.04 148.436 145.057 148.344C145.075 148.252 145.162 148.194 145.255 148.21L146.584 148.464C146.676 148.481 146.736 148.57 146.719 148.662C146.703 148.744 146.629 148.801 146.548 148.799ZM142.119 147.953C142.11 147.953 142.101 147.952 142.092 147.95L140.764 147.696C140.672 147.679 140.612 147.59 140.629 147.498C140.646 147.407 140.733 147.347 140.827 147.364L142.156 147.618C142.247 147.635 142.307 147.724 142.29 147.815C142.274 147.899 142.201 147.955 142.119 147.953ZM166.35 148.584C166.273 148.582 166.205 148.527 166.189 148.448C166.171 148.356 166.231 148.267 166.322 148.249L167.649 147.988C167.74 147.971 167.83 148.029 167.848 148.121C167.866 148.213 167.806 148.301 167.714 148.319L166.387 148.581C166.376 148.583 166.363 148.584 166.35 148.584ZM137.691 147.108C137.682 147.108 137.672 147.106 137.663 147.104L136.335 146.85C136.243 146.832 136.184 146.744 136.2 146.652C136.218 146.561 136.307 146.502 136.398 146.518L137.726 146.773C137.818 146.79 137.878 146.879 137.861 146.97C137.846 147.053 137.772 147.11 137.691 147.108ZM170.774 147.713C170.697 147.711 170.629 147.655 170.613 147.576C170.595 147.484 170.655 147.396 170.746 147.378L172.073 147.116C172.166 147.1 172.254 147.158 172.272 147.249C172.29 147.341 172.23 147.43 172.138 147.448L170.811 147.709C170.799 147.712 170.787 147.713 170.774 147.713ZM133.262 146.262C133.253 146.262 133.244 146.261 133.235 146.259L131.906 146.004C131.814 145.987 131.754 145.898 131.772 145.807C131.79 145.715 131.879 145.657 131.97 145.673L133.299 145.927C133.39 145.944 133.45 146.033 133.433 146.125C133.417 146.207 133.344 146.265 133.262 146.262ZM175.198 146.841C175.12 146.839 175.052 146.784 175.036 146.704C175.018 146.613 175.078 146.524 175.17 146.506L176.497 146.244C176.589 146.227 176.677 146.286 176.695 146.378C176.713 146.469 176.653 146.558 176.562 146.576L175.235 146.838C175.222 146.84 175.21 146.842 175.198 146.841ZM128.834 145.416C128.825 145.416 128.816 145.415 128.806 145.413L127.478 145.159C127.386 145.142 127.327 145.053 127.343 144.962C127.36 144.87 127.448 144.81 127.541 144.827L128.87 145.081C128.961 145.098 129.021 145.187 129.004 145.278C128.989 145.362 128.915 145.418 128.834 145.416ZM124.405 144.571C124.396 144.571 124.387 144.569 124.378 144.567L123.05 144.314C122.958 144.296 122.898 144.208 122.916 144.116C122.933 144.024 123.02 143.966 123.113 143.981L124.442 144.235C124.533 144.253 124.593 144.341 124.576 144.433C124.56 144.515 124.487 144.573 124.405 144.571ZM179.621 145.969C179.543 145.967 179.475 145.912 179.46 145.833C179.441 145.741 179.501 145.652 179.593 145.634L180.92 145.373C181.01 145.356 181.101 145.414 181.118 145.506C181.136 145.598 181.077 145.686 180.985 145.704L179.658 145.966C179.646 145.969 179.633 145.97 179.621 145.969ZM119.977 143.725C119.968 143.725 119.959 143.724 119.949 143.722L118.621 143.468C118.529 143.451 118.47 143.362 118.487 143.27C118.504 143.179 118.592 143.119 118.684 143.136L120.013 143.389C120.104 143.407 120.164 143.495 120.147 143.587C120.132 143.67 120.058 143.727 119.977 143.725ZM184.045 145.098C183.967 145.096 183.899 145.041 183.883 144.962C183.865 144.87 183.925 144.781 184.017 144.763L185.344 144.502C185.436 144.484 185.525 144.543 185.542 144.635C185.56 144.727 185.501 144.815 185.409 144.833L184.082 145.095C184.069 145.098 184.056 145.099 184.045 145.098ZM188.468 144.227C188.391 144.225 188.322 144.169 188.307 144.09C188.289 143.998 188.348 143.91 188.44 143.892L189.767 143.63C189.856 143.614 189.948 143.672 189.965 143.763C189.984 143.855 189.924 143.944 189.832 143.962L188.505 144.223C188.493 144.226 188.48 144.227 188.468 144.227ZM118.415 140.386C118.326 140.384 118.254 140.313 118.251 140.223C118.234 139.792 118.217 139.339 118.203 138.87C118.2 138.777 118.273 138.699 118.367 138.696C118.463 138.684 118.538 138.766 118.541 138.86C118.556 139.328 118.572 139.78 118.589 140.211C118.593 140.304 118.52 140.383 118.427 140.387C118.423 140.386 118.419 140.386 118.415 140.386ZM191.558 142.259C191.467 142.256 191.395 142.183 191.394 142.092C191.388 141.642 191.378 141.192 191.363 140.743C191.359 140.65 191.433 140.572 191.526 140.569C191.614 140.56 191.698 140.639 191.701 140.732C191.716 141.183 191.727 141.635 191.732 142.088C191.733 142.181 191.659 142.258 191.565 142.259C191.562 142.259 191.56 142.259 191.558 142.259ZM118.299 135.878C118.209 135.875 118.136 135.802 118.135 135.71C118.13 135.265 118.127 134.812 118.127 134.356C118.127 134.262 118.203 134.187 118.297 134.187C118.388 134.2 118.466 134.262 118.466 134.356C118.466 134.811 118.468 135.262 118.473 135.707C118.474 135.801 118.399 135.877 118.306 135.878C118.304 135.878 118.302 135.878 118.299 135.878ZM191.348 137.756C191.263 137.753 191.192 137.687 191.184 137.599C191.149 137.147 191.11 136.698 191.068 136.254C191.059 136.161 191.127 136.079 191.22 136.07C191.313 136.06 191.396 136.129 191.404 136.222C191.447 136.668 191.486 137.119 191.521 137.573C191.529 137.666 191.459 137.747 191.366 137.754C191.36 137.755 191.354 137.756 191.348 137.756ZM118.334 131.368C118.24 131.365 118.166 131.288 118.169 131.194C118.182 130.741 118.198 130.289 118.217 129.84C118.222 129.747 118.285 129.665 118.393 129.679C118.486 129.683 118.559 129.761 118.555 129.855C118.535 130.302 118.519 130.753 118.507 131.205C118.504 131.297 118.427 131.37 118.334 131.368ZM190.875 133.27C190.794 133.269 190.723 133.207 190.712 133.123C190.652 132.668 190.591 132.222 190.527 131.785C190.513 131.693 190.578 131.607 190.67 131.594C190.761 131.58 190.848 131.644 190.862 131.736C190.926 132.174 190.988 132.622 191.048 133.079C191.06 133.172 190.995 133.257 190.902 133.269C190.893 133.27 190.884 133.27 190.875 133.27ZM190.185 128.813C190.106 128.811 190.038 128.754 190.023 128.674C189.939 128.209 189.857 127.765 189.777 127.345C189.759 127.253 189.819 127.164 189.911 127.147C190.003 127.129 190.091 127.189 190.109 127.281C190.19 127.703 190.272 128.148 190.355 128.614C190.371 128.706 190.31 128.793 190.219 128.81C190.207 128.812 190.196 128.813 190.185 128.813ZM118.59 126.867C118.586 126.867 118.583 126.867 118.579 126.866C118.486 126.858 118.418 126.776 118.426 126.682C118.468 126.222 118.516 125.771 118.57 125.333C118.581 125.24 118.665 125.175 118.758 125.186C118.851 125.197 118.917 125.281 118.906 125.374C118.853 125.809 118.805 126.256 118.763 126.714C118.755 126.803 118.678 126.87 118.59 126.867ZM120.433 123.748C120.344 123.745 120.271 123.673 120.269 123.582C120.267 123.489 120.341 123.412 120.435 123.41L121.788 123.384C121.877 123.385 121.958 123.456 121.96 123.55C121.962 123.643 121.888 123.72 121.794 123.722L120.441 123.748C120.439 123.749 120.436 123.749 120.433 123.748ZM124.943 123.665C124.853 123.663 124.781 123.59 124.779 123.5C124.777 123.406 124.852 123.329 124.945 123.327L126.298 123.304C126.381 123.306 126.469 123.377 126.47 123.47C126.472 123.564 126.397 123.641 126.303 123.643L124.95 123.666C124.948 123.665 124.946 123.665 124.943 123.665ZM129.453 123.591C129.363 123.588 129.29 123.515 129.289 123.424C129.288 123.33 129.362 123.254 129.456 123.252L130.809 123.232C130.902 123.233 130.978 123.305 130.98 123.398C130.982 123.492 130.907 123.569 130.814 123.57L129.461 123.591C129.458 123.591 129.456 123.591 129.453 123.591ZM133.963 123.526C133.874 123.523 133.8 123.45 133.8 123.359C133.798 123.265 133.873 123.189 133.966 123.187L135.319 123.169C135.406 123.175 135.489 123.243 135.49 123.336C135.491 123.43 135.417 123.506 135.323 123.507L133.97 123.526C133.968 123.526 133.965 123.526 133.963 123.526ZM138.473 123.469C138.383 123.466 138.31 123.394 138.309 123.302C138.307 123.208 138.382 123.131 138.476 123.131L139.829 123.115C139.934 123.123 139.999 123.189 140 123.282C140.001 123.376 139.926 123.453 139.833 123.453L138.48 123.469C138.477 123.469 138.475 123.469 138.473 123.469ZM142.983 123.422C142.893 123.42 142.82 123.346 142.819 123.255C142.818 123.161 142.893 123.085 142.986 123.084L144.34 123.072C144.432 123.08 144.51 123.146 144.51 123.239C144.511 123.333 144.436 123.409 144.343 123.41L142.99 123.422C142.987 123.422 142.985 123.422 142.983 123.422ZM147.492 123.386C147.401 123.384 147.328 123.31 147.328 123.219C147.327 123.125 147.402 123.049 147.495 123.048L148.848 123.04C148.95 123.038 149.018 123.114 149.019 123.208C149.02 123.302 148.944 123.377 148.85 123.378L147.498 123.386C147.496 123.386 147.494 123.386 147.492 123.386ZM189.292 124.391C189.216 124.389 189.149 124.336 189.132 124.259L189.122 124.22C188.786 124.182 188.426 124.146 188.042 124.111C187.949 124.103 187.88 124.021 187.889 123.927C187.898 123.835 187.987 123.76 188.073 123.774C188.477 123.811 188.854 123.849 189.205 123.889C189.32 123.902 189.415 123.98 189.439 124.084L189.461 124.185C189.482 124.276 189.425 124.367 189.334 124.387C189.319 124.39 189.305 124.391 189.292 124.391ZM152.001 123.362C151.91 123.359 151.837 123.285 151.836 123.193C151.835 123.1 151.911 123.024 152.005 123.023L153.358 123.019C153.46 123.03 153.527 123.094 153.527 123.188C153.527 123.282 153.452 123.357 153.359 123.357L152.007 123.362C152.004 123.362 152.003 123.362 152.001 123.362ZM156.509 123.351C156.418 123.348 156.345 123.273 156.345 123.181C156.345 123.088 156.42 123.012 156.514 123.012L157.867 123.012C157.958 123.018 158.036 123.088 158.036 123.181C158.036 123.275 157.96 123.35 157.867 123.35L156.514 123.351C156.512 123.351 156.51 123.351 156.509 123.351ZM161.018 123.355C160.926 123.353 160.853 123.278 160.853 123.185C160.853 123.092 160.929 123.016 161.022 123.017L162.375 123.022C162.377 123.022 162.378 123.022 162.379 123.022C162.471 123.025 162.544 123.1 162.544 123.192C162.543 123.286 162.467 123.36 162.374 123.36L161.022 123.355C161.02 123.355 161.019 123.355 161.018 123.355ZM165.526 123.38C165.434 123.377 165.361 123.302 165.362 123.209C165.362 123.116 165.438 123.041 165.532 123.042L166.885 123.053C166.994 123.068 167.054 123.131 167.052 123.224C167.052 123.317 166.975 123.392 166.882 123.392L165.529 123.38C165.529 123.38 165.527 123.38 165.526 123.38ZM184.905 123.881C184.903 123.881 184.901 123.881 184.9 123.881C184.468 123.855 184.017 123.831 183.55 123.807C183.457 123.802 183.386 123.723 183.39 123.629C183.396 123.536 183.469 123.46 183.568 123.468C184.036 123.492 184.486 123.517 184.92 123.543C185.013 123.548 185.084 123.628 185.079 123.721C185.073 123.813 184.996 123.883 184.905 123.881ZM170.035 123.427C169.942 123.424 169.869 123.348 169.87 123.256C169.871 123.163 169.948 123.088 170.041 123.089C170.499 123.095 170.95 123.101 171.394 123.109C171.395 123.109 171.395 123.109 171.396 123.109C171.489 123.112 171.562 123.188 171.561 123.281C171.559 123.374 171.482 123.449 171.389 123.448C170.945 123.44 170.494 123.434 170.037 123.427C170.036 123.427 170.035 123.427 170.035 123.427ZM180.401 123.671C180.401 123.671 180.4 123.671 180.399 123.671C179.96 123.654 179.51 123.639 179.048 123.624C178.955 123.621 178.882 123.543 178.885 123.449C178.888 123.356 178.966 123.284 179.059 123.286H179.059C179.522 123.301 179.973 123.317 180.412 123.333C180.506 123.336 180.578 123.415 180.575 123.508C180.571 123.6 180.494 123.673 180.401 123.671ZM174.543 123.504C174.45 123.502 174.376 123.425 174.378 123.332C174.38 123.239 174.457 123.165 174.55 123.167C175.01 123.176 175.46 123.187 175.903 123.198H175.903C175.996 123.2 176.07 123.278 176.068 123.371C176.066 123.464 175.988 123.538 175.895 123.536C175.453 123.525 175.002 123.515 174.543 123.505C174.543 123.504 174.543 123.504 174.543 123.504Z" fill="white"/>
<path d="M160.643 156.62L151.099 156.691C149.848 156.7 148.788 155.778 148.631 154.543L147.459 145.368C147.272 143.906 148.41 142.61 149.89 142.599L161.355 142.513C162.805 142.502 163.953 143.731 163.836 145.17L163.086 154.36C162.983 155.63 161.923 156.61 160.643 156.62Z" fill="url(#paint8_linear_6373_49142)"/>
<path d="M159.456 154.938L152.193 154.993C151.241 155 150.434 154.298 150.313 153.358L149.421 146.375C149.28 145.262 150.145 144.276 151.272 144.268L159.998 144.202C161.102 144.194 161.975 145.13 161.886 146.225L161.316 153.219C161.238 154.185 160.43 154.931 159.456 154.938Z" fill="url(#paint9_linear_6373_49142)"/>
<path d="M131.111 169.926C130.863 174.422 126.783 177.999 121.994 177.999H38.8921C34.0863 177.999 30.0468 174.415 29.8693 169.909L24.3662 30.4777C24.1372 24.6682 28.4265 19.9418 33.9484 19.96L129.41 20.2748C134.909 20.2924 139.105 25.0273 138.785 30.8218L131.111 169.926Z" fill="url(#paint10_linear_6373_49142)"/>
<path d="M129.445 23.2265L34.2147 22.9234C30.237 22.911 27.1387 26.3176 27.2942 30.5074L32.4597 169.951C32.5807 173.208 35.4968 175.835 38.9742 175.835L122.252 175.839C125.717 175.839 128.664 173.218 128.837 169.967L136.215 30.8378C136.436 26.6578 133.406 23.2389 129.445 23.2265Z" fill="url(#paint11_linear_6373_49142)"/>
<path d="M42.5092 33.3499C42.5606 35.4445 40.993 37.1325 39.0077 37.1273C37.0224 37.1214 35.3611 35.4237 35.2973 33.3291C35.2329 31.2267 36.8006 29.5218 38.7982 29.5283C40.7965 29.5342 42.4578 31.2482 42.5092 33.3499Z" fill="url(#paint12_linear_6373_49142)"/>
<path d="M128.199 33.6046C128.101 35.6953 126.419 37.3801 124.441 37.3742C122.463 37.3683 120.927 35.6738 121.013 33.5832C121.098 31.4847 122.781 29.7837 124.772 29.7896C126.762 29.7961 128.296 31.5068 128.199 33.6046Z" fill="url(#paint13_linear_6373_49142)"/>
<path d="M45.7909 167.181C45.8312 168.837 44.4334 170.176 42.668 170.175C40.9025 170.175 39.4305 168.836 39.3798 167.18C39.329 165.519 40.7276 164.168 42.5027 164.169C44.2785 164.169 45.7506 165.52 45.7909 167.181Z" fill="url(#paint14_linear_6373_49142)"/>
<path d="M121.985 167.199C121.908 168.853 120.419 170.19 118.659 170.189C116.899 170.189 115.527 168.851 115.594 167.198C115.661 165.539 117.15 164.191 118.92 164.191C120.69 164.192 122.061 165.541 121.985 167.199Z" fill="url(#paint15_linear_6373_49142)"/>
<path d="M105.563 67.8489C105.179 81.2989 94.3323 91.9597 81.322 91.9369C68.3052 91.9141 57.6139 81.2046 57.4454 67.7402C57.273 53.9591 68.1419 42.5776 81.7182 42.6153C95.2879 42.6531 105.956 54.0827 105.563 67.8489Z" fill="url(#paint16_linear_6373_49142)"/>
<path d="M101.799 67.8406C101.511 79.2065 92.3603 88.243 81.3515 88.2228C70.3375 88.2026 61.3212 79.1245 61.2158 67.7489C61.1078 56.1475 70.2744 46.5984 81.6858 46.629C93.0927 46.6596 102.093 56.2503 101.799 67.8406Z" fill="url(#paint17_linear_6373_49142)"/>
<path d="M97.1566 67.8305C96.9686 76.6139 89.9122 83.6248 81.3896 83.6086C72.8643 83.5923 65.9133 76.5495 65.8664 67.7596C65.819 58.8362 72.8852 51.5203 81.6472 51.543C90.4059 51.5658 97.3472 58.913 97.1566 67.8305Z" fill="url(#paint18_linear_6373_49142)"/>
<path d="M88.6432 67.8111C88.5866 71.8298 85.37 75.0607 81.458 75.0529C77.5453 75.0444 74.3794 71.7992 74.3872 67.7792C74.395 63.7312 77.6136 60.4372 81.5751 60.4463C85.5365 60.4561 88.7005 63.7644 88.6432 67.8111Z" fill="url(#paint19_linear_6373_49142)"/>
<path d="M77.0551 67.8364C76.8892 67.8358 76.7546 67.6979 76.7559 67.5275C76.7669 64.7727 78.9669 62.5272 81.6599 62.5337C81.8205 62.5344 81.9818 62.5428 82.1406 62.5591C82.3064 62.576 82.4268 62.7282 82.4092 62.8993C82.3916 63.0704 82.244 63.1939 82.0768 63.1777C81.9376 63.1634 81.7958 63.1562 81.6547 63.1556C79.296 63.1497 77.368 65.1161 77.3576 67.5294C77.3563 67.6992 77.221 67.8371 77.0551 67.8364Z" fill="#91B3FA"/>
<path d="M114.208 131.481C113.544 148.967 98.5793 162.738 80.7541 162.733C62.9159 162.727 48.1421 148.929 47.7577 131.417C47.3609 113.335 62.3662 98.2624 81.2719 98.293C100.163 98.3242 114.893 113.424 114.208 131.481Z" fill="url(#paint20_linear_6373_49142)"/>
<path d="M109.011 131.476C108.519 146.262 95.8934 157.957 80.7911 157.952C65.6798 157.945 53.2211 146.226 52.9654 131.422C52.7033 116.211 65.3578 103.591 81.2283 103.615C97.0883 103.639 109.517 116.284 109.011 131.476Z" fill="url(#paint21_linear_6373_49142)"/>
<path d="M102.601 131.469C102.286 142.907 92.5486 152.001 80.8399 151.995C69.1253 151.989 59.5209 142.876 59.3895 131.428C59.2555 119.739 69.0115 110.094 81.1768 110.111C93.335 110.128 102.922 119.791 102.601 131.469Z" fill="url(#paint22_linear_6373_49142)"/>
<path d="M90.8465 131.458C90.7581 136.699 86.3185 140.909 80.9293 140.905C75.5387 140.901 71.1642 136.683 71.1597 131.439C71.1551 126.145 75.5986 121.822 81.0828 121.828C86.5651 121.835 90.9357 126.166 90.8465 131.458Z" fill="url(#paint23_linear_6373_49142)"/>
<path d="M74.8436 131.511C74.6139 131.511 74.4286 131.331 74.4292 131.108C74.437 127.507 77.4741 124.563 81.2001 124.566C81.4219 124.566 81.6457 124.577 81.8649 124.598C82.0945 124.62 82.261 124.819 82.2363 125.043C82.2116 125.267 82.008 125.43 81.7771 125.408C81.5845 125.39 81.3887 125.38 81.1936 125.38C77.9314 125.377 75.2696 127.953 75.2605 131.108C75.2592 131.331 75.0732 131.511 74.8436 131.511Z" fill="#91B3FA"/>
<path d="M191.136 38.0854C190.793 37.5253 190.387 37.0251 189.951 36.547C189.739 36.3031 189.504 36.0813 189.277 35.8516C189.044 35.6279 188.8 35.4165 188.561 35.1999C187.579 34.3614 186.501 33.6348 185.361 33.0292C184.223 32.4223 183.034 31.9026 181.802 31.5168C180.579 31.0992 179.314 30.8273 178.044 30.5957C175.498 30.1632 172.902 30.0877 170.331 30.2503C169.686 30.2659 169.047 30.3512 168.406 30.4143L167.444 30.5138C167.124 30.5463 166.807 30.6081 166.489 30.6543C165.853 30.7564 165.214 30.8475 164.581 30.9613L162.69 31.3575C162.057 31.4771 161.436 31.6482 160.814 31.8095C160.192 31.9741 159.566 32.1257 158.947 32.3013L157.102 32.8679L156.18 33.1515C155.873 33.2484 155.572 33.3629 155.268 33.4676C154.058 33.9015 152.834 34.3035 151.648 34.7998L149.856 35.5134L149.408 35.6929L148.967 35.8874L148.085 36.2771L146.321 37.0557L145.88 37.2502L145.446 37.459L144.578 37.8785L142.842 38.7177C142.554 38.8595 142.261 38.9935 141.977 39.1411L141.123 39.5887L139.416 40.4837L138.563 40.9313L138.136 41.1557L137.716 41.3925L134.36 43.2854C125.535 48.4639 116.265 52.8689 106.707 56.5155C101.928 58.3349 97.0769 59.9696 92.1632 61.3824C89.7089 62.0973 87.2371 62.7537 84.7522 63.3521C82.2674 63.9519 79.7702 64.4996 77.258 64.9673C74.7465 65.4389 72.2239 65.8474 69.691 66.1804C67.158 66.5109 64.6146 66.7567 62.0673 66.9155C56.974 67.2277 51.8495 67.1848 46.7933 66.5466C41.7488 65.9046 36.746 64.655 32.1952 62.407C29.9224 61.2875 27.7986 59.8746 25.905 58.2022C25.6604 58.0019 25.4386 57.7768 25.2122 57.5563C24.9872 57.3351 24.7582 57.1172 24.5357 56.8935L23.8996 56.1916L23.5815 55.841C23.48 55.7206 23.3837 55.5951 23.2849 55.4722L22.6942 54.7319C22.5017 54.4821 22.3299 54.2167 22.1465 53.9598C21.7699 53.4518 21.457 52.9027 21.1272 52.3635C20.9555 52.0981 20.8202 51.8119 20.6719 51.5328C20.5268 51.2518 20.3765 50.9741 20.236 50.6911L19.8516 49.824C19.7222 49.5352 19.5914 49.2477 19.4886 48.9478C19.2714 48.3539 19.0353 47.7659 18.8687 47.1544L18.5936 46.2451L18.3724 45.3207C18.3041 45.0117 18.2143 44.7067 18.163 44.3938L17.9958 43.4571C17.8715 42.8352 17.8071 42.201 17.7187 41.5713C17.5821 40.3074 17.4812 39.0397 17.4715 37.7693C17.4643 36.4995 17.5242 35.2304 17.6731 33.9711C17.8221 32.7118 18.0725 31.4661 18.416 30.2484C19.1042 27.813 20.212 25.4946 21.7224 23.4612C22.4757 22.4439 23.3245 21.4968 24.2508 20.6303C25.1797 19.7671 26.1841 18.984 27.243 18.2821C28.302 17.5802 29.4144 16.9577 30.5651 16.4139C31.7171 15.8727 32.9055 15.4076 34.1167 15.0121C36.541 14.2244 39.0591 13.7222 41.6005 13.501C42.8715 13.3963 44.1504 13.3586 45.4221 13.4393C46.0576 13.4796 46.6918 13.5485 47.3143 13.6702C47.6253 13.73 47.9336 13.8068 48.2309 13.9069C48.5275 14.0052 48.8209 14.1314 49.0544 14.3181L49.1773 14.173C48.9106 13.9551 48.6043 13.8237 48.2972 13.7164C47.9889 13.6084 47.6741 13.5264 47.3573 13.4614C46.7231 13.3293 46.0817 13.2519 45.439 13.2031C44.153 13.1056 42.8624 13.1283 41.579 13.2181C39.0116 13.4106 36.4669 13.8991 34.0081 14.6719C32.7793 15.0603 31.5727 15.5201 30.3992 16.0581C29.2277 16.5986 28.0919 17.2205 27.0082 17.9243C25.9245 18.6288 24.8935 19.4172 23.9366 20.2901C22.983 21.1663 22.1055 22.1271 21.3243 23.1627C19.7566 25.2312 18.5962 27.6029 17.8813 30.0949C17.5222 31.3412 17.2594 32.6142 17.1001 33.9002C16.9414 35.1855 16.873 36.48 16.873 37.7738C16.8756 39.0676 16.9706 40.3575 17.1027 41.6422C17.1892 42.2823 17.251 42.9243 17.3739 43.5612L17.5391 44.518C17.5899 44.8381 17.6796 45.1503 17.7479 45.4664L17.9691 46.4129L18.2449 47.345C18.4127 47.9721 18.6508 48.5764 18.8707 49.1865C18.9741 49.4942 19.1068 49.7908 19.2376 50.0881L19.6272 50.9806C19.7703 51.272 19.9225 51.5589 20.0702 51.8483C20.2211 52.1358 20.359 52.4305 20.534 52.705C20.8696 53.2618 21.1897 53.8284 21.5734 54.3533C21.7608 54.6187 21.9364 54.8926 22.1335 55.1515L22.7372 55.9171C22.8386 56.0439 22.9368 56.1734 23.0409 56.2983L23.3662 56.6612L24.0173 57.3872C24.245 57.6194 24.4791 57.8445 24.7094 58.0734C24.941 58.3011 25.1687 58.534 25.4184 58.7415C27.3569 60.4731 29.5308 61.9354 31.8491 63.0932C34.1674 64.255 36.61 65.1474 39.0994 65.8383C41.5907 66.5278 44.1328 67.0117 46.6905 67.3415C51.8098 67.9966 56.9825 68.0486 62.1174 67.7435C64.6855 67.5881 67.2484 67.3454 69.7989 67.0176C72.3495 66.6871 74.889 66.2812 77.4161 65.8109C79.9445 65.3445 82.4567 64.7988 84.9558 64.2003C87.455 63.6012 89.9418 62.9514 92.4084 62.2307C97.3436 60.7983 102.213 59.1448 107.01 57.3065C116.6 53.6215 125.904 49.1761 134.751 43.9534L138.078 42.0455L138.494 41.8068L138.917 41.5811L139.762 41.1297L141.454 40.2274L142.3 39.776C142.583 39.627 142.872 39.4917 143.158 39.3486L144.878 38.5017L145.738 38.0782L146.168 37.8675L146.605 37.671L148.353 36.8846L149.226 36.4911L149.663 36.2946L150.106 36.1138L151.881 35.3924C153.057 34.8902 154.268 34.4843 155.466 34.0446C155.767 33.9386 156.065 33.8221 156.368 33.7246L157.282 33.437L159.108 32.862C159.721 32.6838 160.34 32.5296 160.956 32.3618C161.572 32.1979 162.186 32.0235 162.812 31.9013L164.682 31.4954C165.308 31.3783 165.938 31.2833 166.567 31.174C166.882 31.1252 167.194 31.0595 167.511 31.0238L168.46 30.9145C169.093 30.8455 169.725 30.7532 170.362 30.7304C172.9 30.5404 175.465 30.5847 177.98 30.9828C179.234 31.1968 180.484 31.4505 181.693 31.8479C182.911 32.2141 184.087 32.7124 185.216 33.2972C186.345 33.8807 187.419 34.576 188.399 35.3878C188.638 35.5973 188.882 35.8022 189.114 36.0188C189.34 36.2413 189.576 36.4559 189.788 36.6927C190.222 37.1539 190.635 37.6483 190.97 38.1765L191.136 38.0854Z" fill="url(#paint24_linear_6373_49142)"/>
<path d="M184.111 33.2426C184.111 33.2426 184.264 40.5468 182.592 45.5504C182.408 46.1013 181.689 46.2327 181.318 45.7858C179.151 43.1767 173.35 35.9108 172.439 31.8388C172.439 31.8388 177.69 30.5827 184.111 33.2426Z" fill="#BDD0FB"/>
<path d="M168.726 31.4248C168.726 31.4248 170.147 39.896 167.359 46.6142C167.143 47.1346 166.474 47.279 166.065 46.8913C163.962 44.8957 158.398 39.3152 156.257 34.2225C156.257 34.2225 163.994 31.9296 168.726 31.4248Z" fill="#40A865"/>
<path d="M154.082 35.1201C154.082 35.1201 155.257 43.0989 153.033 49.674C152.807 50.3434 152.005 50.614 151.413 50.2289C149.395 48.9143 145.179 45.6684 142.511 40.0931C142.51 40.0931 148.575 36.8927 154.082 35.1201Z" fill="#BDD0FB"/>
<path d="M141.437 40.6353C141.437 40.6353 142.665 48.9718 139.976 53.5747C139.704 54.0385 139.098 54.1744 138.66 53.8641C137.118 52.7707 133.583 50.0725 131.189 46.7589C131.189 46.7589 139.478 41.6929 141.437 40.6353Z" fill="#40A865"/>
<path d="M129.606 47.7603C129.606 47.7603 131.588 55.7144 129.09 60.3048C128.837 60.7699 128.246 60.9273 127.8 60.6424C125.884 59.4189 120.943 56.0331 119.379 52.7273C119.379 52.7273 128.024 48.7626 129.606 47.7603Z" fill="#91B3FA"/>
<path d="M117.769 53.5415L107.997 57.6727C107.997 57.6727 113.007 65.2346 116.404 66.7066C116.755 66.8588 117.161 66.6774 117.298 66.3202C117.911 64.7149 119.335 59.9676 117.769 53.5415Z" fill="#40A865"/>
<path d="M106.547 58.271C106.547 58.271 98.8931 61.1286 96.6626 61.6496C96.6626 61.6496 98.9913 67.6971 102.263 70.3843C102.77 70.8006 103.526 70.6829 103.871 70.1247C105.038 68.2344 107.344 63.6856 106.547 58.271Z" fill="#BDD0FB"/>
<path d="M95.1575 61.8711C95.1575 61.8711 88.0405 64.4574 85.9707 64.7625C85.9707 64.7625 89.227 71.4475 92.3181 75.1585C92.551 75.4382 92.9901 75.4142 93.1917 75.111C94.1681 73.6435 96.4071 69.3178 95.1575 61.8711Z" fill="#40A865"/>
<path d="M85.0296 64.9009C85.0296 64.9009 78.1507 66.4907 75.1123 66.7463C75.1123 66.7463 77.7051 74.8942 81.5996 76.8034C81.9307 76.966 82.3314 76.8301 82.5037 76.5035C83.3442 74.9086 85.6254 70.0156 85.0296 64.9009Z" fill="#40A865"/>
<path d="M74.1726 66.8853C74.1726 66.8853 67.2658 68.287 64.9526 68.2435C64.9526 68.2435 68.0093 75.8567 71.0496 78.2427C71.5557 78.6395 72.2888 78.5478 72.6901 78.0456C73.6262 76.8754 74.9493 73.9267 74.1726 66.8853Z" fill="#BDD0FB"/>
<path d="M63.2587 68.4922C63.2587 68.4922 56.778 68.8701 54.8408 68.7712C54.8408 68.7712 55.2968 74.1982 59.108 78.2976C59.5126 78.7327 60.2041 78.7477 60.6223 78.3242C61.7769 77.1547 63.7043 74.2964 63.2587 68.4922Z" fill="#40A865"/>
<path d="M53.0916 68.6442C53.0916 68.6442 47.6841 68.4797 44.8838 67.7388C44.8838 67.7388 44.4428 73.8201 47.5547 77.1357C47.986 77.5949 48.6904 77.6775 49.2193 77.3347C50.5729 76.4559 52.9433 74.1402 53.0916 68.6442Z" fill="#40A865"/>
<path d="M43.6988 67.5281C43.6988 67.5281 38.0754 67.2029 36.1603 65.9468C36.1603 65.9468 35.53 72.3098 38.2672 76.1581C38.5001 76.4852 38.9652 76.5399 39.2625 76.2693C40.3397 75.2903 42.6996 72.6396 43.6988 67.5281Z" fill="#BDD0FB"/>
<path d="M34.9491 65.5494C34.9491 65.5494 28.2407 63.077 25.5113 60.2109C25.5113 60.2109 22.5581 67.6356 25.7246 73.2317C25.8521 73.4574 26.1156 73.568 26.3647 73.4957C27.8446 73.0684 32.8539 71.2347 34.9491 65.5494Z" fill="#40A865"/>
<path d="M18.4246 51.2573C18.4246 51.2573 20.9498 56.6531 23.7839 58.9272C23.7839 58.9272 19.8589 64.2084 15.1234 65.5244C14.7116 65.6389 14.2888 65.3871 14.1945 64.9702C13.7691 63.0857 13.2201 57.7186 18.4246 51.2573Z" fill="#BDD0FB"/>
<path d="M15.704 38.0083C15.704 38.0083 15.462 44.1957 17.5059 50.2393C17.5059 50.2393 13.8319 51.9 11.6222 54.7212C11.0771 55.4172 9.95765 54.9996 10.0012 54.1169C10.1756 50.5639 11.2612 44.6784 15.704 38.0083Z" fill="#40A865"/>
<path d="M31.9307 90.3187C31.9307 90.3187 30.1236 86.8009 31.8201 85.7452C33.5166 84.6901 34.8754 86.261 35.5545 87.0468C36.2343 87.8326 33.9498 90.9067 33.3422 91.1572C32.736 91.4076 31.9307 90.3187 31.9307 90.3187Z" fill="url(#paint25_linear_6373_49142)"/>
<path d="M33.7775 89.71C33.7775 89.71 27.8711 105.239 38.1475 111.349C39.6013 112.213 40.0085 114.131 39.0822 115.546C38.8825 115.851 38.6594 116.159 38.4096 116.457C37.2199 117.884 35.0362 117.891 33.8289 116.478C30.5323 112.62 24.9609 103.367 32.0778 90.2154L33.7775 89.71Z" fill="url(#paint26_linear_6373_49142)"/>
<path d="M43.8579 153.348L36.2564 151.22L34.3517 162.137C34.3517 162.137 31.2613 162.186 28.7095 163.771C26.1576 165.356 17.1582 173.674 17.1582 173.674L15.5834 173.312L14.9765 173.696L14.0996 180.381L16.6176 176.825C17.017 176.26 18.1144 175.392 18.0929 175.332C22.9507 173.032 34.636 166.356 37.7382 164.575C38.239 164.287 38.641 163.859 38.898 163.341L43.8579 153.348Z" fill="url(#paint27_linear_6373_49142)"/>
<path d="M43.3673 185.318C43.3042 185.317 43.2424 185.322 43.1787 185.318C43.4604 181.804 44.7477 166.339 46.0356 160.543C47.4927 153.985 43.85 140.871 43.85 140.871L37.2925 147.429L40.9352 159.814C38.4386 163.559 41.3424 185.489 41.2799 185.479L41.2838 185.528L40.3335 186.835L40.4493 187.543L46.2561 190.97L43.971 187.26C43.6087 186.672 43.4083 186.004 43.3673 185.318Z" fill="url(#paint28_linear_6373_49142)"/>
<path d="M46.6386 191.51H44.7854C44.4386 191.51 44.1115 191.351 43.9 191.076C43.3224 190.325 42.1255 188.861 41.5531 188.823C40.7829 188.771 40.8812 191.51 40.8812 191.51H40.4492L39.9022 188.107C39.7643 187.251 40.1903 186.402 40.9592 186.001C40.9592 186.001 41.1355 187.303 42.0904 187.88C43.0453 188.456 45.9764 190.519 45.9764 190.519C45.9764 190.519 46.3355 190.467 46.7296 190.539C47.3144 190.644 47.2325 191.51 46.6386 191.51Z" fill="url(#paint29_linear_6373_49142)"/>
<path d="M13.7552 180.945L13.0293 179.24C12.8934 178.921 12.9116 178.557 13.0813 178.255C13.5458 177.43 14.4239 175.755 14.2346 175.213C13.9803 174.484 11.4987 175.648 11.4987 175.648L11.3296 175.25L14.2464 173.413C14.9801 172.951 15.9279 173.011 16.5979 173.561C16.5979 173.561 15.4686 174.234 15.3131 175.338C15.157 176.442 14.4077 179.947 14.4077 179.947C14.4077 179.947 14.5957 180.257 14.6841 180.648C14.8168 181.227 13.9881 181.491 13.7552 180.945Z" fill="url(#paint30_linear_6373_49142)"/>
<path d="M45.5198 129.786C45.5198 129.786 45.3058 131.099 45.6194 134.71C45.9335 138.32 47.4342 146.796 47.1285 154.907C47.1285 154.907 42.862 155.901 35.4504 155.43C35.4504 155.43 32.3222 142.768 33.0846 137.954C33.8463 133.14 37.9801 129.687 37.9801 129.687L45.5198 129.786Z" fill="#00862D"/>
<path d="M42.367 105.66L42.8886 111.791H37.9346L39.1666 102.432L42.367 105.66Z" fill="url(#paint31_linear_6373_49142)"/>
<path d="M36.4672 110.943C38.1767 110.848 41.9996 110.674 44.7076 110.822C46.1334 110.899 47.3277 111.922 47.6191 113.32L48.2794 116.486C48.5252 117.664 48.4888 118.885 48.172 120.047L45.5194 129.785C45.5194 129.785 43.1601 131.203 37.9796 129.686C37.9796 129.686 33.4301 118.838 35.2925 111.898C35.4375 111.359 35.9098 110.974 36.4672 110.943Z" fill="#91B3FA"/>
<path d="M44.465 98.5792C44.642 98.6833 46.0353 103.599 44.8677 105.66C43.7001 107.721 40.1335 105.413 39.1669 102.433C38.2002 99.4522 39.7529 95.8004 44.465 98.5792Z" fill="url(#paint32_linear_6373_49142)"/>
<path d="M35.221 102.432C34.4209 106.351 31.7702 105.278 29.8929 107.022C26.8499 109.849 22.4975 106.935 18.2662 109.613C15.2115 111.546 13.7394 116.493 15.2056 120.487C17.2358 126.018 24.1745 128.292 27.7704 126.608C31.2069 124.998 30.7177 120.176 35.3413 118.312C37.3045 117.521 38.2737 118.035 39.4491 116.862C41.5073 114.809 40.9517 110.826 40.7377 109.291C40.2733 105.961 39.1571 105.358 39.6905 103.895C40.7286 101.048 45.5695 101.636 45.9728 99.6255C46.3403 97.7957 42.831 94.3267 39.5291 94.8737C34.4209 95.7194 35.5774 100.686 35.221 102.432Z" fill="url(#paint33_linear_6373_49142)"/>
<path opacity="0.6" d="M16.7316 119.551C16.6711 119.551 16.6165 119.51 16.6015 119.449C15.9471 116.733 16.2444 114.506 17.4842 112.829C19.5417 110.046 23.5402 109.771 23.5806 109.769C23.6437 109.758 23.7172 109.82 23.7224 109.894C23.7269 109.968 23.671 110.032 23.5968 110.036C23.5578 110.039 19.6803 110.307 17.6982 112.991C16.5085 114.601 16.2275 116.752 16.8617 119.387C16.8793 119.458 16.835 119.531 16.7628 119.548C16.7524 119.549 16.7414 119.551 16.7316 119.551Z" fill="white"/>
<path opacity="0.72" d="M29.829 122.035C29.8238 122.035 29.8179 122.035 29.812 122.033C29.7763 122.024 29.7548 121.987 29.7646 121.951C30.402 119.507 31.5196 117.809 33.0872 116.905C34.2275 116.247 35.2956 116.186 36.2375 116.132C37.1456 116.08 37.9301 116.035 38.5617 115.473C39.8666 114.313 39.7911 111.522 38.3373 107.179C38.3256 107.144 38.3444 107.106 38.3796 107.094C38.4147 107.083 38.4524 107.101 38.4641 107.137C39.9368 111.535 39.9999 114.373 38.6508 115.573C37.9847 116.165 37.1788 116.211 36.2453 116.265C35.3184 116.319 34.2672 116.379 33.1542 117.021C31.6191 117.906 30.5217 119.576 29.894 121.985C29.8856 122.016 29.8582 122.035 29.829 122.035Z" fill="white"/>
<path opacity="0.72" d="M37.1141 101.459C37.1069 101.459 37.0998 101.458 37.0926 101.456C37.0575 101.444 37.0386 101.406 37.0503 101.37C37.5571 99.8633 39.0161 100.088 40.5623 100.325C41.5406 100.475 42.5528 100.63 43.4108 100.377C44.0508 100.187 44.4314 99.8926 44.5413 99.5016C44.7293 98.8368 44.0717 98.0953 44.0652 98.0881C44.0404 98.0608 44.0424 98.0185 44.0704 97.9938C44.0977 97.9691 44.14 97.971 44.1647 97.999C44.194 98.0315 44.8783 98.8017 44.6708 99.5381C44.5478 99.9758 44.1367 100.301 43.4492 100.505C42.5619 100.767 41.5354 100.61 40.5421 100.457C38.9901 100.219 37.6481 100.012 37.1772 101.413C37.1681 101.441 37.1421 101.459 37.1141 101.459Z" fill="white"/>
<path d="M56.4424 92.3674C56.4424 92.3674 59.0665 89.4083 57.6855 87.9649C56.3045 86.5215 54.5977 87.7054 53.7442 88.298C52.8908 88.8899 54.3401 92.4357 54.8657 92.8292C55.3926 93.2221 56.4424 92.3674 56.4424 92.3674Z" fill="url(#paint34_linear_6373_49142)"/>
<path d="M54.8048 91.3188C54.8048 91.3188 56.6684 107.828 45.1965 111.194C43.5729 111.67 42.7025 113.426 43.2483 115.028C43.3654 115.372 43.5059 115.726 43.6731 116.077C44.4712 117.754 46.5846 118.303 48.1048 117.235C52.2568 114.317 59.9514 106.737 56.325 92.2302L54.8048 91.3188Z" fill="url(#paint35_linear_6373_49142)"/>
<path d="M127.313 156.238C127.313 156.238 128.382 154.656 129.548 153.192C130.004 152.62 130.803 152.499 131.302 152.923C132.995 154.362 136.606 157.454 137.793 158.678C137.972 158.862 137.894 159.191 137.643 159.321C137.432 159.43 137.198 159.458 136.986 159.398L128.497 156.999L127.313 156.238Z" fill="url(#paint36_linear_6373_49142)"/>
<path d="M126.397 156.9L128.131 155.434C128.131 155.434 129.744 155.959 129.962 157.265L127.782 158.668L126.397 156.9Z" fill="url(#paint37_linear_6373_49142)"/>
<path d="M87.9768 117.737C85.2721 111.667 82.7183 102.596 85.693 93.5298L87.4161 91.8066C87.4161 91.8066 87.4167 106.007 90.9495 113.058C89.9627 114.62 88.9753 116.182 87.9768 117.737Z" fill="url(#paint38_linear_6373_49142)"/>
<path d="M87.8307 89.0928L88.4812 90.0686C88.6601 90.3372 88.7069 90.6709 88.6054 90.9773C88.3413 91.7774 87.7442 93.3502 86.9038 94.1913C85.7453 95.3498 84.5861 92.569 84.3545 91.6421C84.123 90.7151 85.7453 88.3975 86.2084 87.9343C86.6715 87.4705 88.5254 87.7028 87.8307 89.0928Z" fill="url(#paint39_linear_6373_49142)"/>
<path d="M96.7095 184.626C96.7095 184.626 97.0426 186.511 97.2058 188.377C97.2696 189.106 96.7076 189.74 95.9758 189.771C93.4909 189.874 88.1752 190.076 86.2673 189.991C85.9805 189.977 85.7931 189.684 85.8991 189.417C85.9883 189.194 86.1593 189.013 86.3779 188.913L95.1588 184.877L96.7095 184.626Z" fill="url(#paint40_linear_6373_49142)"/>
<path d="M96.9822 183.52L96.7149 185.775C96.7149 185.775 95.1765 186.491 94.126 185.685L94.7628 183.172L96.9822 183.52Z" fill="url(#paint41_linear_6373_49142)"/>
<path d="M96.7808 141.126C96.8966 141.715 97.4014 170.512 94.3233 183.417C94.2732 183.627 94.3799 183.844 94.5802 183.926C95.0525 184.119 95.9781 184.398 97.0872 184.435C97.4307 184.447 97.7383 184.223 97.8353 183.894C98.7154 180.9 104.76 163.575 105.311 149.245C105.925 133.232 103.121 141.125 103.121 141.125L96.7808 141.126Z" fill="url(#paint42_linear_6373_49142)"/>
<path d="M110.082 141.642C112.663 148.152 113.507 149.169 114.659 156.601C116.04 165.512 122.783 159.359 126.383 156.465C126.838 156.1 128.191 157.41 128.323 159.251C128.494 161.652 113.948 173.05 110.013 164.992C107.499 159.845 106.803 154.053 105.134 150.848C104.926 150.448 104.586 150.134 104.171 149.956L99.0365 147.757L97.5879 142.718L110.082 141.642Z" fill="url(#paint43_linear_6373_49142)"/>
<path d="M112.892 118.521C115.597 112.451 118.15 103.38 115.176 94.3139L113.452 92.5908C113.452 92.5908 113.451 106.791 109.918 113.842C110.906 115.403 111.893 116.966 112.892 118.521Z" fill="url(#paint44_linear_6373_49142)"/>
<path d="M96.7769 116.348H105.272C106.126 116.348 106.945 116.021 107.563 115.433C108.354 114.68 109.373 113.403 110.094 111.393C110.204 111.088 110.531 110.921 110.842 111.012C111.934 111.336 114.326 112.264 115.581 114.424C115.698 114.626 115.697 114.876 115.57 115.073L110.271 123.273L110.794 143.501C110.794 143.501 97.4781 145.59 95.6509 143.501L93.8231 124.965C93.8231 124.965 87.2961 121.048 85.4683 114.783L90.9512 111.65C90.9512 111.65 91.59 111.676 92.1351 113.145C92.8519 115.077 94.7142 116.348 96.7769 116.348Z" fill="url(#paint45_linear_6373_49142)"/>
<path d="M104.05 110.168L104.246 116.724C104.258 117.144 103.996 117.523 103.597 117.655C102.781 117.925 101.304 118.26 99.6507 117.904C99.1576 117.797 98.8428 117.31 98.9293 116.813L99.8276 111.648L104.05 110.168Z" fill="url(#paint46_linear_6373_49142)"/>
<path d="M99.5564 104.165C99.4972 104.24 97.5152 109.633 96.6435 112.01C96.423 112.611 96.7509 113.274 97.3623 113.465L99.2793 113.815C100.55 114.047 101.812 113.369 102.322 112.182L104.63 109.492C105.885 108.03 105.454 105.77 103.738 104.894C102.047 104.032 100.193 103.367 99.5564 104.165Z" fill="url(#paint47_linear_6373_49142)"/>
<path d="M103.371 110.096L102.822 109.821C102.822 109.821 105.017 106.254 102.548 105.98C100.079 105.705 97.8838 105.157 97.8838 103.785C97.8838 102.413 97.8838 99.9442 100.901 101.042C103.919 102.139 103.645 104.059 105.291 104.334C106.937 104.608 108.308 104.883 107.76 106.528C107.211 108.175 106.114 109.272 106.663 109.82C107.212 110.369 104.743 113.113 103.371 110.096Z" fill="url(#paint48_linear_6373_49142)"/>
<path d="M102.786 111.164C102.786 111.164 103.242 108.752 104.26 108.692C105.278 108.632 106.214 109.521 105.129 110.827C103.779 112.45 102.786 111.164 102.786 111.164Z" fill="url(#paint49_linear_6373_49142)"/>
<path d="M113.038 89.876L112.387 90.8518C112.209 91.1204 112.162 91.4541 112.263 91.7605C112.527 92.5606 113.124 94.1335 113.965 94.9745C115.123 96.133 116.283 93.3522 116.514 92.4253C116.746 91.4983 115.123 89.1807 114.66 88.7175C114.197 88.2537 112.343 88.486 113.038 89.876Z" fill="url(#paint50_linear_6373_49142)"/>
<path d="M99.2917 104.224C99.2878 104.224 99.2846 104.223 99.2806 104.222C99.2657 104.219 98.9079 104.142 98.7037 103.756C98.4793 103.33 98.5332 102.716 98.8637 101.93C98.8754 101.902 98.9079 101.888 98.9365 101.9C98.9652 101.912 98.9782 101.944 98.9665 101.973C98.6542 102.716 98.597 103.315 98.8025 103.704C98.9821 104.044 99.3002 104.112 99.3034 104.113C99.3333 104.119 99.3529 104.149 99.347 104.179C99.3405 104.205 99.3177 104.224 99.2917 104.224Z" fill="white"/>
<path d="M140.335 137.067C140.359 137.058 152.955 115 154.657 112.923C154.943 112.574 155.387 112.396 155.835 112.45L159.351 112.869L163.481 121.804L156.601 117.797C157.282 122.506 148.442 129.504 145.41 132.057C145.103 132.316 145.077 132.781 145.355 133.071L146.566 134.339C144.578 136.352 142.285 137.646 139.698 138.244L140.335 137.067Z" fill="url(#paint51_linear_6373_49142)"/>
<path d="M145.865 133.655C145.865 133.655 146.638 133.905 146.899 134.593C147.024 134.922 146.89 135.294 146.603 135.499C145.332 136.411 141.136 139.353 139.2 139.929C139.041 139.976 138.89 139.832 138.926 139.67C139.025 139.221 139.347 138.322 140.382 137.007L140.289 137.195C140.171 137.433 140.43 137.68 140.661 137.55C141.956 136.821 144.594 135.22 145.865 133.655Z" fill="url(#paint52_linear_6373_49142)"/>
<path d="M145.242 142.482C145.263 142.468 147.153 137.915 147.174 137.902C148.907 127.352 153.134 118.317 154.381 115.94C154.591 115.54 154.989 115.276 155.439 115.238L158.966 114.937L164.819 122.851L157.27 120.319C158.89 124.793 151.649 133.435 149.197 136.549C148.948 136.866 149.018 137.325 149.349 137.554L150.79 138.55C149.252 140.924 147.269 142.655 144.855 143.764L145.242 142.482Z" fill="url(#paint53_linear_6373_49142)"/>
<path d="M149.966 138.021C149.966 138.021 150.774 138.109 151.168 138.731C151.358 139.028 151.301 139.42 151.062 139.679C150.001 140.829 146.488 144.559 144.708 145.515C144.563 145.594 144.386 145.483 144.388 145.318C144.394 144.857 144.527 143.913 145.275 142.415L145.222 142.618C145.155 142.875 145.459 143.065 145.659 142.891C146.779 141.913 149.038 139.812 149.966 138.021Z" fill="url(#paint54_linear_6373_49142)"/>
<path d="M175.48 113.269C175.48 113.269 178.671 118.016 178.933 120.181C179.196 122.346 178.051 123.095 174.711 123.371C164.771 124.193 159.87 121.213 159.87 121.213C159.191 116.878 158.707 115.775 153.027 113.417C153.027 113.417 160.211 113.988 161.656 113.426C163.101 112.866 175.48 113.269 175.48 113.269Z" fill="url(#paint55_linear_6373_49142)"/>
<path d="M162.754 86.6753C162.754 86.6753 164.977 84.0454 167.34 87.2718C167.768 87.856 169.412 87.374 170.015 88.5975C170.326 89.2291 170.998 89.5876 171.69 89.4601C173.415 89.142 176.233 89.1153 177.625 91.8174C178.687 93.8801 177.867 95.0874 176.805 95.7756C176.025 96.281 175.747 97.3075 176.218 98.1082C176.67 98.8765 176.756 99.9166 175.588 101.168C172.97 103.973 167.789 99.3877 167.789 99.3877L163.676 89.6669L162.754 86.6753Z" fill="url(#paint56_linear_6373_49142)"/>
<path d="M166.849 112.641C166.849 112.641 163.133 109.103 161.303 106.759C160.314 105.492 160.003 103.824 160.461 102.283C161.296 99.4689 162.78 96.5547 162.915 96.1013C163.123 95.406 167.29 95.4352 167.29 95.4352C167.29 95.4352 175.49 100.757 178.712 109.772L175.094 110.899C175.094 110.899 172.953 107.307 170.837 105.023C170.837 105.023 174.497 109.858 174.626 111.838L166.849 112.641Z" fill="url(#paint57_linear_6373_49142)"/>
<path d="M159.769 114.038L162.561 111L165.786 111.868C165.786 111.868 169.546 112.451 171.698 111.868C173.85 111.286 173.85 111.286 173.85 111.286L178.713 109.772L179.476 111.931C179.67 112.478 179.476 113.087 179.001 113.424C178.581 113.723 178.087 114.051 177.773 114.189C177.133 114.469 163.021 114.277 163.021 114.277L159.769 114.038Z" fill="url(#paint58_linear_6373_49142)"/>
<path d="M164.427 90.4247L167.228 95.6324C167.043 96.7695 164.18 96.8013 163.737 96.1222C163.692 96.0533 163.666 95.9733 163.649 95.8926L161.974 92.4125C161.902 92.073 162.832 90.9301 163.138 90.7668L164.251 90.1742C164.68 89.9466 162.892 89.929 164.427 90.4247Z" fill="url(#paint59_linear_6373_49142)"/>
<path d="M158.759 89.2015C158.759 89.2015 158.443 90.961 159.825 93.198C161.208 95.435 162.585 95.3342 163.285 94.5361C163.985 93.7379 164.823 92.4096 164.442 90.1778C164.06 87.9473 159.236 86.9573 158.759 89.2015Z" fill="url(#paint60_linear_6373_49142)"/>
<path d="M162.767 90.4219C162.767 90.4219 160.528 87.4804 158.808 90.0446L158.838 90.9306C158.838 90.9306 156.602 90.8259 156.845 88.7658C157.087 86.7051 158.912 85.2974 161.443 86.0012C163.973 86.7051 165.452 87.5071 165.737 89.2641C166.023 91.021 164.589 90.7342 164.589 90.7342C164.589 90.7342 164.041 89.5217 163.379 89.439C162.717 89.3564 162.956 90.3152 162.956 90.3152L162.767 90.4219Z" fill="url(#paint61_linear_6373_49142)"/>
<path d="M163.281 90.3425C163.281 90.3425 162.121 88.8373 163.177 88.5251C164.233 88.2128 164.194 89.9997 164.125 90.6651L163.281 90.3425Z" fill="url(#paint62_linear_6373_49142)"/>
<path d="M169.012 115.239C169.002 115.24 168.993 115.24 168.983 115.24L156.138 115.225C155.821 115.225 155.564 114.967 155.564 114.65C155.564 114.332 155.823 114.069 156.14 114.075L168.984 114.09C169.302 114.09 169.558 114.348 169.558 114.665C169.558 114.973 169.316 115.224 169.012 115.239Z" fill="url(#paint63_linear_6373_49142)"/>
<path d="M144.591 103.579H155.288C156.077 103.579 156.795 104.034 157.132 104.748L162.077 115.233H148.783C148.275 115.233 147.818 114.922 147.631 114.449L143.796 104.746C143.575 104.186 143.989 103.579 144.591 103.579Z" fill="url(#paint64_linear_6373_49142)"/>
<path d="M152.128 108.954C152.359 109.674 152.188 110.373 151.745 110.517C151.302 110.659 150.755 110.191 150.524 109.471C150.292 108.751 150.463 108.051 150.906 107.908C151.348 107.766 151.896 108.234 152.128 108.954Z" fill="#91B3FA"/>
<defs>
<linearGradient id="paint0_linear_6373_49142" x1="156.34" y1="210.957" x2="154.663" y2="119.47" gradientUnits="userSpaceOnUse">
<stop stop-color="#00862D"/>
<stop offset="1" stop-color="#8AB939" stop-opacity="0.6"/>
</linearGradient>
<linearGradient id="paint1_linear_6373_49142" x1="139.879" y1="126.566" x2="139.359" y2="115.889" gradientUnits="userSpaceOnUse">
<stop stop-color="#00862D"/>
<stop offset="1" stop-color="#40A865"/>
</linearGradient>
<linearGradient id="paint2_linear_6373_49142" x1="139.202" y1="110.534" x2="141.633" y2="141.128" gradientUnits="userSpaceOnUse">
<stop stop-color="#00862D"/>
<stop offset="1" stop-color="#8AB939" stop-opacity="0.6"/>
</linearGradient>
<linearGradient id="paint3_linear_6373_49142" x1="169.626" y1="125.114" x2="169.105" y2="114.438" gradientUnits="userSpaceOnUse">
<stop stop-color="#E1473D"/>
<stop offset="1" stop-color="#E9605A"/>
</linearGradient>
<linearGradient id="paint4_linear_6373_49142" x1="168.861" y1="108.176" x2="171.292" y2="138.77" gradientUnits="userSpaceOnUse">
<stop stop-color="#E1473D"/>
<stop offset="1" stop-color="#E9605A"/>
</linearGradient>
<linearGradient id="paint5_linear_6373_49142" x1="161.903" y1="100.923" x2="136.139" y2="133.184" gradientUnits="userSpaceOnUse">
<stop stop-color="#00862D"/>
<stop offset="1" stop-color="#40A865"/>
</linearGradient>
<linearGradient id="paint6_linear_6373_49142" x1="141.954" y1="110.022" x2="145.042" y2="91.932" gradientUnits="userSpaceOnUse">
<stop stop-color="#FEBBBA"/>
<stop offset="1" stop-color="#FF928E"/>
</linearGradient>
<linearGradient id="paint7_linear_6373_49142" x1="150.832" y1="152.267" x2="159.362" y2="116.529" gradientUnits="userSpaceOnUse">
<stop stop-color="#00862D"/>
<stop offset="1" stop-color="#40A865"/>
</linearGradient>
<linearGradient id="paint8_linear_6373_49142" x1="187.825" y1="105.38" x2="164.441" y2="137.147" gradientUnits="userSpaceOnUse">
<stop stop-color="#00862D"/>
<stop offset="1" stop-color="#8AB939" stop-opacity="0.6"/>
</linearGradient>
<linearGradient id="paint9_linear_6373_49142" x1="149.406" y1="149.597" x2="161.893" y2="149.597" gradientUnits="userSpaceOnUse">
<stop stop-color="#00862D"/>
<stop offset="1" stop-color="#40A865"/>
</linearGradient>
<linearGradient id="paint10_linear_6373_49142" x1="178.314" y1="-57.4659" x2="38.6579" y2="160.292" gradientUnits="userSpaceOnUse">
<stop stop-color="#09005D"/>
<stop offset="1" stop-color="#1A0F91"/>
</linearGradient>
<linearGradient id="paint11_linear_6373_49142" x1="27.2879" y1="99.3808" x2="136.226" y2="99.3808" gradientUnits="userSpaceOnUse">
<stop stop-color="#4F52FF"/>
<stop offset="1" stop-color="#4042E2"/>
</linearGradient>
<linearGradient id="paint12_linear_6373_49142" x1="39.2181" y1="30.5046" x2="38.4594" y2="37.3034" gradientUnits="userSpaceOnUse">
<stop stop-color="#4F52FF"/>
<stop offset="1" stop-color="#4042E2"/>
</linearGradient>
<linearGradient id="paint13_linear_6373_49142" x1="124.922" y1="30.7425" x2="124.159" y2="37.5811" gradientUnits="userSpaceOnUse">
<stop stop-color="#4F52FF"/>
<stop offset="1" stop-color="#4042E2"/>
</linearGradient>
<linearGradient id="paint14_linear_6373_49142" x1="42.8348" y1="164.937" x2="42.2341" y2="170.32" gradientUnits="userSpaceOnUse">
<stop stop-color="#4F52FF"/>
<stop offset="1" stop-color="#4042E2"/>
</linearGradient>
<linearGradient id="paint15_linear_6373_49142" x1="119.04" y1="164.941" x2="118.436" y2="170.358" gradientUnits="userSpaceOnUse">
<stop stop-color="#4F52FF"/>
<stop offset="1" stop-color="#4042E2"/>
</linearGradient>
<linearGradient id="paint16_linear_6373_49142" x1="126.883" y1="-44.5501" x2="99.0885" y2="23.9441" gradientUnits="userSpaceOnUse">
<stop stop-color="#4F52FF"/>
<stop offset="1" stop-color="#4042E2"/>
</linearGradient>
<linearGradient id="paint17_linear_6373_49142" x1="83.2414" y1="51.9081" x2="79.0711" y2="89.2796" gradientUnits="userSpaceOnUse">
<stop stop-color="#09005D"/>
<stop offset="1" stop-color="#1A0F91"/>
</linearGradient>
<linearGradient id="paint18_linear_6373_49142" x1="103.568" y1="-7.9102" x2="80.0743" y2="72.4961" gradientUnits="userSpaceOnUse">
<stop stop-color="#4F52FF"/>
<stop offset="1" stop-color="#4042E2"/>
</linearGradient>
<linearGradient id="paint19_linear_6373_49142" x1="82.1237" y1="62.3004" x2="80.6593" y2="75.4243" gradientUnits="userSpaceOnUse">
<stop stop-color="#09005D"/>
<stop offset="1" stop-color="#1A0F91"/>
</linearGradient>
<linearGradient id="paint20_linear_6373_49142" x1="44.4985" y1="233.402" x2="77.5876" y2="140.091" gradientUnits="userSpaceOnUse">
<stop stop-color="#4F52FF"/>
<stop offset="1" stop-color="#4042E2"/>
</linearGradient>
<linearGradient id="paint21_linear_6373_49142" x1="83.2566" y1="110.494" x2="77.8042" y2="159.355" gradientUnits="userSpaceOnUse">
<stop stop-color="#09005D"/>
<stop offset="1" stop-color="#1A0F91"/>
</linearGradient>
<linearGradient id="paint22_linear_6373_49142" x1="59.3877" y1="131.053" x2="102.609" y2="131.053" gradientUnits="userSpaceOnUse">
<stop stop-color="#4F52FF"/>
<stop offset="1" stop-color="#4042E2"/>
</linearGradient>
<linearGradient id="paint23_linear_6373_49142" x1="81.7982" y1="124.244" x2="79.8839" y2="141.398" gradientUnits="userSpaceOnUse">
<stop stop-color="#09005D"/>
<stop offset="1" stop-color="#1A0F91"/>
</linearGradient>
<linearGradient id="paint24_linear_6373_49142" x1="188.549" y1="20.5191" x2="17.6739" y2="45.6848" gradientUnits="userSpaceOnUse">
<stop stop-color="#53D8FF"/>
<stop offset="1" stop-color="#3840F7"/>
</linearGradient>
<linearGradient id="paint25_linear_6373_49142" x1="32.9769" y1="83.1817" x2="34.1107" y2="94.9719" gradientUnits="userSpaceOnUse">
<stop stop-color="#FEBBBA"/>
<stop offset="1" stop-color="#FF928E"/>
</linearGradient>
<linearGradient id="paint26_linear_6373_49142" x1="39.9" y1="121.925" x2="22.6383" y2="74.4595" gradientUnits="userSpaceOnUse">
<stop stop-color="#FEBBBA"/>
<stop offset="1" stop-color="#FF928E"/>
</linearGradient>
<linearGradient id="paint27_linear_6373_49142" x1="9.09553" y1="173.183" x2="49.5297" y2="154.621" gradientUnits="userSpaceOnUse">
<stop stop-color="#FEBBBA"/>
<stop offset="1" stop-color="#FF928E"/>
</linearGradient>
<linearGradient id="paint28_linear_6373_49142" x1="28.3625" y1="325.951" x2="82.7504" y2="-309.707" gradientUnits="userSpaceOnUse">
<stop stop-color="#FEBBBA"/>
<stop offset="1" stop-color="#FF928E"/>
</linearGradient>
<linearGradient id="paint29_linear_6373_49142" x1="35.9993" y1="178.009" x2="42.1029" y2="188.338" gradientUnits="userSpaceOnUse">
<stop stop-color="#53D8FF"/>
<stop offset="1" stop-color="#3840F7"/>
</linearGradient>
<linearGradient id="paint30_linear_6373_49142" x1="22.007" y1="165.866" x2="14.8959" y2="175.529" gradientUnits="userSpaceOnUse">
<stop stop-color="#53D8FF"/>
<stop offset="1" stop-color="#3840F7"/>
</linearGradient>
<linearGradient id="paint31_linear_6373_49142" x1="39.9431" y1="103.127" x2="40.5314" y2="114.01" gradientUnits="userSpaceOnUse">
<stop stop-color="#FEBBBA"/>
<stop offset="1" stop-color="#FF928E"/>
</linearGradient>
<linearGradient id="paint32_linear_6373_49142" x1="46.1858" y1="107.11" x2="36.559" y2="93.0328" gradientUnits="userSpaceOnUse">
<stop stop-color="#FEBBBA"/>
<stop offset="1" stop-color="#FF928E"/>
</linearGradient>
<linearGradient id="paint33_linear_6373_49142" x1="49.8322" y1="87.6138" x2="14.2413" y2="130.705" gradientUnits="userSpaceOnUse">
<stop stop-color="#323232"/>
<stop offset="1" stop-color="#515151"/>
</linearGradient>
<linearGradient id="paint34_linear_6373_49142" x1="57.2022" y1="85.1942" x2="53.175" y2="96.3332" gradientUnits="userSpaceOnUse">
<stop stop-color="#FEBBBA"/>
<stop offset="1" stop-color="#FF928E"/>
</linearGradient>
<linearGradient id="paint35_linear_6373_49142" x1="40.8728" y1="121.003" x2="69.3834" y2="79.3131" gradientUnits="userSpaceOnUse">
<stop stop-color="#FEBBBA"/>
<stop offset="1" stop-color="#FF928E"/>
</linearGradient>
<linearGradient id="paint36_linear_6373_49142" x1="-1248.03" y1="1377.65" x2="-1235.59" y2="1367.17" gradientUnits="userSpaceOnUse">
<stop stop-color="#09005D"/>
<stop offset="1" stop-color="#1A0F91"/>
</linearGradient>
<linearGradient id="paint37_linear_6373_49142" x1="127.148" y1="156.095" x2="129.236" y2="158.043" gradientUnits="userSpaceOnUse">
<stop stop-color="#FEBBBA"/>
<stop offset="1" stop-color="#FF928E"/>
</linearGradient>
<linearGradient id="paint38_linear_6373_49142" x1="85.9019" y1="90.7674" x2="89.3005" y2="124.853" gradientUnits="userSpaceOnUse">
<stop stop-color="#FEBBBA"/>
<stop offset="1" stop-color="#FF928E"/>
</linearGradient>
<linearGradient id="paint39_linear_6373_49142" x1="86.4615" y1="90.7117" x2="89.8601" y2="124.797" gradientUnits="userSpaceOnUse">
<stop stop-color="#FEBBBA"/>
<stop offset="1" stop-color="#FF928E"/>
</linearGradient>
<linearGradient id="paint40_linear_6373_49142" x1="96.7796" y1="128.792" x2="96.123" y2="136.343" gradientUnits="userSpaceOnUse">
<stop stop-color="#09005D"/>
<stop offset="1" stop-color="#1A0F91"/>
</linearGradient>
<linearGradient id="paint41_linear_6373_49142" x1="96.9823" y1="184.62" x2="94.1261" y2="184.62" gradientUnits="userSpaceOnUse">
<stop stop-color="#FEBBBA"/>
<stop offset="1" stop-color="#FF928E"/>
</linearGradient>
<linearGradient id="paint42_linear_6373_49142" x1="98.7405" y1="156.97" x2="109.247" y2="211.471" gradientUnits="userSpaceOnUse">
<stop stop-color="#09005D"/>
<stop offset="1" stop-color="#1A0F91"/>
</linearGradient>
<linearGradient id="paint43_linear_6373_49142" x1="113.573" y1="154.111" x2="124.079" y2="208.612" gradientUnits="userSpaceOnUse">
<stop stop-color="#09005D"/>
<stop offset="1" stop-color="#1A0F91"/>
</linearGradient>
<linearGradient id="paint44_linear_6373_49142" x1="114.967" y1="91.551" x2="111.568" y2="125.637" gradientUnits="userSpaceOnUse">
<stop stop-color="#FEBBBA"/>
<stop offset="1" stop-color="#FF928E"/>
</linearGradient>
<linearGradient id="paint45_linear_6373_49142" x1="128.872" y1="95.9547" x2="90.0453" y2="137.87" gradientUnits="userSpaceOnUse">
<stop stop-color="#00862D"/>
<stop offset="1" stop-color="#40A865"/>
</linearGradient>
<linearGradient id="paint46_linear_6373_49142" x1="101.181" y1="126.068" x2="101.769" y2="112.538" gradientUnits="userSpaceOnUse">
<stop stop-color="#FEBBBA"/>
<stop offset="1" stop-color="#FF928E"/>
</linearGradient>
<linearGradient id="paint47_linear_6373_49142" x1="101.081" y1="105.466" x2="100.658" y2="121.748" gradientUnits="userSpaceOnUse">
<stop stop-color="#FEBBBA"/>
<stop offset="1" stop-color="#FF928E"/>
</linearGradient>
<linearGradient id="paint48_linear_6373_49142" x1="195.245" y1="312.638" x2="189.992" y2="300.818" gradientUnits="userSpaceOnUse">
<stop stop-color="#09005D"/>
<stop offset="1" stop-color="#1A0F91"/>
</linearGradient>
<linearGradient id="paint49_linear_6373_49142" x1="106.416" y1="108.47" x2="115.535" y2="101.705" gradientUnits="userSpaceOnUse">
<stop stop-color="#FEBBBA"/>
<stop offset="1" stop-color="#FF928E"/>
</linearGradient>
<linearGradient id="paint50_linear_6373_49142" x1="114.407" y1="91.4949" x2="111.008" y2="125.58" gradientUnits="userSpaceOnUse">
<stop stop-color="#FEBBBA"/>
<stop offset="1" stop-color="#FF928E"/>
</linearGradient>
<linearGradient id="paint51_linear_6373_49142" x1="137.316" y1="118.589" x2="157.175" y2="129.924" gradientUnits="userSpaceOnUse">
<stop stop-color="#FEBBBA"/>
<stop offset="1" stop-color="#FF928E"/>
</linearGradient>
<linearGradient id="paint52_linear_6373_49142" x1="139.912" y1="129.922" x2="148.858" y2="151.572" gradientUnits="userSpaceOnUse">
<stop stop-color="#09005D"/>
<stop offset="1" stop-color="#1A0F91"/>
</linearGradient>
<linearGradient id="paint53_linear_6373_49142" x1="139.237" y1="121.416" x2="71.291" y2="78.8805" gradientUnits="userSpaceOnUse">
<stop stop-color="#FEBBBA"/>
<stop offset="1" stop-color="#FF928E"/>
</linearGradient>
<linearGradient id="paint54_linear_6373_49142" x1="143.381" y1="135.571" x2="156.522" y2="154.961" gradientUnits="userSpaceOnUse">
<stop stop-color="#09005D"/>
<stop offset="1" stop-color="#1A0F91"/>
</linearGradient>
<linearGradient id="paint55_linear_6373_49142" x1="511.418" y1="682.161" x2="499.212" y2="662.159" gradientUnits="userSpaceOnUse">
<stop stop-color="#4F52FF"/>
<stop offset="1" stop-color="#4042E2"/>
</linearGradient>
<linearGradient id="paint56_linear_6373_49142" x1="159.351" y1="80.0749" x2="167.985" y2="90.0428" gradientUnits="userSpaceOnUse">
<stop stop-color="#09005D"/>
<stop offset="1" stop-color="#1A0F91"/>
</linearGradient>
<linearGradient id="paint57_linear_6373_49142" x1="161.508" y1="93.5912" x2="174.726" y2="115.77" gradientUnits="userSpaceOnUse">
<stop stop-color="#4F52FF"/>
<stop offset="1" stop-color="#4042E2"/>
</linearGradient>
<linearGradient id="paint58_linear_6373_49142" x1="172.098" y1="112.056" x2="191.88" y2="112.056" gradientUnits="userSpaceOnUse">
<stop stop-color="#FEBBBA"/>
<stop offset="1" stop-color="#FF928E"/>
</linearGradient>
<linearGradient id="paint59_linear_6373_49142" x1="164.047" y1="102.601" x2="164.504" y2="95.4754" gradientUnits="userSpaceOnUse">
<stop stop-color="#FEBBBA"/>
<stop offset="1" stop-color="#FF928E"/>
</linearGradient>
<linearGradient id="paint60_linear_6373_49142" x1="164.72" y1="96.571" x2="156.112" y2="80.0976" gradientUnits="userSpaceOnUse">
<stop stop-color="#FEBBBA"/>
<stop offset="1" stop-color="#FF928E"/>
</linearGradient>
<linearGradient id="paint61_linear_6373_49142" x1="153.965" y1="87.2293" x2="166.018" y2="89.6477" gradientUnits="userSpaceOnUse">
<stop stop-color="#09005D"/>
<stop offset="1" stop-color="#1A0F91"/>
</linearGradient>
<linearGradient id="paint62_linear_6373_49142" x1="166.69" y1="95.5415" x2="158.082" y2="79.068" gradientUnits="userSpaceOnUse">
<stop stop-color="#FEBBBA"/>
<stop offset="1" stop-color="#FF928E"/>
</linearGradient>
<linearGradient id="paint63_linear_6373_49142" x1="171.191" y1="111.826" x2="160.995" y2="115.171" gradientUnits="userSpaceOnUse">
<stop stop-color="#09005D"/>
<stop offset="1" stop-color="#1A0F91"/>
</linearGradient>
<linearGradient id="paint64_linear_6373_49142" x1="160.025" y1="100.266" x2="144.119" y2="121.325" gradientUnits="userSpaceOnUse">
<stop stop-color="#09005D"/>
<stop offset="1" stop-color="#1A0F91"/>
</linearGradient>
</defs>
</svg>
