<svg width="203" height="204" viewBox="0 0 203 204" fill="none" xmlns="http://www.w3.org/2000/svg">
<path d="M157.819 165.719C154.153 169.529 150.685 171.986 147.945 173.928C115.733 196.748 77.6188 190.096 69.5186 188.471C57.5571 186.072 34.4348 181.436 17.7182 162.026C-7.57251 132.66 -3.63423 86.3939 15.9829 55.8536C19.5714 50.2671 38.5255 19.2618 77.0506 14.289C100.366 11.2795 127.543 17.349 147.225 33.63C188.538 67.8049 185.597 136.845 157.819 165.719Z" fill="url(#paint0_linear_6373_49143)"/>
<path d="M170.015 30.92C169.73 29.9713 168.36 30.0341 168.169 31.0059C166.314 40.4012 160.679 64.8855 150.11 78.476C132.902 100.604 123.008 135.112 136.441 151.524C136.441 151.524 200.973 134.316 170.015 30.92Z" fill="#91B3FA"/>
<path opacity="0.43" d="M169.234 44.1801C169.235 44.4825 169.211 44.7317 169.197 45.0013L169.14 45.795L169.007 47.3785C168.911 48.4336 168.8 49.4867 168.687 50.5398C168.456 52.6447 168.198 54.7471 167.921 56.8469C167.359 61.0453 166.684 65.2283 165.946 69.3997C165.214 73.5731 164.364 77.7253 163.428 81.8583C162.487 85.9901 161.488 90.1103 160.354 94.1959C158.102 102.369 155.404 110.428 152.146 118.263C150.477 122.163 148.705 126.021 146.712 129.768C144.694 133.499 142.516 137.147 140.081 140.619C140.028 140.695 139.924 140.713 139.849 140.66C139.775 140.608 139.756 140.509 139.804 140.434L139.805 140.432C142.094 136.88 144.188 133.212 146.099 129.45C148.019 125.691 149.72 121.825 151.317 117.92C152.913 114.013 154.351 110.043 155.698 106.043C157.044 102.042 158.224 97.9869 159.381 93.9262C161.66 85.7928 163.504 77.5409 165.121 69.2466C165.92 65.097 166.636 60.9313 167.277 56.7534C167.601 54.6651 167.906 52.5736 168.185 50.4783L168.579 47.3331L168.759 45.7592L168.841 44.9719C168.863 44.7137 168.892 44.4364 168.902 44.2096L168.904 44.1724C168.908 44.0808 168.985 44.0104 169.077 44.0149C169.165 44.0193 169.234 44.0924 169.234 44.1801Z" fill="white"/>
<path d="M136.517 12.5532C135.997 11.7602 134.758 12.1919 134.847 13.1355C135.709 22.258 137.221 46.2483 131.236 61.594C121.491 86.5805 121.833 120.926 138.628 132.311C138.629 132.312 193.113 98.927 136.517 12.5532Z" fill="#BDD0FB"/>
<path opacity="0.43" d="M139.421 24.9245C139.504 25.2019 139.55 25.437 139.611 25.6881L139.775 26.4312L140.085 27.9199C140.286 28.9134 140.47 29.9095 140.655 30.9056C141.017 32.8991 141.355 34.8977 141.674 36.8982C142.305 40.9019 142.827 44.9221 143.289 48.9488C143.756 52.9755 144.111 57.0156 144.379 61.0615C144.644 65.1074 144.852 69.1585 144.927 73.2146C145.091 81.3243 144.815 89.4514 143.965 97.5252C143.497 101.557 142.924 105.579 142.118 109.559C141.284 113.531 140.281 117.47 138.994 121.318C138.965 121.403 138.873 121.45 138.788 121.421C138.705 121.393 138.659 121.305 138.683 121.222L138.684 121.22C139.813 117.338 140.732 113.403 141.456 109.432C142.191 105.461 142.696 101.452 143.095 97.4362C143.492 93.4185 143.727 89.3854 143.872 85.3497C144.015 81.3134 143.99 77.2727 143.943 73.2332C143.815 65.1529 143.254 57.0829 142.475 49.0353C142.077 45.0125 141.597 40.9967 141.046 36.9905C140.774 34.9868 140.484 32.9856 140.169 30.9883L139.672 27.9968L139.409 26.5042L139.269 25.7599C139.219 25.5171 139.17 25.2544 139.118 25.0443L139.109 25.0091C139.088 24.9226 139.14 24.8349 139.227 24.8137C139.311 24.7932 139.396 24.8425 139.421 24.9245Z" fill="white"/>
<g opacity="0.3">
<path d="M51.6991 43.3512C52.0277 43.298 52.3499 43.5011 52.4383 43.8291C52.6324 44.5465 52.799 45.2832 52.9316 46.0186C52.9963 46.376 52.7593 46.7187 52.4012 46.7834C52.3967 46.7841 52.3928 46.7847 52.3884 46.7853C52.0354 46.8424 51.7004 46.6066 51.6363 46.253C51.5101 45.5542 51.3519 44.8546 51.1674 44.1731C51.0726 43.822 51.2795 43.4607 51.6306 43.3659C51.6536 43.3595 51.676 43.355 51.6991 43.3512ZM52.5709 49.0184C52.5965 49.0146 52.6222 49.0114 52.6484 49.0107C53.0117 48.9953 53.3185 49.2772 53.3339 49.6404C53.3652 50.386 53.3652 51.1413 53.3339 51.8831C53.3185 52.2463 53.0129 52.5269 52.6484 52.5128C52.2852 52.4974 52.0034 52.1899 52.0187 51.8273C52.0489 51.1214 52.0489 50.4046 52.0187 49.6961C52.0047 49.3592 52.2462 49.0709 52.5709 49.0184ZM52.1731 54.7362C52.2455 54.7247 52.3211 54.7247 52.3973 54.7388C52.7548 54.8048 52.9911 55.1481 52.9252 55.5056C52.79 56.2384 52.6215 56.9744 52.4242 57.6931C52.3275 58.0435 51.9656 58.2492 51.6152 58.1537C51.2648 58.0576 51.0585 57.6951 51.1546 57.3447C51.3423 56.6618 51.5024 55.9636 51.6306 55.2673C51.6831 54.986 51.906 54.7791 52.1731 54.7362ZM50.507 60.2228C50.6268 60.2036 50.753 60.217 50.8721 60.2683C51.2059 60.4124 51.3596 60.7999 51.2155 61.1337C50.9195 61.8178 50.5909 62.4981 50.2379 63.1547C50.0656 63.4744 49.6672 63.5948 49.3469 63.4231C49.0266 63.2508 48.9068 62.8517 49.0785 62.5321C49.4135 61.9088 49.7261 61.2631 50.0067 60.6122C50.0996 60.3977 50.2924 60.2574 50.507 60.2228ZM47.659 65.2001C47.8268 65.1732 48.0042 65.2103 48.1522 65.3186C48.4456 65.5332 48.5097 65.9451 48.2951 66.2385C47.8563 66.8387 47.3848 67.4286 46.8954 67.9917C46.6571 68.2659 46.2414 68.2954 45.9672 68.0564C45.693 67.8181 45.6642 67.4024 45.9025 67.1276C46.3682 66.5927 46.816 66.0315 47.233 65.4614C47.3387 65.316 47.4937 65.2263 47.659 65.2001ZM43.7809 69.4228C43.9981 69.3875 44.228 69.4618 44.383 69.6399C44.622 69.9141 44.5932 70.3298 44.319 70.5688C43.7572 71.0582 43.1672 71.529 42.5657 71.9691C42.2723 72.1837 41.8604 72.1196 41.6459 71.8262C41.4313 71.5328 41.4953 71.1209 41.7887 70.9064C42.3601 70.4881 42.9206 70.0409 43.4542 69.5759C43.5503 69.4926 43.6637 69.442 43.7809 69.4228ZM20.2223 74.8139C20.312 74.7992 20.4068 74.8036 20.5003 74.8286C21.1825 75.015 21.8821 75.1739 22.579 75.3007C22.9365 75.3661 23.1735 75.7088 23.1081 76.0662C23.0428 76.4237 22.7001 76.6607 22.3426 76.596C21.6085 76.4621 20.8712 76.2949 20.1531 76.0989C19.8021 76.0034 19.5958 75.6415 19.6913 75.2905C19.7624 75.033 19.9757 74.8536 20.2223 74.8139ZM39.0669 72.6795C39.3366 72.6359 39.6159 72.764 39.7517 73.0183C39.9233 73.3386 39.8029 73.7377 39.4826 73.9094C38.826 74.2617 38.1464 74.589 37.4616 74.8837C37.1272 75.0259 36.7403 74.8735 36.5968 74.5391C36.4533 74.2053 36.6077 73.8178 36.9414 73.6743C37.5916 73.395 38.2367 73.0837 38.8606 72.7493C38.9266 72.7141 38.9964 72.6904 39.0669 72.6795ZM25.8882 75.6902C25.9312 75.6832 25.9754 75.6806 26.0202 75.6819C26.7274 75.7107 27.4448 75.7094 28.1527 75.678C28.5159 75.662 28.8234 75.9432 28.8394 76.3064C28.8554 76.6696 28.5742 76.9784 28.211 76.9931C27.466 77.0258 26.7107 77.0277 25.967 76.9976C25.6038 76.9829 25.3213 76.676 25.3361 76.3135C25.3489 75.9951 25.5859 75.7389 25.8882 75.6902ZM33.743 74.8011C34.071 74.7479 34.3926 74.9503 34.4823 75.2777C34.5777 75.6281 34.3714 75.99 34.0204 76.0861C33.3023 76.2821 32.5663 76.4493 31.8328 76.5838C31.8283 76.5851 31.8238 76.5857 31.8187 76.5864C31.4664 76.6434 31.1314 76.4083 31.0667 76.0553C31.0013 75.6979 31.2377 75.3545 31.5958 75.2892C32.2928 75.1617 32.9916 75.0022 33.6738 74.8165C33.6969 74.8094 33.72 74.8049 33.743 74.8011Z" fill="#BDD0FB"/>
<path d="M15.893 73.1973C16.0211 73.1768 16.1563 73.1935 16.2818 73.2537C16.5874 73.4004 16.9019 73.5432 17.2151 73.679C17.5489 73.8225 17.7033 74.2101 17.5591 74.5438C17.4156 74.8776 17.0281 75.0319 16.6943 74.8878C16.3644 74.7456 16.0345 74.5957 15.7123 74.4407C15.385 74.2831 15.2466 73.8904 15.4036 73.5624C15.5003 73.3607 15.6874 73.2306 15.893 73.1973Z" fill="#BDD0FB"/>
</g>
<g opacity="0.3">
<path d="M2.6313 58.1392C2.94519 58.0886 3.25779 58.2712 3.36028 58.5825C3.46662 58.9047 3.58128 59.2301 3.70171 59.5498C3.82983 59.8899 3.65815 60.2698 3.318 60.3979C2.97658 60.5267 2.59799 60.3537 2.46988 60.0142C2.34304 59.6779 2.22197 59.3352 2.11051 58.9963C1.99649 58.6511 2.18418 58.2789 2.52945 58.1649C2.5634 58.1527 2.59735 58.145 2.6313 58.1392Z" fill="#BDD0FB"/>
<path d="M22.8549 24.7825C23.154 24.7344 23.4545 24.6909 23.7575 24.6524C24.1181 24.6069 24.4474 24.8619 24.4935 25.2225C24.5396 25.5832 24.2827 25.9144 23.9234 25.9586C23.2245 26.0476 22.5307 26.1642 21.8543 26.3083C21.4981 26.3833 21.1497 26.1565 21.0741 25.801C20.9985 25.4455 21.2259 25.0957 21.5814 25.0201C21.9997 24.9317 22.4282 24.8516 22.8549 24.7825ZM27.2268 24.4513C27.2633 24.4455 27.3005 24.4423 27.3389 24.443C28.073 24.4494 28.8155 24.4878 29.5444 24.5557C29.9064 24.5896 30.1722 24.9106 30.1383 25.2719C30.1043 25.6338 29.7827 25.9009 29.4214 25.8657C28.729 25.801 28.0237 25.7651 27.3261 25.7587C26.9629 25.7555 26.6708 25.4583 26.674 25.0944C26.6772 24.769 26.9155 24.5012 27.2268 24.4513ZM18.251 25.9727C18.5572 25.9233 18.8653 26.0969 18.9742 26.3993C19.0979 26.7413 18.9204 27.1187 18.5784 27.2416C17.9243 27.4774 17.2716 27.7445 16.6381 28.036C16.3075 28.1871 15.9168 28.043 15.7649 27.7131C15.6131 27.3826 15.7579 26.9918 16.0884 26.84C16.7559 26.5332 17.4433 26.2519 18.1319 26.0034C18.1716 25.9893 18.2113 25.9791 18.251 25.9727ZM32.83 25.1245C32.9126 25.1111 32.9991 25.1136 33.0849 25.1341C33.7992 25.302 34.5147 25.5025 35.2116 25.7292C35.5569 25.842 35.7459 26.2135 35.6332 26.5588C35.5204 26.9047 35.1495 27.0937 34.8036 26.9803C34.1419 26.7644 33.4622 26.5742 32.7838 26.4153C32.4303 26.3327 32.2105 25.9778 32.2938 25.6242C32.3566 25.3564 32.5744 25.1655 32.83 25.1245ZM13.1917 28.4613C13.4428 28.4209 13.7061 28.5286 13.8515 28.7573C14.0469 29.0634 13.9572 29.4709 13.651 29.6662C13.0649 30.0397 12.4871 30.4445 11.9324 30.8673C11.6435 31.0877 11.2303 31.0326 11.0099 30.7437C10.7896 30.4548 10.8447 30.0423 11.1336 29.8213C11.7171 29.3754 12.3257 28.9501 12.9426 28.5561C13.0207 28.5068 13.1053 28.4754 13.1917 28.4613ZM8.79993 31.9999C9.00107 31.9672 9.21374 32.028 9.3694 32.1824C9.62692 32.4387 9.6282 32.8557 9.37196 33.1132C8.88064 33.6077 8.40405 34.1285 7.95629 34.6615C7.72248 34.9401 7.30802 34.976 7.02873 34.7422C6.75071 34.5084 6.71484 34.0933 6.94865 33.8146C7.42012 33.2541 7.92105 32.7058 8.43864 32.1856C8.54049 32.0831 8.66797 32.0216 8.79993 31.9999ZM5.28507 36.4122C5.43817 36.3872 5.59959 36.416 5.74116 36.5057C6.04864 36.6998 6.14024 37.1059 5.94615 37.4134C5.57397 38.0034 5.22229 38.6151 4.90136 39.2326C4.73353 39.5549 4.33701 39.6811 4.01352 39.5132C3.69131 39.3454 3.56576 38.9482 3.73295 38.6254C4.07053 37.9758 4.44079 37.3314 4.83282 36.7107C4.93788 36.5441 5.10507 36.441 5.28507 36.4122ZM2.81564 41.4856C2.92133 41.4683 3.03279 41.4772 3.14105 41.5157C3.48312 41.638 3.66184 42.014 3.53949 42.3567C3.30504 43.0133 3.09621 43.6879 2.91877 44.3605C2.82589 44.7122 2.46524 44.9216 2.11484 44.8294C1.76316 44.7365 1.5537 44.3765 1.64658 44.0248C1.83363 43.3157 2.05335 42.6059 2.29997 41.9147C2.38325 41.6797 2.58631 41.5227 2.81564 41.4856ZM1.51975 46.9792C1.57932 46.9696 1.64081 46.9683 1.70423 46.976C2.06488 47.0195 2.32239 47.3475 2.27883 47.7081C2.19556 48.3987 2.14047 49.102 2.11548 49.7984C2.10267 50.1616 1.79648 50.4453 1.43391 50.4325C1.0707 50.4197 0.786922 50.1142 0.799734 49.7509C0.825997 49.0175 0.88429 48.277 0.97205 47.5506C1.00728 47.2521 1.23725 47.0246 1.51975 46.9792ZM1.46273 52.6195C1.47619 52.6175 1.48964 52.6156 1.50309 52.6143C1.86502 52.5785 2.18723 52.8424 2.2231 53.2043C2.27371 53.7149 2.34097 54.2299 2.42232 54.7353C2.45179 54.9185 2.48382 55.1004 2.51713 55.2817C2.58311 55.6392 2.34609 55.9825 1.98865 56.0478C1.628 56.1215 1.28786 55.8768 1.22252 55.52C1.18728 55.3291 1.15398 55.1376 1.12323 54.9448C1.03739 54.4131 0.966925 53.8712 0.913757 53.3344C0.878525 52.9859 1.12195 52.6746 1.46273 52.6195Z" fill="#BDD0FB"/>
<path d="M38.1607 27.0213C38.2901 27.0002 38.4266 27.0175 38.5528 27.0789C38.873 27.2346 39.1965 27.4005 39.5136 27.5709C39.8339 27.7432 39.9537 28.1423 39.7814 28.4626C39.6091 28.7829 39.21 28.9027 38.8897 28.7304C38.5886 28.5683 38.2818 28.4114 37.9775 28.2634C37.6508 28.1045 37.5144 27.7106 37.6732 27.3839C37.7712 27.1834 37.957 27.0546 38.1607 27.0213Z" fill="#BDD0FB"/>
</g>
<path d="M38.5009 34.6997C38.4029 34.6126 38.26 34.5972 38.146 34.6619L34.8829 36.4978C33.3455 35.6657 31.664 35.0719 29.8909 34.7663L28.4643 31.3078C28.4143 31.1868 28.2926 31.1105 28.1619 31.1182L23.6792 31.3834C23.5478 31.3911 23.4364 31.4814 23.4012 31.6076L22.3929 35.2102C20.6684 35.7233 19.0689 36.5106 17.6404 37.5189L14.1839 36.0808C14.0628 36.0302 13.9231 36.0622 13.836 36.1602L10.8535 39.5175C10.7664 39.6155 10.751 39.7583 10.8157 39.8724L12.6516 43.1355C11.8195 44.6729 11.2263 46.3544 10.9201 48.1275L7.46163 49.5541C7.34056 49.604 7.26433 49.7258 7.27202 49.8564L7.53721 54.3392C7.5449 54.4699 7.63522 54.582 7.76142 54.6172L11.364 55.6255C11.8771 57.3499 12.6644 58.9495 13.6727 60.3779L12.2346 63.8345C12.184 63.9556 12.216 64.0952 12.314 64.1823L15.6713 67.1642C15.7693 67.2514 15.9121 67.2667 16.0262 67.2027L19.2893 65.3668C20.8267 66.1995 22.5082 66.7927 24.2813 67.0983L25.7079 70.5574C25.7579 70.6785 25.8796 70.7547 26.0102 70.747L30.493 70.4818C30.6243 70.4741 30.7358 70.3838 30.771 70.2576L31.7793 66.655C33.5037 66.1419 35.1033 65.3546 36.5318 64.3463L39.9883 65.7844C40.1094 65.835 40.249 65.803 40.3361 65.705L43.318 62.3477C43.4052 62.2497 43.4205 62.1069 43.3565 61.9928L41.5206 58.7297C42.3527 57.1923 42.9459 55.5108 43.2521 53.7377L46.7112 52.3111C46.8323 52.2612 46.9085 52.1395 46.9008 52.0088L46.6356 47.526C46.6279 47.3947 46.5376 47.2832 46.4114 47.248L42.8088 46.2397C42.2957 44.5153 41.5084 42.9158 40.5001 41.4873L41.9382 38.0307C41.9888 37.9096 41.9568 37.77 41.8588 37.6829L38.5009 34.6997Z" fill="#BDD0FB"/>
<path d="M26.3687 46.4747C28.5409 46.1243 30.706 47.4112 31.3889 49.57C32.1397 51.9433 30.8194 54.4845 28.4467 55.2353C27.2969 55.5991 26.0746 55.4934 25.0049 54.9374C23.9351 54.382 23.1453 53.4429 22.7814 52.2931C22.0307 49.9197 23.3509 47.3786 25.7236 46.6278C25.9376 46.5605 26.1534 46.5099 26.3687 46.4747ZM27.63 54.35C27.7978 54.3231 27.9644 54.2834 28.1296 54.2315C29.9489 53.6562 30.961 51.7069 30.3857 49.8877C29.8099 48.0685 27.8619 47.0557 26.042 47.6316C24.2227 48.2068 23.2106 50.1561 23.7859 51.9753C24.0645 52.8568 24.6699 53.5768 25.4904 54.0028C26.1573 54.3493 26.9016 54.4678 27.63 54.35Z" fill="url(#paint1_linear_6373_49143)"/>
<path d="M25.2391 40.054C25.612 39.9938 25.9905 39.9522 26.373 39.9291C26.4934 39.9221 26.6138 39.9169 26.7343 39.9137C27.3287 39.8977 27.9232 39.9291 28.5093 40.0073C28.517 40.0085 28.5253 40.0092 28.533 40.0105C28.5554 40.0137 28.5785 40.0169 28.6009 40.0201C28.6451 40.0265 28.6893 40.0329 28.7329 40.0399C28.8482 40.0579 28.9346 40.1482 28.9526 40.2577C28.9571 40.2846 28.9571 40.3122 28.9526 40.3404C28.9302 40.4838 28.7956 40.5819 28.6521 40.5601C27.9129 40.446 27.1564 40.4108 26.4031 40.4557C22.6634 40.6767 19.4874 42.8264 17.7866 45.8794C16.8405 47.577 16.3505 49.5544 16.4735 51.6344C16.4952 51.9989 16.535 52.3602 16.5926 52.7157C16.9795 55.1102 18.1684 57.2811 20.0062 58.9139C22.1176 60.7896 24.833 61.7306 27.6522 61.5634C33.4744 61.2181 37.9265 56.2043 37.5818 50.3846C37.5607 50.0259 37.5216 49.6691 37.464 49.3168C37.2173 47.789 36.6389 46.3323 35.7651 45.0537C35.7427 45.0204 35.7286 44.9846 35.7229 44.9474C35.7068 44.85 35.7472 44.7475 35.8343 44.688C35.9548 44.6066 36.1181 44.6367 36.2001 44.7571C37.1174 46.0998 37.7247 47.6295 37.9835 49.2329C38.043 49.6031 38.0847 49.9772 38.1071 50.3532C38.469 56.4631 33.7909 61.7274 27.6829 62.0887C24.7235 62.2642 21.8729 61.2758 19.6565 59.3073C17.7264 57.5931 16.4786 55.3145 16.0725 52.8003C16.0122 52.4268 15.9706 52.0476 15.9475 51.6652C15.7727 48.7057 16.7604 45.8551 18.7289 43.6387C20.4444 41.708 22.7242 40.4595 25.2391 40.054Z" fill="url(#paint2_linear_6373_49143)"/>
<g opacity="0.3">
<path d="M71.1068 22.6493C71.2804 22.6211 71.4584 22.7088 71.5379 22.8754C71.6865 23.1867 71.8281 23.507 71.9581 23.8266C72.0426 24.0348 71.9427 24.2712 71.7345 24.3564C71.5263 24.4416 71.2893 24.3404 71.2048 24.1328C71.0811 23.8279 70.946 23.523 70.8044 23.2258C70.7077 23.0233 70.7935 22.7806 70.9959 22.6838C71.0318 22.6665 71.069 22.6557 71.1068 22.6493Z" fill="#BDD0FB"/>
<path d="M72.1898 25.5808C72.3929 25.5482 72.5927 25.6737 72.6465 25.8768C72.8003 26.4507 72.9265 27.0394 73.0206 27.6256C73.0405 27.7492 73.0591 27.8728 73.077 27.9977C73.1077 28.22 72.9399 28.4192 72.7304 28.457C72.5082 28.4884 72.3025 28.3328 72.2711 28.1111C72.2545 27.992 72.2366 27.8735 72.218 27.7556C72.1277 27.1964 72.0072 26.6352 71.8612 26.0875C71.8029 25.8704 71.9316 25.6481 72.1488 25.5898C72.1629 25.586 72.1763 25.5834 72.1898 25.5808ZM72.7746 29.7613C72.7939 29.7581 72.8131 29.7561 72.8329 29.7561C73.0578 29.7523 73.2429 29.931 73.2467 30.1559C73.2596 30.8759 73.2269 31.6036 73.1513 32.3172C73.1276 32.5407 72.9265 32.7015 72.7042 32.6785C72.4806 32.6548 72.3192 32.4549 72.3429 32.2313C72.4153 31.5504 72.446 30.8566 72.4339 30.1693C72.43 29.9643 72.578 29.7926 72.7746 29.7613ZM72.3275 33.9577C72.3781 33.9494 72.4319 33.9506 72.4851 33.9635C72.7035 34.0147 72.8393 34.2338 72.7881 34.4522C72.6235 35.1524 72.414 35.85 72.1635 36.5251C72.0854 36.7359 71.8522 36.8429 71.6408 36.7654C71.4307 36.6878 71.3231 36.4534 71.4006 36.2433C71.6389 35.5995 71.8394 34.9346 71.9957 34.2665C72.0354 34.1012 72.1699 33.9833 72.3275 33.9577ZM70.8625 37.9165C70.9458 37.903 71.0336 37.9152 71.1136 37.9568C71.3128 38.06 71.391 38.3059 71.2879 38.5052C70.956 39.1451 70.5819 39.7697 70.1758 40.3616C70.0483 40.5467 69.7953 40.5928 69.6108 40.4666C69.4257 40.3398 69.3789 40.0868 69.5058 39.9016C69.8933 39.3373 70.2501 38.7409 70.5666 38.1311C70.6281 38.0119 70.7402 37.9363 70.8625 37.9165ZM68.4757 41.3974C68.5917 41.3788 68.7153 41.4102 68.8101 41.4941C68.9779 41.6427 68.9939 41.8996 68.8453 42.0681C68.3687 42.6068 67.8544 43.1218 67.3163 43.5978C67.1484 43.747 66.8916 43.731 66.7423 43.5632C66.5937 43.3947 66.6091 43.1378 66.7769 42.9892C67.29 42.535 67.7807 42.0437 68.2355 41.5293C68.3008 41.4563 68.386 41.4121 68.4757 41.3974ZM65.3164 44.1929C65.4669 44.1685 65.6245 44.2307 65.7167 44.3645C65.8436 44.5497 65.7962 44.8027 65.6117 44.9295C65.0185 45.3363 64.3939 45.7104 63.7559 46.0403C63.5554 46.1428 63.3114 46.0653 63.2082 45.8661C63.1051 45.6668 63.1832 45.4215 63.3825 45.3184C63.991 45.0038 64.5861 44.6477 65.1517 44.2595C65.2024 44.2236 65.2587 44.2025 65.3164 44.1929ZM61.5703 46.1306C61.7586 46.1005 61.9476 46.2062 62.0161 46.3913C62.0936 46.6021 61.986 46.8359 61.7753 46.9134C61.1027 47.1613 60.4051 47.3708 59.703 47.5354C59.4833 47.5828 59.2655 47.4502 59.2142 47.2318C59.163 47.0133 59.2988 46.7949 59.5172 46.7437C60.1873 46.5873 60.8522 46.3875 61.494 46.1511C61.5197 46.1415 61.5447 46.1351 61.5703 46.1306ZM55.3483 47.1876C55.3714 47.1837 55.3957 47.1818 55.4201 47.1824C56.0126 47.1921 56.616 47.169 57.2137 47.1139C57.304 47.1062 57.3931 47.0972 57.4815 47.0876C57.705 47.0639 57.9055 47.2247 57.9292 47.4477C57.9536 47.6712 57.7921 47.8781 57.5692 47.8961C57.475 47.9063 57.3802 47.9159 57.2854 47.9236C56.6609 47.9806 56.028 48.005 55.4066 47.9947C55.1818 47.9909 55.0031 47.8064 55.0069 47.5822C55.0101 47.3823 55.1568 47.2183 55.3483 47.1876Z" fill="#BDD0FB"/>
</g>
<g opacity="0.3">
<path d="M52.6587 13.1487C52.8778 13.1135 53.0853 13.2608 53.1238 13.4799C53.1622 13.7009 53.0142 13.9116 52.7932 13.9501C52.1276 14.0667 51.4634 14.2243 50.8189 14.4196C50.605 14.4824 50.3769 14.3633 50.3122 14.1487C50.2469 13.9334 50.3686 13.7067 50.5832 13.642C51.259 13.4376 51.9553 13.2717 52.6536 13.15C52.6548 13.1494 52.6568 13.1494 52.6587 13.1487ZM54.7252 12.9143C54.7399 12.9117 54.754 12.9104 54.7694 12.9098C55.476 12.872 56.1921 12.8771 56.898 12.9245C57.1222 12.9399 57.2914 13.1333 57.2766 13.3569C57.2619 13.5811 57.0665 13.7496 56.8442 13.7355C56.171 13.69 55.4875 13.6855 54.813 13.7214C54.5888 13.7336 54.3972 13.5613 54.3857 13.337C54.3735 13.1276 54.5228 12.9469 54.7252 12.9143ZM48.6865 14.353C48.8645 14.3242 49.0465 14.4171 49.1227 14.59C49.2137 14.795 49.1208 15.0352 48.9158 15.1262C48.2976 15.4004 47.691 15.7142 47.1126 16.0602C46.9191 16.1748 46.6699 16.112 46.5553 15.9192C46.4399 15.7264 46.5034 15.4766 46.6955 15.3619C47.3015 15 47.9376 14.6707 48.5859 14.3838C48.6192 14.3684 48.6531 14.3581 48.6865 14.353ZM58.8685 13.1955C58.9139 13.1884 58.962 13.1884 59.01 13.1974C59.7057 13.3306 60.3995 13.5087 61.0733 13.7259C61.2873 13.7944 61.4045 14.0237 61.3353 14.2377C61.2662 14.4504 61.0375 14.5682 60.8235 14.4997C60.181 14.2928 59.5193 14.123 58.8563 13.9956C58.6359 13.9533 58.4912 13.74 58.5341 13.5196C58.5668 13.3479 58.7045 13.2217 58.8685 13.1955ZM45.1236 16.4817C45.2658 16.4586 45.4157 16.5118 45.5098 16.6335C45.6475 16.8109 45.6155 17.0665 45.4381 17.2042C44.9051 17.6174 44.392 18.0677 43.9129 18.5437C43.7534 18.7019 43.4958 18.7006 43.3376 18.5411C43.1794 18.3816 43.1807 18.1241 43.3402 17.9659C43.843 17.4675 44.3805 16.9954 44.9397 16.5617C44.9954 16.5182 45.0589 16.4919 45.1236 16.4817ZM42.1756 19.4027C42.2845 19.3854 42.3998 19.4117 42.4927 19.4853C42.6689 19.6243 42.699 19.8806 42.5593 20.0561C42.1397 20.5865 41.749 21.147 41.3979 21.7216C41.2807 21.9131 41.0303 21.9733 40.8394 21.8568C40.6478 21.7395 40.5876 21.4897 40.7048 21.2982C41.0732 20.6954 41.4825 20.108 41.9219 19.5519C41.9873 19.4687 42.0789 19.4181 42.1756 19.4027ZM40.0117 22.9464C40.088 22.9342 40.1687 22.9432 40.2449 22.9778C40.4492 23.0707 40.5396 23.3115 40.4467 23.5165C40.1661 24.1314 39.9214 24.7695 39.719 25.412C39.6511 25.6253 39.423 25.7451 39.2091 25.6772C38.9951 25.6099 38.876 25.3812 38.9439 25.1673C39.1566 24.4934 39.4128 23.8246 39.7068 23.1789C39.7651 23.0508 39.8823 22.9675 40.0117 22.9464Z" fill="#BDD0FB"/>
<path d="M62.8379 14.4772C62.9155 14.465 62.9975 14.4746 63.0737 14.5099C63.3895 14.6566 63.7021 14.8129 64.0032 14.9749C64.2005 15.0813 64.2748 15.3279 64.1684 15.5258C64.0615 15.7225 63.8155 15.7974 63.6175 15.6911C63.3306 15.5367 63.032 15.3868 62.731 15.2472C62.5273 15.1524 62.4389 14.9109 62.5337 14.7072C62.5926 14.5803 62.7092 14.4983 62.8379 14.4772Z" fill="#BDD0FB"/>
</g>
<path d="M63.3408 19.7148C63.2755 19.6565 63.1801 19.6462 63.1032 19.6892L60.9201 20.9178C59.8913 20.3611 58.7665 19.964 57.5801 19.759L56.6257 17.4446C56.5923 17.3632 56.511 17.3126 56.4232 17.3177L53.4234 17.4952C53.3356 17.5003 53.2613 17.5605 53.2376 17.6451L52.5625 20.0562C51.4088 20.3996 50.3384 20.9268 49.382 21.6007L47.0689 20.6385C46.9875 20.6046 46.894 20.6263 46.8357 20.6917L44.8403 22.9382C44.782 23.0042 44.7717 23.0996 44.8147 23.1758L46.0433 25.3589C45.486 26.3877 45.0895 27.5126 44.8845 28.6996L42.5701 29.654C42.4887 29.6873 42.4381 29.7687 42.4432 29.8564L42.6207 32.8563C42.6258 32.944 42.686 33.019 42.7706 33.042L45.1817 33.7172C45.5251 34.8715 46.0516 35.9413 46.7261 36.8977L45.764 39.2108C45.73 39.2922 45.7518 39.3857 45.8172 39.444L48.0637 41.4394C48.129 41.4977 48.2245 41.5079 48.3013 41.465L50.4844 40.2364C51.5132 40.7937 52.638 41.1902 53.8244 41.3952L54.7789 43.7096C54.8122 43.791 54.8935 43.8416 54.9813 43.8364L57.9811 43.659C58.0689 43.6539 58.1432 43.5937 58.1669 43.5091L58.8421 41.098C59.9964 40.7546 61.0661 40.2274 62.0225 39.5535L64.3357 40.5157C64.417 40.5496 64.5105 40.5278 64.5688 40.4625L66.5642 38.216C66.6225 38.1507 66.6328 38.0552 66.5899 37.9783L65.3619 35.7952C65.9192 34.7665 66.3157 33.6416 66.5207 32.4546L68.8351 31.5002C68.9164 31.4669 68.967 31.3855 68.9619 31.2977L68.7845 28.2979C68.7794 28.2101 68.7191 28.1358 68.6346 28.1121L66.2234 27.437C65.8801 26.2833 65.3535 25.2129 64.679 24.2565L65.6412 21.9434C65.6751 21.862 65.6533 21.7685 65.588 21.7102L63.3408 19.7148Z" fill="#BDD0FB"/>
<path opacity="0.56" d="M55.2182 27.5401C55.8658 27.4357 56.5269 27.5408 57.1195 27.8482C57.8484 28.2268 58.3859 28.8668 58.6338 29.6495C59.145 31.2657 58.2462 32.9966 56.6301 33.5084C55.0107 34.0177 53.2824 33.1202 52.7712 31.504C52.5233 30.7206 52.5957 29.8885 52.9743 29.1595C53.3528 28.4305 53.9928 27.8924 54.7756 27.6452C54.921 27.5991 55.0696 27.5638 55.2182 27.5401ZM56.0612 32.8102C56.1695 32.7929 56.2771 32.7672 56.3847 32.7333C57.5736 32.3566 58.2347 31.0838 57.8587 29.8943C57.6768 29.3184 57.2809 28.8475 56.7447 28.5695C56.2086 28.2909 55.5962 28.239 55.0196 28.4203C54.4438 28.6028 53.9729 28.9981 53.6949 29.5342C53.4163 30.0704 53.3637 30.6828 53.5457 31.2593C53.8877 32.3406 54.9729 32.9857 56.0612 32.8102Z" fill="#BDD0FB"/>
<path d="M54.4374 23.0699C54.6911 23.0289 54.9493 23.0007 55.2113 22.9847C55.7314 22.9539 56.2554 22.9757 56.7704 23.05C56.7935 23.0532 56.8165 23.0571 56.8396 23.0603C57.0183 23.0878 57.1516 23.2275 57.1791 23.3966C57.1855 23.4376 57.1862 23.4805 57.1791 23.5241C57.1452 23.7457 56.937 23.8969 56.7153 23.8636C56.2355 23.7893 55.7461 23.7668 55.2599 23.7957C55.233 23.7969 55.2061 23.7989 55.1799 23.8008C54.0294 23.8802 52.9423 24.2428 51.9949 24.8462C51.4805 25.1735 51.0071 25.5726 50.5882 26.0364C50.585 26.0403 50.5811 26.0441 50.5779 26.0479C50.5677 26.0595 50.5574 26.071 50.5472 26.0825C49.3333 27.4495 48.7241 29.2073 48.8317 31.0323C48.8458 31.2687 48.8714 31.5018 48.9086 31.7324C49.1591 33.2826 49.929 34.6881 51.1186 35.745C52.4856 36.9589 54.2433 37.5681 56.0684 37.4599C57.8921 37.351 59.5672 36.5393 60.7811 35.173C61.995 33.806 62.6042 32.0482 62.4966 30.2232C62.4831 29.9907 62.4575 29.7601 62.4203 29.5321C62.2602 28.543 61.8861 27.6001 61.3205 26.7724C61.2859 26.7212 61.2641 26.6655 61.2551 26.6078C61.2308 26.4573 61.2929 26.299 61.4268 26.2074C61.6126 26.0812 61.865 26.128 61.9918 26.3138C62.6247 27.2401 63.0436 28.2951 63.2223 29.4014C63.2633 29.657 63.2922 29.9151 63.3075 30.1745C63.4286 32.2167 62.747 34.1833 61.3884 35.7124C60.0303 37.2414 58.1586 38.1517 56.1158 38.2708C54.0742 38.3919 52.1076 37.7103 50.5779 36.3517C49.2462 35.1691 48.3852 33.5972 48.1053 31.8625C48.0637 31.605 48.0348 31.3436 48.0188 31.0797C47.7857 27.128 50.6087 23.688 54.4374 23.0699Z" fill="url(#paint3_linear_6373_49143)"/>
<path d="M73.11 148.108L69.499 180.492H111.391L105.935 148.108H73.11Z" fill="url(#paint4_linear_6373_49143)"/>
<path d="M0.214355 66.0058V142.324C0.214355 148.603 5.21728 153.737 11.4937 153.898C39.3691 154.617 136.863 156.36 163.399 155.969C167.96 155.902 171.654 152.252 171.786 147.692C172.298 129.963 173.129 87.3282 170.054 67.5343C169.406 63.366 165.887 60.249 161.672 60.1144C138.316 59.3675 34.9651 56.9948 8.44195 57.5906C3.86694 57.6937 0.214355 61.4302 0.214355 66.0058Z" fill="url(#paint5_linear_6373_49143)"/>
<path d="M5.00195 65.6347V138.143C5.00195 141.809 7.94413 144.796 11.6095 144.851L159.58 146.679C163.214 146.733 166.192 143.81 166.206 140.176L166.454 68.3156C166.463 65.7174 164.393 63.5881 161.795 63.5247L10.3008 60.464C7.3958 60.3929 5.00195 62.7284 5.00195 65.6347Z" fill="#91B3FA"/>
<path d="M167.321 149.684C167.321 149.684 167.318 149.684 167.317 149.684L4.99848 146.918C4.86716 146.916 4.76275 146.808 4.76467 146.676C4.7666 146.545 4.87357 146.441 5.00617 146.442L167.324 149.208C167.456 149.21 167.56 149.319 167.558 149.45C167.556 149.58 167.45 149.684 167.321 149.684Z" fill="url(#paint6_linear_6373_49143)"/>
<path d="M120.414 187.117H59.1017C57.4362 187.117 56.1851 185.932 56.5074 184.658L57.294 181.547C57.5304 180.611 58.5598 179.924 59.7826 179.886L118.89 178.042C120.167 178.002 121.298 178.68 121.576 179.652L122.994 184.608C123.363 185.895 122.106 187.117 120.414 187.117Z" fill="url(#paint7_linear_6373_49143)"/>
<path d="M55.7911 133.401L29.3012 133.359C28.8694 133.358 28.519 133.037 28.519 132.641V130.955C28.519 130.56 28.8694 130.241 29.3012 130.243L55.7911 130.392C56.1933 130.394 56.5194 130.705 56.5194 131.087V132.711C56.5188 133.092 56.1933 133.402 55.7911 133.401Z" fill="white"/>
<path d="M30.3271 133.994L32.6044 142.346C32.7485 142.874 33.2648 143.24 33.8561 143.233L51.4906 143.035C52.0543 143.028 52.545 142.661 52.6821 142.144L54.8299 134.012L30.3271 133.994ZM36.8643 141.857C36.8643 142.188 36.5741 142.459 36.2154 142.463L35.5965 142.47C35.2372 142.473 34.9457 142.207 34.9457 141.875V135.401C34.9457 135.069 35.2372 134.8 35.5965 134.8H36.2154C36.5734 134.8 36.8643 135.068 36.8643 135.4V141.857ZM40.3054 141.824C40.3054 142.154 40.0178 142.424 39.6623 142.428L39.0486 142.434C38.6925 142.438 38.4036 142.173 38.4036 141.843V135.398C38.4036 135.068 38.6925 134.799 39.0486 134.799H39.6623C40.0172 134.799 40.3054 135.066 40.3054 135.396V141.824ZM43.7165 141.791C43.7165 142.12 43.4315 142.389 43.0792 142.393L42.4712 142.399C42.1183 142.403 41.832 142.139 41.832 141.81V135.394C41.832 135.065 42.1183 134.798 42.4712 134.798H43.0792C43.4308 134.798 43.7165 135.064 43.7165 135.393V141.791ZM47.0969 141.759C47.0969 142.086 46.8144 142.354 46.4653 142.358L45.8625 142.364C45.5127 142.368 45.2289 142.105 45.2289 141.777V135.391C45.2289 135.063 45.5127 134.797 45.8625 134.797H46.4653C46.8144 134.797 47.0969 135.062 47.0969 135.389V141.759ZM50.4471 141.728C50.4471 142.053 50.1672 142.32 49.8213 142.324L49.2242 142.33C48.8777 142.334 48.5965 142.072 48.5965 141.746V135.387C48.5965 135.061 48.8777 134.797 49.2242 134.796H49.8213C50.1672 134.796 50.4471 135.06 50.4471 135.385V141.728Z" fill="white"/>
<path d="M33.3039 129.416C32.9016 129.736 32.2905 129.694 31.9389 129.32C31.5872 128.947 31.6288 128.384 32.033 128.063C32.4366 127.744 33.0471 127.787 33.3975 128.161C33.7478 128.534 33.7056 129.095 33.3039 129.416Z" fill="white"/>
<path d="M41.8052 121.48C41.6726 121.335 41.3978 121.351 41.1922 121.515L32.8044 128.176C32.5937 128.343 32.5335 128.596 32.6693 128.74C32.8051 128.885 33.0856 128.866 33.2957 128.699L41.6726 122.037C41.8789 121.873 41.9378 121.624 41.8052 121.48Z" fill="white"/>
<path d="M52.0184 129.54C52.4008 129.858 52.9805 129.824 53.3136 129.465C53.6461 129.106 53.6064 128.559 53.2246 128.241C52.8428 127.923 52.2631 127.955 51.9293 128.314C51.595 128.674 51.6353 129.223 52.0184 129.54Z" fill="white"/>
<path d="M43.7457 121.512C43.8776 121.373 44.1505 121.398 44.3549 121.568L52.4941 128.338C52.6939 128.504 52.7516 128.751 52.6222 128.89C52.4934 129.029 52.2263 129.007 52.0264 128.841L43.877 122.072C43.672 121.902 43.6131 121.651 43.7457 121.512Z" fill="white"/>
<path d="M144.131 97.0531C151.678 97.0531 157.796 90.9349 157.796 83.3876C157.796 75.8404 151.678 69.7222 144.131 69.7222C136.584 69.7222 130.465 75.8404 130.465 83.3876C130.465 90.9349 136.584 97.0531 144.131 97.0531Z" fill="url(#paint8_linear_6373_49143)"/>
<path d="M144.228 92.4185C144.077 92.4185 143.925 92.4153 143.772 92.4083C138.555 92.1783 134.485 88.0248 134.698 83.1494C134.802 80.7786 135.889 78.5961 137.76 77.0036C139.617 75.422 142.029 74.6136 144.546 74.7238C149.763 74.9538 153.833 79.1073 153.62 83.9827V83.9834C153.516 86.3542 152.429 88.5366 150.559 90.1291C148.814 91.614 146.581 92.4185 144.228 92.4185ZM144.091 75.9614C142.034 75.9614 140.088 76.6609 138.569 77.9536C136.966 79.3187 136.034 81.1834 135.946 83.2032C135.762 87.3913 139.298 90.9612 143.827 91.1611C146.029 91.2559 148.133 90.5538 149.749 89.1772C151.353 87.8121 152.285 85.9474 152.373 83.927C152.557 79.7389 149.021 76.169 144.491 75.9691C144.357 75.9646 144.223 75.9614 144.091 75.9614Z" fill="#DAE3FE"/>
<path d="M146.418 83.6072C146.416 85.0581 146.317 86.5123 146.062 87.9427C145.997 88.3001 145.923 88.6556 145.834 89.0079C145.745 89.3603 145.641 89.7094 145.515 90.0502C145.387 90.3903 145.239 90.726 145.039 91.0328C144.938 91.1853 144.823 91.3307 144.682 91.4511C144.612 91.5107 144.535 91.5632 144.449 91.6023C144.363 91.6407 144.271 91.6651 144.176 91.667C144.082 91.6696 143.987 91.651 143.9 91.6164C143.813 91.5818 143.734 91.5312 143.661 91.4735C143.517 91.3576 143.399 91.2128 143.297 91.0623C143.093 90.758 142.943 90.423 142.815 90.0835C142.686 89.7427 142.583 89.3942 142.492 89.0419C142.403 88.6902 142.327 88.3347 142.262 87.9773C142.132 87.2624 142.043 86.5411 141.984 85.8179C141.924 85.094 141.895 84.3682 141.891 83.6425C141.889 83.2792 141.899 82.9167 141.912 82.5541C141.925 82.1915 141.945 81.829 141.972 81.467C142.025 80.7432 142.105 80.0213 142.225 79.3051C142.284 78.947 142.354 78.5909 142.437 78.2373C142.521 77.8843 142.619 77.5332 142.739 77.1905C142.8 77.0195 142.866 76.8498 142.941 76.6845C143.017 76.5192 143.102 76.3572 143.201 76.2041C143.3 76.0516 143.415 75.9062 143.558 75.7902C143.629 75.7326 143.708 75.6826 143.793 75.6487C143.879 75.6141 143.972 75.5968 144.064 75.6006C144.157 75.6032 144.248 75.6262 144.332 75.6634C144.417 75.7006 144.494 75.7518 144.565 75.8095C144.707 75.9254 144.825 76.0676 144.93 76.2162C145.137 76.516 145.294 76.8472 145.429 77.1841C145.564 77.5217 145.675 77.8683 145.772 78.218C145.869 78.5684 145.95 78.922 146.021 79.2782C146.3 80.7016 146.413 82.1557 146.418 83.6072ZM146.311 83.6072C146.312 82.884 146.285 82.1608 146.225 81.4408C146.166 80.7201 146.076 80.002 145.943 79.2916C145.877 78.9368 145.799 78.5832 145.707 78.234C145.615 77.8849 145.508 77.5397 145.378 77.2027C145.247 76.8671 145.095 76.5371 144.893 76.2393C144.792 76.0913 144.678 75.951 144.541 75.8364C144.472 75.7793 144.398 75.7294 144.317 75.6929C144.237 75.6564 144.15 75.6327 144.062 75.6301C143.975 75.6275 143.886 75.6448 143.805 75.6788C143.723 75.7121 143.648 75.7608 143.58 75.8178C143.443 75.9318 143.332 76.0753 143.236 76.2265C143.14 76.3783 143.058 76.5391 142.985 76.7037C142.912 76.8683 142.848 77.0368 142.79 77.2078C142.674 77.5493 142.58 77.899 142.501 78.2513C142.421 78.6037 142.356 78.9592 142.301 79.3166C142.191 80.0309 142.118 80.7515 142.073 81.4728C142.027 82.1947 142.012 82.918 142.013 83.6412C142.011 84.3644 142.036 85.087 142.089 85.8083C142.143 86.5289 142.225 87.2483 142.349 87.96C142.411 88.3161 142.483 88.6697 142.57 89.0201C142.657 89.3705 142.758 89.7177 142.882 90.0559C143.007 90.3935 143.152 90.7253 143.349 91.0245C143.449 91.1725 143.561 91.3134 143.699 91.4249C143.767 91.4799 143.841 91.528 143.921 91.5607C144.002 91.5933 144.087 91.6119 144.174 91.6087C144.26 91.6068 144.345 91.5837 144.424 91.5472C144.503 91.5107 144.576 91.4601 144.642 91.4031C144.776 91.2878 144.886 91.1456 144.984 90.9957C145.178 90.6946 145.322 90.3615 145.445 90.0233C145.567 89.6844 145.667 89.3372 145.753 88.9862C145.839 88.6358 145.91 88.2809 145.971 87.9254C146.094 87.213 146.176 86.4943 146.23 85.773C146.286 85.0537 146.311 84.3304 146.311 83.6072Z" fill="#DAE3FE"/>
<path d="M144.156 91.8766C144.045 91.8766 143.93 91.8535 143.822 91.81C143.723 91.7703 143.627 91.7132 143.53 91.6364C143.386 91.5204 143.256 91.375 143.123 91.1784C142.937 90.9016 142.777 90.5769 142.618 90.1554C142.497 89.8344 142.39 89.4866 142.288 89.0914C142.201 88.7518 142.125 88.3989 142.054 88.012C141.93 87.3266 141.839 86.6142 141.774 85.8321C141.716 85.1217 141.684 84.3844 141.68 83.6407C141.678 83.2518 141.69 82.8681 141.702 82.544C141.716 82.175 141.735 81.8067 141.762 81.4492C141.821 80.6633 141.903 79.9496 142.017 79.2681C142.081 78.8799 142.152 78.5256 142.232 78.1855C142.326 77.7883 142.427 77.4392 142.54 77.1176C142.609 76.9235 142.677 76.7519 142.75 76.5937C142.839 76.4008 142.928 76.2349 143.024 76.0863C143.155 75.8871 143.282 75.7404 143.425 75.6238C143.52 75.5463 143.618 75.488 143.716 75.4496C143.83 75.4041 143.953 75.3823 144.072 75.3868C144.186 75.39 144.304 75.4169 144.417 75.4675C144.512 75.5098 144.604 75.5668 144.698 75.6424C144.84 75.7583 144.968 75.9012 145.102 76.0921C145.291 76.3656 145.457 76.6865 145.624 77.1023C145.752 77.4226 145.867 77.7678 145.975 78.1586C146.069 78.4994 146.151 78.8511 146.227 79.2341C146.493 80.5883 146.624 82.0181 146.629 83.6054V83.6061C146.626 85.2037 146.509 86.6341 146.269 87.9787C146.2 88.3649 146.124 88.7185 146.038 89.0587C145.938 89.4533 145.832 89.8011 145.713 90.1227C145.555 90.5455 145.397 90.8709 145.216 91.1476C145.084 91.3456 144.959 91.4922 144.819 91.6108C144.724 91.6895 144.632 91.7491 144.536 91.7933C144.418 91.8465 144.298 91.8747 144.18 91.8766C144.172 91.8766 144.163 91.8766 144.156 91.8766ZM144.045 75.841C143.992 75.841 143.938 75.8519 143.886 75.8736C143.83 75.8967 143.773 75.9326 143.715 75.98C143.611 76.0665 143.516 76.1805 143.414 76.3393C143.331 76.4694 143.254 76.6167 143.178 76.7884C143.113 76.9344 143.051 77.0939 142.989 77.2752C142.885 77.5808 142.792 77.9152 142.707 78.2963C142.632 78.6262 142.568 78.9702 142.509 79.3475C142.406 80.0163 142.332 80.7151 142.284 81.4845C142.242 82.1424 142.222 82.847 142.224 83.6387C142.222 84.3696 142.247 85.0935 142.299 85.7904C142.356 86.5553 142.44 87.2529 142.556 87.9217C142.621 88.2958 142.693 88.6378 142.774 88.9677C142.868 89.3463 142.967 89.6775 143.079 89.9811C143.222 90.3674 143.363 90.6614 143.525 90.9061C143.628 91.0611 143.726 91.1739 143.831 91.2591C143.888 91.3058 143.945 91.3411 144.001 91.3635C144.059 91.3872 144.113 91.3955 144.167 91.3968C144.222 91.3955 144.279 91.3814 144.336 91.3545C144.391 91.3289 144.448 91.2911 144.506 91.2418C144.609 91.1527 144.705 91.0381 144.808 90.8799C144.967 90.6339 145.106 90.3386 145.248 89.951C145.358 89.6467 145.457 89.3143 145.549 88.9363C145.629 88.6084 145.699 88.2663 145.765 87.8896C145.879 87.2266 145.963 86.529 146.021 85.7578C146.074 85.0621 146.101 84.3383 146.1 83.6061V83.6054C146.102 82.8758 146.073 82.1532 146.015 81.4563C145.952 80.6895 145.861 79.9938 145.737 79.3283C145.667 78.9574 145.591 78.6166 145.504 78.2854C145.405 77.9107 145.299 77.5801 145.182 77.2765C145.033 76.8941 144.886 76.6013 144.72 76.3554C144.613 76.1997 144.514 76.0857 144.407 75.9966C144.348 75.9473 144.289 75.9089 144.231 75.8826C144.171 75.8551 144.112 75.8403 144.058 75.8391C144.054 75.841 144.05 75.841 144.045 75.841Z" fill="#DAE3FE"/>
<path d="M150.064 83.6061C150.059 84.5407 149.939 85.4753 149.69 86.3766C149.436 87.2753 149.054 88.1408 148.535 88.9171C148.276 89.3047 147.982 89.6698 147.653 90.001C147.325 90.3322 146.962 90.6294 146.568 90.878C146.173 91.1259 145.747 91.3244 145.301 91.4596C144.855 91.5948 144.39 91.6652 143.924 91.6659C143.459 91.6659 142.993 91.596 142.547 91.4609C142.101 91.3264 141.675 91.1284 141.28 90.8805C140.885 90.632 140.521 90.3347 140.192 90.0042C139.863 89.673 139.569 89.3079 139.309 88.9203C138.789 88.144 138.407 87.2785 138.152 86.3792C138.026 85.9288 137.933 85.4689 137.871 85.0058C137.81 84.542 137.779 84.0744 137.777 83.6067C137.779 83.1391 137.81 82.6715 137.872 82.2077C137.934 81.7446 138.028 81.2846 138.154 80.8343C138.409 79.9349 138.792 79.0708 139.313 78.2944C139.573 77.9069 139.868 77.5424 140.196 77.2118C140.525 76.8813 140.889 76.5847 141.283 76.3368C141.677 76.0895 142.104 75.8929 142.549 75.7584C142.994 75.6232 143.459 75.5534 143.924 75.5527C144.39 75.5534 144.854 75.6245 145.299 75.7596C145.744 75.8942 146.17 76.0915 146.565 76.3387C146.959 76.5873 147.322 76.8839 147.65 77.2144C147.979 77.5449 148.273 77.9101 148.532 78.297C149.052 79.0727 149.434 79.9369 149.688 80.8356C149.938 81.7369 150.058 82.6715 150.064 83.6061ZM149.941 83.6061C149.94 82.6824 149.825 81.7574 149.583 80.8657C149.339 79.9753 148.971 79.1156 148.465 78.3425C148.212 77.9562 147.925 77.5923 147.603 77.2618C147.281 76.9313 146.926 76.6327 146.537 76.3842C146.147 76.1369 145.727 75.9384 145.286 75.8038C144.846 75.6693 144.386 75.5989 143.925 75.5969C143.465 75.5989 143.005 75.67 142.564 75.8051C142.123 75.9396 141.704 76.1389 141.314 76.3861C140.926 76.6347 140.571 76.9338 140.249 77.2644C139.929 77.5955 139.642 77.9594 139.389 78.3457C138.884 79.1188 138.517 79.9779 138.275 80.8676C138.154 81.3128 138.066 81.7676 138.007 82.225C137.947 82.6824 137.918 83.1442 137.917 83.6061C137.918 84.068 137.948 84.5292 138.008 84.9865C138.068 85.4439 138.155 85.8981 138.277 86.3433C138.521 87.2331 138.888 88.0914 139.394 88.864C139.646 89.2496 139.933 89.6135 140.254 89.944C140.576 90.2739 140.93 90.573 141.319 90.8209C141.707 91.0676 142.127 91.2655 142.567 91.4C143.007 91.5352 143.466 91.6063 143.926 91.6089C144.386 91.6069 144.845 91.5358 145.285 91.4013C145.725 91.2668 146.145 91.0695 146.535 90.8229C146.924 90.575 147.279 90.2764 147.601 89.9472C147.922 89.6166 148.21 89.2534 148.463 88.8678C148.97 88.0953 149.337 87.2363 149.583 86.3465C149.824 85.4542 149.94 84.5298 149.941 83.6061Z" fill="#DAE3FE"/>
<path d="M143.926 91.8769C143.441 91.8769 142.957 91.8051 142.488 91.6629C142.033 91.5265 141.589 91.3228 141.169 91.0589C140.772 90.8084 140.393 90.5035 140.045 90.1525C139.716 89.8213 139.41 89.4459 139.136 89.0372C138.62 88.2659 138.221 87.3909 137.95 86.4358C137.823 85.9804 137.727 85.5082 137.664 85.0323C137.602 84.5666 137.57 84.0868 137.568 83.6064C137.57 83.1234 137.603 82.6436 137.665 82.1785C137.729 81.7026 137.825 81.2311 137.952 80.7763C138.224 79.8205 138.623 78.9462 139.14 78.1755C139.413 77.7675 139.72 77.3927 140.049 77.0616C140.399 76.7105 140.777 76.4063 141.174 76.1564C141.591 75.8944 142.035 75.6927 142.491 75.5549C142.96 75.4134 143.443 75.341 143.927 75.3403C144.412 75.341 144.895 75.414 145.363 75.5562C145.819 75.6939 146.262 75.8964 146.679 76.1584C147.076 76.4082 147.453 76.7125 147.802 77.0641C148.132 77.3953 148.437 77.7701 148.71 78.1781C149.226 78.9487 149.624 79.8231 149.894 80.7769C150.142 81.6737 150.272 82.6244 150.278 83.6032V83.6057C150.272 84.5845 150.144 85.5352 149.896 86.4313C149.627 87.3864 149.229 88.2615 148.713 89.0327C148.44 89.4414 148.134 89.8168 147.806 90.148C147.457 90.499 147.08 90.8046 146.683 91.055C146.262 91.3189 145.819 91.5226 145.364 91.6597C144.894 91.8039 144.411 91.8762 143.926 91.8769ZM143.924 75.8086C143.487 75.8105 143.05 75.8771 142.625 76.0072C142.215 76.1327 141.812 76.3204 141.427 76.5651C141.071 76.7932 140.725 77.0782 140.4 77.4126C140.098 77.7246 139.816 78.0775 139.565 78.4625C139.091 79.1877 138.725 80.0159 138.477 80.9243C138.363 81.3445 138.275 81.7916 138.215 82.2528C138.157 82.6948 138.128 83.1509 138.126 83.607C138.128 84.0631 138.158 84.5186 138.215 84.9599C138.276 85.4205 138.364 85.8676 138.479 86.2885C138.727 87.1962 139.094 88.0238 139.568 88.7483C139.82 89.1326 140.1 89.485 140.403 89.7969C140.728 90.1307 141.074 90.4157 141.43 90.6431C141.812 90.8853 142.215 91.0717 142.627 91.1985C143.051 91.3286 143.487 91.3958 143.925 91.3984C144.361 91.3965 144.798 91.3298 145.222 91.1998C145.635 91.0736 146.038 90.8866 146.42 90.6451C146.776 90.4183 147.121 90.1339 147.448 89.8001C147.751 89.4888 148.032 89.1358 148.284 88.7521C148.759 88.0283 149.126 87.2 149.376 86.291C149.608 85.4403 149.727 84.5378 149.729 83.607C149.728 82.6769 149.609 81.7737 149.378 80.9223C149.129 80.0134 148.762 79.1845 148.287 78.46C148.036 78.0756 147.754 77.7227 147.451 77.4107C147.126 77.0776 146.78 76.7925 146.422 76.5638C146.038 76.3204 145.635 76.1327 145.223 76.0078C144.8 75.8765 144.362 75.8105 143.924 75.8086Z" fill="#DAE3FE"/>
<path d="M136.761 80.4178L138.605 80.4031L140.448 80.3947L144.136 80.3877L147.823 80.3954L149.666 80.4044L151.51 80.4204C151.513 80.4204 151.515 80.4229 151.515 80.4261C151.515 80.4261 151.512 80.4313 151.51 80.4313L149.666 80.4473L147.823 80.4562L144.136 80.4639L140.448 80.4569L138.605 80.4486L136.761 80.4338C136.757 80.4338 136.753 80.43 136.753 80.43C136.753 80.4216 136.757 80.4178 136.761 80.4178Z" fill="#DAE3FE"/>
<path d="M144.136 80.6754L138.604 80.6601L136.672 80.644L136.543 80.5153V80.4205L136.547 80.2142L136.759 80.2059L140.447 80.1822L144.136 80.1758L149.668 80.1924L151.721 80.2104L151.727 80.637L151.511 80.6421L147.824 80.6677L144.136 80.6754Z" fill="#DAE3FE"/>
<path d="M138.9 77.3177C139.337 77.3107 139.773 77.3081 140.209 77.303L141.518 77.2946C141.954 77.2908 142.39 77.2914 142.827 77.2902L144.136 77.2876L146.754 77.2953L148.063 77.3049C148.499 77.3107 148.935 77.3139 149.371 77.3209C149.374 77.3209 149.376 77.3235 149.376 77.3235C149.376 77.3292 149.374 77.3318 149.371 77.3318C148.935 77.3395 148.499 77.3427 148.063 77.3478L146.754 77.3568L144.136 77.3645L142.827 77.3619C142.391 77.3606 141.955 77.3613 141.518 77.3574L140.209 77.3491C139.773 77.344 139.337 77.3414 138.9 77.3344C138.896 77.3344 138.893 77.3305 138.893 77.326C138.892 77.3215 138.896 77.3177 138.9 77.3177Z" fill="#DAE3FE"/>
<path d="M144.137 77.5752L142.487 77.572C142.164 77.5713 141.84 77.5707 141.516 77.5681L139.771 77.5553C139.479 77.5521 139.188 77.5496 138.897 77.5451L138.689 77.5419L138.681 77.114L138.896 77.1063C139.178 77.1018 139.46 77.0992 139.743 77.096L141.516 77.0826C141.823 77.08 142.131 77.0794 142.438 77.0794L144.135 77.0762L148.54 77.0986C148.818 77.1018 149.096 77.1044 149.375 77.1095L149.59 77.1133L149.58 77.538L149.371 77.5431C149.084 77.5483 148.792 77.5515 148.501 77.554L146.754 77.5681L144.137 77.5752Z" fill="#DAE3FE"/>
<path d="M136.121 83.5179L138.124 83.5032L140.128 83.4948L144.135 83.4878L148.143 83.4955L150.147 83.5051L152.15 83.5211C152.154 83.5211 152.156 83.5237 152.156 83.5269C152.156 83.5269 152.153 83.532 152.15 83.532L150.147 83.548L148.143 83.557L144.135 83.5647L140.128 83.5576L138.124 83.5493L136.121 83.5346C136.116 83.5346 136.112 83.5307 136.113 83.5262C136.112 83.5211 136.116 83.5179 136.121 83.5179Z" fill="#DAE3FE"/>
<path d="M144.137 83.776L138.124 83.7606L135.911 83.744L135.902 83.3148L136.119 83.3065L140.128 83.2834L144.136 83.2764L150.149 83.293L152.242 83.3103L152.369 83.4397L152.361 83.7376L152.152 83.7434L148.145 83.769L144.137 83.776Z" fill="#DAE3FE"/>
<path d="M136.761 86.617L138.605 86.6023L140.448 86.594L144.136 86.5869L147.823 86.5946L149.666 86.6042L151.51 86.6202C151.513 86.6202 151.515 86.6228 151.515 86.6228C151.515 86.6285 151.512 86.6311 151.51 86.6311L149.666 86.6471L147.823 86.6561L144.136 86.6638L140.448 86.6567L138.605 86.6484L136.761 86.6337C136.757 86.6337 136.753 86.6298 136.753 86.6253C136.753 86.6202 136.757 86.617 136.761 86.617Z" fill="#DAE3FE"/>
<path d="M144.136 86.8755L138.604 86.8601L136.672 86.8447L136.543 86.716V86.6212L136.547 86.4143L136.759 86.4066L140.447 86.3829L144.136 86.3765L149.668 86.3931L151.721 86.4111L151.727 86.8377L151.511 86.8428L147.824 86.8684L144.136 86.8755Z" fill="#DAE3FE"/>
<path d="M149.636 89.7536H139.164C139.149 89.7536 139.136 89.7408 139.136 89.7255C139.136 89.7101 139.149 89.6973 139.164 89.6973H149.636C149.651 89.6973 149.664 89.7101 149.664 89.7255C149.664 89.7408 149.651 89.7536 149.636 89.7536Z" fill="#DAE3FE"/>
<path d="M149.636 89.965H139.165C139.033 89.965 138.926 89.8574 138.926 89.7254C138.926 89.5935 139.033 89.4858 139.165 89.4858H149.636C149.768 89.4858 149.875 89.5935 149.875 89.7254C149.875 89.8574 149.768 89.965 149.636 89.965Z" fill="#DAE3FE"/>
<path d="M115.011 57.0036C122.861 57.0036 129.225 50.6396 129.225 42.7892C129.225 34.9387 122.861 28.5747 115.011 28.5747C107.16 28.5747 100.796 34.9387 100.796 42.7892C100.796 50.6396 107.16 57.0036 115.011 57.0036Z" fill="url(#paint9_linear_6373_49143)"/>
<path d="M118.069 46.9975H109.79C109.565 46.9975 109.369 46.8425 109.318 46.6234C109.302 46.5581 109.28 46.4953 109.251 46.4383C109.248 46.4319 109.245 46.4248 109.241 46.4178C109.207 46.3416 109.17 46.2737 109.122 46.2045C108.84 45.7888 108.377 45.5415 107.881 45.5415C107.386 45.5415 106.919 45.7894 106.633 46.2045C106.586 46.2737 106.548 46.3409 106.514 46.4172C106.511 46.4242 106.507 46.4306 106.504 46.4377C106.475 46.4947 106.454 46.5568 106.438 46.6221C106.387 46.8419 106.191 46.9969 105.965 46.9969H105.552C105.124 46.9969 104.776 46.6484 104.776 46.2205V38.8731C104.776 38.4445 105.124 38.0967 105.552 38.0967H118.069C118.498 38.0967 118.846 38.4452 118.846 38.8731V46.2205C118.846 46.649 118.498 46.9975 118.069 46.9975ZM110.131 46.0264H117.874V39.0684H105.746V45.7907C105.773 45.7452 105.802 45.6997 105.833 45.6549C106.3 44.9759 107.066 44.571 107.881 44.571C108.699 44.571 109.464 44.9771 109.925 45.6574C110.002 45.7695 110.068 45.8874 110.125 46.0136C110.127 46.0181 110.129 46.0219 110.131 46.0264Z" fill="url(#paint10_linear_6373_49143)"/>
<path d="M124.172 46.9972H123.817C123.592 46.9972 123.397 46.8422 123.345 46.6224C123.329 46.5571 123.307 46.495 123.278 46.4373C123.275 46.4309 123.272 46.4239 123.268 46.4175C123.235 46.3412 123.197 46.2733 123.149 46.2048C122.864 45.7897 122.397 45.5418 121.901 45.5418C121.406 45.5418 120.94 45.7897 120.654 46.2048C120.606 46.274 120.568 46.3412 120.534 46.4175C120.531 46.4245 120.528 46.4309 120.525 46.4373C120.496 46.4943 120.474 46.5571 120.458 46.6218C120.407 46.8415 120.211 46.9965 119.986 46.9965H119.875C119.446 46.9965 119.098 46.6481 119.098 46.2195V40.4735C119.098 40.045 119.446 39.6971 119.875 39.6971H121.127C121.44 39.6837 122.888 39.6901 123.98 40.8585C125.057 42.0103 124.985 43.4317 124.948 43.7789V46.2202C124.949 46.6487 124.6 46.9972 124.172 46.9972ZM121.901 44.5707C122.716 44.5707 123.482 44.9755 123.949 45.6539C123.958 45.668 123.968 45.6821 123.978 45.6962V43.752C123.978 43.7328 123.979 43.7136 123.981 43.6944C124.006 43.4855 124.09 42.3978 123.271 41.5228C122.456 40.651 121.372 40.6587 121.162 40.6689C121.155 40.6695 121.146 40.6695 121.139 40.6695H120.069V45.3829C120.54 44.8692 121.202 44.5707 121.901 44.5707Z" fill="url(#paint11_linear_6373_49143)"/>
<path d="M107.881 48.9415C107.157 48.9415 106.568 48.3528 106.568 47.629C106.568 47.3183 106.681 47.0172 106.886 46.7802C107.128 46.4855 107.49 46.3164 107.88 46.3164C108.267 46.3164 108.627 46.4855 108.869 46.7802C109.074 47.0172 109.186 47.3176 109.186 47.629C109.188 48.3528 108.602 48.9415 107.881 48.9415ZM107.881 47.2882C107.779 47.2882 107.694 47.3266 107.636 47.3983C107.632 47.4041 107.627 47.4092 107.623 47.4144C107.585 47.4573 107.54 47.5297 107.54 47.629C107.54 47.8173 107.693 47.9697 107.882 47.9697C108.067 47.9697 108.217 47.8166 108.217 47.629C108.217 47.529 108.172 47.4573 108.134 47.4144C108.129 47.4092 108.125 47.4041 108.12 47.3983C108.063 47.3272 107.978 47.2882 107.881 47.2882Z" fill="url(#paint12_linear_6373_49143)"/>
<path d="M121.901 48.9415C121.178 48.9415 120.589 48.3528 120.589 47.629C120.589 47.3183 120.702 47.0172 120.907 46.7802C121.149 46.4855 121.511 46.3164 121.901 46.3164C122.292 46.3164 122.654 46.4855 122.896 46.7802C123.101 47.0172 123.213 47.3183 123.213 47.629C123.214 48.3528 122.625 48.9415 121.901 48.9415ZM121.901 47.2882C121.802 47.2882 121.713 47.3285 121.657 47.3983C121.652 47.4041 121.648 47.4092 121.643 47.4144C121.605 47.4573 121.561 47.529 121.561 47.629C121.561 47.8141 121.717 47.9697 121.902 47.9697C122.087 47.9697 122.243 47.8134 122.243 47.629C122.243 47.529 122.199 47.4573 122.161 47.4144C122.156 47.4092 122.152 47.4035 122.147 47.3983C122.09 47.3285 122.001 47.2882 121.901 47.2882Z" fill="url(#paint13_linear_6373_49143)"/>
<path d="M63.4944 53.8536C71.3112 53.8536 77.648 47.5168 77.648 39.7C77.648 31.8832 71.3112 25.5464 63.4944 25.5464C55.6776 25.5464 49.3408 31.8832 49.3408 39.7C49.3408 47.5168 55.6776 53.8536 63.4944 53.8536Z" fill="url(#paint14_linear_6373_49143)"/>
<path d="M62.8089 36.6833H67.4012C67.7471 36.6833 68.029 36.4014 68.029 36.0555V33.1844C68.029 32.8385 67.7471 32.5566 67.4012 32.5566H62.8089C62.463 32.5566 62.1812 32.8385 62.1812 33.1844V36.0561C62.1812 36.402 62.4624 36.6833 62.8089 36.6833ZM63.1196 35.7448V33.4951H67.0899V35.7448H63.1196Z" fill="url(#paint15_linear_6373_49143)"/>
<path d="M74.8 38.8226C74.6174 38.4966 74.2728 38.2948 73.9032 38.2948C73.9006 38.2948 73.8981 38.2948 73.8961 38.2948H71.3819V37.658C71.3819 37.3121 71.1 37.0303 70.7541 37.0303H66.1618C65.8159 37.0303 65.534 37.3121 65.534 37.658V40.319L65.1599 40.3216V37.658C65.1599 37.3121 64.8781 37.0303 64.5322 37.0303H59.9398C59.5939 37.0303 59.3121 37.3121 59.3121 37.658V40.3645L53.8672 40.4074C53.504 40.41 53.1734 40.6118 53.0043 40.9333C52.8345 41.2562 52.8557 41.645 53.0626 41.9506L55.2892 45.1906C55.7063 45.796 56.393 46.1572 57.1264 46.1572H69.8868C70.5357 46.1572 71.1295 45.8286 71.478 45.2739L74.7763 39.8738C74.9749 39.5542 74.9838 39.1512 74.8 38.8226ZM66.4725 40.312V37.9694H70.4428V38.2954H69.2052C68.6338 38.2954 68.0983 38.5773 67.7735 39.0494L66.9049 40.3088L66.4725 40.312ZM60.2505 37.9694H64.2208V40.3286L60.3402 40.3568L60.2512 40.3574V37.9694H60.2505ZM73.9762 39.3812L70.6792 44.7794C70.5068 45.0542 70.2103 45.2182 69.8861 45.2182H57.1258C56.7011 45.2182 56.3033 45.0087 56.0624 44.6583L53.8377 41.4214C53.8326 41.4138 53.821 41.3965 53.8345 41.3702C53.8473 41.3465 53.864 41.3465 53.8736 41.3459L60.3466 41.2952L65.256 41.2607L66.0068 41.2543L67.1566 41.2446C67.3097 41.2434 67.4526 41.1678 67.539 41.0416L68.5467 39.5811C68.6966 39.3633 68.9425 39.2332 69.2052 39.2332H73.8987H73.8993C73.9352 39.2332 73.9628 39.2492 73.9801 39.2806C73.9986 39.3139 73.998 39.3466 73.9762 39.3812Z" fill="url(#paint16_linear_6373_49143)"/>
<path d="M32.4833 94.4666C40.0645 94.4666 46.2103 88.3209 46.2103 80.7397C46.2103 73.1585 40.0645 67.0127 32.4833 67.0127C24.9021 67.0127 18.7563 73.1585 18.7563 80.7397C18.7563 88.3209 24.9021 94.4666 32.4833 94.4666Z" fill="url(#paint17_linear_6373_49143)"/>
<path d="M39.988 80.3321H29.5862C29.3101 80.3321 29.0859 80.1086 29.0859 79.8318C29.0859 79.5557 29.3095 79.3315 29.5862 79.3315H39.988C40.264 79.3315 40.4883 79.5551 40.4883 79.8318C40.4883 80.1079 40.264 80.3321 39.988 80.3321Z" fill="url(#paint18_linear_6373_49143)"/>
<path d="M32.844 87.0449C32.568 87.0449 32.3438 86.6766 32.3438 86.2218V77.3344C32.3438 76.8796 32.5673 76.5112 32.844 76.5112C33.1208 76.5112 33.3443 76.8796 33.3443 77.3344V86.2218C33.3443 86.6766 33.1208 87.0449 32.844 87.0449Z" fill="url(#paint19_linear_6373_49143)"/>
<path d="M36.6448 87.0449C36.3687 87.0449 36.1445 86.6766 36.1445 86.2218V77.3344C36.1445 76.8796 36.3681 76.5112 36.6448 76.5112C36.9216 76.5112 37.1451 76.8796 37.1451 77.3344V86.2218C37.1451 86.6766 36.9216 87.0449 36.6448 87.0449Z" fill="url(#paint20_linear_6373_49143)"/>
<path d="M39.6696 83.8321H29.6432C29.3358 83.8321 29.0859 83.6086 29.0859 83.3318C29.0859 83.0557 29.3351 82.8315 29.6432 82.8315H39.6696C39.9771 82.8315 40.2269 83.0551 40.2269 83.3318C40.2269 83.6086 39.9771 83.8321 39.6696 83.8321Z" fill="url(#paint21_linear_6373_49143)"/>
<path d="M40.2267 87.3509H29.2626C28.9058 87.3509 28.6162 87.0614 28.6162 86.7045V76.805C28.6162 76.4482 28.9051 76.1587 29.2626 76.1587H40.2267C40.5835 76.1587 40.8731 76.4482 40.8731 76.805V86.7045C40.8724 87.0614 40.5835 87.3509 40.2267 87.3509ZM29.9089 86.0588H39.581V77.452H29.9089V86.0588Z" fill="url(#paint22_linear_6373_49143)"/>
<path d="M29.2625 87.3505H24.5735C24.3916 87.3505 24.218 87.2737 24.095 87.1391C23.9726 87.0046 23.9124 86.824 23.9304 86.6427L25.1987 73.4314C25.2307 73.1002 25.5087 72.8472 25.8418 72.8472H28.1069C28.442 72.8472 28.7213 73.1034 28.7507 73.4371L29.9063 86.6484C29.9223 86.8291 29.8615 87.0078 29.7391 87.1411C29.6168 87.2743 29.4438 87.3505 29.2625 87.3505ZM25.2845 86.0585H28.5579L27.5157 74.1392H26.4293L25.2845 86.0585Z" fill="url(#paint23_linear_6373_49143)"/>
<path d="M123.578 186.085V162.214C123.578 159.077 126.098 156.525 129.235 156.491C138.647 156.389 158.059 156.384 173.943 157.723C176.111 157.905 177.796 159.681 177.875 161.856L179.359 184.934C179.469 187.987 177.056 190.538 174.002 190.595L129.045 191.45C126.042 191.506 123.578 189.088 123.578 186.085Z" fill="url(#paint24_linear_6373_49143)"/>
<path opacity="0.37" d="M149.272 176.818L155.733 177.515C156.637 177.613 157.409 176.867 157.342 175.96L155.93 156.739C153.221 156.653 150.55 156.59 147.971 156.546V175.369C147.971 176.114 148.532 176.739 149.272 176.818Z" fill="white"/>
<path d="M151.92 173.486C151.939 173.832 152.226 174.098 152.568 174.098C152.581 174.098 152.593 174.098 152.606 174.097C152.964 174.077 153.238 173.769 153.217 173.411L152.243 156.636C151.806 156.625 151.372 156.615 150.939 156.605L151.92 173.486Z" fill="white"/>
<path d="M131.124 154.04V137.276C131.124 135.073 132.893 133.281 135.096 133.257C141.706 133.185 155.339 133.181 166.493 134.121C168.015 134.249 169.2 135.497 169.255 137.023L170.297 153.231C170.374 155.375 168.679 157.166 166.535 157.206L134.963 157.806C132.854 157.847 131.124 156.148 131.124 154.04Z" fill="#40A865"/>
<path opacity="0.37" d="M149.168 147.53L153.706 148.019C154.341 148.088 154.882 147.564 154.836 146.927L153.843 133.428C151.941 133.368 150.065 133.324 148.254 133.293V146.512C148.254 147.035 148.648 147.474 149.168 147.53Z" fill="white"/>
<path d="M151.028 145.191C151.042 145.434 151.244 145.621 151.484 145.621C151.493 145.621 151.502 145.621 151.511 145.621C151.762 145.606 151.955 145.39 151.94 145.139L151.256 133.358C150.949 133.35 150.645 133.343 150.34 133.337L151.028 145.191Z" fill="white"/>
<path d="M122.675 118.44L120.264 115.56C119.612 114.781 119.394 113.734 119.658 112.753C120.323 110.285 120.692 107.776 120.779 105.272C120.815 104.256 121.33 103.317 122.184 102.763L125.337 100.716C126.666 99.8536 127.302 98.2432 126.919 96.7051L125.779 92.1141C125.396 90.5761 124.08 89.4499 122.502 89.3103L118.757 88.9785C117.744 88.8888 116.849 88.3007 116.341 87.4186C115.093 85.2471 113.591 83.2024 111.849 81.3331C111.157 80.5901 110.859 79.5626 111.07 78.569L111.852 74.8953C112.182 73.3458 111.492 71.7571 110.135 70.9397L106.081 68.5004C104.724 67.683 102.997 67.8176 101.782 68.8348L98.9017 71.2453C98.1228 71.8974 97.0754 72.1152 96.0947 71.8513C93.6272 71.1864 91.1174 70.8174 88.614 70.7303C87.5974 70.695 86.6583 70.1794 86.1049 69.3261L84.0582 66.1726C83.1954 64.8434 81.5843 64.2079 80.0469 64.5897L75.4559 65.7306C73.9179 66.113 72.7924 67.4287 72.6521 69.0071L72.3203 72.7519C72.2306 73.7653 71.6425 74.6602 70.7604 75.1676C68.5889 76.4161 66.5442 77.9176 64.6749 79.66C63.9319 80.3524 62.9044 80.6503 61.9108 80.4389L58.2371 79.6567C56.6876 79.3268 55.0989 80.0168 54.2822 81.3741L51.8429 85.4277C51.0255 86.7851 51.16 88.5121 52.1772 89.7267L54.5877 92.6067C55.2399 93.3856 55.4576 94.433 55.1937 95.4137C54.5288 97.8812 54.1598 100.391 54.0727 102.894C54.0375 103.911 53.5218 104.849 52.6686 105.404L49.515 107.45C48.1858 108.313 47.5503 109.924 47.9328 111.462L49.0736 116.053C49.4561 117.591 50.7718 118.716 52.3502 118.856L56.095 119.188C57.1084 119.278 58.0033 119.866 58.5106 120.748C59.7591 122.92 61.2607 124.964 63.003 126.833C63.6955 127.577 63.9934 128.604 63.782 129.598L62.9998 133.271C62.6699 134.822 63.3598 136.41 64.7172 137.227L68.7702 139.666C70.1275 140.484 71.8545 140.349 73.0697 139.332L75.9498 136.921C76.7287 136.269 77.7761 136.051 78.7568 136.315C81.2243 136.98 83.7341 137.349 86.2375 137.436C87.2541 137.472 88.1925 137.987 88.7466 138.84L90.7933 141.994C91.6561 143.323 93.2672 143.959 94.8046 143.577L99.3956 142.436C100.934 142.054 102.059 140.738 102.199 139.16L102.531 135.415C102.621 134.401 103.209 133.506 104.091 132.999C106.263 131.751 108.307 130.249 110.177 128.507C110.92 127.814 111.947 127.516 112.941 127.728L116.614 128.51C118.165 128.84 119.753 128.15 120.57 126.792L123.009 122.74C123.826 121.382 123.692 119.655 122.675 118.44ZM75.6795 128.981C61.9288 122.493 56.0412 106.087 62.529 92.3364C69.0168 78.5857 85.4227 72.6981 99.1733 79.1859C112.924 85.6737 118.812 102.08 112.324 115.83C105.836 129.581 89.4301 135.468 75.6795 128.981Z" fill="url(#paint25_linear_6373_49143)"/>
<path d="M71.017 96.4363C71.017 96.4363 82.8286 93.4729 95.3077 95.2602C98.8187 95.763 101.929 97.8058 103.824 100.804C107.238 106.207 112.065 115.835 111.044 125.877L105.685 127.201C105.685 127.201 101.982 115.285 97.8137 110.435C97.8137 110.435 92.8774 121.687 93.1272 127.866C93.1342 128.041 93.1451 128.212 93.1611 128.377C93.7274 134.423 69.4648 129.506 69.4648 129.506L71.017 96.4363Z" fill="#40A865"/>
<path d="M83.7864 86.3478L81.2715 94.3576C81.0376 95.1026 81.2702 95.9008 81.8544 96.3505C83.2002 97.3869 85.8606 99.0377 89.1109 98.9903C89.706 98.9813 90.2056 98.474 90.2473 97.8513L91.1409 84.4639L83.7864 86.3478Z" fill="url(#paint26_linear_6373_49143)"/>
<path d="M93.5237 77.5705C93.5237 77.5705 94.5006 83.8783 93.8856 86.8928C93.2707 89.9074 93.4039 92.0034 89.8116 91.6991C86.2192 91.3948 83.7747 88.9228 82.9843 85.5514C82.9843 85.5514 81.7262 80.3461 82.7677 78.6229C83.8093 76.9011 93.5237 77.5705 93.5237 77.5705Z" fill="url(#paint27_linear_6373_49143)"/>
<path d="M84.7169 83.733L85.1512 83.847C85.1512 83.847 84.3261 79.7063 86.0679 79.4751C87.8096 79.2432 94.3711 79.6096 96.2954 77.7526C98.1505 75.9628 97.7181 72.9072 96.1922 71.6831C96.0955 71.6056 95.9533 71.6235 95.8694 71.7145L95.6548 71.9476C95.5081 72.1072 95.2416 72.0072 95.2358 71.7907C95.2307 71.5851 94.9841 71.4755 94.8342 71.6171C94.2493 72.1699 92.8529 72.9521 89.7211 72.7183C85.2768 72.3871 82.0239 73.3659 81.1854 76.2773C81.1322 76.4618 80.9067 76.5118 80.7741 76.3734C80.5115 76.1005 80.0343 75.8795 79.2169 76.2664C77.7961 76.939 77.6052 79.6032 79.6076 82.3615C79.7031 82.4929 79.6518 82.6818 79.4981 82.7324C78.9562 82.9118 78.0786 83.4473 79.6147 84.872C81.1854 86.3293 82.2949 86.5067 82.7305 86.5093C82.8477 86.5099 82.9476 86.4292 82.9707 86.3146L83.4921 83.6767C83.519 83.5402 83.6555 83.455 83.79 83.4902L84.7169 83.733Z" fill="url(#paint28_linear_6373_49143)"/>
<path d="M84.6816 84.3029C84.6816 84.3029 84.6918 80.4402 82.8041 81.0276C80.9163 81.6156 82.5811 85.3003 83.8488 85.7781L84.6816 84.3029Z" fill="url(#paint29_linear_6373_49143)"/>
<path d="M71.0913 120.525C70.568 116.83 74.3941 111.399 75.9764 109.339C76.4293 108.749 76.6823 108.029 76.6887 107.285C76.7348 102.053 74.5376 98.6923 71.0177 96.4355C71.0177 96.4355 58.2413 111.32 61.4948 122.769C61.8458 124.005 62.3897 125.066 63.0796 125.978C63.5921 121.665 68.5783 120.724 71.0913 120.525Z" fill="#40A865"/>
<path d="M71.3296 119.097L70.8428 119.041C71.2553 115.418 74.4345 110.946 75.7823 109.19L76.1711 109.489C74.8477 111.211 71.7281 115.596 71.3296 119.097Z" fill="#00862D"/>
<path d="M71.1914 121.037C71.1466 120.871 71.1158 120.7 71.0908 120.525C68.5778 120.725 63.5922 121.666 63.0791 125.979C68.7809 133.52 84.4962 130.8 84.4962 130.8V127.865C84.4962 127.866 72.4271 125.624 71.1914 121.037Z" fill="url(#paint30_linear_6373_49143)"/>
<path d="M82.9854 129.99C82.9854 129.99 85.3055 124.515 89.3944 126.457C93.4832 128.399 93.1616 129.67 93.1616 129.67L82.9854 129.99Z" fill="url(#paint31_linear_6373_49143)"/>
<path d="M82.4638 131.124C82.4965 131.539 82.8494 131.854 83.2645 131.839L104.452 131.1C104.781 131.088 105.067 130.87 105.165 130.556L105.78 128.588C105.931 128.104 105.586 127.609 105.081 127.582L97.3547 127.171C97.2849 127.167 97.2144 127.173 97.1459 127.188L83.0704 130.305C82.6919 130.389 82.4337 130.738 82.4638 131.124Z" fill="url(#paint32_linear_6373_49143)"/>
<path d="M96.666 130.352L97.2489 127.636L105.185 128.014L104.663 130.269L96.666 130.352Z" fill="url(#paint33_linear_6373_49143)"/>
<path d="M92.5975 101.113C92.1484 104.783 90.1281 119.694 89.5496 123.955C89.4683 124.554 89.9442 125.081 90.5489 125.064L124.826 124.083C125.274 124.07 125.656 123.755 125.754 123.316L131.086 99.3037C131.227 98.6689 130.722 98.0757 130.073 98.1135L93.5135 100.255C93.0401 100.282 92.6551 100.643 92.5975 101.113Z" fill="url(#paint34_linear_6373_49143)"/>
<path d="M106.376 116.171L101.31 130.549L113.09 130.799L114.07 116.257C114.117 115.575 113.55 115.008 112.868 115.053L107.367 115.418C106.916 115.448 106.526 115.744 106.376 116.171Z" fill="url(#paint35_linear_6373_49143)"/>
<path d="M96.5335 130.755C96.4035 131.151 96.6981 131.558 97.1145 131.558H115.562C115.899 131.558 116.174 131.283 116.174 130.946V130.155C116.174 129.807 115.883 129.529 115.536 129.544L97.0882 130.335C96.8339 130.345 96.6129 130.513 96.5335 130.755Z" fill="url(#paint36_linear_6373_49143)"/>
<path d="M92.0798 116.282L91.8364 116.252L93.5205 102.97C93.6249 102.146 94.302 101.512 95.1309 101.462L126.724 99.5542L126.739 99.7989L95.1457 101.707C94.4346 101.749 93.853 102.293 93.7633 103.001L92.0798 116.282Z" fill="#BDD0FB"/>
<path d="M91.3638 120.03L91.0015 122.906L91.2449 122.937L91.6072 120.061L91.3638 120.03Z" fill="#BDD0FB"/>
<path d="M90.1593 88.3751C86.353 88.6627 84.1404 84.727 84.1187 84.6867L84.3736 84.5464C84.3947 84.5842 86.5195 88.3578 90.1375 88.0849L90.1593 88.3751Z" fill="url(#paint37_linear_6373_49143)"/>
<path d="M91.7106 88.229C91.7106 88.4545 91.528 88.6377 91.3019 88.6377H90.2129C89.9874 88.6377 89.8042 88.4551 89.8042 88.229C89.8042 88.0035 89.9868 87.8203 90.2129 87.8203H91.3019C91.528 87.8203 91.7106 88.0035 91.7106 88.229Z" fill="#3840F7"/>
<path d="M84.3802 80.3212C84.3802 80.3212 85.7466 73.314 89.7714 72.6529C89.7714 72.6529 88.6311 72.0789 87.4429 72.7016C86.2546 73.3242 83.2509 76.7347 83.3733 80.4942C84.1906 80.7882 84.3802 80.3212 84.3802 80.3212Z" fill="url(#paint38_linear_6373_49143)"/>
<path d="M83.6807 79.9901C81.5879 80.4148 81.8454 83.0611 81.8454 83.0611C81.6949 84.9815 82.2554 85.9334 82.9735 86.3869C83.4642 86.697 84.0817 86.7258 84.5999 86.4644C85.1181 86.2031 85.4608 85.6893 85.5038 85.1103C85.5422 84.5876 85.5864 84.0911 85.6255 83.9143C85.7196 83.4864 85.7734 79.5654 83.6807 79.9901Z" fill="url(#paint39_linear_6373_49143)"/>
<path d="M83.8729 80.6593C83.4386 80.5837 83.01 80.8143 82.8351 81.2191C81.5847 84.1165 83.1202 86.0011 83.8735 86.0401C84.6678 86.0818 84.6518 82.2594 84.4833 81.2794C84.4135 80.8687 84.1522 80.7073 83.8729 80.6593Z" fill="url(#paint40_linear_6373_49143)"/>
<defs>
<linearGradient id="paint0_linear_6373_49143" x1="200.877" y1="243.637" x2="42.5095" y2="46.9546" gradientUnits="userSpaceOnUse">
<stop stop-color="#DAE3FE"/>
<stop offset="1" stop-color="#E9EFFD"/>
</linearGradient>
<linearGradient id="paint1_linear_6373_49143" x1="22.5711" y1="50.9329" x2="31.5997" y2="50.9329" gradientUnits="userSpaceOnUse">
<stop stop-color="#DAE3FE"/>
<stop offset="1" stop-color="#E9EFFD"/>
</linearGradient>
<linearGradient id="paint2_linear_6373_49143" x1="15.929" y1="51.0089" x2="38.1278" y2="51.0089" gradientUnits="userSpaceOnUse">
<stop stop-color="#DAE3FE"/>
<stop offset="1" stop-color="#E9EFFD"/>
</linearGradient>
<linearGradient id="paint3_linear_6373_49143" x1="48.0062" y1="30.6285" x2="63.3214" y2="30.6285" gradientUnits="userSpaceOnUse">
<stop stop-color="#DAE3FE"/>
<stop offset="1" stop-color="#E9EFFD"/>
</linearGradient>
<linearGradient id="paint4_linear_6373_49143" x1="100.425" y1="149.724" x2="126.266" y2="103.639" gradientUnits="userSpaceOnUse">
<stop stop-color="#09005D"/>
<stop offset="1" stop-color="#1A0F91"/>
</linearGradient>
<linearGradient id="paint5_linear_6373_49143" x1="89.3379" y1="58.0572" x2="82.0162" y2="164.869" gradientUnits="userSpaceOnUse">
<stop stop-color="#09005D"/>
<stop offset="1" stop-color="#1A0F91"/>
</linearGradient>
<linearGradient id="paint6_linear_6373_49143" x1="4.76485" y1="148.063" x2="167.558" y2="148.063" gradientUnits="userSpaceOnUse">
<stop stop-color="#DAE3FE"/>
<stop offset="1" stop-color="#E9EFFD"/>
</linearGradient>
<linearGradient id="paint7_linear_6373_49143" x1="92.6358" y1="118.873" x2="91.7744" y2="138.685" gradientUnits="userSpaceOnUse">
<stop stop-color="#09005D"/>
<stop offset="1" stop-color="#1A0F91"/>
</linearGradient>
<linearGradient id="paint8_linear_6373_49143" x1="148.466" y1="67.9448" x2="134.684" y2="117.044" gradientUnits="userSpaceOnUse">
<stop stop-color="#4F52FF"/>
<stop offset="1" stop-color="#4042E2"/>
</linearGradient>
<linearGradient id="paint9_linear_6373_49143" x1="119.471" y1="27.1113" x2="105.258" y2="77.0718" gradientUnits="userSpaceOnUse">
<stop stop-color="#4F52FF"/>
<stop offset="1" stop-color="#4042E2"/>
</linearGradient>
<linearGradient id="paint10_linear_6373_49143" x1="104.776" y1="42.5473" x2="118.846" y2="42.5473" gradientUnits="userSpaceOnUse">
<stop stop-color="#DAE3FE"/>
<stop offset="1" stop-color="#E9EFFD"/>
</linearGradient>
<linearGradient id="paint11_linear_6373_49143" x1="119.099" y1="43.3463" x2="124.966" y2="43.3463" gradientUnits="userSpaceOnUse">
<stop stop-color="#DAE3FE"/>
<stop offset="1" stop-color="#E9EFFD"/>
</linearGradient>
<linearGradient id="paint12_linear_6373_49143" x1="106.569" y1="47.6292" x2="109.188" y2="47.6292" gradientUnits="userSpaceOnUse">
<stop stop-color="#DAE3FE"/>
<stop offset="1" stop-color="#E9EFFD"/>
</linearGradient>
<linearGradient id="paint13_linear_6373_49143" x1="120.589" y1="47.6292" x2="123.214" y2="47.6292" gradientUnits="userSpaceOnUse">
<stop stop-color="#DAE3FE"/>
<stop offset="1" stop-color="#E9EFFD"/>
</linearGradient>
<linearGradient id="paint14_linear_6373_49143" x1="59.5847" y1="55.68" x2="67.0137" y2="25.3177" gradientUnits="userSpaceOnUse">
<stop stop-color="#4F52FF"/>
<stop offset="1" stop-color="#4042E2"/>
</linearGradient>
<linearGradient id="paint15_linear_6373_49143" x1="62.1811" y1="34.62" x2="68.0289" y2="34.62" gradientUnits="userSpaceOnUse">
<stop stop-color="#DAE3FE"/>
<stop offset="1" stop-color="#E9EFFD"/>
</linearGradient>
<linearGradient id="paint16_linear_6373_49143" x1="52.8904" y1="41.5938" x2="74.9316" y2="41.5938" gradientUnits="userSpaceOnUse">
<stop stop-color="#DAE3FE"/>
<stop offset="1" stop-color="#E9EFFD"/>
</linearGradient>
<linearGradient id="paint17_linear_6373_49143" x1="35.0075" y1="69.1074" x2="25.1015" y2="114.761" gradientUnits="userSpaceOnUse">
<stop stop-color="#4F52FF"/>
<stop offset="1" stop-color="#4042E2"/>
</linearGradient>
<linearGradient id="paint18_linear_6373_49143" x1="29.0864" y1="79.8319" x2="40.4881" y2="79.8319" gradientUnits="userSpaceOnUse">
<stop stop-color="#DAE3FE"/>
<stop offset="1" stop-color="#E9EFFD"/>
</linearGradient>
<linearGradient id="paint19_linear_6373_49143" x1="32.3442" y1="81.7779" x2="33.3444" y2="81.7779" gradientUnits="userSpaceOnUse">
<stop stop-color="#DAE3FE"/>
<stop offset="1" stop-color="#E9EFFD"/>
</linearGradient>
<linearGradient id="paint20_linear_6373_49143" x1="36.145" y1="81.7779" x2="37.1452" y2="81.7779" gradientUnits="userSpaceOnUse">
<stop stop-color="#DAE3FE"/>
<stop offset="1" stop-color="#E9EFFD"/>
</linearGradient>
<linearGradient id="paint21_linear_6373_49143" x1="29.0864" y1="83.3323" x2="40.2267" y2="83.3323" gradientUnits="userSpaceOnUse">
<stop stop-color="#DAE3FE"/>
<stop offset="1" stop-color="#E9EFFD"/>
</linearGradient>
<linearGradient id="paint22_linear_6373_49143" x1="28.6166" y1="81.7551" x2="40.8726" y2="81.7551" gradientUnits="userSpaceOnUse">
<stop stop-color="#DAE3FE"/>
<stop offset="1" stop-color="#E9EFFD"/>
</linearGradient>
<linearGradient id="paint23_linear_6373_49143" x1="23.9275" y1="80.0987" x2="29.9086" y2="80.0987" gradientUnits="userSpaceOnUse">
<stop stop-color="#DAE3FE"/>
<stop offset="1" stop-color="#E9EFFD"/>
</linearGradient>
<linearGradient id="paint24_linear_6373_49143" x1="156.766" y1="148.623" x2="147.291" y2="193.415" gradientUnits="userSpaceOnUse">
<stop stop-color="#00862D"/>
<stop offset="1" stop-color="#00862D"/>
</linearGradient>
<linearGradient id="paint25_linear_6373_49143" x1="94.9949" y1="69.2995" x2="64.628" y2="208.858" gradientUnits="userSpaceOnUse">
<stop stop-color="#4F52FF"/>
<stop offset="1" stop-color="#4042E2"/>
</linearGradient>
<linearGradient id="paint26_linear_6373_49143" x1="81.754" y1="106.425" x2="87.5281" y2="90.79" gradientUnits="userSpaceOnUse">
<stop stop-color="#FEBBBA"/>
<stop offset="1" stop-color="#FF928E"/>
</linearGradient>
<linearGradient id="paint27_linear_6373_49143" x1="92.7309" y1="82.6888" x2="75.8123" y2="89.7665" gradientUnits="userSpaceOnUse">
<stop stop-color="#FEBBBA"/>
<stop offset="1" stop-color="#FF928E"/>
</linearGradient>
<linearGradient id="paint28_linear_6373_49143" x1="85.0697" y1="71.5804" x2="93.5107" y2="91.3544" gradientUnits="userSpaceOnUse">
<stop stop-color="#09005D"/>
<stop offset="1" stop-color="#1A0F91"/>
</linearGradient>
<linearGradient id="paint29_linear_6373_49143" x1="91.584" y1="79.9453" x2="74.6654" y2="87.023" gradientUnits="userSpaceOnUse">
<stop stop-color="#FEBBBA"/>
<stop offset="1" stop-color="#FF928E"/>
</linearGradient>
<linearGradient id="paint30_linear_6373_49143" x1="69.7477" y1="116.29" x2="79.0607" y2="140.798" gradientUnits="userSpaceOnUse">
<stop stop-color="#FEBBBA"/>
<stop offset="1" stop-color="#FF928E"/>
</linearGradient>
<linearGradient id="paint31_linear_6373_49143" x1="81.3022" y1="111.9" x2="90.6152" y2="136.407" gradientUnits="userSpaceOnUse">
<stop stop-color="#FEBBBA"/>
<stop offset="1" stop-color="#FF928E"/>
</linearGradient>
<linearGradient id="paint32_linear_6373_49143" x1="101.514" y1="120.797" x2="96.6944" y2="127.006" gradientUnits="userSpaceOnUse">
<stop stop-color="#09005D"/>
<stop offset="1" stop-color="#1A0F91"/>
</linearGradient>
<linearGradient id="paint33_linear_6373_49143" x1="105.115" y1="123.594" x2="100.296" y2="129.803" gradientUnits="userSpaceOnUse">
<stop stop-color="#09005D"/>
<stop offset="1" stop-color="#1A0F91"/>
</linearGradient>
<linearGradient id="paint34_linear_6373_49143" x1="114.421" y1="92.7885" x2="105.807" y2="124.66" gradientUnits="userSpaceOnUse">
<stop stop-color="#09005D"/>
<stop offset="1" stop-color="#1A0F91"/>
</linearGradient>
<linearGradient id="paint35_linear_6373_49143" x1="105.714" y1="111.158" x2="110.616" y2="141.303" gradientUnits="userSpaceOnUse">
<stop stop-color="#09005D"/>
<stop offset="1" stop-color="#1A0F91"/>
</linearGradient>
<linearGradient id="paint36_linear_6373_49143" x1="103.506" y1="128.694" x2="117.966" y2="138.17" gradientUnits="userSpaceOnUse">
<stop stop-color="#09005D"/>
<stop offset="1" stop-color="#1A0F91"/>
</linearGradient>
<linearGradient id="paint37_linear_6373_49143" x1="83.9733" y1="89.5743" x2="88.9586" y2="84.7816" gradientUnits="userSpaceOnUse">
<stop stop-color="#4F52FF"/>
<stop offset="1" stop-color="#4042E2"/>
</linearGradient>
<linearGradient id="paint38_linear_6373_49143" x1="88.9044" y1="70.689" x2="82.767" y2="83.5022" gradientUnits="userSpaceOnUse">
<stop stop-color="#4F52FF"/>
<stop offset="1" stop-color="#4042E2"/>
</linearGradient>
<linearGradient id="paint39_linear_6373_49143" x1="91.0171" y1="70.3288" x2="87.1408" y2="77.3275" gradientUnits="userSpaceOnUse">
<stop stop-color="#4F52FF"/>
<stop offset="1" stop-color="#4042E2"/>
</linearGradient>
<linearGradient id="paint40_linear_6373_49143" x1="90.0928" y1="75.969" x2="108.182" y2="55.2958" gradientUnits="userSpaceOnUse">
<stop stop-color="#4F52FF"/>
<stop offset="1" stop-color="#4042E2"/>
</linearGradient>
</defs>
</svg>
