<svg width="98" height="178" viewBox="0 0 98 178" fill="none" xmlns="http://www.w3.org/2000/svg">
<path d="M0.75 178V157C0.75 148.333 2.25 139.917 5.25 131.75C8.41667 123.417 12.3333 116.25 17 110.25C21.6667 104.25 26.6667 98.25 32 92.25C37.3333 86.25 42.3333 81 47 76.5C51.6667 71.8333 55.5 66.9167 58.5 61.75C61.6667 56.5833 63.25 51.75 63.25 47.25C63.25 43.0833 62.0833 39.5 59.75 36.5C57.4167 33.5 54 32 49.5 32C40 32 35 38.0833 34.5 50.25H2.5C3.16667 33.75 7.5 21.25 15.5 12.75C23.5 4.25 34.6667 -3.09944e-06 49 -3.09944e-06C64.5 -3.09944e-06 76.3333 4.58333 84.5 13.75C92.8333 22.75 97 33.3333 97 45.5C97 53.8333 94.9167 62.1667 90.75 70.5C86.5833 78.8333 81.5 86.3333 75.5 93C69.6667 99.6667 63.75 106.083 57.75 112.25C51.9167 118.25 46.9167 124.25 42.75 130.25C38.5833 136.25 36.5 141.667 36.5 146.5H97.75V178H0.75Z" fill="url(#paint0_linear_2863_4072)"/>
<defs>
<linearGradient id="paint0_linear_2863_4072" x1="50" y1="-46.5" x2="50" y2="240.416" gradientUnits="userSpaceOnUse">
<stop offset="0.0554251" stop-color="white"/>
<stop offset="0.690388" stop-color="#F5B41D"/>
</linearGradient>
</defs>
</svg>
