<svg width="98" height="178" viewBox="0 0 98 178" fill="none" xmlns="http://www.w3.org/2000/svg">
<path d="M67 66.5C76.3333 68 83.8333 73.0833 89.5 81.75C95.1667 90.4167 98 100.333 98 111.5V122.25C98 140.917 94.1667 154.917 86.5 164.25C79 173.417 66.6667 178 49.5 178C34.1667 178 22.4167 173.583 14.25 164.75C6.08333 155.917 1.58333 143.25 0.75 126.75H34.25C34.75 132.917 36.0833 137.5 38.25 140.5C40.5833 143.5 44.1667 145 49 145C54.8333 145 58.75 143.25 60.75 139.75C62.9167 136.083 64 130 64 121.5V112.75C64 104.75 62.5833 99.3333 59.75 96.5C56.9167 93.5 52.4167 92 46.25 92H29.75V70L53.5 30.75H6.75V-1.19209e-05H94.25V22.25L67 66.5Z" fill="url(#paint0_linear_2863_4073)"/>
<defs>
<linearGradient id="paint0_linear_2863_4073" x1="53" y1="-70" x2="53" y2="238.78" gradientUnits="userSpaceOnUse">
<stop offset="0.0554251" stop-color="white"/>
<stop offset="0.690388" stop-color="#F5B41D"/>
</linearGradient>
</defs>
</svg>
