<svg width="233" height="230" viewBox="0 0 233 230" fill="none" xmlns="http://www.w3.org/2000/svg">
<path d="M52.8363 28.6535C52.8013 29.2384 52.6188 29.8049 52.3058 30.3001C51.9927 30.7954 51.5594 31.2034 51.0461 31.486C51.482 32.2245 51.6879 33.0761 51.6376 33.9322C51.5874 34.7883 51.2833 35.61 50.7641 36.2925C50.256 36.9582 49.5779 37.4747 48.8011 37.7875C48.0243 38.1004 47.1776 38.1981 46.3499 38.0705C46.1292 38.6713 45.602 39.7135 45.0012 39.9097C44.9084 39.9581 44.8053 39.9833 44.7007 39.9833C44.5961 39.9833 44.4931 39.9581 44.4003 39.9097C44.5459 40.7704 44.952 41.5657 45.5637 42.1884C46.1754 42.8111 46.9634 43.2312 47.8213 43.392C50.6292 43.8948 53.2532 42.9751 53.2532 40.1182C53.9252 40.2537 54.6187 40.2417 55.2855 40.0829C55.9524 39.9242 56.5769 39.6224 57.1157 39.1985C57.4994 38.8841 57.8172 38.4969 58.0508 38.0592C58.2843 37.6215 58.4291 37.1419 58.4767 36.6481C58.5993 33.4846 56.4045 31.3879 55.0434 31.3879C56.0366 29.6345 55.399 28.114 53.8173 26.9614C53.4141 26.7113 52.963 26.5484 52.493 26.4832C52.7465 27.1777 52.8631 27.9147 52.8363 28.6535ZM28.3253 29.5609C28.3806 29.5609 28.4336 29.5389 28.4727 29.4998C28.5118 29.4607 28.5338 29.4077 28.5338 29.3524C28.5338 29.2972 28.5118 29.2441 28.4727 29.205C28.4336 29.1659 28.3806 29.144 28.3253 29.144L27.5773 29.0582C27.3444 29.0582 26.9643 29.0582 26.7435 28.9846C26.6008 27.185 26.6008 25.3768 26.7435 23.5772C26.7411 23.5259 26.7209 23.4771 26.6863 23.4392C26.6518 23.4012 26.6051 23.3765 26.5543 23.3692C26.5035 23.362 26.4518 23.3726 26.408 23.3994C26.3642 23.4262 26.3311 23.4674 26.3144 23.5159C25.7812 24.8811 25.543 26.3437 25.6155 27.8075C25.5963 28.3139 25.6416 28.8207 25.7504 29.3157C26.0446 30.0881 27.5283 29.7448 28.3253 29.5609ZM22.6359 22.4123C22.0473 22.5717 21.2503 23.148 21.5446 23.3687C21.9769 23.5672 22.4696 23.5892 22.9179 23.4301C23.3471 23.3197 24.0582 22.8905 24.046 22.6698C24.0337 22.4491 23.2122 22.2529 22.6359 22.4123ZM30.5814 23.2707C34.8975 24.1658 32.8989 22.5227 30.7776 22.2529C30.2259 22.1794 28.9384 22.2529 28.9629 22.5595C28.9874 22.866 30.2504 23.1971 30.5814 23.2707ZM31.5501 25.3306C31.5158 25.27 31.4697 25.2167 31.4147 25.174C31.3596 25.1312 31.2966 25.0998 31.2293 25.0816C31.1621 25.0633 31.0918 25.0586 31.0227 25.0677C30.9536 25.0767 30.887 25.0994 30.8267 25.1344C30.5201 25.3061 30.5324 25.49 30.606 26.4832C30.6157 26.623 30.6806 26.7533 30.7864 26.8453C30.8922 26.9372 31.0302 26.9834 31.17 26.9737C31.3098 26.9639 31.4401 26.899 31.5321 26.7932C31.624 26.6875 31.6702 26.5495 31.6605 26.4096C31.6789 26.0464 31.6417 25.6826 31.5501 25.3306ZM22.8689 26.005C22.8802 25.8652 22.8356 25.7265 22.7448 25.6196C22.654 25.5127 22.5244 25.4462 22.3845 25.4348C22.2447 25.4235 22.1061 25.4681 21.9991 25.5589C21.8922 25.6497 21.8257 25.7793 21.8144 25.9192C21.7911 26.2171 21.7911 26.5164 21.8144 26.8143C21.8241 26.9541 21.889 27.0843 21.9948 27.1763C22.1006 27.2683 22.2386 27.3145 22.3784 27.3047C22.5182 27.295 22.6485 27.2301 22.7404 27.1243C22.8324 27.0185 22.8786 26.8805 22.8689 26.7407C22.8934 26.4832 22.8566 26.1521 22.8689 26.005ZM27.1237 33.9873C27.1237 34.3797 28.6809 34.4778 29.4902 33.6685C30.091 33.0677 30.0542 32.1481 29.809 32.0868C29.5637 32.0255 29.7231 32.0868 28.8403 32.847C28.2885 33.3129 27.0991 33.6808 27.1237 33.9873Z" fill="url(#paint0_linear_5499_11767)"/>
<path d="M232.457 23.7972C232.137 23.6936 231.797 23.6608 231.463 23.7011C231.128 23.7413 230.807 23.8536 230.52 24.0302C230.754 23.4688 230.835 22.855 230.753 22.2522C230.532 21.259 229.085 20.8053 227.896 22.2522C227.822 21.4675 227.467 20.928 226.841 20.8176C225.284 20.5233 224.61 23.4906 224.266 25.0479C223.457 24.4471 222.133 23.4293 221.471 24.2263C221.283 24.4264 221.157 24.6759 221.107 24.9453C221.057 25.2148 221.086 25.4929 221.189 25.7468C221.666 26.58 222.344 27.28 223.163 27.7822C222.93 28.3217 221.937 29.7441 221.422 30.5779C221.005 30.4553 220.122 30.2223 219.938 30.5779C215.634 36.4389 203.998 50.0249 196.751 49.7428C185.556 49.3137 171.468 43.894 170.058 44.0902L168.083 39.7619C170.255 38.2748 171.886 36.1236 172.731 33.631C174.106 29.8266 174.73 25.7916 174.57 21.7495C174.579 20.4392 174.518 19.1294 174.386 17.8258C179.56 17.4824 182.969 11.3884 178.935 6.34885C178.546 5.74462 178.039 5.22482 177.445 4.82037C176.851 4.41593 176.182 4.13511 175.477 3.99462C174.646 3.95134 173.815 4.06362 173.025 4.32568C168.12 5.55185 168.047 2.44965 164.687 1.61586C163.151 1.35857 161.575 1.52387 160.126 2.09406C155.221 3.81069 156.177 6.54504 153.909 8.82571C152.683 10.0519 147.447 8.32298 145.326 11.8053C143.07 15.6187 143.278 23.6868 146.552 26.8503C147.279 27.5036 148.082 28.0675 148.943 28.5302C149.737 29.3423 150.667 30.0103 151.69 30.5043C152.646 32.4539 153.737 38.0575 154.142 40.1787L153.762 43.3668C151.147 43.7778 148.568 44.3928 146.049 45.206C141.922 46.542 137.918 48.2322 134.082 50.2578C127.093 53.9363 127.951 53.8628 127.706 53.4704C126.858 52.548 125.958 51.6759 125.008 50.8587C118.313 45.2183 111.054 40.4117 102.484 39.0016L101.478 33.3C104.176 31.0929 105.647 26.6419 105.696 23.4906C106.702 23.9075 107.499 23.1718 108.026 22.2645C108.173 21.9947 109.093 22.2645 109.804 20.6705C109.927 20.3382 109.927 19.9728 109.804 19.6405C110.05 19.4936 110.261 19.2946 110.421 19.0576C110.582 18.8205 110.689 18.5511 110.735 18.2683C110.78 17.9855 110.763 17.6961 110.685 17.4206C110.607 17.145 110.469 16.8899 110.282 16.6732C110.66 16.4584 110.983 16.1599 111.228 15.8007C111.472 15.4415 111.631 15.0311 111.692 14.6009C111.962 12.9947 111.594 11.5478 110.049 11.0451C110.049 10.6895 110.307 10.1009 110.307 9.9783C110.32 9.40733 110.218 8.83949 110.008 8.30863C109.797 7.77777 109.482 7.29475 109.08 6.88837C107.376 5.42923 106.836 5.55185 105.77 5.6622C105.77 4.9265 106.236 4.43604 105.463 3.43058C104.871 2.74701 104.082 2.26257 103.204 2.04318C102.327 1.82378 101.403 1.88008 100.559 2.20442L100.252 2.30251C100.06 1.82065 99.769 1.38475 99.3971 1.0234C99.0252 0.662042 98.5811 0.383407 98.0939 0.205768C96.5612 -0.37053 95.5067 0.377431 94.2192 1.05182C92.2942 -0.66481 88.6157 0.254814 86.6415 1.44419C85.7464 1.98371 85.6606 2.94012 85.305 3.38154C84.5431 3.326 83.7843 3.52433 83.147 3.94557C82.5829 4.30116 82.0557 4.81615 81.602 5.17174C81.3031 5.40368 81.0565 5.69618 80.8786 6.03005C80.499 6.65343 80.2799 7.3612 80.241 8.09001C79.9396 8.16219 79.6532 8.28669 79.3949 8.45786C78.4154 9.33488 77.7267 10.4898 77.4208 11.7685C77.287 12.476 77.355 13.2068 77.617 13.8775C77.617 13.9511 77.7396 14.0982 77.7764 14.1718C77.5311 14.5274 76.8935 14.8094 76.7709 15.7658C76.6483 16.7222 76.6851 18.5982 77.617 19.1623C78.0093 19.3953 78.8431 19.6405 79.1374 19.8244C79.091 20.3261 79.091 20.8309 79.1374 21.3326C79.4562 23.4048 81.5039 24.1528 83.6129 23.8462L84.1892 24.1405C84.4132 26.325 84.9931 28.458 85.9058 30.4553C86.5865 31.7745 87.612 32.8847 88.8732 33.6678L88.2846 38.8913C85.358 39.3189 82.4823 40.0419 79.7014 41.0493C71.2777 44.127 66.3608 48.1243 62.0079 55.0644C56.0119 50.0984 45.8593 42.6556 38.0118 42.7905C38.0622 42.2603 38.0622 41.7266 38.0118 41.1965C38.0118 40.8409 37.8156 39.7496 37.4846 39.5902C37.4846 38.9894 37.3865 38.364 37.3374 37.7877C40.1086 41.8831 45.7612 39.7128 45.1358 36.9172C45.8352 36.9635 46.5354 36.8393 47.1761 36.5552C47.8169 36.2711 48.379 35.8357 48.8143 35.2864C49.2369 34.6825 49.4636 33.9634 49.4636 33.2264C49.4636 32.4894 49.2369 31.7702 48.8143 31.1664C48.7128 31.0029 48.589 30.8544 48.4465 30.725C50.3593 30.2346 51.0214 29.3885 51.2667 28.1746C51.464 27.2459 51.3917 26.2801 51.0582 25.3912C51.2764 25.2834 51.482 25.1518 51.6713 24.9988C52.2333 24.4618 52.6147 23.7634 52.7626 23.0002C53.0554 20.3432 52.4789 17.6628 51.1195 15.3612C50.679 14.5937 49.9583 14.0267 49.1086 13.7794C48.9491 13.0494 48.8547 12.3067 48.8266 11.5601C48.6243 10.4007 48.1468 9.30673 47.4342 8.37009C46.7215 7.43345 45.7946 6.68144 44.7312 6.17719C43.7009 5.6941 42.5825 5.42704 41.4451 5.39245C40.9673 5.35282 40.4866 5.41552 40.035 5.57637C39.2533 4.63081 38.2268 3.91822 37.0677 3.51641C34.8181 3.0986 32.4933 3.48028 30.4954 4.59544C30.0908 4.86519 29.772 5.39245 29.4164 5.64994C28.5434 5.27506 27.597 5.10239 26.6478 5.14486C25.6987 5.18732 24.7715 5.44382 23.9354 5.89517C23.0479 6.28405 22.2483 6.84841 21.5845 7.55432C20.9207 8.26023 20.4066 9.09309 20.073 10.0028C19.558 11.229 19.0921 13.2399 19.8768 14.2944C19.9219 14.3528 19.9629 14.4143 19.9995 14.4783C19.5335 15.2999 18.4667 15.7045 18.1112 17.9852C17.9663 19.1292 18.0119 20.2893 18.246 21.4184C18.3113 21.6966 18.4671 21.9451 18.6891 22.1249C18.9111 22.3047 19.1866 22.4056 19.4722 22.4116C19.0921 26.0901 19.1534 30.9948 21.1643 34.1705C21.6649 34.9134 22.2491 35.5963 22.9055 36.206C23.5911 36.8777 24.4343 37.3668 25.3578 37.6283V39.8109C24.7447 40.1542 25.1739 42.1038 24.9164 43.2809C19.9381 42.9376 12.9735 44.0902 9.1111 47.2782C3.15194 52.232 0.724135 59.2211 0.0865291 66.9459C-0.784048 77.6013 4.99119 84.1981 13.9545 85.3384C14.5176 87.2038 15.1806 89.0375 15.9408 90.8316C12.1535 97.9332 9.38387 105.532 7.71328 113.405C6.48711 120.076 5.91081 130.645 5.80046 140.786C5.80046 145.617 5.80046 163.739 7.419 168.252C7.67649 168.963 8.78004 169.343 9.50348 169.551C11.5153 170.078 13.5651 170.447 15.6343 170.655C16.1493 181.421 17.682 222.411 17.682 222.473C15.5752 223.6 13.6356 225.016 11.919 226.678C11.6463 226.921 11.4417 227.231 11.3256 227.578C11.2095 227.924 11.1858 228.294 11.2569 228.653C11.3832 228.971 11.6202 229.233 11.9243 229.391C12.2284 229.549 12.5792 229.591 12.9122 229.511C14.9476 229.327 20.4286 227.684 22.9055 227.23C22.9668 227.757 23.0526 228.272 23.5676 228.456C24.4504 228.763 26.1916 228.922 26.8292 228.125C27.4668 227.328 27.0867 225.244 27.1725 224.349C27.2461 223.687 32.8374 185.111 34.7502 171.881H36.2829C38.6372 184.621 45.0745 221.05 45.0868 221.112C43.8121 222.08 42.6037 223.133 41.4696 224.263C40.5255 225.219 38.9437 226.936 39.569 228.113C40.1944 229.29 41.6658 228.689 42.9042 228.236C45.3565 227.377 49.035 225.722 50.9111 225.109C51.046 225.612 51.2054 226.114 51.7326 226.225C52.4642 226.335 53.2106 226.298 53.9274 226.114C54.9697 225.808 55.1536 225.158 55.1536 224.079C54.6999 218.647 54.6877 235.777 55.0555 171.636C56.4151 171.581 57.7623 171.354 59.0651 170.962C62.5351 169.257 62.2163 119.463 57.704 103.792C57.3975 102.713 55.4601 97.0851 54.0868 93.5905C54.1299 93.4717 54.1299 93.3415 54.0868 93.2227C53.6837 92.2072 53.2294 91.2127 52.7258 90.2431C53.0937 85.7308 53.486 77.025 53.8539 74.3888L56.907 76.4855C57.1573 77.4722 57.5108 78.4298 57.9615 79.3425C58.4639 80.6604 59.2705 81.841 60.3158 82.788C61.6365 84.0048 63.2085 84.9167 64.9205 85.4591C66.6324 86.0015 68.4427 86.1612 70.2232 85.927H72.2831C74.6619 100.052 73.9752 98.5687 74.3308 98.9243C65.294 130.069 62.3757 189.146 63.6019 219.089C63.6018 219.231 63.6493 219.369 63.7368 219.481C64.3621 220.278 68.2613 220.707 69.5488 220.928C67.1304 222.217 64.8288 223.715 62.67 225.403C61.5787 226.47 63.0133 228.469 64.3498 228.812C65.0855 229.008 75.0911 227.586 75.8513 227.475C75.9494 227.941 76.1701 228.395 76.636 228.481C77.9476 228.707 79.2785 228.801 80.6088 228.763C81.1483 228.763 81.835 228.64 81.9576 228.125C82.3672 226.085 82.6051 224.013 82.6688 221.933C83.5393 221.933 84.4099 221.933 84.6919 221.688C87.1443 219.236 98.0939 156.836 98.989 151.797C99.2933 150.106 99.3716 148.382 99.222 146.671C97.444 125.642 98.1062 134.299 97.8242 126.194C97.8358 126.146 97.8632 126.103 97.9022 126.073C97.9411 126.042 97.9892 126.025 98.0387 126.025C98.0883 126.025 98.1364 126.042 98.1753 126.073C98.2142 126.103 98.2417 126.146 98.2533 126.194C99.0748 135.832 99.5653 136.163 100.227 148.866C100.227 149.737 110.221 218.108 112.023 219.898C112.983 220.295 114.013 220.495 115.052 220.486C114.935 223.126 115.145 225.77 115.677 228.358C115.711 228.455 115.765 228.545 115.834 228.621C115.904 228.696 115.988 228.757 116.082 228.8C116.977 229.241 120.324 228.8 120.986 228.714C121.197 228.634 121.381 228.499 121.52 228.321C121.658 228.144 121.745 227.932 121.771 227.708C122.813 227.856 132.549 229.229 133.26 229.045C134.597 228.702 136.044 226.703 134.94 225.624C132.386 223.672 129.671 221.94 126.823 220.45C128.294 220.339 131.384 220.069 132.66 219.321C134.585 218.181 132.745 132.644 117.296 97.5633C117.578 97.1096 118.657 84.5169 118.706 83.9529C122.581 83.8218 126.337 82.5743 129.521 80.3602L134.425 78.5945C131.439 89.9745 129.198 101.537 127.718 113.209C127.436 115.514 126.014 126.967 127.546 128.683C127.705 128.861 127.923 128.975 128.159 129.002C128.858 129.063 131.654 129.309 134.634 129.493C134.634 164.671 138.091 183.554 143.67 220.597C143.688 220.712 143.746 220.817 143.833 220.893C143.921 220.969 144.033 221.012 144.149 221.014H144.467C144.699 222.722 145.072 224.407 145.583 226.053C146.356 227.61 158.335 227.574 160.027 227.034C160.323 226.883 160.557 226.634 160.691 226.331C160.825 226.027 160.85 225.687 160.763 225.366C160.273 223.184 155.859 222.706 153.774 221.136H154.498C154.611 221.139 154.721 221.103 154.81 221.034C154.9 220.964 154.963 220.866 154.988 220.756L164.368 173.806C164.478 174.493 171.075 221.627 171.075 221.627C171.096 221.75 171.161 221.862 171.258 221.941C171.355 222.02 171.477 222.061 171.603 222.056H172.571C172.744 223.784 173.022 225.5 173.405 227.193C173.424 227.271 173.46 227.344 173.511 227.405C173.562 227.467 173.626 227.516 173.699 227.549C174.925 228.125 185.703 228.775 187.481 227.807C187.804 227.631 188.05 227.342 188.17 226.995C188.291 226.647 188.277 226.268 188.131 225.931C187.824 225.077 187.274 224.331 186.549 223.785C185.066 222.963 182.479 222.779 181.093 222.056H181.78C181.897 222.049 182.009 222.005 182.099 221.93C182.19 221.855 182.254 221.753 182.282 221.639C182.282 221.639 185.851 208.531 187.947 178.38C189.173 160.797 189.517 142.821 189.382 125.434C190.951 125.557 193.624 125.679 194.949 125.618C195.317 125.618 195.672 125.618 195.832 125.262C197.254 122.43 196.175 94.2772 195.378 87.1777C195.304 86.491 193.551 74.8302 193.318 73.3097C197.401 73.1503 203.299 72.2798 206.646 69.8887C223.813 57.6271 227.086 36.6842 228.484 33.8763C228.619 33.582 228.288 33.4348 227.467 33.0302C227.938 31.6305 228.499 30.2626 229.146 28.9348C230.851 27.9907 232.825 26.9116 232.96 24.962C233.025 24.7397 233.01 24.5016 232.919 24.2889C232.827 24.0762 232.664 23.9022 232.457 23.7972ZM110.172 11.278C110.074 11.278 110.049 11.2045 110.049 11.0819C110.049 10.9592 110.282 11.278 110.172 11.278ZM155.307 57.8723C161.364 58.2524 164.969 58.3015 171.124 58.2647C171.517 60.6434 171.958 63.2429 172.436 66.0018C169.138 66.0018 157.955 66.1244 155.049 66.0754C155.184 63.3778 155.282 60.6189 155.307 57.8968V57.8723ZM153.701 83.536C160.837 83.9529 166.134 84.0632 175.612 83.867C176.25 87.3616 176.912 90.8929 177.5 93.9951C171.762 94.1668 158.519 94.3998 152.56 94.2281C152.793 92.2785 153.271 87.5455 153.701 83.5605V83.536ZM152.045 98.1764C161.389 98.7159 168.868 98.7404 178.371 98.4584C178.837 100.813 179.291 103.093 179.732 105.239C168.893 105.656 158.286 105.681 150.745 105.533C151.244 103.106 151.677 100.653 152.045 98.1764ZM174.815 79.4528C171.137 79.5264 157.649 79.6735 154.068 79.6245C154.387 76.1177 154.632 72.9419 154.816 70.0604C160.702 70.4282 164.699 70.5631 173.209 70.465C173.503 72.0836 174.582 78.104 174.815 79.4528ZM169.543 46.7142C169.69 48.7251 170.131 51.8396 170.438 53.8382C167.311 53.8382 157.747 53.9486 155.295 53.9118C155.27 51.3947 155.102 48.8811 154.792 46.3831C158.102 50.8341 167.041 50.221 169.543 46.7142ZM149.924 109.445C160.168 110.063 170.437 110.141 180.688 109.678C181.154 111.836 181.583 113.798 181.988 115.514C180.051 115.404 157.146 114.288 148.808 113.884C149.151 112.486 149.519 111.002 149.887 109.445H149.924ZM152.609 30.0506C152.18 29.1923 149.458 28.8245 149.2 26.6542C148.906 24.116 151.861 24.0302 152.879 25.1705C152.965 25.2563 153.566 26.0656 153.639 26.1637C154.277 27.022 154.865 27.0465 155.062 25.8204C155.344 23.5397 154.645 18.9784 157.305 19.4566C159.207 20.0529 161.161 20.4635 163.142 20.6827C166.906 21.0261 169.898 20.6827 172.326 17.9852C172.596 17.9239 173.491 17.8871 173.81 17.8625C173.921 19.1591 173.954 20.4612 173.908 21.7618C173.991 25.6978 173.308 29.6125 171.897 33.2877C169.947 37.9594 167.25 39.0875 167.25 39.0875C167.187 39.1114 167.13 39.1475 167.081 39.1939C167.033 39.2402 166.994 39.2957 166.968 39.3572C166.857 39.6392 166.82 39.3572 169.126 44.5194C169.616 48.9704 156.435 50.7851 154.73 43.7959L155.147 40.2278C155.196 39.9703 153.737 32.3436 152.572 30.0506H152.609ZM125.634 52.1216C129.511 55.9711 132.182 60.8668 133.322 66.2102C134.045 69.8887 133.739 72.9787 132.537 75.0999C131.75 76.4625 130.766 77.702 129.619 78.7784C128.415 80.0083 126.948 80.9476 125.327 81.525C121.923 82.7736 118.27 83.1939 114.672 82.7512C109.885 82.1462 105.16 81.133 100.546 79.7226C100.546 79.3547 100.473 78.9624 100.436 78.4964L104.666 76.9514C105.476 76.726 106.261 76.4179 107.008 76.0318C107.437 75.8111 107.474 75.1612 107.523 74.6095C107.732 72.5986 107.315 72.8683 107.928 72.3778C109.301 71.2988 113.078 70.2443 114.721 69.7784C115.272 69.6312 116.069 69.5086 115.824 68.9814C115.746 68.2282 115.438 67.5174 114.941 66.9459C112.354 55.984 112.796 56.0208 112.379 56.0944C112.35 56.097 112.323 56.1058 112.298 56.1201C112.274 56.1344 112.252 56.1539 112.236 56.1772C112.22 56.2006 112.209 56.2272 112.204 56.2552C112.199 56.2833 112.2 56.3121 112.207 56.3396C112.759 59.6012 113.58 63.8192 114.169 66.6639L112.648 66.4432C112.391 66.4432 112.134 66.4432 112.072 66.3206C111.582 65.3029 111.79 64.1012 110.613 63.5127C110.491 63.4301 110.352 63.3743 110.206 63.3487C110.061 63.3231 109.912 63.3284 109.768 63.3643C109.625 63.4001 109.491 63.4657 109.374 63.5567C109.258 63.6478 109.162 63.7623 109.093 63.8928C108.455 65.1189 109.227 67.8656 109.093 67.8288C108.44 68.0964 107.756 68.2817 107.057 68.3805C107.029 68.2682 106.979 68.1627 106.909 68.07C106.84 67.9774 106.752 67.8995 106.653 67.841C104.165 66.6252 101.576 65.6283 98.9154 64.8615C98.3391 60.0304 97.5789 53.9486 97.3092 51.9132C97.4033 51.8694 97.4901 51.8115 97.5667 51.7415C97.9993 50.888 98.3168 49.9809 98.5108 49.0439C98.7193 49.2769 98.8909 49.4976 99.271 49.3505C102.598 46.933 105.741 44.2731 108.676 41.3927C114.896 43.96 120.631 47.572 125.634 52.0726V52.1216ZM110.11 64.4936C110.993 64.9963 110.515 66.4923 111.508 67.2402C112.503 67.532 113.537 67.6725 114.574 67.6571C114.817 68.0615 114.971 68.5128 115.027 68.9814C114.071 69.2757 109.424 70.3056 107.486 71.6422C107.447 70.7167 107.344 69.7949 107.18 68.8833C108.185 68.7974 109.448 68.8833 109.816 68.2334C110.184 67.5835 109.559 64.1625 110.11 64.4936ZM107.744 41.1965C105.549 43.097 100.632 47.1679 99.1607 48.2469C98.425 47.4254 96.4999 45.1447 95.9604 44.3109C97.1866 43.2564 101.723 40.191 102.385 39.8232C104.217 40.0407 106.016 40.4771 107.744 41.1229V41.1965ZM88.4317 39.7373L94.4154 44.3477C93.5081 45.3164 91.2887 47.2415 90.2955 48.2469C88.8977 47.2415 85.0843 43.2074 82.9385 40.9758C84.7402 40.4421 86.5753 40.0284 88.4317 39.7373ZM85.0966 23.5029C84.9249 23.2577 84.9004 23.3312 83.6497 22.6691C82.8282 21.9947 81.835 21.4429 81.4671 20.4375C81.4671 19.6037 81.7246 18.5737 82.5952 18.6228C83.2534 18.7744 83.8641 19.0861 84.3731 19.5301C84.9296 19.7127 85.528 19.725 86.0915 19.5656C86.6551 19.4061 87.1583 19.0821 87.5366 18.635C87.9615 17.8698 88.0882 16.9744 87.8922 16.1214C88.699 16.0492 89.4463 15.6668 89.9767 15.0546C90.2384 14.5254 90.3965 13.9511 90.4426 13.3625C91.5894 13.6884 92.8146 13.5971 93.9004 13.105C94.6426 12.7852 95.32 12.3323 95.8991 11.7685C96.0274 12.0911 96.1963 12.396 96.4018 12.6759C96.5925 12.9674 96.8583 13.2022 97.1712 13.3554C97.4841 13.5086 97.8325 13.5746 98.1797 13.5464C98.6126 13.4778 99.0286 13.328 99.4059 13.105V13.5955C99.3994 13.9716 99.4754 14.3445 99.6286 14.6881C99.7817 15.0316 100.008 15.3375 100.292 15.5841C100.576 15.8307 100.911 16.0121 101.272 16.1155C101.634 16.2189 102.014 16.2419 102.385 16.1827C102.378 16.2643 102.378 16.3464 102.385 16.4279C102.508 17.0901 102.251 19.0887 103.17 19.3217C104.09 19.5547 103.587 17.2617 105.353 16.9797C105.67 16.9023 106.004 16.9384 106.298 17.0817C106.591 17.2251 106.825 17.4666 106.959 17.7645C107.302 18.868 106.959 19.3585 106.383 20.4498L106.003 20.8789C105.414 21.5165 104.777 22.1909 104.777 22.804C104.813 24.6795 104.458 26.5421 103.734 28.2727C103.111 30.0269 102.017 31.5754 100.571 32.7482C100.499 32.8035 100.443 32.8769 100.408 32.9609C100.374 33.0449 100.362 33.1365 100.375 33.2264L101.38 39.1243L95.0285 43.4404C93.9127 42.582 95.3964 43.8572 89.29 39.1365L89.9522 33.4348C89.9635 33.3302 89.944 33.2246 89.8961 33.1309C89.8482 33.0372 89.7739 32.9596 89.6824 32.9076C85.2805 30.443 85.6238 24.349 85.0966 23.5029ZM70.873 46.6774C74.2277 44.275 77.9565 42.4438 81.9085 41.2578C84.1533 43.8406 86.5398 46.2968 89.0571 48.6148C89.5966 49.0807 90.2832 49.657 90.7614 49.1665C90.9331 48.9704 91.1906 48.7129 91.4849 48.4186C91.7908 49.4826 92.151 50.5303 92.5639 51.5576C92.6128 51.6484 92.6791 51.7288 92.759 51.794C92.839 51.8592 92.931 51.9081 93.0299 51.9377C92.895 53.5194 92.5639 58.0685 92.1838 63.108C88.2936 62.2731 84.3156 61.9189 80.339 62.0535C80.339 61.7347 80.7314 57.9581 80.7437 57.8355C80.7437 57.1734 80.7437 56.3028 80.8173 55.9595C80.8319 55.9058 80.8246 55.8486 80.797 55.8003C80.7694 55.752 80.7238 55.7166 80.6701 55.702C80.6165 55.6874 80.5592 55.6946 80.5109 55.7222C80.4626 55.7498 80.4273 55.7955 80.4126 55.8491C79.3213 58.0685 79.5175 59.638 79.6647 62.0903C76.922 62.2259 74.2337 62.9053 71.7559 64.089C71.7055 64.115 71.6675 64.16 71.6502 64.214C71.633 64.268 71.6379 64.3267 71.6639 64.3771C71.6899 64.4275 71.7349 64.4655 71.7889 64.4828C71.843 64.5 71.9017 64.4951 71.9521 64.4691C80.5352 60.2756 96.1075 64.2484 104.384 67.8165C104.962 68.0531 105.523 68.3276 106.064 68.638C106.442 70.5715 106.557 72.5471 106.407 74.5114C106.407 75.0631 106.407 75.198 105.426 75.5781C104.727 75.8602 103.894 76.0563 103.379 76.2525C101.699 76.8779 100.08 77.4787 98.474 78.0918C89.4066 81.002 80.1415 83.2558 70.7504 84.8357C67.6973 84.8357 63.6755 84.2717 61.4316 82.1627C51.7203 73.0768 61.873 52.8573 70.873 46.6774ZM24.9164 36.2918C23.7768 35.6346 22.8035 34.7242 22.0717 33.631C20.1589 30.6637 20.1343 25.8081 20.4531 22.3013C22.1662 21.7681 23.7234 20.8254 24.9899 19.5547C26.3608 18.1538 27.5587 16.5936 28.5581 14.9075L29.2447 13.5832C30.4878 16.7628 32.6152 19.52 35.3756 21.5288C36.3353 21.9681 37.3736 22.21 38.4287 22.24C38.4047 23.2016 38.5077 24.1622 38.7353 25.0969C38.7597 25.1464 38.7941 25.1904 38.8362 25.2261C38.8783 25.2619 38.9273 25.2886 38.9802 25.3047C39.033 25.3208 39.0886 25.3259 39.1435 25.3197C39.1983 25.3134 39.2514 25.2961 39.2993 25.2686C39.8388 24.9743 40.0473 23.3926 40.881 22.3013C41.1018 21.9947 41.3592 21.7618 41.6781 21.8353C42.0143 21.8868 42.3336 22.0171 42.6099 22.2154C43.8361 23.1228 42.8552 26.7522 40.5622 27.8803C39.8756 28.2236 36.2952 32.3926 36.0622 33.7046C35.9088 34.4253 35.9469 35.1735 36.1726 35.8749C36.2461 36.9417 36.3688 38.3272 36.4546 39.5534C34.1862 39.5534 28.6562 39.5534 26.3878 39.6638C26.4981 36.6351 26.5594 36.9539 24.9164 36.2918ZM47.8211 170.912H38.5636C39.9737 153.452 41.6903 110.634 41.3225 95.4665C42.9574 95.393 44.4287 95.2949 45.7367 95.1723C48.5323 109.629 50.0895 156.775 47.8211 170.912ZM17.167 169.797C15.8428 155.169 17.167 107.691 20.6738 95.0006C21.2869 95.0864 25.6766 95.4788 25.6766 95.4788C23.8128 110.463 21.9 153.464 22.5621 170.275C20.5757 170.128 18.761 169.944 17.0934 169.797H17.167ZM30.7284 94.5837L26.118 94.3998C26.1073 93.0783 26.2016 91.7581 26.4 90.4515L28.0554 90.3289L31.6358 90.2431C31.4594 91.7135 31.1558 93.1658 30.7284 94.5837ZM16.5294 90.5496L25.4068 90.378C25.1582 91.7285 25.0433 93.1003 25.0635 94.4733C21.7323 94.4464 18.4111 94.1057 15.1438 93.4556C16.0512 91.4692 16.4313 90.7949 16.5294 90.5496ZM26.5226 170.496C26.118 155.193 28.6071 108.378 30.2011 95.5401C31.881 95.5401 33.1317 95.6259 36.614 95.5401C36.614 101.352 34.8728 163.592 34.4682 170.765C32.3715 170.765 27.0622 170.532 26.5226 170.496ZM31.6725 94.596C31.9734 93.1647 32.1214 91.7056 32.114 90.2431C40.1699 90.0959 48.0541 89.8998 51.61 90.378C52.0944 91.2323 52.5046 92.1265 52.8362 93.051C45.9083 94.5347 38.1344 94.596 31.6725 94.596ZM8.58385 168.105C6.46259 166.756 5.77594 128.696 8.37541 113.516C9.69753 106.721 11.8943 100.127 14.9109 93.8971L16.1983 94.1668C12.7651 106.563 11.3918 151.613 13.0961 169.22C11.5478 169.058 10.0293 168.683 8.58385 168.105ZM26.3265 223.282C22.9177 223.748 21.0785 224.018 19.742 224.312C18.975 224.384 18.2081 224.175 17.5839 223.723C18.5894 223.123 18.8101 223.208 18.8101 222.632C18.9204 220.253 16.4926 175.425 16.1983 170.68C21.7896 171.317 28.7788 171.66 34.3701 171.82C32.4696 183.517 27.197 217.286 26.2897 223.319L26.3265 223.282ZM53.768 220.756C50.6536 221.627 48.704 222.191 47.392 222.681C46.6412 222.859 45.8511 222.754 45.1726 222.387C46.0555 221.688 46.2394 221.737 46.1903 221.161C45.9696 218.708 37.3252 174.358 36.8347 171.893C43.7748 172.041 50.3225 171.967 54.5773 171.673C54.2953 185.443 53.8048 215.14 53.7313 220.793L53.768 220.756ZM56.8825 104.013C60.9779 118.518 61.3948 162.869 58.6359 169.993C57.6059 170.508 52.9833 170.704 51.8552 170.753C54.3076 155.487 53.0814 109.445 50.2735 94.5714C51.4261 94.3875 52.456 94.1913 53.4125 93.9829C54.7735 97.6982 56.5637 103.044 56.8457 104.05L56.8825 104.013ZM48.2258 68.1721C47.6985 67.6939 47.1835 67.2647 46.7421 66.7988C46.708 66.7549 46.6578 66.7264 46.6026 66.7195C46.5474 66.7126 46.4917 66.7279 46.4478 66.762C46.4039 66.7962 46.3754 66.8463 46.3685 66.9015C46.3616 66.9567 46.3769 67.0124 46.411 67.0563C48.5078 70.4896 51.4138 72.1449 52.971 73.555C52.5787 75.0509 52.174 84.0142 51.7449 89.3235C48.5078 88.5755 31.599 89.4583 25.9218 89.4583C25.7925 89.4602 25.6691 89.5131 25.5785 89.6055C21.1153 89.8139 17.5962 90.0224 16.6152 90.0837C16.0267 88.7104 15.291 86.491 14.8373 85.0809C16.8257 85.438 18.8632 85.4213 20.8455 85.0319C20.8796 85.7773 21.0413 86.5114 21.3237 87.2022C21.9368 87.7417 42.3402 86.2826 42.9901 86.1477C43.4315 86.0496 43.4437 85.4365 43.4805 84.9215C43.5909 83.6954 43.6644 80.9978 43.7135 77.8343C43.9033 77.7586 44.0743 77.6426 44.2148 77.4942C44.3553 77.3459 44.4619 77.1688 44.5272 76.9753C44.5925 76.7817 44.615 76.5762 44.593 76.3731C44.5711 76.17 44.5053 75.974 44.4001 75.7989C44.5436 75.6162 44.6482 75.4062 44.7075 75.1817C44.7668 74.9572 44.7797 74.723 44.7452 74.4933C44.7108 74.2637 44.6298 74.0435 44.5072 73.8463C44.3846 73.6491 44.223 73.479 44.0323 73.3465C44.1908 73.192 44.3114 73.0029 44.3847 72.7939C44.4579 72.585 44.4818 72.362 44.4545 72.1423C44.4272 71.9226 44.3494 71.7122 44.2272 71.5276C44.105 71.343 43.9418 71.1891 43.7503 71.0781C43.7503 66.6517 43.7503 62.3356 43.5909 59.92C43.5173 57.9336 43.456 57.7129 43.1494 57.4677C42.5486 57.0998 39.9614 57.247 38.7966 57.296C38.8127 56.776 38.6717 56.2632 38.3919 55.8246C37.8279 55.2728 35.3388 55.8246 33.8919 55.8246C33.5731 54.8069 33.4137 54.0467 32.2856 53.5194C31.7303 53.3233 31.122 53.3401 30.5784 53.5666C30.0348 53.7931 29.5946 54.2132 29.3428 54.7456C29.3428 54.8682 28.9872 55.8737 28.9137 56.2047C27.5979 56.3043 26.2883 56.4721 24.9899 56.7075C24.524 56.8546 24.4872 57.8355 24.475 58.5222C19.8033 59.0126 19.4967 59.0126 19.4109 59.4908C19.3251 59.9691 19.6684 67.7675 19.6929 68.4173C18.5464 68.5629 17.4115 68.7882 16.2964 69.0917C16.5284 67.5689 16.6677 66.0333 16.7133 64.4936C16.7133 63.8192 16.7746 60.9377 16.37 60.9255C15.9654 60.9132 15.7201 63.7456 15.6834 64.3097C15.6098 65.168 15.4994 68.3683 15.5607 69.3247C15.0457 69.4841 14.5553 69.6558 14.0525 69.8519C14.0005 69.8715 13.9584 69.9108 13.9354 69.9614C13.9124 70.012 13.9104 70.0697 13.9299 70.1217C13.9494 70.1737 13.9888 70.2159 14.0394 70.2389C14.09 70.2619 14.1477 70.2638 14.1997 70.2443C21.1275 67.8533 30.5077 69.1898 35.6453 71.7648L35.8783 76.9269C31.4396 80.0291 24.3769 83.867 18.9817 84.5537C17.3906 84.7376 15.7819 84.7046 14.1997 84.4556C4.90536 83.2539 0.111052 76.5959 0.785443 67.0318C1.31269 59.5889 3.67919 52.3914 9.39312 47.6216C13.0716 44.5684 20.0975 43.5262 24.8796 43.9431C26.1058 44.0412 25.4436 41.3927 25.7624 40.4362C26.2284 40.3627 27.712 40.3382 28.2148 40.3259C28.1539 41.1709 28.1539 42.0191 28.2148 42.8641C28.2148 43.2196 28.4723 44.5562 28.7911 44.4581C29.1099 44.36 29.2325 43.3177 29.2447 43.0235C29.257 42.7292 29.2447 42.6924 29.1344 40.3259H33.2175C33.1682 41.1426 33.1682 41.9615 33.2175 42.7782C33.2175 43.1338 33.475 44.4703 33.7938 44.3722C34.1126 44.2741 34.2352 43.2319 34.2475 42.9376C34.2598 42.6433 34.2475 42.0303 34.1371 40.3504H37.129C37.2517 40.7479 37.3177 41.1607 37.3252 41.5766C37.3252 42.9989 37.0799 43.2074 37.3252 43.4894C37.9873 44.2374 43.9955 41.27 61.5664 55.8982C58.2926 61.4159 55.7054 68.638 56.6618 75.0018C53.8048 73.0768 54.3566 73.6776 48.2258 68.1721ZM20.5758 68.2825C20.4531 64.1748 20.355 60.4227 20.355 59.9691C21.3237 59.8219 23.5185 59.6012 24.4872 59.5031C24.4872 61.3056 24.5608 61.4282 25.7134 61.5508C27.9082 61.8083 37.5827 61.5508 38.6004 60.6802C38.6927 60.6055 38.7644 60.5084 38.8088 60.3982C38.8866 59.7226 38.903 59.0413 38.8579 58.3628C40.0545 58.2952 41.2539 58.2952 42.4505 58.3628C42.6835 60.5454 42.708 68.6013 42.708 70.7961C42.2476 70.8002 41.7898 70.8662 41.347 70.9923C41.5187 69.9868 41.7761 68.356 40.7584 68.1353C40.486 68.0574 40.1967 68.0612 39.9264 68.1462C39.6561 68.2312 39.4168 68.3937 39.238 68.6135C38.7069 69.4325 38.3946 70.3739 38.3306 71.3479C37.7692 71.3497 37.2082 71.317 36.6508 71.2498C36.6318 71.1834 36.5991 71.1219 36.5547 71.069C36.5104 71.0162 36.4553 70.9734 36.3933 70.9432C31.455 68.6547 25.9885 67.7478 20.5758 68.3192V68.2825ZM43.6277 75.0632C43.1495 75.3452 42.8429 75.149 41.9846 75.2593C41.8513 75.2593 41.7234 75.3123 41.6291 75.4066C41.5348 75.5009 41.4819 75.6287 41.4819 75.7621C41.4819 75.8954 41.5348 76.0233 41.6291 76.1175C41.7234 76.2118 41.8513 76.2648 41.9846 76.2648C42.3923 76.3065 42.8031 76.3065 43.2108 76.2648C43.3089 76.2648 43.6644 76.3384 43.6644 76.4365C43.6644 77.5523 41.4696 77.1231 40.5009 76.5591C39.3009 76.4855 38.0968 76.6014 36.9328 76.9024L36.6876 71.8506C37.3547 72.0292 38.0504 72.0751 38.7353 71.9855C38.8301 71.9324 38.9005 71.8444 38.9314 71.7402C39.2135 70.7103 39.4464 68.8097 40.5255 69.0795C40.5888 69.8516 40.5099 70.6288 40.2925 71.3724C40.1699 72.1326 40.4641 72.3043 41.0404 72.2552C41.5555 72.0239 42.1078 71.8869 42.6712 71.8506C42.99 71.8506 43.3089 71.8506 43.4069 72.2185C43.505 72.5863 43.1862 72.7212 42.8797 72.8315C42.5732 72.9419 41.3715 73.1135 41.2489 73.1381C41.1277 73.1763 41.0243 73.2569 40.9579 73.3653C40.8914 73.4736 40.8663 73.6023 40.8872 73.7276C40.9081 73.853 40.9736 73.9666 41.0716 74.0475C41.1696 74.1284 41.2935 74.1712 41.4206 74.168C42.9042 74.0086 42.6467 73.9351 43.0881 74.0332C43.2804 74.0782 43.4512 74.1882 43.5719 74.3446C43.6925 74.5009 43.7555 74.6941 43.7503 74.8915C43.7523 74.9344 43.7418 74.977 43.7201 75.014C43.6983 75.051 43.6662 75.0809 43.6277 75.0999V75.0632ZM36.8715 77.4051C37.9529 77.262 39.0423 77.1883 40.1331 77.1844C40.8985 77.6677 41.7788 77.9385 42.6835 77.9692C42.6835 80.164 42.6835 84.1 42.5364 85.2526C39.8633 85.5346 24.2788 87.055 21.6057 86.8098C21.4642 86.1801 21.3699 85.5407 21.3237 84.897C28.0921 83.4992 36.5282 78.0918 36.8715 77.4419V77.4051ZM81.0134 227.623C79.6159 227.714 78.2124 227.64 76.8322 227.402V226.789C76.818 226.642 76.7478 226.506 76.636 226.409C76.305 226.151 76.5624 226.335 67.9793 227.426L65.1714 227.745C64.9016 227.745 64.5951 227.88 64.5951 227.745C63.9329 227.574 62.9643 226.409 63.3689 225.98C65.6603 224.141 68.0777 222.465 70.6033 220.965C74.4167 221.418 78.978 221.737 81.7982 221.823C81.6734 223.784 81.4153 225.734 81.0257 227.659L81.0134 227.623ZM122.446 220.56C123.586 220.56 124.726 220.499 125.818 220.437C127.473 221.455 132.942 224.827 134.29 226.213C134.511 226.445 134.29 226.899 134.094 227.157C133.309 228.236 132.709 227.966 132.488 227.941C130.403 227.77 123.5 226.801 121.452 226.507C121.381 226.497 121.309 226.501 121.239 226.52C121.17 226.538 121.105 226.571 121.049 226.616C120.992 226.661 120.946 226.717 120.912 226.78C120.878 226.844 120.857 226.913 120.852 226.985V227.598C119.477 227.847 118.077 227.925 116.683 227.831C116.187 225.443 115.932 223.011 115.922 220.572C115.898 220.217 115.53 220.719 122.458 220.597L122.446 220.56ZM116.486 96.8644C110.196 96.8644 80.2777 97.6123 75.1769 98.1886C75.0543 96.1042 73.6319 87.5333 73.2886 85.4733C79.2065 84.4549 85.0673 83.1288 90.8473 81.5005C90.7032 82.3344 90.6661 83.1832 90.7369 84.0264C92.2149 85.8111 93.8569 87.4531 95.6416 88.9311C95.7339 89.004 95.8442 89.0504 95.9608 89.0655C96.0774 89.0807 96.1959 89.0638 96.3037 89.0169C98.0571 87.5532 99.5604 85.8139 100.755 83.867C100.806 82.8528 100.736 81.8361 100.546 80.8384C103.955 82.0646 113.2 84.0019 117.835 83.9283C117.614 86.4665 116.683 95.5646 116.486 96.8644ZM129.484 108.182C132.623 86.5646 135.553 79.4038 135.615 77.8098C137.557 76.9649 139.367 75.8413 140.985 74.4746C141.621 73.91 142.219 73.3037 142.775 72.6599C142.984 72.4637 142.702 72.1571 142.506 72.3411C142.309 72.525 141.831 72.7825 141.488 73.0032C137.319 75.7989 136.363 76.8166 131.47 78.5577C132.539 77.5023 133.349 76.2139 133.837 74.7934C135.982 67.5468 133.027 60.0794 128.331 54.2061C133.931 50.7469 139.888 47.9021 146.098 45.721C148.548 44.9 151.056 44.2687 153.602 43.8327C153.694 44.3693 153.864 44.8897 154.105 45.3777C156.067 57.4309 152.192 92.5115 149.887 104.16C148.551 110.928 146 120.799 143.07 127.114C142.874 127.582 142.64 128.033 142.371 128.463C140.826 128.978 129.986 128.07 128.307 127.911C127.056 125.642 129.128 110.806 129.508 108.182H129.484ZM181.351 220.989H172.044C172.044 220.621 165.128 171.709 164.932 171.035C165.717 165.996 171.063 138.959 170.879 132.202C170.879 132.147 170.857 132.094 170.818 132.055C170.779 132.016 170.726 131.994 170.671 131.994C170.615 131.994 170.562 132.016 170.523 132.055C170.484 132.094 170.462 132.147 170.462 132.202C170.462 132.914 170.241 134.287 169.947 136.114C165.398 164.512 161.904 180.869 154.081 220.155L144.615 220.057C138.41 180.82 135.369 161.79 135.21 129.542C136.51 129.615 141.905 129.959 142.947 129.431C143.315 129.247 143.695 128.426 143.928 127.948C145.769 123.745 147.286 119.408 148.465 114.975C156.864 115.441 178.445 116.446 182.16 116.642C183.742 124.097 183.852 124.527 184.293 124.686C185.696 125.044 187.128 125.27 188.573 125.36C188.671 150.215 187.371 196.797 181.375 220.928L181.351 220.989ZM227.945 33.8272C226.253 37.7877 222.648 57.6026 206.144 69.1776C202.919 71.4337 197.045 72.243 193.122 72.3533C192.944 70.4248 192.575 68.5189 192.018 66.6639C191.773 65.9037 191.405 65.0086 191.184 64.4691C191.161 64.4243 191.124 64.3887 191.078 64.3682C191.032 64.3477 190.98 64.3435 190.931 64.3564C190.883 64.3693 190.84 64.3985 190.81 64.439C190.78 64.4796 190.765 64.5291 190.767 64.5794C191.442 69.95 191.552 68.0495 192.288 72.9051C192.288 72.9051 194.311 86.6014 194.385 87.2758C195.329 95.8589 195.93 121.044 194.973 124.539C191.588 124.618 188.202 124.355 184.87 123.754C183.558 119.377 170.72 55.7878 170.438 45.0466C173.687 45.6352 186.218 50.1475 196.714 50.4785C206.082 50.7606 220.171 30.8599 220.294 30.8599C221.262 30.6882 226.608 32.9566 227.957 33.7659L227.945 33.8272ZM232.052 24.8885C231.954 26.4702 230.115 27.537 228.754 28.3708C228.276 28.6773 227.197 32.319 227.062 32.834C225.367 32.0423 223.627 31.3504 221.851 30.7618C223.077 28.898 224.144 27.9171 223.678 27.4757C222.832 26.7032 221.225 25.661 222.059 24.7904C222.162 24.8128 222.261 24.8499 222.353 24.9007C223.518 25.4525 224.45 26.9484 224.953 26.0288C225.178 24.9482 225.485 23.8865 225.873 22.853C226.522 21.3449 226.927 21.6269 226.768 23.0983C226.629 24.104 226.378 25.091 226.02 26.0411C225.977 26.1744 225.99 26.3191 226.054 26.4432C226.119 26.5674 226.23 26.6609 226.363 26.7032C226.496 26.7455 226.641 26.7331 226.765 26.6687C226.889 26.6043 226.983 26.4932 227.025 26.3599C227.331 25.2749 227.79 24.2387 228.386 23.2822C228.987 22.3994 229.71 22.1786 229.686 22.7795C229.495 23.8566 229.077 24.8807 228.46 25.7836C228.302 26.0038 228.205 26.2618 228.178 26.5315C228.158 26.6461 228.178 26.7639 228.236 26.8651C228.293 26.9663 228.383 27.0445 228.492 27.0864C228.6 27.1283 228.72 27.1314 228.83 27.095C228.941 27.0587 229.035 26.9852 229.097 26.8871C229.466 26.3723 229.876 25.8884 230.324 25.4402C231.047 24.7291 232.101 24.2386 232.065 24.8272L232.052 24.8885Z" fill="url(#paint1_linear_5499_11767)"/>
<path d="M93.9619 25.8453C94.4647 26.9856 97.2113 26.2745 96.6718 25.6982C96.6327 25.6592 96.5798 25.6374 96.5246 25.6374C96.4695 25.6374 96.4165 25.6592 96.3775 25.6982C96.214 25.7507 96.0382 25.7507 95.8748 25.6982C95.5402 25.6502 95.2141 25.5553 94.9061 25.4161V20.8058C94.8945 20.7576 94.867 20.7147 94.8281 20.6841C94.7892 20.6534 94.7411 20.6367 94.6915 20.6367C94.6419 20.6367 94.5938 20.6534 94.5549 20.6841C94.516 20.7147 94.4885 20.7576 94.4769 20.8058C94.0368 22.1451 93.8497 23.5547 93.9251 24.9625C93.8944 25.257 93.9068 25.5544 93.9619 25.8453ZM90.4061 22.8044C90.4061 22.4734 90.4061 22.1178 90.3325 21.8112C90.3084 21.6745 90.2325 21.5523 90.1206 21.47C90.0087 21.3878 89.8694 21.3519 89.7317 21.3698C89.662 21.3802 89.5952 21.4044 89.535 21.4411C89.4749 21.4777 89.4227 21.5261 89.3816 21.5832C89.3405 21.6404 89.3112 21.7052 89.2955 21.7738C89.2798 21.8425 89.278 21.9135 89.2902 21.9829C89.2902 22.2036 89.2902 22.4611 89.3516 22.878C89.3564 22.9472 89.3748 23.0148 89.4058 23.077C89.4367 23.1391 89.4796 23.1945 89.532 23.24C89.5844 23.2856 89.6452 23.3204 89.711 23.3424C89.7768 23.3644 89.8464 23.3733 89.9156 23.3685C89.9848 23.3636 90.0524 23.3452 90.1146 23.3142C90.1767 23.2833 90.2321 23.2404 90.2776 23.188C90.3232 23.1356 90.358 23.0748 90.38 23.009C90.402 22.9432 90.4109 22.8737 90.4061 22.8044ZM98.6827 22.7186C98.6827 22.8584 98.7382 22.9925 98.8371 23.0914C98.936 23.1903 99.0701 23.2458 99.2099 23.2458C99.3498 23.2458 99.4839 23.1903 99.5827 23.0914C99.6816 22.9925 99.7372 22.8584 99.7372 22.7186V22.1668C99.8074 22.0673 99.8418 21.9469 99.8349 21.8253C99.828 21.7037 99.7802 21.588 99.6991 21.4971C99.6181 21.4061 99.5087 21.3452 99.3888 21.3244C99.2688 21.3035 99.1452 21.3238 99.0383 21.3821C98.56 21.6886 98.6827 22.3017 98.6827 22.7186ZM96.2058 30.2963C95.7649 30.5418 95.3008 30.743 94.8203 30.8971C94.5505 30.8971 94.4892 31.2772 94.8203 31.314C95.1317 31.4705 95.4774 31.5464 95.8257 31.5347C96.1815 31.4926 96.523 31.3704 96.8246 31.1771C97.1262 30.9838 97.38 30.7245 97.5669 30.4189C97.7184 30.0936 97.7819 29.7342 97.7508 29.3767C97.7622 29.3214 97.7511 29.2638 97.7201 29.2167C97.689 29.1696 97.6405 29.1367 97.5852 29.1253C97.53 29.1139 97.4724 29.125 97.4253 29.156C97.3782 29.187 97.3453 29.2355 97.3339 29.2908C96.9991 29.6696 96.6204 30.0071 96.2058 30.2963ZM164.65 31.1301C165.582 31.4244 167.103 31.6205 167.753 30.8848C168.402 30.1491 168.047 28.2363 167.973 27.4271C167.82 25.8379 167.474 24.2732 166.943 22.7676C166.932 22.7123 166.899 22.6639 166.852 22.6328C166.805 22.6018 166.747 22.5907 166.692 22.6021C166.637 22.6135 166.588 22.6464 166.557 22.6935C166.526 22.7406 166.515 22.7982 166.526 22.8535C166.526 23.2336 166.698 25.1096 166.735 25.5878C166.969 27.1497 167.052 28.7307 166.98 30.3085C166.705 30.4946 166.39 30.6123 166.06 30.6519C164.834 30.8603 164.552 30.566 164.491 30.8848C164.484 30.9115 164.482 30.9394 164.486 30.9666C164.491 30.9939 164.501 31.02 164.516 31.0431C164.531 31.0663 164.551 31.086 164.574 31.101C164.597 31.1159 164.623 31.1259 164.65 31.1301ZM162.578 23.0497C162.578 22.6573 161.45 22.4611 160.714 22.6205C159.979 22.7799 158.973 23.5524 159.255 23.8467C159.537 24.1409 162.529 23.4052 162.578 23.0497ZM161.769 25.9802V27.0347C161.769 27.1745 161.824 27.3086 161.923 27.4075C162.022 27.5064 162.156 27.5619 162.296 27.5619C162.436 27.5619 162.57 27.5064 162.669 27.4075C162.768 27.3086 162.823 27.1745 162.823 27.0347V26.017C162.827 25.8759 162.775 25.7392 162.678 25.636C162.582 25.5329 162.449 25.4716 162.308 25.4652C162.169 25.4651 162.036 25.5185 161.935 25.6144C161.835 25.7104 161.775 25.8414 161.769 25.9802ZM172.228 23.5524C172.326 23.4052 171.934 22.6205 171.002 22.3262C170.07 22.0319 169.359 22.4979 169.359 22.7186C169.359 22.9393 172.044 23.8221 172.228 23.5524ZM161.242 33.7541C160.96 33.8399 160.96 35.6056 162.639 36.1083C163.498 36.3535 164.663 36.2187 164.687 35.9121C164.712 35.6056 163.02 35.2377 162.468 34.8576C161.916 34.4775 161.475 33.6805 161.242 33.7541ZM170.548 25.2567C170.479 25.2551 170.41 25.2672 170.345 25.2922C170.281 25.3172 170.222 25.3546 170.172 25.4025C170.122 25.4503 170.081 25.5075 170.053 25.5709C170.025 25.6342 170.01 25.7025 170.009 25.7717V26.814C170.028 26.9415 170.093 27.0579 170.19 27.142C170.288 27.2261 170.413 27.2724 170.542 27.2724C170.671 27.2724 170.796 27.2261 170.894 27.142C170.992 27.0579 171.056 26.9415 171.075 26.814V25.7963C171.077 25.726 171.065 25.6561 171.039 25.5907C171.013 25.5253 170.975 25.4658 170.925 25.4155C170.876 25.3652 170.818 25.3253 170.753 25.298C170.688 25.2708 170.618 25.2567 170.548 25.2567Z" fill="url(#paint2_linear_5499_11767)"/>
<defs>
<linearGradient id="paint0_linear_5499_11767" x1="39.9815" y1="22.2266" x2="39.9815" y2="43.5226" gradientUnits="userSpaceOnUse">
<stop stop-color="#2489FF"/>
<stop offset="1" stop-color="#40A865"/>
</linearGradient>
<linearGradient id="paint1_linear_5499_11767" x1="116.5" y1="0" x2="116.5" y2="229.551" gradientUnits="userSpaceOnUse">
<stop stop-color="#2489FF"/>
<stop offset="1" stop-color="#40A865"/>
</linearGradient>
<linearGradient id="paint2_linear_5499_11767" x1="130.762" y1="20.6367" x2="130.762" y2="36.2351" gradientUnits="userSpaceOnUse">
<stop stop-color="#2489FF"/>
<stop offset="1" stop-color="#40A865"/>
</linearGradient>
</defs>
</svg>
