<svg width="261" height="261" viewBox="0 0 261 261" fill="none" xmlns="http://www.w3.org/2000/svg">
<path fill-rule="evenodd" clip-rule="evenodd" d="M71.8528 101.593C72.0904 101.705 72.3476 101.768 72.6097 101.779C72.8718 101.79 73.1335 101.749 73.3797 101.659C73.4277 101.647 73.4705 101.619 73.501 101.58C73.5315 101.541 73.5481 101.493 73.5481 101.443C73.5481 101.394 73.5315 101.346 73.501 101.307C73.4705 101.268 73.4277 101.24 73.3797 101.228C72.3653 100.792 71.5027 100.065 70.9002 99.14C70.8845 99.0923 70.8532 99.0513 70.8112 99.0237C70.7693 98.9961 70.7192 98.9836 70.6692 98.9881C70.6193 98.9926 70.5723 99.014 70.536 99.0487C70.4997 99.0834 70.4763 99.1294 70.4695 99.1791C70.4064 99.6772 70.5072 100.182 70.7568 100.618C71.0064 101.054 71.3912 101.396 71.8528 101.593ZM170.054 69.7383C158.309 71.2652 150.583 72.3483 150.583 72.3483C150.375 72.3483 150.453 72.5571 150.453 72.7659V130.76C150.453 130.865 150.779 130.956 150.897 130.969C160.567 132.065 174.817 133.161 189.42 134.14C199.338 134.793 247.297 137.376 247.297 137.376C247.433 137.377 247.563 137.325 247.662 137.233C247.715 137.188 247.758 137.132 247.787 137.069C247.816 137.006 247.832 136.937 247.832 136.868C247.91 131.974 248.85 62.2085 248.85 62.2085C248.849 62.1352 248.834 62.0628 248.805 61.9955C248.776 61.9283 248.733 61.8676 248.68 61.817C248.627 61.7653 248.563 61.7249 248.494 61.698C248.424 61.6711 248.35 61.6583 248.276 61.6604C232.864 62.6261 215.285 64.3487 199.325 66.1496C188.415 67.4154 178.249 68.6682 170.054 69.7383ZM247.767 62.8218L246.801 136.359C244.269 136.254 199.39 134.036 189.459 133.448C174.961 132.587 160.749 131.608 151.105 130.604V73.1835C153.246 72.8834 198.79 67.2458 209.217 66.1626C222.15 64.8054 235.604 63.5787 247.767 62.8218Z" fill="url(#paint0_linear_5499_11772)"/>
<path fill-rule="evenodd" clip-rule="evenodd" d="M171.686 100.315C171.658 106.912 174.243 113.251 178.876 117.946C181.169 120.279 183.904 122.132 186.921 123.397C189.938 124.662 193.177 125.313 196.448 125.313C199.72 125.313 202.958 124.662 205.975 123.397C208.992 122.132 211.727 120.279 214.02 117.946C217.513 114.412 219.87 109.915 220.788 105.032C221.707 100.149 221.145 95.1024 219.175 90.5409C220.948 90.5471 222.687 90.0462 224.185 89.0974C225.684 88.1485 226.88 86.7911 227.632 85.1852C228.385 83.5793 228.663 81.7917 228.434 80.033C228.204 78.2743 227.477 76.6178 226.338 75.2586C225.198 73.8995 223.694 72.8943 222.002 72.3614C220.311 71.8286 218.502 71.7904 216.789 72.2512C215.077 72.7121 213.531 73.6528 212.336 74.9626C211.14 76.2724 210.343 77.8967 210.04 79.6441C206.306 77.2089 201.985 75.8251 197.532 75.6385C193.078 75.4519 188.657 76.4692 184.733 78.5836C180.808 80.6979 177.527 83.831 175.233 87.6531C172.939 91.4751 171.719 95.8448 171.699 100.302L171.686 100.315ZM216.734 79.2657L218.287 82.7892L221.472 74.7504L223.246 75.8596L219.566 85.8037L216.956 86.0517L214.764 81.2623L216.734 79.2657ZM196.442 76.0815C201.273 76.0949 205.982 77.6039 209.922 80.401V81.2623C209.922 83.5571 210.772 85.7706 212.306 87.4765C213.841 89.1824 215.953 90.26 218.235 90.5017C220.18 94.9347 220.749 99.8494 219.87 104.61C218.99 109.37 216.702 113.757 213.302 117.202C211.104 119.428 208.486 121.195 205.599 122.401C202.713 123.607 199.616 124.228 196.487 124.228C193.359 124.228 190.262 123.607 187.375 122.401C184.489 121.195 181.871 119.428 179.672 117.202C175.226 112.695 172.723 106.625 172.701 100.294C172.679 93.9625 175.14 87.875 179.555 83.3373C181.742 81.0614 184.364 79.2468 187.264 78.0006C190.164 76.7544 193.285 76.1018 196.442 76.0815Z" fill="url(#paint1_linear_5499_11772)"/>
<path fill-rule="evenodd" clip-rule="evenodd" d="M254.305 56.3614C254.251 56.3115 254.187 56.273 254.118 56.2484C254.048 56.2237 253.974 56.2133 253.901 56.2178C236.753 57.3271 217.191 59.2976 199.43 61.3595C187.281 62.7689 145.181 68.4457 145.181 68.4457C144.972 68.4457 145.077 68.6545 145.077 68.8633V135.327C145.077 135.431 145.416 135.523 145.534 135.536C156.143 136.762 171.738 138.002 187.763 139.098C188.103 140.403 189.525 145.623 190.217 149.643C190.46 150.863 190.578 152.105 190.569 153.349C190.58 153.573 190.525 153.795 190.413 153.988C189.108 155.293 181.682 157.577 181.46 157.669C181.35 157.701 181.255 157.771 181.191 157.866C181.126 157.962 181.097 158.076 181.108 158.191L181.317 160.722C181.323 160.839 181.371 160.95 181.453 161.034C181.534 161.118 181.644 161.17 181.76 161.179C212.284 165.251 210.47 165.185 210.744 165.094C213.408 163.972 215.99 162.664 218.47 161.179C219.237 160.707 219.943 160.141 220.571 159.496C220.926 159.149 221.144 158.685 221.184 158.191C220.894 156.332 220.458 154.499 219.879 152.71C218.574 148.312 216.761 142.661 216.186 140.965L252.805 142.909C252.874 142.915 252.945 142.905 253.01 142.88C253.076 142.855 253.135 142.816 253.183 142.765C253.234 142.72 253.275 142.663 253.302 142.6C253.329 142.537 253.342 142.469 253.34 142.4C253.431 136.789 254.475 56.8442 254.475 56.8442C254.486 56.7561 254.476 56.6666 254.447 56.5829C254.418 56.4991 254.369 56.4233 254.305 56.3614ZM196.246 162.066L182.295 160.187L182.152 158.478H182.269C183.353 158.634 191.47 159.678 193.088 159.861C196.598 160.252 209.205 161.518 210.053 161.597C209.863 162.386 209.863 163.209 210.053 163.998L196.246 162.066ZM219.11 152.853C219.634 154.559 220.019 156.305 220.258 158.073C220.211 158.324 220.077 158.551 219.879 158.713C219.292 159.283 218.639 159.782 217.935 160.2C215.698 161.532 213.374 162.714 210.979 163.737C211.086 162.958 211.024 162.166 210.797 161.414C211.475 161.127 213.811 160.109 215.899 159.104C217.088 158.565 218.228 157.923 219.305 157.186C219.325 157.166 219.341 157.143 219.352 157.117C219.363 157.091 219.369 157.064 219.369 157.036C219.369 157.008 219.363 156.98 219.352 156.954C219.341 156.928 219.325 156.905 219.305 156.886C219.264 156.844 219.207 156.821 219.149 156.821C219.09 156.821 219.034 156.844 218.992 156.886C218.183 157.392 217.331 157.829 216.447 158.191C214.059 159.221 210.953 160.383 210.314 160.618C209.74 160.618 184.644 158.138 183.405 158.008C191.235 155.28 191.235 154.523 191.352 153.349C191.339 152.032 191.185 150.719 190.895 149.434C190.139 145.519 188.638 140.56 188.181 138.994L216.173 140.938H215.717C216.173 142.387 217.935 148.312 219.11 152.879V152.853ZM252.322 141.748C249.62 141.63 199.495 139.138 188.442 138.394C172.299 137.389 156.483 136.267 145.729 135.105V69.2417C148.013 68.9155 198.817 62.4296 210.418 61.1768C224.773 59.6239 239.846 58.2014 253.392 57.3401L252.322 141.748Z" fill="url(#paint2_linear_5499_11772)"/>
<path fill-rule="evenodd" clip-rule="evenodd" d="M210.457 154.276C209.753 154.276 200.265 153.807 199.391 153.794C198.516 153.781 193.845 153.794 193.845 153.794C193.815 153.792 193.786 153.796 193.759 153.805C193.731 153.815 193.706 153.83 193.684 153.849C193.662 153.869 193.644 153.892 193.631 153.918C193.619 153.945 193.611 153.973 193.61 154.002C193.61 154.059 193.631 154.114 193.67 154.155C193.709 154.196 193.762 154.221 193.819 154.224C194.38 154.224 201.583 155.125 210.418 155.242H215.964C215.992 155.246 216.02 155.244 216.047 155.235C216.074 155.227 216.099 155.214 216.12 155.195C216.141 155.176 216.158 155.154 216.169 155.128C216.181 155.102 216.186 155.074 216.186 155.046C216.188 155.017 216.184 154.988 216.174 154.96C216.165 154.933 216.15 154.907 216.131 154.886C216.111 154.864 216.088 154.846 216.061 154.833C216.035 154.821 216.007 154.813 215.977 154.812C215.977 154.812 211.736 154.381 210.457 154.276ZM233.895 105.052L235.318 107.662L236.453 106.84L235.083 104.478L237.21 103.447L231.52 98.4225L231.846 106.044L233.895 105.052ZM227.527 112.83C227.514 112.855 227.506 112.883 227.504 112.912C227.502 112.94 227.507 112.969 227.516 112.996C227.526 113.023 227.541 113.048 227.561 113.068C227.581 113.089 227.605 113.106 227.631 113.117C228.085 113.445 228.555 113.75 229.04 114.03C229.589 114.343 230.841 114.905 231.429 115.14C231.781 115.283 233.804 116.027 233.96 115.688C233.973 115.662 233.981 115.634 233.983 115.606C233.984 115.577 233.98 115.548 233.971 115.521C233.961 115.494 233.946 115.47 233.926 115.449C233.906 115.428 233.882 115.412 233.856 115.401L233.295 115.009C231.853 114.088 230.283 113.385 228.636 112.921C228.127 112.777 227.814 112.725 227.814 112.725C227.762 112.703 227.703 112.701 227.649 112.72C227.596 112.74 227.552 112.779 227.527 112.83ZM222.411 124.183C221.658 122.962 220.596 121.963 219.331 121.286C219.312 121.266 219.288 121.251 219.262 121.24C219.237 121.229 219.209 121.224 219.181 121.224C219.153 121.224 219.126 121.229 219.1 121.24C219.074 121.251 219.051 121.266 219.031 121.286C219.011 121.306 218.996 121.329 218.985 121.355C218.974 121.381 218.969 121.408 218.969 121.436C218.969 121.464 218.974 121.492 218.985 121.517C218.996 121.543 219.011 121.567 219.031 121.586C219.118 121.771 219.219 121.95 219.331 122.121C220.082 123.293 221.12 124.255 222.346 124.914C222.364 124.936 222.387 124.954 222.413 124.966C222.439 124.978 222.467 124.984 222.496 124.984C222.524 124.984 222.553 124.978 222.579 124.966C222.605 124.954 222.628 124.936 222.646 124.914C222.684 124.873 222.704 124.819 222.704 124.764C222.704 124.708 222.684 124.655 222.646 124.614L222.411 124.183ZM167.392 107.675C167.36 107.628 167.312 107.594 167.257 107.579C167.202 107.565 167.143 107.571 167.092 107.597C164.374 108.61 161.839 110.06 159.588 111.89C159.541 111.922 159.507 111.97 159.493 112.025C159.478 112.081 159.484 112.139 159.51 112.19C159.54 112.24 159.588 112.276 159.644 112.291C159.7 112.305 159.76 112.297 159.81 112.269C162.522 111.242 165.055 109.793 167.314 107.975C167.361 107.943 167.395 107.895 167.41 107.84C167.424 107.785 167.418 107.726 167.392 107.675ZM173.565 118.415C172.312 119.156 171.144 120.031 170.081 121.025C166.048 124.536 167.092 124.614 167.314 124.405C167.314 124.405 167.679 124.196 168.24 123.818C170.323 122.376 172.213 120.674 173.865 118.754C173.886 118.736 173.904 118.714 173.917 118.69C173.93 118.665 173.938 118.638 173.94 118.61C173.943 118.582 173.94 118.554 173.931 118.527C173.923 118.5 173.909 118.476 173.891 118.454C173.873 118.433 173.851 118.415 173.826 118.402C173.801 118.389 173.774 118.381 173.746 118.379C173.719 118.377 173.691 118.38 173.664 118.388C173.637 118.397 173.612 118.41 173.591 118.428L173.565 118.415ZM193.936 177.793C192.891 177.08 191.742 176.534 190.53 176.174C190.485 175.955 190.396 175.746 190.269 175.561C190.037 175.248 189.744 174.986 189.408 174.791C188.259 174.14 186.988 173.736 185.675 173.604C184.04 173.4 182.379 173.611 180.847 174.217C178.393 175.235 172.377 178.928 165.67 181.329C162.229 182.663 158.58 183.379 154.89 183.443C149.859 183.469 144.844 184.007 139.922 185.048C133.514 186.353 127.785 188.076 125.737 189.342L121.652 183.391H121.769C122.679 183.04 123.553 182.603 124.379 182.086C124.982 181.763 125.511 181.319 125.932 180.781C125.961 180.734 125.976 180.68 125.976 180.624C125.976 180.569 125.961 180.515 125.932 180.468C125.888 180.386 125.813 180.325 125.724 180.298C125.585 180.21 125.436 180.14 125.28 180.089C123.67 180.026 122.058 180.053 120.451 180.168C116.974 171.371 112.527 162.989 107.193 155.177C104.04 150.546 100.55 146.154 96.7526 142.036C98.2664 139.191 99.9759 135.811 102.873 129.325C103.936 128.806 104.851 128.029 105.535 127.064C106.219 126.1 106.65 124.979 106.788 123.805C108.354 124.405 109.398 122.16 109.724 120.36C111.734 121.143 115.362 122.526 117.411 123.178C117.745 123.3 118.09 123.388 118.442 123.439C119.838 123.439 124.967 115.936 125.88 114.304C126.147 113.872 126.316 113.386 126.376 112.882C126.362 112.713 126.308 112.549 126.22 112.404C126.132 112.259 126.011 112.137 125.867 112.047C123.857 110.507 114.983 108.471 111.603 107.962C108.68 107.531 108.772 107.636 106.984 109.906C106.305 110.768 105.561 111.786 104.922 112.673C103.737 112.714 102.56 112.885 101.411 113.182C97.4181 114.226 96.1914 115.662 95.5128 118.102C94.948 120.007 94.6882 121.989 94.7429 123.974C91.5065 127.172 89.1053 129.703 86.5344 132.483C79.8293 126.891 72.4827 122.115 64.6496 118.258L65.4326 113.038C69.9218 113.038 76.1205 111.733 77.7126 107.518C78.4522 105.439 79.0111 103.299 79.383 101.124C79.892 98.2659 80.1008 95.7733 80.166 94.912L82.6977 93.7245C82.8073 93.6733 82.895 93.5848 82.9452 93.4748C82.9954 93.3648 83.0049 93.2405 82.9718 93.1242C82.9718 93.1242 79.8267 81.3792 79.631 80.5701C81.2622 80.2047 82.4759 79.8654 82.4759 79.8654C82.4759 58.9854 62.9009 54.6136 62.9009 54.6136C62.9009 54.6136 69.0866 46.7836 69.8174 41.7202C70.5482 36.6568 64.3364 34.9603 56.1801 37.1397C48.0239 39.319 53.3483 53.7001 53.3483 53.7001C49.629 52.878 42.6081 57.0801 42.6081 57.0801C37.3881 29.8708 23.0984 41.2896 21.7281 49.3414C20.3579 57.3933 38.4974 59.2333 38.4974 59.2333C26.3478 64.3228 22.0805 105.378 22.0805 105.378C24.8732 107.531 30.4325 108.849 36.4355 109.645C25.1104 117.631 16.4304 128.82 11.51 141.775C9.35318 147.361 7.88512 153.189 7.13822 159.131C5.7511 171.017 6.63683 183.059 9.74822 194.614C11.7228 202.299 14.3421 209.803 17.5782 217.047C17.6007 217.099 17.6429 217.14 17.6955 217.161C17.7216 217.171 17.7494 217.176 17.7774 217.175C17.8054 217.175 17.8331 217.169 17.8588 217.158C17.8845 217.147 17.9078 217.131 17.9273 217.111C17.9467 217.09 17.9621 217.067 17.9724 217.041C17.9827 217.015 17.9877 216.987 17.9873 216.959C17.9868 216.931 17.9809 216.903 17.9697 216.877C14.8489 209.619 12.3305 202.116 10.4399 194.444C7.46558 182.949 6.67761 170.996 8.11697 159.209C8.88286 153.352 10.3507 147.608 12.4887 142.101C17.4089 129.226 26.1124 118.143 37.4534 110.311C58.6335 113.286 87.5262 128.581 106.527 155.634C111.916 163.375 116.428 171.691 119.982 180.429C115.213 184.822 109.959 188.657 104.322 191.86C101.494 193.476 98.5649 194.906 95.552 196.141C92.552 197.383 89.4525 198.37 86.2865 199.09C83.9375 195.749 72.597 176.174 72.5057 176.07C72.4933 176.045 72.4759 176.022 72.4546 176.004C72.4332 175.986 72.4084 175.972 72.3816 175.963C72.3548 175.955 72.3265 175.952 72.2985 175.954C72.2705 175.957 72.2433 175.965 72.2186 175.979C72.1915 175.991 72.1674 176.009 72.1478 176.031C72.1282 176.053 72.1136 176.08 72.105 176.108C72.0963 176.136 72.0938 176.166 72.0977 176.196C72.1015 176.225 72.1116 176.254 72.1272 176.279C72.1272 176.279 72.6492 177.427 73.5366 179.241C76.5381 185.362 81.471 194.157 85.895 199.351C84.59 201.452 82.3193 206.137 84.7988 205.941C86.3517 205.824 88.2962 203.84 88.7138 203.592C94.64 209.888 101.433 215.306 108.889 219.683C114.187 222.632 119.995 224.786 125.671 224.903H125.75C133.358 223.598 141.41 219.318 148.874 214.006C161.546 204.989 172.612 193.126 177.389 188.311C178.178 187.52 179.019 186.783 179.907 186.105C181.334 186.355 182.778 186.491 184.227 186.51C185.314 186.529 186.401 186.459 187.476 186.301C189.328 186.086 191.11 185.467 192.696 184.487C193.544 183.969 194.291 183.301 194.902 182.517C195.367 181.936 195.616 181.212 195.606 180.468C195.587 180.007 195.452 179.558 195.215 179.163C194.89 178.621 194.454 178.154 193.936 177.793ZM43.0649 110.324C52.4087 111.042 61.0608 110.833 61.0608 110.833C60.591 107.727 56.3889 92.8762 56.3889 92.8762C53.1134 93.1372 50.2424 90.7882 52.2651 86.2338C54.2879 81.6793 59.012 84.9288 59.012 84.9288C62.9387 83.5949 66.4785 81.3186 69.3215 78.2994C69.7134 79.3937 70.3366 80.3907 71.1485 81.2226C71.9837 82.0708 76.1075 81.34 79.1351 80.6745C79.3439 81.8229 79.6962 83.5324 80.0877 85.3072C80.3748 86.6775 81.6929 92.302 81.8495 92.9545L79.3961 93.9594C78.7958 94.2334 79.3961 94.6902 78.2738 100.811C77.9187 102.922 77.3861 105 76.6817 107.022C76.342 107.814 75.8488 108.531 75.2306 109.131C74.6124 109.732 73.8814 110.204 73.0799 110.52C70.5351 111.557 67.8268 112.136 65.0802 112.229C64.9889 112.226 64.8997 112.258 64.8316 112.319C64.7634 112.38 64.7215 112.464 64.7148 112.556L63.3446 117.632C56.8878 114.425 50.083 111.973 43.0649 110.324ZM107.01 122.93C106.357 122.93 107.31 119.772 107.349 119.577L109.033 120.229C108.785 121.129 108.028 122.917 107.01 122.93ZM109.007 108.654C112.178 108.797 123.623 111.668 125.045 113.012C124.771 114.383 120.569 119.916 118.964 121.651C117.92 122.761 120.269 123.335 104.387 117.919C105.196 116.692 106.436 114.5 105.052 114.004C104.856 113.95 104.648 113.95 104.452 114.004C105.846 112.103 107.386 110.315 109.059 108.654H109.007ZM106.305 119.094C106.083 119.838 105.744 122.03 105.078 121.704C104.413 121.377 104.687 119.459 104.987 118.585L106.305 119.094ZM88.2048 133.932L86.8998 132.822C87.6567 132.144 92.1198 128.059 92.5244 127.602C94.247 125.945 95.6694 124.549 95.6694 124.549C95.7258 124.493 95.7691 124.425 95.7962 124.351C95.8232 124.276 95.8335 124.197 95.826 124.118C95.7071 122.197 95.8832 120.27 96.348 118.402C96.5952 117.213 97.2681 116.155 98.2403 115.427C100.119 114.271 102.216 113.516 104.4 113.208L103.682 114.226C101.072 115.635 97.8357 120.294 97.7313 120.425C97.7133 120.446 97.6997 120.471 97.6913 120.498C97.6829 120.524 97.6798 120.552 97.6822 120.58C97.6846 120.608 97.6925 120.635 97.7054 120.66C97.7183 120.685 97.736 120.707 97.7574 120.725C97.7789 120.743 97.8036 120.757 97.8303 120.765C97.857 120.773 97.885 120.776 97.9129 120.774C97.9408 120.772 97.9679 120.764 97.9927 120.751C98.0176 120.738 98.0396 120.72 98.0576 120.699C98.5535 120.229 103.982 114.683 104.7 114.97C105.418 115.257 100.785 121.26 101.216 121.612C101.646 121.965 103.943 118.676 104.191 118.298L104.622 118.467C103.891 119.89 103.317 121.834 104.726 122.63C104.898 122.725 105.091 122.775 105.287 122.775C105.484 122.775 105.677 122.725 105.848 122.63C105.888 122.915 105.99 123.187 106.149 123.426C105.892 124.933 105.105 126.298 103.93 127.276C101.32 129.586 102.938 125.762 98.2664 136.724C97.8488 137.69 97.4703 138.63 97.1441 139.439C96.8178 140.248 96.4655 141.148 96.2828 141.631C93.7206 138.931 91.0246 136.361 88.2048 133.932ZM85.2164 204.728C85.0596 204.801 84.8923 204.85 84.7205 204.871C85.1243 203.164 85.7936 201.53 86.7041 200.03C89.851 199.29 92.9323 198.295 95.9174 197.054C98.9564 195.77 101.904 194.279 104.739 192.591C110.389 189.248 115.623 185.249 120.334 180.677C121.933 180.58 123.537 180.58 125.136 180.677C124.767 180.987 124.369 181.262 123.949 181.499C123.156 181.963 122.322 182.352 121.456 182.66C121.212 182.712 120.983 182.819 120.786 182.973C120.589 183.127 120.43 183.323 120.321 183.548C120.021 184.318 120.634 184.996 119.864 186.158C118.82 187.684 117.372 186.849 115.545 187.28C113.365 187.789 114.24 191.195 112.935 192.317C111.63 193.44 108.941 191.456 107.715 193.283C107.036 194.314 107.375 195.997 106.775 196.937C106.175 197.877 103.056 195.267 101.216 197.146C100.61 198.066 100.065 199.025 99.5844 200.017C98.684 201.4 97.3659 199.704 95.6694 199.612C92.5374 199.456 95.03 206.868 90.8279 203.527C90.4256 203.186 89.9881 202.888 89.5229 202.64C88.0091 201.792 87.5523 203.749 85.2164 204.728ZM176.566 187.489C171.816 192.239 160.802 204.101 148.222 213.132C140.901 218.352 133.045 222.672 125.567 223.99C120.034 223.99 114.357 221.875 109.176 219.057C101.905 214.873 95.2475 209.704 89.3924 203.697C89.7245 203.907 90.0427 204.138 90.345 204.388C95.3432 208.303 94.7559 200.617 95.7999 200.669C97.7052 200.761 99.2843 203.736 101.581 198.803C101.716 198.461 101.905 198.144 102.142 197.863C103.539 196.428 106.501 199.56 107.819 197.472C108.706 196.05 108.093 193.714 109.124 193.557C110.155 193.4 111.095 193.922 112.191 193.753C115.662 193.244 114.057 188.533 115.779 188.128C116.427 187.992 117.089 187.935 117.75 187.959C118.261 187.972 118.771 187.888 119.251 187.711C119.789 187.483 120.244 187.096 120.556 186.601C121.43 185.296 120.869 184.331 121.039 183.848C121.064 183.783 121.11 183.728 121.169 183.691L125.436 190.151C125.453 190.179 125.476 190.203 125.503 190.221C125.53 190.239 125.561 190.25 125.593 190.255C125.656 190.281 125.726 190.281 125.789 190.255C127.603 189.029 133.462 187.136 140.026 185.91C144.902 184.877 149.868 184.335 154.851 184.291C158.647 184.267 162.408 183.564 165.957 182.217C172.691 179.854 178.746 176.2 181.212 175.196C182.585 174.659 184.07 174.475 185.532 174.661C186.55 174.777 187.541 175.059 188.468 175.496C188.811 175.641 189.115 175.864 189.355 176.148C189.402 176.221 189.437 176.3 189.46 176.383H189.199C188.783 176.19 188.345 176.05 187.894 175.966C186.117 175.638 184.294 175.638 182.517 175.966C182.449 175.976 182.383 176 182.323 176.035C182.264 176.071 182.212 176.118 182.171 176.174C182.13 176.23 182.1 176.293 182.083 176.36C182.067 176.427 182.063 176.497 182.074 176.566C182.084 176.634 182.107 176.7 182.143 176.76C182.179 176.819 182.226 176.871 182.282 176.912C182.337 176.953 182.401 176.983 182.468 177C182.535 177.017 182.605 177.02 182.674 177.01C183.931 176.834 185.203 176.777 186.471 176.84H187.15C187.415 176.883 187.676 176.944 187.933 177.023C188.612 177.173 189.214 177.562 189.629 178.119C187.514 177.793 185.354 177.913 183.287 178.471H183.131C183.007 178.519 182.905 178.61 182.843 178.727C182.782 178.843 182.764 178.979 182.794 179.108C182.825 179.236 182.9 179.35 183.008 179.427C183.115 179.505 183.247 179.54 183.379 179.528H183.561C184.896 179.238 186.255 179.072 187.62 179.032H188.572C188.98 179.068 189.382 179.146 189.773 179.267C189.911 179.317 190.042 179.382 190.165 179.463C190.228 179.502 190.299 179.529 190.373 179.541C190.507 179.612 190.623 179.71 190.716 179.829C190.808 179.948 190.874 180.086 190.908 180.233L190.739 180.311C190.506 180.401 190.266 180.471 190.021 180.52C187.778 180.919 185.588 181.576 183.496 182.478C180.913 183.714 178.578 185.412 176.606 187.489H176.566ZM194.027 181.747C193.476 182.464 192.794 183.071 192.018 183.535C190.564 184.424 188.942 185.001 187.254 185.231C186.223 185.411 185.181 185.524 184.135 185.57C182.914 185.636 181.69 185.636 180.468 185.57C181.173 185.074 181.852 184.657 182.517 184.265C185.192 182.932 188.044 181.987 190.987 181.46C191.783 181.199 192.07 180.768 192.018 180.259C191.975 179.937 191.859 179.629 191.678 179.36C191.497 179.09 191.256 178.867 190.974 178.706C190.869 178.08 190.567 177.504 190.112 177.062L190.269 176.905C190.341 176.81 190.398 176.704 190.439 176.592C191.117 176.899 191.771 177.257 192.396 177.662C193.16 178.128 193.804 178.767 194.275 179.528C194.47 179.875 194.555 180.274 194.517 180.67C194.48 181.066 194.323 181.442 194.066 181.747H194.027Z" fill="url(#paint3_linear_5499_11772)"/>
<path fill-rule="evenodd" clip-rule="evenodd" d="M106.344 115.804C110.139 117.446 114.068 118.756 118.089 119.719C121.795 120.594 119.12 119.015 111.564 116.653C108.837 115.804 106.775 115.348 106.579 115.348C106.55 115.333 106.519 115.325 106.487 115.324C106.454 115.323 106.422 115.328 106.393 115.341C106.363 115.353 106.336 115.372 106.314 115.396C106.293 115.42 106.277 115.448 106.267 115.479C106.257 115.51 106.255 115.542 106.259 115.574C106.263 115.606 106.274 115.637 106.291 115.664C106.309 115.692 106.332 115.715 106.359 115.732C106.386 115.75 106.417 115.761 106.449 115.765L106.344 115.804ZM112.112 110.702L109.385 110.049L108.223 111.289L111.238 112.085L112.112 110.702ZM191.835 110.924C191.156 110.924 190.608 111.681 190.608 112.62C190.608 113.56 191.156 114.304 191.835 114.304C192.513 114.304 193.048 113.547 193.048 112.62C193.048 111.694 192.553 110.924 191.835 110.924ZM203.684 110.924C203.006 110.924 202.458 111.681 202.458 112.62C202.458 113.56 203.006 114.304 203.684 114.304C204.363 114.304 204.898 113.547 204.898 112.62C204.898 111.694 204.35 110.924 203.684 110.924ZM74.8807 89.7696C74.9966 89.7715 75.1116 89.7496 75.2187 89.7054C75.3258 89.6611 75.4227 89.5954 75.5034 89.5122C75.5841 89.4291 75.6469 89.3303 75.6879 89.2219C75.729 89.1135 75.7474 88.9979 75.742 88.8822C75.742 88.2819 75.742 87.6946 75.8073 87.0943C75.8306 86.8554 75.763 86.6165 75.6178 86.4254C75.4726 86.2343 75.2606 86.105 75.0243 86.0634C73.8759 85.9068 74.0194 87.5119 74.0194 88.8039C74.015 89.0437 74.1013 89.2764 74.2609 89.4554C74.4206 89.6344 74.6419 89.7466 74.8807 89.7696Z" fill="url(#paint4_linear_5499_11772)"/>
<defs>
<linearGradient id="paint0_linear_5499_11772" x1="159.651" y1="61.6602" x2="159.651" y2="137.376" gradientUnits="userSpaceOnUse">
<stop stop-color="#2489FF"/>
<stop offset="1" stop-color="#40A865"/>
</linearGradient>
<linearGradient id="paint1_linear_5499_11772" x1="200.099" y1="71.9316" x2="200.099" y2="125.313" gradientUnits="userSpaceOnUse">
<stop stop-color="#2489FF"/>
<stop offset="1" stop-color="#40A865"/>
</linearGradient>
<linearGradient id="paint2_linear_5499_11772" x1="199.765" y1="56.2168" x2="199.765" y2="165.12" gradientUnits="userSpaceOnUse">
<stop stop-color="#2489FF"/>
<stop offset="1" stop-color="#40A865"/>
</linearGradient>
<linearGradient id="paint3_linear_5499_11772" x1="121.856" y1="36.209" x2="121.856" y2="224.903" gradientUnits="userSpaceOnUse">
<stop stop-color="#2489FF"/>
<stop offset="1" stop-color="#40A865"/>
</linearGradient>
<linearGradient id="paint4_linear_5499_11772" x1="139.456" y1="86.0527" x2="139.456" y2="119.963" gradientUnits="userSpaceOnUse">
<stop stop-color="#2489FF"/>
<stop offset="1" stop-color="#40A865"/>
</linearGradient>
</defs>
</svg>
