<svg width="22" height="22" viewBox="0 0 22 22" fill="none" xmlns="http://www.w3.org/2000/svg">
<path d="M18.3333 1.83203C18.5764 1.83203 18.8096 1.92861 18.9815 2.10052C19.1534 2.27242 19.25 2.50558 19.25 2.7487V6.19261L11.0009 14.4426L10.9954 18.3274L14.8876 18.3329L19.25 13.9705V19.2487C19.25 19.4918 19.1534 19.725 18.9815 19.8969C18.8096 20.0688 18.5764 20.1654 18.3333 20.1654H3.66667C3.42355 20.1654 3.19039 20.0688 3.01849 19.8969C2.84658 19.725 2.75 19.4918 2.75 19.2487V2.7487C2.75 2.50558 2.84658 2.27242 3.01849 2.10052C3.19039 1.92861 3.42355 1.83203 3.66667 1.83203H18.3333ZM19.9632 8.0727L21.2593 9.36887L14.1295 16.4987L12.8315 16.4969L12.8333 15.2025L19.9632 8.0727ZM11 10.9987H6.41667V12.832H11V10.9987ZM13.75 7.33203H6.41667V9.16536H13.75V7.33203Z" fill="#393939"/>
</svg>
