<svg width="22" height="22" viewBox="0 0 22 22" fill="none" xmlns="http://www.w3.org/2000/svg">
<path opacity="0.996" fill-rule="evenodd" clip-rule="evenodd" d="M1.52121 8.0001C4.26418 9.7859 7.05623 11.3019 9.77009 13.146C10.59 13.6869 11.41 13.6869 12.2299 13.146C14.9438 11.3019 17.7358 9.78581 20.4788 8C20.5071 11.459 20.5071 14.9182 20.4788 18.3772C20.2596 19.2242 19.7295 19.758 18.8884 19.9786C13.6295 20.0071 8.37053 20.0071 3.11161 19.9786C2.27046 19.758 1.74033 19.2242 1.52121 18.3772C1.49293 14.9182 1.49293 11.4591 1.52121 8.0001Z" fill="#393939"/>
<path d="M12.5285 2.90502C11.5859 2.34692 10.4141 2.34692 9.47152 2.90502L1.5 7.625C7.80051 8.53692 14.1995 8.53692 20.5 7.625L12.5285 2.90502Z" fill="#CDCDCD"/>
</svg>
