<svg width="160" height="161" viewBox="0 0 160 161" fill="none" xmlns="http://www.w3.org/2000/svg">
<g clip-path="url(#clip0_3229_1958)">
<g filter="url(#filter0_d_3229_1958)">
<path d="M81.0962 15.8617C100.014 2.6155 126.177 14.8154 128.189 37.8216L134.831 113.742C136.844 136.748 113.197 153.306 92.2671 143.546L23.1971 111.338C2.26686 101.578 -0.24911 72.8202 18.6684 59.5741L81.0962 15.8617Z" fill="white"/>
</g>
<path d="M60.6169 79.8118C57.8763 98.3794 55.6893 113.613 55.7308 113.67C55.7862 113.726 56.2983 113.838 56.8797 113.923C57.6409 114.049 57.9455 114.049 57.9731 113.937C58.1254 113.444 67.8837 46.6011 67.8145 46.5027C67.773 46.4183 67.3716 46.3198 66.9425 46.2635C66.4996 46.2214 66.0151 46.137 65.8628 46.1088C65.5999 46.0385 65.3922 47.3467 60.6169 79.8118Z" fill="white"/>
<path d="M60.6169 79.8118C57.8763 98.3794 55.6893 113.613 55.7308 113.67C55.7862 113.726 56.2983 113.838 56.8797 113.923C57.6409 114.049 57.9455 114.049 57.9731 113.937C58.1254 113.444 67.8837 46.6011 67.8145 46.5027C67.773 46.4183 67.3716 46.3198 66.9425 46.2635C66.4996 46.2214 66.0151 46.137 65.8628 46.1088C65.5999 46.0385 65.3922 47.3467 60.6169 79.8118Z" fill="url(#paint0_radial_3229_1958)"/>
<path d="M93.366 46.2627C92.8262 46.3612 92.3279 46.4737 92.2725 46.5159C92.2171 46.5862 102.017 113.88 102.114 114.091C102.169 114.189 104.412 113.767 104.412 113.655C104.425 113.289 94.5287 46.2486 94.4595 46.1783C94.418 46.1361 93.9197 46.1783 93.366 46.2627Z" fill="white"/>
<path d="M93.366 46.2627C92.8262 46.3612 92.3279 46.4737 92.2725 46.5159C92.2171 46.5862 102.017 113.88 102.114 114.091C102.169 114.189 104.412 113.767 104.412 113.655C104.425 113.289 94.5287 46.2486 94.4595 46.1783C94.418 46.1361 93.9197 46.1783 93.366 46.2627Z" fill="url(#paint1_radial_3229_1958)"/>
<path d="M48.8653 49.8652C47.3705 51.1031 46.1385 52.158 46.1385 52.2284C46.1385 52.2987 46.4292 52.7207 46.7891 53.1849C47.149 53.635 47.4535 54.0289 47.4673 54.057C47.5365 54.1555 53.0455 49.6402 53.0455 49.4854C53.0593 49.3166 51.7998 47.6146 51.6752 47.6146C51.6337 47.6146 50.3741 48.6274 48.8653 49.8652Z" fill="white"/>
<path d="M48.8653 49.8652C47.3705 51.1031 46.1385 52.158 46.1385 52.2284C46.1385 52.2987 46.4292 52.7207 46.7891 53.1849C47.149 53.635 47.4535 54.0289 47.4673 54.057C47.5365 54.1555 53.0455 49.6402 53.0455 49.4854C53.0593 49.3166 51.7998 47.6146 51.6752 47.6146C51.6337 47.6146 50.3741 48.6274 48.8653 49.8652Z" fill="url(#paint2_radial_3229_1958)"/>
<path d="M107.706 48.4411C107.332 48.9053 107.042 49.3413 107.042 49.4116C107.042 49.5382 112.564 54.1379 112.634 54.0535C112.647 54.0254 112.952 53.6315 113.312 53.1814C113.672 52.7172 113.962 52.2812 113.962 52.1968C113.948 52.0561 108.73 47.7377 108.453 47.6393C108.398 47.6111 108.066 47.9769 107.706 48.4411Z" fill="white"/>
<path d="M107.706 48.4411C107.332 48.9053 107.042 49.3413 107.042 49.4116C107.042 49.5382 112.564 54.1379 112.634 54.0535C112.647 54.0254 112.952 53.6315 113.312 53.1814C113.672 52.7172 113.962 52.2812 113.962 52.1968C113.948 52.0561 108.73 47.7377 108.453 47.6393C108.398 47.6111 108.066 47.9769 107.706 48.4411Z" fill="url(#paint3_radial_3229_1958)"/>
<path d="M46.8306 56.4606V57.5859H51.2599H55.6892V56.4606V55.3353H51.2599H46.8306V56.4606Z" fill="white"/>
<path d="M46.8306 56.4606V57.5859H51.2599H55.6892V56.4606V55.3353H51.2599H46.8306V56.4606Z" fill="url(#paint4_radial_3229_1958)"/>
<path d="M104.412 56.4606V57.5859H108.841H113.27V56.4606V55.3353H108.841H104.412V56.4606Z" fill="white"/>
<path d="M104.412 56.4606V57.5859H108.841H113.27V56.4606V55.3353H108.841H104.412V56.4606Z" fill="url(#paint5_radial_3229_1958)"/>
<path d="M46.7753 59.7933C46.4985 60.37 46.277 60.8764 46.3047 60.8905C46.3324 60.9186 47.8411 61.6923 49.6821 62.6206L53.004 64.3086L53.53 63.2536C53.8068 62.6769 54.0283 62.1705 54.0006 62.1564C53.9729 62.1283 52.4642 61.3547 50.6233 60.4263L47.3013 58.7383L46.7753 59.7933Z" fill="white"/>
<path d="M46.7753 59.7933C46.4985 60.37 46.277 60.8764 46.3047 60.8905C46.3324 60.9186 47.8411 61.6923 49.6821 62.6206L53.004 64.3086L53.53 63.2536C53.8068 62.6769 54.0283 62.1705 54.0006 62.1564C53.9729 62.1283 52.4642 61.3547 50.6233 60.4263L47.3013 58.7383L46.7753 59.7933Z" fill="url(#paint6_radial_3229_1958)"/>
<path d="M109.464 60.4294C107.637 61.3578 106.114 62.1455 106.073 62.1736C106.045 62.2158 106.252 62.7081 106.529 63.2849L107.041 64.3398L110.391 62.6378C112.246 61.6954 113.768 60.9077 113.796 60.8936C113.824 60.8655 113.602 60.3731 113.312 59.7964L112.786 58.7414L109.464 60.4294Z" fill="white"/>
<path d="M109.464 60.4294C107.637 61.3578 106.114 62.1455 106.073 62.1736C106.045 62.2158 106.252 62.7081 106.529 63.2849L107.041 64.3398L110.391 62.6378C112.246 61.6954 113.768 60.9077 113.796 60.8936C113.824 60.8655 113.602 60.3731 113.312 59.7964L112.786 58.7414L109.464 60.4294Z" fill="url(#paint7_radial_3229_1958)"/>
<path d="M48.7408 80.2051C47.232 81.4289 46.0001 82.4698 46.0001 82.5542C45.9863 82.7652 47.1628 84.3125 47.3428 84.3125C47.495 84.3125 52.9209 79.9941 52.9209 79.8675C52.9209 79.7691 51.7029 78.1514 51.5644 78.067C51.5091 78.0389 50.2356 78.9954 48.7408 80.2051Z" fill="white"/>
<path d="M48.7408 80.2051C47.232 81.4289 46.0001 82.4698 46.0001 82.5542C45.9863 82.7652 47.1628 84.3125 47.3428 84.3125C47.495 84.3125 52.9209 79.9941 52.9209 79.8675C52.9209 79.7691 51.7029 78.1514 51.5644 78.067C51.5091 78.0389 50.2356 78.9954 48.7408 80.2051Z" fill="url(#paint8_radial_3229_1958)"/>
<path d="M107.761 78.7578C107.443 79.1798 107.138 79.6018 107.097 79.7143C107.055 79.8409 108.01 80.713 109.81 82.19L112.592 84.4688L112.855 84.1452C112.993 83.9624 113.326 83.5404 113.602 83.1887C113.865 82.8371 114.045 82.5135 113.99 82.4713C113.533 82.0634 108.453 77.9842 108.412 77.9982C108.384 77.9982 108.093 78.3358 107.761 78.7578Z" fill="white"/>
<path d="M107.761 78.7578C107.443 79.1798 107.138 79.6018 107.097 79.7143C107.055 79.8409 108.01 80.713 109.81 82.19L112.592 84.4688L112.855 84.1452C112.993 83.9624 113.326 83.5404 113.602 83.1887C113.865 82.8371 114.045 82.5135 113.99 82.4713C113.533 82.0634 108.453 77.9842 108.412 77.9982C108.384 77.9982 108.093 78.3358 107.761 78.7578Z" fill="url(#paint9_radial_3229_1958)"/>
<path d="M46.8306 86.8434V87.9688H51.2599H55.6892V86.8434V85.7181H51.2599H46.8306V86.8434Z" fill="white"/>
<path d="M46.8306 86.8434V87.9688H51.2599H55.6892V86.8434V85.7181H51.2599H46.8306V86.8434Z" fill="url(#paint10_radial_3229_1958)"/>
<path d="M104.412 86.8434V87.9688H108.841H113.27V86.8434V85.7181H108.841H104.412V86.8434Z" fill="white"/>
<path d="M104.412 86.8434V87.9688H108.841H113.27V86.8434V85.7181H108.841H104.412V86.8434Z" fill="url(#paint11_radial_3229_1958)"/>
<path d="M46.7337 90.1519C46.4568 90.7286 46.2492 91.2209 46.2769 91.2631C46.3184 91.2913 47.841 92.079 49.6819 93.0073L53.0039 94.6953L53.5299 93.6403C53.8067 93.0636 54.0282 92.5572 54.0005 92.5432C53.9728 92.515 52.4502 91.7414 50.5955 90.7989L47.2458 89.0969L46.7337 90.1519Z" fill="white"/>
<path d="M46.7337 90.1519C46.4568 90.7286 46.2492 91.2209 46.2769 91.2631C46.3184 91.2913 47.841 92.079 49.6819 93.0073L53.0039 94.6953L53.5299 93.6403C53.8067 93.0636 54.0282 92.5572 54.0005 92.5432C53.9728 92.515 52.4502 91.7414 50.5955 90.7989L47.2458 89.0969L46.7337 90.1519Z" fill="url(#paint12_radial_3229_1958)"/>
<path d="M109.367 90.7981C107.554 91.7125 106.073 92.5424 106.073 92.6127C106.073 92.6971 106.294 93.2035 106.557 93.738L107.041 94.7227L110.405 93.0206C112.246 92.0782 113.768 91.3045 113.796 91.2764C113.852 91.2201 112.8 89.0961 112.717 89.1102C112.675 89.1102 111.166 89.8698 109.367 90.7981Z" fill="white"/>
<path d="M109.367 90.7981C107.554 91.7125 106.073 92.5424 106.073 92.6127C106.073 92.6971 106.294 93.2035 106.557 93.738L107.041 94.7227L110.405 93.0206C112.246 92.0782 113.768 91.3045 113.796 91.2764C113.852 91.2201 112.8 89.0961 112.717 89.1102C112.675 89.1102 111.166 89.8698 109.367 90.7981Z" fill="url(#paint13_radial_3229_1958)"/>
<path d="M78.7568 52.2647C76.824 52.802 75.3613 54.5213 74.5255 57.24C74.0554 58.7552 73.9196 59.8943 73.9614 61.7533C74.0032 63.6661 74.1599 64.2786 74.8703 65.321L75.2778 65.9227L74.7449 66.1914C73.0734 67.0403 72.06 68.5555 71.3809 71.2527C71.2451 71.79 70.9943 72.8001 70.8167 73.4879C70.6496 74.1756 70.4302 75.2932 70.3361 75.9594C70.0958 77.7325 69.9391 80.881 70.0227 82.2458L70.0958 83.4493L70.9943 83.5353L71.9032 83.632L72.6972 93.5182C73.136 98.9557 73.5121 103.544 73.533 103.727C73.5748 104.049 73.5853 104.049 74.5151 104.178C77.7225 104.619 80.1672 104.726 82.4029 104.533C84.2417 104.361 86.3102 104.092 86.4147 103.995C86.4774 103.931 88.0863 85.0397 88.149 83.675C88.149 83.632 88.546 83.5675 89.0266 83.5245L89.9042 83.4493L89.9773 82.2565C90.0609 80.8595 89.9042 77.7217 89.6639 75.9594C89.4967 74.7129 88.9534 72.3165 88.8072 72.1769C88.7549 72.1339 88.2326 71.9942 87.6266 71.8652C85.2446 71.3494 82.8835 70.5435 80.888 69.5548C79.4254 68.8241 79.0806 68.5555 80.1567 68.9746C81.9955 69.6945 86.07 70.7369 88.3788 71.07L88.8699 71.1345L88.5669 70.3286C88.1385 69.1787 87.5744 68.0612 86.9789 67.1693C86.4461 66.3741 85.1192 64.9878 84.8894 64.9878C84.8163 64.9878 84.9312 64.8052 85.1401 64.5795C85.673 64.0207 85.955 63.3115 86.0804 62.1509C86.3102 60.1844 85.7147 57.2078 84.7222 55.2735C84.2208 54.2957 82.988 52.9954 82.194 52.6086C81.1179 52.0927 79.8537 51.9638 78.7568 52.2647ZM81.6089 54.7685C84.6491 56.3051 84.8998 61.3987 82.0268 63.3974C79.3836 65.235 76.0613 62.9998 75.9986 59.3462C75.9882 58.8734 76.0509 58.2179 76.124 57.8955C76.7926 55.0801 79.3523 53.6294 81.6089 54.7685Z" fill="url(#paint14_radial_3229_1958)"/>
<path d="M78.7568 52.2647C76.824 52.802 75.3613 54.5213 74.5255 57.24C74.0554 58.7552 73.9196 59.8943 73.9614 61.7533C74.0032 63.6661 74.1599 64.2786 74.8703 65.321L75.2778 65.9227L74.7449 66.1914C73.0734 67.0403 72.06 68.5555 71.3809 71.2527C71.2451 71.79 70.9943 72.8001 70.8167 73.4879C70.6496 74.1756 70.4302 75.2932 70.3361 75.9594C70.0958 77.7325 69.9391 80.881 70.0227 82.2458L70.0958 83.4493L70.9943 83.5353L71.9032 83.632L72.6972 93.5182C73.136 98.9557 73.5121 103.544 73.533 103.727C73.5748 104.049 73.5853 104.049 74.5151 104.178C77.7225 104.619 80.1672 104.726 82.4029 104.533C84.2417 104.361 86.3102 104.092 86.4147 103.995C86.4774 103.931 88.0863 85.0397 88.149 83.675C88.149 83.632 88.546 83.5675 89.0266 83.5245L89.9042 83.4493L89.9773 82.2565C90.0609 80.8595 89.9042 77.7217 89.6639 75.9594C89.4967 74.7129 88.9534 72.3165 88.8072 72.1769C88.7549 72.1339 88.2326 71.9942 87.6266 71.8652C85.2446 71.3494 82.8835 70.5435 80.888 69.5548C79.4254 68.8241 79.0806 68.5555 80.1567 68.9746C81.9955 69.6945 86.07 70.7369 88.3788 71.07L88.8699 71.1345L88.5669 70.3286C88.1385 69.1787 87.5744 68.0612 86.9789 67.1693C86.4461 66.3741 85.1192 64.9878 84.8894 64.9878C84.8163 64.9878 84.9312 64.8052 85.1401 64.5795C85.673 64.0207 85.955 63.3115 86.0804 62.1509C86.3102 60.1844 85.7147 57.2078 84.7222 55.2735C84.2208 54.2957 82.988 52.9954 82.194 52.6086C81.1179 52.0927 79.8537 51.9638 78.7568 52.2647ZM81.6089 54.7685C84.6491 56.3051 84.8998 61.3987 82.0268 63.3974C79.3836 65.235 76.0613 62.9998 75.9986 59.3462C75.9882 58.8734 76.0509 58.2179 76.124 57.8955C76.7926 55.0801 79.3523 53.6294 81.6089 54.7685Z" fill="url(#paint15_radial_3229_1958)"/>
<path d="M79.3418 54.8905C78.2866 55.1592 77.4404 55.9329 76.8867 57.1257C76.0509 58.931 76.4374 61.3703 77.7642 62.6276C78.412 63.2401 78.997 63.5087 79.8015 63.5732C80.8671 63.6484 81.4626 63.4013 82.3089 62.5309C83.0715 61.7464 83.385 61.0802 83.573 59.8551C83.7715 58.5764 83.3118 57.0075 82.4656 55.9974C81.7552 55.1592 80.3134 54.6434 79.3418 54.8905Z" fill="url(#paint16_radial_3229_1958)"/>
<path d="M79.3418 54.8905C78.2866 55.1592 77.4404 55.9329 76.8867 57.1257C76.0509 58.931 76.4374 61.3703 77.7642 62.6276C78.412 63.2401 78.997 63.5087 79.8015 63.5732C80.8671 63.6484 81.4626 63.4013 82.3089 62.5309C83.0715 61.7464 83.385 61.0802 83.573 59.8551C83.7715 58.5764 83.3118 57.0075 82.4656 55.9974C81.7552 55.1592 80.3134 54.6434 79.3418 54.8905Z" fill="url(#paint17_radial_3229_1958)"/>
<path d="M70.545 84.1171C70.5032 84.1815 70.5032 84.4717 70.545 84.7726C70.6181 85.3206 70.942 85.8364 71.3599 86.0621C71.5689 86.1803 71.5689 86.1695 71.4957 85.1809C71.4539 84.6329 71.4122 84.1708 71.4017 84.16C71.2763 84.0633 70.5973 84.0311 70.545 84.1171Z" fill="url(#paint18_radial_3229_1958)"/>
<path d="M70.545 84.1171C70.5032 84.1815 70.5032 84.4717 70.545 84.7726C70.6181 85.3206 70.942 85.8364 71.3599 86.0621C71.5689 86.1803 71.5689 86.1695 71.4957 85.1809C71.4539 84.6329 71.4122 84.1708 71.4017 84.16C71.2763 84.0633 70.5973 84.0311 70.545 84.1171Z" fill="url(#paint19_radial_3229_1958)"/>
<path d="M88.8594 84.0862C88.5982 84.1292 88.5668 84.1721 88.5668 84.5805C88.5668 84.8276 88.5355 85.2897 88.4937 85.6121L88.431 86.2031L88.7758 85.9882C89.225 85.7196 89.5071 85.1608 89.5071 84.5268C89.5071 83.9787 89.5176 83.9787 88.8594 84.0862Z" fill="url(#paint20_radial_3229_1958)"/>
<path d="M88.8594 84.0862C88.5982 84.1292 88.5668 84.1721 88.5668 84.5805C88.5668 84.8276 88.5355 85.2897 88.4937 85.6121L88.431 86.2031L88.7758 85.9882C89.225 85.7196 89.5071 85.1608 89.5071 84.5268C89.5071 83.9787 89.5176 83.9787 88.8594 84.0862Z" fill="url(#paint21_radial_3229_1958)"/>
<path d="M75.1942 105.104C75.1942 105.512 75.3509 105.856 75.7374 106.308C76.6359 107.371 78.1403 107.371 79.0388 106.308C79.3522 105.953 79.5821 105.523 79.5821 105.297C79.5821 105.254 78.8612 105.158 77.9941 105.093C77.1165 105.018 76.124 104.932 75.8001 104.889C75.2046 104.825 75.1942 104.835 75.1942 105.104Z" fill="url(#paint22_radial_3229_1958)"/>
<path d="M75.1942 105.104C75.1942 105.512 75.3509 105.856 75.7374 106.308C76.6359 107.371 78.1403 107.371 79.0388 106.308C79.3522 105.953 79.5821 105.523 79.5821 105.297C79.5821 105.254 78.8612 105.158 77.9941 105.093C77.1165 105.018 76.124 104.932 75.8001 104.889C75.2046 104.825 75.1942 104.835 75.1942 105.104Z" fill="url(#paint23_radial_3229_1958)"/>
<path d="M83.9596 104.899C83.9387 104.92 83.1447 105.006 82.194 105.081C81.2433 105.146 80.4597 105.221 80.4388 105.232C80.3239 105.328 80.8358 106.22 81.1806 106.521C82.497 107.682 84.5029 106.962 84.8581 105.199L84.9312 104.856H84.4611C84.2104 104.856 83.9805 104.877 83.9596 104.899Z" fill="url(#paint24_radial_3229_1958)"/>
<path d="M83.9596 104.899C83.9387 104.92 83.1447 105.006 82.194 105.081C81.2433 105.146 80.4597 105.221 80.4388 105.232C80.3239 105.328 80.8358 106.22 81.1806 106.521C82.497 107.682 84.5029 106.962 84.8581 105.199L84.9312 104.856H84.4611C84.2104 104.856 83.9805 104.877 83.9596 104.899Z" fill="url(#paint25_radial_3229_1958)"/>
</g>
<defs>
<filter id="filter0_d_3229_1958" x="-7.12671" y="7.39844" width="145.078" height="152.004" filterUnits="userSpaceOnUse" color-interpolation-filters="sRGB">
<feFlood flood-opacity="0" result="BackgroundImageFix"/>
<feColorMatrix in="SourceAlpha" type="matrix" values="0 0 0 0 0 0 0 0 0 0 0 0 0 0 0 0 0 0 127 0" result="hardAlpha"/>
<feOffset dx="-5" dy="5"/>
<feGaussianBlur stdDeviation="4"/>
<feComposite in2="hardAlpha" operator="out"/>
<feColorMatrix type="matrix" values="0 0 0 0 0 0 0 0 0 0 0 0 0 0 0 0 0 0 0.25 0"/>
<feBlend mode="normal" in2="BackgroundImageFix" result="effect1_dropShadow_3229_1958"/>
<feBlend mode="normal" in="SourceGraphic" in2="effect1_dropShadow_3229_1958" result="shape"/>
</filter>
<radialGradient id="paint0_radial_3229_1958" cx="0" cy="0" r="1" gradientUnits="userSpaceOnUse" gradientTransform="translate(58.0802 100.438) rotate(-75.6254) scale(75.1852 38.6013)">
<stop stop-color="#00862D"/>
<stop offset="0.627261" stop-color="#0033CC"/>
</radialGradient>
<radialGradient id="paint1_radial_3229_1958" cx="0" cy="0" r="1" gradientUnits="userSpaceOnUse" gradientTransform="translate(94.6329 100.518) rotate(-75.5693) scale(75.238 38.7661)">
<stop stop-color="#00862D"/>
<stop offset="0.627261" stop-color="#0033CC"/>
</radialGradient>
<radialGradient id="paint2_radial_3229_1958" cx="0" cy="0" r="1" gradientUnits="userSpaceOnUse" gradientTransform="translate(47.4817 52.7699) rotate(-32.9339) scale(12.7111 12.3826)">
<stop stop-color="#00862D"/>
<stop offset="0.627261" stop-color="#0033CC"/>
</radialGradient>
<radialGradient id="paint3_radial_3229_1958" cx="0" cy="0" r="1" gradientUnits="userSpaceOnUse" gradientTransform="translate(108.387 52.7714) rotate(-32.7723) scale(12.7132 12.3531)">
<stop stop-color="#00862D"/>
<stop offset="0.627261" stop-color="#0033CC"/>
</radialGradient>
<radialGradient id="paint4_radial_3229_1958" cx="0" cy="0" r="1" gradientUnits="userSpaceOnUse" gradientTransform="translate(48.5532 57.1358) rotate(-10.004) scale(13.8939 5.07445)">
<stop stop-color="#00862D"/>
<stop offset="0.627261" stop-color="#0033CC"/>
</radialGradient>
<radialGradient id="paint5_radial_3229_1958" cx="0" cy="0" r="1" gradientUnits="userSpaceOnUse" gradientTransform="translate(106.134 57.1358) rotate(-10.004) scale(13.8939 5.07445)">
<stop stop-color="#00862D"/>
<stop offset="0.627261" stop-color="#0033CC"/>
</radialGradient>
<radialGradient id="paint6_radial_3229_1958" cx="0" cy="0" r="1" gradientUnits="userSpaceOnUse" gradientTransform="translate(47.7998 63.1946) rotate(-26.6677) scale(13.3099 11.3965)">
<stop stop-color="#00862D"/>
<stop offset="0.627261" stop-color="#0033CC"/>
</radialGradient>
<radialGradient id="paint7_radial_3229_1958" cx="0" cy="0" r="1" gradientUnits="userSpaceOnUse" gradientTransform="translate(107.573 63.2202) rotate(-26.7006) scale(13.3618 11.4508)">
<stop stop-color="#00862D"/>
<stop offset="0.627261" stop-color="#0033CC"/>
</radialGradient>
<radialGradient id="paint8_radial_3229_1958" cx="0" cy="0" r="1" gradientUnits="userSpaceOnUse" gradientTransform="translate(47.3458 83.0634) rotate(-32.072) scale(12.6151 12.1179)">
<stop stop-color="#00862D"/>
<stop offset="0.627261" stop-color="#0033CC"/>
</radialGradient>
<radialGradient id="paint9_radial_3229_1958" cx="0" cy="0" r="1" gradientUnits="userSpaceOnUse" gradientTransform="translate(108.438 83.1747) rotate(-33.0516) scale(12.7232 12.4171)">
<stop stop-color="#00862D"/>
<stop offset="0.627261" stop-color="#0033CC"/>
</radialGradient>
<radialGradient id="paint10_radial_3229_1958" cx="0" cy="0" r="1" gradientUnits="userSpaceOnUse" gradientTransform="translate(48.5532 87.5187) rotate(-10.004) scale(13.8939 5.07445)">
<stop stop-color="#00862D"/>
<stop offset="0.627261" stop-color="#0033CC"/>
</radialGradient>
<radialGradient id="paint11_radial_3229_1958" cx="0" cy="0" r="1" gradientUnits="userSpaceOnUse" gradientTransform="translate(106.134 87.5187) rotate(-10.004) scale(13.8939 5.07445)">
<stop stop-color="#00862D"/>
<stop offset="0.627261" stop-color="#0033CC"/>
</radialGradient>
<radialGradient id="paint12_radial_3229_1958" cx="0" cy="0" r="1" gradientUnits="userSpaceOnUse" gradientTransform="translate(47.7773 93.5757) rotate(-26.7006) scale(13.3618 11.4508)">
<stop stop-color="#00862D"/>
<stop offset="0.627261" stop-color="#0033CC"/>
</radialGradient>
<radialGradient id="paint13_radial_3229_1958" cx="0" cy="0" r="1" gradientUnits="userSpaceOnUse" gradientTransform="translate(107.575 93.6002) rotate(-26.7667) scale(13.3649 11.473)">
<stop stop-color="#00862D"/>
<stop offset="0.627261" stop-color="#0033CC"/>
</radialGradient>
<radialGradient id="paint14_radial_3229_1958" cx="0" cy="0" r="1" gradientUnits="userSpaceOnUse" gradientTransform="translate(73.8892 94.1216) rotate(-61.257) scale(64.2389 57.8236)">
<stop stop-color="white"/>
<stop offset="0.627261" stop-color="white"/>
</radialGradient>
<radialGradient id="paint15_radial_3229_1958" cx="0" cy="0" r="1" gradientUnits="userSpaceOnUse" gradientTransform="translate(73.8892 94.1216) rotate(-61.257) scale(64.2389 57.8236)">
<stop stop-color="#00862D"/>
<stop offset="0.627261" stop-color="#0033CC"/>
</radialGradient>
<radialGradient id="paint16_radial_3229_1958" cx="0" cy="0" r="1" gradientUnits="userSpaceOnUse" gradientTransform="translate(77.8409 61.8345) rotate(-40.2883) scale(14.524 15.2944)">
<stop stop-color="white"/>
<stop offset="0.627261" stop-color="white"/>
</radialGradient>
<radialGradient id="paint17_radial_3229_1958" cx="0" cy="0" r="1" gradientUnits="userSpaceOnUse" gradientTransform="translate(77.8409 61.8345) rotate(-40.2883) scale(14.524 15.2944)">
<stop stop-color="#00862D"/>
<stop offset="0.627261" stop-color="#0033CC"/>
</radialGradient>
<radialGradient id="paint18_radial_3229_1958" cx="0" cy="0" r="1" gradientUnits="userSpaceOnUse" gradientTransform="translate(70.7132 85.7041) rotate(-54.1543) scale(2.70697 2.74327)">
<stop stop-color="white"/>
<stop offset="0.627261" stop-color="white"/>
</radialGradient>
<radialGradient id="paint19_radial_3229_1958" cx="0" cy="0" r="1" gradientUnits="userSpaceOnUse" gradientTransform="translate(70.7132 85.7041) rotate(-54.1543) scale(2.70697 2.74327)">
<stop stop-color="#00862D"/>
<stop offset="0.627261" stop-color="#0033CC"/>
</radialGradient>
<radialGradient id="paint20_radial_3229_1958" cx="0" cy="0" r="1" gradientUnits="userSpaceOnUse" gradientTransform="translate(88.6403 85.7686) rotate(-54.4996) scale(2.86218 2.88879)">
<stop stop-color="white"/>
<stop offset="0.627261" stop-color="white"/>
</radialGradient>
<radialGradient id="paint21_radial_3229_1958" cx="0" cy="0" r="1" gradientUnits="userSpaceOnUse" gradientTransform="translate(88.6403 85.7686) rotate(-54.4996) scale(2.86218 2.88879)">
<stop stop-color="#00862D"/>
<stop offset="0.627261" stop-color="#0033CC"/>
</radialGradient>
<radialGradient id="paint22_radial_3229_1958" cx="0" cy="0" r="1" gradientUnits="userSpaceOnUse" gradientTransform="translate(76.0474 106.656) rotate(-19.5905) scale(7.19384 4.85141)">
<stop stop-color="white"/>
<stop offset="0.627261" stop-color="white"/>
</radialGradient>
<radialGradient id="paint23_radial_3229_1958" cx="0" cy="0" r="1" gradientUnits="userSpaceOnUse" gradientTransform="translate(76.0474 106.656) rotate(-19.5905) scale(7.19384 4.85141)">
<stop stop-color="#00862D"/>
<stop offset="0.627261" stop-color="#0033CC"/>
</radialGradient>
<radialGradient id="paint24_radial_3229_1958" cx="0" cy="0" r="1" gradientUnits="userSpaceOnUse" gradientTransform="translate(81.2992 106.64) rotate(-18.9553) scale(7.36353 4.82953)">
<stop stop-color="white"/>
<stop offset="0.627261" stop-color="white"/>
</radialGradient>
<radialGradient id="paint25_radial_3229_1958" cx="0" cy="0" r="1" gradientUnits="userSpaceOnUse" gradientTransform="translate(81.2992 106.64) rotate(-18.9553) scale(7.36353 4.82953)">
<stop stop-color="#00862D"/>
<stop offset="0.627261" stop-color="#0033CC"/>
</radialGradient>
<clipPath id="clip0_3229_1958">
<rect width="160" height="160" fill="white" transform="translate(0 0.105469)"/>
</clipPath>
</defs>
</svg>
