<svg width="160" height="161" viewBox="0 0 160 161" fill="none" xmlns="http://www.w3.org/2000/svg">
<g clip-path="url(#clip0_3229_2013)">
<g filter="url(#filter0_d_3229_2013)">
<path d="M81.0962 15.8617C100.014 2.6155 126.177 14.8154 128.189 37.8216L134.831 113.742C136.844 136.748 113.197 153.306 92.2671 143.546L23.1971 111.338C2.26686 101.578 -0.24911 72.8202 18.6684 59.5741L81.0962 15.8617Z" fill="white"/>
</g>
<path d="M50.2578 50.3774C50 50.647 50 50.6587 50 56.4133V62.1797H56.0359H62.0719V56.1438V50.1078H56.2938H50.504L50.2578 50.3774Z" fill="white"/>
<path d="M50.2578 50.3774C50 50.647 50 50.6587 50 56.4133V62.1797H56.0359H62.0719V56.1438V50.1078H56.2938H50.504L50.2578 50.3774Z" fill="url(#paint0_radial_3229_2013)"/>
<path d="M63.9471 56.6695C63.9471 61.217 63.9119 63.3032 63.8182 63.5024C63.7479 63.6665 63.5603 63.854 63.3963 63.9243C63.197 64.0181 61.1108 64.0533 56.5633 64.0533H50V67.1005V70.1478L56.6923 70.1712L63.3845 70.2064L63.6658 70.5345L63.9471 70.8627V78.9731V87.0835L56.9736 94.0571L50 101.031V103.339V105.648L50.3047 105.883C50.5977 106.117 50.7735 106.129 52.8597 106.129H55.0983L71.4481 89.7792C82.4182 78.809 87.8799 73.4294 88.0322 73.4294C88.4424 73.4412 88.7237 73.6756 90.9506 75.9727L93.154 78.223H94.8065C96.6935 78.223 97.76 78.3519 99.3071 78.7622C101.276 79.2778 103.245 80.2155 104.839 81.3758C105.249 81.6805 105.683 81.9969 105.8 82.0907C106.011 82.2431 106.023 82.2079 106.023 81.3758V80.4967L100.081 74.6835C96.799 71.4839 94.0096 68.6945 93.8689 68.4952C93.7166 68.2843 93.5993 68.0147 93.5993 67.8741C93.5993 67.71 95.5918 65.6472 99.8111 61.4162L106.023 55.2045V52.9659C106.023 50.8797 106.011 50.7039 105.777 50.4109L105.542 50.1062H103.233H100.925L86.157 64.8737C72.8311 78.1996 71.3543 79.6412 71.0261 79.6412C70.8152 79.6412 70.5339 79.5357 70.3815 79.4185L70.1002 79.1958L70.0651 64.651L70.0416 50.1062H66.9944H63.9471V56.6695Z" fill="white"/>
<path d="M63.9471 56.6695C63.9471 61.217 63.9119 63.3032 63.8182 63.5024C63.7479 63.6665 63.5603 63.854 63.3963 63.9243C63.197 64.0181 61.1108 64.0533 56.5633 64.0533H50V67.1005V70.1478L56.6923 70.1712L63.3845 70.2064L63.6658 70.5345L63.9471 70.8627V78.9731V87.0835L56.9736 94.0571L50 101.031V103.339V105.648L50.3047 105.883C50.5977 106.117 50.7735 106.129 52.8597 106.129H55.0983L71.4481 89.7792C82.4182 78.809 87.8799 73.4294 88.0322 73.4294C88.4424 73.4412 88.7237 73.6756 90.9506 75.9727L93.154 78.223H94.8065C96.6935 78.223 97.76 78.3519 99.3071 78.7622C101.276 79.2778 103.245 80.2155 104.839 81.3758C105.249 81.6805 105.683 81.9969 105.8 82.0907C106.011 82.2431 106.023 82.2079 106.023 81.3758V80.4967L100.081 74.6835C96.799 71.4839 94.0096 68.6945 93.8689 68.4952C93.7166 68.2843 93.5993 68.0147 93.5993 67.8741C93.5993 67.71 95.5918 65.6472 99.8111 61.4162L106.023 55.2045V52.9659C106.023 50.8797 106.011 50.7039 105.777 50.4109L105.542 50.1062H103.233H100.925L86.157 64.8737C72.8311 78.1996 71.3543 79.6412 71.0261 79.6412C70.8152 79.6412 70.5339 79.5357 70.3815 79.4185L70.1002 79.1958L70.0651 64.651L70.0416 50.1062H66.9944H63.9471V56.6695Z" fill="url(#paint1_radial_3229_2013)"/>
<path d="M71.9169 63.2327C71.9169 70.4524 71.9521 76.3594 72.0107 76.3594C72.0575 76.3594 77.9997 70.4524 85.2194 63.2327L98.3461 50.106H85.1256H71.9169V63.2327Z" fill="white"/>
<path d="M71.9169 63.2327C71.9169 70.4524 71.9521 76.3594 72.0107 76.3594C72.0575 76.3594 77.9997 70.4524 85.2194 63.2327L98.3461 50.106H85.1256H71.9169V63.2327Z" fill="url(#paint2_radial_3229_2013)"/>
<path d="M100.925 62.8965L95.8848 67.9362L100.925 72.9056L105.964 77.8633L105.999 72.8236C106.011 70.0576 106.011 65.557 105.999 62.8145L105.964 57.8451L100.925 62.8965Z" fill="white"/>
<path d="M100.925 62.8965L95.8848 67.9362L100.925 72.9056L105.964 77.8633L105.999 72.8236C106.011 70.0576 106.011 65.557 105.999 62.8145L105.964 57.8451L100.925 62.8965Z" fill="url(#paint3_radial_3229_2013)"/>
<path d="M50 85.2327V98.4531L56.0359 92.4172L62.0719 86.3813V79.2085V72.024H56.0359H50V85.2327Z" fill="white"/>
<path d="M50 85.2327V98.4531L56.0359 92.4172L62.0719 86.3813V79.2085V72.024H56.0359H50V85.2327Z" fill="url(#paint4_radial_3229_2013)"/>
<path d="M72.8545 90.9512L57.6768 106.129H69.9127C81.8674 106.129 82.1369 106.129 81.9846 105.906C81.8908 105.789 81.5744 105.344 81.2696 104.933C79.4999 102.519 78.363 99.3898 78.152 96.4246C77.8004 91.1856 79.5936 86.5327 83.3793 82.8994C85.2194 81.1414 87.5282 79.7701 89.9426 78.9966C90.47 78.8208 90.9037 78.645 90.9037 78.6098C90.9037 78.516 88.1846 75.7735 88.0908 75.7735C88.0557 75.7735 81.1993 82.6064 72.8545 90.9512Z" fill="white"/>
<path d="M72.8545 90.9512L57.6768 106.129H69.9127C81.8674 106.129 82.1369 106.129 81.9846 105.906C81.8908 105.789 81.5744 105.344 81.2696 104.933C79.4999 102.519 78.363 99.3898 78.152 96.4246C77.8004 91.1856 79.5936 86.5327 83.3793 82.8994C85.2194 81.1414 87.5282 79.7701 89.9426 78.9966C90.47 78.8208 90.9037 78.645 90.9037 78.6098C90.9037 78.516 88.1846 75.7735 88.0908 75.7735C88.0557 75.7735 81.1993 82.6064 72.8545 90.9512Z" fill="url(#paint5_radial_3229_2013)"/>
<path d="M92.4273 80.2863C90.6693 80.6144 89.3566 81.0715 87.8799 81.8685C84.3052 83.7906 81.5744 87.2129 80.5078 91.0572C79.9804 92.991 79.8398 95.7687 80.1914 97.726C81.2697 103.891 86.2273 108.86 92.3922 109.938C93.7283 110.161 96.2833 110.161 97.6194 109.938C103.796 108.848 108.742 103.903 109.832 97.726C110.055 96.3899 110.055 93.8349 109.832 92.4987C108.836 86.8613 104.558 82.1263 99.061 80.6144C97.1975 80.1105 94.1619 79.9581 92.4273 80.2863ZM100.62 92.4636C102.636 94.4677 102.894 94.7842 102.894 95.1124C102.894 95.4405 102.636 95.757 100.62 97.7611C98.768 99.6129 98.2757 100.035 98.0179 100.035C97.5608 100.035 97.1154 99.5543 97.1154 99.0855C97.1154 98.7691 97.303 98.5112 98.4281 97.3744L99.7408 96.05H93.7517H87.751L87.4345 95.7804C87.2001 95.5812 87.1181 95.3936 87.1181 95.1124C87.1181 94.8311 87.2001 94.6435 87.4345 94.4443L87.751 94.1747H93.7517H99.7408L98.4281 92.8504C97.303 91.7135 97.1154 91.4556 97.1154 91.1392C97.1154 90.6704 97.5608 90.1899 98.0179 90.1899C98.2757 90.1899 98.768 90.6118 100.62 92.4636Z" fill="white"/>
<path d="M92.4273 80.2863C90.6693 80.6144 89.3566 81.0715 87.8799 81.8685C84.3052 83.7906 81.5744 87.2129 80.5078 91.0572C79.9804 92.991 79.8398 95.7687 80.1914 97.726C81.2697 103.891 86.2273 108.86 92.3922 109.938C93.7283 110.161 96.2833 110.161 97.6194 109.938C103.796 108.848 108.742 103.903 109.832 97.726C110.055 96.3899 110.055 93.8349 109.832 92.4987C108.836 86.8613 104.558 82.1263 99.061 80.6144C97.1975 80.1105 94.1619 79.9581 92.4273 80.2863ZM100.62 92.4636C102.636 94.4677 102.894 94.7842 102.894 95.1124C102.894 95.4405 102.636 95.757 100.62 97.7611C98.768 99.6129 98.2757 100.035 98.0179 100.035C97.5608 100.035 97.1154 99.5543 97.1154 99.0855C97.1154 98.7691 97.303 98.5112 98.4281 97.3744L99.7408 96.05H93.7517H87.751L87.4345 95.7804C87.2001 95.5812 87.1181 95.3936 87.1181 95.1124C87.1181 94.8311 87.2001 94.6435 87.4345 94.4443L87.751 94.1747H93.7517H99.7408L98.4281 92.8504C97.303 91.7135 97.1154 91.4556 97.1154 91.1392C97.1154 90.6704 97.5608 90.1899 98.0179 90.1899C98.2757 90.1899 98.768 90.6118 100.62 92.4636Z" fill="url(#paint6_radial_3229_2013)"/>
</g>
<defs>
<filter id="filter0_d_3229_2013" x="-7.12665" y="7.39844" width="145.078" height="152.004" filterUnits="userSpaceOnUse" color-interpolation-filters="sRGB">
<feFlood flood-opacity="0" result="BackgroundImageFix"/>
<feColorMatrix in="SourceAlpha" type="matrix" values="0 0 0 0 0 0 0 0 0 0 0 0 0 0 0 0 0 0 127 0" result="hardAlpha"/>
<feOffset dx="-5" dy="5"/>
<feGaussianBlur stdDeviation="4"/>
<feComposite in2="hardAlpha" operator="out"/>
<feColorMatrix type="matrix" values="0 0 0 0 0 0 0 0 0 0 0 0 0 0 0 0 0 0 0.25 0"/>
<feBlend mode="normal" in2="BackgroundImageFix" result="effect1_dropShadow_3229_2013"/>
<feBlend mode="normal" in="SourceGraphic" in2="effect1_dropShadow_3229_2013" result="shape"/>
</filter>
<radialGradient id="paint0_radial_3229_2013" cx="0" cy="0" r="1" gradientUnits="userSpaceOnUse" gradientTransform="translate(52.3475 59.7655) rotate(-34.773) scale(22.6995 22.7028)">
<stop stop-color="#00862D"/>
<stop offset="0.627261" stop-color="#0033CC"/>
</radialGradient>
<radialGradient id="paint1_radial_3229_2013" cx="0" cy="0" r="1" gradientUnits="userSpaceOnUse" gradientTransform="translate(60.8942 94.925) rotate(-34.773) scale(105.343 105.359)">
<stop stop-color="#00862D"/>
<stop offset="0.627261" stop-color="#0033CC"/>
</radialGradient>
<radialGradient id="paint2_radial_3229_2013" cx="0" cy="0" r="1" gradientUnits="userSpaceOnUse" gradientTransform="translate(77.0563 71.109) rotate(-34.5941) scale(49.5891 49.4799)">
<stop stop-color="#00862D"/>
<stop offset="0.627261" stop-color="#0033CC"/>
</radialGradient>
<radialGradient id="paint3_radial_3229_2013" cx="0" cy="0" r="1" gradientUnits="userSpaceOnUse" gradientTransform="translate(97.8534 73.8599) rotate(-53.9322) scale(26.5586 26.983)">
<stop stop-color="#00862D"/>
<stop offset="0.627261" stop-color="#0033CC"/>
</radialGradient>
<radialGradient id="paint4_radial_3229_2013" cx="0" cy="0" r="1" gradientUnits="userSpaceOnUse" gradientTransform="translate(52.3475 93.1676) rotate(-56.6608) scale(33.9264 33.2557)">
<stop stop-color="#00862D"/>
<stop offset="0.627261" stop-color="#0033CC"/>
</radialGradient>
<radialGradient id="paint5_radial_3229_2013" cx="0" cy="0" r="1" gradientUnits="userSpaceOnUse" gradientTransform="translate(64.138 100.058) rotate(-32.3876) scale(60.775 58.6878)">
<stop stop-color="#00862D"/>
<stop offset="0.627261" stop-color="#0033CC"/>
</radialGradient>
<radialGradient id="paint6_radial_3229_2013" cx="0" cy="0" r="1" gradientUnits="userSpaceOnUse" gradientTransform="translate(85.8319 104.107) rotate(-34.7657) scale(56.4077 56.4106)">
<stop stop-color="#00862D"/>
<stop offset="0.627261" stop-color="#0033CC"/>
</radialGradient>
<clipPath id="clip0_3229_2013">
<rect width="160" height="160" fill="white" transform="translate(0 0.105469)"/>
</clipPath>
</defs>
</svg>
