<svg width="160" height="161" viewBox="0 0 160 161" fill="none" xmlns="http://www.w3.org/2000/svg">
<g clip-path="url(#clip0_3229_1966)">
<g filter="url(#filter0_d_3229_1966)">
<path d="M81.0962 16.1703C100.014 2.92409 126.177 15.124 128.189 38.1302L134.831 114.05C136.844 137.057 113.197 153.614 92.2671 143.854L23.1971 111.646C2.26686 101.887 -0.24911 73.1288 18.6684 59.8827L81.0962 16.1703Z" fill="white"/>
</g>
<g clip-path="url(#clip1_3229_1966)">
<path d="M77.9082 35.6929C74.6562 36.5718 72.1953 39.3843 70.7891 43.8316C69.998 46.3101 69.7695 48.1734 69.8398 51.2144C69.9102 54.3433 70.1738 55.3452 71.3691 57.0503L72.0547 58.0347L71.1582 58.4741C68.3457 59.8628 66.6406 62.3413 65.498 66.7534C65.2695 67.6324 64.8477 69.2847 64.5488 70.4097C64.2676 71.5347 63.8984 73.3628 63.7402 74.4527C63.3359 77.3531 63.0723 82.5034 63.2129 84.7359L63.3359 86.7046L64.8477 86.8452L66.3769 87.0034L67.7129 103.175C68.4512 112.07 69.084 119.576 69.1191 119.875C69.1894 120.402 69.207 120.402 70.7715 120.613C76.168 121.334 80.2812 121.509 84.043 121.193C87.1367 120.912 90.6172 120.472 90.793 120.314C90.8984 120.209 93.6055 89.3062 93.7109 87.0738C93.7109 87.0034 94.3789 86.898 95.1875 86.8277L96.6641 86.7046L96.7871 84.7534C96.9277 82.4683 96.6641 77.3355 96.2598 74.4527C95.9785 72.4136 95.0644 68.4937 94.8184 68.2652C94.7305 68.1949 93.8516 67.9663 92.832 67.7554C88.8242 66.9116 84.8516 65.5933 81.4941 63.9761C79.0332 62.7808 78.4531 62.3413 80.2637 63.0269C83.3574 64.2046 90.2129 65.9097 94.0977 66.4546L94.9238 66.5601L94.4141 65.2417C93.6934 63.3609 92.7441 61.5327 91.7422 60.0738C90.8457 58.773 88.6133 56.5054 88.2266 56.5054C88.1035 56.5054 88.2969 56.2066 88.6484 55.8374C89.5449 54.9234 90.0195 53.7632 90.2305 51.8648C90.6172 48.648 89.6152 43.7788 87.9453 40.6148C87.1016 39.0152 85.0273 36.8882 83.6914 36.2554C81.8809 35.4116 79.7539 35.2007 77.9082 35.6929ZM82.707 39.7886C87.8223 42.3023 88.2441 50.6343 83.4102 53.9038C78.9629 56.9097 73.373 53.2534 73.2676 47.2769C73.25 46.5034 73.3555 45.4312 73.4785 44.9038C74.6035 40.2984 78.9102 37.9253 82.707 39.7886Z" fill="url(#paint0_radial_3229_1966)"/>
<path d="M77.9082 35.6929C74.6562 36.5718 72.1953 39.3843 70.7891 43.8316C69.998 46.3101 69.7695 48.1734 69.8398 51.2144C69.9102 54.3433 70.1738 55.3452 71.3691 57.0503L72.0547 58.0347L71.1582 58.4741C68.3457 59.8628 66.6406 62.3413 65.498 66.7534C65.2695 67.6324 64.8477 69.2847 64.5488 70.4097C64.2676 71.5347 63.8984 73.3628 63.7402 74.4527C63.3359 77.3531 63.0723 82.5034 63.2129 84.7359L63.3359 86.7046L64.8477 86.8452L66.3769 87.0034L67.7129 103.175C68.4512 112.07 69.084 119.576 69.1191 119.875C69.1894 120.402 69.207 120.402 70.7715 120.613C76.168 121.334 80.2812 121.509 84.043 121.193C87.1367 120.912 90.6172 120.472 90.793 120.314C90.8984 120.209 93.6055 89.3062 93.7109 87.0738C93.7109 87.0034 94.3789 86.898 95.1875 86.8277L96.6641 86.7046L96.7871 84.7534C96.9277 82.4683 96.6641 77.3355 96.2598 74.4527C95.9785 72.4136 95.0644 68.4937 94.8184 68.2652C94.7305 68.1949 93.8516 67.9663 92.832 67.7554C88.8242 66.9116 84.8516 65.5933 81.4941 63.9761C79.0332 62.7808 78.4531 62.3413 80.2637 63.0269C83.3574 64.2046 90.2129 65.9097 94.0977 66.4546L94.9238 66.5601L94.4141 65.2417C93.6934 63.3609 92.7441 61.5327 91.7422 60.0738C90.8457 58.773 88.6133 56.5054 88.2266 56.5054C88.1035 56.5054 88.2969 56.2066 88.6484 55.8374C89.5449 54.9234 90.0195 53.7632 90.2305 51.8648C90.6172 48.648 89.6152 43.7788 87.9453 40.6148C87.1016 39.0152 85.0273 36.8882 83.6914 36.2554C81.8809 35.4116 79.7539 35.2007 77.9082 35.6929ZM82.707 39.7886C87.8223 42.3023 88.2441 50.6343 83.4102 53.9038C78.9629 56.9097 73.373 53.2534 73.2676 47.2769C73.25 46.5034 73.3555 45.4312 73.4785 44.9038C74.6035 40.2984 78.9102 37.9253 82.707 39.7886Z" fill="url(#paint1_radial_3229_1966)"/>
<path d="M78.8926 39.9831C77.1172 40.4226 75.6934 41.6882 74.7617 43.6393C73.3555 46.5925 74.0059 50.5827 76.2383 52.6393C77.3281 53.6413 78.3125 54.0808 79.666 54.1862C81.459 54.3093 82.4609 53.905 83.8848 52.4811C85.168 51.1979 85.6953 50.1081 86.0117 48.1042C86.3457 46.0124 85.5723 43.446 84.1484 41.7936C82.9531 40.4226 80.5273 39.5788 78.8926 39.9831Z" fill="url(#paint2_radial_3229_1966)"/>
<path d="M78.8926 39.9831C77.1172 40.4226 75.6934 41.6882 74.7617 43.6393C73.3555 46.5925 74.0059 50.5827 76.2383 52.6393C77.3281 53.6413 78.3125 54.0808 79.666 54.1862C81.459 54.3093 82.4609 53.905 83.8848 52.4811C85.168 51.1979 85.6953 50.1081 86.0117 48.1042C86.3457 46.0124 85.5723 43.446 84.1484 41.7936C82.9531 40.4226 80.5273 39.5788 78.8926 39.9831Z" fill="url(#paint3_radial_3229_1966)"/>
<path d="M64.0918 87.7971C64.0215 87.9026 64.0215 88.3772 64.0918 88.8694C64.2148 89.7658 64.7598 90.6096 65.4629 90.9787C65.8145 91.1721 65.8145 91.1545 65.6914 89.5373C65.6211 88.6408 65.5508 87.885 65.5332 87.8674C65.3223 87.7092 64.1797 87.6565 64.0918 87.7971Z" fill="url(#paint4_radial_3229_1966)"/>
<path d="M64.0918 87.7971C64.0215 87.9026 64.0215 88.3772 64.0918 88.8694C64.2148 89.7658 64.7598 90.6096 65.4629 90.9787C65.8145 91.1721 65.8145 91.1545 65.6914 89.5373C65.6211 88.6408 65.5508 87.885 65.5332 87.8674C65.3223 87.7092 64.1797 87.6565 64.0918 87.7971Z" fill="url(#paint5_radial_3229_1966)"/>
<path d="M94.9062 87.7402C94.4668 87.8105 94.4141 87.8809 94.4141 88.5488C94.4141 88.9531 94.3613 89.709 94.291 90.2363L94.1855 91.2031L94.7656 90.8516C95.5215 90.4121 95.9961 89.498 95.9961 88.4609C95.9961 87.5645 96.0137 87.5645 94.9062 87.7402Z" fill="url(#paint6_radial_3229_1966)"/>
<path d="M94.9062 87.7402C94.4668 87.8105 94.4141 87.8809 94.4141 88.5488C94.4141 88.9531 94.3613 89.709 94.291 90.2363L94.1855 91.2031L94.7656 90.8516C95.5215 90.4121 95.9961 89.498 95.9961 88.4609C95.9961 87.5645 96.0137 87.5645 94.9062 87.7402Z" fill="url(#paint7_radial_3229_1966)"/>
<path d="M71.9141 122.125C71.9141 122.792 72.1777 123.355 72.8281 124.093C74.3398 125.833 76.8711 125.833 78.3828 124.093C78.9102 123.513 79.2969 122.81 79.2969 122.441C79.2969 122.371 78.084 122.212 76.625 122.107C75.1484 121.984 73.4785 121.843 72.9336 121.773C71.9316 121.667 71.9141 121.685 71.9141 122.125Z" fill="url(#paint8_radial_3229_1966)"/>
<path d="M71.9141 122.125C71.9141 122.792 72.1777 123.355 72.8281 124.093C74.3398 125.833 76.8711 125.833 78.3828 124.093C78.9102 123.513 79.2969 122.81 79.2969 122.441C79.2969 122.371 78.084 122.212 76.625 122.107C75.1484 121.984 73.4785 121.843 72.9336 121.773C71.9316 121.667 71.9141 121.685 71.9141 122.125Z" fill="url(#paint9_radial_3229_1966)"/>
<path d="M86.6621 121.789C86.6269 121.824 85.291 121.965 83.6914 122.088C82.0917 122.193 80.7734 122.316 80.7382 122.334C80.5449 122.492 81.4062 123.951 81.9863 124.443C84.2011 126.342 87.5761 125.164 88.1738 122.281L88.2968 121.719H87.5058C87.0839 121.719 86.6972 121.754 86.6621 121.789Z" fill="url(#paint10_radial_3229_1966)"/>
<path d="M86.6621 121.789C86.6269 121.824 85.291 121.965 83.6914 122.088C82.0917 122.193 80.7734 122.316 80.7382 122.334C80.5449 122.492 81.4062 123.951 81.9863 124.443C84.2011 126.342 87.5761 125.164 88.1738 122.281L88.2968 121.719H87.5058C87.0839 121.719 86.6972 121.754 86.6621 121.789Z" fill="url(#paint11_radial_3229_1966)"/>
</g>
</g>
<defs>
<filter id="filter0_d_3229_1966" x="-7.12671" y="7.70703" width="145.078" height="152.004" filterUnits="userSpaceOnUse" color-interpolation-filters="sRGB">
<feFlood flood-opacity="0" result="BackgroundImageFix"/>
<feColorMatrix in="SourceAlpha" type="matrix" values="0 0 0 0 0 0 0 0 0 0 0 0 0 0 0 0 0 0 127 0" result="hardAlpha"/>
<feOffset dx="-5" dy="5"/>
<feGaussianBlur stdDeviation="4"/>
<feComposite in2="hardAlpha" operator="out"/>
<feColorMatrix type="matrix" values="0 0 0 0 0 0 0 0 0 0 0 0 0 0 0 0 0 0 0.25 0"/>
<feBlend mode="normal" in2="BackgroundImageFix" result="effect1_dropShadow_3229_1966"/>
<feBlend mode="normal" in="SourceGraphic" in2="effect1_dropShadow_3229_1966" result="shape"/>
</filter>
<radialGradient id="paint0_radial_3229_1966" cx="0" cy="0" r="1" gradientUnits="userSpaceOnUse" gradientTransform="translate(69.7184 104.162) rotate(-60.5714) scale(105.784 96.6445)">
<stop stop-color="white"/>
<stop offset="0.627261" stop-color="white"/>
</radialGradient>
<radialGradient id="paint1_radial_3229_1966" cx="0" cy="0" r="1" gradientUnits="userSpaceOnUse" gradientTransform="translate(69.7184 104.162) rotate(-60.5714) scale(105.784 96.6445)">
<stop stop-color="#00862D"/>
<stop offset="0.627261" stop-color="#0033CC"/>
</radialGradient>
<radialGradient id="paint2_radial_3229_1966" cx="0" cy="0" r="1" gradientUnits="userSpaceOnUse" gradientTransform="translate(76.3672 51.3421) rotate(-39.4941) scale(24.1556 25.31)">
<stop stop-color="white"/>
<stop offset="0.627261" stop-color="white"/>
</radialGradient>
<radialGradient id="paint3_radial_3229_1966" cx="0" cy="0" r="1" gradientUnits="userSpaceOnUse" gradientTransform="translate(76.3672 51.3421) rotate(-39.4941) scale(24.1556 25.31)">
<stop stop-color="#00862D"/>
<stop offset="0.627261" stop-color="#0033CC"/>
</radialGradient>
<radialGradient id="paint4_radial_3229_1966" cx="0" cy="0" r="1" gradientUnits="userSpaceOnUse" gradientTransform="translate(64.3749 90.3931) rotate(-53.3848) scale(4.47184 4.57045)">
<stop stop-color="white"/>
<stop offset="0.627261" stop-color="white"/>
</radialGradient>
<radialGradient id="paint5_radial_3229_1966" cx="0" cy="0" r="1" gradientUnits="userSpaceOnUse" gradientTransform="translate(64.3749 90.3931) rotate(-53.3848) scale(4.47184 4.57045)">
<stop stop-color="#00862D"/>
<stop offset="0.627261" stop-color="#0033CC"/>
</radialGradient>
<radialGradient id="paint6_radial_3229_1966" cx="0" cy="0" r="1" gradientUnits="userSpaceOnUse" gradientTransform="translate(94.5376 90.4923) rotate(-53.7331) scale(4.72748 4.81366)">
<stop stop-color="white"/>
<stop offset="0.627261" stop-color="white"/>
</radialGradient>
<radialGradient id="paint7_radial_3229_1966" cx="0" cy="0" r="1" gradientUnits="userSpaceOnUse" gradientTransform="translate(94.5376 90.4923) rotate(-53.7331) scale(4.72748 4.81366)">
<stop stop-color="#00862D"/>
<stop offset="0.627261" stop-color="#0033CC"/>
</radialGradient>
<radialGradient id="paint8_radial_3229_1966" cx="0" cy="0" r="1" gradientUnits="userSpaceOnUse" gradientTransform="translate(73.3497 124.663) rotate(-19.0862) scale(12.0665 7.96047)">
<stop stop-color="white"/>
<stop offset="0.627261" stop-color="white"/>
</radialGradient>
<radialGradient id="paint9_radial_3229_1966" cx="0" cy="0" r="1" gradientUnits="userSpaceOnUse" gradientTransform="translate(73.3497 124.663) rotate(-19.0862) scale(12.0665 7.96047)">
<stop stop-color="#00862D"/>
<stop offset="0.627261" stop-color="#0033CC"/>
</radialGradient>
<radialGradient id="paint10_radial_3229_1966" cx="0" cy="0" r="1" gradientUnits="userSpaceOnUse" gradientTransform="translate(82.1857 124.638) rotate(-18.4649) scale(12.3535 7.92307)">
<stop stop-color="white"/>
<stop offset="0.627261" stop-color="white"/>
</radialGradient>
<radialGradient id="paint11_radial_3229_1966" cx="0" cy="0" r="1" gradientUnits="userSpaceOnUse" gradientTransform="translate(82.1857 124.638) rotate(-18.4649) scale(12.3535 7.92307)">
<stop stop-color="#00862D"/>
<stop offset="0.627261" stop-color="#0033CC"/>
</radialGradient>
<clipPath id="clip0_3229_1966">
<rect width="160" height="160" fill="white" transform="translate(0 0.414062)"/>
</clipPath>
<clipPath id="clip1_3229_1966">
<rect width="90" height="90" fill="white" transform="translate(35 35.4141)"/>
</clipPath>
</defs>
</svg>
