<svg width="160" height="161" viewBox="0 0 160 161" fill="none" xmlns="http://www.w3.org/2000/svg">
<g clip-path="url(#clip0_3229_2038)">
<g filter="url(#filter0_d_3229_2038)">
<path d="M81.0962 16.1703C100.014 2.92409 126.177 15.124 128.189 38.1302L134.831 114.05C136.844 137.057 113.197 153.614 92.2671 143.854L23.1971 111.646C2.26686 101.887 -0.24911 73.1288 18.6684 59.8827L81.0962 16.1703Z" fill="white"/>
</g>
<path d="M69.4787 46.7182C67.1227 47.5335 65.3516 49.5796 65.0754 51.8564C64.6692 55.1331 66.359 57.7945 69.5437 58.8868C70.3886 59.1791 70.7948 59.2252 72.0621 59.1637C73.3295 59.1175 73.752 59.0252 74.6619 58.6253C76.0917 57.9945 77.2616 56.8869 77.9278 55.5331C78.4152 54.5639 78.4477 54.3947 78.4477 52.8102C78.4477 51.2872 78.399 51.0256 77.9928 50.2103C77.1316 48.4719 75.9292 47.3951 74.0932 46.7489C72.8583 46.3182 70.6973 46.3028 69.4787 46.7182Z" fill="white"/>
<path d="M69.4787 46.7182C67.1227 47.5335 65.3516 49.5796 65.0754 51.8564C64.6692 55.1331 66.359 57.7945 69.5437 58.8868C70.3886 59.1791 70.7948 59.2252 72.0621 59.1637C73.3295 59.1175 73.752 59.0252 74.6619 58.6253C76.0917 57.9945 77.2616 56.8869 77.9278 55.5331C78.4152 54.5639 78.4477 54.3947 78.4477 52.8102C78.4477 51.2872 78.399 51.0256 77.9928 50.2103C77.1316 48.4719 75.9292 47.3951 74.0932 46.7489C72.8583 46.3182 70.6973 46.3028 69.4787 46.7182Z" fill="url(#paint0_radial_3229_2038)"/>
<path d="M60.9808 60.5659C59.4697 61.0121 58.1049 62.1197 57.4225 63.4888L57 64.3503V73.1961C57 81.9648 57 82.0418 57.3575 82.7648C58.0886 84.2724 59.8597 85.5954 61.5008 85.8877L62.1182 85.9954L62.1507 76.7959C62.1994 68.0732 62.2157 67.581 62.4919 67.5348C63.2881 67.381 63.2556 66.2733 63.2556 89.6414C63.2556 103.548 63.3206 111.625 63.4181 111.979C63.6293 112.717 64.6367 113.794 65.4328 114.132C66.229 114.471 67.9026 114.517 68.6663 114.225C69.5112 113.886 70.2586 113.179 70.6648 112.348L71.0547 111.579V101.256C71.0547 92.0259 71.0872 90.9029 71.3147 90.7182C71.4935 90.5798 71.6397 90.5644 71.8347 90.6875C72.0946 90.8259 72.1109 91.7643 72.1921 101.287C72.2571 109.456 72.3221 111.84 72.4846 112.194C72.8583 113.009 73.427 113.579 74.3044 114.025C75.0518 114.409 75.2793 114.456 76.3192 114.394C77.8953 114.332 78.8539 113.794 79.5688 112.579L80.0725 111.733L80.1213 105.917C80.1538 102.733 80.1375 100.118 80.0888 100.118C80.0563 100.118 79.2764 100.364 78.3665 100.672C75.8805 101.518 75.9292 101.841 77.7003 95.5488C78.5127 92.672 79.1789 90.2413 79.1789 90.1337C79.1789 90.0414 79.0976 89.9644 79.0002 89.9644C78.9027 89.9644 78.5614 89.8568 78.2527 89.7183C77.3591 89.3029 76.9204 88.626 76.6442 87.18C76.3029 85.3493 76.2055 85.2108 74.8893 84.1493C73.687 83.1955 73.167 82.4725 73.167 81.7649C73.167 81.5495 73.3945 80.7803 73.6545 80.0726C73.9307 79.3496 74.1419 78.565 74.1419 78.3189C74.1419 78.0881 73.9144 77.2574 73.622 76.5036C72.8746 74.4883 72.9558 74.2422 74.8081 72.5653L76.2704 71.2577L76.5954 69.7193C77.0666 67.4271 77.5541 66.9656 80.04 66.5195L81.6161 66.2426L82.786 65.0119C84.0859 63.6581 84.5733 63.3504 85.4345 63.3504C85.7432 63.3504 86.0032 63.2735 86.0032 63.1812C86.0032 63.0889 85.5482 62.5812 84.9958 62.0582C84.2483 61.3505 83.7121 60.9967 83.0297 60.7659C82.1036 60.4275 81.9736 60.4275 71.7372 60.4429C66.0503 60.4429 61.2083 60.5044 60.9808 60.5659Z" fill="white"/>
<path d="M60.9808 60.5659C59.4697 61.0121 58.1049 62.1197 57.4225 63.4888L57 64.3503V73.1961C57 81.9648 57 82.0418 57.3575 82.7648C58.0886 84.2724 59.8597 85.5954 61.5008 85.8877L62.1182 85.9954L62.1507 76.7959C62.1994 68.0732 62.2157 67.581 62.4919 67.5348C63.2881 67.381 63.2556 66.2733 63.2556 89.6414C63.2556 103.548 63.3206 111.625 63.4181 111.979C63.6293 112.717 64.6367 113.794 65.4328 114.132C66.229 114.471 67.9026 114.517 68.6663 114.225C69.5112 113.886 70.2586 113.179 70.6648 112.348L71.0547 111.579V101.256C71.0547 92.0259 71.0872 90.9029 71.3147 90.7182C71.4935 90.5798 71.6397 90.5644 71.8347 90.6875C72.0946 90.8259 72.1109 91.7643 72.1921 101.287C72.2571 109.456 72.3221 111.84 72.4846 112.194C72.8583 113.009 73.427 113.579 74.3044 114.025C75.0518 114.409 75.2793 114.456 76.3192 114.394C77.8953 114.332 78.8539 113.794 79.5688 112.579L80.0725 111.733L80.1213 105.917C80.1538 102.733 80.1375 100.118 80.0888 100.118C80.0563 100.118 79.2764 100.364 78.3665 100.672C75.8805 101.518 75.9292 101.841 77.7003 95.5488C78.5127 92.672 79.1789 90.2413 79.1789 90.1337C79.1789 90.0414 79.0976 89.9644 79.0002 89.9644C78.9027 89.9644 78.5614 89.8568 78.2527 89.7183C77.3591 89.3029 76.9204 88.626 76.6442 87.18C76.3029 85.3493 76.2055 85.2108 74.8893 84.1493C73.687 83.1955 73.167 82.4725 73.167 81.7649C73.167 81.5495 73.3945 80.7803 73.6545 80.0726C73.9307 79.3496 74.1419 78.565 74.1419 78.3189C74.1419 78.0881 73.9144 77.2574 73.622 76.5036C72.8746 74.4883 72.9558 74.2422 74.8081 72.5653L76.2704 71.2577L76.5954 69.7193C77.0666 67.4271 77.5541 66.9656 80.04 66.5195L81.6161 66.2426L82.786 65.0119C84.0859 63.6581 84.5733 63.3504 85.4345 63.3504C85.7432 63.3504 86.0032 63.2735 86.0032 63.1812C86.0032 63.0889 85.5482 62.5812 84.9958 62.0582C84.2483 61.3505 83.7121 60.9967 83.0297 60.7659C82.1036 60.4275 81.9736 60.4275 71.7372 60.4429C66.0503 60.4429 61.2083 60.5044 60.9808 60.5659Z" fill="url(#paint1_radial_3229_2038)"/>
<path d="M84.5896 64.6883C84.4108 64.8422 83.8746 65.4114 83.3872 65.9344C82.916 66.4729 82.3311 67.0113 82.0873 67.1344C81.8599 67.2421 80.9825 67.4574 80.17 67.5959C79.3414 67.7343 78.529 67.9651 78.3502 68.1036C78.139 68.2728 77.944 68.8266 77.7165 69.8573C77.5378 70.6727 77.2941 71.5495 77.1641 71.7957C77.0179 72.0418 76.3679 72.6726 75.6855 73.211C74.9868 73.7802 74.4019 74.3648 74.3532 74.5802C74.2882 74.8263 74.4344 75.457 74.7594 76.3647C75.0518 77.1339 75.2793 77.9954 75.2793 78.2877C75.2793 78.5953 75.0681 79.4415 74.7919 80.1953C74.5319 80.9491 74.3044 81.7029 74.3044 81.8721C74.3044 82.0567 74.9056 82.7182 75.8317 83.5643L77.3428 84.9643L77.6191 86.3488C78.0903 88.7179 78.074 88.7025 80.4463 89.1025C81.1937 89.241 81.9248 89.4102 82.0873 89.4871C82.2498 89.5794 82.916 90.1948 83.5659 90.887C84.2159 91.5639 84.9145 92.1639 85.1258 92.21C85.3532 92.2716 86.1169 92.1024 87.0106 91.8254C87.8392 91.5639 88.7816 91.3485 89.1066 91.3485C89.4153 91.3485 90.2927 91.5639 91.0401 91.8254C92.9087 92.4716 93.1524 92.41 94.4523 90.9486C95.0372 90.3024 95.7034 89.6871 95.9471 89.564C96.1908 89.4409 97.117 89.2102 97.9781 89.041C99.0993 88.8256 99.6517 88.6564 99.8304 88.441C99.9767 88.2564 100.22 87.4872 100.383 86.7026C100.529 85.918 100.757 85.1027 100.87 84.8873C100.984 84.672 101.553 84.1181 102.121 83.672C103.974 82.1644 103.99 82.1644 103.226 80.0414C102.966 79.2876 102.739 78.5184 102.739 78.3184C102.739 78.1184 102.966 77.3646 103.226 76.6262C103.99 74.5648 103.958 74.4417 102.3 73.1341C101.683 72.6572 101.065 72.0726 100.919 71.8418C100.789 71.6111 100.545 70.765 100.383 69.965C99.9929 68.0728 99.8467 67.9343 97.8482 67.5805C97.0032 67.4421 96.1258 67.2113 95.8821 67.0728C95.6384 66.9344 95.021 66.3498 94.5173 65.7652C93.9973 65.196 93.4449 64.6576 93.2986 64.5653C92.8274 64.3345 92.2425 64.4114 90.8451 64.8883C90.114 65.1345 89.3178 65.3499 89.0903 65.3499C88.8629 65.3499 88.018 65.1345 87.2218 64.8883C85.5645 64.3653 85.0283 64.3191 84.5896 64.6883ZM91.6088 68.5189C96.2721 69.5804 99.6517 73.6417 99.668 78.2107C99.6842 81.2414 98.5631 83.6566 96.1908 85.7642C92.8112 88.7487 87.628 89.2717 83.5984 87.0103C82.4285 86.3642 80.5437 84.5797 79.8613 83.472C77.4566 79.6261 78.0253 74.7186 81.2262 71.5034C84.0209 68.7035 87.7417 67.642 91.6088 68.5189Z" fill="white"/>
<path d="M84.5896 64.6883C84.4108 64.8422 83.8746 65.4114 83.3872 65.9344C82.916 66.4729 82.3311 67.0113 82.0873 67.1344C81.8599 67.2421 80.9825 67.4574 80.17 67.5959C79.3414 67.7343 78.529 67.9651 78.3502 68.1036C78.139 68.2728 77.944 68.8266 77.7165 69.8573C77.5378 70.6727 77.2941 71.5495 77.1641 71.7957C77.0179 72.0418 76.3679 72.6726 75.6855 73.211C74.9868 73.7802 74.4019 74.3648 74.3532 74.5802C74.2882 74.8263 74.4344 75.457 74.7594 76.3647C75.0518 77.1339 75.2793 77.9954 75.2793 78.2877C75.2793 78.5953 75.0681 79.4415 74.7919 80.1953C74.5319 80.9491 74.3044 81.7029 74.3044 81.8721C74.3044 82.0567 74.9056 82.7182 75.8317 83.5643L77.3428 84.9643L77.6191 86.3488C78.0903 88.7179 78.074 88.7025 80.4463 89.1025C81.1937 89.241 81.9248 89.4102 82.0873 89.4871C82.2498 89.5794 82.916 90.1948 83.5659 90.887C84.2159 91.5639 84.9145 92.1639 85.1258 92.21C85.3532 92.2716 86.1169 92.1024 87.0106 91.8254C87.8392 91.5639 88.7816 91.3485 89.1066 91.3485C89.4153 91.3485 90.2927 91.5639 91.0401 91.8254C92.9087 92.4716 93.1524 92.41 94.4523 90.9486C95.0372 90.3024 95.7034 89.6871 95.9471 89.564C96.1908 89.4409 97.117 89.2102 97.9781 89.041C99.0993 88.8256 99.6517 88.6564 99.8304 88.441C99.9767 88.2564 100.22 87.4872 100.383 86.7026C100.529 85.918 100.757 85.1027 100.87 84.8873C100.984 84.672 101.553 84.1181 102.121 83.672C103.974 82.1644 103.99 82.1644 103.226 80.0414C102.966 79.2876 102.739 78.5184 102.739 78.3184C102.739 78.1184 102.966 77.3646 103.226 76.6262C103.99 74.5648 103.958 74.4417 102.3 73.1341C101.683 72.6572 101.065 72.0726 100.919 71.8418C100.789 71.6111 100.545 70.765 100.383 69.965C99.9929 68.0728 99.8467 67.9343 97.8482 67.5805C97.0032 67.4421 96.1258 67.2113 95.8821 67.0728C95.6384 66.9344 95.021 66.3498 94.5173 65.7652C93.9973 65.196 93.4449 64.6576 93.2986 64.5653C92.8274 64.3345 92.2425 64.4114 90.8451 64.8883C90.114 65.1345 89.3178 65.3499 89.0903 65.3499C88.8629 65.3499 88.018 65.1345 87.2218 64.8883C85.5645 64.3653 85.0283 64.3191 84.5896 64.6883ZM91.6088 68.5189C96.2721 69.5804 99.6517 73.6417 99.668 78.2107C99.6842 81.2414 98.5631 83.6566 96.1908 85.7642C92.8112 88.7487 87.628 89.2717 83.5984 87.0103C82.4285 86.3642 80.5437 84.5797 79.8613 83.472C77.4566 79.6261 78.0253 74.7186 81.2262 71.5034C84.0209 68.7035 87.7417 67.642 91.6088 68.5189Z" fill="url(#paint2_radial_3229_2038)"/>
<path d="M86.4093 69.6436C80.69 71.1974 77.879 77.274 80.5112 82.4122C81.2261 83.7967 83.2572 85.7197 84.7195 86.3966C86.9618 87.4273 89.6752 87.6119 92.0475 86.9043C94.9884 86.012 97.4744 83.5044 98.2543 80.6277C98.5793 79.4277 98.5793 77.2124 98.2706 76.0433C97.4094 72.905 94.761 70.3974 91.4463 69.5821C90.1627 69.2744 87.6605 69.2898 86.4093 69.6436ZM94.046 75.3202C94.111 75.4895 93.2499 76.4125 90.9264 78.6124C89.1553 80.2892 87.6117 81.6584 87.4817 81.6584C87.3517 81.6584 86.5393 80.9815 85.6457 80.1661C84.3458 78.9508 84.0533 78.597 84.0858 78.2739C84.1833 77.5201 84.7033 77.7201 86.0844 79.0431C86.7993 79.72 87.4492 80.2738 87.5305 80.2738C87.628 80.2738 88.9928 79.0585 90.5689 77.5817C93.4286 74.8895 93.7698 74.6587 94.046 75.3202Z" fill="white"/>
<path d="M86.4093 69.6436C80.69 71.1974 77.879 77.274 80.5112 82.4122C81.2261 83.7967 83.2572 85.7197 84.7195 86.3966C86.9618 87.4273 89.6752 87.6119 92.0475 86.9043C94.9884 86.012 97.4744 83.5044 98.2543 80.6277C98.5793 79.4277 98.5793 77.2124 98.2706 76.0433C97.4094 72.905 94.761 70.3974 91.4463 69.5821C90.1627 69.2744 87.6605 69.2898 86.4093 69.6436ZM94.046 75.3202C94.111 75.4895 93.2499 76.4125 90.9264 78.6124C89.1553 80.2892 87.6117 81.6584 87.4817 81.6584C87.3517 81.6584 86.5393 80.9815 85.6457 80.1661C84.3458 78.9508 84.0533 78.597 84.0858 78.2739C84.1833 77.5201 84.7033 77.7201 86.0844 79.0431C86.7993 79.72 87.4492 80.2738 87.5305 80.2738C87.628 80.2738 88.9928 79.0585 90.5689 77.5817C93.4286 74.8895 93.7698 74.6587 94.046 75.3202Z" fill="url(#paint3_radial_3229_2038)"/>
<path d="M80.2513 90.6728C80.1863 90.8882 79.6014 92.9804 78.9352 95.3188C78.269 97.6571 77.7653 99.5955 77.7978 99.6262C77.8466 99.6724 78.6265 99.4416 79.5526 99.134C80.4788 98.8263 81.3562 98.5801 81.4862 98.5801C81.6324 98.5801 82.3148 99.2109 83.0135 99.9647C83.6959 100.734 84.3134 101.303 84.3784 101.242C84.5083 101.103 86.6531 93.5342 86.6531 93.2419C86.6531 93.1035 86.5394 93.0881 86.2307 93.1958C85.1095 93.6112 84.1996 93.2112 82.8835 91.7343C81.8761 90.5959 81.4049 90.2729 80.7387 90.2729C80.4625 90.2729 80.3163 90.3805 80.2513 90.6728Z" fill="white"/>
<path d="M80.2513 90.6728C80.1863 90.8882 79.6014 92.9804 78.9352 95.3188C78.269 97.6571 77.7653 99.5955 77.7978 99.6262C77.8466 99.6724 78.6265 99.4416 79.5526 99.134C80.4788 98.8263 81.3562 98.5801 81.4862 98.5801C81.6324 98.5801 82.3148 99.2109 83.0135 99.9647C83.6959 100.734 84.3134 101.303 84.3784 101.242C84.5083 101.103 86.6531 93.5342 86.6531 93.2419C86.6531 93.1035 86.5394 93.0881 86.2307 93.1958C85.1095 93.6112 84.1996 93.2112 82.8835 91.7343C81.8761 90.5959 81.4049 90.2729 80.7387 90.2729C80.4625 90.2729 80.3163 90.3805 80.2513 90.6728Z" fill="url(#paint4_radial_3229_2038)"/>
<path d="M95.1996 91.719C93.5911 93.3035 93.0386 93.5497 91.9175 93.2266C91.6088 93.1497 91.3651 93.1189 91.3651 93.1651C91.3651 93.3958 93.6236 101.242 93.7048 101.318C93.7698 101.365 93.8998 101.288 94.0135 101.165C95.2646 99.6724 96.337 98.5802 96.5807 98.5802C96.727 98.5802 97.6044 98.8263 98.5143 99.134C99.4079 99.4417 100.188 99.657 100.237 99.6109C100.318 99.534 98.3518 92.3189 97.8481 90.7652C97.7019 90.3498 97.6044 90.2729 97.1657 90.2729C96.7432 90.2729 96.4345 90.5037 95.1996 91.719Z" fill="white"/>
<path d="M95.1996 91.719C93.5911 93.3035 93.0386 93.5497 91.9175 93.2266C91.6088 93.1497 91.3651 93.1189 91.3651 93.1651C91.3651 93.3958 93.6236 101.242 93.7048 101.318C93.7698 101.365 93.8998 101.288 94.0135 101.165C95.2646 99.6724 96.337 98.5802 96.5807 98.5802C96.727 98.5802 97.6044 98.8263 98.5143 99.134C99.4079 99.4417 100.188 99.657 100.237 99.6109C100.318 99.534 98.3518 92.3189 97.8481 90.7652C97.7019 90.3498 97.6044 90.2729 97.1657 90.2729C96.7432 90.2729 96.4345 90.5037 95.1996 91.719Z" fill="url(#paint5_radial_3229_2038)"/>
</g>
<defs>
<filter id="filter0_d_3229_2038" x="-7.12665" y="7.70703" width="145.078" height="152.004" filterUnits="userSpaceOnUse" color-interpolation-filters="sRGB">
<feFlood flood-opacity="0" result="BackgroundImageFix"/>
<feColorMatrix in="SourceAlpha" type="matrix" values="0 0 0 0 0 0 0 0 0 0 0 0 0 0 0 0 0 0 127 0" result="hardAlpha"/>
<feOffset dx="-5" dy="5"/>
<feGaussianBlur stdDeviation="4"/>
<feComposite in2="hardAlpha" operator="out"/>
<feColorMatrix type="matrix" values="0 0 0 0 0 0 0 0 0 0 0 0 0 0 0 0 0 0 0.25 0"/>
<feBlend mode="normal" in2="BackgroundImageFix" result="effect1_dropShadow_3229_2038"/>
<feBlend mode="normal" in="SourceGraphic" in2="effect1_dropShadow_3229_2038" result="shape"/>
</filter>
<radialGradient id="paint0_radial_3229_2038" cx="0" cy="0" r="1" gradientUnits="userSpaceOnUse" gradientTransform="translate(67.6277 56.6334) rotate(-33.432) scale(24.8597 24.4022)">
<stop stop-color="#00862D"/>
<stop offset="0.627261" stop-color="#0033CC"/>
</radialGradient>
<radialGradient id="paint1_radial_3229_2038" cx="0" cy="0" r="1" gradientUnits="userSpaceOnUse" gradientTransform="translate(62.6399 103.623) rotate(-52.2658) scale(73.1981 75.6354)">
<stop stop-color="#00862D"/>
<stop offset="0.627261" stop-color="#0033CC"/>
</radialGradient>
<radialGradient id="paint2_radial_3229_2038" cx="0" cy="0" r="1" gradientUnits="userSpaceOnUse" gradientTransform="translate(80.0221 86.6664) rotate(-33.2671) scale(54.3162 53.1845)">
<stop stop-color="#00862D"/>
<stop offset="0.627261" stop-color="#0033CC"/>
</radialGradient>
<radialGradient id="paint3_radial_3229_2038" cx="0" cy="0" r="1" gradientUnits="userSpaceOnUse" gradientTransform="translate(83.2087 83.7355) rotate(-33.3074) scale(35.083 34.3731)">
<stop stop-color="#00862D"/>
<stop offset="0.627261" stop-color="#0033CC"/>
</radialGradient>
<radialGradient id="paint4_radial_3229_2038" cx="0" cy="0" r="1" gradientUnits="userSpaceOnUse" gradientTransform="translate(79.5186 99.0516) rotate(-40.7033) scale(18.045 19.0458)">
<stop stop-color="#00862D"/>
<stop offset="0.627261" stop-color="#0033CC"/>
</radialGradient>
<radialGradient id="paint5_radial_3229_2038" cx="0" cy="0" r="1" gradientUnits="userSpaceOnUse" gradientTransform="translate(93.0907 99.1203) rotate(-40.8693) scale(18.1253 19.147)">
<stop stop-color="#00862D"/>
<stop offset="0.627261" stop-color="#0033CC"/>
</radialGradient>
<clipPath id="clip0_3229_2038">
<rect width="160" height="160" fill="white" transform="translate(0 0.414062)"/>
</clipPath>
</defs>
</svg>
