<svg width="160" height="161" viewBox="0 0 160 161" fill="none" xmlns="http://www.w3.org/2000/svg">
<g clip-path="url(#clip0_3229_1991)">
<g filter="url(#filter0_d_3229_1991)">
<path d="M81.0962 16.4828C100.014 3.23659 126.177 15.4365 128.189 38.4427L134.831 114.363C136.844 137.369 113.197 153.927 92.2671 144.167L23.1971 111.959C2.26686 102.199 -0.24911 73.4413 18.6684 60.1952L81.0962 16.4828Z" fill="white"/>
</g>
<g clip-path="url(#clip1_3229_1991)">
<rect width="68" height="68" transform="translate(46 46.7266)" fill="url(#paint0_radial_3229_1991)"/>
<path d="M46 55.2266V63.7266H80H114V55.2266V46.7266H80H46V55.2266ZM111.131 49.5953L111.477 49.9539V55.2266V60.4992L111.131 60.8578L110.773 61.2031H80H49.2273L48.8688 60.8578L48.5234 60.4992V55.2266V49.9539L48.8688 49.5953L49.2273 49.25H80H110.773L111.131 49.5953Z" fill="white"/>
<path d="M50.7812 55.2266V58.9453H80H109.219V55.2266V51.5078H80H50.7812V55.2266Z" fill="white"/>
<path d="M46 86.8359V107.555H47.2617H48.5234V88.5625V69.5703L49.3203 67.9766C49.7586 67.1 50.1172 66.3297 50.1172 66.25C50.1172 66.1703 49.3602 66.1172 48.0586 66.1172H46V86.8359Z" fill="white"/>
<path d="M52.1758 67.3125C51.8438 67.9633 51.5781 68.5344 51.5781 68.5742C51.5781 68.6141 55.6422 68.6406 60.6094 68.6406H69.6406L69.0164 67.3789L68.3789 66.1172H60.5828H52.7734L52.1758 67.3125Z" fill="white"/>
<path d="M70.9688 66.1703C70.9688 66.2102 71.3539 67.0203 71.832 67.9898L72.6953 69.743V88.6422V107.555H77.2773H81.8594L83.3867 105.523L84.9141 103.477V100.622V97.7531L82.8555 97.7C80.8633 97.6602 80.7969 97.6469 80.4781 97.3281C80.2258 97.0625 79.668 95.2828 77.6891 88.3367C76.3344 83.5687 75.2188 79.5445 75.2188 79.4117C75.2188 79.2656 75.3648 78.9734 75.5375 78.7742C75.8563 78.4023 75.8695 78.4023 77.7289 78.3625C80.0664 78.3094 80.7438 78.4688 81.7 79.332C82.4703 80.0359 82.5898 80.2883 83.5328 83.4758L84.157 85.6406H87.6898C90.7047 85.6406 91.2758 85.6672 91.5281 85.8531C91.7008 85.9727 92.3383 87.075 92.9492 88.3102L94.0781 90.5547H94.7156C95.5523 90.5547 96.5352 91.0328 97.1727 91.75C98.0227 92.6797 98.1156 93.0383 98.1289 95.0969C98.1289 96.8367 98.1156 96.9164 97.8102 97.2484C97.6242 97.4344 97.3719 97.5938 97.2391 97.5938C96.9336 97.5938 96.8805 97.4609 98.0359 100.316L98.9391 102.574L100.041 102.641C101.038 102.707 101.17 102.747 101.463 103.079C101.808 103.491 101.861 103.836 101.622 104.274C101.33 104.832 101.117 104.885 99.4172 104.898C97.8898 104.898 97.7703 104.872 97.4781 104.593C97.3188 104.434 96.6016 102.84 95.8711 101.007L94.5563 97.7266H93.3211H92.0859V100.609V103.477L93.6133 105.523L95.1406 107.555H98.5273H101.914V96.9828V86.4109L102.299 86.0258L102.684 85.6406H105.952H109.219V75.8789V66.1172H90.0938C79.575 66.1172 70.9688 66.1437 70.9688 66.1703ZM94.0914 69.0258L94.4766 69.4109V73.4617V77.4992L94.1313 77.8578L93.7727 78.2031H89.7352H85.6844L85.2992 77.818L84.9141 77.4328V73.4219V69.4109L85.2992 69.0258L85.6844 68.6406H89.6953H93.7063L94.0914 69.0258ZM106.018 68.8398C106.642 69.1586 106.695 69.557 106.695 73.5148C106.695 77.3797 106.642 77.7383 106.045 78.0703C105.885 78.15 104.278 78.2031 101.821 78.2031C97.3984 78.2031 97.3852 78.2031 97.1328 77.3C96.9602 76.6492 96.9602 70.1945 97.1461 69.5438C97.3852 68.6805 97.5047 68.6539 101.821 68.6406C104.929 68.6406 105.713 68.6805 106.018 68.8398Z" fill="white"/>
<path d="M87.1719 72.5586C87.1719 73.475 87.2117 74.2188 87.2781 74.2188C87.3977 74.2188 90.4922 71.1242 90.4922 70.9914C90.4922 70.9383 89.7484 70.8984 88.832 70.8984H87.1719V72.5586Z" fill="white"/>
<path d="M90.4922 74.2852L88.832 75.9453H90.532H92.2188V74.2852C92.2188 73.3687 92.2055 72.625 92.1789 72.625C92.1656 72.625 91.4086 73.3687 90.4922 74.2852Z" fill="white"/>
<path d="M99.3906 72.5852V74.2852L100.984 72.6914C101.861 71.8148 102.578 71.0578 102.578 71.0047C102.578 70.9383 101.861 70.8984 100.984 70.8984H99.3906V72.5852Z" fill="white"/>
<path d="M102.671 74.1922C101.821 75.0422 101.117 75.7992 101.117 75.8523C101.117 75.9055 101.834 75.9453 102.711 75.9453H104.305V74.2852C104.305 73.3687 104.291 72.625 104.265 72.625C104.252 72.625 103.534 73.3289 102.671 74.1922Z" fill="white"/>
<path d="M111.477 75.8789V85.6406H112.738H114V75.8789V66.1172H112.738H111.477V75.8789Z" fill="white"/>
<path d="M50.9938 71.2585C51.4984 73.264 52.9727 74.0608 54.4602 73.1577C54.8984 72.9054 55.5625 71.7101 55.5625 71.2054V70.8999H53.2383H50.9141L50.9938 71.2585Z" fill="white"/>
<path d="M58.2188 71.0294C58.2188 71.0958 58.3383 71.4809 58.4844 71.8794C58.8031 72.7294 59.4406 73.3403 60.1313 73.4731C60.7555 73.5926 61.6188 73.3536 62.0305 72.9419C62.4023 72.57 62.8539 71.6137 62.8672 71.1887C62.8672 70.8965 62.8672 70.8965 60.543 70.8965C59.1484 70.8965 58.2188 70.9497 58.2188 71.0294Z" fill="white"/>
<path d="M65.5234 71.1248C65.5367 71.5099 66.0414 72.5326 66.4266 72.931C66.6125 73.1302 66.9977 73.356 67.2766 73.4357C68.3656 73.7279 69.3086 73.2099 69.8531 72.0279C70.4109 70.8459 70.5039 70.899 67.8477 70.899C65.7227 70.899 65.5234 70.9123 65.5234 71.1248Z" fill="white"/>
<path d="M56.2664 74.5641L55.6953 75.1484V87.6992V100.25H60.6094H65.5234V87.7258V75.2016L64.8727 74.5641L64.2219 73.9266L63.6641 74.4844C62.7875 75.3609 61.8313 75.7461 60.543 75.7461C59.2547 75.7461 58.5375 75.4539 57.5813 74.5641C57.2227 74.232 56.9039 73.9531 56.8773 73.9664C56.8508 73.9664 56.5719 74.2453 56.2664 74.5641Z" fill="white"/>
<path d="M50.7812 94.9242V114.727H60.543H70.3047V94.9242C70.3047 76.118 70.2914 75.1219 70.0789 75.2148C69.3484 75.5336 68.4719 75.7992 68.1531 75.8125H67.7812V88.775V101.737L67.3961 102.123L67.0109 102.508H60.6094C56.4789 102.508 54.1281 102.455 53.9555 102.375C53.2914 102.003 53.3047 102.415 53.3047 88.6289V75.8125H52.9461C52.6141 75.7992 51.7375 75.5336 51.0203 75.2148C50.7945 75.1219 50.7812 76.118 50.7812 94.9242ZM67.1172 105.23C67.3297 105.337 67.5688 105.549 67.6484 105.682C67.7281 105.841 67.7812 107.05 67.7812 108.67V111.38L67.4359 111.791L67.0906 112.203H60.6094H54.1148L53.743 111.884L53.3711 111.566V108.71C53.3711 106.041 53.3844 105.841 53.6367 105.562C53.7828 105.403 54.0219 105.217 54.168 105.151C54.3141 105.098 57.1961 105.045 60.5828 105.045C65.8156 105.031 66.7852 105.058 67.1172 105.23Z" fill="white"/>
<path d="M55.6953 108.684V109.945H60.6094H65.5234V108.684V107.422H60.6094H55.6953V108.684Z" fill="white"/>
<path d="M78.061 81.2844C78.1406 81.6031 79.0836 84.8836 80.1461 88.5891L82.0586 95.3359H88.9383H95.8047V94.4195C95.8047 93.5562 95.7782 93.4766 95.393 93.1578L94.9813 92.8125H89.8149C84.1571 92.8125 84.0375 92.7992 83.7453 92.0555C83.6656 91.8562 82.8953 89.3461 82.0586 86.5039C81.0094 82.9977 80.425 81.2312 80.2391 81.0187C79.9867 80.7664 79.8141 80.7266 78.9242 80.7266H77.8883L78.061 81.2844Z" fill="white"/>
<path d="M84.9141 87.9914C84.9141 88.0445 85.0734 88.6422 85.2594 89.3195L85.618 90.5547H88.5133C90.3992 90.5547 91.4219 90.5016 91.4219 90.4219C91.4219 90.3422 91.1562 89.7445 90.8242 89.0938L90.2266 87.8984H87.5703C86.1094 87.8984 84.9141 87.9383 84.9141 87.9914Z" fill="white"/>
<path d="M104.172 89.2266V90.5547H109.086H114V89.2266V87.8984H109.086H104.172V89.2266Z" fill="white"/>
<path d="M104.172 100.184V107.555H105.5H106.828V100.184V92.8125H105.5H104.172V100.184Z" fill="white"/>
<path d="M109.086 100.184V107.555H111.543H114V100.184V92.8125H111.543H109.086V100.184Z" fill="white"/>
<path d="M87.1719 100.184V102.641H88.5H89.8281V100.184V97.7266H88.5H87.1719V100.184Z" fill="white"/>
<path d="M85.7109 106.134C85.2063 106.824 84.7812 107.422 84.7812 107.462C84.7812 107.515 86.4547 107.555 88.5 107.555C90.5453 107.555 92.2188 107.515 92.2188 107.462C92.2188 107.422 91.7938 106.824 91.2891 106.134L90.3594 104.898H88.5H86.6406L85.7109 106.134Z" fill="white"/>
<path d="M46 112.27V114.727H47.2617H48.5234V112.27V109.812H47.2617H46V112.27Z" fill="white"/>
<path d="M72.6953 112.27V114.727H93.3477H114V112.27V109.812H93.3477H72.6953V112.27Z" fill="white"/>
</g>
</g>
<defs>
<filter id="filter0_d_3229_1991" x="-7.12671" y="8.01953" width="145.078" height="152.004" filterUnits="userSpaceOnUse" color-interpolation-filters="sRGB">
<feFlood flood-opacity="0" result="BackgroundImageFix"/>
<feColorMatrix in="SourceAlpha" type="matrix" values="0 0 0 0 0 0 0 0 0 0 0 0 0 0 0 0 0 0 127 0" result="hardAlpha"/>
<feOffset dx="-5" dy="5"/>
<feGaussianBlur stdDeviation="4"/>
<feComposite in2="hardAlpha" operator="out"/>
<feColorMatrix type="matrix" values="0 0 0 0 0 0 0 0 0 0 0 0 0 0 0 0 0 0 0.25 0"/>
<feBlend mode="normal" in2="BackgroundImageFix" result="effect1_dropShadow_3229_1991"/>
<feBlend mode="normal" in="SourceGraphic" in2="effect1_dropShadow_3229_1991" result="shape"/>
</filter>
<radialGradient id="paint0_radial_3229_1991" cx="0" cy="0" r="1" gradientUnits="userSpaceOnUse" gradientTransform="translate(13.2232 13.5992) rotate(34.773) scale(127.865 127.883)">
<stop stop-color="#00862D"/>
<stop offset="0.627261" stop-color="#0033CC"/>
</radialGradient>
<clipPath id="clip0_3229_1991">
<rect width="160" height="160" fill="white" transform="translate(0 0.726562)"/>
</clipPath>
<clipPath id="clip1_3229_1991">
<rect width="68" height="68" fill="white" transform="translate(46 46.7266)"/>
</clipPath>
</defs>
</svg>
