<svg width="160" height="161" viewBox="0 0 160 161" fill="none" xmlns="http://www.w3.org/2000/svg">
<g clip-path="url(#clip0_3229_2049)">
<g filter="url(#filter0_d_3229_2049)">
<path d="M81.0962 16.4828C100.014 3.23659 126.177 15.4365 128.189 38.4427L134.831 114.363C136.844 137.369 113.197 153.927 92.2671 144.167L23.1971 111.959C2.26686 102.199 -0.24911 73.4413 18.6684 60.1952L81.0962 16.4828Z" fill="white"/>
</g>
<path d="M72.43 52.9062C70.8363 53.2484 69.4551 54.2883 68.7911 55.644C68.6051 56.0257 67.9145 58.2107 67.2505 60.4878C65.4177 66.7531 65.4045 66.8057 65.192 66.8057C65.0326 66.8057 64.9928 66.582 64.9928 65.6474C64.9928 64.3049 64.7537 63.6599 64.0233 63.0281C63.2397 62.3437 62.9475 62.3042 58.1399 62.3568L53.744 62.3963L53.1995 62.7649C52.894 62.9623 52.4823 63.3703 52.2831 63.6862C51.9776 64.1601 51.9112 64.4102 51.8714 65.5027L51.8183 66.7794L50.3308 66.8321C49.1356 66.8716 48.7371 66.9374 48.2457 67.1743C47.4356 67.5692 46.7052 68.3063 46.32 69.1092L46.0013 69.7673V87.5497C46.0013 107.504 45.9216 106.003 47.0106 107.201C47.3559 107.583 47.8739 107.965 48.2856 108.149L48.9895 108.465H80H111.011L111.714 108.149C112.126 107.965 112.644 107.583 112.989 107.201C114.078 106.003 113.999 107.504 113.999 87.5497V69.7673L113.68 69.1092C113.295 68.3063 112.564 67.5692 111.754 67.1743C111.263 66.9374 110.864 66.8716 109.669 66.8321L108.182 66.7794L108.129 65.5027C108.089 64.4233 108.022 64.1601 107.73 63.7126C106.854 62.3568 106.761 62.3305 101.555 62.3305C97.597 62.3305 97.1454 62.3568 96.6673 62.5806C95.4853 63.1203 95.0072 64.0153 95.0072 65.6869C95.0072 66.582 94.9674 66.8057 94.808 66.8057C94.5955 66.8057 94.5823 66.7531 92.7495 60.4878C92.0855 58.2107 91.3949 56.0257 91.2089 55.644C90.5183 54.2356 89.0575 53.1695 87.3841 52.8667C86.2552 52.6561 73.4128 52.6956 72.43 52.9062ZM86.9591 57.75C87.0654 57.9211 87.6895 59.9218 88.3536 62.1989C89.0176 64.476 89.602 66.4504 89.6418 66.5688C89.7082 66.7926 89.1903 66.8057 80 66.8057C72.2706 66.8057 70.2918 66.7663 70.3316 66.6346C70.3715 66.5557 70.9558 64.5813 71.6199 62.2647C72.2972 59.9481 72.9346 57.9211 73.0409 57.75L73.2268 57.4604H80H86.7732L86.9591 57.75ZM83.2538 69.3856C86.7599 69.9647 90.4519 71.8601 93.055 74.4005C97.9556 79.1784 99.8016 85.8123 98.0751 92.4067C97.2384 95.6183 95.2861 98.8299 92.7894 101.16C89.2168 104.463 84.8873 106.161 80 106.161C75.126 106.161 70.7566 104.45 67.2106 101.16C64.5943 98.7246 62.6421 95.4209 61.8319 92.0118C61.2343 89.5241 61.1281 87.3655 61.4866 85.0094C62.3765 79.0336 66.0685 73.9135 71.4605 71.1757C75.2057 69.2803 79.0703 68.688 83.2538 69.3856Z" fill="white"/>
<path d="M72.43 52.9062C70.8363 53.2484 69.4551 54.2883 68.7911 55.644C68.6051 56.0257 67.9145 58.2107 67.2505 60.4878C65.4177 66.7531 65.4045 66.8057 65.192 66.8057C65.0326 66.8057 64.9928 66.582 64.9928 65.6474C64.9928 64.3049 64.7537 63.6599 64.0233 63.0281C63.2397 62.3437 62.9475 62.3042 58.1399 62.3568L53.744 62.3963L53.1995 62.7649C52.894 62.9623 52.4823 63.3703 52.2831 63.6862C51.9776 64.1601 51.9112 64.4102 51.8714 65.5027L51.8183 66.7794L50.3308 66.8321C49.1356 66.8716 48.7371 66.9374 48.2457 67.1743C47.4356 67.5692 46.7052 68.3063 46.32 69.1092L46.0013 69.7673V87.5497C46.0013 107.504 45.9216 106.003 47.0106 107.201C47.3559 107.583 47.8739 107.965 48.2856 108.149L48.9895 108.465H80H111.011L111.714 108.149C112.126 107.965 112.644 107.583 112.989 107.201C114.078 106.003 113.999 107.504 113.999 87.5497V69.7673L113.68 69.1092C113.295 68.3063 112.564 67.5692 111.754 67.1743C111.263 66.9374 110.864 66.8716 109.669 66.8321L108.182 66.7794L108.129 65.5027C108.089 64.4233 108.022 64.1601 107.73 63.7126C106.854 62.3568 106.761 62.3305 101.555 62.3305C97.597 62.3305 97.1454 62.3568 96.6673 62.5806C95.4853 63.1203 95.0072 64.0153 95.0072 65.6869C95.0072 66.582 94.9674 66.8057 94.808 66.8057C94.5955 66.8057 94.5823 66.7531 92.7495 60.4878C92.0855 58.2107 91.3949 56.0257 91.2089 55.644C90.5183 54.2356 89.0575 53.1695 87.3841 52.8667C86.2552 52.6561 73.4128 52.6956 72.43 52.9062ZM86.9591 57.75C87.0654 57.9211 87.6895 59.9218 88.3536 62.1989C89.0176 64.476 89.602 66.4504 89.6418 66.5688C89.7082 66.7926 89.1903 66.8057 80 66.8057C72.2706 66.8057 70.2918 66.7663 70.3316 66.6346C70.3715 66.5557 70.9558 64.5813 71.6199 62.2647C72.2972 59.9481 72.9346 57.9211 73.0409 57.75L73.2268 57.4604H80H86.7732L86.9591 57.75ZM83.2538 69.3856C86.7599 69.9647 90.4519 71.8601 93.055 74.4005C97.9556 79.1784 99.8016 85.8123 98.0751 92.4067C97.2384 95.6183 95.2861 98.8299 92.7894 101.16C89.2168 104.463 84.8873 106.161 80 106.161C75.126 106.161 70.7566 104.45 67.2106 101.16C64.5943 98.7246 62.6421 95.4209 61.8319 92.0118C61.2343 89.5241 61.1281 87.3655 61.4866 85.0094C62.3765 79.0336 66.0685 73.9135 71.4605 71.1757C75.2057 69.2803 79.0703 68.688 83.2538 69.3856Z" fill="url(#paint0_radial_3229_2049)"/>
<path d="M77.0118 73.2566C69.5348 74.8229 64.5146 81.6015 65.2716 89.1041C66.1216 97.5149 73.9572 103.504 82.3241 102.148C83.8116 101.911 84.6482 101.661 86.0294 101.069C89.1371 99.713 91.7667 97.199 93.294 94.119C95.6713 89.3016 95.2197 83.5364 92.1253 79.1928C89.9207 76.0996 86.6802 74.02 82.9085 73.2566C81.2085 72.9143 78.6852 72.9143 77.0118 73.2566ZM83.0811 75.7311C86.6802 76.6919 89.6152 79.1138 91.2089 82.4834C91.9128 83.9444 92.1917 84.958 92.3378 86.5243C92.7893 91.526 90.1598 96.2513 85.631 98.5547C81.9921 100.411 78.0079 100.411 74.369 98.5547C69.8535 96.2513 67.2106 91.5128 67.6622 86.5243C67.8083 85.0106 68.0872 83.9576 68.7114 82.6414C70.4644 78.9296 73.5057 76.4813 77.4766 75.6126C78.9774 75.2836 81.5937 75.3362 83.0811 75.7311Z" fill="white"/>
<path d="M77.0118 73.2566C69.5348 74.8229 64.5146 81.6015 65.2716 89.1041C66.1216 97.5149 73.9572 103.504 82.3241 102.148C83.8116 101.911 84.6482 101.661 86.0294 101.069C89.1371 99.713 91.7667 97.199 93.294 94.119C95.6713 89.3016 95.2197 83.5364 92.1253 79.1928C89.9207 76.0996 86.6802 74.02 82.9085 73.2566C81.2085 72.9143 78.6852 72.9143 77.0118 73.2566ZM83.0811 75.7311C86.6802 76.6919 89.6152 79.1138 91.2089 82.4834C91.9128 83.9444 92.1917 84.958 92.3378 86.5243C92.7893 91.526 90.1598 96.2513 85.631 98.5547C81.9921 100.411 78.0079 100.411 74.369 98.5547C69.8535 96.2513 67.2106 91.5128 67.6622 86.5243C67.8083 85.0106 68.0872 83.9576 68.7114 82.6414C70.4644 78.9296 73.5057 76.4813 77.4766 75.6126C78.9774 75.2836 81.5937 75.3362 83.0811 75.7311Z" fill="url(#paint1_radial_3229_2049)"/>
<path d="M78.3399 80.1235C77.9813 80.1893 77.1712 80.4789 76.5603 80.7816C74.5549 81.7293 73.0675 83.5325 72.4964 85.6912C72.244 86.6915 72.244 88.6396 72.4964 89.6268C73.1339 92.0486 75.0463 94.0757 77.4899 94.9312C78.3266 95.2208 78.6985 95.2734 80 95.2734C81.3015 95.2734 81.6734 95.2208 82.5101 94.9312C84.3561 94.2863 85.9498 92.9437 86.8263 91.2984C87.4638 90.1006 87.7028 89.1003 87.7028 87.6656C87.7028 85.4279 87.0255 83.7695 85.4982 82.2558C83.6256 80.3867 81.0359 79.6101 78.3399 80.1235Z" fill="white"/>
<path d="M78.3399 80.1235C77.9813 80.1893 77.1712 80.4789 76.5603 80.7816C74.5549 81.7293 73.0675 83.5325 72.4964 85.6912C72.244 86.6915 72.244 88.6396 72.4964 89.6268C73.1339 92.0486 75.0463 94.0757 77.4899 94.9312C78.3266 95.2208 78.6985 95.2734 80 95.2734C81.3015 95.2734 81.6734 95.2208 82.5101 94.9312C84.3561 94.2863 85.9498 92.9437 86.8263 91.2984C87.4638 90.1006 87.7028 89.1003 87.7028 87.6656C87.7028 85.4279 87.0255 83.7695 85.4982 82.2558C83.6256 80.3867 81.0359 79.6101 78.3399 80.1235Z" fill="url(#paint2_radial_3229_2049)"/>
</g>
<defs>
<filter id="filter0_d_3229_2049" x="-7.12665" y="8.01953" width="145.078" height="152.004" filterUnits="userSpaceOnUse" color-interpolation-filters="sRGB">
<feFlood flood-opacity="0" result="BackgroundImageFix"/>
<feColorMatrix in="SourceAlpha" type="matrix" values="0 0 0 0 0 0 0 0 0 0 0 0 0 0 0 0 0 0 127 0" result="hardAlpha"/>
<feOffset dx="-5" dy="5"/>
<feGaussianBlur stdDeviation="4"/>
<feComposite in2="hardAlpha" operator="out"/>
<feColorMatrix type="matrix" values="0 0 0 0 0 0 0 0 0 0 0 0 0 0 0 0 0 0 0.25 0"/>
<feBlend mode="normal" in2="BackgroundImageFix" result="effect1_dropShadow_3229_2049"/>
<feBlend mode="normal" in="SourceGraphic" in2="effect1_dropShadow_3229_2049" result="shape"/>
</filter>
<radialGradient id="paint0_radial_3229_2049" cx="0" cy="0" r="1" gradientUnits="userSpaceOnUse" gradientTransform="translate(59.2232 97.318) rotate(-29.6449) scale(120.848 110.908)">
<stop stop-color="#00862D"/>
<stop offset="0.627261" stop-color="#0033CC"/>
</radialGradient>
<radialGradient id="paint1_radial_3229_2049" cx="0" cy="0" r="1" gradientUnits="userSpaceOnUse" gradientTransform="translate(70.9543 96.4722) rotate(-34.5274) scale(55.513 55.3416)">
<stop stop-color="#00862D"/>
<stop offset="0.627261" stop-color="#0033CC"/>
</radialGradient>
<radialGradient id="paint2_radial_3229_2049" cx="0" cy="0" r="1" gradientUnits="userSpaceOnUse" gradientTransform="translate(75.301 92.2127) rotate(-34.6142) scale(28.894 28.838)">
<stop stop-color="#00862D"/>
<stop offset="0.627261" stop-color="#0033CC"/>
</radialGradient>
<clipPath id="clip0_3229_2049">
<rect width="160" height="160" fill="white" transform="translate(0 0.726562)"/>
</clipPath>
</defs>
</svg>
