<svg width="90" height="90" viewBox="0 0 90 90" fill="none" xmlns="http://www.w3.org/2000/svg">
<g opacity="0.94">
<path fill-rule="evenodd" clip-rule="evenodd" d="M58.4473 -0.0878906C60.0878 -0.0878906 61.7286 -0.0878906 63.3691 -0.0878906C69.8484 1.14548 74.4481 4.7783 77.168 10.8105C78.9585 16.0762 78.6363 21.2031 76.2012 26.1914C79.7869 32.4775 81.486 39.2451 81.2988 46.4941C85.8734 47.3773 88.7444 50.0725 89.9121 54.5801C89.9121 55.8691 89.9121 57.1583 89.9121 58.4473C89.5475 59.8001 88.9908 61.0893 88.2422 62.3144C85.4286 66.0936 82.5868 69.8435 79.7168 73.5645C78.0131 71.3628 76.3432 69.1362 74.707 66.8848C74.5599 66.6199 74.3548 66.532 74.0918 66.6211C72.466 68.7748 70.6496 70.7671 68.6426 72.5977C69.6431 75.5981 69.9655 78.6742 69.6094 81.8262C69.3745 82.881 68.7593 83.6135 67.7637 84.0234C66.1199 84.053 64.4794 84.1409 62.8418 84.2871C61.2383 87.2979 58.7774 89.1729 55.459 89.9121C54.2285 89.9121 52.998 89.9121 51.7676 89.9121C48.4492 89.1729 45.9882 87.2979 44.3848 84.2871C38.9364 84.082 33.4872 84.0528 28.0371 84.1992C26.4672 87.2641 24.0063 89.1685 20.6543 89.9121C19.4238 89.9121 18.1934 89.9121 16.9629 89.9121C13.6486 89.178 11.1876 87.3032 9.58008 84.2871C7.00395 84.1407 4.42582 84.0528 1.8457 84.0234C0.876176 83.7274 0.231646 83.1122 -0.0878906 82.1777C-0.0878906 80.5372 -0.0878906 78.8964 -0.0878906 77.2559C0.463925 76.0607 1.40143 75.4163 2.72461 75.3223C2.69531 65.4198 2.72461 55.5173 2.8125 45.6152C3.10941 44.7319 3.66606 44.058 4.48242 43.5938C5.89723 43.4693 7.27418 43.2642 8.61328 42.9785C8.93508 36.7696 10.7222 31.0273 13.9746 25.752C11.72 22.8853 10.9876 19.6625 11.7773 16.084C13.6198 10.8107 17.3405 8.3205 22.9395 8.61328C25.5537 8.9091 27.6924 10.0517 29.3555 12.041C34.5626 9.65173 40.0412 8.45054 45.791 8.4375C48.7485 3.70793 52.9673 0.866134 58.4473 -0.0878906ZM59.3262 2.90039C66.0118 2.65155 70.9044 5.46405 74.0039 11.3379C75.9774 16.1094 75.6844 20.7383 73.125 25.2246C69.0905 30.49 64.989 35.7047 60.8203 40.8691C56.7188 35.5957 52.6171 30.3223 48.5156 25.0488C44.9582 17.9358 46.042 11.637 51.7676 6.15234C54.0142 4.39879 56.5339 3.31479 59.3262 2.90039ZM20.3027 11.6895C25.3195 11.4619 28.1907 13.8349 28.916 18.8086C28.819 20.1546 28.4381 21.4144 27.7734 22.5879C25.7901 25.3331 23.7393 28.0285 21.6211 30.6738C19.629 27.9786 17.6367 25.2831 15.6445 22.5879C13.7095 18.7861 14.3834 15.5341 17.666 12.832C18.5215 12.3444 19.4004 11.9635 20.3027 11.6895ZM41.748 11.6895C42.5684 11.6895 43.3886 11.6895 44.209 11.6895C42.3396 18.2503 43.5407 24.1683 47.8125 29.4434C52.1485 34.9511 56.4843 40.459 60.8203 45.9668C65.2734 40.3418 69.7266 34.7168 74.1797 29.0918C77.123 34.5204 78.4413 40.3212 78.1348 46.4941C73.3268 47.4056 70.4851 50.2768 69.6094 55.1074C69.2814 58.4007 70.1896 61.3011 72.334 63.8086C70.9712 65.6409 69.477 67.3694 67.8516 68.9941C66.6253 64.4409 65.4534 59.8706 64.3359 55.2832C63.871 53.601 62.7869 52.5756 61.084 52.207C56.221 52.1191 51.3578 52.0898 46.4941 52.1191C46.5235 50.0089 46.4941 47.8995 46.4062 45.791C46.084 44.5312 45.293 43.7402 44.0332 43.418C33.2522 43.3301 22.4708 43.3007 11.6895 43.3301C11.9497 38.0118 13.3853 33.0312 15.9961 28.3887C17.7539 30.7324 19.5117 33.0762 21.2695 35.4199C21.4167 35.6848 21.6218 35.7727 21.8848 35.6836C24.4867 32.0915 27.1528 28.5465 29.8828 25.0488C32.0353 21.8816 32.4747 18.4832 31.2012 14.8535C31.2597 14.7363 31.3184 14.6191 31.377 14.502C34.7143 13.0382 38.1714 12.1007 41.748 11.6895ZM5.88867 46.4941C9.69727 46.4941 13.5059 46.4941 17.3145 46.4941L32.069 46.5517L31.9043 46.4941C35.7129 46.4941 39.5214 46.4941 43.3301 46.4941C43.3301 56.1036 43.3301 65.7128 43.3301 75.3223C38.2321 75.3516 33.1344 75.3223 28.0371 75.2344C25.2462 70.4744 21.1446 68.7166 15.7324 69.9609C13.0105 70.8959 10.9597 72.6244 9.58008 75.1465C8.35516 75.3217 7.12469 75.3803 5.88867 75.3223C5.88867 65.7128 5.88867 56.1036 5.88867 46.4941ZM79.0137 49.3066C83.7227 49.4457 86.3594 51.8479 86.9238 56.5137C86.8702 57.9001 86.4893 59.1892 85.7812 60.3809C83.8429 63.0877 81.8214 65.7244 79.7168 68.291C77.7132 65.7513 75.7503 63.1731 73.8281 60.5566C71.6115 56.2505 72.5196 52.7643 76.5527 50.0977C77.3761 49.776 78.1965 49.5123 79.0137 49.3066ZM46.4941 55.1074C51.2559 55.0227 56.002 55.1106 60.7324 55.3711C61.3072 56.0519 61.6588 56.8429 61.7871 57.7441C59.2696 57.8906 56.7501 57.9785 54.2285 58.0078C53.2032 58.33 52.5292 59.004 52.207 60.0293C52.0898 61.6113 52.0898 63.1934 52.207 64.7754C52.5879 65.6249 53.2032 66.2402 54.0527 66.6211C57.392 66.709 60.7319 66.7383 64.0723 66.709C64.6794 69.5772 65.3825 72.4189 66.1816 75.2344C65.0684 75.3516 63.955 75.3516 62.8418 75.2344C60.0509 70.4744 55.9492 68.7166 50.5371 69.9609C49.0409 70.4598 47.7225 71.2508 46.582 72.334C46.4941 66.5921 46.4648 60.8498 46.4941 55.1074ZM55.1074 60.9082C57.5691 60.8788 60.03 60.9082 62.4902 60.9961C62.7928 61.8838 63.0271 62.792 63.1934 63.7207C60.4981 63.7207 57.8027 63.7207 55.1074 63.7207C55.1074 62.7833 55.1074 61.8456 55.1074 60.9082ZM18.3691 72.5098C23.9055 73.0937 26.3371 76.1405 25.6641 81.6504C23.8567 86.2014 20.6047 87.7542 15.9082 86.3086C12.4262 84.4117 11.1079 81.5113 11.9531 77.6074C13.093 74.6191 15.2317 72.9199 18.3691 72.5098ZM53.1738 72.5098C57.0779 72.6358 59.5682 74.5694 60.6445 78.3105C61.0979 81.9455 59.7208 84.6114 56.5137 86.3086C51.5222 87.7535 48.2117 86.0251 46.582 81.123C46.2426 76.2889 48.4399 73.4178 53.1738 72.5098ZM2.90039 78.3105C4.83486 78.2812 6.76846 78.3105 8.70117 78.3984C8.4668 79.2773 8.4668 80.1562 8.70117 81.0352C6.76846 81.123 4.83486 81.1524 2.90039 81.123C2.90039 80.1856 2.90039 79.248 2.90039 78.3105ZM18.7207 78.3105C20.0115 78.6312 20.3924 79.393 19.8633 80.5957C18.6428 81.4651 17.8518 81.1721 17.4902 79.7168C17.5351 78.911 17.9453 78.4424 18.7207 78.3105ZM28.916 78.3105C33.7794 78.3105 38.6425 78.3105 43.5059 78.3105C43.2715 79.248 43.2715 80.1856 43.5059 81.123C38.6425 81.123 33.7794 81.123 28.916 81.123C29.1503 80.1856 29.1503 79.248 28.916 78.3105ZM53.5254 78.3105C54.8088 78.6259 55.1897 79.3877 54.668 80.5957C53.4475 81.4651 52.6565 81.1721 52.2949 79.7168C52.4598 79.0251 52.8701 78.5563 53.5254 78.3105ZM63.7207 78.3105C64.6581 78.3105 65.5958 78.3105 66.5332 78.3105C66.5332 79.248 66.5332 80.1856 66.5332 81.123C65.5884 81.1807 64.6509 81.1222 63.7207 80.9473C63.9454 80.0685 63.9454 79.1896 63.7207 78.3105Z" fill="black"/>
<path fill-rule="evenodd" clip-rule="evenodd" d="M58.4473 -0.0878906C60.0878 -0.0878906 61.7286 -0.0878906 63.3691 -0.0878906C69.8484 1.14548 74.4481 4.7783 77.168 10.8105C78.9585 16.0762 78.6363 21.2031 76.2012 26.1914C79.7869 32.4775 81.486 39.2451 81.2988 46.4941C85.8734 47.3773 88.7444 50.0725 89.9121 54.5801C89.9121 55.8691 89.9121 57.1583 89.9121 58.4473C89.5475 59.8001 88.9908 61.0893 88.2422 62.3144C85.4286 66.0936 82.5868 69.8435 79.7168 73.5645C78.0131 71.3628 76.3432 69.1362 74.707 66.8848C74.5599 66.6199 74.3548 66.532 74.0918 66.6211C72.466 68.7748 70.6496 70.7671 68.6426 72.5977C69.6431 75.5981 69.9655 78.6742 69.6094 81.8262C69.3745 82.881 68.7593 83.6135 67.7637 84.0234C66.1199 84.053 64.4794 84.1409 62.8418 84.2871C61.2383 87.2979 58.7774 89.1729 55.459 89.9121C54.2285 89.9121 52.998 89.9121 51.7676 89.9121C48.4492 89.1729 45.9882 87.2979 44.3848 84.2871C38.9364 84.082 33.4872 84.0528 28.0371 84.1992C26.4672 87.2641 24.0063 89.1685 20.6543 89.9121C19.4238 89.9121 18.1934 89.9121 16.9629 89.9121C13.6486 89.178 11.1876 87.3032 9.58008 84.2871C7.00395 84.1407 4.42582 84.0528 1.8457 84.0234C0.876176 83.7274 0.231646 83.1122 -0.0878906 82.1777C-0.0878906 80.5372 -0.0878906 78.8964 -0.0878906 77.2559C0.463925 76.0607 1.40143 75.4163 2.72461 75.3223C2.69531 65.4198 2.72461 55.5173 2.8125 45.6152C3.10941 44.7319 3.66606 44.058 4.48242 43.5938C5.89723 43.4693 7.27418 43.2642 8.61328 42.9785C8.93508 36.7696 10.7222 31.0273 13.9746 25.752C11.72 22.8853 10.9876 19.6625 11.7773 16.084C13.6198 10.8107 17.3405 8.3205 22.9395 8.61328C25.5537 8.9091 27.6924 10.0517 29.3555 12.041C34.5626 9.65173 40.0412 8.45054 45.791 8.4375C48.7485 3.70793 52.9673 0.866134 58.4473 -0.0878906ZM59.3262 2.90039C66.0118 2.65155 70.9044 5.46405 74.0039 11.3379C75.9774 16.1094 75.6844 20.7383 73.125 25.2246C69.0905 30.49 64.989 35.7047 60.8203 40.8691C56.7188 35.5957 52.6171 30.3223 48.5156 25.0488C44.9582 17.9358 46.042 11.637 51.7676 6.15234C54.0142 4.39879 56.5339 3.31479 59.3262 2.90039ZM20.3027 11.6895C25.3195 11.4619 28.1907 13.8349 28.916 18.8086C28.819 20.1546 28.4381 21.4144 27.7734 22.5879C25.7901 25.3331 23.7393 28.0285 21.6211 30.6738C19.629 27.9786 17.6367 25.2831 15.6445 22.5879C13.7095 18.7861 14.3834 15.5341 17.666 12.832C18.5215 12.3444 19.4004 11.9635 20.3027 11.6895ZM41.748 11.6895C42.5684 11.6895 43.3886 11.6895 44.209 11.6895C42.3396 18.2503 43.5407 24.1683 47.8125 29.4434C52.1485 34.9511 56.4843 40.459 60.8203 45.9668C65.2734 40.3418 69.7266 34.7168 74.1797 29.0918C77.123 34.5204 78.4413 40.3212 78.1348 46.4941C73.3268 47.4056 70.4851 50.2768 69.6094 55.1074C69.2814 58.4007 70.1896 61.3011 72.334 63.8086C70.9712 65.6409 69.477 67.3694 67.8516 68.9941C66.6253 64.4409 65.4534 59.8706 64.3359 55.2832C63.871 53.601 62.7869 52.5756 61.084 52.207C56.221 52.1191 51.3578 52.0898 46.4941 52.1191C46.5235 50.0089 46.4941 47.8995 46.4062 45.791C46.084 44.5312 45.293 43.7402 44.0332 43.418C33.2522 43.3301 22.4708 43.3007 11.6895 43.3301C11.9497 38.0118 13.3853 33.0312 15.9961 28.3887C17.7539 30.7324 19.5117 33.0762 21.2695 35.4199C21.4167 35.6848 21.6218 35.7727 21.8848 35.6836C24.4867 32.0915 27.1528 28.5465 29.8828 25.0488C32.0353 21.8816 32.4747 18.4832 31.2012 14.8535C31.2597 14.7363 31.3184 14.6191 31.377 14.502C34.7143 13.0382 38.1714 12.1007 41.748 11.6895ZM5.88867 46.4941C9.69727 46.4941 13.5059 46.4941 17.3145 46.4941L32.069 46.5517L31.9043 46.4941C35.7129 46.4941 39.5214 46.4941 43.3301 46.4941C43.3301 56.1036 43.3301 65.7128 43.3301 75.3223C38.2321 75.3516 33.1344 75.3223 28.0371 75.2344C25.2462 70.4744 21.1446 68.7166 15.7324 69.9609C13.0105 70.8959 10.9597 72.6244 9.58008 75.1465C8.35516 75.3217 7.12469 75.3803 5.88867 75.3223C5.88867 65.7128 5.88867 56.1036 5.88867 46.4941ZM79.0137 49.3066C83.7227 49.4457 86.3594 51.8479 86.9238 56.5137C86.8702 57.9001 86.4893 59.1892 85.7812 60.3809C83.8429 63.0877 81.8214 65.7244 79.7168 68.291C77.7132 65.7513 75.7503 63.1731 73.8281 60.5566C71.6115 56.2505 72.5196 52.7643 76.5527 50.0977C77.3761 49.776 78.1965 49.5123 79.0137 49.3066ZM46.4941 55.1074C51.2559 55.0227 56.002 55.1106 60.7324 55.3711C61.3072 56.0519 61.6588 56.8429 61.7871 57.7441C59.2696 57.8906 56.7501 57.9785 54.2285 58.0078C53.2032 58.33 52.5292 59.004 52.207 60.0293C52.0898 61.6113 52.0898 63.1934 52.207 64.7754C52.5879 65.6249 53.2032 66.2402 54.0527 66.6211C57.392 66.709 60.7319 66.7383 64.0723 66.709C64.6794 69.5772 65.3825 72.4189 66.1816 75.2344C65.0684 75.3516 63.955 75.3516 62.8418 75.2344C60.0509 70.4744 55.9492 68.7166 50.5371 69.9609C49.0409 70.4598 47.7225 71.2508 46.582 72.334C46.4941 66.5921 46.4648 60.8498 46.4941 55.1074ZM55.1074 60.9082C57.5691 60.8788 60.03 60.9082 62.4902 60.9961C62.7928 61.8838 63.0271 62.792 63.1934 63.7207C60.4981 63.7207 57.8027 63.7207 55.1074 63.7207C55.1074 62.7833 55.1074 61.8456 55.1074 60.9082ZM18.3691 72.5098C23.9055 73.0937 26.3371 76.1405 25.6641 81.6504C23.8567 86.2014 20.6047 87.7542 15.9082 86.3086C12.4262 84.4117 11.1079 81.5113 11.9531 77.6074C13.093 74.6191 15.2317 72.9199 18.3691 72.5098ZM53.1738 72.5098C57.0779 72.6358 59.5682 74.5694 60.6445 78.3105C61.0979 81.9455 59.7208 84.6114 56.5137 86.3086C51.5222 87.7535 48.2117 86.0251 46.582 81.123C46.2426 76.2889 48.4399 73.4178 53.1738 72.5098ZM2.90039 78.3105C4.83486 78.2812 6.76846 78.3105 8.70117 78.3984C8.4668 79.2773 8.4668 80.1562 8.70117 81.0352C6.76846 81.123 4.83486 81.1524 2.90039 81.123C2.90039 80.1856 2.90039 79.248 2.90039 78.3105ZM18.7207 78.3105C20.0115 78.6312 20.3924 79.393 19.8633 80.5957C18.6428 81.4651 17.8518 81.1721 17.4902 79.7168C17.5351 78.911 17.9453 78.4424 18.7207 78.3105ZM28.916 78.3105C33.7794 78.3105 38.6425 78.3105 43.5059 78.3105C43.2715 79.248 43.2715 80.1856 43.5059 81.123C38.6425 81.123 33.7794 81.123 28.916 81.123C29.1503 80.1856 29.1503 79.248 28.916 78.3105ZM53.5254 78.3105C54.8088 78.6259 55.1897 79.3877 54.668 80.5957C53.4475 81.4651 52.6565 81.1721 52.2949 79.7168C52.4598 79.0251 52.8701 78.5563 53.5254 78.3105ZM63.7207 78.3105C64.6581 78.3105 65.5958 78.3105 66.5332 78.3105C66.5332 79.248 66.5332 80.1856 66.5332 81.123C65.5884 81.1807 64.6509 81.1222 63.7207 80.9473C63.9454 80.0685 63.9454 79.1896 63.7207 78.3105Z" fill="url(#paint0_radial_3234_1840)"/>
</g>
<defs>
<radialGradient id="paint0_radial_3234_1840" cx="0" cy="0" r="1" gradientUnits="userSpaceOnUse" gradientTransform="translate(17.4134 17.911) rotate(34.773) scale(169.233 169.257)">
<stop stop-color="#10923E"/>
<stop offset="0.627261" stop-color="#0057BC"/>
</radialGradient>
</defs>
</svg>
