<svg width="90" height="76" viewBox="0 0 90 76" fill="none" xmlns="http://www.w3.org/2000/svg">
<path opacity="0.965" fill-rule="evenodd" clip-rule="evenodd" d="M89.9121 19.9824C89.9121 20.5683 89.9121 21.1544 89.9121 21.7402C85.5578 26.1826 81.1633 30.6063 76.7285 35.0117C76.001 35.5138 75.2393 35.5725 74.4434 35.1875C73.3609 34.2283 72.3356 33.2028 71.3672 32.1113C71.2793 36.5055 71.2499 40.9 71.2793 45.2949C75.9085 45.2656 80.5375 45.2949 85.166 45.3828C87.6226 45.8773 89.2046 47.3129 89.9121 49.6895C89.9121 54.377 89.9121 59.0644 89.9121 63.752C89.1701 65.8701 87.7054 67.2472 85.5176 67.8828C80.7718 67.9707 76.0257 68.0001 71.2793 67.9707C71.3087 70.0223 71.2793 72.0731 71.1914 74.1231C70.9863 74.7968 70.5468 75.2363 69.873 75.4414C53.2324 75.5587 36.5919 75.5587 19.9512 75.4414C19.2774 75.2363 18.8379 74.7968 18.6328 74.1231C18.5449 68.9672 18.5156 63.8109 18.5449 58.6543C13.9157 58.6837 9.28673 58.6543 4.6582 58.5664C2.2017 58.0719 0.619657 56.6363 -0.0878906 54.2598C-0.0878906 49.5722 -0.0878906 44.8848 -0.0878906 40.1973C0.655587 38.0775 2.12043 36.7005 4.30664 36.0664C9.05237 35.9785 13.7985 35.9492 18.5449 35.9785C18.5741 34.6881 18.5449 33.3991 18.457 32.1113C17.4316 33.1367 16.4062 34.1622 15.3809 35.1875C14.585 35.5725 13.8232 35.5138 13.0957 35.0117C8.66097 30.6063 4.26644 26.1826 -0.0878906 21.7402C-0.0878906 21.1544 -0.0878906 20.5683 -0.0878906 19.9824C6.25866 13.548 12.6454 7.13192 19.0723 0.734379C19.3066 0.617186 19.5411 0.50001 19.7754 0.382817C36.5331 0.265624 53.2911 0.265624 70.0488 0.382817C70.2831 0.50001 70.5176 0.617186 70.752 0.734379C77.1789 7.13192 83.5655 13.548 89.9121 19.9824ZM21.1816 4.16211C24.6973 4.16211 28.2129 4.16211 31.7285 4.16211C31.941 9.89297 34.6365 13.9653 39.8145 16.3789C46.0591 18.5152 51.3032 17.0796 55.5469 12.0723C57.2242 9.70627 58.0737 7.06955 58.0957 4.16211C61.6119 4.13283 65.1275 4.16211 68.6426 4.25C74.1822 9.76022 79.6899 15.2973 85.166 20.8613C82.002 24.1426 78.7794 27.3652 75.498 30.5293C74.0943 29.2136 72.7174 27.8659 71.3672 26.4863C71.2793 23.3813 71.2499 20.276 71.2793 17.1699C69.9903 17.1699 68.7011 17.1699 67.4121 17.1699C67.4121 29.0645 67.4121 40.9589 67.4121 52.8535C60.9079 52.8242 54.4039 52.8535 47.9004 52.9414C47.333 53.2162 46.952 53.6556 46.7578 54.2598C46.6406 58.3613 46.6406 62.463 46.7578 66.5645C46.952 67.1686 47.333 67.6081 47.9004 67.8828C54.4039 67.9707 60.9079 68.0001 67.4121 67.9707C67.4121 69.2012 67.4121 70.4316 67.4121 71.6621C52.4122 71.6621 37.4121 71.6621 22.4121 71.6621C22.4121 64.8066 22.4121 57.9512 22.4121 51.0957C35.7717 51.1251 49.131 51.0957 62.4902 51.0078C62.9882 50.7442 63.3691 50.3632 63.6328 49.8652C63.7501 45.6465 63.7501 41.4277 63.6328 37.209C63.3691 36.711 62.9882 36.3301 62.4902 36.0664C49.131 35.9785 35.7717 35.9492 22.4121 35.9785C22.4121 29.7089 22.4121 23.4395 22.4121 17.1699C21.1231 17.1699 19.8339 17.1699 18.5449 17.1699C18.5743 20.276 18.5449 23.3813 18.457 26.4863C17.1069 27.8659 15.7299 29.2136 14.3262 30.5293C11.0449 27.3652 7.82227 24.1426 4.6582 20.8613C10.1697 15.2912 15.6775 9.72485 21.1816 4.16211ZM35.5957 4.16211C41.8066 4.16211 48.0176 4.16211 54.2285 4.16211C53.6432 9.78652 50.5376 12.8919 44.9121 13.4785C39.2861 12.8916 36.1807 9.78615 35.5957 4.16211ZM5.18555 39.8457C5.88867 39.8457 6.5918 39.8457 7.29492 39.8457C7.29492 41.0762 7.29492 42.3066 7.29492 43.5371C8.58398 43.5371 9.87305 43.5371 11.1621 43.5371C11.1621 42.3066 11.1621 41.0762 11.1621 39.8457C12.3926 39.8457 13.623 39.8457 14.8535 39.8457C14.8535 41.0762 14.8535 42.3066 14.8535 43.5371C16.1426 43.5371 17.4316 43.5371 18.7207 43.5371C18.7207 42.3066 18.7207 41.0762 18.7207 39.8457C19.9512 39.8457 21.1816 39.8457 22.4121 39.8457C22.4121 41.0762 22.4121 42.3066 22.4121 43.5371C23.7011 43.5371 24.9903 43.5371 26.2793 43.5371C26.2793 42.3066 26.2793 41.0762 26.2793 39.8457C27.4512 39.8457 28.623 39.8457 29.7949 39.8457C29.7949 41.0762 29.7949 42.3066 29.7949 43.5371C31.0839 43.5371 32.3731 43.5371 33.6621 43.5371C33.6621 42.3066 33.6621 41.0762 33.6621 39.8457C34.8926 39.8457 36.123 39.8457 37.3535 39.8457C37.3535 41.0762 37.3535 42.3066 37.3535 43.5371C38.6425 43.5371 39.9317 43.5371 41.2207 43.5371C41.2207 42.3066 41.2207 41.0762 41.2207 39.8457C42.4512 39.8457 43.6816 39.8457 44.9121 39.8457C44.9121 41.0762 44.9121 42.3066 44.9121 43.5371C46.2011 43.5371 47.4903 43.5371 48.7793 43.5371C48.7793 42.3066 48.7793 41.0762 48.7793 39.8457C49.9512 39.8457 51.123 39.8457 52.2949 39.8457C52.2949 42.3066 52.2949 44.7676 52.2949 47.2285C36.1192 47.1717 19.9473 47.2303 3.7793 47.4043C3.75003 45.2941 3.77931 43.1847 3.86719 41.0762C4.17776 40.501 4.61721 40.0909 5.18555 39.8457ZM56.1621 39.8457C57.3926 39.8457 58.623 39.8457 59.8535 39.8457C59.8535 42.3066 59.8535 44.7676 59.8535 47.2285C58.623 47.2285 57.3926 47.2285 56.1621 47.2285C56.1621 44.7676 56.1621 42.3066 56.1621 39.8457ZM71.2793 49.1621C75.6156 49.1328 79.9516 49.1621 84.2871 49.25C85.8669 49.568 86.365 50.4761 85.7812 51.9746C85.4935 52.3807 85.1126 52.6443 84.6387 52.7656C80.186 52.8535 75.7329 52.8829 71.2793 52.8535C71.2793 51.6231 71.2793 50.3926 71.2793 49.1621ZM5.18555 51.0957C9.63867 51.0957 14.0918 51.0957 18.5449 51.0957C18.5449 52.3262 18.5449 53.5567 18.5449 54.7871C13.9656 54.8685 9.39528 54.7806 4.83398 54.5234C3.78515 53.9272 3.52148 53.0775 4.04297 51.9746C4.36024 51.5658 4.7411 51.2729 5.18555 51.0957ZM85.3418 56.5449C85.5761 56.5449 85.8106 56.5449 86.0449 56.5449C86.0743 58.6552 86.0449 60.7646 85.957 62.8731C85.6781 63.4454 85.2386 63.8263 84.6387 64.0156C75.7913 64.1035 66.9435 64.1329 58.0957 64.1035C58.0957 61.6426 58.0957 59.1817 58.0957 56.7207C59.3262 56.7207 60.5566 56.7207 61.7871 56.7207C61.7871 57.9512 61.7871 59.1817 61.7871 60.4121C63.0761 60.4121 64.3653 60.4121 65.6543 60.4121C65.6543 59.1817 65.6543 57.9512 65.6543 56.7207C66.8262 56.7207 67.998 56.7207 69.1699 56.7207C69.1699 57.9512 69.1699 59.1817 69.1699 60.4121C70.4589 60.4121 71.7481 60.4121 73.0371 60.4121C73.0371 59.1817 73.0371 57.9512 73.0371 56.7207C74.2676 56.7207 75.498 56.7207 76.7285 56.7207C76.7285 57.9512 76.7285 59.1817 76.7285 60.4121C78.0175 60.4121 79.3067 60.4121 80.5957 60.4121C80.5957 59.1817 80.5957 57.9512 80.5957 56.7207C82.2097 56.7782 83.7918 56.7195 85.3418 56.5449ZM50.5371 56.7207C51.7676 56.7207 52.998 56.7207 54.2285 56.7207C54.2285 59.1817 54.2285 61.6426 54.2285 64.1035C52.998 64.1035 51.7676 64.1035 50.5371 64.1035C50.5371 61.6426 50.5371 59.1817 50.5371 56.7207Z" fill="url(#paint0_radial_3237_1805)"/>
<defs>
<radialGradient id="paint0_radial_3237_1805" cx="0" cy="0" r="1" gradientUnits="userSpaceOnUse" gradientTransform="translate(17.4134 15.3409) rotate(30.1313) scale(160.729 148.975)">
<stop stop-color="#10923E"/>
<stop offset="0.627261" stop-color="#0057BC"/>
</radialGradient>
</defs>
</svg>
