<svg width="110" height="110" viewBox="0 0 110 110" fill="none" xmlns="http://www.w3.org/2000/svg">
<g filter="url(#filter0_i_4561_4814)">
<rect width="110" height="110" rx="12" fill="url(#paint0_linear_4561_4814)" fill-opacity="0.9"/>
<g opacity="0.962">
<path fill-rule="evenodd" clip-rule="evenodd" d="M56.1133 20.4883C68.1392 21.118 77.466 26.4123 84.0937 36.3711C89.0735 44.5778 90.5579 53.385 88.5469 62.793C87.2445 68.2681 84.7705 73.117 81.125 77.3398C80.6436 77.9936 80.6436 78.6369 81.125 79.2695C82.4857 80.6303 83.8463 81.9908 85.207 83.3516C81.0511 83.4258 76.8948 83.4506 72.7383 83.4258C72.7135 79.2198 72.7383 75.014 72.8125 70.8086C74.1732 72.1693 75.5338 73.5299 76.8945 74.8906C77.2701 75.1017 77.666 75.1511 78.082 75.0391C85.0948 66.648 87.2472 57.1233 84.5391 46.4648C81.4473 36.7409 75.1882 29.9375 65.7617 26.0547C62.6481 24.8926 59.432 24.2742 56.1133 24.1992C56.1133 22.9622 56.1133 21.7253 56.1133 20.4883Z" fill="black"/>
<path fill-rule="evenodd" clip-rule="evenodd" d="M56.1133 20.4883C68.1392 21.118 77.466 26.4123 84.0937 36.3711C89.0735 44.5778 90.5579 53.385 88.5469 62.793C87.2445 68.2681 84.7705 73.117 81.125 77.3398C80.6436 77.9936 80.6436 78.6369 81.125 79.2695C82.4857 80.6303 83.8463 81.9908 85.207 83.3516C81.0511 83.4258 76.8948 83.4506 72.7383 83.4258C72.7135 79.2198 72.7383 75.014 72.8125 70.8086C74.1732 72.1693 75.5338 73.5299 76.8945 74.8906C77.2701 75.1017 77.666 75.1511 78.082 75.0391C85.0948 66.648 87.2472 57.1233 84.5391 46.4648C81.4473 36.7409 75.1882 29.9375 65.7617 26.0547C62.6481 24.8926 59.432 24.2742 56.1133 24.1992C56.1133 22.9622 56.1133 21.7253 56.1133 20.4883Z" fill="white"/>
</g>
<g opacity="0.961">
<path fill-rule="evenodd" clip-rule="evenodd" d="M24.4961 26.5743C28.6764 26.4262 32.8821 26.3767 37.1133 26.4259C37.1381 30.6319 37.1133 34.8377 37.0391 39.043C35.6783 37.6823 34.3178 36.3217 32.957 34.961C32.5815 34.7499 32.1856 34.7005 31.7695 34.8126C24.7203 43.1957 22.568 52.7205 25.3125 63.3868C28.3989 73.3446 34.8064 80.1975 44.5352 83.9454C47.5106 85.0205 50.5784 85.5895 53.7383 85.6524C53.7383 86.8894 53.7383 88.1264 53.7383 89.3634C41.3907 88.6474 31.9155 83.1058 25.3125 72.7384C20.4723 64.2891 19.2354 55.3335 21.6016 45.8712C22.9716 40.8535 25.3466 36.4004 28.7266 32.5118C29.208 31.8581 29.208 31.2148 28.7266 30.5821C27.2909 29.2701 25.8808 27.9342 24.4961 26.5743Z" fill="black"/>
<path fill-rule="evenodd" clip-rule="evenodd" d="M24.4961 26.5743C28.6764 26.4262 32.8821 26.3767 37.1133 26.4259C37.1381 30.6319 37.1133 34.8377 37.0391 39.043C35.6783 37.6823 34.3178 36.3217 32.957 34.961C32.5815 34.7499 32.1856 34.7005 31.7695 34.8126C24.7203 43.1957 22.568 52.7205 25.3125 63.3868C28.3989 73.3446 34.8064 80.1975 44.5352 83.9454C47.5106 85.0205 50.5784 85.5895 53.7383 85.6524C53.7383 86.8894 53.7383 88.1264 53.7383 89.3634C41.3907 88.6474 31.9155 83.1058 25.3125 72.7384C20.4723 64.2891 19.2354 55.3335 21.6016 45.8712C22.9716 40.8535 25.3466 36.4004 28.7266 32.5118C29.208 31.8581 29.208 31.2148 28.7266 30.5821C27.2909 29.2701 25.8808 27.9342 24.4961 26.5743Z" fill="white"/>
</g>
<g opacity="0.959">
<path fill-rule="evenodd" clip-rule="evenodd" d="M56.5586 35.1836C56.6563 35.3755 56.7058 35.5982 56.707 35.8516C56.1983 40.1822 55.6788 44.5117 55.1484 48.8398C55.0494 49.483 55.0494 50.1264 55.1484 50.7695C55.3442 51.0645 55.6163 51.2377 55.9648 51.2891C58.4898 51.3139 61.0132 51.3881 63.5352 51.5117C59.5273 58.6367 55.5195 65.7617 51.5117 72.8867C51.4623 72.8373 51.4127 72.7877 51.3633 72.7383C52.583 66.665 53.6963 60.579 54.7031 54.4805C54.5449 54.0258 54.2232 53.8031 53.7383 53.8125C50.8685 53.7631 47.9986 53.7135 45.1289 53.6641C48.9963 47.537 52.8061 41.3769 56.5586 35.1836Z" fill="black"/>
<path fill-rule="evenodd" clip-rule="evenodd" d="M56.5586 35.1836C56.6563 35.3755 56.7058 35.5982 56.707 35.8516C56.1983 40.1822 55.6788 44.5117 55.1484 48.8398C55.0494 49.483 55.0494 50.1264 55.1484 50.7695C55.3442 51.0645 55.6163 51.2377 55.9648 51.2891C58.4898 51.3139 61.0132 51.3881 63.5352 51.5117C59.5273 58.6367 55.5195 65.7617 51.5117 72.8867C51.4623 72.8373 51.4127 72.7877 51.3633 72.7383C52.583 66.665 53.6963 60.579 54.7031 54.4805C54.5449 54.0258 54.2232 53.8031 53.7383 53.8125C50.8685 53.7631 47.9986 53.7135 45.1289 53.6641C48.9963 47.537 52.8061 41.3769 56.5586 35.1836Z" fill="white"/>
</g>
</g>
<defs>
<filter id="filter0_i_4561_4814" x="0" y="0" width="110" height="111.584" filterUnits="userSpaceOnUse" color-interpolation-filters="sRGB">
<feFlood flood-opacity="0" result="BackgroundImageFix"/>
<feBlend mode="normal" in="SourceGraphic" in2="BackgroundImageFix" result="shape"/>
<feColorMatrix in="SourceAlpha" type="matrix" values="0 0 0 0 0 0 0 0 0 0 0 0 0 0 0 0 0 0 127 0" result="hardAlpha"/>
<feOffset dy="1.58386"/>
<feGaussianBlur stdDeviation="1.58386"/>
<feComposite in2="hardAlpha" operator="arithmetic" k2="-1" k3="1"/>
<feColorMatrix type="matrix" values="0 0 0 0 1 0 0 0 0 1 0 0 0 0 1 0 0 0 0.25 0"/>
<feBlend mode="normal" in2="shape" result="effect1_innerShadow_4561_4814"/>
</filter>
<linearGradient id="paint0_linear_4561_4814" x1="-26.5" y1="-11.5" x2="143.12" y2="102.826" gradientUnits="userSpaceOnUse">
<stop offset="0.00725843" stop-color="#3378C9"/>
<stop offset="1" stop-color="#10923E" stop-opacity="0.62"/>
</linearGradient>
</defs>
</svg>
