<svg width="110" height="110" viewBox="0 0 110 110" fill="none" xmlns="http://www.w3.org/2000/svg">
<g filter="url(#filter0_i_4561_4730)">
<rect width="110" height="110" rx="12" fill="url(#paint0_linear_4561_4730)" fill-opacity="0.9"/>
<path d="M51.4552 18.1219C42.767 19.0037 34.8161 22.7913 28.7301 28.9207L27.111 30.5542L27.0387 30.0772C26.9954 29.8169 26.8942 29.2676 26.8363 28.8773C26.7641 28.3713 26.6629 28.1689 26.5183 28.1834C23.815 28.5159 22.4706 28.7183 22.4706 28.7906C22.4706 28.8339 22.7742 31.0457 23.1356 33.6767C23.7861 38.2593 23.8295 38.4906 24.1186 38.4906C24.6535 38.4906 33.4717 37.2185 33.5584 37.1318C33.703 37.0016 33.0958 32.925 32.9513 32.9539C32.8645 32.9684 32.3152 33.0118 31.7225 33.0696L30.6383 33.1563L32.2285 31.595C35.9293 27.9521 40.1938 25.3934 45.1667 23.8321C60.5914 18.9604 77.2738 26.1595 84.3429 40.7169C84.8922 41.8445 85.5427 43.3334 85.7885 44.0562C87.6823 49.5062 88.1448 55.5633 87.0751 61.1C86.9305 61.8951 86.8149 62.5601 86.8438 62.5746C86.8582 62.589 87.7979 62.8203 88.9255 63.095L90.9782 63.601L91.2095 62.5746C91.9034 59.4087 92.1637 55.2019 91.8745 51.9348C91.0794 43.0009 87.4076 35.0934 81.1481 28.8195C75.3945 23.0804 68.4267 19.582 60.2011 18.3243C58.3941 18.0496 53.3055 17.9195 51.4552 18.1219Z" fill="#FCFCFC"/>
<path d="M45.5714 37.8835L36.2039 43.3335V54.9706V66.6078L45.6004 72.0867L54.9968 77.5511L58.2061 75.6863C59.9842 74.6599 64.2054 72.2024 67.6171 70.2219L73.7898 66.6078V54.9706V43.3335L64.5813 37.9558C59.5072 35.0067 55.2571 32.5492 55.1414 32.5058C55.0113 32.448 51.0937 34.6598 45.5714 37.8835ZM59.8686 40.2398C62.4707 41.7722 65.2173 43.3624 65.9546 43.7961L67.299 44.5911L61.1552 48.1763L55.0113 51.7614L48.853 48.1763L42.7091 44.5911L48.7373 41.0494C52.0622 39.0978 54.8523 37.4932 54.9535 37.4932C55.0402 37.4787 57.252 38.7219 59.8686 40.2398ZM46.7568 51.9782L52.7561 55.4911L52.7995 63.3263C52.814 67.6342 52.7851 71.1615 52.7272 71.1615C52.6549 71.1471 49.9083 69.5714 46.6123 67.6342L40.613 64.1358L40.5696 56.3006C40.5552 51.9927 40.5841 48.4654 40.6419 48.4654C40.7142 48.4654 43.4608 50.0556 46.7568 51.9782ZM69.4241 56.3006L69.3807 64.1358L63.3814 67.6487C60.0854 69.5714 57.3387 71.1615 57.2665 71.1615C57.2086 71.1615 57.1797 67.6342 57.1942 63.3263L57.2375 55.4911L63.2368 51.9927C66.5328 50.0556 69.2795 48.4798 69.3518 48.4654C69.4096 48.4654 69.4385 51.9927 69.4241 56.3006Z" fill="#FCFCFC"/>
<path d="M18.9433 46.5426C17.7 52.0938 17.7 57.7606 18.9288 63.2973C20.9816 72.4336 26.764 80.6881 34.845 85.9935C41.596 90.446 50.2553 92.5999 58.264 91.8193C67.6171 90.923 75.8137 86.8753 82.1744 80.0375C82.7671 79.4015 83.302 78.9389 83.3454 79.0111C83.4032 79.0979 83.49 79.6472 83.5478 80.2544C83.6056 80.8615 83.6779 81.3964 83.7068 81.4398C83.7502 81.5265 87.8123 81.035 87.928 80.9338C88.0581 80.7893 86.757 70.7278 86.598 70.7278C86.2222 70.7278 76.898 71.9132 76.8401 71.971C76.7678 72.0433 77.2304 76.091 77.3027 76.1777C77.3316 76.1922 77.9243 76.1488 78.6182 76.0621C79.3121 75.9754 79.9193 75.9464 79.9627 75.9754C80.0928 76.1199 76.9124 79.2858 75.5246 80.3989C70.942 84.0708 65.7089 86.3693 59.7674 87.309C57.4689 87.6559 52.5249 87.6559 50.2986 87.2945C46.6557 86.7163 43.8801 85.8489 40.7431 84.3166C34.1222 81.0928 28.9036 75.8886 25.6365 69.2099C22.4995 62.7914 21.5743 55.5777 22.991 48.4798C23.1934 47.4968 23.2946 46.6438 23.2367 46.586C23.0922 46.4704 19.7094 45.5741 19.3914 45.5741C19.2324 45.5741 19.1023 45.8632 18.9433 46.5426Z" fill="#FCFCFC"/>
</g>
<defs>
<filter id="filter0_i_4561_4730" x="0" y="0" width="110" height="111.584" filterUnits="userSpaceOnUse" color-interpolation-filters="sRGB">
<feFlood flood-opacity="0" result="BackgroundImageFix"/>
<feBlend mode="normal" in="SourceGraphic" in2="BackgroundImageFix" result="shape"/>
<feColorMatrix in="SourceAlpha" type="matrix" values="0 0 0 0 0 0 0 0 0 0 0 0 0 0 0 0 0 0 127 0" result="hardAlpha"/>
<feOffset dy="1.58386"/>
<feGaussianBlur stdDeviation="1.58386"/>
<feComposite in2="hardAlpha" operator="arithmetic" k2="-1" k3="1"/>
<feColorMatrix type="matrix" values="0 0 0 0 1 0 0 0 0 1 0 0 0 0 1 0 0 0 0.25 0"/>
<feBlend mode="normal" in2="shape" result="effect1_innerShadow_4561_4730"/>
</filter>
<linearGradient id="paint0_linear_4561_4730" x1="-26.5" y1="-11.5" x2="143.12" y2="102.826" gradientUnits="userSpaceOnUse">
<stop offset="0.00725843" stop-color="#3378C9"/>
<stop offset="1" stop-color="#10923E" stop-opacity="0.62"/>
</linearGradient>
</defs>
</svg>
