<svg width="110" height="110" viewBox="0 0 110 110" fill="none" xmlns="http://www.w3.org/2000/svg">
<g filter="url(#filter0_i_4561_4788)">
<rect width="110" height="110" rx="12" fill="url(#paint0_linear_4561_4788)" fill-opacity="0.9"/>
<path d="M51.0652 19.1928C49.4901 19.4037 49.3214 19.46 49.1104 19.924C48.8714 20.4584 48.9136 20.6694 49.3776 21.1194C49.7573 21.4991 49.8558 21.5413 50.3902 21.4569C50.7277 21.4147 51.6136 21.3163 52.373 21.26C53.9481 21.1334 54.3137 20.9225 54.3278 20.1209C54.3418 19.7693 54.2434 19.5725 53.9621 19.3193C53.5262 18.9537 53.1606 18.9396 51.0652 19.1928Z" fill="white"/>
<path d="M55.7903 19.3193C55.3403 19.7693 55.3262 20.2756 55.7481 20.7678C56.0856 21.1475 56.3106 21.1897 59.4326 21.4006C60.3045 21.4569 60.7686 21.0912 60.7686 20.36C60.7686 19.474 60.2342 19.263 57.4778 19.0521C56.1841 18.9677 56.1419 18.9677 55.7903 19.3193Z" fill="white"/>
<path d="M62.2311 20.1631C61.767 20.5709 61.7108 21.274 62.1186 21.6678C62.3577 21.9069 65.6625 22.9335 66.1828 22.9335C66.5484 22.9335 67.0969 22.2725 67.0969 21.8506C67.0828 21.4006 66.8859 21.0772 66.45 20.8522C66.1547 20.6975 63.0608 19.8396 62.7796 19.8396C62.6811 19.8396 62.4421 19.9943 62.2311 20.1631Z" fill="white"/>
<path d="M44.8775 20.4162C44.0477 20.6553 43.2602 20.9787 43.0915 21.1334C42.4305 21.7522 42.8524 22.9335 43.7243 22.9335C44.4837 22.9194 47.465 21.9772 47.7322 21.6537C48.0557 21.26 48.0416 20.6693 47.69 20.2896C47.2963 19.8678 46.6916 19.8959 44.8775 20.4162Z" fill="white"/>
<path d="M37.185 21.8646C36.3694 22.1318 34.9068 23.1303 33.4162 24.4663C32.7271 25.0991 32.0802 25.6054 31.9818 25.6054C31.8974 25.6054 29.9989 24.9444 27.7769 24.1288C24.7112 23.0037 23.6143 22.6662 23.319 22.7365C22.8409 22.835 22.0955 23.9038 22.0955 24.4944C22.0955 25.0007 22.2924 25.1694 25.5409 27.4195C27.0879 28.4742 28.3535 29.4305 28.3535 29.5149C28.3535 29.5992 27.8051 30.3586 27.1301 31.2024L25.9066 32.7353L24.7394 32.4681C24.0925 32.3274 23.3753 32.2431 23.1221 32.2852C22.3909 32.4118 21.5611 33.7197 21.8002 34.3666C21.8705 34.5494 22.4049 35.0556 22.9956 35.4916C23.5862 35.9416 24.0643 36.3635 24.0643 36.4338C24.0643 36.5041 23.9378 36.7713 23.7831 37.0244C23.1924 37.9948 23.5862 38.9651 24.5425 38.9651C24.9081 38.9651 25.1191 38.8526 25.4003 38.5292C25.5972 38.276 25.8222 38.1354 25.8785 38.2057C25.9347 38.276 26.2863 38.7261 26.6519 39.2042C27.0316 39.7245 27.4535 40.1183 27.6644 40.1745C28.1145 40.287 28.691 40.048 29.3239 39.4573C29.9286 38.9089 29.9567 38.6557 29.5348 37.1088C29.3661 36.4901 29.2536 35.9838 29.2817 35.9697C29.3098 35.9416 29.9708 35.4353 30.7442 34.8166C31.5177 34.2119 32.2208 33.6634 32.3052 33.5931C32.488 33.4525 32.5865 33.579 35.1037 37.2354C37.0163 40.0198 37.1288 40.1042 38.2397 39.598C38.6335 39.4151 39.0132 39.1479 39.0976 38.9792C39.407 38.4167 39.407 38.4448 37.3678 32.8759L36.285 29.9508L37.4382 28.657C38.6476 27.2929 39.8992 25.5069 40.0398 24.9444C40.0961 24.7194 40.3632 24.4944 40.8133 24.2553C42.0367 23.6506 42.2195 22.849 41.3195 22.174C40.9539 21.9068 40.8976 21.8928 40.3351 22.1037C39.7585 22.3006 39.7023 22.3006 39.1116 21.9912C38.4366 21.6256 38.0429 21.5974 37.185 21.8646ZM37.9022 24.3678C37.4663 25.2257 36.8756 25.9991 35.385 27.6445C34.5693 28.5445 33.9084 29.3883 33.9084 29.5289C33.9084 29.6695 33.9928 30.0352 34.1053 30.3305C34.2178 30.6399 34.5271 31.5118 34.8084 32.2852C35.385 33.8603 35.3709 33.8603 34.3303 32.2852C33.4584 30.9633 33.2896 30.8086 32.713 30.8086C32.3474 30.8086 31.7849 31.2024 29.6754 32.89C27.8332 34.3666 27.0457 35.0838 26.9472 35.3791L26.8066 35.801L26.441 35.4213L26.0613 35.0416L26.4972 34.9994C26.8629 34.9713 27.1019 34.7463 27.8332 33.8322C28.3254 33.2134 29.2957 32.0181 29.9848 31.1602C31.6724 29.093 31.6583 28.9664 29.8161 27.7007C29.127 27.2226 28.5645 26.8148 28.5645 26.7867C28.5645 26.7445 30.4208 27.3914 31.5599 27.8414C32.0521 28.0383 32.8818 28.0383 32.9943 27.8554C33.2052 27.5179 36.0741 25.0288 36.8616 24.4944C37.9585 23.7631 38.2257 23.735 37.9022 24.3678Z" fill="white"/>
<path d="M68.2359 22.3147C67.5609 23.1726 67.8843 23.6085 69.9094 24.621C71.7938 25.5633 72.272 25.6476 72.7079 25.0992C73.397 24.2273 72.9611 23.6507 70.8516 22.6382C69.1922 21.8507 68.6578 21.7803 68.2359 22.3147Z" fill="white"/>
<path d="M73.9174 25.3944C73.4814 25.8162 73.4674 26.3225 73.8892 26.7866C74.058 26.9694 74.7893 27.5741 75.5205 28.1226C77.0112 29.2335 77.4331 29.346 77.9956 28.7695C78.3894 28.3757 78.4456 27.9116 78.1362 27.4757C78.0097 27.3069 77.2784 26.6881 76.4909 26.0975C74.9018 24.9303 74.4939 24.8037 73.9174 25.3944Z" fill="white"/>
<path d="M78.9659 29.4444C78.2769 30.0491 78.4175 30.457 79.8238 32.032C80.4988 32.7914 81.2441 33.4946 81.4551 33.5789C82.1863 33.9024 82.8473 33.4102 82.8473 32.5383C82.8473 32.2289 82.566 31.8211 81.666 30.8085C80.0488 29.0226 79.6831 28.8397 78.9659 29.4444Z" fill="white"/>
<path d="M83.3395 34.2118C82.9176 34.4368 82.7067 34.7603 82.7067 35.154C82.7067 35.4915 84.2255 38.1072 84.7598 38.7119C85.0833 39.0495 85.8568 39.0495 86.2224 38.6838C86.7287 38.1776 86.588 37.6291 85.5474 35.9556C84.4364 34.1837 84.0005 33.8462 83.3395 34.2118Z" fill="white"/>
<path d="M60.6982 34.3384C58.7154 34.465 57.5482 34.6618 55.6215 35.1681C44.2025 38.1354 35.9335 47.5716 34.485 59.3563C34.26 61.1001 34.3022 64.5877 34.5553 66.4159C35.2585 71.5348 37.382 76.4427 40.6164 80.4507C41.7415 81.8288 44.09 84.107 45.5666 85.218C47.1557 86.4274 49.4339 87.7774 51.0792 88.4946L52.4293 89.0712L52.3589 89.7181C52.2746 90.6885 52.584 90.9135 54.1449 90.9697C55.2981 91.026 55.3825 91.0119 55.734 90.6463L56.1137 90.2806L57.8435 90.5759C66.6609 92.0807 75.7315 89.3103 82.1723 83.1367C83.0161 82.3351 84.0849 81.196 84.563 80.6053C89.7522 74.1786 91.9601 65.8393 90.5819 57.8375L90.2866 56.1078L90.6522 55.6718C91.0038 55.2499 91.0319 55.1515 90.9757 54.0686C90.9194 52.578 90.6804 52.2686 89.71 52.353L89.0631 52.4233L88.81 51.7764C88.6834 51.4248 88.2615 50.4967 87.8678 49.7373C82.7489 39.6682 71.9486 33.5509 60.6982 34.3384ZM69.1501 37.2916C71.6954 37.9385 74.1424 38.9791 76.4065 40.3854C77.63 41.1448 78.9941 42.1574 78.5581 41.9886C76.8143 41.3277 75.7878 40.9901 74.508 40.6526C73.4674 40.3714 72.8345 40.1323 72.4689 39.837C71.2876 38.9088 69.8032 38.1964 68.8829 37.6994C62.203 34.5963 59.4029 36.5963 67.4032 38.9964C67.4032 38.9964 67.8985 39.176 68.011 39.3448C68.2078 39.626 68.2078 39.626 66.1125 39.7385L64.0171 39.837L62.878 38.9088C62.2452 38.3885 61.4858 37.8119 61.1623 37.615C60.8529 37.4182 60.6279 37.2353 60.6561 37.2072C60.7545 37.1088 63.0468 37.5729 64.1015 37.9104C65.7046 38.4166 66.1125 38.3744 66.4781 37.6713C66.5906 37.4463 66.6469 37.1369 66.6047 36.9822C66.5203 36.715 66.5484 36.701 67.0547 36.7994C67.35 36.8416 68.2922 37.0666 69.1501 37.2916ZM57.5763 38.1916C58.4904 38.501 60.0092 39.3307 60.7686 39.9354C61.0358 40.1464 61.0639 40.2307 60.9092 40.2729C60.7967 40.3011 59.7842 40.5542 58.6591 40.8355C57.5341 41.1167 56.4934 41.3839 56.3247 41.4261C56.0575 41.5105 55.9731 41.3558 55.3965 39.7104C55.059 38.726 54.7918 37.8541 54.834 37.7838C54.9325 37.601 56.5356 37.826 57.5763 38.1916ZM53.3574 40.4558L54.0043 42.298L52.7808 42.8324C52.1058 43.1136 51.1073 43.5918 50.5448 43.9012C49.9823 44.1965 49.5042 44.4496 49.462 44.4496C49.4198 44.4496 49.5182 43.9855 49.6729 43.423C50.0948 41.8761 50.9808 40.1604 51.8527 39.2745C52.2746 38.8385 52.6261 38.5151 52.6683 38.5573C52.6965 38.5854 53.0058 39.4432 53.3574 40.4558ZM47.5494 42.959C47.3947 43.4793 47.1979 44.4074 47.1135 44.9981C46.9588 46.0247 46.9166 46.095 46.3681 46.4887C46.0447 46.7137 45.2994 47.3044 44.7087 47.7825C44.104 48.2607 43.6118 48.6122 43.6118 48.556C43.6118 48.3169 45.0462 45.5043 45.6088 44.6324C46.2556 43.648 47.676 41.862 47.7604 41.9464C47.7885 41.9745 47.6901 42.4246 47.5494 42.959ZM70.1204 42.0589C72.1595 42.2839 72.0751 42.2417 73.7768 43.9434C74.6346 44.8012 75.5487 45.7715 75.8018 46.095L76.2659 46.6997H75.2955C74.3533 46.6997 71.4986 46.9106 70.4017 47.0513L69.8391 47.1216L68.9391 45.7856C68.4469 45.0543 67.6172 43.9152 67.0828 43.2543C66.5484 42.5933 66.1125 42.0167 66.1125 41.9886C66.1125 41.862 68.8407 41.9183 70.1204 42.0589ZM63.9468 42.9027C64.8187 43.8309 65.9578 45.2653 66.8156 46.5028L67.5047 47.5153L66.6328 47.67C65.2265 47.9513 62.6249 48.6263 60.9233 49.1607C60.0514 49.4279 59.2638 49.6529 59.1513 49.6529C58.9404 49.6529 56.7606 43.7465 56.9294 43.5918C57.2106 43.3386 61.9077 42.2277 62.8358 42.2136C63.2014 42.1996 63.4124 42.3261 63.9468 42.9027ZM78.6566 44.5059C80.1332 45.2512 81.5817 46.2075 82.5661 47.0934L83.3395 47.7966L82.0739 47.4731C81.3848 47.2903 80.4426 47.1075 80.0066 47.0513L79.205 46.9528L78.2206 45.659C77.6862 44.9559 77.1097 44.2527 76.955 44.1121C76.2096 43.4371 76.8284 43.5777 78.6566 44.5059ZM55.8606 47.4731C56.4653 49.1044 56.9013 50.4685 56.8591 50.5248C56.8028 50.567 56.1559 50.8482 55.4247 51.1436C54.6934 51.4389 52.9918 52.2264 51.6699 52.8874L49.237 54.1108L49.1385 53.6046C49.0823 53.3233 49.0401 51.8045 49.0401 50.2154L49.026 47.3325L49.7292 46.8684C50.7276 46.2215 54.3278 44.4356 54.5809 44.4777C54.7075 44.5059 55.1856 45.6168 55.8606 47.4731ZM42.0086 46.7981C41.6711 47.4872 41.0664 49.2451 40.6586 50.792C40.3352 52.0436 40.1664 52.4233 39.632 53.1124C39.2664 53.5624 38.5632 54.6452 38.0429 55.489C37.2413 56.839 37.1288 56.9656 37.2132 56.4875C37.5085 54.7437 38.9851 51.1717 40.307 48.9919C41.3477 47.2903 42.5712 45.7153 42.0086 46.7981ZM46.8463 52.3248C46.9307 53.4499 47.0291 54.589 47.0713 54.8702C47.1557 55.3765 47.1416 55.3906 46.1572 56.0375C40.2024 60.197 42.5108 58.8782 43.214 59.5672C43.6781 60.0454 42.1493 61.9861 46.8322 58.2172C47.1697 57.9781 47.451 57.8094 47.4791 57.8375C47.5072 57.8656 47.6901 58.6391 47.901 59.5672C48.1119 60.4954 48.562 62.2392 48.9135 63.4345C49.2651 64.6299 49.5745 65.7409 49.6167 65.8955C49.6729 66.1487 49.3495 66.2893 46.7057 67.2315C45.0744 67.8081 43.6962 68.2862 43.6399 68.2862C43.4853 68.2862 42.6555 65.094 42.3883 63.4627L42.1493 61.9861L43.0212 61.1985C43.7946 60.4954 43.8931 60.3548 43.8931 59.8907C43.8931 58.9907 42.9509 58.5125 42.2196 59.0329L41.8821 59.2579L41.9665 57.0922C42.1071 53.8718 42.2337 53.2671 43.0634 52.3248C43.4431 51.903 44.3993 50.9748 45.1869 50.2576L46.6353 48.9638L46.6635 49.6248C46.6916 49.9904 46.7619 51.1998 46.8463 52.3248ZM78.5581 50.0326C79.2332 51.1717 80.6395 53.9983 80.7941 54.5327C80.8785 54.7859 80.8082 54.8562 80.3863 54.9968C72.1262 57.7163 75.7174 57.1257 76.3784 57.7163C76.5893 57.8991 72.2033 60.597 80.9348 57.05L81.7082 56.9656L82.0176 57.9781C82.3129 59.0047 82.8755 61.5782 83.0442 62.6751L83.1286 63.2658L81.666 64.5033C79.8801 66.0362 77.9816 67.4143 77.8128 67.3159C77.7425 67.2737 77.6019 66.8378 77.5175 66.3596C77.194 64.6861 76.0549 60.4954 75.6049 59.3422C75.5346 59.1594 75.7174 59.0469 76.3784 58.7938C77.5456 58.3578 77.9112 57.7391 77.4894 56.9515C77.2222 56.4312 76.7018 56.3609 75.7174 56.6984C75.2393 56.8812 74.8174 56.9937 74.7893 56.9515C74.7612 56.9234 74.3955 56.1078 73.9877 55.1374C73.5799 54.1671 72.7783 52.4655 72.2158 51.3404C71.6392 50.2154 71.1751 49.2591 71.1751 49.2029C71.1751 49.0623 72.258 49.006 75.2815 48.9779L77.9253 48.9497L78.5581 50.0326ZM83.9442 50.4967C84.9708 50.9889 86.6443 52.2967 86.6443 52.6061C86.6443 52.7749 83.1145 54.0546 82.988 53.928C82.9317 53.8577 82.6504 53.2671 82.3551 52.6061C82.0598 51.9451 81.5817 50.9607 81.2723 50.3982L80.7238 49.3857L81.7504 49.667C82.3129 49.8216 83.2973 50.1873 83.9442 50.4967ZM70.0782 51.9733C71.4423 54.6171 72.7642 57.6828 72.6095 57.8375C72.5533 57.8938 70.4579 58.6953 67.9406 59.6235C64.5937 60.847 63.3421 61.2548 63.2718 61.1282C63.2155 61.0298 62.442 58.9907 61.5561 56.6C60.6701 54.2093 59.9107 52.142 59.8545 52.0155C59.7701 51.8186 59.9951 51.7061 61.1483 51.3545C63.9468 50.4967 68.011 49.5123 68.5735 49.5545C68.7844 49.5826 69.1501 50.1592 70.0782 51.9733ZM59.4748 57.2609C60.4311 59.8344 61.1623 61.972 61.092 62.0282C60.9373 62.1829 51.8527 65.4033 51.7824 65.333C51.6417 65.1783 50.6011 61.4798 50.1651 59.5672C49.4198 56.2765 49.4198 56.5297 50.1229 56.15C52.2746 54.9546 57.1825 52.6342 57.6044 52.6202C57.6888 52.6061 58.5326 54.7015 59.4748 57.2609ZM87.2068 57.0078C87.0381 57.5703 86.7428 58.3297 86.5459 58.7235C86.1662 59.4547 85.0833 61.072 85.013 61.0017C84.9849 60.9876 84.8443 60.3688 84.6896 59.6376C84.5208 58.9063 84.2396 57.8094 84.0567 57.2187L83.7192 56.1359L84.3099 55.9109C84.6193 55.7984 85.463 55.489 86.1521 55.2218L87.4178 54.7577L87.46 55.3906C87.4881 55.7562 87.3756 56.4312 87.2068 57.0078ZM39.1679 62.0704C38.8023 62.4783 38.2257 63.2236 37.8742 63.7439C37.5226 64.2783 37.2273 64.7002 37.2132 64.7002C37.1991 64.7002 37.2413 64.3205 37.3116 63.8424C37.5648 61.9298 38.3242 59.6235 39.2945 57.7672L39.7445 56.8953L39.7867 59.1172L39.8289 61.3392L39.1679 62.0704ZM73.9877 61.4235C74.5362 63.2377 75.2815 66.2049 75.5346 67.6112C75.6752 68.4128 75.6752 68.6659 75.5487 68.8347C75.2252 69.2285 67.9125 72.7161 67.4203 72.7161C67.3922 72.7161 67.3781 72.6176 67.3781 72.4911C67.3781 72.1676 65.3547 66.5972 65.0031 66.5972C64.8343 66.5972 63.2421 65.9722 63.003 66.1972C62.5811 66.6331 65.0859 72.3926 65.2968 73.2645C65.3249 73.3911 64.9734 73.5739 64.3546 73.7989C63.1311 74.2208 58.9404 75.3036 57.5622 75.5427C56.6059 75.6974 56.5356 75.6974 56.3387 75.4443C55.734 74.6427 52.4574 67.6253 52.6261 67.4565C52.7527 67.33 61.9358 64.1236 61.992 64.1939C62.0342 64.2221 62.442 65.2908 62.8921 66.5565C63.7499 68.8909 64.0312 69.341 64.6359 69.341C65.1562 69.341 65.4093 69.2003 65.6343 68.7363C65.8453 68.3284 65.8312 68.2441 64.9734 65.8674C64.4952 64.5314 64.1296 63.4064 64.1577 63.3783C64.228 63.308 73.2986 59.9329 73.4392 59.9188C73.4814 59.9188 73.7346 60.5938 73.9877 61.4235ZM87.8537 62.0564C87.5443 63.7158 87.024 65.2627 86.2224 66.88L85.5474 68.2862L85.5333 66.7956C85.5193 65.9799 85.4771 65.0236 85.4349 64.6721C85.3505 64.0814 85.3787 64.0111 86.0677 63.2236C86.4615 62.7736 87.0521 62.0142 87.3756 61.536C87.7131 61.0438 87.9944 60.7063 88.0225 60.7767C88.0506 60.8329 87.9662 61.4235 87.8537 62.0564ZM40.4477 64.9252C40.4899 65.2908 40.7571 66.3737 41.0242 67.344C41.2914 68.3144 41.4883 69.116 41.4743 69.13C41.193 69.3269 37.8882 70.4097 37.8038 70.3254C37.607 70.1425 37.9726 68.23 38.3945 67.2175C38.8023 66.2331 40.0258 64.2783 40.2367 64.2783C40.293 64.2783 40.3914 64.5736 40.4477 64.9252ZM83.2692 68.8488C83.0442 72.027 83.0723 71.9285 81.9473 73.1239C80.9066 74.2208 78.7691 76.2318 78.6144 76.2318C78.5722 76.2318 78.4878 75.1771 78.4456 73.8692C78.3894 72.5754 78.3191 71.141 78.2628 70.6769L78.1784 69.8332L79.5566 68.8909C80.3301 68.3706 81.4551 67.5268 82.0739 67.0206L83.1989 66.1065L83.2833 66.7112C83.3255 67.0346 83.3255 68.005 83.2692 68.8488ZM87.7131 70.0582C86.8834 72.8004 85.8427 74.9802 84.2396 77.3849C83.3255 78.749 83.002 79.0584 83.3536 78.2428C83.7474 77.3146 84.3661 75.4443 84.6755 74.1927C84.9286 73.1942 85.1115 72.8145 85.7302 71.9988C86.1381 71.4504 86.8412 70.3535 87.2912 69.5519C87.7553 68.7644 88.135 68.1878 88.1631 68.2722C88.1772 68.3706 87.9803 69.1722 87.7131 70.0582ZM51.037 69.5519C51.3183 70.255 52.1199 71.9848 52.8371 73.4192C53.5543 74.8536 54.1168 76.0349 54.1027 76.049C53.9902 76.1755 49.3635 76.3865 48.4495 76.3021L47.2822 76.2037L46.7338 75.2755C46.0447 74.1223 45.0744 72.2098 44.6525 71.1691L44.3431 70.3957L47.3104 69.3128C48.9557 68.7222 50.348 68.2441 50.4183 68.2722C50.4745 68.2862 50.7558 68.8628 51.037 69.5519ZM42.6837 72.1114C42.9087 72.6457 43.4009 73.6583 43.7665 74.3895C44.1462 75.1208 44.4275 75.7396 44.3993 75.7677C44.2868 75.8943 42.529 75.3318 41.4321 74.8255C40.2789 74.3052 38.4226 72.7864 38.6476 72.5614C38.7461 72.4629 42.0086 71.1973 42.2055 71.1832C42.2477 71.1691 42.4587 71.591 42.6837 72.1114ZM76.1534 72.041C76.3503 74.1505 76.4065 75.8661 76.3081 76.8646L76.2096 77.9334L75.4221 78.4397C74.5643 78.9881 70.7814 80.8725 70.5423 80.8725C70.4298 80.8725 69.1922 77.624 68.2641 74.8958C68.236 74.8114 68.6157 74.6005 69.0938 74.4177C70.2048 73.9958 73.7627 72.3223 74.9721 71.6754C75.4784 71.3941 75.9284 71.1691 75.9706 71.1691C76.0268 71.1691 76.0971 71.5629 76.1534 72.041ZM67.2656 78.5803C67.8703 80.2538 68.3344 81.6601 68.2922 81.6882C68.1657 81.8148 65.0859 82.5882 63.6515 82.8413L62.1186 83.1226L61.5701 82.6023C60.2482 81.3226 57.6747 77.8209 57.9841 77.7225C58.0826 77.6943 58.9263 77.4974 59.8545 77.2865C61.5139 76.9349 64.228 76.1755 65.339 75.7536C65.6484 75.6411 65.9718 75.5427 66.0422 75.5427C66.1265 75.5427 66.675 76.9068 67.2656 78.5803ZM81.6239 76.7521C80.991 78.51 79.2894 81.3366 78.0238 82.757L77.405 83.4601L77.8128 81.7726C78.0238 80.8585 78.2347 79.8741 78.2769 79.6069C78.3331 79.2131 78.5019 79.0022 79.1207 78.5662C79.5425 78.2568 80.2879 77.6803 80.7801 77.2724C81.2582 76.8646 81.666 76.5271 81.6801 76.513C81.6942 76.513 81.6801 76.6255 81.6239 76.7521ZM44.54 78.06C45.3556 78.2147 46.0306 78.3412 46.0588 78.3412C46.0869 78.3412 46.4385 78.8053 46.8604 79.3537C47.2822 79.9163 47.8307 80.6194 48.0979 80.9147C48.3651 81.2101 48.5338 81.4772 48.4916 81.5194C48.3651 81.646 45.5947 80.2678 44.4556 79.4944C43.879 79.1006 43.0493 78.4678 42.6274 78.074L41.854 77.3568L42.4587 77.5678C42.7962 77.6803 43.7243 77.9053 44.54 78.06ZM56.3669 79.5084C56.845 80.2256 57.6747 81.3507 58.2232 82.0257C59.4185 83.5164 59.4748 83.4742 56.5497 83.2773C52.9496 83.0101 53.3574 83.1789 51.487 81.3085C50.587 80.4085 49.6448 79.41 49.3917 79.0725L48.9276 78.4818L50.7417 78.4678C51.7261 78.4537 52.9496 78.3975 53.4559 78.3412C55.5512 78.1162 55.3825 78.0459 56.3669 79.5084ZM75.394 82.4476C75.1549 83.1648 74.7612 84.0929 74.508 84.5289C74.0299 85.3586 72.9189 86.6383 72.6658 86.6383C72.5392 86.6383 71.4423 83.8679 71.2876 83.1648C71.2595 83.0664 71.8361 82.7148 72.6095 82.3773C73.3549 82.0257 74.3674 81.5335 74.8596 81.2663C75.4643 80.9288 75.7596 80.8304 75.7878 80.9569C75.8159 81.0554 75.6331 81.7163 75.394 82.4476ZM48.1401 83.7695C48.801 84.0367 50.0104 84.4164 50.812 84.6133C51.7683 84.8523 52.4293 85.1055 52.7527 85.3586C53.5684 85.9914 55.0168 86.9477 56.1278 87.5805C56.7044 87.9181 57.1122 88.1853 57.0419 88.1853C56.7606 88.1853 54.4403 87.5102 53.4277 87.1305C52.2464 86.6805 50.5589 85.8649 49.237 85.0914C48.2104 84.4867 46.1994 83.0242 46.6353 83.1929C46.79 83.2632 47.4651 83.5164 48.1401 83.7695ZM69.7688 85.4711C70.0923 86.3852 70.4017 87.2149 70.4298 87.2993C70.486 87.4259 70.3032 87.4821 69.8251 87.4821C68.475 87.4821 66.8297 86.8633 65.0859 85.6961L64.0874 85.0352L65.2687 84.768C65.9297 84.6133 66.9703 84.3601 67.5891 84.1773C68.2078 83.9945 68.8125 83.8539 68.9391 83.8398C69.1079 83.8258 69.3329 84.2758 69.7688 85.4711ZM62.3577 86.3149C62.9905 86.8352 63.7921 87.4259 64.1296 87.6509C64.6781 87.9884 64.7202 88.0446 64.4109 88.0446C63.8624 88.0446 61.6264 87.5243 60.5436 87.1587C59.9951 86.9618 58.9545 86.5399 58.2232 86.2024L56.9013 85.5836L58.7294 85.5133C59.742 85.4711 60.6982 85.4149 60.8811 85.4008C61.092 85.3867 61.5842 85.6821 62.3577 86.3149Z" fill="white"/>
<path d="M86.5037 39.8511C86.3209 39.9495 86.0677 40.1886 85.9552 40.3855C85.7584 40.7371 85.8005 40.8777 86.4474 42.5652C86.8271 43.5637 87.249 44.4919 87.3896 44.6184C87.7693 45.0122 88.5287 44.9419 88.8944 44.4919C89.2881 43.9997 89.2319 43.6762 88.4866 41.7777C87.7272 39.8792 87.2912 39.4573 86.5037 39.8511Z" fill="white"/>
<path d="M22.5597 40.0199C22.18 40.1746 22.0534 40.3996 21.5612 41.6652C20.6331 44.0419 20.5909 44.2528 20.9284 44.7028C21.1253 44.97 21.3643 45.0966 21.73 45.1247C22.4472 45.181 22.7144 44.9138 23.0941 43.7606C23.2628 43.2543 23.5581 42.4949 23.741 42.0871C24.2472 40.9199 24.1488 40.2449 23.3894 39.9777C23.1081 39.8792 22.8691 39.8933 22.5597 40.0199Z" fill="white"/>
<path d="M88.2334 46.2215C87.8256 46.6294 87.8256 46.6434 88.3037 49.2169C88.5147 50.3701 88.6412 50.7357 88.8944 50.9467C89.3162 51.2842 89.7803 51.2701 90.2444 50.8763C90.7085 50.4685 90.7225 50.0185 90.2866 47.9231C89.9631 46.334 89.6678 45.8559 89.0069 45.8559C88.7537 45.8559 88.4584 45.9965 88.2334 46.2215Z" fill="white"/>
<path d="M20.2674 46.5308C19.9158 46.8121 19.508 48.4012 19.3392 50.1169C19.2549 50.9888 19.2689 51.1013 19.5642 51.4107C19.9721 51.8466 20.7174 51.8747 21.1112 51.481C21.2659 51.3263 21.3924 51.1435 21.3924 51.0732C21.3924 51.0028 21.519 50.2013 21.6737 49.3012C22.0393 47.1355 22.0393 46.9246 21.5893 46.573C21.1252 46.2074 20.6752 46.1933 20.2674 46.5308Z" fill="white"/>
<path d="M19.3533 53.3796C19.0158 53.703 19.0017 53.8015 19.0017 55.3765C19.0158 57.2328 19.1564 58.0625 19.508 58.3297C19.9158 58.6251 20.6049 58.5547 20.9424 58.1891C21.2236 57.8938 21.2518 57.711 21.2518 56.0234C21.2518 54.1109 21.1111 53.3937 20.6893 53.1686C20.2392 52.9296 19.7049 53.014 19.3533 53.3796Z" fill="white"/>
<path d="M19.9439 59.9469C19.4657 60.3126 19.4517 60.7626 19.8032 62.5204C20.2111 64.5174 20.3517 64.8408 20.8861 65.108C21.2377 65.2768 21.3502 65.2627 21.758 65.0658C22.4049 64.7565 22.4752 64.3346 22.1236 62.8158C21.9549 62.1126 21.7861 61.297 21.7299 61.0017C21.6033 60.2423 21.1955 59.7782 20.6329 59.7782C20.3798 59.7782 20.0704 59.8626 19.9439 59.9469Z" fill="white"/>
<path d="M21.6034 66.5986C21.1534 67.0345 21.1674 67.3158 21.6175 68.469C22.3347 70.2831 22.9253 71.3097 23.3191 71.4644C23.9941 71.7175 24.7675 71.2112 24.7675 70.5081C24.7675 70.044 23.3472 66.8939 22.9816 66.5564C22.5315 66.1486 22.0253 66.1626 21.6034 66.5986Z" fill="white"/>
<path d="M24.8237 72.4628C24.5143 72.6034 24.205 73.1238 24.205 73.4753C24.205 73.7144 25.6956 75.9926 26.3003 76.6957C26.8488 77.3145 27.5238 77.413 28.0019 76.9348C28.4801 76.4567 28.3676 75.852 27.5941 74.7832C27.2144 74.2629 26.7222 73.5597 26.5113 73.2081C25.9769 72.3644 25.4706 72.1394 24.8237 72.4628Z" fill="white"/>
<path d="M28.7613 77.9616C28.4801 78.2147 28.3816 78.4116 28.3957 78.7632C28.4098 79.1569 28.6067 79.4382 29.7176 80.5632C31.1802 82.0398 31.6302 82.3211 32.2489 82.1101C32.713 81.9414 32.924 81.6179 32.924 81.0835C32.924 80.7882 32.6005 80.3804 31.5599 79.3257C29.7317 77.4975 29.4504 77.3709 28.7613 77.9616Z" fill="white"/>
<path d="M33.8381 82.4475C33.3881 82.8413 33.3037 83.5022 33.6412 83.91C33.8521 84.1632 35.4272 85.246 36.4819 85.8507C37.2132 86.2867 37.6491 86.2726 38.1273 85.7945C38.4366 85.4851 38.4929 84.8523 38.2257 84.5148C37.9585 84.1632 34.9912 82.2647 34.5975 82.1803C34.3443 82.1381 34.1193 82.2084 33.8381 82.4475Z" fill="white"/>
<path d="M39.5335 85.9352C39.196 86.2727 39.1679 86.8774 39.4632 87.2993C39.6882 87.6227 42.4727 88.8602 43.2743 88.9868C43.9493 89.0993 44.4556 88.6352 44.4556 87.8758C44.4556 87.2289 44.3431 87.1446 42.2336 86.3008C40.4617 85.5836 39.9554 85.5133 39.5335 85.9352Z" fill="white"/>
<path d="M46.34 87.904C45.9462 88.0587 45.5806 88.579 45.5806 88.9728C45.5806 89.6337 46.0025 89.8869 47.7041 90.2384C49.7572 90.6603 50.4041 90.6744 50.7838 90.2666C51.1354 89.8869 51.1495 89.2962 50.812 88.8884C50.6151 88.6493 50.1932 88.5087 48.815 88.2415C47.8447 88.0446 46.9587 87.8759 46.8462 87.8337C46.7337 87.8056 46.4947 87.8337 46.34 87.904Z" fill="white"/>
</g>
<defs>
<filter id="filter0_i_4561_4788" x="0" y="0" width="110" height="111.584" filterUnits="userSpaceOnUse" color-interpolation-filters="sRGB">
<feFlood flood-opacity="0" result="BackgroundImageFix"/>
<feBlend mode="normal" in="SourceGraphic" in2="BackgroundImageFix" result="shape"/>
<feColorMatrix in="SourceAlpha" type="matrix" values="0 0 0 0 0 0 0 0 0 0 0 0 0 0 0 0 0 0 127 0" result="hardAlpha"/>
<feOffset dy="1.58386"/>
<feGaussianBlur stdDeviation="1.58386"/>
<feComposite in2="hardAlpha" operator="arithmetic" k2="-1" k3="1"/>
<feColorMatrix type="matrix" values="0 0 0 0 1 0 0 0 0 1 0 0 0 0 1 0 0 0 0.25 0"/>
<feBlend mode="normal" in2="shape" result="effect1_innerShadow_4561_4788"/>
</filter>
<linearGradient id="paint0_linear_4561_4788" x1="-26.5" y1="-11.5" x2="143.12" y2="102.826" gradientUnits="userSpaceOnUse">
<stop offset="0.00725843" stop-color="#3378C9"/>
<stop offset="1" stop-color="#10923E" stop-opacity="0.62"/>
</linearGradient>
</defs>
</svg>
