<svg width="110" height="110" viewBox="0 0 110 110" fill="none" xmlns="http://www.w3.org/2000/svg">
<g filter="url(#filter0_i_4561_4825)">
<rect width="110" height="110" rx="12" fill="url(#paint0_linear_4561_4825)" fill-opacity="0.9"/>
<path opacity="0.944" fill-rule="evenodd" clip-rule="evenodd" d="M67.1203 17.3209C68.9265 17.6956 70.6256 18.3694 72.218 19.3424C81.0415 24.8371 86.11 32.7765 87.4231 43.1608C88.2389 55.0903 83.9322 64.6704 74.5031 71.901C72.9784 72.898 71.3964 73.8063 69.757 74.6256C69.7518 76.9617 69.7224 79.3054 69.6692 81.6569C69.5106 84.1661 68.8075 86.5098 67.5598 88.6881C64.3678 92.6228 60.4127 93.6481 55.6945 91.7643C54.1566 90.8126 52.8383 89.6115 51.7395 88.1608C50.3473 85.7868 48.9996 83.3844 47.6965 80.9537C46.8019 79.747 45.6008 79.1609 44.093 79.1959C44.3002 81.2283 43.978 83.1619 43.1262 84.9967C42.254 86.1505 41.1114 86.883 39.6984 87.194C36.9935 87.3583 34.2983 87.2998 31.6125 87.0182C29.6269 86.2349 28.4549 84.7993 28.0969 82.7115C26.5004 82.7843 24.9184 82.6964 23.3508 82.4479C22.4557 81.7165 22.2507 80.8082 22.7356 79.7233C23.0132 79.4524 23.3354 79.2472 23.7023 79.108C25.166 79.0201 26.6309 78.991 28.0969 79.0201C28.0969 77.7897 28.0969 76.5592 28.0969 75.3287C26.5029 75.3957 24.9209 75.3078 23.3508 75.0651C22.455 74.3183 22.25 73.4101 22.7356 72.3405C22.949 72.0682 23.2126 71.8632 23.5266 71.7252C25.0489 71.6373 26.5723 71.6082 28.0969 71.6373C28.5362 69.3225 29.8839 67.8283 32.1399 67.1549C33.4289 67.1256 34.718 67.0964 36.007 67.067C37.5407 67.0484 39.0642 67.1363 40.5774 67.3307C42.0715 67.8874 43.0968 68.9127 43.6535 70.4069C43.981 72.0872 44.1861 73.7864 44.2688 75.5045C46.7172 75.5479 48.7387 76.4854 50.3332 78.317C51.8121 80.6421 53.1596 83.0445 54.3762 85.524C55.4567 87.1339 56.8921 88.2764 58.6828 88.9518C61.9065 89.3185 64.1037 88.0001 65.2746 84.9967C66.2346 81.6372 66.4103 78.2386 65.802 74.8014C55.3008 69.6837 49.2655 61.3047 47.6965 49.6647C46.8496 38.5024 50.6289 29.2739 59.0344 21.9791C61.4937 20.017 64.189 18.4643 67.1203 17.3209ZM67.2961 21.1881C74.9544 24.4822 80.0814 30.1072 82.677 38.0631C85.5928 48.9299 83.1611 58.3927 75.382 66.4518C73.6195 68.0676 71.6859 69.4445 69.5813 70.5826C69.3763 66.6581 69.3469 62.7324 69.4934 58.8053C72.3059 55.9928 75.1184 53.1803 77.9309 50.3678C78.579 48.7921 78.081 47.8545 76.4367 47.5553C76.0616 47.5579 75.71 47.6458 75.382 47.819C73.4191 49.7819 71.4563 51.7447 69.4934 53.7076C69.3761 50.8366 69.3761 47.9654 69.4934 45.0944C72.1886 42.3991 74.8841 39.7037 77.5793 37.0084C78.3178 36.1158 78.3763 35.1784 77.7551 34.1959C77.02 33.6194 76.229 33.5315 75.382 33.9323C73.4191 35.8952 71.4563 37.858 69.4934 39.8209C69.4348 37.3015 69.3761 34.7818 69.3176 32.2623C68.6561 30.9772 67.6893 30.6548 66.4172 31.2955C66.0679 31.5274 65.8628 31.8496 65.802 32.2623C65.7434 36.8912 65.6847 41.5202 65.6262 46.149C63.7219 44.2448 61.8175 42.3404 59.9133 40.4362C58.6964 39.781 57.7296 40.0447 57.0129 41.2272C56.8693 41.8361 56.928 42.4221 57.1887 42.985C60.0012 45.7975 62.8137 48.61 65.6262 51.4225C65.7434 54.2935 65.7434 57.1647 65.6262 60.0358C63.5938 57.8858 61.4551 55.8643 59.2102 53.9713C57.7707 53.753 57.009 54.3682 56.925 55.817C56.889 56.2967 57.0354 56.7068 57.3645 57.0475C60.1184 59.8014 62.8722 62.5552 65.6262 65.3092C65.7724 67.07 65.7433 68.8278 65.5383 70.5826C56.3288 65.1793 51.524 57.0934 51.1242 46.3248C51.7018 34.7876 57.0925 26.4087 67.2961 21.1881ZM33.3703 70.5826C35.1292 70.5535 36.887 70.5826 38.6438 70.6705C39.2542 70.7266 39.7522 70.9903 40.1379 71.4615C40.4248 75.083 40.4833 78.7159 40.3137 82.36C40.1755 82.9019 39.8533 83.2827 39.3469 83.5026C37.1203 83.6198 34.8938 83.6198 32.6672 83.5026C32.1608 83.2827 31.8386 82.9019 31.7004 82.36C31.5832 78.9029 31.5832 75.446 31.7004 71.9889C31.9804 71.1641 32.5371 70.6955 33.3703 70.5826Z" fill="white"/>
</g>
<defs>
<filter id="filter0_i_4561_4825" x="0" y="0" width="110" height="111.584" filterUnits="userSpaceOnUse" color-interpolation-filters="sRGB">
<feFlood flood-opacity="0" result="BackgroundImageFix"/>
<feBlend mode="normal" in="SourceGraphic" in2="BackgroundImageFix" result="shape"/>
<feColorMatrix in="SourceAlpha" type="matrix" values="0 0 0 0 0 0 0 0 0 0 0 0 0 0 0 0 0 0 127 0" result="hardAlpha"/>
<feOffset dy="1.58386"/>
<feGaussianBlur stdDeviation="1.58386"/>
<feComposite in2="hardAlpha" operator="arithmetic" k2="-1" k3="1"/>
<feColorMatrix type="matrix" values="0 0 0 0 1 0 0 0 0 1 0 0 0 0 1 0 0 0 0.25 0"/>
<feBlend mode="normal" in2="shape" result="effect1_innerShadow_4561_4825"/>
</filter>
<linearGradient id="paint0_linear_4561_4825" x1="-26.5" y1="-11.5" x2="143.12" y2="102.826" gradientUnits="userSpaceOnUse">
<stop offset="0.00725843" stop-color="#3378C9"/>
<stop offset="1" stop-color="#10923E" stop-opacity="0.62"/>
</linearGradient>
</defs>
</svg>
