<svg width="110" height="110" viewBox="0 0 110 110" fill="none" xmlns="http://www.w3.org/2000/svg">
<g filter="url(#filter0_i_4561_4771)">
<rect width="110" height="110" rx="12" fill="url(#paint0_linear_4561_4771)" fill-opacity="0.9"/>
<path d="M24.8065 23.3939C23.1606 23.9664 21.9583 25.0542 21.214 26.6572L20.8132 27.5017L20.7417 44.6772C20.6987 54.1237 20.6987 63.556 20.7417 65.6457L20.8132 69.4386L21.2283 70.2974C21.7579 71.3708 23.0031 72.6304 24.0337 73.1313C24.4917 73.3603 25.2646 73.575 25.8943 73.6609C26.4955 73.7325 31.2187 73.804 36.6004 73.804H46.233L46.1901 76.7096L46.1471 79.6008L45.7034 80.388C45.4172 80.9032 44.8303 81.5473 43.9859 82.2773L42.712 83.3937H39.7349C36.4573 83.3937 36.0995 83.4653 35.6987 84.2525C35.5842 84.4815 35.484 84.8536 35.484 85.0826C35.484 85.6694 36.0422 86.4423 36.629 86.6427C37.2874 86.8717 73.2129 86.9004 74.0144 86.6857C74.5726 86.5282 75.0736 85.9986 75.231 85.4261C75.3741 84.8536 75.0306 83.9805 74.5154 83.68C74.1003 83.4223 73.7711 83.3937 70.7081 83.3937H67.3732L66.4572 82.678C65.1833 81.6618 64.3246 80.6456 64.0526 79.8584C63.8809 79.3431 63.8236 78.5845 63.8236 76.5092V73.8183L74.1719 73.7754C84.3483 73.7181 84.5201 73.7181 85.3216 73.4176C86.9533 72.8021 88.084 71.7573 88.8283 70.1399L89.2291 69.2955L89.272 48.7707C89.3149 26.2851 89.3579 27.516 88.4848 26.0418C87.9552 25.1257 86.5668 23.9235 85.6222 23.537L84.792 23.2078L55.1643 23.1792C27.1825 23.1506 25.4936 23.1649 24.8065 23.3939ZM84.6632 26.9292C85.064 27.1582 85.3646 27.4874 85.5649 27.9025C85.8655 28.5179 85.8655 28.5752 85.8655 44.3623V60.2067H55.0211H24.1768L24.2054 44.1333L24.2483 28.0456L24.6348 27.5446C25.4363 26.4855 22.6739 26.5713 55.0068 26.5713H84.0478L84.6632 26.9292ZM85.8369 66.1895C85.794 68.7372 85.794 68.7516 85.3932 69.2668C85.1785 69.5674 84.792 69.9109 84.5344 70.054C84.105 70.283 82.4018 70.2974 55.6652 70.3403C40.0355 70.3689 26.9249 70.3403 26.5098 70.2974C25.651 70.1972 24.964 69.7821 24.506 69.0951C24.1911 68.6371 24.1768 68.4653 24.1768 66.1323V63.6418H55.0355H85.8798L85.8369 66.1895ZM60.4171 76.9815C60.4744 80.4882 60.5746 81.0464 61.5335 82.5779C61.7769 82.9643 61.9629 83.2935 61.9629 83.3364C61.9629 83.3651 58.7998 83.3937 54.9353 83.3937H47.9219L48.1939 82.9929C48.7091 82.263 49.2244 81.1179 49.4391 80.2162C49.5822 79.5865 49.6538 78.4844 49.6538 76.5521V73.804H55.0068H60.3742L60.4171 76.9815Z" fill="white"/>
<path d="M53.6463 32.1471C51.0127 32.4025 48.5993 33.5387 46.7276 35.406C44.9793 37.1544 43.9091 39.2903 43.5171 41.8358C43.4114 42.5449 43.4114 44.2096 43.5171 44.9186C43.9091 47.4597 44.9705 49.5824 46.7188 51.3396C48.4672 53.088 50.6031 54.1582 53.1486 54.5501C53.8577 54.6558 55.5224 54.6558 56.2314 54.5501C58.7725 54.1582 60.8952 53.0968 62.6524 51.3484C64.4008 49.6 65.471 47.4641 65.8629 44.9186C65.9686 44.2096 65.9686 42.5449 65.8629 41.8358C65.471 39.2947 64.4096 37.172 62.6612 35.4148C60.9261 33.6753 58.7637 32.5919 56.2755 32.2131C55.725 32.1295 54.2144 32.0942 53.6463 32.1471ZM54.0294 35.7407V38.0176L53.5582 37.9868C52.5145 37.9207 50.7705 37.6521 50.7705 37.5552C50.7705 37.2821 51.4355 35.1858 51.8451 34.1729L51.9948 33.7986L52.3779 33.7017C52.8404 33.5828 53.4789 33.4815 53.8004 33.4727L54.0294 33.4683V35.7407ZM56.1698 33.5387C56.4252 33.5784 56.8083 33.6488 57.0109 33.7017L57.3853 33.7986L57.535 34.1729C57.9446 35.1858 58.6096 37.2821 58.6096 37.5552C58.6096 37.6521 56.8656 37.9207 55.8263 37.9868L55.3506 38.0176V35.7407V33.4683H55.5268C55.6237 33.4683 55.9099 33.4991 56.1698 33.5387ZM50.0835 35.1506C49.9514 35.5469 49.762 36.1767 49.6607 36.5511C49.5594 36.9254 49.4757 37.2381 49.4713 37.2425C49.4405 37.2909 47.5115 36.5599 47.5115 36.5026C47.5115 36.4057 48.5597 35.5161 49.119 35.1374C49.392 34.9524 50.2728 34.4371 50.3169 34.4371C50.3213 34.4371 50.2156 34.7586 50.0835 35.1506ZM60.217 35.111C60.8556 35.5381 61.9302 36.4586 61.8641 36.5246C61.7937 36.5907 59.9308 37.2777 59.9088 37.2425C59.9043 37.2381 59.8207 36.9254 59.7194 36.5511C59.6181 36.1767 59.4287 35.5469 59.2966 35.1506L59.0544 34.4327L59.4375 34.6397C59.6489 34.7542 59.9968 34.9656 60.217 35.111ZM48.5024 38.3215C48.868 38.4448 49.1674 38.5505 49.1763 38.5549C49.1851 38.5637 49.1586 38.7486 49.119 38.9732C49.0001 39.6691 48.8856 40.6379 48.8327 41.4175C48.8063 41.827 48.7711 42.2894 48.7623 42.4392L48.7359 42.7166H46.7585H44.7811V42.5581C44.7811 42.0648 45.0277 40.867 45.2875 40.1183C45.4901 39.5281 46.0186 38.4448 46.3445 37.9559L46.5955 37.5772L47.2165 37.8414C47.56 37.9823 48.1413 38.2025 48.5024 38.3215ZM63.2426 38.2862C63.7226 39.101 64.1542 40.1579 64.3568 41.0211C64.4713 41.5099 64.599 42.3115 64.599 42.5581V42.7166H62.6216H60.6442L60.6178 42.4392C60.609 42.2894 60.5738 41.827 60.5473 41.4175C60.4945 40.6379 60.38 39.6691 60.2611 38.9732C60.2214 38.7486 60.195 38.5637 60.2038 38.5549C60.2126 38.5505 60.5253 38.4404 60.8996 38.3171C61.274 38.1893 61.8509 37.9691 62.1768 37.8326L62.7713 37.5816L62.9167 37.7842C63.0003 37.8943 63.1457 38.1189 63.2426 38.2862ZM51.1228 39.0129C51.8054 39.145 52.4792 39.2287 53.2984 39.2903L54.0294 39.3432V41.0299V42.7166H52.0432H50.0615L50.0835 42.4172C50.0967 42.2542 50.1187 41.9151 50.1363 41.6597C50.1671 41.0695 50.2596 40.2592 50.3785 39.4929C50.4666 38.9204 50.4798 38.8852 50.5679 38.9072C50.6164 38.916 50.8674 38.9644 51.1228 39.0129ZM59.0015 39.4885C59.1204 40.2592 59.2129 41.0695 59.2438 41.6597C59.2614 41.9151 59.2834 42.2542 59.2966 42.4172L59.3186 42.7166H57.3368H55.3506V41.0299V39.3432L56.0905 39.2903C56.8876 39.2287 57.7684 39.1142 58.4334 38.9776C58.6624 38.9292 58.865 38.8896 58.8782 38.8896C58.8958 38.8852 58.9487 39.1582 59.0015 39.4885ZM48.7623 44.3109C48.7711 44.465 48.8063 44.923 48.8327 45.337C48.8856 46.1165 49.0001 47.0854 49.119 47.7812C49.1586 48.0058 49.1851 48.1908 49.1763 48.1996C49.1674 48.204 48.868 48.3097 48.5024 48.433C48.1413 48.5519 47.56 48.7721 47.2165 48.913L46.5955 49.1773L46.3445 48.7985C46.0186 48.3097 45.4901 47.2263 45.2875 46.6362C45.0277 45.8875 44.7811 44.6896 44.7811 44.1964V44.0378H46.7585H48.7359L48.7623 44.3109ZM54.0294 45.7245V47.4113L53.2984 47.4641C52.3251 47.5346 51.4663 47.6579 50.5679 47.8473C50.4798 47.8693 50.4666 47.8341 50.3785 47.2615C50.2596 46.4952 50.1671 45.6849 50.1363 45.0948C50.1187 44.8393 50.0967 44.5002 50.0835 44.3329L50.0615 44.0378H52.0432H54.0294V45.7245ZM59.2966 44.3329C59.2834 44.5002 59.2614 44.8393 59.2438 45.0948C59.2129 45.6849 59.1204 46.4952 59.0015 47.2615C58.9135 47.8341 58.9002 47.8693 58.8122 47.8473C57.9137 47.6579 57.055 47.5346 56.0817 47.4641L55.3506 47.4113V45.7245V44.0378H57.3368H59.3186L59.2966 44.3329ZM64.599 44.1964C64.599 44.6896 64.3524 45.8875 64.0925 46.6362C63.8899 47.2263 63.3615 48.3097 63.0356 48.7985L62.7845 49.1773L62.1636 48.913C61.8201 48.7721 61.2432 48.5519 60.8776 48.433C60.5165 48.3097 60.2126 48.204 60.2038 48.1996C60.195 48.1908 60.2214 48.0058 60.2611 47.7812C60.38 47.0854 60.4945 46.1165 60.5473 45.337C60.5738 44.923 60.609 44.465 60.6178 44.3109L60.6442 44.0378H62.6216H64.599V44.1964ZM54.0294 51.0181V53.2862H53.8533C53.5934 53.2862 52.7919 53.1585 52.3691 53.0528L51.9948 52.9559L51.8451 52.5815C51.4355 51.5686 50.7705 49.4723 50.7705 49.1993C50.7705 49.0936 52.8536 48.7853 53.7784 48.7589L54.0294 48.7501V51.0181ZM56.848 48.8602C57.5746 48.9483 58.6096 49.1464 58.6096 49.1993C58.6096 49.4723 57.9446 51.5686 57.535 52.5815L57.3853 52.9559L57.0109 53.0528C56.5882 53.1585 55.7866 53.2862 55.5268 53.2862H55.3506V51.0137V48.7369L55.8263 48.7677C56.0861 48.7853 56.5441 48.8249 56.848 48.8602ZM49.6431 50.1505C49.74 50.5073 49.9337 51.1414 50.0703 51.5598L50.3257 52.3217L49.9425 52.1147C49.4141 51.8285 48.846 51.4453 48.3263 51.0137C47.8727 50.6438 47.4807 50.2651 47.516 50.2298C47.5776 50.1726 49.2908 49.5252 49.4493 49.5032C49.4625 49.4988 49.5506 49.7894 49.6431 50.1505ZM60.424 49.6705C61.045 49.8775 61.8685 50.2122 61.8685 50.2518C61.8685 50.2959 61.3224 50.8023 60.9437 51.1106C60.5165 51.4541 59.9176 51.8549 59.4375 52.1147L59.0544 52.3217L59.3098 51.5598C59.4463 51.1414 59.6401 50.5073 59.737 50.1505C59.8295 49.7894 59.9088 49.4988 59.9088 49.4988C59.9132 49.4988 60.1422 49.578 60.424 49.6705Z" fill="white"/>
</g>
<defs>
<filter id="filter0_i_4561_4771" x="0" y="0" width="110" height="111.584" filterUnits="userSpaceOnUse" color-interpolation-filters="sRGB">
<feFlood flood-opacity="0" result="BackgroundImageFix"/>
<feBlend mode="normal" in="SourceGraphic" in2="BackgroundImageFix" result="shape"/>
<feColorMatrix in="SourceAlpha" type="matrix" values="0 0 0 0 0 0 0 0 0 0 0 0 0 0 0 0 0 0 127 0" result="hardAlpha"/>
<feOffset dy="1.58386"/>
<feGaussianBlur stdDeviation="1.58386"/>
<feComposite in2="hardAlpha" operator="arithmetic" k2="-1" k3="1"/>
<feColorMatrix type="matrix" values="0 0 0 0 1 0 0 0 0 1 0 0 0 0 1 0 0 0 0.25 0"/>
<feBlend mode="normal" in2="shape" result="effect1_innerShadow_4561_4771"/>
</filter>
<linearGradient id="paint0_linear_4561_4771" x1="-26.5" y1="-11.5" x2="143.12" y2="102.826" gradientUnits="userSpaceOnUse">
<stop offset="0.00725843" stop-color="#3378C9"/>
<stop offset="1" stop-color="#10923E" stop-opacity="0.62"/>
</linearGradient>
</defs>
</svg>
