<svg width="110" height="110" viewBox="0 0 110 110" fill="none" xmlns="http://www.w3.org/2000/svg">
<g filter="url(#filter0_i_4561_4822)">
<rect width="110" height="110" rx="12" fill="url(#paint0_linear_4561_4822)" fill-opacity="0.9"/>
<path opacity="0.965" fill-rule="evenodd" clip-rule="evenodd" d="M96.5 39.0469C96.5 39.5839 96.5 40.1212 96.5 40.6582C92.5086 44.7304 88.4803 48.7854 84.415 52.8237C83.7481 53.2839 83.0499 53.3378 82.3203 52.9849C81.3281 52.1056 80.3882 51.1655 79.5005 50.165C79.4199 54.193 79.393 58.2214 79.4199 62.25C83.6634 62.2231 87.9066 62.25 92.1494 62.3306C94.4012 62.7838 95.8514 64.0998 96.5 66.2783C96.5 70.5753 96.5 74.872 96.5 79.169C95.8199 81.1106 94.4771 82.3729 92.4717 82.9556C88.1214 83.0361 83.7708 83.0631 79.4199 83.0361C79.4468 84.9167 79.4199 86.7967 79.3394 88.6758C79.1513 89.2934 78.7485 89.6962 78.1309 89.8843C62.8769 89.9918 47.6231 89.9918 32.3691 89.8843C31.7515 89.6962 31.3487 89.2934 31.1606 88.6758C31.0801 83.9496 31.0532 79.2229 31.0801 74.4961C26.8366 74.523 22.5934 74.4961 18.3506 74.4155C16.0988 73.9623 14.6486 72.6463 14 70.4678C14 66.1709 14 61.8741 14 57.5772C14.6815 55.6341 16.0243 54.3717 18.0283 53.7905C22.3786 53.71 26.7292 53.6831 31.0801 53.71C31.1068 52.5271 31.0801 51.3455 30.9995 50.165C30.0596 51.1049 29.1196 52.045 28.1797 52.9849C27.4501 53.3378 26.7519 53.2839 26.085 52.8237C22.0198 48.7854 17.9915 44.7304 14 40.6582C14 40.1212 14 39.5839 14 39.0469C19.8177 33.1486 25.6722 27.2672 31.5635 21.4028C31.7783 21.2954 31.9932 21.188 32.208 21.0806C47.5693 20.9731 62.9307 20.9731 78.292 21.0806C78.5068 21.188 78.7217 21.2954 78.9365 21.4028C84.8279 27.2672 90.6823 33.1486 96.5 39.0469ZM33.4971 24.5449C36.7197 24.5449 39.9424 24.5449 43.165 24.5449C43.3598 29.7982 45.8307 33.5311 50.5771 35.7437C56.3014 37.7019 61.1085 36.3859 64.9985 31.7959C66.5361 29.6271 67.3148 27.2101 67.335 24.5449C70.5581 24.5181 73.7808 24.5449 77.0029 24.6255C82.0809 29.6765 87.1296 34.7522 92.1494 39.8525C89.249 42.8604 86.295 45.8145 83.2871 48.7149C82.0003 47.5088 80.7381 46.2734 79.5005 45.0088C79.4199 42.1625 79.393 39.316 79.4199 36.4688C78.2383 36.4688 77.0566 36.4688 75.875 36.4688C75.875 47.3721 75.875 58.2753 75.875 69.1787C69.9128 69.1518 63.9508 69.1787 57.9893 69.2593C57.4691 69.5111 57.1199 69.914 56.9419 70.4678C56.8344 74.2275 56.8344 77.9874 56.9419 81.7471C57.1199 82.3009 57.4691 82.7037 57.9893 82.9556C63.9508 83.0361 69.9128 83.0631 75.875 83.0361C75.875 84.1641 75.875 85.292 75.875 86.4199C62.1251 86.4199 48.3749 86.4199 34.625 86.4199C34.625 80.1358 34.625 73.8516 34.625 67.5674C46.8713 67.5943 59.1173 67.5674 71.3633 67.4868C71.8198 67.2451 72.1689 66.896 72.4106 66.4395C72.5181 62.5723 72.5181 58.7051 72.4106 54.8379C72.1689 54.3814 71.8198 54.0322 71.3633 53.7905C59.1173 53.71 46.8713 53.6831 34.625 53.71C34.625 47.9628 34.625 42.2159 34.625 36.4688C33.4434 36.4688 32.2617 36.4688 31.0801 36.4688C31.107 39.316 31.0801 42.1625 30.9995 45.0088C29.7619 46.2734 28.4996 47.5088 27.2129 48.7149C24.2051 45.8145 21.251 42.8604 18.3506 39.8525C23.4028 34.7466 28.4516 29.6441 33.4971 24.5449ZM46.71 24.5449C52.4033 24.5449 58.0967 24.5449 63.79 24.5449C63.2535 29.7006 60.4067 32.5473 55.25 33.085C50.0928 32.5469 47.2462 29.7003 46.71 24.5449ZM18.834 57.2549C19.4785 57.2549 20.123 57.2549 20.7676 57.2549C20.7676 58.3828 20.7676 59.5108 20.7676 60.6387C21.9492 60.6387 23.1309 60.6387 24.3125 60.6387C24.3125 59.5108 24.3125 58.3828 24.3125 57.2549C25.4404 57.2549 26.5684 57.2549 27.6963 57.2549C27.6963 58.3828 27.6963 59.5108 27.6963 60.6387C28.8779 60.6387 30.0596 60.6387 31.2412 60.6387C31.2412 59.5108 31.2412 58.3828 31.2412 57.2549C32.3691 57.2549 33.4971 57.2549 34.625 57.2549C34.625 58.3828 34.625 59.5108 34.625 60.6387C35.8066 60.6387 36.9883 60.6387 38.1699 60.6387C38.1699 59.5108 38.1699 58.3828 38.1699 57.2549C39.2442 57.2549 40.3183 57.2549 41.3926 57.2549C41.3926 58.3828 41.3926 59.5108 41.3926 60.6387C42.5742 60.6387 43.7559 60.6387 44.9375 60.6387C44.9375 59.5108 44.9375 58.3828 44.9375 57.2549C46.0654 57.2549 47.1934 57.2549 48.3213 57.2549C48.3213 58.3828 48.3213 59.5108 48.3213 60.6387C49.5029 60.6387 50.6846 60.6387 51.8662 60.6387C51.8662 59.5108 51.8662 58.3828 51.8662 57.2549C52.9941 57.2549 54.1221 57.2549 55.25 57.2549C55.25 58.3828 55.25 59.5108 55.25 60.6387C56.4316 60.6387 57.6133 60.6387 58.7949 60.6387C58.7949 59.5108 58.7949 58.3828 58.7949 57.2549C59.8692 57.2549 60.9433 57.2549 62.0176 57.2549C62.0176 59.5108 62.0176 61.7666 62.0176 64.0225C47.1898 63.9704 32.3656 64.0241 17.5449 64.1836C17.5181 62.2492 17.5449 60.3156 17.6255 58.3828C17.9102 57.8556 18.313 57.4797 18.834 57.2549ZM65.5625 57.2549C66.6904 57.2549 67.8184 57.2549 68.9463 57.2549C68.9463 59.5108 68.9463 61.7666 68.9463 64.0225C67.8184 64.0225 66.6904 64.0225 65.5625 64.0225C65.5625 61.7666 65.5625 59.5108 65.5625 57.2549ZM79.4199 65.7949C83.3949 65.768 87.3696 65.7949 91.3438 65.8755C92.7919 66.167 93.2485 66.9994 92.7134 68.3731C92.4496 68.7453 92.1004 68.987 91.666 69.0982C87.5844 69.1787 83.5024 69.2056 79.4199 69.1787C79.4199 68.0508 79.4199 66.9229 79.4199 65.7949ZM18.834 67.5674C22.916 67.5674 26.9981 67.5674 31.0801 67.5674C31.0801 68.6953 31.0801 69.8233 31.0801 70.9512C26.8824 71.0258 22.6929 70.9452 18.5117 70.7095C17.5503 70.1629 17.3086 69.384 17.7866 68.3731C18.0774 67.9983 18.4266 67.7298 18.834 67.5674ZM92.3105 72.5625C92.5253 72.5625 92.7403 72.5625 92.9551 72.5625C92.982 74.4969 92.9551 76.4305 92.8745 78.3633C92.6188 78.8879 92.216 79.2371 91.666 79.4107C83.5559 79.4912 75.4454 79.5181 67.335 79.4912C67.335 77.2354 67.335 74.9795 67.335 72.7236C68.4629 72.7236 69.5908 72.7236 70.7188 72.7236C70.7188 73.8516 70.7188 74.9795 70.7188 76.1074C71.9003 76.1074 73.0821 76.1074 74.2637 76.1074C74.2637 74.9795 74.2637 73.8516 74.2637 72.7236C75.3379 72.7236 76.4121 72.7236 77.4863 72.7236C77.4863 73.8516 77.4863 74.9795 77.4863 76.1074C78.6679 76.1074 79.8497 76.1074 81.0312 76.1074C81.0312 74.9795 81.0312 73.8516 81.0312 72.7236C82.1592 72.7236 83.2871 72.7236 84.415 72.7236C84.415 73.8516 84.415 74.9795 84.415 76.1074C85.5966 76.1074 86.7784 76.1074 87.96 76.1074C87.96 74.9795 87.96 73.8516 87.96 72.7236C89.4395 72.7763 90.8897 72.7225 92.3105 72.5625ZM60.4062 72.7236C61.5342 72.7236 62.6621 72.7236 63.79 72.7236C63.79 74.9795 63.79 77.2354 63.79 79.4912C62.6621 79.4912 61.5342 79.4912 60.4062 79.4912C60.4062 77.2354 60.4062 74.9795 60.4062 72.7236Z" fill="white"/>
</g>
<defs>
<filter id="filter0_i_4561_4822" x="0" y="0" width="110" height="111.584" filterUnits="userSpaceOnUse" color-interpolation-filters="sRGB">
<feFlood flood-opacity="0" result="BackgroundImageFix"/>
<feBlend mode="normal" in="SourceGraphic" in2="BackgroundImageFix" result="shape"/>
<feColorMatrix in="SourceAlpha" type="matrix" values="0 0 0 0 0 0 0 0 0 0 0 0 0 0 0 0 0 0 127 0" result="hardAlpha"/>
<feOffset dy="1.58386"/>
<feGaussianBlur stdDeviation="1.58386"/>
<feComposite in2="hardAlpha" operator="arithmetic" k2="-1" k3="1"/>
<feColorMatrix type="matrix" values="0 0 0 0 1 0 0 0 0 1 0 0 0 0 1 0 0 0 0.25 0"/>
<feBlend mode="normal" in2="shape" result="effect1_innerShadow_4561_4822"/>
</filter>
<linearGradient id="paint0_linear_4561_4822" x1="-26.5" y1="-11.5" x2="143.12" y2="102.826" gradientUnits="userSpaceOnUse">
<stop offset="0.00725843" stop-color="#3378C9"/>
<stop offset="1" stop-color="#10923E" stop-opacity="0.62"/>
</linearGradient>
</defs>
</svg>
