<svg width="110" height="110" viewBox="0 0 110 110" fill="none" xmlns="http://www.w3.org/2000/svg">
<g filter="url(#filter0_i_4561_4812)">
<rect width="110" height="110" rx="12" fill="url(#paint0_linear_4561_4812)" fill-opacity="0.9"/>
<g opacity="0.94">
<path fill-rule="evenodd" clip-rule="evenodd" d="M66.1289 18C67.4778 18 68.8269 18 70.1758 18C75.5032 19.0141 79.2852 22.0011 81.5215 26.9609C82.9937 31.2904 82.7288 35.5059 80.7266 39.6074C83.6749 44.776 85.0719 50.3405 84.918 56.3008C88.6793 57.0269 91.0399 59.243 92 62.9492C92 64.0091 92 65.0691 92 66.1289C91.7002 67.2412 91.2425 68.3012 90.627 69.3086C88.3136 72.4159 85.977 75.4992 83.6172 78.5586C82.2164 76.7483 80.8433 74.9176 79.498 73.0664C79.3771 72.8486 79.2084 72.7763 78.9922 72.8496C77.6554 74.6204 76.162 76.2585 74.5117 77.7637C75.3344 80.2307 75.5995 82.76 75.3066 85.3516C75.1135 86.2189 74.6077 86.8212 73.7891 87.1582C72.4376 87.1825 71.0886 87.2548 69.7422 87.375C68.4238 89.8505 66.4003 91.3923 63.6719 92C62.6602 92 61.6484 92 60.6367 92C57.9083 91.3923 55.8848 89.8505 54.5664 87.375C50.0867 87.2063 45.6062 87.1823 41.125 87.3027C39.8342 89.8228 37.8108 91.3886 35.0547 92C34.043 92 33.0312 92 32.0195 92C29.2944 91.3964 27.271 89.8549 25.9492 87.375C23.8311 87.2546 21.7113 87.1823 19.5898 87.1582C18.7927 86.9148 18.2627 86.409 18 85.6406C18 84.2917 18 82.9427 18 81.5938C18.4537 80.6111 19.2245 80.0812 20.3125 80.0039C20.2884 71.8619 20.3125 63.7199 20.3848 55.5781C20.6289 54.8519 21.0866 54.2977 21.7578 53.916C22.9211 53.8137 24.0533 53.645 25.1543 53.4102C25.4189 48.305 26.8883 43.5836 29.5625 39.2461C27.7087 36.8891 27.1065 34.2392 27.7559 31.2969C29.2708 26.9611 32.33 24.9136 36.9336 25.1543C39.0831 25.3975 40.8416 26.337 42.209 27.9727C46.4904 26.0081 50.995 25.0205 55.7227 25.0098C58.1544 21.121 61.6231 18.7844 66.1289 18ZM66.8516 20.457C72.3487 20.2524 76.3714 22.5649 78.9199 27.3945C80.5426 31.3178 80.3016 35.1238 78.1973 38.8125C74.88 43.1418 71.5076 47.4295 68.0801 51.6758C64.7077 47.3398 61.3352 43.0039 57.9629 38.668C55.0379 32.8195 55.929 27.6405 60.6367 23.1309C62.484 21.689 64.5557 20.7978 66.8516 20.457ZM34.7656 27.6836C38.8905 27.4965 41.2513 29.4477 41.8477 33.5371C41.7679 34.6438 41.4547 35.6796 40.9082 36.6445C39.2775 38.9017 37.5912 41.1179 35.8496 43.293C34.2116 41.0769 32.5735 38.8606 30.9355 36.6445C29.3445 33.5186 29.8986 30.8448 32.5977 28.623C33.3011 28.2221 34.0237 27.909 34.7656 27.6836ZM52.3984 27.6836C53.073 27.6836 53.7473 27.6836 54.4219 27.6836C52.8848 33.0781 53.8724 37.944 57.3848 42.2812C60.9499 46.8098 64.5149 51.3386 68.0801 55.8672C71.7415 51.2422 75.403 46.6172 79.0645 41.9922C81.4845 46.4557 82.5685 51.2253 82.3164 56.3008C78.3632 57.0502 76.0267 59.4109 75.3066 63.3828C75.0369 66.0906 75.7837 68.4754 77.5469 70.5371C76.4263 72.0437 75.1978 73.4649 73.8613 74.8008C72.8531 71.057 71.8895 67.2992 70.9707 63.5273C70.5884 62.1442 69.6971 61.3011 68.2969 60.998C64.2984 60.9258 60.2998 60.9016 56.3008 60.9258C56.3249 59.1907 56.3008 57.4563 56.2285 55.7227C55.9636 54.6868 55.3132 54.0364 54.2773 53.7715C45.413 53.6992 36.5483 53.6751 27.6836 53.6992C27.8976 49.3264 29.0779 45.2313 31.2246 41.4141C32.6699 43.3411 34.1152 45.2683 35.5605 47.1953C35.6815 47.4131 35.8502 47.4854 36.0664 47.4121C38.2058 44.4586 40.3979 41.5439 42.6426 38.668C44.4124 36.0638 44.7737 33.2696 43.7266 30.2852C43.7747 30.1888 43.823 30.0925 43.8711 29.9961C46.6152 28.7925 49.4577 28.0217 52.3984 27.6836ZM22.9141 56.3008C26.0456 56.3008 29.1771 56.3008 32.3086 56.3008L44.4401 56.3481L44.3047 56.3008C47.4362 56.3008 50.5677 56.3008 53.6992 56.3008C53.6992 64.2019 53.6992 72.1028 53.6992 80.0039C49.5075 80.028 45.3161 80.0039 41.125 79.9316C38.8303 76.0179 35.4578 74.5726 31.0078 75.5957C28.7698 76.3645 27.0836 77.7856 25.9492 79.8594C24.9421 80.0035 23.9303 80.0516 22.9141 80.0039C22.9141 72.1028 22.9141 64.2019 22.9141 56.3008ZM83.0391 58.6133C86.9109 58.7276 89.0789 60.7028 89.543 64.5391C89.4989 65.679 89.1857 66.739 88.6035 67.7188C87.0098 69.9444 85.3477 72.1124 83.6172 74.2227C81.9698 72.1345 80.3558 70.0146 78.7754 67.8633C76.9529 64.3227 77.6995 61.4562 81.0156 59.2637C81.6926 58.9992 82.3671 58.7824 83.0391 58.6133ZM56.3008 63.3828C60.216 63.3131 64.1183 63.3854 68.0078 63.5996C68.4804 64.1594 68.7695 64.8098 68.875 65.5508C66.805 65.6712 64.7335 65.7434 62.6602 65.7676C61.8171 66.0325 61.263 66.5866 60.998 67.4297C60.9016 68.7305 60.9016 70.0312 60.998 71.332C61.3112 72.0306 61.8171 72.5364 62.5156 72.8496C65.2613 72.9219 68.0074 72.946 70.7539 72.9219C71.2531 75.2802 71.8312 77.6167 72.4883 79.9316C71.573 80.028 70.6575 80.028 69.7422 79.9316C67.4475 76.0179 64.075 74.5726 59.625 75.5957C58.3948 76.0059 57.3108 76.6563 56.373 77.5469C56.3008 72.8258 56.2766 68.1044 56.3008 63.3828ZM63.3828 68.1523C65.4068 68.1282 67.4303 68.1523 69.4531 68.2246C69.7019 68.9545 69.8945 69.7013 70.0312 70.4648C67.8152 70.4648 65.5989 70.4648 63.3828 70.4648C63.3828 69.6941 63.3828 68.9231 63.3828 68.1523ZM33.1758 77.6914C37.7279 78.1715 39.7272 80.6767 39.1738 85.207C37.6878 88.9489 35.0139 90.2257 31.1523 89.0371C28.2894 87.4775 27.2054 85.0927 27.9004 81.8828C28.8376 79.4258 30.5961 78.0286 33.1758 77.6914ZM61.793 77.6914C65.003 77.795 67.0506 79.3849 67.9355 82.4609C68.3083 85.4497 67.176 87.6417 64.5391 89.0371C60.435 90.2252 57.713 88.804 56.373 84.7734C56.094 80.7987 57.9006 78.4381 61.793 77.6914ZM20.457 82.4609C22.0476 82.4368 23.6374 82.4609 25.2266 82.5332C25.0339 83.2559 25.0339 83.9785 25.2266 84.7012C23.6374 84.7734 22.0476 84.7976 20.457 84.7734C20.457 84.0027 20.457 83.2317 20.457 82.4609ZM33.4648 82.4609C34.5261 82.7246 34.8393 83.351 34.4043 84.3398C33.4008 85.0547 32.7504 84.8138 32.4531 83.6172C32.49 82.9547 32.8273 82.5693 33.4648 82.4609ZM41.8477 82.4609C45.8464 82.4609 49.845 82.4609 53.8438 82.4609C53.6511 83.2317 53.6511 84.0027 53.8438 84.7734C49.845 84.7734 45.8464 84.7734 41.8477 84.7734C42.0403 84.0027 42.0403 83.2317 41.8477 82.4609ZM62.082 82.4609C63.1373 82.7202 63.4505 83.3466 63.0215 84.3398C62.018 85.0547 61.3676 84.8138 61.0703 83.6172C61.2059 83.0485 61.5432 82.663 62.082 82.4609ZM70.4648 82.4609C71.2356 82.4609 72.0066 82.4609 72.7773 82.4609C72.7773 83.2317 72.7773 84.0027 72.7773 84.7734C72.0005 84.8208 71.2297 84.7727 70.4648 84.6289C70.6496 83.9064 70.6496 83.1837 70.4648 82.4609Z" fill="black"/>
<path fill-rule="evenodd" clip-rule="evenodd" d="M66.1289 18C67.4778 18 68.8269 18 70.1758 18C75.5032 19.0141 79.2852 22.0011 81.5215 26.9609C82.9937 31.2904 82.7288 35.5059 80.7266 39.6074C83.6749 44.776 85.0719 50.3405 84.918 56.3008C88.6793 57.0269 91.0399 59.243 92 62.9492C92 64.0091 92 65.0691 92 66.1289C91.7002 67.2412 91.2425 68.3012 90.627 69.3086C88.3136 72.4159 85.977 75.4992 83.6172 78.5586C82.2164 76.7483 80.8433 74.9176 79.498 73.0664C79.3771 72.8486 79.2084 72.7763 78.9922 72.8496C77.6554 74.6204 76.162 76.2585 74.5117 77.7637C75.3344 80.2307 75.5995 82.76 75.3066 85.3516C75.1135 86.2189 74.6077 86.8212 73.7891 87.1582C72.4376 87.1825 71.0886 87.2548 69.7422 87.375C68.4238 89.8505 66.4003 91.3923 63.6719 92C62.6602 92 61.6484 92 60.6367 92C57.9083 91.3923 55.8848 89.8505 54.5664 87.375C50.0867 87.2063 45.6062 87.1823 41.125 87.3027C39.8342 89.8228 37.8108 91.3886 35.0547 92C34.043 92 33.0312 92 32.0195 92C29.2944 91.3964 27.271 89.8549 25.9492 87.375C23.8311 87.2546 21.7113 87.1823 19.5898 87.1582C18.7927 86.9148 18.2627 86.409 18 85.6406C18 84.2917 18 82.9427 18 81.5938C18.4537 80.6111 19.2245 80.0812 20.3125 80.0039C20.2884 71.8619 20.3125 63.7199 20.3848 55.5781C20.6289 54.8519 21.0866 54.2977 21.7578 53.916C22.9211 53.8137 24.0533 53.645 25.1543 53.4102C25.4189 48.305 26.8883 43.5836 29.5625 39.2461C27.7087 36.8891 27.1065 34.2392 27.7559 31.2969C29.2708 26.9611 32.33 24.9136 36.9336 25.1543C39.0831 25.3975 40.8416 26.337 42.209 27.9727C46.4904 26.0081 50.995 25.0205 55.7227 25.0098C58.1544 21.121 61.6231 18.7844 66.1289 18ZM66.8516 20.457C72.3487 20.2524 76.3714 22.5649 78.9199 27.3945C80.5426 31.3178 80.3016 35.1238 78.1973 38.8125C74.88 43.1418 71.5076 47.4295 68.0801 51.6758C64.7077 47.3398 61.3352 43.0039 57.9629 38.668C55.0379 32.8195 55.929 27.6405 60.6367 23.1309C62.484 21.689 64.5557 20.7978 66.8516 20.457ZM34.7656 27.6836C38.8905 27.4965 41.2513 29.4477 41.8477 33.5371C41.7679 34.6438 41.4547 35.6796 40.9082 36.6445C39.2775 38.9017 37.5912 41.1179 35.8496 43.293C34.2116 41.0769 32.5735 38.8606 30.9355 36.6445C29.3445 33.5186 29.8986 30.8448 32.5977 28.623C33.3011 28.2221 34.0237 27.909 34.7656 27.6836ZM52.3984 27.6836C53.073 27.6836 53.7473 27.6836 54.4219 27.6836C52.8848 33.0781 53.8724 37.944 57.3848 42.2812C60.9499 46.8098 64.5149 51.3386 68.0801 55.8672C71.7415 51.2422 75.403 46.6172 79.0645 41.9922C81.4845 46.4557 82.5685 51.2253 82.3164 56.3008C78.3632 57.0502 76.0267 59.4109 75.3066 63.3828C75.0369 66.0906 75.7837 68.4754 77.5469 70.5371C76.4263 72.0437 75.1978 73.4649 73.8613 74.8008C72.8531 71.057 71.8895 67.2992 70.9707 63.5273C70.5884 62.1442 69.6971 61.3011 68.2969 60.998C64.2984 60.9258 60.2998 60.9016 56.3008 60.9258C56.3249 59.1907 56.3008 57.4563 56.2285 55.7227C55.9636 54.6868 55.3132 54.0364 54.2773 53.7715C45.413 53.6992 36.5483 53.6751 27.6836 53.6992C27.8976 49.3264 29.0779 45.2313 31.2246 41.4141C32.6699 43.3411 34.1152 45.2683 35.5605 47.1953C35.6815 47.4131 35.8502 47.4854 36.0664 47.4121C38.2058 44.4586 40.3979 41.5439 42.6426 38.668C44.4124 36.0638 44.7737 33.2696 43.7266 30.2852C43.7747 30.1888 43.823 30.0925 43.8711 29.9961C46.6152 28.7925 49.4577 28.0217 52.3984 27.6836ZM22.9141 56.3008C26.0456 56.3008 29.1771 56.3008 32.3086 56.3008L44.4401 56.3481L44.3047 56.3008C47.4362 56.3008 50.5677 56.3008 53.6992 56.3008C53.6992 64.2019 53.6992 72.1028 53.6992 80.0039C49.5075 80.028 45.3161 80.0039 41.125 79.9316C38.8303 76.0179 35.4578 74.5726 31.0078 75.5957C28.7698 76.3645 27.0836 77.7856 25.9492 79.8594C24.9421 80.0035 23.9303 80.0516 22.9141 80.0039C22.9141 72.1028 22.9141 64.2019 22.9141 56.3008ZM83.0391 58.6133C86.9109 58.7276 89.0789 60.7028 89.543 64.5391C89.4989 65.679 89.1857 66.739 88.6035 67.7188C87.0098 69.9444 85.3477 72.1124 83.6172 74.2227C81.9698 72.1345 80.3558 70.0146 78.7754 67.8633C76.9529 64.3227 77.6995 61.4562 81.0156 59.2637C81.6926 58.9992 82.3671 58.7824 83.0391 58.6133ZM56.3008 63.3828C60.216 63.3131 64.1183 63.3854 68.0078 63.5996C68.4804 64.1594 68.7695 64.8098 68.875 65.5508C66.805 65.6712 64.7335 65.7434 62.6602 65.7676C61.8171 66.0325 61.263 66.5866 60.998 67.4297C60.9016 68.7305 60.9016 70.0312 60.998 71.332C61.3112 72.0306 61.8171 72.5364 62.5156 72.8496C65.2613 72.9219 68.0074 72.946 70.7539 72.9219C71.2531 75.2802 71.8312 77.6167 72.4883 79.9316C71.573 80.028 70.6575 80.028 69.7422 79.9316C67.4475 76.0179 64.075 74.5726 59.625 75.5957C58.3948 76.0059 57.3108 76.6563 56.373 77.5469C56.3008 72.8258 56.2766 68.1044 56.3008 63.3828ZM63.3828 68.1523C65.4068 68.1282 67.4303 68.1523 69.4531 68.2246C69.7019 68.9545 69.8945 69.7013 70.0312 70.4648C67.8152 70.4648 65.5989 70.4648 63.3828 70.4648C63.3828 69.6941 63.3828 68.9231 63.3828 68.1523ZM33.1758 77.6914C37.7279 78.1715 39.7272 80.6767 39.1738 85.207C37.6878 88.9489 35.0139 90.2257 31.1523 89.0371C28.2894 87.4775 27.2054 85.0927 27.9004 81.8828C28.8376 79.4258 30.5961 78.0286 33.1758 77.6914ZM61.793 77.6914C65.003 77.795 67.0506 79.3849 67.9355 82.4609C68.3083 85.4497 67.176 87.6417 64.5391 89.0371C60.435 90.2252 57.713 88.804 56.373 84.7734C56.094 80.7987 57.9006 78.4381 61.793 77.6914ZM20.457 82.4609C22.0476 82.4368 23.6374 82.4609 25.2266 82.5332C25.0339 83.2559 25.0339 83.9785 25.2266 84.7012C23.6374 84.7734 22.0476 84.7976 20.457 84.7734C20.457 84.0027 20.457 83.2317 20.457 82.4609ZM33.4648 82.4609C34.5261 82.7246 34.8393 83.351 34.4043 84.3398C33.4008 85.0547 32.7504 84.8138 32.4531 83.6172C32.49 82.9547 32.8273 82.5693 33.4648 82.4609ZM41.8477 82.4609C45.8464 82.4609 49.845 82.4609 53.8438 82.4609C53.6511 83.2317 53.6511 84.0027 53.8438 84.7734C49.845 84.7734 45.8464 84.7734 41.8477 84.7734C42.0403 84.0027 42.0403 83.2317 41.8477 82.4609ZM62.082 82.4609C63.1373 82.7202 63.4505 83.3466 63.0215 84.3398C62.018 85.0547 61.3676 84.8138 61.0703 83.6172C61.2059 83.0485 61.5432 82.663 62.082 82.4609ZM70.4648 82.4609C71.2356 82.4609 72.0066 82.4609 72.7773 82.4609C72.7773 83.2317 72.7773 84.0027 72.7773 84.7734C72.0005 84.8208 71.2297 84.7727 70.4648 84.6289C70.6496 83.9064 70.6496 83.1837 70.4648 82.4609Z" fill="white"/>
</g>
</g>
<defs>
<filter id="filter0_i_4561_4812" x="0" y="0" width="110" height="111.584" filterUnits="userSpaceOnUse" color-interpolation-filters="sRGB">
<feFlood flood-opacity="0" result="BackgroundImageFix"/>
<feBlend mode="normal" in="SourceGraphic" in2="BackgroundImageFix" result="shape"/>
<feColorMatrix in="SourceAlpha" type="matrix" values="0 0 0 0 0 0 0 0 0 0 0 0 0 0 0 0 0 0 127 0" result="hardAlpha"/>
<feOffset dy="1.58386"/>
<feGaussianBlur stdDeviation="1.58386"/>
<feComposite in2="hardAlpha" operator="arithmetic" k2="-1" k3="1"/>
<feColorMatrix type="matrix" values="0 0 0 0 1 0 0 0 0 1 0 0 0 0 1 0 0 0 0.25 0"/>
<feBlend mode="normal" in2="shape" result="effect1_innerShadow_4561_4812"/>
</filter>
<linearGradient id="paint0_linear_4561_4812" x1="-26.5" y1="-11.5" x2="143.12" y2="102.826" gradientUnits="userSpaceOnUse">
<stop offset="0.00725843" stop-color="#3378C9"/>
<stop offset="1" stop-color="#10923E" stop-opacity="0.62"/>
</linearGradient>
</defs>
</svg>
