<svg width="110" height="110" viewBox="0 0 110 110" fill="none" xmlns="http://www.w3.org/2000/svg">
<g filter="url(#filter0_i_4561_4766)">
<rect width="110" height="110" rx="12" fill="url(#paint0_linear_4561_4766)" fill-opacity="0.9"/>
<path d="M37.872 33.6757C25.5709 38.1392 21.9178 39.5207 21.6255 39.7997C21.1606 40.2514 20.9215 40.982 21.041 41.6462C21.2403 42.6691 21.4661 42.7753 27.9222 45.1532L33.8735 47.3451V53.934C33.8735 57.5606 33.9134 60.7222 33.9665 60.9613C34.0861 61.5724 35.534 63.0735 36.8492 63.937C41.2329 66.8329 47.2639 68.148 55.261 67.9621C61.0794 67.8292 65.3038 66.979 69.0233 65.2122C71.0691 64.2558 73.0086 62.861 73.8322 61.7849L74.1909 61.32L74.2573 54.4122L74.3237 47.5045L76.6484 46.6676C77.9237 46.2027 79.013 45.8174 79.0794 45.8174C79.1325 45.8174 79.1724 49.537 79.1724 54.0801V62.3429L76.3296 65.2122C72.3045 69.2506 72.3045 68.8787 76.3163 72.917L79.1591 75.7731L79.199 78.3237C79.2388 80.6617 79.2654 80.9008 79.5178 81.2462C80.368 82.3886 81.9621 82.3886 82.8123 81.2462C83.0647 80.9008 83.0912 80.675 83.1311 78.3237L83.1709 75.7731L85.8676 73.0499C87.3554 71.5488 88.6706 70.1407 88.7901 69.9015C89.0558 69.3569 89.0558 68.7724 88.7901 68.2277C88.6706 67.9886 87.3554 66.5805 85.8676 65.0794L83.1576 62.3562L83.1842 53.3229L83.2241 44.303L85.0174 43.6255C87.289 42.7886 87.382 42.7355 87.7008 42.0049C88.0462 41.2211 87.9267 40.5038 87.3554 39.8927C86.9835 39.4809 85.5089 38.9229 70.9761 33.6624C57.7451 28.8801 54.9023 27.8838 54.3709 27.8971C53.8927 27.9104 49.9207 29.2919 37.872 33.6757ZM67.2167 36.5451C74.1244 39.0425 79.81 41.1148 79.8632 41.1547C79.9163 41.1945 74.1244 43.3333 66.9909 45.9104L54.0388 50.5731L41.4322 45.9104C32.6514 42.6558 28.892 41.2078 29.0514 41.1414C30.061 40.703 54.1849 32.0152 54.3975 32.0152C54.5436 32.0019 60.3089 34.0477 67.2167 36.5451ZM45.723 51.7554C51.8337 54.0403 53.5872 54.6381 54.0654 54.6248C54.4905 54.6248 56.9613 53.7879 62.4078 51.8086C66.672 50.2676 70.1923 49.0056 70.2189 49.0056C70.2455 49.0056 70.272 51.4233 70.272 54.3724V59.7525L69.8071 60.1377C67.4957 62.0373 62.9259 63.4455 57.6654 63.8971C55.3805 64.0831 50.6647 63.9901 48.6189 63.6979C44.182 63.0735 40.4757 61.8248 38.5362 60.2838L37.8587 59.7658V54.3193C37.8587 51.317 37.8853 48.8728 37.9119 48.8728C37.9385 48.8728 41.4587 50.1746 45.723 51.7554ZM82.6927 67.6034L84.154 69.0646L82.6528 70.5658L81.165 72.0536L79.6772 70.5658L78.1761 69.0646L79.6373 67.6034C80.4344 66.8063 81.1252 66.1421 81.165 66.1421C81.2049 66.1421 81.8956 66.8063 82.6927 67.6034Z" fill="white"/>
</g>
<defs>
<filter id="filter0_i_4561_4766" x="0" y="0" width="110" height="111.584" filterUnits="userSpaceOnUse" color-interpolation-filters="sRGB">
<feFlood flood-opacity="0" result="BackgroundImageFix"/>
<feBlend mode="normal" in="SourceGraphic" in2="BackgroundImageFix" result="shape"/>
<feColorMatrix in="SourceAlpha" type="matrix" values="0 0 0 0 0 0 0 0 0 0 0 0 0 0 0 0 0 0 127 0" result="hardAlpha"/>
<feOffset dy="1.58386"/>
<feGaussianBlur stdDeviation="1.58386"/>
<feComposite in2="hardAlpha" operator="arithmetic" k2="-1" k3="1"/>
<feColorMatrix type="matrix" values="0 0 0 0 1 0 0 0 0 1 0 0 0 0 1 0 0 0 0.25 0"/>
<feBlend mode="normal" in2="shape" result="effect1_innerShadow_4561_4766"/>
</filter>
<linearGradient id="paint0_linear_4561_4766" x1="-26.5" y1="-11.5" x2="143.12" y2="102.826" gradientUnits="userSpaceOnUse">
<stop offset="0.00725843" stop-color="#3378C9"/>
<stop offset="1" stop-color="#10923E" stop-opacity="0.62"/>
</linearGradient>
</defs>
</svg>
