<svg width="110" height="110" viewBox="0 0 110 110" fill="none" xmlns="http://www.w3.org/2000/svg">
<g filter="url(#filter0_i_4561_4777)">
<rect width="110" height="110" rx="12" fill="url(#paint0_linear_4561_4777)" fill-opacity="0.9"/>
<path d="M44.7428 18.2376C43.7967 18.4628 43.0608 18.9134 42.3249 19.7243C41.4389 20.7155 41.1836 21.5715 41.1836 23.5088V24.9806H37.5493C32.5033 24.9806 31.3019 25.2809 29.4997 26.9779C28.5536 27.894 28.043 28.705 27.6525 29.9515C27.3822 30.8375 27.3672 31.8587 27.3672 58.4703C27.3672 85.4724 27.3672 86.0881 27.6675 87.0192C28.3133 89.1518 29.8451 90.7286 32.0227 91.5246L32.9989 91.885H55.0751H77.1513L78.0073 91.5546C80.1248 90.7437 81.7017 89.1067 82.3325 87.0192C82.6328 86.0881 82.6328 85.4724 82.6328 58.4703C82.6328 31.8587 82.6178 30.8375 82.3475 29.9515C81.957 28.705 81.4464 27.894 80.5003 26.9779C78.6981 25.2809 77.4967 24.9806 72.4657 24.9806H68.8164V23.4938C68.8164 22.5176 68.7263 21.7517 68.5611 21.2261C68.2307 20.1899 67.1194 18.9734 66.0832 18.5079L65.2872 18.1475L55.3004 18.1174C49.7588 18.1024 45.0582 18.1625 44.7428 18.2376ZM64.1609 27.3083V31.8888H55H45.8391V27.3083V22.7279H55H64.1609V27.3083ZM41.1836 31.213C41.1836 32.4294 41.2587 32.9701 41.499 33.6158C41.9195 34.7271 43.0008 35.8084 44.1121 36.2289C44.923 36.5443 45.1783 36.5443 55 36.5443C64.8217 36.5443 65.077 36.5443 65.8879 36.2289C66.9992 35.8084 68.0805 34.7271 68.501 33.6158C68.7413 32.955 68.8164 32.4294 68.8164 31.1979V29.6211L72.706 29.6661C76.4004 29.7112 76.6257 29.7262 77.0312 30.0266C77.2564 30.2068 77.5868 30.5672 77.752 30.8525C78.0524 31.3631 78.0524 31.6335 78.0524 58.4703C78.0524 85.3072 78.0524 85.5775 77.752 86.0881C77.5868 86.3735 77.2564 86.7339 77.0312 86.9141L76.6107 87.2295H55H33.3893L32.9688 86.9141C32.7436 86.7339 32.4132 86.3735 32.248 86.0881C31.9476 85.5775 31.9476 85.2772 31.9026 58.7857C31.8876 41.0346 31.9176 31.8137 32.0227 31.4382C32.1128 31.1379 32.3231 30.6873 32.5033 30.4621C33.089 29.7112 33.4344 29.6511 37.4742 29.6361H41.1836V31.213Z" fill="white"/>
<path d="M53.9487 41.4702C53.6634 41.6053 53.2729 41.9507 53.0927 42.2361C52.7623 42.7166 52.7473 42.8969 52.7473 45.4199V48.1081H50.1643C47.9867 48.1081 47.4761 48.1531 47.0405 48.3784C45.4637 49.1593 45.4186 51.472 46.9655 52.4182C47.3409 52.6434 47.8065 52.6885 50.0741 52.7335L52.7323 52.7936L52.7774 55.5118C52.8224 58.5154 52.8825 58.7257 53.8737 59.3114C54.8048 59.867 56.1864 59.5516 56.8772 58.6506C57.1475 58.2901 57.1776 57.9748 57.2226 55.5118L57.2677 52.7936L59.9258 52.7335C62.1935 52.6885 62.6591 52.6434 63.0345 52.4182C64.5814 51.472 64.5363 49.1593 62.9594 48.3784C62.5239 48.1531 62.0133 48.1081 59.8508 48.1081H57.2527V45.4199C57.2527 42.8969 57.2377 42.7166 56.9073 42.2361C56.5018 41.6203 55.7209 41.1998 55 41.1998C54.7147 41.1998 54.2341 41.32 53.9487 41.4702Z" fill="white"/>
<path d="M40.5978 64.3273C39.9371 64.4775 39.0961 65.3335 38.9459 65.9943C38.7356 66.9854 39.1561 68.0067 40.0272 68.5323C40.4927 68.8176 40.8982 68.8326 54.9999 68.8326C69.1017 68.8326 69.5072 68.8176 69.9727 68.5323C70.8287 68.0217 71.2643 67.0005 71.054 65.9943C70.9188 65.3185 70.0628 64.4925 69.327 64.3273C68.6061 64.1471 41.3187 64.1621 40.5978 64.3273Z" fill="white"/>
<path d="M44.6377 73.8186C43.4964 74.5995 43.181 75.6658 43.7667 76.7921C43.9619 77.1826 44.3223 77.588 44.6377 77.7682C45.1483 78.0686 45.4036 78.0686 55 78.0686C64.5964 78.0686 64.8517 78.0686 65.3623 77.7682C65.6777 77.588 66.0381 77.1826 66.2334 76.7921C66.819 75.6658 66.5037 74.5995 65.3623 73.8186L64.8667 73.4882H55H45.1333L44.6377 73.8186Z" fill="white"/>
</g>
<defs>
<filter id="filter0_i_4561_4777" x="0" y="0" width="110" height="111.584" filterUnits="userSpaceOnUse" color-interpolation-filters="sRGB">
<feFlood flood-opacity="0" result="BackgroundImageFix"/>
<feBlend mode="normal" in="SourceGraphic" in2="BackgroundImageFix" result="shape"/>
<feColorMatrix in="SourceAlpha" type="matrix" values="0 0 0 0 0 0 0 0 0 0 0 0 0 0 0 0 0 0 127 0" result="hardAlpha"/>
<feOffset dy="1.58386"/>
<feGaussianBlur stdDeviation="1.58386"/>
<feComposite in2="hardAlpha" operator="arithmetic" k2="-1" k3="1"/>
<feColorMatrix type="matrix" values="0 0 0 0 1 0 0 0 0 1 0 0 0 0 1 0 0 0 0.25 0"/>
<feBlend mode="normal" in2="shape" result="effect1_innerShadow_4561_4777"/>
</filter>
<linearGradient id="paint0_linear_4561_4777" x1="-26.5" y1="-11.5" x2="143.12" y2="102.826" gradientUnits="userSpaceOnUse">
<stop offset="0.00725843" stop-color="#3378C9"/>
<stop offset="1" stop-color="#10923E" stop-opacity="0.62"/>
</linearGradient>
</defs>
</svg>
