<svg width="110" height="110" viewBox="0 0 110 110" fill="none" xmlns="http://www.w3.org/2000/svg">
<g filter="url(#filter0_i_4561_4748)">
<rect width="110" height="110" rx="12" fill="url(#paint0_linear_4561_4748)" fill-opacity="0.9"/>
<g clip-path="url(#clip0_4561_4748)">
<path d="M34.2082 21.7054C32.1539 22.1503 30.479 22.87 28.7125 24.0476C25.1273 26.4422 22.6019 30.2499 21.7514 34.5287C21.5158 35.7194 21.5158 38.9644 21.7514 40.1552C23.0729 46.7761 28.2415 51.8269 34.8886 52.9653L35.3727 53.0569V49.9296V46.8023L34.6923 46.4883C33.0175 45.7163 31.4604 43.361 31.4473 41.6207V41.2674H33.41C35.0849 41.2674 35.3727 41.2936 35.3727 41.4637C35.3727 42.2488 36.4719 43.2301 37.3224 43.2301C38.3299 43.2301 39.2982 42.2618 39.2982 41.2674C39.2982 40.2468 38.3299 39.3046 37.2831 39.3046C35.8438 39.3046 34.2998 38.6373 33.2137 37.5382C30.8584 35.1829 30.8846 31.5584 33.2661 29.2293C33.6717 28.8367 34.3129 28.3657 34.6923 28.1956L35.3727 27.8815V24.6888C35.3727 22.2288 35.3335 21.5092 35.2157 21.5223C35.1241 21.5223 34.6662 21.6139 34.2082 21.7054Z" fill="#3378C9"/>
<path d="M34.2082 21.7054C32.1539 22.1503 30.479 22.87 28.7125 24.0476C25.1273 26.4422 22.6019 30.2499 21.7514 34.5287C21.5158 35.7194 21.5158 38.9644 21.7514 40.1552C23.0729 46.7761 28.2415 51.8269 34.8886 52.9653L35.3727 53.0569V49.9296V46.8023L34.6923 46.4883C33.0175 45.7163 31.4604 43.361 31.4473 41.6207V41.2674H33.41C35.0849 41.2674 35.3727 41.2936 35.3727 41.4637C35.3727 42.2488 36.4719 43.2301 37.3224 43.2301C38.3299 43.2301 39.2982 42.2618 39.2982 41.2674C39.2982 40.2468 38.3299 39.3046 37.2831 39.3046C35.8438 39.3046 34.2998 38.6373 33.2137 37.5382C30.8584 35.1829 30.8846 31.5584 33.2661 29.2293C33.6717 28.8367 34.3129 28.3657 34.6923 28.1956L35.3727 27.8815V24.6888C35.3727 22.2288 35.3335 21.5092 35.2157 21.5223C35.1241 21.5223 34.6662 21.6139 34.2082 21.7054Z" fill="white"/>
<path d="M39.2982 24.6888V27.8815L39.9786 28.1956C41.6534 28.9676 43.2105 31.3229 43.2236 33.0501V33.4164H41.2609C39.586 33.4164 39.2982 33.3903 39.2982 33.2202C39.2982 33.1024 39.1804 32.7753 39.0365 32.5005C38.7355 31.9117 37.9897 31.4537 37.3354 31.4537C36.341 31.4537 35.3727 32.422 35.3727 33.4164C35.3727 34.4109 36.3671 35.3792 37.3747 35.3792C38.8402 35.3792 40.358 36.0334 41.4572 37.1326C43.8124 39.5009 43.7863 43.1254 41.4048 45.4546C40.9992 45.8471 40.358 46.3182 39.9786 46.4883L39.2982 46.8023V49.9296V53.0569L39.7954 52.9784C42.2946 52.5466 44.6106 51.5652 46.6257 50.0604C49.7137 47.7575 51.8989 44.3293 52.7233 40.4823C53.0242 39.0953 53.0635 35.8895 52.7887 34.5287C51.4671 27.803 46.3378 22.6868 39.7954 21.5746L39.2982 21.4961V24.6888Z" fill="#3378C9"/>
<path d="M39.2982 24.6888V27.8815L39.9786 28.1956C41.6534 28.9676 43.2105 31.3229 43.2236 33.0501V33.4164H41.2609C39.586 33.4164 39.2982 33.3903 39.2982 33.2202C39.2982 33.1024 39.1804 32.7753 39.0365 32.5005C38.7355 31.9117 37.9897 31.4537 37.3354 31.4537C36.341 31.4537 35.3727 32.422 35.3727 33.4164C35.3727 34.4109 36.3671 35.3792 37.3747 35.3792C38.8402 35.3792 40.358 36.0334 41.4572 37.1326C43.8124 39.5009 43.7863 43.1254 41.4048 45.4546C40.9992 45.8471 40.358 46.3182 39.9786 46.4883L39.2982 46.8023V49.9296V53.0569L39.7954 52.9784C42.2946 52.5466 44.6106 51.5652 46.6257 50.0604C49.7137 47.7575 51.8989 44.3293 52.7233 40.4823C53.0242 39.0953 53.0635 35.8895 52.7887 34.5287C51.4671 27.803 46.3378 22.6868 39.7954 21.5746L39.2982 21.4961V24.6888Z" fill="white"/>
<path d="M78.6183 24.0215C76.0275 25.3169 73.8816 26.403 73.8423 26.4291C73.7638 26.5207 75.4518 29.8835 75.5695 29.8835C75.6349 29.8835 76.3808 29.5303 77.2444 29.0985C78.108 28.6667 78.8407 28.3134 78.8669 28.3134C79.0632 28.3134 76.106 34.3978 74.8237 36.6354C65.7166 52.4288 52.841 62.7659 37.27 66.783C32.6903 67.9737 26.8413 68.7457 22.5233 68.7457H21.5027V70.7346V72.7104L23.8841 72.6189C33.7632 72.2394 42.1899 70.0935 50.3418 65.8932C61.1761 60.306 70.3225 51.3951 77.5715 39.3701C78.6968 37.499 81.3792 32.3173 82.1643 30.4985C82.426 29.8705 82.6877 29.3602 82.727 29.3602C82.7793 29.3602 83.2111 30.1583 83.6952 31.1266C84.1794 32.0949 84.6243 32.8931 84.7028 32.8931C84.8205 32.8931 87.9478 31.3752 88.0787 31.2575C88.1049 31.2313 87.045 29.0723 85.7234 26.4422L83.3289 21.6662L78.6183 24.0215Z" fill="#3378C9"/>
<path d="M78.6183 24.0215C76.0275 25.3169 73.8816 26.403 73.8423 26.4291C73.7638 26.5207 75.4518 29.8835 75.5695 29.8835C75.6349 29.8835 76.3808 29.5303 77.2444 29.0985C78.108 28.6667 78.8407 28.3134 78.8669 28.3134C79.0632 28.3134 76.106 34.3978 74.8237 36.6354C65.7166 52.4288 52.841 62.7659 37.27 66.783C32.6903 67.9737 26.8413 68.7457 22.5233 68.7457H21.5027V70.7346V72.7104L23.8841 72.6189C33.7632 72.2394 42.1899 70.0935 50.3418 65.8932C61.1761 60.306 70.3225 51.3951 77.5715 39.3701C78.6968 37.499 81.3792 32.3173 82.1643 30.4985C82.426 29.8705 82.6877 29.3602 82.727 29.3602C82.7793 29.3602 83.2111 30.1583 83.6952 31.1266C84.1794 32.0949 84.6243 32.8931 84.7028 32.8931C84.8205 32.8931 87.9478 31.3752 88.0787 31.2575C88.1049 31.2313 87.045 29.0723 85.7234 26.4422L83.3289 21.6662L78.6183 24.0215Z" fill="white"/>
<path d="M72.6647 60.8947V64.8202H80.581H88.4974V60.8947V56.9692H80.581H72.6647V60.8947Z" fill="#3378C9"/>
<path d="M72.6647 60.8947V64.8202H80.581H88.4974V60.8947V56.9692H80.581H72.6647V60.8947Z" fill="white"/>
<path d="M53.0374 72.6712V76.5967H60.8883H68.7392V72.6712V68.7457H60.8883H53.0374V72.6712Z" fill="#3378C9"/>
<path d="M53.0374 72.6712V76.5967H60.8883H68.7392V72.6712V68.7457H60.8883H53.0374V72.6712Z" fill="white"/>
<path d="M72.6647 72.6712V76.5967H80.581H88.4974V72.6712V68.7457H80.581H72.6647V72.6712Z" fill="#3378C9"/>
<path d="M72.6647 72.6712V76.5967H80.581H88.4974V72.6712V68.7457H80.581H72.6647V72.6712Z" fill="white"/>
<path d="M33.4099 84.513V88.5039H41.2609H49.1118V84.513V80.5221H41.2609H33.4099V84.513Z" fill="#3378C9"/>
<path d="M33.4099 84.513V88.5039H41.2609H49.1118V84.513V80.5221H41.2609H33.4099V84.513Z" fill="white"/>
<path d="M53.0374 84.513V88.5039H60.8883H68.7392V84.513V80.5221H60.8883H53.0374V84.513Z" fill="#3378C9"/>
<path d="M53.0374 84.513V88.5039H60.8883H68.7392V84.513V80.5221H60.8883H53.0374V84.513Z" fill="white"/>
<path d="M72.6647 84.513V88.5039H80.581H88.4974V84.513V80.5221H80.581H72.6647V84.513Z" fill="#3378C9"/>
<path d="M72.6647 84.513V88.5039H80.581H88.4974V84.513V80.5221H80.581H72.6647V84.513Z" fill="white"/>
</g>
</g>
<defs>
<filter id="filter0_i_4561_4748" x="0" y="0" width="110" height="111.584" filterUnits="userSpaceOnUse" color-interpolation-filters="sRGB">
<feFlood flood-opacity="0" result="BackgroundImageFix"/>
<feBlend mode="normal" in="SourceGraphic" in2="BackgroundImageFix" result="shape"/>
<feColorMatrix in="SourceAlpha" type="matrix" values="0 0 0 0 0 0 0 0 0 0 0 0 0 0 0 0 0 0 127 0" result="hardAlpha"/>
<feOffset dy="1.58386"/>
<feGaussianBlur stdDeviation="1.58386"/>
<feComposite in2="hardAlpha" operator="arithmetic" k2="-1" k3="1"/>
<feColorMatrix type="matrix" values="0 0 0 0 1 0 0 0 0 1 0 0 0 0 1 0 0 0 0.25 0"/>
<feBlend mode="normal" in2="shape" result="effect1_innerShadow_4561_4748"/>
</filter>
<linearGradient id="paint0_linear_4561_4748" x1="-26.5" y1="-11.5" x2="143.12" y2="102.826" gradientUnits="userSpaceOnUse">
<stop offset="0.00725843" stop-color="#3378C9"/>
<stop offset="1" stop-color="#10923E" stop-opacity="0.62"/>
</linearGradient>
<clipPath id="clip0_4561_4748">
<rect width="66.9947" height="67.0078" fill="white" transform="translate(21.5027 21.4961)"/>
</clipPath>
</defs>
</svg>
