<svg width="110" height="110" viewBox="0 0 110 110" fill="none" xmlns="http://www.w3.org/2000/svg">
<g filter="url(#filter0_i_4561_4783)">
<rect width="110" height="110" rx="12" fill="url(#paint0_linear_4561_4783)" fill-opacity="0.9"/>
<path d="M51.0876 19.5722C43.3611 20.4342 35.9059 23.9304 30.3504 29.2783C21.5542 37.7392 17.691 49.6962 19.894 61.6852C20.4048 64.4789 21.0913 65.3569 22.7515 65.3569C23.5497 65.3569 24.1723 65.0536 24.7151 64.3991C25.3217 63.6967 25.3856 63.0581 25.0025 61.2701C21.9055 46.1203 30.4462 31.1142 45.0373 26.0855C55.9726 22.318 68.2649 25.0957 76.4704 33.2054L77.7475 34.4666L74.8421 34.5464C72.2399 34.6103 71.9047 34.6582 71.5056 34.9615C70.6595 35.5841 70.4041 36.0949 70.4041 37.1007C70.4041 38.1064 70.6595 38.6172 71.5056 39.2398C71.9366 39.5591 72.1282 39.5751 77.987 39.5751C83.8458 39.5751 84.0373 39.5591 84.4684 39.2398C84.7078 39.0642 85.059 38.713 85.2346 38.4736C85.5539 38.0425 85.5699 37.851 85.5699 31.9922C85.5699 26.1334 85.5539 25.9418 85.2346 25.5108C84.612 24.6647 84.1012 24.4093 83.0955 24.4093C82.0897 24.4093 81.5789 24.6647 80.9563 25.5108C80.6689 25.878 80.6051 26.2611 80.5412 27.9214L80.4614 29.8849L79.4237 28.9431C78.1626 27.7777 75.2571 25.5746 73.8044 24.6807C70.4999 22.6213 66.5089 21.0249 62.4221 20.115C59.373 19.4445 54.3283 19.205 51.0876 19.5722Z" fill="white"/>
<path d="M53.9612 37.3242C52.8118 37.851 52.4446 38.6492 52.4446 40.6767V42.1773L50.497 42.2411C48.8527 42.305 48.4057 42.3688 47.7352 42.7041C46.7295 43.183 45.7716 44.1409 45.2608 45.1625C44.8617 45.9448 44.8617 46.0246 44.8617 49.8719C44.8617 53.6075 44.8777 53.815 45.2289 54.5015C45.7876 55.6509 46.4262 56.3214 47.5277 56.912L48.5334 57.4548L54.3283 57.5027L60.1073 57.5506V60.0889V62.6272L53.2588 62.6751C46.6177 62.7229 46.3942 62.7389 45.9632 63.0582C45.1171 63.6808 44.8617 64.1916 44.8617 65.1974C44.8617 66.2031 45.1171 66.7139 45.9632 67.3365C46.3623 67.6399 46.6656 67.6718 49.4114 67.7197L52.4127 67.7676L52.4765 69.5076C52.5244 71.3754 52.6681 71.7426 53.6259 72.445C54.2485 72.908 55.7491 72.908 56.3717 72.445C57.3296 71.7426 57.4733 71.3754 57.5211 69.5076L57.585 67.7835L59.5166 67.7197C61.3685 67.6558 61.5121 67.6239 62.47 67.113C63.5875 66.5224 64.0664 66.0275 64.7049 64.8142L65.136 64.0001V60.0889V56.1777L64.5932 55.172C64.0025 54.0705 63.332 53.4319 62.1826 52.8732C61.4802 52.5219 61.3206 52.506 55.6853 52.4581L49.8904 52.4102V49.8719V47.3337L56.7389 47.2858C63.3799 47.2379 63.6034 47.2219 64.0345 46.9026C64.8806 46.28 65.136 45.7692 65.136 44.7634C65.136 43.7577 64.8806 43.2469 64.0345 42.6243C63.6354 42.321 63.332 42.289 60.5862 42.2411L57.585 42.1932L57.5211 40.4532C57.4733 38.5854 57.3296 38.2182 56.4037 37.5318C55.8609 37.1327 54.5997 37.0209 53.9612 37.3242Z" fill="white"/>
<path d="M86.0328 44.9072C85.3783 45.3063 84.8834 45.9608 84.7557 46.5994C84.7078 46.8867 84.8036 47.7967 84.9951 48.6907C87.5654 61.1585 82.2174 73.818 71.4577 80.7623C69.7336 81.8798 66.3492 83.4443 64.2739 84.0988C58.1118 86.0305 51.6144 86.0145 45.5002 84.035C43.2174 83.2846 39.9447 81.7042 37.9812 80.3952C36.3688 79.3096 33.2239 76.6596 32.6971 75.9252L32.3299 75.4304L35.1875 75.3825C37.7896 75.3346 38.0929 75.3026 38.492 74.9993C39.3381 74.3767 39.5935 73.8659 39.5935 72.8602C39.5935 71.8544 39.3381 71.3436 38.492 70.721C38.061 70.4017 37.8694 70.3857 32.0106 70.3857C26.1518 70.3857 25.9603 70.4017 25.5293 70.721C25.2898 70.8966 24.9386 71.2478 24.763 71.4873C24.4437 71.9183 24.4277 72.1098 24.4277 77.9686C24.4277 83.8274 24.4437 84.019 24.763 84.45C25.3856 85.2961 25.8964 85.5515 26.9022 85.5515C27.9079 85.5515 28.4187 85.2961 29.0413 84.45C29.3287 84.0669 29.3766 83.7316 29.4245 82.0235L29.4883 80.044L31.1007 81.4488C34.086 84.0509 36.289 85.5036 39.6734 87.116C58.9738 96.3272 81.962 86.5573 88.8425 66.2191C90.822 60.3923 91.2371 54.1184 90.0557 48.0681C89.6726 46.0726 89.4172 45.5777 88.5232 44.9551C87.8527 44.5081 86.7352 44.4762 86.0328 44.9072Z" fill="white"/>
</g>
<defs>
<filter id="filter0_i_4561_4783" x="0" y="0" width="110" height="111.584" filterUnits="userSpaceOnUse" color-interpolation-filters="sRGB">
<feFlood flood-opacity="0" result="BackgroundImageFix"/>
<feBlend mode="normal" in="SourceGraphic" in2="BackgroundImageFix" result="shape"/>
<feColorMatrix in="SourceAlpha" type="matrix" values="0 0 0 0 0 0 0 0 0 0 0 0 0 0 0 0 0 0 127 0" result="hardAlpha"/>
<feOffset dy="1.58386"/>
<feGaussianBlur stdDeviation="1.58386"/>
<feComposite in2="hardAlpha" operator="arithmetic" k2="-1" k3="1"/>
<feColorMatrix type="matrix" values="0 0 0 0 1 0 0 0 0 1 0 0 0 0 1 0 0 0 0.25 0"/>
<feBlend mode="normal" in2="shape" result="effect1_innerShadow_4561_4783"/>
</filter>
<linearGradient id="paint0_linear_4561_4783" x1="-26.5" y1="-11.5" x2="143.12" y2="102.826" gradientUnits="userSpaceOnUse">
<stop offset="0.00725843" stop-color="#3378C9"/>
<stop offset="1" stop-color="#10923E" stop-opacity="0.62"/>
</linearGradient>
</defs>
</svg>
