<svg width="110" height="110" viewBox="0 0 110 110" fill="none" xmlns="http://www.w3.org/2000/svg">
<g filter="url(#filter0_i_4561_4760)">
<rect width="110" height="110" rx="12" fill="url(#paint0_linear_4561_4760)" fill-opacity="0.9"/>
<g clip-path="url(#clip0_4561_4760)">
<path d="M43.2545 21.9684L41.67 22.7628C39.6407 23.7804 38.3594 25.8562 38.3594 28.1264V30.2748V36.1406H33.0898H32.8203C30.0589 36.1406 27.8203 38.3792 27.8203 41.1406V63.3203V85.5C27.8203 88.2614 30.0589 90.5 32.8203 90.5H55H77.1797C79.9411 90.5 82.1797 88.2614 82.1797 85.5V63.3203V41.1406C82.1797 38.3792 79.9411 36.1406 77.1797 36.1406H76.9102H71.6406V30.2748V28.1264C71.6406 25.8562 70.3593 23.7804 68.3299 22.7628L66.7178 21.9545L65.817 21.5054C63.1721 20.1867 60.256 19.5031 57.3006 19.5091L54.9584 19.5139H52.6438C49.6796 19.5139 46.7565 20.2074 44.1082 21.5391L43.2545 21.9684ZM59.1602 25.7402V27.8203H55H50.8398V25.7402V23.6602H55H59.1602V25.7402ZM46.6797 30.5938V36.1406H44.5996H42.5195V31.5922V29.2778C42.5195 27.9165 43.2867 26.6714 44.5025 26.0592C45.5842 25.5045 46.5133 25.0607 46.5826 25.0607C46.6381 25.0469 46.6797 27.543 46.6797 30.5938ZM65.4697 26.0453C66.7026 26.666 67.4805 27.9285 67.4805 29.3088V31.5922V36.1406H65.4004H63.3203V30.5938C63.3203 27.543 63.348 25.0469 63.3896 25.0469C63.4312 25.0469 64.3604 25.5045 65.4697 26.0453ZM59.1602 34.0605V36.1406H55H50.8398V34.0605V31.9805H55H59.1602V34.0605ZM78.0195 63.3203V86.3398H55H31.9805V63.3203V40.3008H55H78.0195V63.3203Z" fill="white"/>
<path d="M60.0199 46.8322C58.3697 47.1512 56.7334 48.0387 55.5131 49.2728C54.0848 50.715 53.3498 52.1711 53.017 54.1541L52.8506 55.1664L51.8105 55.4299C47.5672 56.5115 44.1004 59.9922 42.9217 64.3603C42.4779 65.9551 42.4779 69.0059 42.9217 70.6006C44.142 75.0935 47.6365 78.5049 52.185 79.642C53.6133 80.0025 56.6641 79.9609 58.1201 79.5588C62.516 78.3801 65.8857 74.9965 67.0783 70.6006C67.5221 69.0059 67.5221 65.9551 67.0783 64.3603C66.5514 62.4189 65.5252 60.533 64.1246 58.9521L63.5006 58.2726L64.1939 57.7596C65.5529 56.7334 66.5514 55.1664 66.9119 53.5023C66.9951 53.0863 67.0645 51.4361 67.0645 49.7305V46.6797L63.8473 46.6935C62.0723 46.7074 60.3389 46.7629 60.0199 46.8322ZM62.9043 51.6303C62.9043 52.8228 62.6686 53.4607 62.0168 54.1125C61.2818 54.8475 60.741 55 58.7025 55H57.0523L57.1494 54.5424C57.4961 52.9199 58.758 51.5332 60.3389 51.034C60.6439 50.9369 61.3512 50.8537 61.9059 50.8537L62.9043 50.8398V51.6303ZM56.9969 59.4375C58.5639 59.8396 59.6316 60.4498 60.8242 61.6562C62.0307 62.8488 62.6408 63.9166 63.043 65.4836C63.5422 67.4389 63.2787 69.5744 62.3219 71.4049C61.7117 72.542 60.0338 74.2199 58.9244 74.8023C57.0801 75.773 54.9584 76.0226 53.0031 75.5234C51.4639 75.1351 50.3822 74.5111 49.1758 73.3047C47.9693 72.1121 47.3592 71.0582 46.957 69.4773C46.4578 67.5221 46.7074 65.4004 47.6781 63.556C48.2605 62.4467 49.9385 60.7687 51.0756 60.1586C52.9061 59.1879 55.0416 58.9383 56.9969 59.4375Z" fill="white"/>
<path d="M69.6992 80.0996V82.1797H71.7793H73.8594V80.0996V78.0195H71.7793H69.6992V80.0996Z" fill="white"/>
</g>
</g>
<defs>
<filter id="filter0_i_4561_4760" x="0" y="0" width="110" height="111.584" filterUnits="userSpaceOnUse" color-interpolation-filters="sRGB">
<feFlood flood-opacity="0" result="BackgroundImageFix"/>
<feBlend mode="normal" in="SourceGraphic" in2="BackgroundImageFix" result="shape"/>
<feColorMatrix in="SourceAlpha" type="matrix" values="0 0 0 0 0 0 0 0 0 0 0 0 0 0 0 0 0 0 127 0" result="hardAlpha"/>
<feOffset dy="1.58386"/>
<feGaussianBlur stdDeviation="1.58386"/>
<feComposite in2="hardAlpha" operator="arithmetic" k2="-1" k3="1"/>
<feColorMatrix type="matrix" values="0 0 0 0 1 0 0 0 0 1 0 0 0 0 1 0 0 0 0.25 0"/>
<feBlend mode="normal" in2="shape" result="effect1_innerShadow_4561_4760"/>
</filter>
<linearGradient id="paint0_linear_4561_4760" x1="-26.5" y1="-11.5" x2="143.12" y2="102.826" gradientUnits="userSpaceOnUse">
<stop offset="0.00725843" stop-color="#3378C9"/>
<stop offset="1" stop-color="#10923E" stop-opacity="0.62"/>
</linearGradient>
<clipPath id="clip0_4561_4760">
<rect width="71" height="71" fill="white" transform="translate(19.5 19.5)"/>
</clipPath>
</defs>
</svg>
