<svg width="110" height="110" viewBox="0 0 110 110" fill="none" xmlns="http://www.w3.org/2000/svg">
<g filter="url(#filter0_i_4561_4878)">
<rect width="110" height="110" rx="12" fill="url(#paint0_linear_4561_4878)" fill-opacity="0.9"/>
<g clip-path="url(#clip0_4561_4878)">
<path fill-rule="evenodd" clip-rule="evenodd" d="M52.1152 23.8966C53.1343 23.8761 54.1524 23.8966 55.1697 23.9582C56.759 24.2259 58.3286 24.5957 59.8788 25.0674C61.3971 25.4737 62.6698 26.2542 63.697 27.4089C63.8534 27.5052 64.0231 27.5668 64.2061 27.5938C65.1614 26.9372 66.1371 26.3005 67.1334 25.6836C68.0854 25.3607 69.0612 25.1347 70.0606 25.0058C71.1006 25.1959 72.1188 25.4629 73.1152 25.8068C74.1825 26.3486 75.1794 26.9853 76.1061 27.717C77.2577 26.6969 78.594 25.978 80.1152 25.5603C81.2606 25.4782 82.4061 25.4782 83.5516 25.5603C84.6166 26.0808 85.0408 26.923 84.8243 28.0867C84.9841 30.1497 84.3265 31.9161 82.8516 33.386C82.7402 33.5552 82.6766 33.7401 82.6606 33.9406C83.3946 34.8873 84.0522 35.8937 84.6334 36.96C85.8399 40.0309 85.1187 42.6189 82.4697 44.7241C82.3848 45.0116 82.3848 45.2992 82.4697 45.5867C83.8617 46.8853 84.7951 48.4463 85.2697 50.2698C85.81 52.1675 85.9797 54.0983 85.7788 56.0621C85.5262 57.0759 85.3565 58.1028 85.2697 59.1431C84.803 60.0468 84.3364 60.9506 83.8697 61.8543C83.5183 62.3288 83.1365 62.7807 82.7243 63.21C82.4386 63.6266 82.3537 64.0786 82.4697 64.5656C84.9818 66.656 85.7031 69.203 84.6334 72.2065C84.2939 72.8637 83.9546 73.5211 83.6152 74.1783C83.3634 74.5659 83.0453 74.8946 82.6606 75.1642C83.5944 76.3563 84.2944 77.6709 84.7606 79.1079C84.8455 80.217 84.8455 81.3262 84.7606 82.4353C84.7413 82.9448 84.5504 83.3761 84.1879 83.7293C82.6606 83.8115 81.1334 83.8115 79.6061 83.7293C78.4161 83.1536 77.313 82.4553 76.297 81.6343C76.0425 81.5521 75.7879 81.5521 75.5334 81.6343C73.0951 83.9064 70.2951 84.4406 67.1334 83.2364C65.997 82.5756 65.0424 81.7335 64.2697 80.71C63.5342 81.2162 62.8342 81.7708 62.1697 82.3737C61.3212 82.7845 60.4728 83.1953 59.6243 83.6061C58.7437 83.712 57.8953 83.9174 57.0788 84.2223C55.3819 84.3045 53.6848 84.3045 51.9879 84.2223C51.0878 83.8989 50.1546 83.7346 49.1879 83.7293C47.4533 83.0952 45.926 82.1503 44.6061 80.8948C44.3267 80.7256 44.0297 80.6846 43.7152 80.7716C41.8145 83.0699 39.3538 83.9326 36.3334 83.3596C35.7666 83.1469 35.2152 82.9004 34.6788 82.6202C33.9292 82.119 33.1656 81.6466 32.3879 81.2029C31.4807 81.7866 30.5474 82.3412 29.5879 82.8667C27.6568 83.7116 25.6628 83.876 23.6061 83.3596C23.1919 83.071 22.9586 82.6807 22.9061 82.1888C22.2926 79.5438 22.8865 77.2022 24.6879 75.1642C24.9425 74.7534 24.9425 74.3426 24.6879 73.9318C23.1928 72.3254 22.4716 70.4358 22.5243 68.2628C22.8901 66.41 23.8871 64.9723 25.5152 63.9494C25.6492 63.8338 25.7341 63.69 25.7697 63.5181C24.1049 61.8362 22.9807 59.8438 22.397 57.541C22.3122 55.0762 22.3122 52.6114 22.397 50.1466C22.8315 48.9254 23.3406 47.7341 23.9243 46.5727C24.5412 45.8113 25.1564 45.0514 25.7697 44.2927C25.3281 43.8245 24.8402 43.3932 24.3061 42.9987C22.0162 40.3499 21.889 37.5976 23.9243 34.7417C24.4527 34.3341 24.8557 33.8412 25.1334 33.2628C24.5829 32.6264 24.0526 31.9691 23.5425 31.291C22.5546 29.6001 22.2152 27.7926 22.5243 25.8684C22.7023 25.3362 23.0629 24.987 23.6061 24.8209C25.0947 24.7307 26.5795 24.7717 28.0606 24.9441C28.8229 25.1354 29.5441 25.423 30.2243 25.8068C30.7155 26.2282 31.2246 26.6184 31.7516 26.9776C32.6646 26.3621 33.5979 25.7664 34.5516 25.1906C37.8773 24.0238 40.7621 24.6811 43.2061 27.1624C43.3625 27.2587 43.5322 27.3203 43.7152 27.3473C44.3668 26.8609 45.0032 26.3474 45.6243 25.8068C46.3411 25.3834 47.1047 25.0548 47.9152 24.8209C49.3336 24.5179 50.7336 24.2098 52.1152 23.8966Z" fill="#050505"/>
<path fill-rule="evenodd" clip-rule="evenodd" d="M52.1152 23.8966C53.1343 23.8761 54.1524 23.8966 55.1697 23.9582C56.759 24.2259 58.3286 24.5957 59.8788 25.0674C61.3971 25.4737 62.6698 26.2542 63.697 27.4089C63.8534 27.5052 64.0231 27.5668 64.2061 27.5938C65.1614 26.9372 66.1371 26.3005 67.1334 25.6836C68.0854 25.3607 69.0612 25.1347 70.0606 25.0058C71.1006 25.1959 72.1188 25.4629 73.1152 25.8068C74.1825 26.3486 75.1794 26.9853 76.1061 27.717C77.2577 26.6969 78.594 25.978 80.1152 25.5603C81.2606 25.4782 82.4061 25.4782 83.5516 25.5603C84.6166 26.0808 85.0408 26.923 84.8243 28.0867C84.9841 30.1497 84.3265 31.9161 82.8516 33.386C82.7402 33.5552 82.6766 33.7401 82.6606 33.9406C83.3946 34.8873 84.0522 35.8937 84.6334 36.96C85.8399 40.0309 85.1187 42.6189 82.4697 44.7241C82.3848 45.0116 82.3848 45.2992 82.4697 45.5867C83.8617 46.8853 84.7951 48.4463 85.2697 50.2698C85.81 52.1675 85.9797 54.0983 85.7788 56.0621C85.5262 57.0759 85.3565 58.1028 85.2697 59.1431C84.803 60.0468 84.3364 60.9506 83.8697 61.8543C83.5183 62.3288 83.1365 62.7807 82.7243 63.21C82.4386 63.6266 82.3537 64.0786 82.4697 64.5656C84.9818 66.656 85.7031 69.203 84.6334 72.2065C84.2939 72.8637 83.9546 73.5211 83.6152 74.1783C83.3634 74.5659 83.0453 74.8946 82.6606 75.1642C83.5944 76.3563 84.2944 77.6709 84.7606 79.1079C84.8455 80.217 84.8455 81.3262 84.7606 82.4353C84.7413 82.9448 84.5504 83.3761 84.1879 83.7293C82.6606 83.8115 81.1334 83.8115 79.6061 83.7293C78.4161 83.1536 77.313 82.4553 76.297 81.6343C76.0425 81.5521 75.7879 81.5521 75.5334 81.6343C73.0951 83.9064 70.2951 84.4406 67.1334 83.2364C65.997 82.5756 65.0424 81.7335 64.2697 80.71C63.5342 81.2162 62.8342 81.7708 62.1697 82.3737C61.3212 82.7845 60.4728 83.1953 59.6243 83.6061C58.7437 83.712 57.8953 83.9174 57.0788 84.2223C55.3819 84.3045 53.6848 84.3045 51.9879 84.2223C51.0878 83.8989 50.1546 83.7346 49.1879 83.7293C47.4533 83.0952 45.926 82.1503 44.6061 80.8948C44.3267 80.7256 44.0297 80.6846 43.7152 80.7716C41.8145 83.0699 39.3538 83.9326 36.3334 83.3596C35.7666 83.1469 35.2152 82.9004 34.6788 82.6202C33.9292 82.119 33.1656 81.6466 32.3879 81.2029C31.4807 81.7866 30.5474 82.3412 29.5879 82.8667C27.6568 83.7116 25.6628 83.876 23.6061 83.3596C23.1919 83.071 22.9586 82.6807 22.9061 82.1888C22.2926 79.5438 22.8865 77.2022 24.6879 75.1642C24.9425 74.7534 24.9425 74.3426 24.6879 73.9318C23.1928 72.3254 22.4716 70.4358 22.5243 68.2628C22.8901 66.41 23.8871 64.9723 25.5152 63.9494C25.6492 63.8338 25.7341 63.69 25.7697 63.5181C24.1049 61.8362 22.9807 59.8438 22.397 57.541C22.3122 55.0762 22.3122 52.6114 22.397 50.1466C22.8315 48.9254 23.3406 47.7341 23.9243 46.5727C24.5412 45.8113 25.1564 45.0514 25.7697 44.2927C25.3281 43.8245 24.8402 43.3932 24.3061 42.9987C22.0162 40.3499 21.889 37.5976 23.9243 34.7417C24.4527 34.3341 24.8557 33.8412 25.1334 33.2628C24.5829 32.6264 24.0526 31.9691 23.5425 31.291C22.5546 29.6001 22.2152 27.7926 22.5243 25.8684C22.7023 25.3362 23.0629 24.987 23.6061 24.8209C25.0947 24.7307 26.5795 24.7717 28.0606 24.9441C28.8229 25.1354 29.5441 25.423 30.2243 25.8068C30.7155 26.2282 31.2246 26.6184 31.7516 26.9776C32.6646 26.3621 33.5979 25.7664 34.5516 25.1906C37.8773 24.0238 40.7621 24.6811 43.2061 27.1624C43.3625 27.2587 43.5322 27.3203 43.7152 27.3473C44.3668 26.8609 45.0032 26.3474 45.6243 25.8068C46.3411 25.3834 47.1047 25.0548 47.9152 24.8209C49.3336 24.5179 50.7336 24.2098 52.1152 23.8966Z" fill="white"/>
<g filter="url(#filter1_di_4561_4878)">
<path fill-rule="evenodd" clip-rule="evenodd" d="M47.9863 27.0122C49.0365 26.5074 50.2125 26.3599 51.3777 26.3644C52.1158 26.3673 52.8539 26.3772 53.5918 26.3942C54.4239 26.4134 55.2592 26.507 56.0395 26.7967C57.8392 27.4648 59.323 28.5803 60.4907 30.1432C60.9147 30.7949 61.2999 31.4646 61.6463 32.1524C62.2219 33.2952 62.7997 34.4893 63.8479 35.2232C64.0708 35.3793 64.303 35.5226 64.5446 35.6531C65.1781 35.9955 65.8884 36.1964 66.6085 36.1854C67.6117 36.17 68.491 35.858 69.2464 35.2495C69.8709 34.7465 70.3358 34.039 70.4702 33.2484C70.5529 32.7618 70.5229 32.2912 70.3801 31.8367C70.0558 30.8044 68.9311 29.9787 67.9372 30.4065C67.6977 30.5096 67.4714 30.6667 67.2583 30.8778C67.199 30.9365 67.1448 31.0081 67.1244 31.089C67.0671 31.3169 67.2985 31.4749 67.5068 31.5836C67.9489 31.8144 68.1394 32.1238 68.0783 32.5117C67.9918 33.0615 67.4783 33.4589 66.9345 33.5779C66.3484 33.7061 65.8535 33.5482 65.4498 33.1041C65.0643 32.68 64.8813 32.1101 64.7821 31.5457C64.3778 29.2441 65.5585 28.03 68.3245 27.9034C68.3986 27.9085 68.4726 27.914 68.5466 27.9198C69.5289 27.9969 70.4928 28.2738 71.3201 28.8089C71.4986 28.9244 71.6738 29.0445 71.8459 29.1692C71.9276 29.2285 72.0044 29.2966 72.0734 29.3703C72.8191 30.1665 74.089 30.3228 74.8023 29.4974C74.817 29.4803 74.8318 29.4631 74.8465 29.446C74.9522 29.3226 75.0705 29.2098 75.2077 29.1227C76.1302 28.5366 77.144 28.3367 78.2489 28.523C78.353 28.5405 78.457 28.5707 78.549 28.6225C78.8499 28.7919 78.9617 29.153 78.9344 29.4973C78.813 31.0296 78.066 32.1302 76.6934 32.799C76.2458 33.017 75.6938 33.4465 76.0788 33.7622C76.1534 33.8233 76.2649 33.8736 76.3543 33.9097C78.1232 34.6257 79.1021 35.8369 79.2909 37.5433C79.3619 38.1854 79.2781 38.8428 79.0366 39.442C78.4555 40.8838 77.3394 41.5963 75.6883 41.5793C75.1511 41.5738 74.6065 41.4696 74.1477 41.19C73.7293 40.9351 73.4131 40.5957 73.1993 40.1717C72.9569 39.6909 72.9549 39.0585 73.3364 38.6785C73.9751 38.0423 74.9504 39.2321 75.8061 38.9483C75.8745 38.9256 75.9424 38.8919 76.0098 38.8471C76.4343 38.565 76.6193 38.0139 76.5511 37.5088C76.4905 37.0598 76.2761 36.7059 75.9079 36.447C75.4391 36.1174 74.8384 36.0518 74.2655 36.0417C71.2665 35.9886 69.9947 37.559 70.4499 40.7527C70.7728 42.0277 71.5216 42.9904 72.6968 43.6409C74.4924 44.3743 76.1523 45.3173 77.6764 46.4701C79.9826 48.7461 80.8529 51.4771 80.2877 54.6631C80.2188 54.8993 80.1513 55.1361 80.085 55.3733C79.7186 56.6844 79.1042 57.9168 78.2294 58.9599C77.7013 59.5895 77.0921 60.1485 76.3985 60.5892C75.5095 61.1542 74.5973 61.6849 73.6619 62.1813C72.7872 62.6454 71.9063 63.1445 71.2974 63.9253C71.0522 64.2397 70.8362 64.5737 70.6495 64.9273C70.4108 65.3793 70.2781 65.882 70.2688 66.3931C70.2679 66.4436 70.2675 66.4941 70.2678 66.5446C70.2708 67.1096 70.4531 67.6538 70.698 68.163C71.0152 68.8227 71.4404 69.4508 72.0825 69.8023C72.8226 70.2073 73.6088 70.3616 74.4413 70.2652C75.3222 70.1631 76.286 69.718 76.4959 68.8564C76.595 68.4498 76.4922 68.0312 76.1876 67.6006C76.0583 67.4178 75.8702 67.2467 75.6494 67.2837C75.541 67.3018 75.4464 67.3694 75.3572 67.4334C75.3249 67.4566 75.2925 67.4795 75.2599 67.502C74.6248 67.9424 73.6668 68.0625 73.2552 67.4083C73.1761 67.2826 73.1199 67.1448 73.0866 66.9949C72.9574 66.4129 73.2966 65.8349 73.7471 65.4443C74.6242 64.684 75.6064 64.4526 76.6938 64.7501C77.4635 64.9607 78.1473 65.442 78.6164 66.0875C79.4016 67.168 79.5539 68.4289 79.0731 69.8701C79.0186 69.9885 78.961 70.105 78.9002 70.2195C78.6406 70.7092 78.2654 71.1285 77.821 71.4597C77.3007 71.8474 76.7397 72.1777 76.138 72.4508C76.0327 72.4986 75.9352 72.5721 75.8942 72.6801C75.812 72.897 75.9969 73.0957 76.2135 73.1784C77.5935 73.705 78.4542 74.5804 78.7959 75.8047C79.0917 76.8645 78.4266 78.0572 77.3272 78.0096C77.0043 77.9956 76.6822 77.8667 76.3889 77.7311C76.1282 77.6106 75.8622 77.4999 75.5909 77.3992C75.2881 77.2867 75.0082 77.1162 74.7902 76.878C74.6599 76.7356 74.5317 76.5923 74.4056 76.4481C73.8334 75.7937 72.8065 75.7238 72.3486 76.4627C72.2969 76.5461 72.2389 76.6265 72.1707 76.697C72.023 76.8495 71.8669 76.9914 71.7024 77.1225C71.2614 77.474 70.7223 77.6679 70.1821 77.8301C70.1176 77.8495 70.0531 77.869 69.9887 77.8885C69.1237 78.1513 68.2137 78.3788 67.3377 78.1555C66.6072 77.9694 65.9442 77.6045 65.3489 77.061C64.8232 76.493 64.6005 75.8249 64.6809 75.057C64.655 74.2805 64.8776 73.5732 65.3489 72.9351C65.5091 72.7009 65.7317 72.5633 66.0169 72.5225C66.9712 72.3681 68.3393 72.7447 68.1774 73.6978C68.1412 73.9103 68.0365 74.1362 67.863 74.3755C67.8471 74.3975 67.828 74.4196 67.8081 74.438C67.5576 74.6701 67.3035 75.0136 67.5208 75.2771C67.6359 75.4167 67.779 75.5362 67.9501 75.6356C68.0355 75.6852 68.1311 75.7147 68.229 75.7278C69.5083 75.8978 70.3295 75.3598 70.6928 74.1139C70.7242 73.9175 70.7423 73.7225 70.7471 73.529C70.7748 72.4064 70.1579 71.3545 69.2748 70.6609C67.9327 69.6067 66.4066 69.4508 64.6965 70.1931C64.1028 70.4508 63.5674 70.8314 63.1176 71.2968C62.8992 71.5227 62.6946 71.759 62.5038 72.0057C62.1031 72.5237 61.839 73.1293 61.5463 73.7152C60.953 74.9031 60.169 75.9523 59.1945 76.8631C58.7398 77.2881 58.2177 77.6334 57.6656 77.9205C57.2939 78.1138 56.9177 78.2975 56.5369 78.4716C55.9008 78.7624 55.2298 78.9761 54.5364 79.0688C52.7565 79.307 50.9964 79.1683 49.2563 78.6525C46.8621 77.6377 45.1099 76.0421 43.9999 73.8657C43.615 73.1109 43.2729 72.3267 42.7469 71.6625C42.5687 71.4374 42.3826 71.218 42.1888 71.0044C41.8135 70.5906 41.3718 70.242 40.8798 69.9775C40.171 69.5966 39.3736 69.391 38.5691 69.4068C36.0019 69.4572 34.7669 70.6399 34.8641 72.9548C34.9095 74.0358 35.4636 75.252 36.5442 75.3082C36.8155 75.3223 37.1011 75.2814 37.4009 75.1856C37.5319 75.1437 37.6563 75.0721 37.7428 74.9653C37.943 74.7183 37.8759 74.3686 37.6867 74.1131C37.6338 74.0416 37.579 73.9717 37.5221 73.9033C37.3064 73.6435 37.0959 73.349 37.1269 73.0127C37.1323 72.9532 37.1417 72.8941 37.1548 72.8355C37.2126 72.5783 37.3828 72.3603 37.6005 72.2118C37.6327 72.1899 37.6653 72.1688 37.6984 72.1487C38.1167 71.8945 38.644 71.9097 39.0918 72.107C40.1808 72.5867 40.6946 73.4915 40.6331 74.8213C40.6339 75.8998 40.1481 76.7053 39.1756 77.2379C38.369 77.7544 37.4967 77.9755 36.5585 77.9014C36.1962 77.8727 35.8463 77.7648 35.5048 77.6406C35.2565 77.5502 35.0083 77.4598 34.76 77.3695C34.3085 77.2051 33.8992 76.9432 33.5548 76.6081C33.3606 76.419 33.1657 76.232 32.9704 76.0469C32.2648 75.3787 31.1253 75.2475 30.6337 76.0858C30.534 76.2557 30.4307 76.4341 30.2839 76.5654C30.1449 76.6898 29.9915 76.7961 29.8237 76.8842C29.1581 77.163 28.4749 77.344 27.7739 77.4272C26.9821 77.5212 26.0395 77.2088 26.0344 76.4115C26.0332 76.2248 26.0563 76.024 26.0681 75.8377C26.1568 74.4461 26.8601 73.4302 28.1782 72.7901C28.2221 72.7687 28.2672 72.7426 28.3046 72.7112C28.5478 72.5068 28.4463 72.1493 28.2036 71.9443C27.8052 71.6076 27.4057 71.2699 27.0052 70.9311C26.8202 70.7745 26.6522 70.5974 26.5219 70.393C25.9402 69.4805 25.6435 68.5095 25.6319 67.4801C25.6223 66.6345 25.8891 65.7906 26.4171 65.1299C27.0998 64.2756 28.1765 63.7565 29.2668 63.8409C30.0927 63.9048 30.7994 64.2512 31.387 64.8801C31.8076 65.3303 32.078 65.9672 31.8867 66.5529C31.7483 66.9767 31.4372 67.251 30.9535 67.3758C30.5544 67.4787 30.1375 67.2854 29.942 66.9226C29.7508 66.5677 29.4681 66.1523 29.0863 66.2818C29.0454 66.2957 29.005 66.3132 28.9649 66.3344C28.8418 66.3995 28.7475 66.5071 28.672 66.6241C28.4763 66.9272 28.3589 67.223 28.3198 67.5116C28.146 68.7921 29.7237 69.5745 31.0158 69.5566C32.06 69.5422 32.9565 69.1559 33.7055 68.3978C34.4263 67.6682 34.8468 66.6551 34.8029 65.6304C34.7603 64.6332 34.3715 63.7478 33.6365 62.9742C33.2321 62.5485 32.7253 62.2387 32.2126 61.9524C31.1161 61.3401 30.0101 60.7392 28.8946 60.1497C28.1412 59.7516 27.4062 59.3014 26.8268 58.6766C25.7181 57.481 24.9965 56.0646 24.6619 54.4273C24.0568 51.3104 24.7763 48.6187 26.8203 46.3523C27.2619 45.8628 27.8099 45.4846 28.3711 45.1386C29.186 44.6361 30.0703 44.2585 30.9408 43.8601C32.035 43.3594 32.9783 42.6379 33.7709 41.6958C35.2499 39.6795 35.1194 37.8851 33.3795 36.3125C33.1231 36.0807 32.8316 35.8897 32.5159 35.7492C32.1073 35.5673 31.6643 35.4774 31.2175 35.4583C31.1351 35.4547 31.0526 35.4521 30.9702 35.4504C30.049 35.4312 29.0009 35.5835 28.5067 36.3612C28.2519 36.7622 28.1898 37.2421 28.3206 37.801C28.3769 38.0419 28.498 38.2671 28.6858 38.4281C28.7973 38.5239 28.9186 38.6054 29.0495 38.6727C29.1563 38.7276 29.2808 38.7421 29.3952 38.706C29.5201 38.6666 29.6141 38.5684 29.6839 38.4576C30.1532 37.7125 30.6523 37.5096 31.1811 37.8489C31.6989 38.1811 31.9947 38.8437 31.7856 39.4223C31.6885 39.691 31.4875 39.9169 31.2701 40.1023C30.6738 40.6107 30.0274 40.9081 29.331 40.9945C27.9516 41.1656 26.5883 40.316 25.935 39.0891C25.2225 37.7512 25.4072 36.3159 26.4889 34.7832C26.5646 34.676 26.6567 34.578 26.7559 34.492C27.7443 33.6345 27.5192 31.9973 26.6555 31.0143C26.59 30.9398 26.5257 30.8635 26.4627 30.7855C26.3114 30.5983 26.2033 30.3789 26.1551 30.143C26.1415 30.0767 26.1294 30.0105 26.1187 29.9444C25.9042 28.6189 27.2472 27.6375 28.5025 28.114C28.9414 28.2805 29.3609 28.5008 29.7612 28.7748C29.8848 28.8593 29.9931 28.9669 30.0884 29.0824C30.7112 29.8368 31.8406 29.7086 32.5678 29.0542C33.1325 28.5461 33.7562 28.1036 34.4389 27.7266C35.5318 27.2835 36.5717 27.1965 37.5588 27.4658C38.9582 27.8475 40.0947 29.138 40.0214 30.5866C40.0094 30.8245 39.973 31.0635 39.9122 31.3037C39.7653 31.8836 39.4408 32.427 38.9413 32.7561C38.3491 33.1463 37.7018 33.1806 36.9995 32.859C36.7063 32.7248 36.4592 32.3777 36.4341 32.0562C36.3598 31.1029 37.31 29.8279 36.3733 29.636C36.0246 29.5646 35.6248 29.6429 35.1737 29.8708C34.9213 29.9984 34.709 30.1955 34.5621 30.4372C33.9948 31.3702 33.9336 32.3724 34.3782 33.4439C34.8672 34.5957 35.7376 35.3227 36.9894 35.6248C38.8648 35.8077 40.4343 35.2901 41.6979 34.0722C42.1062 33.6786 42.4202 33.2005 42.7067 32.711C43.0325 32.1543 43.3514 31.5944 43.6634 31.0313C44.1183 30.2102 44.6322 29.4128 45.3316 28.7867C46.1333 28.069 47.0182 27.4775 47.9863 27.0122Z" fill="url(#paint1_linear_4561_4878)" fill-opacity="0.9"/>
</g>
<path fill-rule="evenodd" clip-rule="evenodd" d="M59.0091 60.9772C59.0091 61.2237 59.0091 61.4702 59.0091 61.7166C57.4513 62.7192 56.4968 64.1159 56.1455 65.9068C55.8805 67.522 56.4108 68.816 57.7364 69.7888C59.1064 70.3586 60.464 70.3175 61.8091 69.6656C62.9123 68.9657 63.082 68.103 62.3182 67.0776C61.9107 66.8948 61.4864 66.8536 61.0455 66.9543C60.6369 67.2057 60.2127 67.4316 59.7728 67.6321C59.1442 67.516 58.8471 67.1463 58.8818 66.523C59.214 64.9299 60.2322 64.1494 61.9364 64.1814C64.64 64.563 65.8066 66.083 65.4364 68.7413C64.6104 71.5062 62.7013 72.985 59.7091 73.1779C59.1799 73.1073 58.6497 73.0457 58.1182 72.9931C57.3665 72.655 56.6029 72.3469 55.8273 72.0688C55.8067 72.3186 55.8279 72.565 55.8909 72.8082C56.2227 73.4096 56.5197 74.0258 56.7818 74.6568C56.7966 75.7097 56.627 76.7367 56.2728 77.7378C55.7934 78.4284 55.1782 78.9624 54.4273 79.3399C53.9341 79.2118 53.5736 78.9243 53.3455 78.4772C53.0408 77.764 52.7015 77.0656 52.3273 76.3821C52.2424 75.8892 52.2424 75.3962 52.3273 74.9033C52.7856 74.0443 53.1038 73.1406 53.2818 72.192C52.4476 72.3035 51.6416 72.5296 50.8637 72.8698C48.6396 73.2336 46.7517 72.638 45.2 71.0828C44.7016 70.4055 44.235 69.7071 43.8 68.9878C43.4463 67.3443 43.8918 65.927 45.1364 64.736C45.9089 64.0955 46.7998 63.8901 47.8091 64.1198C49.3863 64.291 50.2136 65.1331 50.2909 66.6462C50.0963 67.0814 49.7569 67.3279 49.2728 67.3857C48.836 67.1684 48.4329 66.9013 48.0637 66.5846C47.8515 66.5024 47.6395 66.5024 47.4273 66.5846C46.2717 67.5543 46.2717 68.499 47.4273 69.4191C51.8098 70.737 53.6553 69.1965 52.9637 64.7976C52.4029 63.4739 51.512 62.4058 50.2909 61.5934C50.2697 61.5112 50.2486 61.4291 50.2273 61.3469C50.4481 60.9473 50.745 60.598 51.1182 60.2994C52.9068 59.4203 53.4795 58.0441 52.8364 56.1709C52.7304 56.0682 52.6242 55.9654 52.5182 55.8628C51.5746 55.7531 50.6413 55.7941 49.7182 55.986C48.7621 56.8359 47.85 57.719 46.9818 58.6357C46.4397 58.1054 45.9093 57.5508 45.3909 56.9719C44.7122 56.5612 44.0333 56.1503 43.3546 55.7395C42.294 55.6573 41.2333 55.6573 40.1728 55.7395C38.012 56.6179 37.2697 58.1584 37.9455 60.361C38.4439 61.0282 39.1014 61.48 39.9182 61.7166C41.462 61.3204 41.6953 60.581 40.6182 59.4983C40.5645 58.7287 40.9463 58.359 41.7637 58.3892C43.2209 58.589 44.0057 59.4106 44.1182 60.854C44.0924 62.7054 43.159 63.835 41.3182 64.2431C39.3541 64.7459 37.6785 64.2734 36.2909 62.8258C35.1693 61.3162 34.7027 59.6321 34.8909 57.773C35.0062 57.2029 35.2184 56.6688 35.5273 56.1709C35.6238 55.8912 35.6025 55.6242 35.4637 55.3698C34.377 55.8495 33.2316 56.1986 32.0273 56.4174C30.4552 56.4238 29.1188 55.8898 28.0182 54.8152C27.8591 54.4976 27.8166 54.1691 27.8909 53.8293C29.7793 51.9394 31.9641 51.5287 34.4455 52.5969C34.7072 52.6831 34.9617 52.8063 35.2091 52.9666C35.2864 52.9514 35.3288 52.9103 35.3364 52.8434C35.5337 52.277 35.4276 51.743 35.0182 51.2413C34.8193 50.5737 34.6709 49.8959 34.5728 49.2078C34.8066 46.6982 36.1217 44.9728 38.5182 44.0318C40.437 43.638 42.0703 44.1104 43.4182 45.449C44.2372 46.8246 44.1524 48.1392 43.1637 49.3927C42.5566 49.9035 41.8566 50.0884 41.0637 49.9473C40.6169 49.7123 40.4685 49.3631 40.6182 48.8997C41.4236 48.1141 41.36 47.3952 40.4273 46.7431C40.0835 46.3859 39.7017 46.3447 39.2818 46.6198C37.8458 47.3864 37.3155 48.5571 37.6909 50.1321C37.9249 51.058 38.4551 51.777 39.2818 52.2888C40.6269 52.4884 41.9845 52.5294 43.3546 52.4121C43.8637 52.1656 44.3728 51.9191 44.8818 51.6726C45.5908 51.007 46.2695 50.3292 46.9182 49.6392C47.1329 49.6712 47.3238 49.7534 47.4909 49.8857C48.0058 50.5746 48.5361 51.2524 49.0818 51.9191C49.358 52.1146 49.6551 52.279 49.9728 52.4121C50.9124 52.5105 51.8458 52.49 52.7728 52.3504C52.8608 52.2857 52.9245 52.2035 52.9637 52.104C53.3072 50.0098 52.4799 48.5104 50.4818 47.6057C50.1373 47.376 50.0312 47.0679 50.1637 46.6814C53.0109 44.8607 53.7745 42.4369 52.4546 39.4103C51.3248 38.3088 49.9884 38.0007 48.4455 38.486C47.7977 38.7273 47.2249 39.0766 46.7273 39.5335C46.4043 40.3701 46.5952 41.0891 47.3 41.6902C47.6938 41.7706 48.0756 41.7294 48.4455 41.567C49.446 40.735 50.0823 40.9609 50.3546 42.2448C50.3 42.8539 50.003 43.3262 49.4637 43.6621C47.7133 44.8402 46.1224 44.6554 44.6909 43.1075C44.3591 42.5061 44.0622 41.8899 43.8 41.2589C43.5412 40.5062 43.5835 39.7667 43.9273 39.0406C45.0296 36.8263 46.8538 35.5529 49.4 35.2202C50.2161 35.4511 51.0434 35.636 51.8818 35.7747C52.3298 36.1289 52.8177 36.2317 53.3455 36.0828C53.0216 35.2452 52.7245 34.3825 52.4546 33.4948C52.199 31.3605 53.0263 29.7584 54.9364 28.6885C56.4642 29.7579 57.2489 31.1957 57.2909 33.0019C57.0414 34.0573 56.7232 35.0842 56.3364 36.0828C56.9614 36.0069 57.5553 35.8221 58.1182 35.5283C60.3204 35.1972 62.3144 35.649 64.1 36.8839C64.9987 37.8434 65.5503 38.9526 65.7546 40.2114C65.872 42.8497 64.5781 44.308 61.8728 44.5864C60.3776 44.2477 59.423 43.3644 59.0091 41.9367C59.1984 41.3436 59.5802 40.9122 60.1546 40.6427C60.5601 41.015 60.9844 41.3641 61.4273 41.6902C62.4655 41.7947 63.0594 41.3429 63.2091 40.3346C63.1325 39.8992 62.9203 39.5295 62.5728 39.2254C60.1336 37.6613 58.1183 38.0515 56.5273 40.3962C56.0351 42.9962 56.8835 45.0501 59.0728 46.5582C59.3273 46.9279 59.3273 47.2976 59.0728 47.6674C58.0739 48.1003 57.2679 48.7575 56.6546 49.6392C56.4564 50.533 56.414 51.4368 56.5273 52.3504C58.8384 53.103 60.5355 52.4456 61.6182 50.3786C61.8748 50.1095 62.1506 49.863 62.4455 49.6392C63.0955 50.3002 63.7318 50.9781 64.3546 51.6726C66.266 53.0806 68.3023 53.2861 70.4637 52.2888C71.8363 51.2473 72.2394 49.9123 71.6727 48.2835C71.1583 46.9677 70.2038 46.4953 68.8091 46.8663C68.0978 47.1684 67.8645 47.6818 68.1091 48.4068C68.6117 48.8029 68.8663 49.2958 68.8728 49.8857C68.6896 50.1257 68.4563 50.29 68.1728 50.3786C65.5555 49.9592 64.6435 48.5214 65.4364 46.0652C66.473 44.6675 67.8943 44.0102 69.7 44.0934C71.584 44.2552 73.0053 45.1179 73.9637 46.6814C74.2432 47.2878 74.4977 47.904 74.7273 48.53C74.8122 49.3105 74.8122 50.0911 74.7273 50.8716C74.4395 51.6328 74.1214 52.3723 73.7728 53.0899C74.6918 52.7894 75.6251 52.5224 76.5728 52.2888C78.9235 51.9079 80.7478 52.6679 82.0455 54.5688C81.8757 55.0425 81.5786 55.4328 81.1546 55.7395C79.8163 56.6646 78.3314 57.0343 76.7 56.8487C76.0343 56.5737 75.3979 56.2452 74.7909 55.8628C74.5364 55.7806 74.2818 55.7806 74.0273 55.8628C73.8932 56.0338 73.872 56.2187 73.9637 56.4174C74.5361 57.4211 74.7907 58.4891 74.7273 59.6216C74.4461 60.6848 74.0643 61.7117 73.5818 62.7026C72.843 63.7856 71.8037 64.4222 70.4637 64.6128C68.3643 65.0769 66.6886 64.4813 65.4364 62.8258C64.5438 60.8784 65.0742 59.4201 67.0273 58.4508C67.7264 58.2834 68.3416 58.4273 68.8728 58.8821C68.9576 59.0464 68.9576 59.2108 68.8728 59.3751C67.6657 60.1981 67.6021 61.0812 68.6818 62.0247C69.4394 62.3269 70.1181 62.2037 70.7182 61.655C72.6353 59.1306 72.1262 57.1998 69.1909 55.8628C67.2174 55.4338 65.478 55.8445 63.9728 57.0952C63.4264 57.6834 62.896 58.279 62.3818 58.8821C61.5687 57.888 60.6989 56.9226 59.7728 55.986C56.6131 54.7338 55.5313 55.6581 56.5273 58.7589C56.7485 59.2199 57.0667 59.6102 57.4818 59.9297C58.0665 60.1907 58.5756 60.54 59.0091 60.9772Z" fill="#050505"/>
<path fill-rule="evenodd" clip-rule="evenodd" d="M59.0091 60.9772C59.0091 61.2237 59.0091 61.4702 59.0091 61.7166C57.4513 62.7192 56.4968 64.1159 56.1455 65.9068C55.8805 67.522 56.4108 68.816 57.7364 69.7888C59.1064 70.3586 60.464 70.3175 61.8091 69.6656C62.9123 68.9657 63.082 68.103 62.3182 67.0776C61.9107 66.8948 61.4864 66.8536 61.0455 66.9543C60.6369 67.2057 60.2127 67.4316 59.7728 67.6321C59.1442 67.516 58.8471 67.1463 58.8818 66.523C59.214 64.9299 60.2322 64.1494 61.9364 64.1814C64.64 64.563 65.8066 66.083 65.4364 68.7413C64.6104 71.5062 62.7013 72.985 59.7091 73.1779C59.1799 73.1073 58.6497 73.0457 58.1182 72.9931C57.3665 72.655 56.6029 72.3469 55.8273 72.0688C55.8067 72.3186 55.8279 72.565 55.8909 72.8082C56.2227 73.4096 56.5197 74.0258 56.7818 74.6568C56.7966 75.7097 56.627 76.7367 56.2728 77.7378C55.7934 78.4284 55.1782 78.9624 54.4273 79.3399C53.9341 79.2118 53.5736 78.9243 53.3455 78.4772C53.0408 77.764 52.7015 77.0656 52.3273 76.3821C52.2424 75.8892 52.2424 75.3962 52.3273 74.9033C52.7856 74.0443 53.1038 73.1406 53.2818 72.192C52.4476 72.3035 51.6416 72.5296 50.8637 72.8698C48.6396 73.2336 46.7517 72.638 45.2 71.0828C44.7016 70.4055 44.235 69.7071 43.8 68.9878C43.4463 67.3443 43.8918 65.927 45.1364 64.736C45.9089 64.0955 46.7998 63.8901 47.8091 64.1198C49.3863 64.291 50.2136 65.1331 50.2909 66.6462C50.0963 67.0814 49.7569 67.3279 49.2728 67.3857C48.836 67.1684 48.4329 66.9013 48.0637 66.5846C47.8515 66.5024 47.6395 66.5024 47.4273 66.5846C46.2717 67.5543 46.2717 68.499 47.4273 69.4191C51.8098 70.737 53.6553 69.1965 52.9637 64.7976C52.4029 63.4739 51.512 62.4058 50.2909 61.5934C50.2697 61.5112 50.2486 61.4291 50.2273 61.3469C50.4481 60.9473 50.745 60.598 51.1182 60.2994C52.9068 59.4203 53.4795 58.0441 52.8364 56.1709C52.7304 56.0682 52.6242 55.9654 52.5182 55.8628C51.5746 55.7531 50.6413 55.7941 49.7182 55.986C48.7621 56.8359 47.85 57.719 46.9818 58.6357C46.4397 58.1054 45.9093 57.5508 45.3909 56.9719C44.7122 56.5612 44.0333 56.1503 43.3546 55.7395C42.294 55.6573 41.2333 55.6573 40.1728 55.7395C38.012 56.6179 37.2697 58.1584 37.9455 60.361C38.4439 61.0282 39.1014 61.48 39.9182 61.7166C41.462 61.3204 41.6953 60.581 40.6182 59.4983C40.5645 58.7287 40.9463 58.359 41.7637 58.3892C43.2209 58.589 44.0057 59.4106 44.1182 60.854C44.0924 62.7054 43.159 63.835 41.3182 64.2431C39.3541 64.7459 37.6785 64.2734 36.2909 62.8258C35.1693 61.3162 34.7027 59.6321 34.8909 57.773C35.0062 57.2029 35.2184 56.6688 35.5273 56.1709C35.6238 55.8912 35.6025 55.6242 35.4637 55.3698C34.377 55.8495 33.2316 56.1986 32.0273 56.4174C30.4552 56.4238 29.1188 55.8898 28.0182 54.8152C27.8591 54.4976 27.8166 54.1691 27.8909 53.8293C29.7793 51.9394 31.9641 51.5287 34.4455 52.5969C34.7072 52.6831 34.9617 52.8063 35.2091 52.9666C35.2864 52.9514 35.3288 52.9103 35.3364 52.8434C35.5337 52.277 35.4276 51.743 35.0182 51.2413C34.8193 50.5737 34.6709 49.8959 34.5728 49.2078C34.8066 46.6982 36.1217 44.9728 38.5182 44.0318C40.437 43.638 42.0703 44.1104 43.4182 45.449C44.2372 46.8246 44.1524 48.1392 43.1637 49.3927C42.5566 49.9035 41.8566 50.0884 41.0637 49.9473C40.6169 49.7123 40.4685 49.3631 40.6182 48.8997C41.4236 48.1141 41.36 47.3952 40.4273 46.7431C40.0835 46.3859 39.7017 46.3447 39.2818 46.6198C37.8458 47.3864 37.3155 48.5571 37.6909 50.1321C37.9249 51.058 38.4551 51.777 39.2818 52.2888C40.6269 52.4884 41.9845 52.5294 43.3546 52.4121C43.8637 52.1656 44.3728 51.9191 44.8818 51.6726C45.5908 51.007 46.2695 50.3292 46.9182 49.6392C47.1329 49.6712 47.3238 49.7534 47.4909 49.8857C48.0058 50.5746 48.5361 51.2524 49.0818 51.9191C49.358 52.1146 49.6551 52.279 49.9728 52.4121C50.9124 52.5105 51.8458 52.49 52.7728 52.3504C52.8608 52.2857 52.9245 52.2035 52.9637 52.104C53.3072 50.0098 52.4799 48.5104 50.4818 47.6057C50.1373 47.376 50.0312 47.0679 50.1637 46.6814C53.0109 44.8607 53.7745 42.4369 52.4546 39.4103C51.3248 38.3088 49.9884 38.0007 48.4455 38.486C47.7977 38.7273 47.2249 39.0766 46.7273 39.5335C46.4043 40.3701 46.5952 41.0891 47.3 41.6902C47.6938 41.7706 48.0756 41.7294 48.4455 41.567C49.446 40.735 50.0823 40.9609 50.3546 42.2448C50.3 42.8539 50.003 43.3262 49.4637 43.6621C47.7133 44.8402 46.1224 44.6554 44.6909 43.1075C44.3591 42.5061 44.0622 41.8899 43.8 41.2589C43.5412 40.5062 43.5835 39.7667 43.9273 39.0406C45.0296 36.8263 46.8538 35.5529 49.4 35.2202C50.2161 35.4511 51.0434 35.636 51.8818 35.7747C52.3298 36.1289 52.8177 36.2317 53.3455 36.0828C53.0216 35.2452 52.7245 34.3825 52.4546 33.4948C52.199 31.3605 53.0263 29.7584 54.9364 28.6885C56.4642 29.7579 57.2489 31.1957 57.2909 33.0019C57.0414 34.0573 56.7232 35.0842 56.3364 36.0828C56.9614 36.0069 57.5553 35.8221 58.1182 35.5283C60.3204 35.1972 62.3144 35.649 64.1 36.8839C64.9987 37.8434 65.5503 38.9526 65.7546 40.2114C65.872 42.8497 64.5781 44.308 61.8728 44.5864C60.3776 44.2477 59.423 43.3644 59.0091 41.9367C59.1984 41.3436 59.5802 40.9122 60.1546 40.6427C60.5601 41.015 60.9844 41.3641 61.4273 41.6902C62.4655 41.7947 63.0594 41.3429 63.2091 40.3346C63.1325 39.8992 62.9203 39.5295 62.5728 39.2254C60.1336 37.6613 58.1183 38.0515 56.5273 40.3962C56.0351 42.9962 56.8835 45.0501 59.0728 46.5582C59.3273 46.9279 59.3273 47.2976 59.0728 47.6674C58.0739 48.1003 57.2679 48.7575 56.6546 49.6392C56.4564 50.533 56.414 51.4368 56.5273 52.3504C58.8384 53.103 60.5355 52.4456 61.6182 50.3786C61.8748 50.1095 62.1506 49.863 62.4455 49.6392C63.0955 50.3002 63.7318 50.9781 64.3546 51.6726C66.266 53.0806 68.3023 53.2861 70.4637 52.2888C71.8363 51.2473 72.2394 49.9123 71.6727 48.2835C71.1583 46.9677 70.2038 46.4953 68.8091 46.8663C68.0978 47.1684 67.8645 47.6818 68.1091 48.4068C68.6117 48.8029 68.8663 49.2958 68.8728 49.8857C68.6896 50.1257 68.4563 50.29 68.1728 50.3786C65.5555 49.9592 64.6435 48.5214 65.4364 46.0652C66.473 44.6675 67.8943 44.0102 69.7 44.0934C71.584 44.2552 73.0053 45.1179 73.9637 46.6814C74.2432 47.2878 74.4977 47.904 74.7273 48.53C74.8122 49.3105 74.8122 50.0911 74.7273 50.8716C74.4395 51.6328 74.1214 52.3723 73.7728 53.0899C74.6918 52.7894 75.6251 52.5224 76.5728 52.2888C78.9235 51.9079 80.7478 52.6679 82.0455 54.5688C81.8757 55.0425 81.5786 55.4328 81.1546 55.7395C79.8163 56.6646 78.3314 57.0343 76.7 56.8487C76.0343 56.5737 75.3979 56.2452 74.7909 55.8628C74.5364 55.7806 74.2818 55.7806 74.0273 55.8628C73.8932 56.0338 73.872 56.2187 73.9637 56.4174C74.5361 57.4211 74.7907 58.4891 74.7273 59.6216C74.4461 60.6848 74.0643 61.7117 73.5818 62.7026C72.843 63.7856 71.8037 64.4222 70.4637 64.6128C68.3643 65.0769 66.6886 64.4813 65.4364 62.8258C64.5438 60.8784 65.0742 59.4201 67.0273 58.4508C67.7264 58.2834 68.3416 58.4273 68.8728 58.8821C68.9576 59.0464 68.9576 59.2108 68.8728 59.3751C67.6657 60.1981 67.6021 61.0812 68.6818 62.0247C69.4394 62.3269 70.1181 62.2037 70.7182 61.655C72.6353 59.1306 72.1262 57.1998 69.1909 55.8628C67.2174 55.4338 65.478 55.8445 63.9728 57.0952C63.4264 57.6834 62.896 58.279 62.3818 58.8821C61.5687 57.888 60.6989 56.9226 59.7728 55.986C56.6131 54.7338 55.5313 55.6581 56.5273 58.7589C56.7485 59.2199 57.0667 59.6102 57.4818 59.9297C58.0665 60.1907 58.5756 60.54 59.0091 60.9772Z" fill="white"/>
<path fill-rule="evenodd" clip-rule="evenodd" d="M55.9545 36.3293C56.1679 36.4135 56.2527 36.5779 56.2091 36.8223C55.692 36.808 55.6071 36.6437 55.9545 36.3293Z" fill="#5C5C5C"/>
<path fill-rule="evenodd" clip-rule="evenodd" d="M34.4454 52.5967C34.7875 52.5556 35.0845 52.6377 35.3363 52.8432C35.3287 52.9101 35.2863 52.9512 35.2091 52.9665C34.9617 52.8061 34.7071 52.6829 34.4454 52.5967Z" fill="#717171"/>
<path fill-rule="evenodd" clip-rule="evenodd" d="M59.009 60.9771C59.3485 61.2235 59.3485 61.47 59.009 61.7165C59.009 61.47 59.009 61.2235 59.009 60.9771Z" fill="#737373"/>
</g>
</g>
<defs>
<filter id="filter0_i_4561_4878" x="0" y="0" width="110" height="111.584" filterUnits="userSpaceOnUse" color-interpolation-filters="sRGB">
<feFlood flood-opacity="0" result="BackgroundImageFix"/>
<feBlend mode="normal" in="SourceGraphic" in2="BackgroundImageFix" result="shape"/>
<feColorMatrix in="SourceAlpha" type="matrix" values="0 0 0 0 0 0 0 0 0 0 0 0 0 0 0 0 0 0 127 0" result="hardAlpha"/>
<feOffset dy="1.58386"/>
<feGaussianBlur stdDeviation="1.58386"/>
<feComposite in2="hardAlpha" operator="arithmetic" k2="-1" k3="1"/>
<feColorMatrix type="matrix" values="0 0 0 0 1 0 0 0 0 1 0 0 0 0 1 0 0 0 0.25 0"/>
<feBlend mode="normal" in2="shape" result="effect1_innerShadow_4561_4878"/>
</filter>
<filter id="filter1_di_4561_4878" x="-29.0509" y="5.65245" width="163.011" height="159.828" filterUnits="userSpaceOnUse" color-interpolation-filters="sRGB">
<feFlood flood-opacity="0" result="BackgroundImageFix"/>
<feColorMatrix in="SourceAlpha" type="matrix" values="0 0 0 0 0 0 0 0 0 0 0 0 0 0 0 0 0 0 127 0" result="hardAlpha"/>
<feOffset dy="32.7937"/>
<feGaussianBlur stdDeviation="26.7528"/>
<feComposite in2="hardAlpha" operator="out"/>
<feColorMatrix type="matrix" values="0 0 0 0 0 0 0 0 0 0 0 0 0 0 0 0 0 0 0.3 0"/>
<feBlend mode="normal" in2="BackgroundImageFix" result="effect1_dropShadow_4561_4878"/>
<feBlend mode="normal" in="SourceGraphic" in2="effect1_dropShadow_4561_4878" result="shape"/>
<feColorMatrix in="SourceAlpha" type="matrix" values="0 0 0 0 0 0 0 0 0 0 0 0 0 0 0 0 0 0 127 0" result="hardAlpha"/>
<feOffset dy="1.58386"/>
<feGaussianBlur stdDeviation="1.58386"/>
<feComposite in2="hardAlpha" operator="arithmetic" k2="-1" k3="1"/>
<feColorMatrix type="matrix" values="0 0 0 0 1 0 0 0 0 1 0 0 0 0 1 0 0 0 0.25 0"/>
<feBlend mode="normal" in2="shape" result="effect2_innerShadow_4561_4878"/>
</filter>
<linearGradient id="paint0_linear_4561_4878" x1="-26.5" y1="-11.5" x2="143.12" y2="102.826" gradientUnits="userSpaceOnUse">
<stop offset="0.00725843" stop-color="#3378C9"/>
<stop offset="1" stop-color="#10923E" stop-opacity="0.62"/>
</linearGradient>
<linearGradient id="paint1_linear_4561_4878" x1="10.9637" y1="20.8416" x2="94.0927" y2="80.2468" gradientUnits="userSpaceOnUse">
<stop offset="0.00725843" stop-color="#3378C9"/>
<stop offset="1" stop-color="#10923E" stop-opacity="0.62"/>
</linearGradient>
<clipPath id="clip0_4561_4878">
<rect x="20" y="20" width="70" height="70" rx="10" fill="white"/>
</clipPath>
</defs>
</svg>
