<svg width="110" height="110" viewBox="0 0 110 110" fill="none" xmlns="http://www.w3.org/2000/svg">
<g filter="url(#filter0_i_4561_4735)">
<rect width="110" height="110" rx="12" fill="url(#paint0_linear_4561_4735)" fill-opacity="0.9"/>
<g clip-path="url(#clip0_4561_4735)">
<path d="M43.0993 20.8582L42.6945 21.242V54.1205V86.9831H41.723H40.7516V66.1302C40.7516 45.8369 40.7354 45.2772 40.4439 44.9094L40.1363 44.5256L30.6805 44.4777C25.4993 44.4617 21.079 44.4777 20.8847 44.5256C20.6904 44.5736 20.3666 44.7655 20.1885 44.9574C19.8646 45.3092 19.8646 45.4372 19.8646 66.1462V86.9831H18.0026H16.1406V88.2624V89.5417H55H93.8594V88.2624V86.9831H91.9164H89.9734V62.5001C89.9734 45.757 89.9249 37.9371 89.8115 37.7133C89.5848 37.3295 71.0295 28.1343 70.4628 28.1343C70.2361 28.1343 69.8637 28.3102 69.6532 28.5341L69.2484 28.9179V57.9585V86.9831H68.277H67.3055V54.1205V21.242L66.9007 20.8582L66.5121 20.4584H55H43.4879L43.0993 20.8582ZM64.7148 55.0001V86.9831H55H45.2852V55.0001V23.0171H55H64.7148V55.0001ZM87.3828 41.3273V43.4862H83.254H79.109L78.7204 43.886C78.348 44.2378 78.3156 44.3977 78.3156 45.805V47.3242H79.6109H80.9062V46.6845V46.0448H84.1445H87.3828V47.9638V49.8828H83.254H79.109L78.7204 50.2826C78.348 50.6344 78.3156 50.7943 78.3156 52.2016V53.7208H79.6109H80.9062V53.0811V52.4414H84.1445H87.3828V54.3604V56.2794H83.254H79.109L78.7204 56.6792C78.348 57.031 78.3156 57.1909 78.3156 58.5982V60.1174H79.6109H80.9062V59.4777V58.838H84.1445H87.3828V60.757V62.676H83.254H79.109L78.7204 63.0758C78.348 63.4276 78.3156 63.5875 78.3156 64.9948V66.514H79.6109H80.9062V65.8743V65.2346H84.1445H87.3828V67.1536V69.0726H83.254H79.109L78.7204 69.4724C78.348 69.8242 78.3156 69.9841 78.3156 71.3914V72.9106H79.6109H80.9062V72.2709V71.6313H84.1445H87.3828V73.5502V75.4692H83.254H79.109L78.7204 75.869C78.348 76.2208 78.3156 76.3807 78.3156 77.788V79.3072H79.6109H80.9062V78.6675V78.0279H84.1445H87.3828V82.5055V86.9831H79.6109H71.8391V59.2378V31.4926L79.6109 35.3305L87.3828 39.1685V41.3273ZM38.1609 66.9937V86.9831H30.3081H22.4553V66.9937V47.0043H30.3081H38.1609V66.9937Z" fill="#3378C9"/>
<path d="M43.0993 20.8582L42.6945 21.242V54.1205V86.9831H41.723H40.7516V66.1302C40.7516 45.8369 40.7354 45.2772 40.4439 44.9094L40.1363 44.5256L30.6805 44.4777C25.4993 44.4617 21.079 44.4777 20.8847 44.5256C20.6904 44.5736 20.3666 44.7655 20.1885 44.9574C19.8646 45.3092 19.8646 45.4372 19.8646 66.1462V86.9831H18.0026H16.1406V88.2624V89.5417H55H93.8594V88.2624V86.9831H91.9164H89.9734V62.5001C89.9734 45.757 89.9249 37.9371 89.8115 37.7133C89.5848 37.3295 71.0295 28.1343 70.4628 28.1343C70.2361 28.1343 69.8637 28.3102 69.6532 28.5341L69.2484 28.9179V57.9585V86.9831H68.277H67.3055V54.1205V21.242L66.9007 20.8582L66.5121 20.4584H55H43.4879L43.0993 20.8582ZM64.7148 55.0001V86.9831H55H45.2852V55.0001V23.0171H55H64.7148V55.0001ZM87.3828 41.3273V43.4862H83.254H79.109L78.7204 43.886C78.348 44.2378 78.3156 44.3977 78.3156 45.805V47.3242H79.6109H80.9062V46.6845V46.0448H84.1445H87.3828V47.9638V49.8828H83.254H79.109L78.7204 50.2826C78.348 50.6344 78.3156 50.7943 78.3156 52.2016V53.7208H79.6109H80.9062V53.0811V52.4414H84.1445H87.3828V54.3604V56.2794H83.254H79.109L78.7204 56.6792C78.348 57.031 78.3156 57.1909 78.3156 58.5982V60.1174H79.6109H80.9062V59.4777V58.838H84.1445H87.3828V60.757V62.676H83.254H79.109L78.7204 63.0758C78.348 63.4276 78.3156 63.5875 78.3156 64.9948V66.514H79.6109H80.9062V65.8743V65.2346H84.1445H87.3828V67.1536V69.0726H83.254H79.109L78.7204 69.4724C78.348 69.8242 78.3156 69.9841 78.3156 71.3914V72.9106H79.6109H80.9062V72.2709V71.6313H84.1445H87.3828V73.5502V75.4692H83.254H79.109L78.7204 75.869C78.348 76.2208 78.3156 76.3807 78.3156 77.788V79.3072H79.6109H80.9062V78.6675V78.0279H84.1445H87.3828V82.5055V86.9831H79.6109H71.8391V59.2378V31.4926L79.6109 35.3305L87.3828 39.1685V41.3273ZM38.1609 66.9937V86.9831H30.3081H22.4553V66.9937V47.0043H30.3081H38.1609V66.9937Z" fill="white"/>
<path d="M48.5234 53.0811V78.0278H49.8188H51.1141V53.0811V28.1343H49.8188H48.5234V53.0811Z" fill="#3378C9"/>
<path d="M48.5234 53.0811V78.0278H49.8188H51.1141V53.0811V28.1343H49.8188H48.5234V53.0811Z" fill="white"/>
<path d="M53.7047 53.0811V78.0278H55H56.2953V53.0811V28.1343H55H53.7047V53.0811Z" fill="#3378C9"/>
<path d="M53.7047 53.0811V78.0278H55H56.2953V53.0811V28.1343H55H53.7047V53.0811Z" fill="white"/>
<path d="M58.886 53.0811V78.0278H60.1813H61.4766V53.0811V28.1343H60.1813H58.886V53.0811Z" fill="#3378C9"/>
<path d="M58.886 53.0811V78.0278H60.1813H61.4766V53.0811V28.1343H60.1813H58.886V53.0811Z" fill="white"/>
<path d="M25.2078 52.4415V53.7208H30.389H35.5703V52.4415V51.1622H30.389H25.2078V52.4415Z" fill="#3378C9"/>
<path d="M25.2078 52.4415V53.7208H30.389H35.5703V52.4415V51.1622H30.389H25.2078V52.4415Z" fill="white"/>
<path d="M25.2078 57.5587V58.838H30.389H35.5703V57.5587V56.2794H30.389H25.2078V57.5587Z" fill="#3378C9"/>
<path d="M25.2078 57.5587V58.838H30.389H35.5703V57.5587V56.2794H30.389H25.2078V57.5587Z" fill="white"/>
<path d="M25.2078 62.676V63.9553H30.389H35.5703V62.676V61.3967H30.389H25.2078V62.676Z" fill="#3378C9"/>
<path d="M25.2078 62.676V63.9553H30.389H35.5703V62.676V61.3967H30.389H25.2078V62.676Z" fill="white"/>
<path d="M25.2078 67.7933V69.0726H30.389H35.5703V67.7933V66.514H30.389H25.2078V67.7933Z" fill="#3378C9"/>
<path d="M25.2078 67.7933V69.0726H30.389H35.5703V67.7933V66.514H30.389H25.2078V67.7933Z" fill="white"/>
<path d="M25.2078 72.9106V74.1899H30.389H35.5703V72.9106V71.6313H30.389H25.2078V72.9106Z" fill="#3378C9"/>
<path d="M25.2078 72.9106V74.1899H30.389H35.5703V72.9106V71.6313H30.389H25.2078V72.9106Z" fill="white"/>
<path d="M25.2078 78.0278V79.3071H30.389H35.5703V78.0278V76.7485H30.389H25.2078V78.0278Z" fill="#3378C9"/>
<path d="M25.2078 78.0278V79.3071H30.389H35.5703V78.0278V76.7485H30.389H25.2078V78.0278Z" fill="white"/>
</g>
</g>
<defs>
<filter id="filter0_i_4561_4735" x="0" y="0" width="110" height="111.584" filterUnits="userSpaceOnUse" color-interpolation-filters="sRGB">
<feFlood flood-opacity="0" result="BackgroundImageFix"/>
<feBlend mode="normal" in="SourceGraphic" in2="BackgroundImageFix" result="shape"/>
<feColorMatrix in="SourceAlpha" type="matrix" values="0 0 0 0 0 0 0 0 0 0 0 0 0 0 0 0 0 0 127 0" result="hardAlpha"/>
<feOffset dy="1.58386"/>
<feGaussianBlur stdDeviation="1.58386"/>
<feComposite in2="hardAlpha" operator="arithmetic" k2="-1" k3="1"/>
<feColorMatrix type="matrix" values="0 0 0 0 1 0 0 0 0 1 0 0 0 0 1 0 0 0 0.25 0"/>
<feBlend mode="normal" in2="shape" result="effect1_innerShadow_4561_4735"/>
</filter>
<linearGradient id="paint0_linear_4561_4735" x1="-26.5" y1="-11.5" x2="143.12" y2="102.826" gradientUnits="userSpaceOnUse">
<stop offset="0.00725843" stop-color="#3378C9"/>
<stop offset="1" stop-color="#10923E" stop-opacity="0.62"/>
</linearGradient>
<clipPath id="clip0_4561_4735">
<rect width="77.7188" height="69.0833" fill="white" transform="translate(16.1406 20.4584)"/>
</clipPath>
</defs>
</svg>
