<svg width="110" height="110" viewBox="0 0 110 110" fill="none" xmlns="http://www.w3.org/2000/svg">
<g filter="url(#filter0_i_4561_4769)">
<rect width="110" height="110" rx="12" fill="url(#paint0_linear_4561_4769)" fill-opacity="0.9"/>
<path opacity="0.978" fill-rule="evenodd" clip-rule="evenodd" d="M23.6426 22.5C44.5476 22.5 65.4524 22.5 86.3574 22.5C86.5462 22.6655 86.7578 22.8136 86.9922 22.9443C87.1441 23.2002 87.3134 23.4329 87.5 23.6426C87.5 44.5476 87.5 65.4524 87.5 86.3574C87.3344 86.5462 87.1864 86.7578 87.0557 86.9922C86.7999 87.1441 86.567 87.3134 86.3574 87.5C65.4524 87.5 44.5476 87.5 23.6426 87.5C23.4538 87.3344 23.2422 87.1864 23.0078 87.0557C22.8559 86.7999 22.6866 86.567 22.5 86.3574C22.5 65.4524 22.5 44.5476 22.5 23.6426C22.6655 23.4538 22.8136 23.2422 22.9443 23.0078C23.2002 22.8559 23.4329 22.6866 23.6426 22.5ZM26.3086 26.4355C35.2376 26.4355 44.1667 26.4355 53.0957 26.4355C53.0745 29.652 53.0957 32.8681 53.1592 36.084C53.4038 36.7096 53.8482 37.1115 54.4922 37.29C56.1513 37.2973 57.8017 37.3818 59.4434 37.5439C60.6155 38.2672 60.8482 39.2193 60.1416 40.4004C59.9218 40.6692 59.6467 40.8596 59.3164 40.9717C57.6307 41.1314 55.9381 41.2161 54.2383 41.2256C53.8276 41.3982 53.5102 41.6733 53.2861 42.0508C53.0979 45.6788 53.0344 49.3182 53.0957 52.9688C50.1758 52.9688 47.2559 52.9688 44.3359 52.9688C44.6639 50.4602 43.9021 48.3654 42.0508 46.6846C39.0246 44.8298 36.2951 45.1896 33.8623 47.7637C32.8369 49.3413 32.4349 51.0764 32.6562 52.9688C30.5404 52.9688 28.4245 52.9688 26.3086 52.9688C26.3086 44.1243 26.3086 35.28 26.3086 26.4355ZM56.9043 26.4355C65.8333 26.4355 74.7624 26.4355 83.6914 26.4355C83.6914 35.28 83.6914 44.1243 83.6914 52.9688C74.7624 52.9688 65.8333 52.9688 56.9043 52.9688C56.9043 50.345 56.9043 47.7214 56.9043 45.0977C59.4573 45.4502 61.5945 44.6885 63.3154 42.8125C65.0068 40.1776 64.8799 37.6385 62.9346 35.1953C61.2221 33.656 59.2121 33.0636 56.9043 33.418C56.9043 31.0905 56.9043 28.763 56.9043 26.4355ZM38.2422 49.4141C39.1635 49.4402 39.8195 49.8633 40.21 50.6836C40.3694 52.3269 40.4541 53.9773 40.4639 55.6348C40.79 56.4678 41.4036 56.9122 42.3047 56.9678C45.9014 57.0312 49.4985 57.0525 53.0957 57.0312C53.0957 59.528 53.0957 62.0247 53.0957 64.5215C49.8095 63.9747 47.4185 65.1595 45.9229 68.0762C45.0657 70.6349 45.5946 72.8566 47.5098 74.7412C49.176 75.9509 51.038 76.3953 53.0957 76.0742C53.0957 78.571 53.0957 81.0677 53.0957 83.5645C44.1667 83.5645 35.2376 83.5645 26.3086 83.5645C26.3086 74.72 26.3086 65.8757 26.3086 57.0312C29.1019 57.0525 31.8948 57.0312 34.6875 56.9678C35.5839 56.9183 36.1975 56.4739 36.5283 55.6348C36.5378 53.935 36.6225 52.2423 36.7822 50.5566C37.1291 49.9735 37.6157 49.5927 38.2422 49.4141ZM56.9043 57.0312C65.8333 57.0312 74.7624 57.0312 83.6914 57.0312C83.6914 65.8757 83.6914 74.72 83.6914 83.5645C74.7624 83.5645 65.8333 83.5645 56.9043 83.5645C56.9255 80.1787 56.9043 76.7934 56.8408 73.4082C56.5818 72.7257 56.0952 72.3236 55.3809 72.2021C53.8574 72.1599 52.334 72.1175 50.8105 72.0752C49.1264 71.1031 48.9994 69.9605 50.4297 68.6475C52.0713 68.4853 53.7217 68.4008 55.3809 68.3936C56.0993 68.2671 56.586 67.8652 56.8408 67.1875C56.9043 63.8023 56.9255 60.417 56.9043 57.0312Z" fill="white"/>
</g>
<defs>
<filter id="filter0_i_4561_4769" x="0" y="0" width="110" height="111.584" filterUnits="userSpaceOnUse" color-interpolation-filters="sRGB">
<feFlood flood-opacity="0" result="BackgroundImageFix"/>
<feBlend mode="normal" in="SourceGraphic" in2="BackgroundImageFix" result="shape"/>
<feColorMatrix in="SourceAlpha" type="matrix" values="0 0 0 0 0 0 0 0 0 0 0 0 0 0 0 0 0 0 127 0" result="hardAlpha"/>
<feOffset dy="1.58386"/>
<feGaussianBlur stdDeviation="1.58386"/>
<feComposite in2="hardAlpha" operator="arithmetic" k2="-1" k3="1"/>
<feColorMatrix type="matrix" values="0 0 0 0 1 0 0 0 0 1 0 0 0 0 1 0 0 0 0.25 0"/>
<feBlend mode="normal" in2="shape" result="effect1_innerShadow_4561_4769"/>
</filter>
<linearGradient id="paint0_linear_4561_4769" x1="-26.5" y1="-11.5" x2="143.12" y2="102.826" gradientUnits="userSpaceOnUse">
<stop offset="0.00725843" stop-color="#3378C9"/>
<stop offset="1" stop-color="#10923E" stop-opacity="0.62"/>
</linearGradient>
</defs>
</svg>
