<svg width="110" height="110" viewBox="0 0 110 110" fill="none" xmlns="http://www.w3.org/2000/svg">
<g filter="url(#filter0_i_4561_4834)">
<rect width="110" height="110" rx="12" fill="url(#paint0_linear_4561_4834)" fill-opacity="0.9"/>
<g opacity="0.986">
<path fill-rule="evenodd" clip-rule="evenodd" d="M26.5146 23.4521C45.4639 23.431 64.4131 23.4521 83.3623 23.5156C84.3672 23.8753 85.044 24.5736 85.3926 25.6104C85.4746 26.8799 85.4746 28.1494 85.3926 29.4189C85.044 30.4557 84.3672 31.154 83.3623 31.5137C81.7632 31.5771 80.1636 31.5983 78.5635 31.5771C78.543 32.4668 78.5635 33.3555 78.625 34.2432C79.5684 35.555 80.5117 36.8669 81.4551 38.1787C81.5371 39.1943 81.5371 40.21 81.4551 41.2256C81.3935 41.4583 81.25 41.6064 81.0244 41.6699C76.7587 41.7546 72.4932 41.7546 68.2275 41.6699C68.002 41.6064 67.8584 41.4583 67.7969 41.2256C67.7148 40.21 67.7148 39.1943 67.7969 38.1787C68.7403 36.8669 69.6835 35.555 70.6269 34.2432C70.6885 33.3555 70.7089 32.4668 70.6885 31.5771C66.751 31.5771 62.8135 31.5771 58.876 31.5771C58.8555 32.4668 58.876 33.3555 58.9375 34.2432C59.8809 35.555 60.8242 36.8669 61.7676 38.1787C61.8496 39.1943 61.8496 40.21 61.7676 41.2256C61.7061 41.4583 61.5625 41.6064 61.3369 41.6699C57.0712 41.7546 52.8057 41.7546 48.54 41.6699C48.3145 41.6064 48.1709 41.4583 48.1094 41.2256C48.0273 40.21 48.0273 39.1943 48.1094 38.1787C49.0528 36.8669 49.996 35.555 50.9394 34.2432C51.001 33.3555 51.0214 32.4668 51.001 31.5771C47.0635 31.5771 43.126 31.5771 39.1885 31.5771C39.168 32.4668 39.1885 33.3555 39.25 34.2432C40.1934 35.555 41.1367 36.8669 42.0801 38.1787C42.1621 39.1943 42.1621 40.21 42.0801 41.2256C42.0186 41.4583 41.875 41.6064 41.6494 41.6699C37.3837 41.7546 33.1182 41.7546 28.8525 41.6699C28.627 41.6064 28.4834 41.4583 28.4219 41.2256C28.3398 40.21 28.3398 39.1943 28.4219 38.1787C29.3652 36.8669 30.3086 35.555 31.252 34.2432C31.3134 33.3555 31.3339 32.4668 31.3135 31.5771C29.7133 31.5983 28.1137 31.5771 26.5146 31.5137C25.5098 31.154 24.833 30.4557 24.4844 29.4189C24.4023 28.1494 24.4023 26.8799 24.4844 25.6104C24.8559 24.5713 25.5326 23.8519 26.5146 23.4521ZM27.376 25.4834C45.7511 25.4622 64.126 25.4834 82.501 25.5469C83.0547 25.6104 83.3623 25.9277 83.4238 26.499C83.5608 27.415 83.4787 28.3036 83.1777 29.165C82.9749 29.3195 82.7494 29.4253 82.501 29.4824C64.126 29.5671 45.7509 29.5671 27.376 29.4824C26.8223 29.4189 26.5146 29.1016 26.4531 28.5303C26.3461 27.7156 26.3871 26.9115 26.5762 26.1182C26.7685 25.7979 27.0351 25.5863 27.376 25.4834ZM33.2822 31.5771C34.5947 31.5771 35.9072 31.5771 37.2197 31.5771C37.2197 32.2542 37.2197 32.9313 37.2197 33.6084C35.9072 33.6084 34.5947 33.6084 33.2822 33.6084C33.2822 32.9313 33.2822 32.2542 33.2822 31.5771ZM52.9697 31.5771C54.2823 31.5771 55.5947 31.5771 56.9072 31.5771C56.9072 32.2542 56.9072 32.9313 56.9072 33.6084C55.5947 33.6084 54.2823 33.6084 52.9697 33.6084C52.9697 32.9313 52.9697 32.2542 52.9697 31.5771ZM72.6572 31.5771C73.9698 31.5771 75.2822 31.5771 76.5947 31.5771C76.5947 32.2542 76.5947 32.9313 76.5947 33.6084C75.2822 33.6084 73.9698 33.6084 72.6572 33.6084C72.6572 32.9313 72.6572 32.2542 72.6572 31.5771ZM32.79 35.6396C34.4327 35.5974 36.0733 35.6398 37.7119 35.7666C38.4881 36.8848 39.2879 37.9851 40.1113 39.0674C40.1721 39.2748 40.1925 39.4865 40.1728 39.7021C36.8916 39.7021 33.6104 39.7021 30.3291 39.7021C30.3094 39.4865 30.3299 39.2748 30.3906 39.0674C31.253 37.9623 32.0528 36.8197 32.79 35.6396ZM52.4775 35.6396C54.1202 35.5974 55.7608 35.6398 57.3994 35.7666C58.1756 36.8848 58.9754 37.9851 59.7988 39.0674C59.8596 39.2748 59.88 39.4865 59.8603 39.7021C56.5791 39.7021 53.2979 39.7021 50.0166 39.7021C49.9969 39.4865 50.0173 39.2748 50.0781 39.0674C50.9406 37.9623 51.7404 36.8197 52.4775 35.6396ZM72.165 35.6396C73.8077 35.5974 75.4483 35.6398 77.0869 35.7666C77.8631 36.8848 78.6629 37.9851 79.4863 39.0674C79.5471 39.2748 79.5675 39.4865 79.5478 39.7021C76.2666 39.7021 72.9854 39.7021 69.7041 39.7021C69.6844 39.4865 69.7048 39.2748 69.7656 39.0674C70.6281 37.9623 71.4279 36.8197 72.165 35.6396Z" fill="black"/>
<path fill-rule="evenodd" clip-rule="evenodd" d="M26.5146 23.4521C45.4639 23.431 64.4131 23.4521 83.3623 23.5156C84.3672 23.8753 85.044 24.5736 85.3926 25.6104C85.4746 26.8799 85.4746 28.1494 85.3926 29.4189C85.044 30.4557 84.3672 31.154 83.3623 31.5137C81.7632 31.5771 80.1636 31.5983 78.5635 31.5771C78.543 32.4668 78.5635 33.3555 78.625 34.2432C79.5684 35.555 80.5117 36.8669 81.4551 38.1787C81.5371 39.1943 81.5371 40.21 81.4551 41.2256C81.3935 41.4583 81.25 41.6064 81.0244 41.6699C76.7587 41.7546 72.4932 41.7546 68.2275 41.6699C68.002 41.6064 67.8584 41.4583 67.7969 41.2256C67.7148 40.21 67.7148 39.1943 67.7969 38.1787C68.7403 36.8669 69.6835 35.555 70.6269 34.2432C70.6885 33.3555 70.7089 32.4668 70.6885 31.5771C66.751 31.5771 62.8135 31.5771 58.876 31.5771C58.8555 32.4668 58.876 33.3555 58.9375 34.2432C59.8809 35.555 60.8242 36.8669 61.7676 38.1787C61.8496 39.1943 61.8496 40.21 61.7676 41.2256C61.7061 41.4583 61.5625 41.6064 61.3369 41.6699C57.0712 41.7546 52.8057 41.7546 48.54 41.6699C48.3145 41.6064 48.1709 41.4583 48.1094 41.2256C48.0273 40.21 48.0273 39.1943 48.1094 38.1787C49.0528 36.8669 49.996 35.555 50.9394 34.2432C51.001 33.3555 51.0214 32.4668 51.001 31.5771C47.0635 31.5771 43.126 31.5771 39.1885 31.5771C39.168 32.4668 39.1885 33.3555 39.25 34.2432C40.1934 35.555 41.1367 36.8669 42.0801 38.1787C42.1621 39.1943 42.1621 40.21 42.0801 41.2256C42.0186 41.4583 41.875 41.6064 41.6494 41.6699C37.3837 41.7546 33.1182 41.7546 28.8525 41.6699C28.627 41.6064 28.4834 41.4583 28.4219 41.2256C28.3398 40.21 28.3398 39.1943 28.4219 38.1787C29.3652 36.8669 30.3086 35.555 31.252 34.2432C31.3134 33.3555 31.3339 32.4668 31.3135 31.5771C29.7133 31.5983 28.1137 31.5771 26.5146 31.5137C25.5098 31.154 24.833 30.4557 24.4844 29.4189C24.4023 28.1494 24.4023 26.8799 24.4844 25.6104C24.8559 24.5713 25.5326 23.8519 26.5146 23.4521ZM27.376 25.4834C45.7511 25.4622 64.126 25.4834 82.501 25.5469C83.0547 25.6104 83.3623 25.9277 83.4238 26.499C83.5608 27.415 83.4787 28.3036 83.1777 29.165C82.9749 29.3195 82.7494 29.4253 82.501 29.4824C64.126 29.5671 45.7509 29.5671 27.376 29.4824C26.8223 29.4189 26.5146 29.1016 26.4531 28.5303C26.3461 27.7156 26.3871 26.9115 26.5762 26.1182C26.7685 25.7979 27.0351 25.5863 27.376 25.4834ZM33.2822 31.5771C34.5947 31.5771 35.9072 31.5771 37.2197 31.5771C37.2197 32.2542 37.2197 32.9313 37.2197 33.6084C35.9072 33.6084 34.5947 33.6084 33.2822 33.6084C33.2822 32.9313 33.2822 32.2542 33.2822 31.5771ZM52.9697 31.5771C54.2823 31.5771 55.5947 31.5771 56.9072 31.5771C56.9072 32.2542 56.9072 32.9313 56.9072 33.6084C55.5947 33.6084 54.2823 33.6084 52.9697 33.6084C52.9697 32.9313 52.9697 32.2542 52.9697 31.5771ZM72.6572 31.5771C73.9698 31.5771 75.2822 31.5771 76.5947 31.5771C76.5947 32.2542 76.5947 32.9313 76.5947 33.6084C75.2822 33.6084 73.9698 33.6084 72.6572 33.6084C72.6572 32.9313 72.6572 32.2542 72.6572 31.5771ZM32.79 35.6396C34.4327 35.5974 36.0733 35.6398 37.7119 35.7666C38.4881 36.8848 39.2879 37.9851 40.1113 39.0674C40.1721 39.2748 40.1925 39.4865 40.1728 39.7021C36.8916 39.7021 33.6104 39.7021 30.3291 39.7021C30.3094 39.4865 30.3299 39.2748 30.3906 39.0674C31.253 37.9623 32.0528 36.8197 32.79 35.6396ZM52.4775 35.6396C54.1202 35.5974 55.7608 35.6398 57.3994 35.7666C58.1756 36.8848 58.9754 37.9851 59.7988 39.0674C59.8596 39.2748 59.88 39.4865 59.8603 39.7021C56.5791 39.7021 53.2979 39.7021 50.0166 39.7021C49.9969 39.4865 50.0173 39.2748 50.0781 39.0674C50.9406 37.9623 51.7404 36.8197 52.4775 35.6396ZM72.165 35.6396C73.8077 35.5974 75.4483 35.6398 77.0869 35.7666C77.8631 36.8848 78.6629 37.9851 79.4863 39.0674C79.5471 39.2748 79.5675 39.4865 79.5478 39.7021C76.2666 39.7021 72.9854 39.7021 69.7041 39.7021C69.6844 39.4865 69.7048 39.2748 69.7656 39.0674C70.6281 37.9623 71.4279 36.8197 72.165 35.6396Z" fill="white"/>
</g>
<path fill-rule="evenodd" clip-rule="evenodd" d="M30.3291 43.7646C30.9853 43.7646 31.6416 43.7646 32.2979 43.7646C32.2979 44.4417 32.2979 45.1189 32.2979 45.7959C31.6416 45.7959 30.9853 45.7959 30.3291 45.7959C30.3291 45.1189 30.3291 44.4417 30.3291 43.7646Z" fill="black"/>
<path fill-rule="evenodd" clip-rule="evenodd" d="M30.3291 43.7646C30.9853 43.7646 31.6416 43.7646 32.2979 43.7646C32.2979 44.4417 32.2979 45.1189 32.2979 45.7959C31.6416 45.7959 30.9853 45.7959 30.3291 45.7959C30.3291 45.1189 30.3291 44.4417 30.3291 43.7646Z" fill="white"/>
<path fill-rule="evenodd" clip-rule="evenodd" d="M34.2666 43.7646C34.9228 43.7646 35.5791 43.7646 36.2354 43.7646C36.2354 44.4417 36.2354 45.1189 36.2354 45.7959C35.5791 45.7959 34.9228 45.7959 34.2666 45.7959C34.2666 45.1189 34.2666 44.4417 34.2666 43.7646Z" fill="black"/>
<path fill-rule="evenodd" clip-rule="evenodd" d="M34.2666 43.7646C34.9228 43.7646 35.5791 43.7646 36.2354 43.7646C36.2354 44.4417 36.2354 45.1189 36.2354 45.7959C35.5791 45.7959 34.9228 45.7959 34.2666 45.7959C34.2666 45.1189 34.2666 44.4417 34.2666 43.7646Z" fill="white"/>
<path fill-rule="evenodd" clip-rule="evenodd" d="M38.2041 43.7646C38.8603 43.7646 39.5166 43.7646 40.1729 43.7646C40.1729 44.4417 40.1729 45.1189 40.1729 45.7959C39.5166 45.7959 38.8603 45.7959 38.2041 45.7959C38.2041 45.1189 38.2041 44.4417 38.2041 43.7646Z" fill="black"/>
<path fill-rule="evenodd" clip-rule="evenodd" d="M38.2041 43.7646C38.8603 43.7646 39.5166 43.7646 40.1729 43.7646C40.1729 44.4417 40.1729 45.1189 40.1729 45.7959C39.5166 45.7959 38.8603 45.7959 38.2041 45.7959C38.2041 45.1189 38.2041 44.4417 38.2041 43.7646Z" fill="white"/>
<path fill-rule="evenodd" clip-rule="evenodd" d="M50.0166 43.7646C50.6728 43.7646 51.3291 43.7646 51.9854 43.7646C51.9854 44.4417 51.9854 45.1189 51.9854 45.7959C51.3291 45.7959 50.6728 45.7959 50.0166 45.7959C50.0166 45.1189 50.0166 44.4417 50.0166 43.7646Z" fill="black"/>
<path fill-rule="evenodd" clip-rule="evenodd" d="M50.0166 43.7646C50.6728 43.7646 51.3291 43.7646 51.9854 43.7646C51.9854 44.4417 51.9854 45.1189 51.9854 45.7959C51.3291 45.7959 50.6728 45.7959 50.0166 45.7959C50.0166 45.1189 50.0166 44.4417 50.0166 43.7646Z" fill="white"/>
<path fill-rule="evenodd" clip-rule="evenodd" d="M53.9541 43.7646C54.6103 43.7646 55.2666 43.7646 55.9229 43.7646C55.9229 44.4417 55.9229 45.1189 55.9229 45.7959C55.2666 45.7959 54.6103 45.7959 53.9541 45.7959C53.9541 45.1189 53.9541 44.4417 53.9541 43.7646Z" fill="black"/>
<path fill-rule="evenodd" clip-rule="evenodd" d="M53.9541 43.7646C54.6103 43.7646 55.2666 43.7646 55.9229 43.7646C55.9229 44.4417 55.9229 45.1189 55.9229 45.7959C55.2666 45.7959 54.6103 45.7959 53.9541 45.7959C53.9541 45.1189 53.9541 44.4417 53.9541 43.7646Z" fill="white"/>
<path fill-rule="evenodd" clip-rule="evenodd" d="M57.8916 43.7646C58.5478 43.7646 59.2041 43.7646 59.8604 43.7646C59.8604 44.4417 59.8604 45.1189 59.8604 45.7959C59.2041 45.7959 58.5478 45.7959 57.8916 45.7959C57.8916 45.1189 57.8916 44.4417 57.8916 43.7646Z" fill="black"/>
<path fill-rule="evenodd" clip-rule="evenodd" d="M57.8916 43.7646C58.5478 43.7646 59.2041 43.7646 59.8604 43.7646C59.8604 44.4417 59.8604 45.1189 59.8604 45.7959C59.2041 45.7959 58.5478 45.7959 57.8916 45.7959C57.8916 45.1189 57.8916 44.4417 57.8916 43.7646Z" fill="white"/>
<path fill-rule="evenodd" clip-rule="evenodd" d="M69.7041 43.7646C70.3603 43.7646 71.0166 43.7646 71.6729 43.7646C71.6729 44.4417 71.6729 45.1189 71.6729 45.7959C71.0166 45.7959 70.3603 45.7959 69.7041 45.7959C69.7041 45.1189 69.7041 44.4417 69.7041 43.7646Z" fill="black"/>
<path fill-rule="evenodd" clip-rule="evenodd" d="M69.7041 43.7646C70.3603 43.7646 71.0166 43.7646 71.6729 43.7646C71.6729 44.4417 71.6729 45.1189 71.6729 45.7959C71.0166 45.7959 70.3603 45.7959 69.7041 45.7959C69.7041 45.1189 69.7041 44.4417 69.7041 43.7646Z" fill="white"/>
<path fill-rule="evenodd" clip-rule="evenodd" d="M73.6416 43.7646C74.2978 43.7646 74.9541 43.7646 75.6104 43.7646C75.6104 44.4417 75.6104 45.1189 75.6104 45.7959C74.9541 45.7959 74.2978 45.7959 73.6416 45.7959C73.6416 45.1189 73.6416 44.4417 73.6416 43.7646Z" fill="black"/>
<path fill-rule="evenodd" clip-rule="evenodd" d="M73.6416 43.7646C74.2978 43.7646 74.9541 43.7646 75.6104 43.7646C75.6104 44.4417 75.6104 45.1189 75.6104 45.7959C74.9541 45.7959 74.2978 45.7959 73.6416 45.7959C73.6416 45.1189 73.6416 44.4417 73.6416 43.7646Z" fill="white"/>
<path fill-rule="evenodd" clip-rule="evenodd" d="M77.5791 43.7646C78.2353 43.7646 78.8916 43.7646 79.5479 43.7646C79.5479 44.4417 79.5479 45.1189 79.5479 45.7959C78.8916 45.7959 78.2353 45.7959 77.5791 45.7959C77.5791 45.1189 77.5791 44.4417 77.5791 43.7646Z" fill="black"/>
<path fill-rule="evenodd" clip-rule="evenodd" d="M77.5791 43.7646C78.2353 43.7646 78.8916 43.7646 79.5479 43.7646C79.5479 44.4417 79.5479 45.1189 79.5479 45.7959C78.8916 45.7959 78.2353 45.7959 77.5791 45.7959C77.5791 45.1189 77.5791 44.4417 77.5791 43.7646Z" fill="white"/>
<path fill-rule="evenodd" clip-rule="evenodd" d="M30.3291 47.8271C30.9853 47.8271 31.6416 47.8271 32.2979 47.8271C32.2979 48.5042 32.2979 49.1814 32.2979 49.8584C31.6416 49.8584 30.9853 49.8584 30.3291 49.8584C30.3291 49.1814 30.3291 48.5042 30.3291 47.8271Z" fill="black"/>
<path fill-rule="evenodd" clip-rule="evenodd" d="M30.3291 47.8271C30.9853 47.8271 31.6416 47.8271 32.2979 47.8271C32.2979 48.5042 32.2979 49.1814 32.2979 49.8584C31.6416 49.8584 30.9853 49.8584 30.3291 49.8584C30.3291 49.1814 30.3291 48.5042 30.3291 47.8271Z" fill="white"/>
<path fill-rule="evenodd" clip-rule="evenodd" d="M34.2666 47.8271C34.9228 47.8271 35.5791 47.8271 36.2354 47.8271C36.2354 48.5042 36.2354 49.1814 36.2354 49.8584C35.5791 49.8584 34.9228 49.8584 34.2666 49.8584C34.2666 49.1814 34.2666 48.5042 34.2666 47.8271Z" fill="black"/>
<path fill-rule="evenodd" clip-rule="evenodd" d="M34.2666 47.8271C34.9228 47.8271 35.5791 47.8271 36.2354 47.8271C36.2354 48.5042 36.2354 49.1814 36.2354 49.8584C35.5791 49.8584 34.9228 49.8584 34.2666 49.8584C34.2666 49.1814 34.2666 48.5042 34.2666 47.8271Z" fill="white"/>
<path fill-rule="evenodd" clip-rule="evenodd" d="M38.2041 47.8271C38.8603 47.8271 39.5166 47.8271 40.1729 47.8271C40.1729 48.5042 40.1729 49.1814 40.1729 49.8584C39.5166 49.8584 38.8603 49.8584 38.2041 49.8584C38.2041 49.1814 38.2041 48.5042 38.2041 47.8271Z" fill="black"/>
<path fill-rule="evenodd" clip-rule="evenodd" d="M38.2041 47.8271C38.8603 47.8271 39.5166 47.8271 40.1729 47.8271C40.1729 48.5042 40.1729 49.1814 40.1729 49.8584C39.5166 49.8584 38.8603 49.8584 38.2041 49.8584C38.2041 49.1814 38.2041 48.5042 38.2041 47.8271Z" fill="white"/>
<path fill-rule="evenodd" clip-rule="evenodd" d="M69.7041 47.8271C70.3603 47.8271 71.0166 47.8271 71.6729 47.8271C71.6729 48.5042 71.6729 49.1814 71.6729 49.8584C71.0166 49.8584 70.3603 49.8584 69.7041 49.8584C69.7041 49.1814 69.7041 48.5042 69.7041 47.8271Z" fill="black"/>
<path fill-rule="evenodd" clip-rule="evenodd" d="M69.7041 47.8271C70.3603 47.8271 71.0166 47.8271 71.6729 47.8271C71.6729 48.5042 71.6729 49.1814 71.6729 49.8584C71.0166 49.8584 70.3603 49.8584 69.7041 49.8584C69.7041 49.1814 69.7041 48.5042 69.7041 47.8271Z" fill="white"/>
<path fill-rule="evenodd" clip-rule="evenodd" d="M73.6416 47.8271C74.2978 47.8271 74.9541 47.8271 75.6104 47.8271C75.6104 48.5042 75.6104 49.1814 75.6104 49.8584C74.9541 49.8584 74.2978 49.8584 73.6416 49.8584C73.6416 49.1814 73.6416 48.5042 73.6416 47.8271Z" fill="black"/>
<path fill-rule="evenodd" clip-rule="evenodd" d="M73.6416 47.8271C74.2978 47.8271 74.9541 47.8271 75.6104 47.8271C75.6104 48.5042 75.6104 49.1814 75.6104 49.8584C74.9541 49.8584 74.2978 49.8584 73.6416 49.8584C73.6416 49.1814 73.6416 48.5042 73.6416 47.8271Z" fill="white"/>
<path fill-rule="evenodd" clip-rule="evenodd" d="M77.5791 47.8271C78.2353 47.8271 78.8916 47.8271 79.5479 47.8271C79.5479 48.5042 79.5479 49.1814 79.5479 49.8584C78.8916 49.8584 78.2353 49.8584 77.5791 49.8584C77.5791 49.1814 77.5791 48.5042 77.5791 47.8271Z" fill="black"/>
<path fill-rule="evenodd" clip-rule="evenodd" d="M77.5791 47.8271C78.2353 47.8271 78.8916 47.8271 79.5479 47.8271C79.5479 48.5042 79.5479 49.1814 79.5479 49.8584C78.8916 49.8584 78.2353 49.8584 77.5791 49.8584C77.5791 49.1814 77.5791 48.5042 77.5791 47.8271Z" fill="white"/>
<g opacity="0.956">
<path fill-rule="evenodd" clip-rule="evenodd" d="M46.5713 48.8428C49.8165 48.7292 52.4211 49.9987 54.3848 52.6514C55.0929 53.7848 55.5851 55.012 55.8613 56.3331C58.0452 53.6131 60.8547 52.4705 64.29 52.9053C65.2744 52.9265 66.2588 52.9476 67.2432 52.9688C67.3559 53.0163 67.4585 53.0797 67.5508 53.1592C67.9088 57.5602 66.1247 60.6705 62.1982 62.4903C61.7954 62.6429 61.3853 62.7698 60.9678 62.8711C59.2925 63.0496 57.6108 63.1131 55.9228 63.0616C55.8827 65.4622 55.9237 67.8532 56.0459 70.2344C57.0624 70.4838 58.0057 70.9069 58.876 71.5039C59.4698 71.5824 60.0439 71.4977 60.5986 71.25C62.2306 70.9465 63.7481 71.2427 65.1514 72.1387C65.6087 72.5685 66.1009 72.9493 66.6279 73.2813C67.7328 73.2266 68.8402 73.2266 69.9502 73.2813C70.5497 73.4213 71.1238 73.633 71.6728 73.9161C72.2471 74.3392 72.8212 74.7625 73.3955 75.1856C74.1327 75.2489 74.871 75.2701 75.6103 75.2491C75.6103 74.2334 75.6103 73.2178 75.6103 72.2022C73.9224 72.2537 72.2407 72.1903 70.5654 72.0118C66.886 70.9239 64.6507 68.4483 63.8594 64.585C63.7475 63.8091 63.7885 63.0473 63.9824 62.2998C64.0747 62.2204 64.1773 62.1569 64.29 62.1094C66.2588 62.0247 68.2275 62.0247 70.1963 62.1094C72.4557 62.5018 74.2809 63.6232 75.6719 65.4737C76.7427 60.9616 79.5113 58.4648 83.9775 57.9834C84.3057 58.0046 84.6337 58.0257 84.9619 58.0469C85.1874 58.1104 85.331 58.2585 85.3926 58.4913C85.4746 60.5225 85.4746 62.5538 85.3926 64.585C84.4404 68.9316 81.836 71.4707 77.5791 72.2022C77.5587 73.4725 77.5791 74.742 77.6406 76.0108C78.8812 76.7825 79.7631 77.8616 80.2861 79.2481C83.7868 80.0228 85.4889 82.2444 85.3926 85.9131C85.331 86.1458 85.1874 86.294 84.9619 86.3575C64.9462 86.4421 44.9307 86.4421 24.915 86.3575C24.6895 86.294 24.5459 86.1458 24.4844 85.9131C24.388 82.2444 26.0901 80.0228 29.5908 79.2481C30.114 77.8616 30.9958 76.7825 32.2363 76.0108C32.2978 74.4033 32.3183 72.7952 32.2979 71.1866C28.0409 70.4551 25.4365 67.916 24.4844 63.5694C24.4023 61.5381 24.4023 59.5069 24.4844 57.4756C24.5459 57.2429 24.6895 57.0948 24.915 57.0313C29.2355 56.922 32.2091 58.932 33.8359 63.0616C33.959 63.5271 34.082 63.9925 34.2051 64.4581C36.3889 61.7381 39.1984 60.5955 42.6338 61.0303C43.6182 61.0515 44.6025 61.0726 45.5869 61.0938C45.6996 61.1413 45.8022 61.2048 45.8945 61.2842C46.2526 65.6852 44.4684 68.7955 40.542 70.6153C40.1391 70.7679 39.729 70.8948 39.3115 70.9961C37.6362 71.1746 35.9546 71.2381 34.2666 71.1866C34.2666 72.5408 34.2666 73.8949 34.2666 75.2491C35.006 75.2701 35.7443 75.2489 36.4814 75.1856C37.1038 74.6705 37.7601 74.205 38.4502 73.7891C38.9255 73.5692 39.4177 73.3999 39.9268 73.2813C41.0368 73.2266 42.1442 73.2266 43.249 73.2813C43.776 72.9493 44.2682 72.5685 44.7256 72.1387C45.7519 71.436 46.8799 71.1186 48.1094 71.1866C49.0829 71.2641 50.0467 71.3699 51.001 71.5039C51.8478 70.8598 52.7912 70.4365 53.831 70.2344C53.9532 67.8532 53.9942 65.4622 53.9541 63.0616C49.6972 62.3301 47.0928 59.791 46.1406 55.4444C46.0585 53.4131 46.0585 51.3819 46.1406 49.3506C46.2255 49.1158 46.369 48.9464 46.5713 48.8428ZM48.0478 51.001C51.1438 51.635 53.0511 53.5393 53.7695 56.7139C53.9594 58.1087 53.9799 59.5052 53.831 60.9034C50.8007 60.2101 48.9344 58.3058 48.2324 55.1905C48.0837 53.7982 48.0221 52.4017 48.0478 51.001ZM62.8135 54.9366C63.7604 54.8945 64.7037 54.9369 65.6435 55.0635C64.9726 58.189 63.1269 60.1145 60.1064 60.8399C58.7545 61.0358 57.401 61.057 56.0459 60.9034C56.962 57.2804 59.2178 55.2915 62.8135 54.9366ZM26.3916 59.126C29.4876 59.76 31.3948 61.6643 32.1133 64.8389C32.3032 66.2337 32.3237 67.6302 32.1748 69.0284C29.1444 68.3351 27.2782 66.4308 26.5762 63.3155C26.4274 61.9232 26.3659 60.5267 26.3916 59.126ZM83.2392 60.1416C83.402 60.5781 83.4841 61.0647 83.4853 61.6016C83.7703 65.1623 82.4168 67.786 79.4248 69.4727C78.863 69.7022 78.2887 69.8927 77.7021 70.044C77.5533 68.6459 77.5738 67.2494 77.7637 65.8545C78.4627 62.7848 80.2878 60.8805 83.2392 60.1416ZM41.1572 63.0616C42.1042 63.0195 43.0475 63.0619 43.9873 63.1885C43.3163 66.314 41.4706 68.2395 38.4502 68.9649C37.0983 69.1608 35.7448 69.182 34.3896 69.0284C35.3057 65.4054 37.5615 63.4165 41.1572 63.0616ZM65.8896 64.0772C67.2472 64.0507 68.6007 64.1141 69.9502 64.2676C72.9696 64.9919 74.8153 66.9174 75.4873 70.044C73.3559 70.3616 71.3051 70.0866 69.335 69.2188C67.4721 68.0214 66.3237 66.3075 65.8896 64.0772ZM54.0771 72.3291C54.6529 72.3081 55.227 72.3293 55.7998 72.3926C56.7021 72.8158 57.6045 73.239 58.5068 73.6622C59.896 73.5371 61.2906 73.4526 62.6904 73.4082C63.5836 73.6149 64.3219 74.0805 64.9053 74.8047C65.5508 75.2624 66.2685 75.4951 67.0586 75.503C68.8348 75.01 70.3729 75.4121 71.6728 76.709C71.9667 76.9453 72.2947 77.1145 72.6572 77.2168C73.7665 77.3396 74.8739 77.4666 75.9795 77.5977C77.4259 78.3297 78.3282 79.5146 78.6865 81.1524C78.9887 81.3579 79.2963 81.4214 79.6094 81.3428C81.4824 81.5346 82.6923 82.5503 83.2392 84.3897C64.3721 84.3897 45.5048 84.3897 26.6377 84.3897C27.1847 82.5503 28.3946 81.5346 30.2676 81.3428C30.5332 81.4313 30.7998 81.3889 31.0674 81.2159C31.3978 80.3227 31.8285 79.4764 32.3594 78.6768C32.8047 78.2179 33.3174 77.8581 33.8975 77.5977C35.003 77.4666 36.1105 77.3396 37.2197 77.2168C37.9328 76.9469 38.548 76.5237 39.0654 75.9473C39.4491 75.707 39.8592 75.5378 40.2959 75.4395C41.1383 75.3648 41.9791 75.3859 42.8184 75.503C43.2164 75.4926 43.6061 75.4291 43.9873 75.3125C44.8871 74.724 45.7894 74.1316 46.6943 73.5352C47.7322 73.2581 48.7576 73.3003 49.7705 73.6622C50.3037 73.7468 50.837 73.7468 51.3701 73.6622C52.292 73.2348 53.1943 72.7905 54.0771 72.3291Z" fill="black"/>
<path fill-rule="evenodd" clip-rule="evenodd" d="M46.5713 48.8428C49.8165 48.7292 52.4211 49.9987 54.3848 52.6514C55.0929 53.7848 55.5851 55.012 55.8613 56.3331C58.0452 53.6131 60.8547 52.4705 64.29 52.9053C65.2744 52.9265 66.2588 52.9476 67.2432 52.9688C67.3559 53.0163 67.4585 53.0797 67.5508 53.1592C67.9088 57.5602 66.1247 60.6705 62.1982 62.4903C61.7954 62.6429 61.3853 62.7698 60.9678 62.8711C59.2925 63.0496 57.6108 63.1131 55.9228 63.0616C55.8827 65.4622 55.9237 67.8532 56.0459 70.2344C57.0624 70.4838 58.0057 70.9069 58.876 71.5039C59.4698 71.5824 60.0439 71.4977 60.5986 71.25C62.2306 70.9465 63.7481 71.2427 65.1514 72.1387C65.6087 72.5685 66.1009 72.9493 66.6279 73.2813C67.7328 73.2266 68.8402 73.2266 69.9502 73.2813C70.5497 73.4213 71.1238 73.633 71.6728 73.9161C72.2471 74.3392 72.8212 74.7625 73.3955 75.1856C74.1327 75.2489 74.871 75.2701 75.6103 75.2491C75.6103 74.2334 75.6103 73.2178 75.6103 72.2022C73.9224 72.2537 72.2407 72.1903 70.5654 72.0118C66.886 70.9239 64.6507 68.4483 63.8594 64.585C63.7475 63.8091 63.7885 63.0473 63.9824 62.2998C64.0747 62.2204 64.1773 62.1569 64.29 62.1094C66.2588 62.0247 68.2275 62.0247 70.1963 62.1094C72.4557 62.5018 74.2809 63.6232 75.6719 65.4737C76.7427 60.9616 79.5113 58.4648 83.9775 57.9834C84.3057 58.0046 84.6337 58.0257 84.9619 58.0469C85.1874 58.1104 85.331 58.2585 85.3926 58.4913C85.4746 60.5225 85.4746 62.5538 85.3926 64.585C84.4404 68.9316 81.836 71.4707 77.5791 72.2022C77.5587 73.4725 77.5791 74.742 77.6406 76.0108C78.8812 76.7825 79.7631 77.8616 80.2861 79.2481C83.7868 80.0228 85.4889 82.2444 85.3926 85.9131C85.331 86.1458 85.1874 86.294 84.9619 86.3575C64.9462 86.4421 44.9307 86.4421 24.915 86.3575C24.6895 86.294 24.5459 86.1458 24.4844 85.9131C24.388 82.2444 26.0901 80.0228 29.5908 79.2481C30.114 77.8616 30.9958 76.7825 32.2363 76.0108C32.2978 74.4033 32.3183 72.7952 32.2979 71.1866C28.0409 70.4551 25.4365 67.916 24.4844 63.5694C24.4023 61.5381 24.4023 59.5069 24.4844 57.4756C24.5459 57.2429 24.6895 57.0948 24.915 57.0313C29.2355 56.922 32.2091 58.932 33.8359 63.0616C33.959 63.5271 34.082 63.9925 34.2051 64.4581C36.3889 61.7381 39.1984 60.5955 42.6338 61.0303C43.6182 61.0515 44.6025 61.0726 45.5869 61.0938C45.6996 61.1413 45.8022 61.2048 45.8945 61.2842C46.2526 65.6852 44.4684 68.7955 40.542 70.6153C40.1391 70.7679 39.729 70.8948 39.3115 70.9961C37.6362 71.1746 35.9546 71.2381 34.2666 71.1866C34.2666 72.5408 34.2666 73.8949 34.2666 75.2491C35.006 75.2701 35.7443 75.2489 36.4814 75.1856C37.1038 74.6705 37.7601 74.205 38.4502 73.7891C38.9255 73.5692 39.4177 73.3999 39.9268 73.2813C41.0368 73.2266 42.1442 73.2266 43.249 73.2813C43.776 72.9493 44.2682 72.5685 44.7256 72.1387C45.7519 71.436 46.8799 71.1186 48.1094 71.1866C49.0829 71.2641 50.0467 71.3699 51.001 71.5039C51.8478 70.8598 52.7912 70.4365 53.831 70.2344C53.9532 67.8532 53.9942 65.4622 53.9541 63.0616C49.6972 62.3301 47.0928 59.791 46.1406 55.4444C46.0585 53.4131 46.0585 51.3819 46.1406 49.3506C46.2255 49.1158 46.369 48.9464 46.5713 48.8428ZM48.0478 51.001C51.1438 51.635 53.0511 53.5393 53.7695 56.7139C53.9594 58.1087 53.9799 59.5052 53.831 60.9034C50.8007 60.2101 48.9344 58.3058 48.2324 55.1905C48.0837 53.7982 48.0221 52.4017 48.0478 51.001ZM62.8135 54.9366C63.7604 54.8945 64.7037 54.9369 65.6435 55.0635C64.9726 58.189 63.1269 60.1145 60.1064 60.8399C58.7545 61.0358 57.401 61.057 56.0459 60.9034C56.962 57.2804 59.2178 55.2915 62.8135 54.9366ZM26.3916 59.126C29.4876 59.76 31.3948 61.6643 32.1133 64.8389C32.3032 66.2337 32.3237 67.6302 32.1748 69.0284C29.1444 68.3351 27.2782 66.4308 26.5762 63.3155C26.4274 61.9232 26.3659 60.5267 26.3916 59.126ZM83.2392 60.1416C83.402 60.5781 83.4841 61.0647 83.4853 61.6016C83.7703 65.1623 82.4168 67.786 79.4248 69.4727C78.863 69.7022 78.2887 69.8927 77.7021 70.044C77.5533 68.6459 77.5738 67.2494 77.7637 65.8545C78.4627 62.7848 80.2878 60.8805 83.2392 60.1416ZM41.1572 63.0616C42.1042 63.0195 43.0475 63.0619 43.9873 63.1885C43.3163 66.314 41.4706 68.2395 38.4502 68.9649C37.0983 69.1608 35.7448 69.182 34.3896 69.0284C35.3057 65.4054 37.5615 63.4165 41.1572 63.0616ZM65.8896 64.0772C67.2472 64.0507 68.6007 64.1141 69.9502 64.2676C72.9696 64.9919 74.8153 66.9174 75.4873 70.044C73.3559 70.3616 71.3051 70.0866 69.335 69.2188C67.4721 68.0214 66.3237 66.3075 65.8896 64.0772ZM54.0771 72.3291C54.6529 72.3081 55.227 72.3293 55.7998 72.3926C56.7021 72.8158 57.6045 73.239 58.5068 73.6622C59.896 73.5371 61.2906 73.4526 62.6904 73.4082C63.5836 73.6149 64.3219 74.0805 64.9053 74.8047C65.5508 75.2624 66.2685 75.4951 67.0586 75.503C68.8348 75.01 70.3729 75.4121 71.6728 76.709C71.9667 76.9453 72.2947 77.1145 72.6572 77.2168C73.7665 77.3396 74.8739 77.4666 75.9795 77.5977C77.4259 78.3297 78.3282 79.5146 78.6865 81.1524C78.9887 81.3579 79.2963 81.4214 79.6094 81.3428C81.4824 81.5346 82.6923 82.5503 83.2392 84.3897C64.3721 84.3897 45.5048 84.3897 26.6377 84.3897C27.1847 82.5503 28.3946 81.5346 30.2676 81.3428C30.5332 81.4313 30.7998 81.3889 31.0674 81.2159C31.3978 80.3227 31.8285 79.4764 32.3594 78.6768C32.8047 78.2179 33.3174 77.8581 33.8975 77.5977C35.003 77.4666 36.1105 77.3396 37.2197 77.2168C37.9328 76.9469 38.548 76.5237 39.0654 75.9473C39.4491 75.707 39.8592 75.5378 40.2959 75.4395C41.1383 75.3648 41.9791 75.3859 42.8184 75.503C43.2164 75.4926 43.6061 75.4291 43.9873 75.3125C44.8871 74.724 45.7894 74.1316 46.6943 73.5352C47.7322 73.2581 48.7576 73.3003 49.7705 73.6622C50.3037 73.7468 50.837 73.7468 51.3701 73.6622C52.292 73.2348 53.1943 72.7905 54.0771 72.3291Z" fill="white"/>
</g>
<path fill-rule="evenodd" clip-rule="evenodd" d="M60.8447 77.2803C61.5009 77.2803 62.1573 77.2803 62.8135 77.2803C62.8135 77.9573 62.8135 78.6345 62.8135 79.3115C62.1573 79.3115 61.5009 79.3115 60.8447 79.3115C60.8447 78.6345 60.8447 77.9573 60.8447 77.2803Z" fill="black"/>
<path fill-rule="evenodd" clip-rule="evenodd" d="M60.8447 77.2803C61.5009 77.2803 62.1573 77.2803 62.8135 77.2803C62.8135 77.9573 62.8135 78.6345 62.8135 79.3115C62.1573 79.3115 61.5009 79.3115 60.8447 79.3115C60.8447 78.6345 60.8447 77.9573 60.8447 77.2803Z" fill="white"/>
<path fill-rule="evenodd" clip-rule="evenodd" d="M41.1572 78.2959C41.8134 78.2959 42.4698 78.2959 43.126 78.2959C43.126 78.9729 43.126 79.6501 43.126 80.3271C42.4698 80.3271 41.8134 80.3271 41.1572 80.3271C41.1572 79.6501 41.1572 78.9729 41.1572 78.2959Z" fill="black"/>
<path fill-rule="evenodd" clip-rule="evenodd" d="M41.1572 78.2959C41.8134 78.2959 42.4698 78.2959 43.126 78.2959C43.126 78.9729 43.126 79.6501 43.126 80.3271C42.4698 80.3271 41.8134 80.3271 41.1572 80.3271C41.1572 79.6501 41.1572 78.9729 41.1572 78.2959Z" fill="white"/>
<path fill-rule="evenodd" clip-rule="evenodd" d="M70.6885 79.3115C71.3447 79.3115 72.001 79.3115 72.6572 79.3115C72.6572 79.9886 72.6572 80.6657 72.6572 81.3428C72.001 81.3428 71.3447 81.3428 70.6885 81.3428C70.6885 80.6657 70.6885 79.9886 70.6885 79.3115Z" fill="black"/>
<path fill-rule="evenodd" clip-rule="evenodd" d="M70.6885 79.3115C71.3447 79.3115 72.001 79.3115 72.6572 79.3115C72.6572 79.9886 72.6572 80.6657 72.6572 81.3428C72.001 81.3428 71.3447 81.3428 70.6885 81.3428C70.6885 80.6657 70.6885 79.9886 70.6885 79.3115Z" fill="white"/>
<path fill-rule="evenodd" clip-rule="evenodd" d="M51.001 80.3271C51.6572 80.3271 52.3135 80.3271 52.9697 80.3271C52.9697 81.0042 52.9697 81.6814 52.9697 82.3584C52.3135 82.3584 51.6572 82.3584 51.001 82.3584C51.001 81.6814 51.001 81.0042 51.001 80.3271Z" fill="black"/>
<path fill-rule="evenodd" clip-rule="evenodd" d="M51.001 80.3271C51.6572 80.3271 52.3135 80.3271 52.9697 80.3271C52.9697 81.0042 52.9697 81.6814 52.9697 82.3584C52.3135 82.3584 51.6572 82.3584 51.001 82.3584C51.001 81.6814 51.001 81.0042 51.001 80.3271Z" fill="white"/>
</g>
<defs>
<filter id="filter0_i_4561_4834" x="0" y="0" width="110" height="111.584" filterUnits="userSpaceOnUse" color-interpolation-filters="sRGB">
<feFlood flood-opacity="0" result="BackgroundImageFix"/>
<feBlend mode="normal" in="SourceGraphic" in2="BackgroundImageFix" result="shape"/>
<feColorMatrix in="SourceAlpha" type="matrix" values="0 0 0 0 0 0 0 0 0 0 0 0 0 0 0 0 0 0 127 0" result="hardAlpha"/>
<feOffset dy="1.58386"/>
<feGaussianBlur stdDeviation="1.58386"/>
<feComposite in2="hardAlpha" operator="arithmetic" k2="-1" k3="1"/>
<feColorMatrix type="matrix" values="0 0 0 0 1 0 0 0 0 1 0 0 0 0 1 0 0 0 0.25 0"/>
<feBlend mode="normal" in2="shape" result="effect1_innerShadow_4561_4834"/>
</filter>
<linearGradient id="paint0_linear_4561_4834" x1="-26.5" y1="-11.5" x2="143.12" y2="102.826" gradientUnits="userSpaceOnUse">
<stop offset="0.00725843" stop-color="#3378C9"/>
<stop offset="1" stop-color="#10923E" stop-opacity="0.62"/>
</linearGradient>
</defs>
</svg>
