<svg width="90" height="90" viewBox="0 0 90 90" fill="none" xmlns="http://www.w3.org/2000/svg">
<g opacity="0.962">
<path fill-rule="evenodd" clip-rule="evenodd" d="M46.3184 4.13086C60.5596 4.87663 71.6045 11.1462 79.4531 22.9395C85.3502 32.6579 87.108 43.0875 84.7266 54.2285C83.1843 60.7122 80.2545 66.4543 75.9375 71.4551C75.3674 72.2292 75.3674 72.9911 75.9375 73.7402C77.5489 75.3516 79.1601 76.9628 80.7715 78.5742C75.85 78.6621 70.9281 78.6915 66.0059 78.6621C65.9765 73.6814 66.0059 68.7008 66.0937 63.7207C67.7051 65.3321 69.3163 66.9433 70.9277 68.5547C71.3725 68.8047 71.8413 68.8632 72.334 68.7305C80.6386 58.7937 83.1874 47.5144 79.9805 34.8926C76.3191 23.3773 68.9071 15.3207 57.7441 10.7227C54.057 9.34654 50.2485 8.61413 46.3184 8.52539C46.3184 7.06055 46.3184 5.5957 46.3184 4.13086Z" fill="black"/>
<path fill-rule="evenodd" clip-rule="evenodd" d="M46.3184 4.13086C60.5596 4.87663 71.6045 11.1462 79.4531 22.9395C85.3502 32.6579 87.108 43.0875 84.7266 54.2285C83.1843 60.7122 80.2545 66.4543 75.9375 71.4551C75.3674 72.2292 75.3674 72.9911 75.9375 73.7402C77.5489 75.3516 79.1601 76.9628 80.7715 78.5742C75.85 78.6621 70.9281 78.6915 66.0059 78.6621C65.9765 73.6814 66.0059 68.7008 66.0937 63.7207C67.7051 65.3321 69.3163 66.9433 70.9277 68.5547C71.3725 68.8047 71.8413 68.8632 72.334 68.7305C80.6386 58.7937 83.1874 47.5144 79.9805 34.8926C76.3191 23.3773 68.9071 15.3207 57.7441 10.7227C54.057 9.34654 50.2485 8.61413 46.3184 8.52539C46.3184 7.06055 46.3184 5.5957 46.3184 4.13086Z" fill="url(#paint0_radial_3234_1804)"/>
</g>
<g opacity="0.961">
<path fill-rule="evenodd" clip-rule="evenodd" d="M8.87693 11.3379C13.8272 11.1625 18.8077 11.1039 23.8183 11.1622C23.8477 16.143 23.8183 21.1235 23.7304 26.1036C22.1191 24.4922 20.5078 22.881 18.8965 21.2696C18.4517 21.0196 17.9829 20.9611 17.4902 21.0938C9.14246 31.0212 6.59363 42.3006 9.84372 54.9317C13.4987 66.7238 21.0865 74.8391 32.6074 79.2774C36.1309 80.5506 39.7638 81.2243 43.5058 81.2989C43.5058 82.7637 43.5058 84.2286 43.5058 85.6934C28.8836 84.8456 17.663 78.2832 9.84372 66.0059C4.11194 56.0003 2.6471 45.3948 5.44919 34.1895C7.07164 28.2476 9.88414 22.9741 13.8867 18.3692C14.4568 17.595 14.4568 16.8333 13.8867 16.084C12.1866 14.5303 10.5167 12.9483 8.87693 11.3379Z" fill="black"/>
<path fill-rule="evenodd" clip-rule="evenodd" d="M8.87693 11.3379C13.8272 11.1625 18.8077 11.1039 23.8183 11.1622C23.8477 16.143 23.8183 21.1235 23.7304 26.1036C22.1191 24.4922 20.5078 22.881 18.8965 21.2696C18.4517 21.0196 17.9829 20.9611 17.4902 21.0938C9.14246 31.0212 6.59363 42.3006 9.84372 54.9317C13.4987 66.7238 21.0865 74.8391 32.6074 79.2774C36.1309 80.5506 39.7638 81.2243 43.5058 81.2989C43.5058 82.7637 43.5058 84.2286 43.5058 85.6934C28.8836 84.8456 17.663 78.2832 9.84372 66.0059C4.11194 56.0003 2.6471 45.3948 5.44919 34.1895C7.07164 28.2476 9.88414 22.9741 13.8867 18.3692C14.4568 17.595 14.4568 16.8333 13.8867 16.084C12.1866 14.5303 10.5167 12.9483 8.87693 11.3379Z" fill="url(#paint1_radial_3234_1804)"/>
</g>
<g opacity="0.959">
<path fill-rule="evenodd" clip-rule="evenodd" d="M46.8457 21.5332C46.9614 21.7605 47.0201 22.0242 47.0215 22.3242C46.4191 27.4526 45.8038 32.5796 45.1758 37.7051C45.0585 38.4667 45.0585 39.2286 45.1758 39.9902C45.4076 40.3395 45.7298 40.5446 46.1426 40.6055C49.1326 40.6348 52.1209 40.7227 55.1074 40.8691C50.3613 49.3066 45.6152 57.7441 40.8691 66.1816C40.8106 66.1231 40.7519 66.0644 40.6934 66.0059C42.1378 58.8138 43.4561 51.6067 44.6484 44.3848C44.4611 43.8463 44.0801 43.5827 43.5059 43.5938C40.1075 43.5352 36.7089 43.4765 33.3105 43.418C37.8904 36.1622 42.402 28.8673 46.8457 21.5332Z" fill="black"/>
<path fill-rule="evenodd" clip-rule="evenodd" d="M46.8457 21.5332C46.9614 21.7605 47.0201 22.0242 47.0215 22.3242C46.4191 27.4526 45.8038 32.5796 45.1758 37.7051C45.0585 38.4667 45.0585 39.2286 45.1758 39.9902C45.4076 40.3395 45.7298 40.5446 46.1426 40.6055C49.1326 40.6348 52.1209 40.7227 55.1074 40.8691C50.3613 49.3066 45.6152 57.7441 40.8691 66.1816C40.8106 66.1231 40.7519 66.0644 40.6934 66.0059C42.1378 58.8138 43.4561 51.6067 44.6484 44.3848C44.4611 43.8463 44.0801 43.5827 43.5059 43.5938C40.1075 43.5352 36.7089 43.4765 33.3105 43.418C37.8904 36.1622 42.402 28.8673 46.8457 21.5332Z" fill="url(#paint2_radial_3234_1804)"/>
</g>
<defs>
<radialGradient id="paint0_radial_3234_1804" cx="0" cy="0" r="1" gradientUnits="userSpaceOnUse" gradientTransform="translate(53.987 19.0384) rotate(52.6943) scale(100.502 103.434)">
<stop stop-color="#10923E"/>
<stop offset="0.627261" stop-color="#0057BC"/>
</radialGradient>
<radialGradient id="paint1_radial_3234_1804" cx="0" cy="0" r="1" gradientUnits="userSpaceOnUse" gradientTransform="translate(11.7379 26.0501) rotate(52.6976) scale(100.512 103.441)">
<stop stop-color="#10923E"/>
<stop offset="0.627261" stop-color="#0057BC"/>
</radialGradient>
<radialGradient id="paint2_radial_3234_1804" cx="0" cy="0" r="1" gradientUnits="userSpaceOnUse" gradientTransform="translate(37.5492 30.4624) rotate(54.8883) scale(58.5331 58.7957)">
<stop stop-color="#10923E"/>
<stop offset="0.627261" stop-color="#0057BC"/>
</radialGradient>
</defs>
</svg>
