<svg width="80" height="80" viewBox="0 0 80 80" fill="none" xmlns="http://www.w3.org/2000/svg">
<g opacity="0.986">
<path fill-rule="evenodd" clip-rule="evenodd" d="M3.82812 1.17188C27.8906 1.14583 51.9531 1.17188 76.0156 1.25C77.2917 1.6927 78.1511 2.55208 78.5937 3.82813C78.698 5.39062 78.698 6.95312 78.5937 8.51562C78.1511 9.79167 77.2917 10.651 76.0156 11.0938C73.985 11.1719 71.9537 11.1979 69.9219 11.1719C69.8959 12.2669 69.9219 13.3606 70 14.4531C71.198 16.0677 72.3958 17.6823 73.5937 19.2969C73.698 20.5469 73.698 21.7969 73.5937 23.0469C73.5156 23.3333 73.3333 23.5156 73.0469 23.5938C67.6301 23.698 62.2136 23.698 56.7969 23.5938C56.5105 23.5156 56.3281 23.3333 56.25 23.0469C56.1458 21.7969 56.1458 20.5469 56.25 19.2969C57.448 17.6823 58.6458 16.0677 59.8437 14.4531C59.9219 13.3606 59.9478 12.2669 59.9219 11.1719C54.9219 11.1719 49.9219 11.1719 44.9219 11.1719C44.8959 12.2669 44.9219 13.3606 45 14.4531C46.198 16.0677 47.3958 17.6823 48.5937 19.2969C48.698 20.5469 48.698 21.7969 48.5937 23.0469C48.5156 23.3333 48.3333 23.5156 48.0469 23.5938C42.6302 23.698 37.2136 23.698 31.7969 23.5938C31.5105 23.5156 31.3281 23.3333 31.25 23.0469C31.1458 21.7969 31.1458 20.5469 31.25 19.2969C32.448 17.6823 33.6458 16.0677 34.8437 14.4531C34.9219 13.3606 34.9478 12.2669 34.9219 11.1719C29.9219 11.1719 24.9219 11.1719 19.9219 11.1719C19.8959 12.2669 19.9219 13.3606 20 14.4531C21.198 16.0677 22.3958 17.6823 23.5937 19.2969C23.698 20.5469 23.698 21.7969 23.5937 23.0469C23.5156 23.3333 23.3333 23.5156 23.0469 23.5938C17.6302 23.698 12.2135 23.698 6.79688 23.5938C6.51042 23.5156 6.32812 23.3333 6.25 23.0469C6.14583 21.7969 6.14583 20.5469 6.25 19.2969C7.44792 17.6823 8.64583 16.0677 9.84375 14.4531C9.92181 13.3606 9.94786 12.2669 9.92188 11.1719C7.88995 11.1979 5.8587 11.1719 3.82812 11.0938C2.55208 10.651 1.6927 9.79167 1.25 8.51562C1.14583 6.95312 1.14583 5.39062 1.25 3.82813C1.72173 2.54931 2.58111 1.66391 3.82812 1.17188ZM4.92188 3.67188C28.2553 3.64583 51.5886 3.67188 74.9219 3.75C75.625 3.82813 76.0156 4.21875 76.0937 4.92188C76.2676 6.0492 76.1634 7.14295 75.7812 8.20312C75.5237 8.39328 75.2373 8.52348 74.9219 8.59375C51.5886 8.69792 28.2552 8.69792 4.92188 8.59375C4.21875 8.51562 3.82812 8.125 3.75 7.42188C3.61413 6.41919 3.66622 5.42959 3.90625 4.45313C4.15048 4.05892 4.48903 3.7985 4.92188 3.67188ZM12.4219 11.1719C14.0885 11.1719 15.7552 11.1719 17.4219 11.1719C17.4219 12.0052 17.4219 12.8385 17.4219 13.6719C15.7552 13.6719 14.0885 13.6719 12.4219 13.6719C12.4219 12.8385 12.4219 12.0052 12.4219 11.1719ZM37.4219 11.1719C39.0886 11.1719 40.7552 11.1719 42.4219 11.1719C42.4219 12.0052 42.4219 12.8385 42.4219 13.6719C40.7552 13.6719 39.0886 13.6719 37.4219 13.6719C37.4219 12.8385 37.4219 12.0052 37.4219 11.1719ZM62.4219 11.1719C64.0886 11.1719 65.7551 11.1719 67.4219 11.1719C67.4219 12.0052 67.4219 12.8385 67.4219 13.6719C65.7551 13.6719 64.0886 13.6719 62.4219 13.6719C62.4219 12.8385 62.4219 12.0052 62.4219 11.1719ZM11.7969 16.1719C13.8828 16.1198 15.9661 16.172 18.0469 16.3281C19.0325 17.7044 20.0481 19.0586 21.0937 20.3906C21.1709 20.6459 21.1969 20.9064 21.1719 21.1719C17.0052 21.1719 12.8385 21.1719 8.67188 21.1719C8.64684 20.9064 8.67289 20.6459 8.75 20.3906C9.84511 19.0305 10.8607 17.6242 11.7969 16.1719ZM36.7969 16.1719C38.8828 16.1198 40.9661 16.172 43.0469 16.3281C44.0325 17.7044 45.0481 19.0586 46.0937 20.3906C46.1709 20.6459 46.1969 20.9064 46.1719 21.1719C42.0052 21.1719 37.8386 21.1719 33.6719 21.1719C33.6469 20.9064 33.6728 20.6459 33.75 20.3906C34.8452 19.0305 35.8608 17.6242 36.7969 16.1719ZM61.7969 16.1719C63.8828 16.1198 65.9661 16.172 68.0469 16.3281C69.0325 17.7044 70.0481 19.0586 71.0937 20.3906C71.1709 20.6459 71.1969 20.9064 71.1719 21.1719C67.0051 21.1719 62.8386 21.1719 58.6719 21.1719C58.6469 20.9064 58.6728 20.6459 58.75 20.3906C59.8452 19.0305 60.8608 17.6242 61.7969 16.1719Z" fill="black"/>
<path fill-rule="evenodd" clip-rule="evenodd" d="M3.82812 1.17188C27.8906 1.14583 51.9531 1.17188 76.0156 1.25C77.2917 1.6927 78.1511 2.55208 78.5937 3.82813C78.698 5.39062 78.698 6.95312 78.5937 8.51562C78.1511 9.79167 77.2917 10.651 76.0156 11.0938C73.985 11.1719 71.9537 11.1979 69.9219 11.1719C69.8959 12.2669 69.9219 13.3606 70 14.4531C71.198 16.0677 72.3958 17.6823 73.5937 19.2969C73.698 20.5469 73.698 21.7969 73.5937 23.0469C73.5156 23.3333 73.3333 23.5156 73.0469 23.5938C67.6301 23.698 62.2136 23.698 56.7969 23.5938C56.5105 23.5156 56.3281 23.3333 56.25 23.0469C56.1458 21.7969 56.1458 20.5469 56.25 19.2969C57.448 17.6823 58.6458 16.0677 59.8437 14.4531C59.9219 13.3606 59.9478 12.2669 59.9219 11.1719C54.9219 11.1719 49.9219 11.1719 44.9219 11.1719C44.8959 12.2669 44.9219 13.3606 45 14.4531C46.198 16.0677 47.3958 17.6823 48.5937 19.2969C48.698 20.5469 48.698 21.7969 48.5937 23.0469C48.5156 23.3333 48.3333 23.5156 48.0469 23.5938C42.6302 23.698 37.2136 23.698 31.7969 23.5938C31.5105 23.5156 31.3281 23.3333 31.25 23.0469C31.1458 21.7969 31.1458 20.5469 31.25 19.2969C32.448 17.6823 33.6458 16.0677 34.8437 14.4531C34.9219 13.3606 34.9478 12.2669 34.9219 11.1719C29.9219 11.1719 24.9219 11.1719 19.9219 11.1719C19.8959 12.2669 19.9219 13.3606 20 14.4531C21.198 16.0677 22.3958 17.6823 23.5937 19.2969C23.698 20.5469 23.698 21.7969 23.5937 23.0469C23.5156 23.3333 23.3333 23.5156 23.0469 23.5938C17.6302 23.698 12.2135 23.698 6.79688 23.5938C6.51042 23.5156 6.32812 23.3333 6.25 23.0469C6.14583 21.7969 6.14583 20.5469 6.25 19.2969C7.44792 17.6823 8.64583 16.0677 9.84375 14.4531C9.92181 13.3606 9.94786 12.2669 9.92188 11.1719C7.88995 11.1979 5.8587 11.1719 3.82812 11.0938C2.55208 10.651 1.6927 9.79167 1.25 8.51562C1.14583 6.95312 1.14583 5.39062 1.25 3.82813C1.72173 2.54931 2.58111 1.66391 3.82812 1.17188ZM4.92188 3.67188C28.2553 3.64583 51.5886 3.67188 74.9219 3.75C75.625 3.82813 76.0156 4.21875 76.0937 4.92188C76.2676 6.0492 76.1634 7.14295 75.7812 8.20312C75.5237 8.39328 75.2373 8.52348 74.9219 8.59375C51.5886 8.69792 28.2552 8.69792 4.92188 8.59375C4.21875 8.51562 3.82812 8.125 3.75 7.42188C3.61413 6.41919 3.66622 5.42959 3.90625 4.45313C4.15048 4.05892 4.48903 3.7985 4.92188 3.67188ZM12.4219 11.1719C14.0885 11.1719 15.7552 11.1719 17.4219 11.1719C17.4219 12.0052 17.4219 12.8385 17.4219 13.6719C15.7552 13.6719 14.0885 13.6719 12.4219 13.6719C12.4219 12.8385 12.4219 12.0052 12.4219 11.1719ZM37.4219 11.1719C39.0886 11.1719 40.7552 11.1719 42.4219 11.1719C42.4219 12.0052 42.4219 12.8385 42.4219 13.6719C40.7552 13.6719 39.0886 13.6719 37.4219 13.6719C37.4219 12.8385 37.4219 12.0052 37.4219 11.1719ZM62.4219 11.1719C64.0886 11.1719 65.7551 11.1719 67.4219 11.1719C67.4219 12.0052 67.4219 12.8385 67.4219 13.6719C65.7551 13.6719 64.0886 13.6719 62.4219 13.6719C62.4219 12.8385 62.4219 12.0052 62.4219 11.1719ZM11.7969 16.1719C13.8828 16.1198 15.9661 16.172 18.0469 16.3281C19.0325 17.7044 20.0481 19.0586 21.0937 20.3906C21.1709 20.6459 21.1969 20.9064 21.1719 21.1719C17.0052 21.1719 12.8385 21.1719 8.67188 21.1719C8.64684 20.9064 8.67289 20.6459 8.75 20.3906C9.84511 19.0305 10.8607 17.6242 11.7969 16.1719ZM36.7969 16.1719C38.8828 16.1198 40.9661 16.172 43.0469 16.3281C44.0325 17.7044 45.0481 19.0586 46.0937 20.3906C46.1709 20.6459 46.1969 20.9064 46.1719 21.1719C42.0052 21.1719 37.8386 21.1719 33.6719 21.1719C33.6469 20.9064 33.6728 20.6459 33.75 20.3906C34.8452 19.0305 35.8608 17.6242 36.7969 16.1719ZM61.7969 16.1719C63.8828 16.1198 65.9661 16.172 68.0469 16.3281C69.0325 17.7044 70.0481 19.0586 71.0937 20.3906C71.1709 20.6459 71.1969 20.9064 71.1719 21.1719C67.0051 21.1719 62.8386 21.1719 58.6719 21.1719C58.6469 20.9064 58.6728 20.6459 58.75 20.3906C59.8452 19.0305 60.8608 17.6242 61.7969 16.1719Z" fill="url(#paint0_radial_3232_1802)"/>
</g>
<path fill-rule="evenodd" clip-rule="evenodd" d="M8.67188 26.1719C9.5052 26.1719 10.3385 26.1719 11.1719 26.1719C11.1719 27.0052 11.1719 27.8386 11.1719 28.6719C10.3385 28.6719 9.5052 28.6719 8.67188 28.6719C8.67188 27.8386 8.67188 27.0052 8.67188 26.1719Z" fill="black"/>
<path fill-rule="evenodd" clip-rule="evenodd" d="M8.67188 26.1719C9.5052 26.1719 10.3385 26.1719 11.1719 26.1719C11.1719 27.0052 11.1719 27.8386 11.1719 28.6719C10.3385 28.6719 9.5052 28.6719 8.67188 28.6719C8.67188 27.8386 8.67188 27.0052 8.67188 26.1719Z" fill="url(#paint1_radial_3232_1802)"/>
<path fill-rule="evenodd" clip-rule="evenodd" d="M13.6719 26.1719C14.5052 26.1719 15.3385 26.1719 16.1719 26.1719C16.1719 27.0052 16.1719 27.8386 16.1719 28.6719C15.3385 28.6719 14.5052 28.6719 13.6719 28.6719C13.6719 27.8386 13.6719 27.0052 13.6719 26.1719Z" fill="black"/>
<path fill-rule="evenodd" clip-rule="evenodd" d="M13.6719 26.1719C14.5052 26.1719 15.3385 26.1719 16.1719 26.1719C16.1719 27.0052 16.1719 27.8386 16.1719 28.6719C15.3385 28.6719 14.5052 28.6719 13.6719 28.6719C13.6719 27.8386 13.6719 27.0052 13.6719 26.1719Z" fill="url(#paint2_radial_3232_1802)"/>
<path fill-rule="evenodd" clip-rule="evenodd" d="M18.6719 26.1719C19.5052 26.1719 20.3386 26.1719 21.1719 26.1719C21.1719 27.0052 21.1719 27.8386 21.1719 28.6719C20.3386 28.6719 19.5052 28.6719 18.6719 28.6719C18.6719 27.8386 18.6719 27.0052 18.6719 26.1719Z" fill="black"/>
<path fill-rule="evenodd" clip-rule="evenodd" d="M18.6719 26.1719C19.5052 26.1719 20.3386 26.1719 21.1719 26.1719C21.1719 27.0052 21.1719 27.8386 21.1719 28.6719C20.3386 28.6719 19.5052 28.6719 18.6719 28.6719C18.6719 27.8386 18.6719 27.0052 18.6719 26.1719Z" fill="url(#paint3_radial_3232_1802)"/>
<path fill-rule="evenodd" clip-rule="evenodd" d="M33.6719 26.1719C34.5052 26.1719 35.3386 26.1719 36.1719 26.1719C36.1719 27.0052 36.1719 27.8386 36.1719 28.6719C35.3386 28.6719 34.5052 28.6719 33.6719 28.6719C33.6719 27.8386 33.6719 27.0052 33.6719 26.1719Z" fill="black"/>
<path fill-rule="evenodd" clip-rule="evenodd" d="M33.6719 26.1719C34.5052 26.1719 35.3386 26.1719 36.1719 26.1719C36.1719 27.0052 36.1719 27.8386 36.1719 28.6719C35.3386 28.6719 34.5052 28.6719 33.6719 28.6719C33.6719 27.8386 33.6719 27.0052 33.6719 26.1719Z" fill="url(#paint4_radial_3232_1802)"/>
<path fill-rule="evenodd" clip-rule="evenodd" d="M38.6719 26.1719C39.5052 26.1719 40.3386 26.1719 41.1719 26.1719C41.1719 27.0052 41.1719 27.8386 41.1719 28.6719C40.3386 28.6719 39.5052 28.6719 38.6719 28.6719C38.6719 27.8386 38.6719 27.0052 38.6719 26.1719Z" fill="black"/>
<path fill-rule="evenodd" clip-rule="evenodd" d="M38.6719 26.1719C39.5052 26.1719 40.3386 26.1719 41.1719 26.1719C41.1719 27.0052 41.1719 27.8386 41.1719 28.6719C40.3386 28.6719 39.5052 28.6719 38.6719 28.6719C38.6719 27.8386 38.6719 27.0052 38.6719 26.1719Z" fill="url(#paint5_radial_3232_1802)"/>
<path fill-rule="evenodd" clip-rule="evenodd" d="M43.6719 26.1719C44.5052 26.1719 45.3386 26.1719 46.1719 26.1719C46.1719 27.0052 46.1719 27.8386 46.1719 28.6719C45.3386 28.6719 44.5052 28.6719 43.6719 28.6719C43.6719 27.8386 43.6719 27.0052 43.6719 26.1719Z" fill="black"/>
<path fill-rule="evenodd" clip-rule="evenodd" d="M43.6719 26.1719C44.5052 26.1719 45.3386 26.1719 46.1719 26.1719C46.1719 27.0052 46.1719 27.8386 46.1719 28.6719C45.3386 28.6719 44.5052 28.6719 43.6719 28.6719C43.6719 27.8386 43.6719 27.0052 43.6719 26.1719Z" fill="url(#paint6_radial_3232_1802)"/>
<path fill-rule="evenodd" clip-rule="evenodd" d="M58.6719 26.1719C59.5052 26.1719 60.3386 26.1719 61.1719 26.1719C61.1719 27.0052 61.1719 27.8386 61.1719 28.6719C60.3386 28.6719 59.5052 28.6719 58.6719 28.6719C58.6719 27.8386 58.6719 27.0052 58.6719 26.1719Z" fill="black"/>
<path fill-rule="evenodd" clip-rule="evenodd" d="M58.6719 26.1719C59.5052 26.1719 60.3386 26.1719 61.1719 26.1719C61.1719 27.0052 61.1719 27.8386 61.1719 28.6719C60.3386 28.6719 59.5052 28.6719 58.6719 28.6719C58.6719 27.8386 58.6719 27.0052 58.6719 26.1719Z" fill="url(#paint7_radial_3232_1802)"/>
<path fill-rule="evenodd" clip-rule="evenodd" d="M63.6719 26.1719C64.5052 26.1719 65.3386 26.1719 66.1719 26.1719C66.1719 27.0052 66.1719 27.8386 66.1719 28.6719C65.3386 28.6719 64.5052 28.6719 63.6719 28.6719C63.6719 27.8386 63.6719 27.0052 63.6719 26.1719Z" fill="black"/>
<path fill-rule="evenodd" clip-rule="evenodd" d="M63.6719 26.1719C64.5052 26.1719 65.3386 26.1719 66.1719 26.1719C66.1719 27.0052 66.1719 27.8386 66.1719 28.6719C65.3386 28.6719 64.5052 28.6719 63.6719 28.6719C63.6719 27.8386 63.6719 27.0052 63.6719 26.1719Z" fill="url(#paint8_radial_3232_1802)"/>
<path fill-rule="evenodd" clip-rule="evenodd" d="M68.6719 26.1719C69.5052 26.1719 70.3386 26.1719 71.1719 26.1719C71.1719 27.0052 71.1719 27.8386 71.1719 28.6719C70.3386 28.6719 69.5052 28.6719 68.6719 28.6719C68.6719 27.8386 68.6719 27.0052 68.6719 26.1719Z" fill="black"/>
<path fill-rule="evenodd" clip-rule="evenodd" d="M68.6719 26.1719C69.5052 26.1719 70.3386 26.1719 71.1719 26.1719C71.1719 27.0052 71.1719 27.8386 71.1719 28.6719C70.3386 28.6719 69.5052 28.6719 68.6719 28.6719C68.6719 27.8386 68.6719 27.0052 68.6719 26.1719Z" fill="url(#paint9_radial_3232_1802)"/>
<path fill-rule="evenodd" clip-rule="evenodd" d="M8.67188 31.1719C9.5052 31.1719 10.3385 31.1719 11.1719 31.1719C11.1719 32.0052 11.1719 32.8386 11.1719 33.6719C10.3385 33.6719 9.5052 33.6719 8.67188 33.6719C8.67188 32.8386 8.67188 32.0052 8.67188 31.1719Z" fill="black"/>
<path fill-rule="evenodd" clip-rule="evenodd" d="M8.67188 31.1719C9.5052 31.1719 10.3385 31.1719 11.1719 31.1719C11.1719 32.0052 11.1719 32.8386 11.1719 33.6719C10.3385 33.6719 9.5052 33.6719 8.67188 33.6719C8.67188 32.8386 8.67188 32.0052 8.67188 31.1719Z" fill="url(#paint10_radial_3232_1802)"/>
<path fill-rule="evenodd" clip-rule="evenodd" d="M13.6719 31.1719C14.5052 31.1719 15.3385 31.1719 16.1719 31.1719C16.1719 32.0052 16.1719 32.8386 16.1719 33.6719C15.3385 33.6719 14.5052 33.6719 13.6719 33.6719C13.6719 32.8386 13.6719 32.0052 13.6719 31.1719Z" fill="black"/>
<path fill-rule="evenodd" clip-rule="evenodd" d="M13.6719 31.1719C14.5052 31.1719 15.3385 31.1719 16.1719 31.1719C16.1719 32.0052 16.1719 32.8386 16.1719 33.6719C15.3385 33.6719 14.5052 33.6719 13.6719 33.6719C13.6719 32.8386 13.6719 32.0052 13.6719 31.1719Z" fill="url(#paint11_radial_3232_1802)"/>
<path fill-rule="evenodd" clip-rule="evenodd" d="M18.6719 31.1719C19.5052 31.1719 20.3386 31.1719 21.1719 31.1719C21.1719 32.0052 21.1719 32.8386 21.1719 33.6719C20.3386 33.6719 19.5052 33.6719 18.6719 33.6719C18.6719 32.8386 18.6719 32.0052 18.6719 31.1719Z" fill="black"/>
<path fill-rule="evenodd" clip-rule="evenodd" d="M18.6719 31.1719C19.5052 31.1719 20.3386 31.1719 21.1719 31.1719C21.1719 32.0052 21.1719 32.8386 21.1719 33.6719C20.3386 33.6719 19.5052 33.6719 18.6719 33.6719C18.6719 32.8386 18.6719 32.0052 18.6719 31.1719Z" fill="url(#paint12_radial_3232_1802)"/>
<path fill-rule="evenodd" clip-rule="evenodd" d="M58.6719 31.1719C59.5052 31.1719 60.3386 31.1719 61.1719 31.1719C61.1719 32.0052 61.1719 32.8386 61.1719 33.6719C60.3386 33.6719 59.5052 33.6719 58.6719 33.6719C58.6719 32.8386 58.6719 32.0052 58.6719 31.1719Z" fill="black"/>
<path fill-rule="evenodd" clip-rule="evenodd" d="M58.6719 31.1719C59.5052 31.1719 60.3386 31.1719 61.1719 31.1719C61.1719 32.0052 61.1719 32.8386 61.1719 33.6719C60.3386 33.6719 59.5052 33.6719 58.6719 33.6719C58.6719 32.8386 58.6719 32.0052 58.6719 31.1719Z" fill="url(#paint13_radial_3232_1802)"/>
<path fill-rule="evenodd" clip-rule="evenodd" d="M63.6719 31.1719C64.5052 31.1719 65.3386 31.1719 66.1719 31.1719C66.1719 32.0052 66.1719 32.8386 66.1719 33.6719C65.3386 33.6719 64.5052 33.6719 63.6719 33.6719C63.6719 32.8386 63.6719 32.0052 63.6719 31.1719Z" fill="black"/>
<path fill-rule="evenodd" clip-rule="evenodd" d="M63.6719 31.1719C64.5052 31.1719 65.3386 31.1719 66.1719 31.1719C66.1719 32.0052 66.1719 32.8386 66.1719 33.6719C65.3386 33.6719 64.5052 33.6719 63.6719 33.6719C63.6719 32.8386 63.6719 32.0052 63.6719 31.1719Z" fill="url(#paint14_radial_3232_1802)"/>
<path fill-rule="evenodd" clip-rule="evenodd" d="M68.6719 31.1719C69.5052 31.1719 70.3386 31.1719 71.1719 31.1719C71.1719 32.0052 71.1719 32.8386 71.1719 33.6719C70.3386 33.6719 69.5052 33.6719 68.6719 33.6719C68.6719 32.8386 68.6719 32.0052 68.6719 31.1719Z" fill="black"/>
<path fill-rule="evenodd" clip-rule="evenodd" d="M68.6719 31.1719C69.5052 31.1719 70.3386 31.1719 71.1719 31.1719C71.1719 32.0052 71.1719 32.8386 71.1719 33.6719C70.3386 33.6719 69.5052 33.6719 68.6719 33.6719C68.6719 32.8386 68.6719 32.0052 68.6719 31.1719Z" fill="url(#paint15_radial_3232_1802)"/>
<g opacity="0.956">
<path fill-rule="evenodd" clip-rule="evenodd" d="M29.2969 32.4218C33.4178 32.282 36.7252 33.8445 39.2187 37.1093C40.118 38.5043 40.743 40.0146 41.0937 41.6406C43.8669 38.2929 47.4345 36.8867 51.7969 37.4218C53.0469 37.4479 54.2969 37.4739 55.5469 37.4999C55.69 37.5584 55.8203 37.6365 55.9375 37.7343C56.3922 43.1509 54.1266 46.979 49.1406 49.2187C48.6291 49.4065 48.1083 49.5628 47.5781 49.6874C45.4508 49.9071 43.3153 49.9853 41.1719 49.9218C41.1209 52.8765 41.173 55.8192 41.3281 58.7499C42.6189 59.0568 43.8167 59.5776 44.9219 60.3124C45.6759 60.409 46.405 60.3048 47.1094 59.9999C49.1817 59.6264 51.1087 59.9909 52.8906 61.0937C53.4714 61.6226 54.0964 62.0914 54.7656 62.4999C56.1686 62.4326 57.5748 62.4326 58.9844 62.4999C59.7456 62.6723 60.4747 62.9328 61.1719 63.2812C61.9011 63.802 62.6301 64.3229 63.3594 64.8437C64.2955 64.9217 65.233 64.9478 66.1719 64.9218C66.1719 63.6718 66.1719 62.4218 66.1719 61.1718C64.0284 61.2353 61.893 61.1571 59.7656 60.9374C55.0933 59.5985 52.2548 56.5517 51.25 51.7968C51.108 50.8418 51.16 49.9043 51.4062 48.9843C51.5234 48.8865 51.6537 48.8084 51.7969 48.7499C54.2969 48.6457 56.7969 48.6457 59.2969 48.7499C62.1659 49.2329 64.4837 50.6131 66.25 52.8906C67.6098 47.3373 71.1255 44.2643 76.7969 43.6718C77.2136 43.6979 77.6301 43.7239 78.0469 43.7499C78.3333 43.8281 78.5156 44.0104 78.5937 44.2968C78.698 46.7968 78.698 49.2968 78.5937 51.7968C77.3847 57.1465 74.0775 60.2715 68.6719 61.1718C68.6459 62.7353 68.6719 64.2978 68.75 65.8593C70.3253 66.8092 71.4452 68.1373 72.1094 69.8437C76.5547 70.7971 78.7161 73.5315 78.5937 78.0468C78.5156 78.3332 78.3333 78.5156 78.0469 78.5937C52.6301 78.6979 27.2136 78.6979 1.79688 78.5937C1.51042 78.5156 1.32813 78.3332 1.25 78.0468C1.12761 73.5315 3.28908 70.7971 7.73438 69.8437C8.39867 68.1373 9.51845 66.8092 11.0938 65.8593C11.1719 63.8809 11.1979 61.9017 11.1719 59.9218C5.76628 59.0215 2.45898 55.8965 1.25 50.5468C1.14583 48.0468 1.14583 45.5468 1.25 43.0468C1.32813 42.7604 1.51042 42.5781 1.79688 42.4999C7.2832 42.3654 11.0592 44.8393 13.125 49.9218C13.2812 50.4948 13.4375 51.0676 13.5937 51.6406C16.3669 48.2929 19.9345 46.8867 24.2969 47.4218C25.5469 47.4479 26.7969 47.4739 28.0469 47.4999C28.19 47.5584 28.3203 47.6365 28.4375 47.7343C28.8922 53.1509 26.6266 56.979 21.6406 59.2187C21.1291 59.4065 20.6083 59.5628 20.0781 59.6874C17.9508 59.9071 15.8153 59.9853 13.6719 59.9218C13.6719 61.5885 13.6719 63.2551 13.6719 64.9218C14.6108 64.9478 15.5483 64.9217 16.4844 64.8437C17.2747 64.2098 18.1081 63.6368 18.9844 63.1249C19.588 62.8543 20.213 62.6459 20.8594 62.4999C22.2689 62.4326 23.6752 62.4326 25.0781 62.4999C25.7473 62.0914 26.3723 61.6226 26.9531 61.0937C28.2564 60.2289 29.6887 59.8382 31.25 59.9218C32.4862 60.0173 33.7102 60.1474 34.9219 60.3124C35.9972 59.5196 37.1952 58.9987 38.5156 58.7499C38.6708 55.8192 38.7228 52.8765 38.6719 49.9218C33.2662 49.0215 29.9591 45.8965 28.75 40.5468C28.6458 38.0468 28.6458 35.5468 28.75 33.0468C28.8578 32.7578 29.04 32.5493 29.2969 32.4218ZM31.1719 35.0781C35.1033 35.8584 37.5252 38.2021 38.4375 42.1093C38.6786 43.826 38.7047 45.5448 38.5156 47.2656C34.6675 46.4123 32.2977 44.0685 31.4062 40.2343C31.2173 38.5207 31.1392 36.802 31.1719 35.0781ZM49.9219 39.9218C51.1244 39.8701 52.3222 39.9223 53.5156 40.0781C52.6636 43.9248 50.3198 46.2946 46.4844 47.1874C44.7677 47.4285 43.0489 47.4546 41.3281 47.2656C42.4914 42.8065 45.3559 40.3587 49.9219 39.9218ZM3.67188 45.0781C7.60331 45.8584 10.0252 48.2021 10.9375 52.1093C11.1786 53.826 11.2047 55.5448 11.0156 57.2656C7.1675 56.4123 4.7977 54.0685 3.90625 50.2343C3.71739 48.5207 3.63927 46.802 3.67188 45.0781ZM75.8594 46.3281C76.0661 46.8653 76.1703 47.4642 76.1719 48.1249C76.5337 52.5073 74.815 55.7365 71.0156 57.8124C70.3022 58.0949 69.573 58.3293 68.8281 58.5156C68.6391 56.7948 68.6652 55.076 68.9062 53.3593C69.7939 49.5812 72.1116 47.2374 75.8594 46.3281ZM22.4219 49.9218C23.6244 49.8701 24.8222 49.9223 26.0156 50.0781C25.1636 53.9248 22.8198 56.2946 18.9844 57.1874C17.2677 57.4285 15.5489 57.4546 13.8281 57.2656C14.9914 52.8065 17.8559 50.3587 22.4219 49.9218ZM53.8281 51.1718C55.552 51.1392 57.2708 51.2173 58.9844 51.4062C62.8186 52.2976 65.1623 54.6674 66.0156 58.5156C63.3091 58.9065 60.7048 58.5681 58.2031 57.4999C55.8377 56.0262 54.3794 53.9168 53.8281 51.1718ZM38.8281 61.3281C39.5592 61.3021 40.2883 61.3282 41.0156 61.4062C42.1614 61.927 43.3073 62.4479 44.4531 62.9687C46.2172 62.8148 47.9881 62.7107 49.7656 62.6562C50.8998 62.9106 51.8373 63.4835 52.5781 64.3749C53.3978 64.9382 54.3092 65.2246 55.3125 65.2343C57.568 64.6276 59.5211 65.1224 61.1719 66.7187C61.545 67.0095 61.9616 67.2178 62.4219 67.3437C63.8305 67.4948 65.2367 67.651 66.6406 67.8124C68.4773 68.7134 69.6231 70.1717 70.0781 72.1874C70.4619 72.4404 70.8525 72.5185 71.25 72.4218C73.6284 72.6579 75.1648 73.9079 75.8594 76.1718C51.9011 76.1718 27.9427 76.1718 3.98438 76.1718C4.67892 73.9079 6.21539 72.6579 8.59375 72.4218C8.93109 72.5307 9.26964 72.4785 9.60938 72.2656C10.029 71.1664 10.5758 70.1246 11.25 69.1406C11.8155 68.5757 12.4665 68.1329 13.2031 67.8124C14.607 67.651 16.0133 67.4948 17.4219 67.3437C18.3273 67.0115 19.1086 66.4906 19.7656 65.7812C20.2528 65.4854 20.7736 65.2771 21.3281 65.1562C22.3978 65.0643 23.4655 65.0903 24.5312 65.2343C25.0367 65.2215 25.5316 65.1434 26.0156 64.9999C27.1583 64.2756 28.3041 63.5465 29.4531 62.8124C30.7711 62.4714 32.0731 62.5234 33.3594 62.9687C34.0364 63.0729 34.7136 63.0729 35.3906 62.9687C36.5612 62.4428 37.707 61.8959 38.8281 61.3281Z" fill="black"/>
<path fill-rule="evenodd" clip-rule="evenodd" d="M29.2969 32.4218C33.4178 32.282 36.7252 33.8445 39.2187 37.1093C40.118 38.5043 40.743 40.0146 41.0937 41.6406C43.8669 38.2929 47.4345 36.8867 51.7969 37.4218C53.0469 37.4479 54.2969 37.4739 55.5469 37.4999C55.69 37.5584 55.8203 37.6365 55.9375 37.7343C56.3922 43.1509 54.1266 46.979 49.1406 49.2187C48.6291 49.4065 48.1083 49.5628 47.5781 49.6874C45.4508 49.9071 43.3153 49.9853 41.1719 49.9218C41.1209 52.8765 41.173 55.8192 41.3281 58.7499C42.6189 59.0568 43.8167 59.5776 44.9219 60.3124C45.6759 60.409 46.405 60.3048 47.1094 59.9999C49.1817 59.6264 51.1087 59.9909 52.8906 61.0937C53.4714 61.6226 54.0964 62.0914 54.7656 62.4999C56.1686 62.4326 57.5748 62.4326 58.9844 62.4999C59.7456 62.6723 60.4747 62.9328 61.1719 63.2812C61.9011 63.802 62.6301 64.3229 63.3594 64.8437C64.2955 64.9217 65.233 64.9478 66.1719 64.9218C66.1719 63.6718 66.1719 62.4218 66.1719 61.1718C64.0284 61.2353 61.893 61.1571 59.7656 60.9374C55.0933 59.5985 52.2548 56.5517 51.25 51.7968C51.108 50.8418 51.16 49.9043 51.4062 48.9843C51.5234 48.8865 51.6537 48.8084 51.7969 48.7499C54.2969 48.6457 56.7969 48.6457 59.2969 48.7499C62.1659 49.2329 64.4837 50.6131 66.25 52.8906C67.6098 47.3373 71.1255 44.2643 76.7969 43.6718C77.2136 43.6979 77.6301 43.7239 78.0469 43.7499C78.3333 43.8281 78.5156 44.0104 78.5937 44.2968C78.698 46.7968 78.698 49.2968 78.5937 51.7968C77.3847 57.1465 74.0775 60.2715 68.6719 61.1718C68.6459 62.7353 68.6719 64.2978 68.75 65.8593C70.3253 66.8092 71.4452 68.1373 72.1094 69.8437C76.5547 70.7971 78.7161 73.5315 78.5937 78.0468C78.5156 78.3332 78.3333 78.5156 78.0469 78.5937C52.6301 78.6979 27.2136 78.6979 1.79688 78.5937C1.51042 78.5156 1.32813 78.3332 1.25 78.0468C1.12761 73.5315 3.28908 70.7971 7.73438 69.8437C8.39867 68.1373 9.51845 66.8092 11.0938 65.8593C11.1719 63.8809 11.1979 61.9017 11.1719 59.9218C5.76628 59.0215 2.45898 55.8965 1.25 50.5468C1.14583 48.0468 1.14583 45.5468 1.25 43.0468C1.32813 42.7604 1.51042 42.5781 1.79688 42.4999C7.2832 42.3654 11.0592 44.8393 13.125 49.9218C13.2812 50.4948 13.4375 51.0676 13.5937 51.6406C16.3669 48.2929 19.9345 46.8867 24.2969 47.4218C25.5469 47.4479 26.7969 47.4739 28.0469 47.4999C28.19 47.5584 28.3203 47.6365 28.4375 47.7343C28.8922 53.1509 26.6266 56.979 21.6406 59.2187C21.1291 59.4065 20.6083 59.5628 20.0781 59.6874C17.9508 59.9071 15.8153 59.9853 13.6719 59.9218C13.6719 61.5885 13.6719 63.2551 13.6719 64.9218C14.6108 64.9478 15.5483 64.9217 16.4844 64.8437C17.2747 64.2098 18.1081 63.6368 18.9844 63.1249C19.588 62.8543 20.213 62.6459 20.8594 62.4999C22.2689 62.4326 23.6752 62.4326 25.0781 62.4999C25.7473 62.0914 26.3723 61.6226 26.9531 61.0937C28.2564 60.2289 29.6887 59.8382 31.25 59.9218C32.4862 60.0173 33.7102 60.1474 34.9219 60.3124C35.9972 59.5196 37.1952 58.9987 38.5156 58.7499C38.6708 55.8192 38.7228 52.8765 38.6719 49.9218C33.2662 49.0215 29.9591 45.8965 28.75 40.5468C28.6458 38.0468 28.6458 35.5468 28.75 33.0468C28.8578 32.7578 29.04 32.5493 29.2969 32.4218ZM31.1719 35.0781C35.1033 35.8584 37.5252 38.2021 38.4375 42.1093C38.6786 43.826 38.7047 45.5448 38.5156 47.2656C34.6675 46.4123 32.2977 44.0685 31.4062 40.2343C31.2173 38.5207 31.1392 36.802 31.1719 35.0781ZM49.9219 39.9218C51.1244 39.8701 52.3222 39.9223 53.5156 40.0781C52.6636 43.9248 50.3198 46.2946 46.4844 47.1874C44.7677 47.4285 43.0489 47.4546 41.3281 47.2656C42.4914 42.8065 45.3559 40.3587 49.9219 39.9218ZM3.67188 45.0781C7.60331 45.8584 10.0252 48.2021 10.9375 52.1093C11.1786 53.826 11.2047 55.5448 11.0156 57.2656C7.1675 56.4123 4.7977 54.0685 3.90625 50.2343C3.71739 48.5207 3.63927 46.802 3.67188 45.0781ZM75.8594 46.3281C76.0661 46.8653 76.1703 47.4642 76.1719 48.1249C76.5337 52.5073 74.815 55.7365 71.0156 57.8124C70.3022 58.0949 69.573 58.3293 68.8281 58.5156C68.6391 56.7948 68.6652 55.076 68.9062 53.3593C69.7939 49.5812 72.1116 47.2374 75.8594 46.3281ZM22.4219 49.9218C23.6244 49.8701 24.8222 49.9223 26.0156 50.0781C25.1636 53.9248 22.8198 56.2946 18.9844 57.1874C17.2677 57.4285 15.5489 57.4546 13.8281 57.2656C14.9914 52.8065 17.8559 50.3587 22.4219 49.9218ZM53.8281 51.1718C55.552 51.1392 57.2708 51.2173 58.9844 51.4062C62.8186 52.2976 65.1623 54.6674 66.0156 58.5156C63.3091 58.9065 60.7048 58.5681 58.2031 57.4999C55.8377 56.0262 54.3794 53.9168 53.8281 51.1718ZM38.8281 61.3281C39.5592 61.3021 40.2883 61.3282 41.0156 61.4062C42.1614 61.927 43.3073 62.4479 44.4531 62.9687C46.2172 62.8148 47.9881 62.7107 49.7656 62.6562C50.8998 62.9106 51.8373 63.4835 52.5781 64.3749C53.3978 64.9382 54.3092 65.2246 55.3125 65.2343C57.568 64.6276 59.5211 65.1224 61.1719 66.7187C61.545 67.0095 61.9616 67.2178 62.4219 67.3437C63.8305 67.4948 65.2367 67.651 66.6406 67.8124C68.4773 68.7134 69.6231 70.1717 70.0781 72.1874C70.4619 72.4404 70.8525 72.5185 71.25 72.4218C73.6284 72.6579 75.1648 73.9079 75.8594 76.1718C51.9011 76.1718 27.9427 76.1718 3.98438 76.1718C4.67892 73.9079 6.21539 72.6579 8.59375 72.4218C8.93109 72.5307 9.26964 72.4785 9.60938 72.2656C10.029 71.1664 10.5758 70.1246 11.25 69.1406C11.8155 68.5757 12.4665 68.1329 13.2031 67.8124C14.607 67.651 16.0133 67.4948 17.4219 67.3437C18.3273 67.0115 19.1086 66.4906 19.7656 65.7812C20.2528 65.4854 20.7736 65.2771 21.3281 65.1562C22.3978 65.0643 23.4655 65.0903 24.5312 65.2343C25.0367 65.2215 25.5316 65.1434 26.0156 64.9999C27.1583 64.2756 28.3041 63.5465 29.4531 62.8124C30.7711 62.4714 32.0731 62.5234 33.3594 62.9687C34.0364 63.0729 34.7136 63.0729 35.3906 62.9687C36.5612 62.4428 37.707 61.8959 38.8281 61.3281Z" fill="url(#paint16_radial_3232_1802)"/>
</g>
<path fill-rule="evenodd" clip-rule="evenodd" d="M47.4219 67.4219C48.2552 67.4219 49.0886 67.4219 49.9219 67.4219C49.9219 68.2552 49.9219 69.0886 49.9219 69.9219C49.0886 69.9219 48.2552 69.9219 47.4219 69.9219C47.4219 69.0886 47.4219 68.2552 47.4219 67.4219Z" fill="black"/>
<path fill-rule="evenodd" clip-rule="evenodd" d="M47.4219 67.4219C48.2552 67.4219 49.0886 67.4219 49.9219 67.4219C49.9219 68.2552 49.9219 69.0886 49.9219 69.9219C49.0886 69.9219 48.2552 69.9219 47.4219 69.9219C47.4219 69.0886 47.4219 68.2552 47.4219 67.4219Z" fill="url(#paint17_radial_3232_1802)"/>
<path fill-rule="evenodd" clip-rule="evenodd" d="M22.4219 68.6719C23.2552 68.6719 24.0886 68.6719 24.9219 68.6719C24.9219 69.5052 24.9219 70.3386 24.9219 71.1719C24.0886 71.1719 23.2552 71.1719 22.4219 71.1719C22.4219 70.3386 22.4219 69.5052 22.4219 68.6719Z" fill="black"/>
<path fill-rule="evenodd" clip-rule="evenodd" d="M22.4219 68.6719C23.2552 68.6719 24.0886 68.6719 24.9219 68.6719C24.9219 69.5052 24.9219 70.3386 24.9219 71.1719C24.0886 71.1719 23.2552 71.1719 22.4219 71.1719C22.4219 70.3386 22.4219 69.5052 22.4219 68.6719Z" fill="url(#paint18_radial_3232_1802)"/>
<path fill-rule="evenodd" clip-rule="evenodd" d="M59.9219 69.9219C60.7552 69.9219 61.5886 69.9219 62.4219 69.9219C62.4219 70.7552 62.4219 71.5886 62.4219 72.4219C61.5886 72.4219 60.7552 72.4219 59.9219 72.4219C59.9219 71.5886 59.9219 70.7552 59.9219 69.9219Z" fill="black"/>
<path fill-rule="evenodd" clip-rule="evenodd" d="M59.9219 69.9219C60.7552 69.9219 61.5886 69.9219 62.4219 69.9219C62.4219 70.7552 62.4219 71.5886 62.4219 72.4219C61.5886 72.4219 60.7552 72.4219 59.9219 72.4219C59.9219 71.5886 59.9219 70.7552 59.9219 69.9219Z" fill="url(#paint19_radial_3232_1802)"/>
<path fill-rule="evenodd" clip-rule="evenodd" d="M34.9219 71.1719C35.7552 71.1719 36.5886 71.1719 37.4219 71.1719C37.4219 72.0052 37.4219 72.8386 37.4219 73.6719C36.5886 73.6719 35.7552 73.6719 34.9219 73.6719C34.9219 72.8386 34.9219 72.0052 34.9219 71.1719Z" fill="black"/>
<path fill-rule="evenodd" clip-rule="evenodd" d="M34.9219 71.1719C35.7552 71.1719 36.5886 71.1719 37.4219 71.1719C37.4219 72.0052 37.4219 72.8386 37.4219 73.6719C36.5886 73.6719 35.7552 73.6719 34.9219 73.6719C34.9219 72.8386 34.9219 72.0052 34.9219 71.1719Z" fill="url(#paint20_radial_3232_1802)"/>
<defs>
<radialGradient id="paint0_radial_3232_1802" cx="0" cy="0" r="1" gradientUnits="userSpaceOnUse" gradientTransform="translate(16.2425 5.66381) rotate(11.4016) scale(122.113 50.5192)">
<stop stop-color="#10923E"/>
<stop offset="0.627261" stop-color="#0057BC"/>
</radialGradient>
<radialGradient id="paint1_radial_3232_1802" cx="0" cy="0" r="1" gradientUnits="userSpaceOnUse" gradientTransform="translate(9.15802 26.6718) rotate(34.773) scale(4.7009 4.70159)">
<stop stop-color="#10923E"/>
<stop offset="0.627261" stop-color="#0057BC"/>
</radialGradient>
<radialGradient id="paint2_radial_3232_1802" cx="0" cy="0" r="1" gradientUnits="userSpaceOnUse" gradientTransform="translate(14.158 26.6718) rotate(34.773) scale(4.7009 4.70159)">
<stop stop-color="#10923E"/>
<stop offset="0.627261" stop-color="#0057BC"/>
</radialGradient>
<radialGradient id="paint3_radial_3232_1802" cx="0" cy="0" r="1" gradientUnits="userSpaceOnUse" gradientTransform="translate(19.158 26.6718) rotate(34.773) scale(4.7009 4.70159)">
<stop stop-color="#10923E"/>
<stop offset="0.627261" stop-color="#0057BC"/>
</radialGradient>
<radialGradient id="paint4_radial_3232_1802" cx="0" cy="0" r="1" gradientUnits="userSpaceOnUse" gradientTransform="translate(34.158 26.6718) rotate(34.773) scale(4.7009 4.70159)">
<stop stop-color="#10923E"/>
<stop offset="0.627261" stop-color="#0057BC"/>
</radialGradient>
<radialGradient id="paint5_radial_3232_1802" cx="0" cy="0" r="1" gradientUnits="userSpaceOnUse" gradientTransform="translate(39.158 26.6718) rotate(34.773) scale(4.7009 4.70159)">
<stop stop-color="#10923E"/>
<stop offset="0.627261" stop-color="#0057BC"/>
</radialGradient>
<radialGradient id="paint6_radial_3232_1802" cx="0" cy="0" r="1" gradientUnits="userSpaceOnUse" gradientTransform="translate(44.158 26.6718) rotate(34.773) scale(4.7009 4.70159)">
<stop stop-color="#10923E"/>
<stop offset="0.627261" stop-color="#0057BC"/>
</radialGradient>
<radialGradient id="paint7_radial_3232_1802" cx="0" cy="0" r="1" gradientUnits="userSpaceOnUse" gradientTransform="translate(59.158 26.6718) rotate(34.773) scale(4.7009 4.70159)">
<stop stop-color="#10923E"/>
<stop offset="0.627261" stop-color="#0057BC"/>
</radialGradient>
<radialGradient id="paint8_radial_3232_1802" cx="0" cy="0" r="1" gradientUnits="userSpaceOnUse" gradientTransform="translate(64.158 26.6718) rotate(34.773) scale(4.7009 4.70159)">
<stop stop-color="#10923E"/>
<stop offset="0.627261" stop-color="#0057BC"/>
</radialGradient>
<radialGradient id="paint9_radial_3232_1802" cx="0" cy="0" r="1" gradientUnits="userSpaceOnUse" gradientTransform="translate(69.158 26.6718) rotate(34.773) scale(4.7009 4.70159)">
<stop stop-color="#10923E"/>
<stop offset="0.627261" stop-color="#0057BC"/>
</radialGradient>
<radialGradient id="paint10_radial_3232_1802" cx="0" cy="0" r="1" gradientUnits="userSpaceOnUse" gradientTransform="translate(9.15802 31.6718) rotate(34.773) scale(4.7009 4.70159)">
<stop stop-color="#10923E"/>
<stop offset="0.627261" stop-color="#0057BC"/>
</radialGradient>
<radialGradient id="paint11_radial_3232_1802" cx="0" cy="0" r="1" gradientUnits="userSpaceOnUse" gradientTransform="translate(14.158 31.6718) rotate(34.773) scale(4.7009 4.70159)">
<stop stop-color="#10923E"/>
<stop offset="0.627261" stop-color="#0057BC"/>
</radialGradient>
<radialGradient id="paint12_radial_3232_1802" cx="0" cy="0" r="1" gradientUnits="userSpaceOnUse" gradientTransform="translate(19.158 31.6718) rotate(34.773) scale(4.7009 4.70159)">
<stop stop-color="#10923E"/>
<stop offset="0.627261" stop-color="#0057BC"/>
</radialGradient>
<radialGradient id="paint13_radial_3232_1802" cx="0" cy="0" r="1" gradientUnits="userSpaceOnUse" gradientTransform="translate(59.158 31.6718) rotate(34.773) scale(4.7009 4.70159)">
<stop stop-color="#10923E"/>
<stop offset="0.627261" stop-color="#0057BC"/>
</radialGradient>
<radialGradient id="paint14_radial_3232_1802" cx="0" cy="0" r="1" gradientUnits="userSpaceOnUse" gradientTransform="translate(64.158 31.6718) rotate(34.773) scale(4.7009 4.70159)">
<stop stop-color="#10923E"/>
<stop offset="0.627261" stop-color="#0057BC"/>
</radialGradient>
<radialGradient id="paint15_radial_3232_1802" cx="0" cy="0" r="1" gradientUnits="userSpaceOnUse" gradientTransform="translate(69.158 31.6718) rotate(34.773) scale(4.7009 4.70159)">
<stop stop-color="#10923E"/>
<stop offset="0.627261" stop-color="#0057BC"/>
</radialGradient>
<radialGradient id="paint16_radial_3232_1802" cx="0" cy="0" r="1" gradientUnits="userSpaceOnUse" gradientTransform="translate(16.2425 41.6644) rotate(22.5106) scale(129.576 97.8399)">
<stop stop-color="#10923E"/>
<stop offset="0.627261" stop-color="#0057BC"/>
</radialGradient>
<radialGradient id="paint17_radial_3232_1802" cx="0" cy="0" r="1" gradientUnits="userSpaceOnUse" gradientTransform="translate(47.908 67.9218) rotate(34.773) scale(4.7009 4.70159)">
<stop stop-color="#10923E"/>
<stop offset="0.627261" stop-color="#0057BC"/>
</radialGradient>
<radialGradient id="paint18_radial_3232_1802" cx="0" cy="0" r="1" gradientUnits="userSpaceOnUse" gradientTransform="translate(22.908 69.1718) rotate(34.773) scale(4.7009 4.70159)">
<stop stop-color="#10923E"/>
<stop offset="0.627261" stop-color="#0057BC"/>
</radialGradient>
<radialGradient id="paint19_radial_3232_1802" cx="0" cy="0" r="1" gradientUnits="userSpaceOnUse" gradientTransform="translate(60.408 70.4218) rotate(34.773) scale(4.7009 4.70159)">
<stop stop-color="#10923E"/>
<stop offset="0.627261" stop-color="#0057BC"/>
</radialGradient>
<radialGradient id="paint20_radial_3232_1802" cx="0" cy="0" r="1" gradientUnits="userSpaceOnUse" gradientTransform="translate(35.408 71.6718) rotate(34.773) scale(4.7009 4.70159)">
<stop stop-color="#10923E"/>
<stop offset="0.627261" stop-color="#0057BC"/>
</radialGradient>
</defs>
</svg>
