<svg width="66" height="76" viewBox="0 0 66 76" fill="none" xmlns="http://www.w3.org/2000/svg">
<path opacity="0.944" fill-rule="evenodd" clip-rule="evenodd" d="M44.9864 0.482422C46.7925 0.8571 48.4916 1.53092 50.084 2.50391C58.9075 7.9986 63.976 15.938 65.2891 26.3223C66.1049 38.2518 61.7982 47.8319 52.3692 55.0625C50.8444 56.0595 49.2624 56.9678 47.6231 57.7871C47.6178 60.1232 47.5884 62.4669 47.5352 64.8184C47.3766 67.3276 46.6735 69.6713 45.4258 71.8496C42.2338 75.7843 38.2787 76.8096 33.5606 74.9258C32.0227 73.9741 30.7043 72.773 29.6055 71.3223C28.2133 68.9483 26.8656 66.5459 25.5625 64.1152C24.668 62.9085 23.4669 62.3224 21.959 62.3574C22.1663 64.3898 21.844 66.3234 20.9922 68.1582C20.12 69.312 18.9774 70.0445 17.5645 70.3555C14.8596 70.5198 12.1643 70.4613 9.47853 70.1797C7.49291 69.3964 6.32096 67.9608 5.96291 65.873C4.36643 65.9458 2.7844 65.8579 1.21682 65.6094C0.321772 64.878 0.116688 63.9697 0.601581 62.8848C0.879192 62.6139 1.20147 62.4087 1.56838 62.2695C3.03206 62.1816 4.49689 62.1525 5.96291 62.1816C5.96291 60.9512 5.96291 59.7207 5.96291 58.4902C4.36894 58.5572 2.78691 58.4693 1.21682 58.2266C0.321051 57.4798 0.115985 56.5716 0.601581 55.502C0.814979 55.2297 1.07865 55.0247 1.3926 54.8867C2.91491 54.7988 4.43834 54.7696 5.96291 54.7988C6.40227 52.484 7.7499 50.9898 10.0059 50.3164C11.2949 50.2871 12.5841 50.2579 13.8731 50.2285C15.4068 50.2099 16.9303 50.2978 18.4434 50.4922C19.9375 51.0489 20.9629 52.0742 21.5196 53.5684C21.847 55.2487 22.0522 56.9479 22.1348 58.666C24.5832 58.7094 26.6047 59.6469 28.1992 61.4785C29.6781 63.8036 31.0256 66.206 32.2422 68.6855C33.3227 70.2953 34.7582 71.4379 36.5488 72.1133C39.7725 72.48 41.9698 71.1616 43.1406 68.1582C44.1006 64.7987 44.2764 61.4001 43.668 57.9629C33.1668 52.8452 27.1315 44.4662 25.5625 32.8262C24.7156 21.6639 28.4949 12.4354 36.9004 5.14062C39.3598 3.17854 42.055 1.62581 44.9864 0.482422ZM45.1621 4.34961C52.8204 7.64368 57.9474 13.2687 60.543 21.2246C63.4589 32.0914 61.0271 41.5542 53.2481 49.6133C51.4855 51.2291 49.5519 52.606 47.4473 53.7441C47.2423 49.8196 47.213 45.8939 47.3594 41.9668C50.1719 39.1543 52.9844 36.3418 55.7969 33.5293C56.445 31.9536 55.947 31.016 54.3028 30.7168C53.9276 30.7194 53.5761 30.8073 53.2481 30.9805C51.2851 32.9434 49.3223 34.9062 47.3594 36.8691C47.2421 33.9981 47.2421 31.1269 47.3594 28.2559C50.0546 25.5606 52.7501 22.8652 55.4453 20.1699C56.1838 19.2773 56.2423 18.3399 55.6211 17.3574C54.886 16.7809 54.095 16.693 53.2481 17.0938C51.2851 19.0567 49.3223 21.0195 47.3594 22.9824C47.3009 20.4629 47.2421 17.9433 47.1836 15.4238C46.5222 14.1387 45.5554 13.8163 44.2832 14.457C43.9339 14.6889 43.7288 15.0111 43.668 15.4238C43.6095 20.0527 43.5507 24.6817 43.4922 29.3105C41.588 27.4063 39.6836 25.5019 37.7793 23.5977C36.5624 22.9425 35.5956 23.2062 34.8789 24.3887C34.7353 24.9976 34.794 25.5836 35.0547 26.1465C37.8672 28.959 40.6797 31.7715 43.4922 34.584C43.6095 37.455 43.6095 40.3262 43.4922 43.1973C41.4598 41.0473 39.3211 39.0258 37.0762 37.1328C35.6367 36.9145 34.8751 37.5297 34.791 38.9785C34.755 39.4582 34.9014 39.8683 35.2305 40.209C37.9845 42.9629 40.7382 45.7167 43.4922 48.4707C43.6385 50.2315 43.6093 51.9893 43.4043 53.7441C34.1948 48.3408 29.39 40.2549 28.9903 29.4863C29.5679 17.9491 34.9586 9.57021 45.1621 4.34961ZM11.2363 53.7441C12.9952 53.715 14.753 53.7441 16.5098 53.832C17.1203 53.8881 17.6183 54.1518 18.0039 54.623C18.2908 58.2445 18.3493 61.8774 18.1797 65.5215C18.0415 66.0634 17.7193 66.4442 17.2129 66.6641C14.9863 66.7813 12.7598 66.7813 10.5332 66.6641C10.0268 66.4442 9.70459 66.0634 9.56643 65.5215C9.44918 62.0644 9.44918 58.6075 9.56643 55.1504C9.84644 54.3256 10.4031 53.857 11.2363 53.7441Z" fill="url(#paint0_radial_3237_1812)"/>
<defs>
<radialGradient id="paint0_radial_3237_1812" cx="0" cy="0" r="1" gradientUnits="userSpaceOnUse" gradientTransform="translate(12.9933 15.5532) rotate(38.8152) scale(128.932 134.433)">
<stop stop-color="#10923E"/>
<stop offset="0.627261" stop-color="#0057BC"/>
</radialGradient>
</defs>
</svg>
