<svg width="90" height="90" viewBox="0 0 90 90" fill="none" xmlns="http://www.w3.org/2000/svg">
<path fill-rule="evenodd" clip-rule="evenodd" d="M41.2909 5.00988C42.6012 4.98351 43.9102 5.00993 45.2182 5.0891C47.2615 5.43331 49.2796 5.90866 51.2727 6.51516C53.2247 7.03759 54.8611 8.04112 56.1818 9.52572C56.3829 9.64949 56.6011 9.72872 56.8364 9.7634C58.0646 8.91927 59.3191 8.10062 60.6 7.30741C61.824 6.89227 63.0786 6.60179 64.3636 6.43594C65.7007 6.68038 67.0098 7.02368 68.2909 7.46586C69.6632 8.16245 70.9449 8.98111 72.1364 9.92185C73.617 8.61023 75.3351 7.68594 77.2909 7.14896C78.7636 7.04332 80.2364 7.04332 81.7091 7.14896C83.0784 7.81816 83.6238 8.90091 83.3455 10.3972C83.551 13.0496 82.7055 15.3207 80.8091 17.2106C80.6659 17.4281 80.5841 17.6658 80.5636 17.9236C81.5073 19.1408 82.3528 20.4347 83.1 21.8057C84.6513 25.7539 83.7239 29.0814 80.3182 31.7881C80.209 32.1577 80.209 32.5275 80.3182 32.8972C82.1079 34.5668 83.308 36.5737 83.9182 38.9183C84.6128 41.3582 84.831 43.8406 84.5727 46.3655C84.2479 47.6689 84.0298 48.9893 83.9182 50.3268C83.3181 51.4887 82.7182 52.6508 82.1182 53.8127C81.6664 54.4227 81.1755 55.0038 80.6455 55.5557C80.2781 56.0914 80.1689 56.6724 80.3182 57.2986C83.548 59.9863 84.4754 63.261 83.1 67.1226C82.6636 67.9676 82.2273 68.8128 81.7909 69.6578C81.4672 70.1561 81.0582 70.5787 80.5636 70.9254C81.7642 72.4581 82.6642 74.1483 83.2636 75.9958C83.3728 77.4219 83.3728 78.8479 83.2636 80.274C83.2388 80.929 82.9933 81.4836 82.5273 81.9377C80.5636 82.0434 78.6 82.0434 76.6364 81.9377C75.1064 81.1974 73.6881 80.2996 72.3818 79.244C72.0546 79.1384 71.7273 79.1384 71.4 79.244C68.2651 82.1654 64.6651 82.8521 60.6 81.3039C59.1389 80.4543 57.9116 79.3716 56.9182 78.0557C55.9725 78.7066 55.0725 79.4196 54.2182 80.1947C53.1272 80.7229 52.0364 81.2511 50.9455 81.7793C49.8133 81.9154 48.7225 82.1795 47.6727 82.5715C45.491 82.6772 43.309 82.6772 41.1273 82.5715C39.97 82.1557 38.7701 81.9445 37.5273 81.9377C35.2971 81.1223 33.3334 79.9075 31.6364 78.2933C31.2772 78.0758 30.8953 78.023 30.4909 78.1349C28.0472 81.0898 24.8834 82.199 21 81.4624C20.2713 81.1889 19.5623 80.872 18.8727 80.5117C17.9089 79.8672 16.9271 79.2599 15.9273 78.6895C14.7609 79.4399 13.5608 80.1529 12.3273 80.8286C9.84437 81.9149 7.28073 82.1263 4.63637 81.4624C4.10383 81.0913 3.80383 80.5894 3.73637 79.9571C2.94754 76.5562 3.71118 73.5457 6.02728 70.9254C6.35455 70.3973 6.35455 69.869 6.02728 69.3409C4.10497 67.2755 3.1777 64.8459 3.24546 62.0521C3.71585 59.67 4.99768 57.8215 7.09091 56.5064C7.26321 56.3577 7.3723 56.1728 7.41819 55.9518C5.27774 53.7894 3.83228 51.2277 3.08182 48.2669C2.97273 45.0979 2.97273 41.9289 3.08182 38.7599C3.64051 37.1898 4.29505 35.6581 5.04546 34.1648C5.83865 33.1859 6.62956 32.2089 7.41819 31.2335C6.85033 30.6315 6.22307 30.0769 5.53637 29.5697C2.59224 26.1642 2.4286 22.6255 5.04546 18.9535C5.72479 18.4295 6.24297 17.7957 6.6 17.0521C5.89228 16.2339 5.21047 15.3887 4.55455 14.5169C3.28439 12.343 2.84804 10.019 3.24546 7.54509C3.47427 6.86076 3.9379 6.41182 4.63637 6.19826C6.55023 6.08224 8.45932 6.13507 10.3636 6.35671C11.3437 6.60261 12.271 6.97234 13.1455 7.46586C13.777 8.00762 14.4316 8.50939 15.1091 8.97115C16.283 8.1798 17.483 7.41396 18.7091 6.67361C22.9851 5.17346 26.6941 6.01853 29.8364 9.20882C30.0375 9.33259 30.2556 9.41181 30.4909 9.4465C31.3287 8.82113 32.1469 8.16091 32.9455 7.46586C33.8671 6.92152 34.8489 6.499 35.8909 6.19826C37.7146 5.80864 39.5146 5.41252 41.2909 5.00988Z" fill="#050505"/>
<path fill-rule="evenodd" clip-rule="evenodd" d="M41.2909 5.00988C42.6012 4.98351 43.9102 5.00993 45.2182 5.0891C47.2615 5.43331 49.2796 5.90866 51.2727 6.51516C53.2247 7.03759 54.8611 8.04112 56.1818 9.52572C56.3829 9.64949 56.6011 9.72872 56.8364 9.7634C58.0646 8.91927 59.3191 8.10062 60.6 7.30741C61.824 6.89227 63.0786 6.60179 64.3636 6.43594C65.7007 6.68038 67.0098 7.02368 68.2909 7.46586C69.6632 8.16245 70.9449 8.98111 72.1364 9.92185C73.617 8.61023 75.3351 7.68594 77.2909 7.14896C78.7636 7.04332 80.2364 7.04332 81.7091 7.14896C83.0784 7.81816 83.6238 8.90091 83.3455 10.3972C83.551 13.0496 82.7055 15.3207 80.8091 17.2106C80.6659 17.4281 80.5841 17.6658 80.5636 17.9236C81.5073 19.1408 82.3528 20.4347 83.1 21.8057C84.6513 25.7539 83.7239 29.0814 80.3182 31.7881C80.209 32.1577 80.209 32.5275 80.3182 32.8972C82.1079 34.5668 83.308 36.5737 83.9182 38.9183C84.6128 41.3582 84.831 43.8406 84.5727 46.3655C84.2479 47.6689 84.0298 48.9893 83.9182 50.3268C83.3181 51.4887 82.7182 52.6508 82.1182 53.8127C81.6664 54.4227 81.1755 55.0038 80.6455 55.5557C80.2781 56.0914 80.1689 56.6724 80.3182 57.2986C83.548 59.9863 84.4754 63.261 83.1 67.1226C82.6636 67.9676 82.2273 68.8128 81.7909 69.6578C81.4672 70.1561 81.0582 70.5787 80.5636 70.9254C81.7642 72.4581 82.6642 74.1483 83.2636 75.9958C83.3728 77.4219 83.3728 78.8479 83.2636 80.274C83.2388 80.929 82.9933 81.4836 82.5273 81.9377C80.5636 82.0434 78.6 82.0434 76.6364 81.9377C75.1064 81.1974 73.6881 80.2996 72.3818 79.244C72.0546 79.1384 71.7273 79.1384 71.4 79.244C68.2651 82.1654 64.6651 82.8521 60.6 81.3039C59.1389 80.4543 57.9116 79.3716 56.9182 78.0557C55.9725 78.7066 55.0725 79.4196 54.2182 80.1947C53.1272 80.7229 52.0364 81.2511 50.9455 81.7793C49.8133 81.9154 48.7225 82.1795 47.6727 82.5715C45.491 82.6772 43.309 82.6772 41.1273 82.5715C39.97 82.1557 38.7701 81.9445 37.5273 81.9377C35.2971 81.1223 33.3334 79.9075 31.6364 78.2933C31.2772 78.0758 30.8953 78.023 30.4909 78.1349C28.0472 81.0898 24.8834 82.199 21 81.4624C20.2713 81.1889 19.5623 80.872 18.8727 80.5117C17.9089 79.8672 16.9271 79.2599 15.9273 78.6895C14.7609 79.4399 13.5608 80.1529 12.3273 80.8286C9.84437 81.9149 7.28073 82.1263 4.63637 81.4624C4.10383 81.0913 3.80383 80.5894 3.73637 79.9571C2.94754 76.5562 3.71118 73.5457 6.02728 70.9254C6.35455 70.3973 6.35455 69.869 6.02728 69.3409C4.10497 67.2755 3.1777 64.8459 3.24546 62.0521C3.71585 59.67 4.99768 57.8215 7.09091 56.5064C7.26321 56.3577 7.3723 56.1728 7.41819 55.9518C5.27774 53.7894 3.83228 51.2277 3.08182 48.2669C2.97273 45.0979 2.97273 41.9289 3.08182 38.7599C3.64051 37.1898 4.29505 35.6581 5.04546 34.1648C5.83865 33.1859 6.62956 32.2089 7.41819 31.2335C6.85033 30.6315 6.22307 30.0769 5.53637 29.5697C2.59224 26.1642 2.4286 22.6255 5.04546 18.9535C5.72479 18.4295 6.24297 17.7957 6.6 17.0521C5.89228 16.2339 5.21047 15.3887 4.55455 14.5169C3.28439 12.343 2.84804 10.019 3.24546 7.54509C3.47427 6.86076 3.9379 6.41182 4.63637 6.19826C6.55023 6.08224 8.45932 6.13507 10.3636 6.35671C11.3437 6.60261 12.271 6.97234 13.1455 7.46586C13.777 8.00762 14.4316 8.50939 15.1091 8.97115C16.283 8.1798 17.483 7.41396 18.7091 6.67361C22.9851 5.17346 26.6941 6.01853 29.8364 9.20882C30.0375 9.33259 30.2556 9.41181 30.4909 9.4465C31.3287 8.82113 32.1469 8.16091 32.9455 7.46586C33.8671 6.92152 34.8489 6.499 35.8909 6.19826C37.7146 5.80864 39.5146 5.41252 41.2909 5.00988Z" fill="url(#paint0_radial_3265_1839)"/>
<path fill-rule="evenodd" clip-rule="evenodd" d="M39.7675 8.29115C42.1135 8.26475 44.4591 8.29116 46.8039 8.37037C49.9673 9.14849 52.5036 10.8122 54.4129 13.3616C55.4617 14.9699 56.3344 16.66 57.0311 18.432C58.1527 19.7793 59.5436 20.7565 61.2039 21.3633C63.7545 21.8035 65.7999 21.0377 67.3402 19.0658C68.3088 17.1237 68.0633 15.3543 66.6039 13.7577C65.3641 13.2778 64.3005 13.5155 63.4129 14.4707C63.3038 14.682 63.3038 14.8933 63.4129 15.1045C64.7634 15.5791 65.0089 16.3978 64.1493 17.5605C62.5048 18.4707 61.2775 18.0745 60.4675 16.3721C59.3124 12.5479 60.8123 10.5408 64.9675 10.351C65.734 10.4042 66.4977 10.4834 67.2584 10.5887C68.1862 11.0375 69.0589 11.5657 69.8766 12.1732C70.5702 12.8965 71.1975 13.6624 71.7584 14.4707C72.5435 13.7628 73.2799 12.9969 73.9675 12.1732C75.3404 11.2041 76.8678 10.8872 78.5493 11.2225C78.8416 11.3468 79.087 11.5317 79.2857 11.7771C79.3186 14.5685 77.9823 16.4171 75.2766 17.3228C75.0409 17.7551 75.1499 18.0985 75.6039 18.3528C78.541 19.4722 79.9319 21.5584 79.7766 24.6116C79.0999 27.7459 77.109 29.0927 73.8039 28.6521C72.3413 28.1876 71.4686 27.2369 71.1857 25.8C71.5077 24.6917 72.2714 24.2164 73.4766 24.3739C74.3802 25.5596 75.2257 25.5333 76.0129 24.2947C76.2872 22.7617 75.66 21.7845 74.1311 21.3633C69.262 20.853 67.162 22.9393 67.8311 27.6221C68.2661 29.3358 69.2751 30.6298 70.8584 31.5042C73.2776 32.4899 75.514 33.7575 77.5675 35.307C80.6746 38.3662 81.8472 42.037 81.0857 46.3193C80.7337 47.5243 80.4064 48.7392 80.1039 49.9637C79.1494 51.0993 78.1947 52.2348 77.2402 53.3704C75.0575 54.8503 72.7666 56.1708 70.3675 57.3316C69.1443 58.357 68.2443 59.5981 67.6675 61.0552C67.5583 61.8475 67.5583 62.6397 67.6675 63.432C68.0493 64.2243 68.4312 65.0165 68.8129 65.8088C70.6285 67.3961 72.6739 67.7395 74.9493 66.8387C76.2661 65.7484 76.3752 64.5865 75.2766 63.3528C75.0585 63.2471 74.8402 63.2471 74.622 63.3528C74.0802 63.7595 73.5075 64.1029 72.9039 64.3827C71.5984 63.915 71.1075 63.017 71.4311 61.689C73.1807 59.5341 75.2807 59.138 77.7311 60.5007C79.7075 62.188 80.2803 64.2742 79.4493 66.7595C79.2181 67.2603 78.9453 67.7357 78.6311 68.1855C77.6392 69.0757 76.5209 69.7887 75.2766 70.3246C75.1326 70.5395 75.0779 70.7771 75.1129 71.0376C78.0864 71.9837 79.4773 73.9908 79.2857 77.0588C78.4277 77.6493 77.4732 77.8341 76.422 77.6133C75.6909 77.2361 74.9272 76.9192 74.1311 76.6626C73.2774 75.7668 72.4866 74.8424 71.7584 73.8897C71.1894 74.4619 70.6985 75.0957 70.2857 75.7912C69.7879 76.3351 69.2152 76.784 68.5675 77.138C67.5256 77.4349 66.4891 77.7518 65.4584 78.0887C63.7297 78.1373 62.2297 77.5828 60.9584 76.425C60.2502 75.6614 59.9501 74.7634 60.0584 73.7313C60.0235 72.6876 60.3235 71.7369 60.9584 70.8792C61.1742 70.5643 61.4742 70.3794 61.8584 70.3246C62.5129 70.2189 63.1675 70.2189 63.822 70.3246C64.9182 70.988 65.0819 71.8332 64.3129 72.8598C64.0839 73.0877 63.8111 73.2197 63.4948 73.2559C63.6559 73.8628 64.0379 74.3117 64.6402 74.6028C66.4777 74.9148 67.6503 74.2017 68.1584 72.4637C68.3238 71.43 68.2149 70.4265 67.8311 69.4531C65.3944 66.2882 62.4216 65.7337 58.9129 67.7894C57.8922 68.6346 57.0468 69.6117 56.3766 70.7207C55.3818 73.213 53.8273 75.2992 51.7129 76.9795C50.4444 77.6994 49.1353 78.3332 47.7857 78.8809C44.9111 79.497 42.0748 79.3915 39.2766 78.564C35.4997 76.967 32.9087 74.2997 31.5039 70.5623C30.7829 69.4411 29.9375 68.4112 28.9675 67.4725C28.1871 66.9808 27.3689 66.5584 26.5129 66.2049C21.0972 65.691 18.9971 67.9886 20.2129 73.0975C21.1367 74.0845 22.255 74.3222 23.5675 73.8105C23.8146 73.5965 23.9782 73.3323 24.0584 73.0183C23.7639 72.5222 23.4093 72.0733 22.9948 71.6714C22.8655 71.1749 22.92 70.6995 23.1584 70.2454C23.5722 69.8442 24.0631 69.5802 24.6311 69.4531C26.7484 69.9567 27.7576 71.2772 27.6584 73.4144C27.6595 74.8641 27.005 75.9468 25.6948 76.6626C24.402 77.4885 22.9838 77.7526 21.4402 77.4549C20.5675 77.138 19.6947 76.8211 18.822 76.5042C17.7972 75.485 16.7609 74.5079 15.7129 73.5728C14.9541 74.0319 14.3814 74.6657 13.9948 75.4743C13.7398 75.7688 13.4399 76.0065 13.0948 76.1873C11.6813 76.778 10.2085 77.0421 8.67658 76.9795C8.11854 76.4969 7.90037 75.8896 8.02203 75.1574C8.03301 73.0601 9.01483 71.5548 10.9675 70.6415C11.1965 70.4732 11.3601 70.262 11.4584 70.0077C10.6163 69.2983 9.77081 68.5853 8.92203 67.8686C7.60821 66.041 7.17184 64.034 7.61294 61.8475C8.17007 60.6227 9.01553 59.6455 10.1493 58.9162C12.6947 58.189 14.631 58.9021 15.9584 61.0552C16.144 62.6705 15.4075 63.4892 13.7493 63.5112C13.3684 63.0737 13.0957 62.5721 12.9311 62.0059C12.4913 61.8004 12.0822 61.8532 11.7039 62.1644C10.7104 63.51 10.8468 64.7511 12.1129 65.888C15.4018 66.9919 17.8836 66.0677 19.5584 63.1151C20.2483 60.5163 19.5119 58.3773 17.3493 56.6978C15.0355 55.3924 12.69 54.1248 10.3129 52.895C8.09784 51.0667 6.70694 48.7691 6.14021 46.0024C5.23843 41.3682 6.52026 37.4332 9.98567 34.1978C10.9408 33.6563 11.8681 33.0754 12.7675 32.4549C15.0436 31.8422 16.9253 30.6538 18.4129 28.8897C20.5481 25.9857 20.1935 23.4241 17.3493 21.2049C16.8777 20.9501 16.3868 20.7389 15.8766 20.5711C14.8402 20.4654 13.8038 20.4654 12.7675 20.5711C11.1457 21.3087 10.6275 22.497 11.2129 24.1362C11.5018 24.4965 11.8563 24.7607 12.2766 24.9285C12.449 24.9 12.6127 24.8472 12.7675 24.77C13.6896 23.1378 14.6987 23.0851 15.7948 24.6116C15.944 25.2378 15.8349 25.8188 15.4675 26.3545C13.8292 28.0042 11.8929 28.4003 9.6584 27.5429C6.82772 25.0969 6.52772 22.3768 8.7584 19.3827C9.77777 18.5001 10.7869 17.6286 11.7857 16.7683C10.3815 16.0983 9.20874 15.1212 8.26749 13.8369C7.91447 12.5786 7.94174 11.3374 8.3493 10.1133C10.1775 10.108 11.8138 10.6361 13.2584 11.6978C13.8323 12.4193 14.4595 13.0795 15.1402 13.6785C16.2765 12.2083 17.6674 11.0199 19.3129 10.1133C21.7758 9.1171 24.0394 9.46042 26.1039 11.1433C27.0279 12.7382 27.0824 14.3755 26.2675 16.0552C25.0911 17.4732 23.7274 17.6846 22.1766 16.689C21.6999 15.3554 22.1635 14.616 23.5675 14.4707C22.8409 12.5353 21.5863 12.1391 19.8039 13.2823C18.7466 14.6693 18.5558 16.1745 19.2311 17.7982C19.8899 19.3463 21.0627 20.3234 22.7493 20.7295C25.6743 21.0141 28.047 20.0369 29.8675 17.7982C30.8387 16.1812 31.766 14.5439 32.6493 12.8862C34.5868 10.6957 36.9595 9.16404 39.7675 8.29115Z" fill="#FAFAFA"/>
<path fill-rule="evenodd" clip-rule="evenodd" d="M50.1545 52.6847C50.1545 53.0016 50.1545 53.3186 50.1545 53.6355C48.1516 54.9245 46.9244 56.7202 46.4727 59.0228C46.132 61.0994 46.8139 62.7632 48.5182 64.014C50.2796 64.7465 52.0251 64.6937 53.7545 63.8555C55.1729 62.9557 55.3911 61.8465 54.4091 60.5281C53.8851 60.2931 53.3396 60.2402 52.7727 60.3696C52.2475 60.6929 51.7021 60.9833 51.1364 61.2411C50.3282 61.0918 49.9462 60.6165 49.9909 59.815C50.418 57.7667 51.7271 56.7633 53.9182 56.8045C57.3943 57.295 58.8942 59.2494 58.4182 62.6671C57.3562 66.222 54.9016 68.1234 51.0546 68.3714C50.3742 68.2806 49.6924 68.2014 49.0091 68.1337C48.0427 67.6991 47.0608 67.3029 46.0636 66.9453C46.0371 67.2665 46.0645 67.5834 46.1455 67.896C46.5721 68.6693 46.9538 69.4615 47.2909 70.2728C47.3099 71.6266 47.0918 72.947 46.6364 74.2341C46.0201 75.122 45.2291 75.8086 44.2636 76.2939C43.6295 76.1293 43.166 75.7596 42.8727 75.1848C42.481 74.2678 42.0447 73.3699 41.5636 72.4911C41.4545 71.8573 41.4545 71.2235 41.5636 70.5897C42.1529 69.4853 42.562 68.3234 42.7909 67.1038C41.7183 67.2472 40.682 67.5378 39.6818 67.9752C36.8223 68.443 34.3951 67.6772 32.4 65.6777C31.7592 64.8069 31.1593 63.9089 30.6 62.984C30.1453 60.8709 30.718 59.0488 32.3182 57.5175C33.3115 56.694 34.4569 56.4299 35.7545 56.7252C37.7823 56.9453 38.846 58.028 38.9455 59.9735C38.6953 60.533 38.2588 60.8499 37.6364 60.9242C37.0748 60.6448 36.5565 60.3015 36.0818 59.8943C35.809 59.7886 35.5364 59.7886 35.2636 59.8943C33.7778 61.1409 33.7778 62.3556 35.2636 63.5386C40.8983 65.2331 43.271 63.2525 42.3818 57.5967C41.6608 55.8948 40.5154 54.5215 38.9455 53.477C38.9181 53.3713 38.891 53.2658 38.8636 53.1601C39.1475 52.6462 39.5293 52.1972 40.0091 51.8133C42.3087 50.683 43.045 48.9136 42.2182 46.5052C42.0819 46.3732 41.9454 46.241 41.8091 46.109C40.5959 45.968 39.3959 46.0208 38.2091 46.2675C36.9799 47.3602 35.8071 48.4956 34.6909 49.6742C33.9938 48.9924 33.3119 48.2793 32.6455 47.5351C31.7728 47.007 30.8999 46.4787 30.0273 45.9506C28.6637 45.8449 27.2999 45.8449 25.9364 45.9506C23.1583 47.0799 22.2038 49.0605 23.0727 51.8925C23.7135 52.7503 24.5589 53.3312 25.6091 53.6355C27.594 53.126 27.8939 52.1753 26.5091 50.7833C26.44 49.7938 26.9309 49.3185 27.9818 49.3573C29.8555 49.6141 30.8644 50.6705 31.0091 52.5263C30.9759 54.9067 29.7758 56.3591 27.4091 56.8837C24.8839 57.5302 22.7294 56.9227 20.9455 55.0615C19.5033 53.1206 18.9034 50.9553 19.1455 48.565C19.2937 47.832 19.5665 47.1453 19.9636 46.5052C20.0877 46.1456 20.0603 45.8023 19.8818 45.4752C18.4847 46.0919 17.012 46.5408 15.4636 46.8221C13.4424 46.8303 11.7242 46.1437 10.3091 44.7622C10.1045 44.3539 10.0499 43.9315 10.1455 43.4946C12.5734 41.0648 15.3824 40.5366 18.5727 41.9101C18.9092 42.0209 19.2364 42.1793 19.5545 42.3855C19.6539 42.3658 19.7084 42.313 19.7182 42.227C19.9718 41.4988 19.8355 40.8122 19.3091 40.1671C19.0533 39.3088 18.8625 38.4373 18.7364 37.5527C19.037 34.326 20.7278 32.1077 23.8091 30.8978C26.2761 30.3915 28.376 30.9989 30.1091 32.72C31.1621 34.4886 31.0531 36.1788 29.7818 37.7904C29.0013 38.4472 28.1013 38.6848 27.0818 38.5034C26.5075 38.2012 26.3167 37.7524 26.5091 37.1566C27.5446 36.1465 27.4628 35.2222 26.2636 34.3837C25.8217 33.9245 25.3307 33.8716 24.7909 34.2252C22.9446 35.2108 22.2627 36.7161 22.7455 38.7411C23.0462 39.9315 23.7279 40.8559 24.7909 41.514C26.5202 41.7705 28.2657 41.8233 30.0273 41.6724C30.6818 41.3555 31.3364 41.0386 31.9909 40.7217C32.9024 39.8659 33.775 38.9944 34.6091 38.1073C34.8851 38.1485 35.1306 38.2542 35.3455 38.4242C36.0074 39.3099 36.6892 40.1814 37.3909 41.0386C37.746 41.2899 38.1279 41.5013 38.5364 41.6724C39.7445 41.799 40.9446 41.7726 42.1364 41.5932C42.2496 41.51 42.3314 41.4043 42.3818 41.2763C42.8235 38.5837 41.7598 36.656 39.1909 35.4928C38.7479 35.1975 38.6115 34.8014 38.7818 34.3045C42.4425 31.9635 43.4243 28.8473 41.7273 24.9559C40.2747 23.5396 38.5565 23.1435 36.5727 23.7675C35.7398 24.0777 35.0035 24.5268 34.3636 25.1143C33.9483 26.1899 34.1938 27.1143 35.1 27.8872C35.6063 27.9905 36.0972 27.9376 36.5727 27.7288C37.8591 26.6591 38.6773 26.9495 39.0273 28.6002C38.9571 29.3833 38.5753 29.9906 37.8818 30.4224C35.6313 31.9372 33.5859 31.6995 31.7455 29.7094C31.3189 28.9362 30.9371 28.1439 30.6 27.3326C30.2672 26.3648 30.3217 25.4141 30.7636 24.4805C32.1809 21.6336 34.5263 19.9964 37.8 19.5685C38.8492 19.8655 39.9129 20.1032 40.9909 20.2816C41.5669 20.737 42.1941 20.8691 42.8727 20.6777C42.4563 19.6007 42.0743 18.4916 41.7273 17.3502C41.3987 14.6061 42.4623 12.5463 44.9182 11.1707C46.8825 12.5457 47.8915 14.3943 47.9455 16.7164C47.6246 18.0734 47.2155 19.3938 46.7182 20.6777C47.5218 20.5801 48.2853 20.3424 49.0091 19.9647C51.8405 19.5391 54.4042 20.12 56.7 21.7076C57.8554 22.9413 58.5646 24.3674 58.8273 25.9858C58.9783 29.3779 57.3146 31.2529 53.8364 31.6108C51.914 31.1754 50.6867 30.0398 50.1545 28.2041C50.3979 27.4415 50.8888 26.8869 51.6273 26.5404C52.1486 27.0191 52.6942 27.4679 53.2636 27.8872C54.5984 28.0216 55.3621 27.4407 55.5546 26.1442C55.456 25.5844 55.1833 25.1091 54.7364 24.7182C51.6003 22.7071 49.0093 23.2088 46.9636 26.2235C46.3309 29.5663 47.4217 32.2071 50.2364 34.146C50.5636 34.6214 50.5636 35.0967 50.2364 35.5721C48.9521 36.1287 47.9158 36.9737 47.1273 38.1073C46.8725 39.2565 46.818 40.4184 46.9636 41.5932C49.9351 42.5607 52.117 41.7155 53.5091 39.058C53.839 38.7119 54.1936 38.395 54.5727 38.1073C55.4084 38.9572 56.2266 39.8287 57.0273 40.7217C59.4848 42.532 62.1029 42.7962 64.8818 41.514C66.6466 40.1749 67.1649 38.4584 66.4364 36.3643C65.775 34.6725 64.5477 34.0652 62.7545 34.5421C61.84 34.9305 61.54 35.5906 61.8546 36.5228C62.5008 37.032 62.828 37.6658 62.8364 38.4242C62.6009 38.7328 62.301 38.9441 61.9364 39.058C58.5714 38.5188 57.3987 36.6701 58.4182 33.5122C59.751 31.7151 61.5783 30.87 63.9 30.977C66.3223 31.185 68.1496 32.2942 69.3818 34.3045C69.7412 35.084 70.0684 35.8763 70.3636 36.6812C70.4728 37.6847 70.4728 38.6883 70.3636 39.6918C69.9937 40.6705 69.5846 41.6212 69.1364 42.5439C70.318 42.1576 71.5179 41.8142 72.7364 41.514C75.7587 41.0242 78.1043 42.0014 79.7727 44.4453C79.5544 45.0544 79.1725 45.5562 78.6273 45.9506C76.9066 47.1399 74.9975 47.6153 72.9 47.3766C72.044 47.0231 71.2258 46.6007 70.4455 46.109C70.1182 46.0034 69.7909 46.0034 69.4636 46.109C69.2912 46.329 69.264 46.5666 69.3818 46.8221C70.1179 48.1127 70.4451 49.4858 70.3636 50.9418C70.0022 52.3087 69.5113 53.6291 68.8909 54.9031C67.941 56.2955 66.6048 57.1141 64.8818 57.359C62.1826 57.9558 60.0282 57.19 58.4182 55.0615C57.2706 52.5577 57.9525 50.6827 60.4636 49.4365C61.3625 49.2213 62.1535 49.4062 62.8364 49.9911C62.9455 50.2023 62.9455 50.4137 62.8364 50.6249C61.2844 51.683 61.2026 52.8185 62.5909 54.0316C63.5649 54.4201 64.4376 54.2617 65.2091 53.5562C67.674 50.3105 67.0194 47.8281 63.2455 46.109C60.7081 45.5575 58.4717 46.0856 56.5364 47.6936C55.8339 48.4498 55.152 49.2156 54.4909 49.9911C53.4454 48.7129 52.3271 47.4717 51.1364 46.2675C47.0739 44.6575 45.683 45.8459 46.9636 49.8326C47.248 50.4254 47.6571 50.9272 48.1909 51.3379C48.9427 51.6735 49.5972 52.1226 50.1545 52.6847Z" fill="#050505"/>
<path fill-rule="evenodd" clip-rule="evenodd" d="M50.1545 52.6847C50.1545 53.0016 50.1545 53.3186 50.1545 53.6355C48.1516 54.9245 46.9244 56.7202 46.4727 59.0228C46.132 61.0994 46.8139 62.7632 48.5182 64.014C50.2796 64.7465 52.0251 64.6937 53.7545 63.8555C55.1729 62.9557 55.3911 61.8465 54.4091 60.5281C53.8851 60.2931 53.3396 60.2402 52.7727 60.3696C52.2475 60.6929 51.7021 60.9833 51.1364 61.2411C50.3282 61.0918 49.9462 60.6165 49.9909 59.815C50.418 57.7667 51.7271 56.7633 53.9182 56.8045C57.3943 57.295 58.8942 59.2494 58.4182 62.6671C57.3562 66.222 54.9016 68.1234 51.0546 68.3714C50.3742 68.2806 49.6924 68.2014 49.0091 68.1337C48.0427 67.6991 47.0608 67.3029 46.0636 66.9453C46.0371 67.2665 46.0645 67.5834 46.1455 67.896C46.5721 68.6693 46.9538 69.4615 47.2909 70.2728C47.3099 71.6266 47.0918 72.947 46.6364 74.2341C46.0201 75.122 45.2291 75.8086 44.2636 76.2939C43.6295 76.1293 43.166 75.7596 42.8727 75.1848C42.481 74.2678 42.0447 73.3699 41.5636 72.4911C41.4545 71.8573 41.4545 71.2235 41.5636 70.5897C42.1529 69.4853 42.562 68.3234 42.7909 67.1038C41.7183 67.2472 40.682 67.5378 39.6818 67.9752C36.8223 68.443 34.3951 67.6772 32.4 65.6777C31.7592 64.8069 31.1593 63.9089 30.6 62.984C30.1453 60.8709 30.718 59.0488 32.3182 57.5175C33.3115 56.694 34.4569 56.4299 35.7545 56.7252C37.7823 56.9453 38.846 58.028 38.9455 59.9735C38.6953 60.533 38.2588 60.8499 37.6364 60.9242C37.0748 60.6448 36.5565 60.3015 36.0818 59.8943C35.809 59.7886 35.5364 59.7886 35.2636 59.8943C33.7778 61.1409 33.7778 62.3556 35.2636 63.5386C40.8983 65.2331 43.271 63.2525 42.3818 57.5967C41.6608 55.8948 40.5154 54.5215 38.9455 53.477C38.9181 53.3713 38.891 53.2658 38.8636 53.1601C39.1475 52.6462 39.5293 52.1972 40.0091 51.8133C42.3087 50.683 43.045 48.9136 42.2182 46.5052C42.0819 46.3732 41.9454 46.241 41.8091 46.109C40.5959 45.968 39.3959 46.0208 38.2091 46.2675C36.9799 47.3602 35.8071 48.4956 34.6909 49.6742C33.9938 48.9924 33.3119 48.2793 32.6455 47.5351C31.7728 47.007 30.8999 46.4787 30.0273 45.9506C28.6637 45.8449 27.2999 45.8449 25.9364 45.9506C23.1583 47.0799 22.2038 49.0605 23.0727 51.8925C23.7135 52.7503 24.5589 53.3312 25.6091 53.6355C27.594 53.126 27.8939 52.1753 26.5091 50.7833C26.44 49.7938 26.9309 49.3185 27.9818 49.3573C29.8555 49.6141 30.8644 50.6705 31.0091 52.5263C30.9759 54.9067 29.7758 56.3591 27.4091 56.8837C24.8839 57.5302 22.7294 56.9227 20.9455 55.0615C19.5033 53.1206 18.9034 50.9553 19.1455 48.565C19.2937 47.832 19.5665 47.1453 19.9636 46.5052C20.0877 46.1456 20.0603 45.8023 19.8818 45.4752C18.4847 46.0919 17.012 46.5408 15.4636 46.8221C13.4424 46.8303 11.7242 46.1437 10.3091 44.7622C10.1045 44.3539 10.0499 43.9315 10.1455 43.4946C12.5734 41.0648 15.3824 40.5366 18.5727 41.9101C18.9092 42.0209 19.2364 42.1793 19.5545 42.3855C19.6539 42.3658 19.7084 42.313 19.7182 42.227C19.9718 41.4988 19.8355 40.8122 19.3091 40.1671C19.0533 39.3088 18.8625 38.4373 18.7364 37.5527C19.037 34.326 20.7278 32.1077 23.8091 30.8978C26.2761 30.3915 28.376 30.9989 30.1091 32.72C31.1621 34.4886 31.0531 36.1788 29.7818 37.7904C29.0013 38.4472 28.1013 38.6848 27.0818 38.5034C26.5075 38.2012 26.3167 37.7524 26.5091 37.1566C27.5446 36.1465 27.4628 35.2222 26.2636 34.3837C25.8217 33.9245 25.3307 33.8716 24.7909 34.2252C22.9446 35.2108 22.2627 36.7161 22.7455 38.7411C23.0462 39.9315 23.7279 40.8559 24.7909 41.514C26.5202 41.7705 28.2657 41.8233 30.0273 41.6724C30.6818 41.3555 31.3364 41.0386 31.9909 40.7217C32.9024 39.8659 33.775 38.9944 34.6091 38.1073C34.8851 38.1485 35.1306 38.2542 35.3455 38.4242C36.0074 39.3099 36.6892 40.1814 37.3909 41.0386C37.746 41.2899 38.1279 41.5013 38.5364 41.6724C39.7445 41.799 40.9446 41.7726 42.1364 41.5932C42.2496 41.51 42.3314 41.4043 42.3818 41.2763C42.8235 38.5837 41.7598 36.656 39.1909 35.4928C38.7479 35.1975 38.6115 34.8014 38.7818 34.3045C42.4425 31.9635 43.4243 28.8473 41.7273 24.9559C40.2747 23.5396 38.5565 23.1435 36.5727 23.7675C35.7398 24.0777 35.0035 24.5268 34.3636 25.1143C33.9483 26.1899 34.1938 27.1143 35.1 27.8872C35.6063 27.9905 36.0972 27.9376 36.5727 27.7288C37.8591 26.6591 38.6773 26.9495 39.0273 28.6002C38.9571 29.3833 38.5753 29.9906 37.8818 30.4224C35.6313 31.9372 33.5859 31.6995 31.7455 29.7094C31.3189 28.9362 30.9371 28.1439 30.6 27.3326C30.2672 26.3648 30.3217 25.4141 30.7636 24.4805C32.1809 21.6336 34.5263 19.9964 37.8 19.5685C38.8492 19.8655 39.9129 20.1032 40.9909 20.2816C41.5669 20.737 42.1941 20.8691 42.8727 20.6777C42.4563 19.6007 42.0743 18.4916 41.7273 17.3502C41.3987 14.6061 42.4623 12.5463 44.9182 11.1707C46.8825 12.5457 47.8915 14.3943 47.9455 16.7164C47.6246 18.0734 47.2155 19.3938 46.7182 20.6777C47.5218 20.5801 48.2853 20.3424 49.0091 19.9647C51.8405 19.5391 54.4042 20.12 56.7 21.7076C57.8554 22.9413 58.5646 24.3674 58.8273 25.9858C58.9783 29.3779 57.3146 31.2529 53.8364 31.6108C51.914 31.1754 50.6867 30.0398 50.1545 28.2041C50.3979 27.4415 50.8888 26.8869 51.6273 26.5404C52.1486 27.0191 52.6942 27.4679 53.2636 27.8872C54.5984 28.0216 55.3621 27.4407 55.5546 26.1442C55.456 25.5844 55.1833 25.1091 54.7364 24.7182C51.6003 22.7071 49.0093 23.2088 46.9636 26.2235C46.3309 29.5663 47.4217 32.2071 50.2364 34.146C50.5636 34.6214 50.5636 35.0967 50.2364 35.5721C48.9521 36.1287 47.9158 36.9737 47.1273 38.1073C46.8725 39.2565 46.818 40.4184 46.9636 41.5932C49.9351 42.5607 52.117 41.7155 53.5091 39.058C53.839 38.7119 54.1936 38.395 54.5727 38.1073C55.4084 38.9572 56.2266 39.8287 57.0273 40.7217C59.4848 42.532 62.1029 42.7962 64.8818 41.514C66.6466 40.1749 67.1649 38.4584 66.4364 36.3643C65.775 34.6725 64.5477 34.0652 62.7545 34.5421C61.84 34.9305 61.54 35.5906 61.8546 36.5228C62.5008 37.032 62.828 37.6658 62.8364 38.4242C62.6009 38.7328 62.301 38.9441 61.9364 39.058C58.5714 38.5188 57.3987 36.6701 58.4182 33.5122C59.751 31.7151 61.5783 30.87 63.9 30.977C66.3223 31.185 68.1496 32.2942 69.3818 34.3045C69.7412 35.084 70.0684 35.8763 70.3636 36.6812C70.4728 37.6847 70.4728 38.6883 70.3636 39.6918C69.9937 40.6705 69.5846 41.6212 69.1364 42.5439C70.318 42.1576 71.5179 41.8142 72.7364 41.514C75.7587 41.0242 78.1043 42.0014 79.7727 44.4453C79.5544 45.0544 79.1725 45.5562 78.6273 45.9506C76.9066 47.1399 74.9975 47.6153 72.9 47.3766C72.044 47.0231 71.2258 46.6007 70.4455 46.109C70.1182 46.0034 69.7909 46.0034 69.4636 46.109C69.2912 46.329 69.264 46.5666 69.3818 46.8221C70.1179 48.1127 70.4451 49.4858 70.3636 50.9418C70.0022 52.3087 69.5113 53.6291 68.8909 54.9031C67.941 56.2955 66.6048 57.1141 64.8818 57.359C62.1826 57.9558 60.0282 57.19 58.4182 55.0615C57.2706 52.5577 57.9525 50.6827 60.4636 49.4365C61.3625 49.2213 62.1535 49.4062 62.8364 49.9911C62.9455 50.2023 62.9455 50.4137 62.8364 50.6249C61.2844 51.683 61.2026 52.8185 62.5909 54.0316C63.5649 54.4201 64.4376 54.2617 65.2091 53.5562C67.674 50.3105 67.0194 47.8281 63.2455 46.109C60.7081 45.5575 58.4717 46.0856 56.5364 47.6936C55.8339 48.4498 55.152 49.2156 54.4909 49.9911C53.4454 48.7129 52.3271 47.4717 51.1364 46.2675C47.0739 44.6575 45.683 45.8459 46.9636 49.8326C47.248 50.4254 47.6571 50.9272 48.1909 51.3379C48.9427 51.6735 49.5972 52.1226 50.1545 52.6847Z" fill="url(#paint1_radial_3265_1839)"/>
<path fill-rule="evenodd" clip-rule="evenodd" d="M46.2273 20.9946C46.5015 21.1029 46.6107 21.3142 46.5546 21.6284C45.8897 21.6101 45.7806 21.3988 46.2273 20.9946Z" fill="#5C5C5C"/>
<path fill-rule="evenodd" clip-rule="evenodd" d="M18.5728 41.9102C19.0126 41.8573 19.3944 41.9628 19.7182 42.2271C19.7084 42.3132 19.6539 42.3659 19.5546 42.3856C19.2365 42.1794 18.9092 42.021 18.5728 41.9102Z" fill="#717171"/>
<path fill-rule="evenodd" clip-rule="evenodd" d="M50.1545 52.6848C50.591 53.0017 50.591 53.3186 50.1545 53.6355C50.1545 53.3186 50.1545 53.0017 50.1545 52.6848Z" fill="#737373"/>
<defs>
<radialGradient id="paint0_radial_3265_1839" cx="0" cy="0" r="1" gradientUnits="userSpaceOnUse" gradientTransform="translate(18.883 20.5292) rotate(33.4283) scale(151.162 148.372)">
<stop stop-color="#10923E"/>
<stop offset="0.627261" stop-color="#0057BC"/>
</radialGradient>
<radialGradient id="paint1_radial_3265_1839" cx="0" cy="0" r="1" gradientUnits="userSpaceOnUse" gradientTransform="translate(23.6484 24.1945) rotate(32.9828) scale(128.29 125.07)">
<stop stop-color="#10923E"/>
<stop offset="0.627261" stop-color="#0057BC"/>
</radialGradient>
</defs>
</svg>
