<svg width="80" height="80" viewBox="0 0 80 80" fill="none" xmlns="http://www.w3.org/2000/svg">
<g clip-path="url(#clip0_513_1365)">
<path opacity="0.978" fill-rule="evenodd" clip-rule="evenodd" d="M1.32812 -0.078125C27.0573 -0.078125 52.7864 -0.078125 78.5156 -0.078125C78.748 0.125555 79.0084 0.307847 79.2969 0.46875C79.4839 0.783645 79.6922 1.0701 79.9219 1.32812C79.9219 27.0573 79.9219 52.7864 79.9219 78.5156C79.7181 78.748 79.5359 79.0084 79.375 79.2969C79.0602 79.4839 78.7736 79.6922 78.5156 79.9219C52.7864 79.9219 27.0573 79.9219 1.32812 79.9219C1.09579 79.7181 0.835375 79.5359 0.546875 79.375C0.359909 79.0602 0.151575 78.7736 -0.078125 78.5156C-0.078125 52.7864 -0.078125 27.0573 -0.078125 1.32812C0.125555 1.09579 0.307847 0.835375 0.46875 0.546875C0.783645 0.359909 1.0701 0.151575 1.32812 -0.078125ZM4.60938 4.76562C15.599 4.76562 26.5886 4.76562 37.5781 4.76562C37.552 8.7243 37.5781 12.6826 37.6562 16.6406C37.9573 17.4106 38.5042 17.9053 39.2969 18.125C41.3389 18.1339 43.3702 18.238 45.3906 18.4375C46.8333 19.3277 47.1197 20.4995 46.25 21.9531C45.9795 22.2839 45.6409 22.5183 45.2344 22.6562C43.1597 22.8528 41.0764 22.957 38.9844 22.9688C38.4789 23.1812 38.0883 23.5198 37.8125 23.9844C37.5808 28.4497 37.5027 32.9289 37.5781 37.4219C33.9844 37.4219 30.3906 37.4219 26.7969 37.4219C27.2005 34.3344 26.263 31.7563 23.9844 29.6875C20.2598 27.4047 16.9005 27.8475 13.9062 31.0156C12.6442 32.9573 12.1494 35.0928 12.4219 37.4219C9.8177 37.4219 7.21355 37.4219 4.60938 37.4219C4.60938 26.5364 4.60938 15.6511 4.60938 4.76562ZM42.2656 4.76562C53.2552 4.76562 64.2448 4.76562 75.2344 4.76562C75.2344 15.6511 75.2344 26.5364 75.2344 37.4219C64.2448 37.4219 53.2552 37.4219 42.2656 37.4219C42.2656 34.1927 42.2656 30.9636 42.2656 27.7344C45.4078 28.1683 48.0381 27.2308 50.1562 24.9219C52.238 21.6789 52.0817 18.5539 49.6875 15.5469C47.5798 13.6524 45.1059 12.9232 42.2656 13.3594C42.2656 10.4948 42.2656 7.6302 42.2656 4.76562ZM19.2969 33.0469C20.4308 33.0791 21.2381 33.5998 21.7188 34.6094C21.915 36.6319 22.0192 38.6631 22.0312 40.7031C22.4327 41.7284 23.1878 42.2753 24.2969 42.3438C28.7236 42.4219 33.1508 42.448 37.5781 42.4219C37.5781 45.4948 37.5781 48.5677 37.5781 51.6406C33.5336 50.9677 30.5908 52.4259 28.75 56.0156C27.695 59.1648 28.3459 61.8992 30.7031 64.2188C32.7539 65.7077 35.0456 66.2545 37.5781 65.8594C37.5781 68.9323 37.5781 72.0052 37.5781 75.0781C26.5886 75.0781 15.599 75.0781 4.60938 75.0781C4.60938 64.1927 4.60938 53.3073 4.60938 42.4219C8.04727 42.448 11.4848 42.4219 14.9219 42.3438C16.0252 42.2828 16.7803 41.7359 17.1875 40.7031C17.1992 38.6111 17.3034 36.5278 17.5 34.4531C17.9269 33.7355 18.5258 33.2667 19.2969 33.0469ZM42.2656 42.4219C53.2552 42.4219 64.2448 42.4219 75.2344 42.4219C75.2344 53.3073 75.2344 64.1927 75.2344 75.0781C64.2448 75.0781 53.2552 75.0781 42.2656 75.0781C42.2917 70.9111 42.2656 66.7445 42.1875 62.5781C41.8688 61.7381 41.2698 61.2433 40.3906 61.0938C38.5156 61.0417 36.6406 60.9895 34.7656 60.9375C32.6928 59.7411 32.5366 58.3348 34.2969 56.7188C36.3173 56.5192 38.3486 56.4152 40.3906 56.4062C41.2748 56.2506 41.8739 55.7559 42.1875 54.9219C42.2656 50.7555 42.2917 46.5889 42.2656 42.4219Z" fill="#3378C9"/>
</g>
<defs>
<clipPath id="clip0_513_1365">
<rect width="80" height="80" fill="white"/>
</clipPath>
</defs>
</svg>
