<svg width="90" height="90" viewBox="0 0 90 90" fill="none" xmlns="http://www.w3.org/2000/svg">
<g clip-path="url(#clip0_921_15863)">
<path d="M40.0781 0.246105C38.1094 0.509777 37.8985 0.580089 37.6348 1.16017C37.336 1.82814 37.3887 2.09181 37.9688 2.65431C38.4434 3.12892 38.5664 3.18165 39.2344 3.07618C39.6563 3.02345 40.7637 2.9004 41.7129 2.83009C43.6817 2.67189 44.1387 2.40821 44.1563 1.40626C44.1738 0.966808 44.0508 0.720715 43.6992 0.404308C43.1543 -0.0527229 42.6973 -0.0703011 40.0781 0.246105Z" fill="url(#paint0_radial_921_15863)"/>
<path d="M45.9844 0.404325C45.4219 0.966825 45.4043 1.59964 45.9316 2.21487C46.3535 2.68948 46.6348 2.74222 50.5371 3.00589C51.627 3.0762 52.207 2.61917 52.207 1.70511C52.207 0.597684 51.5391 0.334012 48.0937 0.0703402C46.4766 -0.0351286 46.4238 -0.0351286 45.9844 0.404325Z" fill="url(#paint1_radial_921_15863)"/>
<path d="M54.0351 1.45898C53.4551 1.96875 53.3847 2.84766 53.8945 3.33984C54.1933 3.63867 58.3242 4.92188 58.9746 4.92188C59.4316 4.92188 60.1172 4.0957 60.1172 3.56836C60.0996 3.00586 59.8535 2.60156 59.3086 2.32031C58.9394 2.12695 55.0722 1.05469 54.7207 1.05469C54.5976 1.05469 54.2988 1.24805 54.0351 1.45898Z" fill="url(#paint2_radial_921_15863)"/>
<path d="M32.3437 1.77539C31.3066 2.07422 30.3222 2.47852 30.1113 2.67188C29.2851 3.44531 29.8125 4.92188 30.9023 4.92188C31.8515 4.9043 35.5781 3.72656 35.9121 3.32227C36.3164 2.83008 36.2988 2.0918 35.8593 1.61719C35.3672 1.08984 34.6113 1.125 32.3437 1.77539Z" fill="url(#paint3_radial_921_15863)"/>
<path d="M22.7285 3.58588C21.709 3.91986 19.8809 5.16791 18.0176 6.83783C17.1563 7.62885 16.3477 8.26166 16.2246 8.26166C16.1192 8.26166 13.7461 7.43549 10.9688 6.41596C7.13674 5.00971 5.76564 4.58783 5.3965 4.67572C4.79885 4.79877 3.86721 6.13471 3.86721 6.87299C3.86721 7.5058 4.1133 7.71674 8.17385 10.5292C10.1074 11.8476 11.6895 13.0429 11.6895 13.1484C11.6895 13.2538 11.0039 14.2031 10.1602 15.2578L8.63088 17.1738L7.17189 16.8398C6.3633 16.664 5.46682 16.5585 5.15041 16.6113C4.23635 16.7695 3.19924 18.4042 3.49807 19.2128C3.58596 19.4413 4.25393 20.0742 4.99221 20.6191C5.73049 21.1816 6.32814 21.7089 6.32814 21.7968C6.32814 21.8847 6.16994 22.2187 5.97658 22.5351C5.2383 23.748 5.73049 24.9609 6.9258 24.9609C7.38283 24.9609 7.6465 24.8203 7.99807 24.416C8.24416 24.0996 8.52541 23.9238 8.59572 24.0117C8.66603 24.0996 9.10549 24.6621 9.56252 25.2597C10.0371 25.9101 10.5645 26.4023 10.8281 26.4726C11.3906 26.6132 12.1113 26.3144 12.9024 25.5761C13.6582 24.8906 13.6934 24.5742 13.166 22.6406C12.9551 21.8671 12.8145 21.2343 12.8496 21.2167C12.8848 21.1816 13.711 20.5488 14.6778 19.7753C15.6446 19.0195 16.5235 18.3339 16.6289 18.246C16.8574 18.0703 16.9805 18.2285 20.127 22.7988C22.5176 26.2792 22.6582 26.3847 24.0469 25.7519C24.5391 25.5234 25.0137 25.1894 25.1192 24.9785C25.5059 24.2753 25.5059 24.3105 22.9571 17.3496L21.6035 13.6933L23.0449 12.0761C24.5567 10.371 26.1211 8.13861 26.2969 7.43549C26.3672 7.15424 26.7012 6.87299 27.2637 6.57416C28.793 5.8183 29.0215 4.81635 27.8965 3.9726C27.4395 3.63861 27.3692 3.62104 26.666 3.88471C25.9453 4.1308 25.875 4.1308 25.1367 3.74408C24.293 3.28705 23.8008 3.2519 22.7285 3.58588ZM23.625 6.71479C23.0801 7.78705 22.3418 8.75385 20.4785 10.8105C19.459 11.9355 18.6328 12.9902 18.6328 13.166C18.6328 13.3417 18.7383 13.7988 18.8789 14.1679C19.0196 14.5546 19.4063 15.6445 19.7578 16.6113C20.4785 18.58 20.461 18.58 19.1602 16.6113C18.0703 14.9589 17.8594 14.7656 17.1387 14.7656C16.6817 14.7656 15.9785 15.2578 13.3418 17.3671C11.0391 19.2128 10.0547 20.1093 9.93166 20.4785L9.75588 21.0058L9.29885 20.5312L8.82424 20.0566L9.36916 20.0038C9.82619 19.9687 10.125 19.6874 11.0391 18.5449C11.6543 17.7714 12.8672 16.2773 13.7285 15.205C15.8379 12.621 15.8203 12.4628 13.5176 10.8808C12.6563 10.2831 11.9531 9.77338 11.9531 9.73822C11.9531 9.68549 14.2735 10.4941 15.6973 11.0566C16.3125 11.3027 17.3496 11.3027 17.4903 11.0742C17.7539 10.6523 21.3399 7.54096 22.3242 6.87299C23.6953 5.95893 24.0293 5.92377 23.625 6.71479Z" fill="url(#paint4_radial_921_15863)"/>
<path d="M61.541 4.14847C60.6973 5.22073 61.1016 5.76566 63.6328 7.03128C65.9883 8.20901 66.5859 8.31448 67.1309 7.62894C67.9922 6.53909 67.4473 5.81839 64.8105 4.55277C62.7363 3.56839 62.0684 3.4805 61.541 4.14847Z" fill="url(#paint5_radial_921_15863)"/>
<path d="M68.6426 7.99796C68.0977 8.5253 68.0801 9.15812 68.6074 9.73819C68.8184 9.96671 69.7324 10.7226 70.6465 11.4081C72.5098 12.7968 73.0371 12.9374 73.7402 12.2167C74.2324 11.7245 74.3027 11.1444 73.916 10.5995C73.7578 10.3886 72.8437 9.61515 71.8594 8.87687C69.873 7.41788 69.3633 7.25968 68.6426 7.99796Z" fill="url(#paint6_radial_921_15863)"/>
<path d="M74.9531 13.0604C74.0918 13.8163 74.2676 14.3261 76.0254 16.2948C76.8691 17.244 77.8008 18.1229 78.0645 18.2284C78.9785 18.6327 79.8047 18.0175 79.8047 16.9276C79.8047 16.5409 79.4531 16.0311 78.3281 14.7655C76.3066 12.5331 75.8496 12.3046 74.9531 13.0604Z" fill="url(#paint7_radial_921_15863)"/>
<path d="M80.4199 19.0194C79.8926 19.3007 79.6289 19.7049 79.6289 20.1971C79.6289 20.619 81.5273 23.8885 82.1953 24.6444C82.5996 25.0663 83.5664 25.0663 84.0234 24.6092C84.6562 23.9764 84.4805 23.2909 83.1797 21.1991C81.791 18.9842 81.2461 18.5624 80.4199 19.0194Z" fill="url(#paint8_radial_921_15863)"/>
<path d="M52.1191 19.1777C49.6406 19.3359 48.1816 19.5819 45.7734 20.2148C31.5 23.9237 21.164 35.7187 19.3535 50.4491C19.0722 52.6288 19.125 56.9882 19.4414 59.2734C20.3203 65.6718 22.9746 71.8066 27.0176 76.8163C28.4238 78.539 31.3594 81.3866 33.2051 82.7753C35.1914 84.287 38.039 85.9745 40.0957 86.871L41.7832 87.5917L41.6953 88.4003C41.5898 89.6132 41.9765 89.8944 43.9277 89.9648C45.3691 90.0351 45.4746 90.0175 45.914 89.5605L46.3886 89.1034L48.5508 89.4726C59.5722 91.3534 70.9101 87.8905 78.9609 80.1737C80.0156 79.1718 81.3515 77.748 81.9492 77.0097C88.4355 68.9765 91.1953 58.5527 89.4726 48.5507L89.1035 46.3886L89.5605 45.8437C90 45.3163 90.0351 45.1933 89.9648 43.8398C89.8945 41.9765 89.5957 41.5898 88.3828 41.6952L87.5742 41.7831L87.2578 40.9745C87.0996 40.5351 86.5722 39.3749 86.0801 38.4257C79.6816 25.8398 66.1816 18.1933 52.1191 19.1777ZM62.6836 22.8691C65.8652 23.6777 68.9238 24.9784 71.7539 26.7362C73.2832 27.6855 74.9883 28.9511 74.4433 28.7402C72.2636 27.914 70.9804 27.4921 69.3808 27.0702C68.0801 26.7187 67.289 26.4198 66.832 26.0507C65.3554 24.8905 63.5 24 62.3496 23.3788C54 19.5 50.5 22 60.5 25C60.5 25 61.1191 25.2245 61.2597 25.4355C61.5058 25.787 61.5058 25.787 58.8867 25.9277L56.2676 26.0507L54.8437 24.8905C54.0527 24.2402 53.1035 23.5194 52.6992 23.2734C52.3125 23.0273 52.0312 22.7987 52.0664 22.7636C52.1894 22.6405 55.0547 23.2206 56.373 23.6425C58.3769 24.2753 58.8867 24.2226 59.3437 23.3437C59.4844 23.0624 59.5547 22.6757 59.5019 22.4823C59.3965 22.1484 59.4316 22.1308 60.0644 22.2538C60.4336 22.3066 61.6113 22.5878 62.6836 22.8691ZM48.2168 23.9941C49.3594 24.3808 51.2578 25.4179 52.207 26.1737C52.541 26.4374 52.5761 26.5429 52.3828 26.5956C52.2422 26.6308 50.9765 26.9472 49.5703 27.2987C48.164 27.6503 46.8633 27.9843 46.6523 28.037C46.3183 28.1425 46.2129 27.9491 45.4922 25.8925C45.0703 24.662 44.7363 23.5722 44.789 23.4843C44.9121 23.2558 46.916 23.537 48.2168 23.9941ZM42.9433 26.8241L43.7519 29.1269L42.2226 29.7948C41.3789 30.1464 40.1308 30.7441 39.4277 31.1308C38.7246 31.4999 38.1269 31.8163 38.0742 31.8163C38.0215 31.8163 38.1445 31.2362 38.3379 30.5331C38.8652 28.5995 39.9726 26.455 41.0625 25.3476C41.5898 24.8027 42.0293 24.3984 42.082 24.4511C42.1172 24.4862 42.5039 25.5585 42.9433 26.8241ZM35.6836 29.953C35.4902 30.6034 35.2441 31.7636 35.1386 32.5019C34.9453 33.7851 34.8926 33.873 34.207 34.3652C33.8027 34.6464 32.8711 35.3847 32.1328 35.9823C31.3769 36.58 30.7617 37.0195 30.7617 36.9491C30.7617 36.6503 32.5547 33.1347 33.2578 32.0448C34.0664 30.8144 35.8418 28.582 35.9472 28.6874C35.9824 28.7226 35.8594 29.2851 35.6836 29.953ZM63.8965 28.828C66.4453 29.1093 66.3398 29.0566 68.4668 31.1835C69.539 32.2558 70.6816 33.4687 70.998 33.873L71.5781 34.6288H70.3652C69.1875 34.6288 65.6191 34.8925 64.248 35.0683L63.5449 35.1562L62.4199 33.4862C61.8047 32.5722 60.7676 31.1484 60.0996 30.3222C59.4316 29.496 58.8867 28.7753 58.8867 28.7402C58.8867 28.582 62.2969 28.6523 63.8965 28.828ZM56.1797 29.8827C57.2695 31.0429 58.6933 32.8359 59.7656 34.3827L60.6269 35.6484L59.5371 35.8417C57.7793 36.1933 54.5273 37.037 52.4004 37.705C51.3105 38.039 50.3261 38.3202 50.1855 38.3202C49.9219 38.3202 47.1972 30.9374 47.4082 30.7441C47.7597 30.4277 53.6308 29.039 54.791 29.0214C55.248 29.0038 55.5117 29.162 56.1797 29.8827ZM74.5664 31.8866C76.4121 32.8183 78.2226 34.0136 79.4531 35.121L80.4199 35.9999L78.8379 35.5956C77.9765 35.3671 76.7988 35.1386 76.2539 35.0683L75.2519 34.9452L74.0215 33.328C73.3535 32.4491 72.6328 31.5702 72.4394 31.3945C71.5078 30.5507 72.2812 30.7265 74.5664 31.8866ZM46.0722 35.5956C46.8281 37.6347 47.373 39.3398 47.3203 39.4101C47.25 39.4628 46.4414 39.8144 45.5273 40.1835C44.6133 40.5527 42.4863 41.537 40.834 42.3632L37.7929 43.8925L37.6699 43.2597C37.5996 42.9081 37.5469 41.0097 37.5469 39.0234L37.5293 35.4198L38.4082 34.8398C39.6562 34.0312 44.1562 31.7987 44.4726 31.8515C44.6308 31.8866 45.2285 33.2753 46.0722 35.5956ZM28.7578 34.7519C28.3359 35.6132 27.5801 37.8105 27.0703 39.7441C26.666 41.3085 26.4551 41.7831 25.7871 42.6445C25.3301 43.207 24.4511 44.5605 23.8008 45.6152C22.7988 47.3027 22.6582 47.4609 22.7636 46.8632C23.1328 44.6835 24.9785 40.2187 26.6308 37.4941C27.9316 35.3671 29.4609 33.3984 28.7578 34.7519ZM34.8047 41.6601C34.9101 43.0663 35.0332 44.4902 35.0859 44.8417C35.1914 45.4745 35.1738 45.4921 33.9433 46.3007C26.5 51.5 29.3855 49.8515 30.2644 50.7128C30.8445 51.3105 28.9336 53.7362 34.7871 49.0253C35.209 48.7265 35.5605 48.5155 35.5957 48.5507C35.6308 48.5859 35.8594 49.5527 36.123 50.7128C36.3867 51.873 36.9492 54.0527 37.3886 55.5468C37.8281 57.0409 38.2148 58.4296 38.2676 58.623C38.3379 58.9394 37.9336 59.1152 34.6289 60.2929C32.5898 61.0136 30.8672 61.6112 30.7969 61.6112C30.6035 61.6112 29.5664 57.621 29.2324 55.582L28.9336 53.7362L30.0234 52.7519C30.9902 51.873 31.1133 51.6972 31.1133 51.1171C31.1133 49.9921 29.9355 49.3945 29.0215 50.0448L28.5996 50.3261L28.7051 47.6191C28.8808 43.5937 29.039 42.8378 30.0761 41.6601C30.5508 41.1327 31.7461 39.9726 32.7304 39.0761L34.541 37.4589L34.5761 38.2851C34.6113 38.7421 34.6992 40.2538 34.8047 41.6601ZM74.4433 38.7948C75.2871 40.2187 77.0449 43.7519 77.2383 44.4198C77.3437 44.7362 77.2558 44.8241 76.7285 44.9999C66.4037 48.3992 70.8926 47.6609 71.7187 48.3992C71.9824 48.6277 66.5 52 77.414 47.5663L78.3808 47.4609L78.7676 48.7265C79.1367 50.0097 79.8398 53.2265 80.0508 54.5976L80.1562 55.3359L78.3281 56.8827C76.0957 58.7987 73.7226 60.5214 73.5117 60.3984C73.4238 60.3456 73.248 59.8007 73.1426 59.203C72.7383 57.1112 71.3144 51.873 70.7519 50.4316C70.664 50.203 70.8926 50.0624 71.7187 49.746C73.1777 49.2011 73.6347 48.4277 73.1074 47.4433C72.7734 46.7929 72.123 46.705 70.8926 47.1269C70.2949 47.3554 69.7676 47.496 69.7324 47.4433C69.6972 47.4081 69.2402 46.3886 68.7304 45.1757C68.2207 43.9628 67.2187 41.8359 66.5156 40.4296C65.7949 39.0234 65.2148 37.828 65.2148 37.7577C65.2148 37.582 66.5683 37.5116 70.3476 37.4765L73.6523 37.4413L74.4433 38.7948ZM81.1758 39.3749C82.459 39.9902 84.5508 41.6249 84.5508 42.0116C84.5508 42.2226 80.1386 43.8222 79.9804 43.664C79.9101 43.5761 79.5586 42.8378 79.1894 42.0116C78.8203 41.1855 78.2226 39.955 77.8359 39.2519L77.1504 37.9862L78.4336 38.3378C79.1367 38.5312 80.3672 38.9882 81.1758 39.3749ZM63.8437 41.2206C65.5488 44.5253 67.2011 48.3573 67.0078 48.5507C66.9375 48.621 64.3183 49.623 61.1719 50.7831C56.9883 52.3124 55.4238 52.8222 55.3359 52.664C55.2656 52.5409 54.2988 49.9921 53.1914 47.0038C52.084 44.0155 51.1347 41.4316 51.0644 41.2734C50.959 41.0273 51.2402 40.8866 52.6816 40.4472C56.1797 39.3749 61.2597 38.1445 61.9629 38.1972C62.2265 38.2323 62.6836 38.953 63.8437 41.2206ZM50.5898 47.83C51.7851 51.0468 52.6992 53.7187 52.6113 53.789C52.4179 53.9823 41.0625 58.0077 40.9746 57.9198C40.7988 57.7265 39.498 53.1034 38.9531 50.7128C38.0215 46.5995 38.0215 46.9159 38.9004 46.4413C41.5898 44.9472 47.7246 42.0468 48.2519 42.0292C48.3574 42.0116 49.4121 44.6308 50.5898 47.83ZM85.2539 47.5136C85.0429 48.2167 84.6738 49.1659 84.4277 49.6581C83.9531 50.5722 82.5996 52.5937 82.5117 52.5058C82.4765 52.4882 82.3008 51.7148 82.1074 50.8007C81.8965 49.8866 81.5449 48.5155 81.3164 47.7773L80.8945 46.4237L81.6328 46.1425C82.0195 46.0019 83.0742 45.6152 83.9355 45.2812L85.5176 44.7011L85.5703 45.4921C85.6054 45.9491 85.4648 46.7929 85.2539 47.5136ZM25.207 53.8417C24.75 54.3515 24.0293 55.2831 23.5898 55.9335C23.1504 56.6015 22.7812 57.1288 22.7636 57.1288C22.7461 57.1288 22.7988 56.6542 22.8867 56.0566C23.2031 53.6659 24.1523 50.7831 25.3652 48.4628L25.9277 47.373L25.9804 50.1503L26.0332 52.9277L25.207 53.8417ZM68.7304 53.0331C69.416 55.3007 70.3476 59.0097 70.664 60.7675C70.8398 61.7694 70.8398 62.0859 70.6816 62.2968C70.2773 62.789 61.1367 67.1484 60.5215 67.1484C60.4863 67.1484 60.4687 67.0253 60.4687 66.8671C60.4687 66.4628 57.9395 59.5 57.5 59.5C57.2891 59.5 55.2988 58.7188 55 59C54.4727 59.5449 57.6035 66.7441 57.8672 67.8339C57.9023 67.9921 57.4629 68.2206 56.6894 68.5019C55.1601 69.0292 49.9219 70.3827 48.1992 70.6816C47.0039 70.8749 46.916 70.8749 46.6699 70.5585C45.914 69.5566 41.8183 60.7851 42.0293 60.5741C42.1875 60.4159 53.666 56.4081 53.7363 56.496C53.789 56.5312 54.2988 57.8671 54.8613 59.4491C55.9336 62.3671 56.2851 62.9296 57.041 62.9296C57.6914 62.9296 58.0078 62.7538 58.289 62.1737C58.5527 61.664 58.5351 61.5585 57.4629 58.5878C56.8652 56.9179 56.4082 55.5116 56.4433 55.4765C56.5312 55.3886 67.8691 51.1698 68.0449 51.1523C68.0976 51.1523 68.414 51.996 68.7304 53.0331ZM86.0625 53.8241C85.6758 55.8984 85.0254 57.8319 84.0234 59.8534L83.1797 61.6112L83.1621 59.748C83.1445 58.7284 83.0918 57.5331 83.039 57.0937C82.9336 56.3554 82.9687 56.2675 83.8301 55.2831C84.3222 54.7206 85.0605 53.7714 85.4648 53.1737C85.8867 52.5585 86.2383 52.1366 86.2734 52.2245C86.3086 52.2948 86.2031 53.0331 86.0625 53.8241ZM26.8066 57.4101C26.8593 57.8671 27.1933 59.2206 27.5273 60.4335C27.8613 61.6464 28.1074 62.6484 28.0898 62.6659C27.7383 62.912 23.6074 64.2655 23.5019 64.1601C23.2558 63.9316 23.7129 61.5409 24.2402 60.2753C24.75 59.0448 26.2793 56.6015 26.5429 56.6015C26.6133 56.6015 26.7363 56.9706 26.8066 57.4101ZM80.332 62.3144C80.0508 66.287 80.0859 66.164 78.6797 67.6581C77.3789 69.0292 74.707 71.5429 74.5136 71.5429C74.4609 71.5429 74.3554 70.2245 74.3027 68.5898C74.2324 66.9726 74.1445 65.1796 74.0742 64.5995L73.9687 63.5448L75.6914 62.3671C76.6582 61.7167 78.0644 60.662 78.8379 60.0292L80.2441 58.8866L80.3496 59.6425C80.4023 60.0468 80.4023 61.2597 80.332 62.3144ZM85.8867 63.8261C84.8496 67.2538 83.5488 69.9784 81.5449 72.9843C80.4023 74.6894 79.998 75.0761 80.4375 74.0566C80.9297 72.8964 81.7031 70.5585 82.0898 68.9941C82.4062 67.746 82.6347 67.2714 83.4082 66.2519C83.9179 65.5663 84.7969 64.1952 85.3594 63.1933C85.9394 62.2089 86.414 61.4882 86.4492 61.5937C86.4668 61.7167 86.2207 62.7187 85.8867 63.8261ZM40.0429 63.1933C40.3945 64.0722 41.3965 66.2343 42.2929 68.0273C43.1894 69.8202 43.8926 71.2968 43.875 71.3144C43.7344 71.4726 37.9511 71.7362 36.8086 71.6308L35.3496 71.5077L34.664 70.3476C33.8027 68.9062 32.5898 66.5155 32.0625 65.2148L31.6758 64.248L35.3847 62.8944C37.4414 62.1562 39.1816 61.5585 39.2695 61.5937C39.3398 61.6112 39.6914 62.3319 40.0429 63.1933ZM29.6015 66.3925C29.8828 67.0605 30.498 68.3261 30.9551 69.2402C31.4297 70.1542 31.7812 70.9277 31.7461 70.9628C31.6054 71.121 29.4082 70.4179 28.0371 69.7851C26.5957 69.1347 24.2754 67.2362 24.5566 66.955C24.6797 66.8319 28.7578 65.2499 29.0039 65.2323C29.0566 65.2148 29.3203 65.7421 29.6015 66.3925ZM71.4375 66.3046C71.6836 68.9413 71.7539 71.0859 71.6308 72.3339L71.5078 73.6698L70.5234 74.3027C69.4511 74.9882 64.7226 77.3437 64.4238 77.3437C64.2832 77.3437 62.7363 73.2831 61.5761 69.873C61.541 69.7675 62.0156 69.5038 62.6133 69.2753C64.0019 68.748 68.4492 66.6562 69.9609 65.8476C70.5937 65.496 71.1562 65.2148 71.209 65.2148C71.2793 65.2148 71.3672 65.7069 71.4375 66.3046ZM60.3281 74.4784C61.084 76.5702 61.664 78.328 61.6113 78.3632C61.4531 78.5214 57.6035 79.4882 55.8105 79.8046L53.8945 80.1562L53.209 79.5058C51.5566 77.9062 48.3398 73.5292 48.7265 73.4062C48.8496 73.371 49.9043 73.1249 51.0644 72.8612C53.1386 72.4218 56.5312 71.4726 57.9199 70.9452C58.3066 70.8046 58.7109 70.6816 58.7988 70.6816C58.9043 70.6816 59.5898 72.3866 60.3281 74.4784ZM78.2754 72.1933C77.4844 74.3905 75.3574 77.9237 73.7754 79.6991L73.0019 80.578L73.5117 78.4687C73.7754 77.3261 74.039 76.0956 74.0918 75.7616C74.1621 75.2694 74.373 75.0058 75.1465 74.4609C75.6738 74.0741 76.6054 73.3534 77.2207 72.8437C77.8183 72.3339 78.3281 71.912 78.3457 71.8944C78.3633 71.8944 78.3457 72.0351 78.2754 72.1933ZM31.9219 73.828C32.9414 74.0214 33.7851 74.1796 33.8203 74.1796C33.8554 74.1796 34.2949 74.7597 34.8222 75.4452C35.3496 76.1484 36.0351 77.0273 36.3691 77.3964C36.7031 77.7655 36.914 78.0995 36.8613 78.1523C36.7031 78.3105 33.2402 76.5878 31.8164 75.621C31.0957 75.1288 30.0586 74.3378 29.5312 73.8456L28.5644 72.9491L29.3203 73.2128C29.7422 73.3534 30.9023 73.6347 31.9219 73.828ZM46.7051 75.6386C47.3027 76.5351 48.3398 77.9413 49.0254 78.7851C50.5195 80.6484 50.5898 80.5956 46.9336 80.3495C42.4336 80.0155 42.9433 80.2265 40.6054 77.8886C39.4804 76.7636 38.3027 75.5155 37.9863 75.0937L37.4062 74.3554L39.6738 74.3378C40.9043 74.3202 42.4336 74.2499 43.0664 74.1796C45.6855 73.8984 45.4746 73.8105 46.7051 75.6386ZM70.4883 79.3124C70.1894 80.2089 69.6972 81.3691 69.3808 81.914C68.7832 82.9511 67.3945 84.5507 67.0781 84.5507C66.9199 84.5507 65.5488 81.0878 65.3554 80.2089C65.3203 80.0859 66.041 79.6464 67.0078 79.2245C67.9394 78.7851 69.2051 78.1698 69.8203 77.8359C70.5761 77.414 70.9453 77.2909 70.9804 77.4491C71.0156 77.5722 70.7871 78.3984 70.4883 79.3124ZM36.4219 80.9648C37.248 81.2987 38.7597 81.7734 39.7617 82.0194C40.957 82.3183 41.7832 82.6347 42.1875 82.9511C43.207 83.7421 45.0176 84.9374 46.4062 85.7284C47.1269 86.1503 47.6367 86.4843 47.5488 86.4843C47.1972 86.4843 44.2969 85.6405 43.0312 85.1659C41.5547 84.6034 39.4453 83.5839 37.7929 82.6171C36.5097 81.8612 33.9961 80.0331 34.541 80.2441C34.7344 80.3319 35.5781 80.6484 36.4219 80.9648ZM63.457 83.0917C63.8613 84.2343 64.248 85.2714 64.2832 85.3769C64.3535 85.5351 64.125 85.6054 63.5273 85.6054C61.8398 85.6054 59.7832 84.8319 57.6035 83.373L56.3554 82.5468L57.832 82.2128C58.6582 82.0194 59.959 81.703 60.7324 81.4745C61.5058 81.246 62.2617 81.0702 62.4199 81.0527C62.6308 81.0351 62.9121 81.5976 63.457 83.0917ZM54.1933 84.1464C54.9843 84.7968 55.9863 85.5351 56.4082 85.8163C57.0937 86.2382 57.1465 86.3085 56.7597 86.3085C56.0742 86.3085 53.2793 85.6581 51.9258 85.2011C51.2402 84.955 49.9394 84.4277 49.0254 84.0058L47.373 83.2323L49.6582 83.1444C50.9238 83.0917 52.1191 83.0214 52.3476 83.0038C52.6113 82.9862 53.2265 83.3554 54.1933 84.1464Z" fill="url(#paint9_radial_921_15863)"/>
<path d="M84.375 26.0684C84.1465 26.1914 83.8301 26.4902 83.6895 26.7363C83.4434 27.1758 83.4961 27.3516 84.3047 29.4609C84.7793 30.709 85.3066 31.8691 85.4824 32.0274C85.957 32.5195 86.9063 32.4316 87.3633 31.8691C87.8555 31.2539 87.7852 30.8496 86.8535 28.4766C85.9043 26.1035 85.3594 25.5762 84.375 26.0684Z" fill="url(#paint10_radial_921_15863)"/>
<path d="M4.44726 26.2793C3.97266 26.4727 3.81445 26.7539 3.19922 28.336C2.03906 31.3067 1.98633 31.5703 2.4082 32.1328C2.6543 32.4668 2.95312 32.625 3.41016 32.6602C4.30664 32.7305 4.64062 32.3965 5.11523 30.9551C5.32617 30.3223 5.69531 29.3731 5.92383 28.8633C6.55664 27.4043 6.43359 26.5606 5.48437 26.2266C5.13281 26.1035 4.83398 26.1211 4.44726 26.2793Z" fill="url(#paint11_radial_921_15863)"/>
<path d="M86.5371 34.0311C86.0273 34.5409 86.0273 34.5584 86.625 37.7752C86.8887 39.2166 87.0469 39.6737 87.3633 39.9373C87.8906 40.3592 88.4707 40.3416 89.0508 39.8494C89.6308 39.3397 89.6484 38.7772 89.1035 36.158C88.6992 34.1717 88.3301 33.5741 87.5039 33.5741C87.1875 33.5741 86.8183 33.7498 86.5371 34.0311Z" fill="url(#paint12_radial_921_15863)"/>
<path d="M1.58201 34.4178C1.14255 34.7694 0.632786 36.7557 0.421849 38.9002C0.31638 39.9901 0.333958 40.1307 0.703099 40.5174C1.21286 41.0624 2.14451 41.0975 2.63669 40.6053C2.83005 40.412 2.98826 40.1834 2.98826 40.0956C2.98826 40.0077 3.14646 39.0057 3.33982 37.8807C3.79685 35.1737 3.79685 34.91 3.23435 34.4706C2.65427 34.0135 2.09177 33.9959 1.58201 34.4178Z" fill="url(#paint13_radial_921_15863)"/>
<path d="M0.439453 42.9785C0.0175781 43.3828 0 43.5058 0 45.4746C0.0175781 47.7949 0.193359 48.832 0.632812 49.166C1.14258 49.5351 2.00391 49.4472 2.42578 48.9902C2.77734 48.6211 2.8125 48.3925 2.8125 46.2832C2.8125 43.8925 2.63672 42.9961 2.10938 42.7148C1.54688 42.416 0.878906 42.5215 0.439453 42.9785Z" fill="url(#paint14_radial_921_15863)"/>
<path d="M1.17771 51.1875C0.580052 51.6445 0.562474 52.207 1.00193 54.4043C1.51169 56.9004 1.68747 57.3046 2.35544 57.6386C2.7949 57.8496 2.93552 57.832 3.44529 57.5859C4.25388 57.1992 4.34177 56.6718 3.90232 54.7734C3.69138 53.8945 3.48044 52.875 3.41013 52.5058C3.25193 51.5566 2.74216 50.9765 2.03904 50.9765C1.72263 50.9765 1.33591 51.082 1.17771 51.1875Z" fill="url(#paint15_radial_921_15863)"/>
<path d="M3.25193 59.5018C2.68943 60.0467 2.70701 60.3983 3.26951 61.8397C4.166 64.1072 4.90428 65.3904 5.39647 65.5838C6.24022 65.9002 7.20701 65.2674 7.20701 64.3885C7.20701 63.8084 5.43162 59.8709 4.97459 59.449C4.41209 58.9393 3.77928 58.9568 3.25193 59.5018Z" fill="url(#paint16_radial_921_15863)"/>
<path d="M7.27734 66.8319C6.89062 67.0076 6.50391 67.658 6.50391 68.0975C6.50391 68.3963 8.36719 71.244 9.12305 72.1229C9.80859 72.8963 10.6523 73.0194 11.25 72.4217C11.8477 71.824 11.707 71.0682 10.7402 69.7322C10.2656 69.0819 9.65039 68.203 9.38672 67.7635C8.71875 66.7088 8.08594 66.4276 7.27734 66.8319Z" fill="url(#paint17_radial_921_15863)"/>
<path d="M12.1992 73.7051C11.8476 74.0215 11.7246 74.2676 11.7422 74.707C11.7597 75.1992 12.0058 75.5508 13.3945 76.957C15.2226 78.8027 15.7851 79.1543 16.5586 78.8906C17.1387 78.6797 17.4023 78.2754 17.4023 77.6074C17.4023 77.2383 16.998 76.7285 15.6972 75.4102C13.4121 73.125 13.0605 72.9668 12.1992 73.7051Z" fill="url(#paint18_radial_921_15863)"/>
<path d="M18.5449 79.3124C17.9824 79.8045 17.877 80.6307 18.2988 81.1405C18.5625 81.4569 20.5313 82.8104 21.8496 83.5663C22.7637 84.1112 23.3086 84.0936 23.9063 83.4959C24.293 83.1092 24.3633 82.3182 24.0293 81.8963C23.6953 81.4569 19.9863 79.0838 19.4941 78.9784C19.1777 78.9256 18.8965 79.0135 18.5449 79.3124Z" fill="url(#paint19_radial_921_15863)"/>
<path d="M25.6641 83.6717C25.2422 84.0936 25.2071 84.8494 25.5762 85.3768C25.8574 85.7811 29.3379 87.328 30.3399 87.4862C31.1836 87.6268 31.8164 87.0467 31.8164 86.0975C31.8164 85.2889 31.6758 85.1834 29.0391 84.1287C26.8242 83.2323 26.1914 83.1444 25.6641 83.6717Z" fill="url(#paint20_radial_921_15863)"/>
<path d="M34.1719 86.1328C33.6797 86.3262 33.2227 86.9766 33.2227 87.4687C33.2227 88.2949 33.75 88.6113 35.877 89.0508C38.4434 89.5781 39.252 89.5957 39.7266 89.0859C40.166 88.6113 40.1836 87.873 39.7617 87.3633C39.5156 87.0644 38.9883 86.8887 37.2656 86.5547C36.0527 86.3086 34.9453 86.0976 34.8047 86.0449C34.6641 86.0098 34.3652 86.0449 34.1719 86.1328Z" fill="url(#paint21_radial_921_15863)"/>
</g>
<defs>
<radialGradient id="paint0_radial_921_15863" cx="0" cy="0" r="1" gradientUnits="userSpaceOnUse" gradientTransform="translate(38.7592 2.50378) rotate(-17.7535) scale(10.8691 6.73858)">
<stop stop-color="#10923E"/>
<stop offset="0.627261" stop-color="#0057BC"/>
</radialGradient>
<radialGradient id="paint1_radial_921_15863" cx="0" cy="0" r="1" gradientUnits="userSpaceOnUse" gradientTransform="translate(46.8436 2.41286) rotate(-17.375) scale(10.7756 6.55631)">
<stop stop-color="#10923E"/>
<stop offset="0.627261" stop-color="#0057BC"/>
</radialGradient>
<radialGradient id="paint2_radial_921_15863" cx="0" cy="0" r="1" gradientUnits="userSpaceOnUse" gradientTransform="translate(54.8289 4.14848) rotate(-22.2449) scale(10.9552 8.19498)">
<stop stop-color="#10923E"/>
<stop offset="0.627261" stop-color="#0057BC"/>
</radialGradient>
<radialGradient id="paint3_radial_921_15863" cx="0" cy="0" r="1" gradientUnits="userSpaceOnUse" gradientTransform="translate(30.9701 4.18788) rotate(-21.4202) scale(10.7775 7.82255)">
<stop stop-color="#10923E"/>
<stop offset="0.627261" stop-color="#0057BC"/>
</radialGradient>
<radialGradient id="paint4_radial_921_15863" cx="0" cy="0" r="1" gradientUnits="userSpaceOnUse" gradientTransform="translate(8.33749 21.8781) rotate(-32.5682) scale(46.1049 44.6529)">
<stop stop-color="#10923E"/>
<stop offset="0.627261" stop-color="#0057BC"/>
</radialGradient>
<radialGradient id="paint5_radial_921_15863" cx="0" cy="0" r="1" gradientUnits="userSpaceOnUse" gradientTransform="translate(62.3802 7.18665) rotate(-25.3122) scale(10.8779 8.97578)">
<stop stop-color="#10923E"/>
<stop offset="0.627261" stop-color="#0057BC"/>
</radialGradient>
<radialGradient id="paint6_radial_921_15863" cx="0" cy="0" r="1" gradientUnits="userSpaceOnUse" gradientTransform="translate(69.378 11.6287) rotate(-30.6813) scale(10.6707 9.99705)">
<stop stop-color="#10923E"/>
<stop offset="0.627261" stop-color="#0057BC"/>
</radialGradient>
<radialGradient id="paint7_radial_921_15863" cx="0" cy="0" r="1" gradientUnits="userSpaceOnUse" gradientTransform="translate(75.4916 17.2168) rotate(-36.3877) scale(10.2731 10.4742)">
<stop stop-color="#10923E"/>
<stop offset="0.627261" stop-color="#0057BC"/>
</radialGradient>
<radialGradient id="paint8_radial_921_15863" cx="0" cy="0" r="1" gradientUnits="userSpaceOnUse" gradientTransform="translate(80.5524 23.7362) rotate(-41.7374) scale(9.82971 10.4247)">
<stop stop-color="#10923E"/>
<stop offset="0.627261" stop-color="#0057BC"/>
</radialGradient>
<radialGradient id="paint9_radial_921_15863" cx="0" cy="0" r="1" gradientUnits="userSpaceOnUse" gradientTransform="translate(32.9424 75.8159) rotate(-34.8033) scale(133.222 133.294)">
<stop stop-color="#10923E"/>
<stop offset="0.627261" stop-color="#0057BC"/>
</radialGradient>
<radialGradient id="paint10_radial_921_15863" cx="0" cy="0" r="1" gradientUnits="userSpaceOnUse" gradientTransform="translate(84.3581 31.0594) rotate(-47.4857) scale(9.38234 9.97746)">
<stop stop-color="#10923E"/>
<stop offset="0.627261" stop-color="#0057BC"/>
</radialGradient>
<radialGradient id="paint11_radial_921_15863" cx="0" cy="0" r="1" gradientUnits="userSpaceOnUse" gradientTransform="translate(2.97354 31.3644) rotate(-47.5044) scale(9.48763 10.0889)">
<stop stop-color="#10923E"/>
<stop offset="0.627261" stop-color="#0057BC"/>
</radialGradient>
<radialGradient id="paint12_radial_921_15863" cx="0" cy="0" r="1" gradientUnits="userSpaceOnUse" gradientTransform="translate(86.8135 38.9047) rotate(-54.2193) scale(8.80828 8.91967)">
<stop stop-color="#10923E"/>
<stop offset="0.627261" stop-color="#0057BC"/>
</radialGradient>
<radialGradient id="paint13_radial_921_15863" cx="0" cy="0" r="1" gradientUnits="userSpaceOnUse" gradientTransform="translate(1.00845 39.5842) rotate(-55.1593) scale(8.93431 8.94347)">
<stop stop-color="#10923E"/>
<stop offset="0.627261" stop-color="#0057BC"/>
</radialGradient>
<radialGradient id="paint14_radial_921_15863" cx="0" cy="0" r="1" gradientUnits="userSpaceOnUse" gradientTransform="translate(0.546917 48.026) rotate(-59.3998) scale(8.53381 7.98263)">
<stop stop-color="#10923E"/>
<stop offset="0.627261" stop-color="#0057BC"/>
</radialGradient>
<radialGradient id="paint15_radial_921_15863" cx="0" cy="0" r="1" gradientUnits="userSpaceOnUse" gradientTransform="translate(1.37168 56.4231) rotate(-53.7431) scale(9.05436 9.2184)">
<stop stop-color="#10923E"/>
<stop offset="0.627261" stop-color="#0057BC"/>
</radialGradient>
<radialGradient id="paint16_radial_921_15863" cx="0" cy="0" r="1" gradientUnits="userSpaceOnUse" gradientTransform="translate(3.6882 64.3492) rotate(-46.315) scale(9.76853 10.4164)">
<stop stop-color="#10923E"/>
<stop offset="0.627261" stop-color="#0057BC"/>
</radialGradient>
<radialGradient id="paint17_radial_921_15863" cx="0" cy="0" r="1" gradientUnits="userSpaceOnUse" gradientTransform="translate(7.4963 71.57) rotate(-39.8895) scale(10.2732 10.792)">
<stop stop-color="#10923E"/>
<stop offset="0.627261" stop-color="#0057BC"/>
</radialGradient>
<radialGradient id="paint18_radial_921_15863" cx="0" cy="0" r="1" gradientUnits="userSpaceOnUse" gradientTransform="translate(12.8415 77.8369) rotate(-34.7507) scale(10.6433 10.6418)">
<stop stop-color="#10923E"/>
<stop offset="0.627261" stop-color="#0057BC"/>
</radialGradient>
<radialGradient id="paint19_radial_921_15863" cx="0" cy="0" r="1" gradientUnits="userSpaceOnUse" gradientTransform="translate(19.247 82.961) rotate(-29.2203) scale(10.9758 9.98328)">
<stop stop-color="#10923E"/>
<stop offset="0.627261" stop-color="#0057BC"/>
</radialGradient>
<radialGradient id="paint20_radial_921_15863" cx="0" cy="0" r="1" gradientUnits="userSpaceOnUse" gradientTransform="translate(26.5847 86.675) rotate(-23.9786) scale(10.979 8.70343)">
<stop stop-color="#10923E"/>
<stop offset="0.627261" stop-color="#0057BC"/>
</radialGradient>
<radialGradient id="paint21_radial_921_15863" cx="0" cy="0" r="1" gradientUnits="userSpaceOnUse" gradientTransform="translate(34.5537 88.7723) rotate(-19.1641) scale(11.1925 7.40932)">
<stop stop-color="#10923E"/>
<stop offset="0.627261" stop-color="#0057BC"/>
</radialGradient>
<clipPath id="clip0_921_15863">
<rect width="90" height="90" fill="white"/>
</clipPath>
</defs>
</svg>
