<svg width="92" height="80" viewBox="0 0 92 80" fill="none" xmlns="http://www.w3.org/2000/svg">
<g clip-path="url(#clip0_510_1337)">
<path d="M0.682908 0.972176L0.0899395 1.49592L0.0360332 32.9024C9.57157e-05 54.4661 0.0360332 64.4894 0.179783 64.9409C0.287596 65.3202 0.575096 65.7536 0.862596 65.9342C1.32978 66.2593 2.22822 66.2774 22.6767 66.3315L44.0235 66.3677V71.0633V75.7589H28.2649C12.9196 75.7589 12.4704 75.777 11.9134 76.1201C10.8712 76.7522 10.8173 78.3234 11.8056 79.1361L12.3087 79.5515H46.0001H79.6915L80.1946 79.1361C81.1829 78.3234 81.129 76.7522 80.0868 76.1201C79.5298 75.777 79.0806 75.7589 63.7532 75.7589H47.9767V71.0633V66.3857L57.1946 66.3315C65.6399 66.2774 66.4306 66.2593 66.8618 65.9523C67.7243 65.3744 67.9579 64.3991 67.4548 63.46C66.8798 62.3222 68.9103 62.3945 34.8595 62.3945H3.77353V33.3177V4.24105H46.0001H88.2267V33.3177V62.3945H85.8009C83.0337 62.3945 82.297 62.5931 81.8657 63.46C81.5063 64.1282 81.5063 64.6158 81.8298 65.2479C82.3149 66.1871 82.7282 66.2774 86.861 66.2774C91.1556 66.2774 91.461 66.1871 91.8204 64.9409C91.9642 64.4894 92.0001 54.4661 91.9642 32.9024L91.9103 1.49592L91.3173 0.972176L90.7423 0.448433H46.0001H1.25791L0.682908 0.972176Z" fill="url(#paint0_radial_510_1337)"/>
<path d="M16.064 9.91197C15.5969 10.3815 15.4531 10.6705 15.4531 11.1942C15.4531 11.718 15.5969 12.0069 16.064 12.4765L16.675 13.0905H19.3883H22.1015V20.3687V27.665L16.4054 41.2823C12.5062 50.6374 10.7094 55.1163 10.7094 55.5859C10.7094 56.1096 10.8172 56.3805 11.2844 56.8501L11.8594 57.428L28.4086 57.4822C39.7828 57.5183 45.1554 57.4641 45.6586 57.3377C46.575 57.0849 47.132 56.2722 47.0242 55.3511C46.9703 55.008 44.1851 48.6508 40.807 41.2462L34.6797 27.7734V20.4229V13.0905H37.357C40.3578 13.0905 40.7531 12.9461 41.1484 11.736C41.3281 11.1942 41.3101 10.9956 41.0226 10.4357C40.8429 10.0565 40.5015 9.65913 40.25 9.53271C39.9086 9.35211 37.0875 9.29793 28.2289 9.29793H16.675L16.064 9.91197ZM30.9062 20.8925V28.7125L32.5054 32.2342L34.0867 35.7559L31.3375 35.8101C29.8281 35.8282 27.3125 35.8282 25.7312 35.8101L22.8922 35.7559L24.3297 32.3245L25.7851 28.8931L25.839 20.9828L25.8929 13.0905H28.3906H30.9062V20.8925ZM38.9742 46.5017C40.6992 50.2762 42.0648 53.4187 42.0109 53.4548C41.957 53.509 35.9734 53.527 28.714 53.509L15.507 53.4548L18.382 46.5378L21.257 39.6388H28.5523H35.8656L38.9742 46.5017Z" fill="url(#paint1_radial_510_1337)"/>
<path d="M27.2945 42.4021C26.5938 42.8716 26.0547 43.8288 26.0547 44.6054C26.0547 45.382 26.7555 46.5017 27.4922 46.881C29.1812 47.802 31.1937 46.7365 31.3914 44.8221C31.5352 43.287 30.3312 41.9867 28.75 41.9867C28.175 41.9867 27.7078 42.1131 27.2945 42.4021Z" fill="url(#paint2_radial_510_1337)"/>
<path d="M23.1797 46.6461C21.832 47.3143 21.3109 49.1384 22.1016 50.4387C22.4789 51.0527 23.6648 51.739 24.3476 51.739C25.0305 51.739 26.2164 51.0527 26.5937 50.4387C27.6359 48.723 26.3242 46.321 24.3476 46.321C24.0601 46.321 23.5211 46.4655 23.1797 46.6461Z" fill="url(#paint3_radial_510_1337)"/>
<path d="M31.9844 46.6461C30.6367 47.3143 30.1156 49.1384 30.9062 50.4387C31.2836 51.0527 32.4695 51.739 33.1523 51.739C33.8351 51.739 35.0211 51.0527 35.3984 50.4387C36.4406 48.723 35.1289 46.321 33.1523 46.321C32.8648 46.321 32.3258 46.4655 31.9844 46.6461Z" fill="url(#paint4_radial_510_1337)"/>
<path d="M47.3476 9.51468C46 10.2551 46.0179 12.1876 47.3836 12.8919C47.6531 13.0364 52.325 13.0906 63.7351 13.0906H79.6914L80.1945 12.6752C81.1828 11.8625 81.1289 10.2913 80.0867 9.65916C79.5297 9.31602 79.0805 9.29796 63.6094 9.29796C52.3969 9.31602 47.5992 9.3702 47.3476 9.51468Z" fill="url(#paint5_radial_510_1337)"/>
<path d="M47.2578 18.4543C46.557 18.942 46.3773 19.2671 46.3594 20.0798C46.3594 20.6757 46.4672 20.9466 46.9164 21.3801L47.4734 21.9399H63.6094H79.7633L80.2305 21.5246C81.1828 20.6938 81.1109 19.1226 80.0867 18.5085C79.5297 18.1654 79.0805 18.1473 63.6094 18.1473C48.9109 18.1473 47.6711 18.1654 47.2578 18.4543Z" fill="url(#paint6_radial_510_1337)"/>
<path d="M55.3617 28.911C55.0383 29.1819 54.7687 29.5973 54.7148 29.9404C54.6609 30.2655 55.3797 36.8213 56.314 44.5149L58.0031 58.4934L58.5601 58.999C59.5304 59.8659 59.9976 59.7395 63.8969 57.6084C65.8015 56.5609 67.4367 55.7121 67.5265 55.7121C67.6344 55.7121 68.9461 58.096 70.4554 60.9857C72.0008 63.9475 73.4562 66.5301 73.7797 66.8732C74.9656 68.0833 76.9062 67.2344 76.9062 65.5007C76.9062 65.2298 75.6664 62.6472 74.0133 59.5047C72.432 56.4706 71.1203 53.9242 71.1023 53.8519C71.0844 53.7616 72.7554 52.7864 74.8039 51.6667C78.7211 49.5175 79.314 49.1021 79.5117 48.3617C79.7992 47.2058 79.7094 47.1155 69.4133 38.5189C56.4398 27.719 57.3742 28.4414 56.5836 28.4414C56.1164 28.4414 55.739 28.5859 55.3617 28.911ZM74.0492 47.6212C73.8695 47.8018 61.6867 54.4479 61.507 54.4479C61.3992 54.4479 59.0992 35.9725 59.1172 35.1778C59.1172 35.0514 62.5133 37.7604 66.6461 41.2279C70.7789 44.6774 74.1211 47.549 74.0492 47.6212Z" fill="url(#paint7_radial_510_1337)"/>
</g>
<defs>
<radialGradient id="paint0_radial_510_1337" cx="0" cy="0" r="1" gradientUnits="userSpaceOnUse" gradientTransform="translate(17.9044 63.7318) rotate(-30.8493) scale(165.435 155.484)">
<stop stop-color="#10923E"/>
<stop offset="0.627261" stop-color="#0057BC"/>
</radialGradient>
<radialGradient id="paint1_radial_510_1337" cx="0" cy="0" r="1" gradientUnits="userSpaceOnUse" gradientTransform="translate(17.7737 47.8547) rotate(-42.6491) scale(76.2879 81.1592)">
<stop stop-color="#10923E"/>
<stop offset="0.627261" stop-color="#0057BC"/>
</radialGradient>
<radialGradient id="paint2_radial_510_1337" cx="0" cy="0" r="1" gradientUnits="userSpaceOnUse" gradientTransform="translate(27.0947 46.171) rotate(-34.1765) scale(9.98523 9.90699)">
<stop stop-color="#10923E"/>
<stop offset="0.627261" stop-color="#0057BC"/>
</radialGradient>
<radialGradient id="paint3_radial_510_1337" cx="0" cy="0" r="1" gradientUnits="userSpaceOnUse" gradientTransform="translate(22.7469 50.6555) rotate(-35.7209) scale(9.95209 10.0709)">
<stop stop-color="#10923E"/>
<stop offset="0.627261" stop-color="#0057BC"/>
</radialGradient>
<radialGradient id="paint4_radial_510_1337" cx="0" cy="0" r="1" gradientUnits="userSpaceOnUse" gradientTransform="translate(31.5515 50.6555) rotate(-35.7209) scale(9.95209 10.0709)">
<stop stop-color="#10923E"/>
<stop offset="0.627261" stop-color="#0057BC"/>
</radialGradient>
<radialGradient id="paint5_radial_510_1337" cx="0" cy="0" r="1" gradientUnits="userSpaceOnUse" gradientTransform="translate(53.0676 12.3321) rotate(-4.35782) scale(53.5274 8.65809)">
<stop stop-color="#10923E"/>
<stop offset="0.627261" stop-color="#0057BC"/>
</radialGradient>
<radialGradient id="paint6_radial_510_1337" cx="0" cy="0" r="1" gradientUnits="userSpaceOnUse" gradientTransform="translate(53.0765 21.1815) rotate(-4.3594) scale(53.5081 8.65808)">
<stop stop-color="#10923E"/>
<stop offset="0.627261" stop-color="#0057BC"/>
</radialGradient>
<radialGradient id="paint7_radial_510_1337" cx="0" cy="0" r="1" gradientUnits="userSpaceOnUse" gradientTransform="translate(59.5484 59.6395) rotate(-47.4398) scale(56.7968 60.4078)">
<stop stop-color="#10923E"/>
<stop offset="0.627261" stop-color="#0057BC"/>
</radialGradient>
<clipPath id="clip0_510_1337">
<rect width="92" height="80" fill="white"/>
</clipPath>
</defs>
</svg>
