<svg width="100" height="99" viewBox="0 0 100 99" fill="none" xmlns="http://www.w3.org/2000/svg">
<path d="M31.8943 1.88613C30.8238 2.14102 29.9912 2.65078 29.1586 3.56836C28.1561 4.68985 27.8672 5.6584 27.8672 7.85039V9.51563H23.7551C18.0457 9.51563 16.6863 9.85547 14.6473 11.7756C13.5768 12.8121 12.999 13.7297 12.5572 15.14C12.2514 16.1426 12.2344 17.298 12.2344 47.4082C12.2344 77.9602 12.2344 78.6568 12.5742 79.7104C13.3049 82.1232 15.0381 83.9074 17.502 84.808L18.6064 85.2158H43.585H68.5635L69.532 84.842C71.9279 83.9244 73.7121 82.0723 74.4258 79.7104C74.7656 78.6568 74.7656 77.9602 74.7656 47.4082C74.7656 17.298 74.7486 16.1426 74.4428 15.14C74.001 13.7297 73.4232 12.8121 72.3527 11.7756C70.3137 9.85547 68.9543 9.51563 63.2619 9.51563H59.1328V7.8334C59.1328 6.72891 59.0309 5.86231 58.8439 5.26758C58.4701 4.09512 57.2127 2.71875 56.0402 2.19199L55.1396 1.78418L43.8398 1.7502C37.5697 1.7332 32.2512 1.80117 31.8943 1.88613ZM53.8652 12.1494V17.332H43.5H33.1348V12.1494V6.9668H43.5H53.8652V12.1494ZM27.8672 16.5674C27.8672 17.9438 27.9521 18.5555 28.224 19.2861C28.6998 20.5436 29.9232 21.767 31.1807 22.2428C32.0982 22.5996 32.3871 22.5996 43.5 22.5996C54.6129 22.5996 54.9018 22.5996 55.8193 22.2428C57.0768 21.767 58.3002 20.5436 58.776 19.2861C59.0479 18.5385 59.1328 17.9438 59.1328 16.5504V14.7662L63.5338 14.8172C67.7139 14.8682 67.9687 14.8852 68.4275 15.225C68.6824 15.4289 69.0562 15.8367 69.2432 16.1596C69.583 16.7373 69.583 17.0432 69.583 47.4082C69.583 77.7732 69.583 78.0791 69.2432 78.6568C69.0562 78.9797 68.6824 79.3875 68.4275 79.5914L67.9518 79.9482H43.5H19.0482L18.5725 79.5914C18.3176 79.3875 17.9437 78.9797 17.7568 78.6568C17.417 78.0791 17.417 77.7393 17.366 47.765C17.349 27.6803 17.383 17.2471 17.502 16.8223C17.6039 16.4824 17.8418 15.9727 18.0457 15.7178C18.7084 14.8682 19.0992 14.8002 23.6701 14.7832H27.8672V16.5674Z" fill="url(#paint0_radial_912_15849)"/>
<path d="M42.3105 28.173C41.9876 28.3259 41.5459 28.7167 41.3419 29.0396C40.9681 29.5833 40.9511 29.7872 40.9511 32.6419V35.6835H38.0285C35.5646 35.6835 34.9869 35.7345 34.4941 35.9894C32.7099 36.873 32.6589 39.4898 34.4091 40.5603C34.8339 40.8151 35.3607 40.8661 37.9265 40.9171L40.9341 40.9851L40.9851 44.0607C41.0361 47.4591 41.1041 47.697 42.2255 48.3597C43.2791 48.9884 44.8423 48.6315 45.624 47.612C45.9298 47.2042 45.9638 46.8474 46.0148 44.0607L46.0658 40.9851L49.0734 40.9171C51.6392 40.8661 52.166 40.8151 52.5908 40.5603C54.341 39.4898 54.29 36.873 52.5058 35.9894C52.013 35.7345 51.4353 35.6835 48.9884 35.6835H46.0488V32.6419C46.0488 29.7872 46.0318 29.5833 45.658 29.0396C45.1992 28.3429 44.3156 27.8671 43.5 27.8671C43.1771 27.8671 42.6334 28.003 42.3105 28.173Z" fill="url(#paint1_radial_912_15849)"/>
<path d="M27.2045 54.0352C26.4568 54.2051 25.5053 55.1736 25.3354 55.9213C25.0975 57.0428 25.5732 58.1982 26.5588 58.793C27.0855 59.1158 27.5443 59.1328 43.5 59.1328C59.4557 59.1328 59.9145 59.1158 60.4412 58.793C61.4098 58.2152 61.9025 57.0598 61.6647 55.9213C61.5117 55.1566 60.5432 54.2221 59.7105 54.0352C58.8949 53.8313 28.0201 53.8482 27.2045 54.0352Z" fill="url(#paint2_radial_912_15849)"/>
<path d="M31.7753 64.7742C30.4839 65.6578 30.1271 66.8643 30.7898 68.1387C31.0107 68.5805 31.4185 69.0393 31.7753 69.2432C32.3531 69.583 32.6419 69.583 43.4999 69.583C54.358 69.583 54.6468 69.583 55.2246 69.2432C55.5814 69.0393 55.9892 68.5805 56.2101 68.1387C56.8728 66.8643 56.516 65.6578 55.2246 64.7742L54.6638 64.4004H43.4999H32.3361L31.7753 64.7742Z" fill="url(#paint3_radial_912_15849)"/>
<path d="M72.5 59.5L58.5 68V83.5L73.5 92.5L87 84.5V68L72.5 59.5Z" fill="white" stroke="black" stroke-width="0.9375"/>
<path d="M79.4167 71.4168L66.0333 63.5334" stroke="#14181F" stroke-width="2.58824" stroke-linecap="round" stroke-linejoin="round"/>
<path d="M79.4167 71.4168L66.0333 63.5334" stroke="url(#paint4_radial_912_15849)" stroke-width="2.58824" stroke-linecap="round" stroke-linejoin="round"/>
<path d="M87.6667 82.6014V69.3986C87.6661 68.8198 87.5152 68.2513 87.2292 67.7502C86.9432 67.2491 86.5321 66.833 86.0371 66.5436L74.6297 59.9422C74.1342 59.6525 73.5722 59.5 73 59.5C72.4279 59.5 71.8659 59.6525 71.3704 59.9422L59.963 66.5436C59.468 66.833 59.0569 67.2491 58.7709 67.7502C58.4848 68.2513 58.334 68.8198 58.3334 69.3986V82.6014C58.334 83.1802 58.4848 83.7486 58.7709 84.2498C59.0569 84.7509 59.468 85.167 59.963 85.4564L71.3704 92.0578C71.8659 92.3475 72.4279 92.5 73 92.5C73.5722 92.5 74.1342 92.3475 74.6297 92.0578L86.0371 85.4564C86.5321 85.167 86.9432 84.7509 87.2292 84.2498C87.5152 83.7486 87.6661 83.1802 87.6667 82.6014Z" stroke="#14181F" stroke-width="2.58824" stroke-linecap="round" stroke-linejoin="round"/>
<path d="M87.6667 82.6014V69.3986C87.6661 68.8198 87.5152 68.2513 87.2292 67.7502C86.9432 67.2491 86.5321 66.833 86.0371 66.5436L74.6297 59.9422C74.1342 59.6525 73.5722 59.5 73 59.5C72.4279 59.5 71.8659 59.6525 71.3704 59.9422L59.963 66.5436C59.468 66.833 59.0569 67.2491 58.7709 67.7502C58.4848 68.2513 58.334 68.8198 58.3334 69.3986V82.6014C58.334 83.1802 58.4848 83.7486 58.7709 84.2498C59.0569 84.7509 59.468 85.167 59.963 85.4564L71.3704 92.0578C71.8659 92.3475 72.4279 92.5 73 92.5C73.5722 92.5 74.1342 92.3475 74.6297 92.0578L86.0371 85.4564C86.5321 85.167 86.9432 84.7509 87.2292 84.2498C87.5152 83.7486 87.6661 83.1802 87.6667 82.6014Z" stroke="url(#paint5_radial_912_15849)" stroke-width="2.58824" stroke-linecap="round" stroke-linejoin="round"/>
<path d="M60.1666 68.6665L73 75.9998L85.8333 68.6665" stroke="#14181F" stroke-width="2.58824" stroke-linecap="round" stroke-linejoin="round"/>
<path d="M60.1666 68.6665L73 75.9998L85.8333 68.6665" stroke="url(#paint6_radial_912_15849)" stroke-width="2.58824" stroke-linecap="round" stroke-linejoin="round"/>
<path d="M73 92.5V76" stroke="#14181F" stroke-width="2.58824" stroke-linecap="round" stroke-linejoin="round"/>
<path d="M73 92.5V76" stroke="url(#paint7_radial_912_15849)" stroke-width="2.58824" stroke-linecap="round" stroke-linejoin="round"/>
<defs>
<radialGradient id="paint0_radial_912_15849" cx="0" cy="0" r="1" gradientUnits="userSpaceOnUse" gradientTransform="translate(24.3942 68.5232) rotate(-42.8242) scale(131.685 140.161)">
<stop stop-color="#10923E"/>
<stop offset="0.627261" stop-color="#0057BC"/>
</radialGradient>
<radialGradient id="paint1_radial_912_15849" cx="0" cy="0" r="1" gradientUnits="userSpaceOnUse" gradientTransform="translate(37.1605 44.5112) rotate(-34.8458) scale(39.0491 39.0917)">
<stop stop-color="#10923E"/>
<stop offset="0.627261" stop-color="#0057BC"/>
</radialGradient>
<radialGradient id="paint2_radial_912_15849" cx="0" cy="0" r="1" gradientUnits="userSpaceOnUse" gradientTransform="translate(32.3627 58.084) rotate(-5.70485) scale(56.578 11.9473)">
<stop stop-color="#10923E"/>
<stop offset="0.627261" stop-color="#0057BC"/>
</radialGradient>
<radialGradient id="paint3_radial_912_15849" cx="0" cy="0" r="1" gradientUnits="userSpaceOnUse" gradientTransform="translate(35.5338 68.5465) rotate(-7.85807) scale(40.6522 11.7542)">
<stop stop-color="#10923E"/>
<stop offset="0.627261" stop-color="#0057BC"/>
</radialGradient>
<radialGradient id="paint4_radial_912_15849" cx="0" cy="0" r="1" gradientUnits="userSpaceOnUse" gradientTransform="translate(68.6358 65.11) rotate(22.2437) scale(22.3334 16.7057)">
<stop stop-color="#10923E"/>
<stop offset="0.627261" stop-color="#0057BC"/>
</radialGradient>
<radialGradient id="paint5_radial_912_15849" cx="0" cy="0" r="1" gradientUnits="userSpaceOnUse" gradientTransform="translate(64.0375 66.0996) rotate(37.9938) scale(57.4907 59.5421)">
<stop stop-color="#10923E"/>
<stop offset="0.627261" stop-color="#0057BC"/>
</radialGradient>
<radialGradient id="paint6_radial_912_15849" cx="0" cy="0" r="1" gradientUnits="userSpaceOnUse" gradientTransform="translate(65.1577 70.1331) rotate(11.2205) scale(40.4163 16.4688)">
<stop stop-color="#10923E"/>
<stop offset="0.627261" stop-color="#0057BC"/>
</radialGradient>
<radialGradient id="paint7_radial_912_15849" cx="0" cy="0" r="1" gradientUnits="userSpaceOnUse" gradientTransform="translate(73.1945 79.2998) rotate(85.0114) scale(17.7622 3.28498)">
<stop stop-color="#10923E"/>
<stop offset="0.627261" stop-color="#0057BC"/>
</radialGradient>
</defs>
</svg>
