<svg width="90" height="90" viewBox="0 0 90 90" fill="none" xmlns="http://www.w3.org/2000/svg">
<g clip-path="url(#clip0_511_1347)">
<path d="M31.746 0.175781C27.7734 0.808594 24.4159 2.49609 21.4804 5.34375C15.662 10.9688 14.1679 19.7578 17.8066 26.8066C19.8984 30.832 23.3085 34.0488 31.9042 40.0781C36.4394 43.2598 40.1659 46.0547 42.2577 47.8301C43.207 48.6387 44.2265 49.4824 44.4902 49.7109L44.9999 50.1152L45.5097 49.7109C45.7734 49.4824 46.9862 48.4805 48.1816 47.4785C50.7655 45.3164 53.9648 42.8906 58.1835 39.9023C67.4296 33.3457 70.2948 30.6387 72.4218 26.3848C74.7421 21.7441 74.6894 15.2754 72.2988 10.459C70.9628 7.80469 68.2382 4.6582 65.8652 3.09375C64.3183 2.07422 62.0507 1.08984 60.1523 0.580078C57.7441 -0.0527344 54.1757 -0.0878906 52.1366 0.492188C49.7988 1.16016 47.5312 2.44336 45.8437 4.00781L44.9999 4.79883L44.1737 4.00781C42.4862 2.44336 40.1835 1.16016 37.9511 0.527344C36.457 0.105469 33.3632 -0.0703125 31.746 0.175781ZM36.1933 5.53711C39.0937 6.22266 41.2734 8.05078 43.4882 11.6367C44.2616 12.8848 44.9296 13.8867 44.9999 13.8867C45.0702 13.8867 45.6152 13.0781 46.2304 12.0762C47.7948 9.5625 48.6034 8.52539 49.7284 7.61133C52.207 5.58984 54.8964 4.92188 58.078 5.51953C67.5351 7.33008 72.0878 18.6504 66.3925 26.1914C64.705 28.4414 62.2441 30.498 55.9687 34.998C51.539 38.1445 48.4628 40.4297 46.371 42.1348L44.9999 43.2422L43.7167 42.2051C41.9589 40.7812 38.9882 38.6016 35.0683 35.8594C28.371 31.166 25.7519 28.9688 23.9062 26.5078C21.8144 23.748 21.1816 21.9023 21.1991 18.6328C21.1991 16.2246 21.4452 14.9941 22.3417 13.043C24.7499 7.69922 31.0077 4.32422 36.1933 5.53711Z" fill="#3378C9"/>
<path d="M42.3633 18.5449V21.2695H39.7266H37.0898V23.9062V26.543H39.7266H42.3633V29.1797V31.8164H45H47.6367V29.1797V26.543H50.2734H52.9102V23.9062V21.2695H50.2734H47.6367V18.5449V15.8203H45H42.3633V18.5449Z" fill="#3378C9"/>
<path d="M4.97457 24.2402C2.63668 24.8203 1.21285 27.0527 0.421833 31.377C-0.29887 35.2793 0.228473 50.4316 1.23043 54.457C1.70504 56.3379 3.42769 59.6777 5.06246 61.875C7.08394 64.5996 9.58004 67.2363 14.9589 72.3691C21.2695 78.3984 23.8007 81.2109 25.2246 83.7598C26.0683 85.2891 26.3671 86.4668 26.3671 88.3652V90H45H63.6328V88.3652C63.6328 84.1113 65.4785 81.5273 74.9355 72.4922C80.3847 67.2715 82.8984 64.5996 84.9375 61.875C86.5722 59.6777 88.2949 56.3379 88.7695 54.457C89.2089 52.6641 89.8066 45.5801 89.9472 40.4297C90.1933 31.0957 89.0156 26.2793 86.0976 24.6973C84.9199 24.0645 83.4257 24.0117 82.3535 24.5566C81.457 25.0312 80.2089 26.3496 79.5058 27.5977C77.8711 30.498 76.1132 37.2656 74.7773 45.7559C74.4961 47.6016 74.1621 49.043 73.8105 49.957L73.2656 51.3457L72.58 50.5547C71.4902 49.3242 70.2421 48.7969 68.1504 48.7266C67.2011 48.6738 65.9355 48.7441 65.3379 48.8672C61.5234 49.6055 56.2675 52.1543 50.4492 56.0918C48.5507 57.3574 46.6171 59.1504 45.5097 60.627L45.0703 61.2246L44.2617 60.1875C42.6269 58.0605 40.7109 56.5664 36.0351 53.7539C31.9921 51.3281 28.4238 49.7109 25.5585 49.0254C23.2734 48.4805 20.707 48.5859 19.3007 49.2715C18.7382 49.5527 17.9824 50.1152 17.5957 50.5547L16.8925 51.3457L16.5586 50.6777C15.9257 49.4648 15.6269 48.2871 15.1875 45.5449C13.8339 36.9141 12.0586 30.2871 10.2832 27.2637C8.92965 24.9785 6.85543 23.7832 4.97457 24.2402ZM7.66402 34.9629C8.4023 37.6523 9.33394 42.2578 9.84371 45.7559C10.3183 49.1133 10.7402 50.6953 11.6718 52.6641C13.5351 56.6191 14.6601 57.7441 22.9043 63.9316C26.5605 66.6738 29.6543 68.959 29.7949 69.0117C30.0937 69.1348 33.1699 65.0918 32.9414 64.8809C32.8535 64.793 30.4277 62.9824 27.5625 60.8203C22.7812 57.252 22.3066 56.8477 21.8847 56.0215C21.6386 55.5293 21.4453 54.8613 21.4453 54.5625C21.4453 54.0352 21.498 53.9824 22.0253 53.9297C22.9043 53.8418 24.3808 54.1055 25.9277 54.6152C28.7753 55.5469 35.7363 59.4668 38.3203 61.5938C40.0781 63.0176 41.414 65.0039 42.1699 67.3066C42.5214 68.3965 42.539 68.7832 42.539 76.5879V84.7266H36.9316H31.3418L30.8496 83.4082C29.5136 79.752 27.0527 76.7285 19.2304 69.1699C10.1953 60.4512 7.8398 57.5859 6.59175 53.877C5.34371 50.2031 4.88668 34.0664 5.92379 30.8496C6.09957 30.3223 6.92574 32.291 7.66402 34.9629ZM84.375 32.4316C84.8847 35.9648 84.7617 42.6973 84.0937 49.834C83.4961 56.1973 82.0371 58.2891 70.541 69.3984C62.8242 76.8691 60.3984 79.875 59.0625 83.6191L58.6582 84.7266H53.2265H47.7949L47.8476 75.9727L47.9003 67.2363L48.4628 66.041C49.623 63.5977 51.0117 62.0156 53.5429 60.3281C59.1152 56.6016 64.7578 53.9824 67.3066 53.9473C67.8867 53.9297 68.4316 53.9824 68.5371 54.0527C69.0117 54.334 68.5371 55.9688 67.7109 56.8301C67.4472 57.1113 64.9687 59.0273 62.1914 61.1191C59.3964 63.1934 57.1289 64.9688 57.1289 65.0215C57.1289 65.25 60.0293 69.0293 60.205 69.0469C60.539 69.0645 73.4062 59.3262 74.6367 58.0957C77.2734 55.4766 79.1367 51.873 79.7871 48.1641C79.8925 47.5312 80.1738 45.7207 80.4375 44.1211C81.2461 38.9531 82.4765 33.9258 83.5488 31.4121C83.9882 30.375 84.0937 30.5156 84.375 32.4316Z" fill="#3378C9"/>
</g>
<defs>
<clipPath id="clip0_511_1347">
<rect width="90" height="90" fill="white"/>
</clipPath>
</defs>
</svg>
