<svg width="81" height="81" viewBox="0 0 81 81" fill="none" xmlns="http://www.w3.org/2000/svg">
<path opacity="0.978" fill-rule="evenodd" clip-rule="evenodd" d="M2.32812 0.921875C28.0573 0.921875 53.7864 0.921875 79.5156 0.921875C79.748 1.12555 80.0084 1.30785 80.2969 1.46875C80.4839 1.78365 80.6922 2.0701 80.9219 2.32812C80.9219 28.0573 80.9219 53.7864 80.9219 79.5156C80.7181 79.748 80.5359 80.0084 80.375 80.2969C80.0602 80.4839 79.7736 80.6922 79.5156 80.9219C53.7864 80.9219 28.0573 80.9219 2.32812 80.9219C2.09579 80.7181 1.83538 80.5359 1.54688 80.375C1.35991 80.0602 1.15158 79.7736 0.921875 79.5156C0.921875 53.7864 0.921875 28.0573 0.921875 2.32812C1.12555 2.09579 1.30785 1.83538 1.46875 1.54688C1.78365 1.35991 2.0701 1.15158 2.32812 0.921875ZM5.60938 5.76562C16.599 5.76562 27.5886 5.76562 38.5781 5.76562C38.552 9.7243 38.5781 13.6826 38.6562 17.6406C38.9573 18.4106 39.5042 18.9053 40.2969 19.125C42.3389 19.1339 44.3702 19.238 46.3906 19.4375C47.8333 20.3277 48.1197 21.4995 47.25 22.9531C46.9795 23.2839 46.6409 23.5183 46.2344 23.6562C44.1597 23.8528 42.0764 23.957 39.9844 23.9688C39.4789 24.1812 39.0883 24.5198 38.8125 24.9844C38.5808 29.4497 38.5027 33.9289 38.5781 38.4219C34.9844 38.4219 31.3906 38.4219 27.7969 38.4219C28.2005 35.3344 27.263 32.7563 24.9844 30.6875C21.2598 28.4047 17.9005 28.8475 14.9062 32.0156C13.6442 33.9573 13.1494 36.0928 13.4219 38.4219C10.8177 38.4219 8.21355 38.4219 5.60938 38.4219C5.60938 27.5364 5.60938 16.6511 5.60938 5.76562ZM43.2656 5.76562C54.2552 5.76562 65.2448 5.76562 76.2344 5.76562C76.2344 16.6511 76.2344 27.5364 76.2344 38.4219C65.2448 38.4219 54.2552 38.4219 43.2656 38.4219C43.2656 35.1927 43.2656 31.9636 43.2656 28.7344C46.4078 29.1683 49.0381 28.2308 51.1562 25.9219C53.238 22.6789 53.0817 19.5539 50.6875 16.5469C48.5798 14.6524 46.1059 13.9232 43.2656 14.3594C43.2656 11.4948 43.2656 8.6302 43.2656 5.76562ZM20.2969 34.0469C21.4308 34.0791 22.2381 34.5998 22.7188 35.6094C22.915 37.6319 23.0192 39.6631 23.0312 41.7031C23.4327 42.7284 24.1878 43.2753 25.2969 43.3438C29.7236 43.4219 34.1508 43.448 38.5781 43.4219C38.5781 46.4948 38.5781 49.5677 38.5781 52.6406C34.5336 51.9677 31.5908 53.4259 29.75 57.0156C28.695 60.1648 29.3459 62.8992 31.7031 65.2188C33.7539 66.7077 36.0456 67.2545 38.5781 66.8594C38.5781 69.9323 38.5781 73.0052 38.5781 76.0781C27.5886 76.0781 16.599 76.0781 5.60938 76.0781C5.60938 65.1927 5.60938 54.3073 5.60938 43.4219C9.04727 43.448 12.4848 43.4219 15.9219 43.3438C17.0252 43.2828 17.7803 42.7359 18.1875 41.7031C18.1992 39.6111 18.3034 37.5278 18.5 35.4531C18.9269 34.7355 19.5258 34.2667 20.2969 34.0469ZM43.2656 43.4219C54.2552 43.4219 65.2448 43.4219 76.2344 43.4219C76.2344 54.3073 76.2344 65.1927 76.2344 76.0781C65.2448 76.0781 54.2552 76.0781 43.2656 76.0781C43.2917 71.9111 43.2656 67.7445 43.1875 63.5781C42.8688 62.7381 42.2698 62.2433 41.3906 62.0938C39.5156 62.0417 37.6406 61.9895 35.7656 61.9375C33.6928 60.7411 33.5366 59.3348 35.2969 57.7188C37.3173 57.5192 39.3486 57.4152 41.3906 57.4062C42.2748 57.2506 42.8739 56.7559 43.1875 55.9219C43.2656 51.7555 43.2917 47.5889 43.2656 43.4219Z" fill="url(#paint0_radial_513_1366)"/>
<defs>
<radialGradient id="paint0_radial_513_1366" cx="0" cy="0" r="1" gradientUnits="userSpaceOnUse" gradientTransform="translate(16.4786 16.9209) rotate(34.773) scale(150.429 150.451)">
<stop stop-color="#10923E"/>
<stop offset="0.627261" stop-color="#0057BC"/>
</radialGradient>
</defs>
</svg>
