<svg width="80" height="80" viewBox="0 0 80 80" fill="none" xmlns="http://www.w3.org/2000/svg">
<path d="M26.7656 2.78125L21.25 5.54688V12.1406V18.75H15.3125H9.375V49.375V80H40H70.625V49.375V18.75H64.6875H58.75V12.1406V5.54688L53.2031 2.76562L47.6562 0L39.9531 0.015625H32.2656L26.7656 2.78125ZM44.6875 7.03125V9.375H40H35.3125V7.03125V4.6875H40H44.6875V7.03125ZM30.625 12.5V18.75H28.2812H25.9375V13.625V8.51562L28.1719 7.39062C29.3906 6.76562 30.4375 6.26562 30.5156 6.26562C30.5781 6.25 30.625 9.0625 30.625 12.5ZM51.7969 7.375L54.0625 8.51562V13.625V18.75H51.7188H49.375V12.5C49.375 9.0625 49.4062 6.25 49.4531 6.25C49.5 6.25 50.5469 6.76562 51.7969 7.375ZM44.6875 16.4062V18.75H40H35.3125V16.4062V14.0625H40H44.6875V16.4062ZM65.9375 49.375V75.3125H40H14.0625V49.375V23.4375H40H65.9375V49.375Z" fill="url(#paint0_radial_509_1303)"/>
<path d="M45.6562 30.7969C43.7969 31.1563 41.9531 32.1563 40.5781 33.5469C38.9688 35.1719 38.1406 36.8125 37.7656 39.0469L37.5781 40.1875L36.4062 40.4844C31.625 41.7032 27.7188 45.625 26.3906 50.5469C25.8906 52.3438 25.8906 55.7813 26.3906 57.5782C27.7656 62.6407 31.7031 66.4844 36.8281 67.7657C38.4375 68.1719 41.875 68.125 43.5156 67.6719C48.4688 66.3438 52.2656 62.5313 53.6094 57.5782C54.1094 55.7813 54.1094 52.3438 53.6094 50.5469C53.0156 48.3594 51.8594 46.2344 50.2812 44.4532L49.5781 43.6875L50.3594 43.1094C51.8906 41.9532 53.0156 40.1875 53.4219 38.3125C53.5156 37.8438 53.5938 35.9844 53.5938 34.0625V30.625L49.9688 30.6407C47.9688 30.6563 46.0156 30.7188 45.6562 30.7969ZM48.9062 36.2032C48.9062 37.5469 48.6406 38.2657 47.9062 39C47.0781 39.8282 46.4688 40 44.1719 40H42.3125L42.4219 39.4844C42.8125 37.6563 44.2344 36.0938 46.0156 35.5313C46.3594 35.4219 47.1562 35.3282 47.7812 35.3282L48.9062 35.3125V36.2032ZM42.25 45C44.0156 45.4532 45.2188 46.1407 46.5625 47.5C47.9219 48.8438 48.6094 50.0469 49.0625 51.8125C49.625 54.0157 49.3281 56.4219 48.25 58.4844C47.5625 59.7657 45.6719 61.6563 44.4219 62.3125C42.3438 63.4063 39.9531 63.6875 37.75 63.125C36.0156 62.6875 34.7969 61.9844 33.4375 60.625C32.0781 59.2813 31.3906 58.0938 30.9375 56.3125C30.375 54.1094 30.6562 51.7188 31.75 49.6407C32.4062 48.3907 34.2969 46.5 35.5781 45.8125C37.6406 44.7188 40.0469 44.4375 42.25 45Z" fill="url(#paint1_radial_509_1303)"/>
<path d="M56.5625 68.2812V70.625H58.9062H61.25V68.2812V65.9375H58.9062H56.5625V68.2812Z" fill="url(#paint2_radial_509_1303)"/>
<defs>
<radialGradient id="paint0_radial_509_1303" cx="0" cy="0" r="1" gradientUnits="userSpaceOnUse" gradientTransform="translate(21.2856 64.0009) rotate(-42.2039) scale(127.713 135.678)">
<stop stop-color="#10923E"/>
<stop offset="0.627261" stop-color="#0057BC"/>
</radialGradient>
<radialGradient id="paint1_radial_509_1303" cx="0" cy="0" r="1" gradientUnits="userSpaceOnUse" gradientTransform="translate(31.4544 60.56) rotate(-42.889) scale(58.9615 62.7674)">
<stop stop-color="#10923E"/>
<stop offset="0.627261" stop-color="#0057BC"/>
</radialGradient>
<radialGradient id="paint2_radial_509_1303" cx="0" cy="0" r="1" gradientUnits="userSpaceOnUse" gradientTransform="translate(57.474 69.6876) rotate(-34.773) scale(8.81419 8.81549)">
<stop stop-color="#10923E"/>
<stop offset="0.627261" stop-color="#0057BC"/>
</radialGradient>
</defs>
</svg>
