<svg width="90" height="90" viewBox="0 0 90 90" fill="none" xmlns="http://www.w3.org/2000/svg">
<path d="M40.6934 6.01172C32.1856 6.96094 23.9766 10.8105 17.8594 16.6992C8.17387 26.0156 3.91996 39.1816 6.34574 52.3828C6.90824 55.459 7.6641 56.4258 9.49223 56.4258C10.3711 56.4258 11.0567 56.0918 11.6543 55.3711C12.3223 54.5977 12.3926 53.8945 11.9707 51.9258C8.56059 35.2441 17.9649 18.7207 34.0313 13.1836C46.0723 9.03516 59.6075 12.0938 68.6426 21.0234L70.0489 22.4121L66.8497 22.5C63.9844 22.5703 63.6153 22.623 63.1758 22.957C62.2442 23.6426 61.9629 24.2051 61.9629 25.3125C61.9629 26.4199 62.2442 26.9824 63.1758 27.668C63.6504 28.0195 63.8614 28.0371 70.3125 28.0371C76.7637 28.0371 76.9746 28.0195 77.4493 27.668C77.7129 27.4746 78.0996 27.0879 78.293 26.8242C78.6446 26.3496 78.6621 26.1387 78.6621 19.6875C78.6621 13.2363 78.6446 13.0254 78.293 12.5508C77.6075 11.6191 77.045 11.3379 75.9375 11.3379C74.8301 11.3379 74.2676 11.6191 73.5821 12.5508C73.2657 12.9551 73.1954 13.377 73.125 15.2051L73.0371 17.3672L71.8946 16.3301C70.5059 15.0469 67.3067 12.6211 65.7071 11.6367C62.0684 9.36914 57.6739 7.61133 53.1739 6.60938C49.8164 5.87109 44.2618 5.60742 40.6934 6.01172Z" fill="url(#paint0_radial_916_15855)"/>
<path d="M43.8574 25.5586C42.5918 26.1387 42.1875 27.0176 42.1875 29.25V30.9023L40.043 30.9727C38.2324 31.043 37.7402 31.1133 37.002 31.4824C35.8945 32.0098 34.8398 33.0645 34.2773 34.1895C33.8379 35.0508 33.8379 35.1387 33.8379 39.375C33.8379 43.4883 33.8555 43.7168 34.2422 44.4727C34.8574 45.7383 35.5605 46.4766 36.7734 47.127L37.8809 47.7246L44.2617 47.7773L50.625 47.8301V50.625V53.4199L43.084 53.4727C35.7715 53.5254 35.5254 53.543 35.0508 53.8945C34.1191 54.5801 33.8379 55.1426 33.8379 56.25C33.8379 57.3574 34.1191 57.9199 35.0508 58.6055C35.4902 58.9395 35.8242 58.9746 38.8477 59.0273L42.1523 59.0801L42.2227 60.9961C42.2754 63.0527 42.4336 63.457 43.4883 64.2305C44.1738 64.7402 45.8262 64.7402 46.5117 64.2305C47.5664 63.457 47.7246 63.0527 47.7773 60.9961L47.8477 59.0977L49.9746 59.0273C52.0137 58.957 52.1719 58.9219 53.2266 58.3594C54.457 57.709 54.9844 57.1641 55.6875 55.8281L56.1621 54.9316V50.625V46.3184L55.5645 45.2109C54.9141 43.998 54.1758 43.2949 52.9102 42.6797C52.1367 42.293 51.9609 42.2754 45.7559 42.2227L39.375 42.1699V39.375V36.5801L46.916 36.5273C54.2285 36.4746 54.4746 36.457 54.9492 36.1055C55.8809 35.4199 56.1621 34.8574 56.1621 33.75C56.1621 32.6426 55.8809 32.0801 54.9492 31.3945C54.5098 31.0605 54.1758 31.0254 51.1523 30.9727L47.8477 30.9199L47.7773 29.0039C47.7246 26.9473 47.5664 26.543 46.5469 25.7871C45.9492 25.3477 44.5605 25.2246 43.8574 25.5586Z" fill="url(#paint1_radial_916_15855)"/>
<path d="M79.1719 33.9083C78.4512 34.3478 77.9062 35.0685 77.7656 35.7716C77.7129 36.088 77.8184 37.09 78.0293 38.0743C80.8594 51.8028 74.9707 65.7423 63.123 73.3888C61.2246 74.6192 57.498 76.3419 55.2129 77.0626C48.4277 79.1896 41.2734 79.172 34.541 76.9923C32.0273 76.1661 28.4238 74.4259 26.2617 72.9845C24.4863 71.7892 21.0234 68.8712 20.4434 68.0626L20.0391 67.5177L23.1855 67.465C26.0508 67.4122 26.3848 67.3771 26.8242 67.0431C27.7559 66.3575 28.0371 65.795 28.0371 64.6876C28.0371 63.5802 27.7559 63.0177 26.8242 62.3321C26.3496 61.9806 26.1387 61.963 19.6875 61.963C13.2363 61.963 13.0254 61.9806 12.5508 62.3321C12.2871 62.5255 11.9004 62.9122 11.707 63.1759C11.3555 63.6505 11.3379 63.8614 11.3379 70.3126C11.3379 76.7638 11.3555 76.9747 11.707 77.4493C12.3926 78.381 12.9551 78.6622 14.0625 78.6622C15.1699 78.6622 15.7324 78.381 16.418 77.4493C16.7344 77.0275 16.7871 76.6583 16.8398 74.7775L16.9102 72.5978L18.6855 74.1446C21.9727 77.0099 24.3984 78.6095 28.125 80.3849C49.377 90.5275 74.6895 79.7696 82.2656 57.3751C84.4453 50.9591 84.9023 44.0509 83.6016 37.3888C83.1797 35.1915 82.8984 34.6466 81.9141 33.961C81.1758 33.4689 79.9453 33.4337 79.1719 33.9083Z" fill="url(#paint2_radial_916_15855)"/>
<defs>
<radialGradient id="paint0_radial_916_15855" cx="0" cy="0" r="1" gradientUnits="userSpaceOnUse" gradientTransform="translate(19.8699 46.3057) rotate(-25.7062) scale(125.112 104.39)">
<stop stop-color="#10923E"/>
<stop offset="0.627261" stop-color="#0057BC"/>
</radialGradient>
<radialGradient id="paint1_radial_916_15855" cx="0" cy="0" r="1" gradientUnits="userSpaceOnUse" gradientTransform="translate(38.179 56.7643) rotate(-50.6728) scale(54.4082 56.9429)">
<stop stop-color="#10923E"/>
<stop offset="0.627261" stop-color="#0057BC"/>
</radialGradient>
<radialGradient id="paint2_radial_916_15855" cx="0" cy="0" r="1" gradientUnits="userSpaceOnUse" gradientTransform="translate(25.531 74.0914) rotate(-25.7257) scale(125.137 104.468)">
<stop stop-color="#10923E"/>
<stop offset="0.627261" stop-color="#0057BC"/>
</radialGradient>
</defs>
</svg>
