<svg width="80" height="80" viewBox="0 0 80 80" fill="none" xmlns="http://www.w3.org/2000/svg">
<path d="M19.8594 14.9375C5.39065 20.1875 1.09378 21.8125 0.750027 22.1406C0.203152 22.6719 -0.0780983 23.5312 0.0625267 24.3125C0.296902 25.5156 0.562527 25.6406 8.15628 28.4375L15.1563 31.0156V38.7656C15.1563 43.0312 15.2032 46.75 15.2657 47.0312C15.4063 47.75 17.1094 49.5156 18.6563 50.5312C23.8125 53.9375 30.9063 55.4844 40.3125 55.2656C47.1563 55.1094 52.125 54.1094 56.5 52.0312C58.9063 50.9062 61.1875 49.2656 62.1563 48L62.5782 47.4531L62.6563 39.3281L62.7344 31.2031L65.4688 30.2188C66.9688 29.6719 68.25 29.2188 68.3281 29.2188C68.3906 29.2188 68.4375 33.5938 68.4375 38.9375V48.6562L65.0938 52.0312C60.3594 56.7812 60.3594 56.3438 65.0781 61.0938L68.4219 64.4531L68.4688 67.4531C68.5156 70.2031 68.5469 70.4844 68.8438 70.8906C69.8438 72.2344 71.7188 72.2344 72.7188 70.8906C73.0156 70.4844 73.0469 70.2188 73.0938 67.4531L73.1406 64.4531L76.3125 61.25C78.0625 59.4844 79.6094 57.8281 79.75 57.5469C80.0625 56.9062 80.0625 56.2188 79.75 55.5781C79.6094 55.2969 78.0625 53.6406 76.3125 51.875L73.125 48.6719L73.1563 38.0469L73.2031 27.4375L75.3125 26.6406C77.9844 25.6562 78.0938 25.5938 78.4688 24.7344C78.875 23.8125 78.7344 22.9688 78.0625 22.25C77.625 21.7656 75.8907 21.1094 58.7969 14.9219C43.2344 9.29688 39.8907 8.125 39.2657 8.14062C38.7032 8.15625 34.0313 9.78125 19.8594 14.9375ZM54.375 18.3125C62.5 21.25 69.1875 23.6875 69.25 23.7344C69.3125 23.7812 62.5 26.2969 54.1094 29.3281L38.875 34.8125L24.0469 29.3281C13.7188 25.5 9.2969 23.7969 9.4844 23.7188C10.6719 23.2031 39.0469 12.9844 39.2969 12.9844C39.4688 12.9688 46.25 15.375 54.375 18.3125ZM29.0938 36.2031C36.2813 38.8906 38.3438 39.5938 38.9063 39.5781C39.4063 39.5781 42.3125 38.5938 48.7188 36.2656C53.7344 34.4531 57.875 32.9688 57.9063 32.9688C57.9375 32.9688 57.9688 35.8125 57.9688 39.2812V45.6094L57.4219 46.0625C54.7032 48.2969 49.3282 49.9531 43.1407 50.4844C40.4532 50.7031 34.9063 50.5938 32.5 50.25C27.2813 49.5156 22.9219 48.0469 20.6407 46.2344L19.8438 45.625V39.2188C19.8438 35.6875 19.875 32.8125 19.9063 32.8125C19.9375 32.8125 24.0782 34.3438 29.0938 36.2031ZM72.5781 54.8438L74.2969 56.5625L72.5313 58.3281L70.7813 60.0781L69.0313 58.3281L67.2656 56.5625L68.9844 54.8438C69.9219 53.9062 70.7344 53.125 70.7813 53.125C70.8281 53.125 71.6406 53.9062 72.5781 54.8438Z" fill="url(#paint0_radial_511_1352)"/>
<defs>
<radialGradient id="paint0_radial_511_1352" cx="0" cy="0" r="1" gradientUnits="userSpaceOnUse" gradientTransform="translate(15.5751 59.1476) rotate(-28.971) scale(141.164 127.708)">
<stop stop-color="#10923E"/>
<stop offset="0.627261" stop-color="#0057BC"/>
</radialGradient>
</defs>
</svg>
