<svg width="80" height="80" viewBox="0 0 80 80" fill="none" xmlns="http://www.w3.org/2000/svg">
<g clip-path="url(#clip0_506_1273)">
<path d="M36.1719 0.171875C26.7812 1.125 18.1875 5.21875 11.6094 11.8438L9.85938 13.6094L9.78125 13.0938C9.73438 12.8125 9.625 12.2188 9.5625 11.7969C9.48438 11.25 9.375 11.0312 9.21875 11.0469C6.29688 11.4062 4.84375 11.625 4.84375 11.7031C4.84375 11.75 5.17188 14.1406 5.5625 16.9844C6.26562 21.9375 6.3125 22.1875 6.625 22.1875C7.20312 22.1875 16.7344 20.8125 16.8281 20.7188C16.9844 20.5781 16.3281 16.1719 16.1719 16.2031C16.0781 16.2188 15.4844 16.2656 14.8438 16.3281L13.6719 16.4219L15.3906 14.7344C19.3906 10.7969 24 8.03125 29.375 6.34375C46.0469 1.07812 64.0781 8.85938 71.7188 24.5938C72.3125 25.8125 73.0156 27.4219 73.2812 28.2031C75.3281 34.0938 75.8281 40.6406 74.6719 46.625C74.5156 47.4844 74.3906 48.2031 74.4219 48.2188C74.4375 48.2344 75.4531 48.4844 76.6719 48.7812L78.8906 49.3281L79.1406 48.2188C79.8906 44.7969 80.1719 40.25 79.8594 36.7188C79 27.0625 75.0312 18.5156 68.2656 11.7344C62.0469 5.53125 54.5156 1.75 45.625 0.390625C43.6719 0.09375 38.1719 -0.046875 36.1719 0.171875Z" fill="#3378C9"/>
<path d="M36.1719 0.171875C26.7812 1.125 18.1875 5.21875 11.6094 11.8438L9.85938 13.6094L9.78125 13.0938C9.73438 12.8125 9.625 12.2188 9.5625 11.7969C9.48438 11.25 9.375 11.0312 9.21875 11.0469C6.29688 11.4062 4.84375 11.625 4.84375 11.7031C4.84375 11.75 5.17188 14.1406 5.5625 16.9844C6.26562 21.9375 6.3125 22.1875 6.625 22.1875C7.20312 22.1875 16.7344 20.8125 16.8281 20.7188C16.9844 20.5781 16.3281 16.1719 16.1719 16.2031C16.0781 16.2188 15.4844 16.2656 14.8438 16.3281L13.6719 16.4219L15.3906 14.7344C19.3906 10.7969 24 8.03125 29.375 6.34375C46.0469 1.07812 64.0781 8.85938 71.7188 24.5938C72.3125 25.8125 73.0156 27.4219 73.2812 28.2031C75.3281 34.0938 75.8281 40.6406 74.6719 46.625C74.5156 47.4844 74.3906 48.2031 74.4219 48.2188C74.4375 48.2344 75.4531 48.4844 76.6719 48.7812L78.8906 49.3281L79.1406 48.2188C79.8906 44.7969 80.1719 40.25 79.8594 36.7188C79 27.0625 75.0312 18.5156 68.2656 11.7344C62.0469 5.53125 54.5156 1.75 45.625 0.390625C43.6719 0.09375 38.1719 -0.046875 36.1719 0.171875Z" fill="url(#paint0_radial_506_1273)"/>
<path d="M29.8125 21.5312L19.6875 27.4219V40V52.5781L29.8438 58.5L40 64.4062L43.4688 62.3906C45.3906 61.2812 49.9531 58.625 53.6406 56.4844L60.3125 52.5781V40V27.4219L50.3594 21.6094C44.875 18.4219 40.2812 15.7656 40.1562 15.7188C40.0156 15.6562 35.7812 18.0469 29.8125 21.5312ZM45.2656 24.0781C48.0781 25.7344 51.0469 27.4531 51.8438 27.9219L53.2969 28.7812L46.6562 32.6562L40.0156 36.5312L33.3594 32.6562L26.7188 28.7812L33.2344 24.9531C36.8281 22.8438 39.8438 21.1094 39.9531 21.1094C40.0469 21.0938 42.4375 22.4375 45.2656 24.0781ZM31.0938 36.7656L37.5781 40.5625L37.625 49.0312C37.6406 53.6875 37.6094 57.5 37.5469 57.5C37.4688 57.4844 34.5 55.7812 30.9375 53.6875L24.4531 49.9062L24.4062 41.4375C24.3906 36.7812 24.4219 32.9688 24.4844 32.9688C24.5625 32.9688 27.5312 34.6875 31.0938 36.7656ZM55.5938 41.4375L55.5469 49.9062L49.0625 53.7031C45.5 55.7812 42.5312 57.5 42.4531 57.5C42.3906 57.5 42.3594 53.6875 42.375 49.0312L42.4219 40.5625L48.9062 36.7812C52.4688 34.6875 55.4375 32.9844 55.5156 32.9688C55.5781 32.9688 55.6094 36.7812 55.5938 41.4375Z" fill="#3378C9"/>
<path d="M29.8125 21.5312L19.6875 27.4219V40V52.5781L29.8438 58.5L40 64.4062L43.4688 62.3906C45.3906 61.2812 49.9531 58.625 53.6406 56.4844L60.3125 52.5781V40V27.4219L50.3594 21.6094C44.875 18.4219 40.2812 15.7656 40.1562 15.7188C40.0156 15.6562 35.7812 18.0469 29.8125 21.5312ZM45.2656 24.0781C48.0781 25.7344 51.0469 27.4531 51.8438 27.9219L53.2969 28.7812L46.6562 32.6562L40.0156 36.5312L33.3594 32.6562L26.7188 28.7812L33.2344 24.9531C36.8281 22.8438 39.8438 21.1094 39.9531 21.1094C40.0469 21.0938 42.4375 22.4375 45.2656 24.0781ZM31.0938 36.7656L37.5781 40.5625L37.625 49.0312C37.6406 53.6875 37.6094 57.5 37.5469 57.5C37.4688 57.4844 34.5 55.7812 30.9375 53.6875L24.4531 49.9062L24.4062 41.4375C24.3906 36.7812 24.4219 32.9688 24.4844 32.9688C24.5625 32.9688 27.5312 34.6875 31.0938 36.7656ZM55.5938 41.4375L55.5469 49.9062L49.0625 53.7031C45.5 55.7812 42.5312 57.5 42.4531 57.5C42.3906 57.5 42.3594 53.6875 42.375 49.0312L42.4219 40.5625L48.9062 36.7812C52.4688 34.6875 55.4375 32.9844 55.5156 32.9688C55.5781 32.9688 55.6094 36.7812 55.5938 41.4375Z" fill="url(#paint1_radial_506_1273)"/>
<path d="M1.03126 30.8906C-0.312491 36.8906 -0.312491 43.0156 1.01563 48.9999C3.23438 58.8749 9.48438 67.7968 18.2188 73.5312C25.5156 78.3437 34.875 80.6718 43.5313 79.8281C53.6406 78.8593 62.5 74.4843 69.375 67.0937C70.0156 66.4062 70.5938 65.9062 70.6406 65.9843C70.7031 66.0781 70.7969 66.6718 70.8594 67.3281C70.9219 67.9843 71 68.5624 71.0313 68.6093C71.0781 68.7031 75.4688 68.1718 75.5938 68.0624C75.7344 67.9062 74.3281 57.0312 74.1563 57.0312C73.75 57.0312 63.6719 58.3124 63.6094 58.3749C63.5313 58.4531 64.0313 62.8281 64.1094 62.9218C64.1406 62.9374 64.7813 62.8906 65.5313 62.7968C66.2813 62.7031 66.9375 62.6718 66.9844 62.7031C67.125 62.8593 63.6875 66.2812 62.1875 67.4843C57.2344 71.4531 51.5781 73.9374 45.1563 74.9531C42.6719 75.3281 37.3281 75.3281 34.9219 74.9374C30.9844 74.3124 27.9844 73.3749 24.5938 71.7187C17.4375 68.2343 11.7969 62.6093 8.26563 55.3906C4.87501 48.4531 3.87501 40.6562 5.40626 32.9843C5.62501 31.9218 5.73438 30.9999 5.67188 30.9374C5.51563 30.8124 1.85938 29.8437 1.51563 29.8437C1.34376 29.8437 1.20313 30.1562 1.03126 30.8906Z" fill="#3378C9"/>
<path d="M1.03126 30.8906C-0.312491 36.8906 -0.312491 43.0156 1.01563 48.9999C3.23438 58.8749 9.48438 67.7968 18.2188 73.5312C25.5156 78.3437 34.875 80.6718 43.5313 79.8281C53.6406 78.8593 62.5 74.4843 69.375 67.0937C70.0156 66.4062 70.5938 65.9062 70.6406 65.9843C70.7031 66.0781 70.7969 66.6718 70.8594 67.3281C70.9219 67.9843 71 68.5624 71.0313 68.6093C71.0781 68.7031 75.4688 68.1718 75.5938 68.0624C75.7344 67.9062 74.3281 57.0312 74.1563 57.0312C73.75 57.0312 63.6719 58.3124 63.6094 58.3749C63.5313 58.4531 64.0313 62.8281 64.1094 62.9218C64.1406 62.9374 64.7813 62.8906 65.5313 62.7968C66.2813 62.7031 66.9375 62.6718 66.9844 62.7031C67.125 62.8593 63.6875 66.2812 62.1875 67.4843C57.2344 71.4531 51.5781 73.9374 45.1563 74.9531C42.6719 75.3281 37.3281 75.3281 34.9219 74.9374C30.9844 74.3124 27.9844 73.3749 24.5938 71.7187C17.4375 68.2343 11.7969 62.6093 8.26563 55.3906C4.87501 48.4531 3.87501 40.6562 5.40626 32.9843C5.62501 31.9218 5.73438 30.9999 5.67188 30.9374C5.51563 30.8124 1.85938 29.8437 1.51563 29.8437C1.34376 29.8437 1.20313 30.1562 1.03126 30.8906Z" fill="url(#paint2_radial_506_1273)"/>
</g>
<defs>
<radialGradient id="paint0_radial_506_1273" cx="0" cy="0" r="1" gradientUnits="userSpaceOnUse" gradientTransform="translate(19.4557 39.4762) rotate(-24.4749) scale(127.519 102.652)">
<stop stop-color="#10923E"/>
<stop offset="0.627261" stop-color="#0057BC"/>
</radialGradient>
<radialGradient id="paint1_radial_506_1273" cx="0" cy="0" r="1" gradientUnits="userSpaceOnUse" gradientTransform="translate(27.5874 54.6691) rotate(-39.7651) scale(81.6313 85.6863)">
<stop stop-color="#10923E"/>
<stop offset="0.627261" stop-color="#0057BC"/>
</radialGradient>
<radialGradient id="paint2_radial_506_1273" cx="0" cy="0" r="1" gradientUnits="userSpaceOnUse" gradientTransform="translate(14.7191 69.9678) rotate(-24.7371) scale(128.536 104.292)">
<stop stop-color="#10923E"/>
<stop offset="0.627261" stop-color="#0057BC"/>
</radialGradient>
<clipPath id="clip0_506_1273">
<rect width="80" height="80" fill="white"/>
</clipPath>
</defs>
</svg>
