<svg width="91" height="91" viewBox="0 0 91 91" fill="none" xmlns="http://www.w3.org/2000/svg">
<path d="M7.89142 6.18526C5.84747 6.8962 4.3545 8.24699 3.43029 10.2376L2.93263 11.2862L2.84376 32.6144C2.79044 44.3448 2.79044 56.0575 2.84376 58.6524L2.93263 63.3624L3.44806 64.4288C4.10568 65.7618 5.65197 67.3259 6.93165 67.948C7.5004 68.2323 8.46017 68.4989 9.2422 68.6056C9.98868 68.6944 15.8539 68.7833 22.5367 68.7833H34.4983L34.4449 72.3913L34.3916 75.9815L33.8406 76.9591C33.4852 77.5989 32.7565 78.3987 31.7078 79.3052L30.126 80.6915H26.4291C22.359 80.6915 21.9147 80.7804 21.417 81.7579C21.2748 82.0423 21.1504 82.5044 21.1504 82.7888C21.1504 83.5175 21.8436 84.4772 22.5723 84.7261C23.3899 85.0105 68.0012 85.046 68.9965 84.7794C69.6897 84.5839 70.3117 83.9263 70.5072 83.2153C70.685 82.5044 70.2584 81.4202 69.6186 81.047C69.1031 80.7271 68.6943 80.6915 64.8908 80.6915H60.7496L59.6121 79.8028C58.0303 78.5409 56.9639 77.279 56.6262 76.3015C56.4129 75.6616 56.3418 74.7196 56.3418 72.1425V68.8011L69.192 68.7478C81.8289 68.6767 82.0422 68.6767 83.0375 68.3034C85.0637 67.5392 86.4678 66.2417 87.392 64.2333L87.8897 63.1847L87.943 37.6976C87.9963 9.7755 88.0496 11.304 86.9654 9.47335C86.3078 8.33585 84.5838 6.84288 83.4108 6.363L82.3799 5.95421L45.5889 5.91866C10.8418 5.88312 8.74454 5.90089 7.89142 6.18526ZM82.2199 10.5753C82.7176 10.8597 83.0908 11.2685 83.3397 11.7839C83.7129 12.5482 83.7129 12.6192 83.7129 32.2233V51.8985H45.4111H7.10939L7.14493 31.939L7.19825 11.9616L7.67814 11.3396C8.67345 10.0243 5.24318 10.131 45.3934 10.131H81.4557L82.2199 10.5753ZM83.6774 59.3278C83.624 62.4915 83.624 62.5093 83.1264 63.1491C82.8598 63.5224 82.3799 63.9489 82.06 64.1267C81.5268 64.411 79.4117 64.4288 46.2109 64.4821C26.8024 64.5177 10.5219 64.4821 10.0065 64.4288C8.94005 64.3044 8.08693 63.789 7.51818 62.9358C7.12716 62.3671 7.10939 62.1538 7.10939 59.2567V56.1642H45.4289H83.7307L83.6774 59.3278ZM52.1117 72.729C52.1828 77.0835 52.3072 77.7767 53.4981 79.6784C53.8002 80.1583 54.0313 80.5671 54.0313 80.6204C54.0313 80.656 50.1033 80.6915 45.3045 80.6915H36.5955L36.9332 80.1939C37.5731 79.2874 38.2129 77.8655 38.4795 76.7458C38.6572 75.9638 38.7461 74.5952 38.7461 72.1958V68.7833H45.3934H52.0584L52.1117 72.729Z" fill="url(#paint0_radial_906_15843)"/>
<path d="M43.7039 17.0547C40.4336 17.3719 37.4367 18.7828 35.1125 21.1016C32.9414 23.2727 31.6125 25.925 31.1258 29.0859C30.9945 29.9664 30.9945 32.0336 31.1258 32.9141C31.6125 36.0695 32.9305 38.7055 35.1016 40.8875C37.2727 43.0586 39.925 44.3875 43.0859 44.8742C43.9664 45.0055 46.0336 45.0055 46.9141 44.8742C50.0695 44.3875 52.7055 43.0695 54.8875 40.8984C57.0586 38.7273 58.3875 36.075 58.8742 32.9141C59.0055 32.0336 59.0055 29.9664 58.8742 29.0859C58.3875 25.9305 57.0695 23.2945 54.8984 21.1125C52.7437 18.9523 50.0586 17.607 46.9688 17.1367C46.2852 17.0328 44.4094 16.9891 43.7039 17.0547ZM44.1797 21.5172V24.3445L43.5945 24.3062C42.2984 24.2242 40.1328 23.8906 40.1328 23.7703C40.1328 23.4312 40.9586 20.8281 41.4672 19.5703L41.6531 19.1055L42.1289 18.9852C42.7031 18.8375 43.4961 18.7117 43.8953 18.7008L44.1797 18.6953V21.5172ZM46.8375 18.7828C47.1547 18.832 47.6305 18.9195 47.882 18.9852L48.3469 19.1055L48.5328 19.5703C49.0414 20.8281 49.8672 23.4312 49.8672 23.7703C49.8672 23.8906 47.7016 24.2242 46.4109 24.3062L45.8203 24.3445V21.5172V18.6953H46.0391C46.1594 18.6953 46.5148 18.7336 46.8375 18.7828ZM39.2797 20.7844C39.1156 21.2766 38.8805 22.0586 38.7547 22.5234C38.6289 22.9883 38.525 23.3766 38.5195 23.382C38.4812 23.4422 36.0859 22.5344 36.0859 22.4633C36.0859 22.343 37.3875 21.2383 38.082 20.768C38.4211 20.5383 39.5148 19.8984 39.5695 19.8984C39.575 19.8984 39.4437 20.2977 39.2797 20.7844ZM51.8633 20.7352C52.6562 21.2656 53.9906 22.4086 53.9086 22.4906C53.8211 22.5727 51.5078 23.4258 51.4805 23.382C51.475 23.3766 51.3711 22.9883 51.2453 22.5234C51.1195 22.0586 50.8844 21.2766 50.7203 20.7844L50.4195 19.893L50.8953 20.15C51.1578 20.2922 51.5898 20.5547 51.8633 20.7352ZM37.3164 24.7219C37.7703 24.875 38.1422 25.0063 38.1531 25.0117C38.1641 25.0227 38.1312 25.2523 38.082 25.5312C37.9344 26.3953 37.7922 27.5984 37.7266 28.5664C37.6937 29.075 37.65 29.6492 37.6391 29.8352L37.6062 30.1797H35.1508H32.6953V29.9828C32.6953 29.3703 33.0016 27.8828 33.3242 26.9531C33.5758 26.2203 34.232 24.875 34.6367 24.268L34.9484 23.7977L35.7195 24.1258C36.1461 24.3008 36.868 24.5742 37.3164 24.7219ZM55.6203 24.6781C56.2164 25.6898 56.7523 27.0023 57.0039 28.0742C57.1461 28.6812 57.3047 29.6766 57.3047 29.9828V30.1797H54.8492H52.3937L52.3609 29.8352C52.35 29.6492 52.3062 29.075 52.2734 28.5664C52.2078 27.5984 52.0656 26.3953 51.918 25.5312C51.8687 25.2523 51.8359 25.0227 51.8469 25.0117C51.8578 25.0063 52.2461 24.8695 52.7109 24.7164C53.1758 24.5578 53.8922 24.2844 54.2969 24.1148L55.0352 23.8031L55.2156 24.0547C55.3195 24.1914 55.5 24.4703 55.6203 24.6781ZM40.5703 25.5805C41.418 25.7445 42.2547 25.8484 43.2719 25.925L44.1797 25.9906V28.0852V30.1797H41.7133H39.2523L39.2797 29.8078C39.2961 29.6055 39.3234 29.1844 39.3453 28.8672C39.3836 28.1344 39.4984 27.1281 39.6461 26.1766C39.7555 25.4656 39.7719 25.4219 39.8812 25.4492C39.9414 25.4602 40.2531 25.5203 40.5703 25.5805ZM50.3539 26.1711C50.5016 27.1281 50.6164 28.1344 50.6547 28.8672C50.6766 29.1844 50.7039 29.6055 50.7203 29.8078L50.7477 30.1797H48.2867H45.8203V28.0852V25.9906L46.7391 25.925C47.7289 25.8484 48.8227 25.7063 49.6484 25.5367C49.9328 25.4766 50.1844 25.4273 50.2008 25.4273C50.2227 25.4219 50.2883 25.7609 50.3539 26.1711ZM37.6391 32.1594C37.65 32.3508 37.6937 32.9195 37.7266 33.4336C37.7922 34.4016 37.9344 35.6047 38.082 36.4688C38.1312 36.7477 38.1641 36.9773 38.1531 36.9883C38.1422 36.9938 37.7703 37.125 37.3164 37.2781C36.868 37.4258 36.1461 37.6992 35.7195 37.8742L34.9484 38.2023L34.6367 37.732C34.232 37.125 33.5758 35.7797 33.3242 35.0469C33.0016 34.1172 32.6953 32.6297 32.6953 32.0172V31.8203H35.1508H37.6062L37.6391 32.1594ZM44.1797 33.9148V36.0094L43.2719 36.075C42.0633 36.1625 40.9969 36.3156 39.8812 36.5508C39.7719 36.5781 39.7555 36.5344 39.6461 35.8234C39.4984 34.8719 39.3836 33.8656 39.3453 33.1328C39.3234 32.8156 39.2961 32.3945 39.2797 32.1867L39.2523 31.8203H41.7133H44.1797V33.9148ZM50.7203 32.1867C50.7039 32.3945 50.6766 32.8156 50.6547 33.1328C50.6164 33.8656 50.5016 34.8719 50.3539 35.8234C50.2445 36.5344 50.2281 36.5781 50.1187 36.5508C49.0031 36.3156 47.9367 36.1625 46.7281 36.075L45.8203 36.0094V33.9148V31.8203H48.2867H50.7477L50.7203 32.1867ZM57.3047 32.0172C57.3047 32.6297 56.9984 34.1172 56.6758 35.0469C56.4242 35.7797 55.768 37.125 55.3633 37.732L55.0516 38.2023L54.2805 37.8742C53.8539 37.6992 53.1375 37.4258 52.6836 37.2781C52.2352 37.125 51.8578 36.9938 51.8469 36.9883C51.8359 36.9773 51.8687 36.7477 51.918 36.4688C52.0656 35.6047 52.2078 34.4016 52.2734 33.4336C52.3062 32.9195 52.35 32.3508 52.3609 32.1594L52.3937 31.8203H54.8492H57.3047V32.0172ZM44.1797 40.4883V43.3047H43.9609C43.6383 43.3047 42.643 43.1461 42.118 43.0148L41.6531 42.8945L41.4672 42.4297C40.9586 41.1719 40.1328 38.5687 40.1328 38.2297C40.1328 38.0984 42.7195 37.7156 43.868 37.6828L44.1797 37.6719V40.4883ZM47.6797 37.8086C48.582 37.918 49.8672 38.1641 49.8672 38.2297C49.8672 38.5687 49.0414 41.1719 48.5328 42.4297L48.3469 42.8945L47.882 43.0148C47.357 43.1461 46.3617 43.3047 46.0391 43.3047H45.8203V40.4828V37.6555L46.4109 37.6937C46.7336 37.7156 47.3023 37.7648 47.6797 37.8086ZM38.7328 39.4109C38.8531 39.8539 39.0938 40.6414 39.2633 41.1609L39.5805 42.107L39.1047 41.85C38.4484 41.4945 37.743 41.0187 37.0977 40.4828C36.5344 40.0234 36.0477 39.5531 36.0914 39.5094C36.168 39.4383 38.2953 38.6344 38.4922 38.607C38.5086 38.6016 38.618 38.9625 38.7328 39.4109ZM52.1203 38.8148C52.8914 39.0719 53.9141 39.4875 53.9141 39.5367C53.9141 39.5914 53.2359 40.2203 52.7656 40.6031C52.2352 41.0297 51.4914 41.5273 50.8953 41.85L50.4195 42.107L50.7367 41.1609C50.9062 40.6414 51.1469 39.8539 51.2672 39.4109C51.382 38.9625 51.4805 38.6016 51.4805 38.6016C51.4859 38.6016 51.7703 38.7 52.1203 38.8148Z" fill="url(#paint1_radial_906_15843)"/>
<defs>
<radialGradient id="paint0_radial_906_15843" cx="0" cy="0" r="1" gradientUnits="userSpaceOnUse" gradientTransform="translate(19.3644 69.1505) rotate(-32.8031) scale(156.493 152.135)">
<stop stop-color="#10923E"/>
<stop offset="0.627261" stop-color="#0057BC"/>
</radialGradient>
<radialGradient id="paint1_radial_906_15843" cx="0" cy="0" r="1" gradientUnits="userSpaceOnUse" gradientTransform="translate(36.4616 39.3832) rotate(-34.7766) scale(52.5495 52.5597)">
<stop stop-color="#10923E"/>
<stop offset="0.627261" stop-color="#0057BC"/>
</radialGradient>
</defs>
</svg>
