<svg width="80" height="80" viewBox="0 0 80 80" fill="none" xmlns="http://www.w3.org/2000/svg">
<g clip-path="url(#clip0_510_1308)">
<path d="M33.0185 2.90625C31.2607 3.45313 30.071 4.96875 30.0533 6.64063C30.0533 7.89063 30.4972 8.76563 31.527 9.57813C33.3203 11 35.7706 11 37.5639 9.57813C38.5938 8.76563 39.0377 7.89063 39.0377 6.64063C39.0199 3.89063 35.9482 1.98438 33.0185 2.90625Z" fill="#3378C9"/>
<path d="M23.3593 13.3906C22.8089 13.5781 22.294 14.125 22.294 14.5625C22.294 14.9844 24.6733 20.8281 25.0106 21.2031C25.2592 21.5 43.8316 21.5 44.0802 21.2031C44.4176 20.8281 46.7968 14.9844 46.7968 14.5625C46.7968 14.2812 46.6193 13.9688 46.3352 13.7344L45.8736 13.3594L34.7585 13.3281C28.6328 13.3125 23.5014 13.3438 23.3593 13.3906Z" fill="#3378C9"/>
<path d="M19.826 24.4688C19.3111 25.0469 19.3466 25.7969 19.9148 26.2656L20.3764 26.6406H34.5455H48.7145L49.1761 26.2656C49.7443 25.7969 49.7798 25.0469 49.2649 24.4688L48.9098 24.0625H34.5455H20.1811L19.826 24.4688Z" fill="#3378C9"/>
<path d="M23.9275 30.3125C23.9808 31.0156 24.1051 31.3438 24.3892 31.6094L24.7976 31.9531H34.5454H44.2933L44.7017 31.6094C44.9858 31.3438 45.1101 31.0156 45.1633 30.3125L45.2343 29.375H34.5454H23.8565L23.9275 30.3125Z" fill="#3378C9"/>
<path d="M26.8572 43.3906L26.804 52.1094L26.3423 53.75C25.5433 56.5625 24.4069 59.3281 22.8089 62.3281C22.3295 63.2188 21.9389 63.9844 21.9389 64C21.9389 64.0312 27.6207 64.0625 34.5454 64.0625C41.4879 64.0625 47.152 64.0312 47.152 64C47.152 63.9844 46.7613 63.2188 46.2819 62.3281C44.4886 58.9375 43.2812 55.9062 42.6243 53.0312C42.1804 51.1562 42.1804 51.0469 42.1804 42.9062V34.6875H34.5632H26.9283L26.8572 43.3906Z" fill="#3378C9"/>
<path d="M16.8963 67.0469C16.4879 67.3281 16.4346 67.4688 16.4346 68.375V69.375H34.5454H52.6562V68.375C52.6562 67.4688 52.603 67.3281 52.1946 67.0469C51.7152 66.7188 51.6441 66.7188 34.5454 66.7188C17.4467 66.7188 17.3757 66.7188 16.8963 67.0469Z" fill="#3378C9"/>
<path d="M12.5639 72.1406C11.9957 72.3438 11.8182 73.0938 11.8182 75.2344V77.3438H34.5454H57.2727V75.2344C57.2727 73.0313 57.0952 72.3438 56.4737 72.125C56.1186 72.0156 12.9013 72.0156 12.5639 72.1406Z" fill="#3378C9"/>
<g clip-path="url(#clip1_510_1308)">
<path d="M65.6989 9.92802C64.312 9.89543 63.0262 10.6692 62.5072 11.8265C62.1284 12.6949 62.1716 13.407 62.6408 14.2131C63.4558 15.6218 65.1581 16.1968 66.8349 15.6299C67.7965 15.3071 68.3701 14.8034 68.7489 13.935C69.5699 12.0203 68.0136 9.97511 65.6989 9.92802Z" fill="#3378C9"/>
<path d="M55.8112 14.9449C55.372 14.946 54.8485 15.205 54.7159 15.509C54.5881 15.8021 54.4701 20.4203 54.5908 20.7599C54.6736 21.0245 67.5764 25.3831 67.839 25.2352C68.187 25.0538 71.6109 21.5524 71.7388 21.2593C71.824 21.0639 71.7953 20.8051 71.669 20.5756L71.4619 20.2068L63.7494 17.5766C59.4985 16.1282 55.9241 14.9456 55.8112 14.9449Z" fill="#3378C9"/>
<path d="M49.9992 21.8119C49.4663 22.0927 49.2637 22.6221 49.5164 23.0811L49.7235 23.45L59.5671 26.7752L69.4107 30.1003L69.8451 29.9482C70.3819 29.7558 70.6338 29.2431 70.4513 28.7207L70.3277 28.3551L60.3484 24.9841L50.3691 21.6131L49.9992 21.8119Z" fill="#3378C9"/>
<path d="M51.0778 26.8344C50.9017 27.3354 50.8886 27.5925 51.0055 27.8437L51.185 28.1784L57.9571 30.466L64.7293 32.7536L65.1171 32.6106C65.395 32.4928 65.5808 32.294 65.8309 31.818L66.1643 31.1834L58.7384 28.6749L51.3125 26.1664L51.0778 26.8344Z" fill="#3378C9"/>
<path d="M49.1499 36.6076L46.4707 42.6523L45.6528 43.6837C44.2454 45.4501 42.6178 47.1048 40.5985 48.814C39.9955 49.3202 39.4921 49.7604 39.4874 49.7713C39.4779 49.793 43.4158 51.1481 48.2266 52.7732C53.0497 54.4024 56.9941 55.71 57.0036 55.6883C57.0083 55.6774 56.969 55.0538 56.9058 54.3226C56.6875 51.5462 56.7673 49.1569 57.1821 47.0054C57.442 45.5986 57.4751 45.5226 59.9421 39.8671L62.4328 34.1573L57.1409 32.3697L51.8367 30.578L49.1499 36.6076Z" fill="#3378C9"/>
<path d="M35.0608 50.7048C34.6919 50.8043 34.6122 50.8895 34.3376 51.5191L34.0345 52.2139L46.6166 56.4641L59.1987 60.7143L59.5017 60.0196C59.7764 59.39 59.782 59.2798 59.5835 58.9886C59.3499 58.6481 59.3006 58.6314 47.4216 54.6187C35.5426 50.606 35.4933 50.5893 35.0608 50.7048Z" fill="#3378C9"/>
<path d="M30.5073 53.2268C30.051 53.2345 29.7004 53.7139 29.0517 55.2011L28.4124 56.6665L44.2017 62.0001L59.991 67.3337L60.6302 65.8683C61.2979 64.3377 61.3828 63.8184 61.0174 63.5206C60.8038 63.3613 30.7795 53.2191 30.5073 53.2268Z" fill="#3378C9"/>
</g>
</g>
<defs>
<clipPath id="clip0_510_1308">
<rect width="80" height="80" fill="white"/>
</clipPath>
<clipPath id="clip1_510_1308">
<rect width="66.6632" height="60.6358" fill="white" transform="matrix(0.947406 0.320034 -0.399825 0.916591 36.0619 -2.3999)"/>
</clipPath>
</defs>
</svg>
