<svg width="90" height="80" viewBox="0 0 90 80" fill="none" xmlns="http://www.w3.org/2000/svg">
<path d="M31.3049 0.7379L30.8391 1.17957V39.0157V76.8334H29.7211H28.6031V52.8362C28.6031 29.483 28.5845 28.8389 28.2491 28.4157L27.8951 27.974L17.0135 27.9188C11.051 27.9004 5.96426 27.9188 5.74066 27.974C5.51707 28.0292 5.14441 28.2501 4.93945 28.4709C4.5668 28.8757 4.5668 29.023 4.5668 52.8546V76.8334H2.42402H0.28125V78.3056V79.7778H45H89.7188V78.3056V76.8334H87.4828H85.2469V48.6587C85.2469 29.391 85.191 20.3921 85.0605 20.1344C84.7997 19.6928 63.4465 9.11117 62.7943 9.11117C62.5335 9.11117 62.1049 9.3136 61.8627 9.57124L61.3969 10.0129V43.4323V76.8334H60.2789H59.1609V39.0157V1.17957L58.6951 0.7379L58.2479 0.277832H45H31.7521L31.3049 0.7379ZM56.1797 40.0278V76.8334H45H33.8203V40.0278V3.22227H45H56.1797V40.0278ZM82.2656 24.2935V26.7778H77.5143H72.7443L72.2971 27.2379C71.8685 27.6428 71.8313 27.8268 71.8313 29.4462V31.1945H73.3219H74.8125V30.4584V29.7223H78.5391H82.2656V31.9306V34.1389H77.5143H72.7443L72.2971 34.599C71.8685 35.0039 71.8313 35.1879 71.8313 36.8073V38.5556H73.3219H74.8125V37.8195V37.0834H78.5391H82.2656V39.2917V41.5001H77.5143H72.7443L72.2971 41.9601C71.8685 42.365 71.8313 42.549 71.8313 44.1685V45.9167H73.3219H74.8125V45.1806V44.4445H78.5391H82.2656V46.6528V48.8612H77.5143H72.7443L72.2971 49.3212C71.8685 49.7261 71.8313 49.9101 71.8313 51.5296V53.2778H73.3219H74.8125V52.5417V51.8056H78.5391H82.2656V54.0139V56.2223H77.5143H72.7443L72.2971 56.6823C71.8685 57.0872 71.8313 57.2712 71.8313 58.8907V60.6389H73.3219H74.8125V59.9028V59.1667H78.5391H82.2656V61.3751V63.5834H77.5143H72.7443L72.2971 64.0435C71.8685 64.4483 71.8313 64.6323 71.8313 66.2518V68.0001H73.3219H74.8125V67.2639V66.5278H78.5391H82.2656V71.6806V76.8334H73.3219H64.3781V44.9046V12.9757L73.3219 17.3924L82.2656 21.8091V24.2935ZM25.6219 53.8299V76.8334H16.585H7.54805V53.8299V30.8264H16.585H25.6219V53.8299Z" fill="#3378C9"/>
<path d="M31.3049 0.7379L30.8391 1.17957V39.0157V76.8334H29.7211H28.6031V52.8362C28.6031 29.483 28.5845 28.8389 28.2491 28.4157L27.8951 27.974L17.0135 27.9188C11.051 27.9004 5.96426 27.9188 5.74066 27.974C5.51707 28.0292 5.14441 28.2501 4.93945 28.4709C4.5668 28.8757 4.5668 29.023 4.5668 52.8546V76.8334H2.42402H0.28125V78.3056V79.7778H45H89.7188V78.3056V76.8334H87.4828H85.2469V48.6587C85.2469 29.391 85.191 20.3921 85.0605 20.1344C84.7997 19.6928 63.4465 9.11117 62.7943 9.11117C62.5335 9.11117 62.1049 9.3136 61.8627 9.57124L61.3969 10.0129V43.4323V76.8334H60.2789H59.1609V39.0157V1.17957L58.6951 0.7379L58.2479 0.277832H45H31.7521L31.3049 0.7379ZM56.1797 40.0278V76.8334H45H33.8203V40.0278V3.22227H45H56.1797V40.0278ZM82.2656 24.2935V26.7778H77.5143H72.7443L72.2971 27.2379C71.8685 27.6428 71.8313 27.8268 71.8313 29.4462V31.1945H73.3219H74.8125V30.4584V29.7223H78.5391H82.2656V31.9306V34.1389H77.5143H72.7443L72.2971 34.599C71.8685 35.0039 71.8313 35.1879 71.8313 36.8073V38.5556H73.3219H74.8125V37.8195V37.0834H78.5391H82.2656V39.2917V41.5001H77.5143H72.7443L72.2971 41.9601C71.8685 42.365 71.8313 42.549 71.8313 44.1685V45.9167H73.3219H74.8125V45.1806V44.4445H78.5391H82.2656V46.6528V48.8612H77.5143H72.7443L72.2971 49.3212C71.8685 49.7261 71.8313 49.9101 71.8313 51.5296V53.2778H73.3219H74.8125V52.5417V51.8056H78.5391H82.2656V54.0139V56.2223H77.5143H72.7443L72.2971 56.6823C71.8685 57.0872 71.8313 57.2712 71.8313 58.8907V60.6389H73.3219H74.8125V59.9028V59.1667H78.5391H82.2656V61.3751V63.5834H77.5143H72.7443L72.2971 64.0435C71.8685 64.4483 71.8313 64.6323 71.8313 66.2518V68.0001H73.3219H74.8125V67.2639V66.5278H78.5391H82.2656V71.6806V76.8334H73.3219H64.3781V44.9046V12.9757L73.3219 17.3924L82.2656 21.8091V24.2935ZM25.6219 53.8299V76.8334H16.585H7.54805V53.8299V30.8264H16.585H25.6219V53.8299Z" fill="url(#paint0_radial_506_1279)"/>
<path d="M37.5469 37.8195V66.5278H39.0375H40.5281V37.8195V9.11116H39.0375H37.5469V37.8195Z" fill="#3378C9"/>
<path d="M37.5469 37.8195V66.5278H39.0375H40.5281V37.8195V9.11116H39.0375H37.5469V37.8195Z" fill="url(#paint1_radial_506_1279)"/>
<path d="M43.5094 37.8195V66.5278H45H46.4906V37.8195V9.11116H45H43.5094V37.8195Z" fill="#3378C9"/>
<path d="M43.5094 37.8195V66.5278H45H46.4906V37.8195V9.11116H45H43.5094V37.8195Z" fill="url(#paint2_radial_506_1279)"/>
<path d="M49.4719 37.8195V66.5278H50.9625H52.4531V37.8195V9.11116H50.9625H49.4719V37.8195Z" fill="#3378C9"/>
<path d="M49.4719 37.8195V66.5278H50.9625H52.4531V37.8195V9.11116H50.9625H49.4719V37.8195Z" fill="url(#paint3_radial_506_1279)"/>
<path d="M10.7156 37.0834V38.5557H16.6781H22.6406V37.0834V35.6112H16.6781H10.7156V37.0834Z" fill="#3378C9"/>
<path d="M10.7156 37.0834V38.5557H16.6781H22.6406V37.0834V35.6112H16.6781H10.7156V37.0834Z" fill="url(#paint4_radial_506_1279)"/>
<path d="M10.7156 42.9724V44.4446H16.6781H22.6406V42.9724V41.5001H16.6781H10.7156V42.9724Z" fill="#3378C9"/>
<path d="M10.7156 42.9724V44.4446H16.6781H22.6406V42.9724V41.5001H16.6781H10.7156V42.9724Z" fill="url(#paint5_radial_506_1279)"/>
<path d="M10.7156 48.8613V50.3335H16.6781H22.6406V48.8613V47.3891H16.6781H10.7156V48.8613Z" fill="#3378C9"/>
<path d="M10.7156 48.8613V50.3335H16.6781H22.6406V48.8613V47.3891H16.6781H10.7156V48.8613Z" fill="url(#paint6_radial_506_1279)"/>
<path d="M10.7156 54.7499V56.2222H16.6781H22.6406V54.7499V53.2777H16.6781H10.7156V54.7499Z" fill="#3378C9"/>
<path d="M10.7156 54.7499V56.2222H16.6781H22.6406V54.7499V53.2777H16.6781H10.7156V54.7499Z" fill="url(#paint7_radial_506_1279)"/>
<path d="M10.7156 60.6389V62.1111H16.6781H22.6406V60.6389V59.1666H16.6781H10.7156V60.6389Z" fill="#3378C9"/>
<path d="M10.7156 60.6389V62.1111H16.6781H22.6406V60.6389V59.1666H16.6781H10.7156V60.6389Z" fill="url(#paint8_radial_506_1279)"/>
<path d="M10.7156 66.5278V68H16.6781H22.6406V66.5278V65.0556H16.6781H10.7156V66.5278Z" fill="#3378C9"/>
<path d="M10.7156 66.5278V68H16.6781H22.6406V66.5278V65.0556H16.6781H10.7156V66.5278Z" fill="url(#paint9_radial_506_1279)"/>
<defs>
<radialGradient id="paint0_radial_506_1279" cx="0" cy="0" r="1" gradientUnits="userSpaceOnUse" gradientTransform="translate(17.6732 63.8788) rotate(-31.6818) scale(162.333 154.891)">
<stop stop-color="#10923E"/>
<stop offset="0.627261" stop-color="#0057BC"/>
</radialGradient>
<radialGradient id="paint1_radial_506_1279" cx="0" cy="0" r="1" gradientUnits="userSpaceOnUse" gradientTransform="translate(38.1266 55.0452) rotate(-85.7232) scale(61.7468 9.80322)">
<stop stop-color="#10923E"/>
<stop offset="0.627261" stop-color="#0057BC"/>
</radialGradient>
<radialGradient id="paint2_radial_506_1279" cx="0" cy="0" r="1" gradientUnits="userSpaceOnUse" gradientTransform="translate(44.0891 55.0452) rotate(-85.7232) scale(61.7468 9.80322)">
<stop stop-color="#10923E"/>
<stop offset="0.627261" stop-color="#0057BC"/>
</radialGradient>
<radialGradient id="paint3_radial_506_1279" cx="0" cy="0" r="1" gradientUnits="userSpaceOnUse" gradientTransform="translate(50.0516 55.0452) rotate(-85.7232) scale(61.7468 9.80322)">
<stop stop-color="#10923E"/>
<stop offset="0.627261" stop-color="#0057BC"/>
</radialGradient>
<radialGradient id="paint4_radial_506_1279" cx="0" cy="0" r="1" gradientUnits="userSpaceOnUse" gradientTransform="translate(13.0346 37.9668) rotate(-9.72805) scale(18.6876 6.64438)">
<stop stop-color="#10923E"/>
<stop offset="0.627261" stop-color="#0057BC"/>
</radialGradient>
<radialGradient id="paint5_radial_506_1279" cx="0" cy="0" r="1" gradientUnits="userSpaceOnUse" gradientTransform="translate(13.0346 43.8557) rotate(-9.72805) scale(18.6876 6.64438)">
<stop stop-color="#10923E"/>
<stop offset="0.627261" stop-color="#0057BC"/>
</radialGradient>
<radialGradient id="paint6_radial_506_1279" cx="0" cy="0" r="1" gradientUnits="userSpaceOnUse" gradientTransform="translate(13.0346 49.7446) rotate(-9.72805) scale(18.6876 6.64438)">
<stop stop-color="#10923E"/>
<stop offset="0.627261" stop-color="#0057BC"/>
</radialGradient>
<radialGradient id="paint7_radial_506_1279" cx="0" cy="0" r="1" gradientUnits="userSpaceOnUse" gradientTransform="translate(13.0346 55.6333) rotate(-9.72805) scale(18.6876 6.64438)">
<stop stop-color="#10923E"/>
<stop offset="0.627261" stop-color="#0057BC"/>
</radialGradient>
<radialGradient id="paint8_radial_506_1279" cx="0" cy="0" r="1" gradientUnits="userSpaceOnUse" gradientTransform="translate(13.0346 61.5222) rotate(-9.72805) scale(18.6876 6.64438)">
<stop stop-color="#10923E"/>
<stop offset="0.627261" stop-color="#0057BC"/>
</radialGradient>
<radialGradient id="paint9_radial_506_1279" cx="0" cy="0" r="1" gradientUnits="userSpaceOnUse" gradientTransform="translate(13.0346 67.4111) rotate(-9.72805) scale(18.6876 6.64438)">
<stop stop-color="#10923E"/>
<stop offset="0.627261" stop-color="#0057BC"/>
</radialGradient>
</defs>
</svg>
