<svg width="80" height="80" viewBox="0 0 80 80" fill="none" xmlns="http://www.w3.org/2000/svg">
<g clip-path="url(#clip0_507_1290)">
<path d="M15.1719 0.234375C12.7188 0.765625 10.7188 1.625 8.60938 3.03125C4.32812 5.89062 1.3125 10.4375 0.296875 15.5469C0.015625 16.9688 0.015625 20.8438 0.296875 22.2656C1.875 30.1719 8.04688 36.2031 15.9844 37.5625L16.5625 37.6719V33.9375V30.2031L15.75 29.8281C13.75 28.9062 11.8906 26.0938 11.875 24.0156V23.5938H14.2188C16.2188 23.5938 16.5625 23.625 16.5625 23.8281C16.5625 24.7656 17.875 25.9375 18.8906 25.9375C20.0938 25.9375 21.25 24.7812 21.25 23.5938C21.25 22.375 20.0938 21.25 18.8438 21.25C17.125 21.25 15.2812 20.4531 13.9844 19.1406C11.1719 16.3281 11.2031 12 14.0469 9.21875C14.5312 8.75 15.2969 8.1875 15.75 7.98438L16.5625 7.60938V3.79688C16.5625 0.859375 16.5156 0 16.375 0.015625C16.2656 0.015625 15.7188 0.125 15.1719 0.234375Z" fill="#3378C9"/>
<path d="M21.25 3.79688V7.60938L22.0625 7.98438C24.0625 8.90625 25.9219 11.7188 25.9375 13.7812V14.2188H23.5938C21.5938 14.2188 21.25 14.1875 21.25 13.9844C21.25 13.8438 21.1094 13.4531 20.9375 13.125C20.5781 12.4219 19.6875 11.875 18.9062 11.875C17.7188 11.875 16.5625 13.0312 16.5625 14.2188C16.5625 15.4062 17.75 16.5625 18.9531 16.5625C20.7031 16.5625 22.5156 17.3438 23.8281 18.6562C26.6406 21.4844 26.6094 25.8125 23.7656 28.5938C23.2812 29.0625 22.5156 29.625 22.0625 29.8281L21.25 30.2031V33.9375V37.6719L21.8438 37.5781C24.8281 37.0625 27.5938 35.8906 30 34.0938C33.6875 31.3438 36.2969 27.25 37.2812 22.6562C37.6406 21 37.6875 17.1719 37.3594 15.5469C35.7812 7.51562 29.6562 1.40625 21.8438 0.078125L21.25 -0.015625V3.79688Z" fill="#3378C9"/>
<path d="M68.2031 3C65.1094 4.54688 62.5469 5.84375 62.5 5.875C62.4062 5.98438 64.4219 10 64.5625 10C64.6406 10 65.5312 9.57812 66.5625 9.0625C67.5937 8.54688 68.4687 8.125 68.5 8.125C68.7344 8.125 65.2031 15.3906 63.6719 18.0625C52.7969 36.9219 37.4219 49.2656 18.8281 54.0625C13.3594 55.4844 6.375 56.4062 1.21875 56.4062H0V58.7812V61.1406L2.84375 61.0312C14.6406 60.5781 24.7031 58.0156 34.4375 53C47.375 46.3281 58.2969 35.6875 66.9531 21.3281C68.2969 19.0938 71.5 12.9062 72.4375 10.7344C72.75 9.98438 73.0625 9.375 73.1094 9.375C73.1719 9.375 73.6875 10.3281 74.2656 11.4844C74.8437 12.6406 75.375 13.5938 75.4687 13.5938C75.6094 13.5938 79.3437 11.7812 79.5 11.6406C79.5312 11.6094 78.2656 9.03125 76.6875 5.89062L73.8281 0.1875L68.2031 3Z" fill="#3378C9"/>
<path d="M61.0938 47.0312V51.7188H70.5469H80V47.0312V42.3438H70.5469H61.0938V47.0312Z" fill="#3378C9"/>
<path d="M37.6562 61.0938V65.7812H47.0312H56.4062V61.0938V56.4062H47.0312H37.6562V61.0938Z" fill="#3378C9"/>
<path d="M61.0938 61.0938V65.7812H70.5469H80V61.0938V56.4062H70.5469H61.0938V61.0938Z" fill="#3378C9"/>
<path d="M14.2188 75.2344V80H23.5938H32.9688V75.2344V70.4688H23.5938H14.2188V75.2344Z" fill="#3378C9"/>
<path d="M37.6562 75.2344V80H47.0312H56.4062V75.2344V70.4688H47.0312H37.6562V75.2344Z" fill="#3378C9"/>
<path d="M61.0938 75.2344V80H70.5469H80V75.2344V70.4688H70.5469H61.0938V75.2344Z" fill="#3378C9"/>
</g>
<defs>
<clipPath id="clip0_507_1290">
<rect width="80" height="80" fill="white"/>
</clipPath>
</defs>
</svg>
