<svg width="90" height="90" viewBox="0 0 90 90" fill="none" xmlns="http://www.w3.org/2000/svg">
<g clip-path="url(#clip0_5059_5293)">
<path d="M43.7519 0.404381C42.4862 1.26571 42.0468 2.54891 42.6445 3.77938C42.7851 4.09579 43.7343 5.15047 44.7187 6.11727C46.6698 8.01571 47.1444 8.24422 48.4628 7.99813C48.9902 7.91024 49.4999 7.50594 50.9237 6.11727C52.9452 4.11337 53.3495 3.48055 53.2265 2.37313C53.121 1.47665 52.6816 0.843834 51.8378 0.369225C50.7128 -0.281165 49.9569 -0.122962 48.5507 1.01962L47.7948 1.61727L47.3202 1.17782C46.0194 -0.0350714 44.8066 -0.298743 43.7519 0.404381Z" fill="#79B7FF"/>
<path d="M58.182 3.00591C56.0199 3.86724 55.9672 6.80279 58.0942 7.87505C58.2875 7.96294 59.1664 8.10357 60.0278 8.17388C66.6195 8.70123 70.6801 12.0586 70.6625 16.9454C70.6449 19.336 69.5024 21.709 67.393 23.7305C64.3871 26.5782 60.6606 27.9317 54.8246 28.2657C52.7856 28.3887 52.3637 28.459 51.9067 28.793C51.2035 29.2852 50.7113 30.5157 50.8695 31.377C51.0453 32.2383 51.9067 33.17 52.768 33.4161C54.3149 33.8204 60.1332 33.0821 63.2094 32.0801C70.7504 29.6016 75.4613 24.3106 75.8832 17.8243C76.3051 11.2325 71.6996 5.29107 64.7738 3.53326C62.2953 2.90044 59.0785 2.65435 58.182 3.00591Z" fill="#79B7FF"/>
<path d="M25.8753 8.61328C19.9339 9.45703 15.8031 13.6934 15.5218 19.248C15.4164 21.3574 15.7679 23.0273 16.805 25.1191C18.1761 27.9141 20.7777 30.2344 24.1527 31.6934C26.1742 32.5547 28.6878 33.1523 31.3246 33.3984C34.0316 33.6445 34.6644 33.5391 35.5082 32.6953C36.4046 31.7988 36.5628 30.8848 36.0355 29.8125C35.473 28.6172 35.0863 28.459 32.2738 28.1953C30.9027 28.0723 29.1976 27.8086 28.4593 27.6152C23.555 26.3496 20.514 23.0801 20.7777 19.3535C21.0062 16.3125 23.2386 14.291 26.8421 13.8516C31.4476 13.2715 35.3324 15.8203 38.0218 21.1816C40.3597 25.8574 41.9242 32.8711 42.2933 40.3418C42.4164 43.1719 42.6624 43.8223 43.7699 44.4551C45.0531 45.1758 46.5296 44.7363 47.2679 43.418C47.6722 42.6973 47.6898 42.5918 47.5667 40.1836C47.2679 34.084 46.266 28.4238 44.6488 23.5195C41.4847 13.957 36.0531 8.87695 28.6703 8.54296C27.7386 8.49023 26.4906 8.52539 25.8753 8.61328Z" fill="#79B7FF"/>
<path d="M1.37046 42.7324C0.192728 43.3477 -0.317038 44.9121 0.280618 46.1074C0.438821 46.4238 2.51304 48.6211 4.88609 51.0117L9.22789 55.3711H27.0697H44.9115L38.6712 49.1133C35.2084 45.6328 32.1849 42.75 31.8685 42.6094C31.3939 42.3984 28.8275 42.3633 16.6634 42.3633C2.42515 42.3809 2.00327 42.3809 1.37046 42.7324Z" fill="#79B7FF"/>
<path d="M58.0957 42.6094C57.8145 42.75 54.7559 45.668 51.3281 49.1133L45.0879 55.3711H62.9297H80.7715L85.1133 51.0117C87.4863 48.6211 89.5605 46.4238 89.7188 46.1074C90.3164 44.9121 89.8418 43.4355 88.6289 42.75L87.9258 42.3633H73.2832C61.2949 42.3809 58.5352 42.416 58.0957 42.6094Z" fill="#79B7FF"/>
<path d="M14.0977 74.4258C14.1504 88.0488 14.1504 88.2246 14.5195 88.6992C14.7129 88.9629 15.0996 89.3496 15.3633 89.543C15.8379 89.9121 16.0312 89.9121 29.1094 89.9648L42.3633 90V75.3223V60.6445H28.2129H14.0625L14.0977 74.4258Z" fill="#79B7FF"/>
<path d="M47.6367 75.3223V90L60.8906 89.9648C73.9688 89.9121 74.1621 89.9121 74.6367 89.543C74.9004 89.3496 75.2871 88.9629 75.4805 88.6992C75.8496 88.2246 75.8496 88.0488 75.9023 74.4258L75.9375 60.6445H61.7871H47.6367V75.3223Z" fill="#79B7FF"/>
</g>
<defs>
<clipPath id="clip0_5059_5293">
<rect width="90" height="90" fill="white"/>
</clipPath>
</defs>
</svg>
