<svg width="168" height="168" viewBox="0 0 168 168" fill="none" xmlns="http://www.w3.org/2000/svg">
<g clip-path="url(#clip0_3229_1922)">
<g filter="url(#filter0_d_3229_1922)">
<path d="M88.0962 20.7562C107.014 7.51003 133.177 19.71 135.189 42.7161L141.831 118.636C143.844 141.642 120.197 158.2 99.2671 148.44L30.1971 116.232C9.26686 106.472 6.75089 77.7148 25.6684 64.4686L88.0962 20.7562Z" fill="white"/>
</g>
<path d="M64.1208 51.4958C63.8375 51.7083 63.625 53.6208 63.625 55.7458V59.5H66.4583C72.55 59.5 76.8 66.725 73.9667 72.3208C72.55 75.1542 72.55 75.0833 74.1083 75.0833C74.8167 75.0833 77.7208 73.5958 80.5542 71.7542C83.8125 69.7 86.575 68.4958 87.9208 68.4958C90.825 68.4958 92.8083 70.975 92.525 74.3042C92.3125 76.7125 91.8167 77.2083 84.3792 82.1667C77.5083 86.7708 76.4458 87.7625 76.375 89.3917V91.375H82.3958H88.4167V95.4833V99.5917L83.8125 104.125C79.7042 108.162 78.2167 110.5 79.7042 110.5C79.9875 110.5 82.0417 108.658 84.3083 106.463L88.4167 102.425V106.108C88.4167 108.942 88.7 109.792 89.4792 109.792C90.2583 109.792 90.5417 108.942 90.5417 106.25C90.5417 104.267 90.825 102.708 91.1083 102.708C91.3917 102.708 93.375 104.479 95.5 106.604C98.05 109.225 99.5375 110.287 100.033 109.792C100.529 109.296 99.0417 107.383 95.6417 103.912C90.6125 98.8833 90.5417 98.7417 90.5417 95.0583V91.375H105.771H121V71.1875V51H92.8083C77.2958 51 64.3333 51.2125 64.1208 51.4958ZM107.329 58.5792C107.967 60.4208 109.1 60.9875 110.162 60.0667C111.579 58.9333 114.908 62.1917 113.846 63.4667C112.854 64.6708 113.562 66.5833 114.979 66.5833C115.758 66.5833 116.042 67.2917 116.042 69.0625C116.042 70.6917 115.688 71.5417 115.05 71.5417C113.846 71.5417 113.208 73.1 113.633 74.8708C114.129 76.6417 111.367 79.1917 110.304 78.1292C109.312 77.1375 107.542 77.7042 107.542 79.05C107.542 79.6875 106.692 80.0417 105.062 80.0417C103.433 80.0417 102.583 79.6875 102.583 79.05C102.583 77.775 100.529 76.9958 99.3958 77.9167C98.1208 78.9792 95.0042 75.5083 96.0667 74.1625C96.9875 73.1 96.4208 71.9667 94.65 71.3292C92.8083 70.6917 92.95 67.2917 94.8625 66.7958C95.9958 66.4417 96.2792 65.9458 96.0667 64.3875C95.6417 61.6958 98.4042 58.7917 100.033 60.1375C100.883 60.8458 101.308 60.7042 102.229 59.2167C103.646 57.0917 106.621 56.7375 107.329 58.5792Z" fill="white"/>
<path d="M64.1208 51.4958C63.8375 51.7083 63.625 53.6208 63.625 55.7458V59.5H66.4583C72.55 59.5 76.8 66.725 73.9667 72.3208C72.55 75.1542 72.55 75.0833 74.1083 75.0833C74.8167 75.0833 77.7208 73.5958 80.5542 71.7542C83.8125 69.7 86.575 68.4958 87.9208 68.4958C90.825 68.4958 92.8083 70.975 92.525 74.3042C92.3125 76.7125 91.8167 77.2083 84.3792 82.1667C77.5083 86.7708 76.4458 87.7625 76.375 89.3917V91.375H82.3958H88.4167V95.4833V99.5917L83.8125 104.125C79.7042 108.162 78.2167 110.5 79.7042 110.5C79.9875 110.5 82.0417 108.658 84.3083 106.463L88.4167 102.425V106.108C88.4167 108.942 88.7 109.792 89.4792 109.792C90.2583 109.792 90.5417 108.942 90.5417 106.25C90.5417 104.267 90.825 102.708 91.1083 102.708C91.3917 102.708 93.375 104.479 95.5 106.604C98.05 109.225 99.5375 110.287 100.033 109.792C100.529 109.296 99.0417 107.383 95.6417 103.912C90.6125 98.8833 90.5417 98.7417 90.5417 95.0583V91.375H105.771H121V71.1875V51H92.8083C77.2958 51 64.3333 51.2125 64.1208 51.4958ZM107.329 58.5792C107.967 60.4208 109.1 60.9875 110.162 60.0667C111.579 58.9333 114.908 62.1917 113.846 63.4667C112.854 64.6708 113.562 66.5833 114.979 66.5833C115.758 66.5833 116.042 67.2917 116.042 69.0625C116.042 70.6917 115.688 71.5417 115.05 71.5417C113.846 71.5417 113.208 73.1 113.633 74.8708C114.129 76.6417 111.367 79.1917 110.304 78.1292C109.312 77.1375 107.542 77.7042 107.542 79.05C107.542 79.6875 106.692 80.0417 105.062 80.0417C103.433 80.0417 102.583 79.6875 102.583 79.05C102.583 77.775 100.529 76.9958 99.3958 77.9167C98.1208 78.9792 95.0042 75.5083 96.0667 74.1625C96.9875 73.1 96.4208 71.9667 94.65 71.3292C92.8083 70.6917 92.95 67.2917 94.8625 66.7958C95.9958 66.4417 96.2792 65.9458 96.0667 64.3875C95.6417 61.6958 98.4042 58.7917 100.033 60.1375C100.883 60.8458 101.308 60.7042 102.229 59.2167C103.646 57.0917 106.621 56.7375 107.329 58.5792Z" fill="url(#paint0_radial_3229_1922)"/>
<path d="M101.379 67.0083C100.317 68.7083 100.317 69.0625 101.238 70.7625C103.221 74.3042 108.958 73.0292 108.958 68.9917C108.958 65.0958 103.575 63.6792 101.379 67.0083Z" fill="white"/>
<path d="M101.379 67.0083C100.317 68.7083 100.317 69.0625 101.238 70.7625C103.221 74.3042 108.958 73.0292 108.958 68.9917C108.958 65.0958 103.575 63.6792 101.379 67.0083Z" fill="url(#paint1_radial_3229_1922)"/>
<path d="M61.9959 63.043C57.3209 66.7263 60.3668 75.793 66.2459 75.793C68.9376 75.793 72.1251 72.3221 72.6209 68.9221C72.9751 66.3013 72.7626 65.7346 70.8501 63.7513C68.2292 61.2013 64.7584 60.918 61.9959 63.043Z" fill="white"/>
<path d="M61.9959 63.043C57.3209 66.7263 60.3668 75.793 66.2459 75.793C68.9376 75.793 72.1251 72.3221 72.6209 68.9221C72.9751 66.3013 72.7626 65.7346 70.8501 63.7513C68.2292 61.2013 64.7584 60.918 61.9959 63.043Z" fill="url(#paint2_radial_3229_1922)"/>
<path d="M81.4042 73.7375C77.0125 76.6417 75.6667 77.2083 72.9042 77.2083C69.7875 77.2083 69.5042 77.35 68.3708 79.6875C67.7333 81.0333 66.8833 82.1667 66.4583 82.1667C66.1042 82.1667 65.0417 81.0333 64.1917 79.6875C62.7042 77.4208 62.2792 77.2083 59.1625 77.2083C53.5667 77.2083 53 78.2708 53 89.1792C53 98.8833 53.1417 99.1667 56.6125 99.1667C57.8167 99.1667 57.9583 99.875 58.1 108.871L58.3125 118.646H61.5C64.6167 118.646 64.6875 118.575 64.8292 116.167C65.6792 104.338 66.0333 101.717 66.5292 103.771C66.7417 104.904 67.025 108.092 67.0958 110.854C67.2375 118.504 67.5208 119 71.1333 119H74.25L74.3917 102.496L74.6042 86.0625L82.3958 80.8917C90.6125 75.5083 91.8875 73.7375 89.4792 71.2583C87.85 69.6292 87.2833 69.8417 81.4042 73.7375Z" fill="white"/>
<path d="M81.4042 73.7375C77.0125 76.6417 75.6667 77.2083 72.9042 77.2083C69.7875 77.2083 69.5042 77.35 68.3708 79.6875C67.7333 81.0333 66.8833 82.1667 66.4583 82.1667C66.1042 82.1667 65.0417 81.0333 64.1917 79.6875C62.7042 77.4208 62.2792 77.2083 59.1625 77.2083C53.5667 77.2083 53 78.2708 53 89.1792C53 98.8833 53.1417 99.1667 56.6125 99.1667C57.8167 99.1667 57.9583 99.875 58.1 108.871L58.3125 118.646H61.5C64.6167 118.646 64.6875 118.575 64.8292 116.167C65.6792 104.338 66.0333 101.717 66.5292 103.771C66.7417 104.904 67.025 108.092 67.0958 110.854C67.2375 118.504 67.5208 119 71.1333 119H74.25L74.3917 102.496L74.6042 86.0625L82.3958 80.8917C90.6125 75.5083 91.8875 73.7375 89.4792 71.2583C87.85 69.6292 87.2833 69.8417 81.4042 73.7375Z" fill="url(#paint3_radial_3229_1922)"/>
</g>
<defs>
<filter id="filter0_d_3229_1922" x="-0.126709" y="12.293" width="145.078" height="152.004" filterUnits="userSpaceOnUse" color-interpolation-filters="sRGB">
<feFlood flood-opacity="0" result="BackgroundImageFix"/>
<feColorMatrix in="SourceAlpha" type="matrix" values="0 0 0 0 0 0 0 0 0 0 0 0 0 0 0 0 0 0 127 0" result="hardAlpha"/>
<feOffset dx="-5" dy="5"/>
<feGaussianBlur stdDeviation="4"/>
<feComposite in2="hardAlpha" operator="out"/>
<feColorMatrix type="matrix" values="0 0 0 0 0 0 0 0 0 0 0 0 0 0 0 0 0 0 0.25 0"/>
<feBlend mode="normal" in2="BackgroundImageFix" result="effect1_dropShadow_3229_1922"/>
<feBlend mode="normal" in="SourceGraphic" in2="effect1_dropShadow_3229_1922" result="shape"/>
</filter>
<radialGradient id="paint0_radial_3229_1922" cx="0" cy="0" r="1" gradientUnits="userSpaceOnUse" gradientTransform="translate(74.7821 98.6007) rotate(-35.7552) scale(109.202 110.55)">
<stop stop-color="#00862D"/>
<stop offset="0.627261" stop-color="#0033CC"/>
</radialGradient>
<radialGradient id="paint1_radial_3229_1922" cx="0" cy="0" r="1" gradientUnits="userSpaceOnUse" gradientTransform="translate(102.196 71.2945) rotate(-32.4507) scale(15.3654 14.8531)">
<stop stop-color="#00862D"/>
<stop offset="0.627261" stop-color="#0033CC"/>
</radialGradient>
<radialGradient id="paint2_radial_3229_1922" cx="0" cy="0" r="1" gradientUnits="userSpaceOnUse" gradientTransform="translate(62.2505 72.9594) rotate(-37.011) scale(25.2418 25.9033)">
<stop stop-color="#00862D"/>
<stop offset="0.627261" stop-color="#0033CC"/>
</radialGradient>
<radialGradient id="paint3_radial_3229_1922" cx="0" cy="0" r="1" gradientUnits="userSpaceOnUse" gradientTransform="translate(60.305 109.26) rotate(-41.9911) scale(78.066 82.8721)">
<stop stop-color="#00862D"/>
<stop offset="0.627261" stop-color="#0033CC"/>
</radialGradient>
<clipPath id="clip0_3229_1922">
<rect width="168" height="168" fill="white"/>
</clipPath>
</defs>
</svg>
