<svg width="168" height="168" viewBox="0 0 168 168" fill="none" xmlns="http://www.w3.org/2000/svg">
<g clip-path="url(#clip0_3229_1941)">
<g filter="url(#filter0_d_3229_1941)">
<path d="M89.0962 18.7562C108.014 5.51003 134.177 17.71 136.189 40.7161L142.831 116.636C144.844 139.642 121.197 156.2 100.267 146.44L31.1971 114.232C10.2669 104.472 7.75089 75.7148 26.6684 62.4686L89.0962 18.7562Z" fill="white"/>
</g>
<path d="M73.6007 49.6818C68.9121 51.3866 66.0384 55.478 66.0384 60.3878C66.0384 64.2747 68.0802 67.4797 72.0883 69.9346C75.567 72.0486 81.9194 71.844 85.6249 69.3891C88.4986 67.6161 90.9186 63.2519 90.9942 60.1151C91.0698 52.8186 81.2387 46.9541 73.6007 49.6818Z" fill="white"/>
<path d="M73.6007 49.6818C68.9121 51.3866 66.0384 55.478 66.0384 60.3878C66.0384 64.2747 68.0802 67.4797 72.0883 69.9346C75.567 72.0486 81.9194 71.844 85.6249 69.3891C88.4986 67.6161 90.9186 63.2519 90.9942 60.1151C91.0698 52.8186 81.2387 46.9541 73.6007 49.6818Z" fill="url(#paint0_radial_3229_1941)"/>
<path d="M75.1132 75.798C75.1132 76.3436 75.4913 77.0255 75.8694 77.2301C76.3232 77.4346 76.6257 79.7531 76.6257 82.2762C76.6257 85.0721 77.0038 87.3224 77.6844 88.1407C78.6675 89.3681 78.7431 89.3681 79.3481 87.7315C79.7262 86.845 80.0287 84.2538 80.1044 82.0035C80.1044 79.7531 80.4069 77.2301 80.785 76.3436C81.3143 74.9797 81.0875 74.8434 78.2138 74.8434C76.0207 74.8434 75.1132 75.1161 75.1132 75.798Z" fill="white"/>
<path d="M75.1132 75.798C75.1132 76.3436 75.4913 77.0255 75.8694 77.2301C76.3232 77.4346 76.6257 79.7531 76.6257 82.2762C76.6257 85.0721 77.0038 87.3224 77.6844 88.1407C78.6675 89.3681 78.7431 89.3681 79.3481 87.7315C79.7262 86.845 80.0287 84.2538 80.1044 82.0035C80.1044 79.7531 80.4069 77.2301 80.785 76.3436C81.3143 74.9797 81.0875 74.8434 78.2138 74.8434C76.0207 74.8434 75.1132 75.1161 75.1132 75.798Z" fill="url(#paint1_radial_3229_1941)"/>
<path d="M62.7865 76.8925C60.9716 77.1653 58.8541 78.3245 57.1148 79.8929L54.3167 82.3478L54.0898 92.9857C53.8629 102.26 54.0142 103.76 55.1485 104.919C56.3585 106.147 57.6441 106.215 72.8445 106.215H89.3305L89.8599 102.942C90.843 96.5317 94.7754 91.6219 100.75 89.3716C103.094 88.4851 103.245 88.2805 102.716 85.8938C101.96 82.2115 100.296 79.7566 97.6491 78.2563C94.7754 76.6879 87.9693 75.7333 87.2887 76.8243C86.9862 77.2335 85.0956 81.7341 83.0537 86.7803C80.4069 93.5994 79.1213 95.9861 78.2894 95.8497C77.5332 95.7134 75.7182 92.0992 73.2983 86.0984C68.9877 75.5287 69.2146 75.7333 62.7865 76.8925Z" fill="white"/>
<path d="M62.7865 76.8925C60.9716 77.1653 58.8541 78.3245 57.1148 79.8929L54.3167 82.3478L54.0898 92.9857C53.8629 102.26 54.0142 103.76 55.1485 104.919C56.3585 106.147 57.6441 106.215 72.8445 106.215H89.3305L89.8599 102.942C90.843 96.5317 94.7754 91.6219 100.75 89.3716C103.094 88.4851 103.245 88.2805 102.716 85.8938C101.96 82.2115 100.296 79.7566 97.6491 78.2563C94.7754 76.6879 87.9693 75.7333 87.2887 76.8243C86.9862 77.2335 85.0956 81.7341 83.0537 86.7803C80.4069 93.5994 79.1213 95.9861 78.2894 95.8497C77.5332 95.7134 75.7182 92.0992 73.2983 86.0984C68.9877 75.5287 69.2146 75.7333 62.7865 76.8925Z" fill="url(#paint2_radial_3229_1941)"/>
<path d="M103.548 92.1645C100.296 93.2556 96.666 96.1196 95.0779 98.8473C93.5654 101.507 93.7167 107.167 95.5317 110.235C102.111 121.964 122 117.464 122 104.234C122 95.7787 112.245 89.3687 103.548 92.1645ZM116.555 98.8473C117.084 99.3246 117.463 99.9383 117.463 100.279C117.463 101.575 107.329 110.303 105.817 110.303C103.926 110.303 98.5566 105.666 98.5566 104.098C98.5566 101.984 101.506 101.779 103.775 103.757L105.817 105.53L109.9 101.779C114.211 97.8926 115.043 97.4834 116.555 98.8473Z" fill="white"/>
<path d="M103.548 92.1645C100.296 93.2556 96.666 96.1196 95.0779 98.8473C93.5654 101.507 93.7167 107.167 95.5317 110.235C102.111 121.964 122 117.464 122 104.234C122 95.7787 112.245 89.3687 103.548 92.1645ZM116.555 98.8473C117.084 99.3246 117.463 99.9383 117.463 100.279C117.463 101.575 107.329 110.303 105.817 110.303C103.926 110.303 98.5566 105.666 98.5566 104.098C98.5566 101.984 101.506 101.779 103.775 103.757L105.817 105.53L109.9 101.779C114.211 97.8926 115.043 97.4834 116.555 98.8473Z" fill="url(#paint3_radial_3229_1941)"/>
</g>
<defs>
<filter id="filter0_d_3229_1941" x="0.873352" y="10.293" width="145.078" height="152.004" filterUnits="userSpaceOnUse" color-interpolation-filters="sRGB">
<feFlood flood-opacity="0" result="BackgroundImageFix"/>
<feColorMatrix in="SourceAlpha" type="matrix" values="0 0 0 0 0 0 0 0 0 0 0 0 0 0 0 0 0 0 127 0" result="hardAlpha"/>
<feOffset dx="-5" dy="5"/>
<feGaussianBlur stdDeviation="4"/>
<feComposite in2="hardAlpha" operator="out"/>
<feColorMatrix type="matrix" values="0 0 0 0 0 0 0 0 0 0 0 0 0 0 0 0 0 0 0.25 0"/>
<feBlend mode="normal" in2="BackgroundImageFix" result="effect1_dropShadow_3229_1941"/>
<feBlend mode="normal" in="SourceGraphic" in2="effect1_dropShadow_3229_1941" result="shape"/>
</filter>
<radialGradient id="paint0_radial_3229_1941" cx="0" cy="0" r="1" gradientUnits="userSpaceOnUse" gradientTransform="translate(70.8913 66.9097) rotate(-31.9155) scale(45.4114 43.5055)">
<stop stop-color="#00862D"/>
<stop offset="0.627261" stop-color="#0033CC"/>
</radialGradient>
<radialGradient id="paint1_radial_3229_1941" cx="0" cy="0" r="1" gradientUnits="userSpaceOnUse" gradientTransform="translate(76.2601 86.1813) rotate(-59.0616) scale(17.7198 16.6818)">
<stop stop-color="#00862D"/>
<stop offset="0.627261" stop-color="#0033CC"/>
</radialGradient>
<radialGradient id="paint2_radial_3229_1941" cx="0" cy="0" r="1" gradientUnits="userSpaceOnUse" gradientTransform="translate(63.5223 100.243) rotate(-22.9474) scale(82.1338 62.9551)">
<stop stop-color="#00862D"/>
<stop offset="0.627261" stop-color="#0033CC"/>
</radialGradient>
<radialGradient id="paint3_radial_3229_1941" cx="0" cy="0" r="1" gradientUnits="userSpaceOnUse" gradientTransform="translate(99.4825 111.9) rotate(-32.3494) scale(51.1075 49.3213)">
<stop stop-color="#00862D"/>
<stop offset="0.627261" stop-color="#0033CC"/>
</radialGradient>
<clipPath id="clip0_3229_1941">
<rect width="168" height="168" fill="white"/>
</clipPath>
</defs>
</svg>
