<svg width="168" height="168" viewBox="0 0 168 168" fill="none" xmlns="http://www.w3.org/2000/svg">
<g clip-path="url(#clip0_3229_1933)">
<g filter="url(#filter0_d_3229_1933)">
<path d="M81.0962 19.3109C100.014 6.06472 126.177 18.2647 128.189 41.2708L134.831 117.191C136.844 140.197 113.197 156.755 92.2671 146.995L23.1971 114.787C2.26686 105.027 -0.24911 76.2695 18.6684 63.0233L81.0962 19.3109Z" fill="white"/>
</g>
<path d="M84.9227 50.6271C78.6557 52.8795 73.8193 57.6571 71.367 64.0729C68.7103 71.1028 71.4351 83.1152 76.2034 85.5723C77.3614 86.1183 79.3369 87.2786 80.6993 88.1659C82.6066 89.3262 84.1734 89.6675 87.7155 89.6675C92.2114 89.6675 95.8898 90.8278 96.4348 92.4658C96.8435 93.6943 103.724 90.35 107.061 87.2786C108.628 85.9136 110.74 83.047 111.762 80.9312C113.396 77.6551 113.669 76.1535 113.669 71.5806C113.669 65.0966 111.693 60.1142 107.538 55.8826C101.952 50.2859 92.2114 48.0336 84.9227 50.6271ZM94.0506 59.7047C94.255 60.865 95.1405 62.23 96.0261 62.8443C97.8653 64.0046 98.0697 65.2331 96.7073 66.3934C95.958 67.076 95.2768 67.0077 93.71 66.1887C91.9389 65.2331 91.5983 65.2331 90.849 66.1204C89.8272 67.349 90.4403 69.1918 91.8708 69.1918C93.9825 69.1918 96.8435 71.2393 97.5247 73.2869C98.4102 75.8122 97.4566 79.1566 95.5492 80.1804C94.8681 80.5217 94.255 81.5454 94.255 82.4327C94.255 83.32 93.8463 84.412 93.3013 84.8215C91.8708 85.9818 90.1678 84.9581 90.1678 82.9105C90.1678 81.6137 89.5548 80.7264 88.1243 79.9074C85.8763 78.5423 85.3995 76.2218 87.1706 75.5392C87.7837 75.3345 88.8055 75.471 89.4185 75.8805C91.5302 77.4503 92.3476 77.5868 93.3694 76.4948C94.255 75.6075 94.3231 75.198 93.5738 74.3789C93.097 73.7647 92.0071 73.2869 91.1896 73.2869C89.0779 73.2869 86.0807 69.6695 86.0807 67.0077C86.0807 65.6427 86.6938 64.3459 88.1243 63.0491C89.2823 62.0253 90.1678 60.5237 90.1678 59.8412C90.1678 56.7699 93.4376 56.6334 94.0506 59.7047Z" fill="white"/>
<path d="M84.9227 50.6271C78.6557 52.8795 73.8193 57.6571 71.367 64.0729C68.7103 71.1028 71.4351 83.1152 76.2034 85.5723C77.3614 86.1183 79.3369 87.2786 80.6993 88.1659C82.6066 89.3262 84.1734 89.6675 87.7155 89.6675C92.2114 89.6675 95.8898 90.8278 96.4348 92.4658C96.8435 93.6943 103.724 90.35 107.061 87.2786C108.628 85.9136 110.74 83.047 111.762 80.9312C113.396 77.6551 113.669 76.1535 113.669 71.5806C113.669 65.0966 111.693 60.1142 107.538 55.8826C101.952 50.2859 92.2114 48.0336 84.9227 50.6271ZM94.0506 59.7047C94.255 60.865 95.1405 62.23 96.0261 62.8443C97.8653 64.0046 98.0697 65.2331 96.7073 66.3934C95.958 67.076 95.2768 67.0077 93.71 66.1887C91.9389 65.2331 91.5983 65.2331 90.849 66.1204C89.8272 67.349 90.4403 69.1918 91.8708 69.1918C93.9825 69.1918 96.8435 71.2393 97.5247 73.2869C98.4102 75.8122 97.4566 79.1566 95.5492 80.1804C94.8681 80.5217 94.255 81.5454 94.255 82.4327C94.255 83.32 93.8463 84.412 93.3013 84.8215C91.8708 85.9818 90.1678 84.9581 90.1678 82.9105C90.1678 81.6137 89.5548 80.7264 88.1243 79.9074C85.8763 78.5423 85.3995 76.2218 87.1706 75.5392C87.7837 75.3345 88.8055 75.471 89.4185 75.8805C91.5302 77.4503 92.3476 77.5868 93.3694 76.4948C94.255 75.6075 94.3231 75.198 93.5738 74.3789C93.097 73.7647 92.0071 73.2869 91.1896 73.2869C89.0779 73.2869 86.0807 69.6695 86.0807 67.0077C86.0807 65.6427 86.6938 64.3459 88.1243 63.0491C89.2823 62.0253 90.1678 60.5237 90.1678 59.8412C90.1678 56.7699 93.4376 56.6334 94.0506 59.7047Z" fill="url(#paint0_radial_3229_1933)"/>
<path d="M64.4869 90.0075L62.239 90.963V103.59V116.148L66.8711 116.967C69.664 117.445 76.2034 117.65 83.6965 117.513C99.5002 117.24 99.1596 117.445 107.606 106.183C114.35 97.2422 115.168 95.0582 112.783 92.8741C111.149 91.3725 109.037 91.4408 107.402 92.8741C106.653 93.5566 103.86 96.628 101.067 99.7676L96.0942 105.433L86.1488 105.228C76.7484 105.023 76.2034 104.955 76.2034 103.658C76.2034 102.361 76.7484 102.293 83.9009 101.952C90.9853 101.61 91.7346 101.474 92.9607 99.9723C94.5275 98.0613 94.5956 97.2422 93.1651 95.2629C92.2795 93.9661 91.5302 93.7614 87.0344 93.7614C82.4023 93.7614 81.4486 93.4884 77.6339 91.3725C72.8656 88.7107 68.4379 88.2329 64.4869 90.0075Z" fill="white"/>
<path d="M64.4869 90.0075L62.239 90.963V103.59V116.148L66.8711 116.967C69.664 117.445 76.2034 117.65 83.6965 117.513C99.5002 117.24 99.1596 117.445 107.606 106.183C114.35 97.2422 115.168 95.0582 112.783 92.8741C111.149 91.3725 109.037 91.4408 107.402 92.8741C106.653 93.5566 103.86 96.628 101.067 99.7676L96.0942 105.433L86.1488 105.228C76.7484 105.023 76.2034 104.955 76.2034 103.658C76.2034 102.361 76.7484 102.293 83.9009 101.952C90.9853 101.61 91.7346 101.474 92.9607 99.9723C94.5275 98.0613 94.5956 97.2422 93.1651 95.2629C92.2795 93.9661 91.5302 93.7614 87.0344 93.7614C82.4023 93.7614 81.4486 93.4884 77.6339 91.3725C72.8656 88.7107 68.4379 88.2329 64.4869 90.0075Z" fill="url(#paint1_radial_3229_1933)"/>
<path d="M46.163 90.5554C46.0267 91.0332 45.9586 97.2441 46.0267 104.342L46.2311 117.31L50.0457 117.515C53.3155 117.652 54.201 117.447 55.8359 116.014L57.8113 114.375V103.66V92.9442L55.904 91.3062C54.4054 90.0094 53.2473 89.6681 50.2501 89.6681C47.8659 89.6681 46.4354 90.0094 46.163 90.5554Z" fill="white"/>
<path d="M46.163 90.5554C46.0267 91.0332 45.9586 97.2441 46.0267 104.342L46.2311 117.31L50.0457 117.515C53.3155 117.652 54.201 117.447 55.8359 116.014L57.8113 114.375V103.66V92.9442L55.904 91.3062C54.4054 90.0094 53.2473 89.6681 50.2501 89.6681C47.8659 89.6681 46.4354 90.0094 46.163 90.5554Z" fill="url(#paint2_radial_3229_1933)"/>
</g>
<defs>
<filter id="filter0_d_3229_1933" x="-7.12671" y="10.8477" width="145.078" height="152.004" filterUnits="userSpaceOnUse" color-interpolation-filters="sRGB">
<feFlood flood-opacity="0" result="BackgroundImageFix"/>
<feColorMatrix in="SourceAlpha" type="matrix" values="0 0 0 0 0 0 0 0 0 0 0 0 0 0 0 0 0 0 127 0" result="hardAlpha"/>
<feOffset dx="-5" dy="5"/>
<feGaussianBlur stdDeviation="4"/>
<feComposite in2="hardAlpha" operator="out"/>
<feColorMatrix type="matrix" values="0 0 0 0 0 0 0 0 0 0 0 0 0 0 0 0 0 0 0.25 0"/>
<feBlend mode="normal" in2="BackgroundImageFix" result="effect1_dropShadow_3229_1933"/>
<feBlend mode="normal" in="SourceGraphic" in2="effect1_dropShadow_3229_1933" result="shape"/>
</filter>
<radialGradient id="paint0_radial_3229_1933" cx="0" cy="0" r="1" gradientUnits="userSpaceOnUse" gradientTransform="translate(78.7547 84.0928) rotate(-34.6667) scale(81.3951 81.2939)">
<stop stop-color="#00862D"/>
<stop offset="0.627261" stop-color="#0033CC"/>
</radialGradient>
<radialGradient id="paint1_radial_3229_1933" cx="0" cy="0" r="1" gradientUnits="userSpaceOnUse" gradientTransform="translate(72.3044 111.835) rotate(-20.9888) scale(85.6295 61.1352)">
<stop stop-color="#00862D"/>
<stop offset="0.627261" stop-color="#0033CC"/>
</radialGradient>
<radialGradient id="paint2_radial_3229_1933" cx="0" cy="0" r="1" gradientUnits="userSpaceOnUse" gradientTransform="translate(48.2968 111.975) rotate(-58.6124) scale(35.0278 33.2481)">
<stop stop-color="#00862D"/>
<stop offset="0.627261" stop-color="#0033CC"/>
</radialGradient>
<clipPath id="clip0_3229_1933">
<rect width="168" height="168" fill="white"/>
</clipPath>
</defs>
</svg>
