<svg width="168" height="168" viewBox="0 0 168 168" fill="none" xmlns="http://www.w3.org/2000/svg">
<g clip-path="url(#clip0_3229_1949)">
<g filter="url(#filter0_d_3229_1949)">
<path d="M89.0962 19.3109C108.014 6.06472 134.177 18.2647 136.189 41.2708L142.831 117.191C144.844 140.197 121.197 156.755 100.267 146.995L31.1971 114.787C10.2669 105.027 7.75089 76.2695 26.6684 63.0233L89.0962 19.3109Z" fill="white"/>
</g>
<path d="M54 53.6055V57.6562H88H122V53.6055V49.5547H88H54V53.6055Z" fill="white"/>
<path d="M54 53.6055V57.6562H88H122V53.6055V49.5547H88H54V53.6055Z" fill="url(#paint0_radial_3229_1949)"/>
<path d="M58.1172 80.3273V99.0141L59.2063 97.9516C59.8172 97.3672 60.5211 96.7297 60.7867 96.5305L61.2648 96.1719L60.8266 94.9898C59.8703 92.4531 59.8969 90.0492 60.9062 87.6719C62.1148 84.8297 64.7711 82.5852 67.8125 81.8148C68.7555 81.5758 71.3852 81.5758 72.3281 81.8148C75.3695 82.5852 78.0258 84.8297 79.2344 87.6719C80.2438 90.0625 80.2703 92.4531 79.3141 95.0031L78.8758 96.1719L79.4203 96.5969C81.0273 97.8453 82.3688 99.293 83.3516 100.82L83.7766 101.484H100.896H118.016V81.5625V61.6406H88.0664H58.1172V80.3273ZM82.0234 67.6172V69.6094H74.0547H66.0859V67.6172V65.625H74.0547H82.0234V67.6172ZM105.93 77.5781V89.5312H107.922H109.914V91.5234V93.5156H97.9609H86.0078V87.5391V81.5625H88H89.9922V85.5469V89.5312H91.9844H93.9766V81.5625V73.5938H95.9688H97.9609V81.5625V89.5312H99.9531H101.945V77.5781V65.625H103.938H105.93V77.5781ZM82.0234 75.5859V77.5781H74.0547H66.0859V75.5859V73.5938H74.0547H82.0234V75.5859Z" fill="white"/>
<path d="M58.1172 80.3273V99.0141L59.2063 97.9516C59.8172 97.3672 60.5211 96.7297 60.7867 96.5305L61.2648 96.1719L60.8266 94.9898C59.8703 92.4531 59.8969 90.0492 60.9062 87.6719C62.1148 84.8297 64.7711 82.5852 67.8125 81.8148C68.7555 81.5758 71.3852 81.5758 72.3281 81.8148C75.3695 82.5852 78.0258 84.8297 79.2344 87.6719C80.2438 90.0625 80.2703 92.4531 79.3141 95.0031L78.8758 96.1719L79.4203 96.5969C81.0273 97.8453 82.3688 99.293 83.3516 100.82L83.7766 101.484H100.896H118.016V81.5625V61.6406H88.0664H58.1172V80.3273ZM82.0234 67.6172V69.6094H74.0547H66.0859V67.6172V65.625H74.0547H82.0234V67.6172ZM105.93 77.5781V89.5312H107.922H109.914V91.5234V93.5156H97.9609H86.0078V87.5391V81.5625H88H89.9922V85.5469V89.5312H91.9844H93.9766V81.5625V73.5938H95.9688H97.9609V81.5625V89.5312H99.9531H101.945V77.5781V65.625H103.938H105.93V77.5781ZM82.0234 75.5859V77.5781H74.0547H66.0859V75.5859V73.5938H74.0547H82.0234V75.5859Z" fill="url(#paint1_radial_3229_1949)"/>
<path d="M68.8883 85.6933C65.8735 86.2777 63.6953 89.3855 64.2 92.4003C64.625 95.0034 66.5906 96.9691 69.1938 97.3941C73.032 98.0316 76.5781 94.4855 75.9406 90.6472C75.3828 87.2605 72.2086 85.0425 68.8883 85.6933Z" fill="white"/>
<path d="M68.8883 85.6933C65.8735 86.2777 63.6953 89.3855 64.2 92.4003C64.625 95.0034 66.5906 96.9691 69.1938 97.3941C73.032 98.0316 76.5781 94.4855 75.9406 90.6472C75.3828 87.2605 72.2086 85.0425 68.8883 85.6933Z" fill="url(#paint2_radial_3229_1949)"/>
<path d="M63.018 99.8906C61.1586 101.259 59.6047 103.304 58.8875 105.323C58.25 107.089 58.2234 107.434 58.157 112.601L58.0906 117.555H70.0703H82.05L81.9836 112.614C81.9172 107.434 81.8906 107.089 81.2531 105.323C80.5359 103.304 78.982 101.259 77.1227 99.8906L76.2727 99.2531L75.5156 99.7711C74.6656 100.342 73.643 100.82 72.7 101.086L72.0625 101.259V105.349V109.453H70.0703H68.0781V105.349V101.259L67.4539 101.086C66.4977 100.82 65.475 100.342 64.625 99.7711L63.868 99.2531L63.018 99.8906Z" fill="white"/>
<path d="M63.018 99.8906C61.1586 101.259 59.6047 103.304 58.8875 105.323C58.25 107.089 58.2234 107.434 58.157 112.601L58.0906 117.555H70.0703H82.05L81.9836 112.614C81.9172 107.434 81.8906 107.089 81.2531 105.323C80.5359 103.304 78.982 101.259 77.1227 99.8906L76.2727 99.2531L75.5156 99.7711C74.6656 100.342 73.643 100.82 72.7 101.086L72.0625 101.259V105.349V109.453H70.0703H68.0781V105.349V101.259L67.4539 101.086C66.4977 100.82 65.475 100.342 64.625 99.7711L63.868 99.2531L63.018 99.8906Z" fill="url(#paint3_radial_3229_1949)"/>
</g>
<defs>
<filter id="filter0_d_3229_1949" x="0.873352" y="10.8477" width="145.078" height="152.004" filterUnits="userSpaceOnUse" color-interpolation-filters="sRGB">
<feFlood flood-opacity="0" result="BackgroundImageFix"/>
<feColorMatrix in="SourceAlpha" type="matrix" values="0 0 0 0 0 0 0 0 0 0 0 0 0 0 0 0 0 0 127 0" result="hardAlpha"/>
<feOffset dx="-5" dy="5"/>
<feGaussianBlur stdDeviation="4"/>
<feComposite in2="hardAlpha" operator="out"/>
<feColorMatrix type="matrix" values="0 0 0 0 0 0 0 0 0 0 0 0 0 0 0 0 0 0 0.25 0"/>
<feBlend mode="normal" in2="BackgroundImageFix" result="effect1_dropShadow_3229_1949"/>
<feBlend mode="normal" in="SourceGraphic" in2="effect1_dropShadow_3229_1949" result="shape"/>
</filter>
<radialGradient id="paint0_radial_3229_1949" cx="0" cy="0" r="1" gradientUnits="userSpaceOnUse" gradientTransform="translate(67.2232 56.036) rotate(-4.72884) scale(105.389 18.4854)">
<stop stop-color="#00862D"/>
<stop offset="0.627261" stop-color="#0033CC"/>
</radialGradient>
<radialGradient id="paint1_radial_3229_1949" cx="0" cy="0" r="1" gradientUnits="userSpaceOnUse" gradientTransform="translate(69.765 93.5161) rotate(-24.79) scale(101.908 82.8163)">
<stop stop-color="#00862D"/>
<stop offset="0.627261" stop-color="#0033CC"/>
</radialGradient>
<radialGradient id="paint2_radial_3229_1949" cx="0" cy="0" r="1" gradientUnits="userSpaceOnUse" gradientTransform="translate(66.439 95.0911) rotate(-34.7745) scale(22.3544 22.3581)">
<stop stop-color="#00862D"/>
<stop offset="0.627261" stop-color="#0033CC"/>
</radialGradient>
<radialGradient id="paint3_radial_3229_1949" cx="0" cy="0" r="1" gradientUnits="userSpaceOnUse" gradientTransform="translate(62.7498 113.895) rotate(-27.9398) scale(41.8894 37.0175)">
<stop stop-color="#00862D"/>
<stop offset="0.627261" stop-color="#0033CC"/>
</radialGradient>
<clipPath id="clip0_3229_1949">
<rect width="168" height="168" fill="white"/>
</clipPath>
</defs>
</svg>
