<svg width="160" height="160" viewBox="0 0 160 160" fill="none" xmlns="http://www.w3.org/2000/svg">
<g clip-path="url(#clip0_3266_3747)">
<g filter="url(#filter0_d_3266_3747)">
<path d="M81.0962 15.7562C100.014 2.51003 126.177 14.71 128.189 37.7161L134.831 113.636C136.844 136.642 113.197 153.2 92.2671 143.44L23.1971 111.232C2.26686 101.472 -0.24911 72.7148 18.6684 59.4686L81.0962 15.7562Z" fill="white"/>
</g>
<path d="M53.982 46.2289C52.3883 46.8266 51.2328 47.8758 50.4758 49.4164C50.0641 50.2664 50.0508 50.3594 50.0508 51.9531C50.0508 53.5469 50.0641 53.6398 50.4758 54.4898C51.2328 56.0305 52.4281 57.1062 53.9688 57.6508C54.7258 57.9164 54.7258 57.9164 53.4375 58.1953C53.0391 58.275 52.1359 58.6203 51.4453 58.9656C50.3563 59.4836 50.0109 59.7492 48.9086 60.8383C47.8195 61.9406 47.5539 62.2859 47.0359 63.375C46.0664 65.3672 46 65.8055 46 70.1219V73.8672H55.9609H65.9219V70.1086C65.9219 65.8055 65.8156 65.2078 64.8328 63.2422C64.3813 62.3258 64.0359 61.8742 63 60.8516C61.3664 59.218 60.0781 58.5273 57.6211 57.9961C57.2359 57.9164 57.2359 57.9031 57.9398 57.6641C59.507 57.1062 60.6891 56.0305 61.4461 54.4898C61.8578 53.6398 61.8711 53.5469 61.8711 51.9531C61.8711 50.3328 61.8578 50.2664 61.4195 49.3633C60.8219 48.1414 59.7727 47.0922 58.5508 46.5078C57.6875 46.0828 57.5016 46.043 56.1602 46.0164C54.9648 45.9766 54.5664 46.0164 53.982 46.2289Z" fill="white"/>
<path d="M53.982 46.2289C52.3883 46.8266 51.2328 47.8758 50.4758 49.4164C50.0641 50.2664 50.0508 50.3594 50.0508 51.9531C50.0508 53.5469 50.0641 53.6398 50.4758 54.4898C51.2328 56.0305 52.4281 57.1062 53.9688 57.6508C54.7258 57.9164 54.7258 57.9164 53.4375 58.1953C53.0391 58.275 52.1359 58.6203 51.4453 58.9656C50.3563 59.4836 50.0109 59.7492 48.9086 60.8383C47.8195 61.9406 47.5539 62.2859 47.0359 63.375C46.0664 65.3672 46 65.8055 46 70.1219V73.8672H55.9609H65.9219V70.1086C65.9219 65.8055 65.8156 65.2078 64.8328 63.2422C64.3813 62.3258 64.0359 61.8742 63 60.8516C61.3664 59.218 60.0781 58.5273 57.6211 57.9961C57.2359 57.9164 57.2359 57.9031 57.9398 57.6641C59.507 57.1062 60.6891 56.0305 61.4461 54.4898C61.8578 53.6398 61.8711 53.5469 61.8711 51.9531C61.8711 50.3328 61.8578 50.2664 61.4195 49.3633C60.8219 48.1414 59.7727 47.0922 58.5508 46.5078C57.6875 46.0828 57.5016 46.043 56.1602 46.0164C54.9648 45.9766 54.5664 46.0164 53.982 46.2289Z" fill="url(#paint0_radial_3266_3747)"/>
<path d="M78.0212 46.2289C76.4275 46.8266 75.272 47.8758 74.515 49.4164C74.1032 50.2664 74.09 50.3594 74.09 51.9531C74.09 53.5469 74.1032 53.6398 74.515 54.4898C75.272 56.0305 76.4673 57.1062 78.0079 57.6508C78.765 57.9164 78.765 57.9164 77.4767 58.1953C77.0782 58.275 76.1751 58.6203 75.4845 58.9656C74.3954 59.4836 74.0501 59.7492 72.9478 60.8383C71.8587 61.9406 71.5931 62.2859 71.0751 63.375C70.1056 65.3672 70.0392 65.8055 70.0392 70.1219V73.8672H80.0001H89.9611V70.1086C89.9611 65.8055 89.8548 65.2078 88.872 63.2422C88.4204 62.3258 88.0751 61.8742 87.0392 60.8516C85.4056 59.218 84.1173 58.5273 81.6603 57.9961C81.2751 57.9164 81.2751 57.9031 81.979 57.6641C83.5462 57.1062 84.7282 56.0305 85.4853 54.4898C85.897 53.6398 85.9103 53.5469 85.9103 51.9531C85.9103 50.3328 85.897 50.2664 85.4587 49.3633C84.8611 48.1414 83.8118 47.0922 82.59 46.5078C81.7267 46.0828 81.5407 46.043 80.1993 46.0164C79.004 45.9766 78.6056 46.0164 78.0212 46.2289Z" fill="white"/>
<path d="M78.0212 46.2289C76.4275 46.8266 75.272 47.8758 74.515 49.4164C74.1032 50.2664 74.09 50.3594 74.09 51.9531C74.09 53.5469 74.1032 53.6398 74.515 54.4898C75.272 56.0305 76.4673 57.1062 78.0079 57.6508C78.765 57.9164 78.765 57.9164 77.4767 58.1953C77.0782 58.275 76.1751 58.6203 75.4845 58.9656C74.3954 59.4836 74.0501 59.7492 72.9478 60.8383C71.8587 61.9406 71.5931 62.2859 71.0751 63.375C70.1056 65.3672 70.0392 65.8055 70.0392 70.1219V73.8672H80.0001H89.9611V70.1086C89.9611 65.8055 89.8548 65.2078 88.872 63.2422C88.4204 62.3258 88.0751 61.8742 87.0392 60.8516C85.4056 59.218 84.1173 58.5273 81.6603 57.9961C81.2751 57.9164 81.2751 57.9031 81.979 57.6641C83.5462 57.1062 84.7282 56.0305 85.4853 54.4898C85.897 53.6398 85.9103 53.5469 85.9103 51.9531C85.9103 50.3328 85.897 50.2664 85.4587 49.3633C84.8611 48.1414 83.8118 47.0922 82.59 46.5078C81.7267 46.0828 81.5407 46.043 80.1993 46.0164C79.004 45.9766 78.6056 46.0164 78.0212 46.2289Z" fill="url(#paint1_radial_3266_3747)"/>
<path d="M102.06 46.2289C100.466 46.8266 99.3108 47.8758 98.5538 49.4164C98.1421 50.2664 98.1288 50.3594 98.1288 51.9531C98.1288 53.5469 98.1421 53.6398 98.5538 54.4898C99.3108 56.0305 100.506 57.1062 102.047 57.6508C102.804 57.9164 102.804 57.9164 101.516 58.1953C101.117 58.275 100.214 58.6203 99.5233 58.9656C98.4343 59.4836 98.0889 59.7492 96.9866 60.8383C95.8975 61.9406 95.6319 62.2859 95.1139 63.375C94.1444 65.3672 94.078 65.8055 94.078 70.1219V73.8672H104.039H114V70.1086C114 65.8055 113.894 65.2078 112.911 63.2422C112.459 62.3258 112.114 61.8742 111.078 60.8516C109.444 59.218 108.156 58.5273 105.699 57.9961C105.314 57.9164 105.314 57.9031 106.018 57.6641C107.585 57.1062 108.767 56.0305 109.524 54.4898C109.936 53.6398 109.949 53.5469 109.949 51.9531C109.949 50.3328 109.936 50.2664 109.498 49.3633C108.9 48.1414 107.851 47.0922 106.629 46.5078C105.766 46.0828 105.58 46.043 104.238 46.0164C103.043 45.9766 102.644 46.0164 102.06 46.2289Z" fill="white"/>
<path d="M102.06 46.2289C100.466 46.8266 99.3108 47.8758 98.5538 49.4164C98.1421 50.2664 98.1288 50.3594 98.1288 51.9531C98.1288 53.5469 98.1421 53.6398 98.5538 54.4898C99.3108 56.0305 100.506 57.1062 102.047 57.6508C102.804 57.9164 102.804 57.9164 101.516 58.1953C101.117 58.275 100.214 58.6203 99.5233 58.9656C98.4343 59.4836 98.0889 59.7492 96.9866 60.8383C95.8975 61.9406 95.6319 62.2859 95.1139 63.375C94.1444 65.3672 94.078 65.8055 94.078 70.1219V73.8672H104.039H114V70.1086C114 65.8055 113.894 65.2078 112.911 63.2422C112.459 62.3258 112.114 61.8742 111.078 60.8516C109.444 59.218 108.156 58.5273 105.699 57.9961C105.314 57.9164 105.314 57.9031 106.018 57.6641C107.585 57.1062 108.767 56.0305 109.524 54.4898C109.936 53.6398 109.949 53.5469 109.949 51.9531C109.949 50.3328 109.936 50.2664 109.498 49.3633C108.9 48.1414 107.851 47.0922 106.629 46.5078C105.766 46.0828 105.58 46.043 104.238 46.0164C103.043 45.9766 102.644 46.0164 102.06 46.2289Z" fill="url(#paint2_radial_3266_3747)"/>
<path d="M58.0858 82.1016V86.0859H64.0624H70.0389V82.1016V78.1172H64.0624H58.0858V82.1016Z" fill="white"/>
<path d="M58.0858 82.1016V86.0859H64.0624H70.0389V82.1016V78.1172H64.0624H58.0858V82.1016Z" fill="url(#paint3_radial_3266_3747)"/>
<path d="M78.0077 84.5852V91.0531L77.0116 90.0703L76.0155 89.0742L74.5147 90.575L73.0272 92.0625L76.5202 95.5422L79.9999 99.0352L83.4796 95.5422L86.9725 92.0625L85.485 90.575L83.9843 89.0742L82.9882 90.0703L81.9921 91.0531V84.5852V78.1172H79.9999H78.0077V84.5852Z" fill="white"/>
<path d="M78.0077 84.5852V91.0531L77.0116 90.0703L76.0155 89.0742L74.5147 90.575L73.0272 92.0625L76.5202 95.5422L79.9999 99.0352L83.4796 95.5422L86.9725 92.0625L85.485 90.575L83.9843 89.0742L82.9882 90.0703L81.9921 91.0531V84.5852V78.1172H79.9999H78.0077V84.5852Z" fill="url(#paint4_radial_3266_3747)"/>
<path d="M89.9609 82.1016V86.0859H95.9375H101.914V82.1016V78.1172H95.9375H89.9609V82.1016Z" fill="white"/>
<path d="M89.9609 82.1016V86.0859H95.9375H101.914V82.1016V78.1172H95.9375H89.9609V82.1016Z" fill="url(#paint5_radial_3266_3747)"/>
<path d="M58.1258 92.6857C58.179 94.6381 58.2719 95.6342 58.4711 96.5506C59.7461 102.301 63 107.109 67.7813 110.31C70.1188 111.89 72.3368 112.833 75.2985 113.524C76.7993 113.883 77.0383 113.909 80 113.896C82.736 113.896 83.2805 113.869 84.436 113.604C93.175 111.651 99.6032 105.237 101.529 96.5506C101.728 95.6342 101.821 94.6381 101.874 92.6857L101.954 90.0693H95.9774H90.0008L89.9079 91.756C89.7883 93.8412 89.5758 94.8373 88.9118 96.2318C87.9555 98.2771 86.3485 99.9107 84.3165 100.894C82.8157 101.624 81.6336 101.903 80 101.903C78.3665 101.903 77.1844 101.624 75.6836 100.894C73.6649 99.9107 72.1508 98.4099 71.168 96.3779C70.4375 94.8904 70.2118 93.9209 70.0922 91.756L69.9993 90.0693H64.0227H58.0461L58.1258 92.6857Z" fill="white"/>
<path d="M58.1258 92.6857C58.179 94.6381 58.2719 95.6342 58.4711 96.5506C59.7461 102.301 63 107.109 67.7813 110.31C70.1188 111.89 72.3368 112.833 75.2985 113.524C76.7993 113.883 77.0383 113.909 80 113.896C82.736 113.896 83.2805 113.869 84.436 113.604C93.175 111.651 99.6032 105.237 101.529 96.5506C101.728 95.6342 101.821 94.6381 101.874 92.6857L101.954 90.0693H95.9774H90.0008L89.9079 91.756C89.7883 93.8412 89.5758 94.8373 88.9118 96.2318C87.9555 98.2771 86.3485 99.9107 84.3165 100.894C82.8157 101.624 81.6336 101.903 80 101.903C78.3665 101.903 77.1844 101.624 75.6836 100.894C73.6649 99.9107 72.1508 98.4099 71.168 96.3779C70.4375 94.8904 70.2118 93.9209 70.0922 91.756L69.9993 90.0693H64.0227H58.0461L58.1258 92.6857Z" fill="url(#paint6_radial_3266_3747)"/>
</g>
<defs>
<filter id="filter0_d_3266_3747" x="-7.12671" y="7.29297" width="145.078" height="152.004" filterUnits="userSpaceOnUse" color-interpolation-filters="sRGB">
<feFlood flood-opacity="0" result="BackgroundImageFix"/>
<feColorMatrix in="SourceAlpha" type="matrix" values="0 0 0 0 0 0 0 0 0 0 0 0 0 0 0 0 0 0 127 0" result="hardAlpha"/>
<feOffset dx="-5" dy="5"/>
<feGaussianBlur stdDeviation="4"/>
<feComposite in2="hardAlpha" operator="out"/>
<feColorMatrix type="matrix" values="0 0 0 0 0 0 0 0 0 0 0 0 0 0 0 0 0 0 0.25 0"/>
<feBlend mode="normal" in2="BackgroundImageFix" result="effect1_dropShadow_3266_3747"/>
<feBlend mode="normal" in="SourceGraphic" in2="effect1_dropShadow_3266_3747" result="shape"/>
</filter>
<radialGradient id="paint0_radial_3266_3747" cx="0" cy="0" r="1" gradientUnits="userSpaceOnUse" gradientTransform="translate(49.874 68.2946) rotate(-44.1611) scale(42.8928 45.7661)">
<stop stop-color="#00862D"/>
<stop offset="0.627261" stop-color="#0033CC"/>
</radialGradient>
<radialGradient id="paint1_radial_3266_3747" cx="0" cy="0" r="1" gradientUnits="userSpaceOnUse" gradientTransform="translate(73.9132 68.2946) rotate(-44.1611) scale(42.8928 45.7661)">
<stop stop-color="#00862D"/>
<stop offset="0.627261" stop-color="#0033CC"/>
</radialGradient>
<radialGradient id="paint2_radial_3266_3747" cx="0" cy="0" r="1" gradientUnits="userSpaceOnUse" gradientTransform="translate(97.952 68.2946) rotate(-44.1611) scale(42.8928 45.7661)">
<stop stop-color="#00862D"/>
<stop offset="0.627261" stop-color="#0033CC"/>
</radialGradient>
<radialGradient id="paint3_radial_3266_3747" cx="0" cy="0" r="1" gradientUnits="userSpaceOnUse" gradientTransform="translate(60.4102 84.4923) rotate(-24.8385) scale(20.3443 16.5568)">
<stop stop-color="#00862D"/>
<stop offset="0.627261" stop-color="#0033CC"/>
</radialGradient>
<radialGradient id="paint4_radial_3266_3747" cx="0" cy="0" r="1" gradientUnits="userSpaceOnUse" gradientTransform="translate(75.739 94.8518) rotate(-46.164) scale(31.0995 33.1696)">
<stop stop-color="#00862D"/>
<stop offset="0.627261" stop-color="#0033CC"/>
</radialGradient>
<radialGradient id="paint5_radial_3266_3747" cx="0" cy="0" r="1" gradientUnits="userSpaceOnUse" gradientTransform="translate(92.2853 84.4923) rotate(-24.8385) scale(20.3443 16.5568)">
<stop stop-color="#00862D"/>
<stop offset="0.627261" stop-color="#0033CC"/>
</radialGradient>
<radialGradient id="paint6_radial_3266_3747" cx="0" cy="0" r="1" gradientUnits="userSpaceOnUse" gradientTransform="translate(66.5844 109.133) rotate(-20.6471) scale(72.4733 51.0527)">
<stop stop-color="#00862D"/>
<stop offset="0.627261" stop-color="#0033CC"/>
</radialGradient>
<clipPath id="clip0_3266_3747">
<rect width="160" height="160" fill="white"/>
</clipPath>
</defs>
</svg>
