<svg width="160" height="160" viewBox="0 0 160 160" fill="none" xmlns="http://www.w3.org/2000/svg">
<g clip-path="url(#clip0_3266_3781)">
<g filter="url(#filter0_d_3266_3781)">
<path d="M81.0962 15.7562C100.014 2.51003 126.177 14.71 128.189 37.7161L134.831 113.636C136.844 136.642 113.197 153.2 92.2671 143.44L23.1971 111.232C2.26686 101.472 -0.24911 72.7148 18.6684 59.4686L81.0962 15.7562Z" fill="white"/>
</g>
<path d="M96.5765 46.0364C96.399 46.0629 95.8505 46.1559 95.3665 46.2357C93.0595 46.621 90.2685 47.8833 88.3003 49.4645C84.9769 52.1087 83.3314 55.8027 83.767 59.6162C83.9444 61.2107 84.2832 62.2471 85.0415 63.5891C85.9126 65.1172 86.6547 65.9942 88.3487 67.4691C90.0426 68.944 90.688 69.6881 91.3494 70.884L91.8173 71.7344H94.0759C95.3181 71.7344 96.3345 71.7078 96.3345 71.6812C96.3345 71.4686 95.3988 69.5154 94.9309 68.7447C94.1727 67.4957 93.4951 66.7383 91.6237 65.0773C88.9617 62.6989 88.0744 61.1044 88.0422 58.5798C88.026 56.879 88.2358 56.095 89.1876 54.4739C90.5266 52.1752 93.237 50.3681 96.3345 49.717C97.7058 49.438 100.126 49.438 101.497 49.7436C106.353 50.7933 109.725 54.3543 109.725 58.4469C109.725 60.9184 108.757 62.7786 106.337 64.878C104.627 66.3662 103.546 67.5488 102.82 68.7447C102.352 69.5287 101.497 71.3623 101.497 71.6148C101.497 71.6812 102.449 71.7344 103.723 71.7344H105.966L106.369 70.9504C106.982 69.7944 107.757 68.9041 109.45 67.4027C111.177 65.8879 111.709 65.2767 112.5 63.9612C113.726 61.9415 113.984 60.9848 114 58.5133C114 56.972 113.935 56.2943 113.693 55.5236C112.306 51.059 108.434 47.7106 103.191 46.4084C101.949 46.1028 101.384 46.0496 99.319 46.0098C97.9961 45.9965 96.7539 45.9965 96.5765 46.0364Z" fill="black"/>
<path d="M96.5765 46.0364C96.399 46.0629 95.8505 46.1559 95.3665 46.2357C93.0595 46.621 90.2685 47.8833 88.3003 49.4645C84.9769 52.1087 83.3314 55.8027 83.767 59.6162C83.9444 61.2107 84.2832 62.2471 85.0415 63.5891C85.9126 65.1172 86.6547 65.9942 88.3487 67.4691C90.0426 68.944 90.688 69.6881 91.3494 70.884L91.8173 71.7344H94.0759C95.3181 71.7344 96.3345 71.7078 96.3345 71.6812C96.3345 71.4686 95.3988 69.5154 94.9309 68.7447C94.1727 67.4957 93.4951 66.7383 91.6237 65.0773C88.9617 62.6989 88.0744 61.1044 88.0422 58.5798C88.026 56.879 88.2358 56.095 89.1876 54.4739C90.5266 52.1752 93.237 50.3681 96.3345 49.717C97.7058 49.438 100.126 49.438 101.497 49.7436C106.353 50.7933 109.725 54.3543 109.725 58.4469C109.725 60.9184 108.757 62.7786 106.337 64.878C104.627 66.3662 103.546 67.5488 102.82 68.7447C102.352 69.5287 101.497 71.3623 101.497 71.6148C101.497 71.6812 102.449 71.7344 103.723 71.7344H105.966L106.369 70.9504C106.982 69.7944 107.757 68.9041 109.45 67.4027C111.177 65.8879 111.709 65.2767 112.5 63.9612C113.726 61.9415 113.984 60.9848 114 58.5133C114 56.972 113.935 56.2943 113.693 55.5236C112.306 51.059 108.434 47.7106 103.191 46.4084C101.949 46.1028 101.384 46.0496 99.319 46.0098C97.9961 45.9965 96.7539 45.9965 96.5765 46.0364Z" fill="url(#paint0_radial_3266_3781)"/>
<path d="M92.1561 56.7701C90.0427 58.4975 89.962 58.5772 89.962 59.122C89.962 59.8129 90.5751 60.3046 91.4301 60.3046C91.9302 60.3046 92.1884 60.1584 93.479 59.122L94.9632 57.9394L96.6088 59.2549C98.1575 60.5039 98.2866 60.5703 98.9319 60.5703C99.5772 60.5703 99.6902 60.5039 101.239 59.2549L102.868 57.9261L104.272 59.0555C105.563 60.0787 105.724 60.1717 106.337 60.1717C107.256 60.1717 107.789 59.7199 107.789 58.9625C107.789 58.4177 107.724 58.338 105.724 56.6904C103.707 55.0427 103.627 54.9896 102.949 54.9896C102.288 54.9896 102.191 55.056 100.626 56.305L98.9964 57.6338L97.3509 56.305C95.8021 55.056 95.6731 54.9896 95.0278 54.9896C94.3663 54.9896 94.2695 55.0427 92.1561 56.7701Z" fill="black"/>
<path d="M92.1561 56.7701C90.0427 58.4975 89.962 58.5772 89.962 59.122C89.962 59.8129 90.5751 60.3046 91.4301 60.3046C91.9302 60.3046 92.1884 60.1584 93.479 59.122L94.9632 57.9394L96.6088 59.2549C98.1575 60.5039 98.2866 60.5703 98.9319 60.5703C99.5772 60.5703 99.6902 60.5039 101.239 59.2549L102.868 57.9261L104.272 59.0555C105.563 60.0787 105.724 60.1717 106.337 60.1717C107.256 60.1717 107.789 59.7199 107.789 58.9625C107.789 58.4177 107.724 58.338 105.724 56.6904C103.707 55.0427 103.627 54.9896 102.949 54.9896C102.288 54.9896 102.191 55.056 100.626 56.305L98.9964 57.6338L97.3509 56.305C95.8021 55.056 95.6731 54.9896 95.0278 54.9896C94.3663 54.9896 94.2695 55.0427 92.1561 56.7701Z" fill="url(#paint1_radial_3266_3781)"/>
<path d="M64.6335 66.2315C64.456 66.258 63.9075 66.351 63.4235 66.4308C57.8093 67.3476 54.1955 71.3604 54.0503 76.8482C54.018 77.9112 53.9858 77.9776 53.6631 77.9776C53.4695 77.9776 53.1146 78.0972 52.8887 78.2434C51.6949 79.0273 51.9369 81.3925 53.3727 82.8275C53.8406 83.2793 54.8247 83.8241 55.2119 83.8241C55.3571 83.8241 55.6475 84.1563 55.9378 84.6479C57.0187 86.548 58.8418 88.674 60.5034 90.0028C61.1326 90.4944 61.1649 90.5609 61.1649 91.3315V92.1421L63.6655 94.0953C65.0368 95.1716 66.1499 96.0885 66.1338 96.1549C66.1015 96.2745 61.3101 99.4103 61.2456 99.3439C61.2294 99.3173 60.3582 97.9088 59.3257 96.208C57.8738 93.8163 57.3898 93.1253 57.1478 93.1253C56.6316 93.1253 54.6956 93.6568 53.6631 94.082C50.6463 95.3311 48.1295 97.5634 46.9841 100.022C46.0807 101.935 46 102.626 46 107.702C46 112.246 46.0161 112.339 46.3711 112.844C46.5647 113.136 46.9357 113.495 47.1777 113.641C47.6294 113.92 47.7907 113.92 56.1798 113.96L64.7302 114L64.6335 113.429C64.5851 113.11 64.2624 110.466 63.9075 107.542L63.2622 102.227L64.827 100.925L66.4081 99.6362L67.9891 100.952L69.5862 102.254L68.9248 107.821C68.5537 110.891 68.2633 113.522 68.2633 113.681V113.987H76.6363H84.9931L85.5416 113.681C85.832 113.522 86.2515 113.176 86.4451 112.937C86.8161 112.485 86.8161 112.459 86.8161 107.662C86.8161 102.506 86.7516 101.869 85.9611 100.154C84.5091 96.992 80.976 94.3212 77.0235 93.3778C76.4266 93.2449 75.7974 93.1253 75.6522 93.1253C75.4425 93.1253 74.8617 93.9625 73.4581 96.2612L71.5544 99.3838L69.0861 97.7627L66.6017 96.1283L69.1668 94.1219L71.7158 92.1155L71.6674 91.3182C71.6351 90.5476 71.6351 90.521 72.3772 89.9363C74.1518 88.5279 76.1039 86.2557 76.9912 84.5815C77.201 84.1696 77.4752 83.8241 77.5881 83.8241C77.9915 83.8241 79.0401 83.2926 79.4595 82.8807C80.8954 81.4722 81.2019 79.3064 80.0887 78.3364C79.8467 78.1371 79.4918 77.9776 79.3144 77.9776C78.9756 77.9776 78.9433 77.8979 78.8465 76.609C78.3948 71.1213 75.3295 67.7197 69.7153 66.4706C68.8441 66.2713 65.2788 66.0986 64.6335 66.2315Z" fill="black"/>
<path d="M64.6335 66.2315C64.456 66.258 63.9075 66.351 63.4235 66.4308C57.8093 67.3476 54.1955 71.3604 54.0503 76.8482C54.018 77.9112 53.9858 77.9776 53.6631 77.9776C53.4695 77.9776 53.1146 78.0972 52.8887 78.2434C51.6949 79.0273 51.9369 81.3925 53.3727 82.8275C53.8406 83.2793 54.8247 83.8241 55.2119 83.8241C55.3571 83.8241 55.6475 84.1563 55.9378 84.6479C57.0187 86.548 58.8418 88.674 60.5034 90.0028C61.1326 90.4944 61.1649 90.5609 61.1649 91.3315V92.1421L63.6655 94.0953C65.0368 95.1716 66.1499 96.0885 66.1338 96.1549C66.1015 96.2745 61.3101 99.4103 61.2456 99.3439C61.2294 99.3173 60.3582 97.9088 59.3257 96.208C57.8738 93.8163 57.3898 93.1253 57.1478 93.1253C56.6316 93.1253 54.6956 93.6568 53.6631 94.082C50.6463 95.3311 48.1295 97.5634 46.9841 100.022C46.0807 101.935 46 102.626 46 107.702C46 112.246 46.0161 112.339 46.3711 112.844C46.5647 113.136 46.9357 113.495 47.1777 113.641C47.6294 113.92 47.7907 113.92 56.1798 113.96L64.7302 114L64.6335 113.429C64.5851 113.11 64.2624 110.466 63.9075 107.542L63.2622 102.227L64.827 100.925L66.4081 99.6362L67.9891 100.952L69.5862 102.254L68.9248 107.821C68.5537 110.891 68.2633 113.522 68.2633 113.681V113.987H76.6363H84.9931L85.5416 113.681C85.832 113.522 86.2515 113.176 86.4451 112.937C86.8161 112.485 86.8161 112.459 86.8161 107.662C86.8161 102.506 86.7516 101.869 85.9611 100.154C84.5091 96.992 80.976 94.3212 77.0235 93.3778C76.4266 93.2449 75.7974 93.1253 75.6522 93.1253C75.4425 93.1253 74.8617 93.9625 73.4581 96.2612L71.5544 99.3838L69.0861 97.7627L66.6017 96.1283L69.1668 94.1219L71.7158 92.1155L71.6674 91.3182C71.6351 90.5476 71.6351 90.521 72.3772 89.9363C74.1518 88.5279 76.1039 86.2557 76.9912 84.5815C77.201 84.1696 77.4752 83.8241 77.5881 83.8241C77.9915 83.8241 79.0401 83.2926 79.4595 82.8807C80.8954 81.4722 81.2019 79.3064 80.0887 78.3364C79.8467 78.1371 79.4918 77.9776 79.3144 77.9776C78.9756 77.9776 78.9433 77.8979 78.8465 76.609C78.3948 71.1213 75.3295 67.7197 69.7153 66.4706C68.8441 66.2713 65.2788 66.0986 64.6335 66.2315Z" fill="url(#paint2_radial_3266_3781)"/>
<path d="M92.4626 74.8798C92.4626 75.4512 92.5433 76.1687 92.624 76.4876C93.0434 77.9492 94.2373 79.2514 95.8183 79.9424C96.4797 80.2347 96.8185 80.4739 96.883 80.6865C97.0282 81.1648 97.8672 81.7893 98.4641 81.8558C99.545 81.9886 100.674 81.4173 100.9 80.6333C100.981 80.3941 101.223 80.2214 101.787 80.0088C102.804 79.6235 104.127 78.5206 104.643 77.6303C105.062 76.9128 105.353 75.5974 105.369 74.4812V73.8567H98.9158H92.4626V74.8798Z" fill="black"/>
<path d="M92.4626 74.8798C92.4626 75.4512 92.5433 76.1687 92.624 76.4876C93.0434 77.9492 94.2373 79.2514 95.8183 79.9424C96.4797 80.2347 96.8185 80.4739 96.883 80.6865C97.0282 81.1648 97.8672 81.7893 98.4641 81.8558C99.545 81.9886 100.674 81.4173 100.9 80.6333C100.981 80.3941 101.223 80.2214 101.787 80.0088C102.804 79.6235 104.127 78.5206 104.643 77.6303C105.062 76.9128 105.353 75.5974 105.369 74.4812V73.8567H98.9158H92.4626V74.8798Z" fill="url(#paint3_radial_3266_3781)"/>
</g>
<defs>
<filter id="filter0_d_3266_3781" x="-7.12671" y="7.29297" width="145.078" height="152.004" filterUnits="userSpaceOnUse" color-interpolation-filters="sRGB">
<feFlood flood-opacity="0" result="BackgroundImageFix"/>
<feColorMatrix in="SourceAlpha" type="matrix" values="0 0 0 0 0 0 0 0 0 0 0 0 0 0 0 0 0 0 127 0" result="hardAlpha"/>
<feOffset dx="-5" dy="5"/>
<feGaussianBlur stdDeviation="4"/>
<feComposite in2="hardAlpha" operator="out"/>
<feColorMatrix type="matrix" values="0 0 0 0 0 0 0 0 0 0 0 0 0 0 0 0 0 0 0.25 0"/>
<feBlend mode="normal" in2="BackgroundImageFix" result="effect1_dropShadow_3266_3781"/>
<feBlend mode="normal" in="SourceGraphic" in2="effect1_dropShadow_3266_3781" result="shape"/>
</filter>
<radialGradient id="paint0_radial_3266_3781" cx="0" cy="0" r="1" gradientUnits="userSpaceOnUse" gradientTransform="translate(89.5906 66.5882) rotate(-30.5245) scale(54.333 50.7498)">
<stop stop-color="#00862D"/>
<stop offset="0.627261" stop-color="#0033CC"/>
</radialGradient>
<radialGradient id="paint1_radial_3266_3781" cx="0" cy="0" r="1" gradientUnits="userSpaceOnUse" gradientTransform="translate(93.4286 59.4542) rotate(-12.263) scale(28.1776 12.4856)">
<stop stop-color="#00862D"/>
<stop offset="0.627261" stop-color="#0033CC"/>
</radialGradient>
<radialGradient id="paint2_radial_3266_3781" cx="0" cy="0" r="1" gradientUnits="userSpaceOnUse" gradientTransform="translate(53.9371 104.438) rotate(-39.1243) scale(81.2642 84.927)">
<stop stop-color="#00862D"/>
<stop offset="0.627261" stop-color="#0033CC"/>
</radialGradient>
<radialGradient id="paint3_radial_3266_3781" cx="0" cy="0" r="1" gradientUnits="userSpaceOnUse" gradientTransform="translate(94.9724 80.2714) rotate(-23.3335) scale(21.7101 16.8565)">
<stop stop-color="#00862D"/>
<stop offset="0.627261" stop-color="#0033CC"/>
</radialGradient>
<clipPath id="clip0_3266_3781">
<rect width="160" height="160" fill="white"/>
</clipPath>
</defs>
</svg>
