<svg width="160" height="160" viewBox="0 0 160 160" fill="none" xmlns="http://www.w3.org/2000/svg">
<g clip-path="url(#clip0_3266_3771)">
<g filter="url(#filter0_d_3266_3771)">
<path d="M81.0962 15.7562C100.014 2.51003 126.177 14.71 128.189 37.7161L134.831 113.636C136.844 136.642 113.197 153.2 92.2671 143.44L23.1971 111.232C2.26686 101.472 -0.24911 72.7148 18.6684 59.4686L81.0962 15.7562Z" fill="white"/>
</g>
<path d="M77.6387 46.2566C74.805 47.0642 72.5152 49.388 71.7853 52.1652C71.4991 53.2421 71.4848 55.4384 71.7567 56.4303C71.8712 56.827 72.4007 58.0031 72.9589 59.0516C74.0322 61.092 74.3327 61.8572 74.6047 63.3592L74.7907 64.3369L76.1074 64.3794L77.424 64.4219V60.9362V57.4646H77.0662C75.034 57.4646 73.3882 55.8918 73.5886 54.149C73.7603 52.732 74.9195 51.5843 76.365 51.4284C76.9517 51.3576 77.195 51.4143 77.8533 51.7543C78.9839 52.3353 79.4705 53.0721 79.5421 54.3473C79.5993 55.325 79.6136 55.3392 80 55.3392C80.3865 55.3392 80.4008 55.325 80.458 54.3473C80.5296 53.0721 81.0162 52.3353 82.1467 51.7543C82.8051 51.4143 83.0484 51.3576 83.6351 51.4284C85.0806 51.5843 86.2398 52.732 86.4115 54.149C86.6119 55.8918 84.9661 57.4646 82.9339 57.4646H82.5761V60.9362V64.4219L83.8927 64.3794L85.2094 64.3369L85.3954 63.3592C85.6673 61.8572 85.9679 61.092 87.0412 59.0516C87.5994 58.0031 88.1289 56.827 88.2434 56.4303C88.501 55.4667 88.501 53.1996 88.2291 52.2219C87.442 49.2888 85.0949 46.9509 82.204 46.214C81.0162 45.9165 78.7693 45.9307 77.6387 46.2566Z" fill="black"/>
<path d="M77.6387 46.2566C74.805 47.0642 72.5152 49.388 71.7853 52.1652C71.4991 53.2421 71.4848 55.4384 71.7567 56.4303C71.8712 56.827 72.4007 58.0031 72.9589 59.0516C74.0322 61.092 74.3327 61.8572 74.6047 63.3592L74.7907 64.3369L76.1074 64.3794L77.424 64.4219V60.9362V57.4646H77.0662C75.034 57.4646 73.3882 55.8918 73.5886 54.149C73.7603 52.732 74.9195 51.5843 76.365 51.4284C76.9517 51.3576 77.195 51.4143 77.8533 51.7543C78.9839 52.3353 79.4705 53.0721 79.5421 54.3473C79.5993 55.325 79.6136 55.3392 80 55.3392C80.3865 55.3392 80.4008 55.325 80.458 54.3473C80.5296 53.0721 81.0162 52.3353 82.1467 51.7543C82.8051 51.4143 83.0484 51.3576 83.6351 51.4284C85.0806 51.5843 86.2398 52.732 86.4115 54.149C86.6119 55.8918 84.9661 57.4646 82.9339 57.4646H82.5761V60.9362V64.4219L83.8927 64.3794L85.2094 64.3369L85.3954 63.3592C85.6673 61.8572 85.9679 61.092 87.0412 59.0516C87.5994 58.0031 88.1289 56.827 88.2434 56.4303C88.501 55.4667 88.501 53.1996 88.2291 52.2219C87.442 49.2888 85.0949 46.9509 82.204 46.214C81.0162 45.9165 78.7693 45.9307 77.6387 46.2566Z" fill="url(#paint0_radial_3266_3771)"/>
<path d="M66.49 47.5573C66.1895 47.784 66.1179 47.9682 66.1179 48.45C66.1179 49.1726 66.3326 49.3993 67.7065 50.1503C68.7798 50.7313 69.2092 50.788 69.753 50.3629C70.0535 50.1362 70.1251 49.9519 70.1251 49.456C70.1251 48.7617 69.9247 48.5633 68.3934 47.7132C67.4489 47.1889 67.0195 47.1464 66.49 47.5573Z" fill="black"/>
<path d="M66.49 47.5573C66.1895 47.784 66.1179 47.9682 66.1179 48.45C66.1179 49.1726 66.3326 49.3993 67.7065 50.1503C68.7798 50.7313 69.2092 50.788 69.753 50.3629C70.0535 50.1362 70.1251 49.9519 70.1251 49.456C70.1251 48.7617 69.9247 48.5633 68.3934 47.7132C67.4489 47.1889 67.0195 47.1464 66.49 47.5573Z" fill="url(#paint1_radial_3266_3771)"/>
<path d="M91.3776 47.8407C89.9751 48.6484 89.8749 48.7617 89.8749 49.4702C89.8749 49.9519 89.9464 50.1362 90.247 50.3629C90.7908 50.788 91.2201 50.7313 92.2935 50.1503C93.6674 49.3993 93.8821 49.1726 93.8821 48.45C93.8821 47.9682 93.8105 47.784 93.51 47.5573C92.9661 47.1322 92.5082 47.1889 91.3776 47.8407Z" fill="black"/>
<path d="M91.3776 47.8407C89.9751 48.6484 89.8749 48.7617 89.8749 49.4702C89.8749 49.9519 89.9464 50.1362 90.247 50.3629C90.7908 50.788 91.2201 50.7313 92.2935 50.1503C93.6674 49.3993 93.8821 49.1726 93.8821 48.45C93.8821 47.9682 93.8105 47.784 93.51 47.5573C92.9661 47.1322 92.5082 47.1889 91.3776 47.8407Z" fill="url(#paint2_radial_3266_3771)"/>
<path d="M64.4292 54.9572C63.9999 55.4106 64.0142 56.19 64.4435 56.5867C64.744 56.8701 64.9301 56.8984 66.2467 56.8984C67.0482 56.8984 67.8353 56.8418 67.9784 56.7567C68.5938 56.4308 68.5938 55.0989 67.9784 54.773C67.8353 54.688 67.0482 54.6313 66.2181 54.6313C64.8585 54.6313 64.7154 54.6597 64.4292 54.9572Z" fill="black"/>
<path d="M64.4292 54.9572C63.9999 55.4106 64.0142 56.19 64.4435 56.5867C64.744 56.8701 64.9301 56.8984 66.2467 56.8984C67.0482 56.8984 67.8353 56.8418 67.9784 56.7567C68.5938 56.4308 68.5938 55.0989 67.9784 54.773C67.8353 54.688 67.0482 54.6313 66.2181 54.6313C64.8585 54.6313 64.7154 54.6597 64.4292 54.9572Z" fill="url(#paint3_radial_3266_3771)"/>
<path d="M91.9786 54.8013C91.3918 55.2548 91.4204 56.4308 92.0215 56.7567C92.1646 56.8418 92.9517 56.8984 93.7818 56.8984C95.1414 56.8984 95.2845 56.8701 95.5707 56.5725C96.0001 56.1191 95.9858 55.3398 95.5564 54.943C95.2559 54.6597 95.0698 54.6313 93.7246 54.6313C92.7371 54.6313 92.136 54.688 91.9786 54.8013Z" fill="black"/>
<path d="M91.9786 54.8013C91.3918 55.2548 91.4204 56.4308 92.0215 56.7567C92.1646 56.8418 92.9517 56.8984 93.7818 56.8984C95.1414 56.8984 95.2845 56.8701 95.5707 56.5725C96.0001 56.1191 95.9858 55.3398 95.5564 54.943C95.2559 54.6597 95.0698 54.6313 93.7246 54.6313C92.7371 54.6313 92.136 54.688 91.9786 54.8013Z" fill="url(#paint4_radial_3266_3771)"/>
<path d="M79.5707 60.9347V64.4062H80H80.4294V60.9347V57.4632H80H79.5707V60.9347Z" fill="black"/>
<path d="M79.5707 60.9347V64.4062H80H80.4294V60.9347V57.4632H80H79.5707V60.9347Z" fill="url(#paint5_radial_3266_3771)"/>
<path d="M48.5866 58.8792C47.8853 59.0918 46.9694 59.9561 46.7977 60.5512C46.7261 60.8346 46.4971 67.055 46.2824 74.3665C45.939 86.8073 45.9247 87.7425 46.1536 88.7061C46.5544 90.5197 46.8692 90.8882 53.7387 97.7037C58.9623 102.876 60.1215 104.094 60.1931 104.491L60.2933 104.973L64.1573 104.888C66.2897 104.831 69.0518 104.788 70.3112 104.788H72.5867L72.5152 99.5032C72.4722 95.1532 72.415 94.0905 72.2146 93.3962C71.7567 91.7808 71.1413 91.0724 67.5491 88.0259C66.1752 86.864 64.0285 84.8945 62.7978 83.6617C61.567 82.429 60.3505 81.3237 60.0929 81.1962C59.4918 80.8845 58.2467 80.9695 57.7029 81.3662C56.7584 82.0605 56.5151 83.2508 57.1018 84.3843C57.3022 84.7811 58.5473 86.1272 60.4221 87.9834C62.0536 89.6129 63.4418 91.1007 63.4847 91.2849C63.6707 91.965 62.7691 92.6735 62.0965 92.376C61.6528 92.1776 56.4578 86.9915 55.2127 85.5179C54.583 84.7811 53.8532 83.7184 53.5812 83.1799C52.6653 81.2954 52.6653 81.3662 52.6653 72.2552C52.6653 67.14 52.6081 63.5835 52.5079 62.9034C52.2646 61.118 51.6349 59.7436 50.7762 59.1201C50.3469 58.7942 49.2449 58.6808 48.5866 58.8792Z" fill="black"/>
<path d="M48.5866 58.8792C47.8853 59.0918 46.9694 59.9561 46.7977 60.5512C46.7261 60.8346 46.4971 67.055 46.2824 74.3665C45.939 86.8073 45.9247 87.7425 46.1536 88.7061C46.5544 90.5197 46.8692 90.8882 53.7387 97.7037C58.9623 102.876 60.1215 104.094 60.1931 104.491L60.2933 104.973L64.1573 104.888C66.2897 104.831 69.0518 104.788 70.3112 104.788H72.5867L72.5152 99.5032C72.4722 95.1532 72.415 94.0905 72.2146 93.3962C71.7567 91.7808 71.1413 91.0724 67.5491 88.0259C66.1752 86.864 64.0285 84.8945 62.7978 83.6617C61.567 82.429 60.3505 81.3237 60.0929 81.1962C59.4918 80.8845 58.2467 80.9695 57.7029 81.3662C56.7584 82.0605 56.5151 83.2508 57.1018 84.3843C57.3022 84.7811 58.5473 86.1272 60.4221 87.9834C62.0536 89.6129 63.4418 91.1007 63.4847 91.2849C63.6707 91.965 62.7691 92.6735 62.0965 92.376C61.6528 92.1776 56.4578 86.9915 55.2127 85.5179C54.583 84.7811 53.8532 83.7184 53.5812 83.1799C52.6653 81.2954 52.6653 81.3662 52.6653 72.2552C52.6653 67.14 52.6081 63.5835 52.5079 62.9034C52.2646 61.118 51.6349 59.7436 50.7762 59.1201C50.3469 58.7942 49.2449 58.6808 48.5866 58.8792Z" fill="url(#paint6_radial_3266_3771)"/>
<path d="M109.539 58.9359C108.566 59.361 107.764 60.8913 107.478 62.9175C107.406 63.4701 107.335 67.5368 107.335 72.1986C107.335 81.3662 107.335 81.2954 106.419 83.1799C106.147 83.7184 105.417 84.7811 104.787 85.5179C103.542 87.0057 98.3329 92.1776 97.9036 92.376C97.2309 92.6735 96.3293 91.965 96.5154 91.2849C96.5583 91.1007 97.9465 89.6129 99.578 87.9834C101.453 86.1272 102.698 84.7811 102.898 84.3843C103.485 83.2508 103.242 82.0605 102.297 81.3662C101.753 80.9695 100.508 80.8845 99.9071 81.1962C99.6495 81.3237 98.4331 82.429 97.2023 83.6617C95.9715 84.8944 93.8248 86.864 92.4509 88.0259C88.8588 91.0724 88.2434 91.7808 87.7854 93.3962C87.5851 94.0905 87.5278 95.1532 87.4849 99.5032L87.4133 104.788H89.6888C90.9482 104.788 93.7103 104.831 95.8427 104.888L99.7068 104.973L99.807 104.491C99.8785 104.094 101.038 102.876 106.261 97.7037C113.131 90.8882 113.446 90.5197 113.846 88.706C114.075 87.7425 114.061 86.8073 113.718 74.3665C113.503 67.055 113.274 60.8346 113.202 60.5512C112.845 59.2618 110.841 58.3691 109.539 58.9359Z" fill="black"/>
<path d="M109.539 58.9359C108.566 59.361 107.764 60.8913 107.478 62.9175C107.406 63.4701 107.335 67.5368 107.335 72.1986C107.335 81.3662 107.335 81.2954 106.419 83.1799C106.147 83.7184 105.417 84.7811 104.787 85.5179C103.542 87.0057 98.3329 92.1776 97.9036 92.376C97.2309 92.6735 96.3293 91.965 96.5154 91.2849C96.5583 91.1007 97.9465 89.6129 99.578 87.9834C101.453 86.1272 102.698 84.7811 102.898 84.3843C103.485 83.2508 103.242 82.0605 102.297 81.3662C101.753 80.9695 100.508 80.8845 99.9071 81.1962C99.6495 81.3237 98.4331 82.429 97.2023 83.6617C95.9715 84.8944 93.8248 86.864 92.4509 88.0259C88.8588 91.0724 88.2434 91.7808 87.7854 93.3962C87.5851 94.0905 87.5278 95.1532 87.4849 99.5032L87.4133 104.788H89.6888C90.9482 104.788 93.7103 104.831 95.8427 104.888L99.7068 104.973L99.807 104.491C99.8785 104.094 101.038 102.876 106.261 97.7037C113.131 90.8882 113.446 90.5197 113.846 88.706C114.075 87.7425 114.061 86.8073 113.718 74.3665C113.503 67.055 113.274 60.8346 113.202 60.5512C112.845 59.2618 110.841 58.3691 109.539 58.9359Z" fill="url(#paint7_radial_3266_3771)"/>
<path d="M67.6922 61.3897C66.3326 62.1407 66.1179 62.3674 66.1179 63.0759C66.1179 63.5718 66.1895 63.7419 66.5043 63.9827C67.0338 64.3937 67.5777 64.2945 68.7369 63.6143C70.0392 62.835 70.1251 62.75 70.1251 62.0557C70.1251 61.5739 70.0535 61.3897 69.753 61.163C69.2092 60.7379 68.7655 60.7946 67.6922 61.3897Z" fill="black"/>
<path d="M67.6922 61.3897C66.3326 62.1407 66.1179 62.3674 66.1179 63.0759C66.1179 63.5718 66.1895 63.7419 66.5043 63.9827C67.0338 64.3937 67.5777 64.2945 68.7369 63.6143C70.0392 62.835 70.1251 62.75 70.1251 62.0557C70.1251 61.5739 70.0535 61.3897 69.753 61.163C69.2092 60.7379 68.7655 60.7946 67.6922 61.3897Z" fill="url(#paint8_radial_3266_3771)"/>
<path d="M90.247 61.1638C89.9464 61.3905 89.8749 61.5747 89.8749 62.0707C89.8749 62.765 90.0752 62.9633 91.6066 63.8135C92.5511 64.3378 92.9804 64.3803 93.51 63.9694C93.8105 63.7427 93.8821 63.5585 93.8821 63.0767C93.8821 62.3541 93.6674 62.1273 92.2935 61.3764C91.2201 60.7954 90.7908 60.7387 90.247 61.1638Z" fill="black"/>
<path d="M90.247 61.1638C89.9464 61.3905 89.8749 61.5747 89.8749 62.0707C89.8749 62.765 90.0752 62.9633 91.6066 63.8135C92.5511 64.3378 92.9804 64.3803 93.51 63.9694C93.8105 63.7427 93.8821 63.5585 93.8821 63.0767C93.8821 62.3541 93.6674 62.1273 92.2935 61.3764C91.2201 60.7954 90.7908 60.7387 90.247 61.1638Z" fill="url(#paint9_radial_3266_3771)"/>
<path d="M74.9052 66.9138C74.9624 67.1405 75.1914 67.4806 75.4347 67.6931L75.8498 68.0898H80H84.1503L84.5654 67.6931C84.8087 67.4806 85.0376 67.1405 85.0949 66.9138L85.1808 66.5312H80H74.8193L74.9052 66.9138Z" fill="black"/>
<path d="M74.9052 66.9138C74.9624 67.1405 75.1914 67.4806 75.4347 67.6931L75.8498 68.0898H80H84.1503L84.5654 67.6931C84.8087 67.4806 85.0376 67.1405 85.0949 66.9138L85.1808 66.5312H80H74.8193L74.9052 66.9138Z" fill="url(#paint10_radial_3266_3771)"/>
<path d="M60.2789 68.9548L60.3218 70.4001L61.8818 70.9952L63.4274 71.5903L63.8281 72.8089C64.0428 73.489 64.4864 74.5659 64.8156 75.2177C65.1448 75.8553 65.4024 76.4505 65.4024 76.5071C65.4024 76.578 65.1018 77.3006 64.7297 78.1083L64.0714 79.5961L66.0034 81.509L67.9498 83.4219L69.4095 82.7701C70.2253 82.4158 70.9695 82.1183 71.0697 82.1183C71.1698 82.1183 71.7709 82.3733 72.4149 82.685C73.0446 83.0109 74.118 83.436 74.8049 83.6627L76.0357 84.0595L76.6225 85.604L77.2235 87.1484H79.9999H82.7764L83.3774 85.604L83.9642 84.0595L85.2236 83.6486C85.9248 83.4219 86.9982 82.9968 87.6279 82.685C88.2576 82.3733 88.8444 82.1183 88.9302 82.1183C89.0304 82.1183 89.7746 82.4158 90.5904 82.7701L92.0501 83.4219L93.9965 81.509L95.9428 79.5819L95.2702 78.1083C94.8981 77.2865 94.5975 76.5638 94.5975 76.4788C94.5975 76.4079 94.8551 75.827 95.1843 75.2035C95.4991 74.5801 95.9428 73.5032 96.1718 72.8231L96.5725 71.5903L98.1181 70.9952L99.6781 70.4001L99.721 68.9548L99.7639 67.5237H94.8838H90.0179V68.2038C90.0179 69.054 89.5886 70.726 89.1163 71.7745C88.0286 74.1692 85.7245 76.1954 83.0769 77.1022C82.0608 77.4565 81.7173 77.499 80.0715 77.5132C78.3971 77.5132 78.0822 77.4707 76.9373 77.1022C74.3183 76.2521 71.9856 74.1975 70.8836 71.7745C70.4113 70.726 69.982 69.054 69.982 68.2038V67.5237H65.1161H60.236L60.2789 68.9548Z" fill="black"/>
<path d="M60.2789 68.9548L60.3218 70.4001L61.8818 70.9952L63.4274 71.5903L63.8281 72.8089C64.0428 73.489 64.4864 74.5659 64.8156 75.2177C65.1448 75.8553 65.4024 76.4505 65.4024 76.5071C65.4024 76.578 65.1018 77.3006 64.7297 78.1083L64.0714 79.5961L66.0034 81.509L67.9498 83.4219L69.4095 82.7701C70.2253 82.4158 70.9695 82.1183 71.0697 82.1183C71.1698 82.1183 71.7709 82.3733 72.4149 82.685C73.0446 83.0109 74.118 83.436 74.8049 83.6627L76.0357 84.0595L76.6225 85.604L77.2235 87.1484H79.9999H82.7764L83.3774 85.604L83.9642 84.0595L85.2236 83.6486C85.9248 83.4219 86.9982 82.9968 87.6279 82.685C88.2576 82.3733 88.8444 82.1183 88.9302 82.1183C89.0304 82.1183 89.7746 82.4158 90.5904 82.7701L92.0501 83.4219L93.9965 81.509L95.9428 79.5819L95.2702 78.1083C94.8981 77.2865 94.5975 76.5638 94.5975 76.4788C94.5975 76.4079 94.8551 75.827 95.1843 75.2035C95.4991 74.5801 95.9428 73.5032 96.1718 72.8231L96.5725 71.5903L98.1181 70.9952L99.6781 70.4001L99.721 68.9548L99.7639 67.5237H94.8838H90.0179V68.2038C90.0179 69.054 89.5886 70.726 89.1163 71.7745C88.0286 74.1692 85.7245 76.1954 83.0769 77.1022C82.0608 77.4565 81.7173 77.499 80.0715 77.5132C78.3971 77.5132 78.0822 77.4707 76.9373 77.1022C74.3183 76.2521 71.9856 74.1975 70.8836 71.7745C70.4113 70.726 69.982 69.054 69.982 68.2038V67.5237H65.1161H60.236L60.2789 68.9548Z" fill="url(#paint11_radial_3266_3771)"/>
<path d="M76.3507 70.5974C76.594 71.6034 77.1378 71.7734 79.9571 71.7734C81.2022 71.7734 82.4616 71.7026 82.7478 71.6317C83.3346 71.4617 83.721 71.0366 83.721 70.5407V70.2148H79.9858H76.2505L76.3507 70.5974Z" fill="black"/>
<path d="M76.3507 70.5974C76.594 71.6034 77.1378 71.7734 79.9571 71.7734C81.2022 71.7734 82.4616 71.7026 82.7478 71.6317C83.3346 71.4617 83.721 71.0366 83.721 70.5407V70.2148H79.9858H76.2505L76.3507 70.5974Z" fill="url(#paint12_radial_3266_3771)"/>
<path d="M77.7674 74.282C77.8246 74.5087 78.025 74.8205 78.2254 74.9905C78.5402 75.2739 78.7406 75.3164 79.9284 75.3164C81.3882 75.3164 81.8891 75.1747 82.118 74.6929C82.5188 73.8569 82.6476 73.8995 80.0572 73.8995H77.6815L77.7674 74.282Z" fill="black"/>
<path d="M77.7674 74.282C77.8246 74.5087 78.025 74.8205 78.2254 74.9905C78.5402 75.2739 78.7406 75.3164 79.9284 75.3164C81.3882 75.3164 81.8891 75.1747 82.118 74.6929C82.5188 73.8569 82.6476 73.8995 80.0572 73.8995H77.6815L77.7674 74.282Z" fill="url(#paint13_radial_3266_3771)"/>
<path d="M61.3236 107.057C55.8996 107.128 55.7565 107.156 55.3129 107.808C55.0696 108.19 55.0266 108.672 55.0696 111.152L55.0982 113.036L55.5848 113.518L56.0714 114H63.7136C67.9069 114 72.4722 113.957 73.8461 113.901L76.3506 113.816L76.8228 113.348L77.2808 112.895V110.543C77.2808 107.921 77.1806 107.51 76.4221 107.128C75.9785 106.901 73.016 106.887 61.3236 107.057ZM74.2611 109.537C74.9624 109.891 75.0625 110.699 74.4758 111.152C73.9892 111.535 73.5599 111.535 73.1591 111.166C72.5008 110.557 72.8586 109.579 73.8175 109.338C73.8461 109.324 74.0464 109.423 74.2611 109.537Z" fill="black"/>
<path d="M61.3236 107.057C55.8996 107.128 55.7565 107.156 55.3129 107.808C55.0696 108.19 55.0266 108.672 55.0696 111.152L55.0982 113.036L55.5848 113.518L56.0714 114H63.7136C67.9069 114 72.4722 113.957 73.8461 113.901L76.3506 113.816L76.8228 113.348L77.2808 112.895V110.543C77.2808 107.921 77.1806 107.51 76.4221 107.128C75.9785 106.901 73.016 106.887 61.3236 107.057ZM74.2611 109.537C74.9624 109.891 75.0625 110.699 74.4758 111.152C73.9892 111.535 73.5599 111.535 73.1591 111.166C72.5008 110.557 72.8586 109.579 73.8175 109.338C73.8461 109.324 74.0464 109.423 74.2611 109.537Z" fill="url(#paint14_radial_3266_3771)"/>
<path d="M83.5492 107.128C82.8193 107.539 82.7191 107.95 82.7191 110.543V112.895L83.1914 113.348L83.6494 113.816L86.1538 113.901C87.5277 113.957 92.0931 114 96.3006 114H103.929L104.415 113.518L104.902 113.036L104.93 111.138C104.973 108.672 104.93 108.19 104.673 107.808C104.2 107.085 104.372 107.099 93.8104 107C85.0376 106.915 83.8926 106.929 83.5492 107.128ZM86.9123 109.721C87.4848 110.217 86.9982 111.449 86.2111 111.449C85.7245 111.449 85.152 110.925 85.152 110.472C85.152 109.522 86.1825 109.083 86.9123 109.721Z" fill="black"/>
<path d="M83.5492 107.128C82.8193 107.539 82.7191 107.95 82.7191 110.543V112.895L83.1914 113.348L83.6494 113.816L86.1538 113.901C87.5277 113.957 92.0931 114 96.3006 114H103.929L104.415 113.518L104.902 113.036L104.93 111.138C104.973 108.672 104.93 108.19 104.673 107.808C104.2 107.085 104.372 107.099 93.8104 107C85.0376 106.915 83.8926 106.929 83.5492 107.128ZM86.9123 109.721C87.4848 110.217 86.9982 111.449 86.2111 111.449C85.7245 111.449 85.152 110.925 85.152 110.472C85.152 109.522 86.1825 109.083 86.9123 109.721Z" fill="url(#paint15_radial_3266_3771)"/>
</g>
<defs>
<filter id="filter0_d_3266_3771" x="-7.12671" y="7.29297" width="145.078" height="152.004" filterUnits="userSpaceOnUse" color-interpolation-filters="sRGB">
<feFlood flood-opacity="0" result="BackgroundImageFix"/>
<feColorMatrix in="SourceAlpha" type="matrix" values="0 0 0 0 0 0 0 0 0 0 0 0 0 0 0 0 0 0 127 0" result="hardAlpha"/>
<feOffset dx="-5" dy="5"/>
<feGaussianBlur stdDeviation="4"/>
<feComposite in2="hardAlpha" operator="out"/>
<feColorMatrix type="matrix" values="0 0 0 0 0 0 0 0 0 0 0 0 0 0 0 0 0 0 0.25 0"/>
<feBlend mode="normal" in2="BackgroundImageFix" result="effect1_dropShadow_3266_3771"/>
<feBlend mode="normal" in="SourceGraphic" in2="effect1_dropShadow_3266_3771" result="shape"/>
</filter>
<radialGradient id="paint0_radial_3266_3771" cx="0" cy="0" r="1" gradientUnits="userSpaceOnUse" gradientTransform="translate(74.8426 60.7379) rotate(-37.1619) scale(32.703 33.6103)">
<stop stop-color="#00862D"/>
<stop offset="0.627261" stop-color="#0033CC"/>
</radialGradient>
<radialGradient id="paint1_radial_3266_3771" cx="0" cy="0" r="1" gradientUnits="userSpaceOnUse" gradientTransform="translate(66.8972 49.9687) rotate(-30.2075) scale(7.16186 6.64819)">
<stop stop-color="#00862D"/>
<stop offset="0.627261" stop-color="#0033CC"/>
</radialGradient>
<radialGradient id="paint2_radial_3266_3771" cx="0" cy="0" r="1" gradientUnits="userSpaceOnUse" gradientTransform="translate(90.6541 49.9695) rotate(-30.1745) scale(7.15946 6.64161)">
<stop stop-color="#00862D"/>
<stop offset="0.627261" stop-color="#0033CC"/>
</radialGradient>
<radialGradient id="paint3_radial_3266_3771" cx="0" cy="0" r="1" gradientUnits="userSpaceOnUse" gradientTransform="translate(64.9554 56.445) rotate(-19.9963) scale(7.10993 4.87767)">
<stop stop-color="#00862D"/>
<stop offset="0.627261" stop-color="#0033CC"/>
</radialGradient>
<radialGradient id="paint4_radial_3266_3771" cx="0" cy="0" r="1" gradientUnits="userSpaceOnUse" gradientTransform="translate(92.3965 56.445) rotate(-19.9718) scale(7.11831 4.87843)">
<stop stop-color="#00862D"/>
<stop offset="0.627261" stop-color="#0033CC"/>
</radialGradient>
<radialGradient id="paint5_radial_3266_3771" cx="0" cy="0" r="1" gradientUnits="userSpaceOnUse" gradientTransform="translate(79.7377 63.0177) rotate(-79.9002) scale(7.56309 2.7876)">
<stop stop-color="#00862D"/>
<stop offset="0.627261" stop-color="#0033CC"/>
</radialGradient>
<radialGradient id="paint6_radial_3266_3771" cx="0" cy="0" r="1" gradientUnits="userSpaceOnUse" gradientTransform="translate(51.17 95.7349) rotate(-50.3421) scale(64.3445 67.4936)">
<stop stop-color="#00862D"/>
<stop offset="0.627261" stop-color="#0033CC"/>
</radialGradient>
<radialGradient id="paint7_radial_3266_3771" cx="0" cy="0" r="1" gradientUnits="userSpaceOnUse" gradientTransform="translate(92.5834 95.7311) rotate(-50.3537) scale(64.3602 67.5049)">
<stop stop-color="#00862D"/>
<stop offset="0.627261" stop-color="#0033CC"/>
</radialGradient>
<radialGradient id="paint8_radial_3266_3771" cx="0" cy="0" r="1" gradientUnits="userSpaceOnUse" gradientTransform="translate(66.8972 63.5586) rotate(-30.06) scale(7.15116 6.61877)">
<stop stop-color="#00862D"/>
<stop offset="0.627261" stop-color="#0033CC"/>
</radialGradient>
<radialGradient id="paint9_radial_3266_3771" cx="0" cy="0" r="1" gradientUnits="userSpaceOnUse" gradientTransform="translate(90.6541 63.5741) rotate(-30.2075) scale(7.16186 6.64819)">
<stop stop-color="#00862D"/>
<stop offset="0.627261" stop-color="#0033CC"/>
</radialGradient>
<radialGradient id="paint10_radial_3266_3771" cx="0" cy="0" r="1" gradientUnits="userSpaceOnUse" gradientTransform="translate(76.8342 67.7781) rotate(-5.96265) scale(16.0909 3.54922)">
<stop stop-color="#00862D"/>
<stop offset="0.627261" stop-color="#0033CC"/>
</radialGradient>
<radialGradient id="paint11_radial_3266_3771" cx="0" cy="0" r="1" gradientUnits="userSpaceOnUse" gradientTransform="translate(67.9225 83.2237) rotate(-19.0198) scale(64.5791 42.478)">
<stop stop-color="#00862D"/>
<stop offset="0.627261" stop-color="#0033CC"/>
</radialGradient>
<radialGradient id="paint12_radial_3266_3771" cx="0" cy="0" r="1" gradientUnits="userSpaceOnUse" gradientTransform="translate(77.7032 71.4617) rotate(-8.24268) scale(11.6591 3.53166)">
<stop stop-color="#00862D"/>
<stop offset="0.627261" stop-color="#0033CC"/>
</radialGradient>
<radialGradient id="paint13_radial_3266_3771" cx="0" cy="0" r="1" gradientUnits="userSpaceOnUse" gradientTransform="translate(78.5873 75.033) rotate(-11.9294) scale(7.35322 3.17486)">
<stop stop-color="#00862D"/>
<stop offset="0.627261" stop-color="#0033CC"/>
</radialGradient>
<radialGradient id="paint14_radial_3266_3771" cx="0" cy="0" r="1" gradientUnits="userSpaceOnUse" gradientTransform="translate(59.377 112.588) rotate(-12.4342) scale(35.1538 15.7806)">
<stop stop-color="#00862D"/>
<stop offset="0.627261" stop-color="#0033CC"/>
</radialGradient>
<radialGradient id="paint15_radial_3266_3771" cx="0" cy="0" r="1" gradientUnits="userSpaceOnUse" gradientTransform="translate(87.0411 112.59) rotate(-12.4189) scale(35.1515 15.7612)">
<stop stop-color="#00862D"/>
<stop offset="0.627261" stop-color="#0033CC"/>
</radialGradient>
<clipPath id="clip0_3266_3771">
<rect width="160" height="160" fill="white"/>
</clipPath>
</defs>
</svg>
