<svg width="160" height="160" viewBox="0 0 160 160" fill="none" xmlns="http://www.w3.org/2000/svg">
<g clip-path="url(#clip0_3266_3763)">
<g filter="url(#filter0_d_3266_3763)">
<path d="M81.0962 15.7562C100.014 2.51003 126.177 14.71 128.189 37.7161L134.831 113.636C136.844 136.642 113.197 153.2 92.2671 143.44L23.1971 111.232C2.26686 101.472 -0.24911 72.7148 18.6684 59.4686L81.0962 15.7562Z" fill="white"/>
</g>
<path d="M78.1769 46.2331C76.793 46.7513 75.7816 47.6547 75.1029 49.0365C74.7703 49.7008 74.7437 49.9 74.7437 51.2951C74.7437 52.7166 74.7703 52.8761 75.1296 53.6201C75.6352 54.6431 76.6466 55.6528 77.6712 56.1577C78.4165 56.5164 78.5761 56.543 80 56.543C81.4239 56.543 81.5836 56.5164 82.3288 56.1577C84.4579 55.1081 85.629 52.8761 85.2963 50.4713C85.0701 48.784 83.9123 47.2163 82.3288 46.4457C81.6368 46.1003 81.3574 46.0471 80.1996 46.0073C79.1483 45.9807 78.7225 46.0339 78.1769 46.2331Z" fill="black"/>
<path d="M78.1769 46.2331C76.793 46.7513 75.7816 47.6547 75.1029 49.0365C74.7703 49.7008 74.7437 49.9 74.7437 51.2951C74.7437 52.7166 74.7703 52.8761 75.1296 53.6201C75.6352 54.6431 76.6466 55.6528 77.6712 56.1577C78.4165 56.5164 78.5761 56.543 80 56.543C81.4239 56.543 81.5836 56.5164 82.3288 56.1577C84.4579 55.1081 85.629 52.8761 85.2963 50.4713C85.0701 48.784 83.9123 47.2163 82.3288 46.4457C81.6368 46.1003 81.3574 46.0471 80.1996 46.0073C79.1483 45.9807 78.7225 46.0339 78.1769 46.2331Z" fill="url(#paint0_radial_3266_3763)"/>
<path d="M72.202 55.7315C71.6165 56.1966 70.9112 56.8741 70.645 57.2196C69.6204 58.5349 69.1147 60.1159 69.2877 61.4445C69.3941 62.2283 71.0176 68.3133 71.2039 68.6853C71.4435 69.1104 71.9757 69.3628 72.6677 69.3628C73.2133 69.3628 73.4262 69.2964 73.7456 68.9908C74.4243 68.393 74.411 67.928 73.6125 64.9652L72.9206 62.3878L73.2932 61.6703C74.0384 60.2487 74.584 59.9033 75.3026 60.3949C75.755 60.7137 75.7949 61.2053 75.409 61.8829C75.2227 62.215 75.0763 62.5605 75.0763 62.6535C75.0763 62.7332 75.3558 63.8226 75.6885 65.0582C76.3938 67.6755 76.4071 68.3664 75.7949 69.4957C75.1296 70.718 74.0384 71.3557 72.6544 71.3557C71.337 71.3424 69.9797 70.5586 69.4074 69.4558C69.301 69.2566 68.7953 67.5161 68.2763 65.6029C67.4779 62.6003 67.3581 61.9759 67.3581 60.9927C67.3581 59.704 67.5977 58.6544 68.09 57.658C68.2896 57.286 68.4227 56.9273 68.3961 56.8608C68.3296 56.6616 64.9495 58.4153 63.3926 59.4516C56.2466 64.2345 51.5092 71.834 50.3914 80.3104C50.1253 82.383 50.1253 86.0897 50.4047 88.0029C50.5245 88.8266 50.6442 89.5042 50.6575 89.5308C50.6842 89.5573 51.8552 88.9063 53.2658 88.0826C56.6724 86.1163 56.8188 86.0499 57.8967 86.1296C58.9879 86.2093 59.7065 86.568 60.4251 87.3785C61.4497 88.5343 61.6227 90.0755 60.8908 91.4174C60.3984 92.3208 60.2521 92.4271 57.8568 93.8354L55.7542 95.071L55.5147 95.8017C55.1421 96.9044 54.49 97.1834 53.8247 96.5191C53.4388 96.1338 53.4521 95.7353 53.8912 94.4333L54.1174 93.7424L56.4462 92.3872C58.9613 90.9391 59.3738 90.5538 59.3738 89.7035C59.3738 89.1588 59.0012 88.5343 58.5487 88.2819C57.7902 87.8568 57.3378 88.0029 54.3836 89.7035C51.0168 91.6432 50.4979 92.0019 49.8857 92.9054C49.0607 94.1011 48.9409 94.5794 48.9409 96.6653C48.9276 98.8707 49.0341 99.5882 49.3667 99.442C49.4865 99.3889 50.2184 99.3224 50.9902 99.2826C52.2411 99.2294 52.5073 99.2693 53.4255 99.5749C55.7542 100.359 57.3511 101.9 58.1894 104.172C58.4556 104.876 58.5088 105.288 58.5088 106.43C58.5088 107.201 58.4689 108.011 58.4157 108.237C58.2959 108.782 58.4157 108.822 60.5049 108.915C63.0466 109.034 64.4305 108.596 65.6681 107.307C66.6662 106.284 69.7534 100.85 69.7534 100.146C69.7534 99.4553 69.4474 98.9372 68.9018 98.6714C67.6775 98.0869 67.1452 98.4589 65.7613 100.877C64.018 103.893 64.1644 103.72 63.1264 104.039C61.9421 104.384 61.6892 104.371 61.3033 103.972C60.6513 103.335 60.9573 102.67 62.0619 102.312L62.7671 102.073L64.0047 99.9602C65.4153 97.5687 65.535 97.4359 66.4266 96.9443C67.7707 96.2136 69.3143 96.3863 70.472 97.4093C71.2838 98.1267 71.6431 98.8442 71.7229 99.9203C71.8028 101.023 71.7495 101.129 69.6603 104.756C67.8904 107.812 67.0787 108.862 65.881 109.632C65.535 109.871 65.2689 110.111 65.3088 110.177C65.4153 110.35 67.5311 111.386 68.9018 111.931C71.337 112.887 73.9319 113.552 76.5401 113.87C77.9906 114.043 82.0094 114.043 83.4599 113.87C86.5472 113.498 90.0869 112.475 92.7883 111.173C94.9574 110.137 94.9307 110.164 94.1323 109.646C92.9213 108.862 92.1096 107.825 90.3397 104.756C88.2505 101.129 88.1973 101.023 88.2771 99.9203C88.357 98.8442 88.7163 98.1267 89.528 97.4093C90.699 96.3863 92.2294 96.2136 93.5867 96.9576C94.465 97.4226 94.6513 97.6617 96.0352 100.053C96.674 101.156 97.2728 102.086 97.3527 102.112C98.2975 102.365 98.7499 102.617 98.8963 102.989C99.1092 103.494 98.9229 103.972 98.4172 104.198C98.1511 104.331 97.9116 104.305 97.193 104.119C96.7006 103.986 96.1816 103.813 96.0352 103.707C95.8889 103.614 95.1703 102.511 94.4517 101.249C93.081 98.8574 92.7217 98.4589 91.9366 98.4589C90.9652 98.4589 90.2466 99.1763 90.2466 100.12C90.2466 100.691 90.1401 100.492 92.1495 103.972C93.9194 107.015 94.5714 107.825 95.7292 108.357C96.8204 108.862 97.7253 108.995 99.4951 108.915C101.584 108.822 101.704 108.782 101.584 108.237C101.531 108.011 101.491 107.161 101.505 106.364C101.505 105.115 101.558 104.77 101.864 103.986C102.636 102.006 104.246 100.412 106.215 99.6945C107.08 99.3756 107.413 99.3224 108.677 99.3224C109.489 99.3224 110.301 99.3623 110.5 99.4287C110.833 99.5217 110.873 99.4952 110.966 99.0302C111.019 98.7512 111.072 97.6883 111.059 96.6653C111.059 94.5794 110.939 94.1011 110.114 92.9054C109.502 92.0019 108.983 91.6432 105.616 89.7035C103.421 88.4413 102.715 88.0959 102.33 88.0959C101.651 88.0959 101.198 88.335 100.879 88.8532C100.52 89.4245 100.586 90.3811 101.012 90.8062C101.172 90.9524 102.33 91.6831 103.594 92.4138L105.883 93.7424L106.109 94.4333C106.548 95.7353 106.561 96.1338 106.175 96.5191C105.497 97.1967 104.712 96.838 104.445 95.7353L104.272 95.071L102.316 93.9417C99.921 92.5599 99.5883 92.3075 99.1225 91.4439C98.3773 90.0622 98.5503 88.4679 99.6016 87.3386C100.307 86.568 101.025 86.2093 102.023 86.1429C103.115 86.0499 103.461 86.196 106.601 88.0162C108.092 88.8665 109.316 89.5573 109.342 89.5308C109.489 89.3713 109.715 86.8072 109.768 84.6416C109.901 79.6594 109.023 75.6603 106.814 71.1564C104.259 65.9351 100.333 61.657 95.3699 58.6677C94.3452 58.0566 91.7503 56.7413 91.5374 56.7413C91.4842 56.7413 91.6172 57.1 91.8435 57.5384C92.4024 58.6544 92.6419 59.6642 92.6419 60.9927C92.6419 61.9759 92.5221 62.6003 91.7237 65.6029C91.2047 67.5161 90.699 69.2566 90.5926 69.4558C90.0204 70.5586 88.663 71.3424 87.3456 71.3557C85.9617 71.3557 84.8705 70.718 84.2051 69.4957C83.5797 68.3531 83.593 67.6623 84.3116 65.0715C84.6442 63.8492 84.9237 62.7598 84.9237 62.6668C84.9237 62.5605 84.7773 62.215 84.591 61.9095C84.4047 61.5906 84.2583 61.2186 84.2583 61.0858C84.2583 60.7137 84.8572 60.1956 85.2963 60.1956C85.7487 60.1956 86.0548 60.5012 86.6536 61.5773L87.0928 62.3479L86.3875 64.9519C85.5891 67.928 85.5757 68.393 86.2544 68.9908C86.7734 69.4691 87.7981 69.509 88.3836 69.0971C88.8227 68.7783 88.9026 68.5657 89.9272 64.7128C91.0317 60.5543 90.9652 59.5047 89.528 57.4853C88.9558 56.6881 86.9198 54.8813 86.5871 54.8813C86.5073 54.8813 86.1879 55.24 85.8552 55.6917C83.939 58.3223 80.2795 59.3586 77.272 58.1097C75.9679 57.565 74.6505 56.5021 73.9053 55.3728C73.7323 55.1071 73.5061 54.8813 73.4262 54.8813C73.3331 54.8813 72.7875 55.2665 72.202 55.7315ZM83.3934 73.973C84.3914 74.5045 85.1898 75.6072 85.1898 76.4575V76.7763L88.2239 76.8295C91.6572 76.8826 92.0298 76.9756 92.9213 77.9588C93.7863 78.9154 93.773 78.7559 93.773 86.8603V94.1941L93.4802 94.4864C93.3073 94.6724 93.0278 94.7787 92.775 94.7787C92.4157 94.7787 92.0697 94.4997 90.2732 92.7061L88.184 90.6335L82.1957 90.5936C75.5554 90.5538 75.6485 90.5671 74.7037 89.6503C74.0517 89.0392 73.7589 88.3749 73.6658 87.312L73.5726 86.3687H72.6943H71.8161L69.7268 88.4546C67.9303 90.2482 67.5844 90.5272 67.2251 90.5272C66.9722 90.5272 66.6928 90.4209 66.5198 90.2349L66.227 89.9426V83.1403C66.227 75.6338 66.2137 75.7135 67.0654 74.7835C67.5844 74.1989 68.0368 73.9332 68.782 73.7605C69.0615 73.694 72.3217 73.6409 76.0744 73.6542C82.7546 73.6807 82.8744 73.6807 83.3934 73.973Z" fill="black"/>
<path d="M72.202 55.7315C71.6165 56.1966 70.9112 56.8741 70.645 57.2196C69.6204 58.5349 69.1147 60.1159 69.2877 61.4445C69.3941 62.2283 71.0176 68.3133 71.2039 68.6853C71.4435 69.1104 71.9757 69.3628 72.6677 69.3628C73.2133 69.3628 73.4262 69.2964 73.7456 68.9908C74.4243 68.393 74.411 67.928 73.6125 64.9652L72.9206 62.3878L73.2932 61.6703C74.0384 60.2487 74.584 59.9033 75.3026 60.3949C75.755 60.7137 75.7949 61.2053 75.409 61.8829C75.2227 62.215 75.0763 62.5605 75.0763 62.6535C75.0763 62.7332 75.3558 63.8226 75.6885 65.0582C76.3938 67.6755 76.4071 68.3664 75.7949 69.4957C75.1296 70.718 74.0384 71.3557 72.6544 71.3557C71.337 71.3424 69.9797 70.5586 69.4074 69.4558C69.301 69.2566 68.7953 67.5161 68.2763 65.6029C67.4779 62.6003 67.3581 61.9759 67.3581 60.9927C67.3581 59.704 67.5977 58.6544 68.09 57.658C68.2896 57.286 68.4227 56.9273 68.3961 56.8608C68.3296 56.6616 64.9495 58.4153 63.3926 59.4516C56.2466 64.2345 51.5092 71.834 50.3914 80.3104C50.1253 82.383 50.1253 86.0897 50.4047 88.0029C50.5245 88.8266 50.6442 89.5042 50.6575 89.5308C50.6842 89.5573 51.8552 88.9063 53.2658 88.0826C56.6724 86.1163 56.8188 86.0499 57.8967 86.1296C58.9879 86.2093 59.7065 86.568 60.4251 87.3785C61.4497 88.5343 61.6227 90.0755 60.8908 91.4174C60.3984 92.3208 60.2521 92.4271 57.8568 93.8354L55.7542 95.071L55.5147 95.8017C55.1421 96.9044 54.49 97.1834 53.8247 96.5191C53.4388 96.1338 53.4521 95.7353 53.8912 94.4333L54.1174 93.7424L56.4462 92.3872C58.9613 90.9391 59.3738 90.5538 59.3738 89.7035C59.3738 89.1588 59.0012 88.5343 58.5487 88.2819C57.7902 87.8568 57.3378 88.0029 54.3836 89.7035C51.0168 91.6432 50.4979 92.0019 49.8857 92.9054C49.0607 94.1011 48.9409 94.5794 48.9409 96.6653C48.9276 98.8707 49.0341 99.5882 49.3667 99.442C49.4865 99.3889 50.2184 99.3224 50.9902 99.2826C52.2411 99.2294 52.5073 99.2693 53.4255 99.5749C55.7542 100.359 57.3511 101.9 58.1894 104.172C58.4556 104.876 58.5088 105.288 58.5088 106.43C58.5088 107.201 58.4689 108.011 58.4157 108.237C58.2959 108.782 58.4157 108.822 60.5049 108.915C63.0466 109.034 64.4305 108.596 65.6681 107.307C66.6662 106.284 69.7534 100.85 69.7534 100.146C69.7534 99.4553 69.4474 98.9372 68.9018 98.6714C67.6775 98.0869 67.1452 98.4589 65.7613 100.877C64.018 103.893 64.1644 103.72 63.1264 104.039C61.9421 104.384 61.6892 104.371 61.3033 103.972C60.6513 103.335 60.9573 102.67 62.0619 102.312L62.7671 102.073L64.0047 99.9602C65.4153 97.5687 65.535 97.4359 66.4266 96.9443C67.7707 96.2136 69.3143 96.3863 70.472 97.4093C71.2838 98.1267 71.6431 98.8442 71.7229 99.9203C71.8028 101.023 71.7495 101.129 69.6603 104.756C67.8904 107.812 67.0787 108.862 65.881 109.632C65.535 109.871 65.2689 110.111 65.3088 110.177C65.4153 110.35 67.5311 111.386 68.9018 111.931C71.337 112.887 73.9319 113.552 76.5401 113.87C77.9906 114.043 82.0094 114.043 83.4599 113.87C86.5472 113.498 90.0869 112.475 92.7883 111.173C94.9574 110.137 94.9307 110.164 94.1323 109.646C92.9213 108.862 92.1096 107.825 90.3397 104.756C88.2505 101.129 88.1973 101.023 88.2771 99.9203C88.357 98.8442 88.7163 98.1267 89.528 97.4093C90.699 96.3863 92.2294 96.2136 93.5867 96.9576C94.465 97.4226 94.6513 97.6617 96.0352 100.053C96.674 101.156 97.2728 102.086 97.3527 102.112C98.2975 102.365 98.7499 102.617 98.8963 102.989C99.1092 103.494 98.9229 103.972 98.4172 104.198C98.1511 104.331 97.9116 104.305 97.193 104.119C96.7006 103.986 96.1816 103.813 96.0352 103.707C95.8889 103.614 95.1703 102.511 94.4517 101.249C93.081 98.8574 92.7217 98.4589 91.9366 98.4589C90.9652 98.4589 90.2466 99.1763 90.2466 100.12C90.2466 100.691 90.1401 100.492 92.1495 103.972C93.9194 107.015 94.5714 107.825 95.7292 108.357C96.8204 108.862 97.7253 108.995 99.4951 108.915C101.584 108.822 101.704 108.782 101.584 108.237C101.531 108.011 101.491 107.161 101.505 106.364C101.505 105.115 101.558 104.77 101.864 103.986C102.636 102.006 104.246 100.412 106.215 99.6945C107.08 99.3756 107.413 99.3224 108.677 99.3224C109.489 99.3224 110.301 99.3623 110.5 99.4287C110.833 99.5217 110.873 99.4952 110.966 99.0302C111.019 98.7512 111.072 97.6883 111.059 96.6653C111.059 94.5794 110.939 94.1011 110.114 92.9054C109.502 92.0019 108.983 91.6432 105.616 89.7035C103.421 88.4413 102.715 88.0959 102.33 88.0959C101.651 88.0959 101.198 88.335 100.879 88.8532C100.52 89.4245 100.586 90.3811 101.012 90.8062C101.172 90.9524 102.33 91.6831 103.594 92.4138L105.883 93.7424L106.109 94.4333C106.548 95.7353 106.561 96.1338 106.175 96.5191C105.497 97.1967 104.712 96.838 104.445 95.7353L104.272 95.071L102.316 93.9417C99.921 92.5599 99.5883 92.3075 99.1225 91.4439C98.3773 90.0622 98.5503 88.4679 99.6016 87.3386C100.307 86.568 101.025 86.2093 102.023 86.1429C103.115 86.0499 103.461 86.196 106.601 88.0162C108.092 88.8665 109.316 89.5573 109.342 89.5308C109.489 89.3713 109.715 86.8072 109.768 84.6416C109.901 79.6594 109.023 75.6603 106.814 71.1564C104.259 65.9351 100.333 61.657 95.3699 58.6677C94.3452 58.0566 91.7503 56.7413 91.5374 56.7413C91.4842 56.7413 91.6172 57.1 91.8435 57.5384C92.4024 58.6544 92.6419 59.6642 92.6419 60.9927C92.6419 61.9759 92.5221 62.6003 91.7237 65.6029C91.2047 67.5161 90.699 69.2566 90.5926 69.4558C90.0204 70.5586 88.663 71.3424 87.3456 71.3557C85.9617 71.3557 84.8705 70.718 84.2051 69.4957C83.5797 68.3531 83.593 67.6623 84.3116 65.0715C84.6442 63.8492 84.9237 62.7598 84.9237 62.6668C84.9237 62.5605 84.7773 62.215 84.591 61.9095C84.4047 61.5906 84.2583 61.2186 84.2583 61.0858C84.2583 60.7137 84.8572 60.1956 85.2963 60.1956C85.7487 60.1956 86.0548 60.5012 86.6536 61.5773L87.0928 62.3479L86.3875 64.9519C85.5891 67.928 85.5757 68.393 86.2544 68.9908C86.7734 69.4691 87.7981 69.509 88.3836 69.0971C88.8227 68.7783 88.9026 68.5657 89.9272 64.7128C91.0317 60.5543 90.9652 59.5047 89.528 57.4853C88.9558 56.6881 86.9198 54.8813 86.5871 54.8813C86.5073 54.8813 86.1879 55.24 85.8552 55.6917C83.939 58.3223 80.2795 59.3586 77.272 58.1097C75.9679 57.565 74.6505 56.5021 73.9053 55.3728C73.7323 55.1071 73.5061 54.8813 73.4262 54.8813C73.3331 54.8813 72.7875 55.2665 72.202 55.7315ZM83.3934 73.973C84.3914 74.5045 85.1898 75.6072 85.1898 76.4575V76.7763L88.2239 76.8295C91.6572 76.8826 92.0298 76.9756 92.9213 77.9588C93.7863 78.9154 93.773 78.7559 93.773 86.8603V94.1941L93.4802 94.4864C93.3073 94.6724 93.0278 94.7787 92.775 94.7787C92.4157 94.7787 92.0697 94.4997 90.2732 92.7061L88.184 90.6335L82.1957 90.5936C75.5554 90.5538 75.6485 90.5671 74.7037 89.6503C74.0517 89.0392 73.7589 88.3749 73.6658 87.312L73.5726 86.3687H72.6943H71.8161L69.7268 88.4546C67.9303 90.2482 67.5844 90.5272 67.2251 90.5272C66.9722 90.5272 66.6928 90.4209 66.5198 90.2349L66.227 89.9426V83.1403C66.227 75.6338 66.2137 75.7135 67.0654 74.7835C67.5844 74.1989 68.0368 73.9332 68.782 73.7605C69.0615 73.694 72.3217 73.6409 76.0744 73.6542C82.7546 73.6807 82.8744 73.6807 83.3934 73.973Z" fill="url(#paint1_radial_3266_3763)"/>
<path d="M68.5557 76.0079C68.3029 76.2603 68.2896 76.4463 68.2896 81.6809V87.1016L69.5937 85.8128C70.2989 85.1087 71.0575 84.4577 71.2571 84.3912C71.4966 84.2982 73.5991 84.2451 77.0856 84.2451C80.3991 84.2451 82.6481 84.192 82.7944 84.1122C83.2469 83.8731 83.3267 83.2487 83.3267 79.9936C83.3267 76.7386 83.2469 76.1142 82.7944 75.875C82.6348 75.7953 79.9068 75.7422 75.6884 75.7422C68.9948 75.7422 68.8085 75.7554 68.5557 76.0079ZM72.1487 79.3293C72.295 79.4755 72.4148 79.7678 72.4148 79.9936C72.4148 80.2195 72.295 80.5118 72.1487 80.6579C72.0023 80.8041 71.7095 80.9236 71.4833 80.9236C71.2571 80.9236 70.9643 80.8041 70.8179 80.6579C70.6715 80.5118 70.5518 80.2195 70.5518 79.9936C70.5518 79.7678 70.6715 79.4755 70.8179 79.3293C70.9643 79.1832 71.2571 79.0636 71.4833 79.0636C71.7095 79.0636 72.0023 79.1832 72.1487 79.3293ZM76.407 79.3293C76.5533 79.4755 76.6731 79.7678 76.6731 79.9936C76.6731 80.2195 76.5533 80.5118 76.407 80.6579C76.2606 80.8041 75.9678 80.9236 75.7416 80.9236C75.5154 80.9236 75.2226 80.8041 75.0762 80.6579C74.9299 80.5118 74.8101 80.2195 74.8101 79.9936C74.8101 79.7678 74.9299 79.4755 75.0762 79.3293C75.2226 79.1832 75.5154 79.0636 75.7416 79.0636C75.9678 79.0636 76.2606 79.1832 76.407 79.3293ZM80.6653 79.3293C80.8117 79.4755 80.9314 79.7678 80.9314 79.9936C80.9314 80.2195 80.8117 80.5118 80.6653 80.6579C80.5189 80.8041 80.2261 80.9236 79.9999 80.9236C79.7737 80.9236 79.4809 80.8041 79.3346 80.6579C79.1882 80.5118 79.0684 80.2195 79.0684 79.9936C79.0684 79.7678 79.1882 79.4755 79.3346 79.3293C79.4809 79.1832 79.7737 79.0636 79.9999 79.0636C80.2261 79.0636 80.5189 79.1832 80.6653 79.3293Z" fill="black"/>
<path d="M68.5557 76.0079C68.3029 76.2603 68.2896 76.4463 68.2896 81.6809V87.1016L69.5937 85.8128C70.2989 85.1087 71.0575 84.4577 71.2571 84.3912C71.4966 84.2982 73.5991 84.2451 77.0856 84.2451C80.3991 84.2451 82.6481 84.192 82.7944 84.1122C83.2469 83.8731 83.3267 83.2487 83.3267 79.9936C83.3267 76.7386 83.2469 76.1142 82.7944 75.875C82.6348 75.7953 79.9068 75.7422 75.6884 75.7422C68.9948 75.7422 68.8085 75.7554 68.5557 76.0079ZM72.1487 79.3293C72.295 79.4755 72.4148 79.7678 72.4148 79.9936C72.4148 80.2195 72.295 80.5118 72.1487 80.6579C72.0023 80.8041 71.7095 80.9236 71.4833 80.9236C71.2571 80.9236 70.9643 80.8041 70.8179 80.6579C70.6715 80.5118 70.5518 80.2195 70.5518 79.9936C70.5518 79.7678 70.6715 79.4755 70.8179 79.3293C70.9643 79.1832 71.2571 79.0636 71.4833 79.0636C71.7095 79.0636 72.0023 79.1832 72.1487 79.3293ZM76.407 79.3293C76.5533 79.4755 76.6731 79.7678 76.6731 79.9936C76.6731 80.2195 76.5533 80.5118 76.407 80.6579C76.2606 80.8041 75.9678 80.9236 75.7416 80.9236C75.5154 80.9236 75.2226 80.8041 75.0762 80.6579C74.9299 80.5118 74.8101 80.2195 74.8101 79.9936C74.8101 79.7678 74.9299 79.4755 75.0762 79.3293C75.2226 79.1832 75.5154 79.0636 75.7416 79.0636C75.9678 79.0636 76.2606 79.1832 76.407 79.3293ZM80.6653 79.3293C80.8117 79.4755 80.9314 79.7678 80.9314 79.9936C80.9314 80.2195 80.8117 80.5118 80.6653 80.6579C80.5189 80.8041 80.2261 80.9236 79.9999 80.9236C79.7737 80.9236 79.4809 80.8041 79.3346 80.6579C79.1882 80.5118 79.0684 80.2195 79.0684 79.9936C79.0684 79.7678 79.1882 79.4755 79.3346 79.3293C79.4809 79.1832 79.7737 79.0636 79.9999 79.0636C80.2261 79.0636 80.5189 79.1832 80.6653 79.3293Z" fill="url(#paint2_radial_3266_3763)"/>
<path d="M85.2963 81.3473C85.2431 84.0709 85.11 84.5891 84.245 85.3995C83.3535 86.2498 83.1006 86.2897 79.175 86.3428L75.6086 86.396V86.8875C75.6086 87.5518 75.8482 88.2028 76.1409 88.3623C76.3006 88.442 78.7358 88.4951 82.3953 88.4951C87.2259 88.4951 88.4767 88.535 88.8227 88.6811C89.0623 88.7874 89.7809 89.4119 90.4462 90.0761C91.0983 90.7404 91.6838 91.2852 91.737 91.2852C91.91 91.2852 91.8701 80.0985 91.6971 79.6069C91.6173 79.381 91.4443 79.1286 91.3112 79.0622C91.1648 78.9825 89.8208 78.9293 88.2106 78.9293H85.3495L85.2963 81.3473Z" fill="black"/>
<path d="M85.2963 81.3473C85.2431 84.0709 85.11 84.5891 84.245 85.3995C83.3535 86.2498 83.1006 86.2897 79.175 86.3428L75.6086 86.396V86.8875C75.6086 87.5518 75.8482 88.2028 76.1409 88.3623C76.3006 88.442 78.7358 88.4951 82.3953 88.4951C87.2259 88.4951 88.4767 88.535 88.8227 88.6811C89.0623 88.7874 89.7809 89.4119 90.4462 90.0761C91.0983 90.7404 91.6838 91.2852 91.737 91.2852C91.91 91.2852 91.8701 80.0985 91.6971 79.6069C91.6173 79.381 91.4443 79.1286 91.3112 79.0622C91.1648 78.9825 89.8208 78.9293 88.2106 78.9293H85.3495L85.2963 81.3473Z" fill="url(#paint3_radial_3266_3763)"/>
<path d="M49.4333 101.503C48.036 102.021 47.038 102.924 46.3593 104.306C46.0266 104.97 46 105.17 46 106.565C46 107.946 46.0399 108.159 46.3593 108.863C46.825 109.846 47.9695 110.989 48.9542 111.454C49.6595 111.773 49.8724 111.812 51.2564 111.812C52.6802 111.812 52.8399 111.786 53.5851 111.427C54.6098 110.922 55.6211 109.913 56.1268 108.89C56.4861 108.146 56.5127 107.986 56.5127 106.565C56.5127 105.17 56.4861 104.97 56.1401 104.293C55.5679 103.124 54.836 102.393 53.6916 101.822C52.7734 101.37 52.5738 101.317 51.4027 101.29C50.4047 101.25 49.9789 101.303 49.4333 101.503Z" fill="black"/>
<path d="M49.4333 101.503C48.036 102.021 47.038 102.924 46.3593 104.306C46.0266 104.97 46 105.17 46 106.565C46 107.946 46.0399 108.159 46.3593 108.863C46.825 109.846 47.9695 110.989 48.9542 111.454C49.6595 111.773 49.8724 111.812 51.2564 111.812C52.6802 111.812 52.8399 111.786 53.5851 111.427C54.6098 110.922 55.6211 109.913 56.1268 108.89C56.4861 108.146 56.5127 107.986 56.5127 106.565C56.5127 105.17 56.4861 104.97 56.1401 104.293C55.5679 103.124 54.836 102.393 53.6916 101.822C52.7734 101.37 52.5738 101.317 51.4027 101.29C50.4047 101.25 49.9789 101.303 49.4333 101.503Z" fill="url(#paint4_radial_3266_3763)"/>
<path d="M106.854 101.543C105.324 102.127 104.099 103.389 103.62 104.904C103.261 106.046 103.381 107.84 103.887 108.89C104.366 109.899 105.39 110.922 106.415 111.427C107.16 111.786 107.32 111.812 108.744 111.812C110.168 111.812 110.327 111.786 111.072 111.427C112.097 110.922 113.108 109.913 113.614 108.89C113.973 108.146 114 107.986 114 106.565C114 105.143 113.973 104.984 113.614 104.24C113.108 103.217 112.097 102.207 111.072 101.715C110.38 101.37 110.114 101.317 108.943 101.29C107.839 101.264 107.479 101.303 106.854 101.543Z" fill="black"/>
<path d="M106.854 101.543C105.324 102.127 104.099 103.389 103.62 104.904C103.261 106.046 103.381 107.84 103.887 108.89C104.366 109.899 105.39 110.922 106.415 111.427C107.16 111.786 107.32 111.812 108.744 111.812C110.168 111.812 110.327 111.786 111.072 111.427C112.097 110.922 113.108 109.913 113.614 108.89C113.973 108.146 114 107.986 114 106.565C114 105.143 113.973 104.984 113.614 104.24C113.108 103.217 112.097 102.207 111.072 101.715C110.38 101.37 110.114 101.317 108.943 101.29C107.839 101.264 107.479 101.303 106.854 101.543Z" fill="url(#paint5_radial_3266_3763)"/>
</g>
<defs>
<filter id="filter0_d_3266_3763" x="-7.12671" y="7.29297" width="145.078" height="152.004" filterUnits="userSpaceOnUse" color-interpolation-filters="sRGB">
<feFlood flood-opacity="0" result="BackgroundImageFix"/>
<feColorMatrix in="SourceAlpha" type="matrix" values="0 0 0 0 0 0 0 0 0 0 0 0 0 0 0 0 0 0 127 0" result="hardAlpha"/>
<feOffset dx="-5" dy="5"/>
<feGaussianBlur stdDeviation="4"/>
<feComposite in2="hardAlpha" operator="out"/>
<feColorMatrix type="matrix" values="0 0 0 0 0 0 0 0 0 0 0 0 0 0 0 0 0 0 0.25 0"/>
<feBlend mode="normal" in2="BackgroundImageFix" result="effect1_dropShadow_3266_3763"/>
<feBlend mode="normal" in="SourceGraphic" in2="effect1_dropShadow_3266_3763" result="shape"/>
</filter>
<radialGradient id="paint0_radial_3266_3763" cx="0" cy="0" r="1" gradientUnits="userSpaceOnUse" gradientTransform="translate(76.8066 54.4347) rotate(-34.6043) scale(19.9074 19.8662)">
<stop stop-color="#00862D"/>
<stop offset="0.627261" stop-color="#0033CC"/>
</radialGradient>
<radialGradient id="paint1_radial_3266_3763" cx="0" cy="0" r="1" gradientUnits="userSpaceOnUse" gradientTransform="translate(61.0199 102.177) rotate(-33.4552) scale(115.005 112.927)">
<stop stop-color="#00862D"/>
<stop offset="0.627261" stop-color="#0033CC"/>
</radialGradient>
<radialGradient id="paint2_radial_3266_3763" cx="0" cy="0" r="1" gradientUnits="userSpaceOnUse" gradientTransform="translate(71.2137 84.8298) rotate(-27.6772) scale(26.2268 23.0316)">
<stop stop-color="#00862D"/>
<stop offset="0.627261" stop-color="#0033CC"/>
</radialGradient>
<radialGradient id="paint3_radial_3266_3763" cx="0" cy="0" r="1" gradientUnits="userSpaceOnUse" gradientTransform="translate(78.7666 88.8141) rotate(-27.8458) scale(28.3683 25.0131)">
<stop stop-color="#00862D"/>
<stop offset="0.627261" stop-color="#0033CC"/>
</radialGradient>
<radialGradient id="paint4_radial_3266_3763" cx="0" cy="0" r="1" gradientUnits="userSpaceOnUse" gradientTransform="translate(48.0443 109.706) rotate(-34.8292) scale(19.7812 19.7985)">
<stop stop-color="#00862D"/>
<stop offset="0.627261" stop-color="#0033CC"/>
</radialGradient>
<radialGradient id="paint5_radial_3266_3763" cx="0" cy="0" r="1" gradientUnits="userSpaceOnUse" gradientTransform="translate(105.472 109.707) rotate(-34.6272) scale(19.8722 19.8372)">
<stop stop-color="#00862D"/>
<stop offset="0.627261" stop-color="#0033CC"/>
</radialGradient>
<clipPath id="clip0_3266_3763">
<rect width="160" height="160" fill="white"/>
</clipPath>
</defs>
</svg>
