<svg width="160" height="160" viewBox="0 0 160 160" fill="none" xmlns="http://www.w3.org/2000/svg">
<g clip-path="url(#clip0_3266_3830)">
<g filter="url(#filter0_d_3266_3830)">
<path d="M81.0962 15.7562C100.014 2.51003 126.177 14.71 128.189 37.7161L134.831 113.636C136.844 136.642 113.197 153.2 92.2671 143.44L23.1971 111.232C2.26686 101.472 -0.24911 72.7148 18.6684 59.4686L81.0962 15.7562Z" fill="white"/>
</g>
<path d="M71.245 46.1805C71.1175 46.3081 71.075 49.6827 71.075 60.5015V74.6523H73.8375H76.6V70.8381C76.6 68.4277 76.6566 66.868 76.7558 66.5844C77.025 65.8187 77.4216 65.7194 80.1983 65.7194C82.6491 65.7194 82.6775 65.7194 83.1025 66.0881L83.5416 66.4568V70.5545V74.6523H86.2333H88.925V60.5015C88.925 49.6827 88.8825 46.3081 88.755 46.1805C88.5141 45.9394 71.4858 45.9394 71.245 46.1805ZM76.4583 49.7678V50.8313H75.3958H74.3333V49.7678V48.7044H75.3958H76.4583V49.7678ZM81.1333 49.7678V50.8313H80H78.8666V49.7678V48.7044H80H81.1333V49.7678ZM85.6666 49.7678V50.8313H84.6041H83.5416V49.7678V48.7044H84.6041H85.6666V49.7678ZM76.4583 53.8798V54.9432H75.3958H74.3333V53.8798V52.8163H75.3958H76.4583V53.8798ZM81.1333 53.8798V54.9432H80H78.8666V53.8798V52.8163H80H81.1333V53.8798ZM85.6666 53.8798V54.9432H84.6041H83.5416V53.8798V52.8163H84.6041H85.6666V53.8798ZM76.4583 57.9918V59.0552H75.3958H74.3333V57.9918V56.9283H75.3958H76.4583V57.9918ZM81.1333 57.9918V59.0552H80H78.8666V57.9918V56.9283H80H81.1333V57.9918ZM85.6666 57.9918V59.0552H84.6041H83.5416V57.9918V56.9283H84.6041H85.6666V57.9918ZM76.4583 62.1037V63.1672H75.3958H74.3333V62.1037V61.0403H75.3958H76.4583V62.1037ZM81.1333 62.1037V63.1672H80H78.8666V62.1037V61.0403H80H81.1333V62.1037ZM85.6666 62.1037V63.1672H84.6041H83.5416V62.1037V61.0403H84.6041H85.6666V62.1037Z" fill="black"/>
<path d="M71.245 46.1805C71.1175 46.3081 71.075 49.6827 71.075 60.5015V74.6523H73.8375H76.6V70.8381C76.6 68.4277 76.6566 66.868 76.7558 66.5844C77.025 65.8187 77.4216 65.7194 80.1983 65.7194C82.6491 65.7194 82.6775 65.7194 83.1025 66.0881L83.5416 66.4568V70.5545V74.6523H86.2333H88.925V60.5015C88.925 49.6827 88.8825 46.3081 88.755 46.1805C88.5141 45.9394 71.4858 45.9394 71.245 46.1805ZM76.4583 49.7678V50.8313H75.3958H74.3333V49.7678V48.7044H75.3958H76.4583V49.7678ZM81.1333 49.7678V50.8313H80H78.8666V49.7678V48.7044H80H81.1333V49.7678ZM85.6666 49.7678V50.8313H84.6041H83.5416V49.7678V48.7044H84.6041H85.6666V49.7678ZM76.4583 53.8798V54.9432H75.3958H74.3333V53.8798V52.8163H75.3958H76.4583V53.8798ZM81.1333 53.8798V54.9432H80H78.8666V53.8798V52.8163H80H81.1333V53.8798ZM85.6666 53.8798V54.9432H84.6041H83.5416V53.8798V52.8163H84.6041H85.6666V53.8798ZM76.4583 57.9918V59.0552H75.3958H74.3333V57.9918V56.9283H75.3958H76.4583V57.9918ZM81.1333 57.9918V59.0552H80H78.8666V57.9918V56.9283H80H81.1333V57.9918ZM85.6666 57.9918V59.0552H84.6041H83.5416V57.9918V56.9283H84.6041H85.6666V57.9918ZM76.4583 62.1037V63.1672H75.3958H74.3333V62.1037V61.0403H75.3958H76.4583V62.1037ZM81.1333 62.1037V63.1672H80H78.8666V62.1037V61.0403H80H81.1333V62.1037ZM85.6666 62.1037V63.1672H84.6041H83.5416V62.1037V61.0403H84.6041H85.6666V62.1037Z" fill="url(#paint0_radial_3266_3830)"/>
<path d="M61.3851 50.3492C61.1868 50.5477 61.1584 51.838 61.1584 62.3873C61.1584 72.9367 61.1868 74.227 61.3851 74.4255C61.5693 74.624 62.1218 74.6523 65.2809 74.6523H68.9501V62.3873V50.1223H65.2809C62.1218 50.1223 61.5693 50.1507 61.3851 50.3492ZM66.1168 55.4395V56.5029H65.0543H63.9918V55.4395V54.3761H65.0543H66.1168V55.4395ZM66.1168 60.1186V61.1821H65.0543H63.9918V60.1186V59.0552H65.0543H66.1168V60.1186ZM66.1168 64.656V65.7194H65.0543H63.9918V64.656V63.5926H65.0543H66.1168V64.656ZM66.1168 69.3351V70.3986H65.0543H63.9918V69.3351V68.2717H65.0543H66.1168V69.3351Z" fill="black"/>
<path d="M61.3851 50.3492C61.1868 50.5477 61.1584 51.838 61.1584 62.3873C61.1584 72.9367 61.1868 74.227 61.3851 74.4255C61.5693 74.624 62.1218 74.6523 65.2809 74.6523H68.9501V62.3873V50.1223H65.2809C62.1218 50.1223 61.5693 50.1507 61.3851 50.3492ZM66.1168 55.4395V56.5029H65.0543H63.9918V55.4395V54.3761H65.0543H66.1168V55.4395ZM66.1168 60.1186V61.1821H65.0543H63.9918V60.1186V59.0552H65.0543H66.1168V60.1186ZM66.1168 64.656V65.7194H65.0543H63.9918V64.656V63.5926H65.0543H66.1168V64.656ZM66.1168 69.3351V70.3986H65.0543H63.9918V69.3351V68.2717H65.0543H66.1168V69.3351Z" fill="url(#paint1_radial_3266_3830)"/>
<path d="M91.05 64.7269V74.6523H94.7192C97.8784 74.6523 98.4309 74.624 98.615 74.4255C98.8134 74.227 98.8417 73.1493 98.8417 64.6702C98.8417 57.4529 98.7992 55.0992 98.6717 54.9716C98.5442 54.844 97.4817 54.8014 94.7759 54.8014H91.05V64.7269ZM96.0084 60.1186V61.1821H94.9459H93.8834V60.1186V59.0552H94.9459H96.0084V60.1186ZM96.0084 64.656V65.7194H94.9459H93.8834V64.656V63.5926H94.9459H96.0084V64.656ZM96.0084 69.3351V70.3986H94.9459H93.8834V69.3351V68.2717H94.9459H96.0084V69.3351Z" fill="black"/>
<path d="M91.05 64.7269V74.6523H94.7192C97.8784 74.6523 98.4309 74.624 98.615 74.4255C98.8134 74.227 98.8417 73.1493 98.8417 64.6702C98.8417 57.4529 98.7992 55.0992 98.6717 54.9716C98.5442 54.844 97.4817 54.8014 94.7759 54.8014H91.05V64.7269ZM96.0084 60.1186V61.1821H94.9459H93.8834V60.1186V59.0552H94.9459H96.0084V60.1186ZM96.0084 64.656V65.7194H94.9459H93.8834V64.656V63.5926H94.9459H96.0084V64.656ZM96.0084 69.3351V70.3986H94.9459H93.8834V69.3351V68.2717H94.9459H96.0084V69.3351Z" fill="url(#paint2_radial_3266_3830)"/>
<path d="M53.4801 57.3842C53.3526 57.4834 52.6443 58.3484 51.8934 59.3126C50.7034 60.8439 50.5334 61.1275 50.5334 61.6238C50.5334 62.3611 50.9159 62.7439 51.6668 62.7439C52.1059 62.7439 52.3326 62.6588 52.5876 62.3753L52.9276 62.0066L52.9701 68.5574L53.0126 75.1082L53.4093 75.4485C53.8909 75.8597 54.4859 75.8881 54.9818 75.491L55.3501 75.2075V68.529V61.8648L55.7609 62.3044C56.0868 62.6588 56.2851 62.7439 56.7526 62.7439C57.5176 62.7439 57.9001 62.3753 57.9001 61.6379C57.9001 61.1559 57.7159 60.8581 56.5401 59.3267C55.7893 58.3625 55.0809 57.4834 54.9534 57.3842C54.8259 57.2991 54.5001 57.214 54.2168 57.214C53.9334 57.214 53.6076 57.2991 53.4801 57.3842Z" fill="black"/>
<path d="M53.4801 57.3842C53.3526 57.4834 52.6443 58.3484 51.8934 59.3126C50.7034 60.8439 50.5334 61.1275 50.5334 61.6238C50.5334 62.3611 50.9159 62.7439 51.6668 62.7439C52.1059 62.7439 52.3326 62.6588 52.5876 62.3753L52.9276 62.0066L52.9701 68.5574L53.0126 75.1082L53.4093 75.4485C53.8909 75.8597 54.4859 75.8881 54.9818 75.491L55.3501 75.2075V68.529V61.8648L55.7609 62.3044C56.0868 62.6588 56.2851 62.7439 56.7526 62.7439C57.5176 62.7439 57.9001 62.3753 57.9001 61.6379C57.9001 61.1559 57.7159 60.8581 56.5401 59.3267C55.7893 58.3625 55.0809 57.4834 54.9534 57.3842C54.8259 57.2991 54.5001 57.214 54.2168 57.214C53.9334 57.214 53.6076 57.2991 53.4801 57.3842Z" fill="url(#paint3_radial_3266_3830)"/>
<path d="M105.047 57.3842C104.919 57.4834 104.211 58.3625 103.46 59.3267C102.284 60.8581 102.1 61.1559 102.1 61.6379C102.1 62.3611 102.483 62.7439 103.248 62.7439C103.715 62.7439 103.899 62.6588 104.239 62.2902L104.65 61.8365V68.5149V75.2075L105.018 75.491C105.514 75.8881 106.109 75.8597 106.591 75.4485L106.988 75.1082L107.03 68.5574L107.073 62.0066L107.413 62.3753C107.668 62.6588 107.894 62.7439 108.333 62.7439C109.084 62.7439 109.467 62.3611 109.467 61.6238C109.467 61.1275 109.297 60.8439 108.107 59.3126C107.356 58.3484 106.648 57.4834 106.52 57.3842C106.393 57.2991 106.067 57.214 105.783 57.214C105.5 57.214 105.174 57.2991 105.047 57.3842Z" fill="black"/>
<path d="M105.047 57.3842C104.919 57.4834 104.211 58.3625 103.46 59.3267C102.284 60.8581 102.1 61.1559 102.1 61.6379C102.1 62.3611 102.483 62.7439 103.248 62.7439C103.715 62.7439 103.899 62.6588 104.239 62.2902L104.65 61.8365V68.5149V75.2075L105.018 75.491C105.514 75.8881 106.109 75.8597 106.591 75.4485L106.988 75.1082L107.03 68.5574L107.073 62.0066L107.413 62.3753C107.668 62.6588 107.894 62.7439 108.333 62.7439C109.084 62.7439 109.467 62.3611 109.467 61.6238C109.467 61.1275 109.297 60.8439 108.107 59.3126C107.356 58.3484 106.648 57.4834 106.52 57.3842C106.393 57.2991 106.067 57.214 105.783 57.214C105.5 57.214 105.174 57.2991 105.047 57.3842Z" fill="url(#paint4_radial_3266_3830)"/>
<path d="M46.0283 82.3945L46.0708 84.7624L48.6917 85.7692C51.6383 86.9177 51.6667 86.9319 51.6667 87.2155C51.6667 87.6125 52.7008 90.6185 53.2958 91.9797C53.6358 92.7312 54.16 93.7946 54.4858 94.3334L55.0667 95.326L53.8625 98.0342C53.1967 99.523 52.6583 100.799 52.6583 100.856C52.6583 100.983 59.0758 107.407 59.2033 107.407C59.26 107.407 60.535 106.868 62.0225 106.201L64.7283 104.996L65.8475 105.634C66.4567 105.989 67.5192 106.528 68.2133 106.825C69.4742 107.378 72.4633 108.399 72.8317 108.399C73.115 108.399 73.1292 108.428 74.2767 111.377L75.2825 114H80H84.7175L85.7233 111.377C86.8708 108.428 86.885 108.399 87.1683 108.399C87.565 108.399 90.5683 107.364 91.9283 106.769C92.6792 106.428 93.7417 105.904 94.28 105.578L95.2717 104.996L97.9775 106.201C99.465 106.868 100.74 107.407 100.797 107.407C100.924 107.407 107.342 100.983 107.342 100.856C107.342 100.799 106.803 99.523 106.138 98.0342L104.933 95.326L105.571 94.2058C105.925 93.5961 106.463 92.5327 106.761 91.8379C107.313 90.5759 108.333 87.5841 108.333 87.2155C108.333 86.9319 108.348 86.9177 111.308 85.7833L113.929 84.7624L113.972 82.4087L114 80.0408H105.018H96.0367L95.9375 81.1326C95.81 82.5647 95.5267 83.9117 95.0875 85.2304C93.7558 89.2005 90.5258 92.7737 86.6442 94.5603C79.4758 97.864 70.905 95.3543 66.6125 88.6901C65.1108 86.3789 64.3175 84.0109 64.0625 81.1326L63.9633 80.0408H54.9817H46L46.0283 82.3945Z" fill="black"/>
<path d="M46.0283 82.3945L46.0708 84.7624L48.6917 85.7692C51.6383 86.9177 51.6667 86.9319 51.6667 87.2155C51.6667 87.6125 52.7008 90.6185 53.2958 91.9797C53.6358 92.7312 54.16 93.7946 54.4858 94.3334L55.0667 95.326L53.8625 98.0342C53.1967 99.523 52.6583 100.799 52.6583 100.856C52.6583 100.983 59.0758 107.407 59.2033 107.407C59.26 107.407 60.535 106.868 62.0225 106.201L64.7283 104.996L65.8475 105.634C66.4567 105.989 67.5192 106.528 68.2133 106.825C69.4742 107.378 72.4633 108.399 72.8317 108.399C73.115 108.399 73.1292 108.428 74.2767 111.377L75.2825 114H80H84.7175L85.7233 111.377C86.8708 108.428 86.885 108.399 87.1683 108.399C87.565 108.399 90.5683 107.364 91.9283 106.769C92.6792 106.428 93.7417 105.904 94.28 105.578L95.2717 104.996L97.9775 106.201C99.465 106.868 100.74 107.407 100.797 107.407C100.924 107.407 107.342 100.983 107.342 100.856C107.342 100.799 106.803 99.523 106.138 98.0342L104.933 95.326L105.571 94.2058C105.925 93.5961 106.463 92.5327 106.761 91.8379C107.313 90.5759 108.333 87.5841 108.333 87.2155C108.333 86.9319 108.348 86.9177 111.308 85.7833L113.929 84.7624L113.972 82.4087L114 80.0408H105.018H96.0367L95.9375 81.1326C95.81 82.5647 95.5267 83.9117 95.0875 85.2304C93.7558 89.2005 90.5258 92.7737 86.6442 94.5603C79.4758 97.864 70.905 95.3543 66.6125 88.6901C65.1108 86.3789 64.3175 84.0109 64.0625 81.1326L63.9633 80.0408H54.9817H46L46.0283 82.3945Z" fill="url(#paint5_radial_3266_3830)"/>
<path d="M69.5874 80.992C69.8849 83.7995 71.2308 86.3518 73.3274 88.11C74.3333 88.9466 76.1466 89.8682 77.4499 90.2085C78.6966 90.5347 81.3033 90.5347 82.5499 90.2085C86.8283 89.0884 89.9449 85.4443 90.4124 80.992L90.5116 80.042H79.9999H69.4883L69.5874 80.992Z" fill="black"/>
<path d="M69.5874 80.992C69.8849 83.7995 71.2308 86.3518 73.3274 88.11C74.3333 88.9466 76.1466 89.8682 77.4499 90.2085C78.6966 90.5347 81.3033 90.5347 82.5499 90.2085C86.8283 89.0884 89.9449 85.4443 90.4124 80.992L90.5116 80.042H79.9999H69.4883L69.5874 80.992Z" fill="url(#paint6_radial_3266_3830)"/>
</g>
<defs>
<filter id="filter0_d_3266_3830" x="-7.12671" y="7.29297" width="145.078" height="152.004" filterUnits="userSpaceOnUse" color-interpolation-filters="sRGB">
<feFlood flood-opacity="0" result="BackgroundImageFix"/>
<feColorMatrix in="SourceAlpha" type="matrix" values="0 0 0 0 0 0 0 0 0 0 0 0 0 0 0 0 0 0 127 0" result="hardAlpha"/>
<feOffset dx="-5" dy="5"/>
<feGaussianBlur stdDeviation="4"/>
<feComposite in2="hardAlpha" operator="out"/>
<feColorMatrix type="matrix" values="0 0 0 0 0 0 0 0 0 0 0 0 0 0 0 0 0 0 0.25 0"/>
<feBlend mode="normal" in2="BackgroundImageFix" result="effect1_dropShadow_3266_3830"/>
<feBlend mode="normal" in="SourceGraphic" in2="effect1_dropShadow_3266_3830" result="shape"/>
</filter>
<radialGradient id="paint0_radial_3266_3830" cx="0" cy="0" r="1" gradientUnits="userSpaceOnUse" gradientTransform="translate(74.546 68.9221) rotate(-48.1) scale(41.2834 43.8101)">
<stop stop-color="#00862D"/>
<stop offset="0.627261" stop-color="#0033CC"/>
</radialGradient>
<radialGradient id="paint1_radial_3266_3830" cx="0" cy="0" r="1" gradientUnits="userSpaceOnUse" gradientTransform="translate(62.6736 69.7466) rotate(-65.4169) scale(28.9287 23.364)">
<stop stop-color="#00862D"/>
<stop offset="0.627261" stop-color="#0033CC"/>
</radialGradient>
<radialGradient id="paint2_radial_3266_3830" cx="0" cy="0" r="1" gradientUnits="userSpaceOnUse" gradientTransform="translate(92.5652 70.6824) rotate(-60.5199) scale(24.4548 22.3663)">
<stop stop-color="#00862D"/>
<stop offset="0.627261" stop-color="#0033CC"/>
</radialGradient>
<radialGradient id="paint3_radial_3266_3830" cx="0" cy="0" r="1" gradientUnits="userSpaceOnUse" gradientTransform="translate(51.966 72.0618) rotate(-60.2446) scale(22.9263 21.0886)">
<stop stop-color="#00862D"/>
<stop offset="0.627261" stop-color="#0033CC"/>
</radialGradient>
<radialGradient id="paint4_radial_3266_3830" cx="0" cy="0" r="1" gradientUnits="userSpaceOnUse" gradientTransform="translate(103.533 72.0618) rotate(-60.2446) scale(22.9263 21.0886)">
<stop stop-color="#00862D"/>
<stop offset="0.627261" stop-color="#0033CC"/>
</radialGradient>
<radialGradient id="paint5_radial_3266_3830" cx="0" cy="0" r="1" gradientUnits="userSpaceOnUse" gradientTransform="translate(59.2232 107.209) rotate(-19.1237) scale(111.165 73.459)">
<stop stop-color="#00862D"/>
<stop offset="0.627261" stop-color="#0033CC"/>
</radialGradient>
<radialGradient id="paint6_radial_3266_3830" cx="0" cy="0" r="1" gradientUnits="userSpaceOnUse" gradientTransform="translate(73.5765 88.371) rotate(-18.9749) scale(34.3377 22.541)">
<stop stop-color="#00862D"/>
<stop offset="0.627261" stop-color="#0033CC"/>
</radialGradient>
<clipPath id="clip0_3266_3830">
<rect width="160" height="160" fill="white"/>
</clipPath>
</defs>
</svg>
