<svg width="160" height="160" viewBox="0 0 160 160" fill="none" xmlns="http://www.w3.org/2000/svg">
<g clip-path="url(#clip0_3266_3755)">
<g filter="url(#filter0_d_3266_3755)">
<path d="M81.0962 15.7562C100.014 2.51003 126.177 14.71 128.189 37.7161L134.831 113.636C136.844 136.642 113.197 153.2 92.2671 143.44L23.1971 111.232C2.26686 101.472 -0.24911 72.7148 18.6684 59.4686L81.0962 15.7562Z" fill="white"/>
</g>
<path d="M56.694 46.2616C53.4681 47.1512 51.2917 49.727 51.2917 52.6348C51.2917 56.3259 54.7338 59.2734 59.0556 59.2734C63.3774 59.2734 66.7731 56.3524 66.7731 52.6348C66.7731 50.7759 66.0322 49.2225 64.5042 47.908C63.5163 47.0583 62.7754 46.6599 61.34 46.2483C60.2287 45.9164 57.898 45.9164 56.694 46.2616Z" fill="black"/>
<path d="M56.694 46.2616C53.4681 47.1512 51.2917 49.727 51.2917 52.6348C51.2917 56.3259 54.7338 59.2734 59.0556 59.2734C63.3774 59.2734 66.7731 56.3524 66.7731 52.6348C66.7731 50.7759 66.0322 49.2225 64.5042 47.908C63.5163 47.0583 62.7754 46.6599 61.34 46.2483C60.2287 45.9164 57.898 45.9164 56.694 46.2616Z" fill="url(#paint0_radial_3266_3755)"/>
<path d="M98.6004 46.2454C97.2267 46.6703 96.4704 47.0819 95.498 47.9051C93.9699 49.2195 93.229 50.773 93.229 52.6318C93.229 54.9288 94.4792 56.9469 96.7173 58.2083C99.7426 59.9078 103.879 59.5493 106.411 57.3585C110.578 53.7737 108.772 47.613 103.123 46.2056C101.95 45.9134 99.6191 45.94 98.6004 46.2454Z" fill="black"/>
<path d="M98.6004 46.2454C97.2267 46.6703 96.4704 47.0819 95.498 47.9051C93.9699 49.2195 93.229 50.773 93.229 52.6318C93.229 54.9288 94.4792 56.9469 96.7173 58.2083C99.7426 59.9078 103.879 59.5493 106.411 57.3585C110.578 53.7737 108.772 47.613 103.123 46.2056C101.95 45.9134 99.6191 45.94 98.6004 46.2454Z" fill="url(#paint1_radial_3266_3755)"/>
<path d="M56.2465 60.6134C54.5332 60.9055 52.6964 62.0341 51.8629 63.322C50.9214 64.7693 50.9831 62.9635 51.014 88.4163L51.0603 111.652L51.3998 112.183C52.7118 114.281 56.3391 114.626 58.0832 112.807C59.0402 111.811 59.0093 112.156 59.0093 100.738V90.3415H60.2441H61.4789V100.844V111.333L61.0931 112.329C60.877 112.873 60.7072 113.338 60.7072 113.364C60.7072 113.391 61.0468 113.537 61.4635 113.696C63.4546 114.427 65.6464 113.803 66.6651 112.223L67.1128 111.519L67.1591 94.3778L67.1899 77.2367L65.384 76.1214C63.609 75.0327 63.4855 74.9132 60.1824 71.4876C57.4195 68.6064 57.0336 68.155 58.0215 68.9782C58.7006 69.5358 60.4602 70.9963 61.9574 72.2311L64.674 74.475L70.1998 77.1305C73.2405 78.591 75.8181 79.8125 75.957 79.8391C76.1268 79.8656 76.096 79.7727 75.849 79.4806C74.9692 78.4051 74.784 76.5861 75.4477 75.3513C75.6638 74.9663 76.0497 74.4086 76.3121 74.1298L76.7751 73.6253L76.4201 73.4394C76.2194 73.3332 74.4753 72.4834 72.515 71.554C68.6408 69.7084 68.9804 69.9342 64.4116 66.1235C62.5748 64.5834 61.9111 63.9726 62.5594 64.3975C63.1151 64.7693 64.3499 65.5792 65.2914 66.2165C66.2484 66.8538 67.0819 67.3716 67.1282 67.3716C67.298 67.3716 67.0664 65.0879 66.8195 64.4108C66.1403 62.5387 64.072 60.9719 61.8031 60.6002C60.8152 60.4408 57.2189 60.4541 56.2465 60.6134Z" fill="black"/>
<path d="M56.2465 60.6134C54.5332 60.9055 52.6964 62.0341 51.8629 63.322C50.9214 64.7693 50.9831 62.9635 51.014 88.4163L51.0603 111.652L51.3998 112.183C52.7118 114.281 56.3391 114.626 58.0832 112.807C59.0402 111.811 59.0093 112.156 59.0093 100.738V90.3415H60.2441H61.4789V100.844V111.333L61.0931 112.329C60.877 112.873 60.7072 113.338 60.7072 113.364C60.7072 113.391 61.0468 113.537 61.4635 113.696C63.4546 114.427 65.6464 113.803 66.6651 112.223L67.1128 111.519L67.1591 94.3778L67.1899 77.2367L65.384 76.1214C63.609 75.0327 63.4855 74.9132 60.1824 71.4876C57.4195 68.6064 57.0336 68.155 58.0215 68.9782C58.7006 69.5358 60.4602 70.9963 61.9574 72.2311L64.674 74.475L70.1998 77.1305C73.2405 78.591 75.8181 79.8125 75.957 79.8391C76.1268 79.8656 76.096 79.7727 75.849 79.4806C74.9692 78.4051 74.784 76.5861 75.4477 75.3513C75.6638 74.9663 76.0497 74.4086 76.3121 74.1298L76.7751 73.6253L76.4201 73.4394C76.2194 73.3332 74.4753 72.4834 72.515 71.554C68.6408 69.7084 68.9804 69.9342 64.4116 66.1235C62.5748 64.5834 61.9111 63.9726 62.5594 64.3975C63.1151 64.7693 64.3499 65.5792 65.2914 66.2165C66.2484 66.8538 67.0819 67.3716 67.1282 67.3716C67.298 67.3716 67.0664 65.0879 66.8195 64.4108C66.1403 62.5387 64.072 60.9719 61.8031 60.6002C60.8152 60.4408 57.2189 60.4541 56.2465 60.6134Z" fill="url(#paint2_radial_3266_3755)"/>
<path d="M98.0601 60.6134C95.9301 60.9719 93.8309 62.6183 93.1981 64.4108C92.9357 65.1676 92.7196 66.7077 92.8894 66.7077C92.9511 66.7077 94.5718 65.7518 96.4858 64.5834C98.4151 63.4017 99.7426 62.6449 99.4493 62.8706C99.156 63.1096 96.9334 64.8622 94.5255 66.7609L90.1574 70.2263L84.3384 72.3639C81.1279 73.5323 78.3341 74.6078 78.118 74.7538C76.6054 75.7231 76.3893 77.6616 77.6241 78.9097C78.473 79.7461 79.7696 80.1179 80.9426 79.8523C81.5755 79.7063 92.5807 75.7231 93.584 75.2717C93.8618 75.1522 96.2079 73.373 98.8165 71.315C101.41 69.2703 103.74 67.438 103.987 67.2521C104.234 67.0662 102.367 69.0047 99.8506 71.5673C97.3347 74.1431 95.1275 76.3206 94.9268 76.4268C94.7416 76.533 94.1859 76.7587 93.692 76.9313L92.8122 77.25L92.8431 94.3778L92.8894 111.519L93.337 112.223C94.3557 113.803 96.5475 114.427 98.5386 113.696C98.9554 113.537 99.2949 113.391 99.2949 113.364C99.2949 113.338 99.1252 112.873 98.9091 112.329L98.5232 111.333V100.844V90.3415H99.758H100.993V100.738C100.993 109.726 101.024 111.227 101.224 111.731C102.336 114.506 106.966 114.798 108.602 112.183L108.942 111.652L108.988 88.4163C109.019 67.3849 109.004 65.1277 108.772 64.5435C107.969 62.459 106.056 60.9985 103.632 60.6002C102.644 60.4408 99.048 60.4541 98.0601 60.6134Z" fill="black"/>
<path d="M98.0601 60.6134C95.9301 60.9719 93.8309 62.6183 93.1981 64.4108C92.9357 65.1676 92.7196 66.7077 92.8894 66.7077C92.9511 66.7077 94.5718 65.7518 96.4858 64.5834C98.4151 63.4017 99.7426 62.6449 99.4493 62.8706C99.156 63.1096 96.9334 64.8622 94.5255 66.7609L90.1574 70.2263L84.3384 72.3639C81.1279 73.5323 78.3341 74.6078 78.118 74.7538C76.6054 75.7231 76.3893 77.6616 77.6241 78.9097C78.473 79.7461 79.7696 80.1179 80.9426 79.8523C81.5755 79.7063 92.5807 75.7231 93.584 75.2717C93.8618 75.1522 96.2079 73.373 98.8165 71.315C101.41 69.2703 103.74 67.438 103.987 67.2521C104.234 67.0662 102.367 69.0047 99.8506 71.5673C97.3347 74.1431 95.1275 76.3206 94.9268 76.4268C94.7416 76.533 94.1859 76.7587 93.692 76.9313L92.8122 77.25L92.8431 94.3778L92.8894 111.519L93.337 112.223C94.3557 113.803 96.5475 114.427 98.5386 113.696C98.9554 113.537 99.2949 113.391 99.2949 113.364C99.2949 113.338 99.1252 112.873 98.9091 112.329L98.5232 111.333V100.844V90.3415H99.758H100.993V100.738C100.993 109.726 101.024 111.227 101.224 111.731C102.336 114.506 106.966 114.798 108.602 112.183L108.942 111.652L108.988 88.4163C109.019 67.3849 109.004 65.1277 108.772 64.5435C107.969 62.459 106.056 60.9985 103.632 60.6002C102.644 60.4408 99.048 60.4541 98.0601 60.6134Z" fill="url(#paint3_radial_3266_3755)"/>
</g>
<defs>
<filter id="filter0_d_3266_3755" x="-7.12671" y="7.29297" width="145.078" height="152.004" filterUnits="userSpaceOnUse" color-interpolation-filters="sRGB">
<feFlood flood-opacity="0" result="BackgroundImageFix"/>
<feColorMatrix in="SourceAlpha" type="matrix" values="0 0 0 0 0 0 0 0 0 0 0 0 0 0 0 0 0 0 127 0" result="hardAlpha"/>
<feOffset dx="-5" dy="5"/>
<feGaussianBlur stdDeviation="4"/>
<feComposite in2="hardAlpha" operator="out"/>
<feColorMatrix type="matrix" values="0 0 0 0 0 0 0 0 0 0 0 0 0 0 0 0 0 0 0.25 0"/>
<feBlend mode="normal" in2="BackgroundImageFix" result="effect1_dropShadow_3266_3755"/>
<feBlend mode="normal" in="SourceGraphic" in2="effect1_dropShadow_3266_3755" result="shape"/>
</filter>
<radialGradient id="paint0_radial_3266_3755" cx="0" cy="0" r="1" gradientUnits="userSpaceOnUse" gradientTransform="translate(54.3022 56.6191) rotate(-30.7633) scale(27.8276 26.1114)">
<stop stop-color="#00862D"/>
<stop offset="0.627261" stop-color="#0033CC"/>
</radialGradient>
<radialGradient id="paint1_radial_3266_3755" cx="0" cy="0" r="1" gradientUnits="userSpaceOnUse" gradientTransform="translate(96.2358 56.6222) rotate(-30.8023) scale(27.8046 26.1091)">
<stop stop-color="#00862D"/>
<stop offset="0.627261" stop-color="#0033CC"/>
</radialGradient>
<radialGradient id="paint2_radial_3266_3755" cx="0" cy="0" r="1" gradientUnits="userSpaceOnUse" gradientTransform="translate(56.0122 103.298) rotate(-55.2503) scale(69.8453 69.8343)">
<stop stop-color="#00862D"/>
<stop offset="0.627261" stop-color="#0033CC"/>
</radialGradient>
<radialGradient id="paint3_radial_3266_3755" cx="0" cy="0" r="1" gradientUnits="userSpaceOnUse" gradientTransform="translate(83.0806 103.298) rotate(-49.1073) scale(75.9169 80.2057)">
<stop stop-color="#00862D"/>
<stop offset="0.627261" stop-color="#0033CC"/>
</radialGradient>
<clipPath id="clip0_3266_3755">
<rect width="160" height="160" fill="white"/>
</clipPath>
</defs>
</svg>
