<svg width="125" height="125" viewBox="0 0 125 125" fill="none" xmlns="http://www.w3.org/2000/svg">
<path d="M91.7363 90.4513C76.2579 106.491 50.7167 106.938 34.6884 91.4478C18.6601 75.958 18.2143 50.3979 33.6927 34.3577C49.171 18.3175 74.7122 17.8714 90.7405 33.3612C106.769 48.851 107.215 74.4111 91.7363 90.4513Z" stroke="#40A865" stroke-width="0.797468"/>
<path d="M52.2652 116.236L51.67 121.195L49.683 120.956L51.1345 108.861L53.1216 109.1L52.4933 114.335L57.677 114.958L58.3053 109.723L60.2924 109.961L58.8408 122.057L56.8537 121.818L57.4489 116.859L52.2652 116.236Z" fill="#00862D"/>
<path d="M40.0605 112.679L39.6308 113.837L37.8689 113.183L40.8945 105.024L42.6565 105.679L42.2208 106.853C43.2272 106.175 44.3503 106.066 45.5902 106.527C46.7105 106.943 47.5143 107.712 48.0016 108.833C48.489 109.955 48.5088 111.12 48.061 112.327C47.6132 113.535 46.839 114.404 45.7385 114.936C44.6379 115.468 43.5275 115.526 42.4072 115.11C41.1673 114.649 40.3851 113.839 40.0605 112.679ZM46.2608 109.523C45.9529 108.852 45.4292 108.379 44.6896 108.105C43.95 107.83 43.2447 107.846 42.5737 108.154C41.8987 108.473 41.422 109.007 41.1437 109.758C40.8653 110.509 40.8801 111.219 41.188 111.891C41.4918 112.573 42.0136 113.051 42.7532 113.326C43.4927 113.601 44.2 113.579 44.875 113.26C45.546 112.952 46.0207 112.423 46.299 111.673C46.5734 110.933 46.5606 110.217 46.2608 109.523Z" fill="#00862D"/>
<path d="M37.3596 102.687L38.9801 103.639L32.5515 114.597L30.931 113.645L37.3596 102.687Z" fill="#00862D"/>
<path d="M24.1743 101.899L23.3726 102.839L21.9433 101.618L27.589 94.9968L29.0184 96.2173L28.2054 97.1708C29.3835 96.88 30.4754 97.164 31.4813 98.0229C32.3901 98.7989 32.8804 99.7974 32.9524 101.018C33.0244 102.239 32.6426 103.34 31.8071 104.32C30.9715 105.3 29.9456 105.85 28.7294 105.971C27.5132 106.092 26.4507 105.765 25.5419 104.989C24.5361 104.13 24.0802 103.1 24.1743 101.899ZM31.0807 101.068C31.0224 100.331 30.6932 99.7071 30.0933 99.1948C29.4933 98.6825 28.8254 98.4554 28.0896 98.5137C27.3463 98.5808 26.7149 98.9189 26.1955 99.5281C25.6761 100.137 25.4456 100.81 25.5039 101.546C25.5546 102.291 25.88 102.92 26.48 103.433C27.08 103.945 27.7516 104.167 28.4949 104.1C29.2307 104.042 29.8583 103.708 30.3777 103.099C30.8896 102.499 31.1239 101.822 31.0807 101.068Z" fill="#00862D"/>
<path d="M25.0722 91.585L26.2665 93.0364L16.4623 101.116L15.268 99.6646L25.0722 91.585Z" fill="#00862D"/>
<path d="M19.7404 82.9246L8.67417 88.0185L7.83833 86.2L18.9045 81.1061L19.7404 82.9246Z" fill="#00862D"/>
<path d="M7.62304 75.2289C7.36801 74.2522 7.47857 73.3898 7.95472 72.6417C8.41672 71.8853 9.18089 71.3677 10.2472 71.0888L15.4162 69.737L15.8911 71.5556L10.9073 72.8589C10.2787 73.0233 9.84005 73.3179 9.59125 73.7428C9.34245 74.1676 9.29427 74.6719 9.4467 75.2556C9.61965 75.9179 9.96362 76.3856 10.4786 76.6587C10.9824 76.9347 11.6327 76.9685 12.4297 76.7601L16.942 75.58L17.4169 77.3986L8.99835 79.6002L8.52347 77.7816L9.60104 77.4998C8.59017 77.1646 7.93083 76.4076 7.62304 75.2289Z" fill="#00862D"/>
<path d="M13.0323 63.8166L6.32402 61.6756L6.23847 59.6238L15.0739 62.6514L15.1646 64.8249L6.61186 68.5787L6.52631 66.5269L13.0323 63.8166Z" fill="#00862D"/>
<path d="M13.2265 48.4487L12.0405 55.273C12.7044 55.2472 13.2553 55.0251 13.6931 54.6067C14.1328 54.1768 14.4153 53.6018 14.5405 52.8817C14.7093 51.9101 14.4831 51.1111 13.8618 50.4848L15.0186 49.1139C16.1195 50.1652 16.5249 51.5254 16.2349 53.1943C15.9945 54.5774 15.3759 55.6297 14.3791 56.3513C13.3728 57.0594 12.2181 57.3 10.9151 57.0732C9.64631 56.8524 8.65107 56.2434 7.92937 55.2463C7.20569 54.2607 6.96006 53.0992 7.19249 51.7617C7.40903 50.5158 8.0279 49.5636 9.04908 48.9052C10.0703 48.2468 11.2095 48.027 12.4669 48.2459C12.6955 48.2856 12.9487 48.3533 13.2265 48.4487ZM10.5287 55.0275L11.4048 49.9865C10.7086 49.9948 10.1388 50.1901 9.69557 50.5722C9.2543 50.9429 8.97904 51.4426 8.86978 52.0713C8.75058 52.7572 8.83985 53.3616 9.13759 53.8845C9.43533 54.4073 9.89904 54.7884 10.5287 55.0275Z" fill="#00862D"/>
<path d="M12.3438 43.2704C12.5921 43.3683 12.8482 43.3195 13.112 43.1242C13.3651 42.9246 13.6595 42.6042 13.9953 42.1629C14.2303 41.819 14.4516 41.5259 14.6592 41.2835C14.8668 41.041 15.1294 40.8015 15.4469 40.565C15.7536 40.3242 16.0953 40.1845 16.4721 40.146C16.8423 40.0923 17.2304 40.1517 17.6363 40.3242C18.4135 40.6304 18.9044 41.1731 19.1091 41.9521C19.3138 42.7311 19.2398 43.5686 18.8872 44.4647C18.5728 45.2637 18.1357 45.8833 17.5759 46.3237C17.0162 46.764 16.3884 46.9968 15.6928 47.0219L15.4111 45.1713C16.2945 45.2076 16.9189 44.7616 17.2842 43.8331C17.6453 42.9154 17.5236 42.3374 16.9192 42.0992C16.4766 41.9248 15.9294 42.3015 15.2775 43.2293C15.0274 43.5797 14.8007 43.8707 14.5974 44.1024C14.3982 44.3232 14.1432 44.5594 13.8323 44.811C13.5256 45.0518 13.1871 45.199 12.8169 45.2526C12.4509 45.2954 12.0704 45.2328 11.6752 45.0646C10.9304 44.7711 10.4418 44.2543 10.2093 43.5142C9.98115 42.7634 10.0327 41.9669 10.3641 41.1247C10.6275 40.4554 11.0123 39.9211 11.5184 39.522C12.018 39.1078 12.5875 38.8646 13.2269 38.7923L13.4728 40.5914C12.7513 40.6189 12.244 41.0051 11.9509 41.75C11.8149 42.0955 11.7779 42.4114 11.8398 42.6977C11.906 42.9732 12.074 43.1641 12.3438 43.2704Z" fill="#00862D"/>
<path d="M16.3606 30.3738L17.9027 31.3213L16.7742 33.1607L20.3329 35.3473C20.6393 35.5356 20.9042 35.6031 21.1276 35.5497C21.341 35.4902 21.5395 35.333 21.7231 35.0781C21.9029 34.8073 22.1073 34.4631 22.3363 34.0455L23.7746 34.9292C23.1705 36.2466 22.5267 37.063 21.8432 37.3783C21.1498 37.6876 20.3187 37.5447 19.35 36.9494L15.7913 34.7628L14.954 36.1275L13.4119 35.18L14.2492 33.8152L12.6478 32.8313L13.1562 30.9377L15.2321 32.2132L16.3606 30.3738Z" fill="#00862D"/>
<path d="M25.6739 19.5762C26.3679 18.8756 27.1537 18.5356 28.0313 18.5564C28.9089 18.5772 29.7307 18.9675 30.4968 19.7274L34.327 23.5269L33.0043 24.8622L29.2606 21.1486C28.8405 20.7318 28.4049 20.5122 27.9537 20.4895C27.5026 20.4669 27.0933 20.641 26.7258 21.012C26.3094 21.4324 26.1229 21.901 26.1662 22.4178C26.2012 22.9265 26.4864 23.4464 27.0218 23.9775L30.4814 27.4093L29.1587 28.7447L25.415 25.031C24.9866 24.6061 24.5551 24.3823 24.1203 24.3596C23.6855 24.3205 23.2844 24.4864 22.917 24.8573C22.5087 25.2695 22.3181 25.7422 22.345 26.2756C22.3801 26.8007 22.6613 27.3247 23.1885 27.8476L26.648 31.2794L25.3253 32.6148L19.1476 26.4866L20.4703 25.1512L21.2116 25.8866C21.0022 24.8945 21.2853 24.0069 22.061 23.2238C22.8448 22.4325 23.7499 22.17 24.7762 22.4363C24.5255 21.3869 24.8248 20.4335 25.6739 19.5762Z" fill="#00862D"/>
<path d="M41.264 15.8086L35.2959 19.3241C35.7453 19.8135 36.2711 20.0895 36.8733 20.1522C37.4855 20.209 38.1065 20.0519 38.7363 19.6809C39.586 19.1804 40.0485 18.4906 40.1236 17.6114L41.917 17.6053C41.8284 19.1253 41.0543 20.3151 39.5948 21.1749C38.3852 21.8874 37.1829 22.0974 35.9878 21.8049C34.7969 21.4965 33.8662 20.7723 33.1956 19.6322C32.5427 18.5222 32.3626 17.3692 32.6553 16.1734C32.938 14.9835 33.6642 14.0441 34.8338 13.3551C35.9234 12.7132 37.0496 12.5683 38.2123 12.9202C39.375 13.2722 40.2799 13.9982 40.9269 15.0982C41.0445 15.2982 41.1569 15.535 41.264 15.8086ZM34.5045 18.0129L38.913 15.416C38.456 14.8907 37.9385 14.5829 37.3604 14.4926C36.7922 14.3963 36.2333 14.5101 35.6835 14.834C35.0837 15.1873 34.6809 15.6468 34.4751 16.2123C34.2694 16.7779 34.2792 17.3781 34.5045 18.0129Z" fill="#00862D"/>
<path d="M46.6224 8.3635C47.5828 8.05284 48.4498 8.11381 49.2235 8.5464C50.0047 8.96439 50.5647 9.69781 50.9035 10.7467L52.5456 15.8309L50.7573 16.4093L49.174 11.5073C48.9743 10.889 48.6554 10.4678 48.2172 10.2437C47.7791 10.0196 47.273 10.0004 46.699 10.1861C46.0477 10.3968 45.6003 10.7671 45.3569 11.297C45.11 11.8159 45.1131 12.4672 45.3663 13.2511L46.7998 17.6894L45.0115 18.2679L42.337 9.98746L44.1253 9.40899L44.4676 10.4689C44.745 9.44022 45.4633 8.73843 46.6224 8.3635Z" fill="#00862D"/>
<path d="M58.9023 6.35206L59.12 8.14886L56.9777 8.40881L57.4801 12.5553C57.5233 12.9123 57.6354 13.1617 57.8161 13.3034C57.9955 13.4336 58.2421 13.4913 58.5559 13.4766C58.8798 13.449 59.2764 13.395 59.7459 13.3147L59.9489 14.9905C58.5417 15.3366 57.5019 15.3401 56.8297 15.0009C56.1561 14.6502 55.751 13.9105 55.6142 12.7817L55.1118 8.63522L53.5224 8.82809L53.3046 7.03128L54.8941 6.83842L54.668 4.97251L56.4669 4.19323L56.76 6.61201L58.9023 6.35206Z" fill="#00862D"/>
<path d="M77.3272 9.49012L77.5827 8.28119L79.4215 8.67037L77.6223 17.184L75.7835 16.7948L76.0425 15.5688C75.1462 16.3872 74.0511 16.6594 72.7571 16.3855C71.588 16.1381 70.6803 15.4953 70.034 14.4573C69.3877 13.4192 69.1977 12.2701 69.464 11.0101C69.7303 9.75009 70.3689 8.77641 71.3798 8.08907C72.3907 7.40173 73.4807 7.18178 74.6499 7.42922C75.9439 7.70309 76.8363 8.39005 77.3272 9.49012ZM71.6552 13.5196C72.058 14.1385 72.6453 14.5296 73.4172 14.693C74.189 14.8564 74.8843 14.7367 75.5031 14.334C76.1242 13.9199 76.5175 13.3213 76.6831 12.538C76.8486 11.7547 76.7299 11.0537 76.3271 10.4347C75.9267 9.80446 75.3405 9.40764 74.5687 9.24428C73.7968 9.08092 73.1003 9.20627 72.4792 9.62034C71.8605 10.023 71.4683 10.616 71.3028 11.3993C71.1397 12.1712 71.2571 12.8779 71.6552 13.5196Z" fill="#00862D"/>
<path d="M87.5183 11.952C88.4343 12.3761 89.0297 13.0097 89.3046 13.853C89.5949 14.6905 89.5087 15.6095 89.0462 16.61L86.8044 21.4597L85.0987 20.6701L87.2603 15.9942C87.5329 15.4044 87.5843 14.8784 87.4145 14.4163C87.2447 13.9541 86.886 13.5963 86.3385 13.3428C85.7174 13.0552 85.1377 13.0234 84.5996 13.2474C84.0664 13.4608 83.6269 13.9413 83.2813 14.6891L81.3242 18.9227L79.6186 18.1331L83.2698 10.2345L84.9755 11.0241L84.5081 12.0351C85.4094 11.4679 86.4128 11.4402 87.5183 11.952Z" fill="#00862D"/>
<path d="M98.8586 21.2133L101.742 17.4811L103.229 18.6313L95.7805 28.2716L94.294 27.1214L95.0601 26.1298C93.8974 26.4771 92.793 26.2461 91.7469 25.4367C90.8018 24.7054 90.2638 23.7317 90.1331 22.5156C90.0023 21.2996 90.3306 20.182 91.118 19.1629C91.9053 18.1437 92.9035 17.5444 94.1124 17.365C95.3214 17.1855 96.3984 17.4614 97.3436 18.1927C98.3897 19.0021 98.8947 20.0089 98.8586 21.2133ZM92.0003 22.3761C92.094 23.1087 92.4529 23.7164 93.0768 24.1992C93.7008 24.682 94.3789 24.8766 95.111 24.7829C95.8502 24.6801 96.4646 24.3119 96.954 23.6784C97.4434 23.0449 97.6413 22.3618 97.5476 21.6292C97.4609 20.8874 97.1056 20.275 96.4817 19.7922C95.8577 19.3094 95.1761 19.1195 94.4369 19.2223C93.7047 19.316 93.0939 19.6795 92.6045 20.313C92.1221 20.9374 91.9207 21.625 92.0003 22.3761Z" fill="#00862D"/>
<path d="M110.982 27.6564L115.706 35.1704L114.086 36.1904L112.261 33.288L103.572 38.7591L102.507 37.0648L111.196 31.5937L109.362 28.6765L110.982 27.6564Z" fill="#00862D"/>
<path d="M114.739 42.0593L113.382 42.6027C114.561 42.6433 115.393 43.2723 115.88 44.4896L113.99 45.2466C113.77 44.5722 113.376 44.0551 112.807 43.6954C112.253 43.3422 111.562 43.3316 110.733 43.6637L106.661 45.294L105.964 43.5488L114.042 40.3141L114.739 42.0593Z" fill="#00862D"/>
<path d="M117.031 55.6637L118.244 55.4318L118.597 57.2781L110.05 58.9111L109.697 57.0649L110.928 56.8297C109.827 56.3196 109.152 55.4149 108.904 54.1157C108.68 52.9419 108.922 51.8562 109.63 50.8588C110.337 49.8613 111.323 49.2418 112.588 49.0001C113.853 48.7584 114.998 48.9708 116.023 49.6373C117.048 50.3037 117.672 51.2239 117.896 52.3978C118.144 53.697 117.855 54.7856 117.031 55.6637ZM111.121 51.9912C110.706 52.6021 110.573 53.295 110.721 54.0699C110.868 54.8449 111.248 55.4398 111.858 55.8547C112.48 56.2674 113.185 56.3986 113.971 56.2484C114.757 56.0981 115.358 55.7176 115.773 55.1068C116.199 54.4937 116.338 53.7998 116.191 53.0248C116.043 52.2498 115.658 51.656 115.036 51.2433C114.425 50.8284 113.727 50.6961 112.94 50.8463C112.165 50.9944 111.559 51.376 111.121 51.9912Z" fill="#00862D"/>
<path d="M117.14 68.3056L121.852 68.5024L121.774 70.3803L109.602 69.872L109.68 67.9941L110.932 68.0464C109.976 67.2981 109.526 66.2632 109.581 64.9417C109.631 63.7477 110.114 62.746 111.03 61.9366C111.946 61.1271 113.048 60.7493 114.335 60.803C115.621 60.8567 116.688 61.3251 117.533 62.2081C118.379 63.0911 118.777 64.1297 118.727 65.3236C118.672 66.6451 118.143 67.6391 117.14 68.3056ZM112.224 63.3799C111.681 63.8798 111.393 64.5238 111.36 65.3121C111.327 66.1004 111.56 66.7662 112.06 67.3096C112.572 67.8536 113.227 68.1422 114.027 68.1756C114.827 68.209 115.499 67.9758 116.042 67.4759C116.597 66.9765 116.891 66.3327 116.924 65.5445C116.957 64.7562 116.718 64.0901 116.206 63.5462C115.706 63.0028 115.056 62.7143 114.256 62.6809C113.468 62.648 112.791 62.881 112.224 63.3799Z" fill="#00862D"/>
<path d="M110.212 81.0493L112.036 74.3671C111.372 74.3301 110.803 74.4993 110.328 74.8746C109.85 75.2611 109.514 75.8069 109.322 76.5121C109.062 77.4635 109.212 78.2802 109.772 78.9623L108.491 80.2181C107.494 79.0676 107.218 77.6753 107.664 76.0411C108.034 74.6867 108.749 73.6974 109.809 73.0731C110.878 72.463 112.05 72.3323 113.326 72.6809C114.568 73.0204 115.501 73.7205 116.126 74.7813C116.754 75.8308 116.889 77.0103 116.531 78.3199C116.198 79.54 115.493 80.4296 114.414 80.9888C113.335 81.548 112.181 81.6594 110.949 81.3229C110.726 81.2617 110.48 81.1705 110.212 81.0493ZM113.518 74.754L112.171 79.6901C112.865 79.7475 113.45 79.6068 113.927 79.2681C114.402 78.9407 114.723 78.4691 114.891 77.8535C115.074 77.182 115.042 76.5718 114.795 76.0232C114.548 75.4745 114.122 75.0515 113.518 74.754Z" fill="#00862D"/>
<path d="M98.5758 93.5453L103.183 86.9774L104.465 87.8778L105.572 93.8453C105.824 95.2843 106.258 96.2205 106.875 96.654C107.35 96.9875 107.825 97.1085 108.3 97.017C108.775 96.9255 109.173 96.6518 109.493 96.1959C110.079 95.3601 110.099 94.4526 109.553 93.4734L111.335 92.6617C111.776 93.4258 111.968 94.2129 111.91 95.0229C111.862 95.8396 111.591 96.5993 111.098 97.3022C110.478 98.1855 109.676 98.7424 108.693 98.9729C107.693 99.2063 106.723 98.9928 105.783 98.3325C104.777 97.6255 104.091 96.3 103.726 94.356L103.055 90.5242L100.156 94.6558L98.5758 93.5453Z" fill="#00862D"/>
<path d="M92.0457 101.689C91.8891 100.277 92.368 99.0628 93.4821 98.0462C94.5877 97.0373 95.8444 96.6681 97.2522 96.9384C98.6429 97.2244 99.9829 98.075 101.272 99.49C102.562 100.905 103.284 102.319 103.441 103.731C103.58 105.159 103.097 106.377 101.992 107.386C100.877 108.402 99.625 108.768 98.2344 108.482C96.843 108.212 95.4987 107.365 94.2015 105.942C92.9044 104.518 92.1858 103.101 92.0457 101.689ZM94.7949 99.487C94.1264 100.097 93.8704 100.841 94.0269 101.719C94.1834 102.597 94.7345 103.555 95.68 104.593C96.6255 105.631 97.5279 106.268 98.3872 106.505C99.2465 106.741 100.01 106.555 100.679 105.945C101.339 105.343 101.595 104.599 101.447 103.713C101.29 102.835 100.739 101.877 99.7938 100.839C98.8483 99.8013 97.9459 99.164 97.0866 98.9272C96.2187 98.6982 95.4548 98.8848 94.7949 99.487Z" fill="#00862D"/>
<path d="M81.9598 105.948L88.9213 101.96L89.6991 103.32L88.1661 109.192C87.7828 110.602 87.7784 111.634 88.1528 112.288C88.4409 112.792 88.8194 113.103 89.2885 113.222C89.7576 113.341 90.2337 113.262 90.717 112.986C91.6029 112.478 92.0067 111.665 91.9283 110.547L93.8857 110.569C93.961 111.448 93.8003 112.242 93.4037 112.951C93.0128 113.669 92.4449 114.242 91.6999 114.669C90.7636 115.205 89.8012 115.369 88.8127 115.159C87.8084 114.946 87.0211 114.341 86.4508 113.344C85.8401 112.276 85.7824 110.785 86.2776 108.87L87.2983 105.116L82.919 107.625L81.9598 105.948Z" fill="#00862D"/>
<path d="M76.0197 118.929L77.3699 115.056C76.4445 115.135 75.6319 114.958 74.9321 114.525C74.2247 114.107 73.7342 113.473 73.4606 112.622C73.0875 111.463 73.1864 110.425 73.7572 109.51C74.317 108.598 75.1712 107.957 76.3197 107.587C77.2252 107.295 78.0916 107.242 78.9188 107.426C79.7495 107.622 80.4383 108.058 80.9852 108.735L79.6657 110.202C79.0036 109.319 78.0872 109.065 76.9166 109.443C76.2541 109.656 75.7828 109.991 75.5029 110.447C75.2265 110.914 75.1808 111.434 75.3655 112.009C75.5503 112.583 75.8893 112.973 76.3824 113.18C76.8755 113.387 77.4533 113.384 78.1159 113.17L78.5466 113.031L79.6764 113.929L78.2358 118.032L83.0892 116.468L83.6649 118.257L76.5421 120.552L76.0197 118.929Z" fill="#00862D"/>
<path d="M71.1904 117.478L71.3944 119.451L63.7062 117.01L63.5273 115.279L70.5534 111.315L70.7574 113.288L65.7287 115.926L71.1904 117.478Z" fill="#0033CC"/>
</svg>
