<svg width="237" height="238" viewBox="0 0 237 238" fill="none" xmlns="http://www.w3.org/2000/svg">
<circle cx="118.15" cy="119.388" r="51" transform="rotate(35.5 118.15 119.388)" stroke="#40A865"/>
<path d="M73.3864 164.061L81.9579 171.049L80.5935 172.723L72.282 173.654C70.2794 173.857 68.9496 174.362 68.2927 175.168C67.7873 175.788 67.5741 176.429 67.6529 177.091C67.7316 177.754 68.0685 178.328 68.6635 178.813C69.7543 179.702 70.9997 179.82 72.3995 179.166L73.339 181.696C72.245 182.228 71.1442 182.414 70.0366 182.254C68.919 182.106 67.9015 181.659 66.9842 180.911C65.8315 179.971 65.1453 178.813 64.9258 177.437C64.7039 176.039 65.0933 174.726 66.0938 173.499C67.1651 172.185 69.0547 171.373 71.7628 171.063L77.0957 170.521L71.7037 166.125L73.3864 164.061Z" fill="#10923E"/>
<path d="M63.5063 155.137C65.4621 155.048 67.0888 155.816 68.3866 157.44C69.6743 159.052 70.069 160.815 69.5706 162.728C69.0523 164.616 67.7623 166.383 65.7005 168.03C63.6387 169.677 61.63 170.545 59.6742 170.634C57.6984 170.697 56.0667 169.923 54.7789 168.311C53.4812 166.687 53.0915 164.931 53.6099 163.043C54.1057 161.152 55.3907 159.379 57.465 157.721C59.5393 156.064 61.553 155.203 63.5063 155.137ZM66.2873 159.117C65.5087 158.143 64.5086 157.724 63.2871 157.86C62.0657 157.997 60.6989 158.669 59.187 159.877C57.675 161.085 56.7176 162.269 56.3146 163.43C55.9117 164.592 56.0996 165.66 56.8782 166.634C57.6468 167.596 58.6469 168.015 59.8784 167.891C61.0999 167.755 62.4666 167.083 63.9785 165.875C65.4905 164.667 66.4479 163.482 66.8509 162.321C67.2438 161.148 67.056 160.08 66.2873 159.117Z" fill="#10923E"/>
<path d="M58.776 141.468L63.699 151.372L61.7656 152.333L53.8109 149.75C51.9027 149.109 50.4831 149.02 49.5522 149.483C48.8362 149.839 48.3773 150.335 48.1755 150.971C47.9738 151.607 48.0438 152.269 48.3855 152.956C49.012 154.217 50.0977 154.838 51.6427 154.82L51.4541 157.512C50.2381 157.545 49.1587 157.26 48.216 156.657C47.259 156.061 46.517 155.234 45.9902 154.174C45.3281 152.842 45.181 151.504 45.5489 150.16C45.924 148.795 46.8204 147.76 48.2382 147.055C49.7563 146.3 51.8125 146.341 54.4069 147.177L59.4884 148.884L56.3915 142.654L58.776 141.468Z" fill="#10923E"/>
<path d="M41.6646 133.429L46.9059 135.545C46.8592 134.265 47.1571 133.158 47.7995 132.223C48.4223 131.277 49.3282 130.643 50.5173 130.323C52.1387 129.886 53.5605 130.091 54.7825 130.937C56.0004 131.768 56.8258 132.987 57.2587 134.593C57.6 135.859 57.6161 137.056 57.3069 138.183C56.9823 139.314 56.3357 140.233 55.3672 140.942L53.435 139.028C54.6958 138.174 55.1056 136.929 54.6644 135.292C54.4146 134.366 53.9853 133.695 53.3764 133.279C52.752 132.868 52.0383 132.77 51.2353 132.987C50.4323 133.203 49.872 133.644 49.5544 134.309C49.2368 134.975 49.2029 135.77 49.4526 136.697L49.6149 137.299L48.3039 138.796L42.7516 136.54L44.5809 143.327L42.0793 144.001L39.3946 134.041L41.6646 133.429Z" fill="#10923E"/>
<path d="M45.5311 109.37L38.6597 108.935L38.8338 106.182L55.5933 107.242L55.4193 109.995L48.1648 109.536L47.7106 116.719L54.9651 117.178L54.791 119.931L38.0315 118.871L38.2056 116.118L45.077 116.552L45.5311 109.37Z" fill="#10923E"/>
<path d="M49.1831 93.1899L47.553 92.6959L48.3043 90.2163L59.7839 93.6947L59.0326 96.1742L57.3795 95.6734C58.3976 97.0013 58.6424 98.5376 58.1137 100.283C57.636 101.859 56.6462 103.03 55.1444 103.795C53.6426 104.56 52.0422 104.685 50.3432 104.17C48.6442 103.655 47.3824 102.663 46.5576 101.193C45.7329 99.7231 45.5594 98.1999 46.0371 96.6234C46.5658 94.8785 47.6145 93.734 49.1831 93.1899ZM54.0479 101.457C54.9453 100.977 55.5518 100.217 55.8671 99.1757C56.1825 98.1349 56.1001 97.1657 55.6201 96.2683C55.1247 95.3662 54.3489 94.7551 53.2928 94.4351C52.2367 94.1151 51.2599 94.1951 50.3624 94.6752C49.4496 95.1506 48.8355 95.9088 48.5202 96.9496C48.2048 97.9904 48.2948 98.9619 48.7902 99.864C49.2703 100.761 50.0384 101.37 51.0945 101.69C52.1353 102.006 53.1198 101.928 54.0479 101.457Z" fill="#10923E"/>
<path d="M62.3811 89.1574L61.2326 91.4798L45.5344 83.7169L46.6829 81.3944L62.3811 89.1574Z" fill="#10923E"/>
<path d="M61.2662 72.1514L59.8842 71.1558L61.3986 69.0536L71.1311 76.065L69.6166 78.1672L68.2152 77.1576C68.7479 78.7437 68.4814 80.2765 67.4157 81.7558C66.4528 83.0924 65.137 83.8791 63.4683 84.1159C61.7997 84.3527 60.2451 83.9523 58.8047 82.9146C57.3643 81.8769 56.4923 80.5292 56.1885 78.8714C55.8847 77.2136 56.2143 75.7165 57.1772 74.3799C58.2429 72.9005 59.6059 72.1577 61.2662 72.1514ZM63.1887 81.5491C64.1933 81.3858 65.0135 80.863 65.6492 79.9806C66.2849 79.0982 66.5211 78.1547 66.3578 77.15C66.1816 76.1361 65.6458 75.3065 64.7504 74.6615C63.855 74.0165 62.905 73.7756 61.9004 73.9388C60.8828 74.0927 60.0561 74.6109 59.4204 75.4933C58.7847 76.3757 58.555 77.3239 58.7312 78.3379C58.8945 79.3425 59.4238 80.1674 60.3192 80.8124C61.2016 81.4481 62.1581 81.6937 63.1887 81.5491Z" fill="#10923E"/>
<path d="M75.0587 72.6145L73.2194 74.4393L60.885 62.0072L62.7242 60.1824L75.0587 72.6145Z" fill="#10923E"/>
<path d="M83.7609 65.8234L74.7688 51.6408L77.0988 50.1635L86.0909 64.3461L83.7609 65.8234Z" fill="#10923E"/>
<path d="M90.3444 48.5862C91.6219 48.035 92.8199 48.0058 93.9384 48.4986C95.0652 48.9704 95.9295 49.9039 96.5315 51.2989L99.4493 58.0612L97.0704 59.0877L94.2571 52.5677C93.9023 51.7453 93.4095 51.209 92.7789 50.9585C92.1483 50.708 91.4512 50.7476 90.6876 51.0771C89.8212 51.4509 89.2556 52.0172 88.9907 52.776C88.7196 53.52 88.8089 54.4134 89.2588 55.456L91.806 61.3592L89.427 62.3857L84.6749 51.3722L87.0538 50.3457L87.662 51.7555C87.9084 50.3079 88.8025 49.2515 90.3444 48.5862Z" fill="#10923E"/>
<path d="M105.7 53.8788L107.068 44.2687L109.837 43.6805L107.753 56.3857L104.82 57.0088L97.7519 46.2475L100.521 45.6593L105.7 53.8788Z" fill="#10923E"/>
<path d="M125.025 50.5966L115.478 50.669C115.676 51.5631 116.113 52.2555 116.789 52.7462C117.48 53.2368 118.33 53.4783 119.337 53.4706C120.697 53.4603 121.724 52.9567 122.421 51.9598L124.565 53.1911C123.411 54.9432 121.666 55.828 119.331 55.8457C117.396 55.8604 115.816 55.2806 114.592 54.1063C113.383 52.916 112.772 51.4092 112.758 49.586C112.745 47.8108 113.325 46.311 114.5 45.0865C115.658 43.8622 117.173 43.243 119.044 43.2288C120.787 43.2156 122.231 43.8204 123.376 45.0433C124.521 46.2661 125.1 47.7571 125.113 49.5164C125.115 49.8362 125.086 50.1963 125.025 50.5966ZM115.438 48.5581L122.49 48.5046C122.307 47.5624 121.902 46.8377 121.274 46.3307C120.663 45.8235 119.917 45.5733 119.038 45.58C118.078 45.5872 117.28 45.8572 116.645 46.3898C116.009 46.9224 115.607 47.6452 115.438 48.5581Z" fill="#10923E"/>
<path d="M130.922 47.9528C130.854 48.3143 130.986 48.6485 131.319 48.9555C131.654 49.2468 132.164 49.5629 132.849 49.9038C133.375 50.1335 133.829 50.3577 134.211 50.5764C134.593 50.795 134.985 51.0889 135.387 51.4579C135.792 51.8112 136.07 52.238 136.219 52.7383C136.387 53.2258 136.407 53.7667 136.279 54.3609C136.065 55.4924 135.457 56.2971 134.455 56.7751C133.453 57.2531 132.3 57.3688 130.996 57.1223C129.833 56.9024 128.881 56.4702 128.14 55.8257C127.399 55.1811 126.922 54.391 126.708 53.4553L129.141 52.5968C129.32 53.8025 130.085 54.5331 131.437 54.7886C132.773 55.041 133.524 54.7273 133.69 53.8472C133.812 53.2029 133.16 52.5589 131.736 51.9153C131.197 51.6669 130.744 51.4349 130.378 51.2192C130.028 51.0065 129.642 50.722 129.221 50.3657C128.816 50.0124 128.529 49.592 128.361 49.1044C128.208 48.6199 128.195 48.0883 128.32 47.5099C128.525 46.4255 129.099 45.6306 130.041 45.125C130.998 44.6224 132.09 44.4869 133.316 44.7186C134.29 44.9028 135.113 45.2861 135.784 45.8687C136.474 46.4386 136.95 47.1471 137.213 47.9944L134.841 48.7912C134.618 47.8212 133.964 47.2337 132.879 47.0287C132.376 46.9337 131.939 46.965 131.568 47.1226C131.212 47.2832 130.997 47.5599 130.922 47.9528Z" fill="#10923E"/>
<path d="M148.351 49.6308L147.492 51.9729L144.699 50.9477L142.715 56.3525C142.544 56.818 142.525 57.1943 142.658 57.4817C142.797 57.754 143.063 57.9796 143.457 58.1585C143.872 58.3278 144.393 58.5105 145.02 58.7064L144.218 60.8909C142.273 60.4326 140.995 59.7844 140.383 58.9463C139.776 58.0932 139.742 56.9309 140.283 55.4596L142.267 50.0547L140.195 49.2941L141.055 46.952L143.127 47.7126L144.02 45.2804L146.716 45.4527L145.559 48.6056L148.351 49.6308Z" fill="#10923E"/>
<path d="M164.57 58.6397C165.713 59.3755 166.396 60.3382 166.62 61.528C166.843 62.7178 166.552 63.938 165.747 65.1887L161.722 71.4422L159.543 70.0399L163.477 63.9276C163.919 63.2418 164.09 62.5913 163.992 61.9762C163.893 61.3612 163.541 60.8589 162.936 60.4693C162.25 60.0279 161.565 59.9102 160.881 60.1164C160.205 60.3092 159.586 60.8427 159.023 61.7168L155.388 67.3651L153.209 65.9628L157.143 59.8505C157.593 59.1512 157.772 58.5051 157.678 57.9121C157.606 57.3144 157.268 56.8207 156.662 56.4312C155.99 55.9984 155.298 55.8764 154.587 56.0653C153.889 56.2629 153.263 56.792 152.709 57.6527L149.074 63.301L146.895 61.8987L153.387 51.8125L155.566 53.2148L154.787 54.4251C156.064 53.8589 157.342 53.9869 158.619 54.8093C159.91 55.6403 160.523 56.7861 160.458 58.2467C161.801 57.6084 163.172 57.7394 164.57 58.6397Z" fill="#10923E"/>
<path d="M173.254 77.6605L166.749 70.6709C166.225 71.4216 166.009 72.2116 166.104 73.0411C166.21 73.8823 166.606 74.6717 167.292 75.4093C168.218 76.4045 169.284 76.8219 170.489 76.6615L171.031 79.0743C168.959 79.4073 167.128 78.7191 165.537 77.0098C164.219 75.5931 163.579 74.0368 163.617 72.3407C163.678 70.6454 164.376 69.1768 165.711 67.9347C167.01 66.7252 168.508 66.1397 170.204 66.178C171.889 66.2046 173.369 66.9028 174.644 68.2726C175.832 69.5488 176.361 71.0219 176.233 72.6922C176.106 74.3624 175.398 75.7967 174.11 76.9953C173.876 77.2132 173.59 77.4349 173.254 77.6605ZM168.279 69.2151L173.084 74.3783C173.654 73.6066 173.915 72.8182 173.864 72.0129C173.825 71.2194 173.506 70.5006 172.907 69.8567C172.253 69.1542 171.515 68.7486 170.693 68.6399C169.87 68.5311 169.066 68.7229 168.279 69.2151Z" fill="#10923E"/>
<path d="M184.395 81.8202C185.111 83.0133 185.299 84.1968 184.959 85.3708C184.641 86.5502 183.83 87.5308 182.528 88.3125L176.212 92.1017L174.879 89.8801L180.968 86.2266C181.736 85.7658 182.203 85.2062 182.367 84.5479C182.532 83.8897 182.4 83.204 181.972 82.4908C181.487 81.6817 180.85 81.1962 180.063 81.0344C179.29 80.8643 178.416 81.0714 177.442 81.6557L171.929 84.9636L170.596 82.7419L180.882 76.5704L182.215 78.7921L180.898 79.5821C182.366 79.6342 183.531 80.3802 184.395 81.8202Z" fill="#10923E"/>
<path d="M190.423 96.3073L188.088 97.1879L187.038 94.4045L181.651 96.4366C181.187 96.6116 180.89 96.8433 180.76 97.1319C180.644 97.4147 180.648 97.7638 180.77 98.1792C180.913 98.6038 181.115 99.1172 181.377 99.7195L179.2 100.541C178.275 98.7699 177.93 97.3788 178.164 96.3676C178.413 95.3506 179.27 94.5656 180.737 94.0124L186.124 91.9803L185.345 89.9153L187.679 89.0347L188.458 91.0998L190.882 90.1853L192.515 92.3386L189.373 93.524L190.423 96.3073Z" fill="#10923E"/>
<path d="M192.214 119.1L193.915 118.998L194.07 121.584L182.096 122.303L181.941 119.717L183.665 119.613C182.25 118.721 181.487 117.365 181.378 115.545C181.28 113.9 181.802 112.459 182.945 111.221C184.089 109.982 185.546 109.31 187.318 109.204C189.09 109.097 190.618 109.59 191.901 110.683C193.185 111.776 193.876 113.144 193.974 114.788C194.084 116.608 193.497 118.045 192.214 119.1ZM184.784 113.033C184.109 113.794 183.804 114.718 183.869 115.804C183.934 116.889 184.348 117.77 185.109 118.445C185.887 119.119 186.826 119.423 187.928 119.357C189.029 119.291 189.918 118.877 190.593 118.116C191.284 117.353 191.597 116.429 191.532 115.344C191.467 114.258 191.046 113.378 190.268 112.704C189.507 112.028 188.575 111.724 187.474 111.79C186.388 111.855 185.492 112.269 184.784 113.033Z" fill="#10923E"/>
<path d="M192.831 132.844C192.614 134.218 191.999 135.247 190.984 135.929C189.983 136.629 188.732 136.861 187.232 136.624L179.957 135.477L180.36 132.917L187.375 134.024C188.259 134.163 188.976 134.033 189.525 133.634C190.073 133.235 190.412 132.625 190.542 131.803C190.689 130.871 190.513 130.09 190.013 129.461C189.529 128.834 188.726 128.432 187.604 128.255L181.254 127.254L181.657 124.694L193.506 126.563L193.102 129.122L191.585 128.883C192.677 129.865 193.092 131.185 192.831 132.844Z" fill="#10923E"/>
<path d="M185.341 150.051L191.396 152.419L190.452 154.832L174.813 148.716L175.757 146.303L177.365 146.932C176.454 145.528 176.331 143.977 176.995 142.279C177.595 140.745 178.674 139.656 180.231 139.011C181.788 138.367 183.394 138.368 185.047 139.014C186.7 139.661 187.88 140.749 188.587 142.279C189.294 143.809 189.347 145.341 188.747 146.876C188.083 148.574 186.948 149.632 185.341 150.051ZM181.141 141.428C180.208 141.836 179.544 142.546 179.148 143.559C178.752 144.572 178.758 145.545 179.166 146.477C179.589 147.415 180.314 148.085 181.342 148.487C182.37 148.889 183.35 148.886 184.282 148.478C185.23 148.076 185.901 147.368 186.297 146.355C186.694 145.342 186.68 144.367 186.257 143.429C185.849 142.496 185.131 141.829 184.103 141.427C183.09 141.031 182.103 141.031 181.141 141.428Z" fill="#10923E"/>
<path d="M183.2 166.432L175.359 175.825L173.333 174.134L176.362 170.506L165.496 161.435L167.264 159.318L178.13 168.388L181.174 164.741L183.2 166.432Z" fill="#10923E"/>
<path d="M166.839 176.707L165.531 175.174C165.997 176.731 165.543 178.096 164.169 179.269L162.347 177.134C163.13 176.55 163.631 175.806 163.85 174.905C164.067 174.026 163.776 173.118 162.976 172.181L159.052 167.583L161.023 165.901L168.81 175.025L166.839 176.707Z" fill="#10923E"/>
<path d="M151.228 185.068L152.079 186.544L149.834 187.838L143.842 177.447L146.086 176.153L146.949 177.649C147.115 175.984 147.988 174.696 149.567 173.785C150.994 172.962 152.517 172.786 154.135 173.255C155.754 173.725 157.007 174.729 157.894 176.267C158.781 177.805 159.022 179.392 158.618 181.028C158.214 182.664 157.298 183.894 155.871 184.717C154.292 185.627 152.744 185.745 151.228 185.068ZM153.336 175.711C152.353 175.447 151.39 175.586 150.448 176.13C149.506 176.673 148.903 177.436 148.639 178.419C148.383 179.416 148.531 180.392 149.082 181.348C149.634 182.304 150.401 182.914 151.384 183.178C152.375 183.456 153.341 183.323 154.283 182.78C155.225 182.236 155.824 181.466 156.08 180.47C156.344 179.487 156.201 178.517 155.649 177.561C155.106 176.619 154.335 176.002 153.336 175.711Z" fill="#10923E"/>
<path d="M135.475 190.771L137.369 196.99L134.891 197.745L129.997 181.681L132.475 180.926L132.979 182.578C133.516 180.994 134.656 179.936 136.4 179.404C137.976 178.924 139.5 179.095 140.971 179.918C142.442 180.74 143.436 182.001 143.953 183.699C144.471 185.397 144.348 186.998 143.586 188.501C142.823 190.004 141.654 190.995 140.078 191.475C138.334 192.007 136.8 191.772 135.475 190.771ZM139.638 182.13C138.74 181.651 137.771 181.57 136.73 181.887C135.69 182.204 134.931 182.811 134.452 183.71C133.978 184.623 133.902 185.608 134.223 186.663C134.545 187.719 135.155 188.486 136.053 188.965C136.956 189.459 137.927 189.547 138.968 189.23C140.008 188.913 140.765 188.298 141.239 187.385C141.718 186.487 141.797 185.51 141.475 184.454C141.158 183.414 140.546 182.639 139.638 182.13Z" fill="#10923E"/>
<path d="M126.784 196.181C127.06 195.822 127.42 195.613 127.864 195.555C128.308 195.497 128.717 195.604 129.092 195.878C129.453 196.169 129.662 196.537 129.721 196.981C129.779 197.425 129.67 197.826 129.395 198.185C129.122 198.559 128.755 198.777 128.295 198.837C127.835 198.898 127.425 198.782 127.064 198.491C126.705 198.216 126.497 197.856 126.438 197.412C126.38 196.968 126.495 196.558 126.784 196.181ZM124.782 182.047L127.351 181.71L128.914 193.602L126.345 193.94L124.782 182.047Z" fill="#10923E"/>
<path d="M114.48 194.58C113.089 194.547 111.989 194.074 111.178 193.159C110.351 192.26 109.955 191.051 109.991 189.532L110.163 182.169L112.753 182.229L112.587 189.328C112.566 190.224 112.79 190.917 113.259 191.408C113.727 191.899 114.377 192.154 115.208 192.173C116.152 192.195 116.902 191.917 117.46 191.338C118.017 190.775 118.309 189.926 118.335 188.791L118.485 182.363L121.075 182.424L120.795 194.415L118.205 194.355L118.241 192.82C117.413 194.032 116.159 194.619 114.48 194.58Z" fill="#10923E"/>
<path d="M96.4019 189.358L95.9804 191.083L93.5102 190.479L96.2275 179.363C96.6604 177.592 97.5753 176.375 98.9722 175.712C100.354 175.045 101.883 174.917 103.561 175.327C106.249 175.984 107.86 177.374 108.395 179.497L105.92 180.226C105.606 178.881 104.618 178.006 102.956 177.6C101.869 177.334 100.952 177.414 100.205 177.841C99.4471 178.248 98.9446 178.957 98.6977 179.967L98.3502 181.388C99.6283 180.268 101.145 179.923 102.901 180.352C104.532 180.751 105.78 181.673 106.645 183.12C107.49 184.578 107.71 186.138 107.303 187.8C106.893 189.478 105.981 190.753 104.566 191.626C103.143 192.529 101.608 192.779 99.9612 192.377C98.2056 191.948 97.0192 190.942 96.4019 189.358ZM104.376 184.318C103.832 183.445 103.032 182.879 101.976 182.62C100.919 182.362 99.9561 182.497 99.0861 183.025C98.2005 183.55 97.6305 184.332 97.3761 185.373C97.1216 186.414 97.2663 187.372 97.81 188.245C98.3382 189.115 99.1306 189.68 100.187 189.938C101.243 190.196 102.214 190.063 103.1 189.539C103.97 189.01 104.532 188.226 104.787 187.185C105.041 186.144 104.904 185.188 104.376 184.318Z" fill="#10923E"/>
<path d="M88.583 186.28L87.6021 188.832L79.6766 181.033L80.5371 178.793L91.6463 178.307L90.6653 180.86L82.8389 180.963L88.583 186.28Z" fill="#0057BC"/>
</svg>
