<svg width="1440" height="923" viewBox="0 0 1440 923" fill="none" xmlns="http://www.w3.org/2000/svg">
<path d="M-112.756 -60.5082C328.309 -45.3699 731.482 28.3415 616.864 259.246C495.958 502.668 965.64 635.687 1452.95 709.667L1452.89 709.954C965.241 635.941 495.168 502.814 616.172 259.177C730.679 28.5592 327.905 -45.0924 -112.81 -60.2205L-112.756 -60.5082Z" fill="url(#paint0_linear_108_1964)"/>
<path d="M-114.47 -51.3997C309.391 -49.894 692.214 14.4315 595.111 256.688C489.181 520.908 964.522 646.62 1452.66 711.177L1452.61 711.464C964.122 646.874 488.382 521.102 594.42 256.619C691.406 14.6732 308.987 -49.6165 -114.524 -51.112L-114.47 -51.3997Z" fill="url(#paint1_linear_108_1964)"/>
<path d="M-115.855 -44.0386C290.715 -55.0837 653.429 1.38119 573.363 254.108C482.816 539.765 963.542 657.126 1452.53 711.898L1452.47 712.186C963.137 657.403 482.013 539.983 572.667 254.064C652.617 1.64689 290.302 -54.7582 -115.914 -43.727L-115.855 -44.0386Z" fill="url(#paint2_linear_108_1964)"/>
<path d="M-116.902 -38.4784C272.139 -60.8037 615.227 -10.7154 551.615 251.526C476.909 559.307 962.701 667.199 1452.54 711.826L1452.49 712.113C962.297 667.476 476.163 559.526 550.919 251.481C614.468 -10.4241 271.726 -60.4784 -116.961 -38.1669L-116.902 -38.4784Z" fill="url(#paint3_linear_108_1964)"/>
<path d="M-117.587 -34.8358C253.789 -67.0958 577.658 -21.8057 529.868 248.943C471.513 579.562 961.894 676.79 1452.71 710.914L1452.66 711.202C961.548 677.069 470.768 579.781 529.168 248.923C576.895 -21.4905 253.366 -66.7225 -117.65 -34.5003L-117.587 -34.8358Z" fill="url(#paint4_linear_108_1964)"/>
<path d="M-117.926 -33.0369C235.621 -73.7422 540.692 -31.744 508.115 246.386C466.623 600.557 961.198 685.785 1453.05 709.118L1453 709.406C960.852 686.064 465.878 600.776 507.415 246.366C539.987 -31.427 235.199 -73.3688 -117.989 -32.7014L-117.926 -33.0369Z" fill="url(#paint5_linear_108_1964)"/>
<path d="M-117.881 -33.2779C217.715 -80.8413 504.516 -40.5774 486.367 243.803C462.235 622.311 960.508 694.126 1453.57 706.36L1453.51 706.648C960.162 694.405 461.544 622.556 485.662 243.806C503.802 -40.2125 217.284 -80.42 -117.948 -32.9184L-117.881 -33.2779Z" fill="url(#paint6_linear_108_1964)"/>
<path d="M-117.456 -35.5312C200.102 -88.2442 469.039 -48.1362 464.619 241.22C458.796 624.067 909.439 694.912 1377.77 701.996C1403.28 702.373 1428.76 702.581 1454.27 702.621L1454.22 702.909C1428.71 702.869 1403.23 702.661 1377.78 702.285C909.089 695.215 458.104 624.312 463.969 241.25C468.32 -47.7473 199.666 -87.799 -117.529 -35.1476L-117.456 -35.5312Z" fill="url(#paint7_linear_108_1964)"/>
<path d="M-116.676 -39.6785C182.788 -95.6872 434.413 -54.2973 442.867 238.662C453.944 623.347 858.945 695.762 1299.65 699.105C1351.2 699.49 1403.22 698.948 1455.17 697.826L1455.12 698.114C1403.17 699.212 1351.21 699.779 1299.65 699.394C858.595 696.065 453.253 623.592 442.162 238.665C433.752 -53.9067 182.411 -95.2402 -116.753 -39.271L-116.676 -39.6785Z" fill="url(#paint8_linear_108_1964)"/>
<path d="M-115.53 -45.7653C165.829 -103.142 400.75 -59.0305 421.114 236.105C447.899 622.74 814.518 697.416 1228.69 697.702C1303.6 697.751 1380.02 695.385 1456.28 691.979L1456.22 692.267C1379.96 695.673 1303.6 698.04 1228.7 697.991C814.172 697.695 447.208 622.985 420.41 236.108C400.027 -58.6177 165.447 -102.671 -115.612 -45.3338L-115.53 -45.7653Z" fill="url(#paint9_linear_108_1964)"/>
<path d="M-114.037 -53.6994C149.252 -110.443 367.98 -62.2698 399.366 233.522C440.682 622.434 775.189 699.723 1164.49 697.528C1260.04 696.994 1358.95 691.666 1457.59 684.98L1457.53 685.291C1358.89 691.977 1260.1 697.285 1164.55 697.819C774.839 700.026 439.99 622.679 398.72 233.528C367.31 -61.8312 148.865 -109.948 -114.123 -53.244L-114.037 -53.6994Z" fill="url(#paint10_linear_108_1964)"/>
<path d="M-112.264 -63.1201C133.038 -117.179 336.303 -63.8389 377.673 230.965C432.585 622.439 740.093 702.61 1106.42 698.4C1220.24 697.118 1339.76 687.663 1459.12 676.878L1459.06 677.189C1339.7 687.974 1220.24 697.407 1106.42 698.713C739.742 702.913 431.894 622.684 376.905 230.991C335.634 -63.4004 132.701 -116.635 -112.354 -62.6407L-112.264 -63.1201Z" fill="url(#paint11_linear_108_1964)"/>
<path d="M-110.216 -74.0019C117.357 -123.321 305.724 -63.7607 355.92 228.407C423.666 622.759 708.482 705.984 1053.71 700.15C1183.65 697.962 1322.19 683.153 1460.87 667.577L1460.81 667.889C1322.13 683.441 1183.65 698.251 1053.71 700.44C708.137 706.263 422.975 623.004 355.161 228.385C305.113 -63.3205 116.961 -122.778 -110.311 -73.4986L-110.216 -74.0019Z" fill="url(#paint12_linear_108_1964)"/>
<path d="M-108.001 -85.7695C102.119 -128.388 276.346 -61.9596 334.172 225.826C414.097 623.423 679.79 709.757 1005.66 702.64C1144.09 699.613 1293.44 679.719 1444.05 659.669L1462.89 657.154L1462.83 657.466L1444.3 659.941C1293.68 679.991 1144.34 699.885 1005.73 702.907C679.502 710.038 413.405 623.668 333.472 225.806C275.731 -61.4954 101.778 -127.82 -108.101 -85.2422L-108.001 -85.7695Z" fill="url(#paint13_linear_108_1964)"/>
<path d="M-105.691 -98.0415C87.3971 -132.14 248.161 -58.3898 312.424 223.244C403.939 624.407 653.435 713.886 961.727 705.73C1099.16 702.095 1248.34 679.039 1400.36 655.56C1421.87 652.231 1443.44 648.903 1465.06 645.601L1465.01 645.913C1443.5 649.194 1422.05 652.501 1400.61 655.808C1248.52 679.31 1099.34 702.366 961.794 705.997C653.148 714.167 403.311 624.629 311.72 223.248C247.541 -57.9017 87.051 -131.548 -105.795 -97.4903L-105.691 -98.0415Z" fill="url(#paint14_linear_108_1964)"/>
<path d="M-103.395 -110.244C73.1936 -134.289 221.284 -53.0491 290.672 220.684C393.314 625.687 629.073 718.335 921.212 709.349C1057.16 705.166 1205.35 678.973 1358.03 651.994C1394.26 645.596 1430.72 639.158 1467.39 632.942L1467.32 633.277C1430.84 639.474 1394.43 645.891 1358.33 652.267C1205.59 679.269 1057.34 705.46 921.275 709.64C628.659 718.66 392.618 625.956 289.904 220.71C220.723 -52.5593 72.8429 -133.673 -103.508 -109.645L-103.395 -110.244Z" fill="url(#paint15_linear_108_1964)"/>
<path d="M-101.261 -121.581C59.4727 -134.325 195.73 -46.0052 268.919 218.126C382.284 627.248 606.299 723.074 883.843 713.401C1017.89 708.728 1164.49 679.452 1317.18 648.955C1367.53 638.894 1418.55 628.708 1469.97 619.232L1469.9 619.567C1418.61 629.023 1367.71 639.188 1317.48 649.229C1164.79 679.726 1018.13 709.024 883.901 713.715C605.944 723.401 381.588 627.517 268.206 218.178C195.173 -45.5394 59.122 -133.709 -101.374 -120.982L-101.261 -121.581Z" fill="url(#paint16_linear_108_1964)"/>
<path d="M-99.3799 -131.576C46.3607 -132.294 171.525 -37.4035 247.172 215.544C370.865 629.014 584.836 728.02 849.045 717.815C981.002 712.721 1125.48 680.395 1277.48 646.383C1341.36 632.087 1406.52 617.515 1472.73 604.539L1472.67 604.875C1406.64 617.831 1341.6 632.383 1277.84 646.659C1125.71 680.691 981.181 713.015 849.104 718.13C584.476 728.371 370.223 629.308 246.458 215.596C170.964 -36.9137 46.0056 -131.654 -99.4972 -130.953L-99.3799 -131.576Z" fill="url(#paint17_linear_108_1964)"/>
<path d="M-97.9228 -139.318C33.7219 -127.792 148.576 -27.3679 225.424 212.962C359.162 631.037 564.562 733.192 816.532 722.561C946.155 717.086 1088.14 681.796 1239.04 644.282C1315.79 625.201 1394.81 605.559 1475.67 588.959L1475.6 589.295C1394.87 605.874 1315.97 625.471 1239.41 644.509C1088.44 682.069 946.393 717.382 816.653 722.854C564.211 733.495 358.529 631.283 224.71 213.014C148.014 -26.8781 33.3667 -127.152 -98.0355 -138.718L-97.9228 -139.318Z" fill="url(#paint18_linear_108_1964)"/>
<path d="M-96.9979 -144.231C21.5429 -120.747 126.806 -16.1175 203.672 210.404C347.19 633.244 545.189 738.559 786.02 727.582C913.18 721.794 1052.3 683.601 1201.64 642.596C1290.53 618.203 1383.01 592.806 1478.73 572.66L1478.67 572.996C1383.07 593.121 1290.77 618.475 1202 642.847C1052.6 683.875 913.422 722.066 786.083 727.873C544.839 738.863 346.552 633.515 202.962 210.432C126.244 -15.6276 21.228 -120.009 -97.1423 -143.464L-96.9979 -144.231Z" fill="url(#paint19_linear_108_1964)"/>
<path d="M-96.75 -145.549C9.79638 -111.012 106.152 -3.94202 181.924 207.823C335.001 635.663 526.665 744.097 757.223 732.845C881.797 726.766 1017.81 685.76 1165.21 641.325C1265.53 611.093 1371.07 579.255 1481.91 555.763L1481.85 556.123C1371.19 579.595 1265.77 611.366 1165.63 641.578C1018.17 686.036 882.093 727.064 757.339 733.162C526.369 744.426 334.364 635.934 181.264 207.9C105.649 -3.45048 9.42766 -110.3 -96.8854 -144.83L-96.75 -145.549Z" fill="url(#paint20_linear_108_1964)"/>
<path d="M-97.1109 -143.632C-1.56126 -99.2925 86.535 8.96038 160.167 205.288C322.548 638.242 508.819 749.772 729.906 738.343C851.882 732.044 984.603 688.292 1129.71 640.464C1240.66 603.889 1358.87 564.946 1485.17 538.456L1485.1 538.816C1358.98 565.287 1240.96 604.187 1130.19 640.695C984.961 688.567 852.241 732.319 730.027 738.636C508.527 750.077 321.973 638.49 159.52 205.293C86.0364 9.42788 -1.87165 -98.5784 -97.2553 -142.865L-97.1109 -143.632Z" fill="url(#paint21_linear_108_1964)"/>
<path d="M-98.2571 -137.543C-12.6612 -85.2015 67.7923 22.2034 138.418 202.707C310.014 640.941 491.596 755.565 703.967 744.003C823.344 737.484 952.566 691.124 1095.14 639.921C1215.87 596.569 1346.29 549.786 1488.49 520.792L1488.43 521.152C1346.4 550.127 1216.23 596.845 1095.63 640.128C952.934 691.352 823.703 737.76 704.092 744.272C491.304 755.87 309.381 641.187 137.772 202.712C67.2937 22.671 -12.9671 -84.5114 -98.3925 -136.824L-98.2571 -137.543Z" fill="url(#paint22_linear_108_1964)"/>
<path d="M-100.089 -127.81C-23.4977 -69.3913 49.723 35.611 116.67 200.126C297.269 643.826 474.871 761.516 679.168 749.841C795.933 743.174 921.536 694.227 1061.38 639.74C1191.1 589.177 1333.15 533.887 1491.84 503.033L1491.77 503.392C1333.32 534.229 1191.46 589.453 1061.87 639.947C921.962 694.456 796.296 743.426 679.293 750.11C474.579 761.821 296.636 644.073 116.02 200.156C49.2243 36.0785 -23.8126 -68.6533 -100.242 -126.995L-100.089 -127.81Z" fill="url(#paint23_linear_108_1964)"/>
<path d="M-102.655 -114.173C-34.1918 -51.8447 32.2646 48.8889 94.9767 197.569C284.385 646.826 458.596 767.574 655.46 755.805C769.613 748.99 891.511 697.598 1028.45 639.869C1166.34 581.735 1319.39 517.219 1495.23 485.296L1495.17 485.656C1319.62 517.587 1166.69 582.034 1028.99 640.102C891.991 697.853 770.026 749.291 655.634 756.123C458.357 767.905 283.864 647.1 94.3214 197.622C31.7704 49.3324 -34.556 -51.1563 -102.809 -113.358L-102.655 -114.173Z" fill="url(#paint24_linear_108_1964)"/>
<path d="M-105.795 -97.4897C-44.7749 -33.3282 15.2101 61.8918 73.2289 194.988C271.366 649.92 442.715 773.719 632.604 761.916C744.199 754.978 862.378 701.213 996.152 640.333C1141.28 574.286 1267.27 521.984 1460.94 489.805L1460.87 490.165C1267.44 522.35 1141.64 574.562 996.7 640.541C862.8 701.466 744.612 755.279 632.72 762.232C442.364 774.022 270.787 650.192 72.5152 195.039C14.7114 62.3593 -45.1392 -32.6399 -105.948 -96.6748L-105.795 -97.4897Z" fill="url(#paint25_linear_108_1964)"/>
<path d="M-109.405 -78.4393C-55.3042 -14.2865 -1.44611 74.5372 51.4604 192.422C258.258 653.144 427.112 779.927 610.546 768.126C719.637 761.09 834.02 705.043 964.563 641.054C1116.05 566.802 1257.54 514.822 1469.86 483.3L1469.79 483.636C1257.77 515.166 1116.47 567.055 965.115 641.239C834.446 705.272 719.996 761.365 610.667 768.419C426.815 780.256 257.62 653.414 50.6884 192.472C-1.99859 74.9791 -55.61 -13.5965 -109.558 -77.6243L-109.405 -78.4393Z" fill="url(#paint26_linear_108_1964)"/>
<path d="M-113.86 -56.8651C-66.1108 5.32778 -18.2357 86.539 29.4455 189.724C244.974 656.263 411.852 786.015 589.297 774.146C695.932 767.001 806.478 708.707 933.688 641.635C1090.65 558.858 1262.22 504.114 1494.04 474.158L1493.97 474.494C1262.44 504.482 1091.13 559.112 934.299 641.821C807.021 708.939 696.408 767.28 589.476 774.441C411.56 786.32 244.395 656.536 28.7318 189.776C-18.7834 86.9571 -66.4792 6.0403 -114.022 -56.0021L-113.86 -56.8651Z" fill="url(#paint27_linear_108_1964)"/>
<defs>
<linearGradient id="paint0_linear_108_1964" x1="-437.007" y1="-1.35476" x2="1386.28" y2="1211.83" gradientUnits="userSpaceOnUse">
<stop offset="0.256381" stop-color="#D0E5AD" stop-opacity="0.55"/>
<stop offset="0.615464" stop-color="#D0E5AD" stop-opacity="0.99"/>
</linearGradient>
<linearGradient id="paint1_linear_108_1964" x1="-438.366" y1="5.8721" x2="1377.96" y2="1222.19" gradientUnits="userSpaceOnUse">
<stop offset="0.256381" stop-color="#D0E5AD" stop-opacity="0.55"/>
<stop offset="0.615464" stop-color="#D0E5AD" stop-opacity="0.99"/>
</linearGradient>
<linearGradient id="paint2_linear_108_1964" x1="-438.978" y1="9.1204" x2="1374.23" y2="1226.82" gradientUnits="userSpaceOnUse">
<stop offset="0.256381" stop-color="#D0E5AD" stop-opacity="0.55"/>
<stop offset="0.615464" stop-color="#D0E5AD" stop-opacity="0.99"/>
</linearGradient>
<linearGradient id="paint3_linear_108_1964" x1="-439.082" y1="9.67164" x2="1373.36" y2="1227.71" gradientUnits="userSpaceOnUse">
<stop offset="0.256381" stop-color="#D0E5AD" stop-opacity="0.55"/>
<stop offset="0.615464" stop-color="#D0E5AD" stop-opacity="0.99"/>
</linearGradient>
<linearGradient id="paint4_linear_108_1964" x1="-438.817" y1="8.26637" x2="1374.23" y2="1226.04" gradientUnits="userSpaceOnUse">
<stop offset="0.256381" stop-color="#D0E5AD" stop-opacity="0.55"/>
<stop offset="0.615464" stop-color="#D0E5AD" stop-opacity="0.99"/>
</linearGradient>
<linearGradient id="paint5_linear_108_1964" x1="-438.302" y1="5.52809" x2="1375.91" y2="1222.78" gradientUnits="userSpaceOnUse">
<stop offset="0.256381" stop-color="#D0E5AD" stop-opacity="0.55"/>
<stop offset="0.615464" stop-color="#D0E5AD" stop-opacity="0.99"/>
</linearGradient>
<linearGradient id="paint6_linear_108_1964" x1="-437.571" y1="1.64417" x2="1378.09" y2="1218.26" gradientUnits="userSpaceOnUse">
<stop offset="0.256381" stop-color="#D0E5AD" stop-opacity="0.55"/>
<stop offset="0.615464" stop-color="#D0E5AD" stop-opacity="0.99"/>
</linearGradient>
<linearGradient id="paint7_linear_108_1964" x1="-436.71" y1="-2.93018" x2="1382.42" y2="1212.13" gradientUnits="userSpaceOnUse">
<stop offset="0.256381" stop-color="#D0E5AD" stop-opacity="0.55"/>
<stop offset="0.615464" stop-color="#D0E5AD" stop-opacity="0.99"/>
</linearGradient>
<linearGradient id="paint8_linear_108_1964" x1="-435.778" y1="-7.88117" x2="1389.1" y2="1204.58" gradientUnits="userSpaceOnUse">
<stop offset="0.256381" stop-color="#D0E5AD" stop-opacity="0.55"/>
<stop offset="0.615464" stop-color="#D0E5AD" stop-opacity="0.99"/>
</linearGradient>
<linearGradient id="paint9_linear_108_1964" x1="-434.774" y1="-13.2172" x2="1397.68" y2="1195.77" gradientUnits="userSpaceOnUse">
<stop offset="0.256381" stop-color="#D0E5AD" stop-opacity="0.55"/>
<stop offset="0.615464" stop-color="#D0E5AD" stop-opacity="0.99"/>
</linearGradient>
<linearGradient id="paint10_linear_108_1964" x1="-433.705" y1="-18.8955" x2="1407.69" y2="1185.91" gradientUnits="userSpaceOnUse">
<stop offset="0.256381" stop-color="#D0E5AD" stop-opacity="0.55"/>
<stop offset="0.615464" stop-color="#D0E5AD" stop-opacity="0.99"/>
</linearGradient>
<linearGradient id="paint11_linear_108_1964" x1="-432.61" y1="-24.7155" x2="1418.61" y2="1175.41" gradientUnits="userSpaceOnUse">
<stop offset="0.256381" stop-color="#D0E5AD" stop-opacity="0.55"/>
<stop offset="0.615464" stop-color="#D0E5AD" stop-opacity="0.99"/>
</linearGradient>
<linearGradient id="paint12_linear_108_1964" x1="-431.457" y1="-30.8394" x2="1430.34" y2="1164.12" gradientUnits="userSpaceOnUse">
<stop offset="0.256381" stop-color="#D0E5AD" stop-opacity="0.55"/>
<stop offset="0.615464" stop-color="#D0E5AD" stop-opacity="0.99"/>
</linearGradient>
<linearGradient id="paint13_linear_108_1964" x1="-430.294" y1="-37.0762" x2="1442.55" y2="1152.44" gradientUnits="userSpaceOnUse">
<stop offset="0.256381" stop-color="#D0E5AD" stop-opacity="0.55"/>
<stop offset="0.615464" stop-color="#D0E5AD" stop-opacity="0.99"/>
</linearGradient>
<linearGradient id="paint14_linear_108_1964" x1="-429.091" y1="-43.4643" x2="1455.08" y2="1140.25" gradientUnits="userSpaceOnUse">
<stop offset="0.256381" stop-color="#D0E5AD" stop-opacity="0.55"/>
<stop offset="0.615464" stop-color="#D0E5AD" stop-opacity="0.99"/>
</linearGradient>
<linearGradient id="paint15_linear_108_1964" x1="-427.852" y1="-49.9939" x2="1467.84" y2="1127.61" gradientUnits="userSpaceOnUse">
<stop offset="0.256381" stop-color="#D0E5AD" stop-opacity="0.55"/>
<stop offset="0.615464" stop-color="#D0E5AD" stop-opacity="0.99"/>
</linearGradient>
<linearGradient id="paint16_linear_108_1964" x1="-426.624" y1="-56.5225" x2="1480.58" y2="1114.9" gradientUnits="userSpaceOnUse">
<stop offset="0.256381" stop-color="#D0E5AD" stop-opacity="0.55"/>
<stop offset="0.615464" stop-color="#D0E5AD" stop-opacity="0.99"/>
</linearGradient>
<linearGradient id="paint17_linear_108_1964" x1="-425.354" y1="-63.2666" x2="1493.44" y2="1101.77" gradientUnits="userSpaceOnUse">
<stop offset="0.256381" stop-color="#D0E5AD" stop-opacity="0.55"/>
<stop offset="0.615464" stop-color="#D0E5AD" stop-opacity="0.99"/>
</linearGradient>
<linearGradient id="paint18_linear_108_1964" x1="-424.166" y1="-69.578" x2="1505.64" y2="1089.25" gradientUnits="userSpaceOnUse">
<stop offset="0.256381" stop-color="#D0E5AD" stop-opacity="0.55"/>
<stop offset="0.615464" stop-color="#D0E5AD" stop-opacity="0.99"/>
</linearGradient>
<linearGradient id="paint19_linear_108_1964" x1="-423.432" y1="-73.4765" x2="1515.13" y2="1080.31" gradientUnits="userSpaceOnUse">
<stop offset="0.256381" stop-color="#D0E5AD" stop-opacity="0.55"/>
<stop offset="0.615464" stop-color="#D0E5AD" stop-opacity="0.99"/>
</linearGradient>
<linearGradient id="paint20_linear_108_1964" x1="-423.315" y1="-74.0989" x2="1521.11" y2="1076.27" gradientUnits="userSpaceOnUse">
<stop offset="0.256381" stop-color="#D0E5AD" stop-opacity="0.55"/>
<stop offset="0.615464" stop-color="#D0E5AD" stop-opacity="0.99"/>
</linearGradient>
<linearGradient id="paint21_linear_108_1964" x1="-423.752" y1="-71.7806" x2="1524.01" y2="1076.62" gradientUnits="userSpaceOnUse">
<stop offset="0.256381" stop-color="#D0E5AD" stop-opacity="0.55"/>
<stop offset="0.615464" stop-color="#D0E5AD" stop-opacity="0.99"/>
</linearGradient>
<linearGradient id="paint22_linear_108_1964" x1="-424.901" y1="-65.6724" x2="1523.02" y2="1082.63" gradientUnits="userSpaceOnUse">
<stop offset="0.256381" stop-color="#D0E5AD" stop-opacity="0.55"/>
<stop offset="0.615464" stop-color="#D0E5AD" stop-opacity="0.99"/>
</linearGradient>
<linearGradient id="paint23_linear_108_1964" x1="-426.675" y1="-56.2491" x2="1518.68" y2="1093.57" gradientUnits="userSpaceOnUse">
<stop offset="0.256381" stop-color="#D0E5AD" stop-opacity="0.55"/>
<stop offset="0.615464" stop-color="#D0E5AD" stop-opacity="0.99"/>
</linearGradient>
<linearGradient id="paint24_linear_108_1964" x1="-429.127" y1="-43.2779" x2="1510.67" y2="1109.87" gradientUnits="userSpaceOnUse">
<stop offset="0.256381" stop-color="#D0E5AD" stop-opacity="0.55"/>
<stop offset="0.615464" stop-color="#D0E5AD" stop-opacity="0.99"/>
</linearGradient>
<linearGradient id="paint25_linear_108_1964" x1="-425.999" y1="-27.3648" x2="1481.05" y2="1100.21" gradientUnits="userSpaceOnUse">
<stop offset="0.256381" stop-color="#D0E5AD" stop-opacity="0.55"/>
<stop offset="0.615464" stop-color="#D0E5AD" stop-opacity="0.99"/>
</linearGradient>
<linearGradient id="paint26_linear_108_1964" x1="-430.792" y1="-9.51124" x2="1472.07" y2="1130.74" gradientUnits="userSpaceOnUse">
<stop offset="0.256381" stop-color="#D0E5AD" stop-opacity="0.55"/>
<stop offset="0.615464" stop-color="#D0E5AD" stop-opacity="0.99"/>
</linearGradient>
<linearGradient id="paint27_linear_108_1964" x1="-439.086" y1="10.661" x2="1468.13" y2="1177.76" gradientUnits="userSpaceOnUse">
<stop offset="0.256381" stop-color="#D0E5AD" stop-opacity="0.55"/>
<stop offset="0.615464" stop-color="#D0E5AD" stop-opacity="0.99"/>
</linearGradient>
</defs>
</svg>
