<svg width="1440" height="931" viewBox="0 0 1440 931" fill="none" xmlns="http://www.w3.org/2000/svg">
<g clip-path="url(#clip0_3018_3649)">
<rect width="1440" height="931" fill="white"/>
<path d="M-139.707 136.183C382.875 162.777 862.381 239.234 733.718 436.858C597.994 645.195 1158.04 775.329 1737.14 854.577L1737.09 854.826C1157.57 775.538 597.063 645.298 732.898 436.778C861.436 239.399 382.405 163.006 -139.762 136.431L-139.707 136.183Z" fill="url(#paint0_linear_3018_3649)"/>
<path d="M-141.459 144.064C360.342 158.261 815.473 225.925 707.891 433.969C590.526 660.875 1157.04 784.817 1736.85 855.884L1736.8 856.133C1156.58 785.026 589.586 661.02 707.07 433.889C814.524 226.111 359.872 158.491 -141.515 144.312L-141.459 144.064Z" fill="url(#paint1_linear_3018_3649)"/>
<path d="M-142.875 150.433C338.077 153.173 769.164 213.38 682.067 431.061C583.565 677.105 1156.2 793.938 1736.72 856.509L1736.66 856.757C1155.73 794.167 582.621 677.271 681.243 431.002C768.21 213.586 337.597 153.444 -142.935 150.702L-142.875 150.433Z" fill="url(#paint2_linear_3018_3649)"/>
<path d="M-143.946 155.244C315.912 147.627 723.573 201.682 656.244 428.151C577.166 693.946 1155.51 802.685 1736.73 856.446L1736.67 856.695C1155.04 802.914 576.29 694.114 655.419 428.091C722.684 201.913 315.433 147.897 -144.006 155.513L-143.946 155.244Z" fill="url(#paint3_linear_3018_3649)"/>
<path d="M-144.646 158.395C293.998 141.589 678.763 190.881 630.422 425.24C571.395 711.423 1154.85 811.014 1736.91 855.657L1736.85 855.906C1154.45 811.247 570.519 711.592 629.592 425.201C677.869 191.132 293.51 141.901 -144.71 158.686L-144.646 158.395Z" fill="url(#paint4_linear_3018_3649)"/>
<path d="M-144.992 159.952C272.29 135.248 634.702 181.101 604.594 422.352C566.244 729.561 1154.3 818.827 1737.25 854.103L1737.2 854.352C1153.9 819.06 565.368 729.729 603.764 422.313C633.877 181.356 271.802 135.56 -145.057 160.242L-144.992 159.952Z" fill="url(#paint5_linear_3018_3649)"/>
<path d="M-144.946 159.743C250.878 128.52 591.609 172.308 578.771 419.441C561.711 748.374 1153.74 826.071 1737.78 851.717L1737.73 851.965C1153.34 826.304 560.9 748.567 577.936 419.423C590.775 172.604 250.38 128.874 -145.015 160.054L-144.946 159.743Z" fill="url(#paint6_linear_3018_3649)"/>
<path d="M-144.512 157.794C229.802 121.537 549.382 164.646 552.948 416.531C557.693 749.799 1093.31 825.203 1647.92 845.611C1678.13 846.715 1708.3 847.671 1738.5 848.481L1738.45 848.73C1708.24 847.92 1678.08 846.964 1647.94 845.863C1092.9 825.456 556.882 749.992 552.178 416.536C548.543 164.963 229.3 121.911 -144.586 158.126L-144.512 157.794Z" fill="url(#paint7_linear_3018_3649)"/>
<path d="M-143.715 154.205C209.08 114.528 508.205 158.227 527.12 413.641C551.928 749.025 1033.56 824.408 1555.35 840.718C1616.39 842.621 1677.96 843.73 1739.42 844.333L1739.37 844.582C1677.91 843.958 1616.41 842.873 1555.37 840.97C1033.15 824.661 551.117 749.217 526.286 413.622C507.436 158.547 208.647 114.906 -143.793 154.558L-143.715 154.205Z" fill="url(#paint8_linear_3018_3649)"/>
<path d="M-142.543 148.939C188.778 107.52 468.213 153.081 501.292 410.752C544.753 748.312 981.018 824.498 1471.32 837.339C1559.99 839.659 1650.38 839.922 1740.55 839.273L1740.49 839.522C1650.32 840.171 1560 839.911 1471.33 837.591C980.617 824.731 543.942 748.504 500.458 410.734C467.369 153.419 188.341 107.918 -142.626 149.312L-142.543 148.939Z" fill="url(#paint9_linear_3018_3649)"/>
<path d="M-141.017 142.074C168.932 100.657 429.321 149.264 475.469 407.842C536.201 747.826 934.531 825.312 1395.31 835.236C1508.4 837.676 1625.33 836.042 1741.89 833.217L1741.83 833.487C1625.27 836.312 1508.48 837.931 1395.39 835.491C934.126 825.565 535.39 748.018 474.704 407.827C428.542 149.625 168.49 101.076 -141.105 142.468L-141.017 142.074Z" fill="url(#paint10_linear_3018_3649)"/>
<path d="M-139.204 133.923C149.534 94.2968 391.776 146.934 449.71 404.955C526.616 747.585 893.073 826.759 1326.6 834.23C1461.29 836.573 1602.49 831.972 1743.45 826.207L1743.39 826.477C1602.43 832.242 1461.3 836.826 1326.61 834.503C892.667 827.012 525.805 747.777 448.803 404.954C390.997 147.295 149.152 94.7608 -139.297 134.337L-139.204 133.923Z" fill="url(#paint11_linear_3018_3649)"/>
<path d="M-137.111 124.507C130.785 88.471 355.579 146.072 423.883 402.066C516.068 747.592 855.756 828.737 1264.25 834.152C1418 836.196 1581.55 827.51 1745.24 818.16L1745.18 818.43C1581.49 827.759 1418.02 836.448 1264.26 834.404C855.355 828.969 515.257 747.785 422.984 402.024C354.869 146.437 130.333 88.9317 -137.208 124.943L-137.111 124.507Z" fill="url(#paint12_linear_3018_3649)"/>
<path d="M-134.847 114.325C112.593 83.5941 320.857 146.748 398.06 399.157C504.76 747.88 821.905 831.151 1207.45 834.859C1371.23 836.431 1547.42 823.645 1725.1 810.761L1747.32 809.143L1747.26 809.413L1725.39 811.005C1547.71 823.889 1371.52 836.676 1207.53 835.094C821.573 831.386 503.949 748.072 397.23 399.118C320.143 147.133 112.206 84.0789 -134.948 114.782L-134.847 114.325Z" fill="url(#paint13_linear_3018_3649)"/>
<path d="M-132.485 103.707C95.0511 79.8786 287.601 149 372.237 396.247C492.766 748.427 790.833 833.946 1155.53 836.214C1318.11 837.227 1494.01 821.682 1673.25 805.854C1698.61 803.608 1724.04 801.366 1749.54 799.147L1749.48 799.417C1724.13 801.621 1698.84 803.849 1673.55 806.077C1494.23 821.923 1318.34 837.468 1155.62 836.449C790.501 834.181 492.028 748.602 371.403 396.229C286.882 149.406 94.6593 80.384 -132.591 104.184L-132.485 103.707Z" fill="url(#paint14_linear_3018_3649)"/>
<path d="M-130.138 93.1491C78.1721 77.5753 255.948 152.835 346.409 393.356C480.227 749.219 762.128 837.08 1107.68 838.135C1268.49 838.625 1443.12 820.317 1623.03 801.461C1665.72 796.99 1708.7 792.491 1751.91 788.192L1751.84 788.482C1708.84 792.77 1665.94 797.252 1623.39 801.708C1443.41 820.582 1268.71 838.887 1107.77 838.391C761.649 837.351 479.411 749.432 345.501 393.355C255.298 153.244 77.7758 78.1015 -130.253 93.6676L-130.138 93.1491Z" fill="url(#paint15_linear_3018_3649)"/>
<path d="M-127.957 83.3398C61.9285 77.1269 225.911 158.193 320.581 390.467C467.218 750.243 735.313 840.515 1063.57 840.528C1222.11 840.534 1394.76 819.492 1574.59 797.572C1633.88 790.34 1693.97 783.02 1754.54 776.329L1754.48 776.62C1694.05 783.296 1634.11 790.602 1574.95 797.82C1395.12 819.74 1222.4 840.799 1063.65 840.804C734.903 840.789 466.402 750.456 319.738 390.49C225.266 158.582 61.5321 77.6531 -128.072 83.8582L-127.957 83.3398Z" fill="url(#paint16_linear_3018_3649)"/>
<path d="M-126.034 74.6919C46.4685 78.4967 197.52 164.949 294.758 387.557C453.753 751.434 710.056 844.17 1022.51 843.315C1178.56 842.89 1348.6 819.127 1527.51 794.126C1602.69 783.616 1679.39 772.905 1757.37 763.617L1757.31 763.907C1679.53 773.184 1602.98 783.881 1527.94 794.376C1348.89 819.392 1178.78 843.151 1022.59 843.591C709.642 844.465 453.002 751.671 293.915 387.58C196.87 165.358 46.0675 79.0438 -126.153 75.2311L-126.034 74.6919Z" fill="url(#paint17_linear_3018_3649)"/>
<path d="M-124.544 67.9935C31.6435 82.0339 170.658 172.992 268.935 384.647C439.961 752.84 686.213 848.059 984.166 846.46C1137.44 845.632 1304.44 819.212 1481.94 791.127C1572.21 776.841 1665.16 762.136 1760.37 750.136L1760.3 750.427C1665.24 762.412 1572.44 777.082 1482.39 791.336C1304.81 819.459 1137.73 845.897 984.318 846.718C685.808 848.312 439.219 753.036 268.092 384.67C170.008 173.401 31.2425 82.5808 -124.66 68.512L-124.544 67.9935Z" fill="url(#paint18_linear_3018_3649)"/>
<path d="M-123.598 63.7419C17.441 87.8 145.23 182.128 243.108 381.758C425.856 754.399 663.445 852.144 948.2 849.905C1098.55 848.73 1262.08 819.695 1437.61 788.521C1542.1 769.978 1650.81 750.67 1763.5 736.034L1763.44 736.324C1650.89 750.946 1542.4 770.223 1438.05 788.751C1262.45 819.943 1098.85 848.974 948.283 850.16C663.039 852.398 425.109 754.616 242.269 381.76C144.58 182.538 17.0907 88.4332 -123.746 64.4055L-123.598 63.7419Z" fill="url(#paint19_linear_3018_3649)"/>
<path d="M-123.345 62.6021C3.83164 95.9212 121.15 192.105 217.284 378.848C411.501 756.136 641.684 856.404 914.27 853.614C1061.55 852.106 1221.32 820.527 1394.45 786.306C1512.29 763.026 1636.26 738.504 1766.76 721.414L1766.69 721.725C1636.4 738.804 1512.58 763.27 1394.96 786.54C1221.75 820.778 1061.91 852.375 914.417 853.893C641.343 856.681 410.754 756.352 216.506 378.896C120.57 192.518 3.41681 96.5304 -123.484 63.2243L-123.345 62.6021Z" fill="url(#paint20_linear_3018_3649)"/>
<path d="M-123.714 64.2603C-9.25721 105.783 98.32 202.746 191.452 375.979C396.838 758.003 620.73 860.805 882.1 857.572C1026.3 855.794 1182.08 821.722 1352.4 784.477C1482.63 755.995 1621.38 725.671 1770.09 706.439L1770.02 706.75C1621.52 725.971 1482.99 756.264 1352.98 784.693C1182.51 821.973 1026.73 856.044 882.252 857.83C620.394 861.061 396.165 758.202 190.687 375.964C97.7439 203.138 -9.60292 106.396 -123.862 64.924L-123.714 64.2603Z" fill="url(#paint21_linear_3018_3649)"/>
<path d="M-124.886 69.5287C-21.9685 117.719 76.5356 213.71 165.628 373.07C382.082 759.972 600.518 865.326 851.566 861.713C992.684 859.664 1144.24 823.215 1311.46 782.954C1453.07 748.866 1606.03 712.085 1773.48 691.156L1773.41 691.467C1606.17 712.385 1453.5 749.117 1312.04 783.149C1144.69 823.425 993.117 859.915 851.723 861.951C600.182 865.583 381.34 760.168 164.864 373.055C75.9595 214.102 -22.3096 118.31 -125.024 70.1509L-124.886 69.5287Z" fill="url(#paint22_linear_3018_3649)"/>
<path d="M-126.758 77.9501C-34.3155 131.159 55.5534 224.839 139.806 370.161C367.083 762.098 580.901 870.001 822.387 866.044C960.408 863.787 1107.61 824.974 1271.49 781.77C1423.52 741.675 1589.99 697.837 1776.9 675.789L1776.83 676.1C1590.2 698.141 1423.95 741.926 1272.08 781.965C1108.12 825.187 960.846 864.017 822.544 866.282C580.565 870.258 366.341 762.294 139.036 370.167C54.9773 225.231 -34.6659 131.793 -126.915 78.6553L-126.758 77.9501Z" fill="url(#paint23_linear_3018_3649)"/>
<path d="M-129.382 89.7493C-46.4417 146.117 35.2901 235.872 114.047 367.274C351.922 764.319 561.819 874.783 794.503 870.517C929.428 868.052 1072.16 826.997 1232.51 780.881C1393.98 734.44 1573.2 682.903 1780.38 660.445L1780.31 660.756C1573.47 683.23 1394.4 734.712 1233.16 781.1C1072.74 827.234 929.926 868.327 794.72 870.8C561.547 875.063 351.314 764.542 113.273 367.3C34.7186 236.244 -46.8519 146.705 -129.539 90.4543L-129.382 89.7493Z" fill="url(#paint24_linear_3018_3649)"/>
<path d="M-132.591 104.185C-58.4067 161.922 15.4969 246.679 88.2245 364.364C336.605 766.618 543.206 879.651 767.634 875.144C899.526 872.495 1037.79 829.26 1194.3 780.303C1364.09 727.191 1511.64 685.467 1739.92 663.329L1739.85 663.64C1511.85 685.791 1364.52 727.442 1194.95 780.501C1038.3 829.494 900.023 872.77 767.781 875.424C542.801 879.905 335.927 766.838 87.3812 364.388C14.9208 247.071 -58.8169 162.51 -132.748 104.89L-132.591 104.185Z" fill="url(#paint25_linear_3018_3649)"/>
<path d="M-136.286 120.667C-70.292 178.186 -3.83583 257.186 62.3774 361.468C321.186 769.027 524.925 884.584 741.711 879.883C870.635 877.071 1004.33 831.734 1156.92 779.97C1333.99 719.905 1499.91 678.935 1750.28 657.935L1750.22 658.225C1500.19 679.241 1334.49 720.138 1157.58 780.148C1004.85 831.947 871.068 877.322 741.863 880.142C524.584 884.862 320.439 769.243 61.465 361.488C-4.47641 257.554 -70.633 178.778 -136.442 121.372L-136.286 120.667Z" fill="url(#paint26_linear_3018_3649)"/>
<path d="M-140.691 139.368C-82.2924 194.992 -23.1713 267.185 36.3824 358.508C305.581 771.418 507.037 889.522 716.734 884.605C842.751 881.639 971.856 834.246 1120.42 779.717C1303.74 712.419 1505.19 669.982 1778.7 650.974L1778.63 651.264C1505.46 670.309 1304.32 712.655 1121.15 779.898C972.505 834.465 843.323 881.897 716.955 884.867C506.701 889.778 304.904 771.638 35.5391 358.532C-23.8071 267.532 -82.707 195.602 -140.857 140.114L-140.691 139.368Z" fill="url(#paint27_linear_3018_3649)"/>
</g>
<defs>
<linearGradient id="paint0_linear_3018_3649" x1="-521.748" y1="177.845" x2="1255.34" y2="1759.68" gradientUnits="userSpaceOnUse">
<stop offset="0.257515" stop-color="#D0E5AD" stop-opacity="0.44"/>
<stop offset="0.971129" stop-color="#10923E" stop-opacity="0.62"/>
</linearGradient>
<linearGradient id="paint1_linear_3018_3649" x1="-523.138" y1="184.098" x2="1243.73" y2="1767.58" gradientUnits="userSpaceOnUse">
<stop offset="0.257515" stop-color="#D0E5AD" stop-opacity="0.44"/>
<stop offset="0.971129" stop-color="#10923E" stop-opacity="0.62"/>
</linearGradient>
<linearGradient id="paint2_linear_3018_3649" x1="-523.763" y1="186.909" x2="1238.54" y2="1771.11" gradientUnits="userSpaceOnUse">
<stop offset="0.257515" stop-color="#D0E5AD" stop-opacity="0.44"/>
<stop offset="0.971129" stop-color="#10923E" stop-opacity="0.62"/>
</linearGradient>
<linearGradient id="paint3_linear_3018_3649" x1="-523.87" y1="187.386" x2="1237.3" y2="1771.76" gradientUnits="userSpaceOnUse">
<stop offset="0.257515" stop-color="#D0E5AD" stop-opacity="0.44"/>
<stop offset="0.971129" stop-color="#10923E" stop-opacity="0.62"/>
</linearGradient>
<linearGradient id="paint4_linear_3018_3649" x1="-523.599" y1="186.17" x2="1238.47" y2="1770.4" gradientUnits="userSpaceOnUse">
<stop offset="0.257515" stop-color="#D0E5AD" stop-opacity="0.44"/>
<stop offset="0.971129" stop-color="#10923E" stop-opacity="0.62"/>
</linearGradient>
<linearGradient id="paint5_linear_3018_3649" x1="-523.072" y1="183.801" x2="1240.7" y2="1767.77" gradientUnits="userSpaceOnUse">
<stop offset="0.257515" stop-color="#D0E5AD" stop-opacity="0.44"/>
<stop offset="0.971129" stop-color="#10923E" stop-opacity="0.62"/>
</linearGradient>
<linearGradient id="paint6_linear_3018_3649" x1="-522.325" y1="180.44" x2="1243.57" y2="1764.08" gradientUnits="userSpaceOnUse">
<stop offset="0.257515" stop-color="#D0E5AD" stop-opacity="0.44"/>
<stop offset="0.971129" stop-color="#10923E" stop-opacity="0.62"/>
</linearGradient>
<linearGradient id="paint7_linear_3018_3649" x1="-521.445" y1="176.482" x2="1249.53" y2="1759.31" gradientUnits="userSpaceOnUse">
<stop offset="0.257515" stop-color="#D0E5AD" stop-opacity="0.44"/>
<stop offset="0.971129" stop-color="#10923E" stop-opacity="0.62"/>
</linearGradient>
<linearGradient id="paint8_linear_3018_3649" x1="-520.492" y1="172.198" x2="1258.94" y2="1753.65" gradientUnits="userSpaceOnUse">
<stop offset="0.257515" stop-color="#D0E5AD" stop-opacity="0.44"/>
<stop offset="0.971129" stop-color="#10923E" stop-opacity="0.62"/>
</linearGradient>
<linearGradient id="paint9_linear_3018_3649" x1="-519.466" y1="167.581" x2="1271.14" y2="1747.13" gradientUnits="userSpaceOnUse">
<stop offset="0.257515" stop-color="#D0E5AD" stop-opacity="0.44"/>
<stop offset="0.971129" stop-color="#10923E" stop-opacity="0.62"/>
</linearGradient>
<linearGradient id="paint10_linear_3018_3649" x1="-518.373" y1="162.668" x2="1285.49" y2="1739.86" gradientUnits="userSpaceOnUse">
<stop offset="0.257515" stop-color="#D0E5AD" stop-opacity="0.44"/>
<stop offset="0.971129" stop-color="#10923E" stop-opacity="0.62"/>
</linearGradient>
<linearGradient id="paint11_linear_3018_3649" x1="-517.253" y1="157.632" x2="1301.21" y2="1732.08" gradientUnits="userSpaceOnUse">
<stop offset="0.257515" stop-color="#D0E5AD" stop-opacity="0.44"/>
<stop offset="0.971129" stop-color="#10923E" stop-opacity="0.62"/>
</linearGradient>
<linearGradient id="paint12_linear_3018_3649" x1="-516.075" y1="152.334" x2="1318.22" y2="1723.64" gradientUnits="userSpaceOnUse">
<stop offset="0.257515" stop-color="#D0E5AD" stop-opacity="0.44"/>
<stop offset="0.971129" stop-color="#10923E" stop-opacity="0.62"/>
</linearGradient>
<linearGradient id="paint13_linear_3018_3649" x1="-514.888" y1="146.937" x2="1335.97" y2="1714.84" gradientUnits="userSpaceOnUse">
<stop offset="0.257515" stop-color="#D0E5AD" stop-opacity="0.44"/>
<stop offset="0.971129" stop-color="#10923E" stop-opacity="0.62"/>
</linearGradient>
<linearGradient id="paint14_linear_3018_3649" x1="-513.658" y1="141.41" x2="1354.31" y2="1705.53" gradientUnits="userSpaceOnUse">
<stop offset="0.257515" stop-color="#D0E5AD" stop-opacity="0.44"/>
<stop offset="0.971129" stop-color="#10923E" stop-opacity="0.62"/>
</linearGradient>
<linearGradient id="paint15_linear_3018_3649" x1="-512.39" y1="135.761" x2="1373.12" y2="1695.71" gradientUnits="userSpaceOnUse">
<stop offset="0.257515" stop-color="#D0E5AD" stop-opacity="0.44"/>
<stop offset="0.971129" stop-color="#10923E" stop-opacity="0.62"/>
</linearGradient>
<linearGradient id="paint16_linear_3018_3649" x1="-511.134" y1="130.112" x2="1391.95" y2="1685.74" gradientUnits="userSpaceOnUse">
<stop offset="0.257515" stop-color="#D0E5AD" stop-opacity="0.44"/>
<stop offset="0.971129" stop-color="#10923E" stop-opacity="0.62"/>
</linearGradient>
<linearGradient id="paint17_linear_3018_3649" x1="-509.836" y1="124.276" x2="1411.05" y2="1675.3" gradientUnits="userSpaceOnUse">
<stop offset="0.257515" stop-color="#D0E5AD" stop-opacity="0.44"/>
<stop offset="0.971129" stop-color="#10923E" stop-opacity="0.62"/>
</linearGradient>
<linearGradient id="paint18_linear_3018_3649" x1="-508.622" y1="118.816" x2="1429.29" y2="1665.22" gradientUnits="userSpaceOnUse">
<stop offset="0.257515" stop-color="#D0E5AD" stop-opacity="0.44"/>
<stop offset="0.971129" stop-color="#10923E" stop-opacity="0.62"/>
</linearGradient>
<linearGradient id="paint19_linear_3018_3649" x1="-507.872" y1="115.442" x2="1443.62" y2="1658.01" gradientUnits="userSpaceOnUse">
<stop offset="0.257515" stop-color="#D0E5AD" stop-opacity="0.44"/>
<stop offset="0.971129" stop-color="#10923E" stop-opacity="0.62"/>
</linearGradient>
<linearGradient id="paint20_linear_3018_3649" x1="-507.752" y1="114.904" x2="1452.86" y2="1654.81" gradientUnits="userSpaceOnUse">
<stop offset="0.257515" stop-color="#D0E5AD" stop-opacity="0.44"/>
<stop offset="0.971129" stop-color="#10923E" stop-opacity="0.62"/>
</linearGradient>
<linearGradient id="paint21_linear_3018_3649" x1="-508.198" y1="116.91" x2="1457.63" y2="1655.28" gradientUnits="userSpaceOnUse">
<stop offset="0.257515" stop-color="#D0E5AD" stop-opacity="0.44"/>
<stop offset="0.971129" stop-color="#10923E" stop-opacity="0.62"/>
</linearGradient>
<linearGradient id="paint22_linear_3018_3649" x1="-509.374" y1="122.195" x2="1456.71" y2="1660.49" gradientUnits="userSpaceOnUse">
<stop offset="0.257515" stop-color="#D0E5AD" stop-opacity="0.44"/>
<stop offset="0.971129" stop-color="#10923E" stop-opacity="0.62"/>
</linearGradient>
<linearGradient id="paint23_linear_3018_3649" x1="-511.186" y1="130.348" x2="1450.88" y2="1669.83" gradientUnits="userSpaceOnUse">
<stop offset="0.257515" stop-color="#D0E5AD" stop-opacity="0.44"/>
<stop offset="0.971129" stop-color="#10923E" stop-opacity="0.62"/>
</linearGradient>
<linearGradient id="paint24_linear_3018_3649" x1="-513.695" y1="141.571" x2="1439.69" y2="1683.66" gradientUnits="userSpaceOnUse">
<stop offset="0.257515" stop-color="#D0E5AD" stop-opacity="0.44"/>
<stop offset="0.971129" stop-color="#10923E" stop-opacity="0.62"/>
</linearGradient>
<linearGradient id="paint25_linear_3018_3649" x1="-509.508" y1="155.526" x2="1413.75" y2="1665.11" gradientUnits="userSpaceOnUse">
<stop offset="0.257515" stop-color="#D0E5AD" stop-opacity="0.44"/>
<stop offset="0.971129" stop-color="#10923E" stop-opacity="0.62"/>
</linearGradient>
<linearGradient id="paint26_linear_3018_3649" x1="-514.639" y1="170.93" x2="1397.33" y2="1693.22" gradientUnits="userSpaceOnUse">
<stop offset="0.257515" stop-color="#D0E5AD" stop-opacity="0.44"/>
<stop offset="0.971129" stop-color="#10923E" stop-opacity="0.62"/>
</linearGradient>
<linearGradient id="paint27_linear_3018_3649" x1="-523.65" y1="188.243" x2="1380.87" y2="1739.72" gradientUnits="userSpaceOnUse">
<stop offset="0.257515" stop-color="#D0E5AD" stop-opacity="0.44"/>
<stop offset="0.971129" stop-color="#10923E" stop-opacity="0.62"/>
</linearGradient>
<clipPath id="clip0_3018_3649">
<rect width="1440" height="931" fill="white"/>
</clipPath>
</defs>
</svg>
