<svg width="128" height="119" viewBox="0 0 128 119" fill="none" xmlns="http://www.w3.org/2000/svg">
<g clip-path="url(#clip0_4933_7170)">
<g filter="url(#filter0_d_4933_7170)">
<path d="M66.8741 17.2024C84.2152 5.06006 108.198 16.2433 110.043 37.3323L113.502 76.8741C115.347 97.963 93.671 113.141 74.485 104.194L38.511 87.4194C19.325 78.4728 17.0186 52.1116 34.3597 39.9693L66.8741 17.2024Z" fill="white"/>
</g>
<path d="M52.847 34.8905C52.5066 34.977 52.1986 35.219 51.9716 35.5821C51.4852 36.3341 51.7122 37.3455 52.4742 37.8036C52.7822 37.9938 52.8875 38.0024 54.5654 38.0024C55.53 38.0024 56.3244 38.0284 56.3244 38.063C56.3325 38.1062 56.981 45.4019 57.7753 54.2795L59.2182 70.4355L59.4532 70.7812C59.891 71.4469 60.0774 71.4987 62.1849 71.5247C63.879 71.5506 64.033 71.5679 63.9763 71.6975C63.725 72.3286 63.6845 72.5792 63.7169 73.2708C63.7574 74.1179 63.9763 74.6711 64.5113 75.2935C65.565 76.5124 67.4212 76.5988 68.6209 75.4751C69.6017 74.5501 69.8773 73.0633 69.3261 71.6457C69.2856 71.5679 70.2745 71.5419 74.1085 71.5419C76.7672 71.5419 78.9396 71.5679 78.9396 71.6024C78.9315 71.6457 78.8666 71.8877 78.7775 72.147C78.2668 73.703 79.0855 75.4923 80.5931 76.0888C81.2335 76.3395 82.1738 76.3135 82.7655 76.0196C84.2894 75.2676 84.9703 73.461 84.338 71.8531L84.2164 71.5419H85.8295C87.6209 71.5419 88.1477 71.4641 88.5206 71.127C88.8286 70.8504 89.0718 70.3058 89.0718 69.8995C89.0718 69.4587 88.8124 68.9227 88.4558 68.6375L88.1559 68.3868L75.0974 68.3436L62.039 68.3004L61.8607 66.3986C61.7715 65.3527 61.6661 64.2722 61.6418 64.0042L61.5932 63.5028H75.4784H89.3636L91.2523 54.0979C92.2898 48.9287 93.1571 44.6325 93.1733 44.5461C93.2139 44.4078 92.9707 44.3992 88.9178 44.3992H84.6136V41.2008V38.0024H79.3854H74.1572L74.1409 36.4206L74.1166 34.8473L68.1427 34.8214L62.1606 34.8041V39.6016V44.3992H61.0258C60.4016 44.3992 59.891 44.3819 59.891 44.3559C59.891 43.7508 59.129 36.0143 59.0479 35.8155C58.9102 35.4697 58.667 35.2017 58.3265 35.0029C58.0996 34.8646 57.7834 34.8473 55.5949 34.83C54.2331 34.8214 53.001 34.8473 52.847 34.8905Z" fill="white"/>
<path d="M52.847 34.8905C52.5066 34.977 52.1986 35.219 51.9716 35.5821C51.4852 36.3341 51.7122 37.3455 52.4742 37.8036C52.7822 37.9938 52.8875 38.0024 54.5654 38.0024C55.53 38.0024 56.3244 38.0284 56.3244 38.063C56.3325 38.1062 56.981 45.4019 57.7753 54.2795L59.2182 70.4355L59.4532 70.7812C59.891 71.4469 60.0774 71.4987 62.1849 71.5247C63.879 71.5506 64.033 71.5679 63.9763 71.6975C63.725 72.3286 63.6845 72.5792 63.7169 73.2708C63.7574 74.1179 63.9763 74.6711 64.5113 75.2935C65.565 76.5124 67.4212 76.5988 68.6209 75.4751C69.6017 74.5501 69.8773 73.0633 69.3261 71.6457C69.2856 71.5679 70.2745 71.5419 74.1085 71.5419C76.7672 71.5419 78.9396 71.5679 78.9396 71.6024C78.9315 71.6457 78.8666 71.8877 78.7775 72.147C78.2668 73.703 79.0855 75.4923 80.5931 76.0888C81.2335 76.3395 82.1738 76.3135 82.7655 76.0196C84.2894 75.2676 84.9703 73.461 84.338 71.8531L84.2164 71.5419H85.8295C87.6209 71.5419 88.1477 71.4641 88.5206 71.127C88.8286 70.8504 89.0718 70.3058 89.0718 69.8995C89.0718 69.4587 88.8124 68.9227 88.4558 68.6375L88.1559 68.3868L75.0974 68.3436L62.039 68.3004L61.8607 66.3986C61.7715 65.3527 61.6661 64.2722 61.6418 64.0042L61.5932 63.5028H75.4784H89.3636L91.2523 54.0979C92.2898 48.9287 93.1571 44.6325 93.1733 44.5461C93.2139 44.4078 92.9707 44.3992 88.9178 44.3992H84.6136V41.2008V38.0024H79.3854H74.1572L74.1409 36.4206L74.1166 34.8473L68.1427 34.8214L62.1606 34.8041V39.6016V44.3992H61.0258C60.4016 44.3992 59.891 44.3819 59.891 44.3559C59.891 43.7508 59.129 36.0143 59.0479 35.8155C58.9102 35.4697 58.667 35.2017 58.3265 35.0029C58.0996 34.8646 57.7834 34.8473 55.5949 34.83C54.2331 34.8214 53.001 34.8473 52.847 34.8905Z" fill="url(#paint0_radial_4933_7170)"/>
</g>
<defs>
<filter id="filter0_d_4933_7170" x="10.7142" y="9.44531" width="105.648" height="109.284" filterUnits="userSpaceOnUse" color-interpolation-filters="sRGB">
<feFlood flood-opacity="0" result="BackgroundImageFix"/>
<feColorMatrix in="SourceAlpha" type="matrix" values="0 0 0 0 0 0 0 0 0 0 0 0 0 0 0 0 0 0 127 0" result="hardAlpha"/>
<feOffset dx="-4.58333" dy="4.58333"/>
<feGaussianBlur stdDeviation="3.66667"/>
<feComposite in2="hardAlpha" operator="out"/>
<feColorMatrix type="matrix" values="0 0 0 0 0 0 0 0 0 0 0 0 0 0 0 0 0 0 0.25 0"/>
<feBlend mode="normal" in2="BackgroundImageFix" result="effect1_dropShadow_4933_7170"/>
<feBlend mode="normal" in="SourceGraphic" in2="effect1_dropShadow_4933_7170" result="shape"/>
</filter>
<radialGradient id="paint0_radial_4933_7170" cx="0" cy="0" r="1" gradientUnits="userSpaceOnUse" gradientTransform="translate(59.7779 67.9738) rotate(-34.773) scale(77.9627 77.9741)">
<stop stop-color="#00862D"/>
<stop offset="0.627261" stop-color="#0033CC"/>
</radialGradient>
<clipPath id="clip0_4933_7170">
<rect width="128" height="118" fill="white" transform="translate(0 0.953125)"/>
</clipPath>
</defs>
</svg>
