<svg width="136" height="119" viewBox="0 0 136 119" fill="none" xmlns="http://www.w3.org/2000/svg">
<g clip-path="url(#clip0_4933_7142)">
<g filter="url(#filter0_d_4933_7142)">
<path d="M74.8741 17.2024C92.2152 5.06005 116.198 16.2433 118.043 37.3323L121.502 76.874C123.347 97.963 101.671 113.141 82.485 104.194L46.5111 87.4194C27.325 78.4728 25.0186 52.1116 42.3597 39.9692L74.8741 17.2024Z" fill="white"/>
</g>
<path d="M77.52 35.1043C73.9943 36.1652 70.2043 39.8146 69.1906 43.0396C68.9703 43.8035 69.1025 44.0156 69.7195 44.0156C70.2483 43.9732 70.9094 43.2094 71.6145 41.7666C72.2756 40.4087 73.4214 39.0508 74.5672 38.2021C79.8116 34.4254 87.3036 36.1652 90.1241 41.7666C90.8293 43.2094 91.4903 43.9732 92.0192 44.0156C92.9887 44.0156 92.7684 42.9972 91.1818 40.3238C90.0801 38.4567 88.3172 37.0139 85.7171 35.7408C83.9543 34.8497 79.4591 34.5102 77.52 35.1043Z" fill="white"/>
<path d="M77.52 35.1043C73.9943 36.1652 70.2043 39.8146 69.1906 43.0396C68.9703 43.8035 69.1025 44.0156 69.7195 44.0156C70.2483 43.9732 70.9094 43.2094 71.6145 41.7666C72.2756 40.4087 73.4214 39.0508 74.5672 38.2021C79.8116 34.4254 87.3036 36.1652 90.1241 41.7666C90.8293 43.2094 91.4903 43.9732 92.0192 44.0156C92.9887 44.0156 92.7684 42.9972 91.1818 40.3238C90.0801 38.4567 88.3172 37.0139 85.7171 35.7408C83.9543 34.8497 79.4591 34.5102 77.52 35.1043Z" fill="url(#paint0_radial_4933_7142)"/>
<path d="M78.4455 42.2714C77.7404 42.4411 76.5505 42.9079 75.8013 43.2898C74.5232 43.9688 74.6995 43.9688 80.8694 43.9688H87.2596L85.6731 43.1625C83.8221 42.2289 80.3405 41.8046 78.4455 42.2714Z" fill="white"/>
<path d="M78.4455 42.2714C77.7404 42.4411 76.5505 42.9079 75.8013 43.2898C74.5232 43.9688 74.6995 43.9688 80.8694 43.9688H87.2596L85.6731 43.1625C83.8221 42.2289 80.3405 41.8046 78.4455 42.2714Z" fill="url(#paint1_radial_4933_7142)"/>
<path d="M64.0342 46.8943C64.8275 47.5309 65.4445 48.2947 65.4445 48.5493C65.4445 48.8463 64.6071 49.6102 63.5935 50.2467L61.6985 51.4349L64.7394 51.5622C68.3972 51.7319 68.9701 51.5622 68.9701 50.2891C68.9701 49.7375 69.3668 48.5069 69.8515 47.4884L70.6889 45.7062H66.6344L62.5799 45.7486L64.0342 46.8943Z" fill="white"/>
<path d="M64.0342 46.8943C64.8275 47.5309 65.4445 48.2947 65.4445 48.5493C65.4445 48.8463 64.6071 49.6102 63.5935 50.2467L61.6985 51.4349L64.7394 51.5622C68.3972 51.7319 68.9701 51.5622 68.9701 50.2891C68.9701 49.7375 69.3668 48.5069 69.8515 47.4884L70.6889 45.7062H66.6344L62.5799 45.7486L64.0342 46.8943Z" fill="url(#paint2_radial_4933_7142)"/>
<path d="M71.9669 46.6411C71.2177 47.7444 70.2922 50.2057 70.2922 51.0544C70.2922 51.5211 72.2754 51.6484 80.9132 51.6484H91.5783L91.2698 50.2905C91.0935 49.5267 90.6087 48.2537 90.168 47.405L89.3748 45.9197L81.0014 45.7924C72.7161 45.7076 72.5839 45.7076 71.9669 46.6411Z" fill="white"/>
<path d="M71.9669 46.6411C71.2177 47.7444 70.2922 50.2057 70.2922 51.0544C70.2922 51.5211 72.2754 51.6484 80.9132 51.6484H91.5783L91.2698 50.2905C91.0935 49.5267 90.6087 48.2537 90.168 47.405L89.3748 45.9197L81.0014 45.7924C72.7161 45.7076 72.5839 45.7076 71.9669 46.6411Z" fill="url(#paint3_radial_4933_7142)"/>
<path d="M91.8868 47.4884C92.3716 48.5069 92.7682 49.7375 92.7682 50.2891C92.7682 51.5622 93.3411 51.7319 96.999 51.5622L100.04 51.4349L98.1889 50.2467C97.1312 49.6102 96.2938 48.8463 96.2938 48.5493C96.2938 48.2947 96.9108 47.5309 97.7041 46.8943L99.1584 45.7486L95.1039 45.7062H91.0494L91.8868 47.4884Z" fill="white"/>
<path d="M91.8868 47.4884C92.3716 48.5069 92.7682 49.7375 92.7682 50.2891C92.7682 51.5622 93.3411 51.7319 96.999 51.5622L100.04 51.4349L98.1889 50.2467C97.1312 49.6102 96.2938 48.8463 96.2938 48.5493C96.2938 48.2947 96.9108 47.5309 97.7041 46.8943L99.1584 45.7486L95.1039 45.7062H91.0494L91.8868 47.4884Z" fill="url(#paint4_radial_4933_7142)"/>
<path d="M61.0374 48.2533C61.0374 49.7809 61.1255 49.9506 61.8306 49.5687C63.6816 48.5079 63.7257 48.423 62.3595 47.4894L61.0374 46.5134V48.2533Z" fill="white"/>
<path d="M61.0374 48.2533C61.0374 49.7809 61.1255 49.9506 61.8306 49.5687C63.6816 48.5079 63.7257 48.423 62.3595 47.4894L61.0374 46.5134V48.2533Z" fill="url(#paint5_radial_4933_7142)"/>
<path d="M99.2906 47.531L98.0566 48.507L99.3788 49.2284L100.701 49.9922V48.2948C100.701 47.3188 100.657 46.555 100.613 46.555C100.525 46.5974 99.9517 47.0218 99.2906 47.531Z" fill="white"/>
<path d="M99.2906 47.531L98.0566 48.507L99.3788 49.2284L100.701 49.9922V48.2948C100.701 47.3188 100.657 46.555 100.613 46.555C100.525 46.5974 99.9517 47.0218 99.2906 47.531Z" fill="url(#paint6_radial_4933_7142)"/>
<path d="M59.7153 65.0155V77.1094H80.8692H102.023V65.0155V52.9215H80.8692H59.7153V65.0155ZM85.4966 55.4252C87.7001 56.3587 89.8596 58.3956 91.1376 60.7295C92.4597 63.1483 92.4597 67.7313 91.1376 70.1501C89.8596 72.4415 86.6865 75.1149 84.483 75.7515C80.4725 76.8972 76.5503 76.1334 73.5535 73.5873C70.6448 71.1261 69.6753 69.0468 69.6312 65.4398C69.6312 62.9361 69.8516 62.1299 70.9092 60.2203C72.2314 57.9288 74.1264 56.2739 76.5503 55.2554C78.6216 54.4067 83.3371 54.4916 85.4966 55.4252Z" fill="white"/>
<path d="M59.7153 65.0155V77.1094H80.8692H102.023V65.0155V52.9215H80.8692H59.7153V65.0155ZM85.4966 55.4252C87.7001 56.3587 89.8596 58.3956 91.1376 60.7295C92.4597 63.1483 92.4597 67.7313 91.1376 70.1501C89.8596 72.4415 86.6865 75.1149 84.483 75.7515C80.4725 76.8972 76.5503 76.1334 73.5535 73.5873C70.6448 71.1261 69.6753 69.0468 69.6312 65.4398C69.6312 62.9361 69.8516 62.1299 70.9092 60.2203C72.2314 57.9288 74.1264 56.2739 76.5503 55.2554C78.6216 54.4067 83.3371 54.4916 85.4966 55.4252Z" fill="url(#paint7_radial_4933_7142)"/>
<path d="M78.8421 56.824C78.6658 57.121 78.2251 57.8 77.9166 58.2667C77.3437 59.1154 77.3878 59.2003 78.6658 59.37C79.9439 59.5398 79.988 59.4974 79.988 57.9273C79.988 56.3147 79.4591 55.8055 78.8421 56.824Z" fill="white"/>
<path d="M78.8421 56.824C78.6658 57.121 78.2251 57.8 77.9166 58.2667C77.3437 59.1154 77.3878 59.2003 78.6658 59.37C79.9439 59.5398 79.988 59.4974 79.988 57.9273C79.988 56.3147 79.4591 55.8055 78.8421 56.824Z" fill="url(#paint8_radial_4933_7142)"/>
<path d="M81.7507 57.8854C81.7507 59.4979 81.7948 59.5403 83.0728 59.3706L84.395 59.2008L83.5576 57.8854C82.2796 55.9758 81.7507 55.9758 81.7507 57.8854Z" fill="white"/>
<path d="M81.7507 57.8854C81.7507 59.4979 81.7948 59.5403 83.0728 59.3706L84.395 59.2008L83.5576 57.8854C82.2796 55.9758 81.7507 55.9758 81.7507 57.8854Z" fill="url(#paint9_radial_4933_7142)"/>
<path d="M75.4487 57.5464C74.391 58.1829 74.3028 58.3527 74.9639 58.6073C75.6249 58.8619 76.8589 57.8859 76.903 57.0372C76.903 56.6128 76.8589 56.6553 75.4487 57.5464Z" fill="white"/>
<path d="M75.4487 57.5464C74.391 58.1829 74.3028 58.3527 74.9639 58.6073C75.6249 58.8619 76.8589 57.8859 76.903 57.0372C76.903 56.6128 76.8589 56.6553 75.4487 57.5464Z" fill="url(#paint10_radial_4933_7142)"/>
<path d="M84.8354 57.087C84.8354 57.2568 85.0999 57.766 85.4084 58.1903C85.8491 58.7844 86.2016 58.8693 86.7305 58.6147C87.3915 58.2752 87.3034 58.1055 86.1576 57.4689C85.4084 57.0446 84.8354 56.8748 84.8354 57.087Z" fill="white"/>
<path d="M84.8354 57.087C84.8354 57.2568 85.0999 57.766 85.4084 58.1903C85.8491 58.7844 86.2016 58.8693 86.7305 58.6147C87.3915 58.2752 87.3034 58.1055 86.1576 57.4689C85.4084 57.0446 84.8354 56.8748 84.8354 57.087Z" fill="url(#paint11_radial_4933_7142)"/>
<path d="M72.2752 60.7231C71.8786 61.2748 71.4379 62.4205 71.3057 63.2692L71.0413 64.7969H72.8041C74.4347 64.7969 74.611 64.712 74.8754 63.4814C75.3161 61.3172 75.1839 60.2563 74.4347 59.9593C73.2889 59.535 72.9804 59.6623 72.2752 60.7231Z" fill="white"/>
<path d="M72.2752 60.7231C71.8786 61.2748 71.4379 62.4205 71.3057 63.2692L71.0413 64.7969H72.8041C74.4347 64.7969 74.611 64.712 74.8754 63.4814C75.3161 61.3172 75.1839 60.2563 74.4347 59.9593C73.2889 59.535 72.9804 59.6623 72.2752 60.7231Z" fill="url(#paint12_radial_4933_7142)"/>
<path d="M87.171 60.0017C86.554 60.2139 86.4659 61.4445 86.8625 63.4814C87.1269 64.712 87.3032 64.7969 88.9338 64.7969H90.6967L90.4322 63.2692C89.9475 60.5534 88.7576 59.3652 87.171 60.0017Z" fill="white"/>
<path d="M87.171 60.0017C86.554 60.2139 86.4659 61.4445 86.8625 63.4814C87.1269 64.712 87.3032 64.7969 88.9338 64.7969H90.6967L90.4322 63.2692C89.9475 60.5534 88.7576 59.3652 87.171 60.0017Z" fill="url(#paint13_radial_4933_7142)"/>
<path d="M76.7266 61.487C76.5944 62.0386 76.4622 62.9722 76.4622 63.6087C76.4622 64.712 76.5944 64.7969 78.225 64.7969H79.9878V62.8873C79.9878 61.2748 79.8556 60.9777 79.1505 60.9777C78.6657 60.9777 78.0046 60.8504 77.6521 60.7231C77.2554 60.5958 76.9029 60.8504 76.7266 61.487Z" fill="white"/>
<path d="M76.7266 61.487C76.5944 62.0386 76.4622 62.9722 76.4622 63.6087C76.4622 64.712 76.5944 64.7969 78.225 64.7969H79.9878V62.8873C79.9878 61.2748 79.8556 60.9777 79.1505 60.9777C78.6657 60.9777 78.0046 60.8504 77.6521 60.7231C77.2554 60.5958 76.9029 60.8504 76.7266 61.487Z" fill="url(#paint14_radial_4933_7142)"/>
<path d="M82.9847 60.8504C81.8389 61.0202 81.7507 61.1899 81.7507 62.9297V64.7969H83.5136C85.1442 64.7969 85.2764 64.712 85.2764 63.6087C85.2764 62.1659 84.8357 60.5534 84.439 60.5958C84.3068 60.6383 83.6458 60.7656 82.9847 60.8504Z" fill="white"/>
<path d="M82.9847 60.8504C81.8389 61.0202 81.7507 61.1899 81.7507 62.9297V64.7969H83.5136C85.1442 64.7969 85.2764 64.712 85.2764 63.6087C85.2764 62.1659 84.8357 60.5534 84.439 60.5958C84.3068 60.6383 83.6458 60.7656 82.9847 60.8504Z" fill="url(#paint15_radial_4933_7142)"/>
<path d="M71.1736 66.9206C71.1736 67.7693 72.7601 71.1641 73.1568 71.1641C73.2449 71.1641 73.8178 70.9943 74.3907 70.7821C75.4044 70.4002 75.4484 70.2729 75.0077 68.2361C74.567 66.0719 74.567 66.0719 72.8923 66.0719C71.438 66.0719 71.1736 66.1992 71.1736 66.9206Z" fill="white"/>
<path d="M71.1736 66.9206C71.1736 67.7693 72.7601 71.1641 73.1568 71.1641C73.2449 71.1641 73.8178 70.9943 74.3907 70.7821C75.4044 70.4002 75.4484 70.2729 75.0077 68.2361C74.567 66.0719 74.567 66.0719 72.8923 66.0719C71.438 66.0719 71.1736 66.1992 71.1736 66.9206Z" fill="url(#paint16_radial_4933_7142)"/>
<path d="M76.4622 67.2183C76.4622 69.6795 76.8147 70.1463 78.4894 69.9765C79.9437 69.8068 79.9878 69.7219 79.9878 67.9397V66.0725H78.225C76.5944 66.0725 76.4622 66.1574 76.4622 67.2183Z" fill="white"/>
<path d="M76.4622 67.2183C76.4622 69.6795 76.8147 70.1463 78.4894 69.9765C79.9437 69.8068 79.9878 69.7219 79.9878 67.9397V66.0725H78.225C76.5944 66.0725 76.4622 66.1574 76.4622 67.2183Z" fill="url(#paint17_radial_4933_7142)"/>
<path d="M81.7507 67.9397C81.7507 69.7219 81.7948 69.8068 83.2491 69.9765C84.9238 70.1463 85.2764 69.6795 85.2764 67.2183C85.2764 66.1574 85.1442 66.0725 83.5136 66.0725H81.7507V67.9397Z" fill="white"/>
<path d="M81.7507 67.9397C81.7507 69.7219 81.7948 69.8068 83.2491 69.9765C84.9238 70.1463 85.2764 69.6795 85.2764 67.2183C85.2764 66.1574 85.1442 66.0725 83.5136 66.0725H81.7507V67.9397Z" fill="url(#paint18_radial_4933_7142)"/>
<path d="M86.7305 68.2438C86.2898 70.2806 86.3339 70.4079 87.3475 70.7898C88.8018 71.2991 88.6696 71.3839 89.6832 69.4744C91.0935 66.8434 90.9172 66.0796 88.8459 66.0796C87.1712 66.0796 87.1712 66.0796 86.7305 68.2438Z" fill="white"/>
<path d="M86.7305 68.2438C86.2898 70.2806 86.3339 70.4079 87.3475 70.7898C88.8018 71.2991 88.6696 71.3839 89.6832 69.4744C91.0935 66.8434 90.9172 66.0796 88.8459 66.0796C87.1712 66.0796 87.1712 66.0796 86.7305 68.2438Z" fill="url(#paint19_radial_4933_7142)"/>
<path d="M78.0485 71.5484C77.2553 71.8454 77.2994 71.9727 78.5774 73.3307L79.9436 74.7734L79.9877 72.9487C79.9877 71.124 79.7232 70.9119 78.0485 71.5484Z" fill="white"/>
<path d="M78.0485 71.5484C77.2553 71.8454 77.2994 71.9727 78.5774 73.3307L79.9436 74.7734L79.9877 72.9487C79.9877 71.124 79.7232 70.9119 78.0485 71.5484Z" fill="url(#paint20_radial_4933_7142)"/>
<path d="M81.7507 72.9487L81.7948 74.7734L83.161 73.3307C84.439 71.9727 84.4831 71.8454 83.6898 71.5484C82.0152 70.9119 81.7507 71.124 81.7507 72.9487Z" fill="white"/>
<path d="M81.7507 72.9487L81.7948 74.7734L83.161 73.3307C84.439 71.9727 84.4831 71.8454 83.6898 71.5484C82.0152 70.9119 81.7507 71.124 81.7507 72.9487Z" fill="url(#paint21_radial_4933_7142)"/>
<path d="M74.6995 72.3984C74.6995 72.8652 76.5504 74.2231 76.8148 73.9685C76.903 73.8412 76.7708 73.3744 76.4623 72.9076C75.9775 72.0165 74.6995 71.677 74.6995 72.3984Z" fill="white"/>
<path d="M74.6995 72.3984C74.6995 72.8652 76.5504 74.2231 76.8148 73.9685C76.903 73.8412 76.7708 73.3744 76.4623 72.9076C75.9775 72.0165 74.6995 71.677 74.6995 72.3984Z" fill="url(#paint22_radial_4933_7142)"/>
<path d="M85.2761 72.9076C84.9676 73.3744 84.8354 73.8412 84.9235 73.9685C85.188 74.2231 87.0389 72.8652 87.0389 72.3984C87.0389 71.677 85.7609 72.0165 85.2761 72.9076Z" fill="white"/>
<path d="M85.2761 72.9076C84.9676 73.3744 84.8354 73.8412 84.9235 73.9685C85.188 74.2231 87.0389 72.8652 87.0389 72.3984C87.0389 71.677 85.7609 72.0165 85.2761 72.9076Z" fill="url(#paint23_radial_4933_7142)"/>
</g>
<defs>
<filter id="filter0_d_4933_7142" x="18.7142" y="9.44531" width="105.648" height="109.284" filterUnits="userSpaceOnUse" color-interpolation-filters="sRGB">
<feFlood flood-opacity="0" result="BackgroundImageFix"/>
<feColorMatrix in="SourceAlpha" type="matrix" values="0 0 0 0 0 0 0 0 0 0 0 0 0 0 0 0 0 0 127 0" result="hardAlpha"/>
<feOffset dx="-4.58333" dy="4.58333"/>
<feGaussianBlur stdDeviation="3.66667"/>
<feComposite in2="hardAlpha" operator="out"/>
<feColorMatrix type="matrix" values="0 0 0 0 0 0 0 0 0 0 0 0 0 0 0 0 0 0 0.25 0"/>
<feBlend mode="normal" in2="BackgroundImageFix" result="effect1_dropShadow_4933_7142"/>
<feBlend mode="normal" in="SourceGraphic" in2="effect1_dropShadow_4933_7142" result="shape"/>
</filter>
<radialGradient id="paint0_radial_4933_7142" cx="0" cy="0" r="1" gradientUnits="userSpaceOnUse" gradientTransform="translate(73.6626 42.174) rotate(-15.2145) scale(37.6303 20.344)">
<stop stop-color="#00862D"/>
<stop offset="0.627261" stop-color="#0033CC"/>
</radialGradient>
<radialGradient id="paint1_radial_4933_7142" cx="0" cy="0" r="1" gradientUnits="userSpaceOnUse" gradientTransform="translate(77.5179 43.5911) rotate(-6.18743) scale(18.7884 4.29805)">
<stop stop-color="#00862D"/>
<stop offset="0.627261" stop-color="#0033CC"/>
</radialGradient>
<radialGradient id="paint2_radial_4933_7142" cx="0" cy="0" r="1" gradientUnits="userSpaceOnUse" gradientTransform="translate(63.4467 50.4351) rotate(-24.5369) scale(15.2647 12.3112)">
<stop stop-color="#00862D"/>
<stop offset="0.627261" stop-color="#0033CC"/>
</radialGradient>
<radialGradient id="paint3_radial_4933_7142" cx="0" cy="0" r="1" gradientUnits="userSpaceOnUse" gradientTransform="translate(74.4315 50.4704) rotate(-10.8767) scale(33.4791 13.2446)">
<stop stop-color="#00862D"/>
<stop offset="0.627261" stop-color="#0033CC"/>
</radialGradient>
<radialGradient id="paint4_radial_4933_7142" cx="0" cy="0" r="1" gradientUnits="userSpaceOnUse" gradientTransform="translate(92.7977 50.4351) rotate(-24.5369) scale(15.2647 12.3112)">
<stop stop-color="#00862D"/>
<stop offset="0.627261" stop-color="#0033CC"/>
</radialGradient>
<radialGradient id="paint5_radial_4933_7142" cx="0" cy="0" r="1" gradientUnits="userSpaceOnUse" gradientTransform="translate(61.4795 49.0965) rotate(-44.5948) scale(4.93184 5.26394)">
<stop stop-color="#00862D"/>
<stop offset="0.627261" stop-color="#0033CC"/>
</radialGradient>
<radialGradient id="paint6_radial_4933_7142" cx="0" cy="0" r="1" gradientUnits="userSpaceOnUse" gradientTransform="translate(98.5708 49.3048) rotate(-42.0676) scale(5.50165 5.84198)">
<stop stop-color="#00862D"/>
<stop offset="0.627261" stop-color="#0033CC"/>
</radialGradient>
<radialGradient id="paint7_radial_4933_7142" cx="0" cy="0" r="1" gradientUnits="userSpaceOnUse" gradientTransform="translate(67.9425 72.2721) rotate(-21.6507) scale(70.307 51.4712)">
<stop stop-color="#00862D"/>
<stop offset="0.627261" stop-color="#0033CC"/>
</radialGradient>
<radialGradient id="paint8_radial_4933_7142" cx="0" cy="0" r="1" gradientUnits="userSpaceOnUse" gradientTransform="translate(78.0357 58.8096) rotate(-41.9714) scale(5.03478 5.34435)">
<stop stop-color="#00862D"/>
<stop offset="0.627261" stop-color="#0033CC"/>
</radialGradient>
<radialGradient id="paint9_radial_4933_7142" cx="0" cy="0" r="1" gradientUnits="userSpaceOnUse" gradientTransform="translate(82.2649 58.8407) rotate(-38.083) scale(5.18877 5.37807)">
<stop stop-color="#00862D"/>
<stop offset="0.627261" stop-color="#0033CC"/>
</radialGradient>
<radialGradient id="paint10_radial_4933_7142" cx="0" cy="0" r="1" gradientUnits="userSpaceOnUse" gradientTransform="translate(75.0025 58.274) rotate(-28.8523) scale(4.16051 3.7541)">
<stop stop-color="#00862D"/>
<stop offset="0.627261" stop-color="#0033CC"/>
</radialGradient>
<radialGradient id="paint11_radial_4933_7142" cx="0" cy="0" r="1" gradientUnits="userSpaceOnUse" gradientTransform="translate(85.2845 58.3992) rotate(-27.8122) scale(4.03231 3.55255)">
<stop stop-color="#00862D"/>
<stop offset="0.627261" stop-color="#0033CC"/>
</radialGradient>
<radialGradient id="paint12_radial_4933_7142" cx="0" cy="0" r="1" gradientUnits="userSpaceOnUse" gradientTransform="translate(71.8358 63.7841) rotate(-40.7133) scale(8.32602 8.78827)">
<stop stop-color="#00862D"/>
<stop offset="0.627261" stop-color="#0033CC"/>
</radialGradient>
<radialGradient id="paint13_radial_4933_7142" cx="0" cy="0" r="1" gradientUnits="userSpaceOnUse" gradientTransform="translate(87.4144 63.8043) rotate(-40.223) scale(8.24251 8.6764)">
<stop stop-color="#00862D"/>
<stop offset="0.627261" stop-color="#0033CC"/>
</radialGradient>
<radialGradient id="paint14_radial_4933_7142" cx="0" cy="0" r="1" gradientUnits="userSpaceOnUse" gradientTransform="translate(77.1478 63.9758) rotate(-38.9565) scale(7.00284 7.30943)">
<stop stop-color="#00862D"/>
<stop offset="0.627261" stop-color="#0033CC"/>
</radialGradient>
<radialGradient id="paint15_radial_4933_7142" cx="0" cy="0" r="1" gradientUnits="userSpaceOnUse" gradientTransform="translate(82.4363 63.9566) rotate(-39.6075) scale(7.06823 7.41168)">
<stop stop-color="#00862D"/>
<stop offset="0.627261" stop-color="#0033CC"/>
</radialGradient>
<radialGradient id="paint16_radial_4933_7142" cx="0" cy="0" r="1" gradientUnits="userSpaceOnUse" gradientTransform="translate(71.9709 70.1457) rotate(-40.773) scale(8.36206 8.82906)">
<stop stop-color="#00862D"/>
<stop offset="0.627261" stop-color="#0033CC"/>
</radialGradient>
<radialGradient id="paint17_radial_4933_7142" cx="0" cy="0" r="1" gradientUnits="userSpaceOnUse" gradientTransform="translate(77.1478 69.2208) rotate(-37.7753) scale(6.88948 7.12152)">
<stop stop-color="#00862D"/>
<stop offset="0.627261" stop-color="#0033CC"/>
</radialGradient>
<radialGradient id="paint18_radial_4933_7142" cx="0" cy="0" r="1" gradientUnits="userSpaceOnUse" gradientTransform="translate(82.4363 69.2208) rotate(-37.7753) scale(6.88948 7.12152)">
<stop stop-color="#00862D"/>
<stop offset="0.627261" stop-color="#0033CC"/>
</radialGradient>
<radialGradient id="paint19_radial_4933_7142" cx="0" cy="0" r="1" gradientUnits="userSpaceOnUse" gradientTransform="translate(87.2685 70.0972) rotate(-40.1515) scale(8.35233 8.78828)">
<stop stop-color="#00862D"/>
<stop offset="0.627261" stop-color="#0033CC"/>
</radialGradient>
<radialGradient id="paint20_radial_4933_7142" cx="0" cy="0" r="1" gradientUnits="userSpaceOnUse" gradientTransform="translate(78.0009 74.0634) rotate(-44.9859) scale(5.38616 5.74943)">
<stop stop-color="#00862D"/>
<stop offset="0.627261" stop-color="#0033CC"/>
</radialGradient>
<radialGradient id="paint21_radial_4933_7142" cx="0" cy="0" r="1" gradientUnits="userSpaceOnUse" gradientTransform="translate(82.2303 74.0634) rotate(-44.9859) scale(5.38616 5.74943)">
<stop stop-color="#00862D"/>
<stop offset="0.627261" stop-color="#0033CC"/>
</radialGradient>
<radialGradient id="paint22_radial_4933_7142" cx="0" cy="0" r="1" gradientUnits="userSpaceOnUse" gradientTransform="translate(75.116 73.6015) rotate(-32.8541) scale(3.93873 3.83213)">
<stop stop-color="#00862D"/>
<stop offset="0.627261" stop-color="#0033CC"/>
</radialGradient>
<radialGradient id="paint23_radial_4933_7142" cx="0" cy="0" r="1" gradientUnits="userSpaceOnUse" gradientTransform="translate(85.3133 73.6015) rotate(-32.8541) scale(3.93873 3.83213)">
<stop stop-color="#00862D"/>
<stop offset="0.627261" stop-color="#0033CC"/>
</radialGradient>
<clipPath id="clip0_4933_7142">
<rect width="136" height="118" fill="white" transform="translate(0 0.953125)"/>
</clipPath>
</defs>
</svg>
