<svg width="130" height="131" viewBox="0 0 130 131" fill="none" xmlns="http://www.w3.org/2000/svg">
<g id="Frame 903" clip-path="url(#clip0_4585_4923)">
<g id="Group 151713">
<g id="Polygon 15" filter="url(#filter0_d_4585_4923)">
<path d="M58.3169 17.7304C77.2344 4.48419 103.397 16.6841 105.41 39.6902L109.184 82.8267C111.197 105.833 87.5499 122.391 66.6196 112.631L27.3753 94.3308C6.44502 84.5708 3.92905 55.8131 22.8466 42.5669L58.3169 17.7304Z" fill="white"/>
</g>
<g id="Group">
<g id="Vector">
<path d="M55.8596 44.7349C50.0227 47.4113 45.0838 50.0308 44.4665 50.7711C43.6246 51.853 43.4562 53.1058 43.4562 59.2558V66.4878H46.992C51.2574 66.5447 54.2881 67.9684 57.0943 71.2712C60.0688 74.8017 60.9668 79.8129 59.3954 83.9698C59.1709 84.5962 59.8443 85.1657 61.6964 86.0198C68.1506 88.924 67.3649 88.981 79.656 83.742C88.9164 79.7559 90.9369 78.674 91.8348 77.2504C92.7328 75.7698 92.8451 74.2323 92.8451 64.3239C92.8451 58.1739 92.6206 52.4225 92.2838 51.6252C91.891 50.4863 90.544 49.5752 87.0643 47.9238L82.3499 45.646L70.2272 51.4544L58.1045 57.2628L57.9361 60.7933L57.7678 64.3239L55.9718 63.5836C54.1197 62.7864 54.1197 62.7295 54.1197 59.028V55.2697L60.0127 52.4225C63.2679 50.885 68.5996 48.3224 71.9671 46.728L77.9723 43.8238L73.8191 41.8877C71.5742 40.8057 68.8803 39.9516 67.9262 40.0085C66.9721 40.0085 61.5281 42.1724 55.8596 44.7349ZM87.8501 59.9392C89.0286 61.5906 89.0286 61.8183 88.1868 62.4447C87.4572 63.0142 87.2327 64.0961 87.2327 67.3989C87.2327 71.7267 86.7276 72.9795 84.8755 72.9795C83.9775 72.9795 83.8653 72.467 83.8653 68.9934C83.8653 65.8045 83.6969 65.0072 83.0234 65.0072C81.9009 65.0072 81.9009 65.0072 83.6969 61.3058C84.5388 59.5975 85.549 58.1739 85.8857 58.1739C86.2786 58.1739 87.1766 58.9711 87.8501 59.9392ZM77.3549 64.8934C78.7019 66.3739 78.758 66.6017 77.9723 67.285C77.3549 67.7975 77.1304 69.1073 77.1304 72.1823C77.1304 75.7128 76.9621 76.4531 76.0641 76.9656C74.0436 78.0476 73.763 77.649 73.763 73.6059C73.763 70.7587 73.5385 69.6198 73.0334 69.4489C72.4722 69.335 72.5844 68.5948 73.5946 66.26C74.3804 64.6656 75.1661 63.2989 75.3906 63.2989C75.6151 63.2989 76.5131 64.0392 77.3549 64.8934ZM89.7021 74.1184C88.8603 74.8587 71.3497 82.0907 71.013 81.8059C70.9007 81.6351 71.013 81.2365 71.3497 80.8948C72.416 79.8129 89.7583 72.5809 89.9827 73.0934C90.095 73.4351 89.9266 73.8337 89.7021 74.1184Z" fill="white"/>
<path d="M55.8596 44.7349C50.0227 47.4113 45.0838 50.0308 44.4665 50.7711C43.6246 51.853 43.4562 53.1058 43.4562 59.2558V66.4878H46.992C51.2574 66.5447 54.2881 67.9684 57.0943 71.2712C60.0688 74.8017 60.9668 79.8129 59.3954 83.9698C59.1709 84.5962 59.8443 85.1657 61.6964 86.0198C68.1506 88.924 67.3649 88.981 79.656 83.742C88.9164 79.7559 90.9369 78.674 91.8348 77.2504C92.7328 75.7698 92.8451 74.2323 92.8451 64.3239C92.8451 58.1739 92.6206 52.4225 92.2838 51.6252C91.891 50.4863 90.544 49.5752 87.0643 47.9238L82.3499 45.646L70.2272 51.4544L58.1045 57.2628L57.9361 60.7933L57.7678 64.3239L55.9718 63.5836C54.1197 62.7864 54.1197 62.7295 54.1197 59.028V55.2697L60.0127 52.4225C63.2679 50.885 68.5996 48.3224 71.9671 46.728L77.9723 43.8238L73.8191 41.8877C71.5742 40.8057 68.8803 39.9516 67.9262 40.0085C66.9721 40.0085 61.5281 42.1724 55.8596 44.7349ZM87.8501 59.9392C89.0286 61.5906 89.0286 61.8183 88.1868 62.4447C87.4572 63.0142 87.2327 64.0961 87.2327 67.3989C87.2327 71.7267 86.7276 72.9795 84.8755 72.9795C83.9775 72.9795 83.8653 72.467 83.8653 68.9934C83.8653 65.8045 83.6969 65.0072 83.0234 65.0072C81.9009 65.0072 81.9009 65.0072 83.6969 61.3058C84.5388 59.5975 85.549 58.1739 85.8857 58.1739C86.2786 58.1739 87.1766 58.9711 87.8501 59.9392ZM77.3549 64.8934C78.7019 66.3739 78.758 66.6017 77.9723 67.285C77.3549 67.7975 77.1304 69.1073 77.1304 72.1823C77.1304 75.7128 76.9621 76.4531 76.0641 76.9656C74.0436 78.0476 73.763 77.649 73.763 73.6059C73.763 70.7587 73.5385 69.6198 73.0334 69.4489C72.4722 69.335 72.5844 68.5948 73.5946 66.26C74.3804 64.6656 75.1661 63.2989 75.3906 63.2989C75.6151 63.2989 76.5131 64.0392 77.3549 64.8934ZM89.7021 74.1184C88.8603 74.8587 71.3497 82.0907 71.013 81.8059C70.9007 81.6351 71.013 81.2365 71.3497 80.8948C72.416 79.8129 89.7583 72.5809 89.9827 73.0934C90.095 73.4351 89.9266 73.8337 89.7021 74.1184Z" fill="url(#paint0_radial_4585_4923)"/>
</g>
<g id="Vector_2">
<path d="M42.1654 70.1871C37.451 72.6926 35.4867 79.1274 37.8439 84.0816C41.6042 91.9399 52.7728 91.9969 56.7576 84.1385C57.8801 81.9177 57.8801 77.1343 56.7576 74.9704C55.6351 72.7496 53.1095 70.3579 51.1452 69.6176C48.6758 68.6496 44.5226 68.9343 42.1654 70.1871ZM54.4565 75.5399C54.7933 76.3371 52.6606 79.2413 48.2829 83.9677C46.8237 85.5621 46.8237 85.5621 45.14 84.5371C44.1859 83.9677 42.7267 82.8288 41.9409 81.9746C40.7062 80.6649 40.594 80.2663 41.2113 79.526C42.1654 78.3871 43.0634 78.4441 44.2981 79.8107C44.8594 80.4371 45.6451 80.9496 46.038 80.9496C46.4308 80.9496 47.9462 79.526 49.3493 77.8177C51.9871 74.6857 53.8392 73.8885 54.4565 75.5399Z" fill="white"/>
<path d="M42.1654 70.1871C37.451 72.6926 35.4867 79.1274 37.8439 84.0816C41.6042 91.9399 52.7728 91.9969 56.7576 84.1385C57.8801 81.9177 57.8801 77.1343 56.7576 74.9704C55.6351 72.7496 53.1095 70.3579 51.1452 69.6176C48.6758 68.6496 44.5226 68.9343 42.1654 70.1871ZM54.4565 75.5399C54.7933 76.3371 52.6606 79.2413 48.2829 83.9677C46.8237 85.5621 46.8237 85.5621 45.14 84.5371C44.1859 83.9677 42.7267 82.8288 41.9409 81.9746C40.7062 80.6649 40.594 80.2663 41.2113 79.526C42.1654 78.3871 43.0634 78.4441 44.2981 79.8107C44.8594 80.4371 45.6451 80.9496 46.038 80.9496C46.4308 80.9496 47.9462 79.526 49.3493 77.8177C51.9871 74.6857 53.8392 73.8885 54.4565 75.5399Z" fill="url(#paint1_radial_4585_4923)"/>
</g>
</g>
</g>
</g>
<defs>
<filter id="filter0_d_4585_4923" x="-2.94849" y="9.26562" width="115.253" height="119.223" filterUnits="userSpaceOnUse" color-interpolation-filters="sRGB">
<feFlood flood-opacity="0" result="BackgroundImageFix"/>
<feColorMatrix in="SourceAlpha" type="matrix" values="0 0 0 0 0 0 0 0 0 0 0 0 0 0 0 0 0 0 127 0" result="hardAlpha"/>
<feOffset dx="-5" dy="5"/>
<feGaussianBlur stdDeviation="4"/>
<feComposite in2="hardAlpha" operator="out"/>
<feColorMatrix type="matrix" values="0 0 0 0 0 0 0 0 0 0 0 0 0 0 0 0 0 0 0.25 0"/>
<feBlend mode="normal" in2="BackgroundImageFix" result="effect1_dropShadow_4585_4923"/>
<feBlend mode="normal" in="SourceGraphic" in2="effect1_dropShadow_4585_4923" result="shape"/>
</filter>
<radialGradient id="paint0_radial_4585_4923" cx="0" cy="0" r="1" gradientUnits="userSpaceOnUse" gradientTransform="translate(53.0603 78.3955) rotate(-34.0038) scale(92.0193 91.0781)">
<stop stop-color="#00862D"/>
<stop offset="0.627261" stop-color="#0033CC"/>
</radialGradient>
<radialGradient id="paint1_radial_4585_4923" cx="0" cy="0" r="1" gradientUnits="userSpaceOnUse" gradientTransform="translate(40.881 85.8112) rotate(-35.0445) scale(39.1549 39.2973)">
<stop stop-color="#00862D"/>
<stop offset="0.627261" stop-color="#0033CC"/>
</radialGradient>
<clipPath id="clip0_4585_4923">
<rect width="130" height="130" fill="white" transform="translate(0 0.00390625)"/>
</clipPath>
</defs>
</svg>
