<svg width="130" height="131" viewBox="0 0 130 131" fill="none" xmlns="http://www.w3.org/2000/svg">
<g id="Frame 902" clip-path="url(#clip0_4585_4911)">
<g id="Group 151712">
<g id="Polygon 15" filter="url(#filter0_d_4585_4911)">
<path d="M58.3169 17.7304C77.2344 4.48419 103.397 16.6841 105.41 39.6902L109.184 82.8267C111.197 105.833 87.5499 122.391 66.6196 112.631L27.3753 94.3308C6.44502 84.5708 3.92905 55.8131 22.8466 42.5669L58.3169 17.7304Z" fill="white"/>
</g>
<g id="Group">
<g id="Vector">
<path d="M63.2215 41.7606C62.4032 42.5034 61.9429 43.5432 61.9429 44.484C61.9429 46.2666 63.8863 48.4453 65.4718 48.4453C67.2618 48.4453 69.0006 47.356 69.6655 45.92C71.3021 42.0577 66.2389 38.7896 63.2215 41.7606Z" fill="white"/>
<path d="M63.2215 41.7606C62.4032 42.5034 61.9429 43.5432 61.9429 44.484C61.9429 46.2666 63.8863 48.4453 65.4718 48.4453C67.2618 48.4453 69.0006 47.356 69.6655 45.92C71.3021 42.0577 66.2389 38.7896 63.2215 41.7606Z" fill="url(#paint0_radial_4585_4911)"/>
</g>
<g id="Vector_2">
<path d="M59.5903 49.7829C58.9765 49.8819 57.9537 50.5256 57.2888 51.2189C56.1637 52.4072 56.0614 52.9519 55.9079 58.8939L55.7034 65.2815H57.8002H59.8971V59.5376C59.8971 55.8734 60.1017 53.9422 60.4085 54.1403C60.7154 54.3384 60.92 56.9132 60.92 60.2308C60.92 68.7476 60.6131 68.2524 66.3412 68.2524C71.7623 68.2524 72.4783 67.6582 69.3586 65.7766C67.4663 64.6378 66.5969 62.6571 67.4152 61.3697C67.6709 60.924 68.6426 60.2803 69.512 59.8842C71.0463 59.191 71.1486 58.9929 71.1486 56.5171C71.1486 55.0811 71.4043 53.8927 71.6601 53.8927C71.9669 53.8927 72.1715 55.2792 72.1715 57.0123C72.1715 59.9337 72.2738 60.1813 73.6546 60.9736C74.4729 61.4192 75.2912 61.8153 75.4447 61.8153C75.5981 61.8153 75.7515 59.7356 75.7515 57.2103C75.7515 51.9121 75.1889 50.7237 72.2738 49.9314C69.4609 49.1887 69.2563 49.2877 68.5915 51.1693C68.2846 52.1101 67.8243 52.9024 67.5686 52.9024C67.0572 52.9024 66.4434 51.2684 66.648 50.3771C66.7503 50.0305 66.3923 49.6343 65.8809 49.5353C65.216 49.3868 64.9603 49.5848 65.0626 50.278C65.1137 50.7732 65.0114 51.813 64.7557 52.6053L64.3466 54.0413L63.5283 51.8626C62.6588 49.6343 61.994 49.2877 59.5903 49.7829Z" fill="white"/>
<path d="M59.5903 49.7829C58.9765 49.8819 57.9537 50.5256 57.2888 51.2189C56.1637 52.4072 56.0614 52.9519 55.9079 58.8939L55.7034 65.2815H57.8002H59.8971V59.5376C59.8971 55.8734 60.1017 53.9422 60.4085 54.1403C60.7154 54.3384 60.92 56.9132 60.92 60.2308C60.92 68.7476 60.6131 68.2524 66.3412 68.2524C71.7623 68.2524 72.4783 67.6582 69.3586 65.7766C67.4663 64.6378 66.5969 62.6571 67.4152 61.3697C67.6709 60.924 68.6426 60.2803 69.512 59.8842C71.0463 59.191 71.1486 58.9929 71.1486 56.5171C71.1486 55.0811 71.4043 53.8927 71.6601 53.8927C71.9669 53.8927 72.1715 55.2792 72.1715 57.0123C72.1715 59.9337 72.2738 60.1813 73.6546 60.9736C74.4729 61.4192 75.2912 61.8153 75.4447 61.8153C75.5981 61.8153 75.7515 59.7356 75.7515 57.2103C75.7515 51.9121 75.1889 50.7237 72.2738 49.9314C69.4609 49.1887 69.2563 49.2877 68.5915 51.1693C68.2846 52.1101 67.8243 52.9024 67.5686 52.9024C67.0572 52.9024 66.4434 51.2684 66.648 50.3771C66.7503 50.0305 66.3923 49.6343 65.8809 49.5353C65.216 49.3868 64.9603 49.5848 65.0626 50.278C65.1137 50.7732 65.0114 51.813 64.7557 52.6053L64.3466 54.0413L63.5283 51.8626C62.6588 49.6343 61.994 49.2877 59.5903 49.7829Z" fill="url(#paint1_radial_4585_4911)"/>
</g>
<g id="Vector_3">
<path d="M44.4007 52.7542C43.9916 53.2493 43.429 54.2397 43.2756 54.9824C42.9687 56.0718 43.2244 56.6165 44.4519 57.8544C45.3213 58.6466 46.3441 59.3398 46.8044 59.3398C48.3899 59.3398 50.1287 58.1515 50.6402 56.765C51.6119 54.1406 49.9753 51.9124 47.1113 51.9124C45.9861 51.9124 44.9121 52.259 44.4007 52.7542Z" fill="white"/>
<path d="M44.4007 52.7542C43.9916 53.2493 43.429 54.2397 43.2756 54.9824C42.9687 56.0718 43.2244 56.6165 44.4519 57.8544C45.3213 58.6466 46.3441 59.3398 46.8044 59.3398C48.3899 59.3398 50.1287 58.1515 50.6402 56.765C51.6119 54.1406 49.9753 51.9124 47.1113 51.9124C45.9861 51.9124 44.9121 52.259 44.4007 52.7542Z" fill="url(#paint2_radial_4585_4911)"/>
</g>
<g id="Vector_4">
<path d="M80.8658 52.2596C78.2575 53.2004 77.3881 56.4685 79.3315 58.3501C81.633 60.5783 85.4687 58.8948 85.4687 55.7257C85.4687 53.3985 82.9627 51.5169 80.8658 52.2596Z" fill="white"/>
<path d="M80.8658 52.2596C78.2575 53.2004 77.3881 56.4685 79.3315 58.3501C81.633 60.5783 85.4687 58.8948 85.4687 55.7257C85.4687 53.3985 82.9627 51.5169 80.8658 52.2596Z" fill="url(#paint3_radial_4585_4911)"/>
</g>
<g id="Vector_5">
<path d="M43.3267 61.7664C42.5084 62.6082 42.5084 63.3014 42.9687 68.9463C43.2244 72.3629 43.6336 75.4329 43.787 75.6805C43.9404 75.9776 43.5313 76.1756 42.8153 76.1756H41.5367L41.3833 69.8375C41.2298 63.9451 41.1787 63.549 40.207 63.549C39.2353 63.549 39.1841 63.9451 39.0307 75.3834C38.9284 83.7516 39.0818 87.4158 39.491 87.8615C40.4627 88.9508 41.4856 87.7129 41.4856 85.5342V83.6031H43.9404C45.7304 83.6031 46.7022 83.3555 47.2647 82.7118C47.7762 82.2166 48.1342 81.6224 48.1342 81.4739C48.1342 81.2758 46.651 81.1273 44.8099 81.1273C41.5878 81.1273 41.4856 81.0777 41.4856 79.8893C41.4856 78.6514 41.4856 78.6514 46.2419 78.6514C48.799 78.6514 51.2539 78.8495 51.5608 79.0476C52.0211 79.3447 51.3051 80.434 49.157 82.7613C47.4693 84.6429 46.0884 86.4255 46.0884 86.7226C46.0884 87.6139 47.1625 88.5547 48.1853 88.5547C49.3616 88.5547 57.34 79.9884 57.34 78.701C57.34 77.5621 56.1125 76.6708 52.5836 75.4329C51.2539 74.9377 50.231 74.4426 50.3333 74.3435C50.4356 74.2445 52.1233 74.5416 54.0156 74.9377C55.9079 75.3834 57.5957 75.6309 57.7491 75.4824C57.9025 75.3338 57.7491 74.6406 57.4422 73.9474C56.9308 72.9076 56.4705 72.7095 54.8339 72.7095C53.7088 72.7095 52.6348 72.4619 52.4813 72.2143C52.3279 71.9172 51.6119 71.7192 50.8959 71.7192C50.231 71.7192 49.6685 71.6201 49.6685 71.5211C49.6685 71.4221 49.1059 70.0851 48.3899 68.5501C47.6739 67.0151 47.2136 65.7772 47.367 65.7772C47.4693 65.7772 48.2876 66.7675 49.2082 68.0054C50.6402 69.9366 51.1005 70.2337 52.6859 70.2337C53.9645 70.2337 54.7317 70.5308 55.1919 71.224C55.7034 72.0658 56.3682 72.2143 59.6414 72.2143H63.4771V79.1466V86.0789H61.994C60.562 86.0789 60.4597 85.8808 59.846 83.3555C59.488 81.87 59.0788 80.6321 58.8743 80.6321C58.7208 80.6321 57.9025 81.2758 57.1354 82.0681C55.8057 83.405 55.8057 83.5535 56.3682 85.7323C56.6751 86.9702 57.1865 88.0595 57.5445 88.1586C57.8514 88.3071 60.8177 88.2576 64.142 88.1586C69.6143 87.9605 70.1258 87.8615 70.1258 87.0197C70.1258 86.2274 69.7166 86.0789 67.8243 86.0789H65.5229V79.1466V72.2143H69.2563C73.2455 72.2143 74.5241 71.7687 74.0638 70.5308C73.8081 69.8375 72.6829 69.7385 66.648 69.7385H59.5903L59.6414 68.3521C59.6414 67.0151 59.5903 67.0151 56.1125 66.9656C52.5836 66.9161 52.5325 66.8666 50.9982 64.985C50.1799 63.8956 49.8219 63.3509 50.1799 63.648C51.2539 64.5888 51.7142 64.4403 51.7142 63.1529C51.7142 61.3703 50.7425 60.8256 47.367 60.8256C44.9122 60.8256 43.9916 61.0237 43.3267 61.7664Z" fill="white"/>
<path d="M43.3267 61.7664C42.5084 62.6082 42.5084 63.3014 42.9687 68.9463C43.2244 72.3629 43.6336 75.4329 43.787 75.6805C43.9404 75.9776 43.5313 76.1756 42.8153 76.1756H41.5367L41.3833 69.8375C41.2298 63.9451 41.1787 63.549 40.207 63.549C39.2353 63.549 39.1841 63.9451 39.0307 75.3834C38.9284 83.7516 39.0818 87.4158 39.491 87.8615C40.4627 88.9508 41.4856 87.7129 41.4856 85.5342V83.6031H43.9404C45.7304 83.6031 46.7022 83.3555 47.2647 82.7118C47.7762 82.2166 48.1342 81.6224 48.1342 81.4739C48.1342 81.2758 46.651 81.1273 44.8099 81.1273C41.5878 81.1273 41.4856 81.0777 41.4856 79.8893C41.4856 78.6514 41.4856 78.6514 46.2419 78.6514C48.799 78.6514 51.2539 78.8495 51.5608 79.0476C52.0211 79.3447 51.3051 80.434 49.157 82.7613C47.4693 84.6429 46.0884 86.4255 46.0884 86.7226C46.0884 87.6139 47.1625 88.5547 48.1853 88.5547C49.3616 88.5547 57.34 79.9884 57.34 78.701C57.34 77.5621 56.1125 76.6708 52.5836 75.4329C51.2539 74.9377 50.231 74.4426 50.3333 74.3435C50.4356 74.2445 52.1233 74.5416 54.0156 74.9377C55.9079 75.3834 57.5957 75.6309 57.7491 75.4824C57.9025 75.3338 57.7491 74.6406 57.4422 73.9474C56.9308 72.9076 56.4705 72.7095 54.8339 72.7095C53.7088 72.7095 52.6348 72.4619 52.4813 72.2143C52.3279 71.9172 51.6119 71.7192 50.8959 71.7192C50.231 71.7192 49.6685 71.6201 49.6685 71.5211C49.6685 71.4221 49.1059 70.0851 48.3899 68.5501C47.6739 67.0151 47.2136 65.7772 47.367 65.7772C47.4693 65.7772 48.2876 66.7675 49.2082 68.0054C50.6402 69.9366 51.1005 70.2337 52.6859 70.2337C53.9645 70.2337 54.7317 70.5308 55.1919 71.224C55.7034 72.0658 56.3682 72.2143 59.6414 72.2143H63.4771V79.1466V86.0789H61.994C60.562 86.0789 60.4597 85.8808 59.846 83.3555C59.488 81.87 59.0788 80.6321 58.8743 80.6321C58.7208 80.6321 57.9025 81.2758 57.1354 82.0681C55.8057 83.405 55.8057 83.5535 56.3682 85.7323C56.6751 86.9702 57.1865 88.0595 57.5445 88.1586C57.8514 88.3071 60.8177 88.2576 64.142 88.1586C69.6143 87.9605 70.1258 87.8615 70.1258 87.0197C70.1258 86.2274 69.7166 86.0789 67.8243 86.0789H65.5229V79.1466V72.2143H69.2563C73.2455 72.2143 74.5241 71.7687 74.0638 70.5308C73.8081 69.8375 72.6829 69.7385 66.648 69.7385H59.5903L59.6414 68.3521C59.6414 67.0151 59.5903 67.0151 56.1125 66.9656C52.5836 66.9161 52.5325 66.8666 50.9982 64.985C50.1799 63.8956 49.8219 63.3509 50.1799 63.648C51.2539 64.5888 51.7142 64.4403 51.7142 63.1529C51.7142 61.3703 50.7425 60.8256 47.367 60.8256C44.9122 60.8256 43.9916 61.0237 43.3267 61.7664Z" fill="url(#paint4_radial_4585_4911)"/>
</g>
<g id="Vector_6">
<path d="M78.4621 61.1243C77.4904 61.5699 77.6438 62.2137 78.8201 62.4117C79.5872 62.5107 79.3315 62.7583 77.8484 63.3525C75.9049 64.1448 75.8538 64.1448 73.5012 62.7583C70.8418 61.1243 69.3586 60.9262 68.8983 62.1146C68.438 63.2535 69.2563 64.0458 72.8363 65.9769L75.9049 67.6604L78.7689 66.472L81.633 65.2341L79.2292 67.3138C77.1324 68.9974 76.7744 69.5916 76.7744 71.1266C76.7744 72.3645 76.6209 72.7111 76.3141 72.2654C75.9561 71.7208 75.8026 71.7208 75.4446 72.3645C75.1889 72.8101 74.4218 73.3548 73.7058 73.6519C72.5806 74.0976 72.6829 74.1471 74.7286 74.1966C78.3598 74.2461 79.1781 75.1869 75.5981 75.1869C72.2738 75.1869 70.6372 75.7811 70.6372 77.0685C70.6372 77.5142 71.7112 80.2871 72.9898 83.2085C75.3935 88.6058 76.5186 89.7942 78.0529 88.5563C79.1781 87.665 79.0247 86.7242 77.2858 83.159C75.4958 79.5443 75.5981 78.653 77.6438 78.653C78.8201 78.7026 78.9224 78.7521 78.2064 79.1482C77.4392 79.5939 77.4392 79.7919 78.2064 81.624L79.0758 83.6047H83.3207H87.5144V85.5358C87.5144 87.7145 88.5373 88.9524 89.509 87.8631C89.9182 87.4174 90.0716 83.7532 89.9693 75.385C89.8159 63.9467 89.7647 63.5506 88.793 63.5506C87.8213 63.5506 87.7702 63.9467 87.6167 69.8392C87.5144 75.8306 87.4121 76.1772 86.4404 76.1772C85.4687 76.1772 85.4176 75.9297 85.6733 73.5529C86.4916 66.0264 86.5427 63.0554 85.8779 62.2137C85.213 61.3719 79.7407 60.5796 78.4621 61.1243ZM87.5144 79.891C87.5144 81.1289 87.4633 81.1289 83.423 81.1289C79.7918 81.1289 79.3315 81.0298 79.3315 80.2376C79.3315 78.8016 79.7407 78.653 83.781 78.653C87.4121 78.653 87.5144 78.7026 87.5144 79.891Z" fill="white"/>
<path d="M78.4621 61.1243C77.4904 61.5699 77.6438 62.2137 78.8201 62.4117C79.5872 62.5107 79.3315 62.7583 77.8484 63.3525C75.9049 64.1448 75.8538 64.1448 73.5012 62.7583C70.8418 61.1243 69.3586 60.9262 68.8983 62.1146C68.438 63.2535 69.2563 64.0458 72.8363 65.9769L75.9049 67.6604L78.7689 66.472L81.633 65.2341L79.2292 67.3138C77.1324 68.9974 76.7744 69.5916 76.7744 71.1266C76.7744 72.3645 76.6209 72.7111 76.3141 72.2654C75.9561 71.7208 75.8026 71.7208 75.4446 72.3645C75.1889 72.8101 74.4218 73.3548 73.7058 73.6519C72.5806 74.0976 72.6829 74.1471 74.7286 74.1966C78.3598 74.2461 79.1781 75.1869 75.5981 75.1869C72.2738 75.1869 70.6372 75.7811 70.6372 77.0685C70.6372 77.5142 71.7112 80.2871 72.9898 83.2085C75.3935 88.6058 76.5186 89.7942 78.0529 88.5563C79.1781 87.665 79.0247 86.7242 77.2858 83.159C75.4958 79.5443 75.5981 78.653 77.6438 78.653C78.8201 78.7026 78.9224 78.7521 78.2064 79.1482C77.4392 79.5939 77.4392 79.7919 78.2064 81.624L79.0758 83.6047H83.3207H87.5144V85.5358C87.5144 87.7145 88.5373 88.9524 89.509 87.8631C89.9182 87.4174 90.0716 83.7532 89.9693 75.385C89.8159 63.9467 89.7647 63.5506 88.793 63.5506C87.8213 63.5506 87.7702 63.9467 87.6167 69.8392C87.5144 75.8306 87.4121 76.1772 86.4404 76.1772C85.4687 76.1772 85.4176 75.9297 85.6733 73.5529C86.4916 66.0264 86.5427 63.0554 85.8779 62.2137C85.213 61.3719 79.7407 60.5796 78.4621 61.1243ZM87.5144 79.891C87.5144 81.1289 87.4633 81.1289 83.423 81.1289C79.7918 81.1289 79.3315 81.0298 79.3315 80.2376C79.3315 78.8016 79.7407 78.653 83.781 78.653C87.4121 78.653 87.5144 78.7026 87.5144 79.891Z" fill="url(#paint5_radial_4585_4911)"/>
</g>
<g id="Vector_7">
<path d="M61.1245 79.1467C61.1245 82.2662 61.1757 83.5536 61.2779 81.9691C61.3802 80.4341 61.3802 77.8593 61.2779 76.2748C61.1757 74.7398 61.1245 76.0272 61.1245 79.1467Z" fill="white"/>
<path d="M61.1245 79.1467C61.1245 82.2662 61.1757 83.5536 61.2779 81.9691C61.3802 80.4341 61.3802 77.8593 61.2779 76.2748C61.1757 74.7398 61.1245 76.0272 61.1245 79.1467Z" fill="url(#paint6_radial_4585_4911)"/>
</g>
<g id="Vector_8">
<path d="M67.5686 79.098V84.4953L69.3586 84.6934C70.8929 84.8419 71.1486 84.7429 71.1486 83.8516C71.1486 83.3069 70.8418 82.4156 70.4838 81.8709C69.1029 79.8903 68.3358 76.6717 69.0006 75.6319C69.87 74.2949 69.7678 73.7007 68.5915 73.7007C67.6197 73.7007 67.5686 74.0474 67.5686 79.098Z" fill="white"/>
<path d="M67.5686 79.098V84.4953L69.3586 84.6934C70.8929 84.8419 71.1486 84.7429 71.1486 83.8516C71.1486 83.3069 70.8418 82.4156 70.4838 81.8709C69.1029 79.8903 68.3358 76.6717 69.0006 75.6319C69.87 74.2949 69.7678 73.7007 68.5915 73.7007C67.6197 73.7007 67.5686 74.0474 67.5686 79.098Z" fill="url(#paint7_radial_4585_4911)"/>
</g>
</g>
</g>
</g>
<defs>
<filter id="filter0_d_4585_4911" x="-2.94849" y="9.26562" width="115.253" height="119.223" filterUnits="userSpaceOnUse" color-interpolation-filters="sRGB">
<feFlood flood-opacity="0" result="BackgroundImageFix"/>
<feColorMatrix in="SourceAlpha" type="matrix" values="0 0 0 0 0 0 0 0 0 0 0 0 0 0 0 0 0 0 127 0" result="hardAlpha"/>
<feOffset dx="-5" dy="5"/>
<feGaussianBlur stdDeviation="4"/>
<feComposite in2="hardAlpha" operator="out"/>
<feColorMatrix type="matrix" values="0 0 0 0 0 0 0 0 0 0 0 0 0 0 0 0 0 0 0.25 0"/>
<feBlend mode="normal" in2="BackgroundImageFix" result="effect1_dropShadow_4585_4911"/>
<feBlend mode="normal" in="SourceGraphic" in2="effect1_dropShadow_4585_4911" result="shape"/>
</filter>
<radialGradient id="paint0_radial_4585_4911" cx="0" cy="0" r="1" gradientUnits="userSpaceOnUse" gradientTransform="translate(63.5065 46.8778) rotate(-34.0904) scale(14.9964 14.861)">
<stop stop-color="#00862D"/>
<stop offset="0.627261" stop-color="#0033CC"/>
</radialGradient>
<radialGradient id="paint1_radial_4585_4911" cx="0" cy="0" r="1" gradientUnits="userSpaceOnUse" gradientTransform="translate(59.6019 64.5043) rotate(-33.0245) scale(36.9325 36.0288)">
<stop stop-color="#00862D"/>
<stop offset="0.627261" stop-color="#0033CC"/>
</radialGradient>
<radialGradient id="paint2_radial_4585_4911" cx="0" cy="0" r="1" gradientUnits="userSpaceOnUse" gradientTransform="translate(44.6671 57.8544) rotate(-33.5928) scale(14.3964 14.1651)">
<stop stop-color="#00862D"/>
<stop offset="0.627261" stop-color="#0033CC"/>
</radialGradient>
<radialGradient id="paint3_radial_4585_4911" cx="0" cy="0" r="1" gradientUnits="userSpaceOnUse" gradientTransform="translate(79.674 57.9129) rotate(-35.0647) scale(13.5747 13.6275)">
<stop stop-color="#00862D"/>
<stop offset="0.627261" stop-color="#0033CC"/>
</radialGradient>
<radialGradient id="paint4_radial_4585_4911" cx="0" cy="0" r="1" gradientUnits="userSpaceOnUse" gradientTransform="translate(45.8358 83.0092) rotate(-28.709) scale(61.9061 55.6816)">
<stop stop-color="#00862D"/>
<stop offset="0.627261" stop-color="#0033CC"/>
</radialGradient>
<radialGradient id="paint5_radial_4585_4911" cx="0" cy="0" r="1" gradientUnits="userSpaceOnUse" gradientTransform="translate(72.9077 83.3924) rotate(-42.5569) scale(44.4921 47.3203)">
<stop stop-color="#00862D"/>
<stop offset="0.627261" stop-color="#0033CC"/>
</radialGradient>
<radialGradient id="paint6_radial_4585_4911" cx="0" cy="0" r="1" gradientUnits="userSpaceOnUse" gradientTransform="translate(61.1693 81.2443) rotate(-87.2971) scale(7.53817 0.758051)">
<stop stop-color="#00862D"/>
<stop offset="0.627261" stop-color="#0033CC"/>
</radialGradient>
<radialGradient id="paint7_radial_4585_4911" cx="0" cy="0" r="1" gradientUnits="userSpaceOnUse" gradientTransform="translate(68.2648 82.5403) rotate(-64.9838) scale(13.0761 10.6976)">
<stop stop-color="#00862D"/>
<stop offset="0.627261" stop-color="#0033CC"/>
</radialGradient>
<clipPath id="clip0_4585_4911">
<rect width="130" height="130" fill="white" transform="translate(0 0.00390625)"/>
</clipPath>
</defs>
</svg>
