<svg width="130" height="131" viewBox="0 0 130 131" fill="none" xmlns="http://www.w3.org/2000/svg">
<g id="Frame 901" clip-path="url(#clip0_4585_4970)">
<g id="Group 151711">
<g id="Group 458">
<g id="Polygon 15" filter="url(#filter0_d_4585_4970)">
<path d="M58.3713 17.7435C77.2888 4.4973 103.452 16.6973 105.464 39.7034L109.243 82.8935C111.256 105.9 87.6089 122.457 66.6787 112.697L27.3856 94.3747C6.45532 84.6148 3.93936 55.8571 22.8569 42.6109L58.3713 17.7435Z" fill="white"/>
</g>
</g>
<g id="Group">
<g id="Vector">
<path d="M58.6719 41.332V47.6602H65H71.3281V41.332V35.0039H65H58.6719V41.332Z" fill="white"/>
<path d="M58.6719 41.332V47.6602H65H71.3281V41.332V35.0039H65H58.6719V41.332Z" fill="url(#paint0_radial_4585_4970)"/>
</g>
<g id="Vector_2">
<path d="M50.7617 63.5859V85.8398H49.1797H47.5977V69.0809V52.3219L44.4336 53.3766L41.2695 54.4312V70.1355V85.8398H39.6348H38V87.4219V89.0039H65H92V87.4219V85.8398H90.3652H88.7305V70.1355V54.4312L85.5664 53.3766L82.4023 52.3219V69.0809V85.8398H80.8203H79.2383V63.5859V41.332H76.8652H74.4922V63.5859V85.8398H72.9102H71.3281V80.9883V76.1367H65H58.6719V80.9883V85.8398H57.0898H55.5078V63.5859V41.332H53.1348H50.7617V63.5859Z" fill="white"/>
<path d="M50.7617 63.5859V85.8398H49.1797H47.5977V69.0809V52.3219L44.4336 53.3766L41.2695 54.4312V70.1355V85.8398H39.6348H38V87.4219V89.0039H65H92V87.4219V85.8398H90.3652H88.7305V70.1355V54.4312L85.5664 53.3766L82.4023 52.3219V69.0809V85.8398H80.8203H79.2383V63.5859V41.332H76.8652H74.4922V63.5859V85.8398H72.9102H71.3281V80.9883V76.1367H65H58.6719V80.9883V85.8398H57.0898H55.5078V63.5859V41.332H53.1348H50.7617V63.5859Z" fill="url(#paint1_radial_4585_4970)"/>
</g>
<g id="Vector_3">
<path d="M58.6719 52.4062V53.9883H65H71.3281V52.4062V50.8242H65H58.6719V52.4062Z" fill="white"/>
<path d="M58.6719 52.4062V53.9883H65H71.3281V52.4062V50.8242H65H58.6719V52.4062Z" fill="url(#paint2_radial_4585_4970)"/>
</g>
<g id="Vector_4">
<path d="M58.6719 58.7344V60.3164H65H71.3281V58.7344V57.1523H65H58.6719V58.7344Z" fill="white"/>
<path d="M58.6719 58.7344V60.3164H65H71.3281V58.7344V57.1523H65H58.6719V58.7344Z" fill="url(#paint3_radial_4585_4970)"/>
</g>
<g id="Vector_5">
<path d="M58.6719 65.0625V66.6445H65H71.3281V65.0625V63.4805H65H58.6719V65.0625Z" fill="white"/>
<path d="M58.6719 65.0625V66.6445H65H71.3281V65.0625V63.4805H65H58.6719V65.0625Z" fill="url(#paint4_radial_4585_4970)"/>
</g>
<g id="Vector_6">
<path d="M58.6719 71.3906V72.9727H65H71.3281V71.3906V69.8086H65H58.6719V71.3906Z" fill="white"/>
<path d="M58.6719 71.3906V72.9727H65H71.3281V71.3906V69.8086H65H58.6719V71.3906Z" fill="url(#paint5_radial_4585_4970)"/>
</g>
</g>
</g>
</g>
<defs>
<filter id="filter0_d_4585_4970" x="-2.93823" y="9.28125" width="115.301" height="119.273" filterUnits="userSpaceOnUse" color-interpolation-filters="sRGB">
<feFlood flood-opacity="0" result="BackgroundImageFix"/>
<feColorMatrix in="SourceAlpha" type="matrix" values="0 0 0 0 0 0 0 0 0 0 0 0 0 0 0 0 0 0 127 0" result="hardAlpha"/>
<feOffset dx="-5" dy="5"/>
<feGaussianBlur stdDeviation="4"/>
<feComposite in2="hardAlpha" operator="out"/>
<feColorMatrix type="matrix" values="0 0 0 0 0 0 0 0 0 0 0 0 0 0 0 0 0 0 0.25 0"/>
<feBlend mode="normal" in2="BackgroundImageFix" result="effect1_dropShadow_4585_4970"/>
<feBlend mode="normal" in="SourceGraphic" in2="effect1_dropShadow_4585_4970" result="shape"/>
</filter>
<radialGradient id="paint0_radial_4585_4970" cx="0" cy="0" r="1" gradientUnits="userSpaceOnUse" gradientTransform="translate(61.133 45.1291) rotate(-34.773) scale(23.7983 23.8018)">
<stop stop-color="#00862D"/>
<stop offset="0.627261" stop-color="#0033CC"/>
</radialGradient>
<radialGradient id="paint1_radial_4585_4970" cx="0" cy="0" r="1" gradientUnits="userSpaceOnUse" gradientTransform="translate(48.5008 79.4701) rotate(-31.5064) scale(97.828 93.0549)">
<stop stop-color="#00862D"/>
<stop offset="0.627261" stop-color="#0033CC"/>
</radialGradient>
<radialGradient id="paint2_radial_4585_4970" cx="0" cy="0" r="1" gradientUnits="userSpaceOnUse" gradientTransform="translate(61.133 53.3555) rotate(-9.84729) scale(19.8407 7.1374)">
<stop stop-color="#00862D"/>
<stop offset="0.627261" stop-color="#0033CC"/>
</radialGradient>
<radialGradient id="paint3_radial_4585_4970" cx="0" cy="0" r="1" gradientUnits="userSpaceOnUse" gradientTransform="translate(61.133 59.6836) rotate(-9.84729) scale(19.8407 7.1374)">
<stop stop-color="#00862D"/>
<stop offset="0.627261" stop-color="#0033CC"/>
</radialGradient>
<radialGradient id="paint4_radial_4585_4970" cx="0" cy="0" r="1" gradientUnits="userSpaceOnUse" gradientTransform="translate(61.133 66.0118) rotate(-9.84729) scale(19.8407 7.1374)">
<stop stop-color="#00862D"/>
<stop offset="0.627261" stop-color="#0033CC"/>
</radialGradient>
<radialGradient id="paint5_radial_4585_4970" cx="0" cy="0" r="1" gradientUnits="userSpaceOnUse" gradientTransform="translate(61.133 72.3399) rotate(-9.84729) scale(19.8407 7.1374)">
<stop stop-color="#00862D"/>
<stop offset="0.627261" stop-color="#0033CC"/>
</radialGradient>
<clipPath id="clip0_4585_4970">
<rect width="130" height="130" fill="white" transform="translate(0 0.00390625)"/>
</clipPath>
</defs>
</svg>
