<svg width="130" height="131" viewBox="0 0 130 131" fill="none" xmlns="http://www.w3.org/2000/svg">
<g id="Frame 904" clip-path="url(#clip0_4585_4929)">
<g id="Group 151714">
<g id="Polygon 15" filter="url(#filter0_d_4585_4929)">
<path d="M58.3169 17.7304C77.2344 4.48419 103.397 16.6841 105.41 39.6902L109.184 82.8267C111.197 105.833 87.5499 122.391 66.6196 112.631L27.3753 94.3308C6.44502 84.5708 3.92905 55.8131 22.8466 42.5669L58.3169 17.7304Z" fill="white"/>
</g>
<g id="Group">
<g id="Vector">
<path d="M60.8868 40.3552C56.7201 41.6089 52.2409 45.9218 51.043 49.7333C50.7826 50.636 50.9388 50.8867 51.668 50.8867C52.293 50.8366 53.0743 49.9339 53.9076 48.2288C54.6888 46.6239 56.043 45.0191 57.3972 44.0161C63.5951 39.5528 72.4492 41.6089 75.7826 48.2288C76.6159 49.9339 77.3972 50.8366 78.0222 50.8867C79.168 50.8867 78.9076 49.6831 77.0326 46.5236C75.7305 44.317 73.6472 42.6119 70.5742 41.1074C68.4909 40.0543 63.1784 39.6531 60.8868 40.3552Z" fill="white"/>
<path d="M60.8868 40.3552C56.7201 41.6089 52.2409 45.9218 51.043 49.7333C50.7826 50.636 50.9388 50.8867 51.668 50.8867C52.293 50.8366 53.0743 49.9339 53.9076 48.2288C54.6888 46.6239 56.043 45.0191 57.3972 44.0161C63.5951 39.5528 72.4492 41.6089 75.7826 48.2288C76.6159 49.9339 77.3972 50.8366 78.0222 50.8867C79.168 50.8867 78.9076 49.6831 77.0326 46.5236C75.7305 44.317 73.6472 42.6119 70.5742 41.1074C68.4909 40.0543 63.1784 39.6531 60.8868 40.3552Z" fill="url(#paint0_radial_4585_4929)"/>
</g>
<g id="Vector_2">
<path d="M61.9805 48.8299C61.1471 49.0305 59.7409 49.5822 58.8555 50.0335C57.3451 50.8359 57.5534 50.8359 64.8451 50.8359H72.3972L70.5222 49.8831C68.3347 48.7798 64.2201 48.2783 61.9805 48.8299Z" fill="white"/>
<path d="M61.9805 48.8299C61.1471 49.0305 59.7409 49.5822 58.8555 50.0335C57.3451 50.8359 57.5534 50.8359 64.8451 50.8359H72.3972L70.5222 49.8831C68.3347 48.7798 64.2201 48.2783 61.9805 48.8299Z" fill="url(#paint1_radial_4585_4929)"/>
</g>
<g id="Vector_3">
<path d="M44.9493 54.2974C45.8868 55.0496 46.616 55.9523 46.616 56.2532C46.616 56.6043 45.6264 57.507 44.4285 58.2592L42.1889 59.6634L45.7826 59.8139C50.1055 60.0145 50.7826 59.8139 50.7826 58.3094C50.7826 57.6574 51.2514 56.2031 51.8243 54.9995L52.8139 52.8932H48.0222L43.2305 52.9433L44.9493 54.2974Z" fill="white"/>
<path d="M44.9493 54.2974C45.8868 55.0496 46.616 55.9523 46.616 56.2532C46.616 56.6043 45.6264 57.507 44.4285 58.2592L42.1889 59.6634L45.7826 59.8139C50.1055 60.0145 50.7826 59.8139 50.7826 58.3094C50.7826 57.6574 51.2514 56.2031 51.8243 54.9995L52.8139 52.8932H48.0222L43.2305 52.9433L44.9493 54.2974Z" fill="url(#paint2_radial_4585_4929)"/>
</g>
<g id="Vector_4">
<path d="M54.3243 53.9963C53.4389 55.3002 52.3451 58.209 52.3451 59.212C52.3451 59.7636 54.6889 59.9141 64.8972 59.9141H77.5014L77.1368 58.3093C76.9285 57.4066 76.3555 55.902 75.8347 54.899L74.8972 53.1438L65.0014 52.9933C55.2097 52.893 55.0535 52.893 54.3243 53.9963Z" fill="white"/>
<path d="M54.3243 53.9963C53.4389 55.3002 52.3451 58.209 52.3451 59.212C52.3451 59.7636 54.6889 59.9141 64.8972 59.9141H77.5014L77.1368 58.3093C76.9285 57.4066 76.3555 55.902 75.8347 54.899L74.8972 53.1438L65.0014 52.9933C55.2097 52.893 55.0535 52.893 54.3243 53.9963Z" fill="url(#paint3_radial_4585_4929)"/>
</g>
<g id="Vector_5">
<path d="M77.8659 54.9995C78.4388 56.2031 78.9076 57.6574 78.9076 58.3094C78.9076 59.8139 79.5846 60.0145 83.9076 59.8139L87.5013 59.6634L85.3138 58.2592C84.0638 57.507 83.0742 56.6043 83.0742 56.2532C83.0742 55.9523 83.8034 55.0496 84.7409 54.2974L86.4596 52.9433L81.668 52.8932H76.8763L77.8659 54.9995Z" fill="white"/>
<path d="M77.8659 54.9995C78.4388 56.2031 78.9076 57.6574 78.9076 58.3094C78.9076 59.8139 79.5846 60.0145 83.9076 59.8139L87.5013 59.6634L85.3138 58.2592C84.0638 57.507 83.0742 56.6043 83.0742 56.2532C83.0742 55.9523 83.8034 55.0496 84.7409 54.2974L86.4596 52.9433L81.668 52.8932H76.8763L77.8659 54.9995Z" fill="url(#paint4_radial_4585_4929)"/>
</g>
<g id="Vector_6">
<path d="M41.4076 55.9005C41.4076 57.7059 41.5118 57.9065 42.3451 57.4552C44.5326 56.2014 44.5847 56.1011 42.9701 54.9978L41.4076 53.8444V55.9005Z" fill="white"/>
<path d="M41.4076 55.9005C41.4076 57.7059 41.5118 57.9065 42.3451 57.4552C44.5326 56.2014 44.5847 56.1011 42.9701 54.9978L41.4076 53.8444V55.9005Z" fill="url(#paint5_radial_4585_4929)"/>
</g>
<g id="Vector_7">
<path d="M86.616 55.0483L85.1576 56.2018L86.7201 57.0543L88.2826 57.957V55.951C88.2826 54.7976 88.2305 53.8949 88.1785 53.8949C88.0743 53.945 87.3972 54.4465 86.616 55.0483Z" fill="white"/>
<path d="M86.616 55.0483L85.1576 56.2018L86.7201 57.0543L88.2826 57.957V55.951C88.2826 54.7976 88.2305 53.8949 88.1785 53.8949C88.0743 53.945 87.3972 54.4465 86.616 55.0483Z" fill="url(#paint6_radial_4585_4929)"/>
</g>
<g id="Vector_8">
<path d="M39.8451 75.7111V90.0039H64.8451H89.8451V75.7111V61.4183H64.8451H39.8451V75.7111ZM70.3138 64.3771C72.918 65.4804 75.4701 67.8877 76.9805 70.6459C78.543 73.5045 78.543 78.9207 76.9805 81.7793C75.4701 84.4874 71.7201 87.6468 69.1159 88.3991C64.3763 89.7532 59.7409 88.8505 56.1993 85.8414C52.7618 82.9327 51.6159 80.4754 51.5638 76.2126C51.5638 73.2537 51.8243 72.3009 53.0743 70.0441C54.6368 67.336 56.8763 65.3801 59.7409 64.1765C62.1888 63.1735 67.7618 63.2738 70.3138 64.3771Z" fill="white"/>
<path d="M39.8451 75.7111V90.0039H64.8451H89.8451V75.7111V61.4183H64.8451H39.8451V75.7111ZM70.3138 64.3771C72.918 65.4804 75.4701 67.8877 76.9805 70.6459C78.543 73.5045 78.543 78.9207 76.9805 81.7793C75.4701 84.4874 71.7201 87.6468 69.1159 88.3991C64.3763 89.7532 59.7409 88.8505 56.1993 85.8414C52.7618 82.9327 51.6159 80.4754 51.5638 76.2126C51.5638 73.2537 51.8243 72.3009 53.0743 70.0441C54.6368 67.336 56.8763 65.3801 59.7409 64.1765C62.1888 63.1735 67.7618 63.2738 70.3138 64.3771Z" fill="url(#paint7_radial_4585_4929)"/>
</g>
<g id="Vector_9">
<path d="M62.4493 66.0324C62.2409 66.3834 61.7201 67.1858 61.3555 67.7375C60.6784 68.7405 60.7305 68.8408 62.2409 69.0414C63.7514 69.242 63.8034 69.1918 63.8034 67.3363C63.8034 65.4306 63.1784 64.8288 62.4493 66.0324Z" fill="white"/>
<path d="M62.4493 66.0324C62.2409 66.3834 61.7201 67.1858 61.3555 67.7375C60.6784 68.7405 60.7305 68.8408 62.2409 69.0414C63.7514 69.242 63.8034 69.1918 63.8034 67.3363C63.8034 65.4306 63.1784 64.8288 62.4493 66.0324Z" fill="url(#paint8_radial_4585_4929)"/>
</g>
<g id="Vector_10">
<path d="M65.8867 67.2867C65.8867 69.1924 65.9388 69.2426 67.4492 69.042L69.0117 68.8414L68.0222 67.2867C66.5117 65.03 65.8867 65.03 65.8867 67.2867Z" fill="white"/>
<path d="M65.8867 67.2867C65.8867 69.1924 65.9388 69.2426 67.4492 69.042L69.0117 68.8414L68.0222 67.2867C66.5117 65.03 65.8867 65.03 65.8867 67.2867Z" fill="url(#paint9_radial_4585_4929)"/>
</g>
<g id="Vector_11">
<path d="M58.4388 66.8851C57.1888 67.6374 57.0847 67.838 57.8659 68.1389C58.6472 68.4398 60.1055 67.2863 60.1576 66.2833C60.1576 65.7818 60.1055 65.8319 58.4388 66.8851Z" fill="white"/>
<path d="M58.4388 66.8851C57.1888 67.6374 57.0847 67.838 57.8659 68.1389C58.6472 68.4398 60.1055 67.2863 60.1576 66.2833C60.1576 65.7818 60.1055 65.8319 58.4388 66.8851Z" fill="url(#paint10_radial_4585_4929)"/>
</g>
<g id="Vector_12">
<path d="M69.5326 66.3354C69.5326 66.536 69.8451 67.1378 70.2097 67.6393C70.7305 68.3414 71.1472 68.4417 71.7722 68.1408C72.5535 67.7396 72.4493 67.539 71.0951 66.7868C70.2097 66.2853 69.5326 66.0847 69.5326 66.3354Z" fill="white"/>
<path d="M69.5326 66.3354C69.5326 66.536 69.8451 67.1378 70.2097 67.6393C70.7305 68.3414 71.1472 68.4417 71.7722 68.1408C72.5535 67.7396 72.4493 67.539 71.0951 66.7868C70.2097 66.2853 69.5326 66.0847 69.5326 66.3354Z" fill="url(#paint11_radial_4585_4929)"/>
</g>
<g id="Vector_13">
<path d="M54.6888 70.6465C54.2201 71.2985 53.6992 72.6525 53.543 73.6555L53.2305 75.4609H55.3138C57.2409 75.4609 57.4492 75.3606 57.7617 73.9063C58.2826 71.3486 58.1263 70.0949 57.2409 69.7438C55.8867 69.2423 55.5222 69.3928 54.6888 70.6465Z" fill="white"/>
<path d="M54.6888 70.6465C54.2201 71.2985 53.6992 72.6525 53.543 73.6555L53.2305 75.4609H55.3138C57.2409 75.4609 57.4492 75.3606 57.7617 73.9063C58.2826 71.3486 58.1263 70.0949 57.2409 69.7438C55.8867 69.2423 55.5222 69.3928 54.6888 70.6465Z" fill="url(#paint12_radial_4585_4929)"/>
</g>
<g id="Vector_14">
<path d="M72.293 69.794C71.5638 70.0447 71.4597 71.4991 71.9284 73.9063C72.2409 75.3606 72.4493 75.4609 74.3763 75.4609H76.4597L76.1472 73.6555C75.5743 70.4459 74.168 69.0417 72.293 69.794Z" fill="white"/>
<path d="M72.293 69.794C71.5638 70.0447 71.4597 71.4991 71.9284 73.9063C72.2409 75.3606 72.4493 75.4609 74.3763 75.4609H76.4597L76.1472 73.6555C75.5743 70.4459 74.168 69.0417 72.293 69.794Z" fill="url(#paint13_radial_4585_4929)"/>
</g>
<g id="Vector_15">
<path d="M59.9492 71.5492C59.793 72.2012 59.6367 73.3045 59.6367 74.0567C59.6367 75.3606 59.793 75.4609 61.7201 75.4609H63.8034V73.2042C63.8034 71.2985 63.6472 70.9474 62.8138 70.9474C62.2409 70.9474 61.4597 70.797 61.043 70.6465C60.5742 70.4961 60.1576 70.797 59.9492 71.5492Z" fill="white"/>
<path d="M59.9492 71.5492C59.793 72.2012 59.6367 73.3045 59.6367 74.0567C59.6367 75.3606 59.793 75.4609 61.7201 75.4609H63.8034V73.2042C63.8034 71.2985 63.6472 70.9474 62.8138 70.9474C62.2409 70.9474 61.4597 70.797 61.043 70.6465C60.5742 70.4961 60.1576 70.797 59.9492 71.5492Z" fill="url(#paint14_radial_4585_4929)"/>
</g>
<g id="Vector_16">
<path d="M67.3451 70.797C65.9909 70.9976 65.8867 71.1982 65.8867 73.2543V75.4609H67.9701C69.8972 75.4609 70.0534 75.3606 70.0534 74.0567C70.0534 72.3516 69.5326 70.4459 69.0638 70.4961C68.9076 70.5462 68.1263 70.6967 67.3451 70.797Z" fill="white"/>
<path d="M67.3451 70.797C65.9909 70.9976 65.8867 71.1982 65.8867 73.2543V75.4609H67.9701C69.8972 75.4609 70.0534 75.3606 70.0534 74.0567C70.0534 72.3516 69.5326 70.4459 69.0638 70.4961C68.9076 70.5462 68.1263 70.6967 67.3451 70.797Z" fill="url(#paint15_radial_4585_4929)"/>
</g>
<g id="Vector_17">
<path d="M53.3867 77.9654C53.3867 78.9685 55.2617 82.9805 55.7305 82.9805C55.8347 82.9805 56.5117 82.7799 57.1888 82.5291C58.3867 82.0778 58.4388 81.9273 57.918 79.5201C57.3972 76.9624 57.3972 76.9624 55.418 76.9624C53.6992 76.9624 53.3867 77.1129 53.3867 77.9654Z" fill="white"/>
<path d="M53.3867 77.9654C53.3867 78.9685 55.2617 82.9805 55.7305 82.9805C55.8347 82.9805 56.5117 82.7799 57.1888 82.5291C58.3867 82.0778 58.4388 81.9273 57.918 79.5201C57.3972 76.9624 57.3972 76.9624 55.418 76.9624C53.6992 76.9624 53.3867 77.1129 53.3867 77.9654Z" fill="url(#paint16_radial_4585_4929)"/>
</g>
<g id="Vector_18">
<path d="M59.6367 78.3166C59.6367 81.2253 60.0534 81.7769 62.0326 81.5763C63.7513 81.3757 63.8034 81.2754 63.8034 79.1691V76.9625H61.7201C59.793 76.9625 59.6367 77.0628 59.6367 78.3166Z" fill="white"/>
<path d="M59.6367 78.3166C59.6367 81.2253 60.0534 81.7769 62.0326 81.5763C63.7513 81.3757 63.8034 81.2754 63.8034 79.1691V76.9625H61.7201C59.793 76.9625 59.6367 77.0628 59.6367 78.3166Z" fill="url(#paint17_radial_4585_4929)"/>
</g>
<g id="Vector_19">
<path d="M65.8867 79.1691C65.8867 81.2754 65.9388 81.3757 67.6576 81.5763C69.6367 81.7769 70.0534 81.2253 70.0534 78.3166C70.0534 77.0628 69.8972 76.9625 67.9701 76.9625H65.8867V79.1691Z" fill="white"/>
<path d="M65.8867 79.1691C65.8867 81.2754 65.9388 81.3757 67.6576 81.5763C69.6367 81.7769 70.0534 81.2253 70.0534 78.3166C70.0534 77.0628 69.8972 76.9625 67.9701 76.9625H65.8867V79.1691Z" fill="url(#paint18_radial_4585_4929)"/>
</g>
<g id="Vector_20">
<path d="M71.7722 79.521C71.2513 81.9282 71.3034 82.0787 72.5013 82.53C74.2201 83.1319 74.0638 83.2322 75.2618 80.9754C76.9284 77.8661 76.7201 76.9634 74.2722 76.9634C72.293 76.9634 72.293 76.9634 71.7722 79.521Z" fill="white"/>
<path d="M71.7722 79.521C71.2513 81.9282 71.3034 82.0787 72.5013 82.53C74.2201 83.1319 74.0638 83.2322 75.2618 80.9754C76.9284 77.8661 76.7201 76.9634 74.2722 76.9634C72.293 76.9634 72.293 76.9634 71.7722 79.521Z" fill="url(#paint19_radial_4585_4929)"/>
</g>
<g id="Vector_21">
<path d="M61.5118 83.4347C60.5743 83.7857 60.6263 83.9362 62.1368 85.541L63.7513 87.2461L63.8034 85.0896C63.8034 82.9332 63.4909 82.6824 61.5118 83.4347Z" fill="white"/>
<path d="M61.5118 83.4347C60.5743 83.7857 60.6263 83.9362 62.1368 85.541L63.7513 87.2461L63.8034 85.0896C63.8034 82.9332 63.4909 82.6824 61.5118 83.4347Z" fill="url(#paint20_radial_4585_4929)"/>
</g>
<g id="Vector_22">
<path d="M65.8867 85.0896L65.9388 87.2461L67.5534 85.541C69.0638 83.9362 69.1159 83.7857 68.1784 83.4347C66.1992 82.6824 65.8867 82.9332 65.8867 85.0896Z" fill="white"/>
<path d="M65.8867 85.0896L65.9388 87.2461L67.5534 85.541C69.0638 83.9362 69.1159 83.7857 68.1784 83.4347C66.1992 82.6824 65.8867 82.9332 65.8867 85.0896Z" fill="url(#paint21_radial_4585_4929)"/>
</g>
<g id="Vector_23">
<path d="M57.5534 84.4353C57.5534 84.987 59.7409 86.5918 60.0534 86.2909C60.1576 86.1404 60.0014 85.5888 59.6368 85.0371C59.0639 83.984 57.5534 83.5828 57.5534 84.4353Z" fill="white"/>
<path d="M57.5534 84.4353C57.5534 84.987 59.7409 86.5918 60.0534 86.2909C60.1576 86.1404 60.0014 85.5888 59.6368 85.0371C59.0639 83.984 57.5534 83.5828 57.5534 84.4353Z" fill="url(#paint22_radial_4585_4929)"/>
</g>
<g id="Vector_24">
<path d="M70.0534 85.0371C69.6888 85.5888 69.5326 86.1404 69.6368 86.2909C69.9493 86.5918 72.1368 84.987 72.1368 84.4353C72.1368 83.5828 70.6263 83.984 70.0534 85.0371Z" fill="white"/>
<path d="M70.0534 85.0371C69.6888 85.5888 69.5326 86.1404 69.6368 86.2909C69.9493 86.5918 72.1368 84.987 72.1368 84.4353C72.1368 83.5828 70.6263 83.984 70.0534 85.0371Z" fill="url(#paint23_radial_4585_4929)"/>
</g>
</g>
</g>
</g>
<defs>
<filter id="filter0_d_4585_4929" x="-2.94849" y="9.26562" width="115.253" height="119.223" filterUnits="userSpaceOnUse" color-interpolation-filters="sRGB">
<feFlood flood-opacity="0" result="BackgroundImageFix"/>
<feColorMatrix in="SourceAlpha" type="matrix" values="0 0 0 0 0 0 0 0 0 0 0 0 0 0 0 0 0 0 127 0" result="hardAlpha"/>
<feOffset dx="-5" dy="5"/>
<feGaussianBlur stdDeviation="4"/>
<feComposite in2="hardAlpha" operator="out"/>
<feColorMatrix type="matrix" values="0 0 0 0 0 0 0 0 0 0 0 0 0 0 0 0 0 0 0.25 0"/>
<feBlend mode="normal" in2="BackgroundImageFix" result="effect1_dropShadow_4585_4929"/>
<feBlend mode="normal" in="SourceGraphic" in2="effect1_dropShadow_4585_4929" result="shape"/>
</filter>
<radialGradient id="paint0_radial_4585_4929" cx="0" cy="0" r="1" gradientUnits="userSpaceOnUse" gradientTransform="translate(56.3281 48.7103) rotate(-15.2145) scale(44.4722 24.0429)">
<stop stop-color="#00862D"/>
<stop offset="0.627261" stop-color="#0033CC"/>
</radialGradient>
<radialGradient id="paint1_radial_4585_4929" cx="0" cy="0" r="1" gradientUnits="userSpaceOnUse" gradientTransform="translate(60.8842 50.3896) rotate(-6.18743) scale(22.2044 5.07951)">
<stop stop-color="#00862D"/>
<stop offset="0.627261" stop-color="#0033CC"/>
</radialGradient>
<radialGradient id="paint2_radial_4585_4929" cx="0" cy="0" r="1" gradientUnits="userSpaceOnUse" gradientTransform="translate(44.255 58.4818) rotate(-24.5369) scale(18.0401 14.5496)">
<stop stop-color="#00862D"/>
<stop offset="0.627261" stop-color="#0033CC"/>
</radialGradient>
<radialGradient id="paint3_radial_4585_4929" cx="0" cy="0" r="1" gradientUnits="userSpaceOnUse" gradientTransform="translate(57.237 58.5218) rotate(-10.8767) scale(39.5662 15.6528)">
<stop stop-color="#00862D"/>
<stop offset="0.627261" stop-color="#0033CC"/>
</radialGradient>
<radialGradient id="paint4_radial_4585_4929" cx="0" cy="0" r="1" gradientUnits="userSpaceOnUse" gradientTransform="translate(78.9424 58.4818) rotate(-24.5369) scale(18.0401 14.5496)">
<stop stop-color="#00862D"/>
<stop offset="0.627261" stop-color="#0033CC"/>
</radialGradient>
<radialGradient id="paint5_radial_4585_4929" cx="0" cy="0" r="1" gradientUnits="userSpaceOnUse" gradientTransform="translate(41.9302 56.897) rotate(-44.5948) scale(5.82853 6.22102)">
<stop stop-color="#00862D"/>
<stop offset="0.627261" stop-color="#0033CC"/>
</radialGradient>
<radialGradient id="paint6_radial_4585_4929" cx="0" cy="0" r="1" gradientUnits="userSpaceOnUse" gradientTransform="translate(85.7653 57.1446) rotate(-42.0676) scale(6.50195 6.90416)">
<stop stop-color="#00862D"/>
<stop offset="0.627261" stop-color="#0033CC"/>
</radialGradient>
<radialGradient id="paint7_radial_4585_4929" cx="0" cy="0" r="1" gradientUnits="userSpaceOnUse" gradientTransform="translate(49.5681 84.2871) rotate(-21.6507) scale(83.0901 60.8296)">
<stop stop-color="#00862D"/>
<stop offset="0.627261" stop-color="#0033CC"/>
</radialGradient>
<radialGradient id="paint8_radial_4585_4929" cx="0" cy="0" r="1" gradientUnits="userSpaceOnUse" gradientTransform="translate(61.4963 68.379) rotate(-41.9714) scale(5.95019 6.31605)">
<stop stop-color="#00862D"/>
<stop offset="0.627261" stop-color="#0033CC"/>
</radialGradient>
<radialGradient id="paint9_radial_4585_4929" cx="0" cy="0" r="1" gradientUnits="userSpaceOnUse" gradientTransform="translate(66.4944 68.4158) rotate(-38.083) scale(6.13219 6.3559)">
<stop stop-color="#00862D"/>
<stop offset="0.627261" stop-color="#0033CC"/>
</radialGradient>
<radialGradient id="paint10_radial_4585_4929" cx="0" cy="0" r="1" gradientUnits="userSpaceOnUse" gradientTransform="translate(57.9116 67.745) rotate(-28.8523) scale(4.91697 4.43666)">
<stop stop-color="#00862D"/>
<stop offset="0.627261" stop-color="#0033CC"/>
</radialGradient>
<radialGradient id="paint11_radial_4585_4929" cx="0" cy="0" r="1" gradientUnits="userSpaceOnUse" gradientTransform="translate(70.0633 67.8861) rotate(-27.8122) scale(4.76546 4.19847)">
<stop stop-color="#00862D"/>
<stop offset="0.627261" stop-color="#0033CC"/>
</radialGradient>
<radialGradient id="paint12_radial_4585_4929" cx="0" cy="0" r="1" gradientUnits="userSpaceOnUse" gradientTransform="translate(54.1695 74.264) rotate(-40.7133) scale(9.83985 10.3861)">
<stop stop-color="#00862D"/>
<stop offset="0.627261" stop-color="#0033CC"/>
</radialGradient>
<radialGradient id="paint13_radial_4585_4929" cx="0" cy="0" r="1" gradientUnits="userSpaceOnUse" gradientTransform="translate(72.5807 74.2879) rotate(-40.223) scale(9.74115 10.2539)">
<stop stop-color="#00862D"/>
<stop offset="0.627261" stop-color="#0033CC"/>
</radialGradient>
<radialGradient id="paint14_radial_4585_4929" cx="0" cy="0" r="1" gradientUnits="userSpaceOnUse" gradientTransform="translate(60.447 74.4906) rotate(-38.9565) scale(8.27608 8.63842)">
<stop stop-color="#00862D"/>
<stop offset="0.627261" stop-color="#0033CC"/>
</radialGradient>
<radialGradient id="paint15_radial_4585_4929" cx="0" cy="0" r="1" gradientUnits="userSpaceOnUse" gradientTransform="translate(66.697 74.4678) rotate(-39.6075) scale(8.35336 8.75925)">
<stop stop-color="#00862D"/>
<stop offset="0.627261" stop-color="#0033CC"/>
</radialGradient>
<radialGradient id="paint16_radial_4585_4929" cx="0" cy="0" r="1" gradientUnits="userSpaceOnUse" gradientTransform="translate(54.329 81.7769) rotate(-40.773) scale(9.88243 10.4343)">
<stop stop-color="#00862D"/>
<stop offset="0.627261" stop-color="#0033CC"/>
</radialGradient>
<radialGradient id="paint17_radial_4585_4929" cx="0" cy="0" r="1" gradientUnits="userSpaceOnUse" gradientTransform="translate(60.447 80.6832) rotate(-37.7753) scale(8.14211 8.41635)">
<stop stop-color="#00862D"/>
<stop offset="0.627261" stop-color="#0033CC"/>
</radialGradient>
<radialGradient id="paint18_radial_4585_4929" cx="0" cy="0" r="1" gradientUnits="userSpaceOnUse" gradientTransform="translate(66.697 80.6832) rotate(-37.7753) scale(8.14211 8.41635)">
<stop stop-color="#00862D"/>
<stop offset="0.627261" stop-color="#0033CC"/>
</radialGradient>
<radialGradient id="paint19_radial_4585_4929" cx="0" cy="0" r="1" gradientUnits="userSpaceOnUse" gradientTransform="translate(72.4079 81.7115) rotate(-40.1515) scale(9.87094 10.3861)">
<stop stop-color="#00862D"/>
<stop offset="0.627261" stop-color="#0033CC"/>
</radialGradient>
<radialGradient id="paint20_radial_4585_4929" cx="0" cy="0" r="1" gradientUnits="userSpaceOnUse" gradientTransform="translate(61.4554 86.4069) rotate(-44.9859) scale(6.36546 6.79478)">
<stop stop-color="#00862D"/>
<stop offset="0.627261" stop-color="#0033CC"/>
</radialGradient>
<radialGradient id="paint21_radial_4585_4929" cx="0" cy="0" r="1" gradientUnits="userSpaceOnUse" gradientTransform="translate(66.4536 86.4069) rotate(-44.9859) scale(6.36546 6.79478)">
<stop stop-color="#00862D"/>
<stop offset="0.627261" stop-color="#0033CC"/>
</radialGradient>
<radialGradient id="paint22_radial_4585_4929" cx="0" cy="0" r="1" gradientUnits="userSpaceOnUse" gradientTransform="translate(58.0457 85.8572) rotate(-32.8541) scale(4.65486 4.52888)">
<stop stop-color="#00862D"/>
<stop offset="0.627261" stop-color="#0033CC"/>
</radialGradient>
<radialGradient id="paint23_radial_4585_4929" cx="0" cy="0" r="1" gradientUnits="userSpaceOnUse" gradientTransform="translate(70.0974 85.8572) rotate(-32.8541) scale(4.65486 4.52888)">
<stop stop-color="#00862D"/>
<stop offset="0.627261" stop-color="#0033CC"/>
</radialGradient>
<clipPath id="clip0_4585_4929">
<rect width="130" height="130" fill="white" transform="translate(0 0.00390625)"/>
</clipPath>
</defs>
</svg>
