<svg width="130" height="119" viewBox="0 0 130 119" fill="none" xmlns="http://www.w3.org/2000/svg">
<g clip-path="url(#clip0_4933_7174)">
<g filter="url(#filter0_d_4933_7174)">
<path d="M68.8739 17.2024C86.2149 5.06006 110.198 16.2433 112.043 37.3323L115.502 76.8741C117.347 97.963 95.6708 113.141 76.4847 104.194L40.5108 87.4194C21.3247 78.4728 19.0184 52.1116 36.3594 39.9693L68.8739 17.2024Z" fill="white"/>
</g>
<path d="M67.4012 32.0931C63.6528 33.7159 60.8414 38.4367 61.4826 42.0265C61.6799 43.01 61.5813 43.7477 61.236 43.9444C59.9043 44.7804 62.4197 51.6649 65.1818 54.6646C69.7194 59.6805 75.1448 57.9594 78.6959 50.4355C80.2742 47.1408 80.7181 45.4196 80.2249 44.3378C80.0276 43.846 79.8303 41.9282 79.8303 40.1087C79.781 36.8139 79.781 36.7648 77.5615 34.7486C73.9117 31.4538 70.7551 30.667 67.4012 32.0931Z" fill="white"/>
<path d="M67.4012 32.0931C63.6528 33.7159 60.8414 38.4367 61.4826 42.0265C61.6799 43.01 61.5813 43.7477 61.236 43.9444C59.9043 44.7804 62.4197 51.6649 65.1818 54.6646C69.7194 59.6805 75.1448 57.9594 78.6959 50.4355C80.2742 47.1408 80.7181 45.4196 80.2249 44.3378C80.0276 43.846 79.8303 41.9282 79.8303 40.1087C79.781 36.8139 79.781 36.7648 77.5615 34.7486C73.9117 31.4538 70.7551 30.667 67.4012 32.0931Z" fill="url(#paint0_radial_4933_7174)"/>
<path d="M60.7922 58.2469C59.0166 59.1321 57.2411 59.8697 56.8465 59.9189C56.4519 59.9189 55.4161 60.3615 54.5284 60.9024C52.5062 62.1318 51.6677 64.7381 52.1609 68.5246C52.5062 71.2784 52.5062 71.3276 54.775 72.3111C59.5099 74.3273 64.2447 75.2616 70.1634 75.3108C73.2706 75.36 76.4272 75.2124 77.2164 75.0157C78.4494 74.6715 78.5481 74.4748 78.5481 72.1144C78.5481 67.3444 81.4087 63.5087 86.045 62.1318L88.1658 61.4925L86.1929 60.6565C85.1079 60.2139 82.6418 59.0829 80.7182 58.1977L77.2164 56.5258L75.2928 62.7219L73.4186 68.918L72.5308 66.9018C71.6923 64.9839 71.6923 64.7872 72.4815 63.1153C73.7639 60.4106 72.3828 58.8862 69.3742 59.6238C67.9932 59.9681 67.8452 61.2466 68.9303 63.312C69.5715 64.5905 69.5222 64.9348 68.8317 66.8034L67.9932 68.918L65.971 62.7711L63.9981 56.575L60.7922 58.2469Z" fill="white"/>
<path d="M60.7922 58.2469C59.0166 59.1321 57.2411 59.8697 56.8465 59.9189C56.4519 59.9189 55.4161 60.3615 54.5284 60.9024C52.5062 62.1318 51.6677 64.7381 52.1609 68.5246C52.5062 71.2784 52.5062 71.3276 54.775 72.3111C59.5099 74.3273 64.2447 75.2616 70.1634 75.3108C73.2706 75.36 76.4272 75.2124 77.2164 75.0157C78.4494 74.6715 78.5481 74.4748 78.5481 72.1144C78.5481 67.3444 81.4087 63.5087 86.045 62.1318L88.1658 61.4925L86.1929 60.6565C85.1079 60.2139 82.6418 59.0829 80.7182 58.1977L77.2164 56.5258L75.2928 62.7219L73.4186 68.918L72.5308 66.9018C71.6923 64.9839 71.6923 64.7872 72.4815 63.1153C73.7639 60.4106 72.3828 58.8862 69.3742 59.6238C67.9932 59.9681 67.8452 61.2466 68.9303 63.312C69.5715 64.5905 69.5222 64.9348 68.8317 66.8034L67.9932 68.918L65.971 62.7711L63.9981 56.575L60.7922 58.2469Z" fill="url(#paint1_radial_4933_7174)"/>
<path d="M85.2064 64.0513C79.3371 66.6576 78.252 74.1815 83.1348 78.4597C89.3001 83.869 99.2137 77.5746 96.8463 69.7557C95.3666 64.789 89.744 62.0351 85.2064 64.0513ZM87.9191 67.051C87.9191 68.4279 87.7218 68.7722 86.9326 68.7722C85.7489 68.7722 85.6996 68.1329 86.7353 66.5593C87.7711 64.9365 87.9191 64.9857 87.9191 67.051ZM91.3716 68.3788C91.3716 68.6246 90.9277 68.7722 90.3851 68.7722C89.596 68.7722 89.3987 68.4279 89.3987 66.9035V65.084L90.3851 66.5593C90.9277 67.3461 91.3716 68.1821 91.3716 68.3788ZM84.7131 67.2969C84.2692 68.0837 83.6281 68.7722 83.2335 68.7722C82.1977 68.7722 82.2964 68.2804 83.5787 66.9527C85.0584 65.3791 85.6009 65.5266 84.7131 67.2969ZM94.1829 67.592C94.6761 68.8705 93.7883 69.0672 92.8019 67.8378C92.3087 67.1986 91.8648 66.5101 91.8648 66.2642C91.8648 65.5758 93.8377 66.756 94.1829 67.592ZM83.776 72.1161C83.8747 74.0339 83.776 74.2306 82.8389 74.0831C82.0498 73.9848 81.7045 73.5422 81.6059 72.5587C81.3593 70.6408 81.8525 69.6573 82.8389 69.854C83.4308 69.9524 83.6774 70.5917 83.776 72.1161ZM87.9191 71.9686C87.9191 73.9848 87.8204 74.1815 86.7353 74.1815C85.9462 74.1815 85.453 73.8372 85.2557 73.0504C84.8118 71.1818 85.453 69.7557 86.7353 69.7557C87.8204 69.7557 87.9191 69.9524 87.9191 71.9686ZM91.8648 71.9686C91.8648 73.9848 91.7662 74.1815 90.6318 74.1815C89.4974 74.1815 89.3987 73.9848 89.3987 71.9686C89.3987 69.9524 89.4974 69.7557 90.6318 69.7557C91.7662 69.7557 91.8648 69.9524 91.8648 71.9686ZM95.5639 71.9686C95.5639 73.6405 95.416 73.9356 94.4789 74.0831C93.4431 74.2306 93.3445 74.0339 93.3445 71.9686C93.3445 69.9032 93.4431 69.7065 94.4789 69.854C95.416 70.0016 95.5639 70.2966 95.5639 71.9686ZM84.8611 76.8861C85.157 77.5746 85.2557 78.1155 85.0584 78.1155C84.8118 78.1155 84.1213 77.5746 83.4801 76.8861C82.395 75.7059 82.3457 75.6567 83.3321 75.6567C83.8747 75.6567 84.5652 76.1485 84.8611 76.8861ZM87.9191 77.2303V78.8531L86.9326 77.6237C85.6996 76.0501 85.6996 75.6567 86.9326 75.6567C87.7218 75.6567 87.9191 76.001 87.9191 77.2303ZM90.9277 76.4927C89.596 78.804 89.3987 78.9023 89.3987 77.2303C89.3987 75.9518 89.596 75.6567 90.3851 75.6567C91.2236 75.6567 91.3223 75.8043 90.9277 76.4927ZM94.2322 76.2468C94.1336 76.5419 93.4924 77.132 92.8512 77.5746C92.2101 78.0171 91.7662 78.1155 91.9141 77.8696C92.0621 77.5746 92.358 76.9845 92.506 76.4927C92.8512 75.5584 94.5282 75.3125 94.2322 76.2468Z" fill="white"/>
<path d="M85.2064 64.0513C79.3371 66.6576 78.252 74.1815 83.1348 78.4597C89.3001 83.869 99.2137 77.5746 96.8463 69.7557C95.3666 64.789 89.744 62.0351 85.2064 64.0513ZM87.9191 67.051C87.9191 68.4279 87.7218 68.7722 86.9326 68.7722C85.7489 68.7722 85.6996 68.1329 86.7353 66.5593C87.7711 64.9365 87.9191 64.9857 87.9191 67.051ZM91.3716 68.3788C91.3716 68.6246 90.9277 68.7722 90.3851 68.7722C89.596 68.7722 89.3987 68.4279 89.3987 66.9035V65.084L90.3851 66.5593C90.9277 67.3461 91.3716 68.1821 91.3716 68.3788ZM84.7131 67.2969C84.2692 68.0837 83.6281 68.7722 83.2335 68.7722C82.1977 68.7722 82.2964 68.2804 83.5787 66.9527C85.0584 65.3791 85.6009 65.5266 84.7131 67.2969ZM94.1829 67.592C94.6761 68.8705 93.7883 69.0672 92.8019 67.8378C92.3087 67.1986 91.8648 66.5101 91.8648 66.2642C91.8648 65.5758 93.8377 66.756 94.1829 67.592ZM83.776 72.1161C83.8747 74.0339 83.776 74.2306 82.8389 74.0831C82.0498 73.9848 81.7045 73.5422 81.6059 72.5587C81.3593 70.6408 81.8525 69.6573 82.8389 69.854C83.4308 69.9524 83.6774 70.5917 83.776 72.1161ZM87.9191 71.9686C87.9191 73.9848 87.8204 74.1815 86.7353 74.1815C85.9462 74.1815 85.453 73.8372 85.2557 73.0504C84.8118 71.1818 85.453 69.7557 86.7353 69.7557C87.8204 69.7557 87.9191 69.9524 87.9191 71.9686ZM91.8648 71.9686C91.8648 73.9848 91.7662 74.1815 90.6318 74.1815C89.4974 74.1815 89.3987 73.9848 89.3987 71.9686C89.3987 69.9524 89.4974 69.7557 90.6318 69.7557C91.7662 69.7557 91.8648 69.9524 91.8648 71.9686ZM95.5639 71.9686C95.5639 73.6405 95.416 73.9356 94.4789 74.0831C93.4431 74.2306 93.3445 74.0339 93.3445 71.9686C93.3445 69.9032 93.4431 69.7065 94.4789 69.854C95.416 70.0016 95.5639 70.2966 95.5639 71.9686ZM84.8611 76.8861C85.157 77.5746 85.2557 78.1155 85.0584 78.1155C84.8118 78.1155 84.1213 77.5746 83.4801 76.8861C82.395 75.7059 82.3457 75.6567 83.3321 75.6567C83.8747 75.6567 84.5652 76.1485 84.8611 76.8861ZM87.9191 77.2303V78.8531L86.9326 77.6237C85.6996 76.0501 85.6996 75.6567 86.9326 75.6567C87.7218 75.6567 87.9191 76.001 87.9191 77.2303ZM90.9277 76.4927C89.596 78.804 89.3987 78.9023 89.3987 77.2303C89.3987 75.9518 89.596 75.6567 90.3851 75.6567C91.2236 75.6567 91.3223 75.8043 90.9277 76.4927ZM94.2322 76.2468C94.1336 76.5419 93.4924 77.132 92.8512 77.5746C92.2101 78.0171 91.7662 78.1155 91.9141 77.8696C92.0621 77.5746 92.358 76.9845 92.506 76.4927C92.8512 75.5584 94.5282 75.3125 94.2322 76.2468Z" fill="url(#paint2_radial_4933_7174)"/>
</g>
<defs>
<filter id="filter0_d_4933_7174" x="12.7139" y="9.44531" width="105.648" height="109.284" filterUnits="userSpaceOnUse" color-interpolation-filters="sRGB">
<feFlood flood-opacity="0" result="BackgroundImageFix"/>
<feColorMatrix in="SourceAlpha" type="matrix" values="0 0 0 0 0 0 0 0 0 0 0 0 0 0 0 0 0 0 127 0" result="hardAlpha"/>
<feOffset dx="-4.58333" dy="4.58333"/>
<feGaussianBlur stdDeviation="3.66667"/>
<feComposite in2="hardAlpha" operator="out"/>
<feColorMatrix type="matrix" values="0 0 0 0 0 0 0 0 0 0 0 0 0 0 0 0 0 0 0.25 0"/>
<feBlend mode="normal" in2="BackgroundImageFix" result="effect1_dropShadow_4933_7174"/>
<feBlend mode="normal" in="SourceGraphic" in2="effect1_dropShadow_4933_7174" result="shape"/>
</filter>
<radialGradient id="paint0_radial_4933_7174" cx="0" cy="0" r="1" gradientUnits="userSpaceOnUse" gradientTransform="translate(64.67 52.2955) rotate(-42.8353) scale(41.172 43.8235)">
<stop stop-color="#00862D"/>
<stop offset="0.627261" stop-color="#0033CC"/>
</radialGradient>
<radialGradient id="paint1_radial_4933_7174" cx="0" cy="0" r="1" gradientUnits="userSpaceOnUse" gradientTransform="translate(59.0513 71.5616) rotate(-19.8522) scale(59.3521 40.4729)">
<stop stop-color="#00862D"/>
<stop offset="0.627261" stop-color="#0033CC"/>
</radialGradient>
<radialGradient id="paint2_radial_4933_7174" cx="0" cy="0" r="1" gradientUnits="userSpaceOnUse" gradientTransform="translate(83.3876 77.0648) rotate(-34.6889) scale(32.2198 32.1891)">
<stop stop-color="#00862D"/>
<stop offset="0.627261" stop-color="#0033CC"/>
</radialGradient>
<clipPath id="clip0_4933_7174">
<rect width="130" height="118" fill="white" transform="translate(0 0.953125)"/>
</clipPath>
</defs>
</svg>
