<svg width="100" height="100" viewBox="0 0 100 100" fill="none" xmlns="http://www.w3.org/2000/svg">
<path d="M24.9969 0.214844C22.8289 0.644531 20.4852 2.38281 19.2547 4.49219C17.9657 6.71875 18.0633 3.00781 18.0047 49.4141C17.9852 77.5 18.0242 92.0508 18.161 92.7539C18.8055 96.2891 21.6571 99.1406 25.1727 99.8047C26.618 100.078 73.7664 100.078 75.2117 99.8047C78.7274 99.1406 81.5789 96.2891 82.2235 92.7539C82.3602 92.0508 82.3992 77.5 82.3797 49.4141C82.3211 3.00781 82.4188 6.71875 81.1297 4.49219C79.8602 2.32422 77.536 0.625 75.2117 0.195312C73.9032 -0.0585938 26.2664 -0.0390625 24.9969 0.214844ZM52.0672 12.7148C52.3407 12.9688 53.493 15 54.6063 17.2266C56.5399 21.0938 56.6571 21.2695 57.2625 21.3867C57.6141 21.4453 59.6258 21.7383 61.7352 22.0508C63.8446 22.3633 65.8563 22.7734 66.1883 22.9297C67.3211 23.5156 67.9071 24.9414 67.5555 26.25C67.3797 26.9141 66.7742 27.5977 64.0008 30.3125L60.6414 33.5547L61.4032 38.0273C61.911 41.0156 62.1258 42.7539 62.0282 43.2227C61.7547 44.6875 60.3289 45.6641 58.8055 45.4492C58.4149 45.3906 56.325 44.4141 54.1571 43.2617L50.1922 41.1719L46.2469 43.2617C44.0594 44.4141 41.9696 45.3906 41.5789 45.4492C40.0555 45.6641 38.6297 44.6875 38.3563 43.2227C38.2586 42.7539 38.4735 41.0156 38.9813 38.0273L39.743 33.5547L36.3836 30.3125C33.6102 27.5977 33.0047 26.9141 32.8289 26.25C32.4774 24.9414 33.0633 23.5156 34.1961 22.9297C34.5282 22.7734 36.5399 22.3633 38.6492 22.0508C40.7586 21.7383 42.7703 21.4453 43.1219 21.3867C43.7274 21.2695 43.8446 21.0938 45.7782 17.2266C47.6727 13.4766 48.2586 12.5391 49.0203 12.2461C49.1766 12.168 49.8211 12.1484 50.4266 12.168C51.3055 12.2266 51.6766 12.3438 52.0672 12.7148ZM69.1375 53.5352C69.9578 54.0039 70.7 55.1367 70.7 55.9375C70.7 56.7969 70.2703 57.5977 67.7899 61.2891L65.4266 64.8438L67.7899 68.3984C70.2703 72.0898 70.7 72.8906 70.7 73.75C70.7 74.5508 69.9578 75.6836 69.1375 76.1523C68.3953 76.5625 68.3758 76.5625 50.1922 76.5625C32.0086 76.5625 31.9891 76.5625 31.2469 76.1523C30.4266 75.6836 29.6844 74.5508 29.6844 73.75C29.6844 72.8906 30.1141 72.0898 32.5946 68.3984L34.9578 64.8438L32.5946 61.2891C30.1141 57.5977 29.6844 56.7969 29.6844 55.9375C29.6844 55.1562 30.4266 54.0039 31.2274 53.5547C31.9305 53.1445 31.9696 53.125 50.1727 53.125C68.3758 53.125 68.3953 53.125 69.1375 53.5352ZM63.2782 82.8125C64.1571 83.2617 64.8407 84.375 64.8407 85.3516C64.8407 86.3281 64.1571 87.4414 63.2782 87.8906C62.536 88.2617 62.1453 88.2812 50.1922 88.2812C38.2391 88.2812 37.8485 88.2617 37.1063 87.8906C36.2274 87.4414 35.5438 86.3281 35.5438 85.3516C35.5438 84.4141 36.2274 83.2617 37.0672 82.832C37.7703 82.4609 38.2391 82.4414 50.1532 82.4219C62.1649 82.4219 62.536 82.4414 63.2782 82.8125Z" fill="url(#paint0_radial_2754_1662)"/>
<path d="M49.2174 23.4765C48.2017 25.5664 47.4791 26.4648 46.6197 26.7383C46.2682 26.8359 45.1549 27.0312 44.1392 27.168C43.1236 27.2851 42.2057 27.4609 42.1275 27.539C42.0299 27.6172 42.6353 28.2812 43.4557 29.0234C45.9166 31.25 46.0728 31.7187 45.4088 35.2344C45.233 36.1719 45.1353 36.9922 45.1744 37.0508C45.233 37.1094 46.2291 36.6601 47.3619 36.0547C48.8267 35.293 49.6861 34.9609 50.1939 34.9609C50.7017 34.9609 51.5611 35.293 53.026 36.0547C54.1588 36.6601 55.1549 37.1094 55.2135 37.0508C55.2525 36.9922 55.1549 36.1719 54.9791 35.2344C54.315 31.7187 54.4713 31.25 56.9322 29.0234C57.7525 28.2812 58.358 27.6172 58.2603 27.539C58.1822 27.4609 57.2643 27.2851 56.2486 27.168C55.233 27.0312 54.1197 26.8359 53.7682 26.7383C52.9088 26.4648 52.1861 25.5664 51.1705 23.4765C50.7017 22.4805 50.2525 21.6797 50.1939 21.6797C50.1353 21.6797 49.6861 22.4805 49.2174 23.4765Z" fill="url(#paint1_radial_2754_1662)"/>
<path d="M39.6289 61.3086C40.4883 62.5977 41.2305 63.9258 41.3086 64.2383C41.5234 65.2344 41.25 65.9375 39.6289 68.3789L38.0859 70.7031H50.1953H62.3047L60.7617 68.3789C59.1406 65.9375 58.8672 65.2344 59.082 64.2383C59.1602 63.9258 59.9023 62.5977 60.7617 61.3086L62.3047 58.9844H50.1953H38.0859L39.6289 61.3086Z" fill="url(#paint2_radial_2754_1662)"/>
<path d="M8.49549 10.332C4.72596 11.6797 4.45252 11.8164 3.04627 13.1055C0.761113 15.1953 -0.274044 18.5547 0.468144 21.4258C0.643925 22.0898 3.0658 28.8281 5.85877 36.4258L10.9369 50.1953L5.85877 63.8672C3.0658 71.3867 0.643925 78.0859 0.468144 78.7695C-0.0591999 80.8008 0.272831 82.9492 1.5033 85.2734C1.99158 86.1914 3.82752 87.9297 4.86268 88.457C5.62439 88.8477 11.6205 91.0156 11.9135 91.0156C12.0306 91.0156 12.1088 75.8594 12.1088 50.0977C12.1088 17.4805 12.0502 9.17969 11.8744 9.19922C11.7377 9.19922 10.2142 9.70703 8.49549 10.332Z" fill="url(#paint3_radial_2754_1662)"/>
<path d="M88.2812 50.0977C88.2812 73.5156 88.3594 91.0156 88.457 91.0156C88.75 91.0156 94.5117 88.8867 95.293 88.4766C96.3477 87.9492 98.1055 86.3086 98.7891 85.1953C99.7852 83.6328 100.059 82.4609 99.9609 80.2148L99.8828 78.2227L94.668 64.2188L89.4531 50.1953L94.668 36.0938L99.8828 21.9727L99.9609 19.9805C100.059 17.7344 99.7852 16.5625 98.7891 15C98.1055 13.9062 96.3477 12.2461 95.332 11.7383C94.5312 11.3281 88.75 9.17969 88.4766 9.17969C88.3594 9.17969 88.2812 24.3555 88.2812 50.0977Z" fill="url(#paint4_radial_2754_1662)"/>
<defs>
<radialGradient id="paint0_radial_2754_1662" cx="0" cy="0" r="1" gradientUnits="userSpaceOnUse" gradientTransform="translate(30.5201 80.0119) rotate(-47.1589) scale(146.251 155.672)">
<stop stop-color="#00862D"/>
<stop offset="0.627261" stop-color="#0033CC"/>
</radialGradient>
<radialGradient id="paint1_radial_2754_1662" cx="0" cy="0" r="1" gradientUnits="userSpaceOnUse" gradientTransform="translate(45.2584 33.9808) rotate(-33.4612) scale(29.9069 29.3692)">
<stop stop-color="#00862D"/>
<stop offset="0.627261" stop-color="#0033CC"/>
</radialGradient>
<radialGradient id="paint2_radial_2754_1662" cx="0" cy="0" r="1" gradientUnits="userSpaceOnUse" gradientTransform="translate(42.7955 68.3595) rotate(-18.5704) scale(39.462 25.4332)">
<stop stop-color="#00862D"/>
<stop offset="0.627261" stop-color="#0033CC"/>
</radialGradient>
<radialGradient id="paint3_radial_2754_1662" cx="0" cy="0" r="1" gradientUnits="userSpaceOnUse" gradientTransform="translate(2.53717 74.6533) rotate(-78.1858) scale(89.6405 38.3513)">
<stop stop-color="#00862D"/>
<stop offset="0.627261" stop-color="#0033CC"/>
</radialGradient>
<radialGradient id="paint4_radial_2754_1662" cx="0" cy="0" r="1" gradientUnits="userSpaceOnUse" gradientTransform="translate(90.5561 74.6494) rotate(-78.3664) scale(89.6033 37.7822)">
<stop stop-color="#00862D"/>
<stop offset="0.627261" stop-color="#0033CC"/>
</radialGradient>
</defs>
</svg>
