<svg width="100" height="100" viewBox="0 0 100 100" fill="none" xmlns="http://www.w3.org/2000/svg">
<path d="M13.2794 0.371094C9.99818 1.09375 7.47865 2.48047 4.97865 4.98047C1.44349 8.51563 -0.197135 12.7344 0.0567715 17.5781C0.408334 23.8477 3.94349 29.1406 9.56849 31.8164C11.9708 32.9492 13.2013 33.2422 16.2091 33.3398C18.4161 33.418 19.1193 33.3789 20.5451 33.0273C26.7755 31.543 31.5411 26.7773 33.0255 20.5469C33.5724 18.2422 33.4747 14.082 32.8107 12.0117C31.0529 6.44531 26.8536 2.28516 21.3849 0.683594C18.9826 -0.0195312 15.6427 -0.15625 13.2794 0.371094ZM19.5685 9.41406C20.4669 9.92188 21.131 10.918 21.2872 11.9531L21.3849 12.6953L23.7286 11.4063C26.5021 9.90235 26.7951 9.82422 27.4396 10.2344L27.9279 10.5469V16.6406C27.9279 22.0313 27.8888 22.7734 27.5958 23.0859C27.0685 23.6719 26.3458 23.4961 23.9044 22.168C22.6349 21.4648 21.5216 20.8984 21.4435 20.8984C21.3458 20.8984 21.2872 21.1328 21.2872 21.4063C21.2872 22.2461 20.6818 23.2422 19.8615 23.7891L19.0802 24.3164L13.9435 24.375C10.6036 24.4141 8.53333 24.3555 8.00599 24.2188C6.9513 23.9258 5.77943 22.8711 5.50599 21.9141C5.21302 20.9375 5.19349 12.6953 5.48646 11.6602C5.72083 10.7617 6.71693 9.60938 7.51771 9.25781C7.9474 9.0625 9.47083 9.00391 13.4552 8.98438C18.6115 8.98438 18.8263 9.00391 19.5685 9.41406Z" fill="black"/>
<path d="M13.2794 0.371094C9.99818 1.09375 7.47865 2.48047 4.97865 4.98047C1.44349 8.51563 -0.197135 12.7344 0.0567715 17.5781C0.408334 23.8477 3.94349 29.1406 9.56849 31.8164C11.9708 32.9492 13.2013 33.2422 16.2091 33.3398C18.4161 33.418 19.1193 33.3789 20.5451 33.0273C26.7755 31.543 31.5411 26.7773 33.0255 20.5469C33.5724 18.2422 33.4747 14.082 32.8107 12.0117C31.0529 6.44531 26.8536 2.28516 21.3849 0.683594C18.9826 -0.0195312 15.6427 -0.15625 13.2794 0.371094ZM19.5685 9.41406C20.4669 9.92188 21.131 10.918 21.2872 11.9531L21.3849 12.6953L23.7286 11.4063C26.5021 9.90235 26.7951 9.82422 27.4396 10.2344L27.9279 10.5469V16.6406C27.9279 22.0313 27.8888 22.7734 27.5958 23.0859C27.0685 23.6719 26.3458 23.4961 23.9044 22.168C22.6349 21.4648 21.5216 20.8984 21.4435 20.8984C21.3458 20.8984 21.2872 21.1328 21.2872 21.4063C21.2872 22.2461 20.6818 23.2422 19.8615 23.7891L19.0802 24.3164L13.9435 24.375C10.6036 24.4141 8.53333 24.3555 8.00599 24.2188C6.9513 23.9258 5.77943 22.8711 5.50599 21.9141C5.21302 20.9375 5.19349 12.6953 5.48646 11.6602C5.72083 10.7617 6.71693 9.60938 7.51771 9.25781C7.9474 9.0625 9.47083 9.00391 13.4552 8.98438C18.6115 8.98438 18.8263 9.00391 19.5685 9.41406Z" fill="url(#paint0_radial_2754_1677)"/>
<path d="M8.27882 11.7969C7.92726 12.0508 7.90773 12.3828 7.84913 16.543C7.81007 20.2148 7.84913 21.0742 8.08351 21.3867C8.35695 21.7578 8.63038 21.7773 13.1616 21.8359C16.3452 21.875 18.0835 21.8164 18.3569 21.6797C18.728 21.4844 18.7476 21.2891 18.7476 16.7383C18.7476 13.3008 18.689 11.9336 18.5132 11.7578C18.1421 11.3867 8.78663 11.4258 8.27882 11.7969Z" fill="black"/>
<path d="M8.27882 11.7969C7.92726 12.0508 7.90773 12.3828 7.84913 16.543C7.81007 20.2148 7.84913 21.0742 8.08351 21.3867C8.35695 21.7578 8.63038 21.7773 13.1616 21.8359C16.3452 21.875 18.0835 21.8164 18.3569 21.6797C18.728 21.4844 18.7476 21.2891 18.7476 16.7383C18.7476 13.3008 18.689 11.9336 18.5132 11.7578C18.1421 11.3867 8.78663 11.4258 8.27882 11.7969Z" fill="url(#paint1_radial_2754_1677)"/>
<path d="M23.2812 14.5899L21.2695 15.6641L21.3281 16.7578L21.3867 17.8711L23.3008 18.9063C24.3555 19.4922 25.2539 19.9219 25.3125 19.8633C25.3516 19.8242 25.3711 18.3789 25.3516 16.6406L25.293 13.4961L23.2812 14.5899Z" fill="black"/>
<path d="M23.2812 14.5899L21.2695 15.6641L21.3281 16.7578L21.3867 17.8711L23.3008 18.9063C24.3555 19.4922 25.2539 19.9219 25.3125 19.8633C25.3516 19.8242 25.3711 18.3789 25.3516 16.6406L25.293 13.4961L23.2812 14.5899Z" fill="url(#paint2_radial_2754_1677)"/>
<path d="M80.6042 0.195309C74.1784 1.36718 69.1589 5.78124 67.1863 12.0117C66.5222 14.082 66.4245 18.2422 66.9714 20.5469C68.4558 26.7773 73.2214 31.543 79.4519 33.0273C80.8777 33.3789 81.5808 33.418 83.8855 33.3594C86.3073 33.2812 86.8347 33.2031 88.4558 32.6367C93.9831 30.7617 97.8112 26.6992 99.4519 20.957C100.038 18.9453 100.077 14.8633 99.53 12.793C98.5144 8.88671 95.9167 5.13671 92.7136 2.94921C91.405 2.05078 88.8269 0.898434 87.3034 0.507809C85.8191 0.117184 81.9714 -0.0585976 80.6042 0.195309ZM92.323 5.42968C93.3191 5.93749 94.4128 7.16796 94.7253 8.10546C95.3894 10.1367 94.5105 12.6367 92.6941 13.75C90.8386 14.9023 88.1237 14.5508 86.7175 12.9687C86.405 12.5977 86.112 12.3047 86.073 12.3047C86.0339 12.3047 84.8816 12.9492 83.4948 13.75L81.0144 15.1953L80.9753 16.8359L80.9558 18.4766L83.2995 19.9414C84.5691 20.7422 85.7214 21.4062 85.8386 21.4453C85.9558 21.4648 86.1902 21.2305 86.3855 20.8984C86.8152 20.1758 88.4948 19.1992 89.5691 19.0234C90.0964 18.9453 90.7995 19.0234 91.5417 19.2383C95.4089 20.3516 96.1316 25.6836 92.7136 27.8125C89.9792 29.4922 86.1902 27.9492 85.5456 24.9023C85.448 24.3945 84.9988 24.043 82.4206 22.4219L79.3933 20.5078L78.4363 20.9961C76.7566 21.8555 74.6667 21.582 73.2409 20.3516C71.7175 19.0625 71.2097 17.2852 71.7566 15.3516C72.6159 12.4414 75.9753 11.0937 78.6511 12.5977L79.53 13.0664L82.4402 11.4062C84.0417 10.4883 85.3503 9.6289 85.3503 9.49218C85.3503 9.35546 85.487 8.80859 85.6433 8.26171C86.4636 5.52734 89.7644 4.14062 92.323 5.42968Z" fill="black"/>
<path d="M80.6042 0.195309C74.1784 1.36718 69.1589 5.78124 67.1863 12.0117C66.5222 14.082 66.4245 18.2422 66.9714 20.5469C68.4558 26.7773 73.2214 31.543 79.4519 33.0273C80.8777 33.3789 81.5808 33.418 83.8855 33.3594C86.3073 33.2812 86.8347 33.2031 88.4558 32.6367C93.9831 30.7617 97.8112 26.6992 99.4519 20.957C100.038 18.9453 100.077 14.8633 99.53 12.793C98.5144 8.88671 95.9167 5.13671 92.7136 2.94921C91.405 2.05078 88.8269 0.898434 87.3034 0.507809C85.8191 0.117184 81.9714 -0.0585976 80.6042 0.195309ZM92.323 5.42968C93.3191 5.93749 94.4128 7.16796 94.7253 8.10546C95.3894 10.1367 94.5105 12.6367 92.6941 13.75C90.8386 14.9023 88.1237 14.5508 86.7175 12.9687C86.405 12.5977 86.112 12.3047 86.073 12.3047C86.0339 12.3047 84.8816 12.9492 83.4948 13.75L81.0144 15.1953L80.9753 16.8359L80.9558 18.4766L83.2995 19.9414C84.5691 20.7422 85.7214 21.4062 85.8386 21.4453C85.9558 21.4648 86.1902 21.2305 86.3855 20.8984C86.8152 20.1758 88.4948 19.1992 89.5691 19.0234C90.0964 18.9453 90.7995 19.0234 91.5417 19.2383C95.4089 20.3516 96.1316 25.6836 92.7136 27.8125C89.9792 29.4922 86.1902 27.9492 85.5456 24.9023C85.448 24.3945 84.9988 24.043 82.4206 22.4219L79.3933 20.5078L78.4363 20.9961C76.7566 21.8555 74.6667 21.582 73.2409 20.3516C71.7175 19.0625 71.2097 17.2852 71.7566 15.3516C72.6159 12.4414 75.9753 11.0937 78.6511 12.5977L79.53 13.0664L82.4402 11.4062C84.0417 10.4883 85.3503 9.6289 85.3503 9.49218C85.3503 9.35546 85.487 8.80859 85.6433 8.26171C86.4636 5.52734 89.7644 4.14062 92.323 5.42968Z" fill="url(#paint3_radial_2754_1677)"/>
<path d="M89.3136 7.71483C86.9894 8.71092 87.966 12.1875 90.4855 11.8555C92.6144 11.5625 93.0636 8.65233 91.13 7.73436C90.3293 7.36327 90.134 7.36327 89.3136 7.71483Z" fill="black"/>
<path d="M89.3136 7.71483C86.9894 8.71092 87.966 12.1875 90.4855 11.8555C92.6144 11.5625 93.0636 8.65233 91.13 7.73436C90.3293 7.36327 90.134 7.36327 89.3136 7.71483Z" fill="url(#paint4_radial_2754_1677)"/>
<path d="M75.4476 14.7266C74.3148 15.2344 73.7875 16.543 74.2953 17.6172C75.2523 19.6289 78.1625 19.2187 78.4554 17.0508C78.6898 15.3125 77.0297 14.043 75.4476 14.7266Z" fill="black"/>
<path d="M75.4476 14.7266C74.3148 15.2344 73.7875 16.543 74.2953 17.6172C75.2523 19.6289 78.1625 19.2187 78.4554 17.0508C78.6898 15.3125 77.0297 14.043 75.4476 14.7266Z" fill="url(#paint5_radial_2754_1677)"/>
<path d="M89.3151 21.7578C87.694 22.4805 87.5377 24.7461 89.0612 25.6445C89.9791 26.1914 90.9557 26.0742 91.7174 25.3125C92.4401 24.5898 92.5963 23.7109 92.1471 22.7734C91.7174 21.7773 90.3502 21.3086 89.3151 21.7578Z" fill="black"/>
<path d="M89.3151 21.7578C87.694 22.4805 87.5377 24.7461 89.0612 25.6445C89.9791 26.1914 90.9557 26.0742 91.7174 25.3125C92.4401 24.5898 92.5963 23.7109 92.1471 22.7734C91.7174 21.7773 90.3502 21.3086 89.3151 21.7578Z" fill="url(#paint6_radial_2754_1677)"/>
<path d="M49.1966 28.125C47.6146 28.3203 45.7396 28.7891 44.3724 29.3164C43.2982 29.7656 43.0052 30.2148 43.2396 31.1328C43.4154 31.875 44.2357 32.0508 45.5052 31.6016C54.2943 28.5937 63.7084 32.4414 67.6927 40.7227C69.7435 44.9609 70.056 49.5703 68.6107 54.1797C68.3373 55.0586 68.181 55.8984 68.2396 56.1719C68.3959 56.7578 69.138 57.1289 69.8216 56.9531C70.8568 56.6797 71.8529 53.2227 72.0091 49.2187C72.1263 46.1133 71.7162 43.6133 70.6029 40.8789C67.1654 32.3242 58.3177 27.0703 49.1966 28.125Z" fill="black"/>
<path d="M49.1966 28.125C47.6146 28.3203 45.7396 28.7891 44.3724 29.3164C43.2982 29.7656 43.0052 30.2148 43.2396 31.1328C43.4154 31.875 44.2357 32.0508 45.5052 31.6016C54.2943 28.5937 63.7084 32.4414 67.6927 40.7227C69.7435 44.9609 70.056 49.5703 68.6107 54.1797C68.3373 55.0586 68.181 55.8984 68.2396 56.1719C68.3959 56.7578 69.138 57.1289 69.8216 56.9531C70.8568 56.6797 71.8529 53.2227 72.0091 49.2187C72.1263 46.1133 71.7162 43.6133 70.6029 40.8789C67.1654 32.3242 58.3177 27.0703 49.1966 28.125Z" fill="url(#paint7_radial_2754_1677)"/>
<path d="M48.0431 35.1758C46.3244 35.625 45.6212 36.0742 45.5431 36.7969C45.465 37.4414 45.9728 38.0859 46.5783 38.0859C46.8127 38.0859 47.6916 37.9102 48.5314 37.6953C54.5275 36.1719 60.5041 39.5117 62.34 45.4102C62.9455 47.3438 62.9259 49.9414 62.3009 52.0313C61.7931 53.6914 61.8517 53.9844 62.7502 54.4922C63.2189 54.7461 63.297 54.7461 63.8048 54.375C64.8009 53.6133 65.5627 50.293 65.3478 47.6172C65.0353 43.8477 63.0236 40.0391 60.1916 37.793C56.8517 35.1367 52.1056 34.1211 48.0431 35.1758Z" fill="black"/>
<path d="M48.0431 35.1758C46.3244 35.625 45.6212 36.0742 45.5431 36.7969C45.465 37.4414 45.9728 38.0859 46.5783 38.0859C46.8127 38.0859 47.6916 37.9102 48.5314 37.6953C54.5275 36.1719 60.5041 39.5117 62.34 45.4102C62.9455 47.3438 62.9259 49.9414 62.3009 52.0313C61.7931 53.6914 61.8517 53.9844 62.7502 54.4922C63.2189 54.7461 63.297 54.7461 63.8048 54.375C64.8009 53.6133 65.5627 50.293 65.3478 47.6172C65.0353 43.8477 63.0236 40.0391 60.1916 37.793C56.8517 35.1367 52.1056 34.1211 48.0431 35.1758Z" fill="url(#paint8_radial_2754_1677)"/>
<path d="M30 42.1289C25.1367 55.5469 24.3164 57.6563 22.9492 60.4492C21.4844 63.457 20.0586 65.8789 18.3203 68.2422L17.3438 69.5899L22.4805 74.7266C25.3125 77.5586 27.6953 79.8828 27.7734 79.8828C27.8516 79.8828 28.5938 79.3945 29.4336 78.7891C31.7578 77.1094 35.3516 75.0586 38.0664 73.8281C39.4141 73.2227 45.1172 71.0547 50.7227 69.0234C56.3477 66.9922 60.9375 65.293 60.9375 65.2344C60.9375 65.1758 54.4531 58.6524 46.5234 50.7227L32.1094 36.3086L30 42.1289Z" fill="black"/>
<path d="M30 42.1289C25.1367 55.5469 24.3164 57.6563 22.9492 60.4492C21.4844 63.457 20.0586 65.8789 18.3203 68.2422L17.3438 69.5899L22.4805 74.7266C25.3125 77.5586 27.6953 79.8828 27.7734 79.8828C27.8516 79.8828 28.5938 79.3945 29.4336 78.7891C31.7578 77.1094 35.3516 75.0586 38.0664 73.8281C39.4141 73.2227 45.1172 71.0547 50.7227 69.0234C56.3477 66.9922 60.9375 65.293 60.9375 65.2344C60.9375 65.1758 54.4531 58.6524 46.5234 50.7227L32.1094 36.3086L30 42.1289Z" fill="url(#paint9_radial_2754_1677)"/>
<path d="M45.1138 43.4765C44.6255 43.6523 44.1177 43.8867 44.0005 44.0234C43.8052 44.1992 44.7622 45.2539 48.4146 48.9062C50.9732 51.4648 53.1607 53.5156 53.2779 53.4375C53.7076 53.164 54.1958 51.25 54.1763 49.8047C54.1763 47.2656 52.8872 45.1953 50.5435 43.9453C49.4693 43.3594 49.0982 43.2812 47.6529 43.2226C46.5005 43.1836 45.7193 43.2617 45.1138 43.4765Z" fill="black"/>
<path d="M45.1138 43.4765C44.6255 43.6523 44.1177 43.8867 44.0005 44.0234C43.8052 44.1992 44.7622 45.2539 48.4146 48.9062C50.9732 51.4648 53.1607 53.5156 53.2779 53.4375C53.7076 53.164 54.1958 51.25 54.1763 49.8047C54.1763 47.2656 52.8872 45.1953 50.5435 43.9453C49.4693 43.3594 49.0982 43.2812 47.6529 43.2226C46.5005 43.1836 45.7193 43.2617 45.1138 43.4765Z" fill="url(#paint10_radial_2754_1677)"/>
<path d="M79.2569 66.9922C73.1436 68.5352 68.4366 73.3203 66.9717 79.4531C66.4053 81.7578 66.5225 85.918 67.1866 87.9883C68.9835 93.6133 73.046 97.6563 78.6514 99.3359C80.1553 99.8047 80.7217 99.8633 83.1045 99.8828C85.1749 99.8828 86.171 99.8047 87.2061 99.5313C93.3194 97.8906 97.9483 93.2813 99.5303 87.207C100.077 85.1367 100.038 81.0547 99.4522 79.043C97.7725 73.2031 93.7686 69.043 87.9874 67.1875C85.9952 66.543 81.4053 66.4453 79.2569 66.9922ZM86.0342 78.9844C91.8936 82.5977 92.1866 82.8516 91.5616 83.8281C91.21 84.3555 80.8389 90.8399 80.1358 90.9766C79.8819 91.0156 79.4717 90.918 79.1983 90.7422L78.71 90.4297V83.3203C78.71 76.8164 78.7295 76.2109 79.0616 75.9375C79.4717 75.5664 79.8819 75.4297 80.2725 75.5274C80.4483 75.5664 83.0264 77.1289 86.0342 78.9844Z" fill="black"/>
<path d="M79.2569 66.9922C73.1436 68.5352 68.4366 73.3203 66.9717 79.4531C66.4053 81.7578 66.5225 85.918 67.1866 87.9883C68.9835 93.6133 73.046 97.6563 78.6514 99.3359C80.1553 99.8047 80.7217 99.8633 83.1045 99.8828C85.1749 99.8828 86.171 99.8047 87.2061 99.5313C93.3194 97.8906 97.9483 93.2813 99.5303 87.207C100.077 85.1367 100.038 81.0547 99.4522 79.043C97.7725 73.2031 93.7686 69.043 87.9874 67.1875C85.9952 66.543 81.4053 66.4453 79.2569 66.9922ZM86.0342 78.9844C91.8936 82.5977 92.1866 82.8516 91.5616 83.8281C91.21 84.3555 80.8389 90.8399 80.1358 90.9766C79.8819 91.0156 79.4717 90.918 79.1983 90.7422L78.71 90.4297V83.3203C78.71 76.8164 78.7295 76.2109 79.0616 75.9375C79.4717 75.5664 79.8819 75.4297 80.2725 75.5274C80.4483 75.5664 83.0264 77.1289 86.0342 78.9844Z" fill="url(#paint11_radial_2754_1677)"/>
<path d="M81.25 83.1836C81.25 85.4492 81.2891 87.3047 81.3477 87.3047C81.4062 87.3047 82.8906 86.4062 84.668 85.3125C87.207 83.75 87.8516 83.2812 87.6562 83.1055C87.5195 82.9688 86.2109 82.1289 84.7656 81.25C83.3203 80.3516 81.9336 79.4922 81.6992 79.3359L81.25 79.0625V83.1836Z" fill="black"/>
<path d="M81.25 83.1836C81.25 85.4492 81.2891 87.3047 81.3477 87.3047C81.4062 87.3047 82.8906 86.4062 84.668 85.3125C87.207 83.75 87.8516 83.2812 87.6562 83.1055C87.5195 82.9688 86.2109 82.1289 84.7656 81.25C83.3203 80.3516 81.9336 79.4922 81.6992 79.3359L81.25 79.0625V83.1836Z" fill="url(#paint12_radial_2754_1677)"/>
<path d="M14.1574 73.3594C13.2981 74.2969 12.4973 75.2539 12.3606 75.4688C12.0285 76.0352 12.0481 77.4414 12.3801 78.0859C12.5363 78.3789 14.1379 80.0781 15.9543 81.875C20.3488 86.2109 20.6223 86.2695 23.6692 83.4766C24.6653 82.5781 25.5051 81.7578 25.5442 81.6797C25.5637 81.6016 23.3567 79.3164 20.6418 76.6016L15.7199 71.6797L14.1574 73.3594Z" fill="black"/>
<path d="M14.1574 73.3594C13.2981 74.2969 12.4973 75.2539 12.3606 75.4688C12.0285 76.0352 12.0481 77.4414 12.3801 78.0859C12.5363 78.3789 14.1379 80.0781 15.9543 81.875C20.3488 86.2109 20.6223 86.2695 23.6692 83.4766C24.6653 82.5781 25.5051 81.7578 25.5442 81.6797C25.5637 81.6016 23.3567 79.3164 20.6418 76.6016L15.7199 71.6797L14.1574 73.3594Z" fill="url(#paint13_radial_2754_1677)"/>
<path d="M28.4375 82.7344L26.3281 84.4336L31.7578 89.8633C34.7656 92.8711 37.2656 95.3125 37.3242 95.3125C37.4023 95.3125 37.6562 94.8438 37.9102 94.2773C38.2812 93.457 38.3789 92.9297 38.3789 91.5039C38.3789 88.7891 38.0078 88.1641 34.1406 84.2578C32.4023 82.5 30.8789 81.0547 30.7617 81.0547C30.6445 81.0547 29.5898 81.8164 28.4375 82.7344Z" fill="black"/>
<path d="M28.4375 82.7344L26.3281 84.4336L31.7578 89.8633C34.7656 92.8711 37.2656 95.3125 37.3242 95.3125C37.4023 95.3125 37.6562 94.8438 37.9102 94.2773C38.2812 93.457 38.3789 92.9297 38.3789 91.5039C38.3789 88.7891 38.0078 88.1641 34.1406 84.2578C32.4023 82.5 30.8789 81.0547 30.7617 81.0547C30.6445 81.0547 29.5898 81.8164 28.4375 82.7344Z" fill="url(#paint14_radial_2754_1677)"/>
<defs>
<radialGradient id="paint0_radial_2754_1677" cx="0" cy="0" r="1" gradientUnits="userSpaceOnUse" gradientTransform="translate(6.51617 26.7094) rotate(-34.7525) scale(62.6917 62.6841)">
<stop stop-color="#00862D"/>
<stop offset="0.627261" stop-color="#0033CC"/>
</radialGradient>
<radialGradient id="paint1_radial_2754_1677" cx="0" cy="0" r="1" gradientUnits="userSpaceOnUse" gradientTransform="translate(9.95781 19.778) rotate(-33.3671) scale(20.1801 19.7895)">
<stop stop-color="#00862D"/>
<stop offset="0.627261" stop-color="#0033CC"/>
</radialGradient>
<radialGradient id="paint2_radial_2754_1677" cx="0" cy="0" r="1" gradientUnits="userSpaceOnUse" gradientTransform="translate(22.0648 18.5942) rotate(-47.2524) scale(9.30623 9.90321)">
<stop stop-color="#00862D"/>
<stop offset="0.627261" stop-color="#0033CC"/>
</radialGradient>
<radialGradient id="paint3_radial_2754_1677" cx="0" cy="0" r="1" gradientUnits="userSpaceOnUse" gradientTransform="translate(73.0926 26.7211) rotate(-34.7775) scale(62.6188 62.6317)">
<stop stop-color="#00862D"/>
<stop offset="0.627261" stop-color="#0033CC"/>
</radialGradient>
<radialGradient id="paint4_radial_2754_1677" cx="0" cy="0" r="1" gradientUnits="userSpaceOnUse" gradientTransform="translate(88.8444 10.9929) rotate(-35.1506) scale(8.241 8.28201)">
<stop stop-color="#00862D"/>
<stop offset="0.627261" stop-color="#0033CC"/>
</radialGradient>
<radialGradient id="paint5_radial_2754_1677" cx="0" cy="0" r="1" gradientUnits="userSpaceOnUse" gradientTransform="translate(74.9525 18.0458) rotate(-34.8237) scale(8.23373 8.24037)">
<stop stop-color="#00862D"/>
<stop offset="0.627261" stop-color="#0033CC"/>
</radialGradient>
<radialGradient id="paint6_radial_2754_1677" cx="0" cy="0" r="1" gradientUnits="userSpaceOnUse" gradientTransform="translate(88.8586 25.1043) rotate(-34.7839) scale(8.26563 8.26801)">
<stop stop-color="#00862D"/>
<stop offset="0.627261" stop-color="#0033CC"/>
</radialGradient>
<radialGradient id="paint7_radial_2754_1677" cx="0" cy="0" r="1" gradientUnits="userSpaceOnUse" gradientTransform="translate(48.777 51.1961) rotate(-34.9046) scale(54.3622 54.4628)">
<stop stop-color="#00862D"/>
<stop offset="0.627261" stop-color="#0033CC"/>
</radialGradient>
<radialGradient id="paint8_radial_2754_1677" cx="0" cy="0" r="1" gradientUnits="userSpaceOnUse" gradientTransform="translate(49.395 50.6894) rotate(-34.848) scale(37.3575 37.3994)">
<stop stop-color="#00862D"/>
<stop offset="0.627261" stop-color="#0033CC"/>
</radialGradient>
<radialGradient id="paint9_radial_2754_1677" cx="0" cy="0" r="1" gradientUnits="userSpaceOnUse" gradientTransform="translate(25.821 71.1685) rotate(-34.761) scale(81.9601 81.9593)">
<stop stop-color="#00862D"/>
<stop offset="0.627261" stop-color="#0033CC"/>
</radialGradient>
<radialGradient id="paint10_radial_2754_1677" cx="0" cy="0" r="1" gradientUnits="userSpaceOnUse" gradientTransform="translate(45.9601 51.3944) rotate(-34.8424) scale(19.1964 19.2165)">
<stop stop-color="#00862D"/>
<stop offset="0.627261" stop-color="#0033CC"/>
</radialGradient>
<radialGradient id="paint11_radial_2754_1677" cx="0" cy="0" r="1" gradientUnits="userSpaceOnUse" gradientTransform="translate(73.0864 93.2339) rotate(-34.7236) scale(62.5933 62.562)">
<stop stop-color="#00862D"/>
<stop offset="0.627261" stop-color="#0033CC"/>
</radialGradient>
<radialGradient id="paint12_radial_2754_1677" cx="0" cy="0" r="1" gradientUnits="userSpaceOnUse" gradientTransform="translate(82.5021 85.6563) rotate(-41.6302) scale(13.3055 14.1047)">
<stop stop-color="#00862D"/>
<stop offset="0.627261" stop-color="#0033CC"/>
</radialGradient>
<radialGradient id="paint13_radial_2754_1677" cx="0" cy="0" r="1" gradientUnits="userSpaceOnUse" gradientTransform="translate(14.7314 82.6446) rotate(-35.3346) scale(25.4146 25.5993)">
<stop stop-color="#00862D"/>
<stop offset="0.627261" stop-color="#0033CC"/>
</radialGradient>
<radialGradient id="paint14_radial_2754_1677" cx="0" cy="0" r="1" gradientUnits="userSpaceOnUse" gradientTransform="translate(28.6715 92.4611) rotate(-39.4025) scale(24.0883 25.2237)">
<stop stop-color="#00862D"/>
<stop offset="0.627261" stop-color="#0033CC"/>
</radialGradient>
</defs>
</svg>
