<svg width="100" height="100" viewBox="0 0 100 100" fill="none" xmlns="http://www.w3.org/2000/svg">
<path d="M8.0625 72.0742C8.0625 70.9696 8.95793 70.0742 10.0625 70.0742H22.7717C23.8763 70.0742 24.7717 70.9696 24.7717 72.0742V92.1672H8.0625V72.0742Z" fill="url(#paint0_radial_2760_1733)"/>
<path d="M30.1641 63.7893C30.1641 62.6847 31.0595 61.7893 32.1641 61.7893H44.8733C45.9779 61.7893 46.8733 62.6847 46.8733 63.7893V92.1672H30.1641V63.7893Z" fill="url(#paint1_radial_2760_1733)"/>
<path d="M52.2617 55.5044C52.2617 54.3999 53.1571 53.5044 54.2617 53.5044H66.9709C68.0755 53.5044 68.9709 54.3999 68.9709 55.5044V92.1672H52.2617V55.5044Z" fill="url(#paint2_radial_2760_1733)"/>
<path d="M74.3594 44.4578C74.3594 43.3533 75.2548 42.4578 76.3594 42.4578H89.0686C90.1732 42.4578 91.0686 43.3533 91.0686 44.4578V92.1671H74.3594V44.4578Z" fill="url(#paint3_radial_2760_1733)"/>
<path d="M2 96.0335C2 93.8983 3.73099 92.1673 5.86628 92.1673H92.999C95.1343 92.1673 96.8653 93.8983 96.8653 96.0335H2Z" fill="url(#paint4_radial_2760_1733)"/>
<path d="M36.1065 0.377968C35.9719 0.60302 35.4335 1.58897 34.9158 2.5642L33.9633 4.34319L34.3463 14.6206C34.6466 22.8725 34.6984 25.0052 34.6052 25.4874C34.2325 27.2986 32.7519 28.7346 30.9917 28.9811C29.2626 29.2169 27.1297 27.9416 26.2911 26.184C25.9598 25.4874 25.9391 25.3696 25.9391 24.3622C25.9391 23.4191 25.9701 23.2155 26.2186 22.6689C26.3739 22.326 26.6431 21.8437 26.8295 21.5865C27.1712 21.0936 27.1712 20.7506 26.8502 20.622C26.3636 20.4291 24.3653 22.2938 23.7337 23.5263C22.4084 26.109 22.9054 29.1419 25.0072 31.3388C26.4567 32.8499 27.9684 33.5251 30.1323 33.6108C31.2298 33.6537 31.5715 33.6215 32.3066 33.4286C34.6155 32.8392 36.7691 31.0602 37.4939 29.1633C37.732 28.5525 37.732 28.4774 37.8045 22.7011C37.8977 15.0386 38.0219 13.431 39.2126 5.00763C39.2644 4.67541 39.2023 4.52537 38.8606 4.04311C38.2911 3.22864 37.7527 2.26412 37.38 1.3532C36.9037 0.174347 36.8209 0.0350266 36.5828 0.00287628C36.4171 -0.0185547 36.2929 0.0778961 36.1065 0.377968Z" fill="url(#paint5_radial_2760_1733)"/>
<path d="M40.6417 8.90867C40.1758 9.13372 39.6064 9.85175 39.3889 10.4948C39.099 11.3414 39.1301 12.7239 39.4304 13.4312C39.8756 14.4385 40.4243 14.8672 42.0395 15.4674C43.3234 15.9389 44.0792 16.3461 44.7833 16.957C45.7876 17.8251 46.2949 18.5002 47.0197 19.9577C47.5788 21.1044 47.7548 21.2651 48.0654 20.8793C48.2621 20.6221 48.2725 20.515 48.2207 18.7896C48.169 16.6676 47.9101 15.4245 47.2164 13.9349C46.6884 12.7774 46.3053 12.2309 45.3631 11.2021C44.5141 10.2804 43.6651 9.61598 42.7643 9.14444C42.0913 8.79078 41.118 8.68361 40.6417 8.90867Z" fill="url(#paint6_radial_2760_1733)"/>
<path d="M53.044 10.4946C52.9819 10.5803 52.8991 10.8804 52.868 11.1805C52.723 12.2843 52.05 14.8778 51.5427 16.2709C50.1657 20.0754 48.3227 23.0654 45.5582 25.9268C43.4253 28.1345 41.6134 29.5062 38.8489 30.9958C37.7514 31.5853 37.4201 31.8103 37.3994 31.9925C37.3476 32.389 37.6997 32.4855 38.8489 32.4105C41.3442 32.2283 43.4253 31.6281 45.6825 30.4493C47.2252 29.6348 48.4262 28.7346 49.6997 27.4164C51.5116 25.541 52.7955 23.3762 53.6238 20.8256L54.0276 19.5717L54.1519 20.204C54.4728 21.9294 55.3011 24.33 56.0466 25.7017C56.6989 26.9235 57.6515 28.2523 58.4487 29.0775C59.8258 30.4921 61.1303 31.1244 62.9008 31.2423C64.1226 31.3173 65.0855 31.1566 66.7421 30.5779C68.7714 29.8813 69.1752 29.8277 71.422 29.9885C73.0269 30.0956 73.3478 30.0956 73.4617 29.9777C73.6481 29.7634 75.9984 25.0694 75.9984 24.898C75.9984 24.6301 75.7396 24.5765 74.1865 24.5765C72.6541 24.5765 72.6231 24.5765 71.9397 24.2335C71.422 23.987 70.9457 23.6012 70.1485 22.8189C69.548 22.2295 68.8543 21.6186 68.6058 21.4686C67.8914 21.0292 67.0009 20.7613 66.0587 20.697C63.9362 20.547 61.9897 21.4472 60.768 23.1297C59.8982 24.33 60.0742 24.6086 61.5134 24.3514C62.6834 24.1371 63.8948 24.2014 65.0234 24.5229C65.8827 24.7801 67.177 25.4338 67.7154 25.9054L68.0674 26.2054L67.0941 26.6984C65.0544 27.7272 63.4082 27.7915 61.6584 26.9342C59.6497 25.9482 57.8482 23.269 57.1855 20.2897C57.0613 19.711 57.0095 18.8537 56.9992 16.646C56.9785 13.5382 56.9267 13.2167 56.3883 12.2629C56.057 11.6734 55.4668 11.1483 54.7213 10.7625C54.0276 10.4088 53.2097 10.2802 53.044 10.4946Z" fill="url(#paint7_radial_2760_1733)"/>
<path d="M33.3379 35.3042C33.2758 35.4649 33.2344 37.126 33.2344 39.2587C33.2344 41.3913 33.2758 43.0524 33.3379 43.2132C33.4622 43.5561 33.897 43.599 34.0627 43.2882C34.1248 43.1703 34.1662 42.3558 34.1662 41.4127V39.7409H35.8228H37.4794V41.5628V43.3846L37.7383 43.4489C38.3181 43.599 38.3077 43.6097 38.287 39.2265C38.256 35.5399 38.2456 35.197 38.08 35.0898C37.9454 35.0041 37.8418 35.0041 37.7176 35.0898C37.5519 35.197 37.5312 35.4328 37.5001 36.9974L37.4794 38.7764H35.8228H34.1662V37.1046C34.1662 36.1615 34.1248 35.347 34.0627 35.2291C33.897 34.9183 33.4622 34.9612 33.3379 35.3042Z" fill="url(#paint8_radial_2760_1733)"/>
<path d="M42.1564 35.2078C41.8354 35.8293 39.3505 42.9453 39.3712 43.1704C39.3919 43.374 39.4748 43.449 39.6818 43.4704C40.0235 43.5133 40.0546 43.449 40.8104 41.3163L41.3695 39.741L42.4981 39.7624L43.6266 39.7946L44.2686 41.5521C44.6206 42.5273 44.983 43.374 45.0762 43.4276C45.2936 43.5776 45.6042 43.3954 45.6456 43.1061C45.656 42.9989 45.0244 41.1449 44.2479 38.9908C42.8812 35.2614 42.8087 35.0792 42.5395 35.047C42.3531 35.0256 42.2289 35.0792 42.1564 35.2078ZM42.9019 37.7798L43.2643 38.7765H42.4981H41.7422L42.0322 37.9406C42.4463 36.8153 42.4774 36.7296 42.5084 36.7617C42.5291 36.7831 42.7051 37.244 42.9019 37.7798Z" fill="url(#paint9_radial_2760_1733)"/>
<path d="M46.8212 35.1543C46.6245 35.3579 46.6452 43.2026 46.8419 43.3741C46.9351 43.4598 47.6598 43.492 49.2336 43.4706C51.2526 43.4384 51.5011 43.417 51.6046 43.2455C51.6875 43.1169 51.6875 43.0097 51.6046 42.8704C51.5011 42.7097 51.263 42.6882 49.5028 42.6561L47.5252 42.6346V38.9588C47.5252 35.1757 47.5149 35.0257 47.1111 35.0257C47.0179 35.0257 46.8937 35.0793 46.8212 35.1543Z" fill="url(#paint10_radial_2760_1733)"/>
<path d="M55.5622 35.2615C55.4897 35.4008 54.8064 37.2119 54.0402 39.3017C52.6113 43.2348 52.5803 43.3955 53.0876 43.4706C53.3775 43.5134 53.4811 43.3527 53.9573 42.0345C54.1851 41.3915 54.475 40.6092 54.5889 40.2984L54.7856 39.7411H55.9039H57.0221L57.6847 41.5844C58.3059 43.3098 58.3681 43.4384 58.6269 43.4706C58.8236 43.492 58.9375 43.4384 59.0204 43.2884C59.1135 43.1062 58.8858 42.4096 57.7158 39.1838C56.9392 37.0405 56.2559 35.2293 56.2041 35.1543C56.0385 34.9507 55.7278 35.0043 55.5622 35.2615ZM56.318 37.7907C56.494 38.2836 56.639 38.7123 56.639 38.7337C56.639 38.7552 56.318 38.7766 55.9142 38.7766C55.5208 38.7766 55.1894 38.7445 55.1894 38.7123C55.1894 38.5087 55.8728 36.7618 55.9246 36.8261C55.966 36.869 56.1316 37.3084 56.318 37.7907Z" fill="url(#paint11_radial_2760_1733)"/>
<path d="M60.1582 35.3042C60.0961 35.4649 60.0547 37.126 60.0547 39.2587C60.0547 41.3913 60.0961 43.0524 60.1582 43.2132L60.2618 43.4918H62.581C64.5275 43.4918 64.921 43.4704 65.0245 43.3311C65.1281 43.2025 65.1281 43.106 65.0452 42.9024L64.921 42.6345H62.9538H60.9865V39.0336C60.9865 36.7617 60.9451 35.3685 60.883 35.2292C60.7173 34.9184 60.2825 34.9612 60.1582 35.3042Z" fill="url(#paint12_radial_2760_1733)"/>
<defs>
<radialGradient id="paint0_radial_2760_1733" cx="0" cy="0" r="1" gradientUnits="userSpaceOnUse" gradientTransform="translate(11.3118 74.4925) rotate(42.553) scale(35.0348 37.2614)">
<stop stop-color="#00862D"/>
<stop offset="0.627261" stop-color="#0033CC"/>
</radialGradient>
<radialGradient id="paint1_radial_2760_1733" cx="0" cy="0" r="1" gradientUnits="userSpaceOnUse" gradientTransform="translate(33.4133 67.8645) rotate(51.6135) scale(41.5619 43.1882)">
<stop stop-color="#00862D"/>
<stop offset="0.627261" stop-color="#0033CC"/>
</radialGradient>
<radialGradient id="paint2_radial_2760_1733" cx="0" cy="0" r="1" gradientUnits="userSpaceOnUse" gradientTransform="translate(55.511 61.2365) rotate(58.0999) scale(48.8389 46.7768)">
<stop stop-color="#00862D"/>
<stop offset="0.627261" stop-color="#0033CC"/>
</radialGradient>
<radialGradient id="paint3_radial_2760_1733" cx="0" cy="0" r="1" gradientUnits="userSpaceOnUse" gradientTransform="translate(77.6086 52.3991) rotate(64.1672) scale(59.228 49.5922)">
<stop stop-color="#00862D"/>
<stop offset="0.627261" stop-color="#0033CC"/>
</radialGradient>
<radialGradient id="paint4_radial_2760_1733" cx="0" cy="0" r="1" gradientUnits="userSpaceOnUse" gradientTransform="translate(20.4474 92.9405) rotate(1.62089) scale(146.584 8.84831)">
<stop stop-color="#00862D"/>
<stop offset="0.627261" stop-color="#0033CC"/>
</radialGradient>
<radialGradient id="paint5_radial_2760_1733" cx="0" cy="0" r="1" gradientUnits="userSpaceOnUse" gradientTransform="translate(26.1558 26.9024) rotate(-55.198) scale(43.9186 43.9417)">
<stop stop-color="#00862D"/>
<stop offset="0.627261" stop-color="#0033CC"/>
</radialGradient>
<radialGradient id="paint6_radial_2760_1733" cx="0" cy="0" r="1" gradientUnits="userSpaceOnUse" gradientTransform="translate(40.9493 18.6123) rotate(-43.2547) scale(19.2134 20.4712)">
<stop stop-color="#00862D"/>
<stop offset="0.627261" stop-color="#0033CC"/>
</radialGradient>
<radialGradient id="paint7_radial_2760_1733" cx="0" cy="0" r="1" gradientUnits="userSpaceOnUse" gradientTransform="translate(44.9014 28.0254) rotate(-21.627) scale(64.1414 46.9162)">
<stop stop-color="#00862D"/>
<stop offset="0.627261" stop-color="#0033CC"/>
</radialGradient>
<radialGradient id="paint8_radial_2760_1733" cx="0" cy="0" r="1" gradientUnits="userSpaceOnUse" gradientTransform="translate(34.2182 41.8022) rotate(-49.3215) scale(11.9891 12.6524)">
<stop stop-color="#00862D"/>
<stop offset="0.627261" stop-color="#0033CC"/>
</radialGradient>
<radialGradient id="paint9_radial_2760_1733" cx="0" cy="0" r="1" gradientUnits="userSpaceOnUse" gradientTransform="translate(40.5913 41.7936) rotate(-43.0395) scale(13.2601 14.1213)">
<stop stop-color="#00862D"/>
<stop offset="0.627261" stop-color="#0033CC"/>
</radialGradient>
<radialGradient id="paint10_radial_2760_1733" cx="0" cy="0" r="1" gradientUnits="userSpaceOnUse" gradientTransform="translate(47.6526 41.7868) rotate(-49.6612) scale(11.8905 12.5249)">
<stop stop-color="#00862D"/>
<stop offset="0.627261" stop-color="#0033CC"/>
</radialGradient>
<radialGradient id="paint11_radial_2760_1733" cx="0" cy="0" r="1" gradientUnits="userSpaceOnUse" gradientTransform="translate(54.0044 41.7873) rotate(-43.1782) scale(13.238 14.1022)">
<stop stop-color="#00862D"/>
<stop offset="0.627261" stop-color="#0033CC"/>
</radialGradient>
<radialGradient id="paint12_radial_2760_1733" cx="0" cy="0" r="1" gradientUnits="userSpaceOnUse" gradientTransform="translate(61.0368 41.7975) rotate(-49.3529) scale(11.975 12.6354)">
<stop stop-color="#00862D"/>
<stop offset="0.627261" stop-color="#0033CC"/>
</radialGradient>
</defs>
</svg>
