<svg width="90" height="90" viewBox="0 0 90 90" fill="none" xmlns="http://www.w3.org/2000/svg">
<path d="M8.90625 0.546867C4.86328 1.54296 1.30859 5.17577 0.488281 9.21874C0.351563 9.8828 0.273438 13.6719 0.273438 19.7851V29.3164L0.722656 29.9805C1.34766 30.9375 2.77344 31.6016 3.80859 31.4258C4.60938 31.2891 5.74219 30.4687 6.19141 29.6875C6.36719 29.3945 6.44531 26.6797 6.52344 19.707C6.64063 9.04296 6.58203 9.45312 8.02734 8.02733C9.49219 6.54296 8.55469 6.64062 23.8086 6.52343C37.1484 6.42577 37.5 6.42577 38.1641 6.01562C39.2969 5.35155 39.7656 4.47265 39.6875 3.18359C39.5898 1.91405 39.0625 1.05468 38.0859 0.58593C37.5 0.312492 35.9766 0.27343 23.6719 0.292961C13.2422 0.292961 9.6875 0.371086 8.90625 0.546867Z" fill="black"/>
<path d="M8.90625 0.546867C4.86328 1.54296 1.30859 5.17577 0.488281 9.21874C0.351563 9.8828 0.273438 13.6719 0.273438 19.7851V29.3164L0.722656 29.9805C1.34766 30.9375 2.77344 31.6016 3.80859 31.4258C4.60938 31.2891 5.74219 30.4687 6.19141 29.6875C6.36719 29.3945 6.44531 26.6797 6.52344 19.707C6.64063 9.04296 6.58203 9.45312 8.02734 8.02733C9.49219 6.54296 8.55469 6.64062 23.8086 6.52343C37.1484 6.42577 37.5 6.42577 38.1641 6.01562C39.2969 5.35155 39.7656 4.47265 39.6875 3.18359C39.5898 1.91405 39.0625 1.05468 38.0859 0.58593C37.5 0.312492 35.9766 0.27343 23.6719 0.292961C13.2422 0.292961 9.6875 0.371086 8.90625 0.546867Z" fill="url(#paint0_radial_2754_1669)"/>
<path d="M63.3616 0.664051C58.3031 1.97264 54.4749 5.85936 53.1859 10.9961C52.6195 13.2617 52.7366 16.4648 53.4593 18.6914C54.846 22.9492 58.1663 26.2695 62.4827 27.7344C64.6898 28.4961 67.8929 28.6133 70.1585 28.0469C75.0023 26.8164 78.6937 23.418 80.2562 18.8086C81.0179 16.4844 81.1546 13.3398 80.5882 11.0547C79.2601 5.8203 75.4515 1.99218 70.2757 0.664051C68.2835 0.156239 65.3734 0.156239 63.3616 0.664051Z" fill="black"/>
<path d="M63.3616 0.664051C58.3031 1.97264 54.4749 5.85936 53.1859 10.9961C52.6195 13.2617 52.7366 16.4648 53.4593 18.6914C54.846 22.9492 58.1663 26.2695 62.4827 27.7344C64.6898 28.4961 67.8929 28.6133 70.1585 28.0469C75.0023 26.8164 78.6937 23.418 80.2562 18.8086C81.0179 16.4844 81.1546 13.3398 80.5882 11.0547C79.2601 5.8203 75.4515 1.99218 70.2757 0.664051C68.2835 0.156239 65.3734 0.156239 63.3616 0.664051Z" fill="url(#paint1_radial_2754_1669)"/>
<path d="M51.8142 27.8711C47.1657 31.8359 44.3532 37.6367 44.0798 43.75C43.9821 45.8399 44.0212 46.5039 44.2946 47.3633C45.6228 51.582 50.7595 54.5703 58.8064 55.8203C62.2439 56.3672 66.4235 56.5625 69.9001 56.3281C80.3298 55.6836 86.9118 52.8711 89.0798 48.1836C89.5095 47.2461 89.6267 46.6992 89.6853 45.0977C89.9196 38.8867 86.8142 32.0117 81.8337 27.793L80.486 26.6602L79.4118 27.6367C73.8259 32.7344 65.9743 34.0234 59.3337 30.9375C57.4392 30.0586 55.7986 28.9844 54.3337 27.6367L53.2595 26.6406L51.8142 27.8711Z" fill="black"/>
<path d="M51.8142 27.8711C47.1657 31.8359 44.3532 37.6367 44.0798 43.75C43.9821 45.8399 44.0212 46.5039 44.2946 47.3633C45.6228 51.582 50.7595 54.5703 58.8064 55.8203C62.2439 56.3672 66.4235 56.5625 69.9001 56.3281C80.3298 55.6836 86.9118 52.8711 89.0798 48.1836C89.5095 47.2461 89.6267 46.6992 89.6853 45.0977C89.9196 38.8867 86.8142 32.0117 81.8337 27.793L80.486 26.6602L79.4118 27.6367C73.8259 32.7344 65.9743 34.0234 59.3337 30.9375C57.4392 30.0586 55.7986 28.9844 54.3337 27.6367L53.2595 26.6406L51.8142 27.8711Z" fill="url(#paint2_radial_2754_1669)"/>
<path d="M21.0742 33.6914C16.582 34.375 12.5195 37.3242 10.5664 41.2891C9.43359 43.6133 9.0625 45.1367 9.0625 47.6562C9.0625 51.6406 10.3516 54.7266 13.2422 57.5977C16.1914 60.5273 18.9648 61.6797 23.0273 61.6992C25.8203 61.6992 27.1875 61.3867 29.5703 60.1953C31.7383 59.1211 34.3945 56.543 35.4688 54.4727C36.8164 51.875 37.0898 50.7031 37.0898 47.6367C37.0703 45.1953 37.0117 44.7266 36.543 43.3398C35.8008 41.0938 34.7656 39.4531 32.9883 37.6562C31.6992 36.3672 31.0938 35.918 29.5703 35.1758C28.5547 34.668 27.207 34.1406 26.582 33.9844C25.0781 33.5938 22.5195 33.457 21.0742 33.6914Z" fill="black"/>
<path d="M21.0742 33.6914C16.582 34.375 12.5195 37.3242 10.5664 41.2891C9.43359 43.6133 9.0625 45.1367 9.0625 47.6562C9.0625 51.6406 10.3516 54.7266 13.2422 57.5977C16.1914 60.5273 18.9648 61.6797 23.0273 61.6992C25.8203 61.6992 27.1875 61.3867 29.5703 60.1953C31.7383 59.1211 34.3945 56.543 35.4688 54.4727C36.8164 51.875 37.0898 50.7031 37.0898 47.6367C37.0703 45.1953 37.0117 44.7266 36.543 43.3398C35.8008 41.0938 34.7656 39.4531 32.9883 37.6562C31.6992 36.3672 31.0938 35.918 29.5703 35.1758C28.5547 34.668 27.207 34.1406 26.582 33.9844C25.0781 33.5938 22.5195 33.457 21.0742 33.6914Z" fill="url(#paint3_radial_2754_1669)"/>
<path d="M85.741 58.6719C85.1356 58.8672 84.1785 59.6875 83.8074 60.332C83.6317 60.6055 83.5535 63.5352 83.4754 70.293C83.3582 80.957 83.4168 80.5469 81.9715 81.9727C80.5067 83.4375 81.1902 83.3594 68.241 83.4766C56.952 83.5742 56.6004 83.5938 55.9363 83.9844C54.9207 84.5703 54.3348 85.7031 54.4324 86.8555C54.5301 87.9102 54.9598 88.6328 55.9363 89.2969L56.5809 89.7266H68.1629C75.7606 89.7266 80.0965 89.6484 80.7801 89.5117C82.6746 89.1211 84.9012 87.8906 86.366 86.4258C87.8504 84.9414 89.1395 82.6367 89.5106 80.7812C89.6473 80.1172 89.7254 76.2891 89.7254 70.2148V60.6836L89.2762 60.0195C88.827 59.3164 87.3817 58.457 86.6981 58.4961C86.4832 58.4961 86.0535 58.5938 85.741 58.6719Z" fill="black"/>
<path d="M85.741 58.6719C85.1356 58.8672 84.1785 59.6875 83.8074 60.332C83.6317 60.6055 83.5535 63.5352 83.4754 70.293C83.3582 80.957 83.4168 80.5469 81.9715 81.9727C80.5067 83.4375 81.1902 83.3594 68.241 83.4766C56.952 83.5742 56.6004 83.5938 55.9363 83.9844C54.9207 84.5703 54.3348 85.7031 54.4324 86.8555C54.5301 87.9102 54.9598 88.6328 55.9363 89.2969L56.5809 89.7266H68.1629C75.7606 89.7266 80.0965 89.6484 80.7801 89.5117C82.6746 89.1211 84.9012 87.8906 86.366 86.4258C87.8504 84.9414 89.1395 82.6367 89.5106 80.7812C89.6473 80.1172 89.7254 76.2891 89.7254 70.2148V60.6836L89.2762 60.0195C88.827 59.3164 87.3817 58.457 86.6981 58.4961C86.4832 58.4961 86.0535 58.5938 85.741 58.6719Z" fill="url(#paint4_radial_2754_1669)"/>
<path d="M8.55516 60.7812C7.18798 61.875 5.31298 63.9258 4.21923 65.5664C1.50438 69.5703 0.156726 74.0625 0.312976 78.5351C0.37157 80.2344 0.449695 80.6055 0.99657 81.7383C2.34423 84.4531 5.23485 86.5234 9.68798 87.9492C13.8286 89.2578 18.7114 89.8242 24.6684 89.668C34.0044 89.414 40.313 87.4805 43.7895 83.789C45.3911 82.1094 45.8598 80.8984 45.938 78.3008C46.1333 72.4805 43.3599 66.0547 38.8286 61.8164C36.6411 59.7656 36.7974 59.7851 35.3716 61.1523C33.3208 63.1055 30.5474 64.6094 27.52 65.4297C25.8989 65.8594 22.1099 66.0156 20.2739 65.7031C16.6606 65.1367 13.6919 63.6914 10.7036 61.0742L9.49266 60.039L8.55516 60.7812Z" fill="black"/>
<path d="M8.55516 60.7812C7.18798 61.875 5.31298 63.9258 4.21923 65.5664C1.50438 69.5703 0.156726 74.0625 0.312976 78.5351C0.37157 80.2344 0.449695 80.6055 0.99657 81.7383C2.34423 84.4531 5.23485 86.5234 9.68798 87.9492C13.8286 89.2578 18.7114 89.8242 24.6684 89.668C34.0044 89.414 40.313 87.4805 43.7895 83.789C45.3911 82.1094 45.8598 80.8984 45.938 78.3008C46.1333 72.4805 43.3599 66.0547 38.8286 61.8164C36.6411 59.7656 36.7974 59.7851 35.3716 61.1523C33.3208 63.1055 30.5474 64.6094 27.52 65.4297C25.8989 65.8594 22.1099 66.0156 20.2739 65.7031C16.6606 65.1367 13.6919 63.6914 10.7036 61.0742L9.49266 60.039L8.55516 60.7812Z" fill="url(#paint5_radial_2754_1669)"/>
<defs>
<radialGradient id="paint0_radial_2754_1669" cx="0" cy="0" r="1" gradientUnits="userSpaceOnUse" gradientTransform="translate(7.93949 25.2213) rotate(-28.7621) scale(69.46 62.5499)">
<stop stop-color="#00862D"/>
<stop offset="0.627261" stop-color="#0033CC"/>
</radialGradient>
<radialGradient id="paint1_radial_2754_1669" cx="0" cy="0" r="1" gradientUnits="userSpaceOnUse" gradientTransform="translate(58.2939 22.7783) rotate(-34.7834) scale(52.8591 52.874)">
<stop stop-color="#00862D"/>
<stop offset="0.627261" stop-color="#0033CC"/>
</radialGradient>
<radialGradient id="paint2_radial_2754_1669" cx="0" cy="0" r="1" gradientUnits="userSpaceOnUse" gradientTransform="translate(52.9115 50.469) rotate(-24.3637) scale(77.4302 62.12)">
<stop stop-color="#00862D"/>
<stop offset="0.627261" stop-color="#0033CC"/>
</radialGradient>
<radialGradient id="paint3_radial_2754_1669" cx="0" cy="0" r="1" gradientUnits="userSpaceOnUse" gradientTransform="translate(14.5127 56.075) rotate(-34.8644) scale(52.76 52.8302)">
<stop stop-color="#00862D"/>
<stop offset="0.627261" stop-color="#0033CC"/>
</radialGradient>
<radialGradient id="paint4_radial_2754_1669" cx="0" cy="0" r="1" gradientUnits="userSpaceOnUse" gradientTransform="translate(61.287 83.4806) rotate(-31.5599) scale(63.9936 60.9291)">
<stop stop-color="#00862D"/>
<stop offset="0.627261" stop-color="#0033CC"/>
</radialGradient>
<radialGradient id="paint5_radial_2754_1669" cx="0" cy="0" r="1" gradientUnits="userSpaceOnUse" gradientTransform="translate(9.17724 83.7628) rotate(-24.2783) scale(77.3449 61.8889)">
<stop stop-color="#00862D"/>
<stop offset="0.627261" stop-color="#0033CC"/>
</radialGradient>
</defs>
</svg>
