<svg width="124" height="116" viewBox="0 0 124 116" fill="none" xmlns="http://www.w3.org/2000/svg">
<path d="M64.7875 12.071C63.867 12.8235 62.8978 14.396 62.6473 15.5688C62.138 17.8967 60.9471 15.1117 77.7812 51.0737L92.8983 83.3539L93.6769 83.9606C94.8907 84.9462 95.9455 85.3595 97.4723 85.4449C98.7548 85.5149 98.992 85.4689 100.373 84.8251C101.753 84.1812 101.941 84.0291 102.712 83.0016C103.637 81.7511 103.912 80.9548 103.993 79.2793L104.05 78.1537L88.821 45.4947L73.5919 12.8358L72.47 12.0013C71.2196 11.0758 70.3973 10.7912 68.7997 10.7388C67.6127 10.6889 65.6727 11.3349 64.7875 12.071Z" fill="url(#paint0_radial_2754_1652)"/>
<path d="M61.4894 25.5247C57.9036 33.3171 51.4906 41.9322 43.9381 49.0744C41.5339 51.3592 40.3537 52.3406 37.5614 54.44L37.1873 54.7007L42.8827 66.9146L48.5782 79.1285L49.0183 79.0095C52.4214 78.2199 53.9318 77.9466 57.2275 77.5736C67.5711 76.3707 78.2669 76.9863 86.5493 79.266L88.4311 79.7892L81.9469 65.745C78.374 58.0367 72.4969 45.4333 68.8886 37.7415L62.2981 23.7468L61.4894 25.5247Z" fill="url(#paint1_radial_2754_1652)"/>
<path d="M87.4713 23.1937C85.9534 25.0221 84.629 26.8034 84.5322 27.1503C83.9475 29.0392 85.9211 30.6834 87.7266 29.8415C88.1514 29.6434 89.2408 28.4673 91.1577 26.108C93.5173 23.2191 93.9812 22.5502 94.0049 22.0004C94.0904 20.1503 92.3079 18.8695 90.7148 19.6124C90.4493 19.7362 88.981 21.3475 87.4713 23.1937Z" fill="url(#paint2_radial_2754_1652)"/>
<path d="M16.585 64.8242C14.9716 66.3093 14.1345 68.1651 14.1374 70.2972L14.137 71.5904L17.48 78.7594L20.8229 85.9285L21.8221 86.7771C23.0949 87.843 24.8599 88.4854 26.5378 88.4788C27.674 88.4661 28.0788 88.3636 30.033 87.517L32.2256 86.5808L26.6044 74.5262L20.9833 62.4716L19.0975 63.3725C18.0354 63.8677 16.9166 64.5187 16.585 64.8242Z" fill="url(#paint3_radial_2754_1652)"/>
<path d="M28.723 73.518L34.3359 85.5549L40.3544 82.7484L46.3728 79.942L40.7599 67.9051L35.147 55.8682L29.1286 58.6746L23.1101 61.4811L28.723 73.518Z" fill="url(#paint4_radial_2754_1652)"/>
<path d="M95.69 39.898C95.068 40.5975 94.9462 41.5379 95.3754 42.4584C95.7221 43.2018 95.9014 43.3553 96.6282 43.6198L97.467 43.9398L101.892 41.8762L106.318 39.8127L106.612 38.9644C106.876 38.2376 106.874 38.0016 106.519 37.2405C106.164 36.4793 105.985 36.3259 105.258 36.0614L104.419 35.7414L100.19 37.6705C97.8803 38.7258 95.8517 39.7364 95.69 39.898Z" fill="url(#paint5_radial_2754_1652)"/>
<path d="M99.0559 57.4221C98.8706 57.8103 98.7642 58.5064 98.8313 58.9276C98.9184 59.5766 99.0352 59.7808 99.5908 60.2329C100.198 60.7038 100.546 60.757 104.59 60.8326C106.991 60.8982 109.247 60.8375 109.626 60.7255C111.423 60.1892 111.723 57.8294 110.149 56.6242C109.712 56.289 108.919 56.2062 105.364 56.1615C100.412 56.0786 99.6038 56.24 99.0559 57.4221Z" fill="url(#paint6_radial_2754_1652)"/>
<path d="M38.5379 94.4775L41.7689 101.268L42.6172 101.562L43.456 101.882L46.7308 100.355L50.0055 98.8278L50.2712 98.0574C50.5263 97.3566 50.4156 96.6108 49.0831 89.7326C48.2796 85.5602 47.6046 82.1252 47.5798 82.0721C47.555 82.019 44.7948 83.263 41.4316 84.8313L35.3069 87.6873L38.5379 94.4775Z" fill="url(#paint7_radial_2754_1652)"/>
<defs>
<radialGradient id="paint0_radial_2754_1652" cx="0" cy="0" r="1" gradientUnits="userSpaceOnUse" gradientTransform="translate(90.0477 71.7431) rotate(-102.59) scale(89.058 39.9037)">
<stop stop-color="#00862D"/>
<stop offset="0.627261" stop-color="#0033CC"/>
</radialGradient>
<radialGradient id="paint1_radial_2754_1652" cx="0" cy="0" r="1" gradientUnits="userSpaceOnUse" gradientTransform="translate(57.0522 80.7766) rotate(-75.0884) scale(86.4551 90.8342)">
<stop stop-color="#00862D"/>
<stop offset="0.627261" stop-color="#0033CC"/>
</radialGradient>
<radialGradient id="paint2_radial_2754_1652" cx="0" cy="0" r="1" gradientUnits="userSpaceOnUse" gradientTransform="translate(86.9812 28.422) rotate(-50.5201) scale(19.9331 16.5451)">
<stop stop-color="#00862D"/>
<stop offset="0.627261" stop-color="#0033CC"/>
</radialGradient>
<radialGradient id="paint3_radial_2754_1652" cx="0" cy="0" r="1" gradientUnits="userSpaceOnUse" gradientTransform="translate(22.6338 85.1835) rotate(-86.4277) scale(32.4842 29.1286)">
<stop stop-color="#00862D"/>
<stop offset="0.627261" stop-color="#0033CC"/>
</radialGradient>
<radialGradient id="paint4_radial_2754_1652" cx="0" cy="0" r="1" gradientUnits="userSpaceOnUse" gradientTransform="translate(34.4316 79.6489) rotate(-79.2413) scale(35.1038 35.5386)">
<stop stop-color="#00862D"/>
<stop offset="0.627261" stop-color="#0033CC"/>
</radialGradient>
<radialGradient id="paint5_radial_2754_1652" cx="0" cy="0" r="1" gradientUnits="userSpaceOnUse" gradientTransform="translate(98.1017 42.6431) rotate(-39.3539) scale(19.6178 10.0588)">
<stop stop-color="#00862D"/>
<stop offset="0.627261" stop-color="#0033CC"/>
</radialGradient>
<radialGradient id="paint6_radial_2754_1652" cx="0" cy="0" r="1" gradientUnits="userSpaceOnUse" gradientTransform="translate(102.728 62.2163) rotate(-50.3199) scale(19.9284 16.4473)">
<stop stop-color="#00862D"/>
<stop offset="0.627261" stop-color="#0033CC"/>
</radialGradient>
<radialGradient id="paint7_radial_2754_1652" cx="0" cy="0" r="1" gradientUnits="userSpaceOnUse" gradientTransform="translate(43.1994 98.4028) rotate(-64.9971) scale(27.2108 28.6042)">
<stop stop-color="#00862D"/>
<stop offset="0.627261" stop-color="#0033CC"/>
</radialGradient>
</defs>
</svg>
