<svg width="41" height="42" viewBox="0 0 41 42" fill="none" xmlns="http://www.w3.org/2000/svg">
<path d="M34.4609 11.8132H31.2817L23.4814 19.8002C23.7501 20.5016 23.7748 21.2764 23.5514 21.9942C23.328 22.7121 22.8701 23.3292 22.2548 23.7419C21.6394 24.1546 20.9041 24.3377 20.1725 24.2603C19.4409 24.1829 18.7576 23.8498 18.2375 23.3171C17.7174 22.7843 17.3923 22.0843 17.3167 21.3349C17.2412 20.5854 17.4199 19.8322 17.8228 19.2018C18.2256 18.5714 18.8281 18.1024 19.5288 17.8736C20.2296 17.6447 20.9859 17.67 21.6706 17.9452L29.4691 9.95648V6.69973C29.4693 6.26394 29.6383 5.84602 29.9389 5.53773L32.8943 2.51023C32.9489 2.45367 33.0176 2.4135 33.0929 2.39407C33.1682 2.37464 33.2472 2.37668 33.3214 2.39998C33.4735 2.44548 33.5862 2.57498 33.617 2.73423L34.4028 6.76098L38.332 7.56598C38.4857 7.59748 38.6121 7.71298 38.6566 7.86873C38.679 7.94438 38.681 8.02485 38.6623 8.10158C38.6437 8.17831 38.6051 8.24843 38.5506 8.30448L35.5935 11.332C35.4449 11.4845 35.2683 11.6055 35.074 11.6881C34.8796 11.7707 34.6713 11.8132 34.4609 11.8132Z" fill="#00862D"/>
<path d="M4.48438 21C4.48438 25.3512 6.17173 29.5242 9.17524 32.601C12.1788 35.6777 16.2524 37.4063 20.5 37.4063C22.6032 37.4063 24.6858 36.9819 26.6289 36.1574C28.572 35.3329 30.3376 34.1244 31.8248 32.601C33.3119 31.0775 34.4916 29.2689 35.2965 27.2784C36.1014 25.2879 36.5156 23.1545 36.5156 21C36.5156 19.4285 36.3004 17.9095 35.8989 16.4728C35.8191 16.1429 35.8673 15.7941 36.0335 15.4999C36.1996 15.2057 36.4706 14.989 36.7896 14.8954C37.1085 14.8017 37.4504 14.8385 37.7435 14.9979C38.0365 15.1573 38.2577 15.4269 38.3606 15.75C38.8287 17.4195 39.0781 19.18 39.0781 21C39.0781 31.5105 30.7603 40.0313 20.5 40.0313C10.2397 40.0313 1.92188 31.5105 1.92188 21C1.92188 10.4895 10.2397 1.96876 20.5 1.96876C22.234 1.96701 23.9577 2.21376 25.625 2.70201C25.7876 2.74872 25.9395 2.82789 26.0721 2.93497C26.2047 3.04204 26.3154 3.17491 26.3977 3.32593C26.48 3.47695 26.5323 3.64315 26.5517 3.81497C26.5711 3.98678 26.5572 4.16083 26.5107 4.32711C26.4642 4.49339 26.3861 4.64861 26.2808 4.78386C26.1756 4.91911 26.0453 5.03172 25.8974 5.1152C25.7495 5.19869 25.587 5.25142 25.4192 5.27035C25.2514 5.28928 25.0815 5.27404 24.9195 5.22551C23.4822 4.80503 21.9947 4.59239 20.5 4.59376C16.2524 4.59376 12.1788 6.32227 9.17524 9.39904C6.17173 12.4758 4.48438 16.6488 4.48438 21Z" fill="#00862D"/>
<path d="M12.1717 20.9996C12.1765 22.1587 12.4118 23.3046 12.8633 24.3674C13.3149 25.4302 13.9731 26.3876 14.7979 27.1811C15.6226 27.9746 16.5966 28.5875 17.6603 28.9825C18.7241 29.3776 19.8553 29.5464 20.9848 29.4786C22.1143 29.4108 23.2186 29.108 24.23 28.5885C25.2415 28.069 26.139 27.3437 26.8677 26.457C27.5964 25.5704 28.1411 24.5408 28.4684 23.4313C28.7958 22.3218 28.8989 21.1556 28.7716 20.0039C28.7357 19.7706 28.7621 19.5318 28.848 19.3126C28.9338 19.0935 29.0759 18.9022 29.2593 18.7591C29.4426 18.616 29.6603 18.5263 29.8893 18.4996C30.1184 18.4729 30.3502 18.5101 30.5602 18.6074C30.989 18.8034 31.2777 19.2216 31.3153 19.7011C31.5806 22.0028 31.1392 24.332 30.0527 26.3649C28.9661 28.3977 27.2882 30.0334 25.2524 31.0444C23.2165 32.0554 20.9237 32.3916 18.6928 32.0061C16.4618 31.6207 14.4034 30.5329 12.8038 28.8939C11.2046 27.2566 10.1424 25.1502 9.76455 22.8667C9.38667 20.5832 9.71182 18.2358 10.6949 16.1501C11.678 14.0644 13.2703 12.3438 15.251 11.2269C17.2316 10.11 19.5025 9.65216 21.7486 9.91688C21.9184 9.93302 22.0834 9.98372 22.2338 10.066C22.3842 10.1483 22.5171 10.2605 22.6246 10.3961C22.7322 10.5317 22.8122 10.6879 22.8601 10.8555C22.9079 11.0232 22.9226 11.199 22.9033 11.3726C22.8839 11.5461 22.831 11.714 22.7475 11.8663C22.664 12.0186 22.5517 12.1523 22.4171 12.2596C22.2825 12.3669 22.1284 12.4456 21.9637 12.491C21.7991 12.5365 21.6272 12.5478 21.4582 12.5244C20.2915 12.3862 19.1094 12.5023 17.9896 12.8652C16.8697 13.228 15.8374 13.8293 14.9605 14.6297C14.0835 15.43 13.3817 16.4113 12.9011 17.5091C12.4205 18.6069 12.1719 19.7965 12.1717 20.9996Z" fill="#00862D"/>
</svg>
