<svg width="216" height="186" viewBox="0 0 216 186" fill="none" xmlns="http://www.w3.org/2000/svg">
<g clip-path="url(#clip0_3229_1820)">
<g filter="url(#filter0_d_3229_1820)">
<path d="M109.096 28.7562C128.014 15.51 154.177 27.71 156.189 50.7161L162.831 126.636C164.844 149.642 141.197 166.2 120.267 156.44L51.1971 124.232C30.2669 114.472 27.7509 85.7148 46.6684 72.4686L109.096 28.7562Z" fill="white"/>
</g>
<path d="M104.801 59.7385C99.5464 62.0576 98.4547 68.6055 102.481 72.698C104.323 74.4715 105.142 74.8125 108.008 74.8125C110.737 74.8125 111.692 74.4715 113.398 72.8345C119.881 66.6275 112.921 56.1234 104.801 59.7385Z" fill="white"/>
<path d="M104.801 59.7385C99.5464 62.0576 98.4547 68.6055 102.481 72.698C104.323 74.4715 105.142 74.8125 108.008 74.8125C110.737 74.8125 111.692 74.4715 113.398 72.8345C119.881 66.6275 112.921 56.1234 104.801 59.7385Z" fill="url(#paint0_linear_3229_1820)"/>
<path d="M104.801 59.7385C99.5464 62.0576 98.4547 68.6055 102.481 72.698C104.323 74.4715 105.142 74.8125 108.008 74.8125C110.737 74.8125 111.692 74.4715 113.398 72.8345C119.881 66.6275 112.921 56.1234 104.801 59.7385Z" fill="url(#paint1_radial_3229_1820)"/>
<path d="M78.8708 63.831C74.7766 65.6727 72.7295 71.2657 74.8448 75.0172C76.1413 77.4045 79.3484 79.2461 82.2143 79.2461C85.4897 79.2461 89.3791 76.0403 89.925 72.8345C91.1533 66.5594 84.6026 61.3073 78.8708 63.831Z" fill="white"/>
<path d="M78.8708 63.831C74.7766 65.6727 72.7295 71.2657 74.8448 75.0172C76.1413 77.4045 79.3484 79.2461 82.2143 79.2461C85.4897 79.2461 89.3791 76.0403 89.925 72.8345C91.1533 66.5594 84.6026 61.3073 78.8708 63.831Z" fill="url(#paint2_linear_3229_1820)"/>
<path d="M78.8708 63.831C74.7766 65.6727 72.7295 71.2657 74.8448 75.0172C76.1413 77.4045 79.3484 79.2461 82.2143 79.2461C85.4897 79.2461 89.3791 76.0403 89.925 72.8345C91.1533 66.5594 84.6026 61.3073 78.8708 63.831Z" fill="url(#paint3_radial_3229_1820)"/>
<path d="M130.526 64.1039C127.455 65.6044 125.408 69.4923 126.022 72.7663C126.636 75.9721 130.526 79.2461 133.664 79.2461C138.782 79.2461 142.603 75.0854 141.921 70.2426C141.512 67.105 139.942 65.127 136.872 63.831C134.006 62.6033 133.392 62.6033 130.526 64.1039Z" fill="white"/>
<path d="M130.526 64.1039C127.455 65.6044 125.408 69.4923 126.022 72.7663C126.636 75.9721 130.526 79.2461 133.664 79.2461C138.782 79.2461 142.603 75.0854 141.921 70.2426C141.512 67.105 139.942 65.127 136.872 63.831C134.006 62.6033 133.392 62.6033 130.526 64.1039Z" fill="url(#paint4_linear_3229_1820)"/>
<path d="M130.526 64.1039C127.455 65.6044 125.408 69.4923 126.022 72.7663C126.636 75.9721 130.526 79.2461 133.664 79.2461C138.782 79.2461 142.603 75.0854 141.921 70.2426C141.512 67.105 139.942 65.127 136.872 63.831C134.006 62.6033 133.392 62.6033 130.526 64.1039Z" fill="url(#paint5_radial_3229_1820)"/>
<path d="M106.302 77.8813C106.097 78.2224 106.097 78.9726 106.438 79.3819C106.711 79.8593 106.984 81.701 106.984 83.4744C106.984 85.2478 107.257 86.8848 107.53 87.1576C108.417 88.1125 109.031 86.6802 109.031 83.4744C109.031 81.701 109.304 79.8593 109.577 79.3819C110.328 78.2906 109.577 77.1992 108.008 77.1992C107.325 77.1992 106.507 77.4721 106.302 77.8813Z" fill="white"/>
<path d="M106.302 77.8813C106.097 78.2224 106.097 78.9726 106.438 79.3819C106.711 79.8593 106.984 81.701 106.984 83.4744C106.984 85.2478 107.257 86.8848 107.53 87.1576C108.417 88.1125 109.031 86.6802 109.031 83.4744C109.031 81.701 109.304 79.8593 109.577 79.3819C110.328 78.2906 109.577 77.1992 108.008 77.1992C107.325 77.1992 106.507 77.4721 106.302 77.8813Z" fill="url(#paint6_linear_3229_1820)"/>
<path d="M106.302 77.8813C106.097 78.2224 106.097 78.9726 106.438 79.3819C106.711 79.8593 106.984 81.701 106.984 83.4744C106.984 85.2478 107.257 86.8848 107.53 87.1576C108.417 88.1125 109.031 86.6802 109.031 83.4744C109.031 81.701 109.304 79.8593 109.577 79.3819C110.328 78.2906 109.577 77.1992 108.008 77.1992C107.325 77.1992 106.507 77.4721 106.302 77.8813Z" fill="url(#paint7_radial_3229_1820)"/>
<path d="M96.6804 80.2036L94.3604 82.5227V89.4117V96.3008H108.008H121.655V89.5482C121.655 83.273 121.518 82.5909 119.949 80.7493C117.97 78.362 114.285 77.2025 113.398 78.6348C113.057 79.1805 111.829 82.4545 110.601 85.8649C109.372 89.3435 108.212 92.2083 108.008 92.2083C107.803 92.2083 106.506 89.0025 105.005 85.0464C102.685 78.5666 102.276 77.8846 100.706 77.8846C99.6828 77.8846 98.0451 78.8395 96.6804 80.2036Z" fill="white"/>
<path d="M96.6804 80.2036L94.3604 82.5227V89.4117V96.3008H108.008H121.655V89.5482C121.655 83.273 121.518 82.5909 119.949 80.7493C117.97 78.362 114.285 77.2025 113.398 78.6348C113.057 79.1805 111.829 82.4545 110.601 85.8649C109.372 89.3435 108.212 92.2083 108.008 92.2083C107.803 92.2083 106.506 89.0025 105.005 85.0464C102.685 78.5666 102.276 77.8846 100.706 77.8846C99.6828 77.8846 98.0451 78.8395 96.6804 80.2036Z" fill="url(#paint8_linear_3229_1820)"/>
<path d="M96.6804 80.2036L94.3604 82.5227V89.4117V96.3008H108.008H121.655V89.5482C121.655 83.273 121.518 82.5909 119.949 80.7493C117.97 78.362 114.285 77.2025 113.398 78.6348C113.057 79.1805 111.829 82.4545 110.601 85.8649C109.372 89.3435 108.212 92.2083 108.008 92.2083C107.803 92.2083 106.506 89.0025 105.005 85.0464C102.685 78.5666 102.276 77.8846 100.706 77.8846C99.6828 77.8846 98.0451 78.8395 96.6804 80.2036Z" fill="url(#paint9_radial_3229_1820)"/>
<path d="M78.8707 82.3165C74.9812 83.9535 74.4353 86.1362 74.7083 98.4137C74.913 109.191 74.913 109.259 76.8236 111.1C78.5295 112.806 79.2119 113.01 84.466 113.283L90.2661 113.488V119.831C90.2661 124.947 90.4708 126.243 91.3579 126.584C93.2685 127.334 100.229 126.993 101.047 126.174C101.593 125.629 101.866 122.287 101.866 115.534V105.712L99.8874 103.734C98.1133 101.96 97.4309 101.756 93.7462 101.756H89.5838V94.8668C89.5838 86.8183 88.6285 84.0217 85.1484 82.3847C82.419 81.0888 81.6684 81.0888 78.8707 82.3165Z" fill="white"/>
<path d="M78.8707 82.3165C74.9812 83.9535 74.4353 86.1362 74.7083 98.4137C74.913 109.191 74.913 109.259 76.8236 111.1C78.5295 112.806 79.2119 113.01 84.466 113.283L90.2661 113.488V119.831C90.2661 124.947 90.4708 126.243 91.3579 126.584C93.2685 127.334 100.229 126.993 101.047 126.174C101.593 125.629 101.866 122.287 101.866 115.534V105.712L99.8874 103.734C98.1133 101.96 97.4309 101.756 93.7462 101.756H89.5838V94.8668C89.5838 86.8183 88.6285 84.0217 85.1484 82.3847C82.419 81.0888 81.6684 81.0888 78.8707 82.3165Z" fill="url(#paint10_linear_3229_1820)"/>
<path d="M78.8707 82.3165C74.9812 83.9535 74.4353 86.1362 74.7083 98.4137C74.913 109.191 74.913 109.259 76.8236 111.1C78.5295 112.806 79.2119 113.01 84.466 113.283L90.2661 113.488V119.831C90.2661 124.947 90.4708 126.243 91.3579 126.584C93.2685 127.334 100.229 126.993 101.047 126.174C101.593 125.629 101.866 122.287 101.866 115.534V105.712L99.8874 103.734C98.1133 101.96 97.4309 101.756 93.7462 101.756H89.5838V94.8668C89.5838 86.8183 88.6285 84.0217 85.1484 82.3847C82.419 81.0888 81.6684 81.0888 78.8707 82.3165Z" fill="url(#paint11_radial_3229_1820)"/>
<path d="M131.549 81.9755C130.799 82.2483 129.434 83.3396 128.479 84.3628C126.909 86.068 126.773 86.75 126.568 93.9801L126.295 101.756H122.201C118.584 101.756 117.902 101.96 116.128 103.734L114.149 105.712V115.534C114.149 122.287 114.422 125.629 114.968 126.174C115.787 126.993 122.747 127.334 124.657 126.584C125.544 126.243 125.749 124.947 125.749 119.831V113.488L131.549 113.283C136.803 113.01 137.486 112.806 139.192 111.1C141.102 109.259 141.102 109.191 141.307 98.4137C141.58 85.9998 141.034 83.9535 137.008 82.2483C134.415 81.157 133.528 81.157 131.549 81.9755Z" fill="white"/>
<path d="M131.549 81.9755C130.799 82.2483 129.434 83.3396 128.479 84.3628C126.909 86.068 126.773 86.75 126.568 93.9801L126.295 101.756H122.201C118.584 101.756 117.902 101.96 116.128 103.734L114.149 105.712V115.534C114.149 122.287 114.422 125.629 114.968 126.174C115.787 126.993 122.747 127.334 124.657 126.584C125.544 126.243 125.749 124.947 125.749 119.831V113.488L131.549 113.283C136.803 113.01 137.486 112.806 139.192 111.1C141.102 109.259 141.102 109.191 141.307 98.4137C141.58 85.9998 141.034 83.9535 137.008 82.2483C134.415 81.157 133.528 81.157 131.549 81.9755Z" fill="url(#paint12_linear_3229_1820)"/>
<path d="M131.549 81.9755C130.799 82.2483 129.434 83.3396 128.479 84.3628C126.909 86.068 126.773 86.75 126.568 93.9801L126.295 101.756H122.201C118.584 101.756 117.902 101.96 116.128 103.734L114.149 105.712V115.534C114.149 122.287 114.422 125.629 114.968 126.174C115.787 126.993 122.747 127.334 124.657 126.584C125.544 126.243 125.749 124.947 125.749 119.831V113.488L131.549 113.283C136.803 113.01 137.486 112.806 139.192 111.1C141.102 109.259 141.102 109.191 141.307 98.4137C141.58 85.9998 141.034 83.9535 137.008 82.2483C134.415 81.157 133.528 81.157 131.549 81.9755Z" fill="url(#paint13_radial_3229_1820)"/>
</g>
<defs>
<filter id="filter0_d_3229_1820" x="13.8733" y="3.29297" width="169.078" height="176.004" filterUnits="userSpaceOnUse" color-interpolation-filters="sRGB">
<feFlood flood-opacity="0" result="BackgroundImageFix"/>
<feColorMatrix in="SourceAlpha" type="matrix" values="0 0 0 0 0 0 0 0 0 0 0 0 0 0 0 0 0 0 127 0" result="hardAlpha"/>
<feOffset/>
<feGaussianBlur stdDeviation="10"/>
<feComposite in2="hardAlpha" operator="out"/>
<feColorMatrix type="matrix" values="0 0 0 0 0 0 0 0 0 0 0 0 0 0 0 0 0 0 0.2 0"/>
<feBlend mode="normal" in2="BackgroundImageFix" result="effect1_dropShadow_3229_1820"/>
<feBlend mode="normal" in="SourceGraphic" in2="effect1_dropShadow_3229_1820" result="shape"/>
</filter>
<linearGradient id="paint0_linear_3229_1820" x1="119.213" y1="81.0585" x2="93.9995" y2="54.4994" gradientUnits="userSpaceOnUse">
<stop offset="0.186252" stop-color="#B1D60C"/>
<stop offset="0.852156" stop-color="#0E9C47"/>
</linearGradient>
<radialGradient id="paint1_radial_3229_1820" cx="0" cy="0" r="1" gradientUnits="userSpaceOnUse" gradientTransform="translate(103.137 71.6501) rotate(-34.6113) scale(29.8551 29.7961)">
<stop stop-color="#00862D"/>
<stop offset="0.627261" stop-color="#0033CC"/>
</radialGradient>
<linearGradient id="paint2_linear_3229_1820" x1="93.3704" y1="85.5905" x2="67.7528" y2="58.7463" gradientUnits="userSpaceOnUse">
<stop offset="0.186252" stop-color="#B1D60C"/>
<stop offset="0.852156" stop-color="#0E9C47"/>
</linearGradient>
<radialGradient id="paint3_radial_3229_1820" cx="0" cy="0" r="1" gradientUnits="userSpaceOnUse" gradientTransform="translate(77.1259 76.0339) rotate(-34.751) scale(30.2188 30.2145)">
<stop stop-color="#00862D"/>
<stop offset="0.627261" stop-color="#0033CC"/>
</radialGradient>
<linearGradient id="paint4_linear_3229_1820" x1="145.298" y1="85.6863" x2="119.279" y2="58.8069" gradientUnits="userSpaceOnUse">
<stop offset="0.186252" stop-color="#B1D60C"/>
<stop offset="0.852156" stop-color="#0E9C47"/>
</linearGradient>
<radialGradient id="paint5_radial_3229_1820" cx="0" cy="0" r="1" gradientUnits="userSpaceOnUse" gradientTransform="translate(129.041 75.9854) rotate(-35.1341) scale(30.3829 30.5278)">
<stop stop-color="#00862D"/>
<stop offset="0.627261" stop-color="#0033CC"/>
</radialGradient>
<linearGradient id="paint6_linear_3229_1820" x1="110.631" y1="91.498" x2="99.7877" y2="87.3909" gradientUnits="userSpaceOnUse">
<stop offset="0.186252" stop-color="#B1D60C"/>
<stop offset="0.852156" stop-color="#0E9C47"/>
</linearGradient>
<radialGradient id="paint7_radial_3229_1820" cx="0" cy="0" r="1" gradientUnits="userSpaceOnUse" gradientTransform="translate(106.883 85.3993) rotate(-62.4782) scale(12.395 10.844)">
<stop stop-color="#00862D"/>
<stop offset="0.627261" stop-color="#0033CC"/>
</radialGradient>
<linearGradient id="paint8_linear_3229_1820" x1="127.25" y1="103.575" x2="100.472" y2="62.0217" gradientUnits="userSpaceOnUse">
<stop offset="0.186252" stop-color="#B1D60C"/>
<stop offset="0.852156" stop-color="#0E9C47"/>
</linearGradient>
<radialGradient id="paint9_radial_3229_1820" cx="0" cy="0" r="1" gradientUnits="userSpaceOnUse" gradientTransform="translate(99.668 92.6178) rotate(-25.1019) scale(46.5549 38.1818)">
<stop stop-color="#00862D"/>
<stop offset="0.627261" stop-color="#0033CC"/>
</radialGradient>
<linearGradient id="paint10_linear_3229_1820" x1="107.446" y1="145.01" x2="42.0056" y2="104.11" gradientUnits="userSpaceOnUse">
<stop offset="0.186252" stop-color="#B1D60C"/>
<stop offset="0.852156" stop-color="#0E9C47"/>
</linearGradient>
<radialGradient id="paint11_radial_3229_1820" cx="0" cy="0" r="1" gradientUnits="userSpaceOnUse" gradientTransform="translate(79.9414 117.881) rotate(-49.3133) scale(64.485 68.0556)">
<stop stop-color="#00862D"/>
<stop offset="0.627261" stop-color="#0033CC"/>
</radialGradient>
<linearGradient id="paint12_linear_3229_1820" x1="146.946" y1="145.015" x2="81.4961" y2="104.121" gradientUnits="userSpaceOnUse">
<stop offset="0.186252" stop-color="#B1D60C"/>
<stop offset="0.852156" stop-color="#0E9C47"/>
</linearGradient>
<radialGradient id="paint13_radial_3229_1820" cx="0" cy="0" r="1" gradientUnits="userSpaceOnUse" gradientTransform="translate(119.442 117.879) rotate(-49.3211) scale(64.4945 68.0627)">
<stop stop-color="#00862D"/>
<stop offset="0.627261" stop-color="#0033CC"/>
</radialGradient>
<clipPath id="clip0_3229_1820">
<rect width="216" height="186" fill="white"/>
</clipPath>
</defs>
</svg>
