<svg width="200" height="180" viewBox="0 0 200 180" fill="none" xmlns="http://www.w3.org/2000/svg">
<g clip-path="url(#clip0_3227_1820)">
<g filter="url(#filter0_d_3227_1820)">
<path d="M101.096 25.7562C120.014 12.51 146.177 24.71 148.19 47.7161L154.832 123.636C156.844 146.642 133.198 163.2 112.267 153.44L43.1974 121.232C22.2671 111.472 19.7511 82.7148 38.6686 69.4686L101.096 25.7562Z" fill="white"/>
</g>
<path d="M84.5254 66.2V76.3999H90.0389H95.5524L97.4638 79.1199C98.5665 80.6159 99.6692 81.8398 99.9632 81.8398C100.257 81.8398 101.433 80.6159 102.536 79.1199L104.595 76.3999H109.594H114.666V66.2V56.0001H99.5957H84.5254V66.2ZM102.536 59.8761C105.403 62.868 104.448 64.976 101.433 62.46C99.9632 61.236 97.6108 61.848 97.9049 63.344C98.0519 63.956 99.0811 64.636 100.257 64.908C102.977 65.588 105.109 67.424 105.109 69.056C105.109 69.736 104.301 71.0959 103.271 72.0479C102.242 72.9999 101.433 74.0199 101.433 74.3599C101.433 74.7679 100.772 75.0399 99.9632 75.0399C99.1546 75.0399 98.493 74.6999 98.493 74.2919C98.493 73.8839 97.6843 72.9319 96.6551 72.1839C95.6259 71.4359 94.8173 70.416 94.8173 69.94C94.8173 68.24 96.4346 68.036 97.7578 69.6C99.1546 71.2999 101.654 71.2319 102.022 69.396C102.242 68.58 101.36 67.9 99.0076 66.948C97.2432 66.2 95.5524 65.112 95.2584 64.5C94.7438 63.208 96.5816 60.0801 97.7578 60.0801C98.1989 60.0801 98.493 59.6041 98.493 59.0601C98.493 57.4281 100.625 57.9041 102.536 59.8761Z" fill="white"/>
<path d="M84.5254 66.2V76.3999H90.0389H95.5524L97.4638 79.1199C98.5665 80.6159 99.6692 81.8398 99.9632 81.8398C100.257 81.8398 101.433 80.6159 102.536 79.1199L104.595 76.3999H109.594H114.666V66.2V56.0001H99.5957H84.5254V66.2ZM102.536 59.8761C105.403 62.868 104.448 64.976 101.433 62.46C99.9632 61.236 97.6108 61.848 97.9049 63.344C98.0519 63.956 99.0811 64.636 100.257 64.908C102.977 65.588 105.109 67.424 105.109 69.056C105.109 69.736 104.301 71.0959 103.271 72.0479C102.242 72.9999 101.433 74.0199 101.433 74.3599C101.433 74.7679 100.772 75.0399 99.9632 75.0399C99.1546 75.0399 98.493 74.6999 98.493 74.2919C98.493 73.8839 97.6843 72.9319 96.6551 72.1839C95.6259 71.4359 94.8173 70.416 94.8173 69.94C94.8173 68.24 96.4346 68.036 97.7578 69.6C99.1546 71.2999 101.654 71.2319 102.022 69.396C102.242 68.58 101.36 67.9 99.0076 66.948C97.2432 66.2 95.5524 65.112 95.2584 64.5C94.7438 63.208 96.5816 60.0801 97.7578 60.0801C98.1989 60.0801 98.493 59.6041 98.493 59.0601C98.493 57.4281 100.625 57.9041 102.536 59.8761Z" fill="url(#paint0_linear_3227_1820)"/>
<path d="M84.5254 66.2V76.3999H90.0389H95.5524L97.4638 79.1199C98.5665 80.6159 99.6692 81.8398 99.9632 81.8398C100.257 81.8398 101.433 80.6159 102.536 79.1199L104.595 76.3999H109.594H114.666V66.2V56.0001H99.5957H84.5254V66.2ZM102.536 59.8761C105.403 62.868 104.448 64.976 101.433 62.46C99.9632 61.236 97.6108 61.848 97.9049 63.344C98.0519 63.956 99.0811 64.636 100.257 64.908C102.977 65.588 105.109 67.424 105.109 69.056C105.109 69.736 104.301 71.0959 103.271 72.0479C102.242 72.9999 101.433 74.0199 101.433 74.3599C101.433 74.7679 100.772 75.0399 99.9632 75.0399C99.1546 75.0399 98.493 74.6999 98.493 74.2919C98.493 73.8839 97.6843 72.9319 96.6551 72.1839C95.6259 71.4359 94.8173 70.416 94.8173 69.94C94.8173 68.24 96.4346 68.036 97.7578 69.6C99.1546 71.2999 101.654 71.2319 102.022 69.396C102.242 68.58 101.36 67.9 99.0076 66.948C97.2432 66.2 95.5524 65.112 95.2584 64.5C94.7438 63.208 96.5816 60.0801 97.7578 60.0801C98.1989 60.0801 98.493 59.6041 98.493 59.0601C98.493 57.4281 100.625 57.9041 102.536 59.8761Z" fill="url(#paint1_radial_3227_1820)"/>
<path d="M74.307 79.3244C70.8519 80.4804 68.72 83.2684 68.7935 86.6684C68.867 88.1644 69.3081 89.7963 69.7492 90.2043C70.9254 91.2923 70.7784 91.8363 69.1611 92.2443C67.7643 92.5843 67.8378 92.3803 66.4411 104.144L66 107.68H76.0714H86.1427L85.6281 115.84L85.1135 124H99.9632H114.813L114.372 119.036C114.078 116.384 113.71 112.712 113.49 110.876L113.049 107.68H123.488H134L133.559 104.484C133.265 102.648 132.897 99.2482 132.603 96.8683C132.236 93.4683 131.795 92.4483 130.765 92.2443C129.148 91.8363 129.001 91.2923 130.177 90.2043C131.648 88.8443 131.354 84.1524 129.663 82.0444C126.502 78.1004 119.371 77.8285 116.136 81.6364C114.372 83.7444 114.151 88.3684 115.769 90.4763C116.798 91.8363 116.798 91.9723 115.254 92.1763C113.71 92.3803 113.49 92.9243 112.828 98.5002L112.093 104.62L108.123 104.824L104.154 105.028L106.726 102.784C110.255 99.7242 110.843 96.3923 108.785 92.3123C106.874 88.7083 103.859 87.0764 99.4487 87.1444C94.1557 87.2124 89.6714 91.2923 89.6714 96.1203C89.6714 98.6362 90.627 100.54 93.2735 103.124L95.1849 105.028L91.5092 104.824L87.8335 104.62L87.0984 98.5002C86.4368 92.9243 86.2162 92.3803 84.6724 92.1763C83.1286 91.9723 83.1286 91.8363 84.1578 90.4763C86.0692 87.9604 85.5546 83.6764 83.1286 81.2284C81.9524 80.0724 80.4822 79.1204 79.8941 79.1204C79.2324 79.1204 78.3503 78.9844 77.7622 78.8484C77.2476 78.6444 75.7038 78.8484 74.307 79.3244Z" fill="white"/>
<path d="M74.307 79.3244C70.8519 80.4804 68.72 83.2684 68.7935 86.6684C68.867 88.1644 69.3081 89.7963 69.7492 90.2043C70.9254 91.2923 70.7784 91.8363 69.1611 92.2443C67.7643 92.5843 67.8378 92.3803 66.4411 104.144L66 107.68H76.0714H86.1427L85.6281 115.84L85.1135 124H99.9632H114.813L114.372 119.036C114.078 116.384 113.71 112.712 113.49 110.876L113.049 107.68H123.488H134L133.559 104.484C133.265 102.648 132.897 99.2482 132.603 96.8683C132.236 93.4683 131.795 92.4483 130.765 92.2443C129.148 91.8363 129.001 91.2923 130.177 90.2043C131.648 88.8443 131.354 84.1524 129.663 82.0444C126.502 78.1004 119.371 77.8285 116.136 81.6364C114.372 83.7444 114.151 88.3684 115.769 90.4763C116.798 91.8363 116.798 91.9723 115.254 92.1763C113.71 92.3803 113.49 92.9243 112.828 98.5002L112.093 104.62L108.123 104.824L104.154 105.028L106.726 102.784C110.255 99.7242 110.843 96.3923 108.785 92.3123C106.874 88.7083 103.859 87.0764 99.4487 87.1444C94.1557 87.2124 89.6714 91.2923 89.6714 96.1203C89.6714 98.6362 90.627 100.54 93.2735 103.124L95.1849 105.028L91.5092 104.824L87.8335 104.62L87.0984 98.5002C86.4368 92.9243 86.2162 92.3803 84.6724 92.1763C83.1286 91.9723 83.1286 91.8363 84.1578 90.4763C86.0692 87.9604 85.5546 83.6764 83.1286 81.2284C81.9524 80.0724 80.4822 79.1204 79.8941 79.1204C79.2324 79.1204 78.3503 78.9844 77.7622 78.8484C77.2476 78.6444 75.7038 78.8484 74.307 79.3244Z" fill="url(#paint2_linear_3227_1820)"/>
<path d="M74.307 79.3244C70.8519 80.4804 68.72 83.2684 68.7935 86.6684C68.867 88.1644 69.3081 89.7963 69.7492 90.2043C70.9254 91.2923 70.7784 91.8363 69.1611 92.2443C67.7643 92.5843 67.8378 92.3803 66.4411 104.144L66 107.68H76.0714H86.1427L85.6281 115.84L85.1135 124H99.9632H114.813L114.372 119.036C114.078 116.384 113.71 112.712 113.49 110.876L113.049 107.68H123.488H134L133.559 104.484C133.265 102.648 132.897 99.2482 132.603 96.8683C132.236 93.4683 131.795 92.4483 130.765 92.2443C129.148 91.8363 129.001 91.2923 130.177 90.2043C131.648 88.8443 131.354 84.1524 129.663 82.0444C126.502 78.1004 119.371 77.8285 116.136 81.6364C114.372 83.7444 114.151 88.3684 115.769 90.4763C116.798 91.8363 116.798 91.9723 115.254 92.1763C113.71 92.3803 113.49 92.9243 112.828 98.5002L112.093 104.62L108.123 104.824L104.154 105.028L106.726 102.784C110.255 99.7242 110.843 96.3923 108.785 92.3123C106.874 88.7083 103.859 87.0764 99.4487 87.1444C94.1557 87.2124 89.6714 91.2923 89.6714 96.1203C89.6714 98.6362 90.627 100.54 93.2735 103.124L95.1849 105.028L91.5092 104.824L87.8335 104.62L87.0984 98.5002C86.4368 92.9243 86.2162 92.3803 84.6724 92.1763C83.1286 91.9723 83.1286 91.8363 84.1578 90.4763C86.0692 87.9604 85.5546 83.6764 83.1286 81.2284C81.9524 80.0724 80.4822 79.1204 79.8941 79.1204C79.2324 79.1204 78.3503 78.9844 77.7622 78.8484C77.2476 78.6444 75.7038 78.8484 74.307 79.3244Z" fill="url(#paint3_radial_3227_1820)"/>
</g>
<defs>
<filter id="filter0_d_3227_1820" x="5.87354" y="0.292969" width="169.078" height="176.004" filterUnits="userSpaceOnUse" color-interpolation-filters="sRGB">
<feFlood flood-opacity="0" result="BackgroundImageFix"/>
<feColorMatrix in="SourceAlpha" type="matrix" values="0 0 0 0 0 0 0 0 0 0 0 0 0 0 0 0 0 0 127 0" result="hardAlpha"/>
<feOffset/>
<feGaussianBlur stdDeviation="10"/>
<feComposite in2="hardAlpha" operator="out"/>
<feColorMatrix type="matrix" values="0 0 0 0 0 0 0 0 0 0 0 0 0 0 0 0 0 0 0.2 0"/>
<feBlend mode="normal" in2="BackgroundImageFix" result="effect1_dropShadow_3227_1820"/>
<feBlend mode="normal" in="SourceGraphic" in2="effect1_dropShadow_3227_1820" result="shape"/>
</filter>
<linearGradient id="paint0_linear_3227_1820" x1="120.845" y1="92.0465" x2="80.3977" y2="42.649" gradientUnits="userSpaceOnUse">
<stop offset="0.291277" stop-color="#C8FC36"/>
<stop offset="0.867194" stop-color="#0E9C47"/>
</linearGradient>
<radialGradient id="paint1_radial_3227_1820" cx="0" cy="0" r="1" gradientUnits="userSpaceOnUse" gradientTransform="translate(90.3865 76.6722) rotate(-30.7631) scale(54.1772 50.8357)">
<stop stop-color="#00862D"/>
<stop offset="0.627261" stop-color="#0033CC"/>
</radialGradient>
<linearGradient id="paint2_linear_3227_1820" x1="147.94" y1="141.866" x2="82.5658" y2="38.9598" gradientUnits="userSpaceOnUse">
<stop offset="0.291277" stop-color="#C8FC36"/>
<stop offset="0.867194" stop-color="#0E9C47"/>
</linearGradient>
<radialGradient id="paint3_radial_3227_1820" cx="0" cy="0" r="1" gradientUnits="userSpaceOnUse" gradientTransform="translate(79.2232 114.954) rotate(-24.7888) scale(115.69 94.0133)">
<stop stop-color="#00862D"/>
<stop offset="0.627261" stop-color="#0033CC"/>
</radialGradient>
<clipPath id="clip0_3227_1820">
<rect width="200" height="180" fill="white"/>
</clipPath>
</defs>
</svg>
