<svg width="184" height="214" viewBox="0 0 184 214" fill="none" xmlns="http://www.w3.org/2000/svg">
<g clip-path="url(#clip0_3229_1805)">
<g filter="url(#filter0_d_3229_1805)">
<path d="M93.0964 42.7562C112.014 29.51 138.177 41.71 140.19 64.7161L146.832 140.636C148.844 163.642 125.198 180.2 104.267 170.44L35.1974 138.232C14.2671 128.472 11.7511 99.7148 30.6686 86.4686L93.0964 42.7562Z" fill="white"/>
</g>
<path d="M75.085 73.191C71.753 73.9083 68.812 76.1399 67.843 78.6636C67.656 79.1817 67.571 79.2481 66.772 79.4473C64.426 80.0318 62.097 81.6124 60.992 83.3791C60.04 84.88 59.87 85.7567 59.87 89.29V92.3849H63.44H67.01V104.804V117.224H62.505H58V119.349V121.475H62.845H67.69V122.125C67.69 123.892 69.475 125.194 71.923 125.194C73.249 125.194 74.201 124.875 75.068 124.131C75.663 123.613 76.19 122.55 76.19 121.846V121.475H78.638H81.086L81.154 122.258C81.307 123.905 82.871 125.074 85.03 125.167C85.676 125.194 86.475 125.154 86.815 125.061C88.243 124.689 89.62 123.215 89.62 122.032V121.475H92.085H94.55V122.032C94.55 123.215 95.927 124.689 97.355 125.061C97.695 125.154 98.494 125.194 99.14 125.167C101.299 125.074 102.863 123.905 103.016 122.258L103.084 121.475H105.532H107.98V121.846C107.98 123.069 109.034 124.397 110.428 124.915C111.839 125.459 114.117 125.194 115.256 124.357C115.936 123.866 116.48 122.883 116.48 122.139V121.475H121.24H126V119.349V117.224H121.665H117.33V104.804V92.3849H120.645H123.96V89.29C123.96 85.7567 123.79 84.88 122.838 83.3791C121.733 81.6124 119.404 80.0318 117.058 79.4473C116.259 79.2481 116.174 79.1817 115.987 78.6636C115.256 76.7376 113.114 74.7451 110.87 73.8685C108.473 72.9519 109.425 72.9918 91.83 73.0051C78.995 73.0184 75.765 73.0449 75.085 73.191ZM94.55 79.9653V81.8914H92H89.45V79.9653V78.0393H92H94.55V79.9653ZM85.37 85.7434V87.603H82.905H80.44V85.7434V83.8838H82.905H85.37V85.7434ZM103.56 85.7434V87.603H101.095H98.63V85.7434V83.8838H101.095H103.56V85.7434ZM112.06 104.804V117.224H92.17H72.28V104.804V92.3849H92.17H112.06V104.804Z" fill="white"/>
<path d="M75.085 73.191C71.753 73.9083 68.812 76.1399 67.843 78.6636C67.656 79.1817 67.571 79.2481 66.772 79.4473C64.426 80.0318 62.097 81.6124 60.992 83.3791C60.04 84.88 59.87 85.7567 59.87 89.29V92.3849H63.44H67.01V104.804V117.224H62.505H58V119.349V121.475H62.845H67.69V122.125C67.69 123.892 69.475 125.194 71.923 125.194C73.249 125.194 74.201 124.875 75.068 124.131C75.663 123.613 76.19 122.55 76.19 121.846V121.475H78.638H81.086L81.154 122.258C81.307 123.905 82.871 125.074 85.03 125.167C85.676 125.194 86.475 125.154 86.815 125.061C88.243 124.689 89.62 123.215 89.62 122.032V121.475H92.085H94.55V122.032C94.55 123.215 95.927 124.689 97.355 125.061C97.695 125.154 98.494 125.194 99.14 125.167C101.299 125.074 102.863 123.905 103.016 122.258L103.084 121.475H105.532H107.98V121.846C107.98 123.069 109.034 124.397 110.428 124.915C111.839 125.459 114.117 125.194 115.256 124.357C115.936 123.866 116.48 122.883 116.48 122.139V121.475H121.24H126V119.349V117.224H121.665H117.33V104.804V92.3849H120.645H123.96V89.29C123.96 85.7567 123.79 84.88 122.838 83.3791C121.733 81.6124 119.404 80.0318 117.058 79.4473C116.259 79.2481 116.174 79.1817 115.987 78.6636C115.256 76.7376 113.114 74.7451 110.87 73.8685C108.473 72.9519 109.425 72.9918 91.83 73.0051C78.995 73.0184 75.765 73.0449 75.085 73.191ZM94.55 79.9653V81.8914H92H89.45V79.9653V78.0393H92H94.55V79.9653ZM85.37 85.7434V87.603H82.905H80.44V85.7434V83.8838H82.905H85.37V85.7434ZM103.56 85.7434V87.603H101.095H98.63V85.7434V83.8838H101.095H103.56V85.7434ZM112.06 104.804V117.224H92.17H72.28V104.804V92.3849H92.17H112.06V104.804Z" fill="url(#paint0_linear_3229_1805)"/>
<path d="M75.085 73.191C71.753 73.9083 68.812 76.1399 67.843 78.6636C67.656 79.1817 67.571 79.2481 66.772 79.4473C64.426 80.0318 62.097 81.6124 60.992 83.3791C60.04 84.88 59.87 85.7567 59.87 89.29V92.3849H63.44H67.01V104.804V117.224H62.505H58V119.349V121.475H62.845H67.69V122.125C67.69 123.892 69.475 125.194 71.923 125.194C73.249 125.194 74.201 124.875 75.068 124.131C75.663 123.613 76.19 122.55 76.19 121.846V121.475H78.638H81.086L81.154 122.258C81.307 123.905 82.871 125.074 85.03 125.167C85.676 125.194 86.475 125.154 86.815 125.061C88.243 124.689 89.62 123.215 89.62 122.032V121.475H92.085H94.55V122.032C94.55 123.215 95.927 124.689 97.355 125.061C97.695 125.154 98.494 125.194 99.14 125.167C101.299 125.074 102.863 123.905 103.016 122.258L103.084 121.475H105.532H107.98V121.846C107.98 123.069 109.034 124.397 110.428 124.915C111.839 125.459 114.117 125.194 115.256 124.357C115.936 123.866 116.48 122.883 116.48 122.139V121.475H121.24H126V119.349V117.224H121.665H117.33V104.804V92.3849H120.645H123.96V89.29C123.96 85.7567 123.79 84.88 122.838 83.3791C121.733 81.6124 119.404 80.0318 117.058 79.4473C116.259 79.2481 116.174 79.1817 115.987 78.6636C115.256 76.7376 113.114 74.7451 110.87 73.8685C108.473 72.9519 109.425 72.9918 91.83 73.0051C78.995 73.0184 75.765 73.0449 75.085 73.191ZM94.55 79.9653V81.8914H92H89.45V79.9653V78.0393H92H94.55V79.9653ZM85.37 85.7434V87.603H82.905H80.44V85.7434V83.8838H82.905H85.37V85.7434ZM103.56 85.7434V87.603H101.095H98.63V85.7434V83.8838H101.095H103.56V85.7434ZM112.06 104.804V117.224H92.17H72.28V104.804V92.3849H92.17H112.06V104.804Z" fill="url(#paint1_radial_3229_1805)"/>
<path d="M90.3848 96.5549C86.5598 97.2987 84.3668 100.301 85.5058 103.223C85.9138 104.259 86.8148 105.268 87.8688 105.866C88.2598 106.079 88.5828 106.291 88.5828 106.331C88.5998 106.371 88.1918 106.477 87.6818 106.557C84.6388 107.062 81.2218 108.842 79.3348 110.9C78.6718 111.631 77.5498 113.212 77.5498 113.424C77.5498 113.464 84.0098 113.504 91.9148 113.504C99.8198 113.504 106.28 113.464 106.28 113.424C106.28 113.371 106.042 112.973 105.753 112.521C103.849 109.585 100.33 107.354 96.4538 106.623C95.7908 106.504 95.2298 106.371 95.2468 106.331C95.2468 106.291 95.5698 106.079 95.9608 105.866C99.2418 103.993 99.5308 100.008 96.5218 97.8566C94.7368 96.5814 92.5778 96.1298 90.3848 96.5549Z" fill="white"/>
<path d="M90.3848 96.5549C86.5598 97.2987 84.3668 100.301 85.5058 103.223C85.9138 104.259 86.8148 105.268 87.8688 105.866C88.2598 106.079 88.5828 106.291 88.5828 106.331C88.5998 106.371 88.1918 106.477 87.6818 106.557C84.6388 107.062 81.2218 108.842 79.3348 110.9C78.6718 111.631 77.5498 113.212 77.5498 113.424C77.5498 113.464 84.0098 113.504 91.9148 113.504C99.8198 113.504 106.28 113.464 106.28 113.424C106.28 113.371 106.042 112.973 105.753 112.521C103.849 109.585 100.33 107.354 96.4538 106.623C95.7908 106.504 95.2298 106.371 95.2468 106.331C95.2468 106.291 95.5698 106.079 95.9608 105.866C99.2418 103.993 99.5308 100.008 96.5218 97.8566C94.7368 96.5814 92.5778 96.1298 90.3848 96.5549Z" fill="url(#paint2_linear_3229_1805)"/>
<path d="M90.3848 96.5549C86.5598 97.2987 84.3668 100.301 85.5058 103.223C85.9138 104.259 86.8148 105.268 87.8688 105.866C88.2598 106.079 88.5828 106.291 88.5828 106.331C88.5998 106.371 88.1918 106.477 87.6818 106.557C84.6388 107.062 81.2218 108.842 79.3348 110.9C78.6718 111.631 77.5498 113.212 77.5498 113.424C77.5498 113.464 84.0098 113.504 91.9148 113.504C99.8198 113.504 106.28 113.464 106.28 113.424C106.28 113.371 106.042 112.973 105.753 112.521C103.849 109.585 100.33 107.354 96.4538 106.623C95.7908 106.504 95.2298 106.371 95.2468 106.331C95.2468 106.291 95.5698 106.079 95.9608 105.866C99.2418 103.993 99.5308 100.008 96.5218 97.8566C94.7368 96.5814 92.5778 96.1298 90.3848 96.5549Z" fill="url(#paint3_radial_3229_1805)"/>
<path d="M121.342 123.227C121.291 123.32 121.138 123.745 120.968 124.184C120.577 125.22 119.659 126.296 118.384 127.212C116.65 128.461 114.729 129.045 112.315 129.045C110.071 129.045 108.15 128.501 106.399 127.385L105.481 126.801L104.988 127.186C103.526 128.315 101.095 129.045 98.8169 129.045C96.5389 129.045 94.5329 128.474 92.8499 127.332L92.1019 126.827L91.1839 127.412C89.3989 128.541 87.6309 129.045 85.3699 129.045C83.1089 129.045 81.0009 128.434 79.4199 127.345L78.6549 126.827L77.7709 127.398C76.0199 128.501 74.0989 129.045 71.8549 129.045C69.3729 129.045 67.2819 128.394 65.4119 127.053C64.3239 126.256 63.2359 125.06 62.9129 124.29C62.8109 124.024 62.6579 123.745 62.5729 123.679C62.4879 123.599 62.4199 127.252 62.4199 132.273V141H91.9999H121.58V132.034C121.58 127.106 121.546 123.068 121.495 123.068C121.444 123.068 121.376 123.148 121.342 123.227Z" fill="white"/>
<path d="M121.342 123.227C121.291 123.32 121.138 123.745 120.968 124.184C120.577 125.22 119.659 126.296 118.384 127.212C116.65 128.461 114.729 129.045 112.315 129.045C110.071 129.045 108.15 128.501 106.399 127.385L105.481 126.801L104.988 127.186C103.526 128.315 101.095 129.045 98.8169 129.045C96.5389 129.045 94.5329 128.474 92.8499 127.332L92.1019 126.827L91.1839 127.412C89.3989 128.541 87.6309 129.045 85.3699 129.045C83.1089 129.045 81.0009 128.434 79.4199 127.345L78.6549 126.827L77.7709 127.398C76.0199 128.501 74.0989 129.045 71.8549 129.045C69.3729 129.045 67.2819 128.394 65.4119 127.053C64.3239 126.256 63.2359 125.06 62.9129 124.29C62.8109 124.024 62.6579 123.745 62.5729 123.679C62.4879 123.599 62.4199 127.252 62.4199 132.273V141H91.9999H121.58V132.034C121.58 127.106 121.546 123.068 121.495 123.068C121.444 123.068 121.376 123.148 121.342 123.227Z" fill="url(#paint4_linear_3229_1805)"/>
<path d="M121.342 123.227C121.291 123.32 121.138 123.745 120.968 124.184C120.577 125.22 119.659 126.296 118.384 127.212C116.65 128.461 114.729 129.045 112.315 129.045C110.071 129.045 108.15 128.501 106.399 127.385L105.481 126.801L104.988 127.186C103.526 128.315 101.095 129.045 98.8169 129.045C96.5389 129.045 94.5329 128.474 92.8499 127.332L92.1019 126.827L91.1839 127.412C89.3989 128.541 87.6309 129.045 85.3699 129.045C83.1089 129.045 81.0009 128.434 79.4199 127.345L78.6549 126.827L77.7709 127.398C76.0199 128.501 74.0989 129.045 71.8549 129.045C69.3729 129.045 67.2819 128.394 65.4119 127.053C64.3239 126.256 63.2359 125.06 62.9129 124.29C62.8109 124.024 62.6579 123.745 62.5729 123.679C62.4879 123.599 62.4199 127.252 62.4199 132.273V141H91.9999H121.58V132.034C121.58 127.106 121.546 123.068 121.495 123.068C121.444 123.068 121.376 123.148 121.342 123.227Z" fill="url(#paint5_radial_3229_1805)"/>
</g>
<defs>
<filter id="filter0_d_3229_1805" x="-2.12646" y="17.293" width="169.078" height="176.004" filterUnits="userSpaceOnUse" color-interpolation-filters="sRGB">
<feFlood flood-opacity="0" result="BackgroundImageFix"/>
<feColorMatrix in="SourceAlpha" type="matrix" values="0 0 0 0 0 0 0 0 0 0 0 0 0 0 0 0 0 0 127 0" result="hardAlpha"/>
<feOffset/>
<feGaussianBlur stdDeviation="10"/>
<feComposite in2="hardAlpha" operator="out"/>
<feColorMatrix type="matrix" values="0 0 0 0 0 0 0 0 0 0 0 0 0 0 0 0 0 0 0.2 0"/>
<feBlend mode="normal" in2="BackgroundImageFix" result="effect1_dropShadow_3229_1805"/>
<feBlend mode="normal" in="SourceGraphic" in2="effect1_dropShadow_3229_1805" result="shape"/>
</filter>
<linearGradient id="paint0_linear_3229_1805" x1="139.94" y1="145.818" x2="60.4553" y2="37.4027" gradientUnits="userSpaceOnUse">
<stop offset="0.291277" stop-color="#C8FC36"/>
<stop offset="0.867194" stop-color="#0E9C47"/>
</linearGradient>
<radialGradient id="paint1_radial_3229_1805" cx="0" cy="0" r="1" gradientUnits="userSpaceOnUse" gradientTransform="translate(71.2232 114.76) rotate(-28.0567) scale(119.017 105.464)">
<stop stop-color="#00862D"/>
<stop offset="0.627261" stop-color="#0033CC"/>
</radialGradient>
<linearGradient id="paint2_linear_3229_1805" x1="112.169" y1="120.26" x2="88.6998" y2="78.9847" gradientUnits="userSpaceOnUse">
<stop offset="0.291277" stop-color="#C8FC36"/>
<stop offset="0.867194" stop-color="#0E9C47"/>
</linearGradient>
<radialGradient id="paint3_radial_3229_1805" cx="0" cy="0" r="1" gradientUnits="userSpaceOnUse" gradientTransform="translate(83.1366 110.083) rotate(-22.4584) scale(48.017 36.1905)">
<stop stop-color="#00862D"/>
<stop offset="0.627261" stop-color="#0033CC"/>
</radialGradient>
<linearGradient id="paint4_linear_3229_1805" x1="133.708" y1="148.083" x2="118.412" y2="95.2478" gradientUnits="userSpaceOnUse">
<stop offset="0.291277" stop-color="#C8FC36"/>
<stop offset="0.867194" stop-color="#0E9C47"/>
</linearGradient>
<radialGradient id="paint5_radial_3229_1805" cx="0" cy="0" r="1" gradientUnits="userSpaceOnUse" gradientTransform="translate(73.9241 137.414) rotate(-11.8848) scale(93.378 40.1753)">
<stop stop-color="#00862D"/>
<stop offset="0.627261" stop-color="#0033CC"/>
</radialGradient>
<clipPath id="clip0_3229_1805">
<rect width="184" height="214" fill="white"/>
</clipPath>
</defs>
</svg>
