<svg width="188" height="186" viewBox="0 0 188 186" fill="none" xmlns="http://www.w3.org/2000/svg">
<g clip-path="url(#clip0_3229_1813)">
<g filter="url(#filter0_d_3229_1813)">
<path d="M95.0964 28.7562C114.014 15.51 140.177 27.71 142.19 50.7161L148.832 126.636C150.844 149.642 127.198 166.2 106.267 156.44L37.1974 124.232C16.2671 114.472 13.7511 85.7148 32.6686 72.4686L95.0964 28.7562Z" fill="white"/>
</g>
<path d="M67.0973 59.08C63.7693 59.7313 61.4252 62.8548 62.004 65.8721C62.9445 70.7901 69.369 72.6111 73.1456 69.0356C74.9977 67.2677 75.4318 64.3967 74.173 62.1371C73.5074 60.9541 71.8433 59.6648 70.4398 59.266C69.5571 59.0135 67.9076 58.9205 67.0973 59.08Z" fill="white"/>
<path d="M67.0973 59.08C63.7693 59.7313 61.4252 62.8548 62.004 65.8721C62.9445 70.7901 69.369 72.6111 73.1456 69.0356C74.9977 67.2677 75.4318 64.3967 74.173 62.1371C73.5074 60.9541 71.8433 59.6648 70.4398 59.266C69.5571 59.0135 67.9076 58.9205 67.0973 59.08Z" fill="url(#paint0_linear_3229_1813)"/>
<path d="M67.0973 59.08C63.7693 59.7313 61.4252 62.8548 62.004 65.8721C62.9445 70.7901 69.369 72.6111 73.1456 69.0356C74.9977 67.2677 75.4318 64.3967 74.173 62.1371C73.5074 60.9541 71.8433 59.6648 70.4398 59.266C69.5571 59.0135 67.9076 58.9205 67.0973 59.08Z" fill="url(#paint1_radial_3229_1813)"/>
<path d="M84.808 70.4432L80.3224 70.6293L76.0249 71.8256L71.7274 73.0351H67.6759C63.9861 73.0351 63.552 73.0617 62.843 73.301C61.8735 73.6333 60.933 74.4573 60.441 75.4144L60.0648 76.1587L60.0214 100.15C59.978 127.04 59.8912 124.74 61.0343 125.897C61.6854 126.521 62.843 127 63.7546 127C64.7096 127 65.8527 126.521 66.4894 125.857C67.5601 124.727 67.5167 125.312 67.5167 113.176C67.5167 107.208 67.5601 101.32 67.618 100.111L67.7048 97.8909H68.4717H69.2531L69.282 111.209C69.3254 123.916 69.3399 124.568 69.6003 125.006C70.2659 126.163 71.6984 127 73.0152 127C74.3319 127 75.7644 126.163 76.43 125.006C76.6905 124.568 76.705 123.863 76.7484 109.043L76.7773 93.5311L73.7821 92.4412C72.1181 91.8298 70.4685 91.1918 70.1068 91.0323C69.3978 90.7133 68.7322 90.0886 68.5151 89.5436C68.327 89.105 66.0697 79.907 66.1276 79.8538C66.1565 79.8273 67.3431 81.6748 68.7611 83.9477C70.7868 87.1909 71.4669 88.1745 71.8865 88.4537C72.1759 88.653 74.8094 89.7031 77.7468 90.793C82.898 92.707 83.1006 92.7735 84.0121 92.7336C84.5331 92.7203 88.0203 92.6672 91.7534 92.6007C97.9031 92.521 98.5831 92.4811 98.9304 92.2684C99.625 91.8431 99.8275 90.9924 99.4079 90.3278C98.9304 89.5835 99.0028 89.5835 92.8821 89.517L87.21 89.4505L86.8048 88.7195C86.5443 88.2543 86.1971 87.8688 85.8643 87.6694C85.5604 87.4966 83.2163 86.5662 80.6552 85.6092L75.9815 83.868L74.057 80.8108C71.2065 76.265 71.3078 76.5043 72.7258 77.6873C73.3769 78.2322 74.549 79.2025 75.3159 79.8405L76.705 80.9969L76.7773 79.3222L76.8497 77.6607L79.1359 77.0227L81.4221 76.3714L87.673 76.1587C94.6618 75.9194 94.6474 75.9194 95.6168 74.9226C96.8757 73.6465 96.6153 71.7325 95.0381 70.709L94.4014 70.3103L91.8547 70.297C90.4512 70.2837 87.2823 70.3502 84.808 70.4432Z" fill="white"/>
<path d="M84.808 70.4432L80.3224 70.6293L76.0249 71.8256L71.7274 73.0351H67.6759C63.9861 73.0351 63.552 73.0617 62.843 73.301C61.8735 73.6333 60.933 74.4573 60.441 75.4144L60.0648 76.1587L60.0214 100.15C59.978 127.04 59.8912 124.74 61.0343 125.897C61.6854 126.521 62.843 127 63.7546 127C64.7096 127 65.8527 126.521 66.4894 125.857C67.5601 124.727 67.5167 125.312 67.5167 113.176C67.5167 107.208 67.5601 101.32 67.618 100.111L67.7048 97.8909H68.4717H69.2531L69.282 111.209C69.3254 123.916 69.3399 124.568 69.6003 125.006C70.2659 126.163 71.6984 127 73.0152 127C74.3319 127 75.7644 126.163 76.43 125.006C76.6905 124.568 76.705 123.863 76.7484 109.043L76.7773 93.5311L73.7821 92.4412C72.1181 91.8298 70.4685 91.1918 70.1068 91.0323C69.3978 90.7133 68.7322 90.0886 68.5151 89.5436C68.327 89.105 66.0697 79.907 66.1276 79.8538C66.1565 79.8273 67.3431 81.6748 68.7611 83.9477C70.7868 87.1909 71.4669 88.1745 71.8865 88.4537C72.1759 88.653 74.8094 89.7031 77.7468 90.793C82.898 92.707 83.1006 92.7735 84.0121 92.7336C84.5331 92.7203 88.0203 92.6672 91.7534 92.6007C97.9031 92.521 98.5831 92.4811 98.9304 92.2684C99.625 91.8431 99.8275 90.9924 99.4079 90.3278C98.9304 89.5835 99.0028 89.5835 92.8821 89.517L87.21 89.4505L86.8048 88.7195C86.5443 88.2543 86.1971 87.8688 85.8643 87.6694C85.5604 87.4966 83.2163 86.5662 80.6552 85.6092L75.9815 83.868L74.057 80.8108C71.2065 76.265 71.3078 76.5043 72.7258 77.6873C73.3769 78.2322 74.549 79.2025 75.3159 79.8405L76.705 80.9969L76.7773 79.3222L76.8497 77.6607L79.1359 77.0227L81.4221 76.3714L87.673 76.1587C94.6618 75.9194 94.6474 75.9194 95.6168 74.9226C96.8757 73.6465 96.6153 71.7325 95.0381 70.709L94.4014 70.3103L91.8547 70.297C90.4512 70.2837 87.2823 70.3502 84.808 70.4432Z" fill="url(#paint2_linear_3229_1813)"/>
<path d="M84.808 70.4432L80.3224 70.6293L76.0249 71.8256L71.7274 73.0351H67.6759C63.9861 73.0351 63.552 73.0617 62.843 73.301C61.8735 73.6333 60.933 74.4573 60.441 75.4144L60.0648 76.1587L60.0214 100.15C59.978 127.04 59.8912 124.74 61.0343 125.897C61.6854 126.521 62.843 127 63.7546 127C64.7096 127 65.8527 126.521 66.4894 125.857C67.5601 124.727 67.5167 125.312 67.5167 113.176C67.5167 107.208 67.5601 101.32 67.618 100.111L67.7048 97.8909H68.4717H69.2531L69.282 111.209C69.3254 123.916 69.3399 124.568 69.6003 125.006C70.2659 126.163 71.6984 127 73.0152 127C74.3319 127 75.7644 126.163 76.43 125.006C76.6905 124.568 76.705 123.863 76.7484 109.043L76.7773 93.5311L73.7821 92.4412C72.1181 91.8298 70.4685 91.1918 70.1068 91.0323C69.3978 90.7133 68.7322 90.0886 68.5151 89.5436C68.327 89.105 66.0697 79.907 66.1276 79.8538C66.1565 79.8273 67.3431 81.6748 68.7611 83.9477C70.7868 87.1909 71.4669 88.1745 71.8865 88.4537C72.1759 88.653 74.8094 89.7031 77.7468 90.793C82.898 92.707 83.1006 92.7735 84.0121 92.7336C84.5331 92.7203 88.0203 92.6672 91.7534 92.6007C97.9031 92.521 98.5831 92.4811 98.9304 92.2684C99.625 91.8431 99.8275 90.9924 99.4079 90.3278C98.9304 89.5835 99.0028 89.5835 92.8821 89.517L87.21 89.4505L86.8048 88.7195C86.5443 88.2543 86.1971 87.8688 85.8643 87.6694C85.5604 87.4966 83.2163 86.5662 80.6552 85.6092L75.9815 83.868L74.057 80.8108C71.2065 76.265 71.3078 76.5043 72.7258 77.6873C73.3769 78.2322 74.549 79.2025 75.3159 79.8405L76.705 80.9969L76.7773 79.3222L76.8497 77.6607L79.1359 77.0227L81.4221 76.3714L87.673 76.1587C94.6618 75.9194 94.6474 75.9194 95.6168 74.9226C96.8757 73.6465 96.6153 71.7325 95.0381 70.709L94.4014 70.3103L91.8547 70.297C90.4512 70.2837 87.2823 70.3502 84.808 70.4432Z" fill="url(#paint3_radial_3229_1813)"/>
<path d="M99.1764 73.5538C99.0462 75.6672 97.5558 77.4616 95.2986 78.2591C94.6185 78.4983 92.4914 78.6578 87.456 78.8306L84.8804 78.9104V81.489C84.8804 83.8284 84.9093 84.0809 85.1408 84.1607C86.0524 84.4531 87.6296 85.2107 88.1505 85.5962C88.4978 85.862 88.9753 86.3671 89.2357 86.726L89.6988 87.3773L94.4882 87.4172C99.0751 87.457 99.3067 87.4703 99.8565 87.7495C100.594 88.1083 101.26 88.7596 101.68 89.5173C102.085 90.235 102.143 91.6971 101.781 92.4548C101.463 93.1194 100.58 93.9966 99.871 94.3422C99.2922 94.6213 99.0896 94.6346 93.4175 94.7011C87.7164 94.7675 87.5428 94.7808 87.0508 95.06C86.7759 95.2195 86.1682 95.4454 85.7196 95.5651L84.8804 95.7777V99.3399C84.8804 101.533 84.9382 103.062 85.0395 103.314C85.1264 103.54 85.3723 103.833 85.5749 103.966C85.9367 104.191 86.472 104.205 92.8821 104.245L99.7986 104.285L94.3725 114.187C89.3804 123.279 88.9319 124.143 88.9319 124.754C88.9319 125.565 89.2068 126.07 89.8724 126.535C90.784 127.186 92.1007 127.107 92.9111 126.362C93.1426 126.163 95.8918 121.258 99.2198 115.131L105.138 104.271H106.44H107.742L113.661 115.144C119.984 126.748 119.984 126.748 121.127 126.947C121.966 127.08 122.646 126.894 123.24 126.349C123.833 125.804 124.166 124.967 124.006 124.382C123.949 124.182 121.503 119.597 118.58 114.214C115.643 108.817 113.241 104.378 113.241 104.338C113.241 104.298 116.236 104.271 119.897 104.271C127.219 104.271 127.334 104.258 127.769 103.487C127.971 103.128 128 101.453 128 88.2413V73.4076L127.508 72.9556L127.016 72.5037H113.125H99.2488L99.1764 73.5538ZM98.5253 80.0934C98.6989 80.1864 99.8276 80.8111 101.029 81.489C102.244 82.1802 103.286 82.7384 103.373 82.7384C103.445 82.7384 105.008 82.3796 106.816 81.9276C109.189 81.3428 110.289 81.1434 110.709 81.1833C111.143 81.2232 112.3 81.8213 115.267 83.5226C117.452 84.7721 119.434 85.9816 119.68 86.1943C120.809 87.2311 119.535 89.0255 118.03 88.4938C117.799 88.4273 115.99 87.4172 113.979 86.2741C111.982 85.131 110.275 84.2005 110.202 84.2005C110.13 84.2005 108.553 84.5594 106.701 85.0113C104.386 85.5696 103.185 85.8088 102.823 85.7557C102.49 85.7158 101.535 85.2506 100.305 84.5461C99.2054 83.9214 98.1925 83.3366 98.0478 83.2701C97.8163 83.1638 97.3243 83.3631 95.4143 84.3467C92.2889 85.9683 92.0718 86.0481 91.4207 85.9152C90.6682 85.769 90.2342 85.2639 90.2342 84.5328C90.2342 84.1208 90.321 83.8549 90.567 83.6157C91.03 83.1239 97.3098 79.9471 97.8018 79.9471C98.0333 79.9471 98.3517 80.0136 98.5253 80.0934ZM114.109 95.8841C116.772 96.1632 119.13 96.4689 119.347 96.5354C120.563 96.9873 120.49 98.6886 119.246 99.1671C118.797 99.3266 118.247 99.3001 113.646 98.8083L108.538 98.2633L100.334 99.3532C92.694 100.35 92.1007 100.417 91.6232 100.23C91.0879 100.031 90.6682 99.4463 90.6682 98.9279C90.6682 98.5158 91.1747 97.7848 91.5798 97.612C92.0429 97.4259 107.294 95.3923 108.394 95.379C108.871 95.379 111.447 95.6049 114.109 95.8841Z" fill="white"/>
<path d="M99.1764 73.5538C99.0462 75.6672 97.5558 77.4616 95.2986 78.2591C94.6185 78.4983 92.4914 78.6578 87.456 78.8306L84.8804 78.9104V81.489C84.8804 83.8284 84.9093 84.0809 85.1408 84.1607C86.0524 84.4531 87.6296 85.2107 88.1505 85.5962C88.4978 85.862 88.9753 86.3671 89.2357 86.726L89.6988 87.3773L94.4882 87.4172C99.0751 87.457 99.3067 87.4703 99.8565 87.7495C100.594 88.1083 101.26 88.7596 101.68 89.5173C102.085 90.235 102.143 91.6971 101.781 92.4548C101.463 93.1194 100.58 93.9966 99.871 94.3422C99.2922 94.6213 99.0896 94.6346 93.4175 94.7011C87.7164 94.7675 87.5428 94.7808 87.0508 95.06C86.7759 95.2195 86.1682 95.4454 85.7196 95.5651L84.8804 95.7777V99.3399C84.8804 101.533 84.9382 103.062 85.0395 103.314C85.1264 103.54 85.3723 103.833 85.5749 103.966C85.9367 104.191 86.472 104.205 92.8821 104.245L99.7986 104.285L94.3725 114.187C89.3804 123.279 88.9319 124.143 88.9319 124.754C88.9319 125.565 89.2068 126.07 89.8724 126.535C90.784 127.186 92.1007 127.107 92.9111 126.362C93.1426 126.163 95.8918 121.258 99.2198 115.131L105.138 104.271H106.44H107.742L113.661 115.144C119.984 126.748 119.984 126.748 121.127 126.947C121.966 127.08 122.646 126.894 123.24 126.349C123.833 125.804 124.166 124.967 124.006 124.382C123.949 124.182 121.503 119.597 118.58 114.214C115.643 108.817 113.241 104.378 113.241 104.338C113.241 104.298 116.236 104.271 119.897 104.271C127.219 104.271 127.334 104.258 127.769 103.487C127.971 103.128 128 101.453 128 88.2413V73.4076L127.508 72.9556L127.016 72.5037H113.125H99.2488L99.1764 73.5538ZM98.5253 80.0934C98.6989 80.1864 99.8276 80.8111 101.029 81.489C102.244 82.1802 103.286 82.7384 103.373 82.7384C103.445 82.7384 105.008 82.3796 106.816 81.9276C109.189 81.3428 110.289 81.1434 110.709 81.1833C111.143 81.2232 112.3 81.8213 115.267 83.5226C117.452 84.7721 119.434 85.9816 119.68 86.1943C120.809 87.2311 119.535 89.0255 118.03 88.4938C117.799 88.4273 115.99 87.4172 113.979 86.2741C111.982 85.131 110.275 84.2005 110.202 84.2005C110.13 84.2005 108.553 84.5594 106.701 85.0113C104.386 85.5696 103.185 85.8088 102.823 85.7557C102.49 85.7158 101.535 85.2506 100.305 84.5461C99.2054 83.9214 98.1925 83.3366 98.0478 83.2701C97.8163 83.1638 97.3243 83.3631 95.4143 84.3467C92.2889 85.9683 92.0718 86.0481 91.4207 85.9152C90.6682 85.769 90.2342 85.2639 90.2342 84.5328C90.2342 84.1208 90.321 83.8549 90.567 83.6157C91.03 83.1239 97.3098 79.9471 97.8018 79.9471C98.0333 79.9471 98.3517 80.0136 98.5253 80.0934ZM114.109 95.8841C116.772 96.1632 119.13 96.4689 119.347 96.5354C120.563 96.9873 120.49 98.6886 119.246 99.1671C118.797 99.3266 118.247 99.3001 113.646 98.8083L108.538 98.2633L100.334 99.3532C92.694 100.35 92.1007 100.417 91.6232 100.23C91.0879 100.031 90.6682 99.4463 90.6682 98.9279C90.6682 98.5158 91.1747 97.7848 91.5798 97.612C92.0429 97.4259 107.294 95.3923 108.394 95.379C108.871 95.379 111.447 95.6049 114.109 95.8841Z" fill="url(#paint4_linear_3229_1813)"/>
<path d="M99.1764 73.5538C99.0462 75.6672 97.5558 77.4616 95.2986 78.2591C94.6185 78.4983 92.4914 78.6578 87.456 78.8306L84.8804 78.9104V81.489C84.8804 83.8284 84.9093 84.0809 85.1408 84.1607C86.0524 84.4531 87.6296 85.2107 88.1505 85.5962C88.4978 85.862 88.9753 86.3671 89.2357 86.726L89.6988 87.3773L94.4882 87.4172C99.0751 87.457 99.3067 87.4703 99.8565 87.7495C100.594 88.1083 101.26 88.7596 101.68 89.5173C102.085 90.235 102.143 91.6971 101.781 92.4548C101.463 93.1194 100.58 93.9966 99.871 94.3422C99.2922 94.6213 99.0896 94.6346 93.4175 94.7011C87.7164 94.7675 87.5428 94.7808 87.0508 95.06C86.7759 95.2195 86.1682 95.4454 85.7196 95.5651L84.8804 95.7777V99.3399C84.8804 101.533 84.9382 103.062 85.0395 103.314C85.1264 103.54 85.3723 103.833 85.5749 103.966C85.9367 104.191 86.472 104.205 92.8821 104.245L99.7986 104.285L94.3725 114.187C89.3804 123.279 88.9319 124.143 88.9319 124.754C88.9319 125.565 89.2068 126.07 89.8724 126.535C90.784 127.186 92.1007 127.107 92.9111 126.362C93.1426 126.163 95.8918 121.258 99.2198 115.131L105.138 104.271H106.44H107.742L113.661 115.144C119.984 126.748 119.984 126.748 121.127 126.947C121.966 127.08 122.646 126.894 123.24 126.349C123.833 125.804 124.166 124.967 124.006 124.382C123.949 124.182 121.503 119.597 118.58 114.214C115.643 108.817 113.241 104.378 113.241 104.338C113.241 104.298 116.236 104.271 119.897 104.271C127.219 104.271 127.334 104.258 127.769 103.487C127.971 103.128 128 101.453 128 88.2413V73.4076L127.508 72.9556L127.016 72.5037H113.125H99.2488L99.1764 73.5538ZM98.5253 80.0934C98.6989 80.1864 99.8276 80.8111 101.029 81.489C102.244 82.1802 103.286 82.7384 103.373 82.7384C103.445 82.7384 105.008 82.3796 106.816 81.9276C109.189 81.3428 110.289 81.1434 110.709 81.1833C111.143 81.2232 112.3 81.8213 115.267 83.5226C117.452 84.7721 119.434 85.9816 119.68 86.1943C120.809 87.2311 119.535 89.0255 118.03 88.4938C117.799 88.4273 115.99 87.4172 113.979 86.2741C111.982 85.131 110.275 84.2005 110.202 84.2005C110.13 84.2005 108.553 84.5594 106.701 85.0113C104.386 85.5696 103.185 85.8088 102.823 85.7557C102.49 85.7158 101.535 85.2506 100.305 84.5461C99.2054 83.9214 98.1925 83.3366 98.0478 83.2701C97.8163 83.1638 97.3243 83.3631 95.4143 84.3467C92.2889 85.9683 92.0718 86.0481 91.4207 85.9152C90.6682 85.769 90.2342 85.2639 90.2342 84.5328C90.2342 84.1208 90.321 83.8549 90.567 83.6157C91.03 83.1239 97.3098 79.9471 97.8018 79.9471C98.0333 79.9471 98.3517 80.0136 98.5253 80.0934ZM114.109 95.8841C116.772 96.1632 119.13 96.4689 119.347 96.5354C120.563 96.9873 120.49 98.6886 119.246 99.1671C118.797 99.3266 118.247 99.3001 113.646 98.8083L108.538 98.2633L100.334 99.3532C92.694 100.35 92.1007 100.417 91.6232 100.23C91.0879 100.031 90.6682 99.4463 90.6682 98.9279C90.6682 98.5158 91.1747 97.7848 91.5798 97.612C92.0429 97.4259 107.294 95.3923 108.394 95.379C108.871 95.379 111.447 95.6049 114.109 95.8841Z" fill="url(#paint5_radial_3229_1813)"/>
</g>
<defs>
<filter id="filter0_d_3229_1813" x="-0.126465" y="3.29297" width="169.078" height="176.004" filterUnits="userSpaceOnUse" color-interpolation-filters="sRGB">
<feFlood flood-opacity="0" result="BackgroundImageFix"/>
<feColorMatrix in="SourceAlpha" type="matrix" values="0 0 0 0 0 0 0 0 0 0 0 0 0 0 0 0 0 0 127 0" result="hardAlpha"/>
<feOffset/>
<feGaussianBlur stdDeviation="10"/>
<feComposite in2="hardAlpha" operator="out"/>
<feColorMatrix type="matrix" values="0 0 0 0 0 0 0 0 0 0 0 0 0 0 0 0 0 0 0.2 0"/>
<feBlend mode="normal" in2="BackgroundImageFix" result="effect1_dropShadow_3229_1813"/>
<feBlend mode="normal" in="SourceGraphic" in2="effect1_dropShadow_3229_1813" result="shape"/>
</filter>
<linearGradient id="paint0_linear_3229_1813" x1="77.5495" y1="75.6088" x2="58.7051" y2="54.107" gradientUnits="userSpaceOnUse">
<stop offset="0.291277" stop-color="#C8FC36"/>
<stop offset="0.867194" stop-color="#0E9C47"/>
</linearGradient>
<radialGradient id="paint1_radial_3229_1813" cx="0" cy="0" r="1" gradientUnits="userSpaceOnUse" gradientTransform="translate(64.4389 68.5254) rotate(-32.5022) scale(23.7604 22.9875)">
<stop stop-color="#00862D"/>
<stop offset="0.627261" stop-color="#0033CC"/>
</radialGradient>
<linearGradient id="paint2_linear_3229_1813" x1="107.749" y1="149.398" x2="21.4553" y2="86.2608" gradientUnits="userSpaceOnUse">
<stop offset="0.291277" stop-color="#C8FC36"/>
<stop offset="0.867194" stop-color="#0E9C47"/>
</linearGradient>
<radialGradient id="paint3_radial_3229_1813" cx="0" cy="0" r="1" gradientUnits="userSpaceOnUse" gradientTransform="translate(67.7055 115.66) rotate(-44.8156) scale(86.2783 92.0955)">
<stop stop-color="#00862D"/>
<stop offset="0.627261" stop-color="#0033CC"/>
</radialGradient>
<linearGradient id="paint4_linear_3229_1813" x1="136.84" y1="148.51" x2="51.3598" y2="77.679" gradientUnits="userSpaceOnUse">
<stop offset="0.291277" stop-color="#C8FC36"/>
<stop offset="0.867194" stop-color="#0E9C47"/>
</linearGradient>
<radialGradient id="paint5_radial_3229_1813" cx="0" cy="0" r="1" gradientUnits="userSpaceOnUse" gradientTransform="translate(93.2654 116.092) rotate(-41.2611) scale(88.5992 93.7705)">
<stop stop-color="#00862D"/>
<stop offset="0.627261" stop-color="#0033CC"/>
</radialGradient>
<clipPath id="clip0_3229_1813">
<rect width="188" height="186" fill="white"/>
</clipPath>
</defs>
</svg>
