<svg width="184" height="192" viewBox="0 0 184 192" fill="none" xmlns="http://www.w3.org/2000/svg">
<g clip-path="url(#clip0_3227_1808)">
<g filter="url(#filter0_d_3227_1808)">
<path d="M93.0964 31.7562C112.014 18.51 138.177 30.71 140.19 53.7161L146.832 129.636C148.844 152.642 125.198 169.2 104.267 159.44L35.1974 127.232C14.2671 117.472 11.7511 88.7148 30.6686 75.4686L93.0964 31.7562Z" fill="white"/>
</g>
<path d="M108.515 62.1397C101.982 62.7535 96.5603 67.1901 94.7678 73.3428C94.4863 74.3194 94.4419 74.8217 94.4419 76.9842C94.4419 79.7606 94.6345 80.7093 95.5677 82.7881C97.8787 87.8944 103.078 91.4381 108.811 91.8287C112.589 92.0799 115.818 91.3125 118.84 89.4291C123.743 86.3876 126.514 80.9744 125.921 75.5472C125.136 68.376 119.196 62.8093 111.581 62.1257C110.707 62.0559 109.937 62.0001 109.848 62.0001C109.774 62.0141 109.167 62.0699 108.515 62.1397ZM116.662 69.4503C117.136 69.8828 117.151 70.4827 116.692 70.8873C116.351 71.1803 116.248 71.1943 111.018 71.2222L105.7 71.264V76.9842V82.7044L111.018 82.7462C116.248 82.7741 116.351 82.7881 116.692 83.0811C117.151 83.4857 117.136 84.0856 116.662 84.5181L116.307 84.8669H110.204C104.13 84.8669 104.086 84.8669 103.745 84.5599L103.404 84.267V76.9702V69.6735L103.73 69.3806C104.041 69.1155 104.219 69.1015 110.174 69.1015H116.307L116.662 69.4503ZM117.092 73.58C117.388 73.7893 117.477 73.9846 117.477 74.3752C117.477 74.8496 117.285 75.0589 114.544 77.6399C110.9 81.086 111.241 81.0023 109.078 78.9653C107.774 77.7376 107.552 77.4586 107.552 77.0819C107.552 76.4819 107.996 76.0773 108.678 76.0773C109.122 76.0773 109.359 76.2169 110.159 76.9423L111.122 77.8073L113.522 75.5472C116.129 73.1196 116.322 73.008 117.092 73.58Z" fill="url(#paint0_linear_3227_1808)"/>
<path d="M108.515 62.1397C101.982 62.7535 96.5603 67.1901 94.7678 73.3428C94.4863 74.3194 94.4419 74.8217 94.4419 76.9842C94.4419 79.7606 94.6345 80.7093 95.5677 82.7881C97.8787 87.8944 103.078 91.4381 108.811 91.8287C112.589 92.0799 115.818 91.3125 118.84 89.4291C123.743 86.3876 126.514 80.9744 125.921 75.5472C125.136 68.376 119.196 62.8093 111.581 62.1257C110.707 62.0559 109.937 62.0001 109.848 62.0001C109.774 62.0141 109.167 62.0699 108.515 62.1397ZM116.662 69.4503C117.136 69.8828 117.151 70.4827 116.692 70.8873C116.351 71.1803 116.248 71.1943 111.018 71.2222L105.7 71.264V76.9842V82.7044L111.018 82.7462C116.248 82.7741 116.351 82.7881 116.692 83.0811C117.151 83.4857 117.136 84.0856 116.662 84.5181L116.307 84.8669H110.204C104.13 84.8669 104.086 84.8669 103.745 84.5599L103.404 84.267V76.9702V69.6735L103.73 69.3806C104.041 69.1155 104.219 69.1015 110.174 69.1015H116.307L116.662 69.4503ZM117.092 73.58C117.388 73.7893 117.477 73.9846 117.477 74.3752C117.477 74.8496 117.285 75.0589 114.544 77.6399C110.9 81.086 111.241 81.0023 109.078 78.9653C107.774 77.7376 107.552 77.4586 107.552 77.0819C107.552 76.4819 107.996 76.0773 108.678 76.0773C109.122 76.0773 109.359 76.2169 110.159 76.9423L111.122 77.8073L113.522 75.5472C116.129 73.1196 116.322 73.008 117.092 73.58Z" fill="url(#paint1_radial_3227_1808)"/>
<path d="M60.622 63.7855C59.6443 64.1064 58.6222 65.0133 58.2666 65.8922C58.0148 66.4782 58 68.264 58 96.7951C58 125.242 58.0148 127.098 58.2518 127.6C58.6962 128.521 59.3777 129.205 60.2665 129.609L61.1109 130H83.924H106.737L107.404 129.707C108.278 129.33 108.989 128.647 109.418 127.768L109.774 127.07V110.593V94.1164L108.5 94.0187C107.107 93.9071 104.93 93.4188 103.789 92.9724C103.404 92.8049 103.063 92.6794 103.034 92.6794C103.019 92.6794 102.945 92.8328 102.9 93.0282C102.693 93.7955 102.737 93.7955 92.7381 93.7955H83.524L83.0944 93.3909C82.8574 93.1677 82.6648 92.8886 82.6648 92.7631C82.6648 92.3724 82.9907 91.8702 83.3611 91.7167C83.6129 91.6051 86.2942 91.5632 92.1604 91.5632H100.619L99.4487 90.7401C98.8117 90.2936 97.9229 89.61 97.4785 89.2054L96.6638 88.4939H89.968H83.2722L82.9759 88.1311C82.5611 87.6428 82.5907 87.3498 83.05 86.8336L83.4351 86.4011H89.1977H94.9602L94.2047 85.0757C91.8049 80.8623 91.3753 76.1188 92.9603 71.6403C93.938 68.9197 95.5231 66.5898 97.7748 64.5808L98.9895 63.5204H80.1909C62.3404 63.5344 61.3627 63.5483 60.622 63.7855ZM71.9989 67.2176C74.0136 67.8873 75.2431 69.5057 75.258 71.4729C75.258 72.6588 74.9024 73.5656 74.0877 74.4306L73.6285 74.9329L74.1321 75.2398C74.4136 75.3933 74.9765 75.8676 75.3765 76.2862C76.6356 77.5837 77.1837 79.0765 77.1837 81.253C77.1837 82.397 77.1393 82.6481 76.8727 82.969L76.5764 83.3318H70.2509C65.5105 83.3178 63.8662 83.276 63.6885 83.1504C63.2589 82.8295 63.1107 82.3831 63.1107 81.2809C63.1107 79.9276 63.4218 78.5324 63.9255 77.5697C64.3403 76.7885 65.4069 75.6723 66.192 75.2259L66.666 74.9329L66.1475 74.3609C64.6217 72.6867 64.681 70.0359 66.2957 68.4872C66.9919 67.8036 68.1474 67.1897 69.0955 67.0083C69.851 66.8549 71.2138 66.9525 71.9989 67.2176ZM79.2577 85.8431C79.5391 86.1081 79.5539 86.3035 79.5539 90.0286V93.949L79.1836 94.2838L78.8281 94.6326H75.1987C71.5842 94.6326 71.5694 94.6326 71.1546 94.2978L70.7398 93.9629V90.0286V86.0942L71.0953 85.8291C71.4064 85.578 71.7175 85.564 75.1987 85.564C78.7688 85.564 78.9762 85.578 79.2577 85.8431ZM78.9466 99.8645C79.1836 99.9761 79.4058 100.171 79.4651 100.283C79.5095 100.409 79.5539 102.236 79.5539 104.329C79.5539 107.873 79.5391 108.152 79.2725 108.459L78.991 108.794H75.1987C71.4508 108.794 71.4064 108.794 71.0805 108.473C70.7398 108.166 70.7398 108.124 70.7398 104.273C70.7398 100.143 70.7546 100.06 71.4805 99.7947C71.6434 99.7249 73.3026 99.6691 75.1543 99.6691C77.8355 99.6552 78.6207 99.697 78.9466 99.8645ZM102.648 100.967C103.093 101.343 103.063 102.083 102.589 102.515L102.234 102.864H92.8863H83.524L83.0944 102.459C82.8574 102.236 82.6648 101.929 82.6648 101.79C82.6648 101.441 83.0648 100.925 83.4648 100.771C83.6277 100.702 87.9533 100.66 93.0492 100.674C101.952 100.702 102.352 100.716 102.648 100.967ZM102.663 106.073C102.841 106.24 102.96 106.533 102.96 106.84C102.96 107.147 102.841 107.44 102.663 107.608C102.367 107.887 102.174 107.887 92.9011 107.887C84.1017 107.887 83.4203 107.873 83.124 107.636C82.9611 107.51 82.7685 107.203 82.7241 106.952C82.65 106.589 82.7093 106.436 83.0055 106.157L83.3907 105.794H92.8863C102.174 105.794 102.367 105.794 102.663 106.073ZM79.2577 114.304C79.5391 114.569 79.5539 114.765 79.5539 118.49V122.41L79.1836 122.745L78.8281 123.094H75.1987C71.5842 123.094 71.5694 123.094 71.1546 122.759L70.7398 122.424V118.49V114.556L71.0953 114.29C71.4064 114.039 71.7175 114.025 75.1987 114.025C78.7688 114.025 78.9762 114.039 79.2577 114.304ZM102.663 115.142C102.841 115.309 102.96 115.602 102.96 115.909C102.96 116.216 102.841 116.509 102.663 116.676C102.367 116.955 102.174 116.955 92.827 116.955H83.2722L82.9611 116.579C82.5759 116.118 82.65 115.476 83.124 115.1C83.4203 114.876 84.1017 114.862 92.9011 114.862C102.174 114.862 102.367 114.862 102.663 115.142ZM102.574 120.318C103.078 120.694 103.123 121.517 102.648 121.922C102.352 122.173 101.937 122.187 92.9307 122.229L83.5388 122.257L83.0944 121.852C82.5463 121.336 82.5463 120.945 83.0944 120.429L83.524 120.025H92.8566C102.071 120.025 102.189 120.025 102.574 120.318Z" fill="url(#paint2_linear_3227_1808)"/>
<path d="M60.622 63.7855C59.6443 64.1064 58.6222 65.0133 58.2666 65.8922C58.0148 66.4782 58 68.264 58 96.7951C58 125.242 58.0148 127.098 58.2518 127.6C58.6962 128.521 59.3777 129.205 60.2665 129.609L61.1109 130H83.924H106.737L107.404 129.707C108.278 129.33 108.989 128.647 109.418 127.768L109.774 127.07V110.593V94.1164L108.5 94.0187C107.107 93.9071 104.93 93.4188 103.789 92.9724C103.404 92.8049 103.063 92.6794 103.034 92.6794C103.019 92.6794 102.945 92.8328 102.9 93.0282C102.693 93.7955 102.737 93.7955 92.7381 93.7955H83.524L83.0944 93.3909C82.8574 93.1677 82.6648 92.8886 82.6648 92.7631C82.6648 92.3724 82.9907 91.8702 83.3611 91.7167C83.6129 91.6051 86.2942 91.5632 92.1604 91.5632H100.619L99.4487 90.7401C98.8117 90.2936 97.9229 89.61 97.4785 89.2054L96.6638 88.4939H89.968H83.2722L82.9759 88.1311C82.5611 87.6428 82.5907 87.3498 83.05 86.8336L83.4351 86.4011H89.1977H94.9602L94.2047 85.0757C91.8049 80.8623 91.3753 76.1188 92.9603 71.6403C93.938 68.9197 95.5231 66.5898 97.7748 64.5808L98.9895 63.5204H80.1909C62.3404 63.5344 61.3627 63.5483 60.622 63.7855ZM71.9989 67.2176C74.0136 67.8873 75.2431 69.5057 75.258 71.4729C75.258 72.6588 74.9024 73.5656 74.0877 74.4306L73.6285 74.9329L74.1321 75.2398C74.4136 75.3933 74.9765 75.8676 75.3765 76.2862C76.6356 77.5837 77.1837 79.0765 77.1837 81.253C77.1837 82.397 77.1393 82.6481 76.8727 82.969L76.5764 83.3318H70.2509C65.5105 83.3178 63.8662 83.276 63.6885 83.1504C63.2589 82.8295 63.1107 82.3831 63.1107 81.2809C63.1107 79.9276 63.4218 78.5324 63.9255 77.5697C64.3403 76.7885 65.4069 75.6723 66.192 75.2259L66.666 74.9329L66.1475 74.3609C64.6217 72.6867 64.681 70.0359 66.2957 68.4872C66.9919 67.8036 68.1474 67.1897 69.0955 67.0083C69.851 66.8549 71.2138 66.9525 71.9989 67.2176ZM79.2577 85.8431C79.5391 86.1081 79.5539 86.3035 79.5539 90.0286V93.949L79.1836 94.2838L78.8281 94.6326H75.1987C71.5842 94.6326 71.5694 94.6326 71.1546 94.2978L70.7398 93.9629V90.0286V86.0942L71.0953 85.8291C71.4064 85.578 71.7175 85.564 75.1987 85.564C78.7688 85.564 78.9762 85.578 79.2577 85.8431ZM78.9466 99.8645C79.1836 99.9761 79.4058 100.171 79.4651 100.283C79.5095 100.409 79.5539 102.236 79.5539 104.329C79.5539 107.873 79.5391 108.152 79.2725 108.459L78.991 108.794H75.1987C71.4508 108.794 71.4064 108.794 71.0805 108.473C70.7398 108.166 70.7398 108.124 70.7398 104.273C70.7398 100.143 70.7546 100.06 71.4805 99.7947C71.6434 99.7249 73.3026 99.6691 75.1543 99.6691C77.8355 99.6552 78.6207 99.697 78.9466 99.8645ZM102.648 100.967C103.093 101.343 103.063 102.083 102.589 102.515L102.234 102.864H92.8863H83.524L83.0944 102.459C82.8574 102.236 82.6648 101.929 82.6648 101.79C82.6648 101.441 83.0648 100.925 83.4648 100.771C83.6277 100.702 87.9533 100.66 93.0492 100.674C101.952 100.702 102.352 100.716 102.648 100.967ZM102.663 106.073C102.841 106.24 102.96 106.533 102.96 106.84C102.96 107.147 102.841 107.44 102.663 107.608C102.367 107.887 102.174 107.887 92.9011 107.887C84.1017 107.887 83.4203 107.873 83.124 107.636C82.9611 107.51 82.7685 107.203 82.7241 106.952C82.65 106.589 82.7093 106.436 83.0055 106.157L83.3907 105.794H92.8863C102.174 105.794 102.367 105.794 102.663 106.073ZM79.2577 114.304C79.5391 114.569 79.5539 114.765 79.5539 118.49V122.41L79.1836 122.745L78.8281 123.094H75.1987C71.5842 123.094 71.5694 123.094 71.1546 122.759L70.7398 122.424V118.49V114.556L71.0953 114.29C71.4064 114.039 71.7175 114.025 75.1987 114.025C78.7688 114.025 78.9762 114.039 79.2577 114.304ZM102.663 115.142C102.841 115.309 102.96 115.602 102.96 115.909C102.96 116.216 102.841 116.509 102.663 116.676C102.367 116.955 102.174 116.955 92.827 116.955H83.2722L82.9611 116.579C82.5759 116.118 82.65 115.476 83.124 115.1C83.4203 114.876 84.1017 114.862 92.9011 114.862C102.174 114.862 102.367 114.862 102.663 115.142ZM102.574 120.318C103.078 120.694 103.123 121.517 102.648 121.922C102.352 122.173 101.937 122.187 92.9307 122.229L83.5388 122.257L83.0944 121.852C82.5463 121.336 82.5463 120.945 83.0944 120.429L83.524 120.025H92.8566C102.071 120.025 102.189 120.025 102.574 120.318Z" fill="url(#paint3_radial_3227_1808)"/>
<path d="M68.814 69.2122C66.8438 70.1051 66.6512 72.2397 68.4437 73.3837C69.688 74.1929 71.5694 73.872 72.4878 72.7001C72.9174 72.156 72.9915 70.984 72.6211 70.3562C71.9397 69.1843 70.1028 68.6262 68.814 69.2122Z" fill="url(#paint4_linear_3227_1808)"/>
<path d="M68.814 69.2122C66.8438 70.1051 66.6512 72.2397 68.4437 73.3837C69.688 74.1929 71.5694 73.872 72.4878 72.7001C72.9174 72.156 72.9915 70.984 72.6211 70.3562C71.9397 69.1843 70.1028 68.6262 68.814 69.2122Z" fill="url(#paint5_radial_3227_1808)"/>
<path d="M68.9918 76.2285C67.066 76.661 65.6587 78.2515 65.5106 80.1489L65.4365 81.0977H70.0584H74.6655V80.5675C74.6506 78.5724 73.3026 76.8703 71.2583 76.2983C70.3843 76.0611 69.851 76.0332 68.9918 76.2285Z" fill="url(#paint6_linear_3227_1808)"/>
<path d="M68.9918 76.2285C67.066 76.661 65.6587 78.2515 65.5106 80.1489L65.4365 81.0977H70.0584H74.6655V80.5675C74.6506 78.5724 73.3026 76.8703 71.2583 76.2983C70.3843 76.0611 69.851 76.0332 68.9918 76.2285Z" fill="url(#paint7_radial_3227_1808)"/>
</g>
<defs>
<filter id="filter0_d_3227_1808" x="-2.12646" y="6.29297" width="169.078" height="176.004" filterUnits="userSpaceOnUse" color-interpolation-filters="sRGB">
<feFlood flood-opacity="0" result="BackgroundImageFix"/>
<feColorMatrix in="SourceAlpha" type="matrix" values="0 0 0 0 0 0 0 0 0 0 0 0 0 0 0 0 0 0 127 0" result="hardAlpha"/>
<feOffset/>
<feGaussianBlur stdDeviation="10"/>
<feComposite in2="hardAlpha" operator="out"/>
<feColorMatrix type="matrix" values="0 0 0 0 0 0 0 0 0 0 0 0 0 0 0 0 0 0 0.2 0"/>
<feBlend mode="normal" in2="BackgroundImageFix" result="effect1_dropShadow_3227_1808"/>
<feBlend mode="normal" in="SourceGraphic" in2="effect1_dropShadow_3227_1808" result="shape"/>
</filter>
<linearGradient id="paint0_linear_3227_1808" x1="132.47" y1="103.676" x2="85.0101" y2="51.1843" gradientUnits="userSpaceOnUse">
<stop offset="0.291277" stop-color="#C8FC36"/>
<stop offset="0.867194" stop-color="#0E9C47"/>
</linearGradient>
<radialGradient id="paint1_radial_3227_1808" cx="0" cy="0" r="1" gradientUnits="userSpaceOnUse" gradientTransform="translate(100.579 85.9004) rotate(-33.3162) scale(58.3302 57.1574)">
<stop stop-color="#00862D"/>
<stop offset="0.627261" stop-color="#0033CC"/>
</radialGradient>
<linearGradient id="paint2_linear_3227_1808" x1="120.388" y1="156.259" x2="16.4129" y2="71.477" gradientUnits="userSpaceOnUse">
<stop offset="0.291277" stop-color="#C8FC36"/>
<stop offset="0.867194" stop-color="#0E9C47"/>
</linearGradient>
<radialGradient id="paint3_radial_3227_1808" cx="0" cy="0" r="1" gradientUnits="userSpaceOnUse" gradientTransform="translate(68.0679 116.705) rotate(-41.718) scale(107.134 113.61)">
<stop stop-color="#00862D"/>
<stop offset="0.627261" stop-color="#0033CC"/>
</radialGradient>
<linearGradient id="paint4_linear_3227_1808" x1="74.0176" y1="75.7497" x2="66.415" y2="66.4864" gradientUnits="userSpaceOnUse">
<stop offset="0.291277" stop-color="#C8FC36"/>
<stop offset="0.867194" stop-color="#0E9C47"/>
</linearGradient>
<radialGradient id="paint5_radial_3227_1808" cx="0" cy="0" r="1" gradientUnits="userSpaceOnUse" gradientTransform="translate(68.3086 72.8611) rotate(-30.8222) scale(10.1612 9.5451)">
<stop stop-color="#00862D"/>
<stop offset="0.627261" stop-color="#0033CC"/>
</radialGradient>
<linearGradient id="paint6_linear_3227_1808" x1="76.5574" y1="83.0721" x2="70.0435" y2="70.4796" gradientUnits="userSpaceOnUse">
<stop offset="0.291277" stop-color="#C8FC36"/>
<stop offset="0.867194" stop-color="#0E9C47"/>
</linearGradient>
<radialGradient id="paint7_radial_3227_1808" cx="0" cy="0" r="1" gradientUnits="userSpaceOnUse" gradientTransform="translate(67.2312 80.098) rotate(-20.6089) scale(15.2293 10.7117)">
<stop stop-color="#00862D"/>
<stop offset="0.627261" stop-color="#0033CC"/>
</radialGradient>
<clipPath id="clip0_3227_1808">
<rect width="184" height="192" fill="white"/>
</clipPath>
</defs>
</svg>
