<svg width="208" height="212" viewBox="0 0 208 212" fill="none" xmlns="http://www.w3.org/2000/svg">
<g clip-path="url(#clip0_3229_1799)">
<g filter="url(#filter0_d_3229_1799)">
<path d="M105.096 41.7562C124.014 28.51 150.177 40.71 152.189 63.7161L158.831 139.636C160.844 162.642 137.197 179.2 116.267 169.44L47.1971 137.232C26.2669 127.472 23.7509 98.7148 42.6684 85.4686L105.096 41.7562Z" fill="white"/>
</g>
<path d="M79.4084 77.163C75.9014 77.7553 72.5538 80.3668 70.9863 83.759C70.7206 84.3109 70.4151 85.1185 70.2955 85.5628C69.9767 86.7473 69.897 89.3588 70.1494 90.678C70.9863 95.174 74.3472 98.7546 78.6512 99.7642C79.7671 100.02 80.2054 100.06 81.8394 100.007C83.5265 99.9527 83.8586 99.8988 85.0143 99.495C88.8666 98.1893 91.8157 94.9048 92.626 91.0145C92.9449 89.4934 92.8917 87.1377 92.5065 85.6031C91.0718 79.8687 85.3331 76.1669 79.4084 77.163ZM78.2925 83.3282C78.5715 83.5436 79.3818 84.2974 80.0726 85.0109C80.7634 85.7243 81.3744 86.3031 81.4409 86.3031C81.5073 86.3031 82.291 85.5762 83.1944 84.6878C84.0977 83.8128 84.9877 83.0455 85.1737 82.9917C86.1833 82.7359 87.3124 83.8532 87.06 84.8762C87.0202 85.0512 86.2231 85.9531 85.2932 86.8819L83.5929 88.578L85.2667 90.3011C86.4091 91.4856 86.9803 92.1587 87.0334 92.4414C87.2327 93.3164 86.5021 94.2452 85.6253 94.2452C85.3331 94.2452 84.9744 94.1779 84.815 94.0971C84.6556 94.0163 83.8187 93.2356 82.9552 92.3741L81.3877 90.8126L79.7272 92.5221C78.3988 93.8817 77.9604 94.2586 77.5885 94.3259C76.7782 94.474 75.8881 93.8548 75.8217 93.101C75.742 92.3741 75.8748 92.1722 77.4822 90.4895C78.3988 89.5338 79.1427 88.6992 79.1427 88.6454C79.1427 88.5915 78.3988 87.7838 77.5088 86.8416C76.5125 85.8185 75.835 84.9974 75.7951 84.7955C75.6889 84.2436 75.9811 83.584 76.4726 83.2474C77.0837 82.8302 77.6549 82.8571 78.2925 83.3282Z" fill="white"/>
<path d="M79.4084 77.163C75.9014 77.7553 72.5538 80.3668 70.9863 83.759C70.7206 84.3109 70.4151 85.1185 70.2955 85.5628C69.9767 86.7473 69.897 89.3588 70.1494 90.678C70.9863 95.174 74.3472 98.7546 78.6512 99.7642C79.7671 100.02 80.2054 100.06 81.8394 100.007C83.5265 99.9527 83.8586 99.8988 85.0143 99.495C88.8666 98.1893 91.8157 94.9048 92.626 91.0145C92.9449 89.4934 92.8917 87.1377 92.5065 85.6031C91.0718 79.8687 85.3331 76.1669 79.4084 77.163ZM78.2925 83.3282C78.5715 83.5436 79.3818 84.2974 80.0726 85.0109C80.7634 85.7243 81.3744 86.3031 81.4409 86.3031C81.5073 86.3031 82.291 85.5762 83.1944 84.6878C84.0977 83.8128 84.9877 83.0455 85.1737 82.9917C86.1833 82.7359 87.3124 83.8532 87.06 84.8762C87.0202 85.0512 86.2231 85.9531 85.2932 86.8819L83.5929 88.578L85.2667 90.3011C86.4091 91.4856 86.9803 92.1587 87.0334 92.4414C87.2327 93.3164 86.5021 94.2452 85.6253 94.2452C85.3331 94.2452 84.9744 94.1779 84.815 94.0971C84.6556 94.0163 83.8187 93.2356 82.9552 92.3741L81.3877 90.8126L79.7272 92.5221C78.3988 93.8817 77.9604 94.2586 77.5885 94.3259C76.7782 94.474 75.8881 93.8548 75.8217 93.101C75.742 92.3741 75.8748 92.1722 77.4822 90.4895C78.3988 89.5338 79.1427 88.6992 79.1427 88.6454C79.1427 88.5915 78.3988 87.7838 77.5088 86.8416C76.5125 85.8185 75.835 84.9974 75.7951 84.7955C75.6889 84.2436 75.9811 83.584 76.4726 83.2474C77.0837 82.8302 77.6549 82.8571 78.2925 83.3282Z" fill="url(#paint0_linear_3229_1799)"/>
<path d="M79.4084 77.163C75.9014 77.7553 72.5538 80.3668 70.9863 83.759C70.7206 84.3109 70.4151 85.1185 70.2955 85.5628C69.9767 86.7473 69.897 89.3588 70.1494 90.678C70.9863 95.174 74.3472 98.7546 78.6512 99.7642C79.7671 100.02 80.2054 100.06 81.8394 100.007C83.5265 99.9527 83.8586 99.8988 85.0143 99.495C88.8666 98.1893 91.8157 94.9048 92.626 91.0145C92.9449 89.4934 92.8917 87.1377 92.5065 85.6031C91.0718 79.8687 85.3331 76.1669 79.4084 77.163ZM78.2925 83.3282C78.5715 83.5436 79.3818 84.2974 80.0726 85.0109C80.7634 85.7243 81.3744 86.3031 81.4409 86.3031C81.5073 86.3031 82.291 85.5762 83.1944 84.6878C84.0977 83.8128 84.9877 83.0455 85.1737 82.9917C86.1833 82.7359 87.3124 83.8532 87.06 84.8762C87.0202 85.0512 86.2231 85.9531 85.2932 86.8819L83.5929 88.578L85.2667 90.3011C86.4091 91.4856 86.9803 92.1587 87.0334 92.4414C87.2327 93.3164 86.5021 94.2452 85.6253 94.2452C85.3331 94.2452 84.9744 94.1779 84.815 94.0971C84.6556 94.0163 83.8187 93.2356 82.9552 92.3741L81.3877 90.8126L79.7272 92.5221C78.3988 93.8817 77.9604 94.2586 77.5885 94.3259C76.7782 94.474 75.8881 93.8548 75.8217 93.101C75.742 92.3741 75.8748 92.1722 77.4822 90.4895C78.3988 89.5338 79.1427 88.6992 79.1427 88.6454C79.1427 88.5915 78.3988 87.7838 77.5088 86.8416C76.5125 85.8185 75.835 84.9974 75.7951 84.7955C75.6889 84.2436 75.9811 83.584 76.4726 83.2474C77.0837 82.8302 77.6549 82.8571 78.2925 83.3282Z" fill="url(#paint1_radial_3229_1799)"/>
<path d="M124.574 77.163C121.067 77.7553 117.72 80.3668 116.152 83.759C115.886 84.3109 115.581 85.1185 115.461 85.5628C115.143 86.7473 115.063 89.3588 115.315 90.678C116.152 95.174 119.513 98.7546 123.817 99.7642C124.933 100.02 125.371 100.06 127.005 100.007C128.692 99.9527 129.024 99.8988 130.18 99.495C134.032 98.1893 136.981 94.9048 137.792 91.0145C138.111 89.4934 138.057 87.1377 137.672 85.6031C136.238 79.8687 130.499 76.1669 124.574 77.163ZM131.894 84.0551C132.372 84.3782 132.677 85.0512 132.571 85.5762C132.518 85.8993 125.77 92.8048 125.199 93.1279C124.8 93.3567 123.976 93.3433 123.538 93.1144C122.993 92.8318 120.748 90.4222 120.642 90.0184C120.39 88.9819 121.492 87.8511 122.502 88.1069C122.675 88.1473 123.153 88.4838 123.551 88.8607C123.95 89.2242 124.348 89.5338 124.441 89.5338C124.521 89.5338 125.823 88.3357 127.337 86.8685C128.852 85.4012 130.233 84.0955 130.419 83.9743C130.871 83.6647 131.362 83.6917 131.894 84.0551Z" fill="white"/>
<path d="M124.574 77.163C121.067 77.7553 117.72 80.3668 116.152 83.759C115.886 84.3109 115.581 85.1185 115.461 85.5628C115.143 86.7473 115.063 89.3588 115.315 90.678C116.152 95.174 119.513 98.7546 123.817 99.7642C124.933 100.02 125.371 100.06 127.005 100.007C128.692 99.9527 129.024 99.8988 130.18 99.495C134.032 98.1893 136.981 94.9048 137.792 91.0145C138.111 89.4934 138.057 87.1377 137.672 85.6031C136.238 79.8687 130.499 76.1669 124.574 77.163ZM131.894 84.0551C132.372 84.3782 132.677 85.0512 132.571 85.5762C132.518 85.8993 125.77 92.8048 125.199 93.1279C124.8 93.3567 123.976 93.3433 123.538 93.1144C122.993 92.8318 120.748 90.4222 120.642 90.0184C120.39 88.9819 121.492 87.8511 122.502 88.1069C122.675 88.1473 123.153 88.4838 123.551 88.8607C123.95 89.2242 124.348 89.5338 124.441 89.5338C124.521 89.5338 125.823 88.3357 127.337 86.8685C128.852 85.4012 130.233 84.0955 130.419 83.9743C130.871 83.6647 131.362 83.6917 131.894 84.0551Z" fill="url(#paint2_linear_3229_1799)"/>
<path d="M124.574 77.163C121.067 77.7553 117.72 80.3668 116.152 83.759C115.886 84.3109 115.581 85.1185 115.461 85.5628C115.143 86.7473 115.063 89.3588 115.315 90.678C116.152 95.174 119.513 98.7546 123.817 99.7642C124.933 100.02 125.371 100.06 127.005 100.007C128.692 99.9527 129.024 99.8988 130.18 99.495C134.032 98.1893 136.981 94.9048 137.792 91.0145C138.111 89.4934 138.057 87.1377 137.672 85.6031C136.238 79.8687 130.499 76.1669 124.574 77.163ZM131.894 84.0551C132.372 84.3782 132.677 85.0512 132.571 85.5762C132.518 85.8993 125.77 92.8048 125.199 93.1279C124.8 93.3567 123.976 93.3433 123.538 93.1144C122.993 92.8318 120.748 90.4222 120.642 90.0184C120.39 88.9819 121.492 87.8511 122.502 88.1069C122.675 88.1473 123.153 88.4838 123.551 88.8607C123.95 89.2242 124.348 89.5338 124.441 89.5338C124.521 89.5338 125.823 88.3357 127.337 86.8685C128.852 85.4012 130.233 84.0955 130.419 83.9743C130.871 83.6647 131.362 83.6917 131.894 84.0551Z" fill="url(#paint3_radial_3229_1799)"/>
<path d="M98.936 87.5011C98.1788 87.7434 97.4748 88.2145 96.8504 88.9145C95.708 90.1664 95.7479 89.8702 95.7479 98.418V105.902L94.632 104.825C94.0209 104.22 93.2106 103.547 92.8121 103.331C92.1479 102.954 92.0017 102.927 90.6999 102.927C89.5043 102.927 89.2121 102.968 88.6807 103.237C87.8438 103.654 87.0069 104.529 86.5951 105.418C86.3029 106.05 86.2498 106.333 86.2498 107.437C86.2498 108.514 86.3029 108.81 86.5686 109.322C86.7678 109.712 88.3088 111.395 90.8992 114.033C95.7611 118.987 95.5619 118.65 95.8143 121.881C96.0932 125.354 96.6246 126.417 98.4179 127.104C99.0423 127.346 99.5869 127.359 108.633 127.359C118.065 127.359 118.198 127.359 118.955 127.077C120.005 126.673 121.107 125.556 121.506 124.492C121.785 123.725 121.785 123.604 121.785 113.158C121.785 102.874 121.771 102.577 121.519 101.864C120.709 99.6968 118.065 98.4315 115.913 99.1988L115.169 99.468L114.731 98.9968C113.695 97.9334 111.689 97.4488 110.174 97.9334L109.51 98.1353L108.992 97.6507C108.089 96.8296 107.425 96.6008 105.937 96.6008H104.648V93.747C104.648 91.149 104.622 90.8125 104.356 90.1125C103.971 89.076 102.974 88.0664 101.952 87.6761C101.168 87.3665 99.6401 87.2857 98.936 87.5011Z" fill="white"/>
<path d="M98.936 87.5011C98.1788 87.7434 97.4748 88.2145 96.8504 88.9145C95.708 90.1664 95.7479 89.8702 95.7479 98.418V105.902L94.632 104.825C94.0209 104.22 93.2106 103.547 92.8121 103.331C92.1479 102.954 92.0017 102.927 90.6999 102.927C89.5043 102.927 89.2121 102.968 88.6807 103.237C87.8438 103.654 87.0069 104.529 86.5951 105.418C86.3029 106.05 86.2498 106.333 86.2498 107.437C86.2498 108.514 86.3029 108.81 86.5686 109.322C86.7678 109.712 88.3088 111.395 90.8992 114.033C95.7611 118.987 95.5619 118.65 95.8143 121.881C96.0932 125.354 96.6246 126.417 98.4179 127.104C99.0423 127.346 99.5869 127.359 108.633 127.359C118.065 127.359 118.198 127.359 118.955 127.077C120.005 126.673 121.107 125.556 121.506 124.492C121.785 123.725 121.785 123.604 121.785 113.158C121.785 102.874 121.771 102.577 121.519 101.864C120.709 99.6968 118.065 98.4315 115.913 99.1988L115.169 99.468L114.731 98.9968C113.695 97.9334 111.689 97.4488 110.174 97.9334L109.51 98.1353L108.992 97.6507C108.089 96.8296 107.425 96.6008 105.937 96.6008H104.648V93.747C104.648 91.149 104.622 90.8125 104.356 90.1125C103.971 89.076 102.974 88.0664 101.952 87.6761C101.168 87.3665 99.6401 87.2857 98.936 87.5011Z" fill="url(#paint4_linear_3229_1799)"/>
<path d="M98.936 87.5011C98.1788 87.7434 97.4748 88.2145 96.8504 88.9145C95.708 90.1664 95.7479 89.8702 95.7479 98.418V105.902L94.632 104.825C94.0209 104.22 93.2106 103.547 92.8121 103.331C92.1479 102.954 92.0017 102.927 90.6999 102.927C89.5043 102.927 89.2121 102.968 88.6807 103.237C87.8438 103.654 87.0069 104.529 86.5951 105.418C86.3029 106.05 86.2498 106.333 86.2498 107.437C86.2498 108.514 86.3029 108.81 86.5686 109.322C86.7678 109.712 88.3088 111.395 90.8992 114.033C95.7611 118.987 95.5619 118.65 95.8143 121.881C96.0932 125.354 96.6246 126.417 98.4179 127.104C99.0423 127.346 99.5869 127.359 108.633 127.359C118.065 127.359 118.198 127.359 118.955 127.077C120.005 126.673 121.107 125.556 121.506 124.492C121.785 123.725 121.785 123.604 121.785 113.158C121.785 102.874 121.771 102.577 121.519 101.864C120.709 99.6968 118.065 98.4315 115.913 99.1988L115.169 99.468L114.731 98.9968C113.695 97.9334 111.689 97.4488 110.174 97.9334L109.51 98.1353L108.992 97.6507C108.089 96.8296 107.425 96.6008 105.937 96.6008H104.648V93.747C104.648 91.149 104.622 90.8125 104.356 90.1125C103.971 89.076 102.974 88.0664 101.952 87.6761C101.168 87.3665 99.6401 87.2857 98.936 87.5011Z" fill="url(#paint5_radial_3229_1799)"/>
<path d="M108.208 130.55L99.0688 130.591V132.152V133.714L99.5205 134.171L99.9722 134.629H108.899H117.826L118.278 134.171L118.729 133.714V132.085V130.456L118.038 130.483C117.653 130.51 113.23 130.537 108.208 130.55Z" fill="white"/>
<path d="M108.208 130.55L99.0688 130.591V132.152V133.714L99.5205 134.171L99.9722 134.629H108.899H117.826L118.278 134.171L118.729 133.714V132.085V130.456L118.038 130.483C117.653 130.51 113.23 130.537 108.208 130.55Z" fill="url(#paint6_linear_3229_1799)"/>
<path d="M108.208 130.55L99.0688 130.591V132.152V133.714L99.5205 134.171L99.9722 134.629H108.899H117.826L118.278 134.171L118.729 133.714V132.085V130.456L118.038 130.483C117.653 130.51 113.23 130.537 108.208 130.55Z" fill="url(#paint7_radial_3229_1799)"/>
</g>
<defs>
<filter id="filter0_d_3229_1799" x="9.87329" y="16.293" width="169.078" height="176.004" filterUnits="userSpaceOnUse" color-interpolation-filters="sRGB">
<feFlood flood-opacity="0" result="BackgroundImageFix"/>
<feColorMatrix in="SourceAlpha" type="matrix" values="0 0 0 0 0 0 0 0 0 0 0 0 0 0 0 0 0 0 127 0" result="hardAlpha"/>
<feOffset/>
<feGaussianBlur stdDeviation="10"/>
<feComposite in2="hardAlpha" operator="out"/>
<feColorMatrix type="matrix" values="0 0 0 0 0 0 0 0 0 0 0 0 0 0 0 0 0 0 0.2 0"/>
<feBlend mode="normal" in2="BackgroundImageFix" result="effect1_dropShadow_3229_1799"/>
<feBlend mode="normal" in="SourceGraphic" in2="effect1_dropShadow_3229_1799" result="shape"/>
</filter>
<linearGradient id="paint0_linear_3229_1799" x1="97.5153" y1="109.123" x2="60.7759" y2="70.9761" gradientUnits="userSpaceOnUse">
<stop offset="0.291277" stop-color="#C8FC36"/>
<stop offset="0.867194" stop-color="#0E9C47"/>
</linearGradient>
<radialGradient id="paint1_radial_3229_1799" cx="0" cy="0" r="1" gradientUnits="userSpaceOnUse" gradientTransform="translate(74.4403 95.4224) rotate(-34.9979) scale(43.0543 43.1853)">
<stop stop-color="#00862D"/>
<stop offset="0.627261" stop-color="#0033CC"/>
</radialGradient>
<linearGradient id="paint2_linear_3229_1799" x1="142.681" y1="109.123" x2="105.942" y2="70.9761" gradientUnits="userSpaceOnUse">
<stop offset="0.291277" stop-color="#C8FC36"/>
<stop offset="0.867194" stop-color="#0E9C47"/>
</linearGradient>
<radialGradient id="paint3_radial_3229_1799" cx="0" cy="0" r="1" gradientUnits="userSpaceOnUse" gradientTransform="translate(119.606 95.4224) rotate(-34.9979) scale(43.0543 43.1853)">
<stop stop-color="#00862D"/>
<stop offset="0.627261" stop-color="#0033CC"/>
</radialGradient>
<linearGradient id="paint4_linear_3229_1799" x1="129.069" y1="143.151" x2="65.3996" y2="83.8986" gradientUnits="userSpaceOnUse">
<stop offset="0.291277" stop-color="#C8FC36"/>
<stop offset="0.867194" stop-color="#0E9C47"/>
</linearGradient>
<radialGradient id="paint5_radial_3229_1799" cx="0" cy="0" r="1" gradientUnits="userSpaceOnUse" gradientTransform="translate(93.1598 119.364) rotate(-37.9955) scale(69.6468 72.133)">
<stop stop-color="#00862D"/>
<stop offset="0.627261" stop-color="#0033CC"/>
</radialGradient>
<linearGradient id="paint6_linear_3229_1799" x1="122.76" y1="136.277" x2="120.165" y2="123.477" gradientUnits="userSpaceOnUse">
<stop offset="0.291277" stop-color="#C8FC36"/>
<stop offset="0.867194" stop-color="#0E9C47"/>
</linearGradient>
<radialGradient id="paint7_radial_3229_1799" cx="0" cy="0" r="1" gradientUnits="userSpaceOnUse" gradientTransform="translate(102.892 133.794) rotate(-8.38335) scale(30.6947 9.45187)">
<stop stop-color="#00862D"/>
<stop offset="0.627261" stop-color="#0033CC"/>
</radialGradient>
<clipPath id="clip0_3229_1799">
<rect width="208" height="212" fill="white"/>
</clipPath>
</defs>
</svg>
