<svg width="22" height="16" viewBox="0 0 22 16" fill="none" xmlns="http://www.w3.org/2000/svg">
<path d="M1 3V12C1 13.6569 2.34315 15 4 15H19.5" stroke="white"/>
<path d="M20.0366 12.3513L20.6384 11.6558L16.1475 7.04297L21.5385 2.73968V11.6667C21.5385 12.7388 20.7403 13.5385 19.6923 13.5385H4.30769C3.2597 13.5385 2.46154 12.7388 2.46154 11.6667V2.72192L7.85333 6.97L3.35912 11.6584L3.96573 12.3496L9.63112 8.18354L11.7478 9.56434L12.0042 9.73156L12.258 9.56049L14.2979 8.18543L20.0366 12.3513ZM2.83687 1.85064L2.46154 2.41865V2.33333C2.46154 1.26119 3.2597 0.461538 4.30769 0.461538H19.6923C20.7403 0.461538 21.5385 1.26119 21.5385 2.33333V2.60785L21.0874 1.92776L12.0008 6.86324L2.83687 1.85064Z" fill="white" stroke="white" stroke-width="0.923077"/>
</svg>
