<svg width="22" height="22" viewBox="0 0 22 22" fill="none" xmlns="http://www.w3.org/2000/svg">
<path d="M18.3333 1.83331C18.5764 1.83331 18.8096 1.92989 18.9815 2.1018C19.1534 2.27371 19.25 2.50686 19.25 2.74998V6.1939L11.0009 14.4439L10.9954 18.3287L14.8876 18.3342L19.25 13.9718V19.25C19.25 19.4931 19.1534 19.7263 18.9815 19.8982C18.8096 20.0701 18.5764 20.1666 18.3333 20.1666H3.66667C3.42355 20.1666 3.19039 20.0701 3.01849 19.8982C2.84658 19.7263 2.75 19.4931 2.75 19.25V2.74998C2.75 2.50686 2.84658 2.27371 3.01849 2.1018C3.19039 1.92989 3.42355 1.83331 3.66667 1.83331H18.3333ZM19.9632 8.07398L21.2593 9.37015L14.1295 16.5L12.8315 16.4981L12.8333 15.2038L19.9632 8.07398ZM11 11H6.41667V12.8333H11V11ZM13.75 7.33331H6.41667V9.16665H13.75V7.33331Z" fill="#393939"/>
</svg>
