<svg width="255" height="292" viewBox="0 0 255 292" fill="none" xmlns="http://www.w3.org/2000/svg">
<path d="M2.19935 286.951C0.984696 286.951 2.24113e-05 287.995 2.24113e-05 289.284C2.24113e-05 290.572 0.984696 291.617 2.19935 291.617C3.41401 291.617 4.39868 290.572 4.39868 289.284C4.39868 287.995 3.41401 286.951 2.19935 286.951Z" fill="#CCDDF2"/>
<path d="M20.2338 287.184C21.3335 287.184 22.2133 288.118 22.2133 289.284C22.2133 290.45 21.3335 291.384 20.2338 291.384C19.1342 291.384 18.2545 290.45 18.2545 289.284C18.2545 288.118 19.1342 287.184 20.2338 287.184Z" fill="#CCDDF2"/>
<path d="M38.2684 287.184C39.3681 287.184 40.2478 288.118 40.2478 289.284C40.2478 290.45 39.3681 291.384 38.2684 291.384C37.1688 291.384 36.289 290.45 36.289 289.284C36.5089 288.118 37.3887 287.184 38.2684 287.184Z" fill="#CCDDF2"/>
<path d="M56.3029 287.418C55.3312 287.418 54.5434 288.253 54.5434 289.284C54.5434 290.315 55.3312 291.15 56.3029 291.15C57.2746 291.15 58.0624 290.315 58.0624 289.284C58.0624 288.253 57.2746 287.418 56.3029 287.418Z" fill="#CCDDF2"/>
<path d="M74.3373 287.651C75.217 287.651 75.8768 288.351 75.8768 289.284C75.8768 290.217 75.217 290.917 74.3373 290.917C73.4576 290.917 72.7978 290.217 72.7978 289.284C72.7978 288.351 73.4576 287.651 74.3373 287.651Z" fill="#CCDDF2"/>
<path d="M92.3719 287.651C93.2516 287.651 93.9114 288.351 93.9114 289.284C93.9114 290.217 93.2516 290.917 92.3719 290.917C91.4921 290.917 90.8323 290.217 90.8323 289.284C91.0523 288.351 91.7121 287.651 92.3719 287.651Z" fill="#CCDDF2"/>
<path d="M110.626 287.884C109.898 287.884 109.307 288.511 109.307 289.284C109.307 290.057 109.898 290.684 110.626 290.684C111.355 290.684 111.946 290.057 111.946 289.284C111.946 288.511 111.355 287.884 110.626 287.884Z" fill="#CCDDF2"/>
<path d="M128.661 288.119C129.321 288.119 129.76 288.585 129.76 289.285C129.76 289.984 129.321 290.451 128.661 290.451C128.001 290.451 127.561 289.984 127.561 289.285C127.341 288.585 128.001 288.119 128.661 288.119Z" fill="#CCDDF2"/>
<path d="M146.695 288.119C147.355 288.119 147.795 288.585 147.795 289.285C147.795 289.984 147.355 290.451 146.695 290.451C146.036 290.451 145.596 289.984 145.596 289.285C145.596 288.818 146.036 288.119 146.695 288.119Z" fill="#CCDDF2"/>
<path d="M164.73 288.351C164.244 288.351 163.85 288.769 163.85 289.284C163.85 289.799 164.244 290.217 164.73 290.217C165.216 290.217 165.61 289.799 165.61 289.284C165.61 288.769 165.216 288.351 164.73 288.351Z" fill="#CCDDF2"/>
<path d="M182.764 288.585C183.204 288.585 183.424 288.818 183.424 289.284C183.424 289.751 183.204 289.984 182.764 289.984C182.325 289.984 182.105 289.751 182.105 289.284C182.105 288.818 182.325 288.585 182.764 288.585Z" fill="#CCDDF2"/>
<path d="M200.799 288.585C201.019 288.585 201.459 288.818 201.459 289.284C201.459 289.518 201.239 289.984 200.799 289.984C200.579 289.984 200.139 289.751 200.139 289.284C200.139 289.051 200.359 288.585 200.799 288.585Z" fill="#CCDDF2"/>
<path d="M218.833 288.818C218.59 288.818 218.394 289.026 218.394 289.284C218.394 289.542 218.59 289.75 218.833 289.75C219.076 289.75 219.273 289.542 219.273 289.284C219.273 289.026 219.076 288.818 218.833 288.818Z" fill="#CCDDF2"/>
<path d="M236.868 289.052C237.088 289.052 237.088 289.284 237.088 289.284C237.088 289.517 236.868 289.517 236.868 289.517C236.648 289.517 236.648 289.284 236.648 289.284C236.428 289.052 236.648 289.052 236.868 289.052Z" fill="#CCDDF2"/>
<path d="M254.902 289.051C255.122 289.284 254.902 289.284 254.902 289.284C254.682 289.517 254.682 289.284 254.902 289.051C254.682 289.051 254.682 289.284 254.902 289.051Z" fill="#CCDDF2"/>
<path d="M2.19935 270.154C0.984696 270.154 2.24113e-05 271.199 2.24113e-05 272.487C2.24113e-05 273.776 0.984696 274.82 2.19935 274.82C3.41401 274.82 4.39868 273.776 4.39868 272.487C4.39868 271.199 3.41401 270.154 2.19935 270.154Z" fill="#CCDDF2"/>
<path d="M20.2338 270.155C21.3335 270.155 22.2133 271.088 22.2133 272.254C22.2133 273.421 21.3335 274.354 20.2338 274.354C19.1342 274.354 18.2545 273.421 18.2545 272.254C18.2545 271.321 19.1342 270.155 20.2338 270.155Z" fill="#CCDDF2"/>
<path d="M38.2684 270.388C39.3681 270.388 40.2478 271.321 40.2478 272.488C40.2478 273.654 39.3681 274.587 38.2684 274.587C37.1688 274.587 36.289 273.654 36.289 272.488C36.5089 271.321 37.3887 270.388 38.2684 270.388Z" fill="#CCDDF2"/>
<path d="M56.3029 270.621C57.1826 270.621 58.0624 271.554 58.0624 272.488C58.0624 273.421 57.1826 274.354 56.3029 274.354C55.4232 274.354 54.5434 273.421 54.5434 272.488C54.5434 271.321 55.4232 270.621 56.3029 270.621Z" fill="#CCDDF2"/>
<path d="M74.3373 270.621C75.217 270.621 75.8768 271.321 75.8768 272.254C75.8768 273.187 75.217 273.887 74.3373 273.887C73.4576 273.887 72.7978 273.187 72.7978 272.254C72.7978 271.554 73.4576 270.621 74.3373 270.621Z" fill="#CCDDF2"/>
<path d="M92.3719 270.854C93.2516 270.854 93.9114 271.554 93.9114 272.487C93.9114 273.421 93.2516 274.12 92.3719 274.12C91.4921 274.12 90.8323 273.421 90.8323 272.487C91.0523 271.554 91.7121 270.854 92.3719 270.854Z" fill="#CCDDF2"/>
<path d="M110.626 271.087C111.286 271.087 111.946 271.787 111.946 272.487C111.946 273.187 111.286 273.887 110.626 273.887C109.967 273.887 109.307 273.187 109.307 272.487C109.307 271.554 109.747 271.087 110.626 271.087Z" fill="#CCDDF2"/>
<path d="M128.661 271.088C129.321 271.088 129.76 271.555 129.76 272.254C129.76 272.954 129.321 273.421 128.661 273.421C128.001 273.421 127.561 272.954 127.561 272.254C127.341 271.788 128.001 271.088 128.661 271.088Z" fill="#CCDDF2"/>
<path d="M146.695 271.322C147.355 271.322 147.795 271.788 147.795 272.488C147.795 273.187 147.355 273.654 146.695 273.654C146.036 273.654 145.596 273.187 145.596 272.488C145.596 271.788 146.036 271.322 146.695 271.322Z" fill="#CCDDF2"/>
<path d="M164.73 271.555C165.17 271.555 165.61 272.021 165.61 272.488C165.61 272.954 165.17 273.421 164.73 273.421C164.29 273.421 163.85 272.954 163.85 272.488C163.85 272.021 164.07 271.555 164.73 271.555Z" fill="#CCDDF2"/>
<path d="M182.764 271.555C183.204 271.555 183.424 271.788 183.424 272.254C183.424 272.721 183.204 272.954 182.764 272.954C182.325 272.954 182.105 272.721 182.105 272.254C181.885 272.021 182.325 271.555 182.764 271.555Z" fill="#CCDDF2"/>
<path d="M200.799 271.788C201.019 271.788 201.459 272.021 201.459 272.488C201.459 272.721 201.239 273.188 200.799 273.188C200.579 273.188 200.139 272.954 200.139 272.488C200.139 272.021 200.359 271.788 200.799 271.788Z" fill="#CCDDF2"/>
<path d="M218.833 272.021C219.053 272.021 219.273 272.254 219.273 272.487C219.273 272.721 219.053 272.954 218.833 272.954C218.613 272.954 218.394 272.721 218.394 272.487C218.394 272.254 218.613 272.021 218.833 272.021Z" fill="#CCDDF2"/>
<path d="M236.868 272.022C237.088 272.022 237.088 272.255 237.088 272.255C237.088 272.487 236.868 272.487 236.868 272.487C236.648 272.487 236.648 272.255 236.648 272.255C236.428 272.255 236.648 272.022 236.868 272.022Z" fill="#CCDDF2"/>
<path d="M254.902 272.254C255.122 272.487 254.902 272.487 254.902 272.487C254.682 272.487 254.682 272.487 254.902 272.254C254.682 272.254 254.682 272.254 254.902 272.254Z" fill="#CCDDF2"/>
<path d="M2.19935 253.124C0.984696 253.124 2.24113e-05 254.168 2.24113e-05 255.457C2.24113e-05 256.745 0.984696 257.79 2.19935 257.79C3.41401 257.79 4.39868 256.745 4.39868 255.457C4.39868 254.168 3.41401 253.124 2.19935 253.124Z" fill="#CCDDF2"/>
<path d="M20.2338 253.357C21.3335 253.357 22.2133 254.29 22.2133 255.457C22.2133 256.623 21.3335 257.556 20.2338 257.556C19.1342 257.556 18.2545 256.623 18.2545 255.457C18.2545 254.29 19.1342 253.357 20.2338 253.357Z" fill="#CCDDF2"/>
<path d="M38.2684 253.59C39.3681 253.59 40.2478 254.524 40.2478 255.69C40.2478 256.856 39.3681 257.79 38.2684 257.79C37.1688 257.79 36.289 256.856 36.289 255.69C36.5089 254.524 37.3887 253.59 38.2684 253.59Z" fill="#CCDDF2"/>
<path d="M56.3029 253.591C55.3312 253.591 54.5434 254.426 54.5434 255.457C54.5434 256.488 55.3312 257.323 56.3029 257.323C57.2746 257.323 58.0624 256.488 58.0624 255.457C58.0624 254.426 57.2746 253.591 56.3029 253.591Z" fill="#CCDDF2"/>
<path d="M74.3373 253.824C75.217 253.824 75.8768 254.523 75.8768 255.457C75.8768 256.39 75.217 257.09 74.3373 257.09C73.4576 257.09 72.7978 256.39 72.7978 255.457C72.7978 254.523 73.4576 253.824 74.3373 253.824Z" fill="#CCDDF2"/>
<path d="M92.3719 254.057C93.2516 254.057 93.9114 254.757 93.9114 255.69C93.9114 256.623 93.2516 257.323 92.3719 257.323C91.4921 257.323 90.8323 256.623 90.8323 255.69C91.0523 254.757 91.7121 254.057 92.3719 254.057Z" fill="#CCDDF2"/>
<path d="M110.626 254.057C109.898 254.057 109.307 254.683 109.307 255.457C109.307 256.23 109.898 256.856 110.626 256.856C111.355 256.856 111.946 256.23 111.946 255.457C111.946 254.683 111.355 254.057 110.626 254.057Z" fill="#CCDDF2"/>
<path d="M128.661 254.291C129.321 254.291 129.76 254.758 129.76 255.457C129.76 256.157 129.321 256.623 128.661 256.623C128.001 256.623 127.561 256.157 127.561 255.457C127.341 254.758 128.001 254.291 128.661 254.291Z" fill="#CCDDF2"/>
<path d="M146.695 254.524C147.355 254.524 147.795 254.991 147.795 255.69C147.795 256.39 147.355 256.856 146.695 256.856C146.036 256.856 145.596 256.39 145.596 255.69C145.596 254.991 146.036 254.524 146.695 254.524Z" fill="#CCDDF2"/>
<path d="M164.73 254.524C164.244 254.524 163.85 254.942 163.85 255.457C163.85 255.972 164.244 256.39 164.73 256.39C165.216 256.39 165.61 255.972 165.61 255.457C165.61 254.942 165.216 254.524 164.73 254.524Z" fill="#CCDDF2"/>
<path d="M182.764 254.757C183.204 254.757 183.424 254.991 183.424 255.457C183.424 255.923 183.204 256.157 182.764 256.157C182.325 256.157 182.105 255.923 182.105 255.457C181.885 254.991 182.325 254.757 182.764 254.757Z" fill="#CCDDF2"/>
<path d="M200.799 254.991C201.019 254.991 201.459 255.224 201.459 255.69C201.459 256.157 201.239 256.39 200.799 256.39C200.579 256.39 200.139 256.157 200.139 255.69C200.139 255.224 200.359 254.991 200.799 254.991Z" fill="#CCDDF2"/>
<path d="M218.833 254.99C218.59 254.99 218.394 255.199 218.394 255.457C218.394 255.714 218.59 255.923 218.833 255.923C219.076 255.923 219.273 255.714 219.273 255.457C219.273 255.199 219.076 254.99 218.833 254.99Z" fill="#CCDDF2"/>
<path d="M236.868 255.224C237.088 255.224 237.088 255.457 237.088 255.457C237.088 255.69 236.868 255.69 236.868 255.69C236.648 255.69 236.648 255.457 236.648 255.457C236.428 255.457 236.648 255.224 236.868 255.224Z" fill="#CCDDF2"/>
<path d="M254.902 255.456C255.122 255.69 254.902 255.69 254.902 255.69C254.682 255.69 254.682 255.69 254.902 255.456C254.682 255.456 254.682 255.456 254.902 255.456Z" fill="#CCDDF2"/>
<path d="M2.19935 236.327C0.984696 236.327 2.24113e-05 237.371 2.24113e-05 238.66C2.24113e-05 239.948 0.984696 240.993 2.19935 240.993C3.41401 240.993 4.39868 239.948 4.39868 238.66C4.39868 237.371 3.41401 236.327 2.19935 236.327Z" fill="#CCDDF2"/>
<path d="M20.2338 236.56C21.3335 236.56 22.2133 237.493 22.2133 238.66C22.2133 239.826 21.3335 240.759 20.2338 240.759C19.1342 240.759 18.2545 239.826 18.2545 238.66C18.2545 237.493 19.1342 236.56 20.2338 236.56Z" fill="#CCDDF2"/>
<path d="M38.2684 236.56C39.3681 236.56 40.2478 237.493 40.2478 238.66C40.2478 239.826 39.3681 240.759 38.2684 240.759C37.1688 240.759 36.289 239.826 36.289 238.66C36.5089 237.493 37.3887 236.56 38.2684 236.56Z" fill="#CCDDF2"/>
<path d="M56.3029 236.794C55.3312 236.794 54.5434 237.629 54.5434 238.66C54.5434 239.691 55.3312 240.526 56.3029 240.526C57.2746 240.526 58.0624 239.691 58.0624 238.66C58.0624 237.629 57.2746 236.794 56.3029 236.794Z" fill="#CCDDF2"/>
<path d="M74.3373 237.026C75.217 237.026 75.8768 237.726 75.8768 238.659C75.8768 239.593 75.217 240.292 74.3373 240.292C73.4576 240.292 72.7978 239.593 72.7978 238.659C72.7978 237.726 73.4576 237.026 74.3373 237.026Z" fill="#CCDDF2"/>
<path d="M92.3719 237.026C93.2516 237.026 93.9114 237.726 93.9114 238.659C93.9114 239.593 93.2516 240.292 92.3719 240.292C91.4921 240.292 90.8323 239.593 90.8323 238.659C91.0523 237.726 91.7121 237.026 92.3719 237.026Z" fill="#CCDDF2"/>
<path d="M110.626 237.26C109.898 237.26 109.307 237.887 109.307 238.66C109.307 239.433 109.898 240.059 110.626 240.059C111.355 240.059 111.946 239.433 111.946 238.66C111.946 237.887 111.355 237.26 110.626 237.26Z" fill="#CCDDF2"/>
<path d="M128.661 237.494C129.321 237.494 129.76 237.96 129.76 238.66C129.76 239.36 129.321 239.826 128.661 239.826C128.001 239.826 127.561 239.36 127.561 238.66C127.341 237.96 128.001 237.494 128.661 237.494Z" fill="#CCDDF2"/>
<path d="M146.695 237.494C146.088 237.494 145.596 238.016 145.596 238.66C145.596 239.304 146.088 239.826 146.695 239.826C147.303 239.826 147.795 239.304 147.795 238.66C147.795 238.016 147.303 237.494 146.695 237.494Z" fill="#CCDDF2"/>
<path d="M164.73 237.727C164.244 237.727 163.85 238.145 163.85 238.66C163.85 239.175 164.244 239.593 164.73 239.593C165.216 239.593 165.61 239.175 165.61 238.66C165.61 238.145 165.216 237.727 164.73 237.727Z" fill="#CCDDF2"/>
<path d="M182.764 237.96C183.204 237.96 183.424 238.194 183.424 238.66C183.424 239.127 183.204 239.36 182.764 239.36C182.325 239.36 182.105 239.127 182.105 238.66C181.885 238.194 182.325 237.96 182.764 237.96Z" fill="#CCDDF2"/>
<path d="M200.799 237.96C201.019 237.96 201.459 238.194 201.459 238.66C201.459 239.127 201.239 239.36 200.799 239.36C200.579 239.36 200.139 239.127 200.139 238.66C200.139 238.194 200.359 237.96 200.799 237.96Z" fill="#CCDDF2"/>
<path d="M218.833 238.193C218.59 238.193 218.394 238.402 218.394 238.66C218.394 238.917 218.59 239.126 218.833 239.126C219.076 239.126 219.273 238.917 219.273 238.66C219.273 238.402 219.076 238.193 218.833 238.193Z" fill="#CCDDF2"/>
<path d="M236.868 238.427C236.746 238.427 236.648 238.532 236.648 238.66C236.648 238.789 236.746 238.893 236.868 238.893C236.989 238.893 237.088 238.789 237.088 238.66C237.088 238.532 236.989 238.427 236.868 238.427Z" fill="#CCDDF2"/>
<path d="M254.902 238.427C255.122 238.66 254.902 238.66 254.902 238.66C254.682 238.893 254.682 238.66 254.902 238.427C254.682 238.427 254.682 238.66 254.902 238.427Z" fill="#CCDDF2"/>
<path d="M2.19935 219.529C0.984696 219.529 2.24113e-05 220.574 2.24113e-05 221.862C2.24113e-05 223.15 0.984696 224.195 2.19935 224.195C3.41401 224.195 4.39868 223.15 4.39868 221.862C4.39868 220.574 3.41401 219.529 2.19935 219.529Z" fill="#CCDDF2"/>
<path d="M20.2338 219.529C21.3335 219.529 22.2133 220.463 22.2133 221.629C22.2133 222.795 21.3335 223.729 20.2338 223.729C19.1342 223.729 18.2545 222.795 18.2545 221.629C18.2545 220.463 19.1342 219.529 20.2338 219.529Z" fill="#CCDDF2"/>
<path d="M38.2684 219.763C39.3681 219.763 40.2478 220.696 40.2478 221.862C40.2478 223.029 39.3681 223.962 38.2684 223.962C37.1688 223.962 36.289 223.029 36.289 221.862C36.5089 220.696 37.3887 219.763 38.2684 219.763Z" fill="#CCDDF2"/>
<path d="M56.3029 219.996C55.3312 219.996 54.5434 220.832 54.5434 221.862C54.5434 222.893 55.3312 223.729 56.3029 223.729C57.2746 223.729 58.0624 222.893 58.0624 221.862C58.0624 220.832 57.2746 219.996 56.3029 219.996Z" fill="#CCDDF2"/>
<path d="M74.3373 220.229C73.487 220.229 72.7978 220.96 72.7978 221.862C72.7978 222.764 73.487 223.495 74.3373 223.495C75.1876 223.495 75.8768 222.764 75.8768 221.862C75.8768 220.96 75.1876 220.229 74.3373 220.229Z" fill="#CCDDF2"/>
<path d="M92.3719 220.229C93.2516 220.229 93.9114 220.929 93.9114 221.862C93.9114 222.795 93.2516 223.495 92.3719 223.495C91.4921 223.495 90.8323 222.795 90.8323 221.862C90.8323 220.929 91.7121 220.229 92.3719 220.229Z" fill="#CCDDF2"/>
<path d="M110.626 220.462C109.898 220.462 109.307 221.089 109.307 221.862C109.307 222.635 109.898 223.262 110.626 223.262C111.355 223.262 111.946 222.635 111.946 221.862C111.946 221.089 111.355 220.462 110.626 220.462Z" fill="#CCDDF2"/>
<path d="M128.661 220.463C129.321 220.463 129.76 220.929 129.76 221.629C129.76 222.329 129.321 222.795 128.661 222.795C128.001 222.795 127.561 222.329 127.561 221.629C127.561 220.929 128.001 220.463 128.661 220.463Z" fill="#CCDDF2"/>
<path d="M146.695 220.696C147.355 220.696 147.795 221.163 147.795 221.862C147.795 222.562 147.355 223.028 146.695 223.028C146.036 223.028 145.596 222.562 145.596 221.862C145.596 221.163 146.036 220.696 146.695 220.696Z" fill="#CCDDF2"/>
<path d="M164.73 220.929C164.244 220.929 163.85 221.347 163.85 221.862C163.85 222.378 164.244 222.795 164.73 222.795C165.216 222.795 165.61 222.378 165.61 221.862C165.61 221.347 165.216 220.929 164.73 220.929Z" fill="#CCDDF2"/>
<path d="M182.764 220.929C183.204 220.929 183.424 221.162 183.424 221.629C183.424 222.095 183.204 222.328 182.764 222.328C182.325 222.328 182.105 222.095 182.105 221.629C181.885 221.396 182.325 220.929 182.764 220.929Z" fill="#CCDDF2"/>
<path d="M200.799 221.163C201.019 221.163 201.459 221.396 201.459 221.862C201.459 222.329 201.239 222.562 200.799 222.562C200.579 222.562 200.139 222.329 200.139 221.862C200.139 221.396 200.359 221.163 200.799 221.163Z" fill="#CCDDF2"/>
<path d="M218.833 221.396C218.59 221.396 218.394 221.604 218.394 221.862C218.394 222.12 218.59 222.328 218.833 222.328C219.076 222.328 219.273 222.12 219.273 221.862C219.273 221.604 219.076 221.396 218.833 221.396Z" fill="#CCDDF2"/>
<path d="M236.868 221.629C236.746 221.629 236.648 221.734 236.648 221.862C236.648 221.991 236.746 222.095 236.868 222.095C236.989 222.095 237.088 221.991 237.088 221.862C237.088 221.734 236.989 221.629 236.868 221.629Z" fill="#CCDDF2"/>
<path d="M254.902 221.628C255.122 221.862 254.902 221.862 254.902 221.862C254.682 221.862 254.682 221.862 254.902 221.628C254.682 221.628 254.682 221.628 254.902 221.628Z" fill="#CCDDF2"/>
<path d="M2.19935 202.499C0.984696 202.499 2.24113e-05 203.544 2.24113e-05 204.832C2.24113e-05 206.121 0.984696 207.165 2.19935 207.165C3.41401 207.165 4.39868 206.121 4.39868 204.832C4.39868 203.544 3.41401 202.499 2.19935 202.499Z" fill="#CCDDF2"/>
<path d="M20.2338 202.732C21.3335 202.732 22.2133 203.666 22.2133 204.832C22.2133 205.998 21.3335 206.932 20.2338 206.932C19.1342 206.932 18.2545 205.998 18.2545 204.832C18.2545 203.666 19.1342 202.732 20.2338 202.732Z" fill="#CCDDF2"/>
<path d="M38.2684 202.966C39.3681 202.966 40.2478 203.899 40.2478 205.065C40.2478 206.232 39.3681 207.165 38.2684 207.165C37.1688 207.165 36.289 206.232 36.289 205.065C36.5089 203.666 37.3887 202.966 38.2684 202.966Z" fill="#CCDDF2"/>
<path d="M56.3029 202.966C55.3312 202.966 54.5434 203.802 54.5434 204.832C54.5434 205.863 55.3312 206.699 56.3029 206.699C57.2746 206.699 58.0624 205.863 58.0624 204.832C58.0624 203.802 57.2746 202.966 56.3029 202.966Z" fill="#CCDDF2"/>
<path d="M74.3373 203.199C73.487 203.199 72.7978 203.93 72.7978 204.832C72.7978 205.734 73.487 206.465 74.3373 206.465C75.1876 206.465 75.8768 205.734 75.8768 204.832C75.8768 203.93 75.1876 203.199 74.3373 203.199Z" fill="#CCDDF2"/>
<path d="M92.3719 203.433C93.2516 203.433 93.9114 204.133 93.9114 205.066C93.9114 205.999 93.2516 206.699 92.3719 206.699C91.4921 206.699 90.8323 205.999 90.8323 205.066C91.0523 204.133 91.7121 203.433 92.3719 203.433Z" fill="#CCDDF2"/>
<path d="M110.626 203.432C109.898 203.432 109.307 204.059 109.307 204.832C109.307 205.605 109.898 206.232 110.626 206.232C111.355 206.232 111.946 205.605 111.946 204.832C111.946 204.059 111.355 203.432 110.626 203.432Z" fill="#CCDDF2"/>
<path d="M128.661 203.667C129.321 203.667 129.76 204.133 129.76 204.833C129.76 205.532 129.321 205.999 128.661 205.999C128.001 205.999 127.561 205.532 127.561 204.833C127.341 204.133 128.001 203.667 128.661 203.667Z" fill="#CCDDF2"/>
<path d="M146.695 203.9C147.355 203.9 147.795 204.366 147.795 205.066C147.795 205.765 147.355 206.232 146.695 206.232C146.036 206.232 145.596 205.765 145.596 205.066C145.596 204.366 146.036 203.9 146.695 203.9Z" fill="#CCDDF2"/>
<path d="M164.73 203.899C164.244 203.899 163.85 204.317 163.85 204.832C163.85 205.347 164.244 205.765 164.73 205.765C165.216 205.765 165.61 205.347 165.61 204.832C165.61 204.317 165.216 203.899 164.73 203.899Z" fill="#CCDDF2"/>
<path d="M182.764 204.133C183.204 204.133 183.424 204.366 183.424 204.832C183.424 205.299 183.204 205.532 182.764 205.532C182.325 205.532 182.105 205.299 182.105 204.832C181.885 204.366 182.325 204.133 182.764 204.133Z" fill="#CCDDF2"/>
<path d="M200.799 204.366C201.019 204.366 201.459 204.599 201.459 205.066C201.459 205.299 201.239 205.765 200.799 205.765C200.579 205.765 200.139 205.532 200.139 205.066C200.139 204.599 200.359 204.366 200.799 204.366Z" fill="#CCDDF2"/>
<path d="M218.833 204.366C218.59 204.366 218.394 204.574 218.394 204.832C218.394 205.09 218.59 205.298 218.833 205.298C219.076 205.298 219.273 205.09 219.273 204.832C219.273 204.574 219.076 204.366 218.833 204.366Z" fill="#CCDDF2"/>
<path d="M236.868 204.6C237.088 204.6 237.088 204.833 237.088 204.833C237.088 205.065 236.868 205.065 236.868 205.065C236.648 205.065 236.648 204.833 236.648 204.833C236.428 204.6 236.648 204.6 236.868 204.6Z" fill="#CCDDF2"/>
<path d="M254.902 204.832C255.122 205.065 254.902 205.065 254.902 205.065C254.682 205.065 254.682 205.065 254.902 204.832C254.682 204.832 254.682 204.832 254.902 204.832Z" fill="#CCDDF2"/>
<path d="M2.19935 185.701C0.984696 185.701 2.24113e-05 186.746 2.24113e-05 188.034C2.24113e-05 189.323 0.984696 190.367 2.19935 190.367C3.41401 190.367 4.39868 189.323 4.39868 188.034C4.39868 186.746 3.41401 185.701 2.19935 185.701Z" fill="#CCDDF2"/>
<path d="M20.2338 185.935C21.3335 185.935 22.2133 186.868 22.2133 188.034C22.2133 189.201 21.3335 190.134 20.2338 190.134C19.1342 190.134 18.2545 189.201 18.2545 188.034C18.2545 186.868 19.1342 185.935 20.2338 185.935Z" fill="#CCDDF2"/>
<path d="M38.2684 185.935C39.3681 185.935 40.2478 186.868 40.2478 188.034C40.2478 189.201 39.3681 190.134 38.2684 190.134C37.1688 190.134 36.289 189.201 36.289 188.034C36.5089 186.868 37.3887 185.935 38.2684 185.935Z" fill="#CCDDF2"/>
<path d="M56.3029 186.168C57.1826 186.168 58.0624 187.101 58.0624 188.035C58.0624 188.968 57.1826 189.901 56.3029 189.901C55.4232 189.901 54.5434 188.968 54.5434 188.035C54.5434 186.868 55.4232 186.168 56.3029 186.168Z" fill="#CCDDF2"/>
<path d="M74.3373 186.401C75.217 186.401 75.8768 187.101 75.8768 188.034C75.8768 188.967 75.217 189.667 74.3373 189.667C73.4576 189.667 72.7978 188.967 72.7978 188.034C72.7978 187.101 73.4576 186.401 74.3373 186.401Z" fill="#CCDDF2"/>
<path d="M92.3719 186.401C93.2516 186.401 93.9114 187.101 93.9114 188.034C93.9114 188.967 93.2516 189.667 92.3719 189.667C91.4921 189.667 90.8323 188.967 90.8323 188.034C91.0523 187.101 91.7121 186.401 92.3719 186.401Z" fill="#CCDDF2"/>
<path d="M110.626 186.634C111.286 186.634 111.946 187.334 111.946 188.034C111.946 188.734 111.286 189.434 110.626 189.434C109.967 189.434 109.307 188.734 109.307 188.034C109.307 187.334 109.747 186.634 110.626 186.634Z" fill="#CCDDF2"/>
<path d="M128.661 186.869C129.321 186.869 129.76 187.335 129.76 188.035C129.76 188.734 129.321 189.201 128.661 189.201C128.001 189.201 127.561 188.734 127.561 188.035C127.341 187.335 128.001 186.869 128.661 186.869Z" fill="#CCDDF2"/>
<path d="M146.695 186.869C147.355 186.869 147.795 187.335 147.795 188.035C147.795 188.734 147.355 189.201 146.695 189.201C146.036 189.201 145.596 188.734 145.596 188.035C145.596 187.335 146.036 186.869 146.695 186.869Z" fill="#CCDDF2"/>
<path d="M164.73 187.102C165.17 187.102 165.61 187.568 165.61 188.035C165.61 188.501 165.17 188.968 164.73 188.968C164.29 188.968 163.85 188.501 163.85 188.035C163.85 187.568 164.07 187.102 164.73 187.102Z" fill="#CCDDF2"/>
<path d="M182.764 187.335C183.204 187.335 183.424 187.568 183.424 188.035C183.424 188.501 183.204 188.734 182.764 188.734C182.325 188.734 182.105 188.501 182.105 188.035C181.885 187.568 182.325 187.335 182.764 187.335Z" fill="#CCDDF2"/>
<path d="M200.799 187.335C201.019 187.335 201.459 187.568 201.459 188.035C201.459 188.268 201.239 188.734 200.799 188.734C200.579 188.734 200.139 188.501 200.139 188.035C200.139 187.568 200.359 187.335 200.799 187.335Z" fill="#CCDDF2"/>
<path d="M218.833 187.568C219.053 187.568 219.273 187.801 219.273 188.034C219.273 188.267 219.053 188.501 218.833 188.501C218.613 188.501 218.394 188.267 218.394 188.034C218.394 187.801 218.613 187.568 218.833 187.568Z" fill="#CCDDF2"/>
<path d="M236.868 187.802C237.088 187.802 237.088 188.035 237.088 188.035C237.088 188.267 236.868 188.267 236.868 188.267C236.648 188.267 236.648 188.035 236.648 188.035C236.428 187.802 236.648 187.802 236.868 187.802Z" fill="#CCDDF2"/>
<path d="M254.902 187.802C255.122 188.035 254.902 188.035 254.902 188.035C254.682 188.267 254.682 188.035 254.902 187.802C254.682 187.802 254.682 187.802 254.902 187.802Z" fill="#CCDDF2"/>
<path d="M2.19935 168.671C0.984696 168.671 2.24113e-05 169.716 2.24113e-05 171.004C2.24113e-05 172.293 0.984696 173.337 2.19935 173.337C3.41401 173.337 4.39868 172.293 4.39868 171.004C4.39868 169.716 3.41401 168.671 2.19935 168.671Z" fill="#CCDDF2"/>
<path d="M20.2338 168.905C21.3335 168.905 22.2133 169.838 22.2133 171.004C22.2133 172.171 21.3335 173.104 20.2338 173.104C19.1342 173.104 18.2545 172.171 18.2545 171.004C18.2545 169.838 19.1342 168.905 20.2338 168.905Z" fill="#CCDDF2"/>
<path d="M38.2684 169.138C39.3681 169.138 40.2478 170.071 40.2478 171.238C40.2478 172.404 39.3681 173.337 38.2684 173.337C37.1688 173.337 36.289 172.404 36.289 171.238C36.5089 170.071 37.3887 169.138 38.2684 169.138Z" fill="#CCDDF2"/>
<path d="M56.3029 169.138C55.3312 169.138 54.5434 169.973 54.5434 171.004C54.5434 172.035 55.3312 172.871 56.3029 172.871C57.2746 172.871 58.0624 172.035 58.0624 171.004C58.0624 169.973 57.2746 169.138 56.3029 169.138Z" fill="#CCDDF2"/>
<path d="M74.3373 169.371C75.217 169.371 75.8768 170.071 75.8768 171.004C75.8768 171.937 75.217 172.637 74.3373 172.637C73.4576 172.637 72.7978 171.937 72.7978 171.004C72.7978 170.071 73.4576 169.371 74.3373 169.371Z" fill="#CCDDF2"/>
<path d="M92.3719 169.604C93.2516 169.604 93.9114 170.304 93.9114 171.238C93.9114 172.171 93.2516 172.871 92.3719 172.871C91.4921 172.871 90.8323 172.171 90.8323 171.238C91.0523 170.304 91.7121 169.604 92.3719 169.604Z" fill="#CCDDF2"/>
<path d="M110.626 169.604C109.898 169.604 109.307 170.231 109.307 171.004C109.307 171.777 109.898 172.404 110.626 172.404C111.355 172.404 111.946 171.777 111.946 171.004C111.946 170.231 111.355 169.604 110.626 169.604Z" fill="#CCDDF2"/>
<path d="M128.661 169.839C129.321 169.839 129.76 170.305 129.76 171.005C129.76 171.704 129.321 172.171 128.661 172.171C128.001 172.171 127.561 171.704 127.561 171.005C127.341 170.538 128.001 169.839 128.661 169.839Z" fill="#CCDDF2"/>
<path d="M146.695 170.072C147.355 170.072 147.795 170.538 147.795 171.238C147.795 171.937 147.355 172.404 146.695 172.404C146.036 172.404 145.596 171.937 145.596 171.238C145.596 170.538 146.036 170.072 146.695 170.072Z" fill="#CCDDF2"/>
<path d="M164.73 170.071C164.244 170.071 163.85 170.489 163.85 171.004C163.85 171.519 164.244 171.937 164.73 171.937C165.216 171.937 165.61 171.519 165.61 171.004C165.61 170.489 165.216 170.071 164.73 170.071Z" fill="#CCDDF2"/>
<path d="M182.764 170.305C183.204 170.305 183.424 170.538 183.424 171.004C183.424 171.471 183.204 171.704 182.764 171.704C182.325 171.704 182.105 171.471 182.105 171.004C181.885 170.771 182.325 170.305 182.764 170.305Z" fill="#CCDDF2"/>
<path d="M200.799 170.538C201.019 170.538 201.459 170.771 201.459 171.238C201.459 171.471 201.239 171.937 200.799 171.937C200.579 171.937 200.139 171.704 200.139 171.238C200.139 170.771 200.359 170.538 200.799 170.538Z" fill="#CCDDF2"/>
<path d="M218.833 170.538C218.59 170.538 218.394 170.746 218.394 171.004C218.394 171.262 218.59 171.47 218.833 171.47C219.076 171.47 219.273 171.262 219.273 171.004C219.273 170.746 219.076 170.538 218.833 170.538Z" fill="#CCDDF2"/>
<path d="M236.868 170.772C237.088 170.772 237.088 171.005 237.088 171.005C237.088 171.237 236.868 171.237 236.868 171.237C236.648 171.237 236.648 171.005 236.648 171.005C236.428 171.005 236.648 170.772 236.868 170.772Z" fill="#CCDDF2"/>
<path d="M254.902 171.004C255.122 171.237 254.902 171.237 254.902 171.237C254.682 171.237 254.682 171.237 254.902 171.004C254.682 171.004 254.682 171.004 254.902 171.004Z" fill="#CCDDF2"/>
<path d="M2.19935 151.874C0.984696 151.874 2.24113e-05 152.919 2.24113e-05 154.207C2.24113e-05 155.496 0.984696 156.54 2.19935 156.54C3.41401 156.54 4.39868 155.496 4.39868 154.207C4.39868 152.919 3.41401 151.874 2.19935 151.874Z" fill="#CCDDF2"/>
<path d="M20.2338 152.108C21.3335 152.108 22.2133 153.041 22.2133 154.207C22.2133 155.374 21.3335 156.307 20.2338 156.307C19.1342 156.307 18.2545 155.374 18.2545 154.207C18.2545 153.041 19.1342 152.108 20.2338 152.108Z" fill="#CCDDF2"/>
<path d="M38.2684 152.108C39.3681 152.108 40.2478 153.041 40.2478 154.207C40.2478 155.374 39.3681 156.307 38.2684 156.307C37.1688 156.307 36.289 155.374 36.289 154.207C36.5089 153.041 37.3887 152.108 38.2684 152.108Z" fill="#CCDDF2"/>
<path d="M56.3029 152.341C55.3312 152.341 54.5434 153.177 54.5434 154.207C54.5434 155.238 55.3312 156.074 56.3029 156.074C57.2746 156.074 58.0624 155.238 58.0624 154.207C58.0624 153.177 57.2746 152.341 56.3029 152.341Z" fill="#CCDDF2"/>
<path d="M74.3373 152.574C75.217 152.574 75.8768 153.274 75.8768 154.207C75.8768 155.14 75.217 155.84 74.3373 155.84C73.4576 155.84 72.7978 155.14 72.7978 154.207C72.7978 153.274 73.4576 152.574 74.3373 152.574Z" fill="#CCDDF2"/>
<path d="M92.3719 152.574C93.2516 152.574 93.9114 153.274 93.9114 154.207C93.9114 155.14 93.2516 155.84 92.3719 155.84C91.4921 155.84 90.8323 155.14 90.8323 154.207C90.8323 153.274 91.7121 152.574 92.3719 152.574Z" fill="#CCDDF2"/>
<path d="M110.626 152.807C109.898 152.807 109.307 153.434 109.307 154.207C109.307 154.98 109.898 155.607 110.626 155.607C111.355 155.607 111.946 154.98 111.946 154.207C111.946 153.434 111.355 152.807 110.626 152.807Z" fill="#CCDDF2"/>
<path d="M128.661 153.042C129.321 153.042 129.76 153.508 129.76 154.208C129.76 154.907 129.321 155.374 128.661 155.374C128.001 155.374 127.561 154.907 127.561 154.208C127.341 153.508 128.001 153.042 128.661 153.042Z" fill="#CCDDF2"/>
<path d="M146.695 153.042C146.088 153.042 145.596 153.564 145.596 154.208C145.596 154.852 146.088 155.374 146.695 155.374C147.303 155.374 147.795 154.852 147.795 154.208C147.795 153.564 147.303 153.042 146.695 153.042Z" fill="#CCDDF2"/>
<path d="M164.73 153.275C164.244 153.275 163.85 153.692 163.85 154.207C163.85 154.723 164.244 155.14 164.73 155.14C165.216 155.14 165.61 154.723 165.61 154.207C165.61 153.692 165.216 153.275 164.73 153.275Z" fill="#CCDDF2"/>
<path d="M182.764 153.508C183.204 153.508 183.424 153.741 183.424 154.208C183.424 154.674 183.204 154.907 182.764 154.907C182.325 154.907 182.105 154.674 182.105 154.208C182.105 153.741 182.325 153.508 182.764 153.508Z" fill="#CCDDF2"/>
<path d="M200.799 153.508C201.019 153.508 201.459 153.741 201.459 154.208C201.459 154.674 201.239 154.907 200.799 154.907C200.579 154.907 200.139 154.674 200.139 154.208C200.139 153.741 200.359 153.508 200.799 153.508Z" fill="#CCDDF2"/>
<path d="M218.833 153.741C218.59 153.741 218.394 153.949 218.394 154.207C218.394 154.465 218.59 154.673 218.833 154.673C219.076 154.673 219.273 154.465 219.273 154.207C219.273 153.949 219.076 153.741 218.833 153.741Z" fill="#CCDDF2"/>
<path d="M236.868 153.975C237.088 153.975 237.088 154.207 237.088 154.207C237.088 154.44 236.868 154.44 236.868 154.44C236.648 154.44 236.648 154.207 236.648 154.207C236.428 153.975 236.648 153.975 236.868 153.975Z" fill="#CCDDF2"/>
<path d="M254.902 153.975C255.122 154.207 254.902 154.207 254.902 154.207C254.682 154.44 254.682 154.207 254.902 153.975C254.682 153.975 254.682 154.207 254.902 153.975Z" fill="#CCDDF2"/>
<path d="M2.19935 135.077C0.984696 135.077 2.24113e-05 136.122 2.24113e-05 137.41C2.24113e-05 138.698 0.984696 139.743 2.19935 139.743C3.41401 139.743 4.39868 138.698 4.39868 137.41C4.39868 136.122 3.41401 135.077 2.19935 135.077Z" fill="#CCDDF2"/>
<path d="M20.2338 135.077C21.3335 135.077 22.2133 136.011 22.2133 137.177C22.2133 138.344 21.3335 139.277 20.2338 139.277C19.1342 139.277 18.2545 138.344 18.2545 137.177C18.2545 136.244 19.1342 135.077 20.2338 135.077Z" fill="#CCDDF2"/>
<path d="M38.2684 135.311C39.3681 135.311 40.2478 136.244 40.2478 137.41C40.2478 138.577 39.3681 139.51 38.2684 139.51C37.1688 139.51 36.289 138.577 36.289 137.41C36.5089 136.244 37.3887 135.311 38.2684 135.311Z" fill="#CCDDF2"/>
<path d="M56.3029 135.544C55.3312 135.544 54.5434 136.38 54.5434 137.41C54.5434 138.441 55.3312 139.277 56.3029 139.277C57.2746 139.277 58.0624 138.441 58.0624 137.41C58.0624 136.38 57.2746 135.544 56.3029 135.544Z" fill="#CCDDF2"/>
<path d="M74.3373 135.777C73.487 135.777 72.7978 136.508 72.7978 137.41C72.7978 138.312 73.487 139.043 74.3373 139.043C75.1876 139.043 75.8768 138.312 75.8768 137.41C75.8768 136.508 75.1876 135.777 74.3373 135.777Z" fill="#CCDDF2"/>
<path d="M92.3719 135.777C93.2516 135.777 93.9114 136.477 93.9114 137.41C93.9114 138.343 93.2516 139.043 92.3719 139.043C91.4921 139.043 90.8323 138.343 90.8323 137.41C91.0523 136.477 91.7121 135.777 92.3719 135.777Z" fill="#CCDDF2"/>
<path d="M110.626 136.01C109.898 136.01 109.307 136.637 109.307 137.41C109.307 138.183 109.898 138.81 110.626 138.81C111.355 138.81 111.946 138.183 111.946 137.41C111.946 136.637 111.355 136.01 110.626 136.01Z" fill="#CCDDF2"/>
<path d="M128.661 136.011C129.321 136.011 129.76 136.478 129.76 137.177C129.76 137.877 129.321 138.343 128.661 138.343C128.001 138.343 127.561 137.877 127.561 137.177C127.341 136.711 128.001 136.011 128.661 136.011Z" fill="#CCDDF2"/>
<path d="M146.695 136.244C146.088 136.244 145.596 136.767 145.596 137.41C145.596 138.054 146.088 138.577 146.695 138.577C147.303 138.577 147.795 138.054 147.795 137.41C147.795 136.767 147.303 136.244 146.695 136.244Z" fill="#CCDDF2"/>
<path d="M164.73 136.478C164.244 136.478 163.85 136.895 163.85 137.41C163.85 137.926 164.244 138.343 164.73 138.343C165.216 138.343 165.61 137.926 165.61 137.41C165.61 136.895 165.216 136.478 164.73 136.478Z" fill="#CCDDF2"/>
<path d="M182.764 136.477C183.204 136.477 183.424 136.71 183.424 137.177C183.424 137.643 183.204 137.876 182.764 137.876C182.325 137.876 182.105 137.643 182.105 137.177C181.885 136.943 182.325 136.477 182.764 136.477Z" fill="#CCDDF2"/>
<path d="M200.799 136.711C201.019 136.711 201.459 136.944 201.459 137.411C201.459 137.877 201.239 138.11 200.799 138.11C200.579 138.11 200.139 137.877 200.139 137.411C200.139 136.944 200.359 136.711 200.799 136.711Z" fill="#CCDDF2"/>
<path d="M218.833 136.944C218.59 136.944 218.394 137.152 218.394 137.41C218.394 137.668 218.59 137.876 218.833 137.876C219.076 137.876 219.273 137.668 219.273 137.41C219.273 137.152 219.076 136.944 218.833 136.944Z" fill="#CCDDF2"/>
<path d="M236.868 137.177C236.746 137.177 236.648 137.282 236.648 137.41C236.648 137.539 236.746 137.643 236.868 137.643C236.989 137.643 237.088 137.539 237.088 137.41C237.088 137.282 236.989 137.177 236.868 137.177Z" fill="#CCDDF2"/>
<path d="M254.902 137.176C255.122 137.41 254.902 137.41 254.902 137.41C254.682 137.41 254.682 137.41 254.902 137.176C254.682 137.176 254.682 137.176 254.902 137.176Z" fill="#CCDDF2"/>
<path d="M2.19935 118.047C0.984696 118.047 2.24113e-05 119.091 2.24113e-05 120.379C2.24113e-05 121.668 0.984696 122.712 2.19935 122.712C3.41401 122.712 4.39868 121.668 4.39868 120.379C4.39868 119.091 3.41401 118.047 2.19935 118.047Z" fill="#CCDDF2"/>
<path d="M20.2338 118.28C21.3335 118.28 22.2133 119.213 22.2133 120.38C22.2133 121.546 21.3335 122.479 20.2338 122.479C19.1342 122.479 18.2545 121.546 18.2545 120.38C18.2545 119.213 19.1342 118.28 20.2338 118.28Z" fill="#CCDDF2"/>
<path d="M38.2684 118.513C39.3681 118.513 40.2478 119.446 40.2478 120.613C40.2478 121.779 39.3681 122.712 38.2684 122.712C37.1688 122.712 36.289 121.779 36.289 120.613C36.5089 119.446 37.3887 118.513 38.2684 118.513Z" fill="#CCDDF2"/>
<path d="M56.3029 118.513C55.3312 118.513 54.5434 119.349 54.5434 120.38C54.5434 121.41 55.3312 122.246 56.3029 122.246C57.2746 122.246 58.0624 121.41 58.0624 120.38C58.0624 119.349 57.2746 118.513 56.3029 118.513Z" fill="#CCDDF2"/>
<path d="M74.3373 118.747C73.487 118.747 72.7978 119.478 72.7978 120.38C72.7978 121.282 73.487 122.013 74.3373 122.013C75.1876 122.013 75.8768 121.282 75.8768 120.38C75.8768 119.478 75.1876 118.747 74.3373 118.747Z" fill="#CCDDF2"/>
<path d="M92.3719 118.98C93.2516 118.98 93.9114 119.68 93.9114 120.613C93.9114 121.546 93.2516 122.246 92.3719 122.246C91.4921 122.246 90.8323 121.546 90.8323 120.613C91.0523 119.68 91.7121 118.98 92.3719 118.98Z" fill="#CCDDF2"/>
<path d="M110.626 118.979C109.898 118.979 109.307 119.606 109.307 120.379C109.307 121.152 109.898 121.779 110.626 121.779C111.355 121.779 111.946 121.152 111.946 120.379C111.946 119.606 111.355 118.979 110.626 118.979Z" fill="#CCDDF2"/>
<path d="M128.661 119.214C129.321 119.214 129.76 119.68 129.76 120.38C129.76 121.08 129.321 121.546 128.661 121.546C128.001 121.546 127.561 121.08 127.561 120.38C127.341 119.68 128.001 119.214 128.661 119.214Z" fill="#CCDDF2"/>
<path d="M146.695 119.447C147.355 119.447 147.795 119.913 147.795 120.613C147.795 121.313 147.355 121.779 146.695 121.779C146.036 121.779 145.596 121.313 145.596 120.613C145.596 119.913 146.036 119.447 146.695 119.447Z" fill="#CCDDF2"/>
<path d="M164.73 119.447C164.244 119.447 163.85 119.865 163.85 120.38C163.85 120.895 164.244 121.313 164.73 121.313C165.216 121.313 165.61 120.895 165.61 120.38C165.61 119.865 165.216 119.447 164.73 119.447Z" fill="#CCDDF2"/>
<path d="M182.764 119.68C183.204 119.68 183.424 119.914 183.424 120.38C183.424 120.846 183.204 121.08 182.764 121.08C182.325 121.08 182.105 120.846 182.105 120.38C181.885 120.147 182.325 119.68 182.764 119.68Z" fill="#CCDDF2"/>
<path d="M200.799 119.913C201.019 119.913 201.459 120.147 201.459 120.613C201.459 120.846 201.239 121.313 200.799 121.313C200.579 121.313 200.139 121.079 200.139 120.613C200.139 120.147 200.359 119.913 200.799 119.913Z" fill="#CCDDF2"/>
<path d="M218.833 119.913C218.59 119.913 218.394 120.122 218.394 120.38C218.394 120.637 218.59 120.846 218.833 120.846C219.076 120.846 219.273 120.637 219.273 120.38C219.273 120.122 219.076 119.913 218.833 119.913Z" fill="#CCDDF2"/>
<path d="M236.868 120.147C237.088 120.147 237.088 120.38 237.088 120.38C237.088 120.613 236.868 120.613 236.868 120.613C236.648 120.613 236.648 120.38 236.648 120.38C236.428 120.38 236.648 120.147 236.868 120.147Z" fill="#CCDDF2"/>
<path d="M254.902 120.379C255.122 120.613 254.902 120.613 254.902 120.613C254.682 120.613 254.682 120.613 254.902 120.379C254.682 120.379 254.682 120.379 254.902 120.379Z" fill="#CCDDF2"/>
<path d="M2.19935 101.249C0.984696 101.249 2.24113e-05 102.294 2.24113e-05 103.582C2.24113e-05 104.871 0.984696 105.915 2.19935 105.915C3.41401 105.915 4.39868 104.871 4.39868 103.582C4.39868 102.294 3.41401 101.249 2.19935 101.249Z" fill="#CCDDF2"/>
<path d="M20.2338 101.483C21.3335 101.483 22.2133 102.416 22.2133 103.582C22.2133 104.749 21.3335 105.682 20.2338 105.682C19.1342 105.682 18.2545 104.749 18.2545 103.582C18.2545 102.416 19.1342 101.483 20.2338 101.483Z" fill="#CCDDF2"/>
<path d="M38.2684 101.483C39.3681 101.483 40.2478 102.416 40.2478 103.582C40.2478 104.749 39.3681 105.682 38.2684 105.682C37.1688 105.682 36.289 104.749 36.289 103.582C36.5089 102.416 37.3887 101.483 38.2684 101.483Z" fill="#CCDDF2"/>
<path d="M56.3029 101.716C55.3312 101.716 54.5434 102.552 54.5434 103.583C54.5434 104.613 55.3312 105.449 56.3029 105.449C57.2746 105.449 58.0624 104.613 58.0624 103.583C58.0624 102.552 57.2746 101.716 56.3029 101.716Z" fill="#CCDDF2"/>
<path d="M74.3373 101.949C75.217 101.949 75.8768 102.649 75.8768 103.582C75.8768 104.515 75.217 105.215 74.3373 105.215C73.4576 105.215 72.7978 104.515 72.7978 103.582C72.7978 102.649 73.4576 101.949 74.3373 101.949Z" fill="#CCDDF2"/>
<path d="M92.3719 101.949C93.2516 101.949 93.9114 102.649 93.9114 103.582C93.9114 104.515 93.2516 105.215 92.3719 105.215C91.4921 105.215 90.8323 104.515 90.8323 103.582C91.0523 102.649 91.7121 101.949 92.3719 101.949Z" fill="#CCDDF2"/>
<path d="M110.626 102.183C111.286 102.183 111.946 102.882 111.946 103.582C111.946 104.282 111.286 104.982 110.626 104.982C109.967 104.982 109.307 104.282 109.307 103.582C109.307 102.882 109.747 102.183 110.626 102.183Z" fill="#CCDDF2"/>
<path d="M128.661 102.417C129.321 102.417 129.76 102.883 129.76 103.583C129.76 104.282 129.321 104.749 128.661 104.749C128.001 104.749 127.561 104.282 127.561 103.583C127.341 102.883 128.001 102.417 128.661 102.417Z" fill="#CCDDF2"/>
<path d="M146.695 102.417C147.355 102.417 147.795 102.883 147.795 103.583C147.795 104.282 147.355 104.749 146.695 104.749C146.036 104.749 145.596 104.282 145.596 103.583C145.596 102.883 146.036 102.417 146.695 102.417Z" fill="#CCDDF2"/>
<path d="M164.73 102.65C165.17 102.65 165.61 103.116 165.61 103.583C165.61 104.049 165.17 104.516 164.73 104.516C164.29 104.516 163.85 104.049 163.85 103.583C163.85 103.116 164.07 102.65 164.73 102.65Z" fill="#CCDDF2"/>
<path d="M182.764 102.883C183.204 102.883 183.424 103.117 183.424 103.583C183.424 104.049 183.204 104.283 182.764 104.283C182.325 104.283 182.105 104.049 182.105 103.583C181.885 103.117 182.325 102.883 182.764 102.883Z" fill="#CCDDF2"/>
<path d="M200.799 102.883C201.019 102.883 201.459 103.117 201.459 103.583C201.459 103.816 201.239 104.283 200.799 104.283C200.579 104.283 200.139 104.049 200.139 103.583C200.139 103.117 200.359 102.883 200.799 102.883Z" fill="#CCDDF2"/>
<path d="M218.833 103.116C218.59 103.116 218.394 103.325 218.394 103.582C218.394 103.84 218.59 104.049 218.833 104.049C219.076 104.049 219.273 103.84 219.273 103.582C219.273 103.325 219.076 103.116 218.833 103.116Z" fill="#CCDDF2"/>
<path d="M236.868 103.35C237.088 103.35 237.088 103.583 237.088 103.583C237.088 103.816 236.868 103.816 236.868 103.816C236.648 103.816 236.648 103.583 236.648 103.583C236.428 103.35 236.648 103.35 236.868 103.35Z" fill="#CCDDF2"/>
<path d="M254.902 103.349C255.122 103.582 254.902 103.582 254.902 103.582C254.682 103.815 254.682 103.582 254.902 103.349C254.682 103.349 254.682 103.582 254.902 103.349Z" fill="#CCDDF2"/>
<path d="M2.19935 84.452C0.984696 84.452 2.24113e-05 85.4965 2.24113e-05 86.785C2.24113e-05 88.0734 0.984696 89.1179 2.19935 89.1179C3.41401 89.1179 4.39868 88.0734 4.39868 86.785C4.39868 85.4965 3.41401 84.452 2.19935 84.452Z" fill="#CCDDF2"/>
<path d="M20.2338 84.4519C21.3335 84.4519 22.2133 85.385 22.2133 86.5515C22.2133 87.718 21.3335 88.6511 20.2338 88.6511C19.1342 88.6511 18.2545 87.718 18.2545 86.5515C18.2545 85.385 19.1342 84.4519 20.2338 84.4519Z" fill="#CCDDF2"/>
<path d="M38.2684 84.6853C39.3681 84.6853 40.2478 85.6185 40.2478 86.785C40.2478 87.9515 39.3681 88.8846 38.2684 88.8846C37.1688 88.8846 36.289 87.9515 36.289 86.785C36.5089 85.6185 37.3887 84.6853 38.2684 84.6853Z" fill="#CCDDF2"/>
<path d="M56.3029 84.9184C57.1826 84.9184 58.0624 85.8516 58.0624 86.7848C58.0624 87.718 57.1826 88.6511 56.3029 88.6511C55.4232 88.6511 54.5434 87.718 54.5434 86.7848C54.5434 85.6183 55.4232 84.9184 56.3029 84.9184Z" fill="#CCDDF2"/>
<path d="M74.3373 84.9185C75.217 84.9185 75.8768 85.6183 75.8768 86.5515C75.8768 87.4847 75.217 88.1846 74.3373 88.1846C73.4576 88.1846 72.7978 87.4847 72.7978 86.5515C72.7978 85.6183 73.4576 84.9185 74.3373 84.9185Z" fill="#CCDDF2"/>
<path d="M92.3719 85.1518C93.2516 85.1518 93.9114 85.8517 93.9114 86.7849C93.9114 87.7181 93.2516 88.418 92.3719 88.418C91.4921 88.418 90.8323 87.7181 90.8323 86.7849C91.0523 85.8517 91.7121 85.1518 92.3719 85.1518Z" fill="#CCDDF2"/>
<path d="M110.626 85.3851C109.898 85.3851 109.307 86.0118 109.307 86.7848C109.307 87.5579 109.898 88.1846 110.626 88.1846C111.355 88.1846 111.946 87.5579 111.946 86.7848C111.946 86.0118 111.355 85.3851 110.626 85.3851Z" fill="#CCDDF2"/>
<path d="M128.661 85.386C129.321 85.386 129.76 85.8525 129.76 86.5521C129.76 87.2517 129.321 87.7181 128.661 87.7181C128.001 87.7181 127.561 87.2517 127.561 86.5521C127.341 86.0857 128.001 85.386 128.661 85.386Z" fill="#CCDDF2"/>
<path d="M146.695 85.6194C147.355 85.6194 147.795 86.0859 147.795 86.7855C147.795 87.4851 147.355 87.9515 146.695 87.9515C146.036 87.9515 145.596 87.4851 145.596 86.7855C145.596 86.0859 146.036 85.6194 146.695 85.6194Z" fill="#CCDDF2"/>
<path d="M164.73 85.8525C164.244 85.8525 163.85 86.2701 163.85 86.7853C163.85 87.3005 164.244 87.7181 164.73 87.7181C165.216 87.7181 165.61 87.3005 165.61 86.7853C165.61 86.2701 165.216 85.8525 164.73 85.8525Z" fill="#CCDDF2"/>
<path d="M182.764 85.852C183.204 85.852 183.424 86.0852 183.424 86.5516C183.424 87.018 183.204 87.2512 182.764 87.2512C182.325 87.2512 182.105 87.018 182.105 86.5516C181.885 86.3184 182.325 85.852 182.764 85.852Z" fill="#CCDDF2"/>
<path d="M200.799 86.0854C201.019 86.0854 201.459 86.3186 201.459 86.785C201.459 87.0182 201.239 87.4846 200.799 87.4846C200.579 87.4846 200.139 87.2514 200.139 86.785C200.139 86.3186 200.359 86.0854 200.799 86.0854Z" fill="#CCDDF2"/>
<path d="M218.833 86.3184C219.053 86.3184 219.273 86.5516 219.273 86.7848C219.273 87.018 219.053 87.2512 218.833 87.2512C218.613 87.2512 218.394 87.018 218.394 86.7848C218.394 86.3184 218.613 86.3184 218.833 86.3184Z" fill="#CCDDF2"/>
<path d="M236.868 86.3194C237.088 86.3194 237.088 86.5523 237.088 86.5523C237.088 86.7851 236.868 86.7852 236.868 86.7852C236.648 86.7852 236.648 86.5523 236.648 86.5523C236.428 86.5523 236.648 86.3194 236.868 86.3194Z" fill="#CCDDF2"/>
<path d="M254.902 86.5515C255.122 86.7851 254.902 86.7852 254.902 86.7852C254.682 86.7852 254.682 86.7851 254.902 86.5515C254.682 86.5515 254.682 86.5515 254.902 86.5515Z" fill="#CCDDF2"/>
<path d="M2.19935 67.4216C0.984696 67.4216 2.24113e-05 68.4661 2.24113e-05 69.7546C2.24113e-05 71.043 0.984696 72.0875 2.19935 72.0875C3.41401 72.0875 4.39868 71.043 4.39868 69.7546C4.39868 68.4661 3.41401 67.4216 2.19935 67.4216Z" fill="#CCDDF2"/>
<path d="M20.2338 67.6553C21.3335 67.6553 22.2133 68.5885 22.2133 69.755C22.2133 70.9215 21.3335 71.8546 20.2338 71.8546C19.1342 71.8546 18.2545 70.9215 18.2545 69.755C18.2545 68.5885 19.1342 67.6553 20.2338 67.6553Z" fill="#CCDDF2"/>
<path d="M38.2684 67.8882C39.3681 67.8882 40.2478 68.8214 40.2478 69.9879C40.2478 71.1543 39.3681 72.0875 38.2684 72.0875C37.1688 72.0875 36.289 71.1543 36.289 69.9879C36.5089 68.5881 37.3887 67.8882 38.2684 67.8882Z" fill="#CCDDF2"/>
<path d="M56.3029 67.8886C55.3312 67.8886 54.5434 68.7242 54.5434 69.755C54.5434 70.7857 55.3312 71.6213 56.3029 71.6213C57.2746 71.6213 58.0624 70.7857 58.0624 69.755C58.0624 68.7242 57.2746 67.8886 56.3029 67.8886Z" fill="#CCDDF2"/>
<path d="M74.3373 68.1215C75.217 68.1215 75.8768 68.8213 75.8768 69.7545C75.8768 70.6877 75.217 71.3876 74.3373 71.3876C73.4576 71.3876 72.7978 70.6877 72.7978 69.7545C72.7978 68.8213 73.4576 68.1215 74.3373 68.1215Z" fill="#CCDDF2"/>
<path d="M92.3719 68.3552C93.2516 68.3552 93.9114 69.0551 93.9114 69.9883C93.9114 70.9214 93.2516 71.6213 92.3719 71.6213C91.4921 71.6213 90.8323 70.9214 90.8323 69.9883C91.0523 69.0551 91.7121 68.3552 92.3719 68.3552Z" fill="#CCDDF2"/>
<path d="M110.626 68.3548C109.898 68.3548 109.307 68.9815 109.307 69.7546C109.307 70.5276 109.898 71.1543 110.626 71.1543C111.355 71.1543 111.946 70.5276 111.946 69.7546C111.946 68.9815 111.355 68.3548 110.626 68.3548Z" fill="#CCDDF2"/>
<path d="M128.661 68.5891C129.321 68.5891 129.76 69.0555 129.76 69.7551C129.76 70.4547 129.321 70.9211 128.661 70.9211C128.001 70.9211 127.561 70.4547 127.561 69.7551C127.341 69.0555 128.001 68.5891 128.661 68.5891Z" fill="#CCDDF2"/>
<path d="M146.695 68.8222C147.355 68.8222 147.795 69.2886 147.795 69.9883C147.795 70.6879 147.355 71.1543 146.695 71.1543C146.036 71.1543 145.596 70.6879 145.596 69.9883C145.596 69.2886 146.036 68.8222 146.695 68.8222Z" fill="#CCDDF2"/>
<path d="M164.73 68.8222C164.244 68.8222 163.85 69.2399 163.85 69.755C163.85 70.2702 164.244 70.6879 164.73 70.6879C165.216 70.6879 165.61 70.2702 165.61 69.755C165.61 69.2399 165.216 68.8222 164.73 68.8222Z" fill="#CCDDF2"/>
<path d="M182.764 69.0556C183.204 69.0556 183.424 69.2888 183.424 69.7552C183.424 70.2216 183.204 70.4548 182.764 70.4548C182.325 70.4548 182.105 70.2216 182.105 69.7552C181.885 69.2888 182.325 69.0556 182.764 69.0556Z" fill="#CCDDF2"/>
<path d="M200.799 69.2886C201.019 69.2886 201.459 69.5218 201.459 69.9882C201.459 70.2214 201.239 70.6879 200.799 70.6879C200.579 70.6879 200.139 70.4547 200.139 69.9882C200.139 69.5218 200.359 69.2886 200.799 69.2886Z" fill="#CCDDF2"/>
<path d="M218.833 69.2884C218.59 69.2884 218.394 69.4972 218.394 69.7548C218.394 70.0124 218.59 70.2212 218.833 70.2212C219.076 70.2212 219.273 70.0124 219.273 69.7548C219.273 69.4972 219.076 69.2884 218.833 69.2884Z" fill="#CCDDF2"/>
<path d="M236.868 69.5222C237.088 69.5222 237.088 69.7551 237.088 69.7551C237.088 69.9879 236.868 69.9879 236.868 69.9879C236.648 69.9879 236.648 69.7551 236.648 69.7551C236.428 69.5222 236.648 69.5222 236.868 69.5222Z" fill="#CCDDF2"/>
<path d="M254.902 69.7543C255.122 69.9879 254.902 69.9879 254.902 69.9879C254.682 69.9879 254.682 69.9879 254.902 69.7543C254.682 69.7543 254.682 69.7543 254.902 69.7543Z" fill="#CCDDF2"/>
<path d="M2.19935 50.6243C0.984696 50.6243 2.24113e-05 51.6688 2.24113e-05 52.9572C2.24113e-05 54.2457 0.984696 55.2902 2.19935 55.2902C3.41401 55.2902 4.39868 54.2457 4.39868 52.9572C4.39868 51.6688 3.41401 50.6243 2.19935 50.6243Z" fill="#CCDDF2"/>
<path d="M20.2338 50.8575C21.3335 50.8575 22.2133 51.7907 22.2133 52.9571C22.2133 54.1236 21.3335 55.0568 20.2338 55.0568C19.1342 55.0568 18.2545 54.1236 18.2545 52.9571C18.2545 51.7907 19.1342 50.8575 20.2338 50.8575Z" fill="#CCDDF2"/>
<path d="M38.2684 50.8575C39.3681 50.8575 40.2478 51.7907 40.2478 52.9571C40.2478 54.1236 39.3681 55.0568 38.2684 55.0568C37.1688 55.0568 36.289 54.1236 36.289 52.9571C36.289 51.7907 37.3887 50.8575 38.2684 50.8575Z" fill="#CCDDF2"/>
<path d="M56.3029 51.0908C55.3312 51.0908 54.5434 51.9264 54.5434 52.9572C54.5434 53.9879 55.3312 54.8235 56.3029 54.8235C57.2746 54.8235 58.0624 53.9879 58.0624 52.9572C58.0624 51.9264 57.2746 51.0908 56.3029 51.0908Z" fill="#CCDDF2"/>
<path d="M74.3373 51.3238C73.487 51.3238 72.7978 52.055 72.7978 52.9569C72.7978 53.8588 73.487 54.59 74.3373 54.59C75.1876 54.59 75.8768 53.8588 75.8768 52.9569C75.8768 52.055 75.1876 51.3238 74.3373 51.3238Z" fill="#CCDDF2"/>
<path d="M92.3719 51.3238C93.2516 51.3238 93.9114 52.0237 93.9114 52.9569C93.9114 53.8901 93.2516 54.59 92.3719 54.59C91.4921 54.59 90.8323 53.8901 90.8323 52.9569C91.0523 52.0237 91.7121 51.3238 92.3719 51.3238Z" fill="#CCDDF2"/>
<path d="M110.626 51.5573C109.898 51.5573 109.307 52.184 109.307 52.9571C109.307 53.7301 109.898 54.3568 110.626 54.3568C111.355 54.3568 111.946 53.7301 111.946 52.9571C111.946 52.184 111.355 51.5573 110.626 51.5573Z" fill="#CCDDF2"/>
<path d="M128.661 51.7917C129.321 51.7917 129.76 52.2581 129.76 52.9577C129.76 53.6574 129.321 54.1238 128.661 54.1238C128.001 54.1238 127.561 53.6574 127.561 52.9577C127.341 52.2581 128.001 51.7917 128.661 51.7917Z" fill="#CCDDF2"/>
<path d="M146.695 51.7917C146.088 51.7917 145.596 52.3137 145.596 52.9577C145.596 53.6017 146.088 54.1238 146.695 54.1238C147.303 54.1238 147.795 53.6017 147.795 52.9577C147.795 52.3137 147.303 51.7917 146.695 51.7917Z" fill="#CCDDF2"/>
<path d="M164.73 52.0246C164.244 52.0246 163.85 52.4422 163.85 52.9574C163.85 53.4726 164.244 53.8903 164.73 53.8903C165.216 53.8903 165.61 53.4726 165.61 52.9574C165.61 52.4422 165.216 52.0246 164.73 52.0246Z" fill="#CCDDF2"/>
<path d="M182.764 52.2574C183.204 52.2574 183.424 52.4906 183.424 52.957C183.424 53.4234 183.204 53.6566 182.764 53.6566C182.325 53.6566 182.105 53.4234 182.105 52.957C182.105 52.4906 182.325 52.2574 182.764 52.2574Z" fill="#CCDDF2"/>
<path d="M200.799 52.2574C201.019 52.2574 201.459 52.4906 201.459 52.957C201.459 53.1902 201.239 53.6566 200.799 53.6566C200.579 53.6566 200.139 53.4234 200.139 52.957C200.139 52.4906 200.359 52.2574 200.799 52.2574Z" fill="#CCDDF2"/>
<path d="M218.833 52.4907C218.59 52.4907 218.394 52.6996 218.394 52.9572C218.394 53.2148 218.59 53.4236 218.833 53.4236C219.076 53.4236 219.273 53.2148 219.273 52.9572C219.273 52.6996 219.076 52.4907 218.833 52.4907Z" fill="#CCDDF2"/>
<path d="M236.868 52.7247C236.746 52.7247 236.648 52.829 236.648 52.9576C236.648 53.0862 236.746 53.1904 236.868 53.1904C236.989 53.1904 237.088 53.0862 237.088 52.9576C237.088 52.829 236.989 52.7247 236.868 52.7247Z" fill="#CCDDF2"/>
<path d="M254.902 52.7244C255.122 52.9572 254.902 52.9573 254.902 52.9573C254.682 53.1901 254.682 52.9572 254.902 52.7244C254.682 52.7244 254.682 52.7244 254.902 52.7244Z" fill="#CCDDF2"/>
<path d="M2.19935 33.5944C0.984696 33.5944 2.24113e-05 34.6389 2.24113e-05 35.9273C2.24113e-05 37.2158 0.984696 38.2603 2.19935 38.2603C3.41401 38.2603 4.39868 37.2158 4.39868 35.9273C4.39868 34.6389 3.41401 33.5944 2.19935 33.5944Z" fill="#CCDDF2"/>
<path d="M20.2338 33.8279C21.3335 33.8279 22.2133 34.7611 22.2133 35.9276C22.2133 37.0941 21.3335 38.0272 20.2338 38.0272C19.1342 38.0272 18.2545 37.0941 18.2545 35.9276C18.2545 34.7611 19.1342 33.8279 20.2338 33.8279Z" fill="#CCDDF2"/>
<path d="M38.2684 34.061C39.3681 34.061 40.2478 34.9941 40.2478 36.1606C40.2478 37.3271 39.3681 38.2603 38.2684 38.2603C37.1688 38.2603 36.289 37.3271 36.289 36.1606C36.5089 34.9941 37.3887 34.061 38.2684 34.061Z" fill="#CCDDF2"/>
<path d="M56.3029 34.0614C55.3312 34.0614 54.5434 34.897 54.5434 35.9277C54.5434 36.9585 55.3312 37.7941 56.3029 37.7941C57.2746 37.7941 58.0624 36.9585 58.0624 35.9277C58.0624 34.897 57.2746 34.0614 56.3029 34.0614Z" fill="#CCDDF2"/>
<path d="M74.3373 34.2943C75.217 34.2943 75.8768 34.9942 75.8768 35.9274C75.8768 36.8606 75.217 37.5604 74.3373 37.5604C73.4576 37.5604 72.7978 36.8606 72.7978 35.9274C72.7978 34.9942 73.4576 34.2943 74.3373 34.2943Z" fill="#CCDDF2"/>
<path d="M92.3719 34.5279C93.2516 34.5279 93.9114 35.2278 93.9114 36.161C93.9114 37.0942 93.2516 37.7941 92.3719 37.7941C91.4921 37.7941 90.8323 37.0942 90.8323 36.161C90.8323 35.2278 91.7121 34.5279 92.3719 34.5279Z" fill="#CCDDF2"/>
<path d="M110.626 34.5275C109.898 34.5275 109.307 35.1542 109.307 35.9273C109.307 36.7004 109.898 37.327 110.626 37.327C111.355 37.327 111.946 36.7004 111.946 35.9273C111.946 35.1542 111.355 34.5275 110.626 34.5275Z" fill="#CCDDF2"/>
<path d="M128.661 34.7618C129.321 34.7618 129.76 35.2282 129.76 35.9278C129.76 36.6275 129.321 37.0939 128.661 37.0939C128.001 37.0939 127.561 36.6275 127.561 35.9278C127.341 35.4614 128.001 34.7618 128.661 34.7618Z" fill="#CCDDF2"/>
<path d="M146.695 34.9949C147.355 34.9949 147.795 35.4614 147.795 36.161C147.795 36.8606 147.355 37.327 146.695 37.327C146.036 37.327 145.596 36.8606 145.596 36.161C145.596 35.4614 146.036 34.9949 146.695 34.9949Z" fill="#CCDDF2"/>
<path d="M164.73 34.9948C164.244 34.9948 163.85 35.4125 163.85 35.9277C163.85 36.4428 164.244 36.8605 164.73 36.8605C165.216 36.8605 165.61 36.4428 165.61 35.9277C165.61 35.4125 165.216 34.9948 164.73 34.9948Z" fill="#CCDDF2"/>
<path d="M182.764 35.2282C183.204 35.2282 183.424 35.4614 183.424 35.9278C183.424 36.3942 183.204 36.6274 182.764 36.6274C182.325 36.6274 182.105 36.3942 182.105 35.9278C182.105 35.4614 182.325 35.2282 182.764 35.2282Z" fill="#CCDDF2"/>
<path d="M200.799 35.4612C201.019 35.4612 201.459 35.6944 201.459 36.1608C201.459 36.394 201.239 36.8605 200.799 36.8605C200.579 36.8605 200.139 36.6273 200.139 36.1608C200.139 35.6944 200.359 35.4612 200.799 35.4612Z" fill="#CCDDF2"/>
<path d="M218.833 35.4609C218.59 35.4609 218.394 35.6697 218.394 35.9273C218.394 36.1849 218.59 36.3937 218.833 36.3937C219.076 36.3937 219.273 36.1849 219.273 35.9273C219.273 35.6697 219.076 35.4609 218.833 35.4609Z" fill="#CCDDF2"/>
<path d="M236.868 35.6949C237.088 35.6949 237.088 35.9278 237.088 35.9278C237.088 36.1607 236.868 36.1606 236.868 36.1606C236.648 36.1606 236.648 35.9278 236.648 35.9278C236.428 35.9278 236.648 35.6949 236.868 35.6949Z" fill="#CCDDF2"/>
<path d="M254.902 35.927C255.122 36.1607 254.902 36.1606 254.902 36.1606C254.682 36.1606 254.682 36.1607 254.902 35.927C254.682 35.927 254.682 35.927 254.902 35.927Z" fill="#CCDDF2"/>
<path d="M2.19935 16.7966C0.984696 16.7966 2.24113e-05 17.8411 2.24113e-05 19.1296C2.24113e-05 20.418 0.984696 21.4625 2.19935 21.4625C3.41401 21.4625 4.39868 20.418 4.39868 19.1296C4.39868 17.8411 3.41401 16.7966 2.19935 16.7966Z" fill="#CCDDF2"/>
<path d="M20.2338 17.0302C21.3335 17.0302 22.2133 17.9634 22.2133 19.1299C22.2133 20.2963 21.3335 21.2295 20.2338 21.2295C19.1342 21.2295 18.2545 20.2963 18.2545 19.1299C18.2545 17.9634 19.1342 17.0302 20.2338 17.0302Z" fill="#CCDDF2"/>
<path d="M38.2684 17.0302C39.3681 17.0302 40.2478 17.9634 40.2478 19.1299C40.2478 20.2963 39.3681 21.2295 38.2684 21.2295C37.1688 21.2295 36.289 20.2963 36.289 19.1299C36.5089 17.9634 37.3887 17.0302 38.2684 17.0302Z" fill="#CCDDF2"/>
<path d="M56.3029 17.2635C55.3312 17.2635 54.5434 18.0991 54.5434 19.1299C54.5434 20.1607 55.3312 20.9962 56.3029 20.9962C57.2746 20.9962 58.0624 20.1607 58.0624 19.1299C58.0624 18.0991 57.2746 17.2635 56.3029 17.2635Z" fill="#CCDDF2"/>
<path d="M74.3373 17.4969C75.217 17.4969 75.8768 18.1968 75.8768 19.13C75.8768 20.0632 75.217 20.7631 74.3373 20.7631C73.4576 20.7631 72.7978 20.0632 72.7978 19.13C72.7978 18.1968 73.4576 17.4969 74.3373 17.4969Z" fill="#CCDDF2"/>
<path d="M92.3719 17.4969C93.2516 17.4969 93.9114 18.1968 93.9114 19.13C93.9114 20.0632 93.2516 20.7631 92.3719 20.7631C91.4921 20.7631 90.8323 20.0632 90.8323 19.13C90.8323 18.1968 91.7121 17.4969 92.3719 17.4969Z" fill="#CCDDF2"/>
<path d="M110.626 17.73C109.898 17.73 109.307 18.3567 109.307 19.1298C109.307 19.9029 109.898 20.5295 110.626 20.5295C111.355 20.5295 111.946 19.9029 111.946 19.1298C111.946 18.3567 111.355 17.73 110.626 17.73Z" fill="#CCDDF2"/>
<path d="M128.661 17.9639C129.321 17.9639 129.76 18.4303 129.76 19.13C129.76 19.8296 129.321 20.296 128.661 20.296C128.001 20.296 127.561 19.8296 127.561 19.13C127.341 18.4303 128.001 17.9639 128.661 17.9639Z" fill="#CCDDF2"/>
<path d="M146.695 17.9639C147.355 17.9639 147.795 18.4303 147.795 19.13C147.795 19.8296 147.355 20.296 146.695 20.296C146.036 20.296 145.596 19.8296 145.596 19.13C145.596 18.6636 146.036 17.9639 146.695 17.9639Z" fill="#CCDDF2"/>
<path d="M164.73 18.1973C164.244 18.1973 163.85 18.615 163.85 19.1302C163.85 19.6454 164.244 20.063 164.73 20.063C165.216 20.063 165.61 19.6454 165.61 19.1302C165.61 18.615 165.216 18.1973 164.73 18.1973Z" fill="#CCDDF2"/>
<path d="M182.764 18.4304C183.204 18.4304 183.424 18.6636 183.424 19.13C183.424 19.5964 183.204 19.8296 182.764 19.8296C182.325 19.8296 182.105 19.5964 182.105 19.13C182.105 18.6636 182.325 18.4304 182.764 18.4304Z" fill="#CCDDF2"/>
<path d="M200.799 18.4304C201.019 18.4304 201.459 18.6636 201.459 19.13C201.459 19.3632 201.239 19.8296 200.799 19.8296C200.579 19.8296 200.139 19.5964 200.139 19.13C200.139 18.8968 200.359 18.4304 200.799 18.4304Z" fill="#CCDDF2"/>
<path d="M218.833 18.6633C218.59 18.6633 218.394 18.8722 218.394 19.1298C218.394 19.3874 218.59 19.5962 218.833 19.5962C219.076 19.5962 219.273 19.3874 219.273 19.1298C219.273 18.8722 219.076 18.6633 218.833 18.6633Z" fill="#CCDDF2"/>
<path d="M236.868 18.8974C237.088 18.8974 237.088 19.1303 237.088 19.1303C237.088 19.3632 236.868 19.3632 236.868 19.3632C236.648 19.3632 236.648 19.1303 236.648 19.1303C236.428 18.8974 236.648 18.8974 236.868 18.8974Z" fill="#CCDDF2"/>
<path d="M254.902 18.8967C255.122 19.1296 254.902 19.1296 254.902 19.1296C254.682 19.3625 254.682 19.1296 254.902 18.8967C254.682 18.8967 254.682 19.1296 254.902 18.8967Z" fill="#CCDDF2"/>
<path d="M2.19935 0.00026226C0.984696 0.00026226 2.24113e-05 1.04475 2.24113e-05 2.3332C2.24113e-05 3.62165 0.984696 4.66614 2.19935 4.66614C3.41401 4.66614 4.39868 3.62165 4.39868 2.3332C4.39868 1.04475 3.41401 0.00026226 2.19935 0.00026226Z" fill="#CCDDF2"/>
<path d="M20.2338 0.000534534C21.3335 0.000534534 22.2133 0.933731 22.2133 2.1002C22.2133 3.26667 21.3335 4.19983 20.2338 4.19983C19.1342 4.19983 18.2545 3.26667 18.2545 2.1002C18.2545 1.16702 19.1342 0.000534534 20.2338 0.000534534Z" fill="#CCDDF2"/>
<path d="M38.2684 0.233445C39.3681 0.233445 40.2478 1.16661 40.2478 2.33307C40.2478 3.49954 39.3681 4.43274 38.2684 4.43274C37.1688 4.43274 36.289 3.49954 36.289 2.33307C36.5089 1.16661 37.3887 0.233445 38.2684 0.233445Z" fill="#CCDDF2"/>
<path d="M56.3029 0.46715C57.1826 0.46715 58.0624 1.4003 58.0624 2.33347C58.0624 3.26665 57.1826 4.19983 56.3029 4.19983C55.4232 4.19983 54.5434 3.26665 54.5434 2.33347C54.5434 1.167 55.4232 0.46715 56.3029 0.46715Z" fill="#CCDDF2"/>
<path d="M74.3373 0.466812C75.217 0.466812 75.8768 1.16669 75.8768 2.09986C75.8768 3.03304 75.217 3.73291 74.3373 3.73291C73.4576 3.73291 72.7978 3.03304 72.7978 2.09986C72.7978 1.39998 73.4576 0.466812 74.3373 0.466812Z" fill="#CCDDF2"/>
<path d="M92.3719 0.700418C93.2516 0.700418 93.9114 1.40029 93.9114 2.33347C93.9114 3.26664 93.2516 3.96655 92.3719 3.96655C91.4921 3.96655 90.8323 3.26664 90.8323 2.33347C91.0523 1.40029 91.7121 0.700418 92.3719 0.700418Z" fill="#CCDDF2"/>
<path d="M110.626 0.933392C111.286 0.933392 111.946 1.63325 111.946 2.33313C111.946 3.03301 111.286 3.73291 110.626 3.73291C109.967 3.73291 109.307 3.03301 109.307 2.33313C109.307 1.39996 109.747 0.933392 110.626 0.933392Z" fill="#CCDDF2"/>
<path d="M128.661 0.934267C129.321 0.934267 129.76 1.40068 129.76 2.10031C129.76 2.79994 129.321 3.26636 128.661 3.26636C128.001 3.26636 127.561 2.79994 127.561 2.10031C127.341 1.63389 128.001 0.934267 128.661 0.934267Z" fill="#CCDDF2"/>
<path d="M146.695 1.16767C147.355 1.16767 147.795 1.63408 147.795 2.33371C147.795 3.03334 147.355 3.49976 146.695 3.49976C146.036 3.49976 145.596 3.03334 145.596 2.33371C145.596 1.63408 146.036 1.16767 146.695 1.16767Z" fill="#CCDDF2"/>
<path d="M164.73 1.40068C165.17 1.40068 165.61 1.86708 165.61 2.3335C165.61 2.79992 165.17 3.26636 164.73 3.26636C164.29 3.26636 163.85 2.79992 163.85 2.3335C163.85 1.86708 164.07 1.40068 164.73 1.40068Z" fill="#CCDDF2"/>
<path d="M182.764 1.40066C183.204 1.40066 183.424 1.63387 183.424 2.10029C183.424 2.56671 183.204 2.79993 182.764 2.79993C182.325 2.79993 182.105 2.56671 182.105 2.10029C181.885 1.86708 182.325 1.40066 182.764 1.40066Z" fill="#CCDDF2"/>
<path d="M200.799 1.63397C201.019 1.63397 201.459 1.86715 201.459 2.33357C201.459 2.56678 201.239 3.0332 200.799 3.0332C200.579 3.0332 200.139 2.79999 200.139 2.33357C200.139 1.86715 200.359 1.63397 200.799 1.63397Z" fill="#CCDDF2"/>
<path d="M218.833 1.86707C219.053 1.86707 219.273 2.10027 219.273 2.33348C219.273 2.56669 219.053 2.79993 218.833 2.79993C218.613 2.79993 218.394 2.56669 218.394 2.33348C218.394 2.10027 218.613 1.86707 218.833 1.86707Z" fill="#CCDDF2"/>
<path d="M236.868 1.86764C237.088 1.86764 237.088 2.10053 237.088 2.10053C237.088 2.3334 236.868 2.33337 236.868 2.33337C236.648 2.33337 236.648 2.10053 236.648 2.10053C236.428 2.10053 236.648 1.86764 236.868 1.86764Z" fill="#CCDDF2"/>
<path d="M254.902 2.09975C255.122 2.3334 254.902 2.33337 254.902 2.33337C254.682 2.33337 254.682 2.3334 254.902 2.09975C254.682 2.09975 254.682 2.09975 254.902 2.09975Z" fill="#CCDDF2"/>
</svg>
