<svg width="153" height="121" viewBox="0 0 153 121" fill="none" xmlns="http://www.w3.org/2000/svg">
<rect width="153" height="121" fill="white"/>
<path d="M14 102L17.4648 86.9863H20.9296L19.4859 92.761H22.3732L27.5704 86.9863H31.9014L24.9718 94.4934L28.4366 102H24.9718L22.0845 95.937H18.9085L17.4648 102H14Z" fill="black"/>
<path d="M46.6268 86.9863H37.6761H37.3873C28.7254 94.7821 34.7887 102 34.7887 102H43.4507C52.4014 95.3596 46.6268 86.9863 46.6268 86.9863Z" fill="black"/>
<path d="M50.9577 102L54.4225 86.9863H65.6831C70.3028 93.0497 63.662 97.092 63.662 97.092L65.9718 102H62.507L60.1972 97.092H55.5775L54.4225 102H50.9577Z" fill="black"/>
<path d="M86.1831 86.9863H71.4577L70.5916 89.8737H76.6549L73.4789 102H76.9437L79.831 89.8737H85.3169L86.1831 86.9863Z" fill="black"/>
<path d="M86.1831 102L89.3592 86.9863H102.352L101.486 89.8737H91.669L90.8028 93.3384H98.5986L98.0211 95.6483H90.5141L89.6479 99.1131H99.7535L98.8873 102H86.1831Z" fill="black"/>
<path d="M119.676 86.9863H108.704L108.415 87.2751C100.62 94.7821 105.817 102 105.817 102H114.768C119.387 99.6906 118.81 93.3384 118.81 93.3384H111.88L111.014 95.6483H115.634C115.634 98.2469 113.901 99.1131 113.901 99.1131H107.549C106.106 92.4722 109.859 89.8737 109.859 89.8737H119.099L119.676 86.9863Z" fill="black"/>
<path d="M121.986 102L125.451 86.9863H138.155L137.289 89.8737H128.049L127.183 93.3384H134.69L133.824 95.6483H126.894L126.028 99.1131H135.556L134.69 102H121.986Z" fill="black"/>
<path d="M44.6056 89.873H38.5423L38.2535 90.1618C34.5 94.204 36.8099 99.1125 36.8099 99.1125H42.5845C46.6268 94.204 44.6056 89.873 44.6056 89.873Z" fill="white"/>
<path d="M63.662 89.873H57.3099L56.1549 94.4928H62.507C64.5282 93.0491 63.662 89.873 63.662 89.873Z" fill="white"/>
<path d="M56.7324 77.7468L54.4225 63.0215H57.8873L59.9085 74.5708L67.1268 63.0215H70.5915L61.9296 77.7468H56.7324Z" fill="black"/>
<path d="M72.3239 65.6201L73.1901 63.0215H82.7183L81.8521 65.6201H78.6761L76.9437 75.1482H79.831L79.2535 77.7468H70.0141L70.5915 75.1482H73.7676L75.5 65.6201H72.3239Z" fill="black"/>
<path d="M86.1831 77.7468H83.2958L86.7606 63.0215H97.1549C102.93 68.5074 95.1338 73.4159 95.1338 73.4159H87.338L86.1831 77.7468Z" fill="black"/>
<path d="M88.2042 70.8173L89.3592 65.6201H95.4225C97.1549 68.2187 94.2676 70.8173 94.2676 70.8173H88.2042Z" fill="white"/>
<path d="M47.493 43.3877L44.8944 40.7891L46.9155 44.8313H69.7254L47.493 43.3877Z" fill="black"/>
<path d="M67.4155 46.5637H46.9155V47.1412H67.4155V46.5637Z" fill="black"/>
<path d="M69.1479 52.6271C50.0915 51.7609 38.2535 50.0285 38.2535 50.0285H37.6761L38.2535 50.606C46.517 51.9512 54.8756 52.6271 63.2479 52.6271H69.1479Z" fill="black"/>
<path d="M93.9789 52.9158V50.0285V50.0278C93.4014 53.4926 89.0704 56.3799 89.0704 56.3799H93.4014H93.6901C96.2887 55.2257 96.8662 52.9158 96.8662 52.9158H93.9789Z" fill="black"/>
<path d="M87.338 36.7461C98.3099 45.9855 87.338 55.5137 87.338 55.5137L86.1831 56.3799C86.1831 56.3799 93.1011 54.07 93.4014 46.563C93.7017 39.056 87.338 36.7461 87.338 36.7461Z" fill="black"/>
<path d="M129.782 54.3594H116.5H116.211L116.789 54.9368C124.873 59.2678 129.782 54.3594 129.782 54.3594Z" fill="black"/>
<path d="M108.127 49.4505C133.535 50.6054 138.155 48.5843 138.155 48.5843H138.732C139.599 50.0279 138.155 50.8941 138.155 50.8941C125.451 54.6477 95.4225 51.4716 95.4225 51.4716V47.1406H105.528L108.127 49.4505Z" fill="black"/>
<path d="M67.4155 22.3099C59.331 20 53.2676 23.7536 53.2676 23.7536L56.4437 28.6619H74.0563C69.1479 22.8872 67.4155 22.3099 67.4155 22.3099Z" fill="black"/>
<path d="M77.5211 26.9286L70.3028 20.5765V20.2878C89.9366 18.5554 104.373 26.9286 104.373 26.9286H77.5211Z" fill="black"/>
<path d="M90.2253 28.0844C90.2253 28.0844 113.901 26.9295 128.627 31.5492C128.627 31.5492 129.535 31.8951 130.648 32.6538C132.411 33.8558 134.69 36.0939 134.69 39.6339H123.43L118.232 32.7043L130.648 32.6538C129.535 31.8951 128.627 31.5492 128.627 31.5492H127.183L117.944 31.5494C117.944 31.5494 116.789 31.5494 117.655 33.2818L120.831 38.1903C120.831 38.1903 118.232 35.5917 115.634 33.2818C115.634 33.2818 111.303 29.2396 90.5141 28.3734L90.2253 28.0844Z" fill="black"/>
<path d="M51.5352 24.6201C47.493 24.6201 44.0282 29.5286 44.0282 29.5286L55 29.2398L51.5352 24.6201Z" fill="black"/>
<path d="M57.8873 20C48.0704 22.3099 42.8732 28.0845 42.8732 28.0845C40.287 32.0814 27.9751 37.1504 23.6162 39.2695C23.303 39.4308 22.985 39.5936 22.662 39.7578C22.9104 39.6197 23.2325 39.456 23.6162 39.2695C37.8604 31.9301 42.007 27.507 42.007 27.507C49.2254 20 57.8873 20 57.8873 20Z" fill="black"/>
<path d="M135.845 36.7453C136.608 37.9899 136.083 38.9083 135.845 39.0542C135.607 39.2 135.268 38.1895 134.69 36.7464C133.928 35.5018 133.875 34.5803 134.113 34.4344C134.351 34.2886 135.083 35.5007 135.845 36.7453Z" fill="black"/>
<path d="M113.901 33.8594C114.957 35.2603 115.882 36.9911 115.056 37.613C114.231 38.2348 111.671 37.7382 110.616 36.3373C109.56 34.9364 109.373 33.2967 110.198 32.6748C111.024 32.053 112.846 32.4586 113.901 33.8594Z" fill="black"/>
<path d="M106.206 33.7111C107.106 34.9055 107.894 36.3811 107.19 36.9113C106.487 37.4414 104.304 37.018 103.404 35.8237C102.504 34.6293 102.345 33.2313 103.049 32.7012C103.752 32.171 105.306 32.5168 106.206 33.7111Z" fill="black"/>
</svg>
