<svg width="39" height="39" viewBox="0 0 39 39" fill="none" xmlns="http://www.w3.org/2000/svg">
<path d="M12.918 3.25466C10.1198 3.69258 7.98219 5.71888 7.41809 8.47999C7.26965 9.22964 7.30676 10.5508 7.49974 11.3005C8.01188 13.2674 9.49635 14.9448 11.4113 15.7019C12.1387 15.9988 12.8661 16.125 13.7716 16.125C15.5975 16.125 17.0523 15.5238 18.3364 14.2249C19.0489 13.5123 19.3532 13.067 19.7466 12.1392C20.7486 9.80116 20.1771 6.95098 18.3364 5.11024C17.1339 3.90782 15.7163 3.29919 13.9943 3.24724C13.5267 3.23239 13.0442 3.23981 12.918 3.25466ZM15.1225 5.83021C16.7777 6.43142 17.8539 7.953 17.8539 9.68241C17.8539 11.5231 16.5847 13.1858 14.8404 13.6311C14.2689 13.7795 13.2669 13.7795 12.7399 13.6385C11.4484 13.2971 10.3425 12.2802 9.90458 11.0407C9.68933 10.4246 9.63737 9.40778 9.79324 8.74719C10.1644 7.1885 11.4781 5.94897 13.1036 5.62981C13.5564 5.54074 14.6326 5.65207 15.1225 5.83021Z" fill="white"/>
<path d="M27.2803 12.7628C26.4119 12.9038 25.3727 13.5273 24.8532 14.2027C24.1926 15.0785 24.0145 15.6723 24.0145 17.0677V18.0549H23.4355C23.1164 18.0549 22.6784 18.0994 22.4558 18.1588L22.055 18.2627L21.5205 17.7728C20.7264 17.038 20.2216 16.756 19.7095 16.756C19.3532 16.756 19.2493 16.7931 18.8485 17.0677C17.891 17.7209 16.7331 18.2108 15.5381 18.4705C14.6771 18.6635 12.8587 18.6561 11.9903 18.4705C10.8621 18.2256 9.62996 17.706 8.69474 17.0751C7.93766 16.5556 7.52201 16.6075 6.56453 17.3275C5.29531 18.285 4.07804 20.0663 3.68466 21.5582C3.47683 22.345 3.24674 23.9853 3.08345 25.8855C2.95727 27.3328 2.90531 30.6432 3.0018 31.1553C3.26159 32.5507 4.44174 33.7531 5.82229 34.0129C6.07465 34.0575 8.86545 34.0872 13.5118 34.0872H20.808L21.0158 34.5102C21.4389 35.3935 22.5151 36.2099 23.4875 36.3881C24.059 36.492 31.9044 36.4846 32.4165 36.3807C33.6487 36.1209 34.7026 35.1708 35.0663 33.9758C35.2964 33.2484 36.2391 21.6993 36.1277 21.0387C35.8308 19.287 34.3167 18.0549 32.4611 18.0549H31.8821V17.1419C31.8821 15.5907 31.5333 14.648 30.6426 13.8242C29.7222 12.9557 28.4679 12.5624 27.2803 12.7628ZM28.4159 15.1676C28.7796 15.2641 29.1952 15.6352 29.366 16.0137C29.4773 16.2438 29.507 16.5036 29.507 17.1791V18.0549H27.9483H26.3896V17.1642C26.3896 16.4294 26.4119 16.2216 26.5306 15.9915C26.9092 15.2641 27.6291 14.9449 28.4159 15.1676ZM8.6799 19.7991C9.62253 20.2742 10.7953 20.6676 11.7824 20.8531C12.7399 21.0313 14.8108 21.0313 15.7757 20.8531C16.7406 20.675 18.1211 20.1999 18.9598 19.762C19.3384 19.5542 19.6947 19.3909 19.7466 19.3909C19.7911 19.3909 19.9099 19.4726 19.999 19.5691L20.1697 19.7472L19.9619 20.2593C19.8134 20.6304 19.754 20.9273 19.7318 21.3949C19.7021 21.9071 20.3107 29.8787 20.4888 31.3632L20.5334 31.712L13.304 31.6972L6.07465 31.6749L5.81487 31.4745C5.325 31.0959 5.28046 30.8584 5.33242 28.7208C5.38438 26.5832 5.4586 25.6405 5.71838 23.681C5.92621 22.1223 6.0895 21.5953 6.60906 20.764C6.97276 20.1851 7.64819 19.3909 7.78179 19.3909C7.83375 19.3909 8.23456 19.5765 8.6799 19.7991ZM24.0145 21.2242C24.0145 21.8848 24.0367 22.0704 24.1629 22.2634C24.5637 22.9239 25.4841 23.0279 26.0036 22.486C26.3005 22.1594 26.3896 21.8551 26.3896 21.0906V20.43H27.9483H29.507V21.15C29.507 21.7215 29.5367 21.9294 29.6629 22.1817C30.0785 23.0427 31.3032 23.0501 31.7337 22.204C31.8524 21.9813 31.8821 21.7735 31.8821 21.1723V20.43H32.3646C32.6318 20.43 32.9584 20.4746 33.092 20.534C33.4037 20.6601 33.7229 21.0387 33.7748 21.343C33.8491 21.729 32.8693 33.1519 32.7431 33.3969C32.6095 33.6641 32.3423 33.909 32.0825 34.0055C31.9415 34.0575 30.5387 34.0872 27.9186 34.0872C23.9699 34.0872 23.9699 34.0872 23.6433 33.9239C23.0273 33.6121 23.0792 33.9016 22.5597 27.6742C22.2999 24.6088 22.0846 21.9219 22.0846 21.7067C22.0846 21.2836 22.196 21.0016 22.4706 20.7492C22.723 20.5117 22.9531 20.4375 23.5172 20.4375L24.0145 20.43V21.2242Z" fill="white"/>
</svg>
