<svg width="188" height="189" viewBox="0 0 188 189" fill="none" xmlns="http://www.w3.org/2000/svg">
<path d="M87.1138 4.79345C91.2508 2.40496 96.3478 2.40496 100.485 4.79345L168.346 43.9734C172.483 46.3619 175.032 50.776 175.032 55.553V133.913C175.032 138.69 172.483 143.104 168.346 145.492L100.485 184.672C96.3478 187.061 91.2508 187.061 87.1138 184.672L19.2522 145.492C15.1152 143.104 12.5667 138.69 12.5667 133.913V55.553C12.5667 50.776 15.1152 46.3619 19.2522 43.9734L87.1138 4.79345Z" fill="#40A865"/>
<path d="M87.1137 19.3643C91.2507 16.9758 96.3477 16.9758 100.485 19.3643L155.728 51.2588C159.865 53.6473 162.413 58.0614 162.413 62.8384V126.627C162.413 131.404 159.865 135.819 155.728 138.207L100.485 170.102C96.3477 172.49 91.2507 172.49 87.1137 170.102L31.8708 138.207C27.7338 135.819 25.1853 131.404 25.1853 126.627V62.8384C25.1853 58.0614 27.7338 53.6473 31.8708 51.2588L87.1137 19.3643Z" fill="#40A865"/>
<path d="M87.3414 19.7586C91.3375 17.4514 96.2609 17.4514 100.257 19.7586L155.5 51.6531C159.496 53.9603 161.958 58.2241 161.958 62.8384V126.627C161.958 131.242 159.496 135.506 155.5 137.813L100.257 169.707C96.2609 172.014 91.3375 172.014 87.3414 169.707L32.0984 137.813C28.1023 135.506 25.6406 131.242 25.6406 126.627V62.8384C25.6406 58.2241 28.1023 53.9603 32.0984 51.6531L87.3414 19.7586Z" stroke="white" stroke-opacity="0.3" stroke-width="0.910673"/>
</svg>
