<svg width="39" height="39" viewBox="0 0 39 39" fill="none" xmlns="http://www.w3.org/2000/svg">
<path d="M9.08679 4.79056C7.96601 4.97612 7.00111 5.82227 6.62257 6.94304C6.48897 7.329 6.4667 7.54425 6.48897 8.0935C6.51123 8.67244 6.55577 8.84316 6.75617 9.25139C6.88235 9.51859 7.11987 9.88229 7.28316 10.0604C8.05508 10.9363 9.41337 11.3074 10.549 10.9511C11.4471 10.6691 12.0706 10.1272 12.5085 9.24397C12.9538 8.33102 12.8499 7.01726 12.2636 6.16369C11.9592 5.71093 11.4174 5.2359 10.9795 5.04292C10.6455 4.88705 9.77707 4.69407 9.5544 4.71634C9.51728 4.72376 9.30204 4.75345 9.08679 4.79056Z" fill="white"/>
<path d="M18.4761 4.7833C17.8897 4.88721 17.192 5.25833 16.7541 5.70367C15.2103 7.29205 15.7001 9.85276 17.7339 10.8177C18.2015 11.0403 18.298 11.0552 19.0179 11.0552C19.7379 11.0552 19.8344 11.0403 20.302 10.8177C22.2541 9.88987 22.7885 7.52956 21.4228 5.85211C20.777 5.05792 19.5226 4.59774 18.4761 4.7833Z" fill="white"/>
<path d="M27.8506 4.79046C27.2642 4.89437 26.715 5.169 26.2548 5.60691C25.4977 6.31946 25.2156 7.02458 25.2676 8.07855C25.3047 8.85048 25.5051 9.39231 25.9727 9.96383C27.279 11.5596 29.9214 11.4112 31.0422 9.67436C32.2966 7.7297 31.1609 5.15415 28.8897 4.79046C28.6225 4.74592 28.3776 4.71623 28.333 4.71623C28.2959 4.72365 28.0732 4.75334 27.8506 4.79046Z" fill="white"/>
<path d="M5.91746 11.3666C4.93771 12.3241 4.32166 13.7269 4.32166 15.0036C4.32166 15.3301 4.35877 15.4341 4.50721 15.5825L4.68535 15.7681H8.58208H12.4788L12.4417 15.3005C12.3601 14.4098 12.7757 12.7546 13.2953 11.9159L13.5105 11.5596L13.2136 11.2553L12.9093 10.9584L12.4565 11.3295C10.7642 12.6952 8.49301 12.6952 6.7933 11.3221L6.34053 10.9584L5.91746 11.3666Z" fill="white"/>
<path d="M15.3959 11.2775C14.5052 12.0792 13.9114 13.2445 13.7407 14.5211C13.6442 15.1891 13.6813 15.4044 13.9114 15.6196C14.0673 15.7681 14.1563 15.7681 19.018 15.7681C23.8796 15.7681 23.9687 15.7681 24.1245 15.6196C24.3546 15.4044 24.3917 15.1743 24.2952 14.5063C24.1171 13.3113 23.6272 12.3018 22.8256 11.4705L22.2986 10.9213L21.9053 11.2701C20.3169 12.7026 17.7265 12.7026 16.1455 11.285L15.767 10.9435L15.3959 11.2775Z" fill="white"/>
<path d="M24.8222 11.2553L24.5253 11.5596L24.7405 11.9159C25.2601 12.7546 25.6757 14.4098 25.5941 15.3005L25.557 15.7681H29.4537H33.3504L33.5286 15.5825C33.6844 15.4341 33.7141 15.3301 33.7141 14.9739C33.7067 13.7863 33.15 12.4725 32.2519 11.5299L31.7027 10.951L31.2425 11.3221C30.3815 12.0198 29.4537 12.3538 28.4072 12.3538C27.3606 12.3538 26.3734 11.9975 25.557 11.3147L25.1265 10.9584L24.8222 11.2553Z" fill="white"/>
<path d="M3.37167 18.9078C3.23064 19.0637 3.20837 19.1676 3.20837 19.7836C3.20837 22.3444 4.15101 25.4543 5.62806 27.7701C6.05855 28.4381 7.13479 29.8632 7.22386 29.8706C7.24613 29.8706 7.44653 29.737 7.6692 29.5663C8.2333 29.1432 9.68808 28.2822 10.4452 27.9408C10.794 27.7775 11.0761 27.6291 11.0761 27.6142C11.0761 27.5994 10.9796 27.1763 10.8608 26.6716C10.3338 24.4597 9.97013 21.1642 10.0518 19.4051L10.0815 18.7371H6.80821H3.52753L3.37167 18.9078Z" fill="white"/>
<path d="M11.4695 18.9305L11.2765 19.1234L11.3284 20.4372C11.3878 21.9662 11.5363 23.5026 11.7515 24.7273C11.9222 25.7145 12.2191 27.0282 12.2859 27.1025C12.3156 27.1247 12.7461 27.0208 13.2434 26.8724C14.6611 26.4493 16.4573 26.145 17.9789 26.0633L18.3129 26.0485L18.3351 22.3893L18.35 18.7375H15.0099H11.6625L11.4695 18.9305Z" fill="white"/>
<path d="M19.7008 22.3887L19.723 26.0479L20.057 26.0627C21.6306 26.1518 23.3451 26.4413 24.7925 26.8718C25.505 27.087 25.7277 27.1241 25.7722 27.0573C25.8539 26.9163 26.1879 25.3056 26.3586 24.2294C26.5738 22.8785 26.6778 21.6242 26.6926 20.2436C26.7 19.0412 26.7 19.0189 26.5219 18.8779C26.3586 18.7443 26.1953 18.7369 23.0185 18.7369H19.6859L19.7008 22.3887Z" fill="white"/>
<path d="M27.9544 20.1323C27.947 22.2699 27.665 24.6302 27.1899 26.6343C27.0638 27.1538 26.9598 27.5992 26.9598 27.614C26.9598 27.6289 27.2419 27.7773 27.5907 27.9332C28.3552 28.2895 29.476 28.9426 30.2479 29.477L30.8195 29.8853L30.9679 29.7071C33.3059 26.9831 34.6642 23.5985 34.8053 20.162C34.8498 19.1303 34.8424 19.1006 34.6791 18.9225L34.5084 18.7369H31.2351H27.9619L27.9544 20.1323Z" fill="white"/>
<path d="M16.4943 27.466C15.2548 27.6367 13.1394 28.1563 12.7832 28.3864C12.657 28.468 12.746 28.7649 13.2804 29.997C14.379 32.5206 16.0044 34.3688 17.6225 34.9106C18.4316 35.1852 18.3499 35.6157 18.3499 31.2069V27.3472L17.8155 27.3547C17.5186 27.3621 16.9248 27.4066 16.4943 27.466Z" fill="white"/>
<path d="M19.686 31.2069C19.686 35.6157 19.6044 35.1852 20.4134 34.9106C21.8682 34.4207 23.3675 32.8398 24.4586 30.6502C24.8445 29.8634 25.3493 28.5571 25.3047 28.4383C25.2602 28.327 24.0578 27.9559 22.989 27.7184C22.128 27.5328 20.6955 27.3472 20.1239 27.3472H19.686V31.2069Z" fill="white"/>
<path d="M10.6901 29.2695C9.91071 29.6703 9.16847 30.123 8.55984 30.5684L8.15161 30.8578L8.44851 31.1176C9.59155 32.1196 10.9276 33.0103 12.2265 33.6264C13.0504 34.0198 14.5348 34.569 14.6536 34.5319C14.6907 34.5171 14.5126 34.2721 14.2676 33.9901C13.3473 32.9361 12.2636 31.036 11.6995 29.4773C11.5807 29.1656 11.4694 28.9058 11.4397 28.9058C11.4174 28.9058 11.0834 29.0691 10.6901 29.2695Z" fill="white"/>
<path d="M26.3364 29.4848C26.0098 30.3829 25.1637 32.0678 24.6589 32.8175C24.4066 33.196 23.9835 33.7378 23.7163 34.0273C23.4417 34.3242 23.2858 34.5469 23.3452 34.5469C23.5976 34.5469 25.0523 33.9902 25.9579 33.5449C26.4923 33.2851 27.2716 32.8397 27.7021 32.5577C28.6819 31.9045 29.8694 30.9248 29.8101 30.8209C29.6764 30.6056 27.1529 29.084 26.7001 28.9504C26.5665 28.9133 26.522 28.9801 26.3364 29.4848Z" fill="white"/>
</svg>
