<svg width="41" height="43" viewBox="0 0 41 43" fill="none" xmlns="http://www.w3.org/2000/svg">
<path d="M17.2587 13.6292C14.698 15.1103 13.8518 15.6321 13.9186 15.6935C13.9706 15.7396 15.5218 16.6451 17.37 17.7118L20.7323 19.6533L24.0872 17.7118C25.9354 16.6528 27.4866 15.7396 27.5312 15.6935C27.598 15.6321 26.7964 15.1333 24.2431 13.6523C22.3875 12.5779 20.8288 11.6877 20.7768 11.6724C20.7249 11.6647 19.1439 12.5472 17.2587 13.6292ZM21.0144 13.3069C21.2519 13.4297 21.3187 13.5602 21.3187 13.9132C21.3187 14.0743 21.2593 14.2201 21.1554 14.3199C20.8288 14.6192 17.7634 16.3382 17.5556 16.3382C17.318 16.3305 17.1473 16.2154 17.0286 15.9775C16.895 15.7242 16.9172 15.5247 17.1102 15.3098C17.2809 15.1026 20.5393 13.1918 20.71 13.1918C20.762 13.1918 20.903 13.2455 21.0144 13.3069Z" fill="white"/>
<path d="M13.1689 21.1883L13.1912 25.5855L16.598 27.5577C18.4685 28.6474 20.0123 29.5376 20.0272 29.5376C20.042 29.5376 20.0569 27.5577 20.0569 25.1404L20.0494 20.7509L16.6648 18.794C14.8018 17.7196 13.2506 16.8218 13.2135 16.8141C13.1838 16.7988 13.1615 18.7633 13.1689 21.1883ZM15.4327 19.6688L15.6406 19.853L15.6628 22.1859C15.6777 24.7107 15.6702 24.8027 15.2769 24.9946C15.0319 25.1251 14.7647 25.0637 14.5643 24.8411C14.4233 24.68 14.4159 24.5802 14.4159 22.2703V19.8607L14.6014 19.6765C14.8315 19.4309 15.1581 19.4309 15.4327 19.6688Z" fill="white"/>
<path d="M24.7923 18.7865L21.4003 20.751L21.3929 25.1482C21.3929 27.5732 21.4226 29.5377 21.4523 29.5224C21.4894 29.507 23.0406 28.6168 24.9037 27.5425L28.2957 25.5856V21.1884C28.2957 18.7788 28.2734 16.7989 28.2437 16.8066C28.2066 16.8142 26.6553 17.7044 24.7923 18.7865Z" fill="white"/>
<path d="M20.7679 4.63494C22.0117 4.63494 23.0199 3.62669 23.0199 2.38295C23.0199 1.13921 22.0117 0.130957 20.7679 0.130957C19.5242 0.130957 18.516 1.13921 18.516 2.38295C18.516 3.62669 19.5242 4.63494 20.7679 4.63494ZM21.1902 8.29443V2.38295H20.3457V8.29443H21.1902Z" fill="white"/>
<path d="M20.7679 38.1331C19.5242 38.1331 18.516 39.1414 18.516 40.3851C18.516 41.6289 19.5242 42.6371 20.7679 42.6371C22.0117 42.6371 23.0199 41.6289 23.0199 40.3851C23.0199 39.1414 22.0117 38.1331 20.7679 38.1331ZM20.3457 34.4736V40.3851H21.1902V34.4736H20.3457Z" fill="white"/>
<path d="M36.2504 20.9619C36.2504 22.2057 37.2586 23.2139 38.5024 23.2139C39.7461 23.2139 40.7544 22.2057 40.7544 20.9619C40.7544 19.7182 39.7461 18.7099 38.5024 18.7099C37.2586 18.7099 36.2504 19.7182 36.2504 20.9619ZM32.5909 21.3842H38.5024V20.5397H32.5909V21.3842Z" fill="white"/>
<path d="M5.28546 20.9619C5.28546 19.7182 4.2772 18.7099 3.03346 18.7099C1.78972 18.7099 0.781469 19.7182 0.781469 20.9619C0.781469 22.2057 1.78972 23.2139 3.03346 23.2139C4.2772 23.2139 5.28546 22.2057 5.28546 20.9619ZM8.94495 20.5397H3.03346V21.3842H8.94495V20.5397Z" fill="white"/>
<path d="M35 7.15217C35.8795 8.03163 37.3053 8.03163 38.1848 7.15217C39.0643 6.27271 39.0643 4.84683 38.1848 3.96737C37.3053 3.08791 35.8795 3.08791 35 3.96737C34.1205 4.84683 34.1205 6.27271 35 7.15217ZM30.3223 12.427L36.891 5.85834L36.2938 5.26119L29.7252 11.8298L30.3223 12.427Z" fill="white"/>
<path d="M6.5359 35.6159C5.65644 34.7364 4.23055 34.7364 3.3511 35.6159C2.47164 36.4954 2.47164 37.9212 3.3511 38.8007C4.23055 39.6802 5.65644 39.6802 6.5359 38.8007C7.41535 37.9212 7.41535 36.4954 6.5359 35.6159ZM11.2136 30.3411L4.64492 36.9097L5.24207 37.5069L11.8107 30.9382L11.2136 30.3411Z" fill="white"/>
<path d="M34.4029 34.4216C33.5234 35.301 33.5234 36.7269 34.4029 37.6064C35.2823 38.4858 36.7082 38.4858 37.5877 37.6064C38.4671 36.7269 38.4671 35.301 37.5877 34.4216C36.7082 33.5421 35.2823 33.5421 34.4029 34.4216ZM29.1281 29.7439L35.6967 36.3125L36.2939 35.7154L29.7252 29.1467L29.1281 29.7439Z" fill="white"/>
<path d="M7.73017 7.74934C8.60963 6.86988 8.60963 5.44399 7.73017 4.56454C6.85071 3.68508 5.42483 3.68508 4.54537 4.56454C3.66591 5.44399 3.66591 6.86988 4.54537 7.74934C5.42483 8.62879 6.85071 8.62879 7.73017 7.74934ZM13.005 12.427L6.43635 5.85836L5.8392 6.45551L12.4078 13.0242L13.005 12.427Z" fill="white"/>
</svg>
