<svg width="39" height="39" viewBox="0 0 39 39" fill="none" xmlns="http://www.w3.org/2000/svg">
<path d="M17.2754 2.70456C13.7127 3.34288 11.0629 6.01492 10.4468 9.59249C9.91242 12.7025 11.3449 15.9905 14.0095 17.7793C14.9522 18.4177 16.1249 18.8927 17.164 19.0634C17.4684 19.1079 17.7727 19.1599 17.8321 19.1747C17.8914 19.1822 17.4461 19.197 16.83 19.2044C14.4326 19.2267 12.8517 19.5978 11.1148 20.5553C9.44481 21.4757 7.93807 22.9601 6.98801 24.6079C6.32742 25.7658 5.83013 27.2799 5.65941 28.6382C5.54066 29.6402 5.56292 32.6017 5.69653 33.1287C6.03053 34.4054 7.02512 35.3926 8.30919 35.7266C8.67288 35.823 10.1351 35.8379 18.9825 35.8379C25.6849 35.8379 29.4406 35.8082 29.8488 35.7637C31.7044 35.5262 33.2408 34.6058 33.8198 33.3959L34.0499 32.9061V27.5249V22.1437L33.8495 21.7206C33.226 20.3846 31.8009 19.5384 29.7375 19.2786C28.3347 19.1079 26.8576 19.3083 25.7368 19.8353L25.2173 20.0728L24.527 19.8279C23.3765 19.4197 22.5007 19.2712 20.8381 19.2118C20.0216 19.1896 19.4575 19.1599 19.5911 19.1525C20.3705 19.1079 21.521 18.7442 22.523 18.2247C24.7348 17.0816 26.2787 15.0034 26.8279 12.4204C26.9467 11.8489 26.9467 9.94876 26.8279 9.37724C26.3677 7.23218 25.1431 5.3098 23.473 4.12965C21.6991 2.87527 19.3536 2.33344 17.2754 2.70456ZM20.0884 5.14651C20.326 5.21331 20.7045 5.34691 20.9272 5.4434C21.417 5.66607 21.4022 5.7106 20.6897 6.3415C18.8044 8.01153 16.4144 8.76861 14.0689 8.44203C13.7498 8.39749 13.4603 8.33811 13.4232 8.301C13.3193 8.19709 13.8091 7.44001 14.3732 6.8388C15.2862 5.86647 16.3773 5.28011 17.743 5.03517C18.2329 4.93868 19.5689 5.00548 20.0884 5.14651ZM23.911 8.22678C25.3064 10.9062 24.4231 14.2018 21.855 15.8792C19.5615 17.3859 16.4663 17.0594 14.4994 15.1221C13.438 14.0682 12.8442 12.7767 12.7329 11.2774L12.6884 10.6539L13.0521 10.7058C14.2768 10.8766 14.774 10.9137 15.5682 10.8766C18.2106 10.7504 20.5709 9.73351 22.4784 7.9002L23.2133 7.19507L23.4137 7.42517C23.5324 7.55877 23.7551 7.91504 23.911 8.22678ZM19.3907 22.1808L19.0939 22.7746H18.6485H18.2032L17.9063 22.1808L17.6094 21.587H18.6485H19.6876L19.3907 22.1808ZM29.8191 21.6983C30.7618 21.8765 31.7118 22.4183 31.7118 22.7746C31.7118 22.9601 31.2739 23.3387 30.8063 23.5539C29.6484 24.0809 27.8374 24.0809 26.6795 23.5539C26.2119 23.3387 25.774 22.9601 25.774 22.7746C25.774 22.589 26.2193 22.2105 26.6795 21.9952C27.5256 21.6093 28.7503 21.4905 29.8191 21.6983ZM15.6054 22.9156L16.1917 24.0957L15.16 27.6956C14.5959 29.6699 14.106 31.4884 14.0838 31.7259C14.0392 32.1267 14.1506 32.9432 14.3064 33.3366C14.3584 33.4627 14.2248 33.4702 11.5379 33.4479C8.82133 33.4256 8.70257 33.4182 8.50959 33.2698C8.39826 33.1881 8.23497 33.0248 8.15332 32.9135C8.00487 32.7205 7.99745 32.6092 7.99745 30.8055C7.99745 28.7718 8.04941 28.3339 8.39084 27.3022C9.24441 24.7266 11.3524 22.6929 13.9724 21.9284C15.0264 21.6167 14.9225 21.5573 15.6054 22.9156ZM23.1761 21.8839L23.4359 21.9581L23.4137 27.2502C23.3914 32.3049 23.3988 32.5646 23.5398 33.0026L23.6809 33.4627H23.3097C22.9832 33.4627 22.946 33.4479 22.9906 33.3291C23.139 32.9506 23.2578 32.1267 23.2133 31.7482C23.191 31.5181 22.7085 29.6996 22.137 27.7104L21.1053 24.0957L21.6991 22.9082L22.2929 21.7132L22.6046 21.7651C22.7753 21.7874 23.0351 21.8394 23.1761 21.8839ZM19.0864 25.647C19.7396 27.8589 20.8752 31.9412 20.8752 32.0822C20.8752 32.1713 20.7416 32.5201 20.5783 32.8541L20.2889 33.4627H18.6485H17.0082L16.7187 32.8541C16.5554 32.5201 16.4218 32.1713 16.4218 32.0822C16.4218 31.9412 17.5574 27.8589 18.2106 25.647L18.359 25.1497H18.6485H18.938L19.0864 25.647ZM26.8131 26.0924C27.444 26.2631 27.6518 26.2853 28.7429 26.2853C29.9899 26.2853 30.1457 26.2631 31.5485 25.8474C31.7118 25.8029 31.7118 25.8029 31.7118 26.7233V27.6436L31.4743 27.8737C30.977 28.3562 29.8191 28.7124 28.7429 28.7124C27.6667 28.7124 26.5088 28.3562 26.0189 27.8737L25.774 27.6436V26.7233C25.774 25.8029 25.774 25.8029 25.9447 25.8474C26.0337 25.8771 26.4271 25.9884 26.8131 26.0924ZM26.8131 30.8427C27.444 31.0134 27.6518 31.0356 28.7429 31.0356C29.9899 31.0356 30.1457 31.0134 31.5485 30.5977C31.7118 30.5532 31.7118 30.5532 31.7118 31.4736V32.3939L31.4743 32.624C30.977 33.1065 29.8191 33.4627 28.7429 33.4627C27.6667 33.4627 26.5088 33.1065 26.0189 32.624L25.774 32.3939V31.4736C25.774 30.5532 25.774 30.5532 25.9447 30.5977C26.0337 30.6274 26.4271 30.7387 26.8131 30.8427Z" fill="white"/>
</svg>
