<svg width="39" height="39" viewBox="0 0 39 39" fill="none" xmlns="http://www.w3.org/2000/svg">
<g clip-path="url(#clip0_2105_2345)">
<path opacity="0.961" fill-rule="evenodd" clip-rule="evenodd" d="M16.1788 0.41748C18.6035 0.41748 21.0281 0.41748 23.4527 0.41748C23.574 0.526713 23.6853 0.650419 23.7867 0.788598C23.7991 1.80388 23.8362 2.81827 23.8981 3.83176C25.3303 4.20789 26.6788 4.77694 27.9432 5.5389C28.5989 4.88326 29.2545 4.22761 29.9102 3.57198C30.2013 3.39926 30.4982 3.37451 30.8008 3.49775C32.4461 5.14304 34.0914 6.78832 35.7367 8.43361C35.8599 8.73629 35.8352 9.03319 35.6625 9.32429C35.0069 9.97991 34.3512 10.6356 33.6956 11.2912C34.4575 12.5557 35.0265 13.9041 35.4027 15.3364C36.4161 15.3982 37.4305 15.4353 38.4458 15.4477C38.5841 15.5491 38.7077 15.6604 38.817 15.7817C38.817 18.2064 38.817 20.631 38.817 23.0556C38.7077 23.1769 38.5841 23.2882 38.4458 23.3896C37.4305 23.402 36.4161 23.4391 35.4027 23.501C35.0265 24.9333 34.4575 26.2817 33.6956 27.5461C34.3512 28.2018 35.0069 28.8574 35.6625 29.5131C35.8352 29.8042 35.8599 30.1011 35.7367 30.4037C34.0914 32.0491 32.4461 33.6943 30.8008 35.3396C30.4982 35.4628 30.2013 35.4381 29.9102 35.2654C29.2545 34.6098 28.5989 33.9541 27.9432 33.2985C26.6749 34.0431 25.3265 34.5997 23.8981 34.9685C23.8369 35.9896 23.7998 37.0165 23.7867 38.0488C23.6853 38.187 23.574 38.3106 23.4527 38.4199C21.0281 38.4199 18.6035 38.4199 16.1788 38.4199C16.0575 38.3106 15.9462 38.187 15.8448 38.0488C15.8318 37.0165 15.7946 35.9896 15.7335 34.9685C14.3194 34.5953 12.9834 34.0386 11.7254 33.2985C11.0461 33.9406 10.3781 34.5963 9.72139 35.2654C9.43028 35.4381 9.13339 35.4628 8.8307 35.3396C7.18542 33.6943 5.54014 32.0491 3.89485 30.4037C3.77161 30.1011 3.79635 29.8042 3.96907 29.5131C4.63815 28.8563 5.2938 28.1883 5.93599 27.509C5.19581 26.2511 4.63914 24.9151 4.26596 23.501C3.24476 23.4398 2.21801 23.4027 1.18569 23.3896C1.04751 23.2882 0.923808 23.1769 0.814575 23.0556C0.814575 20.631 0.814575 18.2064 0.814575 15.7817C0.923808 15.6604 1.04751 15.5491 1.18569 15.4477C2.21801 15.4347 3.24476 15.3975 4.26596 15.3364C4.63474 13.908 5.19141 12.5595 5.93599 11.2912C5.28035 10.6356 4.62471 9.97991 3.96907 9.32429C3.79635 9.03319 3.77161 8.73629 3.89485 8.43361C5.54014 6.78832 7.18542 5.14304 8.8307 3.49775C9.13339 3.37451 9.43028 3.39926 9.72139 3.57198C10.377 4.22761 11.0327 4.88326 11.6883 5.5389C12.9528 4.77694 14.3012 4.20789 15.7335 3.83176C15.7953 2.81827 15.8324 1.80388 15.8448 0.788598C15.9462 0.650419 16.0575 0.526713 16.1788 0.41748ZM17.2922 1.90195C18.9746 1.90195 20.6569 1.90195 22.3394 1.90195C22.327 2.86717 22.3394 3.83208 22.3765 4.79666C22.4347 4.92923 22.5213 5.04056 22.6363 5.13067C24.4435 5.53475 26.1259 6.22751 27.6835 7.20892C27.9556 7.35737 28.2277 7.35737 28.4999 7.20892C29.1308 6.57802 29.7617 5.94713 30.3926 5.31623C31.5678 6.49143 32.743 7.66664 33.9182 8.84184C33.2873 9.47274 32.6564 10.1036 32.0255 10.7345C31.8771 11.0067 31.8771 11.2788 32.0255 11.551C33.0069 13.1086 33.6997 14.7909 34.1038 16.5982C34.1939 16.7132 34.3052 16.7997 34.4378 16.858C35.4024 16.8951 36.3673 16.9075 37.3325 16.8951C37.3325 18.5775 37.3325 20.2599 37.3325 21.9423C36.3673 21.9299 35.4024 21.9423 34.4378 21.9794C34.3052 22.0376 34.1939 22.1242 34.1038 22.2392C33.6719 24.0922 32.9544 25.8241 31.9513 27.4348C31.8927 27.6674 31.9174 27.8901 32.0255 28.1028C32.6564 28.7337 33.2873 29.3646 33.9182 29.9955C32.743 31.1707 31.5678 32.3459 30.3926 33.5211C29.7617 32.8902 29.1308 32.2593 28.4999 31.6284C28.2872 31.5203 28.0645 31.4956 27.8319 31.5542C26.2204 32.5578 24.4885 33.2752 22.6363 33.7067C22.5213 33.7968 22.4347 33.9081 22.3765 34.0407C22.3394 35.0053 22.327 35.9702 22.3394 36.9354C20.6569 36.9354 18.9746 36.9354 17.2922 36.9354C17.3046 35.9702 17.2922 35.0053 17.2551 34.0407C17.1684 33.8551 17.0324 33.7191 16.8468 33.6325C15.0575 33.2426 13.3999 32.5498 11.8739 31.5542C11.6168 31.4936 11.3693 31.5184 11.1316 31.6284C10.5007 32.2593 9.86983 32.8902 9.23893 33.5211C8.06373 32.3459 6.88852 31.1707 5.71332 29.9955C6.34422 29.3646 6.97512 28.7337 7.60602 28.1028C7.71611 27.8652 7.74085 27.6177 7.68024 27.3606C6.6744 25.779 5.9569 24.0718 5.52776 22.2392C5.43766 22.1242 5.32632 22.0376 5.19376 21.9794C4.22917 21.9423 3.26427 21.9299 2.29904 21.9423C2.29904 20.2599 2.29904 18.5775 2.29904 16.8951C3.26427 16.9075 4.22917 16.8951 5.19376 16.858C5.37932 16.7713 5.51539 16.6353 5.60199 16.4497C6.00857 14.6473 6.70132 12.9649 7.68024 11.4025C7.73889 11.1699 7.71415 10.9473 7.60602 10.7345C6.97512 10.1036 6.34422 9.47274 5.71332 8.84184C6.88852 7.66664 8.06373 6.49143 9.23893 5.31623C9.86983 5.94713 10.5007 6.57802 11.1316 7.20892C11.3444 7.31705 11.567 7.34179 11.7996 7.28315C13.4104 6.28005 15.1423 5.56255 16.9953 5.13067C17.1103 5.04056 17.1968 4.92923 17.2551 4.79666C17.2922 3.83208 17.3046 2.86717 17.2922 1.90195Z" fill="white"/>
<path opacity="0.96" fill-rule="evenodd" clip-rule="evenodd" d="M15.8819 9.69531C17.5309 9.74912 18.5824 10.5656 19.0364 12.1447C19.0859 16.9939 19.0859 21.8432 19.0364 26.6925C18.3694 28.6529 17.021 29.4075 14.9912 28.9563C14.1757 28.6728 13.5819 28.1408 13.2099 27.3605C10.7067 27.146 9.5067 25.7852 9.61002 23.2782C9.63311 23.1256 9.67022 22.9771 9.72136 22.8329C8.90906 22.4537 8.37717 21.8351 8.12555 20.9773C8.07607 19.5423 8.07607 18.1073 8.12555 16.6723C8.43469 15.6333 9.11503 14.99 10.1667 14.7425C10.0525 13.424 10.5969 12.4962 11.7996 11.9591C12.2155 11.8757 12.636 11.8263 13.0614 11.8107C13.5903 10.5514 14.5304 9.84628 15.8819 9.69531ZM15.8819 11.254C14.8846 11.5249 14.4021 12.1929 14.4345 13.258C14.0472 13.8407 13.5896 13.9026 13.0614 13.4436C12.088 13.3284 11.655 13.7613 11.7625 14.7425C12.078 15.038 12.3996 15.3349 12.7274 15.6332C12.839 15.8959 12.8638 16.168 12.8016 16.4496C12.2958 17.0451 11.7886 17.0327 11.28 16.4125C10.5671 16.0811 10.0351 16.2667 9.68425 16.9692C9.67185 17.5877 9.65953 18.2063 9.64713 18.8248C9.63674 19.4999 9.67385 20.1679 9.75847 20.8288C10.1441 21.301 10.6513 21.5114 11.28 21.4597C11.6167 21.6768 11.7527 21.9861 11.6883 22.3875C11.0116 23.2481 10.9622 24.1388 11.5398 25.0596C12.4814 25.9083 13.4587 25.9454 14.4717 25.1709C14.7533 25.1088 15.0254 25.1335 15.2881 25.2451C15.6296 25.5992 15.6667 25.9828 15.3994 26.3956C15.1794 26.5607 14.9691 26.7339 14.7685 26.9151C15.0833 27.3015 15.4915 27.5241 15.9932 27.5832C16.9454 27.4475 17.465 26.9032 17.5519 25.9502C17.6014 21.5711 17.6014 17.1919 17.5519 12.8127C17.4131 11.845 16.8564 11.3254 15.8819 11.254Z" fill="white"/>
<path opacity="0.946" fill-rule="evenodd" clip-rule="evenodd" d="M23.4527 9.69531C24.9645 9.72025 26.0037 10.4254 26.5701 11.8107C28.0155 11.7595 28.968 12.4152 29.4277 13.7776C29.4647 14.0983 29.4771 14.4199 29.4648 14.7425C30.5165 14.99 31.1968 15.6333 31.5059 16.6723C31.5183 17.3774 31.5306 18.0826 31.543 18.7877C31.5519 19.5959 31.5148 20.4 31.4317 21.1999C31.1434 21.946 30.6363 22.4903 29.9101 22.8329C30.3172 24.5442 29.7976 25.8926 28.3514 26.878C27.7438 27.1784 27.1005 27.3392 26.4216 27.3605C25.6616 28.7482 24.4987 29.3049 22.9331 29.0305C21.7084 28.6965 21.0314 27.8586 20.6974 26.6339C20.6974 25.7309 20.5529 23.1245 20.6974 21.5669H21.9641C21.9697 23.0542 22.0603 24.9881 22.1538 26.4698C22.6973 27.5481 23.5015 27.8079 24.566 27.2492C24.6788 27.1489 24.7777 27.0375 24.8629 26.9151C24.6624 26.7339 24.4521 26.5607 24.232 26.3956C23.9648 25.9828 24.0019 25.5992 24.3434 25.2451C24.606 25.1335 24.8781 25.1088 25.1598 25.1709C26.1728 25.9454 27.1501 25.9083 28.0917 25.0596C28.6693 24.1388 28.6199 23.2481 27.9432 22.3875C27.8788 21.9861 28.0148 21.6768 28.3514 21.4597C29.0623 21.535 29.5942 21.2752 29.9472 20.6804C29.9967 19.4433 29.9967 18.2063 29.9472 16.9692C29.5964 16.2667 29.0644 16.0811 28.3514 16.4125C27.8429 17.0327 27.3357 17.0451 26.8299 16.4496C26.7803 16.227 26.7803 16.0043 26.8299 15.7816C27.1331 15.3845 27.4795 15.0381 27.869 14.7425C27.9803 13.7652 27.5474 13.3323 26.5701 13.4436C26.0419 13.9026 25.5842 13.8407 25.1969 13.258C25.1665 11.7178 24.4119 11.1116 22.9331 11.4396C22.5661 11.6582 22.3063 11.9674 22.1538 12.3674C22.0603 13.8491 21.9697 20.0797 21.9641 21.5669H20.6974C20.6974 21.5669 20.4518 14.152 20.5209 12.8127C20.7001 11.0131 21.6774 9.97395 23.4527 9.69531Z" fill="white"/>
</g>
<defs>
<clipPath id="clip0_2105_2345">
<rect width="38.0024" height="38.0024" fill="white" transform="translate(0.851685 0.45459)"/>
</clipPath>
</defs>
</svg>
