<svg width="39" height="39" viewBox="0 0 39 39" fill="none" xmlns="http://www.w3.org/2000/svg">
<path d="M20.3095 2.0854C20.1388 2.219 20.1166 2.2858 20.1166 2.70145V3.16906L19.018 3.21359C16.4499 3.3175 14.3197 3.85191 12.1301 4.93558C7.28333 7.33299 3.97296 11.9126 3.14166 17.368C2.96352 18.5333 2.96352 20.8045 3.14166 21.9699C3.69833 25.5994 5.20507 28.6351 7.74351 31.2255C8.93851 32.4428 9.34674 32.6283 10.0741 32.2795C10.6679 31.99 10.9351 31.2107 10.6456 30.6317C10.5788 30.4981 10.23 30.1196 9.8663 29.7782C6.40749 26.5272 4.84138 21.569 5.79886 16.8855C6.91221 11.4079 11.1652 7.17712 16.7023 6.01181C17.489 5.84852 19.1442 5.69265 19.7083 5.72977L20.0794 5.75203L20.1017 6.19737C20.1166 6.52396 20.1685 6.68725 20.2798 6.80601C20.599 7.14001 20.7846 7.06579 22.3358 5.93017C23.9762 4.72775 24.1024 4.55704 23.7238 4.10427C23.5679 3.91871 21.8979 2.64949 21.1037 2.10766C20.7771 1.89241 20.5693 1.88499 20.3095 2.0854Z" fill="white"/>
<path d="M28.8155 7.05811C28.2366 7.34758 27.962 8.13435 28.244 8.6836C28.3034 8.80236 28.7487 9.29224 29.2312 9.77469C30.634 11.1775 31.636 12.662 32.3263 14.3691C33.0834 16.2395 33.3506 17.6201 33.3506 19.6687C33.3506 21.7172 33.0834 23.0978 32.3263 24.9682C30.6118 29.199 26.7299 32.4128 22.2319 33.3184C21.3858 33.4891 19.738 33.6449 19.1888 33.6078L18.8177 33.5856L18.7954 33.1402C18.7805 32.8136 18.7286 32.6503 18.6172 32.5316C18.2981 32.1902 18.1125 32.2718 16.5538 33.4223C15.3663 34.2907 15.0991 34.5208 15.0397 34.7138C14.9877 34.8993 15.0026 34.9958 15.0991 35.1443C15.2104 35.315 17.5781 37.126 17.9492 37.3264C18.1793 37.4452 18.3649 37.4229 18.5876 37.2522C18.7583 37.1186 18.7805 37.0518 18.7805 36.6361V36.1685L19.879 36.124C21.7272 36.0498 23.1375 35.7974 24.7555 35.2482C32.2298 32.7097 36.8762 25.1167 35.7332 17.2935C35.221 13.7902 33.6698 10.6802 31.1536 8.11208C29.9586 6.89482 29.5355 6.70184 28.8155 7.05811Z" fill="white"/>
<path d="M15.9824 12.7438C13.4216 14.1763 12.5755 14.681 12.6423 14.7404C12.6943 14.7849 14.2455 15.6608 16.0937 16.6925L19.456 18.5703L22.8109 16.6925C24.6591 15.6682 26.2103 14.7849 26.2549 14.7404C26.3217 14.681 25.5201 14.1986 22.9668 12.766C21.1112 11.7269 19.5525 10.8659 19.5005 10.8511C19.4486 10.8437 17.8676 11.6972 15.9824 12.7438ZM19.7381 12.432C19.9756 12.5508 20.0424 12.677 20.0424 13.0184C20.0424 13.1743 19.983 13.3153 19.8791 13.4118C19.5525 13.7013 16.4871 15.3639 16.2792 15.3639C16.0417 15.3564 15.871 15.2451 15.7523 15.015C15.6187 14.7701 15.6409 14.5771 15.8339 14.3693C16.0046 14.1689 19.263 12.3207 19.4337 12.3207C19.4857 12.3207 19.6267 12.3727 19.7381 12.432Z" fill="white"/>
<path d="M11.8926 20.0549L11.9149 24.3079L15.3217 26.2154C17.1922 27.2694 18.736 28.1304 18.7509 28.1304C18.7657 28.1304 18.7805 26.2154 18.7805 23.8774L18.7731 19.6318L15.3885 17.7391C13.5255 16.7 11.9743 15.8315 11.9371 15.8241C11.9075 15.8093 11.8852 17.7094 11.8926 20.0549ZM14.1564 18.5852L14.3643 18.7634L14.3865 21.0198C14.4014 23.4617 14.3939 23.5508 14.0006 23.7363C13.7556 23.8625 13.4884 23.8031 13.288 23.5879C13.147 23.432 13.1396 23.3355 13.1396 21.1014V18.7708L13.3251 18.5927C13.5552 18.3551 13.8818 18.3551 14.1564 18.5852Z" fill="white"/>
<path d="M23.516 17.7318L20.124 19.6319L20.1166 23.8849C20.1166 26.2304 20.1463 28.1305 20.176 28.1156C20.2131 28.1008 21.7643 27.2398 23.6273 26.2007L27.0194 24.308V20.055C27.0194 17.7244 26.9971 15.8094 26.9674 15.8168C26.9303 15.8242 25.379 16.6852 23.516 17.7318Z" fill="white"/>
</svg>
