<svg width="39" height="39" viewBox="0 0 39 39" fill="none" xmlns="http://www.w3.org/2000/svg">
<g clip-path="url(#clip0_2105_2290)">
<path d="M18.2852 1.99602V3.10938H19.3821H20.4791V1.99602V0.882672H19.3821H18.2852V1.99602Z" fill="white"/>
<path d="M13.0561 2.15179C12.5735 2.35961 12.1566 2.55259 12.12 2.58228C12.0542 2.64908 12.8075 4.52694 12.9099 4.57147C13.0196 4.60858 14.8625 3.82924 14.8625 3.74017C14.8552 3.55461 14.0873 1.77325 14.0142 1.77325C13.9703 1.78067 13.5388 1.95138 13.0561 2.15179Z" fill="white"/>
<path d="M24.2965 2.71588C24.0845 3.24286 23.9163 3.69563 23.9163 3.74016C23.9163 3.85149 25.8104 4.63084 25.8908 4.54919C26.0225 4.41559 26.7026 2.64165 26.6441 2.58227C26.5783 2.51547 24.8304 1.77324 24.7427 1.77324C24.7061 1.77324 24.5086 2.19631 24.2965 2.71588Z" fill="white"/>
<path d="M7.68097 5.8187L6.91309 6.59805L7.68097 7.37739L8.44886 8.15674L9.23137 7.36255L10.0212 6.56093L9.27525 5.80386C8.85839 5.38078 8.50736 5.03935 8.48542 5.03935C8.46348 5.03935 8.10514 5.3882 7.68097 5.8187Z" fill="white"/>
<path d="M29.4889 5.80386L28.7429 6.56093L29.5327 7.36255L30.3153 8.15674L31.0831 7.37739L31.851 6.59805L31.0831 5.8187C30.659 5.3882 30.3006 5.03935 30.2787 5.03935C30.2568 5.03935 29.9057 5.38078 29.4889 5.80386Z" fill="white"/>
<path d="M18.0438 5.41049C16.6835 5.58121 15.1258 6.04881 14.0361 6.59807C10.2845 8.50561 7.76873 12.1574 7.32262 16.3362C6.8107 21.1013 9.09241 25.7551 13.1512 28.2119L13.8972 28.6647V32.1087V35.5452H14.9942H16.0911V37.2152V38.8853H17.1881H18.2851V37.2152V35.5452H19.3821H20.4791V37.2152V38.8853H21.576H22.673V37.2152V35.5452H23.77H24.867V32.0938V28.6424L25.1814 28.4866C26.8415 27.6256 28.7283 25.7922 29.7814 24.0035C32.1655 19.9434 32.0851 14.9111 29.562 10.9772C27.7264 8.09738 24.7938 6.12304 21.4663 5.52183C20.6911 5.3808 18.7531 5.32142 18.0438 5.41049ZM21.2689 7.74853C24.2746 8.34232 26.9 10.3686 28.2895 13.1743C28.604 13.8126 29.0062 15.0224 29.1598 15.7869C29.3353 16.6776 29.3353 18.6371 29.1598 19.5278C29.0062 20.3071 28.604 21.5096 28.2676 22.185C27.3534 24.0257 25.686 25.7329 23.9016 26.6458L23.4848 26.8611H19.3821H15.2794L14.8991 26.6681C10.321 24.3226 8.24408 18.741 10.1601 13.9091C11.5058 10.5171 14.5261 8.14191 18.1388 7.63719C18.8116 7.5407 20.5522 7.6075 21.2689 7.74853ZM22.673 31.2031V33.3185H19.3821H16.0911V31.2031V29.0878H19.3821H22.673V31.2031Z" fill="white"/>
<path d="M18.4899 9.90842C17.2174 10.2202 16.1058 11.2667 15.7255 12.5211C15.528 13.1743 15.528 14.206 15.7255 14.8591C15.8059 15.1263 16.0107 15.5568 16.1862 15.8092L16.4934 16.2768L15.901 16.8706C15.433 17.3456 15.2428 17.6054 15.0088 18.1027C14.5042 19.1418 14.4603 19.4313 14.453 21.5912L14.4457 23.4839H19.3821H24.3185L24.3112 21.5912C24.3039 19.4313 24.26 19.1418 23.7554 18.1027C23.5213 17.6054 23.3312 17.3456 22.8632 16.8706L22.2708 16.2768L22.5633 15.8315C23.3897 14.5993 23.4116 12.8551 22.6145 11.6007C21.7296 10.2127 20.0476 9.52246 18.4899 9.90842ZM20.1207 12.2242C20.3694 12.3504 20.5961 12.5508 20.735 12.7512C20.9398 13.0407 20.9544 13.1223 20.9544 13.6864C20.9544 14.2505 20.9398 14.3321 20.735 14.6216C20.4425 15.0373 19.8574 15.3564 19.3821 15.3564C18.9067 15.3564 18.3217 15.0373 18.0291 14.6216C17.8244 14.3321 17.8097 14.2505 17.8097 13.6864C17.8097 13.1223 17.8244 13.0407 18.0291 12.7512C18.3217 12.3355 18.9067 12.0164 19.3821 12.0164C19.6234 12.0164 19.8501 12.0832 20.1207 12.2242ZM20.1938 17.7316C21.0275 17.9988 21.6345 18.5851 21.9417 19.409C22.0514 19.7208 22.088 19.9954 22.088 20.5521V21.2943H19.3748H16.6616L16.6908 20.4185C16.7128 19.654 16.742 19.5055 16.9102 19.1715C17.2905 18.4367 17.8244 17.9617 18.5703 17.7241C19.1115 17.546 19.6307 17.5534 20.1938 17.7316Z" fill="white"/>
<path d="M4.38274 10.5765C4.05364 11.3558 3.71724 12.2465 3.73918 12.2688C3.77574 12.3059 5.53091 13.0481 5.64061 13.0704C5.6918 13.0853 5.89657 12.677 6.14522 12.0758L6.56207 11.059L5.65523 10.6804C5.15794 10.4726 4.70452 10.287 4.64601 10.2648C4.57288 10.2351 4.49244 10.3241 4.38274 10.5765Z" fill="white"/>
<path d="M33.2405 10.6132C32.7579 10.8211 32.3337 11.0215 32.2971 11.0511C32.224 11.1254 32.9919 13.0478 33.0943 13.0552C33.2479 13.0552 35.0323 12.2833 35.0323 12.209C35.0323 12.0457 34.2571 10.2347 34.1913 10.2421C34.1547 10.2421 33.7232 10.4128 33.2405 10.6132Z" fill="white"/>
<path d="M2.85425 17.6572V18.7705H3.95123H5.0482V17.6572V16.5438H3.95123H2.85425V17.6572Z" fill="white"/>
<path d="M33.7159 17.6572V18.7705H34.8129H35.9099V17.6572V16.5438H34.8129H33.7159V17.6572Z" fill="white"/>
<path d="M4.75572 22.6005C4.25111 22.8158 3.81232 23.0088 3.76844 23.0236C3.70994 23.0459 4.40469 24.894 4.52902 25.0276C4.58021 25.0796 6.14523 24.471 6.4597 24.2854C6.54014 24.2409 6.48164 24.033 6.16717 23.2611C5.94777 22.7267 5.743 22.2739 5.72107 22.2517C5.69181 22.2294 5.26033 22.3853 4.75572 22.6005Z" fill="white"/>
<path d="M32.9919 22.3554C32.9553 22.4444 32.7725 22.8972 32.5824 23.3648C32.3995 23.825 32.2679 24.2332 32.3045 24.2629C32.3849 24.3445 34.2278 25.109 34.2571 25.0719C34.2644 25.0571 34.4472 24.6266 34.652 24.1145C34.9957 23.2683 35.0835 23.0011 35.003 23.0011C34.9884 23.0011 34.5423 22.8155 34.0157 22.5929C33.0577 22.1921 33.0504 22.1921 32.9919 22.3554Z" fill="white"/>
<path d="M7.68097 27.9374L6.91309 28.7167L7.70291 29.5183L8.48542 30.3125L9.25331 29.5332L10.0212 28.7538L9.23137 27.9522L8.44886 27.158L7.68097 27.9374Z" fill="white"/>
<path d="M29.5254 27.9596L28.7429 28.7538L29.5108 29.5332L30.2787 30.3125L31.0685 29.5109L31.851 28.7167L31.0831 27.9374L30.3153 27.158L29.5254 27.9596Z" fill="white"/>
</g>
<defs>
<clipPath id="clip0_2105_2290">
<rect width="37.4435" height="38.0024" fill="white" transform="translate(0.660278 0.882812)"/>
</clipPath>
</defs>
</svg>
