<svg width="39" height="39" viewBox="0 0 39 39" fill="none" xmlns="http://www.w3.org/2000/svg">
<path d="M18.6466 1.44072C17.4368 1.76731 16.4348 2.73221 16.0859 3.91236C16.0191 4.13503 15.9672 4.5878 15.9672 4.9218C15.9672 5.93866 16.2789 6.68832 16.9989 7.41571C18.7654 9.18965 21.6156 8.72204 22.7289 6.47307C23.011 5.9164 23.0407 5.79022 23.0778 5.14447C23.1075 4.60264 23.0852 4.32059 22.9813 3.94948C22.484 2.11616 20.4651 0.95085 18.6466 1.44072Z" fill="white"/>
<path d="M8.99013 4.29781C8.15141 4.41657 7.46855 4.77284 6.89703 5.38889C6.23644 6.09402 5.93213 6.86594 5.93213 7.85311C5.93213 8.55823 6.07315 9.0778 6.42943 9.67158C7.60216 11.6608 10.4004 12.0096 12.0259 10.3693C13.1095 9.26336 13.3842 7.60817 12.6939 6.23504C12.011 4.86191 10.5043 4.07514 8.99013 4.29781Z" fill="white"/>
<path d="M28.9933 4.298C27.9987 4.44645 26.8927 5.21837 26.4177 6.11647C25.7571 7.34858 25.861 8.86274 26.6923 9.96867C28.2288 12.0172 31.3387 11.8614 32.6302 9.67178C32.9865 9.07057 33.1275 8.55842 33.1201 7.83103C33.1127 5.61175 31.2051 3.97884 28.9933 4.298Z" fill="white"/>
<path d="M18.1939 9.36728C17.1028 9.59737 16.0562 10.065 15.2398 10.7033C14.8093 11.0299 13.8147 12.0393 13.8147 12.1432C13.8221 12.1729 14.0522 12.3585 14.3343 12.5589C14.6089 12.7519 15.1136 13.1972 15.4476 13.5386L16.0562 14.1621L16.4422 14.0508C17.3403 13.791 18.231 13.6871 19.5299 13.6871C20.8288 13.6871 21.7195 13.791 22.6176 14.0508L23.0036 14.1621L23.6122 13.5386C23.9462 13.1972 24.4509 12.7519 24.7255 12.5589C25.0076 12.3585 25.2377 12.1729 25.2451 12.1432C25.2451 12.0319 24.1763 10.9631 23.7309 10.6291C23.152 10.1912 22.098 9.68644 21.3484 9.47861C20.5913 9.27821 18.9213 9.21883 18.1939 9.36728Z" fill="white"/>
<path d="M8.52997 12.2398C6.96386 12.4699 5.42743 13.2493 4.38088 14.3626C4.15821 14.6001 3.8539 14.9638 3.69803 15.1791C3.34175 15.669 2.79992 16.8194 2.65148 17.4058C2.51787 17.9105 2.55499 18.1109 2.82961 18.3558C2.98548 18.4969 3.11166 18.5043 6.35523 18.5266L9.71012 18.5488L10.3113 17.8586C11.3282 16.6858 12.8201 15.5428 14.171 14.897C14.505 14.7337 14.7796 14.5705 14.7796 14.5408C14.7796 14.4443 14.0002 13.754 13.5178 13.42C12.0704 12.4328 10.2148 11.9875 8.52997 12.2398Z" fill="white"/>
<path d="M28.548 12.2324C27.5386 12.3883 26.3807 12.8485 25.5419 13.42C25.0669 13.7466 24.2802 14.4443 24.2802 14.5333C24.2802 14.5705 24.5993 14.756 24.9927 14.949C26.3733 15.6318 27.7315 16.6858 28.7484 17.8586L29.3496 18.5488L32.7045 18.5266C35.9481 18.5043 36.0743 18.4969 36.2301 18.3558C36.5047 18.1109 36.5419 17.9105 36.4083 17.4058C36.2598 16.8194 35.718 15.669 35.3617 15.1791C34.5378 14.0435 33.4393 13.1899 32.1107 12.6406C31.22 12.2769 29.5277 12.084 28.548 12.2324Z" fill="white"/>
<path d="M18.602 14.8748C17.8524 14.9491 16.8281 15.1643 16.1155 15.4018C9.68779 17.4875 6.63721 24.7911 9.66552 30.87C10.571 32.681 12.2411 34.455 14.015 35.4644C15.8261 36.5035 17.9563 37.0231 20.0123 36.9266C25.1931 36.6817 29.4832 32.926 30.4184 27.8194C30.5891 26.8545 30.5891 24.9247 30.411 23.9672C29.5648 19.3802 26.0466 15.862 21.4596 15.0159C20.8361 14.9045 19.1587 14.8154 18.602 14.8748ZM20.3537 17.1015C20.9104 17.2648 21.3112 17.5172 21.7194 17.9551C22.3132 18.5934 22.5656 19.3653 22.573 20.5975V21.0651H23.4637C24.3098 21.0651 24.3543 21.0725 24.4657 21.2358C24.5473 21.362 24.6735 22.4902 24.9481 25.5556C25.1485 27.8417 25.3192 29.8012 25.3192 29.9125V30.1203H19.5298H13.7404V29.9125C13.7404 29.8012 13.9111 27.8417 14.1115 25.5556C14.3861 22.4902 14.5123 21.362 14.594 21.2358C14.7053 21.0725 14.7498 21.0651 15.596 21.0651H16.4867V20.5975C16.4941 19.0685 16.9023 18.1629 17.8895 17.4875C18.5723 17.0125 19.5447 16.864 20.3537 17.1015ZM25.49 31.6567C25.5419 32.0798 25.3786 32.488 25.0966 32.6216C24.9555 32.6959 23.6715 32.7181 19.5447 32.7181C13.6142 32.7181 13.8295 32.733 13.6291 32.2505C13.5697 32.1021 13.5474 31.872 13.5697 31.6567L13.6142 31.3079H19.5298H25.4454L25.49 31.6567Z" fill="white"/>
<path d="M18.9138 18.2741C18.4833 18.43 18.1716 18.7121 17.9415 19.1351C17.7485 19.4914 17.7263 19.6027 17.7188 20.2782L17.7114 21.0278H19.5299H21.3484L21.3706 20.7681C21.4746 19.7363 21.1257 18.8457 20.48 18.4449C20.0569 18.1851 19.3592 18.1034 18.9138 18.2741Z" fill="white"/>
<path d="M16.4867 22.0822C16.4867 23.1213 16.5683 23.5444 16.7836 23.6631C17.0137 23.7819 17.3625 23.7522 17.5258 23.5889C17.6594 23.4553 17.6743 23.344 17.6743 22.29V21.1395H17.0805H16.4867V22.0822Z" fill="white"/>
<path d="M21.3855 22.2897C21.3855 23.3437 21.4003 23.455 21.5339 23.5886C21.6898 23.7445 22.0461 23.7816 22.2762 23.6628C22.4988 23.5441 22.5731 23.1655 22.5731 22.1338V21.1392H21.9793H21.3855V22.2897Z" fill="white"/>
</svg>
