<svg width="39" height="39" viewBox="0 0 39 39" fill="none" xmlns="http://www.w3.org/2000/svg">
<g clip-path="url(#clip0_2105_2232)">
<path d="M32.0062 0.538541C31.687 0.701833 31.4272 1.13975 31.4272 1.49602C31.4272 2.04528 31.9913 2.60938 32.5332 2.60938C33.1047 2.60938 33.6539 2.06012 33.6539 1.49602C33.6539 1.12491 33.3942 0.701833 33.0602 0.531119C32.6965 0.345561 32.3625 0.345561 32.0062 0.538541Z" fill="white"/>
<path d="M13.6953 2.69137C12.3221 2.92146 11.2979 4.00512 11.0826 5.46732C10.8822 6.81819 11.424 8.77769 12.5448 10.7149L12.7452 11.0712L12.5448 11.42C11.7803 12.7561 11.2162 14.2702 11.0826 15.3984C10.7635 17.9888 12.3667 19.7108 14.9051 19.4955C16.0482 19.3991 17.4065 18.9463 18.7128 18.2189C19.1136 18.0037 19.455 17.8255 19.4847 17.8255C19.5144 17.8255 19.7816 17.9665 20.0859 18.1373C22.2013 19.3397 24.2424 19.7776 25.7046 19.3397C26.9071 18.9834 27.768 17.8552 27.9016 16.445C28.0278 15.1609 27.4563 13.2385 26.4098 11.42L26.2094 11.0712L26.4098 10.7149C27.1743 9.38632 27.7384 7.87216 27.872 6.74396C28.1392 4.5618 27.0481 2.95857 25.0886 2.67652C23.901 2.49838 22.2681 2.88435 20.65 3.71565C20.1898 3.94574 19.7371 4.19068 19.648 4.24263C19.507 4.33913 19.4476 4.32428 19.1284 4.13872C17.8666 3.41133 16.3376 2.83239 15.2985 2.69137C14.6305 2.59487 14.2668 2.6023 13.6953 2.69137ZM15.2466 4.94033C15.8478 5.07394 16.3005 5.22238 16.9611 5.5267L17.4807 5.76421L16.6197 6.52872C16.1447 6.95179 15.4024 7.70145 14.9645 8.1839L14.1703 9.07458L13.9551 8.60697C13.6285 7.89443 13.4058 7.20415 13.3093 6.63263C13.0644 5.163 13.6953 4.61375 15.2466 4.94033ZM25.2296 5.01456C25.5859 5.25207 25.6749 5.48217 25.6675 6.17244C25.6527 6.84788 25.4077 7.74598 24.9847 8.64408L24.7843 9.07458L23.9901 8.1839C23.5522 7.70145 22.8099 6.95179 22.3349 6.52872L21.4739 5.76421L21.9786 5.5267C22.5204 5.27434 23.2627 5.02198 23.7897 4.91065C24.2499 4.81415 25.0069 4.87353 25.2296 5.01456ZM19.9449 7.41197C20.5461 7.86474 22.6912 10.0098 23.1439 10.611L23.5002 11.0786L23.0697 11.613C22.4536 12.3849 20.9618 13.8917 20.1676 14.5374L19.4847 15.0941L19.0171 14.7378C18.4159 14.2851 16.2708 12.14 15.8107 11.5314L15.4618 11.0712L15.8107 10.6036C16.4341 9.78712 19.2175 7.09281 19.4624 7.06312C19.4773 7.06312 19.6925 7.21899 19.9449 7.41197ZM15.0981 14.1069C15.4766 14.53 16.1743 15.2129 16.6345 15.6285L17.4807 16.3782L17.0502 16.5786C16.8127 16.6899 16.3228 16.8829 15.9517 17.0016C13.2796 17.8701 12.5819 16.7493 13.8957 13.6839C14.1406 13.0901 14.1629 13.0678 14.2816 13.2014C14.3484 13.2756 14.7196 13.6839 15.0981 14.1069ZM25.4226 14.6339C25.7046 15.5023 25.764 16.4747 25.5413 16.8087C25.2964 17.1798 25.0737 17.2688 24.376 17.2614C23.7006 17.2466 22.8025 17.0016 21.9044 16.5786L21.4739 16.3782L22.3646 15.584C22.847 15.1461 23.5967 14.4038 24.0198 13.9288L24.7843 13.0678L24.9847 13.4983C25.096 13.7358 25.289 14.248 25.4226 14.6339Z" fill="white"/>
<path d="M18.9428 10.1132C18.6237 10.2765 18.3639 10.7145 18.3639 11.0707C18.3639 11.62 18.928 12.1841 19.4698 12.1841C20.0413 12.1841 20.5906 11.6348 20.5906 11.0707C20.5906 10.6996 20.3308 10.2765 19.9968 10.1058C19.6331 9.92027 19.2991 9.92027 18.9428 10.1132Z" fill="white"/>
<path d="M3.50436 6.55075C3.1852 6.71404 2.92542 7.15196 2.92542 7.50823C2.92542 8.05748 3.48951 8.62158 4.03134 8.62158C4.60286 8.62158 5.15212 8.07233 5.15212 7.50823C5.15212 7.13711 4.89234 6.71404 4.55833 6.54333C4.19464 6.35777 3.86063 6.35777 3.50436 6.55075Z" fill="white"/>
<path d="M30.8186 15.4575C30.4994 15.6208 30.2396 16.0587 30.2396 16.415C30.2396 16.9642 30.8037 17.5283 31.3456 17.5283C31.9171 17.5283 32.4663 16.9791 32.4663 16.415C32.4663 16.0439 32.2065 15.6208 31.8725 15.4501C31.5088 15.2645 31.1748 15.2645 30.8186 15.4575Z" fill="white"/>
<path d="M5.8796 17.2387C5.56044 17.402 5.30066 17.8399 5.30066 18.1962C5.30066 18.7455 5.86476 19.3096 6.40659 19.3096C6.97811 19.3096 7.52736 18.7603 7.52736 18.1962C7.52736 17.8251 7.26758 17.402 6.93357 17.2313C6.56988 17.0458 6.23587 17.0458 5.8796 17.2387Z" fill="white"/>
<path d="M14.4301 23.0582C14.2075 23.125 13.6062 23.3106 13.1015 23.4739C10.7338 24.2384 8.46256 24.6021 5.11508 24.7505C4.13534 24.7951 3.48217 25.1885 3.09621 25.9752C2.8958 26.3834 2.88838 26.4503 2.86612 27.712L2.83643 29.0332H9.28644C16.2783 29.0332 16.5678 29.0481 17.7553 29.4415C18.0671 29.5528 18.5866 29.768 18.9058 29.9239L19.4773 30.2134L20.0637 29.9239C20.3828 29.7606 20.9024 29.5454 21.2141 29.4415C22.3869 29.0481 22.6838 29.0332 29.6682 29.0332H36.1182L36.0885 27.712C36.0663 26.569 36.044 26.3538 35.9104 26.0569C35.6803 25.567 35.3314 25.2107 34.8638 24.9806C34.4853 24.7951 34.3517 24.7728 33.1418 24.7134C30.2397 24.5798 28.1095 24.2013 25.5636 23.37C24.4726 23.0137 24.3686 22.9914 23.5967 22.9914C22.9287 22.984 22.6912 23.0137 22.283 23.1547C21.37 23.4665 20.5164 24.1642 20.0488 24.9584C19.8187 25.3517 19.5515 26.0866 19.5515 26.3389C19.5515 26.428 19.5219 26.5096 19.4773 26.5096C19.4402 26.5096 19.4031 26.428 19.4031 26.3241C19.4031 26.2276 19.3214 25.9307 19.225 25.6635C18.7945 24.4759 17.8964 23.5852 16.6865 23.1622C16.0927 22.9543 14.9868 22.9024 14.4301 23.0582Z" fill="white"/>
<path d="M1.05502 31.4084C0.565142 31.6681 0.476074 31.9576 0.476074 33.3011C0.476074 34.6594 0.565142 34.934 1.06986 35.1938C1.35933 35.3422 1.49294 35.3422 8.69261 35.3422C15.484 35.3422 16.0407 35.3496 16.2114 35.4684C16.4935 35.6614 16.5677 35.7875 16.7013 36.2626C16.9537 37.1161 17.5475 37.7916 18.4159 38.185C18.8835 38.3928 19.9449 38.4151 20.4496 38.2147C21.2883 37.8955 21.9638 37.1681 22.2235 36.3145C22.3943 35.7801 22.4685 35.6614 22.7431 35.4684C22.9138 35.3496 23.4705 35.3422 30.2619 35.3422C37.4616 35.3422 37.5952 35.3422 37.8847 35.1938C38.3894 34.934 38.4785 34.6594 38.4785 33.3011C38.4785 31.9428 38.3894 31.6681 37.8847 31.4084C37.5878 31.2599 37.5136 31.2525 30.1432 31.2822C21.7411 31.3045 22.4536 31.2525 21.0731 31.9279C20.6203 32.1432 20.1601 32.4401 19.9078 32.6702L19.4773 33.0561L19.0542 32.6776C18.5569 32.2322 17.5772 31.7053 16.8052 31.4677L16.2486 31.297L8.7891 31.2822C1.46325 31.2673 1.32222 31.2673 1.05502 31.4084Z" fill="white"/>
</g>
<defs>
<clipPath id="clip0_2105_2232">
<rect width="38.0024" height="38.0024" fill="white" transform="translate(0.476074 0.382812)"/>
</clipPath>
</defs>
</svg>
