<svg width="39" height="39" viewBox="0 0 39 39" fill="none" xmlns="http://www.w3.org/2000/svg">
<path d="M2.80946 2.82127L2.6239 2.9994V6.79222V10.585L2.80946 10.7632L2.9876 10.9487H6.78041H10.5732L10.7514 10.7632L10.9369 10.585V6.79222V2.9994L10.7514 2.82127L10.5732 2.63571H6.78041H2.9876L2.80946 2.82127ZM4.99905 4.41707V5.01086H4.40526H3.81148V4.41707V3.82328H4.40526H4.99905V4.41707ZM9.74935 4.41707V5.01086H7.96799H6.18663V4.41707V3.82328H7.96799H9.74935V4.41707ZM9.74935 6.79222V7.38601H6.78041H3.81148V6.79222V6.19843H6.78041H9.74935V6.79222ZM9.74935 9.16737V9.76116H6.78041H3.81148V9.16737V8.57358H6.78041H9.74935V9.16737Z" fill="white"/>
<path d="M30.9402 2.70251C29.6265 2.99198 28.5651 3.80844 28.0084 4.97375C26.8802 7.28952 28.0307 9.92445 30.532 10.7706C30.8289 10.8745 31.1555 10.9116 31.7196 10.9116C32.9072 10.9116 33.835 10.5331 34.644 9.71662C35.4605 8.90759 35.839 7.9798 35.839 6.79222C35.839 6.22812 35.8019 5.90154 35.698 5.60465C35.1042 3.83813 33.6865 2.73962 31.9051 2.67282C31.5415 2.65798 31.1035 2.67282 30.9402 2.70251ZM34.0947 5.01086C34.2951 5.21126 34.4659 5.40424 34.4659 5.43393C34.4659 5.47104 33.7682 6.19101 32.922 7.03716C31.5266 8.42514 31.3559 8.57358 31.1258 8.57358C30.9106 8.57358 30.7695 8.46225 29.9234 7.63095C29.4038 7.11138 28.9733 6.65862 28.9733 6.62151C28.9733 6.54728 29.7007 5.82732 29.7749 5.82732C29.8046 5.82732 30.1164 6.11679 30.4726 6.47306L31.1258 7.12623L32.3728 5.87927C33.0556 5.19642 33.6346 4.63974 33.6642 4.63974C33.6939 4.63974 33.8869 4.80303 34.0947 5.01086Z" fill="white"/>
<path d="M16.7709 5.09273C15.5537 5.38962 14.6185 6.5104 14.522 7.77219L14.4849 8.31403L14.7892 8.61092L15.0935 8.90039V8.64061C15.0935 8.49958 15.138 8.32145 15.1974 8.2398C15.2568 8.15816 15.9025 7.79446 16.6448 7.42334L17.9882 6.75533L20.5341 7.38623C23.3323 8.08393 23.4065 8.11362 23.4065 8.62576V8.90039L23.7108 8.61092L24.0152 8.31403L23.978 7.77219C23.8964 6.69596 23.2952 5.8127 22.308 5.32282L21.7439 5.0482L19.4059 5.03335C18.1144 5.02593 16.9342 5.05562 16.7709 5.09273Z" fill="white"/>
<path d="M17.1495 8.50701L16.2737 8.95235L16.2959 10.9044L16.3182 12.8491L16.5928 13.4132C16.9268 14.0886 17.3573 14.5043 18.0476 14.8308C18.5004 15.0461 18.6117 15.0684 19.25 15.0684C19.8884 15.0684 19.9997 15.0461 20.4525 14.8308C21.1427 14.5043 21.5732 14.0886 21.9072 13.4132L22.1819 12.8491L22.2041 10.9415L22.2264 9.04142L20.2595 8.54412C19.1758 8.27692 18.2258 8.05425 18.159 8.06167C18.0847 8.06167 17.632 8.26207 17.1495 8.50701Z" fill="white"/>
<path d="M14.4998 11.2461V11.543H14.7966H15.0935V11.2461V10.9492H14.7966H14.4998V11.2461Z" fill="white"/>
<path d="M23.4065 11.2461V11.543H23.7034H24.0003V11.2461V10.9492H23.7034H23.4065V11.2461Z" fill="white"/>
<path d="M2.77246 14.6304C2.77246 14.8308 3.52212 15.5137 3.85612 15.6102C4.07137 15.6695 4.96205 15.6992 6.88444 15.6992C9.2967 15.6992 9.60102 15.6844 9.60102 15.5805C9.60102 15.3801 8.85136 14.6972 8.51735 14.6007C8.30211 14.5413 7.41142 14.5116 5.48904 14.5116C3.07678 14.5116 2.77246 14.5265 2.77246 14.6304Z" fill="white"/>
<path d="M29.9382 14.6081C29.6487 14.6972 28.899 15.4023 28.899 15.5805C28.899 15.6844 29.2034 15.6992 31.6156 15.6992C33.538 15.6992 34.4287 15.6695 34.6439 15.6102C34.9779 15.5137 35.7276 14.8308 35.7276 14.6304C35.7276 14.5265 35.4233 14.5116 32.9665 14.5191C31.1777 14.5265 30.1089 14.5562 29.9382 14.6081Z" fill="white"/>
<path d="M18.2406 17.0573L18.1144 17.8663L18.6859 18.4304L19.25 19.002L19.8141 18.4304L20.3856 17.8663L20.2594 17.0573L20.1258 16.2557H19.25H18.3742L18.2406 17.0573Z" fill="white"/>
<path d="M7.93835 16.9757C7.96803 17.0277 8.78449 18.3266 9.76424 19.863L11.5308 22.6464V23.3292V24.0121H12.2359C12.889 24.0121 12.9633 24.0269 13.1266 24.1977L13.3121 24.3758V28.948V33.5127H19.25H25.1879V28.948V24.3758L25.3734 24.1977C25.5367 24.0269 25.6109 24.0121 26.2641 24.0121H26.9692V23.3589C26.9692 22.7132 26.9692 22.7058 27.3478 22.0526C27.6298 21.5479 29.3592 18.8313 30.5171 17.0499L30.621 16.8866H29.5225L28.4166 16.8941L26.4497 19.3063C25.366 20.6349 24.2081 22.0526 23.8815 22.4534L23.2729 23.1956L22.8276 22.8394C22.5752 22.6464 22.3748 22.4757 22.3748 22.4534C22.3748 22.4311 22.9389 21.7334 23.6292 20.8947L24.8836 19.3731L24.6831 19.2098C24.4159 18.9872 23.7108 18.7051 23.6366 18.7868C23.5995 18.8239 23.0057 19.6478 22.3154 20.6127L21.061 22.3718L21.64 25.7712C21.9517 27.6416 22.2115 29.2671 22.2115 29.3933C22.2189 29.5789 22.0259 29.8089 20.8606 30.9668C19.6285 32.1989 19.4801 32.3251 19.25 32.3251C19.0199 32.3251 18.8715 32.1989 17.6393 30.9668C16.474 29.8015 16.2811 29.5789 16.2885 29.3933C16.2885 29.2671 16.5483 27.6416 16.86 25.7712L17.4389 22.3718L16.1846 20.6127C15.4943 19.6478 14.9005 18.8239 14.8708 18.7942C14.7966 18.7125 14.0618 19.002 13.8168 19.2024L13.6164 19.3731L14.8708 20.8947C15.5611 21.7334 16.1252 22.4311 16.1252 22.4534C16.1252 22.4757 15.9248 22.6538 15.6798 22.8468C15.2939 23.1585 15.2197 23.1956 15.1454 23.0917C15.0935 23.0323 13.9356 21.6147 12.5699 19.9372L10.0834 16.8941L8.9849 16.8866C8.1239 16.8866 7.89381 16.9089 7.93835 16.9757Z" fill="white"/>
<path d="M16.3701 18.2749C16.1697 18.3491 16.0732 18.4159 16.1104 18.4679C16.14 18.5198 16.6596 19.2472 17.2682 20.0934L18.3667 21.6372H19.25H20.1333L21.2318 20.0934C21.8404 19.2472 22.36 18.5198 22.3897 18.4679C22.4268 18.4159 22.3303 18.3491 22.1299 18.2749L21.8107 18.1636L20.6528 19.3066C19.6285 20.3235 19.4727 20.4496 19.25 20.4496C19.0273 20.4496 18.8715 20.3235 17.8472 19.3066L16.6893 18.1636L16.3701 18.2749Z" fill="white"/>
<path d="M18.5523 22.9508C18.5375 23.025 18.5004 23.2329 18.4707 23.4184C18.441 23.604 18.4039 23.8118 18.389 23.8786C18.3519 23.9974 18.4262 24.0122 19.25 24.0122C20.0739 24.0122 20.1481 23.9974 20.111 23.8786C20.0962 23.8118 20.0591 23.604 20.0294 23.4184C19.9403 22.7949 19.9774 22.8246 19.25 22.8246C18.6859 22.8246 18.5894 22.8469 18.5523 22.9508Z" fill="white"/>
<path d="M3.81152 29.3562V33.5127H7.96804H12.1245V29.3562V25.1997H10.937H9.7494V26.2017C9.7494 27.174 9.74198 27.2185 9.56384 27.3893C9.3857 27.5748 9.37086 27.5748 7.96804 27.5748C6.56521 27.5748 6.55037 27.5748 6.37223 27.3893C6.1941 27.2185 6.18667 27.174 6.18667 26.2017V25.1997H4.9991H3.81152V29.3562Z" fill="white"/>
<path d="M7.37427 25.7934V26.3872H7.96805H8.56184V25.7934V25.1996H7.96805H7.37427V25.7934Z" fill="white"/>
<path d="M17.8472 27.1742L17.5206 29.1485L18.3816 30.0095L19.25 30.8779L20.1184 30.0095L20.9794 29.1485L20.6529 27.1742L20.3337 25.1998H19.25H18.1664L17.8472 27.1742Z" fill="white"/>
<path d="M26.3755 29.3562V33.5127H30.532H34.6885V29.3562V25.1997H33.5009H32.3134V26.2017C32.3134 27.174 32.3059 27.2185 32.1278 27.3893C31.9497 27.5748 31.9348 27.5748 30.532 27.5748C29.1292 27.5748 29.1143 27.5748 28.9362 27.3893C28.7581 27.2185 28.7506 27.174 28.7506 26.2017V25.1997H27.5631H26.3755V29.3562Z" fill="white"/>
<path d="M29.9382 25.7934V26.3872H30.532H31.1258V25.7934V25.1996H30.532H29.9382V25.7934Z" fill="white"/>
<path d="M2.6239 35.2944V35.8882H19.2499H35.876V35.2944V34.7006H19.2499H2.6239V35.2944Z" fill="white"/>
</svg>
