<svg width="40" height="40" viewBox="0 0 40 40" fill="none" xmlns="http://www.w3.org/2000/svg">
<path fill-rule="evenodd" clip-rule="evenodd" d="M12.8539 10.9003C12.8539 8.82576 13.6781 6.83615 15.145 5.3692C16.612 3.90225 18.6016 3.07813 20.6762 3.07812C22.7508 3.07813 24.7404 3.90225 26.2073 5.3692C27.6743 6.83615 28.4984 8.82576 28.4984 10.9003C28.4984 12.9749 27.6743 14.9645 26.2073 16.4315C24.7404 17.8984 22.7508 18.7226 20.6762 18.7226C18.6016 18.7226 16.612 17.8984 15.145 16.4315C13.6781 14.9645 12.8539 12.9749 12.8539 10.9003ZM12.8539 22.6337C10.2607 22.6337 7.77371 23.6638 5.94002 25.4975C4.10633 27.3312 3.07617 29.8182 3.07617 32.4115C3.07617 33.9674 3.69427 35.4596 4.79448 36.5598C5.89469 37.66 7.3869 38.2781 8.94284 38.2781H32.4095C33.9654 38.2781 35.4576 37.66 36.5579 36.5598C37.6581 35.4596 38.2762 33.9674 38.2762 32.4115C38.2762 29.8182 37.246 27.3312 35.4123 25.4975C33.5786 23.6638 31.0916 22.6337 28.4984 22.6337H12.8539Z" fill="#0033CC"/>
</svg>
