<svg width="40" height="40" viewBox="0 0 40 40" fill="none" xmlns="http://www.w3.org/2000/svg">
<path fill-rule="evenodd" clip-rule="evenodd" d="M22.7157 34.1187L21.8123 35.6454C21.0073 37.0054 18.9957 37.0054 18.189 35.6454L17.2857 34.1187C16.5857 32.9354 16.2357 32.342 15.6723 32.0154C15.109 31.687 14.4007 31.6754 12.984 31.6504C10.8907 31.6154 9.57898 31.487 8.47898 31.0304C7.46793 30.6116 6.54926 29.9977 5.77543 29.2239C5.00161 28.4501 4.38777 27.5314 3.96898 26.5204C3.33398 24.9904 3.33398 23.0487 3.33398 19.1654V17.4987C3.33398 12.0437 3.33398 9.31536 4.56232 7.31203C5.24905 6.19069 6.1914 5.24778 7.31232 4.56036C9.31732 3.33203 12.0473 3.33203 17.5007 3.33203H22.5007C27.9557 3.33203 30.684 3.33203 32.689 4.56036C33.8097 5.24731 34.752 6.18963 35.439 7.31036C36.6673 9.31536 36.6673 12.0454 36.6673 17.4987V19.1654C36.6673 23.0487 36.6673 24.9904 36.034 26.5204C35.615 27.5316 35.0009 28.4503 34.2268 29.2242C33.4527 29.998 32.5337 30.6118 31.5223 31.0304C30.4223 31.487 29.1106 31.6137 27.0173 31.6504C25.6006 31.6754 24.8923 31.687 24.329 32.0154C23.7657 32.342 23.4156 32.9337 22.7157 34.1187ZM13.334 19.582C13.0025 19.582 12.6845 19.7137 12.4501 19.9481C12.2157 20.1826 12.084 20.5005 12.084 20.832C12.084 21.1636 12.2157 21.4815 12.4501 21.7159C12.6845 21.9503 13.0025 22.082 13.334 22.082H22.5007C22.8322 22.082 23.1501 21.9503 23.3845 21.7159C23.619 21.4815 23.7507 21.1636 23.7507 20.832C23.7507 20.5005 23.619 20.1826 23.3845 19.9481C23.1501 19.7137 22.8322 19.582 22.5007 19.582H13.334ZM12.084 14.9987C12.084 14.6672 12.2157 14.3492 12.4501 14.1148C12.6845 13.8804 13.0025 13.7487 13.334 13.7487H26.6673C26.9988 13.7487 27.3168 13.8804 27.5512 14.1148C27.7856 14.3492 27.9173 14.6672 27.9173 14.9987C27.9173 15.3302 27.7856 15.6482 27.5512 15.8826C27.3168 16.117 26.9988 16.2487 26.6673 16.2487H13.334C13.0025 16.2487 12.6845 16.117 12.4501 15.8826C12.2157 15.6482 12.084 15.3302 12.084 14.9987Z" fill="#0033CC"/>
<circle cx="35" cy="6" r="4" fill="#FF2E13"/>
</svg>
