<svg width="69" height="69" viewBox="0 0 69 69" fill="none" xmlns="http://www.w3.org/2000/svg">
<mask id="mask0_5184_6256" style="mask-type:luminance" maskUnits="userSpaceOnUse" x="0" y="0" width="69" height="69">
<path d="M0 0H69V69H0V0Z" fill="white"/>
</mask>
<g mask="url(#mask0_5184_6256)">
<path fill-rule="evenodd" clip-rule="evenodd" d="M0 34.5C0 15.4462 15.4462 0 34.5 0C53.5538 0 69 15.4462 69 34.5C69 53.5538 53.5538 69 34.5 69C15.4462 69 0 53.5538 0 34.5ZM15.8125 51.2181C15.8125 51.5686 15.2935 51.8442 15.0618 51.5812C10.9167 46.8754 8.61664 40.8042 8.625 34.5C8.625 20.2098 20.2098 8.625 34.5 8.625C48.7902 8.625 60.375 20.2098 60.375 34.5C60.3834 40.6463 58.1972 46.5708 54.2468 51.2242C53.9512 51.5724 53.2136 51.1966 53.1664 50.7423C53.0988 50.0918 52.8837 49.4653 52.5374 48.9105C52.1911 48.3557 51.7228 47.8873 51.1681 47.5408C50.6134 47.1944 49.9869 46.9791 49.3364 46.9114C38.1843 45.7571 30.8847 45.6464 19.6779 46.8855C18.6131 47.0055 17.63 47.514 16.9168 48.3137C16.2036 49.1134 15.8104 50.1466 15.8125 51.2181ZM5.75 34.5C5.75 49.9847 17.9932 62.6118 33.327 63.227C33.6516 63.2449 33.9766 63.2521 34.3016 63.2486L34.5 63.25C50.3786 63.25 63.25 50.3786 63.25 34.5C63.25 18.6214 50.3786 5.75 34.5 5.75C18.6214 5.75 5.75 18.6214 5.75 34.5ZM34.5 40.25C37.55 40.25 40.4751 39.0384 42.6317 36.8817C44.7884 34.7251 46 31.8 46 28.75C46 25.7 44.7884 22.7749 42.6317 20.6183C40.4751 18.4616 37.55 17.25 34.5 17.25C31.45 17.25 28.5249 18.4616 26.3683 20.6183C24.2116 22.7749 23 25.7 23 28.75C23 31.8 24.2116 34.7251 26.3683 36.8817C28.5249 39.0384 31.45 40.25 34.5 40.25Z" fill="#ADADAD"/>
</g>
</svg>
