<svg width="24" height="24" viewBox="0 0 24 24" fill="none" xmlns="http://www.w3.org/2000/svg">
<g clip-path="url(#clip0_4328_11732)">
<path d="M8.8688 1.53281C8.58286 1.67344 8.50786 1.8375 8.4938 2.37656L8.47505 2.85938H6.64692C4.62661 2.85938 4.60317 2.86406 4.39224 3.15938C4.2938 3.3 4.28911 3.35156 4.27505 4.48594L4.26099 5.67188H14.1329H24.0047L23.9907 4.48594C23.9719 2.7375 24.1454 2.85938 21.6141 2.85938H19.7813V2.43281C19.7813 1.74844 19.5797 1.47656 19.0782 1.47656C18.5766 1.47656 18.375 1.74844 18.375 2.43281V2.85938H16.5938H14.8125V2.43281C14.8125 1.74844 14.611 1.47656 14.1094 1.47656C13.6079 1.47656 13.4063 1.74844 13.4063 2.43281V2.85938H11.6485H9.89067V2.42344C9.89067 2.0625 9.87192 1.96406 9.78286 1.80938C9.60005 1.48594 9.2063 1.36406 8.8688 1.53281Z" fill="#40A865"/>
<path d="M4.20004 7.66875C4.01723 11.1562 2.57817 14.7187 0.492228 16.8469C0.271916 17.0766 0.0656658 17.3156 0.0422283 17.3766C-0.0702717 17.6812 0.0844158 18.0844 0.375041 18.2391C0.529728 18.3234 0.871915 18.3281 9.88129 18.3281C19.0079 18.3281 19.2282 18.3281 19.3969 18.2391C19.4907 18.1875 19.7204 17.9953 19.9032 17.8031C21.1969 16.4766 22.3547 14.4984 23.0344 12.4547C23.5266 10.9828 23.8641 9.19219 23.9391 7.69687L23.9672 7.07812H14.1H4.23285L4.20004 7.66875Z" fill="#40A865"/>
<path d="M23.8641 14.2781C23.2266 15.8344 22.0266 17.6625 20.9016 18.7922C20.3906 19.2984 20.1609 19.4719 19.7906 19.6125L19.5234 19.7109L11.8922 19.725L4.26562 19.7344V20.8641C4.26562 21.9 4.275 22.0031 4.35937 22.1719C4.42031 22.2937 4.51875 22.3922 4.64062 22.4531C4.82344 22.5469 4.89844 22.5469 14.1328 22.5469C23.3672 22.5469 23.4422 22.5469 23.625 22.4531C23.7469 22.3922 23.8453 22.2937 23.9062 22.1719C24 21.9891 24 21.9187 23.9906 17.9953L23.9766 14.0016L23.8641 14.2781Z" fill="#40A865"/>
<path d="M11.4859 15H7.10932L7.10925 14.2426L8.98247 13.1545C9.7305 12.72 10.4605 12.2208 10.9582 11.5132C11.1497 11.2409 11.2826 10.9862 11.2826 10.8093C11.2826 10.4839 11.1664 10.2286 10.934 10.0435C10.7081 9.85274 10.424 9.75736 10.0819 9.75736C9.44286 9.75736 8.97808 10.021 8.6876 10.5484L7.93235 10.1613C8.13891 9.78542 8.4294 9.4993 8.8038 9.30295C9.17819 9.10098 9.60101 9 10.0722 9C10.6467 9 11.1406 9.16269 11.5537 9.48808C11.9733 9.81908 12.1831 10.2567 12.1831 10.8008C12.1831 11.2274 11.7886 11.8126 11.2677 12.3683C10.8524 12.8113 10.3462 13.1554 9.8233 13.4641L8.50496 14.2426H11.4859V15ZM16.5594 13.1487H17.4324L17.1093 13.8808H16.2863L15.9324 15H14.9324L15.3858 13.8808H11.9291L12.4324 13.1487L15.1824 9.1094H16.1507L13.4324 13.1487H15.649L16.2088 11.4825H17.1093L16.5594 13.1487Z" fill="white"/>
</g>
<defs>
<clipPath id="clip0_4328_11732">
<rect width="24" height="24" fill="white"/>
</clipPath>
</defs>
</svg>
