<svg width="24" height="22" viewBox="0 0 24 22" fill="none" xmlns="http://www.w3.org/2000/svg">
<g clip-path="url(#clip0_4328_11827)">
<path d="M8.86875 0.636329C8.58281 0.776954 8.50781 0.941016 8.49375 1.48008L8.475 1.96289H6.64687C4.62656 1.96289 4.60312 1.96758 4.39218 2.26289C4.29375 2.40352 4.28906 2.45508 4.275 3.58945L4.26093 4.77539H14.1328H24.0047L23.9906 3.58945C23.9719 1.84102 24.1453 1.96289 21.6141 1.96289H19.7812V1.53633C19.7812 0.851954 19.5797 0.580079 19.0781 0.580079C18.5766 0.580079 18.375 0.851954 18.375 1.53633V1.96289H16.5937H14.8125V1.53633C14.8125 0.851954 14.6109 0.580079 14.1094 0.580079C13.6078 0.580079 13.4062 0.851954 13.4062 1.53633V1.96289H11.6484H9.89062V1.52695C9.89062 1.16602 9.87187 1.06758 9.78281 0.912891C9.6 0.589454 9.20625 0.467579 8.86875 0.636329Z" fill="#40A865"/>
<path d="M4.2 6.77227C4.01719 10.2598 2.57812 13.8223 0.492186 15.9504C0.271874 16.1801 0.0656238 16.4191 0.0421863 16.4801C-0.0703137 16.7848 0.0843738 17.1879 0.374999 17.3426C0.529686 17.427 0.871873 17.4316 9.88125 17.4316C19.0078 17.4316 19.2281 17.4316 19.3969 17.3426C19.4906 17.291 19.7203 17.0988 19.9031 16.9066C21.1969 15.5801 22.3547 13.602 23.0344 11.5582C23.5266 10.0863 23.8641 8.2957 23.9391 6.80039L23.9672 6.18164H14.1H4.23281L4.2 6.77227Z" fill="#40A865"/>
<path d="M23.8641 13.3816C23.2266 14.9379 22.0266 16.766 20.9016 17.8957C20.3906 18.402 20.1609 18.5754 19.7906 18.716L19.5234 18.8145L11.8922 18.8285L4.26562 18.8379V19.9676C4.26562 21.0035 4.275 21.1066 4.35937 21.2754C4.42031 21.3973 4.51875 21.4957 4.64062 21.5566C4.82344 21.6504 4.89844 21.6504 14.1328 21.6504C23.3672 21.6504 23.4422 21.6504 23.625 21.5566C23.7469 21.4957 23.8453 21.3973 23.9062 21.2754C24 21.0926 24 21.0223 23.9906 17.0988L23.9766 13.1051L23.8641 13.3816Z" fill="#40A865"/>
<path d="M11.4859 14.1035H7.10927L7.10921 13.3462L8.98243 12.258C9.73045 11.8235 10.4605 11.3243 10.9582 10.6167C11.1497 10.3444 11.2825 10.0897 11.2825 9.91277C11.2825 9.58739 11.1663 9.33213 10.934 9.14699C10.708 8.95625 10.424 8.86088 10.0819 8.86088C9.44281 8.86088 8.97804 9.12456 8.68756 9.6519L7.9323 9.26481C8.13887 8.88893 8.42935 8.60282 8.80375 8.40646C9.17815 8.2045 9.60096 8.10352 10.0722 8.10352C10.6467 8.10352 11.1405 8.26621 11.5536 8.59159C11.9732 8.92259 12.183 9.36018 12.183 9.90436C12.183 10.3309 11.7885 10.9162 11.2677 11.4718C10.8524 11.9148 10.3462 12.2589 9.82325 12.5677L8.50491 13.3462H11.4859V14.1035ZM16.5593 12.2522H17.4323L17.1093 12.9843H16.2862L15.9323 14.1035H14.9323L15.3857 12.9843H11.929L12.4323 12.2522L15.1824 8.21291H16.1507L13.4323 12.2522H15.6489L16.2088 10.586H17.1093L16.5593 12.2522Z" fill="white"/>
</g>
<defs>
<clipPath id="clip0_4328_11827">
<rect width="24" height="22" fill="white"/>
</clipPath>
</defs>
</svg>
