<svg width="24" height="24" viewBox="0 0 24 24" fill="none" xmlns="http://www.w3.org/2000/svg">
<g clip-path="url(#clip0_4328_11752)">
<path d="M7.07812 3.23437V5.46875C7.07812 6.02103 7.52584 6.46875 8.07813 6.46875H8.48438H8.89063C9.44291 6.46875 9.89062 6.02103 9.89062 5.46875V3.23437V1C9.89062 0.447715 9.44291 -4.76837e-07 8.89062 -4.76837e-07H8.48438H8.07812C7.52584 -4.76837e-07 7.07812 0.447715 7.07812 1V3.23437Z" fill="black"/>
<path d="M7.07812 3.23437V5.46875C7.07812 6.02103 7.52584 6.46875 8.07813 6.46875H8.48438H8.89063C9.44291 6.46875 9.89062 6.02103 9.89062 5.46875V3.23437V1C9.89062 0.447715 9.44291 -4.76837e-07 8.89062 -4.76837e-07H8.48438H8.07812C7.52584 -4.76837e-07 7.07812 0.447715 7.07812 1V3.23437Z" fill="#40A865"/>
<path d="M11.2969 0.703003C11.2969 1.09133 11.6117 1.40613 12 1.40613H13.8516C15.5438 1.40613 16.4859 1.42488 16.65 1.45769C17.5313 1.64519 18.2109 2.38582 18.3281 3.28113C18.3516 3.47332 18.375 4.50925 18.375 5.578C18.375 7.70613 18.3938 7.86081 18.6563 8.40925C18.9703 9.06081 19.5563 9.57175 20.2547 9.80144C20.7469 9.96081 21.6234 9.9655 22.0828 9.80613C22.95 9.50613 23.5547 8.90144 23.85 8.04363L23.9252 7.81789C23.9592 7.71592 23.9766 7.60914 23.9766 7.50166V5.29675C23.9766 2.94363 23.9766 2.92957 23.8688 2.578C23.6672 1.9405 23.4141 1.51863 22.9453 1.05457C22.4906 0.595191 22.0875 0.346752 21.4453 0.135815L21.2735 0.0768919C21.17 0.0414143 21.0614 0.0231552 20.952 0.0228415L16.2094 0.00925255L12.0047 -0.00278378C11.6141 -0.00390148 11.2969 0.312417 11.2969 0.703003ZM21.1969 1.54207C21.7828 1.77175 22.2797 2.28269 22.4859 2.86863C22.5609 3.09363 22.5703 3.30456 22.5703 5.29675V7.2568C22.5703 7.4015 22.5389 7.54448 22.4783 7.67586L22.4578 7.72019C22.2141 8.26394 21.6984 8.55925 21.075 8.52175C20.5359 8.48425 20.1656 8.24519 19.9078 7.76238C19.8047 7.57488 19.8047 7.52331 19.7766 5.27331C19.7484 3.10769 19.7438 2.95769 19.65 2.63894C19.5328 2.25457 19.3781 1.89832 19.1953 1.59832C19.141 1.51177 19.2045 1.3995 19.3067 1.40156L19.9969 1.4155C20.8219 1.43425 20.9625 1.44832 21.1969 1.54207Z" fill="black"/>
<path d="M11.2969 0.703003C11.2969 1.09133 11.6117 1.40613 12 1.40613H13.8516C15.5438 1.40613 16.4859 1.42488 16.65 1.45769C17.5313 1.64519 18.2109 2.38582 18.3281 3.28113C18.3516 3.47332 18.375 4.50925 18.375 5.578C18.375 7.70613 18.3938 7.86081 18.6563 8.40925C18.9703 9.06081 19.5563 9.57175 20.2547 9.80144C20.7469 9.96081 21.6234 9.9655 22.0828 9.80613C22.95 9.50613 23.5547 8.90144 23.85 8.04363L23.9252 7.81789C23.9592 7.71592 23.9766 7.60914 23.9766 7.50166V5.29675C23.9766 2.94363 23.9766 2.92957 23.8688 2.578C23.6672 1.9405 23.4141 1.51863 22.9453 1.05457C22.4906 0.595191 22.0875 0.346752 21.4453 0.135815L21.2735 0.0768919C21.17 0.0414143 21.0614 0.0231552 20.952 0.0228415L16.2094 0.00925255L12.0047 -0.00278378C11.6141 -0.00390148 11.2969 0.312417 11.2969 0.703003ZM21.1969 1.54207C21.7828 1.77175 22.2797 2.28269 22.4859 2.86863C22.5609 3.09363 22.5703 3.30456 22.5703 5.29675V7.2568C22.5703 7.4015 22.5389 7.54448 22.4783 7.67586L22.4578 7.72019C22.2141 8.26394 21.6984 8.55925 21.075 8.52175C20.5359 8.48425 20.1656 8.24519 19.9078 7.76238C19.8047 7.57488 19.8047 7.52331 19.7766 5.27331C19.7484 3.10769 19.7438 2.95769 19.65 2.63894C19.5328 2.25457 19.3781 1.89832 19.1953 1.59832C19.141 1.51177 19.2045 1.3995 19.3067 1.40156L19.9969 1.4155C20.8219 1.43425 20.9625 1.44832 21.1969 1.54207Z" fill="#40A865"/>
<path d="M0 13.7578V22C0 23.1046 0.895431 24 2 24H8.46094H14.9219C16.0264 24 16.9219 23.1046 16.9219 22V13.7578V5.51562C16.9219 4.41105 16.0264 3.51562 14.9219 3.51562H14.1094H12.7266C11.937 3.51562 11.2969 4.15572 11.2969 4.94531V5.67188C11.2969 6.0602 11.6117 6.375 12 6.375C12.3883 6.375 12.7031 6.6898 12.7031 7.07812C12.7031 7.4662 12.3881 7.78055 12 7.77969L8.475 7.77187L4.93608 7.76012C4.55023 7.75883 4.23594 7.44983 4.22813 7.06406C4.22041 6.6858 4.52493 6.375 4.90327 6.375H4.92188C5.3102 6.375 5.625 6.0602 5.625 5.67188V4.94531C5.625 4.15572 4.98491 3.51562 4.19531 3.51562H2.8125H2C0.895431 3.51562 0 4.41105 0 5.51562V13.7578ZM9.27188 9.29531C11.1562 9.84375 11.9109 12.1453 10.7156 13.7062C10.6172 13.8281 10.5563 13.9453 10.5797 13.9641C10.5984 13.9828 10.7391 14.0766 10.8891 14.175C11.2453 14.4141 11.8875 15.0984 12.1078 15.4734C12.5156 16.1672 12.7031 16.9172 12.7031 17.8406C12.7031 18.1356 12.4637 18.3745 12.1688 18.3738L8.475 18.3656L4.88444 18.3537C4.53091 18.3525 4.2464 18.0629 4.25156 17.7094C4.26094 16.7297 4.47656 16.0125 4.97344 15.2766C5.23125 14.8922 5.75625 14.3672 6.11719 14.1328C6.1428 14.1165 6.1679 14.1005 6.192 14.085C6.34118 13.9894 6.37594 13.8611 6.2625 13.725C6.05156 13.4812 5.83594 13.05 5.74219 12.7031C5.65313 12.3703 5.65313 11.6297 5.74219 11.2969C6 10.3219 6.79688 9.50625 7.73438 9.2625C8.14688 9.15469 8.82656 9.16875 9.27188 9.29531ZM4.92188 20.4844C4.92188 20.8727 4.60708 21.1875 4.21875 21.1875C3.83043 21.1875 3.51563 20.8727 3.51563 20.4844C3.51563 20.096 3.83043 19.7812 4.21875 19.7812C4.60708 19.7812 4.92188 20.096 4.92188 20.4844ZM7.77188 20.4703C7.76407 20.8553 7.45376 21.1703 7.06875 21.1781C6.6879 21.1858 6.375 20.8792 6.375 20.4983V20.4844C6.375 20.096 6.6898 19.7812 7.07813 19.7812H7.09673C7.47507 19.7812 7.77959 20.092 7.77188 20.4703ZM10.5938 20.4844C10.5938 20.8727 10.279 21.1875 9.89062 21.1875C9.5023 21.1875 9.1875 20.8727 9.1875 20.4844C9.1875 20.096 9.5023 19.7812 9.89062 19.7812C10.279 19.7812 10.5938 20.096 10.5938 20.4844ZM13.4063 20.4844C13.4063 20.8727 13.0915 21.1875 12.7031 21.1875C12.3148 21.1875 12 20.8727 12 20.4844C12 20.096 12.3148 19.7812 12.7031 19.7812C13.0915 19.7812 13.4063 20.096 13.4063 20.4844Z" fill="black"/>
<path d="M0 13.7578V22C0 23.1046 0.895431 24 2 24H8.46094H14.9219C16.0264 24 16.9219 23.1046 16.9219 22V13.7578V5.51562C16.9219 4.41105 16.0264 3.51562 14.9219 3.51562H14.1094H12.7266C11.937 3.51562 11.2969 4.15572 11.2969 4.94531V5.67188C11.2969 6.0602 11.6117 6.375 12 6.375C12.3883 6.375 12.7031 6.6898 12.7031 7.07812C12.7031 7.4662 12.3881 7.78055 12 7.77969L8.475 7.77187L4.93608 7.76012C4.55023 7.75883 4.23594 7.44983 4.22813 7.06406C4.22041 6.6858 4.52493 6.375 4.90327 6.375H4.92188C5.3102 6.375 5.625 6.0602 5.625 5.67188V4.94531C5.625 4.15572 4.98491 3.51562 4.19531 3.51562H2.8125H2C0.895431 3.51562 0 4.41105 0 5.51562V13.7578ZM9.27188 9.29531C11.1562 9.84375 11.9109 12.1453 10.7156 13.7062C10.6172 13.8281 10.5563 13.9453 10.5797 13.9641C10.5984 13.9828 10.7391 14.0766 10.8891 14.175C11.2453 14.4141 11.8875 15.0984 12.1078 15.4734C12.5156 16.1672 12.7031 16.9172 12.7031 17.8406C12.7031 18.1356 12.4637 18.3745 12.1688 18.3738L8.475 18.3656L4.88444 18.3537C4.53091 18.3525 4.2464 18.0629 4.25156 17.7094C4.26094 16.7297 4.47656 16.0125 4.97344 15.2766C5.23125 14.8922 5.75625 14.3672 6.11719 14.1328C6.1428 14.1165 6.1679 14.1005 6.192 14.085C6.34118 13.9894 6.37594 13.8611 6.2625 13.725C6.05156 13.4812 5.83594 13.05 5.74219 12.7031C5.65313 12.3703 5.65313 11.6297 5.74219 11.2969C6 10.3219 6.79688 9.50625 7.73438 9.2625C8.14688 9.15469 8.82656 9.16875 9.27188 9.29531ZM4.92188 20.4844C4.92188 20.8727 4.60708 21.1875 4.21875 21.1875C3.83043 21.1875 3.51563 20.8727 3.51563 20.4844C3.51563 20.096 3.83043 19.7812 4.21875 19.7812C4.60708 19.7812 4.92188 20.096 4.92188 20.4844ZM7.77188 20.4703C7.76407 20.8553 7.45376 21.1703 7.06875 21.1781C6.6879 21.1858 6.375 20.8792 6.375 20.4983V20.4844C6.375 20.096 6.6898 19.7812 7.07813 19.7812H7.09673C7.47507 19.7812 7.77959 20.092 7.77188 20.4703ZM10.5938 20.4844C10.5938 20.8727 10.279 21.1875 9.89062 21.1875C9.5023 21.1875 9.1875 20.8727 9.1875 20.4844C9.1875 20.096 9.5023 19.7812 9.89062 19.7812C10.279 19.7812 10.5938 20.096 10.5938 20.4844ZM13.4063 20.4844C13.4063 20.8727 13.0915 21.1875 12.7031 21.1875C12.3148 21.1875 12 20.8727 12 20.4844C12 20.096 12.3148 19.7812 12.7031 19.7812C13.0915 19.7812 13.4063 20.096 13.4063 20.4844Z" fill="#40A865"/>
<path d="M7.97813 10.6826C7.64531 10.7951 7.41094 10.9919 7.24219 11.3013C7.11563 11.531 7.10156 11.5966 7.10156 11.9763C7.10156 12.3419 7.12031 12.431 7.22813 12.6326C7.78125 13.6779 9.23438 13.6498 9.75 12.5857C9.90938 12.2576 9.90938 11.7513 9.75469 11.3997C9.45938 10.7482 8.69531 10.4341 7.97813 10.6826Z" fill="black"/>
<path d="M7.97813 10.6826C7.64531 10.7951 7.41094 10.9919 7.24219 11.3013C7.11563 11.531 7.10156 11.5966 7.10156 11.9763C7.10156 12.3419 7.12031 12.431 7.22813 12.6326C7.78125 13.6779 9.23438 13.6498 9.75 12.5857C9.90938 12.2576 9.90938 11.7513 9.75469 11.3997C9.45938 10.7482 8.69531 10.4341 7.97813 10.6826Z" fill="#40A865"/>
<path d="M7.90779 14.8828C7.73435 14.9156 7.42966 15.0234 7.2281 15.1219C6.59529 15.4266 5.92498 16.2 5.78435 16.7906L5.75623 16.9219H8.47498H11.1984L11.1609 16.7906C11.039 16.3828 10.6969 15.8437 10.3781 15.5625C9.7031 14.9719 8.74685 14.7047 7.90779 14.8828Z" fill="black"/>
<path d="M7.90779 14.8828C7.73435 14.9156 7.42966 15.0234 7.2281 15.1219C6.59529 15.4266 5.92498 16.2 5.78435 16.7906L5.75623 16.9219H8.47498H11.1984L11.1609 16.7906C11.039 16.3828 10.6969 15.8437 10.3781 15.5625C9.7031 14.9719 8.74685 14.7047 7.90779 14.8828Z" fill="#40A865"/>
</g>
<defs>
<clipPath id="clip0_4328_11752">
<rect width="24" height="24" fill="white"/>
</clipPath>
</defs>
</svg>
